<?xml version="1.0" encoding="UTF-8" standalone="no"?>
<!DOCTYPE svg PUBLIC "-//W3C//DTD SVG 1.1//EN"
 "http://www.w3.org/Graphics/SVG/1.1/DTD/svg11.dtd">
<!-- Generated by graphviz version 2.43.0 (0)
 -->
<!-- Title: src/classes/nodes/physics/area.class.c Pages: 1 -->
<svg width="1978pt" height="434pt"
 viewBox="0.00 0.00 1978.00 434.00" xmlns="http://www.w3.org/2000/svg" xmlns:xlink="http://www.w3.org/1999/xlink">
<g id="graph0" class="graph" transform="scale(1 1) rotate(0) translate(4 430)">
<title>src/classes/nodes/physics/area.class.c</title>
<!-- Node1 -->
<g id="Node000001" class="node">
<title>Node1</title>
<g id="a_Node000001"><a xlink:title="This file handles the physics area nodes in the project.">
<polygon fill="#999999" stroke="#666666" points="1632,-426 1490,-426 1490,-396 1632,-396 1632,-426"/>
<text text-anchor="start" x="1498" y="-414" font-family="Helvetica,sans-Serif" font-size="10.00">src/classes/nodes/physics</text>
<text text-anchor="middle" x="1561" y="-403" font-family="Helvetica,sans-Serif" font-size="10.00">/area.class.c</text>
</a>
</g>
</g>
<!-- Node2 -->
<g id="Node000002" class="node">
<title>Node2</title>
<g id="a_Node000002"><a xlink:href="raptiquax_8h.html" target="_top" xlink:title="This file contains type definitions for fixed&#45;width integer types and floating&#45;point types.">
<polygon fill="white" stroke="#666666" points="946,-250 874,-250 874,-231 946,-231 946,-250"/>
<text text-anchor="middle" x="910" y="-238" font-family="Helvetica,sans-Serif" font-size="10.00">raptiquax.h</text>
</a>
</g>
</g>
<!-- Node1&#45;&gt;Node2 -->
<g id="edge1_Node000001_Node000002" class="edge">
<title>Node1&#45;&gt;Node2</title>
<g id="a_edge1_Node000001_Node000002"><a xlink:title=" ">
<path fill="none" stroke="#63b8ff" d="M1489.76,-407.98C1395.25,-404.08 1223.71,-392.74 1081,-360 1010.98,-343.94 978.35,-357.21 929,-305 917.52,-292.86 912.95,-274.06 911.15,-260.07"/>
<polygon fill="#63b8ff" stroke="#63b8ff" points="914.63,-259.72 910.21,-250.09 907.66,-260.37 914.63,-259.72"/>
</a>
</g>
</g>
<!-- Node24 -->
<g id="Node000024" class="node">
<title>Node24</title>
<g id="a_Node000024"><a xlink:href="classes_8h.html" target="_top" xlink:title=" ">
<polygon fill="white" stroke="#666666" points="1191.5,-360 1090.5,-360 1090.5,-341 1191.5,-341 1191.5,-360"/>
<text text-anchor="middle" x="1141" y="-348" font-family="Helvetica,sans-Serif" font-size="10.00">classes/classes.h</text>
</a>
</g>
</g>
<!-- Node1&#45;&gt;Node24 -->
<g id="edge23_Node000001_Node000024" class="edge">
<title>Node1&#45;&gt;Node24</title>
<g id="a_edge23_Node000001_Node000024"><a xlink:title=" ">
<path fill="none" stroke="#63b8ff" d="M1489.75,-400.08C1408.78,-388.8 1278,-370.58 1201.69,-359.95"/>
<polygon fill="#63b8ff" stroke="#63b8ff" points="1202.14,-356.48 1191.75,-358.57 1201.18,-363.42 1202.14,-356.48"/>
</a>
</g>
</g>
<!-- Node27 -->
<g id="Node000027" class="node">
<title>Node27</title>
<g id="a_Node000027"><a xlink:href="math__util_8h.html" target="_top" xlink:title=" ">
<polygon fill="white" stroke="#666666" points="1368.5,-250 1267.5,-250 1267.5,-231 1368.5,-231 1368.5,-250"/>
<text text-anchor="middle" x="1318" y="-238" font-family="Helvetica,sans-Serif" font-size="10.00">math/math_util.h</text>
</a>
</g>
</g>
<!-- Node1&#45;&gt;Node27 -->
<g id="edge27_Node000001_Node000027" class="edge">
<title>Node1&#45;&gt;Node27</title>
<g id="a_edge27_Node000001_Node000027"><a xlink:title=" ">
<path fill="none" stroke="#63b8ff" d="M1491.74,-395.98C1464.88,-388.31 1434.9,-376.83 1411,-360 1372.3,-332.75 1341.84,-284.81 1327.31,-259.05"/>
<polygon fill="#63b8ff" stroke="#63b8ff" points="1330.26,-257.15 1322.38,-250.06 1324.12,-260.51 1330.26,-257.15"/>
</a>
</g>
</g>
<!-- Node28 -->
<g id="Node000028" class="node">
<title>Node28</title>
<g id="a_Node000028"><a xlink:href="model_8h.html" target="_top" xlink:title="Defines structures and functions for handling 3D models and their properties.">
<polygon fill="white" stroke="#666666" points="1565,-250 1497,-250 1497,-231 1565,-231 1565,-250"/>
<text text-anchor="middle" x="1531" y="-238" font-family="Helvetica,sans-Serif" font-size="10.00">io/model.h</text>
</a>
</g>
</g>
<!-- Node1&#45;&gt;Node28 -->
<g id="edge28_Node000001_Node000028" class="edge">
<title>Node1&#45;&gt;Node28</title>
<g id="a_edge28_Node000001_Node000028"><a xlink:title=" ">
<path fill="none" stroke="#63b8ff" d="M1558.49,-395.92C1553.1,-365.65 1540.41,-294.35 1534.34,-260.27"/>
<polygon fill="#63b8ff" stroke="#63b8ff" points="1537.76,-259.49 1532.56,-250.25 1530.87,-260.71 1537.76,-259.49"/>
</a>
</g>
</g>
<!-- Node34 -->
<g id="Node000034" class="node">
<title>Node34</title>
<g id="a_Node000034"><a xlink:href="framebuffer_8h.html" target="_top" xlink:title=" ">
<polygon fill="white" stroke="#666666" points="1807.5,-305 1690.5,-305 1690.5,-286 1807.5,-286 1807.5,-305"/>
<text text-anchor="middle" x="1749" y="-293" font-family="Helvetica,sans-Serif" font-size="10.00">render/framebuffer.h</text>
</a>
</g>
</g>
<!-- Node1&#45;&gt;Node34 -->
<g id="edge34_Node000001_Node000034" class="edge">
<title>Node1&#45;&gt;Node34</title>
<g id="a_edge34_Node000001_Node000034"><a xlink:title=" ">
<path fill="none" stroke="#63b8ff" d="M1565.14,-395.97C1570.46,-380.32 1581.21,-355.32 1599,-341 1622.08,-322.41 1652.74,-311.59 1680.31,-305.28"/>
<polygon fill="#63b8ff" stroke="#63b8ff" points="1681.26,-308.66 1690.31,-303.16 1679.8,-301.81 1681.26,-308.66"/>
</a>
</g>
</g>
<!-- Node36 -->
<g id="Node000036" class="node">
<title>Node36</title>
<g id="a_Node000036"><a xlink:href="physics_8h.html" target="_top" xlink:title=" ">
<polygon fill="white" stroke="#666666" points="1710,-360 1608,-360 1608,-341 1710,-341 1710,-360"/>
<text text-anchor="middle" x="1659" y="-348" font-family="Helvetica,sans-Serif" font-size="10.00">physics/physics.h</text>
</a>
</g>
</g>
<!-- Node1&#45;&gt;Node36 -->
<g id="edge36_Node000001_Node000036" class="edge">
<title>Node1&#45;&gt;Node36</title>
<g id="a_edge36_Node000001_Node000036"><a xlink:title=" ">
<path fill="none" stroke="#63b8ff" d="M1584.72,-395.84C1600.2,-386.6 1620.32,-374.59 1635.71,-365.4"/>
<polygon fill="#63b8ff" stroke="#63b8ff" points="1637.81,-368.23 1644.6,-360.09 1634.22,-362.21 1637.81,-368.23"/>
</a>
</g>
</g>
<!-- Node37 -->
<g id="Node000037" class="node">
<title>Node37</title>
<g id="a_Node000037"><a xlink:href="lighting_8h.html" target="_top" xlink:title=" ">
<polygon fill="white" stroke="#666666" points="1970,-305 1864,-305 1864,-286 1970,-286 1970,-305"/>
<text text-anchor="middle" x="1917" y="-293" font-family="Helvetica,sans-Serif" font-size="10.00">../render/lighting.h</text>
</a>
</g>
</g>
<!-- Node1&#45;&gt;Node37 -->
<g id="edge53_Node000001_Node000037" class="edge">
<title>Node1&#45;&gt;Node37</title>
<g id="a_edge53_Node000001_Node000037"><a xlink:title=" ">
<path fill="none" stroke="#63b8ff" d="M1611.83,-395.98C1643.13,-386.84 1683.86,-374.03 1719,-360 1736.91,-352.85 1739.98,-347.85 1758,-341 1794.51,-327.13 1837.2,-315.42 1869.14,-307.49"/>
<polygon fill="#63b8ff" stroke="#63b8ff" points="1870.23,-310.83 1879.12,-305.06 1868.57,-304.03 1870.23,-310.83"/>
</a>
</g>
</g>
<!-- Node38 -->
<g id="Node000038" class="node">
<title>Node38</title>
<g id="a_Node000038"><a xlink:href="node_8h.html" target="_top" xlink:title=" ">
<polygon fill="white" stroke="#666666" points="1509.5,-360 1420.5,-360 1420.5,-341 1509.5,-341 1509.5,-360"/>
<text text-anchor="middle" x="1465" y="-348" font-family="Helvetica,sans-Serif" font-size="10.00">storage/node.h</text>
</a>
</g>
</g>
<!-- Node1&#45;&gt;Node38 -->
<g id="edge39_Node000001_Node000038" class="edge">
<title>Node1&#45;&gt;Node38</title>
<g id="a_edge39_Node000001_Node000038"><a xlink:title=" ">
<path fill="none" stroke="#63b8ff" d="M1537.76,-395.84C1522.6,-386.6 1502.89,-374.59 1487.81,-365.4"/>
<polygon fill="#63b8ff" stroke="#63b8ff" points="1489.46,-362.31 1479.1,-360.09 1485.82,-368.29 1489.46,-362.31"/>
</a>
</g>
</g>
<!-- Node43 -->
<g id="Node000043" class="node">
<title>Node43</title>
<g id="a_Node000043"><a xlink:href="scene__loader_8h.html" target="_top" xlink:title=" ">
<polygon fill="white" stroke="#666666" points="1867.5,-360 1766.5,-360 1766.5,-341 1867.5,-341 1867.5,-360"/>
<text text-anchor="middle" x="1817" y="-348" font-family="Helvetica,sans-Serif" font-size="10.00">io/scene_loader.h</text>
</a>
</g>
</g>
<!-- Node1&#45;&gt;Node43 -->
<g id="edge52_Node000001_Node000043" class="edge">
<title>Node1&#45;&gt;Node43</title>
<g id="a_edge52_Node000001_Node000043"><a xlink:title=" ">
<path fill="none" stroke="#63b8ff" d="M1622.32,-395.99C1667.55,-385.65 1728.2,-371.79 1769.71,-362.31"/>
<polygon fill="#63b8ff" stroke="#63b8ff" points="1770.6,-365.69 1779.57,-360.05 1769.04,-358.87 1770.6,-365.69"/>
</a>
</g>
</g>
<!-- Node44 -->
<g id="Node000044" class="node">
<title>Node44</title>
<g id="a_Node000044"><a xlink:href="buffer_8h.html" target="_top" xlink:title="Functions for initializing and freeing Game.buffers&#45;&gt;">
<polygon fill="white" stroke="#666666" points="1938.5,-360 1885.5,-360 1885.5,-341 1938.5,-341 1938.5,-360"/>
<text text-anchor="middle" x="1912" y="-348" font-family="Helvetica,sans-Serif" font-size="10.00">buffer.h</text>
</a>
</g>
</g>
<!-- Node1&#45;&gt;Node44 -->
<g id="edge54_Node000001_Node000044" class="edge">
<title>Node1&#45;&gt;Node44</title>
<g id="a_edge54_Node000001_Node000044"><a xlink:title=" ">
<path fill="none" stroke="#63b8ff" d="M1632.2,-400.42C1694.12,-391.71 1786.44,-377.79 1875.32,-360.21"/>
<polygon fill="#63b8ff" stroke="#63b8ff" points="1876.18,-363.61 1885.3,-358.22 1874.81,-356.75 1876.18,-363.61"/>
</a>
</g>
</g>
<!-- Node3 -->
<g id="Node000003" class="node">
<title>Node3</title>
<g id="a_Node000003"><a xlink:title=" ">
<polygon fill="#e0e0e0" stroke="#999999" points="1089,-189.5 1039,-189.5 1039,-170.5 1089,-170.5 1089,-189.5"/>
<text text-anchor="middle" x="1064" y="-177.5" font-family="Helvetica,sans-Serif" font-size="10.00">stdio.h</text>
</a>
</g>
</g>
<!-- Node2&#45;&gt;Node3 -->
<g id="edge2_Node000002_Node000003" class="edge">
<title>Node2&#45;&gt;Node3</title>
<g id="a_edge2_Node000002_Node000003"><a xlink:title=" ">
<path fill="none" stroke="#63b8ff" d="M933.32,-230.96C957.35,-222.11 995.88,-207.81 1029,-195 1030.41,-194.45 1031.85,-193.89 1033.31,-193.32"/>
<polygon fill="#63b8ff" stroke="#63b8ff" points="1034.92,-196.45 1042.93,-189.52 1032.34,-189.94 1034.92,-196.45"/>
</a>
</g>
</g>
<!-- Node4 -->
<g id="Node000004" class="node">
<title>Node4</title>
<g id="a_Node000004"><a xlink:title=" ">
<polygon fill="#e0e0e0" stroke="#999999" points="1160.5,-189.5 1107.5,-189.5 1107.5,-170.5 1160.5,-170.5 1160.5,-189.5"/>
<text text-anchor="middle" x="1134" y="-177.5" font-family="Helvetica,sans-Serif" font-size="10.00">stdint.h</text>
</a>
</g>
</g>
<!-- Node2&#45;&gt;Node4 -->
<g id="edge3_Node000002_Node000004" class="edge">
<title>Node2&#45;&gt;Node4</title>
<g id="a_edge3_Node000002_Node000004"><a xlink:title=" ">
<path fill="none" stroke="#63b8ff" d="M946.09,-232.51C984.23,-224.76 1045.96,-211.19 1098,-195 1099.87,-194.42 1101.79,-193.78 1103.71,-193.12"/>
<polygon fill="#63b8ff" stroke="#63b8ff" points="1105.04,-196.36 1113.23,-189.64 1102.64,-189.79 1105.04,-196.36"/>
</a>
</g>
</g>
<!-- Node5 -->
<g id="Node000005" class="node">
<title>Node5</title>
<g id="a_Node000005"><a xlink:title=" ">
<polygon fill="#e0e0e0" stroke="#999999" points="1241,-189.5 1179,-189.5 1179,-170.5 1241,-170.5 1241,-189.5"/>
<text text-anchor="middle" x="1210" y="-177.5" font-family="Helvetica,sans-Serif" font-size="10.00">stdbool.h</text>
</a>
</g>
</g>
<!-- Node2&#45;&gt;Node5 -->
<g id="edge4_Node000002_Node000005" class="edge">
<title>Node2&#45;&gt;Node5</title>
<g id="a_edge4_Node000002_Node000005"><a xlink:title=" ">
<path fill="none" stroke="#63b8ff" d="M946.42,-235.1C996.89,-228.58 1090.75,-214.95 1169,-195 1171.64,-194.33 1174.36,-193.56 1177.07,-192.75"/>
<polygon fill="#63b8ff" stroke="#63b8ff" points="1178.32,-196.03 1186.78,-189.65 1176.19,-189.36 1178.32,-196.03"/>
</a>
</g>
</g>
<!-- Node6 -->
<g id="Node000006" class="node">
<title>Node6</title>
<g id="a_Node000006"><a xlink:title=" ">
<polygon fill="#e0e0e0" stroke="#999999" points="1315,-189.5 1259,-189.5 1259,-170.5 1315,-170.5 1315,-189.5"/>
<text text-anchor="middle" x="1287" y="-177.5" font-family="Helvetica,sans-Serif" font-size="10.00">stdarg.h</text>
</a>
</g>
</g>
<!-- Node2&#45;&gt;Node6 -->
<g id="edge5_Node000002_Node000006" class="edge">
<title>Node2&#45;&gt;Node6</title>
<g id="a_edge5_Node000002_Node000006"><a xlink:title=" ">
<path fill="none" stroke="#63b8ff" d="M946.25,-237.52C1008.97,-233.47 1141.45,-222.25 1250,-195 1252.45,-194.39 1254.96,-193.66 1257.46,-192.87"/>
<polygon fill="#63b8ff" stroke="#63b8ff" points="1258.63,-196.16 1266.91,-189.57 1256.32,-189.55 1258.63,-196.16"/>
</a>
</g>
</g>
<!-- Node7 -->
<g id="Node000007" class="node">
<title>Node7</title>
<g id="a_Node000007"><a xlink:title=" ">
<polygon fill="#e0e0e0" stroke="#999999" points="1386.5,-189.5 1333.5,-189.5 1333.5,-170.5 1386.5,-170.5 1386.5,-189.5"/>
<text text-anchor="middle" x="1360" y="-177.5" font-family="Helvetica,sans-Serif" font-size="10.00">limits.h</text>
</a>
</g>
</g>
<!-- Node2&#45;&gt;Node7 -->
<g id="edge6_Node000002_Node000007" class="edge">
<title>Node2&#45;&gt;Node7</title>
<g id="a_edge6_Node000002_Node000007"><a xlink:title=" ">
<path fill="none" stroke="#63b8ff" d="M946.27,-238.8C1018.95,-236.7 1187.22,-228.33 1324,-195 1326.36,-194.42 1328.78,-193.73 1331.19,-192.96"/>
<polygon fill="#63b8ff" stroke="#63b8ff" points="1332.62,-196.17 1340.87,-189.52 1330.28,-189.57 1332.62,-196.17"/>
</a>
</g>
</g>
<!-- Node8 -->
<g id="Node000008" class="node">
<title>Node8</title>
<g id="a_Node000008"><a xlink:title=" ">
<polygon fill="#e0e0e0" stroke="#999999" points="1477,-189.5 1405,-189.5 1405,-170.5 1477,-170.5 1477,-189.5"/>
<text text-anchor="middle" x="1441" y="-177.5" font-family="Helvetica,sans-Serif" font-size="10.00">SDL2/SDL.h</text>
</a>
</g>
</g>
<!-- Node2&#45;&gt;Node8 -->
<g id="edge7_Node000002_Node000008" class="edge">
<title>Node2&#45;&gt;Node8</title>
<g id="a_edge7_Node000002_Node000008"><a xlink:title=" ">
<path fill="none" stroke="#63b8ff" d="M946.25,-238.69C1027.39,-236.34 1229.46,-227.43 1395,-195 1398.66,-194.28 1402.43,-193.39 1406.18,-192.41"/>
<polygon fill="#63b8ff" stroke="#63b8ff" points="1407.26,-195.74 1415.93,-189.64 1405.35,-189.01 1407.26,-195.74"/>
</a>
</g>
</g>
<!-- Node9 -->
<g id="Node000009" class="node">
<title>Node9</title>
<g id="a_Node000009"><a xlink:title=" ">
<polygon fill="#e0e0e0" stroke="#999999" points="108,-189.5 0,-189.5 0,-170.5 108,-170.5 108,-189.5"/>
<text text-anchor="middle" x="54" y="-177.5" font-family="Helvetica,sans-Serif" font-size="10.00">SDL2/SDL_image.h</text>
</a>
</g>
</g>
<!-- Node2&#45;&gt;Node9 -->
<g id="edge8_Node000002_Node000009" class="edge">
<title>Node2&#45;&gt;Node9</title>
<g id="a_edge8_Node000002_Node000009"><a xlink:title=" ">
<path fill="none" stroke="#63b8ff" d="M873.84,-239.56C761.21,-239.29 406.92,-235.08 117,-195 110.66,-194.12 104.02,-192.94 97.52,-191.64"/>
<polygon fill="#63b8ff" stroke="#63b8ff" points="98,-188.16 87.49,-189.5 96.55,-195.01 98,-188.16"/>
</a>
</g>
</g>
<!-- Node10 -->
<g id="Node000010" class="node">
<title>Node10</title>
<g id="a_Node000010"><a xlink:title=" ">
<polygon fill="#e0e0e0" stroke="#999999" points="236,-189.5 126,-189.5 126,-170.5 236,-170.5 236,-189.5"/>
<text text-anchor="middle" x="181" y="-177.5" font-family="Helvetica,sans-Serif" font-size="10.00">SDL2/SDL_opengl.h</text>
</a>
</g>
</g>
<!-- Node2&#45;&gt;Node10 -->
<g id="edge9_Node000002_Node000010" class="edge">
<title>Node2&#45;&gt;Node10</title>
<g id="a_edge9_Node000002_Node000010"><a xlink:title=" ">
<path fill="none" stroke="#63b8ff" d="M873.76,-238.96C773.36,-237.07 483.28,-228.84 245,-195 238.64,-194.1 231.98,-192.91 225.45,-191.61"/>
<polygon fill="#63b8ff" stroke="#63b8ff" points="225.88,-188.13 215.37,-189.5 224.44,-194.98 225.88,-188.13"/>
</a>
</g>
</g>
<!-- Node11 -->
<g id="Node000011" class="node">
<title>Node11</title>
<g id="a_Node000011"><a xlink:title=" ">
<polygon fill="#e0e0e0" stroke="#999999" points="358,-189.5 254,-189.5 254,-170.5 358,-170.5 358,-189.5"/>
<text text-anchor="middle" x="306" y="-177.5" font-family="Helvetica,sans-Serif" font-size="10.00">SDL2/SDL_mixer.h</text>
</a>
</g>
</g>
<!-- Node2&#45;&gt;Node11 -->
<g id="edge10_Node000002_Node000011" class="edge">
<title>Node2&#45;&gt;Node11</title>
<g id="a_edge10_Node000002_Node000011"><a xlink:title=" ">
<path fill="none" stroke="#63b8ff" d="M873.89,-238.34C786.44,-235.13 556.51,-224.36 367,-195 361.15,-194.09 355.03,-192.94 349.02,-191.69"/>
<polygon fill="#63b8ff" stroke="#63b8ff" points="349.59,-188.23 339.07,-189.5 348.09,-195.06 349.59,-188.23"/>
</a>
</g>
</g>
<!-- Node12 -->
<g id="Node000012" class="node">
<title>Node12</title>
<g id="a_Node000012"><a xlink:title=" ">
<polygon fill="#e0e0e0" stroke="#999999" points="464,-189.5 376,-189.5 376,-170.5 464,-170.5 464,-189.5"/>
<text text-anchor="middle" x="420" y="-177.5" font-family="Helvetica,sans-Serif" font-size="10.00">SDL2/SDL_ttf.h</text>
</a>
</g>
</g>
<!-- Node2&#45;&gt;Node12 -->
<g id="edge11_Node000002_Node000012" class="edge">
<title>Node2&#45;&gt;Node12</title>
<g id="a_edge11_Node000002_Node000012"><a xlink:title=" ">
<path fill="none" stroke="#63b8ff" d="M873.76,-237.73C798.55,-233.65 620.25,-221.77 473,-195 468.45,-194.17 463.72,-193.16 459.05,-192.05"/>
<polygon fill="#63b8ff" stroke="#63b8ff" points="459.52,-188.56 448.97,-189.53 457.83,-195.35 459.52,-188.56"/>
</a>
</g>
</g>
<!-- Node13 -->
<g id="Node000013" class="node">
<title>Node13</title>
<g id="a_Node000013"><a xlink:title=" ">
<polygon fill="#e0e0e0" stroke="#999999" points="532,-189.5 482,-189.5 482,-170.5 532,-170.5 532,-189.5"/>
<text text-anchor="middle" x="507" y="-177.5" font-family="Helvetica,sans-Serif" font-size="10.00">GL/gl.h</text>
</a>
</g>
</g>
<!-- Node2&#45;&gt;Node13 -->
<g id="edge12_Node000002_Node000013" class="edge">
<title>Node2&#45;&gt;Node13</title>
<g id="a_edge12_Node000002_Node000013"><a xlink:title=" ">
<path fill="none" stroke="#63b8ff" d="M873.78,-238.37C806.96,-235.58 660.25,-226.13 541,-195 539.05,-194.49 537.07,-193.9 535.09,-193.24"/>
<polygon fill="#63b8ff" stroke="#63b8ff" points="535.99,-189.84 525.39,-189.63 533.54,-196.4 535.99,-189.84"/>
</a>
</g>
</g>
<!-- Node14 -->
<g id="Node000014" class="node">
<title>Node14</title>
<g id="a_Node000014"><a xlink:title=" ">
<polygon fill="#e0e0e0" stroke="#999999" points="606,-189.5 550,-189.5 550,-170.5 606,-170.5 606,-189.5"/>
<text text-anchor="middle" x="578" y="-177.5" font-family="Helvetica,sans-Serif" font-size="10.00">GL/glu.h</text>
</a>
</g>
</g>
<!-- Node2&#45;&gt;Node14 -->
<g id="edge13_Node000002_Node000014" class="edge">
<title>Node2&#45;&gt;Node14</title>
<g id="a_edge13_Node000002_Node000014"><a xlink:title=" ">
<path fill="none" stroke="#63b8ff" d="M873.63,-236.51C817.44,-231.34 706.45,-218.91 615,-195 612.7,-194.4 610.35,-193.7 608,-192.95"/>
<polygon fill="#63b8ff" stroke="#63b8ff" points="609.09,-189.63 598.49,-189.64 606.78,-196.24 609.09,-189.63"/>
</a>
</g>
</g>
<!-- Node15 -->
<g id="Node000015" class="node">
<title>Node15</title>
<g id="a_Node000015"><a xlink:title=" ">
<polygon fill="#e0e0e0" stroke="#999999" points="690,-189.5 624,-189.5 624,-170.5 690,-170.5 690,-189.5"/>
<text text-anchor="middle" x="657" y="-177.5" font-family="Helvetica,sans-Serif" font-size="10.00">GL/glext.h</text>
</a>
</g>
</g>
<!-- Node2&#45;&gt;Node15 -->
<g id="edge14_Node000002_Node000015" class="edge">
<title>Node2&#45;&gt;Node15</title>
<g id="a_edge14_Node000002_Node000015"><a xlink:title=" ">
<path fill="none" stroke="#63b8ff" d="M873.86,-233.18C831.6,-225.48 759.7,-211.46 699,-195 696.38,-194.29 693.68,-193.51 690.98,-192.69"/>
<polygon fill="#63b8ff" stroke="#63b8ff" points="691.88,-189.3 681.29,-189.62 689.76,-195.98 691.88,-189.3"/>
</a>
</g>
</g>
<!-- Node16 -->
<g id="Node000016" class="node">
<title>Node16</title>
<g id="a_Node000016"><a xlink:title=" ">
<polygon fill="#e0e0e0" stroke="#999999" points="785.5,-189.5 708.5,-189.5 708.5,-170.5 785.5,-170.5 785.5,-189.5"/>
<text text-anchor="middle" x="747" y="-177.5" font-family="Helvetica,sans-Serif" font-size="10.00">cglm/cglm.h</text>
</a>
</g>
</g>
<!-- Node2&#45;&gt;Node16 -->
<g id="edge15_Node000002_Node000016" class="edge">
<title>Node2&#45;&gt;Node16</title>
<g id="a_edge15_Node000002_Node000016"><a xlink:title=" ">
<path fill="none" stroke="#63b8ff" d="M886.3,-230.99C858.41,-220.99 811.93,-204.3 780.4,-192.99"/>
<polygon fill="#63b8ff" stroke="#63b8ff" points="781.32,-189.6 770.73,-189.52 778.96,-196.19 781.32,-189.6"/>
</a>
</g>
</g>
<!-- Node17 -->
<g id="Node000017" class="node">
<title>Node17</title>
<g id="a_Node000017"><a xlink:title=" ">
<polygon fill="#e0e0e0" stroke="#999999" points="854.5,-189.5 803.5,-189.5 803.5,-170.5 854.5,-170.5 854.5,-189.5"/>
<text text-anchor="middle" x="829" y="-177.5" font-family="Helvetica,sans-Serif" font-size="10.00">math.h</text>
</a>
</g>
</g>
<!-- Node2&#45;&gt;Node17 -->
<g id="edge16_Node000002_Node000017" class="edge">
<title>Node2&#45;&gt;Node17</title>
<g id="a_edge16_Node000002_Node000017"><a xlink:title=" ">
<path fill="none" stroke="#63b8ff" d="M898.05,-230.87C885.25,-221.62 864.7,-206.78 849.35,-195.69"/>
<polygon fill="#63b8ff" stroke="#63b8ff" points="851.16,-192.68 841,-189.67 847.06,-198.36 851.16,-192.68"/>
</a>
</g>
</g>
<!-- Node18 -->
<g id="Node000018" class="node">
<title>Node18</title>
<g id="a_Node000018"><a xlink:href="stringio_8h.html" target="_top" xlink:title="Provides utility functions for string and file operations.">
<polygon fill="white" stroke="#666666" points="947,-189.5 873,-189.5 873,-170.5 947,-170.5 947,-189.5"/>
<text text-anchor="middle" x="910" y="-177.5" font-family="Helvetica,sans-Serif" font-size="10.00">io/stringio.h</text>
</a>
</g>
</g>
<!-- Node2&#45;&gt;Node18 -->
<g id="edge17_Node000002_Node000018" class="edge">
<title>Node2&#45;&gt;Node18</title>
<g id="a_edge17_Node000002_Node000018"><a xlink:title=" ">
<path fill="none" stroke="#63b8ff" d="M910,-230.87C910,-222.75 910,-210.31 910,-199.89"/>
<polygon fill="#63b8ff" stroke="#63b8ff" points="913.5,-199.67 910,-189.67 906.5,-199.67 913.5,-199.67"/>
</a>
</g>
</g>
<!-- Node20 -->
<g id="Node000020" class="node">
<title>Node20</title>
<g id="a_Node000020"><a xlink:href="config_8h.html" target="_top" xlink:title=" ">
<polygon fill="white" stroke="#666666" points="1020.5,-189.5 965.5,-189.5 965.5,-170.5 1020.5,-170.5 1020.5,-189.5"/>
<text text-anchor="middle" x="993" y="-177.5" font-family="Helvetica,sans-Serif" font-size="10.00">config.h</text>
</a>
</g>
</g>
<!-- Node2&#45;&gt;Node20 -->
<g id="edge19_Node000002_Node000020" class="edge">
<title>Node2&#45;&gt;Node20</title>
<g id="a_edge19_Node000002_Node000020"><a xlink:title=" ">
<path fill="none" stroke="#63b8ff" d="M922.25,-230.87C935.36,-221.62 956.42,-206.78 972.15,-195.69"/>
<polygon fill="#63b8ff" stroke="#63b8ff" points="974.55,-198.29 980.7,-189.67 970.51,-192.57 974.55,-198.29"/>
</a>
</g>
</g>
<!-- Node19 -->
<g id="Node000019" class="node">
<title>Node19</title>
<g id="a_Node000019"><a xlink:title=" ">
<polygon fill="#e0e0e0" stroke="#999999" points="936.5,-129 883.5,-129 883.5,-110 936.5,-110 936.5,-129"/>
<text text-anchor="middle" x="910" y="-117" font-family="Helvetica,sans-Serif" font-size="10.00">string.h</text>
</a>
</g>
</g>
<!-- Node18&#45;&gt;Node19 -->
<g id="edge18_Node000018_Node000019" class="edge">
<title>Node18&#45;&gt;Node19</title>
<g id="a_edge18_Node000018_Node000019"><a xlink:title=" ">
<path fill="none" stroke="#63b8ff" d="M910,-170.37C910,-162.25 910,-149.81 910,-139.39"/>
<polygon fill="#63b8ff" stroke="#63b8ff" points="913.5,-139.17 910,-129.17 906.5,-139.17 913.5,-139.17"/>
</a>
</g>
</g>
<!-- Node21 -->
<g id="Node000021" class="node">
<title>Node21</title>
<g id="a_Node000021"><a xlink:href="term_8h.html" target="_top" xlink:title=" ">
<polygon fill="white" stroke="#666666" points="1030.5,-129 955.5,-129 955.5,-110 1030.5,-110 1030.5,-129"/>
<text text-anchor="middle" x="993" y="-117" font-family="Helvetica,sans-Serif" font-size="10.00">term/term.h</text>
</a>
</g>
</g>
<!-- Node20&#45;&gt;Node21 -->
<g id="edge20_Node000020_Node000021" class="edge">
<title>Node20&#45;&gt;Node21</title>
<g id="a_edge20_Node000020_Node000021"><a xlink:title=" ">
<path fill="none" stroke="#63b8ff" d="M993,-170.37C993,-162.25 993,-149.81 993,-139.39"/>
<polygon fill="#63b8ff" stroke="#63b8ff" points="996.5,-139.17 993,-129.17 989.5,-139.17 996.5,-139.17"/>
</a>
</g>
</g>
<!-- Node22 -->
<g id="Node000022" class="node">
<title>Node22</title>
<g id="a_Node000022"><a xlink:href="enhanced__print_8h.html" target="_top" xlink:title=" ">
<polygon fill="white" stroke="#666666" points="1043.5,-74 942.5,-74 942.5,-55 1043.5,-55 1043.5,-74"/>
<text text-anchor="middle" x="993" y="-62" font-family="Helvetica,sans-Serif" font-size="10.00">enhanced_print.h</text>
</a>
</g>
</g>
<!-- Node21&#45;&gt;Node22 -->
<g id="edge21_Node000021_Node000022" class="edge">
<title>Node21&#45;&gt;Node22</title>
<g id="a_edge21_Node000021_Node000022"><a xlink:title=" ">
<path fill="none" stroke="#63b8ff" d="M993,-109.75C993,-102.8 993,-92.85 993,-84.13"/>
<polygon fill="#63b8ff" stroke="#63b8ff" points="996.5,-84.09 993,-74.09 989.5,-84.09 996.5,-84.09"/>
</a>
</g>
</g>
<!-- Node23 -->
<g id="Node000023" class="node">
<title>Node23</title>
<g id="a_Node000023"><a xlink:href="color_8h.html" target="_top" xlink:title=" ">
<polygon fill="white" stroke="#666666" points="1017.5,-19 968.5,-19 968.5,0 1017.5,0 1017.5,-19"/>
<text text-anchor="middle" x="993" y="-7" font-family="Helvetica,sans-Serif" font-size="10.00">color.h</text>
</a>
</g>
</g>
<!-- Node22&#45;&gt;Node23 -->
<g id="edge22_Node000022_Node000023" class="edge">
<title>Node22&#45;&gt;Node23</title>
<g id="a_edge22_Node000022_Node000023"><a xlink:title=" ">
<path fill="none" stroke="#63b8ff" d="M993,-54.75C993,-47.8 993,-37.85 993,-29.13"/>
<polygon fill="#63b8ff" stroke="#63b8ff" points="996.5,-29.09 993,-19.09 989.5,-29.09 996.5,-29.09"/>
</a>
</g>
</g>
<!-- Node24&#45;&gt;Node2 -->
<g id="edge26_Node000024_Node000002" class="edge">
<title>Node24&#45;&gt;Node2</title>
<g id="a_edge26_Node000024_Node000002"><a xlink:title=" ">
<path fill="none" stroke="#63b8ff" d="M1148,-340.66C1157.64,-327.34 1172.39,-301.99 1159,-286 1133.7,-255.78 1021.45,-246.06 956.63,-242.95"/>
<polygon fill="#63b8ff" stroke="#63b8ff" points="956.42,-239.44 946.27,-242.49 956.11,-246.43 956.42,-239.44"/>
</a>
</g>
</g>
<!-- Node25 -->
<g id="Node000025" class="node">
<title>Node25</title>
<g id="a_Node000025"><a xlink:href="classes__types_8h.html" target="_top" xlink:title=" ">
<polygon fill="white" stroke="#666666" points="1150,-305 1056,-305 1056,-286 1150,-286 1150,-305"/>
<text text-anchor="middle" x="1103" y="-293" font-family="Helvetica,sans-Serif" font-size="10.00">classes_types.h</text>
</a>
</g>
</g>
<!-- Node24&#45;&gt;Node25 -->
<g id="edge24_Node000024_Node000025" class="edge">
<title>Node24&#45;&gt;Node25</title>
<g id="a_edge24_Node000024_Node000025"><a xlink:title=" ">
<path fill="none" stroke="#63b8ff" d="M1134.73,-340.75C1129.41,-333.34 1121.64,-322.5 1115.12,-313.41"/>
<polygon fill="#63b8ff" stroke="#63b8ff" points="1117.83,-311.18 1109.16,-305.09 1112.14,-315.26 1117.83,-311.18"/>
</a>
</g>
</g>
<!-- Node26 -->
<g id="Node000026" class="node">
<title>Node26</title>
<g id="a_Node000026"><a xlink:title=" ">
<polygon fill="#e0e0e0" stroke="#999999" points="1037.5,-305 938.5,-305 938.5,-286 1037.5,-286 1037.5,-305"/>
<text text-anchor="middle" x="988" y="-293" font-family="Helvetica,sans-Serif" font-size="10.00">import_classes.h</text>
</a>
</g>
</g>
<!-- Node24&#45;&gt;Node26 -->
<g id="edge25_Node000024_Node000026" class="edge">
<title>Node24&#45;&gt;Node26</title>
<g id="a_edge25_Node000024_Node000026"><a xlink:title=" ">
<path fill="none" stroke="#63b8ff" d="M1116.42,-340.98C1090.95,-332.16 1050.96,-318.31 1022.37,-308.41"/>
<polygon fill="#63b8ff" stroke="#63b8ff" points="1023.37,-305.05 1012.77,-305.08 1021.08,-311.66 1023.37,-305.05"/>
</a>
</g>
</g>
<!-- Node29 -->
<g id="Node000029" class="node">
<title>Node29</title>
<g id="a_Node000029"><a xlink:href="shader_8h.html" target="_top" xlink:title=" ">
<polygon fill="white" stroke="#666666" points="1553,-189.5 1495,-189.5 1495,-170.5 1553,-170.5 1553,-189.5"/>
<text text-anchor="middle" x="1524" y="-177.5" font-family="Helvetica,sans-Serif" font-size="10.00">shader.h</text>
</a>
</g>
</g>
<!-- Node28&#45;&gt;Node29 -->
<g id="edge29_Node000028_Node000029" class="edge">
<title>Node28&#45;&gt;Node29</title>
<g id="a_edge29_Node000028_Node000029"><a xlink:title=" ">
<path fill="none" stroke="#63b8ff" d="M1529.97,-230.87C1529,-222.75 1527.51,-210.31 1526.26,-199.89"/>
<polygon fill="#63b8ff" stroke="#63b8ff" points="1529.7,-199.18 1525.04,-189.67 1522.75,-200.01 1529.7,-199.18"/>
</a>
</g>
</g>
<!-- Node30 -->
<g id="Node000030" class="node">
<title>Node30</title>
<g id="a_Node000030"><a xlink:href="model__loader_8h.html" target="_top" xlink:title=" ">
<polygon fill="white" stroke="#666666" points="1693,-195 1571,-195 1571,-165 1693,-165 1693,-195"/>
<text text-anchor="start" x="1579" y="-183" font-family="Helvetica,sans-Serif" font-size="10.00">model_loaders/model</text>
<text text-anchor="middle" x="1632" y="-172" font-family="Helvetica,sans-Serif" font-size="10.00">_loader.h</text>
</a>
</g>
</g>
<!-- Node28&#45;&gt;Node30 -->
<g id="edge30_Node000028_Node000030" class="edge">
<title>Node28&#45;&gt;Node30</title>
<g id="a_edge30_Node000028_Node000030"><a xlink:title=" ">
<path fill="none" stroke="#63b8ff" d="M1545.9,-230.87C1559.73,-222.86 1580.81,-210.65 1598.65,-200.31"/>
<polygon fill="#63b8ff" stroke="#63b8ff" points="1600.73,-203.16 1607.63,-195.11 1597.22,-197.1 1600.73,-203.16"/>
</a>
</g>
</g>
<!-- Node31 -->
<g id="Node000031" class="node">
<title>Node31</title>
<g id="a_Node000031"><a xlink:href="obj__loader_8h.html" target="_top" xlink:title=" ">
<polygon fill="white" stroke="#666666" points="1575,-129 1499,-129 1499,-110 1575,-110 1575,-129"/>
<text text-anchor="middle" x="1537" y="-117" font-family="Helvetica,sans-Serif" font-size="10.00">obj_loader.h</text>
</a>
</g>
</g>
<!-- Node30&#45;&gt;Node31 -->
<g id="edge31_Node000030_Node000031" class="edge">
<title>Node30&#45;&gt;Node31</title>
<g id="a_edge31_Node000030_Node000031"><a xlink:title=" ">
<path fill="none" stroke="#63b8ff" d="M1609,-164.84C1594,-155.6 1574.5,-143.59 1559.57,-134.4"/>
<polygon fill="#63b8ff" stroke="#63b8ff" points="1561.31,-131.36 1550.96,-129.09 1557.64,-137.32 1561.31,-131.36"/>
</a>
</g>
</g>
<!-- Node32 -->
<g id="Node000032" class="node">
<title>Node32</title>
<g id="a_Node000032"><a xlink:href="mtl__loader_8h.html" target="_top" xlink:title=" ">
<polygon fill="white" stroke="#666666" points="1670.5,-129 1593.5,-129 1593.5,-110 1670.5,-110 1670.5,-129"/>
<text text-anchor="middle" x="1632" y="-117" font-family="Helvetica,sans-Serif" font-size="10.00">mtl_loader.h</text>
</a>
</g>
</g>
<!-- Node30&#45;&gt;Node32 -->
<g id="edge32_Node000030_Node000032" class="edge">
<title>Node30&#45;&gt;Node32</title>
<g id="a_edge32_Node000030_Node000032"><a xlink:title=" ">
<path fill="none" stroke="#63b8ff" d="M1632,-164.84C1632,-157.21 1632,-147.7 1632,-139.45"/>
<polygon fill="#63b8ff" stroke="#63b8ff" points="1635.5,-139.27 1632,-129.27 1628.5,-139.27 1635.5,-139.27"/>
</a>
</g>
</g>
<!-- Node33 -->
<g id="Node000033" class="node">
<title>Node33</title>
<g id="a_Node000033"><a xlink:href="fbx__loader_8h.html" target="_top" xlink:title=" ">
<polygon fill="white" stroke="#666666" points="1765.5,-129 1688.5,-129 1688.5,-110 1765.5,-110 1765.5,-129"/>
<text text-anchor="middle" x="1727" y="-117" font-family="Helvetica,sans-Serif" font-size="10.00">fbx_loader.h</text>
</a>
</g>
</g>
<!-- Node30&#45;&gt;Node33 -->
<g id="edge33_Node000030_Node000033" class="edge">
<title>Node30&#45;&gt;Node33</title>
<g id="a_edge33_Node000030_Node000033"><a xlink:title=" ">
<path fill="none" stroke="#63b8ff" d="M1655,-164.84C1670,-155.6 1689.5,-143.59 1704.43,-134.4"/>
<polygon fill="#63b8ff" stroke="#63b8ff" points="1706.36,-137.32 1713.04,-129.09 1702.69,-131.36 1706.36,-137.32"/>
</a>
</g>
</g>
<!-- Node35 -->
<g id="Node000035" class="node">
<title>Node35</title>
<g id="a_Node000035"><a xlink:href="input_8h.html" target="_top" xlink:title=" ">
<polygon fill="white" stroke="#666666" points="1784.5,-250 1713.5,-250 1713.5,-231 1784.5,-231 1784.5,-250"/>
<text text-anchor="middle" x="1749" y="-238" font-family="Helvetica,sans-Serif" font-size="10.00">../io/input.h</text>
</a>
</g>
</g>
<!-- Node34&#45;&gt;Node35 -->
<g id="edge35_Node000034_Node000035" class="edge">
<title>Node34&#45;&gt;Node35</title>
<g id="a_edge35_Node000034_Node000035"><a xlink:title=" ">
<path fill="none" stroke="#63b8ff" d="M1749,-285.75C1749,-278.8 1749,-268.85 1749,-260.13"/>
<polygon fill="#63b8ff" stroke="#63b8ff" points="1752.5,-260.09 1749,-250.09 1745.5,-260.09 1752.5,-260.09"/>
</a>
</g>
</g>
<!-- Node36&#45;&gt;Node35 -->
<g id="edge37_Node000036_Node000035" class="edge">
<title>Node36&#45;&gt;Node35</title>
<g id="a_edge37_Node000036_Node000035"><a xlink:title=" ">
<path fill="none" stroke="#63b8ff" d="M1710.38,-341.84C1751.37,-334.55 1804.01,-322.15 1817,-305 1831.96,-285.25 1804.57,-266.37 1780.22,-254.4"/>
<polygon fill="#63b8ff" stroke="#63b8ff" points="1781.67,-251.22 1771.13,-250.17 1778.72,-257.57 1781.67,-251.22"/>
</a>
</g>
</g>
<!-- Node36&#45;&gt;Node37 -->
<g id="edge38_Node000036_Node000037" class="edge">
<title>Node36&#45;&gt;Node37</title>
<g id="a_edge38_Node000036_Node000037"><a xlink:title=" ">
<path fill="none" stroke="#63b8ff" d="M1700.45,-340.98C1745.27,-331.78 1816.77,-317.09 1865.25,-307.13"/>
<polygon fill="#63b8ff" stroke="#63b8ff" points="1866.13,-310.52 1875.22,-305.08 1864.72,-303.67 1866.13,-310.52"/>
</a>
</g>
</g>
<!-- Node38&#45;&gt;Node29 -->
<g id="edge40_Node000038_Node000029" class="edge">
<title>Node38&#45;&gt;Node29</title>
<g id="a_edge40_Node000038_Node000029"><a xlink:title=" ">
<path fill="none" stroke="#63b8ff" d="M1442.32,-340.85C1418.34,-330.23 1385.44,-310.55 1397,-286 1417.43,-242.6 1465.57,-211.01 1496.36,-194.38"/>
<polygon fill="#63b8ff" stroke="#63b8ff" points="1498.07,-197.43 1505.31,-189.7 1494.83,-191.23 1498.07,-197.43"/>
</a>
</g>
</g>
<!-- Node38&#45;&gt;Node34 -->
<g id="edge51_Node000038_Node000034" class="edge">
<title>Node38&#45;&gt;Node34</title>
<g id="a_edge51_Node000038_Node000034"><a xlink:title=" ">
<path fill="none" stroke="#63b8ff" d="M1509.69,-341.16C1559.29,-331.9 1639.41,-316.95 1693.12,-306.93"/>
<polygon fill="#63b8ff" stroke="#63b8ff" points="1693.97,-310.33 1703.16,-305.05 1692.69,-303.45 1693.97,-310.33"/>
</a>
</g>
</g>
<!-- Node39 -->
<g id="Node000039" class="node">
<title>Node39</title>
<g id="a_Node000039"><a xlink:href="camera_8h.html" target="_top" xlink:title=" ">
<polygon fill="white" stroke="#666666" points="1312,-305 1206,-305 1206,-286 1312,-286 1312,-305"/>
<text text-anchor="middle" x="1259" y="-293" font-family="Helvetica,sans-Serif" font-size="10.00">../render/camera.h</text>
</a>
</g>
</g>
<!-- Node38&#45;&gt;Node39 -->
<g id="edge41_Node000038_Node000039" class="edge">
<title>Node38&#45;&gt;Node39</title>
<g id="a_edge41_Node000038_Node000039"><a xlink:title=" ">
<path fill="none" stroke="#63b8ff" d="M1431.9,-340.98C1396.72,-331.93 1340.93,-317.58 1302.28,-307.64"/>
<polygon fill="#63b8ff" stroke="#63b8ff" points="1302.91,-304.18 1292.36,-305.08 1301.17,-310.96 1302.91,-304.18"/>
</a>
</g>
</g>
<!-- Node40 -->
<g id="Node000040" class="node">
<title>Node40</title>
<g id="a_Node000040"><a xlink:href="bodies_8h.html" target="_top" xlink:title=" ">
<polygon fill="white" stroke="#666666" points="1513.5,-305 1406.5,-305 1406.5,-286 1513.5,-286 1513.5,-305"/>
<text text-anchor="middle" x="1460" y="-293" font-family="Helvetica,sans-Serif" font-size="10.00">../physics/bodies.h</text>
</a>
</g>
</g>
<!-- Node38&#45;&gt;Node40 -->
<g id="edge45_Node000038_Node000040" class="edge">
<title>Node38&#45;&gt;Node40</title>
<g id="a_edge45_Node000038_Node000040"><a xlink:title=" ">
<path fill="none" stroke="#63b8ff" d="M1464.17,-340.75C1463.52,-333.8 1462.58,-323.85 1461.76,-315.13"/>
<polygon fill="#63b8ff" stroke="#63b8ff" points="1465.23,-314.72 1460.81,-305.09 1458.27,-315.37 1465.23,-314.72"/>
</a>
</g>
</g>
<!-- Node41 -->
<g id="Node000041" class="node">
<title>Node41</title>
<g id="a_Node000041"><a xlink:href="scripts_8h.html" target="_top" xlink:title=" ">
<polygon fill="white" stroke="#666666" points="1672,-305 1570,-305 1570,-286 1672,-286 1672,-305"/>
<text text-anchor="middle" x="1621" y="-293" font-family="Helvetica,sans-Serif" font-size="10.00">../scripts/scripts.h</text>
</a>
</g>
</g>
<!-- Node38&#45;&gt;Node41 -->
<g id="edge48_Node000038_Node000041" class="edge">
<title>Node38&#45;&gt;Node41</title>
<g id="a_edge48_Node000038_Node000041"><a xlink:title=" ">
<path fill="none" stroke="#63b8ff" d="M1490.06,-340.98C1516.03,-332.16 1556.81,-318.31 1585.96,-308.41"/>
<polygon fill="#63b8ff" stroke="#63b8ff" points="1587.4,-311.61 1595.74,-305.08 1585.15,-304.99 1587.4,-311.61"/>
</a>
</g>
</g>
<!-- Node39&#45;&gt;Node2 -->
<g id="edge42_Node000039_Node000002" class="edge">
<title>Node39&#45;&gt;Node2</title>
<g id="a_edge42_Node000039_Node000002"><a xlink:title=" ">
<path fill="none" stroke="#63b8ff" d="M1205.99,-286.45C1137.94,-276.12 1020.93,-258.35 956.29,-248.53"/>
<polygon fill="#63b8ff" stroke="#63b8ff" points="956.79,-245.07 946.38,-247.03 955.74,-251.99 956.79,-245.07"/>
</a>
</g>
</g>
<!-- Node39&#45;&gt;Node27 -->
<g id="edge43_Node000039_Node000027" class="edge">
<title>Node39&#45;&gt;Node27</title>
<g id="a_edge43_Node000039_Node000027"><a xlink:title=" ">
<path fill="none" stroke="#63b8ff" d="M1268.48,-285.98C1277.2,-278.15 1290.34,-266.34 1300.9,-256.86"/>
<polygon fill="#63b8ff" stroke="#63b8ff" points="1303.25,-259.46 1308.35,-250.17 1298.57,-254.25 1303.25,-259.46"/>
</a>
</g>
</g>
<!-- Node39&#45;&gt;Node29 -->
<g id="edge44_Node000039_Node000029" class="edge">
<title>Node39&#45;&gt;Node29</title>
<g id="a_edge44_Node000039_Node000029"><a xlink:title=" ">
<path fill="none" stroke="#63b8ff" d="M1255.68,-285.92C1251.1,-272.48 1244.82,-246.42 1258,-231 1291.32,-192 1436.36,-207.93 1486,-195 1488.44,-194.36 1490.94,-193.63 1493.44,-192.84"/>
<polygon fill="#63b8ff" stroke="#63b8ff" points="1494.6,-196.15 1502.93,-189.6 1492.34,-189.52 1494.6,-196.15"/>
</a>
</g>
</g>
<!-- Node40&#45;&gt;Node27 -->
<g id="edge46_Node000040_Node000027" class="edge">
<title>Node40&#45;&gt;Node27</title>
<g id="a_edge46_Node000040_Node000027"><a xlink:title=" ">
<path fill="none" stroke="#63b8ff" d="M1437.19,-285.98C1413.83,-277.27 1377.3,-263.63 1350.83,-253.75"/>
<polygon fill="#63b8ff" stroke="#63b8ff" points="1351.82,-250.39 1341.23,-250.17 1349.37,-256.95 1351.82,-250.39"/>
</a>
</g>
</g>
<!-- Node40&#45;&gt;Node28 -->
<g id="edge47_Node000040_Node000028" class="edge">
<title>Node40&#45;&gt;Node28</title>
<g id="a_edge47_Node000040_Node000028"><a xlink:title=" ">
<path fill="none" stroke="#63b8ff" d="M1471.41,-285.98C1482.11,-278 1498.34,-265.88 1511.16,-256.31"/>
<polygon fill="#63b8ff" stroke="#63b8ff" points="1513.47,-258.96 1519.39,-250.17 1509.28,-253.35 1513.47,-258.96"/>
</a>
</g>
</g>
<!-- Node41&#45;&gt;Node35 -->
<g id="edge49_Node000041_Node000035" class="edge">
<title>Node41&#45;&gt;Node35</title>
<g id="a_edge49_Node000041_Node000035"><a xlink:title=" ">
<path fill="none" stroke="#63b8ff" d="M1641.57,-285.98C1662.43,-277.34 1694.97,-263.87 1718.77,-254.02"/>
<polygon fill="#63b8ff" stroke="#63b8ff" points="1720.16,-257.23 1728.06,-250.17 1717.48,-250.76 1720.16,-257.23"/>
</a>
</g>
</g>
<!-- Node42 -->
<g id="Node000042" class="node">
<title>Node42</title>
<g id="a_Node000042"><a xlink:href="signals_8h.html" target="_top" xlink:title="Signal and slot system for C projects.">
<polygon fill="white" stroke="#666666" points="1651,-250 1591,-250 1591,-231 1651,-231 1651,-250"/>
<text text-anchor="middle" x="1621" y="-238" font-family="Helvetica,sans-Serif" font-size="10.00">signals.h</text>
</a>
</g>
</g>
<!-- Node41&#45;&gt;Node42 -->
<g id="edge50_Node000041_Node000042" class="edge">
<title>Node41&#45;&gt;Node42</title>
<g id="a_edge50_Node000041_Node000042"><a xlink:title=" ">
<path fill="none" stroke="#63b8ff" d="M1621,-285.75C1621,-278.8 1621,-268.85 1621,-260.13"/>
<polygon fill="#63b8ff" stroke="#63b8ff" points="1624.5,-260.09 1621,-250.09 1617.5,-260.09 1624.5,-260.09"/>
</a>
</g>
</g>
</g>
</svg>
