<?xml version="1.0" encoding="UTF-8" standalone="no"?>
<!DOCTYPE svg PUBLIC "-//W3C//DTD SVG 1.1//EN"
 "http://www.w3.org/Graphics/SVG/1.1/DTD/svg11.dtd">
<!-- Generated by graphviz version 2.43.0 (0)
 -->
<!-- Title: src/buffer.h Pages: 1 -->
<svg width="2534pt" height="93pt"
 viewBox="0.00 0.00 2533.50 93.00" xmlns="http://www.w3.org/2000/svg" xmlns:xlink="http://www.w3.org/1999/xlink">
<g id="graph0" class="graph" transform="scale(1 1) rotate(0) translate(4 89)">
<title>src/buffer.h</title>
<!-- Node1 -->
<g id="Node000001" class="node">
<title>Node1</title>
<g id="a_Node000001"><a xlink:title="Functions for initializing and freeing Game.buffers&#45;&gt;">
<polygon fill="#999999" stroke="#666666" points="1383.5,-85 1312.5,-85 1312.5,-66 1383.5,-66 1383.5,-85"/>
<text text-anchor="middle" x="1348" y="-73" font-family="Helvetica,sans-Serif" font-size="10.00">src/buffer.h</text>
</a>
</g>
</g>
<!-- Node2 -->
<g id="Node000002" class="node">
<title>Node2</title>
<g id="a_Node000002"><a xlink:href="buffer_8c.html" target="_top" xlink:title=" ">
<polygon fill="white" stroke="#666666" points="70,-24.5 0,-24.5 0,-5.5 70,-5.5 70,-24.5"/>
<text text-anchor="middle" x="35" y="-12.5" font-family="Helvetica,sans-Serif" font-size="10.00">src/buffer.c</text>
</a>
</g>
</g>
<!-- Node1&#45;&gt;Node2 -->
<g id="edge1_Node000001_Node000002" class="edge">
<title>Node1&#45;&gt;Node2</title>
<g id="a_edge1_Node000001_Node000002"><a xlink:title=" ">
<path fill="none" stroke="#63b8ff" d="M1302.28,-74.56C1104.43,-74.59 321.2,-71.96 79,-30 72.05,-28.8 64.68,-26.77 58,-24.62"/>
<polygon fill="#63b8ff" stroke="#63b8ff" points="1302.33,-78.06 1312.33,-74.56 1302.33,-71.06 1302.33,-78.06"/>
</a>
</g>
</g>
<!-- Node3 -->
<g id="Node000003" class="node">
<title>Node3</title>
<g id="a_Node000003"><a xlink:href="directional__light_8class_8c.html" target="_top" xlink:title="This file contains the implementation of the directional light class.">
<polygon fill="white" stroke="#666666" points="222,-30 88,-30 88,0 222,0 222,-30"/>
<text text-anchor="start" x="96" y="-18" font-family="Helvetica,sans-Serif" font-size="10.00">src/classes/nodes/lights</text>
<text text-anchor="middle" x="155" y="-7" font-family="Helvetica,sans-Serif" font-size="10.00">/directional_light.class.c</text>
</a>
</g>
</g>
<!-- Node1&#45;&gt;Node3 -->
<g id="edge2_Node000001_Node000003" class="edge">
<title>Node1&#45;&gt;Node3</title>
<g id="a_edge2_Node000001_Node000003"><a xlink:title=" ">
<path fill="none" stroke="#63b8ff" d="M1301.76,-75.01C1148.66,-76.19 644.46,-76.08 231,-30 228.07,-29.67 225.08,-29.3 222.06,-28.89"/>
<polygon fill="#63b8ff" stroke="#63b8ff" points="1302.2,-78.51 1312.17,-74.92 1302.15,-71.51 1302.2,-78.51"/>
</a>
</g>
</g>
<!-- Node4 -->
<g id="Node000004" class="node">
<title>Node4</title>
<g id="a_Node000004"><a xlink:href="light_8class_8c.html" target="_top" xlink:title="This file contains the implementation of the light class for the project.">
<polygon fill="white" stroke="#666666" points="372,-30 240,-30 240,0 372,0 372,-30"/>
<text text-anchor="start" x="248" y="-18" font-family="Helvetica,sans-Serif" font-size="10.00">src/classes/nodes/lights</text>
<text text-anchor="middle" x="306" y="-7" font-family="Helvetica,sans-Serif" font-size="10.00">/light.class.c</text>
</a>
</g>
</g>
<!-- Node1&#45;&gt;Node4 -->
<g id="edge3_Node000001_Node000004" class="edge">
<title>Node1&#45;&gt;Node4</title>
<g id="a_edge3_Node000001_Node000004"><a xlink:title=" ">
<path fill="none" stroke="#63b8ff" d="M1302.01,-74.64C1162.76,-74.58 733.66,-70.83 381,-30 378.11,-29.66 375.15,-29.28 372.18,-28.87"/>
<polygon fill="#63b8ff" stroke="#63b8ff" points="1302.3,-78.14 1312.29,-74.64 1302.29,-71.14 1302.3,-78.14"/>
</a>
</g>
</g>
<!-- Node5 -->
<g id="Node000005" class="node">
<title>Node5</title>
<g id="a_Node000005"><a xlink:href="point__light_8class_8c.html" target="_top" xlink:title="This file contains the implementation of the PointLight class.">
<polygon fill="white" stroke="#666666" points="522,-30 390,-30 390,0 522,0 522,-30"/>
<text text-anchor="start" x="398" y="-18" font-family="Helvetica,sans-Serif" font-size="10.00">src/classes/nodes/lights</text>
<text text-anchor="middle" x="456" y="-7" font-family="Helvetica,sans-Serif" font-size="10.00">/point_light.class.c</text>
</a>
</g>
</g>
<!-- Node1&#45;&gt;Node5 -->
<g id="edge4_Node000001_Node000005" class="edge">
<title>Node1&#45;&gt;Node5</title>
<g id="a_edge4_Node000001_Node000005"><a xlink:title=" ">
<path fill="none" stroke="#63b8ff" d="M1302.13,-74.09C1177.66,-72.53 823.25,-65.08 531,-30 528.11,-29.65 525.16,-29.26 522.18,-28.84"/>
<polygon fill="#63b8ff" stroke="#63b8ff" points="1302.38,-77.59 1312.42,-74.21 1302.46,-70.59 1302.38,-77.59"/>
</a>
</g>
</g>
<!-- Node6 -->
<g id="Node000006" class="node">
<title>Node6</title>
<g id="a_Node000006"><a xlink:href="spot__light_8class_8c.html" target="_top" xlink:title="This file contains the implementation of the SpotLight class.">
<polygon fill="white" stroke="#666666" points="672,-30 540,-30 540,0 672,0 672,-30"/>
<text text-anchor="start" x="548" y="-18" font-family="Helvetica,sans-Serif" font-size="10.00">src/classes/nodes/lights</text>
<text text-anchor="middle" x="606" y="-7" font-family="Helvetica,sans-Serif" font-size="10.00">/spot_light.class.c</text>
</a>
</g>
</g>
<!-- Node1&#45;&gt;Node6 -->
<g id="edge5_Node000001_Node000006" class="edge">
<title>Node1&#45;&gt;Node6</title>
<g id="a_edge5_Node000001_Node000006"><a xlink:title=" ">
<path fill="none" stroke="#63b8ff" d="M1302.18,-73.3C1193.8,-70.07 913.33,-59.33 681,-30 678.11,-29.64 675.16,-29.23 672.19,-28.79"/>
<polygon fill="#63b8ff" stroke="#63b8ff" points="1302.33,-76.81 1312.43,-73.6 1302.53,-69.81 1302.33,-76.81"/>
</a>
</g>
</g>
<!-- Node7 -->
<g id="Node000007" class="node">
<title>Node7</title>
<g id="a_Node000007"><a xlink:href="area_8class_8c.html" target="_top" xlink:title="This file handles the physics area nodes in the project.">
<polygon fill="white" stroke="#666666" points="832,-30 690,-30 690,0 832,0 832,-30"/>
<text text-anchor="start" x="698" y="-18" font-family="Helvetica,sans-Serif" font-size="10.00">src/classes/nodes/physics</text>
<text text-anchor="middle" x="761" y="-7" font-family="Helvetica,sans-Serif" font-size="10.00">/area.class.c</text>
</a>
</g>
</g>
<!-- Node1&#45;&gt;Node7 -->
<g id="edge6_Node000001_Node000007" class="edge">
<title>Node1&#45;&gt;Node7</title>
<g id="a_edge6_Node000001_Node000007"><a xlink:title=" ">
<path fill="none" stroke="#63b8ff" d="M1302.2,-71.8C1213.11,-66.26 1010.39,-52.21 841,-30 838.06,-29.61 835.07,-29.2 832.05,-28.76"/>
<polygon fill="#63b8ff" stroke="#63b8ff" points="1302.04,-75.3 1312.23,-72.42 1302.47,-68.31 1302.04,-75.3"/>
</a>
</g>
</g>
<!-- Node8 -->
<g id="Node000008" class="node">
<title>Node8</title>
<g id="a_Node000008"><a xlink:href="body_8class_8c.html" target="_top" xlink:title="This file defines the body class for the physics engine.">
<polygon fill="white" stroke="#666666" points="992,-30 850,-30 850,0 992,0 992,-30"/>
<text text-anchor="start" x="858" y="-18" font-family="Helvetica,sans-Serif" font-size="10.00">src/classes/nodes/physics</text>
<text text-anchor="middle" x="921" y="-7" font-family="Helvetica,sans-Serif" font-size="10.00">/bodies/body.class.c</text>
</a>
</g>
</g>
<!-- Node1&#45;&gt;Node8 -->
<g id="edge7_Node000001_Node000008" class="edge">
<title>Node1&#45;&gt;Node8</title>
<g id="a_edge7_Node000001_Node000008"><a xlink:title=" ">
<path fill="none" stroke="#63b8ff" d="M1302.33,-69.32C1235.88,-61.62 1108.73,-46.33 1001,-30 998.07,-29.56 995.09,-29.09 992.07,-28.61"/>
<polygon fill="#63b8ff" stroke="#63b8ff" points="1302.12,-72.82 1312.46,-70.49 1302.93,-65.86 1302.12,-72.82"/>
</a>
</g>
</g>
<!-- Node9 -->
<g id="Node000009" class="node">
<title>Node9</title>
<g id="a_Node000009"><a xlink:href="kinematic__body_8class_8c.html" target="_top" xlink:title="This file defines the implementation of kinematic bodies for the physics engine.">
<polygon fill="white" stroke="#666666" points="1177.5,-30 1010.5,-30 1010.5,0 1177.5,0 1177.5,-30"/>
<text text-anchor="start" x="1018.5" y="-18" font-family="Helvetica,sans-Serif" font-size="10.00">src/classes/nodes/physics</text>
<text text-anchor="middle" x="1094" y="-7" font-family="Helvetica,sans-Serif" font-size="10.00">/bodies/kinematic_body.class.c</text>
</a>
</g>
</g>
<!-- Node1&#45;&gt;Node9 -->
<g id="edge8_Node000001_Node000009" class="edge">
<title>Node1&#45;&gt;Node9</title>
<g id="a_edge8_Node000001_Node000009"><a xlink:title=" ">
<path fill="none" stroke="#63b8ff" d="M1302.41,-64C1261.32,-54.54 1200.57,-40.55 1155.25,-30.11"/>
<polygon fill="#63b8ff" stroke="#63b8ff" points="1301.88,-67.47 1312.41,-66.3 1303.46,-60.65 1301.88,-67.47"/>
</a>
</g>
</g>
<!-- Node10 -->
<g id="Node000010" class="node">
<title>Node10</title>
<g id="a_Node000010"><a xlink:href="rigid__body_8class_8c.html" target="_top" xlink:title="This source file defines the implementation of rigid body physics for the project.">
<polygon fill="white" stroke="#666666" points="1338,-30 1196,-30 1196,0 1338,0 1338,-30"/>
<text text-anchor="start" x="1204" y="-18" font-family="Helvetica,sans-Serif" font-size="10.00">src/classes/nodes/physics</text>
<text text-anchor="middle" x="1267" y="-7" font-family="Helvetica,sans-Serif" font-size="10.00">/bodies/rigid_body.class.c</text>
</a>
</g>
</g>
<!-- Node1&#45;&gt;Node10 -->
<g id="edge9_Node000001_Node000010" class="edge">
<title>Node1&#45;&gt;Node10</title>
<g id="a_edge9_Node000001_Node000010"><a xlink:title=" ">
<path fill="none" stroke="#63b8ff" d="M1327.6,-59.77C1315.02,-50.68 1298.96,-39.09 1286.54,-30.11"/>
<polygon fill="#63b8ff" stroke="#63b8ff" points="1325.89,-62.85 1336.05,-65.87 1329.99,-57.18 1325.89,-62.85"/>
</a>
</g>
</g>
<!-- Node11 -->
<g id="Node000011" class="node">
<title>Node11</title>
<g id="a_Node000011"><a xlink:href="static__body_8class_8c.html" target="_top" xlink:title="This file defines the implementation of static bodies in the physics engine.">
<polygon fill="white" stroke="#666666" points="1502,-30 1356,-30 1356,0 1502,0 1502,-30"/>
<text text-anchor="start" x="1364" y="-18" font-family="Helvetica,sans-Serif" font-size="10.00">src/classes/nodes/physics</text>
<text text-anchor="middle" x="1429" y="-7" font-family="Helvetica,sans-Serif" font-size="10.00">/bodies/static_body.class.c</text>
</a>
</g>
</g>
<!-- Node1&#45;&gt;Node11 -->
<g id="edge10_Node000001_Node000011" class="edge">
<title>Node1&#45;&gt;Node11</title>
<g id="a_edge10_Node000001_Node000011"><a xlink:title=" ">
<path fill="none" stroke="#63b8ff" d="M1368.4,-59.77C1380.98,-50.68 1397.04,-39.09 1409.46,-30.11"/>
<polygon fill="#63b8ff" stroke="#63b8ff" points="1366.01,-57.18 1359.95,-65.87 1370.11,-62.85 1366.01,-57.18"/>
</a>
</g>
</g>
<!-- Node12 -->
<g id="Node000012" class="node">
<title>Node12</title>
<g id="a_Node000012"><a xlink:href="physical__node_8class_8c.html" target="_top" xlink:title="This file contains the implementation of the PhysicalNode class.">
<polygon fill="white" stroke="#666666" points="1662,-30 1520,-30 1520,0 1662,0 1662,-30"/>
<text text-anchor="start" x="1528" y="-18" font-family="Helvetica,sans-Serif" font-size="10.00">src/classes/nodes/physics</text>
<text text-anchor="middle" x="1591" y="-7" font-family="Helvetica,sans-Serif" font-size="10.00">/physical_node.class.c</text>
</a>
</g>
</g>
<!-- Node1&#45;&gt;Node12 -->
<g id="edge11_Node000001_Node000012" class="edge">
<title>Node1&#45;&gt;Node12</title>
<g id="a_edge11_Node000001_Node000012"><a xlink:title=" ">
<path fill="none" stroke="#63b8ff" d="M1393.18,-63.62C1432.51,-54.16 1489.77,-40.37 1532.58,-30.06"/>
<polygon fill="#63b8ff" stroke="#63b8ff" points="1392.24,-60.25 1383.33,-65.99 1393.88,-67.06 1392.24,-60.25"/>
</a>
</g>
</g>
<!-- Node13 -->
<g id="Node000013" class="node">
<title>Node13</title>
<g id="a_Node000013"><a xlink:href="node__loader_8c.html" target="_top" xlink:title=" ">
<polygon fill="white" stroke="#666666" points="1793.5,-24.5 1680.5,-24.5 1680.5,-5.5 1793.5,-5.5 1793.5,-24.5"/>
<text text-anchor="middle" x="1737" y="-12.5" font-family="Helvetica,sans-Serif" font-size="10.00">src/io/node_loader.c</text>
</a>
</g>
</g>
<!-- Node1&#45;&gt;Node13 -->
<g id="edge12_Node000001_Node000013" class="edge">
<title>Node1&#45;&gt;Node13</title>
<g id="a_edge12_Node000001_Node000013"><a xlink:title=" ">
<path fill="none" stroke="#63b8ff" d="M1393.96,-69.23C1456.74,-61.78 1572.75,-47.16 1671,-30 1680.12,-28.41 1689.89,-26.46 1699.05,-24.54"/>
<polygon fill="#63b8ff" stroke="#63b8ff" points="1393.5,-65.76 1383.98,-70.4 1394.32,-72.71 1393.5,-65.76"/>
</a>
</g>
</g>
<!-- Node14 -->
<g id="Node000014" class="node">
<title>Node14</title>
<g id="a_Node000014"><a xlink:href="scene__loader_8c.html" target="_top" xlink:title=" ">
<polygon fill="white" stroke="#666666" points="1930,-24.5 1812,-24.5 1812,-5.5 1930,-5.5 1930,-24.5"/>
<text text-anchor="middle" x="1871" y="-12.5" font-family="Helvetica,sans-Serif" font-size="10.00">src/io/scene_loader.c</text>
</a>
</g>
</g>
<!-- Node1&#45;&gt;Node14 -->
<g id="edge13_Node000001_Node000014" class="edge">
<title>Node1&#45;&gt;Node14</title>
<g id="a_edge13_Node000001_Node000014"><a xlink:title=" ">
<path fill="none" stroke="#63b8ff" d="M1393.56,-71.64C1475.71,-66.14 1653.99,-52.56 1803,-30 1812.77,-28.52 1823.26,-26.55 1833,-24.56"/>
<polygon fill="#63b8ff" stroke="#63b8ff" points="1393.3,-68.15 1383.56,-72.31 1393.77,-75.14 1393.3,-68.15"/>
</a>
</g>
</g>
<!-- Node15 -->
<g id="Node000015" class="node">
<title>Node15</title>
<g id="a_Node000015"><a xlink:href="main_8c.html" target="_top" xlink:title=" ">
<polygon fill="white" stroke="#666666" points="2015.5,-24.5 1948.5,-24.5 1948.5,-5.5 2015.5,-5.5 2015.5,-24.5"/>
<text text-anchor="middle" x="1982" y="-12.5" font-family="Helvetica,sans-Serif" font-size="10.00">src/main.c</text>
</a>
</g>
</g>
<!-- Node1&#45;&gt;Node15 -->
<g id="edge14_Node000001_Node000015" class="edge">
<title>Node1&#45;&gt;Node15</title>
<g id="a_edge14_Node000001_Node000015"><a xlink:title=" ">
<path fill="none" stroke="#63b8ff" d="M1393.76,-74.76C1493.72,-74.53 1738.65,-69.56 1939,-30 1945.62,-28.69 1952.65,-26.68 1959.06,-24.59"/>
<polygon fill="#63b8ff" stroke="#63b8ff" points="1393.7,-71.26 1383.7,-74.77 1393.71,-78.26 1393.7,-71.26"/>
</a>
</g>
</g>
<!-- Node16 -->
<g id="Node000016" class="node">
<title>Node16</title>
<g id="a_Node000016"><a xlink:href="collision_8c.html" target="_top" xlink:title=" ">
<polygon fill="white" stroke="#666666" points="2156,-24.5 2034,-24.5 2034,-5.5 2156,-5.5 2156,-24.5"/>
<text text-anchor="middle" x="2095" y="-12.5" font-family="Helvetica,sans-Serif" font-size="10.00">src/physics/collision.c</text>
</a>
</g>
</g>
<!-- Node1&#45;&gt;Node16 -->
<g id="edge15_Node000001_Node000016" class="edge">
<title>Node1&#45;&gt;Node16</title>
<g id="a_edge15_Node000001_Node000016"><a xlink:title=" ">
<path fill="none" stroke="#63b8ff" d="M1393.81,-73.57C1503.34,-70.89 1788.86,-61.24 2025,-30 2035.44,-28.62 2046.67,-26.61 2057.01,-24.55"/>
<polygon fill="#63b8ff" stroke="#63b8ff" points="1393.68,-70.07 1383.76,-73.81 1393.84,-77.07 1393.68,-70.07"/>
</a>
</g>
</g>
<!-- Node17 -->
<g id="Node000017" class="node">
<title>Node17</title>
<g id="a_Node000017"><a xlink:href="physics_8c.html" target="_top" xlink:title=" ">
<polygon fill="white" stroke="#666666" points="2293.5,-24.5 2174.5,-24.5 2174.5,-5.5 2293.5,-5.5 2293.5,-24.5"/>
<text text-anchor="middle" x="2234" y="-12.5" font-family="Helvetica,sans-Serif" font-size="10.00">src/physics/physics.c</text>
</a>
</g>
</g>
<!-- Node1&#45;&gt;Node17 -->
<g id="edge16_Node000001_Node000017" class="edge">
<title>Node1&#45;&gt;Node17</title>
<g id="a_edge16_Node000001_Node000017"><a xlink:title=" ">
<path fill="none" stroke="#63b8ff" d="M1393.9,-74.34C1518.45,-73.4 1873.04,-67.37 2165,-30 2175.43,-28.67 2186.64,-26.65 2196.92,-24.56"/>
<polygon fill="#63b8ff" stroke="#63b8ff" points="1393.58,-70.84 1383.6,-74.41 1393.63,-77.84 1393.58,-70.84"/>
</a>
</g>
</g>
<!-- Node18 -->
<g id="Node000018" class="node">
<title>Node18</title>
<g id="a_Node000018"><a xlink:href="raptiquax_8c.html" target="_top" xlink:title=" ">
<polygon fill="white" stroke="#666666" points="2400.5,-24.5 2311.5,-24.5 2311.5,-5.5 2400.5,-5.5 2400.5,-24.5"/>
<text text-anchor="middle" x="2356" y="-12.5" font-family="Helvetica,sans-Serif" font-size="10.00">src/raptiquax.c</text>
</a>
</g>
</g>
<!-- Node1&#45;&gt;Node18 -->
<g id="edge17_Node000001_Node000018" class="edge">
<title>Node1&#45;&gt;Node18</title>
<g id="a_edge17_Node000001_Node000018"><a xlink:title=" ">
<path fill="none" stroke="#63b8ff" d="M1393.97,-73.65C1559.48,-70.38 2124.51,-57.42 2303,-30 2311.28,-28.73 2320.13,-26.68 2328.18,-24.53"/>
<polygon fill="#63b8ff" stroke="#63b8ff" points="1393.59,-70.15 1383.66,-73.85 1393.73,-77.15 1393.59,-70.15"/>
</a>
</g>
</g>
<!-- Node19 -->
<g id="Node000019" class="node">
<title>Node19</title>
<g id="a_Node000019"><a xlink:href="render_8c.html" target="_top" xlink:title=" ">
<polygon fill="white" stroke="#666666" points="2525.5,-24.5 2418.5,-24.5 2418.5,-5.5 2525.5,-5.5 2525.5,-24.5"/>
<text text-anchor="middle" x="2472" y="-12.5" font-family="Helvetica,sans-Serif" font-size="10.00">src/render/render.c</text>
</a>
</g>
</g>
<!-- Node1&#45;&gt;Node19 -->
<g id="edge18_Node000001_Node000019" class="edge">
<title>Node1&#45;&gt;Node19</title>
<g id="a_edge18_Node000001_Node000019"><a xlink:title=" ">
<path fill="none" stroke="#63b8ff" d="M1393.77,-73.68C1570.56,-70.35 2209.01,-56.68 2410,-30 2419.63,-28.72 2429.96,-26.67 2439.38,-24.52"/>
<polygon fill="#63b8ff" stroke="#63b8ff" points="1393.69,-70.18 1383.76,-73.87 1393.82,-77.18 1393.69,-70.18"/>
</a>
</g>
</g>
</g>
</svg>
