<?xml version="1.0" encoding="UTF-8" standalone="no"?>
<!DOCTYPE svg PUBLIC "-//W3C//DTD SVG 1.1//EN"
 "http://www.w3.org/Graphics/SVG/1.1/DTD/svg11.dtd">
<!-- Generated by graphviz version 2.43.0 (0)
 -->
<!-- Title: src/buffer.c Pages: 1 -->
<svg width="1848pt" height="313pt"
 viewBox="0.00 0.00 1847.50 313.00" xmlns="http://www.w3.org/2000/svg" xmlns:xlink="http://www.w3.org/1999/xlink">
<g id="graph0" class="graph" transform="scale(1 1) rotate(0) translate(4 309)">
<title>src/buffer.c</title>
<!-- Node1 -->
<g id="Node000001" class="node">
<title>Node1</title>
<g id="a_Node000001"><a xlink:title=" ">
<polygon fill="#999999" stroke="#666666" points="1618,-305 1548,-305 1548,-286 1618,-286 1618,-305"/>
<text text-anchor="middle" x="1583" y="-293" font-family="Helvetica,sans-Serif" font-size="10.00">src/buffer.c</text>
</a>
</g>
</g>
<!-- Node2 -->
<g id="Node000002" class="node">
<title>Node2</title>
<g id="a_Node000002"><a xlink:href="raptiquax_8h.html" target="_top" xlink:title="This file contains type definitions for fixed&#45;width integer types and floating&#45;point types.">
<polygon fill="white" stroke="#666666" points="855,-250 783,-250 783,-231 855,-231 855,-250"/>
<text text-anchor="middle" x="819" y="-238" font-family="Helvetica,sans-Serif" font-size="10.00">raptiquax.h</text>
</a>
</g>
</g>
<!-- Node1&#45;&gt;Node2 -->
<g id="edge1_Node000001_Node000002" class="edge">
<title>Node1&#45;&gt;Node2</title>
<g id="a_edge1_Node000001_Node000002"><a xlink:title=" ">
<path fill="none" stroke="#63b8ff" d="M1547.94,-292.07C1423.87,-283.46 1005.59,-254.44 865.31,-244.71"/>
<polygon fill="#63b8ff" stroke="#63b8ff" points="865.52,-241.22 855.31,-244.02 865.04,-248.2 865.52,-241.22"/>
</a>
</g>
</g>
<!-- Node24 -->
<g id="Node000024" class="node">
<title>Node24</title>
<g id="a_Node000024"><a xlink:href="math__util_8h.html" target="_top" xlink:title=" ">
<polygon fill="white" stroke="#666666" points="1595.5,-195 1494.5,-195 1494.5,-176 1595.5,-176 1595.5,-195"/>
<text text-anchor="middle" x="1545" y="-183" font-family="Helvetica,sans-Serif" font-size="10.00">math/math_util.h</text>
</a>
</g>
</g>
<!-- Node1&#45;&gt;Node24 -->
<g id="edge23_Node000001_Node000024" class="edge">
<title>Node1&#45;&gt;Node24</title>
<g id="a_edge23_Node000001_Node000024"><a xlink:title=" ">
<path fill="none" stroke="#63b8ff" d="M1564.33,-285.97C1550.67,-278.59 1533.14,-266.5 1525,-250 1517.6,-234.99 1524.97,-216.63 1532.77,-203.53"/>
<polygon fill="#63b8ff" stroke="#63b8ff" points="1535.78,-205.32 1538.33,-195.03 1529.92,-201.49 1535.78,-205.32"/>
</a>
</g>
</g>
<!-- Node25 -->
<g id="Node000025" class="node">
<title>Node25</title>
<g id="a_Node000025"><a xlink:href="bodies_8h.html" target="_top" xlink:title=" ">
<polygon fill="white" stroke="#666666" points="1632,-250 1534,-250 1534,-231 1632,-231 1632,-250"/>
<text text-anchor="middle" x="1583" y="-238" font-family="Helvetica,sans-Serif" font-size="10.00">physics/bodies.h</text>
</a>
</g>
</g>
<!-- Node1&#45;&gt;Node25 -->
<g id="edge24_Node000001_Node000025" class="edge">
<title>Node1&#45;&gt;Node25</title>
<g id="a_edge24_Node000001_Node000025"><a xlink:title=" ">
<path fill="none" stroke="#63b8ff" d="M1583,-285.75C1583,-278.8 1583,-268.85 1583,-260.13"/>
<polygon fill="#63b8ff" stroke="#63b8ff" points="1586.5,-260.09 1583,-250.09 1579.5,-260.09 1586.5,-260.09"/>
</a>
</g>
</g>
<!-- Node32 -->
<g id="Node000032" class="node">
<title>Node32</title>
<g id="a_Node000032"><a xlink:href="lighting_8h.html" target="_top" xlink:title=" ">
<polygon fill="white" stroke="#666666" points="1747.5,-250 1650.5,-250 1650.5,-231 1747.5,-231 1747.5,-250"/>
<text text-anchor="middle" x="1699" y="-238" font-family="Helvetica,sans-Serif" font-size="10.00">render/lighting.h</text>
</a>
</g>
</g>
<!-- Node1&#45;&gt;Node32 -->
<g id="edge32_Node000001_Node000032" class="edge">
<title>Node1&#45;&gt;Node32</title>
<g id="a_edge32_Node000001_Node000032"><a xlink:title=" ">
<path fill="none" stroke="#63b8ff" d="M1601.64,-285.98C1620.3,-277.46 1649.25,-264.23 1670.74,-254.41"/>
<polygon fill="#63b8ff" stroke="#63b8ff" points="1672.38,-257.51 1680.02,-250.17 1669.47,-251.14 1672.38,-257.51"/>
</a>
</g>
</g>
<!-- Node33 -->
<g id="Node000033" class="node">
<title>Node33</title>
<g id="a_Node000033"><a xlink:href="buffer_8h.html" target="_top" xlink:title="Functions for initializing and freeing Game.buffers&#45;&gt;">
<polygon fill="white" stroke="#666666" points="1818.5,-250 1765.5,-250 1765.5,-231 1818.5,-231 1818.5,-250"/>
<text text-anchor="middle" x="1792" y="-238" font-family="Helvetica,sans-Serif" font-size="10.00">buffer.h</text>
</a>
</g>
</g>
<!-- Node1&#45;&gt;Node33 -->
<g id="edge33_Node000001_Node000033" class="edge">
<title>Node1&#45;&gt;Node33</title>
<g id="a_edge33_Node000001_Node000033"><a xlink:title=" ">
<path fill="none" stroke="#63b8ff" d="M1616.58,-285.98C1654.61,-276.34 1716.36,-260.68 1755.54,-250.75"/>
<polygon fill="#63b8ff" stroke="#63b8ff" points="1756.63,-254.08 1765.47,-248.23 1754.91,-247.29 1756.63,-254.08"/>
</a>
</g>
</g>
<!-- Node3 -->
<g id="Node000003" class="node">
<title>Node3</title>
<g id="a_Node000003"><a xlink:title=" ">
<polygon fill="#e0e0e0" stroke="#999999" points="50,-195 0,-195 0,-176 50,-176 50,-195"/>
<text text-anchor="middle" x="25" y="-183" font-family="Helvetica,sans-Serif" font-size="10.00">stdio.h</text>
</a>
</g>
</g>
<!-- Node2&#45;&gt;Node3 -->
<g id="edge2_Node000002_Node000003" class="edge">
<title>Node2&#45;&gt;Node3</title>
<g id="a_edge2_Node000002_Node000003"><a xlink:title=" ">
<path fill="none" stroke="#63b8ff" d="M782.75,-239.76C674.3,-240.05 342.89,-237.27 60.18,-194.87"/>
<polygon fill="#63b8ff" stroke="#63b8ff" points="60.56,-191.38 50.14,-193.34 59.51,-198.3 60.56,-191.38"/>
</a>
</g>
</g>
<!-- Node4 -->
<g id="Node000004" class="node">
<title>Node4</title>
<g id="a_Node000004"><a xlink:title=" ">
<polygon fill="#e0e0e0" stroke="#999999" points="121.5,-195 68.5,-195 68.5,-176 121.5,-176 121.5,-195"/>
<text text-anchor="middle" x="95" y="-183" font-family="Helvetica,sans-Serif" font-size="10.00">stdint.h</text>
</a>
</g>
</g>
<!-- Node2&#45;&gt;Node4 -->
<g id="edge3_Node000002_Node000004" class="edge">
<title>Node2&#45;&gt;Node4</title>
<g id="a_edge3_Node000002_Node000004"><a xlink:title=" ">
<path fill="none" stroke="#63b8ff" d="M782.96,-239.29C681.77,-238.24 386.35,-232.11 131.82,-194.83"/>
<polygon fill="#63b8ff" stroke="#63b8ff" points="132.05,-191.32 121.64,-193.31 131.02,-198.24 132.05,-191.32"/>
</a>
</g>
</g>
<!-- Node5 -->
<g id="Node000005" class="node">
<title>Node5</title>
<g id="a_Node000005"><a xlink:title=" ">
<polygon fill="#e0e0e0" stroke="#999999" points="202,-195 140,-195 140,-176 202,-176 202,-195"/>
<text text-anchor="middle" x="171" y="-183" font-family="Helvetica,sans-Serif" font-size="10.00">stdbool.h</text>
</a>
</g>
</g>
<!-- Node2&#45;&gt;Node5 -->
<g id="edge4_Node000002_Node000005" class="edge">
<title>Node2&#45;&gt;Node5</title>
<g id="a_edge4_Node000002_Node000005"><a xlink:title=" ">
<path fill="none" stroke="#63b8ff" d="M782.84,-238.57C689.81,-235.82 434.48,-225.96 212.58,-195.03"/>
<polygon fill="#63b8ff" stroke="#63b8ff" points="212.76,-191.52 202.37,-193.59 211.78,-198.45 212.76,-191.52"/>
</a>
</g>
</g>
<!-- Node6 -->
<g id="Node000006" class="node">
<title>Node6</title>
<g id="a_Node000006"><a xlink:title=" ">
<polygon fill="#e0e0e0" stroke="#999999" points="276,-195 220,-195 220,-176 276,-176 276,-195"/>
<text text-anchor="middle" x="248" y="-183" font-family="Helvetica,sans-Serif" font-size="10.00">stdarg.h</text>
</a>
</g>
</g>
<!-- Node2&#45;&gt;Node6 -->
<g id="edge5_Node000002_Node000006" class="edge">
<title>Node2&#45;&gt;Node6</title>
<g id="a_edge5_Node000002_Node000006"><a xlink:title=" ">
<path fill="none" stroke="#63b8ff" d="M782.85,-238.27C697.85,-234.99 478.58,-224.32 286.21,-194.96"/>
<polygon fill="#63b8ff" stroke="#63b8ff" points="286.62,-191.49 276.2,-193.42 285.55,-198.4 286.62,-191.49"/>
</a>
</g>
</g>
<!-- Node7 -->
<g id="Node000007" class="node">
<title>Node7</title>
<g id="a_Node000007"><a xlink:title=" ">
<polygon fill="#e0e0e0" stroke="#999999" points="347.5,-195 294.5,-195 294.5,-176 347.5,-176 347.5,-195"/>
<text text-anchor="middle" x="321" y="-183" font-family="Helvetica,sans-Serif" font-size="10.00">limits.h</text>
</a>
</g>
</g>
<!-- Node2&#45;&gt;Node7 -->
<g id="edge6_Node000002_Node000007" class="edge">
<title>Node2&#45;&gt;Node7</title>
<g id="a_edge6_Node000002_Node000007"><a xlink:title=" ">
<path fill="none" stroke="#63b8ff" d="M782.84,-237.69C706.3,-233.51 522.17,-221.54 357.94,-194.91"/>
<polygon fill="#63b8ff" stroke="#63b8ff" points="358.09,-191.39 347.65,-193.22 356.95,-198.3 358.09,-191.39"/>
</a>
</g>
</g>
<!-- Node8 -->
<g id="Node000008" class="node">
<title>Node8</title>
<g id="a_Node000008"><a xlink:title=" ">
<polygon fill="#e0e0e0" stroke="#999999" points="438,-195 366,-195 366,-176 438,-176 438,-195"/>
<text text-anchor="middle" x="402" y="-183" font-family="Helvetica,sans-Serif" font-size="10.00">SDL2/SDL.h</text>
</a>
</g>
</g>
<!-- Node2&#45;&gt;Node8 -->
<g id="edge7_Node000002_Node000008" class="edge">
<title>Node2&#45;&gt;Node8</title>
<g id="a_edge7_Node000002_Node000008"><a xlink:title=" ">
<path fill="none" stroke="#63b8ff" d="M782.98,-236.01C718.12,-229.55 577.18,-214.7 448.36,-195.12"/>
<polygon fill="#63b8ff" stroke="#63b8ff" points="448.73,-191.63 438.31,-193.58 447.67,-198.55 448.73,-191.63"/>
</a>
</g>
</g>
<!-- Node9 -->
<g id="Node000009" class="node">
<title>Node9</title>
<g id="a_Node000009"><a xlink:title=" ">
<polygon fill="#e0e0e0" stroke="#999999" points="564,-195 456,-195 456,-176 564,-176 564,-195"/>
<text text-anchor="middle" x="510" y="-183" font-family="Helvetica,sans-Serif" font-size="10.00">SDL2/SDL_image.h</text>
</a>
</g>
</g>
<!-- Node2&#45;&gt;Node9 -->
<g id="edge8_Node000002_Node000009" class="edge">
<title>Node2&#45;&gt;Node9</title>
<g id="a_edge8_Node000002_Node000009"><a xlink:title=" ">
<path fill="none" stroke="#63b8ff" d="M782.95,-233.32C730.62,-224.34 632.98,-207.59 569.78,-196.75"/>
<polygon fill="#63b8ff" stroke="#63b8ff" points="570.01,-193.24 559.56,-195 568.82,-200.14 570.01,-193.24"/>
</a>
</g>
</g>
<!-- Node10 -->
<g id="Node000010" class="node">
<title>Node10</title>
<g id="a_Node000010"><a xlink:title=" ">
<polygon fill="#e0e0e0" stroke="#999999" points="692,-195 582,-195 582,-176 692,-176 692,-195"/>
<text text-anchor="middle" x="637" y="-183" font-family="Helvetica,sans-Serif" font-size="10.00">SDL2/SDL_opengl.h</text>
</a>
</g>
</g>
<!-- Node2&#45;&gt;Node10 -->
<g id="edge9_Node000002_Node000010" class="edge">
<title>Node2&#45;&gt;Node10</title>
<g id="a_edge9_Node000002_Node000010"><a xlink:title=" ">
<path fill="none" stroke="#63b8ff" d="M789.76,-230.98C758.94,-222.01 710.22,-207.82 676.11,-197.89"/>
<polygon fill="#63b8ff" stroke="#63b8ff" points="677.05,-194.52 666.47,-195.08 675.09,-201.24 677.05,-194.52"/>
</a>
</g>
</g>
<!-- Node11 -->
<g id="Node000011" class="node">
<title>Node11</title>
<g id="a_Node000011"><a xlink:title=" ">
<polygon fill="#e0e0e0" stroke="#999999" points="814,-195 710,-195 710,-176 814,-176 814,-195"/>
<text text-anchor="middle" x="762" y="-183" font-family="Helvetica,sans-Serif" font-size="10.00">SDL2/SDL_mixer.h</text>
</a>
</g>
</g>
<!-- Node2&#45;&gt;Node11 -->
<g id="edge10_Node000002_Node000011" class="edge">
<title>Node2&#45;&gt;Node11</title>
<g id="a_edge10_Node000002_Node000011"><a xlink:title=" ">
<path fill="none" stroke="#63b8ff" d="M809.84,-230.98C801.5,-223.23 788.97,-211.58 778.82,-202.14"/>
<polygon fill="#63b8ff" stroke="#63b8ff" points="781.03,-199.42 771.32,-195.17 776.26,-204.54 781.03,-199.42"/>
</a>
</g>
</g>
<!-- Node12 -->
<g id="Node000012" class="node">
<title>Node12</title>
<g id="a_Node000012"><a xlink:title=" ">
<polygon fill="#e0e0e0" stroke="#999999" points="920,-195 832,-195 832,-176 920,-176 920,-195"/>
<text text-anchor="middle" x="876" y="-183" font-family="Helvetica,sans-Serif" font-size="10.00">SDL2/SDL_ttf.h</text>
</a>
</g>
</g>
<!-- Node2&#45;&gt;Node12 -->
<g id="edge11_Node000002_Node000012" class="edge">
<title>Node2&#45;&gt;Node12</title>
<g id="a_edge11_Node000002_Node000012"><a xlink:title=" ">
<path fill="none" stroke="#63b8ff" d="M828.16,-230.98C836.5,-223.23 849.03,-211.58 859.18,-202.14"/>
<polygon fill="#63b8ff" stroke="#63b8ff" points="861.74,-204.54 866.68,-195.17 856.97,-199.42 861.74,-204.54"/>
</a>
</g>
</g>
<!-- Node13 -->
<g id="Node000013" class="node">
<title>Node13</title>
<g id="a_Node000013"><a xlink:title=" ">
<polygon fill="#e0e0e0" stroke="#999999" points="988,-195 938,-195 938,-176 988,-176 988,-195"/>
<text text-anchor="middle" x="963" y="-183" font-family="Helvetica,sans-Serif" font-size="10.00">GL/gl.h</text>
</a>
</g>
</g>
<!-- Node2&#45;&gt;Node13 -->
<g id="edge12_Node000002_Node000013" class="edge">
<title>Node2&#45;&gt;Node13</title>
<g id="a_edge12_Node000002_Node000013"><a xlink:title=" ">
<path fill="none" stroke="#63b8ff" d="M842.14,-230.98C865.82,-222.27 902.87,-208.63 929.71,-198.75"/>
<polygon fill="#63b8ff" stroke="#63b8ff" points="931.27,-201.91 939.44,-195.17 928.85,-195.34 931.27,-201.91"/>
</a>
</g>
</g>
<!-- Node14 -->
<g id="Node000014" class="node">
<title>Node14</title>
<g id="a_Node000014"><a xlink:title=" ">
<polygon fill="#e0e0e0" stroke="#999999" points="1062,-195 1006,-195 1006,-176 1062,-176 1062,-195"/>
<text text-anchor="middle" x="1034" y="-183" font-family="Helvetica,sans-Serif" font-size="10.00">GL/glu.h</text>
</a>
</g>
</g>
<!-- Node2&#45;&gt;Node14 -->
<g id="edge13_Node000002_Node000014" class="edge">
<title>Node2&#45;&gt;Node14</title>
<g id="a_edge13_Node000002_Node000014"><a xlink:title=" ">
<path fill="none" stroke="#63b8ff" d="M853.54,-230.98C892.5,-221.38 955.66,-205.81 995.99,-195.87"/>
<polygon fill="#63b8ff" stroke="#63b8ff" points="996.85,-199.26 1005.72,-193.47 995.17,-192.47 996.85,-199.26"/>
</a>
</g>
</g>
<!-- Node15 -->
<g id="Node000015" class="node">
<title>Node15</title>
<g id="a_Node000015"><a xlink:title=" ">
<polygon fill="#e0e0e0" stroke="#999999" points="1146,-195 1080,-195 1080,-176 1146,-176 1146,-195"/>
<text text-anchor="middle" x="1113" y="-183" font-family="Helvetica,sans-Serif" font-size="10.00">GL/glext.h</text>
</a>
</g>
</g>
<!-- Node2&#45;&gt;Node15 -->
<g id="edge14_Node000002_Node000015" class="edge">
<title>Node2&#45;&gt;Node15</title>
<g id="a_edge14_Node000002_Node000015"><a xlink:title=" ">
<path fill="none" stroke="#63b8ff" d="M855.36,-233.37C902.47,-225.37 987.42,-210.72 1069.55,-195.24"/>
<polygon fill="#63b8ff" stroke="#63b8ff" points="1070.37,-198.65 1079.54,-193.35 1069.07,-191.77 1070.37,-198.65"/>
</a>
</g>
</g>
<!-- Node16 -->
<g id="Node000016" class="node">
<title>Node16</title>
<g id="a_Node000016"><a xlink:title=" ">
<polygon fill="#e0e0e0" stroke="#999999" points="1241.5,-195 1164.5,-195 1164.5,-176 1241.5,-176 1241.5,-195"/>
<text text-anchor="middle" x="1203" y="-183" font-family="Helvetica,sans-Serif" font-size="10.00">cglm/cglm.h</text>
</a>
</g>
</g>
<!-- Node2&#45;&gt;Node16 -->
<g id="edge15_Node000002_Node000016" class="edge">
<title>Node2&#45;&gt;Node16</title>
<g id="a_edge15_Node000002_Node000016"><a xlink:title=" ">
<path fill="none" stroke="#63b8ff" d="M855.37,-235.21C915.35,-228.02 1039,-212.72 1154.2,-195.06"/>
<polygon fill="#63b8ff" stroke="#63b8ff" points="1154.9,-198.49 1164.25,-193.51 1153.83,-191.58 1154.9,-198.49"/>
</a>
</g>
</g>
<!-- Node17 -->
<g id="Node000017" class="node">
<title>Node17</title>
<g id="a_Node000017"><a xlink:title=" ">
<polygon fill="#e0e0e0" stroke="#999999" points="1310.5,-195 1259.5,-195 1259.5,-176 1310.5,-176 1310.5,-195"/>
<text text-anchor="middle" x="1285" y="-183" font-family="Helvetica,sans-Serif" font-size="10.00">math.h</text>
</a>
</g>
</g>
<!-- Node2&#45;&gt;Node17 -->
<g id="edge16_Node000002_Node000017" class="edge">
<title>Node2&#45;&gt;Node17</title>
<g id="a_edge16_Node000002_Node000017"><a xlink:title=" ">
<path fill="none" stroke="#63b8ff" d="M855.27,-237.42C928.09,-232.88 1097.4,-220.54 1249.48,-194.84"/>
<polygon fill="#63b8ff" stroke="#63b8ff" points="1250.2,-198.26 1259.47,-193.12 1249.02,-191.36 1250.2,-198.26"/>
</a>
</g>
</g>
<!-- Node18 -->
<g id="Node000018" class="node">
<title>Node18</title>
<g id="a_Node000018"><a xlink:href="stringio_8h.html" target="_top" xlink:title="Provides utility functions for string and file operations.">
<polygon fill="white" stroke="#666666" points="1403,-195 1329,-195 1329,-176 1403,-176 1403,-195"/>
<text text-anchor="middle" x="1366" y="-183" font-family="Helvetica,sans-Serif" font-size="10.00">io/stringio.h</text>
</a>
</g>
</g>
<!-- Node2&#45;&gt;Node18 -->
<g id="edge17_Node000002_Node000018" class="edge">
<title>Node2&#45;&gt;Node18</title>
<g id="a_edge17_Node000002_Node000018"><a xlink:title=" ">
<path fill="none" stroke="#63b8ff" d="M855.2,-237.4C936.24,-232.46 1138.56,-218.79 1318.92,-194.87"/>
<polygon fill="#63b8ff" stroke="#63b8ff" points="1319.4,-198.34 1328.85,-193.54 1318.47,-191.4 1319.4,-198.34"/>
</a>
</g>
</g>
<!-- Node20 -->
<g id="Node000020" class="node">
<title>Node20</title>
<g id="a_Node000020"><a xlink:href="config_8h.html" target="_top" xlink:title=" ">
<polygon fill="white" stroke="#666666" points="1476.5,-195 1421.5,-195 1421.5,-176 1476.5,-176 1476.5,-195"/>
<text text-anchor="middle" x="1449" y="-183" font-family="Helvetica,sans-Serif" font-size="10.00">config.h</text>
</a>
</g>
</g>
<!-- Node2&#45;&gt;Node20 -->
<g id="edge19_Node000002_Node000020" class="edge">
<title>Node2&#45;&gt;Node20</title>
<g id="a_edge19_Node000002_Node000020"><a xlink:title=" ">
<path fill="none" stroke="#63b8ff" d="M855.31,-238.68C946.95,-236.21 1195.08,-226.99 1411.26,-194.86"/>
<polygon fill="#63b8ff" stroke="#63b8ff" points="1411.84,-198.31 1421.21,-193.36 1410.8,-191.39 1411.84,-198.31"/>
</a>
</g>
</g>
<!-- Node19 -->
<g id="Node000019" class="node">
<title>Node19</title>
<g id="a_Node000019"><a xlink:title=" ">
<polygon fill="#e0e0e0" stroke="#999999" points="1392.5,-134.5 1339.5,-134.5 1339.5,-115.5 1392.5,-115.5 1392.5,-134.5"/>
<text text-anchor="middle" x="1366" y="-122.5" font-family="Helvetica,sans-Serif" font-size="10.00">string.h</text>
</a>
</g>
</g>
<!-- Node18&#45;&gt;Node19 -->
<g id="edge18_Node000018_Node000019" class="edge">
<title>Node18&#45;&gt;Node19</title>
<g id="a_edge18_Node000018_Node000019"><a xlink:title=" ">
<path fill="none" stroke="#63b8ff" d="M1366,-175.87C1366,-167.75 1366,-155.31 1366,-144.89"/>
<polygon fill="#63b8ff" stroke="#63b8ff" points="1369.5,-144.67 1366,-134.67 1362.5,-144.67 1369.5,-144.67"/>
</a>
</g>
</g>
<!-- Node21 -->
<g id="Node000021" class="node">
<title>Node21</title>
<g id="a_Node000021"><a xlink:href="term_8h.html" target="_top" xlink:title=" ">
<polygon fill="white" stroke="#666666" points="1486.5,-134.5 1411.5,-134.5 1411.5,-115.5 1486.5,-115.5 1486.5,-134.5"/>
<text text-anchor="middle" x="1449" y="-122.5" font-family="Helvetica,sans-Serif" font-size="10.00">term/term.h</text>
</a>
</g>
</g>
<!-- Node20&#45;&gt;Node21 -->
<g id="edge20_Node000020_Node000021" class="edge">
<title>Node20&#45;&gt;Node21</title>
<g id="a_edge20_Node000020_Node000021"><a xlink:title=" ">
<path fill="none" stroke="#63b8ff" d="M1449,-175.87C1449,-167.75 1449,-155.31 1449,-144.89"/>
<polygon fill="#63b8ff" stroke="#63b8ff" points="1452.5,-144.67 1449,-134.67 1445.5,-144.67 1452.5,-144.67"/>
</a>
</g>
</g>
<!-- Node22 -->
<g id="Node000022" class="node">
<title>Node22</title>
<g id="a_Node000022"><a xlink:href="enhanced__print_8h.html" target="_top" xlink:title=" ">
<polygon fill="white" stroke="#666666" points="1499.5,-74 1398.5,-74 1398.5,-55 1499.5,-55 1499.5,-74"/>
<text text-anchor="middle" x="1449" y="-62" font-family="Helvetica,sans-Serif" font-size="10.00">enhanced_print.h</text>
</a>
</g>
</g>
<!-- Node21&#45;&gt;Node22 -->
<g id="edge21_Node000021_Node000022" class="edge">
<title>Node21&#45;&gt;Node22</title>
<g id="a_edge21_Node000021_Node000022"><a xlink:title=" ">
<path fill="none" stroke="#63b8ff" d="M1449,-115.37C1449,-107.25 1449,-94.81 1449,-84.39"/>
<polygon fill="#63b8ff" stroke="#63b8ff" points="1452.5,-84.17 1449,-74.17 1445.5,-84.17 1452.5,-84.17"/>
</a>
</g>
</g>
<!-- Node23 -->
<g id="Node000023" class="node">
<title>Node23</title>
<g id="a_Node000023"><a xlink:href="color_8h.html" target="_top" xlink:title=" ">
<polygon fill="white" stroke="#666666" points="1473.5,-19 1424.5,-19 1424.5,0 1473.5,0 1473.5,-19"/>
<text text-anchor="middle" x="1449" y="-7" font-family="Helvetica,sans-Serif" font-size="10.00">color.h</text>
</a>
</g>
</g>
<!-- Node22&#45;&gt;Node23 -->
<g id="edge22_Node000022_Node000023" class="edge">
<title>Node22&#45;&gt;Node23</title>
<g id="a_edge22_Node000022_Node000023"><a xlink:title=" ">
<path fill="none" stroke="#63b8ff" d="M1449,-54.75C1449,-47.8 1449,-37.85 1449,-29.13"/>
<polygon fill="#63b8ff" stroke="#63b8ff" points="1452.5,-29.09 1449,-19.09 1445.5,-29.09 1452.5,-29.09"/>
</a>
</g>
</g>
<!-- Node25&#45;&gt;Node24 -->
<g id="edge25_Node000025_Node000024" class="edge">
<title>Node25&#45;&gt;Node24</title>
<g id="a_edge25_Node000025_Node000024"><a xlink:title=" ">
<path fill="none" stroke="#63b8ff" d="M1576.73,-230.75C1571.41,-223.34 1563.64,-212.5 1557.12,-203.41"/>
<polygon fill="#63b8ff" stroke="#63b8ff" points="1559.83,-201.18 1551.16,-195.09 1554.14,-205.26 1559.83,-201.18"/>
</a>
</g>
</g>
<!-- Node26 -->
<g id="Node000026" class="node">
<title>Node26</title>
<g id="a_Node000026"><a xlink:href="model_8h.html" target="_top" xlink:title="Defines structures and functions for handling 3D models and their properties.">
<polygon fill="white" stroke="#666666" points="1690.5,-195 1613.5,-195 1613.5,-176 1690.5,-176 1690.5,-195"/>
<text text-anchor="middle" x="1652" y="-183" font-family="Helvetica,sans-Serif" font-size="10.00">../io/model.h</text>
</a>
</g>
</g>
<!-- Node25&#45;&gt;Node26 -->
<g id="edge26_Node000025_Node000026" class="edge">
<title>Node25&#45;&gt;Node26</title>
<g id="a_edge26_Node000025_Node000026"><a xlink:title=" ">
<path fill="none" stroke="#63b8ff" d="M1594.09,-230.98C1604.49,-223 1620.26,-210.88 1632.72,-201.31"/>
<polygon fill="#63b8ff" stroke="#63b8ff" points="1634.91,-204.04 1640.71,-195.17 1630.65,-198.49 1634.91,-204.04"/>
</a>
</g>
</g>
<!-- Node27 -->
<g id="Node000027" class="node">
<title>Node27</title>
<g id="a_Node000027"><a xlink:href="shader_8h.html" target="_top" xlink:title=" ">
<polygon fill="white" stroke="#666666" points="1627,-134.5 1569,-134.5 1569,-115.5 1627,-115.5 1627,-134.5"/>
<text text-anchor="middle" x="1598" y="-122.5" font-family="Helvetica,sans-Serif" font-size="10.00">shader.h</text>
</a>
</g>
</g>
<!-- Node26&#45;&gt;Node27 -->
<g id="edge27_Node000026_Node000027" class="edge">
<title>Node26&#45;&gt;Node27</title>
<g id="a_edge27_Node000026_Node000027"><a xlink:title=" ">
<path fill="none" stroke="#63b8ff" d="M1644.03,-175.87C1635.9,-167.05 1623.07,-153.16 1613.02,-142.27"/>
<polygon fill="#63b8ff" stroke="#63b8ff" points="1615.36,-139.64 1606,-134.67 1610.21,-144.39 1615.36,-139.64"/>
</a>
</g>
</g>
<!-- Node28 -->
<g id="Node000028" class="node">
<title>Node28</title>
<g id="a_Node000028"><a xlink:href="model__loader_8h.html" target="_top" xlink:title=" ">
<polygon fill="white" stroke="#666666" points="1767,-140 1645,-140 1645,-110 1767,-110 1767,-140"/>
<text text-anchor="start" x="1653" y="-128" font-family="Helvetica,sans-Serif" font-size="10.00">model_loaders/model</text>
<text text-anchor="middle" x="1706" y="-117" font-family="Helvetica,sans-Serif" font-size="10.00">_loader.h</text>
</a>
</g>
</g>
<!-- Node26&#45;&gt;Node28 -->
<g id="edge28_Node000026_Node000028" class="edge">
<title>Node26&#45;&gt;Node28</title>
<g id="a_edge28_Node000026_Node000028"><a xlink:title=" ">
<path fill="none" stroke="#63b8ff" d="M1659.97,-175.87C1666.82,-168.44 1677,-157.42 1686.05,-147.62"/>
<polygon fill="#63b8ff" stroke="#63b8ff" points="1688.76,-149.84 1692.97,-140.11 1683.62,-145.09 1688.76,-149.84"/>
</a>
</g>
</g>
<!-- Node29 -->
<g id="Node000029" class="node">
<title>Node29</title>
<g id="a_Node000029"><a xlink:href="obj__loader_8h.html" target="_top" xlink:title=" ">
<polygon fill="white" stroke="#666666" points="1649,-74 1573,-74 1573,-55 1649,-55 1649,-74"/>
<text text-anchor="middle" x="1611" y="-62" font-family="Helvetica,sans-Serif" font-size="10.00">obj_loader.h</text>
</a>
</g>
</g>
<!-- Node28&#45;&gt;Node29 -->
<g id="edge29_Node000028_Node000029" class="edge">
<title>Node28&#45;&gt;Node29</title>
<g id="a_edge29_Node000028_Node000029"><a xlink:title=" ">
<path fill="none" stroke="#63b8ff" d="M1683,-109.84C1668,-100.6 1648.5,-88.59 1633.57,-79.4"/>
<polygon fill="#63b8ff" stroke="#63b8ff" points="1635.31,-76.36 1624.96,-74.09 1631.64,-82.32 1635.31,-76.36"/>
</a>
</g>
</g>
<!-- Node30 -->
<g id="Node000030" class="node">
<title>Node30</title>
<g id="a_Node000030"><a xlink:href="mtl__loader_8h.html" target="_top" xlink:title=" ">
<polygon fill="white" stroke="#666666" points="1744.5,-74 1667.5,-74 1667.5,-55 1744.5,-55 1744.5,-74"/>
<text text-anchor="middle" x="1706" y="-62" font-family="Helvetica,sans-Serif" font-size="10.00">mtl_loader.h</text>
</a>
</g>
</g>
<!-- Node28&#45;&gt;Node30 -->
<g id="edge30_Node000028_Node000030" class="edge">
<title>Node28&#45;&gt;Node30</title>
<g id="a_edge30_Node000028_Node000030"><a xlink:title=" ">
<path fill="none" stroke="#63b8ff" d="M1706,-109.84C1706,-102.21 1706,-92.7 1706,-84.45"/>
<polygon fill="#63b8ff" stroke="#63b8ff" points="1709.5,-84.27 1706,-74.27 1702.5,-84.27 1709.5,-84.27"/>
</a>
</g>
</g>
<!-- Node31 -->
<g id="Node000031" class="node">
<title>Node31</title>
<g id="a_Node000031"><a xlink:href="fbx__loader_8h.html" target="_top" xlink:title=" ">
<polygon fill="white" stroke="#666666" points="1839.5,-74 1762.5,-74 1762.5,-55 1839.5,-55 1839.5,-74"/>
<text text-anchor="middle" x="1801" y="-62" font-family="Helvetica,sans-Serif" font-size="10.00">fbx_loader.h</text>
</a>
</g>
</g>
<!-- Node28&#45;&gt;Node31 -->
<g id="edge31_Node000028_Node000031" class="edge">
<title>Node28&#45;&gt;Node31</title>
<g id="a_edge31_Node000028_Node000031"><a xlink:title=" ">
<path fill="none" stroke="#63b8ff" d="M1729,-109.84C1744,-100.6 1763.5,-88.59 1778.43,-79.4"/>
<polygon fill="#63b8ff" stroke="#63b8ff" points="1780.36,-82.32 1787.04,-74.09 1776.69,-76.36 1780.36,-82.32"/>
</a>
</g>
</g>
</g>
</svg>
