<?xml version="1.0" encoding="UTF-8" standalone="no"?>
<!DOCTYPE svg PUBLIC "-//W3C//DTD SVG 1.1//EN"
 "http://www.w3.org/Graphics/SVG/1.1/DTD/svg11.dtd">
<!-- Generated by graphviz version 2.43.0 (0)
 -->
<!-- Title: src/render/camera.c Pages: 1 -->
<svg width="1978pt" height="423pt"
 viewBox="0.00 0.00 1978.00 423.00" xmlns="http://www.w3.org/2000/svg" xmlns:xlink="http://www.w3.org/1999/xlink">
<g id="graph0" class="graph" transform="scale(1 1) rotate(0) translate(4 419)">
<title>src/render/camera.c</title>
<!-- Node1 -->
<g id="Node000001" class="node">
<title>Node1</title>
<g id="a_Node000001"><a xlink:title=" ">
<polygon fill="#999999" stroke="#666666" points="1629.5,-415 1516.5,-415 1516.5,-396 1629.5,-396 1629.5,-415"/>
<text text-anchor="middle" x="1573" y="-403" font-family="Helvetica,sans-Serif" font-size="10.00">src/render/camera.c</text>
</a>
</g>
</g>
<!-- Node2 -->
<g id="Node000002" class="node">
<title>Node2</title>
<g id="a_Node000002"><a xlink:href="raptiquax_8h.html" target="_top" xlink:title="This file contains type definitions for fixed&#45;width integer types and floating&#45;point types.">
<polygon fill="white" stroke="#666666" points="950.5,-250 869.5,-250 869.5,-231 950.5,-231 950.5,-250"/>
<text text-anchor="middle" x="910" y="-238" font-family="Helvetica,sans-Serif" font-size="10.00">../raptiquax.h</text>
</a>
</g>
</g>
<!-- Node1&#45;&gt;Node2 -->
<g id="edge1_Node000001_Node000002" class="edge">
<title>Node1&#45;&gt;Node2</title>
<g id="a_edge1_Node000001_Node000002"><a xlink:title=" ">
<path fill="none" stroke="#63b8ff" d="M1516.48,-400.66C1449.5,-395.27 1334.91,-383.38 1239,-360 1124.65,-332.13 994.82,-278.52 938.53,-254.13"/>
<polygon fill="#63b8ff" stroke="#63b8ff" points="939.77,-250.85 929.21,-250.07 936.98,-257.27 939.77,-250.85"/>
</a>
</g>
</g>
<!-- Node24 -->
<g id="Node000024" class="node">
<title>Node24</title>
<g id="a_Node000024"><a xlink:href="camera_8h.html" target="_top" xlink:title=" ">
<polygon fill="white" stroke="#666666" points="1343,-305 1281,-305 1281,-286 1343,-286 1343,-305"/>
<text text-anchor="middle" x="1312" y="-293" font-family="Helvetica,sans-Serif" font-size="10.00">camera.h</text>
</a>
</g>
</g>
<!-- Node1&#45;&gt;Node24 -->
<g id="edge23_Node000001_Node000024" class="edge">
<title>Node1&#45;&gt;Node24</title>
<g id="a_edge23_Node000001_Node000024"><a xlink:title=" ">
<path fill="none" stroke="#63b8ff" d="M1516.37,-404.03C1470.1,-401.16 1404.76,-391.2 1357,-360 1339.91,-348.83 1327.31,-328.72 1319.86,-314.12"/>
<polygon fill="#63b8ff" stroke="#63b8ff" points="1323.01,-312.58 1315.53,-305.06 1316.69,-315.6 1323.01,-312.58"/>
</a>
</g>
</g>
<!-- Node25 -->
<g id="Node000025" class="node">
<title>Node25</title>
<g id="a_Node000025"><a xlink:href="math__util_8h.html" target="_top" xlink:title=" ">
<polygon fill="white" stroke="#666666" points="1450,-250 1340,-250 1340,-231 1450,-231 1450,-250"/>
<text text-anchor="middle" x="1395" y="-238" font-family="Helvetica,sans-Serif" font-size="10.00">../math/math_util.h</text>
</a>
</g>
</g>
<!-- Node1&#45;&gt;Node25 -->
<g id="edge28_Node000001_Node000025" class="edge">
<title>Node1&#45;&gt;Node25</title>
<g id="a_edge28_Node000001_Node000025"><a xlink:title=" ">
<path fill="none" stroke="#63b8ff" d="M1532.59,-395.96C1488.14,-384.12 1419.14,-357.9 1390,-305 1382.5,-291.38 1384.75,-273.56 1388.3,-260.27"/>
<polygon fill="#63b8ff" stroke="#63b8ff" points="1391.75,-260.95 1391.4,-250.36 1385.07,-258.85 1391.75,-260.95"/>
</a>
</g>
</g>
<!-- Node26 -->
<g id="Node000026" class="node">
<title>Node26</title>
<g id="a_Node000026"><a xlink:href="shader_8h.html" target="_top" xlink:title=" ">
<polygon fill="white" stroke="#666666" points="1574.5,-189.5 1495.5,-189.5 1495.5,-170.5 1574.5,-170.5 1574.5,-189.5"/>
<text text-anchor="middle" x="1535" y="-177.5" font-family="Helvetica,sans-Serif" font-size="10.00">../io/shader.h</text>
</a>
</g>
</g>
<!-- Node1&#45;&gt;Node26 -->
<g id="edge35_Node000001_Node000026" class="edge">
<title>Node1&#45;&gt;Node26</title>
<g id="a_edge35_Node000001_Node000026"><a xlink:title=" ">
<path fill="none" stroke="#63b8ff" d="M1516.24,-402.46C1466.05,-398.72 1392.01,-388.37 1334,-360 1300.91,-343.82 1287.11,-338.6 1272,-305 1256.31,-270.1 1283.43,-251.08 1316,-231 1381.75,-190.48 1411.05,-213.62 1486,-195 1489.41,-194.15 1492.94,-193.23 1496.47,-192.28"/>
<polygon fill="#63b8ff" stroke="#63b8ff" points="1497.62,-195.59 1506.33,-189.55 1495.76,-188.85 1497.62,-195.59"/>
</a>
</g>
</g>
<!-- Node27 -->
<g id="Node000027" class="node">
<title>Node27</title>
<g id="a_Node000027"><a xlink:href="render_8h.html" target="_top" xlink:title=" ">
<polygon fill="white" stroke="#666666" points="1696,-360 1640,-360 1640,-341 1696,-341 1696,-360"/>
<text text-anchor="middle" x="1668" y="-348" font-family="Helvetica,sans-Serif" font-size="10.00">render.h</text>
</a>
</g>
</g>
<!-- Node1&#45;&gt;Node27 -->
<g id="edge27_Node000001_Node000027" class="edge">
<title>Node1&#45;&gt;Node27</title>
<g id="a_edge27_Node000001_Node000027"><a xlink:title=" ">
<path fill="none" stroke="#63b8ff" d="M1588.26,-395.98C1603.13,-387.69 1625.98,-374.94 1643.42,-365.22"/>
<polygon fill="#63b8ff" stroke="#63b8ff" points="1645.43,-368.1 1652.46,-360.17 1642.02,-361.99 1645.43,-368.1"/>
</a>
</g>
</g>
<!-- Node28 -->
<g id="Node000028" class="node">
<title>Node28</title>
<g id="a_Node000028"><a xlink:href="model_8h.html" target="_top" xlink:title="Defines structures and functions for handling 3D models and their properties.">
<polygon fill="white" stroke="#666666" points="1649.5,-250 1572.5,-250 1572.5,-231 1649.5,-231 1649.5,-250"/>
<text text-anchor="middle" x="1611" y="-238" font-family="Helvetica,sans-Serif" font-size="10.00">../io/model.h</text>
</a>
</g>
</g>
<!-- Node1&#45;&gt;Node28 -->
<g id="edge29_Node000001_Node000028" class="edge">
<title>Node1&#45;&gt;Node28</title>
<g id="a_edge29_Node000001_Node000028"><a xlink:title=" ">
<path fill="none" stroke="#63b8ff" d="M1579.36,-395.84C1589.29,-382.75 1609.56,-357.7 1631,-341 1657.67,-320.22 1680.65,-334.01 1698,-305 1712.14,-281.35 1681.18,-263.89 1652.36,-253.33"/>
<polygon fill="#63b8ff" stroke="#63b8ff" points="1653.32,-249.96 1642.73,-250.01 1651.04,-256.58 1653.32,-249.96"/>
</a>
</g>
</g>
<!-- Node33 -->
<g id="Node000033" class="node">
<title>Node33</title>
<g id="a_Node000033"><a xlink:href="memory_8h.html" target="_top" xlink:title="Header file for memory management functions and structures.">
<polygon fill="white" stroke="#666666" points="1788,-360 1714,-360 1714,-341 1788,-341 1788,-360"/>
<text text-anchor="middle" x="1751" y="-348" font-family="Helvetica,sans-Serif" font-size="10.00">../memory.h</text>
</a>
</g>
</g>
<!-- Node1&#45;&gt;Node33 -->
<g id="edge36_Node000001_Node000033" class="edge">
<title>Node1&#45;&gt;Node33</title>
<g id="a_edge36_Node000001_Node000033"><a xlink:title=" ">
<path fill="none" stroke="#63b8ff" d="M1601.6,-395.98C1631.61,-387.05 1678.98,-372.94 1712.32,-363.02"/>
<polygon fill="#63b8ff" stroke="#63b8ff" points="1713.59,-366.29 1722.18,-360.08 1711.59,-359.58 1713.59,-366.29"/>
</a>
</g>
</g>
<!-- Node34 -->
<g id="Node000034" class="node">
<title>Node34</title>
<g id="a_Node000034"><a xlink:href="node_8h.html" target="_top" xlink:title=" ">
<polygon fill="white" stroke="#666666" points="1584,-360 1486,-360 1486,-341 1584,-341 1584,-360"/>
<text text-anchor="middle" x="1535" y="-348" font-family="Helvetica,sans-Serif" font-size="10.00">../storage/node.h</text>
</a>
</g>
</g>
<!-- Node1&#45;&gt;Node34 -->
<g id="edge37_Node000001_Node000034" class="edge">
<title>Node1&#45;&gt;Node34</title>
<g id="a_edge37_Node000001_Node000034"><a xlink:title=" ">
<path fill="none" stroke="#63b8ff" d="M1566.73,-395.75C1561.41,-388.34 1553.64,-377.5 1547.12,-368.41"/>
<polygon fill="#63b8ff" stroke="#63b8ff" points="1549.83,-366.18 1541.16,-360.09 1544.14,-370.26 1549.83,-366.18"/>
</a>
</g>
</g>
<!-- Node40 -->
<g id="Node000040" class="node">
<title>Node40</title>
<g id="a_Node000040"><a xlink:href="window_8h.html" target="_top" xlink:title=" ">
<polygon fill="white" stroke="#666666" points="1877.5,-360 1806.5,-360 1806.5,-341 1877.5,-341 1877.5,-360"/>
<text text-anchor="middle" x="1842" y="-348" font-family="Helvetica,sans-Serif" font-size="10.00">../window.h</text>
</a>
</g>
</g>
<!-- Node1&#45;&gt;Node40 -->
<g id="edge48_Node000001_Node000040" class="edge">
<title>Node1&#45;&gt;Node40</title>
<g id="a_edge48_Node000001_Node000040"><a xlink:title=" ">
<path fill="none" stroke="#63b8ff" d="M1616.22,-395.98C1665.54,-386.27 1745.88,-370.44 1796.24,-360.52"/>
<polygon fill="#63b8ff" stroke="#63b8ff" points="1797.07,-363.92 1806.2,-358.55 1795.71,-357.05 1797.07,-363.92"/>
</a>
</g>
</g>
<!-- Node41 -->
<g id="Node000041" class="node">
<title>Node41</title>
<g id="a_Node000041"><a xlink:href="settings_8h.html" target="_top" xlink:title=" ">
<polygon fill="white" stroke="#666666" points="1970,-360 1896,-360 1896,-341 1970,-341 1970,-360"/>
<text text-anchor="middle" x="1933" y="-348" font-family="Helvetica,sans-Serif" font-size="10.00">../settings.h</text>
</a>
</g>
</g>
<!-- Node1&#45;&gt;Node41 -->
<g id="edge49_Node000001_Node000041" class="edge">
<title>Node1&#45;&gt;Node41</title>
<g id="a_edge49_Node000001_Node000041"><a xlink:title=" ">
<path fill="none" stroke="#63b8ff" d="M1629.55,-397.21C1690.35,-389.21 1790.09,-375.62 1885.73,-360.15"/>
<polygon fill="#63b8ff" stroke="#63b8ff" points="1886.56,-363.56 1895.87,-358.5 1885.43,-356.65 1886.56,-363.56"/>
</a>
</g>
</g>
<!-- Node3 -->
<g id="Node000003" class="node">
<title>Node3</title>
<g id="a_Node000003"><a xlink:title=" ">
<polygon fill="#e0e0e0" stroke="#999999" points="1089,-189.5 1039,-189.5 1039,-170.5 1089,-170.5 1089,-189.5"/>
<text text-anchor="middle" x="1064" y="-177.5" font-family="Helvetica,sans-Serif" font-size="10.00">stdio.h</text>
</a>
</g>
</g>
<!-- Node2&#45;&gt;Node3 -->
<g id="edge2_Node000002_Node000003" class="edge">
<title>Node2&#45;&gt;Node3</title>
<g id="a_edge2_Node000002_Node000003"><a xlink:title=" ">
<path fill="none" stroke="#63b8ff" d="M933.32,-230.96C957.35,-222.11 995.88,-207.81 1029,-195 1030.41,-194.45 1031.85,-193.89 1033.31,-193.32"/>
<polygon fill="#63b8ff" stroke="#63b8ff" points="1034.92,-196.45 1042.93,-189.52 1032.34,-189.94 1034.92,-196.45"/>
</a>
</g>
</g>
<!-- Node4 -->
<g id="Node000004" class="node">
<title>Node4</title>
<g id="a_Node000004"><a xlink:title=" ">
<polygon fill="#e0e0e0" stroke="#999999" points="1160.5,-189.5 1107.5,-189.5 1107.5,-170.5 1160.5,-170.5 1160.5,-189.5"/>
<text text-anchor="middle" x="1134" y="-177.5" font-family="Helvetica,sans-Serif" font-size="10.00">stdint.h</text>
</a>
</g>
</g>
<!-- Node2&#45;&gt;Node4 -->
<g id="edge3_Node000002_Node000004" class="edge">
<title>Node2&#45;&gt;Node4</title>
<g id="a_edge3_Node000002_Node000004"><a xlink:title=" ">
<path fill="none" stroke="#63b8ff" d="M950.78,-231.55C989.16,-223.67 1048.04,-210.55 1098,-195 1099.87,-194.42 1101.79,-193.78 1103.71,-193.12"/>
<polygon fill="#63b8ff" stroke="#63b8ff" points="1105.04,-196.36 1113.23,-189.64 1102.64,-189.79 1105.04,-196.36"/>
</a>
</g>
</g>
<!-- Node5 -->
<g id="Node000005" class="node">
<title>Node5</title>
<g id="a_Node000005"><a xlink:title=" ">
<polygon fill="#e0e0e0" stroke="#999999" points="1241,-189.5 1179,-189.5 1179,-170.5 1241,-170.5 1241,-189.5"/>
<text text-anchor="middle" x="1210" y="-177.5" font-family="Helvetica,sans-Serif" font-size="10.00">stdbool.h</text>
</a>
</g>
</g>
<!-- Node2&#45;&gt;Node5 -->
<g id="edge4_Node000002_Node000005" class="edge">
<title>Node2&#45;&gt;Node5</title>
<g id="a_edge4_Node000002_Node000005"><a xlink:title=" ">
<path fill="none" stroke="#63b8ff" d="M950.8,-234.53C1002.18,-227.81 1092.96,-214.38 1169,-195 1171.64,-194.33 1174.36,-193.56 1177.07,-192.75"/>
<polygon fill="#63b8ff" stroke="#63b8ff" points="1178.32,-196.03 1186.78,-189.65 1176.19,-189.36 1178.32,-196.03"/>
</a>
</g>
</g>
<!-- Node6 -->
<g id="Node000006" class="node">
<title>Node6</title>
<g id="a_Node000006"><a xlink:title=" ">
<polygon fill="#e0e0e0" stroke="#999999" points="1315,-189.5 1259,-189.5 1259,-170.5 1315,-170.5 1315,-189.5"/>
<text text-anchor="middle" x="1287" y="-177.5" font-family="Helvetica,sans-Serif" font-size="10.00">stdarg.h</text>
</a>
</g>
</g>
<!-- Node2&#45;&gt;Node6 -->
<g id="edge5_Node000002_Node000006" class="edge">
<title>Node2&#45;&gt;Node6</title>
<g id="a_edge5_Node000002_Node000006"><a xlink:title=" ">
<path fill="none" stroke="#63b8ff" d="M950.61,-237.23C1014.95,-232.96 1143.9,-221.63 1250,-195 1252.45,-194.39 1254.96,-193.66 1257.46,-192.87"/>
<polygon fill="#63b8ff" stroke="#63b8ff" points="1258.63,-196.16 1266.91,-189.57 1256.32,-189.55 1258.63,-196.16"/>
</a>
</g>
</g>
<!-- Node7 -->
<g id="Node000007" class="node">
<title>Node7</title>
<g id="a_Node000007"><a xlink:title=" ">
<polygon fill="#e0e0e0" stroke="#999999" points="1386.5,-189.5 1333.5,-189.5 1333.5,-170.5 1386.5,-170.5 1386.5,-189.5"/>
<text text-anchor="middle" x="1360" y="-177.5" font-family="Helvetica,sans-Serif" font-size="10.00">limits.h</text>
</a>
</g>
</g>
<!-- Node2&#45;&gt;Node7 -->
<g id="edge6_Node000002_Node000007" class="edge">
<title>Node2&#45;&gt;Node7</title>
<g id="a_edge6_Node000002_Node000007"><a xlink:title=" ">
<path fill="none" stroke="#63b8ff" d="M950.57,-238.67C1025.42,-236.37 1189.85,-227.68 1324,-195 1326.36,-194.42 1328.78,-193.73 1331.19,-192.96"/>
<polygon fill="#63b8ff" stroke="#63b8ff" points="1332.62,-196.17 1340.87,-189.52 1330.28,-189.57 1332.62,-196.17"/>
</a>
</g>
</g>
<!-- Node8 -->
<g id="Node000008" class="node">
<title>Node8</title>
<g id="a_Node000008"><a xlink:title=" ">
<polygon fill="#e0e0e0" stroke="#999999" points="1477,-189.5 1405,-189.5 1405,-170.5 1477,-170.5 1477,-189.5"/>
<text text-anchor="middle" x="1441" y="-177.5" font-family="Helvetica,sans-Serif" font-size="10.00">SDL2/SDL.h</text>
</a>
</g>
</g>
<!-- Node2&#45;&gt;Node8 -->
<g id="edge7_Node000002_Node000008" class="edge">
<title>Node2&#45;&gt;Node8</title>
<g id="a_edge7_Node000002_Node000008"><a xlink:title=" ">
<path fill="none" stroke="#63b8ff" d="M950.64,-238.56C1034.47,-236.02 1232.36,-226.86 1395,-195 1398.66,-194.28 1402.43,-193.39 1406.18,-192.41"/>
<polygon fill="#63b8ff" stroke="#63b8ff" points="1407.26,-195.74 1415.93,-189.64 1405.35,-189.01 1407.26,-195.74"/>
</a>
</g>
</g>
<!-- Node9 -->
<g id="Node000009" class="node">
<title>Node9</title>
<g id="a_Node000009"><a xlink:title=" ">
<polygon fill="#e0e0e0" stroke="#999999" points="108,-189.5 0,-189.5 0,-170.5 108,-170.5 108,-189.5"/>
<text text-anchor="middle" x="54" y="-177.5" font-family="Helvetica,sans-Serif" font-size="10.00">SDL2/SDL_image.h</text>
</a>
</g>
</g>
<!-- Node2&#45;&gt;Node9 -->
<g id="edge8_Node000002_Node000009" class="edge">
<title>Node2&#45;&gt;Node9</title>
<g id="a_edge8_Node000002_Node000009"><a xlink:title=" ">
<path fill="none" stroke="#63b8ff" d="M869.34,-239.54C752.04,-239.17 403.16,-234.56 117,-195 110.66,-194.12 104.02,-192.94 97.52,-191.64"/>
<polygon fill="#63b8ff" stroke="#63b8ff" points="98,-188.16 87.49,-189.5 96.55,-195.01 98,-188.16"/>
</a>
</g>
</g>
<!-- Node10 -->
<g id="Node000010" class="node">
<title>Node10</title>
<g id="a_Node000010"><a xlink:title=" ">
<polygon fill="#e0e0e0" stroke="#999999" points="236,-189.5 126,-189.5 126,-170.5 236,-170.5 236,-189.5"/>
<text text-anchor="middle" x="181" y="-177.5" font-family="Helvetica,sans-Serif" font-size="10.00">SDL2/SDL_opengl.h</text>
</a>
</g>
</g>
<!-- Node2&#45;&gt;Node10 -->
<g id="edge9_Node000002_Node000010" class="edge">
<title>Node2&#45;&gt;Node10</title>
<g id="a_edge9_Node000002_Node000010"><a xlink:title=" ">
<path fill="none" stroke="#63b8ff" d="M869.3,-238.88C765,-236.83 479.85,-228.36 245,-195 238.64,-194.1 231.98,-192.91 225.45,-191.61"/>
<polygon fill="#63b8ff" stroke="#63b8ff" points="225.88,-188.13 215.37,-189.5 224.44,-194.98 225.88,-188.13"/>
</a>
</g>
</g>
<!-- Node11 -->
<g id="Node000011" class="node">
<title>Node11</title>
<g id="a_Node000011"><a xlink:title=" ">
<polygon fill="#e0e0e0" stroke="#999999" points="358,-189.5 254,-189.5 254,-170.5 358,-170.5 358,-189.5"/>
<text text-anchor="middle" x="306" y="-177.5" font-family="Helvetica,sans-Serif" font-size="10.00">SDL2/SDL_mixer.h</text>
</a>
</g>
</g>
<!-- Node2&#45;&gt;Node11 -->
<g id="edge10_Node000002_Node000011" class="edge">
<title>Node2&#45;&gt;Node11</title>
<g id="a_edge10_Node000002_Node000011"><a xlink:title=" ">
<path fill="none" stroke="#63b8ff" d="M869.24,-238.16C778.51,-234.75 553.24,-223.85 367,-195 361.15,-194.09 355.03,-192.94 349.02,-191.69"/>
<polygon fill="#63b8ff" stroke="#63b8ff" points="349.59,-188.23 339.07,-189.5 348.09,-195.06 349.59,-188.23"/>
</a>
</g>
</g>
<!-- Node12 -->
<g id="Node000012" class="node">
<title>Node12</title>
<g id="a_Node000012"><a xlink:title=" ">
<polygon fill="#e0e0e0" stroke="#999999" points="464,-189.5 376,-189.5 376,-170.5 464,-170.5 464,-189.5"/>
<text text-anchor="middle" x="420" y="-177.5" font-family="Helvetica,sans-Serif" font-size="10.00">SDL2/SDL_ttf.h</text>
</a>
</g>
</g>
<!-- Node2&#45;&gt;Node12 -->
<g id="edge11_Node000002_Node000012" class="edge">
<title>Node2&#45;&gt;Node12</title>
<g id="a_edge11_Node000002_Node000012"><a xlink:title=" ">
<path fill="none" stroke="#63b8ff" d="M869.34,-237.49C791.75,-233.19 617.43,-221.26 473,-195 468.45,-194.17 463.72,-193.16 459.05,-192.05"/>
<polygon fill="#63b8ff" stroke="#63b8ff" points="459.52,-188.56 448.97,-189.53 457.83,-195.35 459.52,-188.56"/>
</a>
</g>
</g>
<!-- Node13 -->
<g id="Node000013" class="node">
<title>Node13</title>
<g id="a_Node000013"><a xlink:title=" ">
<polygon fill="#e0e0e0" stroke="#999999" points="532,-189.5 482,-189.5 482,-170.5 532,-170.5 532,-189.5"/>
<text text-anchor="middle" x="507" y="-177.5" font-family="Helvetica,sans-Serif" font-size="10.00">GL/gl.h</text>
</a>
</g>
</g>
<!-- Node2&#45;&gt;Node13 -->
<g id="edge12_Node000002_Node000013" class="edge">
<title>Node2&#45;&gt;Node13</title>
<g id="a_edge12_Node000002_Node000013"><a xlink:title=" ">
<path fill="none" stroke="#63b8ff" d="M869.48,-238.19C800.83,-235.17 657.75,-225.47 541,-195 539.05,-194.49 537.07,-193.9 535.09,-193.24"/>
<polygon fill="#63b8ff" stroke="#63b8ff" points="535.99,-189.84 525.39,-189.63 533.54,-196.4 535.99,-189.84"/>
</a>
</g>
</g>
<!-- Node14 -->
<g id="Node000014" class="node">
<title>Node14</title>
<g id="a_Node000014"><a xlink:title=" ">
<polygon fill="#e0e0e0" stroke="#999999" points="606,-189.5 550,-189.5 550,-170.5 606,-170.5 606,-189.5"/>
<text text-anchor="middle" x="578" y="-177.5" font-family="Helvetica,sans-Serif" font-size="10.00">GL/glu.h</text>
</a>
</g>
</g>
<!-- Node2&#45;&gt;Node14 -->
<g id="edge13_Node000002_Node000014" class="edge">
<title>Node2&#45;&gt;Node14</title>
<g id="a_edge13_Node000002_Node000014"><a xlink:title=" ">
<path fill="none" stroke="#63b8ff" d="M869.37,-236.12C811.97,-230.72 704.2,-218.32 615,-195 612.7,-194.4 610.35,-193.7 608,-192.95"/>
<polygon fill="#63b8ff" stroke="#63b8ff" points="609.09,-189.63 598.49,-189.64 606.78,-196.24 609.09,-189.63"/>
</a>
</g>
</g>
<!-- Node15 -->
<g id="Node000015" class="node">
<title>Node15</title>
<g id="a_Node000015"><a xlink:title=" ">
<polygon fill="#e0e0e0" stroke="#999999" points="690,-189.5 624,-189.5 624,-170.5 690,-170.5 690,-189.5"/>
<text text-anchor="middle" x="657" y="-177.5" font-family="Helvetica,sans-Serif" font-size="10.00">GL/glext.h</text>
</a>
</g>
</g>
<!-- Node2&#45;&gt;Node15 -->
<g id="edge14_Node000002_Node000015" class="edge">
<title>Node2&#45;&gt;Node15</title>
<g id="a_edge14_Node000002_Node000015"><a xlink:title=" ">
<path fill="none" stroke="#63b8ff" d="M869.22,-232.33C826.48,-224.48 757.54,-210.87 699,-195 696.38,-194.29 693.68,-193.51 690.98,-192.69"/>
<polygon fill="#63b8ff" stroke="#63b8ff" points="691.88,-189.3 681.29,-189.62 689.76,-195.98 691.88,-189.3"/>
</a>
</g>
</g>
<!-- Node16 -->
<g id="Node000016" class="node">
<title>Node16</title>
<g id="a_Node000016"><a xlink:title=" ">
<polygon fill="#e0e0e0" stroke="#999999" points="785.5,-189.5 708.5,-189.5 708.5,-170.5 785.5,-170.5 785.5,-189.5"/>
<text text-anchor="middle" x="747" y="-177.5" font-family="Helvetica,sans-Serif" font-size="10.00">cglm/cglm.h</text>
</a>
</g>
</g>
<!-- Node2&#45;&gt;Node16 -->
<g id="edge15_Node000002_Node000016" class="edge">
<title>Node2&#45;&gt;Node16</title>
<g id="a_edge15_Node000002_Node000016"><a xlink:title=" ">
<path fill="none" stroke="#63b8ff" d="M886.3,-230.99C858.41,-220.99 811.93,-204.3 780.4,-192.99"/>
<polygon fill="#63b8ff" stroke="#63b8ff" points="781.32,-189.6 770.73,-189.52 778.96,-196.19 781.32,-189.6"/>
</a>
</g>
</g>
<!-- Node17 -->
<g id="Node000017" class="node">
<title>Node17</title>
<g id="a_Node000017"><a xlink:title=" ">
<polygon fill="#e0e0e0" stroke="#999999" points="854.5,-189.5 803.5,-189.5 803.5,-170.5 854.5,-170.5 854.5,-189.5"/>
<text text-anchor="middle" x="829" y="-177.5" font-family="Helvetica,sans-Serif" font-size="10.00">math.h</text>
</a>
</g>
</g>
<!-- Node2&#45;&gt;Node17 -->
<g id="edge16_Node000002_Node000017" class="edge">
<title>Node2&#45;&gt;Node17</title>
<g id="a_edge16_Node000002_Node000017"><a xlink:title=" ">
<path fill="none" stroke="#63b8ff" d="M898.05,-230.87C885.25,-221.62 864.7,-206.78 849.35,-195.69"/>
<polygon fill="#63b8ff" stroke="#63b8ff" points="851.16,-192.68 841,-189.67 847.06,-198.36 851.16,-192.68"/>
</a>
</g>
</g>
<!-- Node18 -->
<g id="Node000018" class="node">
<title>Node18</title>
<g id="a_Node000018"><a xlink:href="stringio_8h.html" target="_top" xlink:title="Provides utility functions for string and file operations.">
<polygon fill="white" stroke="#666666" points="947,-189.5 873,-189.5 873,-170.5 947,-170.5 947,-189.5"/>
<text text-anchor="middle" x="910" y="-177.5" font-family="Helvetica,sans-Serif" font-size="10.00">io/stringio.h</text>
</a>
</g>
</g>
<!-- Node2&#45;&gt;Node18 -->
<g id="edge17_Node000002_Node000018" class="edge">
<title>Node2&#45;&gt;Node18</title>
<g id="a_edge17_Node000002_Node000018"><a xlink:title=" ">
<path fill="none" stroke="#63b8ff" d="M910,-230.87C910,-222.75 910,-210.31 910,-199.89"/>
<polygon fill="#63b8ff" stroke="#63b8ff" points="913.5,-199.67 910,-189.67 906.5,-199.67 913.5,-199.67"/>
</a>
</g>
</g>
<!-- Node20 -->
<g id="Node000020" class="node">
<title>Node20</title>
<g id="a_Node000020"><a xlink:href="config_8h.html" target="_top" xlink:title=" ">
<polygon fill="white" stroke="#666666" points="1020.5,-189.5 965.5,-189.5 965.5,-170.5 1020.5,-170.5 1020.5,-189.5"/>
<text text-anchor="middle" x="993" y="-177.5" font-family="Helvetica,sans-Serif" font-size="10.00">config.h</text>
</a>
</g>
</g>
<!-- Node2&#45;&gt;Node20 -->
<g id="edge19_Node000002_Node000020" class="edge">
<title>Node2&#45;&gt;Node20</title>
<g id="a_edge19_Node000002_Node000020"><a xlink:title=" ">
<path fill="none" stroke="#63b8ff" d="M922.25,-230.87C935.36,-221.62 956.42,-206.78 972.15,-195.69"/>
<polygon fill="#63b8ff" stroke="#63b8ff" points="974.55,-198.29 980.7,-189.67 970.51,-192.57 974.55,-198.29"/>
</a>
</g>
</g>
<!-- Node19 -->
<g id="Node000019" class="node">
<title>Node19</title>
<g id="a_Node000019"><a xlink:title=" ">
<polygon fill="#e0e0e0" stroke="#999999" points="936.5,-129 883.5,-129 883.5,-110 936.5,-110 936.5,-129"/>
<text text-anchor="middle" x="910" y="-117" font-family="Helvetica,sans-Serif" font-size="10.00">string.h</text>
</a>
</g>
</g>
<!-- Node18&#45;&gt;Node19 -->
<g id="edge18_Node000018_Node000019" class="edge">
<title>Node18&#45;&gt;Node19</title>
<g id="a_edge18_Node000018_Node000019"><a xlink:title=" ">
<path fill="none" stroke="#63b8ff" d="M910,-170.37C910,-162.25 910,-149.81 910,-139.39"/>
<polygon fill="#63b8ff" stroke="#63b8ff" points="913.5,-139.17 910,-129.17 906.5,-139.17 913.5,-139.17"/>
</a>
</g>
</g>
<!-- Node21 -->
<g id="Node000021" class="node">
<title>Node21</title>
<g id="a_Node000021"><a xlink:href="term_8h.html" target="_top" xlink:title=" ">
<polygon fill="white" stroke="#666666" points="1030.5,-129 955.5,-129 955.5,-110 1030.5,-110 1030.5,-129"/>
<text text-anchor="middle" x="993" y="-117" font-family="Helvetica,sans-Serif" font-size="10.00">term/term.h</text>
</a>
</g>
</g>
<!-- Node20&#45;&gt;Node21 -->
<g id="edge20_Node000020_Node000021" class="edge">
<title>Node20&#45;&gt;Node21</title>
<g id="a_edge20_Node000020_Node000021"><a xlink:title=" ">
<path fill="none" stroke="#63b8ff" d="M993,-170.37C993,-162.25 993,-149.81 993,-139.39"/>
<polygon fill="#63b8ff" stroke="#63b8ff" points="996.5,-139.17 993,-129.17 989.5,-139.17 996.5,-139.17"/>
</a>
</g>
</g>
<!-- Node22 -->
<g id="Node000022" class="node">
<title>Node22</title>
<g id="a_Node000022"><a xlink:href="enhanced__print_8h.html" target="_top" xlink:title=" ">
<polygon fill="white" stroke="#666666" points="1043.5,-74 942.5,-74 942.5,-55 1043.5,-55 1043.5,-74"/>
<text text-anchor="middle" x="993" y="-62" font-family="Helvetica,sans-Serif" font-size="10.00">enhanced_print.h</text>
</a>
</g>
</g>
<!-- Node21&#45;&gt;Node22 -->
<g id="edge21_Node000021_Node000022" class="edge">
<title>Node21&#45;&gt;Node22</title>
<g id="a_edge21_Node000021_Node000022"><a xlink:title=" ">
<path fill="none" stroke="#63b8ff" d="M993,-109.75C993,-102.8 993,-92.85 993,-84.13"/>
<polygon fill="#63b8ff" stroke="#63b8ff" points="996.5,-84.09 993,-74.09 989.5,-84.09 996.5,-84.09"/>
</a>
</g>
</g>
<!-- Node23 -->
<g id="Node000023" class="node">
<title>Node23</title>
<g id="a_Node000023"><a xlink:href="color_8h.html" target="_top" xlink:title=" ">
<polygon fill="white" stroke="#666666" points="1017.5,-19 968.5,-19 968.5,0 1017.5,0 1017.5,-19"/>
<text text-anchor="middle" x="993" y="-7" font-family="Helvetica,sans-Serif" font-size="10.00">color.h</text>
</a>
</g>
</g>
<!-- Node22&#45;&gt;Node23 -->
<g id="edge22_Node000022_Node000023" class="edge">
<title>Node22&#45;&gt;Node23</title>
<g id="a_edge22_Node000022_Node000023"><a xlink:title=" ">
<path fill="none" stroke="#63b8ff" d="M993,-54.75C993,-47.8 993,-37.85 993,-29.13"/>
<polygon fill="#63b8ff" stroke="#63b8ff" points="996.5,-29.09 993,-19.09 989.5,-29.09 996.5,-29.09"/>
</a>
</g>
</g>
<!-- Node24&#45;&gt;Node2 -->
<g id="edge24_Node000024_Node000002" class="edge">
<title>Node24&#45;&gt;Node2</title>
<g id="a_edge24_Node000024_Node000002"><a xlink:title=" ">
<path fill="none" stroke="#63b8ff" d="M1280.79,-290.39C1211.64,-281.27 1044.98,-259.3 960.67,-248.18"/>
<polygon fill="#63b8ff" stroke="#63b8ff" points="960.93,-244.68 950.56,-246.85 960.02,-251.62 960.93,-244.68"/>
</a>
</g>
</g>
<!-- Node24&#45;&gt;Node25 -->
<g id="edge25_Node000024_Node000025" class="edge">
<title>Node24&#45;&gt;Node25</title>
<g id="a_edge25_Node000024_Node000025"><a xlink:title=" ">
<path fill="none" stroke="#63b8ff" d="M1325.34,-285.98C1338.09,-277.84 1357.55,-265.41 1372.67,-255.76"/>
<polygon fill="#63b8ff" stroke="#63b8ff" points="1374.88,-258.5 1381.42,-250.17 1371.11,-252.6 1374.88,-258.5"/>
</a>
</g>
</g>
<!-- Node24&#45;&gt;Node26 -->
<g id="edge26_Node000024_Node000026" class="edge">
<title>Node24&#45;&gt;Node26</title>
<g id="a_edge26_Node000024_Node000026"><a xlink:title=" ">
<path fill="none" stroke="#63b8ff" d="M1312,-285.7C1312.5,-271.96 1315.57,-245.5 1331,-231 1382.55,-182.58 1417.53,-212.72 1486,-195 1489.36,-194.13 1492.83,-193.2 1496.32,-192.25"/>
<polygon fill="#63b8ff" stroke="#63b8ff" points="1497.35,-195.59 1506.05,-189.53 1495.47,-188.85 1497.35,-195.59"/>
</a>
</g>
</g>
<!-- Node28&#45;&gt;Node26 -->
<g id="edge30_Node000028_Node000026" class="edge">
<title>Node28&#45;&gt;Node26</title>
<g id="a_edge30_Node000028_Node000026"><a xlink:title=" ">
<path fill="none" stroke="#63b8ff" d="M1599.79,-230.87C1587.89,-221.71 1568.86,-207.06 1554.49,-196.01"/>
<polygon fill="#63b8ff" stroke="#63b8ff" points="1556.32,-192.99 1546.26,-189.67 1552.05,-198.54 1556.32,-192.99"/>
</a>
</g>
</g>
<!-- Node29 -->
<g id="Node000029" class="node">
<title>Node29</title>
<g id="a_Node000029"><a xlink:href="model__loader_8h.html" target="_top" xlink:title=" ">
<polygon fill="white" stroke="#666666" points="1715,-195 1593,-195 1593,-165 1715,-165 1715,-195"/>
<text text-anchor="start" x="1601" y="-183" font-family="Helvetica,sans-Serif" font-size="10.00">model_loaders/model</text>
<text text-anchor="middle" x="1654" y="-172" font-family="Helvetica,sans-Serif" font-size="10.00">_loader.h</text>
</a>
</g>
</g>
<!-- Node28&#45;&gt;Node29 -->
<g id="edge31_Node000028_Node000029" class="edge">
<title>Node28&#45;&gt;Node29</title>
<g id="a_edge31_Node000028_Node000029"><a xlink:title=" ">
<path fill="none" stroke="#63b8ff" d="M1617.34,-230.87C1622.69,-223.59 1630.59,-212.85 1637.68,-203.2"/>
<polygon fill="#63b8ff" stroke="#63b8ff" points="1640.52,-205.25 1643.63,-195.11 1634.88,-201.1 1640.52,-205.25"/>
</a>
</g>
</g>
<!-- Node30 -->
<g id="Node000030" class="node">
<title>Node30</title>
<g id="a_Node000030"><a xlink:href="obj__loader_8h.html" target="_top" xlink:title=" ">
<polygon fill="white" stroke="#666666" points="1597,-129 1521,-129 1521,-110 1597,-110 1597,-129"/>
<text text-anchor="middle" x="1559" y="-117" font-family="Helvetica,sans-Serif" font-size="10.00">obj_loader.h</text>
</a>
</g>
</g>
<!-- Node29&#45;&gt;Node30 -->
<g id="edge32_Node000029_Node000030" class="edge">
<title>Node29&#45;&gt;Node30</title>
<g id="a_edge32_Node000029_Node000030"><a xlink:title=" ">
<path fill="none" stroke="#63b8ff" d="M1631,-164.84C1616,-155.6 1596.5,-143.59 1581.57,-134.4"/>
<polygon fill="#63b8ff" stroke="#63b8ff" points="1583.31,-131.36 1572.96,-129.09 1579.64,-137.32 1583.31,-131.36"/>
</a>
</g>
</g>
<!-- Node31 -->
<g id="Node000031" class="node">
<title>Node31</title>
<g id="a_Node000031"><a xlink:href="mtl__loader_8h.html" target="_top" xlink:title=" ">
<polygon fill="white" stroke="#666666" points="1692.5,-129 1615.5,-129 1615.5,-110 1692.5,-110 1692.5,-129"/>
<text text-anchor="middle" x="1654" y="-117" font-family="Helvetica,sans-Serif" font-size="10.00">mtl_loader.h</text>
</a>
</g>
</g>
<!-- Node29&#45;&gt;Node31 -->
<g id="edge33_Node000029_Node000031" class="edge">
<title>Node29&#45;&gt;Node31</title>
<g id="a_edge33_Node000029_Node000031"><a xlink:title=" ">
<path fill="none" stroke="#63b8ff" d="M1654,-164.84C1654,-157.21 1654,-147.7 1654,-139.45"/>
<polygon fill="#63b8ff" stroke="#63b8ff" points="1657.5,-139.27 1654,-129.27 1650.5,-139.27 1657.5,-139.27"/>
</a>
</g>
</g>
<!-- Node32 -->
<g id="Node000032" class="node">
<title>Node32</title>
<g id="a_Node000032"><a xlink:href="fbx__loader_8h.html" target="_top" xlink:title=" ">
<polygon fill="white" stroke="#666666" points="1787.5,-129 1710.5,-129 1710.5,-110 1787.5,-110 1787.5,-129"/>
<text text-anchor="middle" x="1749" y="-117" font-family="Helvetica,sans-Serif" font-size="10.00">fbx_loader.h</text>
</a>
</g>
</g>
<!-- Node29&#45;&gt;Node32 -->
<g id="edge34_Node000029_Node000032" class="edge">
<title>Node29&#45;&gt;Node32</title>
<g id="a_edge34_Node000029_Node000032"><a xlink:title=" ">
<path fill="none" stroke="#63b8ff" d="M1677,-164.84C1692,-155.6 1711.5,-143.59 1726.43,-134.4"/>
<polygon fill="#63b8ff" stroke="#63b8ff" points="1728.36,-137.32 1735.04,-129.09 1724.69,-131.36 1728.36,-137.32"/>
</a>
</g>
</g>
<!-- Node34&#45;&gt;Node24 -->
<g id="edge39_Node000034_Node000024" class="edge">
<title>Node34&#45;&gt;Node24</title>
<g id="a_edge39_Node000034_Node000024"><a xlink:title=" ">
<path fill="none" stroke="#63b8ff" d="M1499.17,-340.98C1459.25,-331.5 1394.82,-316.18 1352.94,-306.23"/>
<polygon fill="#63b8ff" stroke="#63b8ff" points="1353.6,-302.79 1343.06,-303.88 1351.98,-309.6 1353.6,-302.79"/>
</a>
</g>
</g>
<!-- Node34&#45;&gt;Node26 -->
<g id="edge38_Node000034_Node000026" class="edge">
<title>Node34&#45;&gt;Node26</title>
<g id="a_edge38_Node000034_Node000026"><a xlink:title=" ">
<path fill="none" stroke="#63b8ff" d="M1535,-340.91C1535,-314.89 1535,-236.47 1535,-200.01"/>
<polygon fill="#63b8ff" stroke="#63b8ff" points="1538.5,-199.77 1535,-189.77 1531.5,-199.77 1538.5,-199.77"/>
</a>
</g>
</g>
<!-- Node35 -->
<g id="Node000035" class="node">
<title>Node35</title>
<g id="a_Node000035"><a xlink:href="bodies_8h.html" target="_top" xlink:title=" ">
<polygon fill="white" stroke="#666666" points="1506.5,-305 1399.5,-305 1399.5,-286 1506.5,-286 1506.5,-305"/>
<text text-anchor="middle" x="1453" y="-293" font-family="Helvetica,sans-Serif" font-size="10.00">../physics/bodies.h</text>
</a>
</g>
</g>
<!-- Node34&#45;&gt;Node35 -->
<g id="edge40_Node000034_Node000035" class="edge">
<title>Node34&#45;&gt;Node35</title>
<g id="a_edge40_Node000034_Node000035"><a xlink:title=" ">
<path fill="none" stroke="#63b8ff" d="M1521.83,-340.98C1509.23,-332.84 1490,-320.41 1475.06,-310.76"/>
<polygon fill="#63b8ff" stroke="#63b8ff" points="1476.71,-307.66 1466.41,-305.17 1472.91,-313.54 1476.71,-307.66"/>
</a>
</g>
</g>
<!-- Node36 -->
<g id="Node000036" class="node">
<title>Node36</title>
<g id="a_Node000036"><a xlink:href="scripts_8h.html" target="_top" xlink:title=" ">
<polygon fill="white" stroke="#666666" points="1847,-305 1745,-305 1745,-286 1847,-286 1847,-305"/>
<text text-anchor="middle" x="1796" y="-293" font-family="Helvetica,sans-Serif" font-size="10.00">../scripts/scripts.h</text>
</a>
</g>
</g>
<!-- Node34&#45;&gt;Node36 -->
<g id="edge43_Node000034_Node000036" class="edge">
<title>Node34&#45;&gt;Node36</title>
<g id="a_edge43_Node000034_Node000036"><a xlink:title=" ">
<path fill="none" stroke="#63b8ff" d="M1576.93,-340.98C1622.27,-331.78 1694.61,-317.09 1743.65,-307.13"/>
<polygon fill="#63b8ff" stroke="#63b8ff" points="1744.63,-310.5 1753.74,-305.08 1743.24,-303.64 1744.63,-310.5"/>
</a>
</g>
</g>
<!-- Node39 -->
<g id="Node000039" class="node">
<title>Node39</title>
<g id="a_Node000039"><a xlink:href="framebuffer_8h.html" target="_top" xlink:title=" ">
<polygon fill="white" stroke="#666666" points="1689,-305 1563,-305 1563,-286 1689,-286 1689,-305"/>
<text text-anchor="middle" x="1626" y="-293" font-family="Helvetica,sans-Serif" font-size="10.00">../render/framebuffer.h</text>
</a>
</g>
</g>
<!-- Node34&#45;&gt;Node39 -->
<g id="edge46_Node000034_Node000039" class="edge">
<title>Node34&#45;&gt;Node39</title>
<g id="a_edge46_Node000034_Node000039"><a xlink:title=" ">
<path fill="none" stroke="#63b8ff" d="M1549.62,-340.98C1563.86,-332.69 1585.75,-319.94 1602.45,-310.22"/>
<polygon fill="#63b8ff" stroke="#63b8ff" points="1604.23,-313.23 1611.11,-305.17 1600.71,-307.18 1604.23,-313.23"/>
</a>
</g>
</g>
<!-- Node35&#45;&gt;Node25 -->
<g id="edge41_Node000035_Node000025" class="edge">
<title>Node35&#45;&gt;Node25</title>
<g id="a_edge41_Node000035_Node000025"><a xlink:title=" ">
<path fill="none" stroke="#63b8ff" d="M1443.68,-285.98C1435.19,-278.23 1422.44,-266.58 1412.12,-257.14"/>
<polygon fill="#63b8ff" stroke="#63b8ff" points="1414.23,-254.33 1404.49,-250.17 1409.51,-259.5 1414.23,-254.33"/>
</a>
</g>
</g>
<!-- Node35&#45;&gt;Node28 -->
<g id="edge42_Node000035_Node000028" class="edge">
<title>Node35&#45;&gt;Node28</title>
<g id="a_edge42_Node000035_Node000028"><a xlink:title=" ">
<path fill="none" stroke="#63b8ff" d="M1478.39,-285.98C1504.8,-277.13 1546.35,-263.19 1575.89,-253.28"/>
<polygon fill="#63b8ff" stroke="#63b8ff" points="1577.05,-256.58 1585.42,-250.08 1574.82,-249.94 1577.05,-256.58"/>
</a>
</g>
</g>
<!-- Node37 -->
<g id="Node000037" class="node">
<title>Node37</title>
<g id="a_Node000037"><a xlink:href="input_8h.html" target="_top" xlink:title=" ">
<polygon fill="white" stroke="#666666" points="1743.5,-250 1672.5,-250 1672.5,-231 1743.5,-231 1743.5,-250"/>
<text text-anchor="middle" x="1708" y="-238" font-family="Helvetica,sans-Serif" font-size="10.00">../io/input.h</text>
</a>
</g>
</g>
<!-- Node36&#45;&gt;Node37 -->
<g id="edge44_Node000036_Node000037" class="edge">
<title>Node36&#45;&gt;Node37</title>
<g id="a_edge44_Node000036_Node000037"><a xlink:title=" ">
<path fill="none" stroke="#63b8ff" d="M1781.86,-285.98C1768.21,-277.77 1747.31,-265.18 1731.22,-255.49"/>
<polygon fill="#63b8ff" stroke="#63b8ff" points="1732.77,-252.33 1722.4,-250.17 1729.16,-258.33 1732.77,-252.33"/>
</a>
</g>
</g>
<!-- Node38 -->
<g id="Node000038" class="node">
<title>Node38</title>
<g id="a_Node000038"><a xlink:href="signals_8h.html" target="_top" xlink:title="Signal and slot system for C projects.">
<polygon fill="white" stroke="#666666" points="1826,-250 1766,-250 1766,-231 1826,-231 1826,-250"/>
<text text-anchor="middle" x="1796" y="-238" font-family="Helvetica,sans-Serif" font-size="10.00">signals.h</text>
</a>
</g>
</g>
<!-- Node36&#45;&gt;Node38 -->
<g id="edge45_Node000036_Node000038" class="edge">
<title>Node36&#45;&gt;Node38</title>
<g id="a_edge45_Node000036_Node000038"><a xlink:title=" ">
<path fill="none" stroke="#63b8ff" d="M1796,-285.75C1796,-278.8 1796,-268.85 1796,-260.13"/>
<polygon fill="#63b8ff" stroke="#63b8ff" points="1799.5,-260.09 1796,-250.09 1792.5,-260.09 1799.5,-260.09"/>
</a>
</g>
</g>
<!-- Node39&#45;&gt;Node37 -->
<g id="edge47_Node000039_Node000037" class="edge">
<title>Node39&#45;&gt;Node37</title>
<g id="a_edge47_Node000039_Node000037"><a xlink:title=" ">
<path fill="none" stroke="#63b8ff" d="M1639.17,-285.98C1651.77,-277.84 1671,-265.41 1685.94,-255.76"/>
<polygon fill="#63b8ff" stroke="#63b8ff" points="1688.09,-258.54 1694.59,-250.17 1684.29,-252.66 1688.09,-258.54"/>
</a>
</g>
</g>
</g>
</svg>
