<?xml version="1.0" encoding="UTF-8" standalone="no"?>
<!DOCTYPE svg PUBLIC "-//W3C//DTD SVG 1.1//EN"
 "http://www.w3.org/Graphics/SVG/1.1/DTD/svg11.dtd">
<!-- Generated by graphviz version 2.43.0 (0)
 -->
<!-- Title: src/scripts/fps_chess/chessboard.h Pages: 1 -->
<svg width="2692pt" height="379pt"
 viewBox="0.00 0.00 2692.00 379.00" xmlns="http://www.w3.org/2000/svg" xmlns:xlink="http://www.w3.org/1999/xlink">
<g id="graph0" class="graph" transform="scale(1 1) rotate(0) translate(4 375)">
<title>src/scripts/fps_chess/chessboard.h</title>
<!-- Node1 -->
<g id="Node000001" class="node">
<title>Node1</title>
<g id="a_Node000001"><a xlink:title=" ">
<polygon fill="#999999" stroke="#666666" points="1761.5,-371 1644.5,-371 1644.5,-341 1761.5,-341 1761.5,-371"/>
<text text-anchor="start" x="1652.5" y="-359" font-family="Helvetica,sans-Serif" font-size="10.00">src/scripts/fps_chess</text>
<text text-anchor="middle" x="1703" y="-348" font-family="Helvetica,sans-Serif" font-size="10.00">/chessboard.h</text>
</a>
</g>
</g>
<!-- Node2 -->
<g id="Node000002" class="node">
<title>Node2</title>
<g id="a_Node000002"><a xlink:href="raptiquax_8h.html" target="_top" xlink:title="This file contains type definitions for fixed&#45;width integer types and floating&#45;point types.">
<polygon fill="white" stroke="#666666" points="798,-195 708,-195 708,-176 798,-176 798,-195"/>
<text text-anchor="middle" x="753" y="-183" font-family="Helvetica,sans-Serif" font-size="10.00">../../raptiquax.h</text>
</a>
</g>
</g>
<!-- Node1&#45;&gt;Node2 -->
<g id="edge1_Node000001_Node000002" class="edge">
<title>Node1&#45;&gt;Node2</title>
<g id="a_edge1_Node000001_Node000002"><a xlink:title=" ">
<path fill="none" stroke="#63b8ff" d="M1644.32,-349.3C1521.15,-336.71 1227.06,-303.34 985,-250 915.62,-234.71 835.99,-211.7 790.38,-197.98"/>
<polygon fill="#63b8ff" stroke="#63b8ff" points="791.22,-194.58 780.63,-195.03 789.19,-201.28 791.22,-194.58"/>
</a>
</g>
</g>
<!-- Node24 -->
<g id="Node000024" class="node">
<title>Node24</title>
<g id="a_Node000024"><a xlink:href="math__util_8h.html" target="_top" xlink:title=" ">
<polygon fill="white" stroke="#666666" points="1315.5,-195 1196.5,-195 1196.5,-176 1315.5,-176 1315.5,-195"/>
<text text-anchor="middle" x="1256" y="-183" font-family="Helvetica,sans-Serif" font-size="10.00">../../math/math_util.h</text>
</a>
</g>
</g>
<!-- Node1&#45;&gt;Node24 -->
<g id="edge22_Node000001_Node000024" class="edge">
<title>Node1&#45;&gt;Node24</title>
<g id="a_edge22_Node000001_Node000024"><a xlink:title=" ">
<path fill="none" stroke="#63b8ff" d="M1644.43,-349.85C1581.75,-343.34 1479.87,-329.85 1395,-305 1335.97,-287.72 1306.41,-298.04 1268,-250 1258.04,-237.54 1255.44,-219.33 1255.1,-205.6"/>
<polygon fill="#63b8ff" stroke="#63b8ff" points="1258.6,-205.4 1255.23,-195.35 1251.6,-205.31 1258.6,-205.4"/>
</a>
</g>
</g>
<!-- Node25 -->
<g id="Node000025" class="node">
<title>Node25</title>
<g id="a_Node000025"><a xlink:href="node_8h.html" target="_top" xlink:title=" ">
<polygon fill="white" stroke="#666666" points="1511.5,-305 1404.5,-305 1404.5,-286 1511.5,-286 1511.5,-305"/>
<text text-anchor="middle" x="1458" y="-293" font-family="Helvetica,sans-Serif" font-size="10.00">../../storage/node.h</text>
</a>
</g>
</g>
<!-- Node1&#45;&gt;Node25 -->
<g id="edge23_Node000001_Node000025" class="edge">
<title>Node1&#45;&gt;Node25</title>
<g id="a_edge23_Node000001_Node000025"><a xlink:title=" ">
<path fill="none" stroke="#63b8ff" d="M1644.32,-340.99C1601.21,-330.7 1543.48,-316.91 1503.76,-307.43"/>
<polygon fill="#63b8ff" stroke="#63b8ff" points="1504.36,-303.97 1493.82,-305.05 1502.74,-310.78 1504.36,-303.97"/>
</a>
</g>
</g>
<!-- Node34 -->
<g id="Node000034" class="node">
<title>Node34</title>
<g id="a_Node000034"><a xlink:href="scripts_8h.html" target="_top" xlink:title=" ">
<polygon fill="white" stroke="#666666" points="1687,-250 1585,-250 1585,-231 1687,-231 1687,-250"/>
<text text-anchor="middle" x="1636" y="-238" font-family="Helvetica,sans-Serif" font-size="10.00">../scripts/scripts.h</text>
</a>
</g>
</g>
<!-- Node1&#45;&gt;Node34 -->
<g id="edge39_Node000001_Node000034" class="edge">
<title>Node1&#45;&gt;Node34</title>
<g id="a_edge39_Node000001_Node000034"><a xlink:title=" ">
<path fill="none" stroke="#63b8ff" d="M1693.5,-340.72C1687,-330.8 1678.27,-317.22 1671,-305 1661.96,-289.8 1652.31,-272.17 1645.43,-259.34"/>
<polygon fill="#63b8ff" stroke="#63b8ff" points="1648.37,-257.41 1640.58,-250.23 1642.19,-260.7 1648.37,-257.41"/>
</a>
</g>
</g>
<!-- Node38 -->
<g id="Node000038" class="node">
<title>Node38</title>
<g id="a_Node000038"><a xlink:href="socket_8h.html" target="_top" xlink:title=" ">
<polygon fill="white" stroke="#666666" points="2188,-305 2066,-305 2066,-286 2188,-286 2188,-305"/>
<text text-anchor="middle" x="2127" y="-293" font-family="Helvetica,sans-Serif" font-size="10.00">../../io/socket/socket.h</text>
</a>
</g>
</g>
<!-- Node1&#45;&gt;Node38 -->
<g id="edge40_Node000001_Node000038" class="edge">
<title>Node1&#45;&gt;Node38</title>
<g id="a_edge40_Node000001_Node000038"><a xlink:title=" ">
<path fill="none" stroke="#63b8ff" d="M1761.51,-346.93C1838.27,-336.34 1972.91,-317.76 2055.59,-306.35"/>
<polygon fill="#63b8ff" stroke="#63b8ff" points="2056.23,-309.8 2065.66,-304.96 2055.27,-302.86 2056.23,-309.8"/>
</a>
</g>
</g>
<!-- Node48 -->
<g id="Node000048" class="node">
<title>Node48</title>
<g id="a_Node000048"><a xlink:href="classes_8h.html" target="_top" xlink:title=" ">
<polygon fill="white" stroke="#666666" points="1799.5,-305 1680.5,-305 1680.5,-286 1799.5,-286 1799.5,-305"/>
<text text-anchor="middle" x="1740" y="-293" font-family="Helvetica,sans-Serif" font-size="10.00">../../classes/classes.h</text>
</a>
</g>
</g>
<!-- Node1&#45;&gt;Node48 -->
<g id="edge50_Node000001_Node000048" class="edge">
<title>Node1&#45;&gt;Node48</title>
<g id="a_edge50_Node000001_Node000048"><a xlink:title=" ">
<path fill="none" stroke="#63b8ff" d="M1711.96,-340.84C1717.11,-332.69 1723.62,-322.4 1729.07,-313.78"/>
<polygon fill="#63b8ff" stroke="#63b8ff" points="1732.07,-315.59 1734.46,-305.27 1726.15,-311.85 1732.07,-315.59"/>
</a>
</g>
</g>
<!-- Node51 -->
<g id="Node000051" class="node">
<title>Node51</title>
<g id="a_Node000051"><a xlink:href="hash_8h.html" target="_top" xlink:title=" ">
<polygon fill="white" stroke="#666666" points="376.5,-195 269.5,-195 269.5,-176 376.5,-176 376.5,-195"/>
<text text-anchor="middle" x="323" y="-183" font-family="Helvetica,sans-Serif" font-size="10.00">../../storage/hash.h</text>
</a>
</g>
</g>
<!-- Node1&#45;&gt;Node51 -->
<g id="edge54_Node000001_Node000051" class="edge">
<title>Node1&#45;&gt;Node51</title>
<g id="a_edge54_Node000001_Node000051"><a xlink:title=" ">
<path fill="none" stroke="#63b8ff" d="M1644.14,-350.24C1546.81,-342.18 1346.24,-324.78 1177,-305 881.11,-270.42 529.14,-217.99 387.12,-196.36"/>
<polygon fill="#63b8ff" stroke="#63b8ff" points="387.26,-192.84 376.85,-194.79 386.21,-199.76 387.26,-192.84"/>
</a>
</g>
</g>
<!-- Node52 -->
<g id="Node000052" class="node">
<title>Node52</title>
<g id="a_Node000052"><a xlink:href="raw_8h.html" target="_top" xlink:title=" ">
<polygon fill="white" stroke="#666666" points="2307.5,-305 2206.5,-305 2206.5,-286 2307.5,-286 2307.5,-305"/>
<text text-anchor="middle" x="2257" y="-293" font-family="Helvetica,sans-Serif" font-size="10.00">../../storage/raw.h</text>
</a>
</g>
</g>
<!-- Node1&#45;&gt;Node52 -->
<g id="edge56_Node000001_Node000052" class="edge">
<title>Node1&#45;&gt;Node52</title>
<g id="a_edge56_Node000001_Node000052"><a xlink:title=" ">
<path fill="none" stroke="#63b8ff" d="M1761.64,-349.83C1852.34,-341.66 2032.39,-324.77 2196.02,-305.07"/>
<polygon fill="#63b8ff" stroke="#63b8ff" points="2196.77,-308.51 2206.28,-303.83 2195.93,-301.56 2196.77,-308.51"/>
</a>
</g>
</g>
<!-- Node53 -->
<g id="Node000053" class="node">
<title>Node53</title>
<g id="a_Node000053"><a xlink:href="time_8h.html" target="_top" xlink:title=" ">
<polygon fill="white" stroke="#666666" points="2374,-305 2326,-305 2326,-286 2374,-286 2374,-305"/>
<text text-anchor="middle" x="2350" y="-293" font-family="Helvetica,sans-Serif" font-size="10.00">time.h</text>
</a>
</g>
</g>
<!-- Node1&#45;&gt;Node53 -->
<g id="edge57_Node000001_Node000053" class="edge">
<title>Node1&#45;&gt;Node53</title>
<g id="a_edge57_Node000001_Node000053"><a xlink:title=" ">
<path fill="none" stroke="#63b8ff" d="M1761.83,-353.55C1869.93,-350.15 2107.46,-339.32 2316.04,-304.86"/>
<polygon fill="#63b8ff" stroke="#63b8ff" points="2316.67,-308.3 2325.95,-303.2 2315.51,-301.4 2316.67,-308.3"/>
</a>
</g>
</g>
<!-- Node54 -->
<g id="Node000054" class="node">
<title>Node54</title>
<g id="a_Node000054"><a xlink:href="scripts_2fps__chess_2client_8h.html" target="_top" xlink:title=" ">
<polygon fill="white" stroke="#666666" points="2445.5,-305 2392.5,-305 2392.5,-286 2445.5,-286 2445.5,-305"/>
<text text-anchor="middle" x="2419" y="-293" font-family="Helvetica,sans-Serif" font-size="10.00">client.h</text>
</a>
</g>
</g>
<!-- Node1&#45;&gt;Node54 -->
<g id="edge58_Node000001_Node000054" class="edge">
<title>Node1&#45;&gt;Node54</title>
<g id="a_edge58_Node000001_Node000054"><a xlink:title=" ">
<path fill="none" stroke="#63b8ff" d="M1761.57,-353.81C1878.05,-350.78 2147.09,-340.39 2382.24,-304.84"/>
<polygon fill="#63b8ff" stroke="#63b8ff" points="2383,-308.26 2392.36,-303.29 2381.94,-301.34 2383,-308.26"/>
</a>
</g>
</g>
<!-- Node3 -->
<g id="Node000003" class="node">
<title>Node3</title>
<g id="a_Node000003"><a xlink:title=" ">
<polygon fill="#e0e0e0" stroke="#999999" points="687,-134.5 637,-134.5 637,-115.5 687,-115.5 687,-134.5"/>
<text text-anchor="middle" x="662" y="-122.5" font-family="Helvetica,sans-Serif" font-size="10.00">stdio.h</text>
</a>
</g>
</g>
<!-- Node2&#45;&gt;Node3 -->
<g id="edge2_Node000002_Node000003" class="edge">
<title>Node2&#45;&gt;Node3</title>
<g id="a_edge2_Node000002_Node000003"><a xlink:title=" ">
<path fill="none" stroke="#63b8ff" d="M739.57,-175.87C724.92,-166.45 701.24,-151.23 683.9,-140.08"/>
<polygon fill="#63b8ff" stroke="#63b8ff" points="685.79,-137.13 675.48,-134.67 682,-143.02 685.79,-137.13"/>
</a>
</g>
</g>
<!-- Node4 -->
<g id="Node000004" class="node">
<title>Node4</title>
<g id="a_Node000004"><a xlink:title=" ">
<polygon fill="#e0e0e0" stroke="#999999" points="758.5,-134.5 705.5,-134.5 705.5,-115.5 758.5,-115.5 758.5,-134.5"/>
<text text-anchor="middle" x="732" y="-122.5" font-family="Helvetica,sans-Serif" font-size="10.00">stdint.h</text>
</a>
</g>
</g>
<!-- Node2&#45;&gt;Node4 -->
<g id="edge3_Node000002_Node000004" class="edge">
<title>Node2&#45;&gt;Node4</title>
<g id="a_edge3_Node000002_Node000004"><a xlink:title=" ">
<path fill="none" stroke="#63b8ff" d="M749.9,-175.87C746.92,-167.57 742.33,-154.78 738.54,-144.22"/>
<polygon fill="#63b8ff" stroke="#63b8ff" points="741.78,-142.9 735.11,-134.67 735.2,-145.26 741.78,-142.9"/>
</a>
</g>
</g>
<!-- Node5 -->
<g id="Node000005" class="node">
<title>Node5</title>
<g id="a_Node000005"><a xlink:title=" ">
<polygon fill="#e0e0e0" stroke="#999999" points="62,-134.5 0,-134.5 0,-115.5 62,-115.5 62,-134.5"/>
<text text-anchor="middle" x="31" y="-122.5" font-family="Helvetica,sans-Serif" font-size="10.00">stdbool.h</text>
</a>
</g>
</g>
<!-- Node2&#45;&gt;Node5 -->
<g id="edge4_Node000002_Node000005" class="edge">
<title>Node2&#45;&gt;Node5</title>
<g id="a_edge4_Node000002_Node000005"><a xlink:title=" ">
<path fill="none" stroke="#63b8ff" d="M707.62,-183.14C575.61,-178.95 193.37,-164.92 71,-140 67.93,-139.37 64.77,-138.57 61.64,-137.66"/>
<polygon fill="#63b8ff" stroke="#63b8ff" points="62.46,-134.25 51.87,-134.51 60.31,-140.91 62.46,-134.25"/>
</a>
</g>
</g>
<!-- Node6 -->
<g id="Node000006" class="node">
<title>Node6</title>
<g id="a_Node000006"><a xlink:title=" ">
<polygon fill="#e0e0e0" stroke="#999999" points="833,-134.5 777,-134.5 777,-115.5 833,-115.5 833,-134.5"/>
<text text-anchor="middle" x="805" y="-122.5" font-family="Helvetica,sans-Serif" font-size="10.00">stdarg.h</text>
</a>
</g>
</g>
<!-- Node2&#45;&gt;Node6 -->
<g id="edge5_Node000002_Node000006" class="edge">
<title>Node2&#45;&gt;Node6</title>
<g id="a_edge5_Node000002_Node000006"><a xlink:title=" ">
<path fill="none" stroke="#63b8ff" d="M760.67,-175.87C768.51,-167.05 780.86,-153.16 790.54,-142.27"/>
<polygon fill="#63b8ff" stroke="#63b8ff" points="793.27,-144.47 797.3,-134.67 788.04,-139.82 793.27,-144.47"/>
</a>
</g>
</g>
<!-- Node7 -->
<g id="Node000007" class="node">
<title>Node7</title>
<g id="a_Node000007"><a xlink:title=" ">
<polygon fill="#e0e0e0" stroke="#999999" points="904.5,-134.5 851.5,-134.5 851.5,-115.5 904.5,-115.5 904.5,-134.5"/>
<text text-anchor="middle" x="878" y="-122.5" font-family="Helvetica,sans-Serif" font-size="10.00">limits.h</text>
</a>
</g>
</g>
<!-- Node2&#45;&gt;Node7 -->
<g id="edge6_Node000002_Node000007" class="edge">
<title>Node2&#45;&gt;Node7</title>
<g id="a_edge6_Node000002_Node000007"><a xlink:title=" ">
<path fill="none" stroke="#63b8ff" d="M771.18,-175.99C792.01,-166.25 826.37,-150.16 850.48,-138.88"/>
<polygon fill="#63b8ff" stroke="#63b8ff" points="852.23,-141.93 859.8,-134.52 849.26,-135.59 852.23,-141.93"/>
</a>
</g>
</g>
<!-- Node8 -->
<g id="Node000008" class="node">
<title>Node8</title>
<g id="a_Node000008"><a xlink:title=" ">
<polygon fill="#e0e0e0" stroke="#999999" points="995,-134.5 923,-134.5 923,-115.5 995,-115.5 995,-134.5"/>
<text text-anchor="middle" x="959" y="-122.5" font-family="Helvetica,sans-Serif" font-size="10.00">SDL2/SDL.h</text>
</a>
</g>
</g>
<!-- Node2&#45;&gt;Node8 -->
<g id="edge7_Node000002_Node000008" class="edge">
<title>Node2&#45;&gt;Node8</title>
<g id="a_edge7_Node000002_Node000008"><a xlink:title=" ">
<path fill="none" stroke="#63b8ff" d="M784.64,-175.94C816.96,-167.14 868.57,-152.94 913,-140 915.78,-139.19 918.65,-138.34 921.54,-137.48"/>
<polygon fill="#63b8ff" stroke="#63b8ff" points="922.73,-140.78 931.3,-134.55 920.72,-134.08 922.73,-140.78"/>
</a>
</g>
</g>
<!-- Node9 -->
<g id="Node000009" class="node">
<title>Node9</title>
<g id="a_Node000009"><a xlink:title=" ">
<polygon fill="#e0e0e0" stroke="#999999" points="1121,-134.5 1013,-134.5 1013,-115.5 1121,-115.5 1121,-134.5"/>
<text text-anchor="middle" x="1067" y="-122.5" font-family="Helvetica,sans-Serif" font-size="10.00">SDL2/SDL_image.h</text>
</a>
</g>
</g>
<!-- Node2&#45;&gt;Node9 -->
<g id="edge8_Node000002_Node000009" class="edge">
<title>Node2&#45;&gt;Node9</title>
<g id="a_edge8_Node000002_Node000009"><a xlink:title=" ">
<path fill="none" stroke="#63b8ff" d="M798.45,-177.05C848.82,-168.65 932.39,-154.3 1004,-140 1009.09,-138.98 1014.4,-137.88 1019.68,-136.75"/>
<polygon fill="#63b8ff" stroke="#63b8ff" points="1020.72,-140.1 1029.75,-134.56 1019.23,-133.26 1020.72,-140.1"/>
</a>
</g>
</g>
<!-- Node10 -->
<g id="Node000010" class="node">
<title>Node10</title>
<g id="a_Node000010"><a xlink:title=" ">
<polygon fill="#e0e0e0" stroke="#999999" points="1249,-134.5 1139,-134.5 1139,-115.5 1249,-115.5 1249,-134.5"/>
<text text-anchor="middle" x="1194" y="-122.5" font-family="Helvetica,sans-Serif" font-size="10.00">SDL2/SDL_opengl.h</text>
</a>
</g>
</g>
<!-- Node2&#45;&gt;Node10 -->
<g id="edge9_Node000002_Node000010" class="edge">
<title>Node2&#45;&gt;Node10</title>
<g id="a_edge9_Node000002_Node000010"><a xlink:title=" ">
<path fill="none" stroke="#63b8ff" d="M798.18,-180.61C869.13,-174.17 1010.9,-160.01 1130,-140 1135.82,-139.02 1141.91,-137.87 1147.92,-136.64"/>
<polygon fill="#63b8ff" stroke="#63b8ff" points="1148.84,-140.03 1157.9,-134.54 1147.4,-133.18 1148.84,-140.03"/>
</a>
</g>
</g>
<!-- Node11 -->
<g id="Node000011" class="node">
<title>Node11</title>
<g id="a_Node000011"><a xlink:title=" ">
<polygon fill="#e0e0e0" stroke="#999999" points="1371,-134.5 1267,-134.5 1267,-115.5 1371,-115.5 1371,-134.5"/>
<text text-anchor="middle" x="1319" y="-122.5" font-family="Helvetica,sans-Serif" font-size="10.00">SDL2/SDL_mixer.h</text>
</a>
</g>
</g>
<!-- Node2&#45;&gt;Node11 -->
<g id="edge10_Node000002_Node000011" class="edge">
<title>Node2&#45;&gt;Node11</title>
<g id="a_edge10_Node000002_Node000011"><a xlink:title=" ">
<path fill="none" stroke="#63b8ff" d="M798.18,-182.61C886.82,-178.44 1089.56,-166.62 1258,-140 1263.78,-139.09 1269.82,-137.94 1275.76,-136.7"/>
<polygon fill="#63b8ff" stroke="#63b8ff" points="1276.58,-140.1 1285.6,-134.54 1275.08,-133.26 1276.58,-140.1"/>
</a>
</g>
</g>
<!-- Node12 -->
<g id="Node000012" class="node">
<title>Node12</title>
<g id="a_Node000012"><a xlink:title=" ">
<polygon fill="#e0e0e0" stroke="#999999" points="1477,-134.5 1389,-134.5 1389,-115.5 1477,-115.5 1477,-134.5"/>
<text text-anchor="middle" x="1433" y="-122.5" font-family="Helvetica,sans-Serif" font-size="10.00">SDL2/SDL_ttf.h</text>
</a>
</g>
</g>
<!-- Node2&#45;&gt;Node12 -->
<g id="edge11_Node000002_Node000012" class="edge">
<title>Node2&#45;&gt;Node12</title>
<g id="a_edge11_Node000002_Node000012"><a xlink:title=" ">
<path fill="none" stroke="#63b8ff" d="M798.2,-184.19C901.8,-182.84 1164.15,-175.84 1380,-140 1384.79,-139.2 1389.78,-138.17 1394.7,-137.02"/>
<polygon fill="#63b8ff" stroke="#63b8ff" points="1395.75,-140.37 1404.61,-134.55 1394.06,-133.57 1395.75,-140.37"/>
</a>
</g>
</g>
<!-- Node13 -->
<g id="Node000013" class="node">
<title>Node13</title>
<g id="a_Node000013"><a xlink:title=" ">
<polygon fill="#e0e0e0" stroke="#999999" points="130,-134.5 80,-134.5 80,-115.5 130,-115.5 130,-134.5"/>
<text text-anchor="middle" x="105" y="-122.5" font-family="Helvetica,sans-Serif" font-size="10.00">GL/gl.h</text>
</a>
</g>
</g>
<!-- Node2&#45;&gt;Node13 -->
<g id="edge12_Node000002_Node000013" class="edge">
<title>Node2&#45;&gt;Node13</title>
<g id="a_edge12_Node000002_Node000013"><a xlink:title=" ">
<path fill="none" stroke="#63b8ff" d="M707.75,-183.08C584.91,-178.94 247.19,-165.5 139,-140 136.78,-139.48 134.51,-138.83 132.26,-138.09"/>
<polygon fill="#63b8ff" stroke="#63b8ff" points="133.24,-134.72 122.65,-134.51 130.79,-141.28 133.24,-134.72"/>
</a>
</g>
</g>
<!-- Node14 -->
<g id="Node000014" class="node">
<title>Node14</title>
<g id="a_Node000014"><a xlink:title=" ">
<polygon fill="#e0e0e0" stroke="#999999" points="204,-134.5 148,-134.5 148,-115.5 204,-115.5 204,-134.5"/>
<text text-anchor="middle" x="176" y="-122.5" font-family="Helvetica,sans-Serif" font-size="10.00">GL/glu.h</text>
</a>
</g>
</g>
<!-- Node2&#45;&gt;Node14 -->
<g id="edge13_Node000002_Node000014" class="edge">
<title>Node2&#45;&gt;Node14</title>
<g id="a_edge13_Node000002_Node000014"><a xlink:title=" ">
<path fill="none" stroke="#63b8ff" d="M707.91,-185C614.41,-185.12 393.08,-180.64 213,-140 210.48,-139.43 207.9,-138.73 205.33,-137.94"/>
<polygon fill="#63b8ff" stroke="#63b8ff" points="206.25,-134.55 195.66,-134.6 203.97,-141.17 206.25,-134.55"/>
</a>
</g>
</g>
<!-- Node15 -->
<g id="Node000015" class="node">
<title>Node15</title>
<g id="a_Node000015"><a xlink:title=" ">
<polygon fill="#e0e0e0" stroke="#999999" points="288,-134.5 222,-134.5 222,-115.5 288,-115.5 288,-134.5"/>
<text text-anchor="middle" x="255" y="-122.5" font-family="Helvetica,sans-Serif" font-size="10.00">GL/glext.h</text>
</a>
</g>
</g>
<!-- Node2&#45;&gt;Node15 -->
<g id="edge14_Node000002_Node000015" class="edge">
<title>Node2&#45;&gt;Node15</title>
<g id="a_edge14_Node000002_Node000015"><a xlink:title=" ">
<path fill="none" stroke="#63b8ff" d="M707.83,-183.44C625.35,-180.77 445.22,-171.52 297,-140 293.77,-139.31 290.44,-138.46 287.13,-137.52"/>
<polygon fill="#63b8ff" stroke="#63b8ff" points="288,-134.13 277.41,-134.5 285.92,-140.81 288,-134.13"/>
</a>
</g>
</g>
<!-- Node16 -->
<g id="Node000016" class="node">
<title>Node16</title>
<g id="a_Node000016"><a xlink:title=" ">
<polygon fill="#e0e0e0" stroke="#999999" points="383.5,-134.5 306.5,-134.5 306.5,-115.5 383.5,-115.5 383.5,-134.5"/>
<text text-anchor="middle" x="345" y="-122.5" font-family="Helvetica,sans-Serif" font-size="10.00">cglm/cglm.h</text>
</a>
</g>
</g>
<!-- Node2&#45;&gt;Node16 -->
<g id="edge15_Node000002_Node000016" class="edge">
<title>Node2&#45;&gt;Node16</title>
<g id="a_edge15_Node000002_Node000016"><a xlink:title=" ">
<path fill="none" stroke="#63b8ff" d="M707.86,-181.37C639.13,-176.05 504.34,-163.48 392,-140 388.37,-139.24 384.61,-138.34 380.88,-137.35"/>
<polygon fill="#63b8ff" stroke="#63b8ff" points="381.72,-133.96 371.15,-134.63 379.84,-140.7 381.72,-133.96"/>
</a>
</g>
</g>
<!-- Node17 -->
<g id="Node000017" class="node">
<title>Node17</title>
<g id="a_Node000017"><a xlink:title=" ">
<polygon fill="#e0e0e0" stroke="#999999" points="452.5,-134.5 401.5,-134.5 401.5,-115.5 452.5,-115.5 452.5,-134.5"/>
<text text-anchor="middle" x="427" y="-122.5" font-family="Helvetica,sans-Serif" font-size="10.00">math.h</text>
</a>
</g>
</g>
<!-- Node2&#45;&gt;Node17 -->
<g id="edge16_Node000002_Node000017" class="edge">
<title>Node2&#45;&gt;Node17</title>
<g id="a_edge16_Node000002_Node000017"><a xlink:title=" ">
<path fill="none" stroke="#63b8ff" d="M707.97,-180.83C650.21,-175.4 547.3,-163.25 462,-140 459.85,-139.41 457.64,-138.73 455.44,-138"/>
<polygon fill="#63b8ff" stroke="#63b8ff" points="456.58,-134.68 445.99,-134.51 454.16,-141.25 456.58,-134.68"/>
</a>
</g>
</g>
<!-- Node18 -->
<g id="Node000018" class="node">
<title>Node18</title>
<g id="a_Node000018"><a xlink:href="stringio_8h.html" target="_top" xlink:title="Provides utility functions for string and file operations.">
<polygon fill="white" stroke="#666666" points="545,-134.5 471,-134.5 471,-115.5 545,-115.5 545,-134.5"/>
<text text-anchor="middle" x="508" y="-122.5" font-family="Helvetica,sans-Serif" font-size="10.00">io/stringio.h</text>
</a>
</g>
</g>
<!-- Node2&#45;&gt;Node18 -->
<g id="edge17_Node000002_Node000018" class="edge">
<title>Node2&#45;&gt;Node18</title>
<g id="a_edge17_Node000002_Node000018"><a xlink:title=" ">
<path fill="none" stroke="#63b8ff" d="M710.46,-175.96C670.02,-167.61 607.57,-154.12 554,-140 551.03,-139.22 547.96,-138.37 544.88,-137.49"/>
<polygon fill="#63b8ff" stroke="#63b8ff" points="545.73,-134.09 535.15,-134.63 543.75,-140.81 545.73,-134.09"/>
</a>
</g>
</g>
<!-- Node20 -->
<g id="Node000020" class="node">
<title>Node20</title>
<g id="a_Node000020"><a xlink:href="config_8h.html" target="_top" xlink:title=" ">
<polygon fill="white" stroke="#666666" points="618.5,-134.5 563.5,-134.5 563.5,-115.5 618.5,-115.5 618.5,-134.5"/>
<text text-anchor="middle" x="591" y="-122.5" font-family="Helvetica,sans-Serif" font-size="10.00">config.h</text>
</a>
</g>
</g>
<!-- Node2&#45;&gt;Node20 -->
<g id="edge19_Node000002_Node000020" class="edge">
<title>Node2&#45;&gt;Node20</title>
<g id="a_edge19_Node000002_Node000020"><a xlink:title=" ">
<path fill="none" stroke="#63b8ff" d="M728.52,-175.94C703.28,-167.09 662.81,-152.78 628,-140 626.36,-139.4 624.68,-138.78 622.99,-138.15"/>
<polygon fill="#63b8ff" stroke="#63b8ff" points="623.87,-134.74 613.28,-134.51 621.41,-141.3 623.87,-134.74"/>
</a>
</g>
</g>
<!-- Node19 -->
<g id="Node000019" class="node">
<title>Node19</title>
<g id="a_Node000019"><a xlink:title=" ">
<polygon fill="#e0e0e0" stroke="#999999" points="534.5,-74 481.5,-74 481.5,-55 534.5,-55 534.5,-74"/>
<text text-anchor="middle" x="508" y="-62" font-family="Helvetica,sans-Serif" font-size="10.00">string.h</text>
</a>
</g>
</g>
<!-- Node18&#45;&gt;Node19 -->
<g id="edge18_Node000018_Node000019" class="edge">
<title>Node18&#45;&gt;Node19</title>
<g id="a_edge18_Node000018_Node000019"><a xlink:title=" ">
<path fill="none" stroke="#63b8ff" d="M508,-115.37C508,-107.25 508,-94.81 508,-84.39"/>
<polygon fill="#63b8ff" stroke="#63b8ff" points="511.5,-84.17 508,-74.17 504.5,-84.17 511.5,-84.17"/>
</a>
</g>
</g>
<!-- Node21 -->
<g id="Node000021" class="node">
<title>Node21</title>
<g id="a_Node000021"><a xlink:href="term_8h.html" target="_top" xlink:title=" ">
<polygon fill="white" stroke="#666666" points="628.5,-74 553.5,-74 553.5,-55 628.5,-55 628.5,-74"/>
<text text-anchor="middle" x="591" y="-62" font-family="Helvetica,sans-Serif" font-size="10.00">term/term.h</text>
</a>
</g>
</g>
<!-- Node20&#45;&gt;Node21 -->
<g id="edge20_Node000020_Node000021" class="edge">
<title>Node20&#45;&gt;Node21</title>
<g id="a_edge20_Node000020_Node000021"><a xlink:title=" ">
<path fill="none" stroke="#63b8ff" d="M591,-115.37C591,-107.25 591,-94.81 591,-84.39"/>
<polygon fill="#63b8ff" stroke="#63b8ff" points="594.5,-84.17 591,-74.17 587.5,-84.17 594.5,-84.17"/>
</a>
</g>
</g>
<!-- Node22 -->
<g id="Node000022" class="node">
<title>Node22</title>
<g id="a_Node000022"><a xlink:href="enhanced__print_8h.html" target="_top" xlink:title=" ">
<polygon fill="#fff0f0" stroke="red" points="641.5,-19 540.5,-19 540.5,0 641.5,0 641.5,-19"/>
<text text-anchor="middle" x="591" y="-7" font-family="Helvetica,sans-Serif" font-size="10.00">enhanced_print.h</text>
</a>
</g>
</g>
<!-- Node21&#45;&gt;Node22 -->
<g id="edge21_Node000021_Node000022" class="edge">
<title>Node21&#45;&gt;Node22</title>
<g id="a_edge21_Node000021_Node000022"><a xlink:title=" ">
<path fill="none" stroke="#63b8ff" d="M591,-54.75C591,-47.8 591,-37.85 591,-29.13"/>
<polygon fill="#63b8ff" stroke="#63b8ff" points="594.5,-29.09 591,-19.09 587.5,-29.09 594.5,-29.09"/>
</a>
</g>
</g>
<!-- Node26 -->
<g id="Node000026" class="node">
<title>Node26</title>
<g id="a_Node000026"><a xlink:href="shader_8h.html" target="_top" xlink:title=" ">
<polygon fill="white" stroke="#666666" points="1573.5,-134.5 1494.5,-134.5 1494.5,-115.5 1573.5,-115.5 1573.5,-134.5"/>
<text text-anchor="middle" x="1534" y="-122.5" font-family="Helvetica,sans-Serif" font-size="10.00">../io/shader.h</text>
</a>
</g>
</g>
<!-- Node25&#45;&gt;Node26 -->
<g id="edge24_Node000025_Node000026" class="edge">
<title>Node25&#45;&gt;Node26</title>
<g id="a_edge24_Node000025_Node000026"><a xlink:title=" ">
<path fill="none" stroke="#63b8ff" d="M1450.37,-285.7C1440.88,-273.67 1426.54,-251.24 1432,-231 1439.37,-203.7 1444.96,-196.91 1464,-176 1477.12,-161.6 1495.04,-148.89 1509.46,-139.89"/>
<polygon fill="#63b8ff" stroke="#63b8ff" points="1511.6,-142.69 1518.35,-134.53 1507.98,-136.7 1511.6,-142.69"/>
</a>
</g>
</g>
<!-- Node27 -->
<g id="Node000027" class="node">
<title>Node27</title>
<g id="a_Node000027"><a xlink:href="camera_8h.html" target="_top" xlink:title=" ">
<polygon fill="white" stroke="#666666" points="1221,-250 1115,-250 1115,-231 1221,-231 1221,-250"/>
<text text-anchor="middle" x="1168" y="-238" font-family="Helvetica,sans-Serif" font-size="10.00">../render/camera.h</text>
</a>
</g>
</g>
<!-- Node25&#45;&gt;Node27 -->
<g id="edge25_Node000025_Node000027" class="edge">
<title>Node25&#45;&gt;Node27</title>
<g id="a_edge25_Node000025_Node000027"><a xlink:title=" ">
<path fill="none" stroke="#63b8ff" d="M1411.41,-285.98C1360.61,-276.7 1279.31,-261.84 1224.81,-251.88"/>
<polygon fill="#63b8ff" stroke="#63b8ff" points="1225.43,-248.44 1214.96,-250.08 1224.17,-255.32 1225.43,-248.44"/>
</a>
</g>
</g>
<!-- Node28 -->
<g id="Node000028" class="node">
<title>Node28</title>
<g id="a_Node000028"><a xlink:href="bodies_8h.html" target="_top" xlink:title=" ">
<polygon fill="white" stroke="#666666" points="1384.5,-250 1277.5,-250 1277.5,-231 1384.5,-231 1384.5,-250"/>
<text text-anchor="middle" x="1331" y="-238" font-family="Helvetica,sans-Serif" font-size="10.00">../physics/bodies.h</text>
</a>
</g>
</g>
<!-- Node25&#45;&gt;Node28 -->
<g id="edge29_Node000025_Node000028" class="edge">
<title>Node25&#45;&gt;Node28</title>
<g id="a_edge29_Node000025_Node000028"><a xlink:title=" ">
<path fill="none" stroke="#63b8ff" d="M1437.6,-285.98C1416.98,-277.38 1384.89,-263.99 1361.31,-254.15"/>
<polygon fill="#63b8ff" stroke="#63b8ff" points="1362.35,-250.79 1351.78,-250.17 1359.66,-257.25 1362.35,-250.79"/>
</a>
</g>
</g>
<!-- Node25&#45;&gt;Node34 -->
<g id="edge34_Node000025_Node000034" class="edge">
<title>Node25&#45;&gt;Node34</title>
<g id="a_edge34_Node000025_Node000034"><a xlink:title=" ">
<path fill="none" stroke="#63b8ff" d="M1486.6,-285.98C1516.61,-277.05 1563.98,-262.94 1597.32,-253.02"/>
<polygon fill="#63b8ff" stroke="#63b8ff" points="1598.59,-256.29 1607.18,-250.08 1596.59,-249.58 1598.59,-256.29"/>
</a>
</g>
</g>
<!-- Node37 -->
<g id="Node000037" class="node">
<title>Node37</title>
<g id="a_Node000037"><a xlink:href="framebuffer_8h.html" target="_top" xlink:title=" ">
<polygon fill="white" stroke="#666666" points="1567,-250 1441,-250 1441,-231 1567,-231 1567,-250"/>
<text text-anchor="middle" x="1504" y="-238" font-family="Helvetica,sans-Serif" font-size="10.00">../render/framebuffer.h</text>
</a>
</g>
</g>
<!-- Node25&#45;&gt;Node37 -->
<g id="edge37_Node000025_Node000037" class="edge">
<title>Node25&#45;&gt;Node37</title>
<g id="a_edge37_Node000025_Node000037"><a xlink:title=" ">
<path fill="none" stroke="#63b8ff" d="M1465.6,-285.75C1472.16,-278.18 1481.82,-267.05 1489.81,-257.84"/>
<polygon fill="#63b8ff" stroke="#63b8ff" points="1492.63,-259.94 1496.55,-250.09 1487.35,-255.35 1492.63,-259.94"/>
</a>
</g>
</g>
<!-- Node27&#45;&gt;Node2 -->
<g id="edge26_Node000027_Node000002" class="edge">
<title>Node27&#45;&gt;Node2</title>
<g id="a_edge26_Node000027_Node000002"><a xlink:title=" ">
<path fill="none" stroke="#63b8ff" d="M1114.6,-232.68C1035.72,-222.61 888.77,-203.84 808.63,-193.6"/>
<polygon fill="#63b8ff" stroke="#63b8ff" points="808.62,-190.07 798.25,-192.28 807.73,-197.02 808.62,-190.07"/>
</a>
</g>
</g>
<!-- Node27&#45;&gt;Node24 -->
<g id="edge27_Node000027_Node000024" class="edge">
<title>Node27&#45;&gt;Node24</title>
<g id="a_edge27_Node000027_Node000024"><a xlink:title=" ">
<path fill="none" stroke="#63b8ff" d="M1182.14,-230.98C1195.79,-222.77 1216.69,-210.18 1232.78,-200.49"/>
<polygon fill="#63b8ff" stroke="#63b8ff" points="1234.84,-203.33 1241.6,-195.17 1231.23,-197.33 1234.84,-203.33"/>
</a>
</g>
</g>
<!-- Node27&#45;&gt;Node26 -->
<g id="edge28_Node000027_Node000026" class="edge">
<title>Node27&#45;&gt;Node26</title>
<g id="a_edge28_Node000027_Node000026"><a xlink:title=" ">
<path fill="none" stroke="#63b8ff" d="M1167.81,-230.95C1168.02,-217.06 1170.63,-189.79 1187,-176 1238.19,-132.89 1420.43,-153.41 1486,-140 1489.86,-139.21 1493.86,-138.26 1497.83,-137.23"/>
<polygon fill="#63b8ff" stroke="#63b8ff" points="1498.82,-140.59 1507.54,-134.56 1496.97,-133.84 1498.82,-140.59"/>
</a>
</g>
</g>
<!-- Node28&#45;&gt;Node24 -->
<g id="edge30_Node000028_Node000024" class="edge">
<title>Node28&#45;&gt;Node24</title>
<g id="a_edge30_Node000028_Node000024"><a xlink:title=" ">
<path fill="none" stroke="#63b8ff" d="M1318.95,-230.98C1307.54,-222.92 1290.17,-210.65 1276.57,-201.03"/>
<polygon fill="#63b8ff" stroke="#63b8ff" points="1278.46,-198.08 1268.27,-195.17 1274.42,-203.8 1278.46,-198.08"/>
</a>
</g>
</g>
<!-- Node29 -->
<g id="Node000029" class="node">
<title>Node29</title>
<g id="a_Node000029"><a xlink:href="model_8h.html" target="_top" xlink:title="Defines structures and functions for handling 3D models and their properties.">
<polygon fill="white" stroke="#666666" points="1550.5,-195 1473.5,-195 1473.5,-176 1550.5,-176 1550.5,-195"/>
<text text-anchor="middle" x="1512" y="-183" font-family="Helvetica,sans-Serif" font-size="10.00">../io/model.h</text>
</a>
</g>
</g>
<!-- Node28&#45;&gt;Node29 -->
<g id="edge31_Node000028_Node000029" class="edge">
<title>Node28&#45;&gt;Node29</title>
<g id="a_edge31_Node000028_Node000029"><a xlink:title=" ">
<path fill="none" stroke="#63b8ff" d="M1360.08,-230.98C1390.6,-222.05 1438.76,-207.94 1472.66,-198.02"/>
<polygon fill="#63b8ff" stroke="#63b8ff" points="1474.08,-201.25 1482.69,-195.08 1472.11,-194.53 1474.08,-201.25"/>
</a>
</g>
</g>
<!-- Node29&#45;&gt;Node26 -->
<g id="edge32_Node000029_Node000026" class="edge">
<title>Node29&#45;&gt;Node26</title>
<g id="a_edge32_Node000029_Node000026"><a xlink:title=" ">
<path fill="none" stroke="#63b8ff" d="M1515.25,-175.87C1518.37,-167.57 1523.18,-154.78 1527.15,-144.22"/>
<polygon fill="#63b8ff" stroke="#63b8ff" points="1530.5,-145.26 1530.74,-134.67 1523.94,-142.8 1530.5,-145.26"/>
</a>
</g>
</g>
<!-- Node30 -->
<g id="Node000030" class="node">
<title>Node30</title>
<g id="a_Node000030"><a xlink:href="model__loader_8h.html" target="_top" xlink:title=" ">
<polygon fill="#fff0f0" stroke="red" points="1714,-140 1592,-140 1592,-110 1714,-110 1714,-140"/>
<text text-anchor="start" x="1600" y="-128" font-family="Helvetica,sans-Serif" font-size="10.00">model_loaders/model</text>
<text text-anchor="middle" x="1653" y="-117" font-family="Helvetica,sans-Serif" font-size="10.00">_loader.h</text>
</a>
</g>
</g>
<!-- Node29&#45;&gt;Node30 -->
<g id="edge33_Node000029_Node000030" class="edge">
<title>Node29&#45;&gt;Node30</title>
<g id="a_edge33_Node000029_Node000030"><a xlink:title=" ">
<path fill="none" stroke="#63b8ff" d="M1532.5,-175.99C1552.62,-167.65 1583.92,-154.66 1609.58,-144.02"/>
<polygon fill="#63b8ff" stroke="#63b8ff" points="1611.21,-147.13 1619.1,-140.06 1608.52,-140.66 1611.21,-147.13"/>
</a>
</g>
</g>
<!-- Node35 -->
<g id="Node000035" class="node">
<title>Node35</title>
<g id="a_Node000035"><a xlink:href="input_8h.html" target="_top" xlink:title=" ">
<polygon fill="white" stroke="#666666" points="1639.5,-195 1568.5,-195 1568.5,-176 1639.5,-176 1639.5,-195"/>
<text text-anchor="middle" x="1604" y="-183" font-family="Helvetica,sans-Serif" font-size="10.00">../io/input.h</text>
</a>
</g>
</g>
<!-- Node34&#45;&gt;Node35 -->
<g id="edge35_Node000034_Node000035" class="edge">
<title>Node34&#45;&gt;Node35</title>
<g id="a_edge35_Node000034_Node000035"><a xlink:title=" ">
<path fill="none" stroke="#63b8ff" d="M1630.72,-230.75C1626.29,-223.42 1619.84,-212.73 1614.38,-203.7"/>
<polygon fill="#63b8ff" stroke="#63b8ff" points="1617.35,-201.84 1609.19,-195.09 1611.36,-205.46 1617.35,-201.84"/>
</a>
</g>
</g>
<!-- Node36 -->
<g id="Node000036" class="node">
<title>Node36</title>
<g id="a_Node000036"><a xlink:href="signals_8h.html" target="_top" xlink:title="Signal and slot system for C projects.">
<polygon fill="white" stroke="#666666" points="1718,-195 1658,-195 1658,-176 1718,-176 1718,-195"/>
<text text-anchor="middle" x="1688" y="-183" font-family="Helvetica,sans-Serif" font-size="10.00">signals.h</text>
</a>
</g>
</g>
<!-- Node34&#45;&gt;Node36 -->
<g id="edge36_Node000034_Node000036" class="edge">
<title>Node34&#45;&gt;Node36</title>
<g id="a_edge36_Node000034_Node000036"><a xlink:title=" ">
<path fill="none" stroke="#63b8ff" d="M1644.59,-230.75C1652.16,-223.03 1663.38,-211.6 1672.51,-202.28"/>
<polygon fill="#63b8ff" stroke="#63b8ff" points="1675.07,-204.68 1679.57,-195.09 1670.07,-199.78 1675.07,-204.68"/>
</a>
</g>
</g>
<!-- Node37&#45;&gt;Node35 -->
<g id="edge38_Node000037_Node000035" class="edge">
<title>Node37&#45;&gt;Node35</title>
<g id="a_edge38_Node000037_Node000035"><a xlink:title=" ">
<path fill="none" stroke="#63b8ff" d="M1520.07,-230.98C1535.86,-222.61 1560.22,-209.7 1578.63,-199.95"/>
<polygon fill="#63b8ff" stroke="#63b8ff" points="1580.44,-202.95 1587.64,-195.17 1577.17,-196.76 1580.44,-202.95"/>
</a>
</g>
</g>
<!-- Node39 -->
<g id="Node000039" class="node">
<title>Node39</title>
<g id="a_Node000039"><a xlink:title=" ">
<polygon fill="#e0e0e0" stroke="#999999" points="2265,-250 2191,-250 2191,-231 2265,-231 2265,-250"/>
<text text-anchor="middle" x="2228" y="-238" font-family="Helvetica,sans-Serif" font-size="10.00">sys/select.h</text>
</a>
</g>
</g>
<!-- Node38&#45;&gt;Node39 -->
<g id="edge41_Node000038_Node000039" class="edge">
<title>Node38&#45;&gt;Node39</title>
<g id="a_edge41_Node000038_Node000039"><a xlink:title=" ">
<path fill="none" stroke="#63b8ff" d="M2143.23,-285.98C2159.18,-277.61 2183.78,-264.7 2202.38,-254.95"/>
<polygon fill="#63b8ff" stroke="#63b8ff" points="2204.25,-257.92 2211.48,-250.17 2201,-251.72 2204.25,-257.92"/>
</a>
</g>
</g>
<!-- Node40 -->
<g id="Node000040" class="node">
<title>Node40</title>
<g id="a_Node000040"><a xlink:title=" ">
<polygon fill="#e0e0e0" stroke="#999999" points="2360.5,-250 2283.5,-250 2283.5,-231 2360.5,-231 2360.5,-250"/>
<text text-anchor="middle" x="2322" y="-238" font-family="Helvetica,sans-Serif" font-size="10.00">sys/socket.h</text>
</a>
</g>
</g>
<!-- Node38&#45;&gt;Node40 -->
<g id="edge42_Node000038_Node000040" class="edge">
<title>Node38&#45;&gt;Node40</title>
<g id="a_edge42_Node000038_Node000040"><a xlink:title=" ">
<path fill="none" stroke="#63b8ff" d="M2158.33,-285.98C2191.49,-276.97 2244,-262.7 2280.56,-252.76"/>
<polygon fill="#63b8ff" stroke="#63b8ff" points="2281.69,-256.08 2290.42,-250.08 2279.86,-249.33 2281.69,-256.08"/>
</a>
</g>
</g>
<!-- Node41 -->
<g id="Node000041" class="node">
<title>Node41</title>
<g id="a_Node000041"><a xlink:title=" ">
<polygon fill="#e0e0e0" stroke="#999999" points="2451,-250 2379,-250 2379,-231 2451,-231 2451,-250"/>
<text text-anchor="middle" x="2415" y="-238" font-family="Helvetica,sans-Serif" font-size="10.00">netinet/in.h</text>
</a>
</g>
</g>
<!-- Node38&#45;&gt;Node41 -->
<g id="edge43_Node000038_Node000041" class="edge">
<title>Node38&#45;&gt;Node41</title>
<g id="a_edge43_Node000038_Node000041"><a xlink:title=" ">
<path fill="none" stroke="#63b8ff" d="M2174.05,-285.96C2220.91,-277.44 2295.18,-263.89 2368.75,-250.22"/>
<polygon fill="#63b8ff" stroke="#63b8ff" points="2369.46,-253.65 2378.65,-248.38 2368.18,-246.77 2369.46,-253.65"/>
</a>
</g>
</g>
<!-- Node42 -->
<g id="Node000042" class="node">
<title>Node42</title>
<g id="a_Node000042"><a xlink:title=" ">
<polygon fill="#e0e0e0" stroke="#999999" points="2538.5,-250 2469.5,-250 2469.5,-231 2538.5,-231 2538.5,-250"/>
<text text-anchor="middle" x="2504" y="-238" font-family="Helvetica,sans-Serif" font-size="10.00">arpa/inet.h</text>
</a>
</g>
</g>
<!-- Node38&#45;&gt;Node42 -->
<g id="edge44_Node000038_Node000042" class="edge">
<title>Node38&#45;&gt;Node42</title>
<g id="a_edge44_Node000038_Node000042"><a xlink:title=" ">
<path fill="none" stroke="#63b8ff" d="M2188.01,-286.78C2265.08,-276.95 2394.49,-260.2 2459.25,-250.01"/>
<polygon fill="#63b8ff" stroke="#63b8ff" points="2460.13,-253.41 2469.45,-248.37 2459.02,-246.5 2460.13,-253.41"/>
</a>
</g>
</g>
<!-- Node43 -->
<g id="Node000043" class="node">
<title>Node43</title>
<g id="a_Node000043"><a xlink:title=" ">
<polygon fill="#e0e0e0" stroke="#999999" points="2609.5,-250 2556.5,-250 2556.5,-231 2609.5,-231 2609.5,-250"/>
<text text-anchor="middle" x="2583" y="-238" font-family="Helvetica,sans-Serif" font-size="10.00">netdb.h</text>
</a>
</g>
</g>
<!-- Node38&#45;&gt;Node43 -->
<g id="edge45_Node000038_Node000043" class="edge">
<title>Node38&#45;&gt;Node43</title>
<g id="a_edge45_Node000038_Node000043"><a xlink:title=" ">
<path fill="none" stroke="#63b8ff" d="M2188.18,-287.11C2191.5,-286.73 2194.79,-286.36 2198,-286 2350.08,-269.08 2392.1,-276.19 2546.02,-250.14"/>
<polygon fill="#63b8ff" stroke="#63b8ff" points="2547.06,-253.51 2556.32,-248.37 2545.88,-246.61 2547.06,-253.51"/>
</a>
</g>
</g>
<!-- Node44 -->
<g id="Node000044" class="node">
<title>Node44</title>
<g id="a_Node000044"><a xlink:title=" ">
<polygon fill="#e0e0e0" stroke="#999999" points="2684,-250 2628,-250 2628,-231 2684,-231 2684,-250"/>
<text text-anchor="middle" x="2656" y="-238" font-family="Helvetica,sans-Serif" font-size="10.00">unistd.h</text>
</a>
</g>
</g>
<!-- Node38&#45;&gt;Node44 -->
<g id="edge46_Node000038_Node000044" class="edge">
<title>Node38&#45;&gt;Node44</title>
<g id="a_edge46_Node000038_Node000044"><a xlink:title=" ">
<path fill="none" stroke="#63b8ff" d="M2188.18,-287.04C2191.5,-286.68 2194.79,-286.33 2198,-286 2381.53,-267.17 2431.72,-278.67 2617.68,-249.99"/>
<polygon fill="#63b8ff" stroke="#63b8ff" points="2618.46,-253.41 2627.8,-248.41 2617.38,-246.49 2618.46,-253.41"/>
</a>
</g>
</g>
<!-- Node45 -->
<g id="Node000045" class="node">
<title>Node45</title>
<g id="a_Node000045"><a xlink:href="server_8h.html" target="_top" xlink:title=" ">
<polygon fill="white" stroke="#666666" points="1991,-250 1935,-250 1935,-231 1991,-231 1991,-250"/>
<text text-anchor="middle" x="1963" y="-238" font-family="Helvetica,sans-Serif" font-size="10.00">server.h</text>
</a>
</g>
</g>
<!-- Node38&#45;&gt;Node45 -->
<g id="edge47_Node000038_Node000045" class="edge">
<title>Node38&#45;&gt;Node45</title>
<g id="a_edge47_Node000038_Node000045"><a xlink:title=" ">
<path fill="none" stroke="#63b8ff" d="M2100.65,-285.98C2073.24,-277.13 2030.11,-263.19 1999.44,-253.28"/>
<polygon fill="#63b8ff" stroke="#63b8ff" points="2000.15,-249.83 1989.56,-250.08 1998,-256.49 2000.15,-249.83"/>
</a>
</g>
</g>
<!-- Node46 -->
<g id="Node000046" class="node">
<title>Node46</title>
<g id="a_Node000046"><a xlink:href="io_2socket_2client_8h.html" target="_top" xlink:title=" ">
<polygon fill="white" stroke="#666666" points="2062.5,-250 2009.5,-250 2009.5,-231 2062.5,-231 2062.5,-250"/>
<text text-anchor="middle" x="2036" y="-238" font-family="Helvetica,sans-Serif" font-size="10.00">client.h</text>
</a>
</g>
</g>
<!-- Node38&#45;&gt;Node46 -->
<g id="edge48_Node000038_Node000046" class="edge">
<title>Node38&#45;&gt;Node46</title>
<g id="a_edge48_Node000038_Node000046"><a xlink:title=" ">
<path fill="none" stroke="#63b8ff" d="M2112.38,-285.98C2098.14,-277.69 2076.25,-264.94 2059.55,-255.22"/>
<polygon fill="#63b8ff" stroke="#63b8ff" points="2061.29,-252.18 2050.89,-250.17 2057.77,-258.23 2061.29,-252.18"/>
</a>
</g>
</g>
<!-- Node47 -->
<g id="Node000047" class="node">
<title>Node47</title>
<g id="a_Node000047"><a xlink:href="network__utils_8h.html" target="_top" xlink:title=" ">
<polygon fill="white" stroke="#666666" points="2173,-250 2081,-250 2081,-231 2173,-231 2173,-250"/>
<text text-anchor="middle" x="2127" y="-238" font-family="Helvetica,sans-Serif" font-size="10.00">network_utils.h</text>
</a>
</g>
</g>
<!-- Node38&#45;&gt;Node47 -->
<g id="edge49_Node000038_Node000047" class="edge">
<title>Node38&#45;&gt;Node47</title>
<g id="a_edge49_Node000038_Node000047"><a xlink:title=" ">
<path fill="none" stroke="#63b8ff" d="M2127,-285.75C2127,-278.8 2127,-268.85 2127,-260.13"/>
<polygon fill="#63b8ff" stroke="#63b8ff" points="2130.5,-260.09 2127,-250.09 2123.5,-260.09 2130.5,-260.09"/>
</a>
</g>
</g>
<!-- Node48&#45;&gt;Node2 -->
<g id="edge53_Node000048_Node000002" class="edge">
<title>Node48&#45;&gt;Node2</title>
<g id="a_edge53_Node000048_Node000002"><a xlink:title=" ">
<path fill="none" stroke="#63b8ff" d="M1680.35,-292.46C1567.74,-288.14 1316.23,-276.21 1106,-250 996.98,-236.41 870.55,-211.39 802.5,-197.15"/>
<polygon fill="#63b8ff" stroke="#63b8ff" points="803,-193.68 792.49,-195.04 801.56,-200.53 803,-193.68"/>
</a>
</g>
</g>
<!-- Node49 -->
<g id="Node000049" class="node">
<title>Node49</title>
<g id="a_Node000049"><a xlink:href="classes__types_8h.html" target="_top" xlink:title=" ">
<polygon fill="white" stroke="#666666" points="1917,-250 1823,-250 1823,-231 1917,-231 1917,-250"/>
<text text-anchor="middle" x="1870" y="-238" font-family="Helvetica,sans-Serif" font-size="10.00">classes_types.h</text>
</a>
</g>
</g>
<!-- Node48&#45;&gt;Node49 -->
<g id="edge51_Node000048_Node000049" class="edge">
<title>Node48&#45;&gt;Node49</title>
<g id="a_edge51_Node000048_Node000049"><a xlink:title=" ">
<path fill="none" stroke="#63b8ff" d="M1760.89,-285.98C1782.08,-277.34 1815.13,-263.87 1839.3,-254.02"/>
<polygon fill="#63b8ff" stroke="#63b8ff" points="1840.79,-257.19 1848.73,-250.17 1838.15,-250.7 1840.79,-257.19"/>
</a>
</g>
</g>
<!-- Node50 -->
<g id="Node000050" class="node">
<title>Node50</title>
<g id="a_Node000050"><a xlink:title=" ">
<polygon fill="#e0e0e0" stroke="#999999" points="1804.5,-250 1705.5,-250 1705.5,-231 1804.5,-231 1804.5,-250"/>
<text text-anchor="middle" x="1755" y="-238" font-family="Helvetica,sans-Serif" font-size="10.00">import_classes.h</text>
</a>
</g>
</g>
<!-- Node48&#45;&gt;Node50 -->
<g id="edge52_Node000048_Node000050" class="edge">
<title>Node48&#45;&gt;Node50</title>
<g id="a_edge52_Node000048_Node000050"><a xlink:title=" ">
<path fill="none" stroke="#63b8ff" d="M1742.48,-285.75C1744.46,-278.72 1747.32,-268.62 1749.81,-259.84"/>
<polygon fill="#63b8ff" stroke="#63b8ff" points="1753.21,-260.66 1752.57,-250.09 1746.48,-258.76 1753.21,-260.66"/>
</a>
</g>
</g>
<!-- Node51&#45;&gt;Node5 -->
<g id="edge55_Node000051_Node000005" class="edge">
<title>Node51&#45;&gt;Node5</title>
<g id="a_edge55_Node000051_Node000005"><a xlink:title=" ">
<path fill="none" stroke="#63b8ff" d="M269.36,-177.6C217.97,-170.38 138.48,-157.64 71,-140 68.51,-139.35 65.95,-138.61 63.39,-137.83"/>
<polygon fill="#63b8ff" stroke="#63b8ff" points="64.24,-134.43 53.65,-134.64 62.06,-141.08 64.24,-134.43"/>
</a>
</g>
</g>
</g>
</svg>
