<?xml version="1.0" encoding="UTF-8" standalone="no"?>
<!DOCTYPE svg PUBLIC "-//W3C//DTD SVG 1.1//EN"
 "http://www.w3.org/Graphics/SVG/1.1/DTD/svg11.dtd">
<!-- Generated by graphviz version 2.43.0 (0)
 -->
<!-- Title: Area Pages: 1 -->
<svg width="419pt" height="162pt"
 viewBox="0.00 0.00 419.44 162.00" xmlns="http://www.w3.org/2000/svg" xmlns:xlink="http://www.w3.org/1999/xlink">
<g id="graph0" class="graph" transform="scale(1 1) rotate(0) translate(4 158)">
<title>Area</title>
<!-- Node1 -->
<g id="Node000001" class="node">
<title>Node1</title>
<g id="a_Node000001"><a xlink:title="Represents an area with collision shapes and nodes.">
<polygon fill="#999999" stroke="#666666" points="161.94,-19 122.94,-19 122.94,0 161.94,0 161.94,-19"/>
<text text-anchor="middle" x="142.44" y="-7" font-family="Helvetica,sans-Serif" font-size="10.00">Area</text>
</a>
</g>
</g>
<!-- Node2 -->
<g id="Node000002" class="node">
<title>Node2</title>
<g id="a_Node000002"><a xlink:href="classPhysicalNode.html" target="_top" xlink:title=" ">
<polygon fill="white" stroke="#666666" points="183.94,-85 100.94,-85 100.94,-66 183.94,-66 183.94,-85"/>
<text text-anchor="middle" x="142.44" y="-73" font-family="Helvetica,sans-Serif" font-size="10.00">PhysicalNode</text>
</a>
</g>
</g>
<!-- Node2&#45;&gt;Node1 -->
<g id="edge1_Node000001_Node000002" class="edge">
<title>Node2&#45;&gt;Node1</title>
<g id="a_edge1_Node000001_Node000002"><a xlink:title=" ">
<path fill="none" stroke="#63b8ff" d="M142.44,-55.58C142.44,-43.63 142.44,-28.72 142.44,-19.41"/>
<polygon fill="#63b8ff" stroke="#63b8ff" points="138.94,-55.87 142.44,-65.87 145.94,-55.87 138.94,-55.87"/>
</a>
</g>
</g>
<!-- Node3 -->
<g id="Node000003" class="node">
<title>Node3</title>
<g id="a_Node000003"><a xlink:href="classNode.html" target="_top" xlink:title="Represents a node in the tree structure.">
<polygon fill="white" stroke="#666666" points="223.44,-152.5 181.44,-152.5 181.44,-133.5 223.44,-133.5 223.44,-152.5"/>
<text text-anchor="middle" x="202.44" y="-140.5" font-family="Helvetica,sans-Serif" font-size="10.00">Node</text>
</a>
</g>
</g>
<!-- Node3&#45;&gt;Node1 -->
<g id="edge6_Node000001_Node000003" class="edge">
<title>Node3&#45;&gt;Node1</title>
<g id="a_edge6_Node000001_Node000003"><a xlink:title=" ">
<path fill="none" stroke="#9a32cd" stroke-dasharray="5,2" d="M171.13,-137.49C120.98,-129.55 26.25,-111.39 6.44,-85 -26.29,-41.4 77.85,-20.16 122.81,-13.19"/>
<polygon fill="#9a32cd" stroke="#9a32cd" points="170.69,-140.96 181.11,-139.03 171.76,-134.05 170.69,-140.96"/>
</a>
</g>
<text text-anchor="middle" x="48.94" y="-73" font-family="Helvetica,sans-Serif" font-size="10.00" fill="grey"> collisionsShapes</text>
</g>
<!-- Node3&#45;&gt;Node2 -->
<g id="edge2_Node000002_Node000003" class="edge">
<title>Node3&#45;&gt;Node2</title>
<g id="a_edge2_Node000002_Node000003"><a xlink:title=" ">
<path fill="none" stroke="#63b8ff" d="M187.6,-125.8C175.87,-113 159.94,-95.61 150.47,-85.27"/>
<polygon fill="#63b8ff" stroke="#63b8ff" points="185.26,-128.43 194.59,-133.44 190.42,-123.7 185.26,-128.43"/>
</a>
</g>
</g>
<!-- Node3&#45;&gt;Node3 -->
<g id="edge3_Node000003_Node000003" class="edge">
<title>Node3&#45;&gt;Node3</title>
<g id="a_edge3_Node000003_Node000003"><a xlink:title=" ">
<path fill="none" stroke="#9a32cd" stroke-dasharray="5,2" d="M233.84,-148.74C238.38,-147.83 241.44,-145.91 241.44,-143 241.44,-138.22 233.21,-136.13 223.7,-136.72"/>
<polygon fill="#9a32cd" stroke="#9a32cd" points="233.5,-145.26 223.7,-149.28 233.87,-152.25 233.5,-145.26"/>
</a>
</g>
<text text-anchor="middle" x="262.94" y="-146" font-family="Helvetica,sans-Serif" font-size="10.00" fill="grey"> children</text>
<text text-anchor="middle" x="262.94" y="-135" font-family="Helvetica,sans-Serif" font-size="10.00" fill="grey">parent</text>
</g>
<!-- Node4 -->
<g id="Node000004" class="node">
<title>Node4</title>
<g id="a_Node000004"><a xlink:href="unionBehaviorAttribute.html" target="_top" xlink:title=" ">
<polygon fill="white" stroke="#666666" points="304.94,-85 201.94,-85 201.94,-66 304.94,-66 304.94,-85"/>
<text text-anchor="middle" x="253.44" y="-73" font-family="Helvetica,sans-Serif" font-size="10.00">BehaviorAttribute</text>
</a>
</g>
</g>
<!-- Node3&#45;&gt;Node4 -->
<g id="edge5_Node000004_Node000003" class="edge">
<title>Node3&#45;&gt;Node4</title>
<g id="a_edge5_Node000004_Node000003"><a xlink:title=" ">
<path fill="none" stroke="#9a32cd" stroke-dasharray="5,2" d="M196.56,-123.36C195.5,-116.51 195.71,-108.98 199.44,-103 204.57,-94.76 213.1,-89.01 221.89,-85.02"/>
<polygon fill="#9a32cd" stroke="#9a32cd" points="193.2,-124.34 198.96,-133.23 200,-122.69 193.2,-124.34"/>
</a>
</g>
<text text-anchor="middle" x="213.44" y="-106" font-family="Helvetica,sans-Serif" font-size="10.00" fill="grey"> node</text>
</g>
<!-- Node5 -->
<g id="Node000005" class="node">
<title>Node5</title>
<g id="a_Node000005"><a xlink:href="structCollectedNode.html" target="_top" xlink:title="Represents a node collected by an area.">
<polygon fill="white" stroke="#666666" points="411.44,-85 323.44,-85 323.44,-66 411.44,-66 411.44,-85"/>
<text text-anchor="middle" x="367.44" y="-73" font-family="Helvetica,sans-Serif" font-size="10.00">CollectedNode</text>
</a>
</g>
</g>
<!-- Node3&#45;&gt;Node5 -->
<g id="edge8_Node000005_Node000003" class="edge">
<title>Node3&#45;&gt;Node5</title>
<g id="a_edge8_Node000005_Node000003"><a xlink:title=" ">
<path fill="none" stroke="#9a32cd" stroke-dasharray="5,2" d="M233.27,-133.01C249.81,-127.93 270.44,-121.17 288.44,-114 310.58,-105.18 335.28,-93.08 351.07,-85.03"/>
<polygon fill="#9a32cd" stroke="#9a32cd" points="232.12,-129.71 223.56,-135.95 234.14,-136.41 232.12,-129.71"/>
</a>
</g>
<text text-anchor="middle" x="326.44" y="-106" font-family="Helvetica,sans-Serif" font-size="10.00" fill="grey"> node</text>
</g>
<!-- Node4&#45;&gt;Node3 -->
<g id="edge4_Node000003_Node000004" class="edge">
<title>Node4&#45;&gt;Node3</title>
<g id="a_edge4_Node000003_Node000004"><a xlink:title=" ">
<path fill="none" stroke="#9a32cd" stroke-dasharray="5,2" d="M244.2,-94.49C240.58,-100.9 236.15,-108.01 231.44,-114 225.9,-121.04 218.65,-128.04 212.78,-133.28"/>
<polygon fill="#9a32cd" stroke="#9a32cd" points="247.51,-95.73 249.17,-85.27 241.34,-92.41 247.51,-95.73"/>
</a>
</g>
<text text-anchor="middle" x="261.44" y="-106" font-family="Helvetica,sans-Serif" font-size="10.00" fill="grey"> attribute</text>
</g>
<!-- Node5&#45;&gt;Node1 -->
<g id="edge7_Node000001_Node000005" class="edge">
<title>Node5&#45;&gt;Node1</title>
<g id="a_edge7_Node000001_Node000005"><a xlink:title=" ">
<path fill="none" stroke="#9a32cd" stroke-dasharray="5,2" d="M327.22,-63.06C278.62,-49.24 198.79,-26.53 162.05,-16.08"/>
<polygon fill="#9a32cd" stroke="#9a32cd" points="326.52,-66.5 337.09,-65.87 328.43,-59.77 326.52,-66.5"/>
</a>
</g>
<text text-anchor="middle" x="306.94" y="-40" font-family="Helvetica,sans-Serif" font-size="10.00" fill="grey"> collectedNodes</text>
</g>
</g>
</svg>
