<?xml version="1.0" encoding="UTF-8" standalone="no"?>
<!DOCTYPE svg PUBLIC "-//W3C//DTD SVG 1.1//EN"
 "http://www.w3.org/Graphics/SVG/1.1/DTD/svg11.dtd">
<!-- Generated by graphviz version 2.43.0 (0)
 -->
<!-- Title: Body Pages: 1 -->
<svg width="212pt" height="152pt"
 viewBox="0.00 0.00 212.00 152.00" xmlns="http://www.w3.org/2000/svg" xmlns:xlink="http://www.w3.org/1999/xlink">
<g id="graph0" class="graph" transform="scale(1 1) rotate(0) translate(4 148)">
<title>Body</title>
<!-- Node1 -->
<g id="Node000001" class="node">
<title>Node1</title>
<g id="a_Node000001"><a xlink:title=" ">
<polygon fill="#999999" stroke="#666666" points="62,-19 21,-19 21,0 62,0 62,-19"/>
<text text-anchor="middle" x="41.5" y="-7" font-family="Helvetica,sans-Serif" font-size="10.00">Body</text>
</a>
</g>
</g>
<!-- Node2 -->
<g id="Node000002" class="node">
<title>Node2</title>
<g id="a_Node000002"><a xlink:href="classPhysicalNode.html" target="_top" xlink:title=" ">
<polygon fill="white" stroke="#666666" points="83,-75 0,-75 0,-56 83,-56 83,-75"/>
<text text-anchor="middle" x="41.5" y="-63" font-family="Helvetica,sans-Serif" font-size="10.00">PhysicalNode</text>
</a>
</g>
</g>
<!-- Node2&#45;&gt;Node1 -->
<g id="edge1_Node000001_Node000002" class="edge">
<title>Node2&#45;&gt;Node1</title>
<g id="a_edge1_Node000001_Node000002"><a xlink:title=" ">
<path fill="none" stroke="#63b8ff" d="M41.5,-45.3C41.5,-36.41 41.5,-26.28 41.5,-19.25"/>
<polygon fill="#63b8ff" stroke="#63b8ff" points="38,-45.58 41.5,-55.58 45,-45.58 38,-45.58"/>
</a>
</g>
</g>
<!-- Node3 -->
<g id="Node000003" class="node">
<title>Node3</title>
<g id="a_Node000003"><a xlink:href="classNode.html" target="_top" xlink:title="Represents a node in the tree structure.">
<polygon fill="white" stroke="#666666" points="122.5,-142.5 80.5,-142.5 80.5,-123.5 122.5,-123.5 122.5,-142.5"/>
<text text-anchor="middle" x="101.5" y="-130.5" font-family="Helvetica,sans-Serif" font-size="10.00">Node</text>
</a>
</g>
</g>
<!-- Node3&#45;&gt;Node2 -->
<g id="edge2_Node000002_Node000003" class="edge">
<title>Node3&#45;&gt;Node2</title>
<g id="a_edge2_Node000002_Node000003"><a xlink:title=" ">
<path fill="none" stroke="#63b8ff" d="M86.66,-115.8C74.93,-103 59.01,-85.61 49.54,-75.27"/>
<polygon fill="#63b8ff" stroke="#63b8ff" points="84.32,-118.43 93.66,-123.44 89.48,-113.7 84.32,-118.43"/>
</a>
</g>
</g>
<!-- Node3&#45;&gt;Node3 -->
<g id="edge3_Node000003_Node000003" class="edge">
<title>Node3&#45;&gt;Node3</title>
<g id="a_edge3_Node000003_Node000003"><a xlink:title=" ">
<path fill="none" stroke="#9a32cd" stroke-dasharray="5,2" d="M132.91,-138.74C137.45,-137.83 140.5,-135.91 140.5,-133 140.5,-128.22 132.27,-126.13 122.76,-126.72"/>
<polygon fill="#9a32cd" stroke="#9a32cd" points="132.56,-135.26 122.76,-139.28 132.93,-142.25 132.56,-135.26"/>
</a>
</g>
<text text-anchor="middle" x="162" y="-136" font-family="Helvetica,sans-Serif" font-size="10.00" fill="grey"> children</text>
<text text-anchor="middle" x="162" y="-125" font-family="Helvetica,sans-Serif" font-size="10.00" fill="grey">parent</text>
</g>
<!-- Node4 -->
<g id="Node000004" class="node">
<title>Node4</title>
<g id="a_Node000004"><a xlink:href="unionBehaviorAttribute.html" target="_top" xlink:title=" ">
<polygon fill="white" stroke="#666666" points="204,-75 101,-75 101,-56 204,-56 204,-75"/>
<text text-anchor="middle" x="152.5" y="-63" font-family="Helvetica,sans-Serif" font-size="10.00">BehaviorAttribute</text>
</a>
</g>
</g>
<!-- Node3&#45;&gt;Node4 -->
<g id="edge5_Node000004_Node000003" class="edge">
<title>Node3&#45;&gt;Node4</title>
<g id="a_edge5_Node000004_Node000003"><a xlink:title=" ">
<path fill="none" stroke="#9a32cd" stroke-dasharray="5,2" d="M95.62,-113.36C94.56,-106.51 94.78,-98.98 98.5,-93 103.64,-84.76 112.17,-79.01 120.95,-75.02"/>
<polygon fill="#9a32cd" stroke="#9a32cd" points="92.26,-114.34 98.02,-123.23 99.06,-112.69 92.26,-114.34"/>
</a>
</g>
<text text-anchor="middle" x="112.5" y="-96" font-family="Helvetica,sans-Serif" font-size="10.00" fill="grey"> node</text>
</g>
<!-- Node4&#45;&gt;Node3 -->
<g id="edge4_Node000003_Node000004" class="edge">
<title>Node4&#45;&gt;Node3</title>
<g id="a_edge4_Node000003_Node000004"><a xlink:title=" ">
<path fill="none" stroke="#9a32cd" stroke-dasharray="5,2" d="M143.26,-84.49C139.64,-90.9 135.22,-98.01 130.5,-104 124.96,-111.04 117.71,-118.04 111.85,-123.28"/>
<polygon fill="#9a32cd" stroke="#9a32cd" points="146.57,-85.73 148.23,-75.27 140.41,-82.41 146.57,-85.73"/>
</a>
</g>
<text text-anchor="middle" x="160.5" y="-96" font-family="Helvetica,sans-Serif" font-size="10.00" fill="grey"> attribute</text>
</g>
</g>
</svg>
