<?xml version="1.0" encoding="UTF-8" standalone="no"?>
<!DOCTYPE svg PUBLIC "-//W3C//DTD SVG 1.1//EN"
 "http://www.w3.org/Graphics/SVG/1.1/DTD/svg11.dtd">
<!-- Generated by graphviz version 2.43.0 (0)
 -->
<!-- Title: Button Pages: 1 -->
<svg width="670pt" height="218pt"
 viewBox="0.00 0.00 670.00 218.00" xmlns="http://www.w3.org/2000/svg" xmlns:xlink="http://www.w3.org/1999/xlink">
<g id="graph0" class="graph" transform="scale(1 1) rotate(0) translate(4 214)">
<title>Button</title>
<!-- Node1 -->
<g id="Node000001" class="node">
<title>Node1</title>
<g id="a_Node000001"><a xlink:title="Represents a button.">
<polygon fill="#999999" stroke="#666666" points="254,-210 205,-210 205,-191 254,-191 254,-210"/>
<text text-anchor="middle" x="229.5" y="-198" font-family="Helvetica,sans-Serif" font-size="10.00">Button</text>
</a>
</g>
</g>
<!-- Node2 -->
<g id="Node000002" class="node">
<title>Node2</title>
<g id="a_Node000002"><a xlink:href="classFrame.html" target="_top" xlink:title="Represents a frame.">
<polygon fill="white" stroke="#666666" points="243,-85 196,-85 196,-66 243,-66 243,-85"/>
<text text-anchor="middle" x="219.5" y="-73" font-family="Helvetica,sans-Serif" font-size="10.00">Frame</text>
</a>
</g>
</g>
<!-- Node1&#45;&gt;Node2 -->
<g id="edge11_Node000002_Node000001" class="edge">
<title>Node1&#45;&gt;Node2</title>
<g id="a_edge11_Node000002_Node000001"><a xlink:title=" ">
<path fill="none" stroke="#9a32cd" stroke-dasharray="5,2" d="M194.79,-198.18C163.6,-194.93 119.44,-184.76 97.5,-154 69.38,-114.57 153,-90.54 195.86,-81.11"/>
<polygon fill="#9a32cd" stroke="#9a32cd" points="194.56,-201.67 204.82,-199.04 195.15,-194.7 194.56,-201.67"/>
</a>
</g>
<text text-anchor="middle" x="115" y="-140.5" font-family="Helvetica,sans-Serif" font-size="10.00" fill="grey"> button</text>
</g>
<!-- Node11 -->
<g id="Node000011" class="node">
<title>Node11</title>
<g id="a_Node000011"><a xlink:href="classRadioButton.html" target="_top" xlink:title="Represents a radio button.">
<polygon fill="white" stroke="#666666" points="219,-152.5 142,-152.5 142,-133.5 219,-133.5 219,-152.5"/>
<text text-anchor="middle" x="180.5" y="-140.5" font-family="Helvetica,sans-Serif" font-size="10.00">RadioButton</text>
</a>
</g>
</g>
<!-- Node1&#45;&gt;Node11 -->
<g id="edge19_Node000011_Node000001" class="edge">
<title>Node1&#45;&gt;Node11</title>
<g id="a_edge19_Node000011_Node000001"><a xlink:title=" ">
<path fill="none" stroke="#63b8ff" d="M215.09,-183.18C206.32,-173.24 195.45,-160.93 188.26,-152.79"/>
<polygon fill="#63b8ff" stroke="#63b8ff" points="212.6,-185.65 221.84,-190.83 217.85,-181.02 212.6,-185.65"/>
</a>
</g>
</g>
<!-- Node12 -->
<g id="Node000012" class="node">
<title>Node12</title>
<g id="a_Node000012"><a xlink:href="classSlider.html" target="_top" xlink:title=" ">
<polygon fill="white" stroke="#666666" points="281.5,-152.5 237.5,-152.5 237.5,-133.5 281.5,-133.5 281.5,-152.5"/>
<text text-anchor="middle" x="259.5" y="-140.5" font-family="Helvetica,sans-Serif" font-size="10.00">Slider</text>
</a>
</g>
</g>
<!-- Node1&#45;&gt;Node12 -->
<g id="edge21_Node000012_Node000001" class="edge">
<title>Node1&#45;&gt;Node12</title>
<g id="a_edge21_Node000012_Node000001"><a xlink:title=" ">
<path fill="none" stroke="#63b8ff" d="M238.97,-181.98C244.22,-172.26 250.52,-160.61 254.75,-152.79"/>
<polygon fill="#63b8ff" stroke="#63b8ff" points="235.86,-180.37 234.19,-190.83 242.02,-183.7 235.86,-180.37"/>
</a>
</g>
</g>
<!-- Node2&#45;&gt;Node1 -->
<g id="edge1_Node000001_Node000002" class="edge">
<title>Node2&#45;&gt;Node1</title>
<g id="a_edge1_Node000001_Node000002"><a xlink:title=" ">
<path fill="none" stroke="#63b8ff" d="M252.98,-84.81C263.32,-88.81 273.95,-94.63 281.5,-103 290.54,-113.02 288.48,-118.66 290.5,-132 291.97,-141.67 294.88,-145.26 290.5,-154 281.91,-171.12 263.48,-183.45 249.11,-190.91"/>
<polygon fill="#63b8ff" stroke="#63b8ff" points="253.87,-81.41 243.28,-81.5 251.61,-88.04 253.87,-81.41"/>
</a>
</g>
</g>
<!-- Node5 -->
<g id="Node000005" class="node">
<title>Node5</title>
<g id="a_Node000005"><a xlink:href="structTheme.html" target="_top" xlink:title="Represents a theme.">
<polygon fill="white" stroke="#666666" points="488.5,-19 438.5,-19 438.5,0 488.5,0 488.5,-19"/>
<text text-anchor="middle" x="463.5" y="-7" font-family="Helvetica,sans-Serif" font-size="10.00">Theme</text>
</a>
</g>
</g>
<!-- Node2&#45;&gt;Node5 -->
<g id="edge8_Node000005_Node000002" class="edge">
<title>Node2&#45;&gt;Node5</title>
<g id="a_edge8_Node000005_Node000002"><a xlink:title=" ">
<path fill="none" stroke="#9a32cd" stroke-dasharray="5,2" d="M253.17,-73.99C307.19,-72.6 410.23,-67.4 440.5,-48 450.92,-41.32 457.36,-28.08 460.69,-19.25"/>
<polygon fill="#9a32cd" stroke="#9a32cd" points="252.97,-70.49 243.05,-74.22 253.13,-77.49 252.97,-70.49"/>
</a>
</g>
<text text-anchor="middle" x="468" y="-40" font-family="Helvetica,sans-Serif" font-size="10.00" fill="grey"> parent</text>
</g>
<!-- Node7 -->
<g id="Node000007" class="node">
<title>Node7</title>
<g id="a_Node000007"><a xlink:href="classLabel.html" target="_top" xlink:title="Represents a label.">
<polygon fill="white" stroke="#666666" points="43,-19 0,-19 0,0 43,0 43,-19"/>
<text text-anchor="middle" x="21.5" y="-7" font-family="Helvetica,sans-Serif" font-size="10.00">Label</text>
</a>
</g>
</g>
<!-- Node2&#45;&gt;Node7 -->
<g id="edge10_Node000007_Node000002" class="edge">
<title>Node2&#45;&gt;Node7</title>
<g id="a_edge10_Node000007_Node000002"><a xlink:title=" ">
<path fill="none" stroke="#63b8ff" d="M185.86,-75.42C151.17,-74.97 96.51,-70.26 55.5,-48 42.99,-41.21 32.7,-28 26.82,-19.21"/>
<polygon fill="#63b8ff" stroke="#63b8ff" points="185.94,-78.92 195.95,-75.44 185.96,-71.92 185.94,-78.92"/>
</a>
</g>
</g>
<!-- Node8 -->
<g id="Node000008" class="node">
<title>Node8</title>
<g id="a_Node000008"><a xlink:href="classInputArea.html" target="_top" xlink:title="Represents an input area.">
<polygon fill="white" stroke="#666666" points="127.5,-19 63.5,-19 63.5,0 127.5,0 127.5,-19"/>
<text text-anchor="middle" x="95.5" y="-7" font-family="Helvetica,sans-Serif" font-size="10.00">InputArea</text>
</a>
</g>
</g>
<!-- Node2&#45;&gt;Node8 -->
<g id="edge13_Node000008_Node000002" class="edge">
<title>Node2&#45;&gt;Node8</title>
<g id="a_edge13_Node000008_Node000002"><a xlink:title=" ">
<path fill="none" stroke="#63b8ff" d="M185.78,-71.25C165.64,-67.95 140.39,-61.32 121.5,-48 111.14,-40.69 103.58,-27.87 99.36,-19.28"/>
<polygon fill="#63b8ff" stroke="#63b8ff" points="185.39,-74.73 195.79,-72.68 186.39,-67.8 185.39,-74.73"/>
</a>
</g>
</g>
<!-- Node9 -->
<g id="Node000009" class="node">
<title>Node9</title>
<g id="a_Node000009"><a xlink:href="classSelectList.html" target="_top" xlink:title="Represents a selectable list.">
<polygon fill="white" stroke="#666666" points="222.5,-19 158.5,-19 158.5,0 222.5,0 222.5,-19"/>
<text text-anchor="middle" x="190.5" y="-7" font-family="Helvetica,sans-Serif" font-size="10.00">SelectList</text>
</a>
</g>
</g>
<!-- Node2&#45;&gt;Node9 -->
<g id="edge15_Node000009_Node000002" class="edge">
<title>Node2&#45;&gt;Node9</title>
<g id="a_edge15_Node000009_Node000002"><a xlink:title=" ">
<path fill="none" stroke="#63b8ff" d="M205.89,-57.38C203.89,-54.36 202,-51.17 200.5,-48 196.07,-38.62 193.35,-26.95 191.89,-19.15"/>
<polygon fill="#63b8ff" stroke="#63b8ff" points="203.23,-59.67 211.95,-65.69 208.88,-55.55 203.23,-59.67"/>
</a>
</g>
</g>
<!-- Node10 -->
<g id="Node000010" class="node">
<title>Node10</title>
<g id="a_Node000010"><a xlink:href="classImageFrame.html" target="_top" xlink:title="Represents an image frame.">
<polygon fill="white" stroke="#666666" points="339.5,-19 261.5,-19 261.5,0 339.5,0 339.5,-19"/>
<text text-anchor="middle" x="300.5" y="-7" font-family="Helvetica,sans-Serif" font-size="10.00">ImageFrame</text>
</a>
</g>
</g>
<!-- Node2&#45;&gt;Node10 -->
<g id="edge17_Node000010_Node000002" class="edge">
<title>Node2&#45;&gt;Node10</title>
<g id="a_edge17_Node000010_Node000002"><a xlink:title=" ">
<path fill="none" stroke="#63b8ff" d="M243.33,-60.64C249.42,-56.78 255.84,-52.43 261.5,-48 273.04,-38.97 285,-27.02 292.58,-19.06"/>
<polygon fill="#63b8ff" stroke="#63b8ff" points="241.47,-57.68 234.77,-65.89 245.13,-63.64 241.47,-57.68"/>
</a>
</g>
</g>
<!-- Node3 -->
<g id="Node000003" class="node">
<title>Node3</title>
<g id="a_Node000003"><a xlink:href="classNode.html" target="_top" xlink:title="Represents a node in the tree structure.">
<polygon fill="white" stroke="#666666" points="580.5,-152.5 538.5,-152.5 538.5,-133.5 580.5,-133.5 580.5,-152.5"/>
<text text-anchor="middle" x="559.5" y="-140.5" font-family="Helvetica,sans-Serif" font-size="10.00">Node</text>
</a>
</g>
</g>
<!-- Node3&#45;&gt;Node2 -->
<g id="edge2_Node000002_Node000003" class="edge">
<title>Node3&#45;&gt;Node2</title>
<g id="a_edge2_Node000002_Node000003"><a xlink:title=" ">
<path fill="none" stroke="#63b8ff" d="M528.5,-136.03C461.19,-123.06 302.95,-92.58 243.04,-81.03"/>
<polygon fill="#63b8ff" stroke="#63b8ff" points="528.01,-139.5 538.49,-137.95 529.33,-132.62 528.01,-139.5"/>
</a>
</g>
</g>
<!-- Node3&#45;&gt;Node3 -->
<g id="edge3_Node000003_Node000003" class="edge">
<title>Node3&#45;&gt;Node3</title>
<g id="a_edge3_Node000003_Node000003"><a xlink:title=" ">
<path fill="none" stroke="#9a32cd" stroke-dasharray="5,2" d="M590.91,-147.73C595.45,-146.98 598.5,-145.4 598.5,-143 598.5,-139.06 590.27,-137.34 580.76,-137.83"/>
<polygon fill="#9a32cd" stroke="#9a32cd" points="590.6,-144.24 580.76,-148.17 590.9,-151.23 590.6,-144.24"/>
</a>
</g>
<text text-anchor="middle" x="620" y="-146" font-family="Helvetica,sans-Serif" font-size="10.00" fill="grey"> children</text>
<text text-anchor="middle" x="620" y="-135" font-family="Helvetica,sans-Serif" font-size="10.00" fill="grey">parent</text>
</g>
<!-- Node4 -->
<g id="Node000004" class="node">
<title>Node4</title>
<g id="a_Node000004"><a xlink:href="unionBehaviorAttribute.html" target="_top" xlink:title=" ">
<polygon fill="white" stroke="#666666" points="662,-85 559,-85 559,-66 662,-66 662,-85"/>
<text text-anchor="middle" x="610.5" y="-73" font-family="Helvetica,sans-Serif" font-size="10.00">BehaviorAttribute</text>
</a>
</g>
</g>
<!-- Node3&#45;&gt;Node4 -->
<g id="edge5_Node000004_Node000003" class="edge">
<title>Node3&#45;&gt;Node4</title>
<g id="a_edge5_Node000004_Node000003"><a xlink:title=" ">
<path fill="none" stroke="#9a32cd" stroke-dasharray="5,2" d="M553.62,-123.36C552.56,-116.51 552.78,-108.98 556.5,-103 561.64,-94.76 570.17,-89.01 578.95,-85.02"/>
<polygon fill="#9a32cd" stroke="#9a32cd" points="550.26,-124.34 556.02,-133.23 557.06,-122.69 550.26,-124.34"/>
</a>
</g>
<text text-anchor="middle" x="570.5" y="-106" font-family="Helvetica,sans-Serif" font-size="10.00" fill="grey"> node</text>
</g>
<!-- Node4&#45;&gt;Node3 -->
<g id="edge4_Node000003_Node000004" class="edge">
<title>Node4&#45;&gt;Node3</title>
<g id="a_edge4_Node000003_Node000004"><a xlink:title=" ">
<path fill="none" stroke="#9a32cd" stroke-dasharray="5,2" d="M601.26,-94.49C597.64,-100.9 593.22,-108.01 588.5,-114 582.96,-121.04 575.71,-128.04 569.85,-133.28"/>
<polygon fill="#9a32cd" stroke="#9a32cd" points="604.57,-95.73 606.23,-85.27 598.41,-92.41 604.57,-95.73"/>
</a>
</g>
<text text-anchor="middle" x="618.5" y="-106" font-family="Helvetica,sans-Serif" font-size="10.00" fill="grey"> attribute</text>
</g>
<!-- Node5&#45;&gt;Node2 -->
<g id="edge6_Node000002_Node000005" class="edge">
<title>Node5&#45;&gt;Node2</title>
<g id="a_edge6_Node000002_Node000005"><a xlink:title=" ">
<path fill="none" stroke="#9a32cd" stroke-dasharray="5,2" d="M436.21,-23.27C417.95,-31.37 393.2,-41.51 370.5,-48 326.36,-60.62 273.14,-68.27 243.13,-71.91"/>
<polygon fill="#9a32cd" stroke="#9a32cd" points="437.7,-26.44 445.37,-19.13 434.82,-20.06 437.7,-26.44"/>
</a>
</g>
<text text-anchor="middle" x="419" y="-40" font-family="Helvetica,sans-Serif" font-size="10.00" fill="grey"> theme</text>
</g>
<!-- Node6 -->
<g id="Node000006" class="node">
<title>Node6</title>
<g id="a_Node000006"><a xlink:href="structFont.html" target="_top" xlink:title="Represents a font.">
<polygon fill="white" stroke="#666666" points="540.5,-85 502.5,-85 502.5,-66 540.5,-66 540.5,-85"/>
<text text-anchor="middle" x="521.5" y="-73" font-family="Helvetica,sans-Serif" font-size="10.00">Font</text>
</a>
</g>
</g>
<!-- Node6&#45;&gt;Node5 -->
<g id="edge7_Node000005_Node000006" class="edge">
<title>Node6&#45;&gt;Node5</title>
<g id="a_edge7_Node000005_Node000006"><a xlink:title=" ">
<path fill="none" stroke="#9a32cd" stroke-dasharray="5,2" d="M513.08,-56.86C509.44,-50.23 504.8,-42.88 499.5,-37 493.27,-30.08 484.97,-23.83 477.91,-19.13"/>
<polygon fill="#9a32cd" stroke="#9a32cd" points="509.99,-58.5 517.66,-65.81 516.22,-55.31 509.99,-58.5"/>
</a>
</g>
<text text-anchor="middle" x="518" y="-40" font-family="Helvetica,sans-Serif" font-size="10.00" fill="grey"> font</text>
</g>
<!-- Node7&#45;&gt;Node2 -->
<g id="edge9_Node000002_Node000007" class="edge">
<title>Node7&#45;&gt;Node2</title>
<g id="a_edge9_Node000002_Node000007"><a xlink:title=" ">
<path fill="none" stroke="#9a32cd" stroke-dasharray="5,2" d="M40.18,-25.24C51.08,-33.13 65.41,-42.36 79.5,-48 118.55,-63.62 167.47,-70.18 195.94,-72.83"/>
<polygon fill="#9a32cd" stroke="#9a32cd" points="42.02,-22.25 31.92,-19.04 37.81,-27.84 42.02,-22.25"/>
</a>
</g>
<text text-anchor="middle" x="93.5" y="-40" font-family="Helvetica,sans-Serif" font-size="10.00" fill="grey"> label</text>
</g>
<!-- Node8&#45;&gt;Node2 -->
<g id="edge12_Node000002_Node000008" class="edge">
<title>Node8&#45;&gt;Node2</title>
<g id="a_edge12_Node000002_Node000008"><a xlink:title=" ">
<path fill="none" stroke="#9a32cd" stroke-dasharray="5,2" d="M111.81,-26.21C120.17,-33.61 130.82,-42.09 141.5,-48 158.64,-57.49 179.77,-64.41 195.72,-68.8"/>
<polygon fill="#9a32cd" stroke="#9a32cd" points="114.03,-23.5 104.3,-19.31 109.3,-28.66 114.03,-23.5"/>
</a>
</g>
<text text-anchor="middle" x="167" y="-40" font-family="Helvetica,sans-Serif" font-size="10.00" fill="grey"> inputArea</text>
</g>
<!-- Node9&#45;&gt;Node2 -->
<g id="edge14_Node000002_Node000009" class="edge">
<title>Node9&#45;&gt;Node2</title>
<g id="a_edge14_Node000002_Node000009"><a xlink:title=" ">
<path fill="none" stroke="#9a32cd" stroke-dasharray="5,2" d="M198.73,-28.66C204.26,-40.86 211.29,-56.38 215.59,-65.87"/>
<polygon fill="#9a32cd" stroke="#9a32cd" points="201.85,-27.07 194.54,-19.41 195.47,-29.96 201.85,-27.07"/>
</a>
</g>
<text text-anchor="middle" x="232.5" y="-40" font-family="Helvetica,sans-Serif" font-size="10.00" fill="grey"> selectList</text>
</g>
<!-- Node10&#45;&gt;Node2 -->
<g id="edge16_Node000002_Node000010" class="edge">
<title>Node10&#45;&gt;Node2</title>
<g id="a_edge16_Node000002_Node000010"><a xlink:title=" ">
<path fill="none" stroke="#9a32cd" stroke-dasharray="5,2" d="M301.83,-29.4C301.36,-35.91 299.7,-42.85 295.5,-48 282.79,-63.6 260.33,-70.03 243.11,-72.68"/>
<polygon fill="#9a32cd" stroke="#9a32cd" points="305.33,-29.21 301.75,-19.24 298.33,-29.27 305.33,-29.21"/>
</a>
</g>
<text text-anchor="middle" x="334" y="-40" font-family="Helvetica,sans-Serif" font-size="10.00" fill="grey"> imageFrame</text>
</g>
<!-- Node11&#45;&gt;Node2 -->
<g id="edge18_Node000002_Node000011" class="edge">
<title>Node11&#45;&gt;Node2</title>
<g id="a_edge18_Node000002_Node000011"><a xlink:title=" ">
<path fill="none" stroke="#9a32cd" stroke-dasharray="5,2" d="M176.29,-123.09C175.73,-116.4 176.26,-109.04 179.5,-103 183.68,-95.22 191.25,-89.34 198.7,-85.12"/>
<polygon fill="#9a32cd" stroke="#9a32cd" points="172.9,-124.06 177.95,-133.37 179.81,-122.95 172.9,-124.06"/>
</a>
</g>
<text text-anchor="middle" x="209.5" y="-106" font-family="Helvetica,sans-Serif" font-size="10.00" fill="grey"> radiobutton</text>
</g>
<!-- Node12&#45;&gt;Node2 -->
<g id="edge20_Node000002_Node000012" class="edge">
<title>Node12&#45;&gt;Node2</title>
<g id="a_edge20_Node000002_Node000012"><a xlink:title=" ">
<path fill="none" stroke="#9a32cd" stroke-dasharray="5,2" d="M251.25,-124.33C247.86,-117.52 243.74,-109.76 239.5,-103 235.58,-96.75 230.58,-90.12 226.56,-85.06"/>
<polygon fill="#9a32cd" stroke="#9a32cd" points="248.12,-125.91 255.62,-133.4 254.43,-122.87 248.12,-125.91"/>
</a>
</g>
<text text-anchor="middle" x="262" y="-106" font-family="Helvetica,sans-Serif" font-size="10.00" fill="grey"> slider</text>
</g>
</g>
</svg>
