<?xml version="1.0" encoding="UTF-8" standalone="no"?>
<!DOCTYPE svg PUBLIC "-//W3C//DTD SVG 1.1//EN"
 "http://www.w3.org/Graphics/SVG/1.1/DTD/svg11.dtd">
<!-- Generated by graphviz version 2.43.0 (0)
 -->
<!-- Title: CheckBox Pages: 1 -->
<svg width="683pt" height="218pt"
 viewBox="0.00 0.00 683.00 218.00" xmlns="http://www.w3.org/2000/svg" xmlns:xlink="http://www.w3.org/1999/xlink">
<g id="graph0" class="graph" transform="scale(1 1) rotate(0) translate(4 214)">
<title>CheckBox</title>
<!-- Node1 -->
<g id="Node000001" class="node">
<title>Node1</title>
<g id="a_Node000001"><a xlink:title=" ">
<polygon fill="#999999" stroke="#666666" points="65,-152.5 0,-152.5 0,-133.5 65,-133.5 65,-152.5"/>
<text text-anchor="middle" x="32.5" y="-140.5" font-family="Helvetica,sans-Serif" font-size="10.00">CheckBox</text>
</a>
</g>
</g>
<!-- Node2 -->
<g id="Node000002" class="node">
<title>Node2</title>
<g id="a_Node000002"><a xlink:href="classButton.html" target="_top" xlink:title="Represents a button.">
<polygon fill="white" stroke="#666666" points="218,-210 169,-210 169,-191 218,-191 218,-210"/>
<text text-anchor="middle" x="193.5" y="-198" font-family="Helvetica,sans-Serif" font-size="10.00">Button</text>
</a>
</g>
</g>
<!-- Node2&#45;&gt;Node1 -->
<g id="edge1_Node000001_Node000002" class="edge">
<title>Node2&#45;&gt;Node1</title>
<g id="a_edge1_Node000001_Node000002"><a xlink:title=" ">
<path fill="none" stroke="#63b8ff" d="M158.91,-193.05C137.88,-188.59 110.69,-181.86 87.5,-173 72.98,-167.45 57.39,-158.97 46.53,-152.61"/>
<polygon fill="#63b8ff" stroke="#63b8ff" points="158.5,-196.54 169,-195.11 159.9,-189.68 158.5,-196.54"/>
</a>
</g>
</g>
<!-- Node3 -->
<g id="Node000003" class="node">
<title>Node3</title>
<g id="a_Node000003"><a xlink:href="classFrame.html" target="_top" xlink:title="Represents a frame.">
<polygon fill="white" stroke="#666666" points="256,-85 209,-85 209,-66 256,-66 256,-85"/>
<text text-anchor="middle" x="232.5" y="-73" font-family="Helvetica,sans-Serif" font-size="10.00">Frame</text>
</a>
</g>
</g>
<!-- Node2&#45;&gt;Node3 -->
<g id="edge12_Node000003_Node000002" class="edge">
<title>Node2&#45;&gt;Node3</title>
<g id="a_edge12_Node000003_Node000002"><a xlink:title=" ">
<path fill="none" stroke="#9a32cd" stroke-dasharray="5,2" d="M159.16,-188.17C129.81,-176.52 94.65,-156.63 110.5,-132 132.16,-98.35 179.79,-84.86 208.71,-79.63"/>
<polygon fill="#9a32cd" stroke="#9a32cd" points="158.21,-191.56 168.81,-191.8 160.68,-185.01 158.21,-191.56"/>
</a>
</g>
<text text-anchor="middle" x="128" y="-140.5" font-family="Helvetica,sans-Serif" font-size="10.00" fill="grey"> button</text>
</g>
<!-- Node12 -->
<g id="Node000012" class="node">
<title>Node12</title>
<g id="a_Node000012"><a xlink:href="classRadioButton.html" target="_top" xlink:title="Represents a radio button.">
<polygon fill="white" stroke="#666666" points="232,-152.5 155,-152.5 155,-133.5 232,-133.5 232,-152.5"/>
<text text-anchor="middle" x="193.5" y="-140.5" font-family="Helvetica,sans-Serif" font-size="10.00">RadioButton</text>
</a>
</g>
</g>
<!-- Node2&#45;&gt;Node12 -->
<g id="edge20_Node000012_Node000002" class="edge">
<title>Node2&#45;&gt;Node12</title>
<g id="a_edge20_Node000012_Node000002"><a xlink:title=" ">
<path fill="none" stroke="#63b8ff" d="M193.5,-180.75C193.5,-171.3 193.5,-160.28 193.5,-152.79"/>
<polygon fill="#63b8ff" stroke="#63b8ff" points="190,-180.83 193.5,-190.83 197,-180.83 190,-180.83"/>
</a>
</g>
</g>
<!-- Node13 -->
<g id="Node000013" class="node">
<title>Node13</title>
<g id="a_Node000013"><a xlink:href="classSlider.html" target="_top" xlink:title=" ">
<polygon fill="white" stroke="#666666" points="294.5,-152.5 250.5,-152.5 250.5,-133.5 294.5,-133.5 294.5,-152.5"/>
<text text-anchor="middle" x="272.5" y="-140.5" font-family="Helvetica,sans-Serif" font-size="10.00">Slider</text>
</a>
</g>
</g>
<!-- Node2&#45;&gt;Node13 -->
<g id="edge22_Node000013_Node000002" class="edge">
<title>Node2&#45;&gt;Node13</title>
<g id="a_edge22_Node000013_Node000002"><a xlink:title=" ">
<path fill="none" stroke="#63b8ff" d="M214.27,-184.91C228.9,-174.63 247.98,-161.22 260.24,-152.61"/>
<polygon fill="#63b8ff" stroke="#63b8ff" points="212.01,-182.22 205.84,-190.83 216.04,-187.94 212.01,-182.22"/>
</a>
</g>
</g>
<!-- Node3&#45;&gt;Node2 -->
<g id="edge2_Node000002_Node000003" class="edge">
<title>Node3&#45;&gt;Node2</title>
<g id="a_edge2_Node000002_Node000003"><a xlink:title=" ">
<path fill="none" stroke="#63b8ff" d="M265.98,-84.81C276.32,-88.81 286.95,-94.63 294.5,-103 309.92,-120.09 316.29,-134.87 303.5,-154 284.55,-182.35 244.33,-193.06 218.13,-197.09"/>
<polygon fill="#63b8ff" stroke="#63b8ff" points="266.87,-81.41 256.28,-81.5 264.61,-88.04 266.87,-81.41"/>
</a>
</g>
</g>
<!-- Node6 -->
<g id="Node000006" class="node">
<title>Node6</title>
<g id="a_Node000006"><a xlink:href="structTheme.html" target="_top" xlink:title="Represents a theme.">
<polygon fill="white" stroke="#666666" points="501.5,-19 451.5,-19 451.5,0 501.5,0 501.5,-19"/>
<text text-anchor="middle" x="476.5" y="-7" font-family="Helvetica,sans-Serif" font-size="10.00">Theme</text>
</a>
</g>
</g>
<!-- Node3&#45;&gt;Node6 -->
<g id="edge9_Node000006_Node000003" class="edge">
<title>Node3&#45;&gt;Node6</title>
<g id="a_edge9_Node000006_Node000003"><a xlink:title=" ">
<path fill="none" stroke="#9a32cd" stroke-dasharray="5,2" d="M266.17,-73.99C320.19,-72.6 423.23,-67.4 453.5,-48 463.92,-41.32 470.36,-28.08 473.69,-19.25"/>
<polygon fill="#9a32cd" stroke="#9a32cd" points="265.97,-70.49 256.05,-74.22 266.13,-77.49 265.97,-70.49"/>
</a>
</g>
<text text-anchor="middle" x="481" y="-40" font-family="Helvetica,sans-Serif" font-size="10.00" fill="grey"> parent</text>
</g>
<!-- Node8 -->
<g id="Node000008" class="node">
<title>Node8</title>
<g id="a_Node000008"><a xlink:href="classLabel.html" target="_top" xlink:title="Represents a label.">
<polygon fill="white" stroke="#666666" points="56,-19 13,-19 13,0 56,0 56,-19"/>
<text text-anchor="middle" x="34.5" y="-7" font-family="Helvetica,sans-Serif" font-size="10.00">Label</text>
</a>
</g>
</g>
<!-- Node3&#45;&gt;Node8 -->
<g id="edge11_Node000008_Node000003" class="edge">
<title>Node3&#45;&gt;Node8</title>
<g id="a_edge11_Node000008_Node000003"><a xlink:title=" ">
<path fill="none" stroke="#63b8ff" d="M198.86,-75.42C164.17,-74.97 109.51,-70.26 68.5,-48 55.99,-41.21 45.7,-28 39.82,-19.21"/>
<polygon fill="#63b8ff" stroke="#63b8ff" points="198.94,-78.92 208.95,-75.44 198.96,-71.92 198.94,-78.92"/>
</a>
</g>
</g>
<!-- Node9 -->
<g id="Node000009" class="node">
<title>Node9</title>
<g id="a_Node000009"><a xlink:href="classInputArea.html" target="_top" xlink:title="Represents an input area.">
<polygon fill="white" stroke="#666666" points="140.5,-19 76.5,-19 76.5,0 140.5,0 140.5,-19"/>
<text text-anchor="middle" x="108.5" y="-7" font-family="Helvetica,sans-Serif" font-size="10.00">InputArea</text>
</a>
</g>
</g>
<!-- Node3&#45;&gt;Node9 -->
<g id="edge14_Node000009_Node000003" class="edge">
<title>Node3&#45;&gt;Node9</title>
<g id="a_edge14_Node000009_Node000003"><a xlink:title=" ">
<path fill="none" stroke="#63b8ff" d="M198.78,-71.25C178.64,-67.95 153.39,-61.32 134.5,-48 124.14,-40.69 116.58,-27.87 112.36,-19.28"/>
<polygon fill="#63b8ff" stroke="#63b8ff" points="198.39,-74.73 208.79,-72.68 199.39,-67.8 198.39,-74.73"/>
</a>
</g>
</g>
<!-- Node10 -->
<g id="Node000010" class="node">
<title>Node10</title>
<g id="a_Node000010"><a xlink:href="classSelectList.html" target="_top" xlink:title="Represents a selectable list.">
<polygon fill="white" stroke="#666666" points="235.5,-19 171.5,-19 171.5,0 235.5,0 235.5,-19"/>
<text text-anchor="middle" x="203.5" y="-7" font-family="Helvetica,sans-Serif" font-size="10.00">SelectList</text>
</a>
</g>
</g>
<!-- Node3&#45;&gt;Node10 -->
<g id="edge16_Node000010_Node000003" class="edge">
<title>Node3&#45;&gt;Node10</title>
<g id="a_edge16_Node000010_Node000003"><a xlink:title=" ">
<path fill="none" stroke="#63b8ff" d="M218.89,-57.38C216.89,-54.36 215,-51.17 213.5,-48 209.07,-38.62 206.35,-26.95 204.89,-19.15"/>
<polygon fill="#63b8ff" stroke="#63b8ff" points="216.23,-59.67 224.95,-65.69 221.88,-55.55 216.23,-59.67"/>
</a>
</g>
</g>
<!-- Node11 -->
<g id="Node000011" class="node">
<title>Node11</title>
<g id="a_Node000011"><a xlink:href="classImageFrame.html" target="_top" xlink:title="Represents an image frame.">
<polygon fill="white" stroke="#666666" points="352.5,-19 274.5,-19 274.5,0 352.5,0 352.5,-19"/>
<text text-anchor="middle" x="313.5" y="-7" font-family="Helvetica,sans-Serif" font-size="10.00">ImageFrame</text>
</a>
</g>
</g>
<!-- Node3&#45;&gt;Node11 -->
<g id="edge18_Node000011_Node000003" class="edge">
<title>Node3&#45;&gt;Node11</title>
<g id="a_edge18_Node000011_Node000003"><a xlink:title=" ">
<path fill="none" stroke="#63b8ff" d="M256.33,-60.64C262.42,-56.78 268.84,-52.43 274.5,-48 286.04,-38.97 298,-27.02 305.58,-19.06"/>
<polygon fill="#63b8ff" stroke="#63b8ff" points="254.47,-57.68 247.77,-65.89 258.13,-63.64 254.47,-57.68"/>
</a>
</g>
</g>
<!-- Node4 -->
<g id="Node000004" class="node">
<title>Node4</title>
<g id="a_Node000004"><a xlink:href="classNode.html" target="_top" xlink:title="Represents a node in the tree structure.">
<polygon fill="white" stroke="#666666" points="593.5,-152.5 551.5,-152.5 551.5,-133.5 593.5,-133.5 593.5,-152.5"/>
<text text-anchor="middle" x="572.5" y="-140.5" font-family="Helvetica,sans-Serif" font-size="10.00">Node</text>
</a>
</g>
</g>
<!-- Node4&#45;&gt;Node3 -->
<g id="edge3_Node000003_Node000004" class="edge">
<title>Node4&#45;&gt;Node3</title>
<g id="a_edge3_Node000003_Node000004"><a xlink:title=" ">
<path fill="none" stroke="#63b8ff" d="M541.5,-136.03C474.19,-123.06 315.95,-92.58 256.04,-81.03"/>
<polygon fill="#63b8ff" stroke="#63b8ff" points="541.01,-139.5 551.49,-137.95 542.33,-132.62 541.01,-139.5"/>
</a>
</g>
</g>
<!-- Node4&#45;&gt;Node4 -->
<g id="edge4_Node000004_Node000004" class="edge">
<title>Node4&#45;&gt;Node4</title>
<g id="a_edge4_Node000004_Node000004"><a xlink:title=" ">
<path fill="none" stroke="#9a32cd" stroke-dasharray="5,2" d="M603.91,-147.73C608.45,-146.98 611.5,-145.4 611.5,-143 611.5,-139.06 603.27,-137.34 593.76,-137.83"/>
<polygon fill="#9a32cd" stroke="#9a32cd" points="603.6,-144.24 593.76,-148.17 603.9,-151.23 603.6,-144.24"/>
</a>
</g>
<text text-anchor="middle" x="633" y="-146" font-family="Helvetica,sans-Serif" font-size="10.00" fill="grey"> children</text>
<text text-anchor="middle" x="633" y="-135" font-family="Helvetica,sans-Serif" font-size="10.00" fill="grey">parent</text>
</g>
<!-- Node5 -->
<g id="Node000005" class="node">
<title>Node5</title>
<g id="a_Node000005"><a xlink:href="unionBehaviorAttribute.html" target="_top" xlink:title=" ">
<polygon fill="white" stroke="#666666" points="675,-85 572,-85 572,-66 675,-66 675,-85"/>
<text text-anchor="middle" x="623.5" y="-73" font-family="Helvetica,sans-Serif" font-size="10.00">BehaviorAttribute</text>
</a>
</g>
</g>
<!-- Node4&#45;&gt;Node5 -->
<g id="edge6_Node000005_Node000004" class="edge">
<title>Node4&#45;&gt;Node5</title>
<g id="a_edge6_Node000005_Node000004"><a xlink:title=" ">
<path fill="none" stroke="#9a32cd" stroke-dasharray="5,2" d="M566.62,-123.36C565.56,-116.51 565.78,-108.98 569.5,-103 574.64,-94.76 583.17,-89.01 591.95,-85.02"/>
<polygon fill="#9a32cd" stroke="#9a32cd" points="563.26,-124.34 569.02,-133.23 570.06,-122.69 563.26,-124.34"/>
</a>
</g>
<text text-anchor="middle" x="583.5" y="-106" font-family="Helvetica,sans-Serif" font-size="10.00" fill="grey"> node</text>
</g>
<!-- Node5&#45;&gt;Node4 -->
<g id="edge5_Node000004_Node000005" class="edge">
<title>Node5&#45;&gt;Node4</title>
<g id="a_edge5_Node000004_Node000005"><a xlink:title=" ">
<path fill="none" stroke="#9a32cd" stroke-dasharray="5,2" d="M614.26,-94.49C610.64,-100.9 606.22,-108.01 601.5,-114 595.96,-121.04 588.71,-128.04 582.85,-133.28"/>
<polygon fill="#9a32cd" stroke="#9a32cd" points="617.57,-95.73 619.23,-85.27 611.41,-92.41 617.57,-95.73"/>
</a>
</g>
<text text-anchor="middle" x="631.5" y="-106" font-family="Helvetica,sans-Serif" font-size="10.00" fill="grey"> attribute</text>
</g>
<!-- Node6&#45;&gt;Node3 -->
<g id="edge7_Node000003_Node000006" class="edge">
<title>Node6&#45;&gt;Node3</title>
<g id="a_edge7_Node000003_Node000006"><a xlink:title=" ">
<path fill="none" stroke="#9a32cd" stroke-dasharray="5,2" d="M449.21,-23.27C430.95,-31.37 406.2,-41.51 383.5,-48 339.36,-60.62 286.14,-68.27 256.13,-71.91"/>
<polygon fill="#9a32cd" stroke="#9a32cd" points="450.7,-26.44 458.37,-19.13 447.82,-20.06 450.7,-26.44"/>
</a>
</g>
<text text-anchor="middle" x="432" y="-40" font-family="Helvetica,sans-Serif" font-size="10.00" fill="grey"> theme</text>
</g>
<!-- Node7 -->
<g id="Node000007" class="node">
<title>Node7</title>
<g id="a_Node000007"><a xlink:href="structFont.html" target="_top" xlink:title="Represents a font.">
<polygon fill="white" stroke="#666666" points="553.5,-85 515.5,-85 515.5,-66 553.5,-66 553.5,-85"/>
<text text-anchor="middle" x="534.5" y="-73" font-family="Helvetica,sans-Serif" font-size="10.00">Font</text>
</a>
</g>
</g>
<!-- Node7&#45;&gt;Node6 -->
<g id="edge8_Node000006_Node000007" class="edge">
<title>Node7&#45;&gt;Node6</title>
<g id="a_edge8_Node000006_Node000007"><a xlink:title=" ">
<path fill="none" stroke="#9a32cd" stroke-dasharray="5,2" d="M526.08,-56.86C522.44,-50.23 517.8,-42.88 512.5,-37 506.27,-30.08 497.97,-23.83 490.91,-19.13"/>
<polygon fill="#9a32cd" stroke="#9a32cd" points="522.99,-58.5 530.66,-65.81 529.22,-55.31 522.99,-58.5"/>
</a>
</g>
<text text-anchor="middle" x="531" y="-40" font-family="Helvetica,sans-Serif" font-size="10.00" fill="grey"> font</text>
</g>
<!-- Node8&#45;&gt;Node3 -->
<g id="edge10_Node000003_Node000008" class="edge">
<title>Node8&#45;&gt;Node3</title>
<g id="a_edge10_Node000003_Node000008"><a xlink:title=" ">
<path fill="none" stroke="#9a32cd" stroke-dasharray="5,2" d="M53.18,-25.24C64.08,-33.13 78.41,-42.36 92.5,-48 131.55,-63.62 180.47,-70.18 208.94,-72.83"/>
<polygon fill="#9a32cd" stroke="#9a32cd" points="55.02,-22.25 44.92,-19.04 50.81,-27.84 55.02,-22.25"/>
</a>
</g>
<text text-anchor="middle" x="106.5" y="-40" font-family="Helvetica,sans-Serif" font-size="10.00" fill="grey"> label</text>
</g>
<!-- Node9&#45;&gt;Node3 -->
<g id="edge13_Node000003_Node000009" class="edge">
<title>Node9&#45;&gt;Node3</title>
<g id="a_edge13_Node000003_Node000009"><a xlink:title=" ">
<path fill="none" stroke="#9a32cd" stroke-dasharray="5,2" d="M124.81,-26.21C133.17,-33.61 143.82,-42.09 154.5,-48 171.64,-57.49 192.77,-64.41 208.72,-68.8"/>
<polygon fill="#9a32cd" stroke="#9a32cd" points="127.03,-23.5 117.3,-19.31 122.3,-28.66 127.03,-23.5"/>
</a>
</g>
<text text-anchor="middle" x="180" y="-40" font-family="Helvetica,sans-Serif" font-size="10.00" fill="grey"> inputArea</text>
</g>
<!-- Node10&#45;&gt;Node3 -->
<g id="edge15_Node000003_Node000010" class="edge">
<title>Node10&#45;&gt;Node3</title>
<g id="a_edge15_Node000003_Node000010"><a xlink:title=" ">
<path fill="none" stroke="#9a32cd" stroke-dasharray="5,2" d="M211.73,-28.66C217.26,-40.86 224.29,-56.38 228.59,-65.87"/>
<polygon fill="#9a32cd" stroke="#9a32cd" points="214.85,-27.07 207.54,-19.41 208.47,-29.96 214.85,-27.07"/>
</a>
</g>
<text text-anchor="middle" x="245.5" y="-40" font-family="Helvetica,sans-Serif" font-size="10.00" fill="grey"> selectList</text>
</g>
<!-- Node11&#45;&gt;Node3 -->
<g id="edge17_Node000003_Node000011" class="edge">
<title>Node11&#45;&gt;Node3</title>
<g id="a_edge17_Node000003_Node000011"><a xlink:title=" ">
<path fill="none" stroke="#9a32cd" stroke-dasharray="5,2" d="M314.83,-29.4C314.36,-35.91 312.7,-42.85 308.5,-48 295.79,-63.6 273.33,-70.03 256.11,-72.68"/>
<polygon fill="#9a32cd" stroke="#9a32cd" points="318.33,-29.21 314.75,-19.24 311.33,-29.27 318.33,-29.21"/>
</a>
</g>
<text text-anchor="middle" x="347" y="-40" font-family="Helvetica,sans-Serif" font-size="10.00" fill="grey"> imageFrame</text>
</g>
<!-- Node12&#45;&gt;Node3 -->
<g id="edge19_Node000003_Node000012" class="edge">
<title>Node12&#45;&gt;Node3</title>
<g id="a_edge19_Node000003_Node000012"><a xlink:title=" ">
<path fill="none" stroke="#9a32cd" stroke-dasharray="5,2" d="M189.29,-123.09C188.73,-116.4 189.26,-109.04 192.5,-103 196.68,-95.22 204.25,-89.34 211.7,-85.12"/>
<polygon fill="#9a32cd" stroke="#9a32cd" points="185.9,-124.06 190.95,-133.37 192.81,-122.95 185.9,-124.06"/>
</a>
</g>
<text text-anchor="middle" x="222.5" y="-106" font-family="Helvetica,sans-Serif" font-size="10.00" fill="grey"> radiobutton</text>
</g>
<!-- Node13&#45;&gt;Node3 -->
<g id="edge21_Node000003_Node000013" class="edge">
<title>Node13&#45;&gt;Node3</title>
<g id="a_edge21_Node000003_Node000013"><a xlink:title=" ">
<path fill="none" stroke="#9a32cd" stroke-dasharray="5,2" d="M264.25,-124.33C260.86,-117.52 256.74,-109.76 252.5,-103 248.58,-96.75 243.58,-90.12 239.56,-85.06"/>
<polygon fill="#9a32cd" stroke="#9a32cd" points="261.12,-125.91 268.62,-133.4 267.43,-122.87 261.12,-125.91"/>
</a>
</g>
<text text-anchor="middle" x="275" y="-106" font-family="Helvetica,sans-Serif" font-size="10.00" fill="grey"> slider</text>
</g>
</g>
</svg>
