<?xml version="1.0" encoding="UTF-8" standalone="no"?>
<!DOCTYPE svg PUBLIC "-//W3C//DTD SVG 1.1//EN"
 "http://www.w3.org/Graphics/SVG/1.1/DTD/svg11.dtd">
<!-- Generated by graphviz version 2.43.0 (0)
 -->
<!-- Title: RenderTarget Pages: 1 -->
<svg width="226pt" height="96pt"
 viewBox="0.00 0.00 225.50 96.00" xmlns="http://www.w3.org/2000/svg" xmlns:xlink="http://www.w3.org/1999/xlink">
<g id="graph0" class="graph" transform="scale(1 1) rotate(0) translate(4 92)">
<title>RenderTarget</title>
<!-- Node1 -->
<g id="Node000001" class="node">
<title>Node1</title>
<g id="a_Node000001"><a xlink:title="A structure to handle render targets.">
<polygon fill="#999999" stroke="#666666" points="210,-19 129,-19 129,0 210,0 210,-19"/>
<text text-anchor="middle" x="169.5" y="-7" font-family="Helvetica,sans-Serif" font-size="10.00">RenderTarget</text>
</a>
</g>
</g>
<!-- Node2 -->
<g id="Node000002" class="node">
<title>Node2</title>
<g id="a_Node000002"><a xlink:href="classNode.html" target="_top" xlink:title="Represents a node in the tree structure.">
<polygon fill="white" stroke="#666666" points="86.5,-86.5 44.5,-86.5 44.5,-67.5 86.5,-67.5 86.5,-86.5"/>
<text text-anchor="middle" x="65.5" y="-74.5" font-family="Helvetica,sans-Serif" font-size="10.00">Node</text>
</a>
</g>
</g>
<!-- Node2&#45;&gt;Node1 -->
<g id="edge1_Node000001_Node000002" class="edge">
<title>Node2&#45;&gt;Node1</title>
<g id="a_edge1_Node000001_Node000002"><a xlink:title=" ">
<path fill="none" stroke="#63b8ff" d="M87.58,-62.09C108.27,-49.06 138.54,-30 155.9,-19.07"/>
<polygon fill="#63b8ff" stroke="#63b8ff" points="85.69,-59.15 79.1,-67.44 89.42,-65.07 85.69,-59.15"/>
</a>
</g>
</g>
<!-- Node2&#45;&gt;Node2 -->
<g id="edge2_Node000002_Node000002" class="edge">
<title>Node2&#45;&gt;Node2</title>
<g id="a_edge2_Node000002_Node000002"><a xlink:title=" ">
<path fill="none" stroke="#9a32cd" stroke-dasharray="5,2" d="M96.91,-82.74C101.45,-81.83 104.5,-79.91 104.5,-77 104.5,-72.22 96.27,-70.13 86.76,-70.72"/>
<polygon fill="#9a32cd" stroke="#9a32cd" points="96.56,-79.26 86.76,-83.28 96.93,-86.25 96.56,-79.26"/>
</a>
</g>
<text text-anchor="middle" x="126" y="-80" font-family="Helvetica,sans-Serif" font-size="10.00" fill="grey"> children</text>
<text text-anchor="middle" x="126" y="-69" font-family="Helvetica,sans-Serif" font-size="10.00" fill="grey">parent</text>
</g>
<!-- Node3 -->
<g id="Node000003" class="node">
<title>Node3</title>
<g id="a_Node000003"><a xlink:href="unionBehaviorAttribute.html" target="_top" xlink:title=" ">
<polygon fill="white" stroke="#666666" points="103,-19 0,-19 0,0 103,0 103,-19"/>
<text text-anchor="middle" x="51.5" y="-7" font-family="Helvetica,sans-Serif" font-size="10.00">BehaviorAttribute</text>
</a>
</g>
</g>
<!-- Node2&#45;&gt;Node3 -->
<g id="edge4_Node000003_Node000002" class="edge">
<title>Node2&#45;&gt;Node3</title>
<g id="a_edge4_Node000003_Node000002"><a xlink:title=" ">
<path fill="none" stroke="#9a32cd" stroke-dasharray="5,2" d="M37.53,-61.75C32.69,-57.96 28.31,-53.39 25.5,-48 20.01,-37.46 29.88,-26.4 39,-19.04"/>
<polygon fill="#9a32cd" stroke="#9a32cd" points="35.68,-64.72 45.93,-67.38 39.57,-58.91 35.68,-64.72"/>
</a>
</g>
<text text-anchor="middle" x="39.5" y="-40" font-family="Helvetica,sans-Serif" font-size="10.00" fill="grey"> node</text>
</g>
<!-- Node3&#45;&gt;Node2 -->
<g id="edge3_Node000002_Node000003" class="edge">
<title>Node3&#45;&gt;Node2</title>
<g id="a_edge3_Node000002_Node000003"><a xlink:title=" ">
<path fill="none" stroke="#9a32cd" stroke-dasharray="5,2" d="M55.5,-29.21C58.19,-41.79 61.61,-57.78 63.67,-67.44"/>
<polygon fill="#9a32cd" stroke="#9a32cd" points="58.89,-28.32 53.38,-19.27 52.04,-29.78 58.89,-28.32"/>
</a>
</g>
<text text-anchor="middle" x="82.5" y="-40" font-family="Helvetica,sans-Serif" font-size="10.00" fill="grey"> attribute</text>
</g>
<!-- Node4 -->
<g id="Node000004" class="node">
<title>Node4</title>
<g id="a_Node000004"><a xlink:href="structMouse.html" target="_top" xlink:title="Structure to store mouse state.">
<polygon fill="white" stroke="#666666" points="215,-86.5 166,-86.5 166,-67.5 215,-67.5 215,-86.5"/>
<text text-anchor="middle" x="190.5" y="-74.5" font-family="Helvetica,sans-Serif" font-size="10.00">Mouse</text>
</a>
</g>
</g>
<!-- Node4&#45;&gt;Node1 -->
<g id="edge5_Node000001_Node000004" class="edge">
<title>Node4&#45;&gt;Node1</title>
<g id="a_edge5_Node000001_Node000004"><a xlink:title=" ">
<path fill="none" stroke="#9a32cd" stroke-dasharray="5,2" d="M184.59,-57.57C180.57,-45.03 175.44,-29.02 172.31,-19.27"/>
<polygon fill="#9a32cd" stroke="#9a32cd" points="181.37,-58.98 187.75,-67.44 188.03,-56.85 181.37,-58.98"/>
</a>
</g>
<text text-anchor="middle" x="199" y="-40" font-family="Helvetica,sans-Serif" font-size="10.00" fill="grey"> mouse</text>
</g>
</g>
</svg>
