<?xml version="1.0" encoding="UTF-8" standalone="no"?>
<!DOCTYPE svg PUBLIC "-//W3C//DTD SVG 1.1//EN"
 "http://www.w3.org/Graphics/SVG/1.1/DTD/svg11.dtd">
<!-- Generated by graphviz version 2.43.0 (0)
 -->
<!-- Title: Model Pages: 1 -->
<svg width="428pt" height="316pt"
 viewBox="0.00 0.00 427.50 316.00" xmlns="http://www.w3.org/2000/svg" xmlns:xlink="http://www.w3.org/1999/xlink">
<g id="graph0" class="graph" transform="scale(1 1) rotate(0) translate(4 312)">
<title>Model</title>
<!-- Node1 -->
<g id="Node000001" class="node">
<title>Node1</title>
<g id="a_Node000001"><a xlink:title="Structure representing a 3D model.">
<polygon fill="#999999" stroke="#666666" points="185,-19 138,-19 138,0 185,0 185,-19"/>
<text text-anchor="middle" x="161.5" y="-7" font-family="Helvetica,sans-Serif" font-size="10.00">Model</text>
</a>
</g>
</g>
<!-- Node2 -->
<g id="Node000002" class="node">
<title>Node2</title>
<g id="a_Node000002"><a xlink:href="classNode.html" target="_top" xlink:title="Represents a node in the tree structure.">
<polygon fill="white" stroke="#666666" points="82.5,-86.5 40.5,-86.5 40.5,-67.5 82.5,-67.5 82.5,-86.5"/>
<text text-anchor="middle" x="61.5" y="-74.5" font-family="Helvetica,sans-Serif" font-size="10.00">Node</text>
</a>
</g>
</g>
<!-- Node2&#45;&gt;Node1 -->
<g id="edge1_Node000001_Node000002" class="edge">
<title>Node2&#45;&gt;Node1</title>
<g id="a_edge1_Node000001_Node000002"><a xlink:title=" ">
<path fill="none" stroke="#63b8ff" d="M84.88,-62.14C92.18,-57.71 100.23,-52.73 107.5,-48 122.23,-38.41 138.78,-26.79 149.63,-19.05"/>
<polygon fill="#63b8ff" stroke="#63b8ff" points="82.91,-59.24 76.14,-67.39 86.52,-65.24 82.91,-59.24"/>
</a>
</g>
</g>
<!-- Node2&#45;&gt;Node2 -->
<g id="edge2_Node000002_Node000002" class="edge">
<title>Node2&#45;&gt;Node2</title>
<g id="a_edge2_Node000002_Node000002"><a xlink:title=" ">
<path fill="none" stroke="#9a32cd" stroke-dasharray="5,2" d="M92.91,-82.74C97.45,-81.83 100.5,-79.91 100.5,-77 100.5,-72.22 92.27,-70.13 82.76,-70.72"/>
<polygon fill="#9a32cd" stroke="#9a32cd" points="92.56,-79.26 82.76,-83.28 92.93,-86.25 92.56,-79.26"/>
</a>
</g>
<text text-anchor="middle" x="122" y="-80" font-family="Helvetica,sans-Serif" font-size="10.00" fill="grey"> children</text>
<text text-anchor="middle" x="122" y="-69" font-family="Helvetica,sans-Serif" font-size="10.00" fill="grey">parent</text>
</g>
<!-- Node3 -->
<g id="Node000003" class="node">
<title>Node3</title>
<g id="a_Node000003"><a xlink:href="unionBehaviorAttribute.html" target="_top" xlink:title=" ">
<polygon fill="white" stroke="#666666" points="103,-19 0,-19 0,0 103,0 103,-19"/>
<text text-anchor="middle" x="51.5" y="-7" font-family="Helvetica,sans-Serif" font-size="10.00">BehaviorAttribute</text>
</a>
</g>
</g>
<!-- Node2&#45;&gt;Node3 -->
<g id="edge4_Node000003_Node000002" class="edge">
<title>Node2&#45;&gt;Node3</title>
<g id="a_edge4_Node000003_Node000002"><a xlink:title=" ">
<path fill="none" stroke="#9a32cd" stroke-dasharray="5,2" d="M35.5,-61.33C31.06,-57.59 27.06,-53.14 24.5,-48 19.21,-37.37 29.06,-26.5 38.32,-19.21"/>
<polygon fill="#9a32cd" stroke="#9a32cd" points="33.6,-64.28 43.75,-67.3 37.7,-58.6 33.6,-64.28"/>
</a>
</g>
<text text-anchor="middle" x="38.5" y="-40" font-family="Helvetica,sans-Serif" font-size="10.00" fill="grey"> node</text>
</g>
<!-- Node3&#45;&gt;Node2 -->
<g id="edge3_Node000002_Node000003" class="edge">
<title>Node3&#45;&gt;Node2</title>
<g id="a_edge3_Node000002_Node000003"><a xlink:title=" ">
<path fill="none" stroke="#9a32cd" stroke-dasharray="5,2" d="M54.36,-29.21C56.28,-41.79 58.72,-57.78 60.19,-67.44"/>
<polygon fill="#9a32cd" stroke="#9a32cd" points="57.81,-28.63 52.84,-19.27 50.89,-29.69 57.81,-28.63"/>
</a>
</g>
<text text-anchor="middle" x="80.5" y="-40" font-family="Helvetica,sans-Serif" font-size="10.00" fill="grey"> attribute</text>
</g>
<!-- Node4 -->
<g id="Node000004" class="node">
<title>Node4</title>
<g id="a_Node000004"><a xlink:href="structModelData.html" target="_top" xlink:title="Structure representing the data of a 3D model.">
<polygon fill="white" stroke="#666666" points="231.5,-86.5 161.5,-86.5 161.5,-67.5 231.5,-67.5 231.5,-86.5"/>
<text text-anchor="middle" x="196.5" y="-74.5" font-family="Helvetica,sans-Serif" font-size="10.00">ModelData</text>
</a>
</g>
</g>
<!-- Node4&#45;&gt;Node1 -->
<g id="edge5_Node000001_Node000004" class="edge">
<title>Node4&#45;&gt;Node1</title>
<g id="a_edge5_Node000001_Node000004"><a xlink:title=" ">
<path fill="none" stroke="#9a32cd" stroke-dasharray="5,2" d="M187.05,-58.32C180.3,-45.68 171.5,-29.22 166.19,-19.27"/>
<polygon fill="#9a32cd" stroke="#9a32cd" points="184.12,-60.27 191.92,-67.44 190.3,-56.97 184.12,-60.27"/>
</a>
</g>
<text text-anchor="middle" x="194" y="-40" font-family="Helvetica,sans-Serif" font-size="10.00" fill="grey"> data</text>
</g>
<!-- Node5 -->
<g id="Node000005" class="node">
<title>Node5</title>
<g id="a_Node000005"><a xlink:href="structMaterial.html" target="_top" xlink:title="Structure representing a material with various properties.">
<polygon fill="white" stroke="#666666" points="187,-220 130,-220 130,-201 187,-201 187,-220"/>
<text text-anchor="middle" x="158.5" y="-208" font-family="Helvetica,sans-Serif" font-size="10.00">Material</text>
</a>
</g>
</g>
<!-- Node5&#45;&gt;Node4 -->
<g id="edge6_Node000004_Node000005" class="edge">
<title>Node5&#45;&gt;Node4</title>
<g id="a_edge6_Node000004_Node000005"><a xlink:title=" ">
<path fill="none" stroke="#9a32cd" stroke-dasharray="5,2" d="M175.96,-193.19C178.51,-190.03 180.84,-186.59 182.5,-183 197.82,-149.97 197.82,-105.22 197.03,-86.64"/>
<polygon fill="#9a32cd" stroke="#9a32cd" points="173.2,-191.02 168.97,-200.73 178.33,-195.77 173.2,-191.02"/>
</a>
</g>
<text text-anchor="middle" x="220.5" y="-142" font-family="Helvetica,sans-Serif" font-size="10.00" fill="grey"> materials</text>
</g>
<!-- Node6 -->
<g id="Node000006" class="node">
<title>Node6</title>
<g id="a_Node000006"><a xlink:href="structModelObjectData.html" target="_top" xlink:title="Structure representing the data of a 3D model object.">
<polygon fill="white" stroke="#666666" points="160,-154 59,-154 59,-135 160,-135 160,-154"/>
<text text-anchor="middle" x="109.5" y="-142" font-family="Helvetica,sans-Serif" font-size="10.00">ModelObjectData</text>
</a>
</g>
</g>
<!-- Node5&#45;&gt;Node6 -->
<g id="edge8_Node000006_Node000005" class="edge">
<title>Node5&#45;&gt;Node6</title>
<g id="a_edge8_Node000006_Node000005"><a xlink:title=" ">
<path fill="none" stroke="#9a32cd" stroke-dasharray="5,2" d="M141.79,-193.62C138.56,-190.24 135.31,-186.6 132.5,-183 125.26,-173.73 118.41,-162.04 114.1,-154.2"/>
<polygon fill="#9a32cd" stroke="#9a32cd" points="139.52,-196.3 149.06,-200.89 144.46,-191.35 139.52,-196.3"/>
</a>
</g>
<text text-anchor="middle" x="157.5" y="-175" font-family="Helvetica,sans-Serif" font-size="10.00" fill="grey"> materials</text>
</g>
<!-- Node6&#45;&gt;Node4 -->
<g id="edge7_Node000004_Node000006" class="edge">
<title>Node6&#45;&gt;Node4</title>
<g id="a_edge7_Node000004_Node000006"><a xlink:title=" ">
<path fill="none" stroke="#9a32cd" stroke-dasharray="5,2" d="M122.44,-126.81C128.37,-119.84 135.79,-111.99 143.5,-106 153.53,-98.21 166.04,-91.49 176.38,-86.58"/>
<polygon fill="#9a32cd" stroke="#9a32cd" points="119.4,-125 115.81,-134.96 124.83,-129.41 119.4,-125"/>
</a>
</g>
<text text-anchor="middle" x="163" y="-109" font-family="Helvetica,sans-Serif" font-size="10.00" fill="grey"> objects</text>
</g>
<!-- Node7 -->
<g id="Node000007" class="node">
<title>Node7</title>
<g id="a_Node000007"><a xlink:href="structModelAnimation.html" target="_top" xlink:title="Structure representing the data of a 3D model animation.">
<polygon fill="white" stroke="#666666" points="362,-154 265,-154 265,-135 362,-135 362,-154"/>
<text text-anchor="middle" x="313.5" y="-142" font-family="Helvetica,sans-Serif" font-size="10.00">ModelAnimation</text>
</a>
</g>
</g>
<!-- Node7&#45;&gt;Node4 -->
<g id="edge9_Node000004_Node000007" class="edge">
<title>Node7&#45;&gt;Node4</title>
<g id="a_edge9_Node000004_Node000007"><a xlink:title=" ">
<path fill="none" stroke="#9a32cd" stroke-dasharray="5,2" d="M289.28,-129.94C266,-116.91 231.51,-97.6 211.8,-86.57"/>
<polygon fill="#9a32cd" stroke="#9a32cd" points="287.77,-133.11 298.2,-134.94 291.19,-127 287.77,-133.11"/>
</a>
</g>
<text text-anchor="middle" x="294.5" y="-109" font-family="Helvetica,sans-Serif" font-size="10.00" fill="grey"> animations</text>
</g>
<!-- Node8 -->
<g id="Node000008" class="node">
<title>Node8</title>
<g id="a_Node000008"><a xlink:href="structBone.html" target="_top" xlink:title="Structure representing a bone in a 3D model.">
<polygon fill="white" stroke="#666666" points="334,-220 293,-220 293,-201 334,-201 334,-220"/>
<text text-anchor="middle" x="313.5" y="-208" font-family="Helvetica,sans-Serif" font-size="10.00">Bone</text>
</a>
</g>
</g>
<!-- Node8&#45;&gt;Node7 -->
<g id="edge10_Node000007_Node000008" class="edge">
<title>Node8&#45;&gt;Node7</title>
<g id="a_edge10_Node000007_Node000008"><a xlink:title=" ">
<path fill="none" stroke="#9a32cd" stroke-dasharray="5,2" d="M313.5,-190.58C313.5,-178.63 313.5,-163.72 313.5,-154.41"/>
<polygon fill="#9a32cd" stroke="#9a32cd" points="310,-190.87 313.5,-200.87 317,-190.87 310,-190.87"/>
</a>
</g>
<text text-anchor="middle" x="332.5" y="-175" font-family="Helvetica,sans-Serif" font-size="10.00" fill="grey"> targets</text>
</g>
<!-- Node9 -->
<g id="Node000009" class="node">
<title>Node9</title>
<g id="a_Node000009"><a xlink:href="structModelKeyframe.html" target="_top" xlink:title="Structure representing the data of a 3D model keyframe.">
<polygon fill="white" stroke="#666666" points="360.5,-308 266.5,-308 266.5,-289 360.5,-289 360.5,-308"/>
<text text-anchor="middle" x="313.5" y="-296" font-family="Helvetica,sans-Serif" font-size="10.00">ModelKeyframe</text>
</a>
</g>
</g>
<!-- Node9&#45;&gt;Node8 -->
<g id="edge11_Node000008_Node000009" class="edge">
<title>Node9&#45;&gt;Node8</title>
<g id="a_edge11_Node000008_Node000009"><a xlink:title=" ">
<path fill="none" stroke="#9a32cd" stroke-dasharray="5,2" d="M313.5,-278.91C313.5,-260.67 313.5,-233.65 313.5,-220.03"/>
<polygon fill="#9a32cd" stroke="#9a32cd" points="310,-278.94 313.5,-288.94 317,-278.94 310,-278.94"/>
</a>
</g>
<text text-anchor="middle" x="366.5" y="-263" font-family="Helvetica,sans-Serif" font-size="10.00" fill="grey"> rotationKeyframes</text>
<text text-anchor="middle" x="366.5" y="-252" font-family="Helvetica,sans-Serif" font-size="10.00" fill="grey">scaleKeyframes</text>
<text text-anchor="middle" x="366.5" y="-241" font-family="Helvetica,sans-Serif" font-size="10.00" fill="grey">translationKeyframes</text>
</g>
</g>
</svg>
