<?xml version="1.0" encoding="UTF-8" standalone="no"?>
<!DOCTYPE svg PUBLIC "-//W3C//DTD SVG 1.1//EN"
 "http://www.w3.org/Graphics/SVG/1.1/DTD/svg11.dtd">
<!-- Generated by graphviz version 2.43.0 (0)
 -->
<!-- Title: Node Pages: 1 -->
<svg width="142pt" height="96pt"
 viewBox="0.00 0.00 141.50 96.00" xmlns="http://www.w3.org/2000/svg" xmlns:xlink="http://www.w3.org/1999/xlink">
<g id="graph0" class="graph" transform="scale(1 1) rotate(0) translate(4 92)">
<title>Node</title>
<!-- Node1 -->
<g id="Node000001" class="node">
<title>Node1</title>
<g id="a_Node000001"><a xlink:title="Represents a node in the tree structure.">
<polygon fill="#999999" stroke="#666666" points="72.5,-86.5 30.5,-86.5 30.5,-67.5 72.5,-67.5 72.5,-86.5"/>
<text text-anchor="middle" x="51.5" y="-74.5" font-family="Helvetica,sans-Serif" font-size="10.00">Node</text>
</a>
</g>
</g>
<!-- Node1&#45;&gt;Node1 -->
<g id="edge1_Node000001_Node000001" class="edge">
<title>Node1&#45;&gt;Node1</title>
<g id="a_edge1_Node000001_Node000001"><a xlink:title=" ">
<path fill="none" stroke="#9a32cd" stroke-dasharray="5,2" d="M82.91,-82.74C87.45,-81.83 90.5,-79.91 90.5,-77 90.5,-72.22 82.27,-70.13 72.76,-70.72"/>
<polygon fill="#9a32cd" stroke="#9a32cd" points="82.56,-79.26 72.76,-83.28 82.93,-86.25 82.56,-79.26"/>
</a>
</g>
<text text-anchor="middle" x="112" y="-80" font-family="Helvetica,sans-Serif" font-size="10.00" fill="grey"> children</text>
<text text-anchor="middle" x="112" y="-69" font-family="Helvetica,sans-Serif" font-size="10.00" fill="grey">parent</text>
</g>
<!-- Node2 -->
<g id="Node000002" class="node">
<title>Node2</title>
<g id="a_Node000002"><a xlink:href="unionBehaviorAttribute.html" target="_top" xlink:title=" ">
<polygon fill="white" stroke="#666666" points="103,-19 0,-19 0,0 103,0 103,-19"/>
<text text-anchor="middle" x="51.5" y="-7" font-family="Helvetica,sans-Serif" font-size="10.00">BehaviorAttribute</text>
</a>
</g>
</g>
<!-- Node1&#45;&gt;Node2 -->
<g id="edge3_Node000002_Node000001" class="edge">
<title>Node1&#45;&gt;Node2</title>
<g id="a_edge3_Node000002_Node000001"><a xlink:title=" ">
<path fill="none" stroke="#9a32cd" stroke-dasharray="5,2" d="M31.63,-60.26C28.31,-56.62 25.36,-52.48 23.5,-48 18.96,-37.04 28.71,-26.38 37.92,-19.25"/>
<polygon fill="#9a32cd" stroke="#9a32cd" points="29.49,-63.05 39.15,-67.39 34.3,-57.97 29.49,-63.05"/>
</a>
</g>
<text text-anchor="middle" x="37.5" y="-40" font-family="Helvetica,sans-Serif" font-size="10.00" fill="grey"> node</text>
</g>
<!-- Node2&#45;&gt;Node1 -->
<g id="edge2_Node000001_Node000002" class="edge">
<title>Node2&#45;&gt;Node1</title>
<g id="a_edge2_Node000001_Node000002"><a xlink:title=" ">
<path fill="none" stroke="#9a32cd" stroke-dasharray="5,2" d="M54.69,-29.28C55.03,-31.87 55.31,-34.49 55.5,-37 56.28,-47.45 54.68,-59.44 53.27,-67.34"/>
<polygon fill="#9a32cd" stroke="#9a32cd" points="58.13,-28.65 53.17,-19.3 51.22,-29.71 58.13,-28.65"/>
</a>
</g>
<text text-anchor="middle" x="78.5" y="-40" font-family="Helvetica,sans-Serif" font-size="10.00" fill="grey"> attribute</text>
</g>
</g>
</svg>
