<?xml version="1.0" encoding="UTF-8" standalone="no"?>
<!DOCTYPE svg PUBLIC "-//W3C//DTD SVG 1.1//EN"
 "http://www.w3.org/Graphics/SVG/1.1/DTD/svg11.dtd">
<!-- Generated by graphviz version 2.43.0 (0)
 -->
<!-- Title: Button Pages: 1 -->
<svg width="231pt" height="192pt"
 viewBox="0.00 0.00 230.50 192.00" xmlns="http://www.w3.org/2000/svg" xmlns:xlink="http://www.w3.org/1999/xlink">
<g id="graph0" class="graph" transform="scale(1 1) rotate(0) translate(4 188)">
<title>Button</title>
<!-- Node1 -->
<g id="Node000001" class="node">
<title>Node1</title>
<g id="a_Node000001"><a xlink:title="Represents a button.">
<polygon fill="#999999" stroke="#666666" points="146,-74 97,-74 97,-55 146,-55 146,-74"/>
<text text-anchor="middle" x="121.5" y="-62" font-family="Helvetica,sans-Serif" font-size="10.00">Button</text>
</a>
</g>
</g>
<!-- Node4 -->
<g id="Node000004" class="node">
<title>Node4</title>
<g id="a_Node000004"><a xlink:href="classCheckBox.html" target="_top" xlink:title=" ">
<polygon fill="white" stroke="#666666" points="65,-19 0,-19 0,0 65,0 65,-19"/>
<text text-anchor="middle" x="32.5" y="-7" font-family="Helvetica,sans-Serif" font-size="10.00">CheckBox</text>
</a>
</g>
</g>
<!-- Node1&#45;&gt;Node4 -->
<g id="edge3_Node000001_Node000004" class="edge">
<title>Node1&#45;&gt;Node4</title>
<g id="a_edge3_Node000001_Node000004"><a xlink:title=" ">
<path fill="none" stroke="#63b8ff" d="M98.32,-49.7C82.11,-40.04 60.95,-27.44 47.06,-19.17"/>
<polygon fill="#63b8ff" stroke="#63b8ff" points="96.82,-52.88 107.2,-54.98 100.4,-46.86 96.82,-52.88"/>
</a>
</g>
</g>
<!-- Node5 -->
<g id="Node000005" class="node">
<title>Node5</title>
<g id="a_Node000005"><a xlink:href="classRadioButton.html" target="_top" xlink:title="Represents a radio button.">
<polygon fill="white" stroke="#666666" points="160,-19 83,-19 83,0 160,0 160,-19"/>
<text text-anchor="middle" x="121.5" y="-7" font-family="Helvetica,sans-Serif" font-size="10.00">RadioButton</text>
</a>
</g>
</g>
<!-- Node1&#45;&gt;Node5 -->
<g id="edge4_Node000001_Node000005" class="edge">
<title>Node1&#45;&gt;Node5</title>
<g id="a_edge4_Node000001_Node000005"><a xlink:title=" ">
<path fill="none" stroke="#63b8ff" d="M121.5,-44.66C121.5,-35.93 121.5,-25.99 121.5,-19.09"/>
<polygon fill="#63b8ff" stroke="#63b8ff" points="118,-44.75 121.5,-54.75 125,-44.75 118,-44.75"/>
</a>
</g>
</g>
<!-- Node6 -->
<g id="Node000006" class="node">
<title>Node6</title>
<g id="a_Node000006"><a xlink:href="classSlider.html" target="_top" xlink:title=" ">
<polygon fill="white" stroke="#666666" points="222.5,-19 178.5,-19 178.5,0 222.5,0 222.5,-19"/>
<text text-anchor="middle" x="200.5" y="-7" font-family="Helvetica,sans-Serif" font-size="10.00">Slider</text>
</a>
</g>
</g>
<!-- Node1&#45;&gt;Node6 -->
<g id="edge5_Node000001_Node000006" class="edge">
<title>Node1&#45;&gt;Node6</title>
<g id="a_edge5_Node000001_Node000006"><a xlink:title=" ">
<path fill="none" stroke="#63b8ff" d="M142.89,-49.15C157.17,-39.57 175.47,-27.29 187.58,-19.17"/>
<polygon fill="#63b8ff" stroke="#63b8ff" points="140.55,-46.51 134.19,-54.98 144.45,-52.32 140.55,-46.51"/>
</a>
</g>
</g>
<!-- Node2 -->
<g id="Node000002" class="node">
<title>Node2</title>
<g id="a_Node000002"><a xlink:href="classFrame.html" target="_top" xlink:title="Represents a frame.">
<polygon fill="white" stroke="#666666" points="145,-129 98,-129 98,-110 145,-110 145,-129"/>
<text text-anchor="middle" x="121.5" y="-117" font-family="Helvetica,sans-Serif" font-size="10.00">Frame</text>
</a>
</g>
</g>
<!-- Node2&#45;&gt;Node1 -->
<g id="edge1_Node000001_Node000002" class="edge">
<title>Node2&#45;&gt;Node1</title>
<g id="a_edge1_Node000001_Node000002"><a xlink:title=" ">
<path fill="none" stroke="#63b8ff" d="M121.5,-99.66C121.5,-90.93 121.5,-80.99 121.5,-74.09"/>
<polygon fill="#63b8ff" stroke="#63b8ff" points="118,-99.75 121.5,-109.75 125,-99.75 118,-99.75"/>
</a>
</g>
</g>
<!-- Node3 -->
<g id="Node000003" class="node">
<title>Node3</title>
<g id="a_Node000003"><a xlink:href="classNode.html" target="_top" xlink:title="Represents a node in the tree structure.">
<polygon fill="white" stroke="#666666" points="142.5,-184 100.5,-184 100.5,-165 142.5,-165 142.5,-184"/>
<text text-anchor="middle" x="121.5" y="-172" font-family="Helvetica,sans-Serif" font-size="10.00">Node</text>
</a>
</g>
</g>
<!-- Node3&#45;&gt;Node2 -->
<g id="edge2_Node000002_Node000003" class="edge">
<title>Node3&#45;&gt;Node2</title>
<g id="a_edge2_Node000002_Node000003"><a xlink:title=" ">
<path fill="none" stroke="#63b8ff" d="M121.5,-154.66C121.5,-145.93 121.5,-135.99 121.5,-129.09"/>
<polygon fill="#63b8ff" stroke="#63b8ff" points="118,-154.75 121.5,-164.75 125,-154.75 118,-154.75"/>
</a>
</g>
</g>
</g>
</svg>
