<?xml version="1.0" encoding="UTF-8" standalone="no"?>
<!DOCTYPE svg PUBLIC "-//W3C//DTD SVG 1.1//EN"
 "http://www.w3.org/Graphics/SVG/1.1/DTD/svg11.dtd">
<!-- Generated by graphviz version 2.43.0 (0)
 -->
<!-- Title: MeshCShape Pages: 1 -->
<svg width="196pt" height="152pt"
 viewBox="0.00 0.00 195.50 152.00" xmlns="http://www.w3.org/2000/svg" xmlns:xlink="http://www.w3.org/1999/xlink">
<g id="graph0" class="graph" transform="scale(1 1) rotate(0) translate(4 148)">
<title>MeshCShape</title>
<!-- Node1 -->
<g id="Node000001" class="node">
<title>Node1</title>
<g id="a_Node000001"><a xlink:title=" ">
<polygon fill="#999999" stroke="#666666" points="80,-19 0,-19 0,0 80,0 80,-19"/>
<text text-anchor="middle" x="40" y="-7" font-family="Helvetica,sans-Serif" font-size="10.00">MeshCShape</text>
</a>
</g>
</g>
<!-- Node2 -->
<g id="Node000002" class="node">
<title>Node2</title>
<g id="a_Node000002"><a xlink:href="classCShape.html" target="_top" xlink:title=" ">
<polygon fill="white" stroke="#666666" points="66.5,-75 13.5,-75 13.5,-56 66.5,-56 66.5,-75"/>
<text text-anchor="middle" x="40" y="-63" font-family="Helvetica,sans-Serif" font-size="10.00">CShape</text>
</a>
</g>
</g>
<!-- Node2&#45;&gt;Node1 -->
<g id="edge1_Node000001_Node000002" class="edge">
<title>Node2&#45;&gt;Node1</title>
<g id="a_edge1_Node000001_Node000002"><a xlink:title=" ">
<path fill="none" stroke="#63b8ff" d="M40,-45.3C40,-36.41 40,-26.28 40,-19.25"/>
<polygon fill="#63b8ff" stroke="#63b8ff" points="36.5,-45.58 40,-55.58 43.5,-45.58 36.5,-45.58"/>
</a>
</g>
</g>
<!-- Node3 -->
<g id="Node000003" class="node">
<title>Node3</title>
<g id="a_Node000003"><a xlink:href="classNode.html" target="_top" xlink:title="Represents a node in the tree structure.">
<polygon fill="white" stroke="#666666" points="106,-142.5 64,-142.5 64,-123.5 106,-123.5 106,-142.5"/>
<text text-anchor="middle" x="85" y="-130.5" font-family="Helvetica,sans-Serif" font-size="10.00">Node</text>
</a>
</g>
</g>
<!-- Node3&#45;&gt;Node2 -->
<g id="edge2_Node000002_Node000003" class="edge">
<title>Node3&#45;&gt;Node2</title>
<g id="a_edge2_Node000002_Node000003"><a xlink:title=" ">
<path fill="none" stroke="#63b8ff" d="M71.44,-115.4C68.57,-111.7 65.62,-107.77 63,-104 56.28,-94.35 49.32,-82.74 44.84,-75.02"/>
<polygon fill="#63b8ff" stroke="#63b8ff" points="68.83,-117.73 77.8,-123.37 74.3,-113.37 68.83,-117.73"/>
</a>
</g>
</g>
<!-- Node3&#45;&gt;Node3 -->
<g id="edge3_Node000003_Node000003" class="edge">
<title>Node3&#45;&gt;Node3</title>
<g id="a_edge3_Node000003_Node000003"><a xlink:title=" ">
<path fill="none" stroke="#9a32cd" stroke-dasharray="5,2" d="M116.41,-138.74C120.95,-137.83 124,-135.91 124,-133 124,-128.22 115.77,-126.13 106.26,-126.72"/>
<polygon fill="#9a32cd" stroke="#9a32cd" points="116.06,-135.26 106.26,-139.28 116.43,-142.25 116.06,-135.26"/>
</a>
</g>
<text text-anchor="middle" x="145.5" y="-136" font-family="Helvetica,sans-Serif" font-size="10.00" fill="grey"> children</text>
<text text-anchor="middle" x="145.5" y="-125" font-family="Helvetica,sans-Serif" font-size="10.00" fill="grey">parent</text>
</g>
<!-- Node4 -->
<g id="Node000004" class="node">
<title>Node4</title>
<g id="a_Node000004"><a xlink:href="unionBehaviorAttribute.html" target="_top" xlink:title=" ">
<polygon fill="white" stroke="#666666" points="187.5,-75 84.5,-75 84.5,-56 187.5,-56 187.5,-75"/>
<text text-anchor="middle" x="136" y="-63" font-family="Helvetica,sans-Serif" font-size="10.00">BehaviorAttribute</text>
</a>
</g>
</g>
<!-- Node3&#45;&gt;Node4 -->
<g id="edge5_Node000004_Node000003" class="edge">
<title>Node3&#45;&gt;Node4</title>
<g id="a_edge5_Node000004_Node000003"><a xlink:title=" ">
<path fill="none" stroke="#9a32cd" stroke-dasharray="5,2" d="M79.12,-113.36C78.06,-106.51 78.28,-98.98 82,-93 87.14,-84.76 95.67,-79.01 104.45,-75.02"/>
<polygon fill="#9a32cd" stroke="#9a32cd" points="75.76,-114.34 81.52,-123.23 82.56,-112.69 75.76,-114.34"/>
</a>
</g>
<text text-anchor="middle" x="96" y="-96" font-family="Helvetica,sans-Serif" font-size="10.00" fill="grey"> node</text>
</g>
<!-- Node4&#45;&gt;Node3 -->
<g id="edge4_Node000003_Node000004" class="edge">
<title>Node4&#45;&gt;Node3</title>
<g id="a_edge4_Node000003_Node000004"><a xlink:title=" ">
<path fill="none" stroke="#9a32cd" stroke-dasharray="5,2" d="M126.76,-84.49C123.14,-90.9 118.72,-98.01 114,-104 108.46,-111.04 101.21,-118.04 95.35,-123.28"/>
<polygon fill="#9a32cd" stroke="#9a32cd" points="130.07,-85.73 131.73,-75.27 123.91,-82.41 130.07,-85.73"/>
</a>
</g>
<text text-anchor="middle" x="144" y="-96" font-family="Helvetica,sans-Serif" font-size="10.00" fill="grey"> attribute</text>
</g>
</g>
</svg>
