<?xml version="1.0" encoding="UTF-8" standalone="no"?>
<!DOCTYPE svg PUBLIC "-//W3C//DTD SVG 1.1//EN"
 "http://www.w3.org/Graphics/SVG/1.1/DTD/svg11.dtd">
<!-- Generated by graphviz version 2.43.0 (0)
 -->
<!-- Title: StaticBody Pages: 1 -->
<svg width="266pt" height="218pt"
 viewBox="0.00 0.00 266.00 218.00" xmlns="http://www.w3.org/2000/svg" xmlns:xlink="http://www.w3.org/1999/xlink">
<g id="graph0" class="graph" transform="scale(1 1) rotate(0) translate(4 214)">
<title>StaticBody</title>
<!-- Node1 -->
<g id="Node000001" class="node">
<title>Node1</title>
<g id="a_Node000001"><a xlink:title="Represents a static body in the physics simulation.">
<polygon fill="#999999" stroke="#666666" points="69,-19 0,-19 0,0 69,0 69,-19"/>
<text text-anchor="middle" x="34.5" y="-7" font-family="Helvetica,sans-Serif" font-size="10.00">StaticBody</text>
</a>
</g>
</g>
<!-- Node2 -->
<g id="Node000002" class="node">
<title>Node2</title>
<g id="a_Node000002"><a xlink:href="classBody.html" target="_top" xlink:title=" ">
<polygon fill="white" stroke="#666666" points="105,-75 64,-75 64,-56 105,-56 105,-75"/>
<text text-anchor="middle" x="84.5" y="-63" font-family="Helvetica,sans-Serif" font-size="10.00">Body</text>
</a>
</g>
</g>
<!-- Node2&#45;&gt;Node1 -->
<g id="edge1_Node000001_Node000002" class="edge">
<title>Node2&#45;&gt;Node1</title>
<g id="a_edge1_Node000001_Node000002"><a xlink:title=" ">
<path fill="none" stroke="#63b8ff" d="M69.42,-48.22C60.61,-38.7 49.83,-27.06 42.6,-19.25"/>
<polygon fill="#63b8ff" stroke="#63b8ff" points="66.88,-50.62 76.24,-55.58 72.02,-45.87 66.88,-50.62"/>
</a>
</g>
</g>
<!-- Node3 -->
<g id="Node000003" class="node">
<title>Node3</title>
<g id="a_Node000003"><a xlink:href="classPhysicalNode.html" target="_top" xlink:title=" ">
<polygon fill="white" stroke="#666666" points="137,-141 54,-141 54,-122 137,-122 137,-141"/>
<text text-anchor="middle" x="95.5" y="-129" font-family="Helvetica,sans-Serif" font-size="10.00">PhysicalNode</text>
</a>
</g>
</g>
<!-- Node3&#45;&gt;Node2 -->
<g id="edge2_Node000002_Node000003" class="edge">
<title>Node3&#45;&gt;Node2</title>
<g id="a_edge2_Node000002_Node000003"><a xlink:title=" ">
<path fill="none" stroke="#63b8ff" d="M97.76,-111.38C97.99,-105.44 97.77,-98.9 96.5,-93 95.14,-86.68 92.14,-80.06 89.48,-75.01"/>
<polygon fill="#63b8ff" stroke="#63b8ff" points="94.24,-111.5 96.9,-121.75 101.21,-112.08 94.24,-111.5"/>
</a>
</g>
</g>
<!-- Node4 -->
<g id="Node000004" class="node">
<title>Node4</title>
<g id="a_Node000004"><a xlink:href="classNode.html" target="_top" xlink:title="Represents a node in the tree structure.">
<polygon fill="white" stroke="#666666" points="135.5,-208.5 93.5,-208.5 93.5,-189.5 135.5,-189.5 135.5,-208.5"/>
<text text-anchor="middle" x="114.5" y="-196.5" font-family="Helvetica,sans-Serif" font-size="10.00">Node</text>
</a>
</g>
</g>
<!-- Node4&#45;&gt;Node1 -->
<g id="edge7_Node000001_Node000004" class="edge">
<title>Node4&#45;&gt;Node1</title>
<g id="a_edge7_Node000001_Node000004"><a xlink:title=" ">
<path fill="none" stroke="#9a32cd" stroke-dasharray="5,2" d="M88.41,-184.48C61.99,-169.1 22.91,-141.19 7.5,-104 -4.98,-73.87 16.7,-36.03 28.13,-19.23"/>
<polygon fill="#9a32cd" stroke="#9a32cd" points="86.73,-187.56 97.16,-189.4 90.16,-181.45 86.73,-187.56"/>
</a>
</g>
<text text-anchor="middle" x="50" y="-96" font-family="Helvetica,sans-Serif" font-size="10.00" fill="grey"> collisionsShapes</text>
</g>
<!-- Node4&#45;&gt;Node3 -->
<g id="edge3_Node000003_Node000004" class="edge">
<title>Node4&#45;&gt;Node3</title>
<g id="a_edge3_Node000003_Node000004"><a xlink:title=" ">
<path fill="none" stroke="#63b8ff" d="M109.15,-179.57C105.52,-167.03 100.87,-151.02 98.05,-141.27"/>
<polygon fill="#63b8ff" stroke="#63b8ff" points="105.87,-180.81 112.02,-189.44 112.59,-178.86 105.87,-180.81"/>
</a>
</g>
</g>
<!-- Node4&#45;&gt;Node4 -->
<g id="edge4_Node000004_Node000004" class="edge">
<title>Node4&#45;&gt;Node4</title>
<g id="a_edge4_Node000004_Node000004"><a xlink:title=" ">
<path fill="none" stroke="#9a32cd" stroke-dasharray="5,2" d="M145.91,-204.74C150.45,-203.83 153.5,-201.91 153.5,-199 153.5,-194.22 145.27,-192.13 135.76,-192.72"/>
<polygon fill="#9a32cd" stroke="#9a32cd" points="145.56,-201.26 135.76,-205.28 145.93,-208.25 145.56,-201.26"/>
</a>
</g>
<text text-anchor="middle" x="175" y="-202" font-family="Helvetica,sans-Serif" font-size="10.00" fill="grey"> children</text>
<text text-anchor="middle" x="175" y="-191" font-family="Helvetica,sans-Serif" font-size="10.00" fill="grey">parent</text>
</g>
<!-- Node5 -->
<g id="Node000005" class="node">
<title>Node5</title>
<g id="a_Node000005"><a xlink:href="unionBehaviorAttribute.html" target="_top" xlink:title=" ">
<polygon fill="white" stroke="#666666" points="258,-141 155,-141 155,-122 258,-122 258,-141"/>
<text text-anchor="middle" x="206.5" y="-129" font-family="Helvetica,sans-Serif" font-size="10.00">BehaviorAttribute</text>
</a>
</g>
</g>
<!-- Node4&#45;&gt;Node5 -->
<g id="edge6_Node000005_Node000004" class="edge">
<title>Node4&#45;&gt;Node5</title>
<g id="a_edge6_Node000005_Node000004"><a xlink:title=" ">
<path fill="none" stroke="#9a32cd" stroke-dasharray="5,2" d="M125.05,-180.53C130.19,-173.13 136.91,-164.89 144.5,-159 154.49,-151.25 167.09,-145.33 178.31,-141.06"/>
<polygon fill="#9a32cd" stroke="#9a32cd" points="121.94,-178.9 119.44,-189.19 127.81,-182.7 121.94,-178.9"/>
</a>
</g>
<text text-anchor="middle" x="158.5" y="-162" font-family="Helvetica,sans-Serif" font-size="10.00" fill="grey"> node</text>
</g>
<!-- Node5&#45;&gt;Node4 -->
<g id="edge5_Node000004_Node000005" class="edge">
<title>Node5&#45;&gt;Node4</title>
<g id="a_edge5_Node000004_Node000005"><a xlink:title=" ">
<path fill="none" stroke="#9a32cd" stroke-dasharray="5,2" d="M195.58,-149.48C190.43,-156.51 183.82,-164.32 176.5,-170 164.28,-179.49 148.33,-186.6 135.67,-191.28"/>
<polygon fill="#9a32cd" stroke="#9a32cd" points="198.47,-151.45 201.25,-141.23 192.7,-147.49 198.47,-151.45"/>
</a>
</g>
<text text-anchor="middle" x="210.5" y="-162" font-family="Helvetica,sans-Serif" font-size="10.00" fill="grey"> attribute</text>
</g>
</g>
</svg>
