<?xml version="1.0" encoding="UTF-8" standalone="no"?>
<!DOCTYPE svg PUBLIC "-//W3C//DTD SVG 1.1//EN"
 "http://www.w3.org/Graphics/SVG/1.1/DTD/svg11.dtd">
<!-- Generated by graphviz version 2.43.0 (0)
 -->
<!-- Title: ImageFrame Pages: 1 -->
<svg width="710pt" height="218pt"
 viewBox="0.00 0.00 710.00 218.00" xmlns="http://www.w3.org/2000/svg" xmlns:xlink="http://www.w3.org/1999/xlink">
<g id="graph0" class="graph" transform="scale(1 1) rotate(0) translate(4 214)">
<title>ImageFrame</title>
<!-- Node1 -->
<g id="Node000001" class="node">
<title>Node1</title>
<g id="a_Node000001"><a xlink:title="Represents an image frame.">
<polygon fill="#999999" stroke="#666666" points="344.5,-208.5 266.5,-208.5 266.5,-189.5 344.5,-189.5 344.5,-208.5"/>
<text text-anchor="middle" x="305.5" y="-196.5" font-family="Helvetica,sans-Serif" font-size="10.00">ImageFrame</text>
</a>
</g>
</g>
<!-- Node2 -->
<g id="Node000002" class="node">
<title>Node2</title>
<g id="a_Node000002"><a xlink:href="classFrame.html" target="_top" xlink:title="Represents a frame.">
<polygon fill="white" stroke="#666666" points="328,-141 281,-141 281,-122 328,-122 328,-141"/>
<text text-anchor="middle" x="304.5" y="-129" font-family="Helvetica,sans-Serif" font-size="10.00">Frame</text>
</a>
</g>
</g>
<!-- Node1&#45;&gt;Node2 -->
<g id="edge17_Node000002_Node000001" class="edge">
<title>Node1&#45;&gt;Node2</title>
<g id="a_edge17_Node000002_Node000001"><a xlink:title=" ">
<path fill="none" stroke="#9a32cd" stroke-dasharray="5,2" d="M305.21,-179.18C305.02,-166.71 304.78,-150.92 304.63,-141.27"/>
<polygon fill="#9a32cd" stroke="#9a32cd" points="301.72,-179.49 305.37,-189.44 308.72,-179.38 301.72,-179.49"/>
</a>
</g>
<text text-anchor="middle" x="338" y="-162" font-family="Helvetica,sans-Serif" font-size="10.00" fill="grey"> imageFrame</text>
</g>
<!-- Node2&#45;&gt;Node1 -->
<g id="edge1_Node000001_Node000002" class="edge">
<title>Node2&#45;&gt;Node1</title>
<g id="a_edge1_Node000001_Node000002"><a xlink:title=" ">
<path fill="none" stroke="#63b8ff" d="M302.9,-151.31C302.74,-153.89 302.59,-156.51 302.5,-159 302.32,-163.89 302.24,-165.12 302.5,-170 302.84,-176.44 303.63,-183.69 304.31,-189.19"/>
<polygon fill="#63b8ff" stroke="#63b8ff" points="306.4,-151.56 303.67,-141.32 299.42,-151.03 306.4,-151.56"/>
</a>
</g>
</g>
<!-- Node5 -->
<g id="Node000005" class="node">
<title>Node5</title>
<g id="a_Node000005"><a xlink:href="structTheme.html" target="_top" xlink:title="Represents a theme.">
<polygon fill="white" stroke="#666666" points="528.5,-75 478.5,-75 478.5,-56 528.5,-56 528.5,-75"/>
<text text-anchor="middle" x="503.5" y="-63" font-family="Helvetica,sans-Serif" font-size="10.00">Theme</text>
</a>
</g>
</g>
<!-- Node2&#45;&gt;Node5 -->
<g id="edge8_Node000005_Node000002" class="edge">
<title>Node2&#45;&gt;Node5</title>
<g id="a_edge8_Node000005_Node000002"><a xlink:title=" ">
<path fill="none" stroke="#9a32cd" stroke-dasharray="5,2" d="M338.53,-125.76C362.78,-121.71 395.85,-114.79 423.5,-104 432.59,-100.45 433.79,-97.4 442.5,-93 455.39,-86.5 470.23,-80.03 482.05,-75.11"/>
<polygon fill="#9a32cd" stroke="#9a32cd" points="337.71,-122.35 328.38,-127.38 338.81,-129.26 337.71,-122.35"/>
</a>
</g>
<text text-anchor="middle" x="460" y="-96" font-family="Helvetica,sans-Serif" font-size="10.00" fill="grey"> parent</text>
</g>
<!-- Node7 -->
<g id="Node000007" class="node">
<title>Node7</title>
<g id="a_Node000007"><a xlink:href="classLabel.html" target="_top" xlink:title="Represents a label.">
<polygon fill="white" stroke="#666666" points="43,-75 0,-75 0,-56 43,-56 43,-75"/>
<text text-anchor="middle" x="21.5" y="-63" font-family="Helvetica,sans-Serif" font-size="10.00">Label</text>
</a>
</g>
</g>
<!-- Node2&#45;&gt;Node7 -->
<g id="edge10_Node000007_Node000002" class="edge">
<title>Node2&#45;&gt;Node7</title>
<g id="a_edge10_Node000007_Node000002"><a xlink:title=" ">
<path fill="none" stroke="#63b8ff" d="M270.83,-128.73C215.67,-125.48 108.69,-117.63 73.5,-104 56.69,-97.49 40.33,-84.2 30.58,-75.32"/>
<polygon fill="#63b8ff" stroke="#63b8ff" points="270.63,-132.22 280.81,-129.3 271.03,-125.24 270.63,-132.22"/>
</a>
</g>
</g>
<!-- Node8 -->
<g id="Node000008" class="node">
<title>Node8</title>
<g id="a_Node000008"><a xlink:href="classButton.html" target="_top" xlink:title="Represents a button.">
<polygon fill="white" stroke="#666666" points="376,-75 327,-75 327,-56 376,-56 376,-75"/>
<text text-anchor="middle" x="351.5" y="-63" font-family="Helvetica,sans-Serif" font-size="10.00">Button</text>
</a>
</g>
</g>
<!-- Node2&#45;&gt;Node8 -->
<g id="edge12_Node000008_Node000002" class="edge">
<title>Node2&#45;&gt;Node8</title>
<g id="a_edge12_Node000008_Node000002"><a xlink:title=" ">
<path fill="none" stroke="#63b8ff" d="M337.92,-125.17C350.28,-121.41 363.08,-114.98 370.5,-104 376.8,-94.69 368.64,-83.01 361.14,-75.18"/>
<polygon fill="#63b8ff" stroke="#63b8ff" points="337.03,-121.79 328.21,-127.66 338.77,-128.57 337.03,-121.79"/>
</a>
</g>
</g>
<!-- Node9 -->
<g id="Node000009" class="node">
<title>Node9</title>
<g id="a_Node000009"><a xlink:href="classInputArea.html" target="_top" xlink:title="Represents an input area.">
<polygon fill="white" stroke="#666666" points="226.5,-75 162.5,-75 162.5,-56 226.5,-56 226.5,-75"/>
<text text-anchor="middle" x="194.5" y="-63" font-family="Helvetica,sans-Serif" font-size="10.00">InputArea</text>
</a>
</g>
</g>
<!-- Node2&#45;&gt;Node9 -->
<g id="edge14_Node000009_Node000002" class="edge">
<title>Node2&#45;&gt;Node9</title>
<g id="a_edge14_Node000009_Node000002"><a xlink:title=" ">
<path fill="none" stroke="#63b8ff" d="M271.04,-120.83C259.03,-116.6 245.7,-110.98 234.5,-104 221.74,-96.04 209.49,-83.62 201.99,-75.28"/>
<polygon fill="#63b8ff" stroke="#63b8ff" points="270.14,-124.22 280.74,-124.06 272.36,-117.58 270.14,-124.22"/>
</a>
</g>
</g>
<!-- Node10 -->
<g id="Node000010" class="node">
<title>Node10</title>
<g id="a_Node000010"><a xlink:href="classSelectList.html" target="_top" xlink:title="Represents a selectable list.">
<polygon fill="white" stroke="#666666" points="308.5,-75 244.5,-75 244.5,-56 308.5,-56 308.5,-75"/>
<text text-anchor="middle" x="276.5" y="-63" font-family="Helvetica,sans-Serif" font-size="10.00">SelectList</text>
</a>
</g>
</g>
<!-- Node2&#45;&gt;Node10 -->
<g id="edge16_Node000010_Node000002" class="edge">
<title>Node2&#45;&gt;Node10</title>
<g id="a_edge16_Node000010_Node000002"><a xlink:title=" ">
<path fill="none" stroke="#63b8ff" d="M298.23,-112.26C295.96,-106.08 293.27,-99.17 290.5,-93 287.77,-86.92 284.27,-80.3 281.46,-75.19"/>
<polygon fill="#63b8ff" stroke="#63b8ff" points="294.94,-113.48 301.59,-121.73 301.54,-111.14 294.94,-113.48"/>
</a>
</g>
</g>
<!-- Node3 -->
<g id="Node000003" class="node">
<title>Node3</title>
<g id="a_Node000003"><a xlink:href="classNode.html" target="_top" xlink:title="Represents a node in the tree structure.">
<polygon fill="white" stroke="#666666" points="620.5,-208.5 578.5,-208.5 578.5,-189.5 620.5,-189.5 620.5,-208.5"/>
<text text-anchor="middle" x="599.5" y="-196.5" font-family="Helvetica,sans-Serif" font-size="10.00">Node</text>
</a>
</g>
</g>
<!-- Node3&#45;&gt;Node2 -->
<g id="edge2_Node000002_Node000003" class="edge">
<title>Node3&#45;&gt;Node2</title>
<g id="a_edge2_Node000002_Node000003"><a xlink:title=" ">
<path fill="none" stroke="#63b8ff" d="M568.39,-191.09C509.17,-177.94 381.43,-149.58 328.36,-137.8"/>
<polygon fill="#63b8ff" stroke="#63b8ff" points="567.76,-194.54 578.28,-193.29 569.28,-187.7 567.76,-194.54"/>
</a>
</g>
</g>
<!-- Node3&#45;&gt;Node3 -->
<g id="edge3_Node000003_Node000003" class="edge">
<title>Node3&#45;&gt;Node3</title>
<g id="a_edge3_Node000003_Node000003"><a xlink:title=" ">
<path fill="none" stroke="#9a32cd" stroke-dasharray="5,2" d="M630.91,-204.74C635.45,-203.83 638.5,-201.91 638.5,-199 638.5,-194.22 630.27,-192.13 620.76,-192.72"/>
<polygon fill="#9a32cd" stroke="#9a32cd" points="630.56,-201.26 620.76,-205.28 630.93,-208.25 630.56,-201.26"/>
</a>
</g>
<text text-anchor="middle" x="660" y="-202" font-family="Helvetica,sans-Serif" font-size="10.00" fill="grey"> children</text>
<text text-anchor="middle" x="660" y="-191" font-family="Helvetica,sans-Serif" font-size="10.00" fill="grey">parent</text>
</g>
<!-- Node4 -->
<g id="Node000004" class="node">
<title>Node4</title>
<g id="a_Node000004"><a xlink:href="unionBehaviorAttribute.html" target="_top" xlink:title=" ">
<polygon fill="white" stroke="#666666" points="702,-141 599,-141 599,-122 702,-122 702,-141"/>
<text text-anchor="middle" x="650.5" y="-129" font-family="Helvetica,sans-Serif" font-size="10.00">BehaviorAttribute</text>
</a>
</g>
</g>
<!-- Node3&#45;&gt;Node4 -->
<g id="edge5_Node000004_Node000003" class="edge">
<title>Node3&#45;&gt;Node4</title>
<g id="a_edge5_Node000004_Node000003"><a xlink:title=" ">
<path fill="none" stroke="#9a32cd" stroke-dasharray="5,2" d="M593.62,-179.36C592.56,-172.51 592.78,-164.98 596.5,-159 601.64,-150.76 610.17,-145.01 618.95,-141.02"/>
<polygon fill="#9a32cd" stroke="#9a32cd" points="590.26,-180.34 596.02,-189.23 597.06,-178.69 590.26,-180.34"/>
</a>
</g>
<text text-anchor="middle" x="610.5" y="-162" font-family="Helvetica,sans-Serif" font-size="10.00" fill="grey"> node</text>
</g>
<!-- Node4&#45;&gt;Node3 -->
<g id="edge4_Node000003_Node000004" class="edge">
<title>Node4&#45;&gt;Node3</title>
<g id="a_edge4_Node000003_Node000004"><a xlink:title=" ">
<path fill="none" stroke="#9a32cd" stroke-dasharray="5,2" d="M641.26,-150.49C637.64,-156.9 633.22,-164.01 628.5,-170 622.96,-177.04 615.71,-184.04 609.85,-189.28"/>
<polygon fill="#9a32cd" stroke="#9a32cd" points="644.57,-151.73 646.23,-141.27 638.41,-148.41 644.57,-151.73"/>
</a>
</g>
<text text-anchor="middle" x="659.5" y="-162" font-family="Helvetica,sans-Serif" font-size="10.00" fill="grey"> attribute</text>
</g>
<!-- Node5&#45;&gt;Node2 -->
<g id="edge6_Node000002_Node000005" class="edge">
<title>Node5&#45;&gt;Node2</title>
<g id="a_edge6_Node000002_Node000005"><a xlink:title=" ">
<path fill="none" stroke="#9a32cd" stroke-dasharray="5,2" d="M496.8,-84.87C493.3,-91.93 488.31,-99.4 481.5,-104 456.92,-120.62 370.49,-127.19 328.18,-129.46"/>
<polygon fill="#9a32cd" stroke="#9a32cd" points="500.22,-85.76 500.88,-75.19 493.77,-83.04 500.22,-85.76"/>
</a>
</g>
<text text-anchor="middle" x="510" y="-96" font-family="Helvetica,sans-Serif" font-size="10.00" fill="grey"> theme</text>
</g>
<!-- Node6 -->
<g id="Node000006" class="node">
<title>Node6</title>
<g id="a_Node000006"><a xlink:href="structFont.html" target="_top" xlink:title="Represents a font.">
<polygon fill="white" stroke="#666666" points="580.5,-141 542.5,-141 542.5,-122 580.5,-122 580.5,-141"/>
<text text-anchor="middle" x="561.5" y="-129" font-family="Helvetica,sans-Serif" font-size="10.00">Font</text>
</a>
</g>
</g>
<!-- Node6&#45;&gt;Node5 -->
<g id="edge7_Node000005_Node000006" class="edge">
<title>Node6&#45;&gt;Node5</title>
<g id="a_edge7_Node000005_Node000006"><a xlink:title=" ">
<path fill="none" stroke="#9a32cd" stroke-dasharray="5,2" d="M553.08,-112.86C549.44,-106.23 544.8,-98.88 539.5,-93 533.27,-86.08 524.97,-79.83 517.91,-75.13"/>
<polygon fill="#9a32cd" stroke="#9a32cd" points="549.99,-114.5 557.66,-121.81 556.22,-111.31 549.99,-114.5"/>
</a>
</g>
<text text-anchor="middle" x="559" y="-96" font-family="Helvetica,sans-Serif" font-size="10.00" fill="grey"> font</text>
</g>
<!-- Node7&#45;&gt;Node2 -->
<g id="edge9_Node000002_Node000007" class="edge">
<title>Node7&#45;&gt;Node2</title>
<g id="a_edge9_Node000002_Node000007"><a xlink:title=" ">
<path fill="none" stroke="#9a32cd" stroke-dasharray="5,2" d="M14.13,-84.95C12.71,-91.7 12.87,-98.92 17.5,-104 35.12,-123.32 215.26,-128.76 280.81,-130.1"/>
<polygon fill="#9a32cd" stroke="#9a32cd" points="17.57,-85.69 17.26,-75.1 10.9,-83.57 17.57,-85.69"/>
</a>
</g>
<text text-anchor="middle" x="31.5" y="-96" font-family="Helvetica,sans-Serif" font-size="10.00" fill="grey"> label</text>
</g>
<!-- Node8&#45;&gt;Node2 -->
<g id="edge11_Node000002_Node000008" class="edge">
<title>Node8&#45;&gt;Node2</title>
<g id="a_edge11_Node000002_Node000008"><a xlink:title=" ">
<path fill="none" stroke="#9a32cd" stroke-dasharray="5,2" d="M338.96,-83.58C329.89,-95.92 318.02,-112.09 310.84,-121.87"/>
<polygon fill="#9a32cd" stroke="#9a32cd" points="341.86,-85.54 344.96,-75.41 336.22,-81.39 341.86,-85.54"/>
</a>
</g>
<text text-anchor="middle" x="349" y="-96" font-family="Helvetica,sans-Serif" font-size="10.00" fill="grey"> button</text>
</g>
<!-- Node11 -->
<g id="Node000011" class="node">
<title>Node11</title>
<g id="a_Node000011"><a xlink:href="classRadioButton.html" target="_top" xlink:title="Represents a radio button.">
<polygon fill="white" stroke="#666666" points="208,-19 131,-19 131,0 208,0 208,-19"/>
<text text-anchor="middle" x="169.5" y="-7" font-family="Helvetica,sans-Serif" font-size="10.00">RadioButton</text>
</a>
</g>
</g>
<!-- Node8&#45;&gt;Node11 -->
<g id="edge19_Node000011_Node000008" class="edge">
<title>Node8&#45;&gt;Node11</title>
<g id="a_edge19_Node000011_Node000008"><a xlink:title=" ">
<path fill="none" stroke="#63b8ff" d="M317.36,-54.37C283.06,-44.19 230.78,-28.68 198.45,-19.09"/>
<polygon fill="#63b8ff" stroke="#63b8ff" points="316.37,-57.73 326.95,-57.22 318.36,-51.02 316.37,-57.73"/>
</a>
</g>
</g>
<!-- Node12 -->
<g id="Node000012" class="node">
<title>Node12</title>
<g id="a_Node000012"><a xlink:href="classSlider.html" target="_top" xlink:title=" ">
<polygon fill="white" stroke="#666666" points="413.5,-19 369.5,-19 369.5,0 413.5,0 413.5,-19"/>
<text text-anchor="middle" x="391.5" y="-7" font-family="Helvetica,sans-Serif" font-size="10.00">Slider</text>
</a>
</g>
</g>
<!-- Node8&#45;&gt;Node12 -->
<g id="edge21_Node000012_Node000008" class="edge">
<title>Node8&#45;&gt;Node12</title>
<g id="a_edge21_Node000012_Node000008"><a xlink:title=" ">
<path fill="none" stroke="#63b8ff" d="M364.2,-47.36C371.13,-38 379.41,-26.83 385.02,-19.25"/>
<polygon fill="#63b8ff" stroke="#63b8ff" points="361.25,-45.46 358.11,-55.58 366.87,-49.63 361.25,-45.46"/>
</a>
</g>
</g>
<!-- Node9&#45;&gt;Node2 -->
<g id="edge13_Node000002_Node000009" class="edge">
<title>Node9&#45;&gt;Node2</title>
<g id="a_edge13_Node000002_Node000009"><a xlink:title=" ">
<path fill="none" stroke="#9a32cd" stroke-dasharray="5,2" d="M156.57,-79C143.06,-85.46 133.05,-94.07 141.5,-104 159.1,-124.69 239.96,-129.27 280.78,-130.25"/>
<polygon fill="#9a32cd" stroke="#9a32cd" points="157.96,-82.21 165.79,-75.07 155.22,-75.77 157.96,-82.21"/>
</a>
</g>
<text text-anchor="middle" x="167" y="-96" font-family="Helvetica,sans-Serif" font-size="10.00" fill="grey"> inputArea</text>
</g>
<!-- Node10&#45;&gt;Node2 -->
<g id="edge15_Node000002_Node000010" class="edge">
<title>Node10&#45;&gt;Node2</title>
<g id="a_edge15_Node000002_Node000010"><a xlink:title=" ">
<path fill="none" stroke="#9a32cd" stroke-dasharray="5,2" d="M249.94,-80.67C241.13,-87.29 234.86,-95.55 240.5,-104 249.45,-117.4 266.57,-124.03 280.85,-127.31"/>
<polygon fill="#9a32cd" stroke="#9a32cd" points="252.01,-83.5 258.47,-75.11 248.18,-77.64 252.01,-83.5"/>
</a>
</g>
<text text-anchor="middle" x="265.5" y="-96" font-family="Helvetica,sans-Serif" font-size="10.00" fill="grey"> selectList</text>
</g>
<!-- Node11&#45;&gt;Node2 -->
<g id="edge18_Node000002_Node000011" class="edge">
<title>Node11&#45;&gt;Node2</title>
<g id="a_edge18_Node000002_Node000011"><a xlink:title=" ">
<path fill="none" stroke="#9a32cd" stroke-dasharray="5,2" d="M134.09,-23.09C109,-34.23 81.72,-52.24 93.5,-75 103.76,-94.82 113.82,-95.61 134.5,-104 183.91,-124.03 247.07,-129.01 280.78,-130.19"/>
<polygon fill="#9a32cd" stroke="#9a32cd" points="135.63,-26.24 143.51,-19.16 132.94,-19.78 135.63,-26.24"/>
</a>
</g>
<text text-anchor="middle" x="123.5" y="-63" font-family="Helvetica,sans-Serif" font-size="10.00" fill="grey"> radiobutton</text>
</g>
<!-- Node12&#45;&gt;Node2 -->
<g id="edge20_Node000002_Node000012" class="edge">
<title>Node12&#45;&gt;Node2</title>
<g id="a_edge20_Node000002_Node000012"><a xlink:title=" ">
<path fill="none" stroke="#9a32cd" stroke-dasharray="5,2" d="M396.17,-29.03C400.17,-49.56 402.98,-82.59 386.5,-104 372.91,-121.67 347.36,-127.75 328.38,-129.74"/>
<polygon fill="#9a32cd" stroke="#9a32cd" points="399.54,-28.06 393.94,-19.07 392.7,-29.59 399.54,-28.06"/>
</a>
</g>
<text text-anchor="middle" x="415" y="-63" font-family="Helvetica,sans-Serif" font-size="10.00" fill="grey"> slider</text>
</g>
</g>
</svg>
