<?xml version="1.0" encoding="UTF-8" standalone="no"?>
<!DOCTYPE svg PUBLIC "-//W3C//DTD SVG 1.1//EN"
 "http://www.w3.org/Graphics/SVG/1.1/DTD/svg11.dtd">
<!-- Generated by graphviz version 2.43.0 (0)
 -->
<!-- Title: Body Pages: 1 -->
<svg width="271pt" height="192pt"
 viewBox="0.00 0.00 271.00 192.00" xmlns="http://www.w3.org/2000/svg" xmlns:xlink="http://www.w3.org/1999/xlink">
<g id="graph0" class="graph" transform="scale(1 1) rotate(0) translate(4 188)">
<title>Body</title>
<!-- Node1 -->
<g id="Node000001" class="node">
<title>Node1</title>
<g id="a_Node000001"><a xlink:title=" ">
<polygon fill="#999999" stroke="#666666" points="163,-74 122,-74 122,-55 163,-55 163,-74"/>
<text text-anchor="middle" x="142.5" y="-62" font-family="Helvetica,sans-Serif" font-size="10.00">Body</text>
</a>
</g>
</g>
<!-- Node4 -->
<g id="Node000004" class="node">
<title>Node4</title>
<g id="a_Node000004"><a xlink:href="classKinematicBody.html" target="_top" xlink:title="Represents a kinematic body in the physics simulation.">
<polygon fill="white" stroke="#666666" points="91,-19 0,-19 0,0 91,0 91,-19"/>
<text text-anchor="middle" x="45.5" y="-7" font-family="Helvetica,sans-Serif" font-size="10.00">KinematicBody</text>
</a>
</g>
</g>
<!-- Node1&#45;&gt;Node4 -->
<g id="edge3_Node000001_Node000004" class="edge">
<title>Node1&#45;&gt;Node4</title>
<g id="a_edge3_Node000001_Node000004"><a xlink:title=" ">
<path fill="none" stroke="#63b8ff" d="M117.73,-49.97C100,-40.28 76.65,-27.52 61.37,-19.17"/>
<polygon fill="#63b8ff" stroke="#63b8ff" points="116.46,-53.26 126.92,-54.98 119.82,-47.12 116.46,-53.26"/>
</a>
</g>
</g>
<!-- Node5 -->
<g id="Node000005" class="node">
<title>Node5</title>
<g id="a_Node000005"><a xlink:href="classRigidBody.html" target="_top" xlink:title="Represents a rigid body in the physics simulation.">
<polygon fill="white" stroke="#666666" points="175.5,-19 109.5,-19 109.5,0 175.5,0 175.5,-19"/>
<text text-anchor="middle" x="142.5" y="-7" font-family="Helvetica,sans-Serif" font-size="10.00">RigidBody</text>
</a>
</g>
</g>
<!-- Node1&#45;&gt;Node5 -->
<g id="edge4_Node000001_Node000005" class="edge">
<title>Node1&#45;&gt;Node5</title>
<g id="a_edge4_Node000001_Node000005"><a xlink:title=" ">
<path fill="none" stroke="#63b8ff" d="M142.5,-44.66C142.5,-35.93 142.5,-25.99 142.5,-19.09"/>
<polygon fill="#63b8ff" stroke="#63b8ff" points="139,-44.75 142.5,-54.75 146,-44.75 139,-44.75"/>
</a>
</g>
</g>
<!-- Node6 -->
<g id="Node000006" class="node">
<title>Node6</title>
<g id="a_Node000006"><a xlink:href="classStaticBody.html" target="_top" xlink:title="Represents a static body in the physics simulation.">
<polygon fill="white" stroke="#666666" points="263,-19 194,-19 194,0 263,0 263,-19"/>
<text text-anchor="middle" x="228.5" y="-7" font-family="Helvetica,sans-Serif" font-size="10.00">StaticBody</text>
</a>
</g>
</g>
<!-- Node1&#45;&gt;Node6 -->
<g id="edge5_Node000001_Node000006" class="edge">
<title>Node1&#45;&gt;Node6</title>
<g id="a_edge5_Node000001_Node000006"><a xlink:title=" ">
<path fill="none" stroke="#63b8ff" d="M164.9,-49.7C180.57,-40.04 201.01,-27.44 214.43,-19.17"/>
<polygon fill="#63b8ff" stroke="#63b8ff" points="162.99,-46.76 156.32,-54.98 166.67,-52.72 162.99,-46.76"/>
</a>
</g>
</g>
<!-- Node2 -->
<g id="Node000002" class="node">
<title>Node2</title>
<g id="a_Node000002"><a xlink:href="classPhysicalNode.html" target="_top" xlink:title=" ">
<polygon fill="white" stroke="#666666" points="184,-129 101,-129 101,-110 184,-110 184,-129"/>
<text text-anchor="middle" x="142.5" y="-117" font-family="Helvetica,sans-Serif" font-size="10.00">PhysicalNode</text>
</a>
</g>
</g>
<!-- Node2&#45;&gt;Node1 -->
<g id="edge1_Node000001_Node000002" class="edge">
<title>Node2&#45;&gt;Node1</title>
<g id="a_edge1_Node000001_Node000002"><a xlink:title=" ">
<path fill="none" stroke="#63b8ff" d="M142.5,-99.66C142.5,-90.93 142.5,-80.99 142.5,-74.09"/>
<polygon fill="#63b8ff" stroke="#63b8ff" points="139,-99.75 142.5,-109.75 146,-99.75 139,-99.75"/>
</a>
</g>
</g>
<!-- Node3 -->
<g id="Node000003" class="node">
<title>Node3</title>
<g id="a_Node000003"><a xlink:href="classNode.html" target="_top" xlink:title="Represents a node in the tree structure.">
<polygon fill="white" stroke="#666666" points="163.5,-184 121.5,-184 121.5,-165 163.5,-165 163.5,-184"/>
<text text-anchor="middle" x="142.5" y="-172" font-family="Helvetica,sans-Serif" font-size="10.00">Node</text>
</a>
</g>
</g>
<!-- Node3&#45;&gt;Node2 -->
<g id="edge2_Node000002_Node000003" class="edge">
<title>Node3&#45;&gt;Node2</title>
<g id="a_edge2_Node000002_Node000003"><a xlink:title=" ">
<path fill="none" stroke="#63b8ff" d="M142.5,-154.66C142.5,-145.93 142.5,-135.99 142.5,-129.09"/>
<polygon fill="#63b8ff" stroke="#63b8ff" points="139,-154.75 142.5,-164.75 146,-154.75 139,-154.75"/>
</a>
</g>
</g>
</g>
</svg>
