<?xml version="1.0" encoding="UTF-8" standalone="no"?>
<!DOCTYPE svg PUBLIC "-//W3C//DTD SVG 1.1//EN"
 "http://www.w3.org/Graphics/SVG/1.1/DTD/svg11.dtd">
<!-- Generated by graphviz version 2.43.0 (0)
 -->
<!-- Title: DirectionalLight Pages: 1 -->
<svg width="197pt" height="152pt"
 viewBox="0.00 0.00 196.50 152.00" xmlns="http://www.w3.org/2000/svg" xmlns:xlink="http://www.w3.org/1999/xlink">
<g id="graph0" class="graph" transform="scale(1 1) rotate(0) translate(4 148)">
<title>DirectionalLight</title>
<!-- Node1 -->
<g id="Node000001" class="node">
<title>Node1</title>
<g id="a_Node000001"><a xlink:title="Represents a directional light source.">
<polygon fill="#999999" stroke="#666666" points="94,-19 0,-19 0,0 94,0 94,-19"/>
<text text-anchor="middle" x="47" y="-7" font-family="Helvetica,sans-Serif" font-size="10.00">DirectionalLight</text>
</a>
</g>
</g>
<!-- Node2 -->
<g id="Node000002" class="node">
<title>Node2</title>
<g id="a_Node000002"><a xlink:href="classLight.html" target="_top" xlink:title=" ">
<polygon fill="white" stroke="#666666" points="67.5,-75 26.5,-75 26.5,-56 67.5,-56 67.5,-75"/>
<text text-anchor="middle" x="47" y="-63" font-family="Helvetica,sans-Serif" font-size="10.00">Light</text>
</a>
</g>
</g>
<!-- Node2&#45;&gt;Node1 -->
<g id="edge1_Node000001_Node000002" class="edge">
<title>Node2&#45;&gt;Node1</title>
<g id="a_edge1_Node000001_Node000002"><a xlink:title=" ">
<path fill="none" stroke="#63b8ff" d="M47,-45.3C47,-36.41 47,-26.28 47,-19.25"/>
<polygon fill="#63b8ff" stroke="#63b8ff" points="43.5,-45.58 47,-55.58 50.5,-45.58 43.5,-45.58"/>
</a>
</g>
</g>
<!-- Node3 -->
<g id="Node000003" class="node">
<title>Node3</title>
<g id="a_Node000003"><a xlink:href="classNode.html" target="_top" xlink:title="Represents a node in the tree structure.">
<polygon fill="white" stroke="#666666" points="107,-142.5 65,-142.5 65,-123.5 107,-123.5 107,-142.5"/>
<text text-anchor="middle" x="86" y="-130.5" font-family="Helvetica,sans-Serif" font-size="10.00">Node</text>
</a>
</g>
</g>
<!-- Node3&#45;&gt;Node2 -->
<g id="edge2_Node000002_Node000003" class="edge">
<title>Node3&#45;&gt;Node2</title>
<g id="a_edge2_Node000002_Node000003"><a xlink:title=" ">
<path fill="none" stroke="#63b8ff" d="M71.59,-114.99C68.91,-111.47 66.25,-107.7 64,-104 58.29,-94.59 53.29,-82.93 50.22,-75.13"/>
<polygon fill="#63b8ff" stroke="#63b8ff" points="69.09,-117.47 78.08,-123.07 74.55,-113.08 69.09,-117.47"/>
</a>
</g>
</g>
<!-- Node3&#45;&gt;Node3 -->
<g id="edge3_Node000003_Node000003" class="edge">
<title>Node3&#45;&gt;Node3</title>
<g id="a_edge3_Node000003_Node000003"><a xlink:title=" ">
<path fill="none" stroke="#9a32cd" stroke-dasharray="5,2" d="M117.41,-138.74C121.95,-137.83 125,-135.91 125,-133 125,-128.22 116.77,-126.13 107.26,-126.72"/>
<polygon fill="#9a32cd" stroke="#9a32cd" points="117.06,-135.26 107.26,-139.28 117.43,-142.25 117.06,-135.26"/>
</a>
</g>
<text text-anchor="middle" x="146.5" y="-136" font-family="Helvetica,sans-Serif" font-size="10.00" fill="grey"> children</text>
<text text-anchor="middle" x="146.5" y="-125" font-family="Helvetica,sans-Serif" font-size="10.00" fill="grey">parent</text>
</g>
<!-- Node4 -->
<g id="Node000004" class="node">
<title>Node4</title>
<g id="a_Node000004"><a xlink:href="unionBehaviorAttribute.html" target="_top" xlink:title=" ">
<polygon fill="white" stroke="#666666" points="188.5,-75 85.5,-75 85.5,-56 188.5,-56 188.5,-75"/>
<text text-anchor="middle" x="137" y="-63" font-family="Helvetica,sans-Serif" font-size="10.00">BehaviorAttribute</text>
</a>
</g>
</g>
<!-- Node3&#45;&gt;Node4 -->
<g id="edge5_Node000004_Node000003" class="edge">
<title>Node3&#45;&gt;Node4</title>
<g id="a_edge5_Node000004_Node000003"><a xlink:title=" ">
<path fill="none" stroke="#9a32cd" stroke-dasharray="5,2" d="M80.12,-113.36C79.06,-106.51 79.28,-98.98 83,-93 88.14,-84.76 96.67,-79.01 105.45,-75.02"/>
<polygon fill="#9a32cd" stroke="#9a32cd" points="76.76,-114.34 82.52,-123.23 83.56,-112.69 76.76,-114.34"/>
</a>
</g>
<text text-anchor="middle" x="97" y="-96" font-family="Helvetica,sans-Serif" font-size="10.00" fill="grey"> node</text>
</g>
<!-- Node4&#45;&gt;Node3 -->
<g id="edge4_Node000003_Node000004" class="edge">
<title>Node4&#45;&gt;Node3</title>
<g id="a_edge4_Node000003_Node000004"><a xlink:title=" ">
<path fill="none" stroke="#9a32cd" stroke-dasharray="5,2" d="M127.76,-84.49C124.14,-90.9 119.72,-98.01 115,-104 109.46,-111.04 102.21,-118.04 96.35,-123.28"/>
<polygon fill="#9a32cd" stroke="#9a32cd" points="131.07,-85.73 132.73,-75.27 124.91,-82.41 131.07,-85.73"/>
</a>
</g>
<text text-anchor="middle" x="145" y="-96" font-family="Helvetica,sans-Serif" font-size="10.00" fill="grey"> attribute</text>
</g>
</g>
</svg>
