<?xml version="1.0" encoding="UTF-8" standalone="no"?>
<!DOCTYPE svg PUBLIC "-//W3C//DTD SVG 1.1//EN"
 "http://www.w3.org/Graphics/SVG/1.1/DTD/svg11.dtd">
<!-- Generated by graphviz version 2.43.0 (0)
 -->
<!-- Title: Label Pages: 1 -->
<svg width="721pt" height="218pt"
 viewBox="0.00 0.00 721.21 218.00" xmlns="http://www.w3.org/2000/svg" xmlns:xlink="http://www.w3.org/1999/xlink">
<g id="graph0" class="graph" transform="scale(1 1) rotate(0) translate(4 214)">
<title>Label</title>
<!-- Node1 -->
<g id="Node000001" class="node">
<title>Node1</title>
<g id="a_Node000001"><a xlink:title="Represents a label.">
<polygon fill="#999999" stroke="#666666" points="338.21,-208.5 295.21,-208.5 295.21,-189.5 338.21,-189.5 338.21,-208.5"/>
<text text-anchor="middle" x="316.71" y="-196.5" font-family="Helvetica,sans-Serif" font-size="10.00">Label</text>
</a>
</g>
</g>
<!-- Node2 -->
<g id="Node000002" class="node">
<title>Node2</title>
<g id="a_Node000002"><a xlink:href="classFrame.html" target="_top" xlink:title="Represents a frame.">
<polygon fill="white" stroke="#666666" points="339.21,-141 292.21,-141 292.21,-122 339.21,-122 339.21,-141"/>
<text text-anchor="middle" x="315.71" y="-129" font-family="Helvetica,sans-Serif" font-size="10.00">Frame</text>
</a>
</g>
</g>
<!-- Node1&#45;&gt;Node2 -->
<g id="edge9_Node000002_Node000001" class="edge">
<title>Node1&#45;&gt;Node2</title>
<g id="a_edge9_Node000002_Node000001"><a xlink:title=" ">
<path fill="none" stroke="#9a32cd" stroke-dasharray="5,2" d="M316.42,-179.18C316.23,-166.71 315.99,-150.92 315.84,-141.27"/>
<polygon fill="#9a32cd" stroke="#9a32cd" points="312.93,-179.49 316.58,-189.44 319.93,-179.38 312.93,-179.49"/>
</a>
</g>
<text text-anchor="middle" x="330.71" y="-162" font-family="Helvetica,sans-Serif" font-size="10.00" fill="grey"> label</text>
</g>
<!-- Node2&#45;&gt;Node1 -->
<g id="edge1_Node000001_Node000002" class="edge">
<title>Node2&#45;&gt;Node1</title>
<g id="a_edge1_Node000001_Node000002"><a xlink:title=" ">
<path fill="none" stroke="#63b8ff" d="M314.12,-151.31C313.95,-153.89 313.8,-156.51 313.71,-159 313.53,-163.89 313.45,-165.12 313.71,-170 314.05,-176.44 314.84,-183.69 315.52,-189.19"/>
<polygon fill="#63b8ff" stroke="#63b8ff" points="317.61,-151.56 314.88,-141.32 310.63,-151.03 317.61,-151.56"/>
</a>
</g>
</g>
<!-- Node5 -->
<g id="Node000005" class="node">
<title>Node5</title>
<g id="a_Node000005"><a xlink:href="structTheme.html" target="_top" xlink:title="Represents a theme.">
<polygon fill="white" stroke="#666666" points="539.71,-75 489.71,-75 489.71,-56 539.71,-56 539.71,-75"/>
<text text-anchor="middle" x="514.71" y="-63" font-family="Helvetica,sans-Serif" font-size="10.00">Theme</text>
</a>
</g>
</g>
<!-- Node2&#45;&gt;Node5 -->
<g id="edge8_Node000005_Node000002" class="edge">
<title>Node2&#45;&gt;Node5</title>
<g id="a_edge8_Node000005_Node000002"><a xlink:title=" ">
<path fill="none" stroke="#9a32cd" stroke-dasharray="5,2" d="M349.74,-125.76C373.99,-121.71 407.06,-114.79 434.71,-104 443.8,-100.45 445,-97.4 453.71,-93 466.6,-86.5 481.44,-80.03 493.26,-75.11"/>
<polygon fill="#9a32cd" stroke="#9a32cd" points="348.92,-122.35 339.59,-127.38 350.02,-129.26 348.92,-122.35"/>
</a>
</g>
<text text-anchor="middle" x="471.21" y="-96" font-family="Helvetica,sans-Serif" font-size="10.00" fill="grey"> parent</text>
</g>
<!-- Node7 -->
<g id="Node000007" class="node">
<title>Node7</title>
<g id="a_Node000007"><a xlink:href="classButton.html" target="_top" xlink:title="Represents a button.">
<polygon fill="white" stroke="#666666" points="387.21,-75 338.21,-75 338.21,-56 387.21,-56 387.21,-75"/>
<text text-anchor="middle" x="362.71" y="-63" font-family="Helvetica,sans-Serif" font-size="10.00">Button</text>
</a>
</g>
</g>
<!-- Node2&#45;&gt;Node7 -->
<g id="edge11_Node000007_Node000002" class="edge">
<title>Node2&#45;&gt;Node7</title>
<g id="a_edge11_Node000007_Node000002"><a xlink:title=" ">
<path fill="none" stroke="#63b8ff" d="M349.13,-125.17C361.49,-121.41 374.29,-114.98 381.71,-104 388.01,-94.69 379.85,-83.01 372.35,-75.18"/>
<polygon fill="#63b8ff" stroke="#63b8ff" points="348.24,-121.79 339.42,-127.66 349.98,-128.57 348.24,-121.79"/>
</a>
</g>
</g>
<!-- Node8 -->
<g id="Node000008" class="node">
<title>Node8</title>
<g id="a_Node000008"><a xlink:href="classInputArea.html" target="_top" xlink:title="Represents an input area.">
<polygon fill="white" stroke="#666666" points="137.71,-75 73.71,-75 73.71,-56 137.71,-56 137.71,-75"/>
<text text-anchor="middle" x="105.71" y="-63" font-family="Helvetica,sans-Serif" font-size="10.00">InputArea</text>
</a>
</g>
</g>
<!-- Node2&#45;&gt;Node8 -->
<g id="edge13_Node000008_Node000002" class="edge">
<title>Node2&#45;&gt;Node8</title>
<g id="a_edge13_Node000008_Node000002"><a xlink:title=" ">
<path fill="none" stroke="#63b8ff" d="M281.78,-128.83C235.67,-126.03 156.16,-119.12 131.71,-104 120.79,-97.25 113.28,-84.03 109.24,-75.22"/>
<polygon fill="#63b8ff" stroke="#63b8ff" points="281.72,-132.33 291.9,-129.41 282.12,-125.35 281.72,-132.33"/>
</a>
</g>
</g>
<!-- Node9 -->
<g id="Node000009" class="node">
<title>Node9</title>
<g id="a_Node000009"><a xlink:href="classSelectList.html" target="_top" xlink:title="Represents a selectable list.">
<polygon fill="white" stroke="#666666" points="221.71,-75 157.71,-75 157.71,-56 221.71,-56 221.71,-75"/>
<text text-anchor="middle" x="189.71" y="-63" font-family="Helvetica,sans-Serif" font-size="10.00">SelectList</text>
</a>
</g>
</g>
<!-- Node2&#45;&gt;Node9 -->
<g id="edge15_Node000009_Node000002" class="edge">
<title>Node2&#45;&gt;Node9</title>
<g id="a_edge15_Node000009_Node000002"><a xlink:title=" ">
<path fill="none" stroke="#63b8ff" d="M281.74,-123.55C265.59,-119.35 246.43,-113.03 230.71,-104 217.33,-96.31 204.66,-83.58 197.04,-75.12"/>
<polygon fill="#63b8ff" stroke="#63b8ff" points="281.31,-127.04 291.85,-126.01 282.96,-120.24 281.31,-127.04"/>
</a>
</g>
</g>
<!-- Node10 -->
<g id="Node000010" class="node">
<title>Node10</title>
<g id="a_Node000010"><a xlink:href="classImageFrame.html" target="_top" xlink:title="Represents an image frame.">
<polygon fill="white" stroke="#666666" points="318.71,-75 240.71,-75 240.71,-56 318.71,-56 318.71,-75"/>
<text text-anchor="middle" x="279.71" y="-63" font-family="Helvetica,sans-Serif" font-size="10.00">ImageFrame</text>
</a>
</g>
</g>
<!-- Node2&#45;&gt;Node10 -->
<g id="edge17_Node000010_Node000002" class="edge">
<title>Node2&#45;&gt;Node10</title>
<g id="a_edge17_Node000010_Node000002"><a xlink:title=" ">
<path fill="none" stroke="#63b8ff" d="M310.24,-112.14C308.01,-105.86 305.15,-98.93 301.71,-93 297.99,-86.58 292.72,-80.17 288.26,-75.25"/>
<polygon fill="#63b8ff" stroke="#63b8ff" points="306.96,-113.36 313.37,-121.79 313.62,-111.2 306.96,-113.36"/>
</a>
</g>
</g>
<!-- Node3 -->
<g id="Node000003" class="node">
<title>Node3</title>
<g id="a_Node000003"><a xlink:href="classNode.html" target="_top" xlink:title="Represents a node in the tree structure.">
<polygon fill="white" stroke="#666666" points="631.71,-208.5 589.71,-208.5 589.71,-189.5 631.71,-189.5 631.71,-208.5"/>
<text text-anchor="middle" x="610.71" y="-196.5" font-family="Helvetica,sans-Serif" font-size="10.00">Node</text>
</a>
</g>
</g>
<!-- Node3&#45;&gt;Node2 -->
<g id="edge2_Node000002_Node000003" class="edge">
<title>Node3&#45;&gt;Node2</title>
<g id="a_edge2_Node000002_Node000003"><a xlink:title=" ">
<path fill="none" stroke="#63b8ff" d="M579.6,-191.09C520.38,-177.94 392.64,-149.58 339.57,-137.8"/>
<polygon fill="#63b8ff" stroke="#63b8ff" points="578.97,-194.54 589.49,-193.29 580.49,-187.7 578.97,-194.54"/>
</a>
</g>
</g>
<!-- Node3&#45;&gt;Node3 -->
<g id="edge3_Node000003_Node000003" class="edge">
<title>Node3&#45;&gt;Node3</title>
<g id="a_edge3_Node000003_Node000003"><a xlink:title=" ">
<path fill="none" stroke="#9a32cd" stroke-dasharray="5,2" d="M642.12,-204.74C646.66,-203.83 649.71,-201.91 649.71,-199 649.71,-194.22 641.48,-192.13 631.97,-192.72"/>
<polygon fill="#9a32cd" stroke="#9a32cd" points="641.78,-201.26 631.97,-205.28 642.14,-208.25 641.78,-201.26"/>
</a>
</g>
<text text-anchor="middle" x="671.21" y="-202" font-family="Helvetica,sans-Serif" font-size="10.00" fill="grey"> children</text>
<text text-anchor="middle" x="671.21" y="-191" font-family="Helvetica,sans-Serif" font-size="10.00" fill="grey">parent</text>
</g>
<!-- Node4 -->
<g id="Node000004" class="node">
<title>Node4</title>
<g id="a_Node000004"><a xlink:href="unionBehaviorAttribute.html" target="_top" xlink:title=" ">
<polygon fill="white" stroke="#666666" points="713.21,-141 610.21,-141 610.21,-122 713.21,-122 713.21,-141"/>
<text text-anchor="middle" x="661.71" y="-129" font-family="Helvetica,sans-Serif" font-size="10.00">BehaviorAttribute</text>
</a>
</g>
</g>
<!-- Node3&#45;&gt;Node4 -->
<g id="edge5_Node000004_Node000003" class="edge">
<title>Node3&#45;&gt;Node4</title>
<g id="a_edge5_Node000004_Node000003"><a xlink:title=" ">
<path fill="none" stroke="#9a32cd" stroke-dasharray="5,2" d="M604.83,-179.36C603.77,-172.51 603.99,-164.98 607.71,-159 612.85,-150.76 621.38,-145.01 630.16,-141.02"/>
<polygon fill="#9a32cd" stroke="#9a32cd" points="601.47,-180.34 607.23,-189.23 608.27,-178.69 601.47,-180.34"/>
</a>
</g>
<text text-anchor="middle" x="621.71" y="-162" font-family="Helvetica,sans-Serif" font-size="10.00" fill="grey"> node</text>
</g>
<!-- Node4&#45;&gt;Node3 -->
<g id="edge4_Node000003_Node000004" class="edge">
<title>Node4&#45;&gt;Node3</title>
<g id="a_edge4_Node000003_Node000004"><a xlink:title=" ">
<path fill="none" stroke="#9a32cd" stroke-dasharray="5,2" d="M652.47,-150.49C648.85,-156.9 644.43,-164.01 639.71,-170 634.17,-177.04 626.92,-184.04 621.06,-189.28"/>
<polygon fill="#9a32cd" stroke="#9a32cd" points="655.78,-151.73 657.44,-141.27 649.62,-148.41 655.78,-151.73"/>
</a>
</g>
<text text-anchor="middle" x="669.71" y="-162" font-family="Helvetica,sans-Serif" font-size="10.00" fill="grey"> attribute</text>
</g>
<!-- Node5&#45;&gt;Node2 -->
<g id="edge6_Node000002_Node000005" class="edge">
<title>Node5&#45;&gt;Node2</title>
<g id="a_edge6_Node000002_Node000005"><a xlink:title=" ">
<path fill="none" stroke="#9a32cd" stroke-dasharray="5,2" d="M508.01,-84.87C504.51,-91.93 499.52,-99.4 492.71,-104 468.13,-120.62 381.7,-127.19 339.39,-129.46"/>
<polygon fill="#9a32cd" stroke="#9a32cd" points="511.43,-85.76 512.09,-75.19 504.98,-83.04 511.43,-85.76"/>
</a>
</g>
<text text-anchor="middle" x="521.21" y="-96" font-family="Helvetica,sans-Serif" font-size="10.00" fill="grey"> theme</text>
</g>
<!-- Node6 -->
<g id="Node000006" class="node">
<title>Node6</title>
<g id="a_Node000006"><a xlink:href="structFont.html" target="_top" xlink:title="Represents a font.">
<polygon fill="white" stroke="#666666" points="591.71,-141 553.71,-141 553.71,-122 591.71,-122 591.71,-141"/>
<text text-anchor="middle" x="572.71" y="-129" font-family="Helvetica,sans-Serif" font-size="10.00">Font</text>
</a>
</g>
</g>
<!-- Node6&#45;&gt;Node5 -->
<g id="edge7_Node000005_Node000006" class="edge">
<title>Node6&#45;&gt;Node5</title>
<g id="a_edge7_Node000005_Node000006"><a xlink:title=" ">
<path fill="none" stroke="#9a32cd" stroke-dasharray="5,2" d="M564.3,-112.86C560.65,-106.23 556.01,-98.88 550.71,-93 544.48,-86.08 536.18,-79.83 529.12,-75.13"/>
<polygon fill="#9a32cd" stroke="#9a32cd" points="561.2,-114.5 568.87,-121.81 567.43,-111.31 561.2,-114.5"/>
</a>
</g>
<text text-anchor="middle" x="570.21" y="-96" font-family="Helvetica,sans-Serif" font-size="10.00" fill="grey"> font</text>
</g>
<!-- Node7&#45;&gt;Node2 -->
<g id="edge10_Node000002_Node000007" class="edge">
<title>Node7&#45;&gt;Node2</title>
<g id="a_edge10_Node000002_Node000007"><a xlink:title=" ">
<path fill="none" stroke="#9a32cd" stroke-dasharray="5,2" d="M350.17,-83.58C341.1,-95.92 329.23,-112.09 322.05,-121.87"/>
<polygon fill="#9a32cd" stroke="#9a32cd" points="353.07,-85.54 356.17,-75.41 347.43,-81.39 353.07,-85.54"/>
</a>
</g>
<text text-anchor="middle" x="360.21" y="-96" font-family="Helvetica,sans-Serif" font-size="10.00" fill="grey"> button</text>
</g>
<!-- Node11 -->
<g id="Node000011" class="node">
<title>Node11</title>
<g id="a_Node000011"><a xlink:href="classRadioButton.html" target="_top" xlink:title="Represents a radio button.">
<polygon fill="white" stroke="#666666" points="147.21,-19 70.21,-19 70.21,0 147.21,0 147.21,-19"/>
<text text-anchor="middle" x="108.71" y="-7" font-family="Helvetica,sans-Serif" font-size="10.00">RadioButton</text>
</a>
</g>
</g>
<!-- Node7&#45;&gt;Node11 -->
<g id="edge19_Node000011_Node000007" class="edge">
<title>Node7&#45;&gt;Node11</title>
<g id="a_edge19_Node000011_Node000007"><a xlink:title=" ">
<path fill="none" stroke="#63b8ff" d="M328.02,-56.07C327.92,-56.05 327.81,-56.02 327.71,-56 264.82,-41.84 191.41,-26.91 147.56,-18.16"/>
<polygon fill="#63b8ff" stroke="#63b8ff" points="327.35,-59.51 337.88,-58.36 328.93,-52.69 327.35,-59.51"/>
</a>
</g>
</g>
<!-- Node12 -->
<g id="Node000012" class="node">
<title>Node12</title>
<g id="a_Node000012"><a xlink:href="classSlider.html" target="_top" xlink:title=" ">
<polygon fill="white" stroke="#666666" points="424.71,-19 380.71,-19 380.71,0 424.71,0 424.71,-19"/>
<text text-anchor="middle" x="402.71" y="-7" font-family="Helvetica,sans-Serif" font-size="10.00">Slider</text>
</a>
</g>
</g>
<!-- Node7&#45;&gt;Node12 -->
<g id="edge21_Node000012_Node000007" class="edge">
<title>Node7&#45;&gt;Node12</title>
<g id="a_edge21_Node000012_Node000007"><a xlink:title=" ">
<path fill="none" stroke="#63b8ff" d="M375.41,-47.36C382.34,-38 390.62,-26.83 396.23,-19.25"/>
<polygon fill="#63b8ff" stroke="#63b8ff" points="372.46,-45.46 369.32,-55.58 378.08,-49.63 372.46,-45.46"/>
</a>
</g>
</g>
<!-- Node8&#45;&gt;Node2 -->
<g id="edge12_Node000002_Node000008" class="edge">
<title>Node8&#45;&gt;Node2</title>
<g id="a_edge12_Node000002_Node000008"><a xlink:title=" ">
<path fill="none" stroke="#9a32cd" stroke-dasharray="5,2" d="M63.57,-76.09C44.51,-82.34 28.49,-91.65 39.71,-104 56.54,-122.53 228.23,-128.44 292.02,-130.01"/>
<polygon fill="#9a32cd" stroke="#9a32cd" points="64.79,-79.38 73.38,-73.18 62.8,-72.67 64.79,-79.38"/>
</a>
</g>
<text text-anchor="middle" x="65.21" y="-96" font-family="Helvetica,sans-Serif" font-size="10.00" fill="grey"> inputArea</text>
</g>
<!-- Node9&#45;&gt;Node2 -->
<g id="edge14_Node000002_Node000009" class="edge">
<title>Node9&#45;&gt;Node2</title>
<g id="a_edge14_Node000002_Node000009"><a xlink:title=" ">
<path fill="none" stroke="#9a32cd" stroke-dasharray="5,2" d="M153.23,-79.18C140.11,-85.71 130.38,-94.33 138.71,-104 158.23,-126.66 248.48,-130.22 292.04,-130.6"/>
<polygon fill="#9a32cd" stroke="#9a32cd" points="154.94,-82.25 162.68,-75.01 152.12,-75.85 154.94,-82.25"/>
</a>
</g>
<text text-anchor="middle" x="163.71" y="-96" font-family="Helvetica,sans-Serif" font-size="10.00" fill="grey"> selectList</text>
</g>
<!-- Node10&#45;&gt;Node2 -->
<g id="edge16_Node000002_Node000010" class="edge">
<title>Node10&#45;&gt;Node2</title>
<g id="a_edge16_Node000002_Node000010"><a xlink:title=" ">
<path fill="none" stroke="#9a32cd" stroke-dasharray="5,2" d="M248.51,-79.92C237.87,-86.45 230.14,-94.86 236.71,-104 249.21,-121.38 273.66,-127.52 292.07,-129.61"/>
<polygon fill="#9a32cd" stroke="#9a32cd" points="250.3,-82.93 257.44,-75.1 246.97,-76.77 250.3,-82.93"/>
</a>
</g>
<text text-anchor="middle" x="269.21" y="-96" font-family="Helvetica,sans-Serif" font-size="10.00" fill="grey"> imageFrame</text>
</g>
<!-- Node11&#45;&gt;Node2 -->
<g id="edge18_Node000002_Node000011" class="edge">
<title>Node11&#45;&gt;Node2</title>
<g id="a_edge18_Node000002_Node000011"><a xlink:title=" ">
<path fill="none" stroke="#9a32cd" stroke-dasharray="5,2" d="M60.24,-19.4C39.46,-25.88 17.14,-36.99 4.71,-56 -8.81,-76.67 10.45,-93.3 32.71,-104 78.3,-125.92 232.35,-129.73 291.92,-130.37"/>
<polygon fill="#9a32cd" stroke="#9a32cd" points="61.28,-22.74 69.95,-16.66 59.38,-16.01 61.28,-22.74"/>
</a>
</g>
<text text-anchor="middle" x="34.71" y="-63" font-family="Helvetica,sans-Serif" font-size="10.00" fill="grey"> radiobutton</text>
</g>
<!-- Node12&#45;&gt;Node2 -->
<g id="edge20_Node000002_Node000012" class="edge">
<title>Node12&#45;&gt;Node2</title>
<g id="a_edge20_Node000002_Node000012"><a xlink:title=" ">
<path fill="none" stroke="#9a32cd" stroke-dasharray="5,2" d="M407.38,-29.03C411.38,-49.56 414.19,-82.59 397.71,-104 384.12,-121.67 358.57,-127.75 339.59,-129.74"/>
<polygon fill="#9a32cd" stroke="#9a32cd" points="410.75,-28.06 405.15,-19.07 403.91,-29.59 410.75,-28.06"/>
</a>
</g>
<text text-anchor="middle" x="426.21" y="-63" font-family="Helvetica,sans-Serif" font-size="10.00" fill="grey"> slider</text>
</g>
</g>
</svg>
