<?xml version="1.0" encoding="UTF-8" standalone="no"?>
<!DOCTYPE svg PUBLIC "-//W3C//DTD SVG 1.1//EN"
 "http://www.w3.org/Graphics/SVG/1.1/DTD/svg11.dtd">
<!-- Generated by graphviz version 2.43.0 (0)
 -->
<!-- Title: InputArea Pages: 1 -->
<svg width="724pt" height="218pt"
 viewBox="0.00 0.00 724.00 218.00" xmlns="http://www.w3.org/2000/svg" xmlns:xlink="http://www.w3.org/1999/xlink">
<g id="graph0" class="graph" transform="scale(1 1) rotate(0) translate(4 214)">
<title>InputArea</title>
<!-- Node1 -->
<g id="Node000001" class="node">
<title>Node1</title>
<g id="a_Node000001"><a xlink:title="Represents an input area.">
<polygon fill="#999999" stroke="#666666" points="351.5,-208.5 287.5,-208.5 287.5,-189.5 351.5,-189.5 351.5,-208.5"/>
<text text-anchor="middle" x="319.5" y="-196.5" font-family="Helvetica,sans-Serif" font-size="10.00">InputArea</text>
</a>
</g>
</g>
<!-- Node2 -->
<g id="Node000002" class="node">
<title>Node2</title>
<g id="a_Node000002"><a xlink:href="classFrame.html" target="_top" xlink:title="Represents a frame.">
<polygon fill="white" stroke="#666666" points="342,-141 295,-141 295,-122 342,-122 342,-141"/>
<text text-anchor="middle" x="318.5" y="-129" font-family="Helvetica,sans-Serif" font-size="10.00">Frame</text>
</a>
</g>
</g>
<!-- Node1&#45;&gt;Node2 -->
<g id="edge13_Node000002_Node000001" class="edge">
<title>Node1&#45;&gt;Node2</title>
<g id="a_edge13_Node000002_Node000001"><a xlink:title=" ">
<path fill="none" stroke="#9a32cd" stroke-dasharray="5,2" d="M319.21,-179.18C319.02,-166.71 318.78,-150.92 318.63,-141.27"/>
<polygon fill="#9a32cd" stroke="#9a32cd" points="315.72,-179.49 319.37,-189.44 322.72,-179.38 315.72,-179.49"/>
</a>
</g>
<text text-anchor="middle" x="345" y="-162" font-family="Helvetica,sans-Serif" font-size="10.00" fill="grey"> inputArea</text>
</g>
<!-- Node2&#45;&gt;Node1 -->
<g id="edge1_Node000001_Node000002" class="edge">
<title>Node2&#45;&gt;Node1</title>
<g id="a_edge1_Node000001_Node000002"><a xlink:title=" ">
<path fill="none" stroke="#63b8ff" d="M316.9,-151.31C316.74,-153.89 316.59,-156.51 316.5,-159 316.32,-163.89 316.24,-165.12 316.5,-170 316.84,-176.44 317.63,-183.69 318.31,-189.19"/>
<polygon fill="#63b8ff" stroke="#63b8ff" points="320.4,-151.56 317.67,-141.32 313.42,-151.03 320.4,-151.56"/>
</a>
</g>
</g>
<!-- Node5 -->
<g id="Node000005" class="node">
<title>Node5</title>
<g id="a_Node000005"><a xlink:href="structTheme.html" target="_top" xlink:title="Represents a theme.">
<polygon fill="white" stroke="#666666" points="542.5,-75 492.5,-75 492.5,-56 542.5,-56 542.5,-75"/>
<text text-anchor="middle" x="517.5" y="-63" font-family="Helvetica,sans-Serif" font-size="10.00">Theme</text>
</a>
</g>
</g>
<!-- Node2&#45;&gt;Node5 -->
<g id="edge8_Node000005_Node000002" class="edge">
<title>Node2&#45;&gt;Node5</title>
<g id="a_edge8_Node000005_Node000002"><a xlink:title=" ">
<path fill="none" stroke="#9a32cd" stroke-dasharray="5,2" d="M352.53,-125.76C376.78,-121.71 409.85,-114.79 437.5,-104 446.59,-100.45 447.79,-97.4 456.5,-93 469.39,-86.5 484.23,-80.03 496.05,-75.11"/>
<polygon fill="#9a32cd" stroke="#9a32cd" points="351.71,-122.35 342.38,-127.38 352.81,-129.26 351.71,-122.35"/>
</a>
</g>
<text text-anchor="middle" x="474" y="-96" font-family="Helvetica,sans-Serif" font-size="10.00" fill="grey"> parent</text>
</g>
<!-- Node7 -->
<g id="Node000007" class="node">
<title>Node7</title>
<g id="a_Node000007"><a xlink:href="classLabel.html" target="_top" xlink:title="Represents a label.">
<polygon fill="white" stroke="#666666" points="43,-75 0,-75 0,-56 43,-56 43,-75"/>
<text text-anchor="middle" x="21.5" y="-63" font-family="Helvetica,sans-Serif" font-size="10.00">Label</text>
</a>
</g>
</g>
<!-- Node2&#45;&gt;Node7 -->
<g id="edge10_Node000007_Node000002" class="edge">
<title>Node2&#45;&gt;Node7</title>
<g id="a_edge10_Node000007_Node000002"><a xlink:title=" ">
<path fill="none" stroke="#63b8ff" d="M284.9,-128.99C227.07,-126.04 111.29,-118.5 73.5,-104 56.46,-97.46 39.91,-83.91 30.22,-75.02"/>
<polygon fill="#63b8ff" stroke="#63b8ff" points="284.83,-132.49 294.99,-129.49 285.18,-125.5 284.83,-132.49"/>
</a>
</g>
</g>
<!-- Node8 -->
<g id="Node000008" class="node">
<title>Node8</title>
<g id="a_Node000008"><a xlink:href="classButton.html" target="_top" xlink:title="Represents a button.">
<polygon fill="white" stroke="#666666" points="390,-75 341,-75 341,-56 390,-56 390,-75"/>
<text text-anchor="middle" x="365.5" y="-63" font-family="Helvetica,sans-Serif" font-size="10.00">Button</text>
</a>
</g>
</g>
<!-- Node2&#45;&gt;Node8 -->
<g id="edge12_Node000008_Node000002" class="edge">
<title>Node2&#45;&gt;Node8</title>
<g id="a_edge12_Node000008_Node000002"><a xlink:title=" ">
<path fill="none" stroke="#63b8ff" d="M351.92,-125.17C364.28,-121.41 377.08,-114.98 384.5,-104 390.8,-94.69 382.64,-83.01 375.14,-75.18"/>
<polygon fill="#63b8ff" stroke="#63b8ff" points="351.03,-121.79 342.21,-127.66 352.77,-128.57 351.03,-121.79"/>
</a>
</g>
</g>
<!-- Node9 -->
<g id="Node000009" class="node">
<title>Node9</title>
<g id="a_Node000009"><a xlink:href="classSelectList.html" target="_top" xlink:title="Represents a selectable list.">
<polygon fill="white" stroke="#666666" points="226.5,-75 162.5,-75 162.5,-56 226.5,-56 226.5,-75"/>
<text text-anchor="middle" x="194.5" y="-63" font-family="Helvetica,sans-Serif" font-size="10.00">SelectList</text>
</a>
</g>
</g>
<!-- Node2&#45;&gt;Node9 -->
<g id="edge15_Node000009_Node000002" class="edge">
<title>Node2&#45;&gt;Node9</title>
<g id="a_edge15_Node000009_Node000002"><a xlink:title=" ">
<path fill="none" stroke="#63b8ff" d="M284.77,-123.81C268.53,-119.65 249.22,-113.29 233.5,-104 220.56,-96.35 208.56,-83.61 201.38,-75.14"/>
<polygon fill="#63b8ff" stroke="#63b8ff" points="284.39,-127.31 294.93,-126.23 286.01,-120.51 284.39,-127.31"/>
</a>
</g>
</g>
<!-- Node10 -->
<g id="Node000010" class="node">
<title>Node10</title>
<g id="a_Node000010"><a xlink:href="classImageFrame.html" target="_top" xlink:title="Represents an image frame.">
<polygon fill="white" stroke="#666666" points="322.5,-75 244.5,-75 244.5,-56 322.5,-56 322.5,-75"/>
<text text-anchor="middle" x="283.5" y="-63" font-family="Helvetica,sans-Serif" font-size="10.00">ImageFrame</text>
</a>
</g>
</g>
<!-- Node2&#45;&gt;Node10 -->
<g id="edge17_Node000010_Node000002" class="edge">
<title>Node2&#45;&gt;Node10</title>
<g id="a_edge17_Node000010_Node000002"><a xlink:title=" ">
<path fill="none" stroke="#63b8ff" d="M312.95,-112.18C310.72,-105.91 307.87,-98.97 304.5,-93 300.92,-86.66 295.88,-80.25 291.64,-75.31"/>
<polygon fill="#63b8ff" stroke="#63b8ff" points="309.67,-113.41 316.11,-121.82 316.32,-111.23 309.67,-113.41"/>
</a>
</g>
</g>
<!-- Node3 -->
<g id="Node000003" class="node">
<title>Node3</title>
<g id="a_Node000003"><a xlink:href="classNode.html" target="_top" xlink:title="Represents a node in the tree structure.">
<polygon fill="white" stroke="#666666" points="634.5,-208.5 592.5,-208.5 592.5,-189.5 634.5,-189.5 634.5,-208.5"/>
<text text-anchor="middle" x="613.5" y="-196.5" font-family="Helvetica,sans-Serif" font-size="10.00">Node</text>
</a>
</g>
</g>
<!-- Node3&#45;&gt;Node2 -->
<g id="edge2_Node000002_Node000003" class="edge">
<title>Node3&#45;&gt;Node2</title>
<g id="a_edge2_Node000002_Node000003"><a xlink:title=" ">
<path fill="none" stroke="#63b8ff" d="M582.39,-191.09C523.17,-177.94 395.43,-149.58 342.36,-137.8"/>
<polygon fill="#63b8ff" stroke="#63b8ff" points="581.76,-194.54 592.28,-193.29 583.28,-187.7 581.76,-194.54"/>
</a>
</g>
</g>
<!-- Node3&#45;&gt;Node3 -->
<g id="edge3_Node000003_Node000003" class="edge">
<title>Node3&#45;&gt;Node3</title>
<g id="a_edge3_Node000003_Node000003"><a xlink:title=" ">
<path fill="none" stroke="#9a32cd" stroke-dasharray="5,2" d="M644.91,-204.74C649.45,-203.83 652.5,-201.91 652.5,-199 652.5,-194.22 644.27,-192.13 634.76,-192.72"/>
<polygon fill="#9a32cd" stroke="#9a32cd" points="644.56,-201.26 634.76,-205.28 644.93,-208.25 644.56,-201.26"/>
</a>
</g>
<text text-anchor="middle" x="674" y="-202" font-family="Helvetica,sans-Serif" font-size="10.00" fill="grey"> children</text>
<text text-anchor="middle" x="674" y="-191" font-family="Helvetica,sans-Serif" font-size="10.00" fill="grey">parent</text>
</g>
<!-- Node4 -->
<g id="Node000004" class="node">
<title>Node4</title>
<g id="a_Node000004"><a xlink:href="unionBehaviorAttribute.html" target="_top" xlink:title=" ">
<polygon fill="white" stroke="#666666" points="716,-141 613,-141 613,-122 716,-122 716,-141"/>
<text text-anchor="middle" x="664.5" y="-129" font-family="Helvetica,sans-Serif" font-size="10.00">BehaviorAttribute</text>
</a>
</g>
</g>
<!-- Node3&#45;&gt;Node4 -->
<g id="edge5_Node000004_Node000003" class="edge">
<title>Node3&#45;&gt;Node4</title>
<g id="a_edge5_Node000004_Node000003"><a xlink:title=" ">
<path fill="none" stroke="#9a32cd" stroke-dasharray="5,2" d="M607.62,-179.36C606.56,-172.51 606.78,-164.98 610.5,-159 615.64,-150.76 624.17,-145.01 632.95,-141.02"/>
<polygon fill="#9a32cd" stroke="#9a32cd" points="604.26,-180.34 610.02,-189.23 611.06,-178.69 604.26,-180.34"/>
</a>
</g>
<text text-anchor="middle" x="624.5" y="-162" font-family="Helvetica,sans-Serif" font-size="10.00" fill="grey"> node</text>
</g>
<!-- Node4&#45;&gt;Node3 -->
<g id="edge4_Node000003_Node000004" class="edge">
<title>Node4&#45;&gt;Node3</title>
<g id="a_edge4_Node000003_Node000004"><a xlink:title=" ">
<path fill="none" stroke="#9a32cd" stroke-dasharray="5,2" d="M655.26,-150.49C651.64,-156.9 647.22,-164.01 642.5,-170 636.96,-177.04 629.71,-184.04 623.85,-189.28"/>
<polygon fill="#9a32cd" stroke="#9a32cd" points="658.57,-151.73 660.23,-141.27 652.41,-148.41 658.57,-151.73"/>
</a>
</g>
<text text-anchor="middle" x="672.5" y="-162" font-family="Helvetica,sans-Serif" font-size="10.00" fill="grey"> attribute</text>
</g>
<!-- Node5&#45;&gt;Node2 -->
<g id="edge6_Node000002_Node000005" class="edge">
<title>Node5&#45;&gt;Node2</title>
<g id="a_edge6_Node000002_Node000005"><a xlink:title=" ">
<path fill="none" stroke="#9a32cd" stroke-dasharray="5,2" d="M510.8,-84.87C507.3,-91.93 502.31,-99.4 495.5,-104 470.92,-120.62 384.49,-127.19 342.18,-129.46"/>
<polygon fill="#9a32cd" stroke="#9a32cd" points="514.22,-85.76 514.88,-75.19 507.77,-83.04 514.22,-85.76"/>
</a>
</g>
<text text-anchor="middle" x="524" y="-96" font-family="Helvetica,sans-Serif" font-size="10.00" fill="grey"> theme</text>
</g>
<!-- Node6 -->
<g id="Node000006" class="node">
<title>Node6</title>
<g id="a_Node000006"><a xlink:href="structFont.html" target="_top" xlink:title="Represents a font.">
<polygon fill="white" stroke="#666666" points="594.5,-141 556.5,-141 556.5,-122 594.5,-122 594.5,-141"/>
<text text-anchor="middle" x="575.5" y="-129" font-family="Helvetica,sans-Serif" font-size="10.00">Font</text>
</a>
</g>
</g>
<!-- Node6&#45;&gt;Node5 -->
<g id="edge7_Node000005_Node000006" class="edge">
<title>Node6&#45;&gt;Node5</title>
<g id="a_edge7_Node000005_Node000006"><a xlink:title=" ">
<path fill="none" stroke="#9a32cd" stroke-dasharray="5,2" d="M567.08,-112.86C563.44,-106.23 558.8,-98.88 553.5,-93 547.27,-86.08 538.97,-79.83 531.91,-75.13"/>
<polygon fill="#9a32cd" stroke="#9a32cd" points="563.99,-114.5 571.66,-121.81 570.22,-111.31 563.99,-114.5"/>
</a>
</g>
<text text-anchor="middle" x="573" y="-96" font-family="Helvetica,sans-Serif" font-size="10.00" fill="grey"> font</text>
</g>
<!-- Node7&#45;&gt;Node2 -->
<g id="edge9_Node000002_Node000007" class="edge">
<title>Node7&#45;&gt;Node2</title>
<g id="a_edge9_Node000002_Node000007"><a xlink:title=" ">
<path fill="none" stroke="#9a32cd" stroke-dasharray="5,2" d="M14.12,-84.96C12.7,-91.71 12.86,-98.93 17.5,-104 36.1,-124.31 226.73,-129.13 294.64,-130.21"/>
<polygon fill="#9a32cd" stroke="#9a32cd" points="17.56,-85.7 17.25,-75.11 10.89,-83.58 17.56,-85.7"/>
</a>
</g>
<text text-anchor="middle" x="31.5" y="-96" font-family="Helvetica,sans-Serif" font-size="10.00" fill="grey"> label</text>
</g>
<!-- Node8&#45;&gt;Node2 -->
<g id="edge11_Node000002_Node000008" class="edge">
<title>Node8&#45;&gt;Node2</title>
<g id="a_edge11_Node000002_Node000008"><a xlink:title=" ">
<path fill="none" stroke="#9a32cd" stroke-dasharray="5,2" d="M352.96,-83.58C343.89,-95.92 332.02,-112.09 324.84,-121.87"/>
<polygon fill="#9a32cd" stroke="#9a32cd" points="355.86,-85.54 358.96,-75.41 350.22,-81.39 355.86,-85.54"/>
</a>
</g>
<text text-anchor="middle" x="363" y="-96" font-family="Helvetica,sans-Serif" font-size="10.00" fill="grey"> button</text>
</g>
<!-- Node11 -->
<g id="Node000011" class="node">
<title>Node11</title>
<g id="a_Node000011"><a xlink:href="classRadioButton.html" target="_top" xlink:title="Represents a radio button.">
<polygon fill="white" stroke="#666666" points="212,-19 135,-19 135,0 212,0 212,-19"/>
<text text-anchor="middle" x="173.5" y="-7" font-family="Helvetica,sans-Serif" font-size="10.00">RadioButton</text>
</a>
</g>
</g>
<!-- Node8&#45;&gt;Node11 -->
<g id="edge19_Node000011_Node000008" class="edge">
<title>Node8&#45;&gt;Node11</title>
<g id="a_edge19_Node000011_Node000008"><a xlink:title=" ">
<path fill="none" stroke="#63b8ff" d="M331.15,-54.84C294.93,-44.65 238.42,-28.76 203.8,-19.02"/>
<polygon fill="#63b8ff" stroke="#63b8ff" points="330.22,-58.21 340.79,-57.55 332.11,-51.47 330.22,-58.21"/>
</a>
</g>
</g>
<!-- Node12 -->
<g id="Node000012" class="node">
<title>Node12</title>
<g id="a_Node000012"><a xlink:href="classSlider.html" target="_top" xlink:title=" ">
<polygon fill="white" stroke="#666666" points="427.5,-19 383.5,-19 383.5,0 427.5,0 427.5,-19"/>
<text text-anchor="middle" x="405.5" y="-7" font-family="Helvetica,sans-Serif" font-size="10.00">Slider</text>
</a>
</g>
</g>
<!-- Node8&#45;&gt;Node12 -->
<g id="edge21_Node000012_Node000008" class="edge">
<title>Node8&#45;&gt;Node12</title>
<g id="a_edge21_Node000012_Node000008"><a xlink:title=" ">
<path fill="none" stroke="#63b8ff" d="M378.2,-47.36C385.13,-38 393.41,-26.83 399.02,-19.25"/>
<polygon fill="#63b8ff" stroke="#63b8ff" points="375.25,-45.46 372.11,-55.58 380.87,-49.63 375.25,-45.46"/>
</a>
</g>
</g>
<!-- Node9&#45;&gt;Node2 -->
<g id="edge14_Node000002_Node000009" class="edge">
<title>Node9&#45;&gt;Node2</title>
<g id="a_edge14_Node000002_Node000009"><a xlink:title=" ">
<path fill="none" stroke="#9a32cd" stroke-dasharray="5,2" d="M156.51,-79.05C142.99,-85.52 132.99,-94.12 141.5,-104 161.02,-126.66 251.26,-130.22 294.83,-130.6"/>
<polygon fill="#9a32cd" stroke="#9a32cd" points="157.92,-82.25 165.74,-75.11 155.17,-75.81 157.92,-82.25"/>
</a>
</g>
<text text-anchor="middle" x="166.5" y="-96" font-family="Helvetica,sans-Serif" font-size="10.00" fill="grey"> selectList</text>
</g>
<!-- Node10&#45;&gt;Node2 -->
<g id="edge16_Node000002_Node000010" class="edge">
<title>Node10&#45;&gt;Node2</title>
<g id="a_edge16_Node000002_Node000010"><a xlink:title=" ">
<path fill="none" stroke="#9a32cd" stroke-dasharray="5,2" d="M251.63,-79.8C240.76,-86.31 232.84,-94.74 239.5,-104 252,-121.38 276.45,-127.52 294.86,-129.61"/>
<polygon fill="#9a32cd" stroke="#9a32cd" points="253.53,-82.76 260.76,-75.02 250.28,-76.56 253.53,-82.76"/>
</a>
</g>
<text text-anchor="middle" x="272" y="-96" font-family="Helvetica,sans-Serif" font-size="10.00" fill="grey"> imageFrame</text>
</g>
<!-- Node11&#45;&gt;Node2 -->
<g id="edge18_Node000002_Node000011" class="edge">
<title>Node11&#45;&gt;Node2</title>
<g id="a_edge18_Node000002_Node000011"><a xlink:title=" ">
<path fill="none" stroke="#9a32cd" stroke-dasharray="5,2" d="M136.24,-22.77C109.94,-33.69 81.38,-51.57 93.5,-75 103.76,-94.82 113.77,-95.74 134.5,-104 189.06,-125.75 259.04,-129.97 294.94,-130.59"/>
<polygon fill="#9a32cd" stroke="#9a32cd" points="137.7,-25.95 145.74,-19.06 135.15,-19.43 137.7,-25.95"/>
</a>
</g>
<text text-anchor="middle" x="123.5" y="-63" font-family="Helvetica,sans-Serif" font-size="10.00" fill="grey"> radiobutton</text>
</g>
<!-- Node12&#45;&gt;Node2 -->
<g id="edge20_Node000002_Node000012" class="edge">
<title>Node12&#45;&gt;Node2</title>
<g id="a_edge20_Node000002_Node000012"><a xlink:title=" ">
<path fill="none" stroke="#9a32cd" stroke-dasharray="5,2" d="M410.17,-29.03C414.17,-49.56 416.98,-82.59 400.5,-104 386.91,-121.67 361.36,-127.75 342.38,-129.74"/>
<polygon fill="#9a32cd" stroke="#9a32cd" points="413.54,-28.06 407.94,-19.07 406.7,-29.59 413.54,-28.06"/>
</a>
</g>
<text text-anchor="middle" x="429" y="-63" font-family="Helvetica,sans-Serif" font-size="10.00" fill="grey"> slider</text>
</g>
</g>
</svg>
