<?xml version="1.0" encoding="UTF-8" standalone="no"?>
<!DOCTYPE svg PUBLIC "-//W3C//DTD SVG 1.1//EN"
 "http://www.w3.org/Graphics/SVG/1.1/DTD/svg11.dtd">
<!-- Generated by graphviz version 2.43.0 (0)
 -->
<!-- Title: SpotLight Pages: 1 -->
<svg width="181pt" height="152pt"
 viewBox="0.00 0.00 180.50 152.00" xmlns="http://www.w3.org/2000/svg" xmlns:xlink="http://www.w3.org/1999/xlink">
<g id="graph0" class="graph" transform="scale(1 1) rotate(0) translate(4 148)">
<title>SpotLight</title>
<!-- Node1 -->
<g id="Node000001" class="node">
<title>Node1</title>
<g id="a_Node000001"><a xlink:title="Represents a spotlight source.">
<polygon fill="#999999" stroke="#666666" points="62,-19 0,-19 0,0 62,0 62,-19"/>
<text text-anchor="middle" x="31" y="-7" font-family="Helvetica,sans-Serif" font-size="10.00">SpotLight</text>
</a>
</g>
</g>
<!-- Node2 -->
<g id="Node000002" class="node">
<title>Node2</title>
<g id="a_Node000002"><a xlink:href="classLight.html" target="_top" xlink:title=" ">
<polygon fill="white" stroke="#666666" points="51.5,-75 10.5,-75 10.5,-56 51.5,-56 51.5,-75"/>
<text text-anchor="middle" x="31" y="-63" font-family="Helvetica,sans-Serif" font-size="10.00">Light</text>
</a>
</g>
</g>
<!-- Node2&#45;&gt;Node1 -->
<g id="edge1_Node000001_Node000002" class="edge">
<title>Node2&#45;&gt;Node1</title>
<g id="a_edge1_Node000001_Node000002"><a xlink:title=" ">
<path fill="none" stroke="#63b8ff" d="M31,-45.3C31,-36.41 31,-26.28 31,-19.25"/>
<polygon fill="#63b8ff" stroke="#63b8ff" points="27.5,-45.58 31,-55.58 34.5,-45.58 27.5,-45.58"/>
</a>
</g>
</g>
<!-- Node3 -->
<g id="Node000003" class="node">
<title>Node3</title>
<g id="a_Node000003"><a xlink:href="classNode.html" target="_top" xlink:title="Represents a node in the tree structure.">
<polygon fill="white" stroke="#666666" points="91,-142.5 49,-142.5 49,-123.5 91,-123.5 91,-142.5"/>
<text text-anchor="middle" x="70" y="-130.5" font-family="Helvetica,sans-Serif" font-size="10.00">Node</text>
</a>
</g>
</g>
<!-- Node3&#45;&gt;Node2 -->
<g id="edge2_Node000002_Node000003" class="edge">
<title>Node3&#45;&gt;Node2</title>
<g id="a_edge2_Node000002_Node000003"><a xlink:title=" ">
<path fill="none" stroke="#63b8ff" d="M55.59,-114.99C52.91,-111.47 50.25,-107.7 48,-104 42.29,-94.59 37.29,-82.93 34.22,-75.13"/>
<polygon fill="#63b8ff" stroke="#63b8ff" points="53.09,-117.47 62.08,-123.07 58.55,-113.08 53.09,-117.47"/>
</a>
</g>
</g>
<!-- Node3&#45;&gt;Node3 -->
<g id="edge3_Node000003_Node000003" class="edge">
<title>Node3&#45;&gt;Node3</title>
<g id="a_edge3_Node000003_Node000003"><a xlink:title=" ">
<path fill="none" stroke="#9a32cd" stroke-dasharray="5,2" d="M101.41,-138.74C105.95,-137.83 109,-135.91 109,-133 109,-128.22 100.77,-126.13 91.26,-126.72"/>
<polygon fill="#9a32cd" stroke="#9a32cd" points="101.06,-135.26 91.26,-139.28 101.43,-142.25 101.06,-135.26"/>
</a>
</g>
<text text-anchor="middle" x="130.5" y="-136" font-family="Helvetica,sans-Serif" font-size="10.00" fill="grey"> children</text>
<text text-anchor="middle" x="130.5" y="-125" font-family="Helvetica,sans-Serif" font-size="10.00" fill="grey">parent</text>
</g>
<!-- Node4 -->
<g id="Node000004" class="node">
<title>Node4</title>
<g id="a_Node000004"><a xlink:href="unionBehaviorAttribute.html" target="_top" xlink:title=" ">
<polygon fill="white" stroke="#666666" points="172.5,-75 69.5,-75 69.5,-56 172.5,-56 172.5,-75"/>
<text text-anchor="middle" x="121" y="-63" font-family="Helvetica,sans-Serif" font-size="10.00">BehaviorAttribute</text>
</a>
</g>
</g>
<!-- Node3&#45;&gt;Node4 -->
<g id="edge5_Node000004_Node000003" class="edge">
<title>Node3&#45;&gt;Node4</title>
<g id="a_edge5_Node000004_Node000003"><a xlink:title=" ">
<path fill="none" stroke="#9a32cd" stroke-dasharray="5,2" d="M64.12,-113.36C63.06,-106.51 63.28,-98.98 67,-93 72.14,-84.76 80.67,-79.01 89.45,-75.02"/>
<polygon fill="#9a32cd" stroke="#9a32cd" points="60.76,-114.34 66.52,-123.23 67.56,-112.69 60.76,-114.34"/>
</a>
</g>
<text text-anchor="middle" x="81" y="-96" font-family="Helvetica,sans-Serif" font-size="10.00" fill="grey"> node</text>
</g>
<!-- Node4&#45;&gt;Node3 -->
<g id="edge4_Node000003_Node000004" class="edge">
<title>Node4&#45;&gt;Node3</title>
<g id="a_edge4_Node000003_Node000004"><a xlink:title=" ">
<path fill="none" stroke="#9a32cd" stroke-dasharray="5,2" d="M111.76,-84.49C108.14,-90.9 103.72,-98.01 99,-104 93.46,-111.04 86.21,-118.04 80.35,-123.28"/>
<polygon fill="#9a32cd" stroke="#9a32cd" points="115.07,-85.73 116.73,-75.27 108.91,-82.41 115.07,-85.73"/>
</a>
</g>
<text text-anchor="middle" x="129" y="-96" font-family="Helvetica,sans-Serif" font-size="10.00" fill="grey"> attribute</text>
</g>
</g>
</svg>
