<?xml version="1.0" encoding="UTF-8" standalone="no"?>
<!DOCTYPE svg PUBLIC "-//W3C//DTD SVG 1.1//EN"
 "http://www.w3.org/Graphics/SVG/1.1/DTD/svg11.dtd">
<!-- Generated by graphviz version 2.43.0 (0)
 -->
<!-- Title: Scene Pages: 1 -->
<svg width="176pt" height="96pt"
 viewBox="0.00 0.00 175.50 96.00" xmlns="http://www.w3.org/2000/svg" xmlns:xlink="http://www.w3.org/1999/xlink">
<g id="graph0" class="graph" transform="scale(1 1) rotate(0) translate(4 92)">
<title>Scene</title>
<!-- Node1 -->
<g id="Node000001" class="node">
<title>Node1</title>
<g id="a_Node000001"><a xlink:title=" ">
<polygon fill="#999999" stroke="#666666" points="46,-19 0,-19 0,0 46,0 46,-19"/>
<text text-anchor="middle" x="23" y="-7" font-family="Helvetica,sans-Serif" font-size="10.00">Scene</text>
</a>
</g>
</g>
<!-- Node2 -->
<g id="Node000002" class="node">
<title>Node2</title>
<g id="a_Node000002"><a xlink:href="classNode.html" target="_top" xlink:title="Represents a node in the tree structure.">
<polygon fill="white" stroke="#666666" points="86,-86.5 44,-86.5 44,-67.5 86,-67.5 86,-86.5"/>
<text text-anchor="middle" x="65" y="-74.5" font-family="Helvetica,sans-Serif" font-size="10.00">Node</text>
</a>
</g>
</g>
<!-- Node2&#45;&gt;Node1 -->
<g id="edge1_Node000001_Node000002" class="edge">
<title>Node2&#45;&gt;Node1</title>
<g id="a_edge1_Node000001_Node000002"><a xlink:title=" ">
<path fill="none" stroke="#63b8ff" d="M51.27,-59.51C48.41,-55.81 45.51,-51.84 43,-48 36.79,-38.48 30.82,-26.85 27.04,-19.08"/>
<polygon fill="#63b8ff" stroke="#63b8ff" points="48.66,-61.86 57.65,-67.47 54.12,-57.48 48.66,-61.86"/>
</a>
</g>
</g>
<!-- Node2&#45;&gt;Node2 -->
<g id="edge2_Node000002_Node000002" class="edge">
<title>Node2&#45;&gt;Node2</title>
<g id="a_edge2_Node000002_Node000002"><a xlink:title=" ">
<path fill="none" stroke="#9a32cd" stroke-dasharray="5,2" d="M96.41,-82.74C100.95,-81.83 104,-79.91 104,-77 104,-72.22 95.77,-70.13 86.26,-70.72"/>
<polygon fill="#9a32cd" stroke="#9a32cd" points="96.06,-79.26 86.26,-83.28 96.43,-86.25 96.06,-79.26"/>
</a>
</g>
<text text-anchor="middle" x="125.5" y="-80" font-family="Helvetica,sans-Serif" font-size="10.00" fill="grey"> children</text>
<text text-anchor="middle" x="125.5" y="-69" font-family="Helvetica,sans-Serif" font-size="10.00" fill="grey">parent</text>
</g>
<!-- Node3 -->
<g id="Node000003" class="node">
<title>Node3</title>
<g id="a_Node000003"><a xlink:href="unionBehaviorAttribute.html" target="_top" xlink:title=" ">
<polygon fill="white" stroke="#666666" points="167.5,-19 64.5,-19 64.5,0 167.5,0 167.5,-19"/>
<text text-anchor="middle" x="116" y="-7" font-family="Helvetica,sans-Serif" font-size="10.00">BehaviorAttribute</text>
</a>
</g>
</g>
<!-- Node2&#45;&gt;Node3 -->
<g id="edge4_Node000003_Node000002" class="edge">
<title>Node2&#45;&gt;Node3</title>
<g id="a_edge4_Node000003_Node000002"><a xlink:title=" ">
<path fill="none" stroke="#9a32cd" stroke-dasharray="5,2" d="M59.12,-57.36C58.06,-50.51 58.28,-42.98 62,-37 67.14,-28.76 75.67,-23.01 84.45,-19.02"/>
<polygon fill="#9a32cd" stroke="#9a32cd" points="55.76,-58.34 61.52,-67.23 62.56,-56.69 55.76,-58.34"/>
</a>
</g>
<text text-anchor="middle" x="76" y="-40" font-family="Helvetica,sans-Serif" font-size="10.00" fill="grey"> node</text>
</g>
<!-- Node3&#45;&gt;Node2 -->
<g id="edge3_Node000002_Node000003" class="edge">
<title>Node3&#45;&gt;Node2</title>
<g id="a_edge3_Node000002_Node000003"><a xlink:title=" ">
<path fill="none" stroke="#9a32cd" stroke-dasharray="5,2" d="M106.76,-28.49C103.14,-34.9 98.72,-42.01 94,-48 88.46,-55.04 81.21,-62.04 75.35,-67.28"/>
<polygon fill="#9a32cd" stroke="#9a32cd" points="110.07,-29.73 111.73,-19.27 103.91,-26.41 110.07,-29.73"/>
</a>
</g>
<text text-anchor="middle" x="124" y="-40" font-family="Helvetica,sans-Serif" font-size="10.00" fill="grey"> attribute</text>
</g>
</g>
</svg>
