<?xml version="1.0" encoding="UTF-8" standalone="no"?>
<!DOCTYPE svg PUBLIC "-//W3C//DTD SVG 1.1//EN"
 "http://www.w3.org/Graphics/SVG/1.1/DTD/svg11.dtd">
<!-- Generated by graphviz version 2.43.0 (0)
 -->
<!-- Title: RigidBody Pages: 1 -->
<svg width="265pt" height="218pt"
 viewBox="0.00 0.00 264.50 218.00" xmlns="http://www.w3.org/2000/svg" xmlns:xlink="http://www.w3.org/1999/xlink">
<g id="graph0" class="graph" transform="scale(1 1) rotate(0) translate(4 214)">
<title>RigidBody</title>
<!-- Node1 -->
<g id="Node000001" class="node">
<title>Node1</title>
<g id="a_Node000001"><a xlink:title="Represents a rigid body in the physics simulation.">
<polygon fill="#999999" stroke="#666666" points="66,-19 0,-19 0,0 66,0 66,-19"/>
<text text-anchor="middle" x="33" y="-7" font-family="Helvetica,sans-Serif" font-size="10.00">RigidBody</text>
</a>
</g>
</g>
<!-- Node2 -->
<g id="Node000002" class="node">
<title>Node2</title>
<g id="a_Node000002"><a xlink:href="classBody.html" target="_top" xlink:title=" ">
<polygon fill="white" stroke="#666666" points="103.5,-75 62.5,-75 62.5,-56 103.5,-56 103.5,-75"/>
<text text-anchor="middle" x="83" y="-63" font-family="Helvetica,sans-Serif" font-size="10.00">Body</text>
</a>
</g>
</g>
<!-- Node2&#45;&gt;Node1 -->
<g id="edge1_Node000001_Node000002" class="edge">
<title>Node2&#45;&gt;Node1</title>
<g id="a_edge1_Node000001_Node000002"><a xlink:title=" ">
<path fill="none" stroke="#63b8ff" d="M67.92,-48.22C59.11,-38.7 48.33,-27.06 41.1,-19.25"/>
<polygon fill="#63b8ff" stroke="#63b8ff" points="65.38,-50.62 74.74,-55.58 70.52,-45.87 65.38,-50.62"/>
</a>
</g>
</g>
<!-- Node3 -->
<g id="Node000003" class="node">
<title>Node3</title>
<g id="a_Node000003"><a xlink:href="classPhysicalNode.html" target="_top" xlink:title=" ">
<polygon fill="white" stroke="#666666" points="135.5,-141 52.5,-141 52.5,-122 135.5,-122 135.5,-141"/>
<text text-anchor="middle" x="94" y="-129" font-family="Helvetica,sans-Serif" font-size="10.00">PhysicalNode</text>
</a>
</g>
</g>
<!-- Node3&#45;&gt;Node2 -->
<g id="edge2_Node000002_Node000003" class="edge">
<title>Node3&#45;&gt;Node2</title>
<g id="a_edge2_Node000002_Node000003"><a xlink:title=" ">
<path fill="none" stroke="#63b8ff" d="M96.26,-111.38C96.49,-105.44 96.27,-98.9 95,-93 93.64,-86.68 90.64,-80.06 87.98,-75.01"/>
<polygon fill="#63b8ff" stroke="#63b8ff" points="92.74,-111.5 95.4,-121.75 99.71,-112.08 92.74,-111.5"/>
</a>
</g>
</g>
<!-- Node4 -->
<g id="Node000004" class="node">
<title>Node4</title>
<g id="a_Node000004"><a xlink:href="classNode.html" target="_top" xlink:title="Represents a node in the tree structure.">
<polygon fill="white" stroke="#666666" points="134,-208.5 92,-208.5 92,-189.5 134,-189.5 134,-208.5"/>
<text text-anchor="middle" x="113" y="-196.5" font-family="Helvetica,sans-Serif" font-size="10.00">Node</text>
</a>
</g>
</g>
<!-- Node4&#45;&gt;Node1 -->
<g id="edge7_Node000001_Node000004" class="edge">
<title>Node4&#45;&gt;Node1</title>
<g id="a_edge7_Node000001_Node000004"><a xlink:title=" ">
<path fill="none" stroke="#9a32cd" stroke-dasharray="5,2" d="M86.91,-184.48C60.49,-169.1 21.41,-141.19 6,-104 -6.48,-73.87 15.2,-36.03 26.63,-19.23"/>
<polygon fill="#9a32cd" stroke="#9a32cd" points="85.23,-187.56 95.66,-189.4 88.66,-181.45 85.23,-187.56"/>
</a>
</g>
<text text-anchor="middle" x="48.5" y="-96" font-family="Helvetica,sans-Serif" font-size="10.00" fill="grey"> collisionsShapes</text>
</g>
<!-- Node4&#45;&gt;Node3 -->
<g id="edge3_Node000003_Node000004" class="edge">
<title>Node4&#45;&gt;Node3</title>
<g id="a_edge3_Node000003_Node000004"><a xlink:title=" ">
<path fill="none" stroke="#63b8ff" d="M107.65,-179.57C104.02,-167.03 99.37,-151.02 96.55,-141.27"/>
<polygon fill="#63b8ff" stroke="#63b8ff" points="104.37,-180.81 110.52,-189.44 111.09,-178.86 104.37,-180.81"/>
</a>
</g>
</g>
<!-- Node4&#45;&gt;Node4 -->
<g id="edge4_Node000004_Node000004" class="edge">
<title>Node4&#45;&gt;Node4</title>
<g id="a_edge4_Node000004_Node000004"><a xlink:title=" ">
<path fill="none" stroke="#9a32cd" stroke-dasharray="5,2" d="M144.41,-204.74C148.95,-203.83 152,-201.91 152,-199 152,-194.22 143.77,-192.13 134.26,-192.72"/>
<polygon fill="#9a32cd" stroke="#9a32cd" points="144.06,-201.26 134.26,-205.28 144.43,-208.25 144.06,-201.26"/>
</a>
</g>
<text text-anchor="middle" x="173.5" y="-202" font-family="Helvetica,sans-Serif" font-size="10.00" fill="grey"> children</text>
<text text-anchor="middle" x="173.5" y="-191" font-family="Helvetica,sans-Serif" font-size="10.00" fill="grey">parent</text>
</g>
<!-- Node5 -->
<g id="Node000005" class="node">
<title>Node5</title>
<g id="a_Node000005"><a xlink:href="unionBehaviorAttribute.html" target="_top" xlink:title=" ">
<polygon fill="white" stroke="#666666" points="256.5,-141 153.5,-141 153.5,-122 256.5,-122 256.5,-141"/>
<text text-anchor="middle" x="205" y="-129" font-family="Helvetica,sans-Serif" font-size="10.00">BehaviorAttribute</text>
</a>
</g>
</g>
<!-- Node4&#45;&gt;Node5 -->
<g id="edge6_Node000005_Node000004" class="edge">
<title>Node4&#45;&gt;Node5</title>
<g id="a_edge6_Node000005_Node000004"><a xlink:title=" ">
<path fill="none" stroke="#9a32cd" stroke-dasharray="5,2" d="M123.55,-180.53C128.69,-173.13 135.41,-164.89 143,-159 152.99,-151.25 165.59,-145.33 176.81,-141.06"/>
<polygon fill="#9a32cd" stroke="#9a32cd" points="120.44,-178.9 117.94,-189.19 126.31,-182.7 120.44,-178.9"/>
</a>
</g>
<text text-anchor="middle" x="157" y="-162" font-family="Helvetica,sans-Serif" font-size="10.00" fill="grey"> node</text>
</g>
<!-- Node5&#45;&gt;Node4 -->
<g id="edge5_Node000004_Node000005" class="edge">
<title>Node5&#45;&gt;Node4</title>
<g id="a_edge5_Node000004_Node000005"><a xlink:title=" ">
<path fill="none" stroke="#9a32cd" stroke-dasharray="5,2" d="M194.08,-149.48C188.93,-156.51 182.32,-164.32 175,-170 162.78,-179.49 146.83,-186.6 134.17,-191.28"/>
<polygon fill="#9a32cd" stroke="#9a32cd" points="196.97,-151.45 199.75,-141.23 191.2,-147.49 196.97,-151.45"/>
</a>
</g>
<text text-anchor="middle" x="209" y="-162" font-family="Helvetica,sans-Serif" font-size="10.00" fill="grey"> attribute</text>
</g>
</g>
</svg>
