<?xml version="1.0" encoding="UTF-8" standalone="no"?>
<!DOCTYPE svg PUBLIC "-//W3C//DTD SVG 1.1//EN"
 "http://www.w3.org/Graphics/SVG/1.1/DTD/svg11.dtd">
<!-- Generated by graphviz version 2.43.0 (0)
 -->
<!-- Title: SphereCShape Pages: 1 -->
<svg width="448pt" height="382pt"
 viewBox="0.00 0.00 447.50 382.00" xmlns="http://www.w3.org/2000/svg" xmlns:xlink="http://www.w3.org/1999/xlink">
<g id="graph0" class="graph" transform="scale(1 1) rotate(0) translate(4 378)">
<title>SphereCShape</title>
<!-- Node1 -->
<g id="Node000001" class="node">
<title>Node1</title>
<g id="a_Node000001"><a xlink:title=" ">
<polygon fill="#999999" stroke="#666666" points="164,-19 77,-19 77,0 164,0 164,-19"/>
<text text-anchor="middle" x="120.5" y="-7" font-family="Helvetica,sans-Serif" font-size="10.00">SphereCShape</text>
</a>
</g>
</g>
<!-- Node2 -->
<g id="Node000002" class="node">
<title>Node2</title>
<g id="a_Node000002"><a xlink:href="classCShape.html" target="_top" xlink:title=" ">
<polygon fill="white" stroke="#666666" points="53,-85 0,-85 0,-66 53,-66 53,-85"/>
<text text-anchor="middle" x="26.5" y="-73" font-family="Helvetica,sans-Serif" font-size="10.00">CShape</text>
</a>
</g>
</g>
<!-- Node2&#45;&gt;Node1 -->
<g id="edge1_Node000001_Node000002" class="edge">
<title>Node2&#45;&gt;Node1</title>
<g id="a_edge1_Node000001_Node000002"><a xlink:title=" ">
<path fill="none" stroke="#63b8ff" d="M47.53,-60.18C66,-47.61 92.26,-29.73 107.72,-19.2"/>
<polygon fill="#63b8ff" stroke="#63b8ff" points="45.47,-57.35 39.18,-65.87 49.41,-63.13 45.47,-57.35"/>
</a>
</g>
</g>
<!-- Node3 -->
<g id="Node000003" class="node">
<title>Node3</title>
<g id="a_Node000003"><a xlink:href="classNode.html" target="_top" xlink:title="Represents a node in the tree structure.">
<polygon fill="white" stroke="#666666" points="97.5,-152.5 55.5,-152.5 55.5,-133.5 97.5,-133.5 97.5,-152.5"/>
<text text-anchor="middle" x="76.5" y="-140.5" font-family="Helvetica,sans-Serif" font-size="10.00">Node</text>
</a>
</g>
</g>
<!-- Node3&#45;&gt;Node2 -->
<g id="edge2_Node000002_Node000003" class="edge">
<title>Node3&#45;&gt;Node2</title>
<g id="a_edge2_Node000002_Node000003"><a xlink:title=" ">
<path fill="none" stroke="#63b8ff" d="M63.86,-125.44C54.11,-112.67 41.01,-95.51 33.2,-85.27"/>
<polygon fill="#63b8ff" stroke="#63b8ff" points="61.11,-127.61 69.96,-133.44 66.68,-123.36 61.11,-127.61"/>
</a>
</g>
</g>
<!-- Node3&#45;&gt;Node3 -->
<g id="edge3_Node000003_Node000003" class="edge">
<title>Node3&#45;&gt;Node3</title>
<g id="a_edge3_Node000003_Node000003"><a xlink:title=" ">
<path fill="none" stroke="#9a32cd" stroke-dasharray="5,2" d="M107.91,-148.74C112.45,-147.83 115.5,-145.91 115.5,-143 115.5,-138.22 107.27,-136.13 97.76,-136.72"/>
<polygon fill="#9a32cd" stroke="#9a32cd" points="107.56,-145.26 97.76,-149.28 107.93,-152.25 107.56,-145.26"/>
</a>
</g>
<text text-anchor="middle" x="137" y="-146" font-family="Helvetica,sans-Serif" font-size="10.00" fill="grey"> children</text>
<text text-anchor="middle" x="137" y="-135" font-family="Helvetica,sans-Serif" font-size="10.00" fill="grey">parent</text>
</g>
<!-- Node4 -->
<g id="Node000004" class="node">
<title>Node4</title>
<g id="a_Node000004"><a xlink:href="unionBehaviorAttribute.html" target="_top" xlink:title=" ">
<polygon fill="white" stroke="#666666" points="174,-85 71,-85 71,-66 174,-66 174,-85"/>
<text text-anchor="middle" x="122.5" y="-73" font-family="Helvetica,sans-Serif" font-size="10.00">BehaviorAttribute</text>
</a>
</g>
</g>
<!-- Node3&#45;&gt;Node4 -->
<g id="edge5_Node000004_Node000003" class="edge">
<title>Node3&#45;&gt;Node4</title>
<g id="a_edge5_Node000004_Node000003"><a xlink:title=" ">
<path fill="none" stroke="#9a32cd" stroke-dasharray="5,2" d="M67.5,-123.96C65.33,-117 64.62,-109.23 68.5,-103 73.64,-94.76 82.17,-89.01 90.95,-85.02"/>
<polygon fill="#9a32cd" stroke="#9a32cd" points="64.3,-125.39 71.34,-133.3 70.77,-122.72 64.3,-125.39"/>
</a>
</g>
<text text-anchor="middle" x="82.5" y="-106" font-family="Helvetica,sans-Serif" font-size="10.00" fill="grey"> node</text>
</g>
<!-- Node5 -->
<g id="Node000005" class="node">
<title>Node5</title>
<g id="a_Node000005"><a xlink:href="classModel.html" target="_top" xlink:title="Structure representing a 3D model.">
<polygon fill="white" stroke="#666666" points="239,-85 192,-85 192,-66 239,-66 239,-85"/>
<text text-anchor="middle" x="215.5" y="-73" font-family="Helvetica,sans-Serif" font-size="10.00">Model</text>
</a>
</g>
</g>
<!-- Node3&#45;&gt;Node5 -->
<g id="edge7_Node000005_Node000003" class="edge">
<title>Node3&#45;&gt;Node5</title>
<g id="a_edge7_Node000005_Node000003"><a xlink:title=" ">
<path fill="none" stroke="#63b8ff" d="M107.38,-133.48C123.07,-128.65 142.21,-121.98 158.5,-114 175.31,-105.77 193.08,-93.41 204.23,-85.16"/>
<polygon fill="#63b8ff" stroke="#63b8ff" points="106.22,-130.18 97.64,-136.38 108.22,-136.89 106.22,-130.18"/>
</a>
</g>
</g>
<!-- Node4&#45;&gt;Node3 -->
<g id="edge4_Node000003_Node000004" class="edge">
<title>Node4&#45;&gt;Node3</title>
<g id="a_edge4_Node000003_Node000004"><a xlink:title=" ">
<path fill="none" stroke="#9a32cd" stroke-dasharray="5,2" d="M112.95,-94.26C109.29,-100.64 104.93,-107.79 100.5,-114 95.59,-120.88 89.36,-128.11 84.48,-133.5"/>
<polygon fill="#9a32cd" stroke="#9a32cd" points="116.23,-95.55 118.02,-85.11 110.11,-92.16 116.23,-95.55"/>
</a>
</g>
<text text-anchor="middle" x="131.5" y="-106" font-family="Helvetica,sans-Serif" font-size="10.00" fill="grey"> attribute</text>
</g>
<!-- Node5&#45;&gt;Node1 -->
<g id="edge6_Node000001_Node000005" class="edge">
<title>Node5&#45;&gt;Node1</title>
<g id="a_edge6_Node000001_Node000005"><a xlink:title=" ">
<path fill="none" stroke="#9a32cd" stroke-dasharray="5,2" d="M194.24,-60.18C175.58,-47.61 149.04,-29.73 133.41,-19.2"/>
<polygon fill="#9a32cd" stroke="#9a32cd" points="192.44,-63.18 202.69,-65.87 196.35,-57.38 192.44,-63.18"/>
</a>
</g>
<text text-anchor="middle" x="194.5" y="-40" font-family="Helvetica,sans-Serif" font-size="10.00" fill="grey"> _model</text>
</g>
<!-- Node6 -->
<g id="Node000006" class="node">
<title>Node6</title>
<g id="a_Node000006"><a xlink:href="structModelData.html" target="_top" xlink:title="Structure representing the data of a 3D model.">
<polygon fill="white" stroke="#666666" points="251.5,-152.5 181.5,-152.5 181.5,-133.5 251.5,-133.5 251.5,-152.5"/>
<text text-anchor="middle" x="216.5" y="-140.5" font-family="Helvetica,sans-Serif" font-size="10.00">ModelData</text>
</a>
</g>
</g>
<!-- Node6&#45;&gt;Node5 -->
<g id="edge8_Node000005_Node000006" class="edge">
<title>Node6&#45;&gt;Node5</title>
<g id="a_edge8_Node000005_Node000006"><a xlink:title=" ">
<path fill="none" stroke="#9a32cd" stroke-dasharray="5,2" d="M216.21,-123.18C216.02,-110.71 215.78,-94.92 215.63,-85.27"/>
<polygon fill="#9a32cd" stroke="#9a32cd" points="212.72,-123.49 216.37,-133.44 219.72,-123.38 212.72,-123.49"/>
</a>
</g>
<text text-anchor="middle" x="229" y="-106" font-family="Helvetica,sans-Serif" font-size="10.00" fill="grey"> data</text>
</g>
<!-- Node7 -->
<g id="Node000007" class="node">
<title>Node7</title>
<g id="a_Node000007"><a xlink:href="structMaterial.html" target="_top" xlink:title="Structure representing a material with various properties.">
<polygon fill="white" stroke="#666666" points="156,-286 99,-286 99,-267 156,-267 156,-286"/>
<text text-anchor="middle" x="127.5" y="-274" font-family="Helvetica,sans-Serif" font-size="10.00">Material</text>
</a>
</g>
</g>
<!-- Node7&#45;&gt;Node6 -->
<g id="edge9_Node000006_Node000007" class="edge">
<title>Node7&#45;&gt;Node6</title>
<g id="a_edge9_Node000006_Node000007"><a xlink:title=" ">
<path fill="none" stroke="#9a32cd" stroke-dasharray="5,2" d="M115.04,-257.87C105.54,-242.06 95.75,-218.69 106.5,-201 122.65,-174.44 155.61,-159.71 181.27,-151.91"/>
<polygon fill="#9a32cd" stroke="#9a32cd" points="112.35,-260.15 120.74,-266.63 118.21,-256.34 112.35,-260.15"/>
</a>
</g>
<text text-anchor="middle" x="131.5" y="-208" font-family="Helvetica,sans-Serif" font-size="10.00" fill="grey"> materials</text>
</g>
<!-- Node8 -->
<g id="Node000008" class="node">
<title>Node8</title>
<g id="a_Node000008"><a xlink:href="structModelObjectData.html" target="_top" xlink:title="Structure representing the data of a 3D model object.">
<polygon fill="white" stroke="#666666" points="267,-220 166,-220 166,-201 267,-201 267,-220"/>
<text text-anchor="middle" x="216.5" y="-208" font-family="Helvetica,sans-Serif" font-size="10.00">ModelObjectData</text>
</a>
</g>
</g>
<!-- Node7&#45;&gt;Node8 -->
<g id="edge11_Node000008_Node000007" class="edge">
<title>Node7&#45;&gt;Node8</title>
<g id="a_edge11_Node000008_Node000007"><a xlink:title=" ">
<path fill="none" stroke="#9a32cd" stroke-dasharray="5,2" d="M147.89,-260.83C165.35,-248.28 189.89,-230.63 204.4,-220.2"/>
<polygon fill="#9a32cd" stroke="#9a32cd" points="145.58,-258.19 139.5,-266.87 149.67,-263.87 145.58,-258.19"/>
</a>
</g>
<text text-anchor="middle" x="202.5" y="-241" font-family="Helvetica,sans-Serif" font-size="10.00" fill="grey"> materials</text>
</g>
<!-- Node8&#45;&gt;Node6 -->
<g id="edge10_Node000006_Node000008" class="edge">
<title>Node8&#45;&gt;Node6</title>
<g id="a_edge10_Node000006_Node000008"><a xlink:title=" ">
<path fill="none" stroke="#9a32cd" stroke-dasharray="5,2" d="M216.5,-190.68C216.5,-178.21 216.5,-162.42 216.5,-152.77"/>
<polygon fill="#9a32cd" stroke="#9a32cd" points="213,-190.94 216.5,-200.94 220,-190.94 213,-190.94"/>
</a>
</g>
<text text-anchor="middle" x="236" y="-175" font-family="Helvetica,sans-Serif" font-size="10.00" fill="grey"> objects</text>
</g>
<!-- Node9 -->
<g id="Node000009" class="node">
<title>Node9</title>
<g id="a_Node000009"><a xlink:href="structModelAnimation.html" target="_top" xlink:title="Structure representing the data of a 3D model animation.">
<polygon fill="white" stroke="#666666" points="382,-220 285,-220 285,-201 382,-201 382,-220"/>
<text text-anchor="middle" x="333.5" y="-208" font-family="Helvetica,sans-Serif" font-size="10.00">ModelAnimation</text>
</a>
</g>
</g>
<!-- Node9&#45;&gt;Node6 -->
<g id="edge12_Node000006_Node000009" class="edge">
<title>Node9&#45;&gt;Node6</title>
<g id="a_edge12_Node000006_Node000009"><a xlink:title=" ">
<path fill="none" stroke="#9a32cd" stroke-dasharray="5,2" d="M309.28,-195.94C286,-182.91 251.51,-163.6 231.8,-152.57"/>
<polygon fill="#9a32cd" stroke="#9a32cd" points="307.77,-199.11 318.2,-200.94 311.19,-193 307.77,-199.11"/>
</a>
</g>
<text text-anchor="middle" x="314.5" y="-175" font-family="Helvetica,sans-Serif" font-size="10.00" fill="grey"> animations</text>
</g>
<!-- Node10 -->
<g id="Node000010" class="node">
<title>Node10</title>
<g id="a_Node000010"><a xlink:href="structBone.html" target="_top" xlink:title="Structure representing a bone in a 3D model.">
<polygon fill="white" stroke="#666666" points="354,-286 313,-286 313,-267 354,-267 354,-286"/>
<text text-anchor="middle" x="333.5" y="-274" font-family="Helvetica,sans-Serif" font-size="10.00">Bone</text>
</a>
</g>
</g>
<!-- Node10&#45;&gt;Node9 -->
<g id="edge13_Node000009_Node000010" class="edge">
<title>Node10&#45;&gt;Node9</title>
<g id="a_edge13_Node000009_Node000010"><a xlink:title=" ">
<path fill="none" stroke="#9a32cd" stroke-dasharray="5,2" d="M333.5,-256.58C333.5,-244.63 333.5,-229.72 333.5,-220.41"/>
<polygon fill="#9a32cd" stroke="#9a32cd" points="330,-256.87 333.5,-266.87 337,-256.87 330,-256.87"/>
</a>
</g>
<text text-anchor="middle" x="352.5" y="-241" font-family="Helvetica,sans-Serif" font-size="10.00" fill="grey"> targets</text>
</g>
<!-- Node11 -->
<g id="Node000011" class="node">
<title>Node11</title>
<g id="a_Node000011"><a xlink:href="structModelKeyframe.html" target="_top" xlink:title="Structure representing the data of a 3D model keyframe.">
<polygon fill="white" stroke="#666666" points="380.5,-374 286.5,-374 286.5,-355 380.5,-355 380.5,-374"/>
<text text-anchor="middle" x="333.5" y="-362" font-family="Helvetica,sans-Serif" font-size="10.00">ModelKeyframe</text>
</a>
</g>
</g>
<!-- Node11&#45;&gt;Node10 -->
<g id="edge14_Node000010_Node000011" class="edge">
<title>Node11&#45;&gt;Node10</title>
<g id="a_edge14_Node000010_Node000011"><a xlink:title=" ">
<path fill="none" stroke="#9a32cd" stroke-dasharray="5,2" d="M333.5,-344.91C333.5,-326.67 333.5,-299.65 333.5,-286.03"/>
<polygon fill="#9a32cd" stroke="#9a32cd" points="330,-344.94 333.5,-354.94 337,-344.94 330,-344.94"/>
</a>
</g>
<text text-anchor="middle" x="386.5" y="-329" font-family="Helvetica,sans-Serif" font-size="10.00" fill="grey"> rotationKeyframes</text>
<text text-anchor="middle" x="386.5" y="-318" font-family="Helvetica,sans-Serif" font-size="10.00" fill="grey">scaleKeyframes</text>
<text text-anchor="middle" x="386.5" y="-307" font-family="Helvetica,sans-Serif" font-size="10.00" fill="grey">translationKeyframes</text>
</g>
</g>
</svg>
