<?xml version="1.0" encoding="UTF-8" standalone="no"?>
<!DOCTYPE svg PUBLIC "-//W3C//DTD SVG 1.1//EN"
 "http://www.w3.org/Graphics/SVG/1.1/DTD/svg11.dtd">
<!-- Generated by graphviz version 2.43.0 (0)
 -->
<!-- Title: Node Pages: 1 -->
<svg width="428pt" height="767pt"
 viewBox="0.00 0.00 428.00 767.00" xmlns="http://www.w3.org/2000/svg" xmlns:xlink="http://www.w3.org/1999/xlink">
<g id="graph0" class="graph" transform="scale(1 1) rotate(0) translate(4 763)">
<title>Node</title>
<!-- Node1 -->
<g id="Node000001" class="node">
<title>Node1</title>
<g id="a_Node000001"><a xlink:title="Represents a node in the tree structure.">
<polygon fill="#999999" stroke="#666666" points="42,-222 0,-222 0,-203 42,-203 42,-222"/>
<text text-anchor="middle" x="21" y="-210" font-family="Helvetica,sans-Serif" font-size="10.00">Node</text>
</a>
</g>
</g>
<!-- Node2 -->
<g id="Node000002" class="node">
<title>Node2</title>
<g id="a_Node000002"><a xlink:href="classCShape.html" target="_top" xlink:title=" ">
<polygon fill="white" stroke="#666666" points="147,-648 94,-648 94,-629 147,-629 147,-648"/>
<text text-anchor="middle" x="120.5" y="-636" font-family="Helvetica,sans-Serif" font-size="10.00">CShape</text>
</a>
</g>
</g>
<!-- Node1&#45;&gt;Node2 -->
<g id="edge1_Node000001_Node000002" class="edge">
<title>Node1&#45;&gt;Node2</title>
<g id="a_edge1_Node000001_Node000002"><a xlink:title=" ">
<path fill="none" stroke="#63b8ff" d="M26.51,-232.19C43.68,-307.23 104.71,-573.88 117.24,-628.63"/>
<polygon fill="#63b8ff" stroke="#63b8ff" points="29.86,-231.17 24.22,-222.2 23.04,-232.73 29.86,-231.17"/>
</a>
</g>
</g>
<!-- Node9 -->
<g id="Node000009" class="node">
<title>Node9</title>
<g id="a_Node000009"><a xlink:href="classCamera.html" target="_top" xlink:title="A structure to represent a camera with position and rotation in 3D space.">
<polygon fill="white" stroke="#666666" points="148,-444 93,-444 93,-425 148,-425 148,-444"/>
<text text-anchor="middle" x="120.5" y="-432" font-family="Helvetica,sans-Serif" font-size="10.00">Camera</text>
</a>
</g>
</g>
<!-- Node1&#45;&gt;Node9 -->
<g id="edge8_Node000001_Node000009" class="edge">
<title>Node1&#45;&gt;Node9</title>
<g id="a_edge8_Node000001_Node000009"><a xlink:title=" ">
<path fill="none" stroke="#63b8ff" d="M22.02,-232.4C23.12,-272.18 31.01,-362.36 78,-416.5 81.91,-421.01 87.16,-424.43 92.6,-427"/>
<polygon fill="#63b8ff" stroke="#63b8ff" points="25.52,-232.32 21.87,-222.38 18.53,-232.43 25.52,-232.32"/>
</a>
</g>
</g>
<!-- Node10 -->
<g id="Node000010" class="node">
<title>Node10</title>
<g id="a_Node000010"><a xlink:href="classFrame.html" target="_top" xlink:title="Represents a frame.">
<polygon fill="white" stroke="#666666" points="144,-407 97,-407 97,-388 144,-388 144,-407"/>
<text text-anchor="middle" x="120.5" y="-395" font-family="Helvetica,sans-Serif" font-size="10.00">Frame</text>
</a>
</g>
</g>
<!-- Node1&#45;&gt;Node10 -->
<g id="edge9_Node000001_Node000010" class="edge">
<title>Node1&#45;&gt;Node10</title>
<g id="a_edge9_Node000001_Node000010"><a xlink:title=" ">
<path fill="none" stroke="#63b8ff" d="M30.99,-231.24C41.81,-253.61 60.69,-292.07 78,-324.5 90.22,-347.39 105.51,-373.74 113.69,-387.67"/>
<polygon fill="#63b8ff" stroke="#63b8ff" points="34.12,-229.67 26.62,-222.18 27.81,-232.7 34.12,-229.67"/>
</a>
</g>
</g>
<!-- Node20 -->
<g id="Node000020" class="node">
<title>Node20</title>
<g id="a_Node000020"><a xlink:href="classLight.html" target="_top" xlink:title=" ">
<polygon fill="white" stroke="#666666" points="141,-315 100,-315 100,-296 141,-296 141,-315"/>
<text text-anchor="middle" x="120.5" y="-303" font-family="Helvetica,sans-Serif" font-size="10.00">Light</text>
</a>
</g>
</g>
<!-- Node1&#45;&gt;Node20 -->
<g id="edge19_Node000001_Node000020" class="edge">
<title>Node1&#45;&gt;Node20</title>
<g id="a_edge19_Node000001_Node000020"><a xlink:title=" ">
<path fill="none" stroke="#63b8ff" d="M31.96,-230.86C41.78,-247.52 58.19,-271.82 78,-287.5 84.41,-292.57 92.46,-296.49 99.76,-299.36"/>
<polygon fill="#63b8ff" stroke="#63b8ff" points="34.94,-229.02 26.95,-222.05 28.85,-232.47 34.94,-229.02"/>
</a>
</g>
</g>
<!-- Node24 -->
<g id="Node000024" class="node">
<title>Node24</title>
<g id="a_Node000024"><a xlink:href="classMesh.html" target="_top" xlink:title="Structure representing a mesh.">
<polygon fill="white" stroke="#666666" points="142,-278 99,-278 99,-259 142,-259 142,-278"/>
<text text-anchor="middle" x="120.5" y="-266" font-family="Helvetica,sans-Serif" font-size="10.00">Mesh</text>
</a>
</g>
</g>
<!-- Node1&#45;&gt;Node24 -->
<g id="edge23_Node000001_Node000024" class="edge">
<title>Node1&#45;&gt;Node24</title>
<g id="a_edge23_Node000001_Node000024"><a xlink:title=" ">
<path fill="none" stroke="#63b8ff" d="M43.21,-228.27C53.44,-235.51 66.06,-243.93 78,-250.5 84.61,-254.13 92.09,-257.57 98.87,-260.45"/>
<polygon fill="#63b8ff" stroke="#63b8ff" points="45.07,-225.3 34.91,-222.28 40.97,-230.97 45.07,-225.3"/>
</a>
</g>
</g>
<!-- Node25 -->
<g id="Node000025" class="node">
<title>Node25</title>
<g id="a_Node000025"><a xlink:href="classModel.html" target="_top" xlink:title="Structure representing a 3D model.">
<polygon fill="white" stroke="#666666" points="144,-241 97,-241 97,-222 144,-222 144,-241"/>
<text text-anchor="middle" x="120.5" y="-229" font-family="Helvetica,sans-Serif" font-size="10.00">Model</text>
</a>
</g>
</g>
<!-- Node1&#45;&gt;Node25 -->
<g id="edge24_Node000001_Node000025" class="edge">
<title>Node1&#45;&gt;Node25</title>
<g id="a_edge24_Node000001_Node000025"><a xlink:title=" ">
<path fill="none" stroke="#63b8ff" d="M52.18,-218.38C66.63,-221.2 83.63,-224.51 96.94,-227.1"/>
<polygon fill="#63b8ff" stroke="#63b8ff" points="52.69,-214.91 42.2,-216.44 51.35,-221.79 52.69,-214.91"/>
</a>
</g>
</g>
<!-- Node26 -->
<g id="Node000026" class="node">
<title>Node26</title>
<g id="a_Node000026"><a xlink:href="classPhysicalNode.html" target="_top" xlink:title=" ">
<polygon fill="white" stroke="#666666" points="162,-204 79,-204 79,-185 162,-185 162,-204"/>
<text text-anchor="middle" x="120.5" y="-192" font-family="Helvetica,sans-Serif" font-size="10.00">PhysicalNode</text>
</a>
</g>
</g>
<!-- Node1&#45;&gt;Node26 -->
<g id="edge25_Node000001_Node000026" class="edge">
<title>Node1&#45;&gt;Node26</title>
<g id="a_edge25_Node000001_Node000026"><a xlink:title=" ">
<path fill="none" stroke="#63b8ff" d="M52.28,-206.91C60.68,-205.36 69.93,-203.65 78.81,-202.01"/>
<polygon fill="#63b8ff" stroke="#63b8ff" points="51.4,-203.51 42.2,-208.77 52.67,-210.4 51.4,-203.51"/>
</a>
</g>
</g>
<!-- Node32 -->
<g id="Node000032" class="node">
<title>Node32</title>
<g id="a_Node000032"><a xlink:href="classRenderTarget.html" target="_top" xlink:title="A structure to handle render targets.">
<polygon fill="white" stroke="#666666" points="161,-167 80,-167 80,-148 161,-148 161,-167"/>
<text text-anchor="middle" x="120.5" y="-155" font-family="Helvetica,sans-Serif" font-size="10.00">RenderTarget</text>
</a>
</g>
</g>
<!-- Node1&#45;&gt;Node32 -->
<g id="edge31_Node000001_Node000032" class="edge">
<title>Node1&#45;&gt;Node32</title>
<g id="a_edge31_Node000001_Node000032"><a xlink:title=" ">
<path fill="none" stroke="#63b8ff" d="M44.5,-197C54.55,-190.35 66.66,-182.7 78,-176.5 83.98,-173.23 90.62,-170.01 96.81,-167.18"/>
<polygon fill="#63b8ff" stroke="#63b8ff" points="42.28,-194.27 35.93,-202.76 46.18,-200.08 42.28,-194.27"/>
</a>
</g>
</g>
<!-- Node33 -->
<g id="Node000033" class="node">
<title>Node33</title>
<g id="a_Node000033"><a xlink:href="classScene.html" target="_top" xlink:title=" ">
<polygon fill="white" stroke="#666666" points="143.5,-130 97.5,-130 97.5,-111 143.5,-111 143.5,-130"/>
<text text-anchor="middle" x="120.5" y="-118" font-family="Helvetica,sans-Serif" font-size="10.00">Scene</text>
</a>
</g>
</g>
<!-- Node1&#45;&gt;Node33 -->
<g id="edge32_Node000001_Node000033" class="edge">
<title>Node1&#45;&gt;Node33</title>
<g id="a_edge32_Node000001_Node000033"><a xlink:title=" ">
<path fill="none" stroke="#63b8ff" d="M32.74,-193.76C42.75,-177.64 58.97,-154.67 78,-139.5 83.7,-134.96 90.66,-131.22 97.25,-128.31"/>
<polygon fill="#63b8ff" stroke="#63b8ff" points="29.48,-192.39 27.34,-202.77 35.48,-195.99 29.48,-192.39"/>
</a>
</g>
</g>
<!-- Node34 -->
<g id="Node000034" class="node">
<title>Node34</title>
<g id="a_Node000034"><a xlink:href="classSkybox.html" target="_top" xlink:title=" ">
<polygon fill="white" stroke="#666666" points="146.5,-93 94.5,-93 94.5,-74 146.5,-74 146.5,-93"/>
<text text-anchor="middle" x="120.5" y="-81" font-family="Helvetica,sans-Serif" font-size="10.00">Skybox</text>
</a>
</g>
</g>
<!-- Node1&#45;&gt;Node34 -->
<g id="edge33_Node000001_Node000034" class="edge">
<title>Node1&#45;&gt;Node34</title>
<g id="a_edge33_Node000001_Node000034"><a xlink:title=" ">
<path fill="none" stroke="#63b8ff" d="M27.33,-192.96C34.89,-168.6 50.91,-127.06 78,-101.5 82.57,-97.19 88.34,-93.81 94.1,-91.21"/>
<polygon fill="#63b8ff" stroke="#63b8ff" points="23.9,-192.25 24.45,-202.83 30.62,-194.21 23.9,-192.25"/>
</a>
</g>
</g>
<!-- Node35 -->
<g id="Node000035" class="node">
<title>Node35</title>
<g id="a_Node000035"><a xlink:href="classTexture.html" target="_top" xlink:title=" ">
<polygon fill="white" stroke="#666666" points="147,-56 94,-56 94,-37 147,-37 147,-56"/>
<text text-anchor="middle" x="120.5" y="-44" font-family="Helvetica,sans-Serif" font-size="10.00">Texture</text>
</a>
</g>
</g>
<!-- Node1&#45;&gt;Node35 -->
<g id="edge34_Node000001_Node000035" class="edge">
<title>Node1&#45;&gt;Node35</title>
<g id="a_edge34_Node000001_Node000035"><a xlink:title=" ">
<path fill="none" stroke="#63b8ff" d="M24.49,-192.83C29.39,-161.77 43.05,-101.15 78,-64.5 82.34,-59.95 88.01,-56.49 93.77,-53.88"/>
<polygon fill="#63b8ff" stroke="#63b8ff" points="21.01,-192.44 23.06,-202.83 27.94,-193.43 21.01,-192.44"/>
</a>
</g>
</g>
<!-- Node36 -->
<g id="Node000036" class="node">
<title>Node36</title>
<g id="a_Node000036"><a xlink:href="classTexturedMesh.html" target="_top" xlink:title="Structure representing a textured mesh.">
<polygon fill="white" stroke="#666666" points="163,-19 78,-19 78,0 163,0 163,-19"/>
<text text-anchor="middle" x="120.5" y="-7" font-family="Helvetica,sans-Serif" font-size="10.00">TexturedMesh</text>
</a>
</g>
</g>
<!-- Node1&#45;&gt;Node36 -->
<g id="edge35_Node000001_Node000036" class="edge">
<title>Node1&#45;&gt;Node36</title>
<g id="a_edge35_Node000001_Node000036"><a xlink:title=" ">
<path fill="none" stroke="#63b8ff" d="M22.71,-192.69C25.06,-155.72 35.11,-75.64 78,-27.5 81.03,-24.1 84.82,-21.31 88.86,-19.04"/>
<polygon fill="#63b8ff" stroke="#63b8ff" points="19.21,-192.53 22.2,-202.69 26.2,-192.88 19.21,-192.53"/>
</a>
</g>
</g>
<!-- Node3 -->
<g id="Node000003" class="node">
<title>Node3</title>
<g id="a_Node000003"><a xlink:href="classBoxCShape.html" target="_top" xlink:title=" ">
<polygon fill="white" stroke="#666666" points="282,-759 210,-759 210,-740 282,-740 282,-759"/>
<text text-anchor="middle" x="246" y="-747" font-family="Helvetica,sans-Serif" font-size="10.00">BoxCShape</text>
</a>
</g>
</g>
<!-- Node2&#45;&gt;Node3 -->
<g id="edge2_Node000002_Node000003" class="edge">
<title>Node2&#45;&gt;Node3</title>
<g id="a_edge2_Node000002_Node000003"><a xlink:title=" ">
<path fill="none" stroke="#63b8ff" d="M132.47,-656.51C145.86,-677.16 170.32,-710.83 199,-731.5 203.59,-734.81 208.87,-737.61 214.18,-739.94"/>
<polygon fill="#63b8ff" stroke="#63b8ff" points="135.41,-654.62 127.12,-648.03 129.49,-658.35 135.41,-654.62"/>
</a>
</g>
</g>
<!-- Node4 -->
<g id="Node000004" class="node">
<title>Node4</title>
<g id="a_Node000004"><a xlink:href="classCapsuleCShape.html" target="_top" xlink:title=" ">
<polygon fill="white" stroke="#666666" points="292,-722 200,-722 200,-703 292,-703 292,-722"/>
<text text-anchor="middle" x="246" y="-710" font-family="Helvetica,sans-Serif" font-size="10.00">CapsuleCShape</text>
</a>
</g>
</g>
<!-- Node2&#45;&gt;Node4 -->
<g id="edge3_Node000002_Node000004" class="edge">
<title>Node2&#45;&gt;Node4</title>
<g id="a_edge3_Node000002_Node000004"><a xlink:title=" ">
<path fill="none" stroke="#63b8ff" d="M140.78,-654.55C155.93,-666.63 177.93,-683 199,-694.5 204.72,-697.62 211.1,-700.48 217.24,-702.95"/>
<polygon fill="#63b8ff" stroke="#63b8ff" points="142.68,-651.59 132.71,-648.01 138.27,-657.02 142.68,-651.59"/>
</a>
</g>
</g>
<!-- Node5 -->
<g id="Node000005" class="node">
<title>Node5</title>
<g id="a_Node000005"><a xlink:href="classMeshCShape.html" target="_top" xlink:title=" ">
<polygon fill="white" stroke="#666666" points="286,-685 206,-685 206,-666 286,-666 286,-685"/>
<text text-anchor="middle" x="246" y="-673" font-family="Helvetica,sans-Serif" font-size="10.00">MeshCShape</text>
</a>
</g>
</g>
<!-- Node2&#45;&gt;Node5 -->
<g id="edge4_Node000002_Node000005" class="edge">
<title>Node2&#45;&gt;Node5</title>
<g id="a_edge4_Node000002_Node000005"><a xlink:title=" ">
<path fill="none" stroke="#63b8ff" d="M157,-649.13C174.6,-654.41 195.71,-660.73 212.84,-665.87"/>
<polygon fill="#63b8ff" stroke="#63b8ff" points="157.67,-645.68 147.09,-646.17 155.66,-652.39 157.67,-645.68"/>
</a>
</g>
</g>
<!-- Node6 -->
<g id="Node000006" class="node">
<title>Node6</title>
<g id="a_Node000006"><a xlink:href="classPlaneCShape.html" target="_top" xlink:title=" ">
<polygon fill="white" stroke="#666666" points="286,-648 206,-648 206,-629 286,-629 286,-648"/>
<text text-anchor="middle" x="246" y="-636" font-family="Helvetica,sans-Serif" font-size="10.00">PlaneCShape</text>
</a>
</g>
</g>
<!-- Node2&#45;&gt;Node6 -->
<g id="edge5_Node000002_Node000006" class="edge">
<title>Node2&#45;&gt;Node6</title>
<g id="a_edge5_Node000002_Node000006"><a xlink:title=" ">
<path fill="none" stroke="#63b8ff" d="M157.16,-638.5C172.39,-638.5 190.22,-638.5 205.82,-638.5"/>
<polygon fill="#63b8ff" stroke="#63b8ff" points="157.09,-635 147.09,-638.5 157.09,-642 157.09,-635"/>
</a>
</g>
</g>
<!-- Node7 -->
<g id="Node000007" class="node">
<title>Node7</title>
<g id="a_Node000007"><a xlink:href="classRayCShape.html" target="_top" xlink:title=" ">
<polygon fill="white" stroke="#666666" points="282,-611 210,-611 210,-592 282,-592 282,-611"/>
<text text-anchor="middle" x="246" y="-599" font-family="Helvetica,sans-Serif" font-size="10.00">RayCShape</text>
</a>
</g>
</g>
<!-- Node2&#45;&gt;Node7 -->
<g id="edge6_Node000002_Node000007" class="edge">
<title>Node2&#45;&gt;Node7</title>
<g id="a_edge6_Node000002_Node000007"><a xlink:title=" ">
<path fill="none" stroke="#63b8ff" d="M157,-627.87C174.6,-622.59 195.71,-616.27 212.84,-611.13"/>
<polygon fill="#63b8ff" stroke="#63b8ff" points="155.66,-624.61 147.09,-630.83 157.67,-631.32 155.66,-624.61"/>
</a>
</g>
</g>
<!-- Node8 -->
<g id="Node000008" class="node">
<title>Node8</title>
<g id="a_Node000008"><a xlink:href="classSphereCShape.html" target="_top" xlink:title=" ">
<polygon fill="white" stroke="#666666" points="289.5,-574 202.5,-574 202.5,-555 289.5,-555 289.5,-574"/>
<text text-anchor="middle" x="246" y="-562" font-family="Helvetica,sans-Serif" font-size="10.00">SphereCShape</text>
</a>
</g>
</g>
<!-- Node2&#45;&gt;Node8 -->
<g id="edge7_Node000002_Node000008" class="edge">
<title>Node2&#45;&gt;Node8</title>
<g id="a_edge7_Node000002_Node000008"><a xlink:title=" ">
<path fill="none" stroke="#63b8ff" d="M141.41,-622.46C156.6,-610.72 178.35,-594.9 199,-583.5 205.2,-580.08 212.15,-576.9 218.73,-574.15"/>
<polygon fill="#63b8ff" stroke="#63b8ff" points="138.99,-619.92 133.29,-628.85 143.32,-625.42 138.99,-619.92"/>
</a>
</g>
</g>
<!-- Node11 -->
<g id="Node000011" class="node">
<title>Node11</title>
<g id="a_Node000011"><a xlink:href="classButton.html" target="_top" xlink:title="Represents a button.">
<polygon fill="white" stroke="#666666" points="270.5,-537 221.5,-537 221.5,-518 270.5,-518 270.5,-537"/>
<text text-anchor="middle" x="246" y="-525" font-family="Helvetica,sans-Serif" font-size="10.00">Button</text>
</a>
</g>
</g>
<!-- Node10&#45;&gt;Node11 -->
<g id="edge10_Node000010_Node000011" class="edge">
<title>Node10&#45;&gt;Node11</title>
<g id="a_edge10_Node000010_Node000011"><a xlink:title=" ">
<path fill="none" stroke="#63b8ff" d="M153.3,-408.83C156.86,-410.99 160.21,-413.53 163,-416.5 193.39,-448.77 167.72,-478.1 199,-509.5 205.05,-515.58 213.4,-519.65 221.32,-522.36"/>
<polygon fill="#63b8ff" stroke="#63b8ff" points="154.69,-405.61 144.19,-404.18 151.51,-411.84 154.69,-405.61"/>
</a>
</g>
</g>
<!-- Node15 -->
<g id="Node000015" class="node">
<title>Node15</title>
<g id="a_Node000015"><a xlink:href="classControlFrame.html" target="_top" xlink:title=" ">
<polygon fill="white" stroke="#666666" points="287.5,-500 204.5,-500 204.5,-481 287.5,-481 287.5,-500"/>
<text text-anchor="middle" x="246" y="-488" font-family="Helvetica,sans-Serif" font-size="10.00">ControlFrame</text>
</a>
</g>
</g>
<!-- Node10&#45;&gt;Node15 -->
<g id="edge14_Node000010_Node000015" class="edge">
<title>Node10&#45;&gt;Node15</title>
<g id="a_edge14_Node000010_Node000015"><a xlink:title=" ">
<path fill="none" stroke="#63b8ff" d="M153.52,-409.83C156.9,-411.8 160.14,-414.02 163,-416.5 185.35,-435.89 176.11,-453.75 199,-472.5 203.11,-475.87 207.93,-478.66 212.87,-480.96"/>
<polygon fill="#63b8ff" stroke="#63b8ff" points="154.92,-406.62 144.42,-405.21 151.75,-412.86 154.92,-406.62"/>
</a>
</g>
</g>
<!-- Node16 -->
<g id="Node000016" class="node">
<title>Node16</title>
<g id="a_Node000016"><a xlink:href="classImageFrame.html" target="_top" xlink:title="Represents an image frame.">
<polygon fill="white" stroke="#666666" points="285,-463 207,-463 207,-444 285,-444 285,-463"/>
<text text-anchor="middle" x="246" y="-451" font-family="Helvetica,sans-Serif" font-size="10.00">ImageFrame</text>
</a>
</g>
</g>
<!-- Node10&#45;&gt;Node16 -->
<g id="edge15_Node000010_Node000016" class="edge">
<title>Node10&#45;&gt;Node16</title>
<g id="a_edge15_Node000010_Node000016"><a xlink:title=" ">
<path fill="none" stroke="#63b8ff" d="M152.45,-411.44C156.02,-413.12 159.6,-414.83 163,-416.5 179.23,-424.49 182.55,-427.97 199,-435.5 205.39,-438.43 212.41,-441.33 219,-443.91"/>
<polygon fill="#63b8ff" stroke="#63b8ff" points="153.69,-408.16 143.15,-407.13 150.75,-414.51 153.69,-408.16"/>
</a>
</g>
</g>
<!-- Node17 -->
<g id="Node000017" class="node">
<title>Node17</title>
<g id="a_Node000017"><a xlink:href="classInputArea.html" target="_top" xlink:title="Represents an input area.">
<polygon fill="white" stroke="#666666" points="278,-426 214,-426 214,-407 278,-407 278,-426"/>
<text text-anchor="middle" x="246" y="-414" font-family="Helvetica,sans-Serif" font-size="10.00">InputArea</text>
</a>
</g>
</g>
<!-- Node10&#45;&gt;Node17 -->
<g id="edge16_Node000010_Node000017" class="edge">
<title>Node10&#45;&gt;Node17</title>
<g id="a_edge16_Node000010_Node000017"><a xlink:title=" ">
<path fill="none" stroke="#63b8ff" d="M154.14,-402.52C172.55,-405.35 195.45,-408.88 213.66,-411.68"/>
<polygon fill="#63b8ff" stroke="#63b8ff" points="154.57,-399.05 144.15,-400.98 153.5,-405.96 154.57,-399.05"/>
</a>
</g>
</g>
<!-- Node18 -->
<g id="Node000018" class="node">
<title>Node18</title>
<g id="a_Node000018"><a xlink:href="classLabel.html" target="_top" xlink:title="Represents a label.">
<polygon fill="white" stroke="#666666" points="267.5,-389 224.5,-389 224.5,-370 267.5,-370 267.5,-389"/>
<text text-anchor="middle" x="246" y="-377" font-family="Helvetica,sans-Serif" font-size="10.00">Label</text>
</a>
</g>
</g>
<!-- Node10&#45;&gt;Node18 -->
<g id="edge17_Node000010_Node000018" class="edge">
<title>Node10&#45;&gt;Node18</title>
<g id="a_edge17_Node000010_Node000018"><a xlink:title=" ">
<path fill="none" stroke="#63b8ff" d="M154.14,-392.74C176.31,-389.51 204.99,-385.33 224.14,-382.54"/>
<polygon fill="#63b8ff" stroke="#63b8ff" points="153.54,-389.29 144.15,-394.2 154.55,-396.22 153.54,-389.29"/>
</a>
</g>
</g>
<!-- Node19 -->
<g id="Node000019" class="node">
<title>Node19</title>
<g id="a_Node000019"><a xlink:href="classSelectList.html" target="_top" xlink:title="Represents a selectable list.">
<polygon fill="white" stroke="#666666" points="278,-352 214,-352 214,-333 278,-333 278,-352"/>
<text text-anchor="middle" x="246" y="-340" font-family="Helvetica,sans-Serif" font-size="10.00">SelectList</text>
</a>
</g>
</g>
<!-- Node10&#45;&gt;Node19 -->
<g id="edge18_Node000010_Node000019" class="edge">
<title>Node10&#45;&gt;Node19</title>
<g id="a_edge18_Node000010_Node000019"><a xlink:title=" ">
<path fill="none" stroke="#63b8ff" d="M150.87,-383.49C165.31,-376.7 182.99,-368.52 199,-361.5 206.12,-358.38 213.92,-355.1 221.04,-352.17"/>
<polygon fill="#63b8ff" stroke="#63b8ff" points="149.01,-380.5 141.46,-387.94 152,-386.83 149.01,-380.5"/>
</a>
</g>
</g>
<!-- Node12 -->
<g id="Node000012" class="node">
<title>Node12</title>
<g id="a_Node000012"><a xlink:href="classCheckBox.html" target="_top" xlink:title=" ">
<polygon fill="white" stroke="#666666" points="407,-574 342,-574 342,-555 407,-555 407,-574"/>
<text text-anchor="middle" x="374.5" y="-562" font-family="Helvetica,sans-Serif" font-size="10.00">CheckBox</text>
</a>
</g>
</g>
<!-- Node11&#45;&gt;Node12 -->
<g id="edge11_Node000011_Node000012" class="edge">
<title>Node11&#45;&gt;Node12</title>
<g id="a_edge11_Node000011_Node000012"><a xlink:title=" ">
<path fill="none" stroke="#63b8ff" d="M280.51,-537.3C299.46,-542.84 323.03,-549.74 341.69,-555.2"/>
<polygon fill="#63b8ff" stroke="#63b8ff" points="281.37,-533.91 270.79,-534.46 279.41,-540.63 281.37,-533.91"/>
</a>
</g>
</g>
<!-- Node13 -->
<g id="Node000013" class="node">
<title>Node13</title>
<g id="a_Node000013"><a xlink:href="classRadioButton.html" target="_top" xlink:title="Represents a radio button.">
<polygon fill="white" stroke="#666666" points="413,-537 336,-537 336,-518 413,-518 413,-537"/>
<text text-anchor="middle" x="374.5" y="-525" font-family="Helvetica,sans-Serif" font-size="10.00">RadioButton</text>
</a>
</g>
</g>
<!-- Node11&#45;&gt;Node13 -->
<g id="edge12_Node000011_Node000013" class="edge">
<title>Node11&#45;&gt;Node13</title>
<g id="a_edge12_Node000011_Node000013"><a xlink:title=" ">
<path fill="none" stroke="#63b8ff" d="M280.83,-527.5C297.81,-527.5 318.42,-527.5 335.89,-527.5"/>
<polygon fill="#63b8ff" stroke="#63b8ff" points="280.79,-524 270.79,-527.5 280.79,-531 280.79,-524"/>
</a>
</g>
</g>
<!-- Node14 -->
<g id="Node000014" class="node">
<title>Node14</title>
<g id="a_Node000014"><a xlink:href="classSlider.html" target="_top" xlink:title=" ">
<polygon fill="white" stroke="#666666" points="396.5,-500 352.5,-500 352.5,-481 396.5,-481 396.5,-500"/>
<text text-anchor="middle" x="374.5" y="-488" font-family="Helvetica,sans-Serif" font-size="10.00">Slider</text>
</a>
</g>
</g>
<!-- Node11&#45;&gt;Node14 -->
<g id="edge13_Node000011_Node000014" class="edge">
<title>Node11&#45;&gt;Node14</title>
<g id="a_edge13_Node000011_Node000014"><a xlink:title=" ">
<path fill="none" stroke="#63b8ff" d="M280.42,-517.72C303.22,-511.06 332.72,-502.43 352.34,-496.69"/>
<polygon fill="#63b8ff" stroke="#63b8ff" points="279.41,-514.37 270.79,-520.54 281.37,-521.09 279.41,-514.37"/>
</a>
</g>
</g>
<!-- Node21 -->
<g id="Node000021" class="node">
<title>Node21</title>
<g id="a_Node000021"><a xlink:href="classDirectionalLight.html" target="_top" xlink:title="Represents a directional light source.">
<polygon fill="white" stroke="#666666" points="293,-315 199,-315 199,-296 293,-296 293,-315"/>
<text text-anchor="middle" x="246" y="-303" font-family="Helvetica,sans-Serif" font-size="10.00">DirectionalLight</text>
</a>
</g>
</g>
<!-- Node20&#45;&gt;Node21 -->
<g id="edge20_Node000020_Node000021" class="edge">
<title>Node20&#45;&gt;Node21</title>
<g id="a_edge20_Node000020_Node000021"><a xlink:title=" ">
<path fill="none" stroke="#63b8ff" d="M151.28,-305.5C165.54,-305.5 182.94,-305.5 198.86,-305.5"/>
<polygon fill="#63b8ff" stroke="#63b8ff" points="151.07,-302 141.07,-305.5 151.07,-309 151.07,-302"/>
</a>
</g>
</g>
<!-- Node22 -->
<g id="Node000022" class="node">
<title>Node22</title>
<g id="a_Node000022"><a xlink:href="classPointLight.html" target="_top" xlink:title="Represents a point light source.">
<polygon fill="white" stroke="#666666" points="278.5,-278 213.5,-278 213.5,-259 278.5,-259 278.5,-278"/>
<text text-anchor="middle" x="246" y="-266" font-family="Helvetica,sans-Serif" font-size="10.00">PointLight</text>
</a>
</g>
</g>
<!-- Node20&#45;&gt;Node22 -->
<g id="edge21_Node000020_Node000022" class="edge">
<title>Node20&#45;&gt;Node22</title>
<g id="a_edge21_Node000020_Node000022"><a xlink:title=" ">
<path fill="none" stroke="#63b8ff" d="M150.9,-296.69C169.76,-291.04 194.24,-283.71 213.5,-277.94"/>
<polygon fill="#63b8ff" stroke="#63b8ff" points="149.64,-293.41 141.07,-299.64 151.65,-300.12 149.64,-293.41"/>
</a>
</g>
</g>
<!-- Node23 -->
<g id="Node000023" class="node">
<title>Node23</title>
<g id="a_Node000023"><a xlink:href="classSpotLight.html" target="_top" xlink:title="Represents a spotlight source.">
<polygon fill="white" stroke="#666666" points="277,-241 215,-241 215,-222 277,-222 277,-241"/>
<text text-anchor="middle" x="246" y="-229" font-family="Helvetica,sans-Serif" font-size="10.00">SpotLight</text>
</a>
</g>
</g>
<!-- Node20&#45;&gt;Node23 -->
<g id="edge22_Node000020_Node000023" class="edge">
<title>Node20&#45;&gt;Node23</title>
<g id="a_edge22_Node000020_Node000023"><a xlink:title=" ">
<path fill="none" stroke="#63b8ff" d="M150.64,-294.6C154.93,-292.5 159.19,-290.13 163,-287.5 181.88,-274.47 180,-263.37 199,-250.5 204.44,-246.82 210.7,-243.65 216.82,-241.01"/>
<polygon fill="#63b8ff" stroke="#63b8ff" points="149.05,-291.48 141.33,-298.74 151.89,-297.87 149.05,-291.48"/>
</a>
</g>
</g>
<!-- Node27 -->
<g id="Node000027" class="node">
<title>Node27</title>
<g id="a_Node000027"><a xlink:href="classArea.html" target="_top" xlink:title="Represents an area with collision shapes and nodes.">
<polygon fill="white" stroke="#666666" points="265.5,-204 226.5,-204 226.5,-185 265.5,-185 265.5,-204"/>
<text text-anchor="middle" x="246" y="-192" font-family="Helvetica,sans-Serif" font-size="10.00">Area</text>
</a>
</g>
</g>
<!-- Node26&#45;&gt;Node27 -->
<g id="edge26_Node000026_Node000027" class="edge">
<title>Node26&#45;&gt;Node27</title>
<g id="a_edge26_Node000026_Node000027"><a xlink:title=" ">
<path fill="none" stroke="#63b8ff" d="M172.4,-194.5C191.5,-194.5 212.04,-194.5 226.37,-194.5"/>
<polygon fill="#63b8ff" stroke="#63b8ff" points="172.28,-191 162.28,-194.5 172.28,-198 172.28,-191"/>
</a>
</g>
</g>
<!-- Node28 -->
<g id="Node000028" class="node">
<title>Node28</title>
<g id="a_Node000028"><a xlink:href="classBody.html" target="_top" xlink:title=" ">
<polygon fill="white" stroke="#666666" points="266.5,-167 225.5,-167 225.5,-148 266.5,-148 266.5,-167"/>
<text text-anchor="middle" x="246" y="-155" font-family="Helvetica,sans-Serif" font-size="10.00">Body</text>
</a>
</g>
</g>
<!-- Node26&#45;&gt;Node28 -->
<g id="edge27_Node000026_Node000028" class="edge">
<title>Node26&#45;&gt;Node28</title>
<g id="a_edge27_Node000026_Node000028"><a xlink:title=" ">
<path fill="none" stroke="#63b8ff" d="M162.98,-182.07C184,-175.77 208.55,-168.42 225.27,-163.41"/>
<polygon fill="#63b8ff" stroke="#63b8ff" points="161.88,-178.75 153.3,-184.97 163.89,-185.45 161.88,-178.75"/>
</a>
</g>
</g>
<!-- Node29 -->
<g id="Node000029" class="node">
<title>Node29</title>
<g id="a_Node000029"><a xlink:href="classKinematicBody.html" target="_top" xlink:title="Represents a kinematic body in the physics simulation.">
<polygon fill="white" stroke="#666666" points="420,-204 329,-204 329,-185 420,-185 420,-204"/>
<text text-anchor="middle" x="374.5" y="-192" font-family="Helvetica,sans-Serif" font-size="10.00">KinematicBody</text>
</a>
</g>
</g>
<!-- Node28&#45;&gt;Node29 -->
<g id="edge28_Node000028_Node000029" class="edge">
<title>Node28&#45;&gt;Node29</title>
<g id="a_edge28_Node000028_Node000029"><a xlink:title=" ">
<path fill="none" stroke="#63b8ff" d="M276.48,-166.12C295.68,-171.74 320.75,-179.07 340.59,-184.88"/>
<polygon fill="#63b8ff" stroke="#63b8ff" points="277.35,-162.73 266.77,-163.28 275.38,-169.45 277.35,-162.73"/>
</a>
</g>
</g>
<!-- Node30 -->
<g id="Node000030" class="node">
<title>Node30</title>
<g id="a_Node000030"><a xlink:href="classRigidBody.html" target="_top" xlink:title="Represents a rigid body in the physics simulation.">
<polygon fill="white" stroke="#666666" points="407.5,-167 341.5,-167 341.5,-148 407.5,-148 407.5,-167"/>
<text text-anchor="middle" x="374.5" y="-155" font-family="Helvetica,sans-Serif" font-size="10.00">RigidBody</text>
</a>
</g>
</g>
<!-- Node28&#45;&gt;Node30 -->
<g id="edge29_Node000028_Node000030" class="edge">
<title>Node28&#45;&gt;Node30</title>
<g id="a_edge29_Node000028_Node000030"><a xlink:title=" ">
<path fill="none" stroke="#63b8ff" d="M276.82,-157.5C296.14,-157.5 321.28,-157.5 341.09,-157.5"/>
<polygon fill="#63b8ff" stroke="#63b8ff" points="276.77,-154 266.77,-157.5 276.77,-161 276.77,-154"/>
</a>
</g>
</g>
<!-- Node31 -->
<g id="Node000031" class="node">
<title>Node31</title>
<g id="a_Node000031"><a xlink:href="classStaticBody.html" target="_top" xlink:title="Represents a static body in the physics simulation.">
<polygon fill="white" stroke="#666666" points="409,-130 340,-130 340,-111 409,-111 409,-130"/>
<text text-anchor="middle" x="374.5" y="-118" font-family="Helvetica,sans-Serif" font-size="10.00">StaticBody</text>
</a>
</g>
</g>
<!-- Node28&#45;&gt;Node31 -->
<g id="edge30_Node000028_Node000031" class="edge">
<title>Node28&#45;&gt;Node31</title>
<g id="a_edge30_Node000028_Node000031"><a xlink:title=" ">
<path fill="none" stroke="#63b8ff" d="M276.48,-148.88C295.68,-143.26 320.75,-135.93 340.59,-130.12"/>
<polygon fill="#63b8ff" stroke="#63b8ff" points="275.38,-145.55 266.77,-151.72 277.35,-152.27 275.38,-145.55"/>
</a>
</g>
</g>
</g>
</svg>
