<?xml version="1.0" encoding="UTF-8" standalone="no"?>
<!DOCTYPE svg PUBLIC "-//W3C//DTD SVG 1.1//EN"
 "http://www.w3.org/Graphics/SVG/1.1/DTD/svg11.dtd">
<!-- Generated by graphviz version 2.43.0 (0)
 -->
<!-- Title: KinematicBody Pages: 1 -->
<svg width="277pt" height="218pt"
 viewBox="0.00 0.00 277.00 218.00" xmlns="http://www.w3.org/2000/svg" xmlns:xlink="http://www.w3.org/1999/xlink">
<g id="graph0" class="graph" transform="scale(1 1) rotate(0) translate(4 214)">
<title>KinematicBody</title>
<!-- Node1 -->
<g id="Node000001" class="node">
<title>Node1</title>
<g id="a_Node000001"><a xlink:title="Represents a kinematic body in the physics simulation.">
<polygon fill="#999999" stroke="#666666" points="91,-19 0,-19 0,0 91,0 91,-19"/>
<text text-anchor="middle" x="45.5" y="-7" font-family="Helvetica,sans-Serif" font-size="10.00">KinematicBody</text>
</a>
</g>
</g>
<!-- Node2 -->
<g id="Node000002" class="node">
<title>Node2</title>
<g id="a_Node000002"><a xlink:href="classBody.html" target="_top" xlink:title=" ">
<polygon fill="white" stroke="#666666" points="116,-75 75,-75 75,-56 116,-56 116,-75"/>
<text text-anchor="middle" x="95.5" y="-63" font-family="Helvetica,sans-Serif" font-size="10.00">Body</text>
</a>
</g>
</g>
<!-- Node2&#45;&gt;Node1 -->
<g id="edge1_Node000001_Node000002" class="edge">
<title>Node2&#45;&gt;Node1</title>
<g id="a_edge1_Node000001_Node000002"><a xlink:title=" ">
<path fill="none" stroke="#63b8ff" d="M80.42,-48.22C71.61,-38.7 60.83,-27.06 53.6,-19.25"/>
<polygon fill="#63b8ff" stroke="#63b8ff" points="77.88,-50.62 87.24,-55.58 83.02,-45.87 77.88,-50.62"/>
</a>
</g>
</g>
<!-- Node3 -->
<g id="Node000003" class="node">
<title>Node3</title>
<g id="a_Node000003"><a xlink:href="classPhysicalNode.html" target="_top" xlink:title=" ">
<polygon fill="white" stroke="#666666" points="148,-141 65,-141 65,-122 148,-122 148,-141"/>
<text text-anchor="middle" x="106.5" y="-129" font-family="Helvetica,sans-Serif" font-size="10.00">PhysicalNode</text>
</a>
</g>
</g>
<!-- Node3&#45;&gt;Node2 -->
<g id="edge2_Node000002_Node000003" class="edge">
<title>Node3&#45;&gt;Node2</title>
<g id="a_edge2_Node000002_Node000003"><a xlink:title=" ">
<path fill="none" stroke="#63b8ff" d="M108.76,-111.38C108.99,-105.44 108.77,-98.9 107.5,-93 106.14,-86.68 103.14,-80.06 100.48,-75.01"/>
<polygon fill="#63b8ff" stroke="#63b8ff" points="105.24,-111.5 107.9,-121.75 112.21,-112.08 105.24,-111.5"/>
</a>
</g>
</g>
<!-- Node4 -->
<g id="Node000004" class="node">
<title>Node4</title>
<g id="a_Node000004"><a xlink:href="classNode.html" target="_top" xlink:title="Represents a node in the tree structure.">
<polygon fill="white" stroke="#666666" points="146.5,-208.5 104.5,-208.5 104.5,-189.5 146.5,-189.5 146.5,-208.5"/>
<text text-anchor="middle" x="125.5" y="-196.5" font-family="Helvetica,sans-Serif" font-size="10.00">Node</text>
</a>
</g>
</g>
<!-- Node4&#45;&gt;Node1 -->
<g id="edge7_Node000001_Node000004" class="edge">
<title>Node4&#45;&gt;Node1</title>
<g id="a_edge7_Node000001_Node000004"><a xlink:title=" ">
<path fill="none" stroke="#9a32cd" stroke-dasharray="5,2" d="M99.41,-184.48C72.99,-169.1 33.91,-141.19 18.5,-104 6.02,-73.87 27.7,-36.03 39.13,-19.23"/>
<polygon fill="#9a32cd" stroke="#9a32cd" points="97.73,-187.56 108.16,-189.4 101.16,-181.45 97.73,-187.56"/>
</a>
</g>
<text text-anchor="middle" x="61" y="-96" font-family="Helvetica,sans-Serif" font-size="10.00" fill="grey"> collisionsShapes</text>
</g>
<!-- Node4&#45;&gt;Node3 -->
<g id="edge3_Node000003_Node000004" class="edge">
<title>Node4&#45;&gt;Node3</title>
<g id="a_edge3_Node000003_Node000004"><a xlink:title=" ">
<path fill="none" stroke="#63b8ff" d="M120.15,-179.57C116.52,-167.03 111.87,-151.02 109.05,-141.27"/>
<polygon fill="#63b8ff" stroke="#63b8ff" points="116.87,-180.81 123.02,-189.44 123.59,-178.86 116.87,-180.81"/>
</a>
</g>
</g>
<!-- Node4&#45;&gt;Node4 -->
<g id="edge4_Node000004_Node000004" class="edge">
<title>Node4&#45;&gt;Node4</title>
<g id="a_edge4_Node000004_Node000004"><a xlink:title=" ">
<path fill="none" stroke="#9a32cd" stroke-dasharray="5,2" d="M156.91,-204.74C161.45,-203.83 164.5,-201.91 164.5,-199 164.5,-194.22 156.27,-192.13 146.76,-192.72"/>
<polygon fill="#9a32cd" stroke="#9a32cd" points="156.56,-201.26 146.76,-205.28 156.93,-208.25 156.56,-201.26"/>
</a>
</g>
<text text-anchor="middle" x="186" y="-202" font-family="Helvetica,sans-Serif" font-size="10.00" fill="grey"> children</text>
<text text-anchor="middle" x="186" y="-191" font-family="Helvetica,sans-Serif" font-size="10.00" fill="grey">parent</text>
</g>
<!-- Node5 -->
<g id="Node000005" class="node">
<title>Node5</title>
<g id="a_Node000005"><a xlink:href="unionBehaviorAttribute.html" target="_top" xlink:title=" ">
<polygon fill="white" stroke="#666666" points="269,-141 166,-141 166,-122 269,-122 269,-141"/>
<text text-anchor="middle" x="217.5" y="-129" font-family="Helvetica,sans-Serif" font-size="10.00">BehaviorAttribute</text>
</a>
</g>
</g>
<!-- Node4&#45;&gt;Node5 -->
<g id="edge6_Node000005_Node000004" class="edge">
<title>Node4&#45;&gt;Node5</title>
<g id="a_edge6_Node000005_Node000004"><a xlink:title=" ">
<path fill="none" stroke="#9a32cd" stroke-dasharray="5,2" d="M136.05,-180.53C141.19,-173.13 147.91,-164.89 155.5,-159 165.49,-151.25 178.09,-145.33 189.31,-141.06"/>
<polygon fill="#9a32cd" stroke="#9a32cd" points="132.94,-178.9 130.44,-189.19 138.81,-182.7 132.94,-178.9"/>
</a>
</g>
<text text-anchor="middle" x="169.5" y="-162" font-family="Helvetica,sans-Serif" font-size="10.00" fill="grey"> node</text>
</g>
<!-- Node5&#45;&gt;Node4 -->
<g id="edge5_Node000004_Node000005" class="edge">
<title>Node5&#45;&gt;Node4</title>
<g id="a_edge5_Node000004_Node000005"><a xlink:title=" ">
<path fill="none" stroke="#9a32cd" stroke-dasharray="5,2" d="M206.58,-149.48C201.43,-156.51 194.82,-164.32 187.5,-170 175.28,-179.49 159.33,-186.6 146.67,-191.28"/>
<polygon fill="#9a32cd" stroke="#9a32cd" points="209.47,-151.45 212.25,-141.23 203.7,-147.49 209.47,-151.45"/>
</a>
</g>
<text text-anchor="middle" x="221.5" y="-162" font-family="Helvetica,sans-Serif" font-size="10.00" fill="grey"> attribute</text>
</g>
</g>
</svg>
