<?xml version="1.0" encoding="UTF-8" standalone="no"?>
<!DOCTYPE svg PUBLIC "-//W3C//DTD SVG 1.1//EN"
 "http://www.w3.org/Graphics/SVG/1.1/DTD/svg11.dtd">
<!-- Generated by graphviz version 2.43.0 (0)
 -->
<!-- Title: PhysicalNode Pages: 1 -->
<svg width="212pt" height="96pt"
 viewBox="0.00 0.00 212.00 96.00" xmlns="http://www.w3.org/2000/svg" xmlns:xlink="http://www.w3.org/1999/xlink">
<g id="graph0" class="graph" transform="scale(1 1) rotate(0) translate(4 92)">
<title>PhysicalNode</title>
<!-- Node1 -->
<g id="Node000001" class="node">
<title>Node1</title>
<g id="a_Node000001"><a xlink:title=" ">
<polygon fill="#999999" stroke="#666666" points="83,-19 0,-19 0,0 83,0 83,-19"/>
<text text-anchor="middle" x="41.5" y="-7" font-family="Helvetica,sans-Serif" font-size="10.00">PhysicalNode</text>
</a>
</g>
</g>
<!-- Node2 -->
<g id="Node000002" class="node">
<title>Node2</title>
<g id="a_Node000002"><a xlink:href="classNode.html" target="_top" xlink:title="Represents a node in the tree structure.">
<polygon fill="white" stroke="#666666" points="122.5,-86.5 80.5,-86.5 80.5,-67.5 122.5,-67.5 122.5,-86.5"/>
<text text-anchor="middle" x="101.5" y="-74.5" font-family="Helvetica,sans-Serif" font-size="10.00">Node</text>
</a>
</g>
</g>
<!-- Node2&#45;&gt;Node1 -->
<g id="edge1_Node000001_Node000002" class="edge">
<title>Node2&#45;&gt;Node1</title>
<g id="a_edge1_Node000001_Node000002"><a xlink:title=" ">
<path fill="none" stroke="#63b8ff" d="M86.66,-59.8C74.93,-47 59.01,-29.61 49.54,-19.27"/>
<polygon fill="#63b8ff" stroke="#63b8ff" points="84.32,-62.43 93.66,-67.44 89.48,-57.7 84.32,-62.43"/>
</a>
</g>
</g>
<!-- Node2&#45;&gt;Node2 -->
<g id="edge2_Node000002_Node000002" class="edge">
<title>Node2&#45;&gt;Node2</title>
<g id="a_edge2_Node000002_Node000002"><a xlink:title=" ">
<path fill="none" stroke="#9a32cd" stroke-dasharray="5,2" d="M132.91,-82.74C137.45,-81.83 140.5,-79.91 140.5,-77 140.5,-72.22 132.27,-70.13 122.76,-70.72"/>
<polygon fill="#9a32cd" stroke="#9a32cd" points="132.56,-79.26 122.76,-83.28 132.93,-86.25 132.56,-79.26"/>
</a>
</g>
<text text-anchor="middle" x="162" y="-80" font-family="Helvetica,sans-Serif" font-size="10.00" fill="grey"> children</text>
<text text-anchor="middle" x="162" y="-69" font-family="Helvetica,sans-Serif" font-size="10.00" fill="grey">parent</text>
</g>
<!-- Node3 -->
<g id="Node000003" class="node">
<title>Node3</title>
<g id="a_Node000003"><a xlink:href="unionBehaviorAttribute.html" target="_top" xlink:title=" ">
<polygon fill="white" stroke="#666666" points="204,-19 101,-19 101,0 204,0 204,-19"/>
<text text-anchor="middle" x="152.5" y="-7" font-family="Helvetica,sans-Serif" font-size="10.00">BehaviorAttribute</text>
</a>
</g>
</g>
<!-- Node2&#45;&gt;Node3 -->
<g id="edge4_Node000003_Node000002" class="edge">
<title>Node2&#45;&gt;Node3</title>
<g id="a_edge4_Node000003_Node000002"><a xlink:title=" ">
<path fill="none" stroke="#9a32cd" stroke-dasharray="5,2" d="M95.62,-57.36C94.56,-50.51 94.78,-42.98 98.5,-37 103.64,-28.76 112.17,-23.01 120.95,-19.02"/>
<polygon fill="#9a32cd" stroke="#9a32cd" points="92.26,-58.34 98.02,-67.23 99.06,-56.69 92.26,-58.34"/>
</a>
</g>
<text text-anchor="middle" x="112.5" y="-40" font-family="Helvetica,sans-Serif" font-size="10.00" fill="grey"> node</text>
</g>
<!-- Node3&#45;&gt;Node2 -->
<g id="edge3_Node000002_Node000003" class="edge">
<title>Node3&#45;&gt;Node2</title>
<g id="a_edge3_Node000002_Node000003"><a xlink:title=" ">
<path fill="none" stroke="#9a32cd" stroke-dasharray="5,2" d="M143.26,-28.49C139.64,-34.9 135.22,-42.01 130.5,-48 124.96,-55.04 117.71,-62.04 111.85,-67.28"/>
<polygon fill="#9a32cd" stroke="#9a32cd" points="146.57,-29.73 148.23,-19.27 140.41,-26.41 146.57,-29.73"/>
</a>
</g>
<text text-anchor="middle" x="160.5" y="-40" font-family="Helvetica,sans-Serif" font-size="10.00" fill="grey"> attribute</text>
</g>
</g>
</svg>
