<?xml version="1.0" encoding="UTF-8" standalone="no"?>
<!DOCTYPE svg PUBLIC "-//W3C//DTD SVG 1.1//EN"
 "http://www.w3.org/Graphics/SVG/1.1/DTD/svg11.dtd">
<!-- Generated by graphviz version 2.43.0 (0)
 -->
<!-- Title: ControlFrame Pages: 1 -->
<svg width="732pt" height="218pt"
 viewBox="0.00 0.00 732.00 218.00" xmlns="http://www.w3.org/2000/svg" xmlns:xlink="http://www.w3.org/1999/xlink">
<g id="graph0" class="graph" transform="scale(1 1) rotate(0) translate(4 214)">
<title>ControlFrame</title>
<!-- Node1 -->
<g id="Node000001" class="node">
<title>Node1</title>
<g id="a_Node000001"><a xlink:title=" ">
<polygon fill="#999999" stroke="#666666" points="183.5,-75 100.5,-75 100.5,-56 183.5,-56 183.5,-75"/>
<text text-anchor="middle" x="142" y="-63" font-family="Helvetica,sans-Serif" font-size="10.00">ControlFrame</text>
</a>
</g>
</g>
<!-- Node2 -->
<g id="Node000002" class="node">
<title>Node2</title>
<g id="a_Node000002"><a xlink:href="classFrame.html" target="_top" xlink:title="Represents a frame.">
<polygon fill="white" stroke="#666666" points="368.5,-141 321.5,-141 321.5,-122 368.5,-122 368.5,-141"/>
<text text-anchor="middle" x="345" y="-129" font-family="Helvetica,sans-Serif" font-size="10.00">Frame</text>
</a>
</g>
</g>
<!-- Node2&#45;&gt;Node1 -->
<g id="edge1_Node000001_Node000002" class="edge">
<title>Node2&#45;&gt;Node1</title>
<g id="a_edge1_Node000001_Node000002"><a xlink:title=" ">
<path fill="none" stroke="#63b8ff" d="M311.03,-125.8C285.08,-121.65 248.69,-114.58 218,-104 195.74,-96.33 171.62,-83.6 156.66,-75.13"/>
<polygon fill="#63b8ff" stroke="#63b8ff" points="310.7,-129.29 321.11,-127.36 311.76,-122.38 310.7,-129.29"/>
</a>
</g>
</g>
<!-- Node5 -->
<g id="Node000005" class="node">
<title>Node5</title>
<g id="a_Node000005"><a xlink:href="structTheme.html" target="_top" xlink:title="Represents a theme.">
<polygon fill="white" stroke="#666666" points="82,-75 32,-75 32,-56 82,-56 82,-75"/>
<text text-anchor="middle" x="57" y="-63" font-family="Helvetica,sans-Serif" font-size="10.00">Theme</text>
</a>
</g>
</g>
<!-- Node2&#45;&gt;Node5 -->
<g id="edge8_Node000005_Node000002" class="edge">
<title>Node2&#45;&gt;Node5</title>
<g id="a_edge8_Node000005_Node000002"><a xlink:title=" ">
<path fill="none" stroke="#9a32cd" stroke-dasharray="5,2" d="M311.29,-128.19C272.77,-125.01 208.06,-118 154,-104 125.86,-96.71 94.75,-83.76 75.53,-75.15"/>
<polygon fill="#9a32cd" stroke="#9a32cd" points="311.19,-131.69 321.43,-128.99 311.74,-124.71 311.19,-131.69"/>
</a>
</g>
<text text-anchor="middle" x="171.5" y="-96" font-family="Helvetica,sans-Serif" font-size="10.00" fill="grey"> parent</text>
</g>
<!-- Node7 -->
<g id="Node000007" class="node">
<title>Node7</title>
<g id="a_Node000007"><a xlink:href="classLabel.html" target="_top" xlink:title="Represents a label.">
<polygon fill="white" stroke="#666666" points="244.5,-75 201.5,-75 201.5,-56 244.5,-56 244.5,-75"/>
<text text-anchor="middle" x="223" y="-63" font-family="Helvetica,sans-Serif" font-size="10.00">Label</text>
</a>
</g>
</g>
<!-- Node2&#45;&gt;Node7 -->
<g id="edge10_Node000007_Node000002" class="edge">
<title>Node2&#45;&gt;Node7</title>
<g id="a_edge10_Node000007_Node000002"><a xlink:title=" ">
<path fill="none" stroke="#63b8ff" d="M311.55,-127.31C280.71,-123.63 238.08,-116.43 227,-104 220.03,-96.18 220.21,-83.49 221.32,-75.07"/>
<polygon fill="#63b8ff" stroke="#63b8ff" points="311.17,-130.79 321.5,-128.42 311.95,-123.83 311.17,-130.79"/>
</a>
</g>
</g>
<!-- Node8 -->
<g id="Node000008" class="node">
<title>Node8</title>
<g id="a_Node000008"><a xlink:href="classButton.html" target="_top" xlink:title="Represents a button.">
<polygon fill="white" stroke="#666666" points="668.5,-75 619.5,-75 619.5,-56 668.5,-56 668.5,-75"/>
<text text-anchor="middle" x="644" y="-63" font-family="Helvetica,sans-Serif" font-size="10.00">Button</text>
</a>
</g>
</g>
<!-- Node2&#45;&gt;Node8 -->
<g id="edge12_Node000008_Node000002" class="edge">
<title>Node2&#45;&gt;Node8</title>
<g id="a_edge12_Node000008_Node000002"><a xlink:title=" ">
<path fill="none" stroke="#63b8ff" d="M378.7,-122.38C379.47,-122.25 380.24,-122.12 381,-122 430.33,-114.24 559.46,-124.5 605,-104 619.05,-97.68 631.1,-84.07 637.95,-75.1"/>
<polygon fill="#63b8ff" stroke="#63b8ff" points="377.65,-119.02 368.52,-124.41 379.01,-125.89 377.65,-119.02"/>
</a>
</g>
</g>
<!-- Node9 -->
<g id="Node000009" class="node">
<title>Node9</title>
<g id="a_Node000009"><a xlink:href="classInputArea.html" target="_top" xlink:title="Represents an input area.">
<polygon fill="white" stroke="#666666" points="423,-75 359,-75 359,-56 423,-56 423,-75"/>
<text text-anchor="middle" x="391" y="-63" font-family="Helvetica,sans-Serif" font-size="10.00">InputArea</text>
</a>
</g>
</g>
<!-- Node2&#45;&gt;Node9 -->
<g id="edge14_Node000009_Node000002" class="edge">
<title>Node2&#45;&gt;Node9</title>
<g id="a_edge14_Node000009_Node000002"><a xlink:title=" ">
<path fill="none" stroke="#63b8ff" d="M337.19,-111.95C335.72,-105.56 335.56,-98.62 339,-93 344.03,-84.79 352.49,-79.03 361.14,-75.02"/>
<polygon fill="#63b8ff" stroke="#63b8ff" points="334.01,-113.45 340.51,-121.82 340.64,-111.22 334.01,-113.45"/>
</a>
</g>
</g>
<!-- Node10 -->
<g id="Node000010" class="node">
<title>Node10</title>
<g id="a_Node000010"><a xlink:href="classSelectList.html" target="_top" xlink:title="Represents a selectable list.">
<polygon fill="white" stroke="#666666" points="505,-75 441,-75 441,-56 505,-56 505,-75"/>
<text text-anchor="middle" x="473" y="-63" font-family="Helvetica,sans-Serif" font-size="10.00">SelectList</text>
</a>
</g>
</g>
<!-- Node2&#45;&gt;Node10 -->
<g id="edge16_Node000010_Node000002" class="edge">
<title>Node2&#45;&gt;Node10</title>
<g id="a_edge16_Node000010_Node000002"><a xlink:title=" ">
<path fill="none" stroke="#63b8ff" d="M371.28,-117.36C396.5,-104.75 433.87,-86.06 455.6,-75.2"/>
<polygon fill="#63b8ff" stroke="#63b8ff" points="369.64,-114.27 362.26,-121.87 372.77,-120.53 369.64,-114.27"/>
</a>
</g>
</g>
<!-- Node11 -->
<g id="Node000011" class="node">
<title>Node11</title>
<g id="a_Node000011"><a xlink:href="classImageFrame.html" target="_top" xlink:title="Represents an image frame.">
<polygon fill="white" stroke="#666666" points="601,-75 523,-75 523,-56 601,-56 601,-75"/>
<text text-anchor="middle" x="562" y="-63" font-family="Helvetica,sans-Serif" font-size="10.00">ImageFrame</text>
</a>
</g>
</g>
<!-- Node2&#45;&gt;Node11 -->
<g id="edge18_Node000011_Node000002" class="edge">
<title>Node2&#45;&gt;Node11</title>
<g id="a_edge18_Node000011_Node000002"><a xlink:title=" ">
<path fill="none" stroke="#63b8ff" d="M378.71,-122.46C379.48,-122.3 380.24,-122.15 381,-122 430.46,-112.2 445.28,-120.27 493,-104 513.91,-96.87 535.98,-83.75 549.38,-75.07"/>
<polygon fill="#63b8ff" stroke="#63b8ff" points="377.59,-119.12 368.57,-124.68 379.09,-125.96 377.59,-119.12"/>
</a>
</g>
</g>
<!-- Node3 -->
<g id="Node000003" class="node">
<title>Node3</title>
<g id="a_Node000003"><a xlink:href="classNode.html" target="_top" xlink:title="Represents a node in the tree structure.">
<polygon fill="white" stroke="#666666" points="399,-208.5 357,-208.5 357,-189.5 399,-189.5 399,-208.5"/>
<text text-anchor="middle" x="378" y="-196.5" font-family="Helvetica,sans-Serif" font-size="10.00">Node</text>
</a>
</g>
</g>
<!-- Node3&#45;&gt;Node2 -->
<g id="edge2_Node000002_Node000003" class="edge">
<title>Node3&#45;&gt;Node2</title>
<g id="a_edge2_Node000002_Node000003"><a xlink:title=" ">
<path fill="none" stroke="#63b8ff" d="M365.28,-180.62C363.03,-177.19 360.83,-173.55 359,-170 354.09,-160.49 350.02,-148.85 347.56,-141.09"/>
<polygon fill="#63b8ff" stroke="#63b8ff" points="362.52,-182.78 371.09,-189.01 368.27,-178.8 362.52,-182.78"/>
</a>
</g>
</g>
<!-- Node3&#45;&gt;Node3 -->
<g id="edge3_Node000003_Node000003" class="edge">
<title>Node3&#45;&gt;Node3</title>
<g id="a_edge3_Node000003_Node000003"><a xlink:title=" ">
<path fill="none" stroke="#9a32cd" stroke-dasharray="5,2" d="M409.41,-204.74C413.95,-203.83 417,-201.91 417,-199 417,-194.22 408.77,-192.13 399.26,-192.72"/>
<polygon fill="#9a32cd" stroke="#9a32cd" points="409.06,-201.26 399.26,-205.28 409.43,-208.25 409.06,-201.26"/>
</a>
</g>
<text text-anchor="middle" x="438.5" y="-202" font-family="Helvetica,sans-Serif" font-size="10.00" fill="grey"> children</text>
<text text-anchor="middle" x="438.5" y="-191" font-family="Helvetica,sans-Serif" font-size="10.00" fill="grey">parent</text>
</g>
<!-- Node4 -->
<g id="Node000004" class="node">
<title>Node4</title>
<g id="a_Node000004"><a xlink:href="unionBehaviorAttribute.html" target="_top" xlink:title=" ">
<polygon fill="white" stroke="#666666" points="493.5,-141 390.5,-141 390.5,-122 493.5,-122 493.5,-141"/>
<text text-anchor="middle" x="442" y="-129" font-family="Helvetica,sans-Serif" font-size="10.00">BehaviorAttribute</text>
</a>
</g>
</g>
<!-- Node3&#45;&gt;Node4 -->
<g id="edge5_Node000004_Node000003" class="edge">
<title>Node3&#45;&gt;Node4</title>
<g id="a_edge5_Node000004_Node000003"><a xlink:title=" ">
<path fill="none" stroke="#9a32cd" stroke-dasharray="5,2" d="M406.98,-184.49C413.49,-180.49 419.95,-175.65 425,-170 432.53,-161.58 437.24,-149.27 439.74,-141.08"/>
<polygon fill="#9a32cd" stroke="#9a32cd" points="405.22,-181.46 398.21,-189.41 408.64,-187.57 405.22,-181.46"/>
</a>
</g>
<text text-anchor="middle" x="447" y="-162" font-family="Helvetica,sans-Serif" font-size="10.00" fill="grey"> node</text>
</g>
<!-- Node4&#45;&gt;Node3 -->
<g id="edge4_Node000003_Node000004" class="edge">
<title>Node4&#45;&gt;Node3</title>
<g id="a_edge4_Node000003_Node000004"><a xlink:title=" ">
<path fill="none" stroke="#9a32cd" stroke-dasharray="5,2" d="M393.52,-145.74C387.83,-149.19 382.73,-153.53 379,-159 372.89,-167.95 374.03,-180.95 375.74,-189.44"/>
<polygon fill="#9a32cd" stroke="#9a32cd" points="395.5,-148.67 402.84,-141.03 392.33,-142.42 395.5,-148.67"/>
</a>
</g>
<text text-anchor="middle" x="402" y="-162" font-family="Helvetica,sans-Serif" font-size="10.00" fill="grey"> attribute</text>
</g>
<!-- Node5&#45;&gt;Node2 -->
<g id="edge6_Node000002_Node000005" class="edge">
<title>Node5&#45;&gt;Node2</title>
<g id="a_edge6_Node000002_Node000005"><a xlink:title=" ">
<path fill="none" stroke="#9a32cd" stroke-dasharray="5,2" d="M57.12,-85.18C58.16,-92.08 60.63,-99.33 66,-104 85.1,-120.59 257.35,-127.71 321.27,-129.8"/>
<polygon fill="#9a32cd" stroke="#9a32cd" points="60.6,-84.82 56.44,-75.08 53.62,-85.29 60.6,-84.82"/>
</a>
</g>
<text text-anchor="middle" x="83.5" y="-96" font-family="Helvetica,sans-Serif" font-size="10.00" fill="grey"> theme</text>
</g>
<!-- Node6 -->
<g id="Node000006" class="node">
<title>Node6</title>
<g id="a_Node000006"><a xlink:href="structFont.html" target="_top" xlink:title="Represents a font.">
<polygon fill="white" stroke="#666666" points="38,-141 0,-141 0,-122 38,-122 38,-141"/>
<text text-anchor="middle" x="19" y="-129" font-family="Helvetica,sans-Serif" font-size="10.00">Font</text>
</a>
</g>
</g>
<!-- Node6&#45;&gt;Node5 -->
<g id="edge7_Node000005_Node000006" class="edge">
<title>Node6&#45;&gt;Node5</title>
<g id="a_edge7_Node000005_Node000006"><a xlink:title=" ">
<path fill="none" stroke="#9a32cd" stroke-dasharray="5,2" d="M16.25,-111.63C16.17,-105.38 17.02,-98.61 20,-93 24.07,-85.32 31.48,-79.35 38.6,-75.04"/>
<polygon fill="#9a32cd" stroke="#9a32cd" points="12.79,-112.26 17.16,-121.91 19.77,-111.64 12.79,-112.26"/>
</a>
</g>
<text text-anchor="middle" x="31.5" y="-96" font-family="Helvetica,sans-Serif" font-size="10.00" fill="grey"> font</text>
</g>
<!-- Node7&#45;&gt;Node2 -->
<g id="edge9_Node000002_Node000007" class="edge">
<title>Node7&#45;&gt;Node2</title>
<g id="a_edge9_Node000002_Node000007"><a xlink:title=" ">
<path fill="none" stroke="#9a32cd" stroke-dasharray="5,2" d="M227.23,-85.21C229.64,-92 233.35,-99.18 239,-104 262.09,-123.7 297.72,-129.12 321.2,-130.42"/>
<polygon fill="#9a32cd" stroke="#9a32cd" points="230.51,-83.94 224.43,-75.26 223.77,-85.84 230.51,-83.94"/>
</a>
</g>
<text text-anchor="middle" x="253" y="-96" font-family="Helvetica,sans-Serif" font-size="10.00" fill="grey"> label</text>
</g>
<!-- Node8&#45;&gt;Node2 -->
<g id="edge11_Node000002_Node000008" class="edge">
<title>Node8&#45;&gt;Node2</title>
<g id="a_edge11_Node000002_Node000008"><a xlink:title=" ">
<path fill="none" stroke="#9a32cd" stroke-dasharray="5,2" d="M642.88,-85.33C641.46,-92.24 638.62,-99.47 633,-104 611.14,-121.62 408.75,-117.76 381,-122 376.94,-122.62 372.66,-123.46 368.52,-124.38"/>
<polygon fill="#9a32cd" stroke="#9a32cd" points="646.38,-85.51 644.1,-75.17 639.43,-84.67 646.38,-85.51"/>
</a>
</g>
<text text-anchor="middle" x="657.5" y="-96" font-family="Helvetica,sans-Serif" font-size="10.00" fill="grey"> button</text>
</g>
<!-- Node12 -->
<g id="Node000012" class="node">
<title>Node12</title>
<g id="a_Node000012"><a xlink:href="classRadioButton.html" target="_top" xlink:title="Represents a radio button.">
<polygon fill="white" stroke="#666666" points="428.5,-19 351.5,-19 351.5,0 428.5,0 428.5,-19"/>
<text text-anchor="middle" x="390" y="-7" font-family="Helvetica,sans-Serif" font-size="10.00">RadioButton</text>
</a>
</g>
</g>
<!-- Node8&#45;&gt;Node12 -->
<g id="edge20_Node000012_Node000008" class="edge">
<title>Node8&#45;&gt;Node12</title>
<g id="a_edge20_Node000012_Node000008"><a xlink:title=" ">
<path fill="none" stroke="#63b8ff" d="M609.37,-55.93C540.1,-40.22 470.69,-26.26 428.65,-18"/>
<polygon fill="#63b8ff" stroke="#63b8ff" points="608.62,-59.35 619.15,-58.16 610.17,-52.53 608.62,-59.35"/>
</a>
</g>
</g>
<!-- Node13 -->
<g id="Node000013" class="node">
<title>Node13</title>
<g id="a_Node000013"><a xlink:href="classSlider.html" target="_top" xlink:title=" ">
<polygon fill="white" stroke="#666666" points="706,-19 662,-19 662,0 706,0 706,-19"/>
<text text-anchor="middle" x="684" y="-7" font-family="Helvetica,sans-Serif" font-size="10.00">Slider</text>
</a>
</g>
</g>
<!-- Node8&#45;&gt;Node13 -->
<g id="edge22_Node000013_Node000008" class="edge">
<title>Node8&#45;&gt;Node13</title>
<g id="a_edge22_Node000013_Node000008"><a xlink:title=" ">
<path fill="none" stroke="#63b8ff" d="M656.7,-47.36C663.63,-38 671.91,-26.83 677.52,-19.25"/>
<polygon fill="#63b8ff" stroke="#63b8ff" points="653.75,-45.46 650.61,-55.58 659.37,-49.63 653.75,-45.46"/>
</a>
</g>
</g>
<!-- Node9&#45;&gt;Node2 -->
<g id="edge13_Node000002_Node000009" class="edge">
<title>Node9&#45;&gt;Node2</title>
<g id="a_edge13_Node000002_Node000009"><a xlink:title=" ">
<path fill="none" stroke="#9a32cd" stroke-dasharray="5,2" d="M357.95,-80.46C353.2,-83.88 348.94,-88.02 346,-93 340.84,-101.75 341.6,-113.76 342.98,-121.81"/>
<polygon fill="#9a32cd" stroke="#9a32cd" points="360.1,-83.26 366.84,-75.08 356.47,-77.27 360.1,-83.26"/>
</a>
</g>
<text text-anchor="middle" x="371.5" y="-96" font-family="Helvetica,sans-Serif" font-size="10.00" fill="grey"> inputArea</text>
</g>
<!-- Node10&#45;&gt;Node2 -->
<g id="edge15_Node000002_Node000010" class="edge">
<title>Node10&#45;&gt;Node2</title>
<g id="a_edge15_Node000002_Node000010"><a xlink:title=" ">
<path fill="none" stroke="#9a32cd" stroke-dasharray="5,2" d="M455.23,-81.64C445.81,-89.12 433.78,-97.83 422,-104 404.97,-112.93 384.3,-119.85 368.67,-124.37"/>
<polygon fill="#9a32cd" stroke="#9a32cd" points="457.54,-84.28 463.06,-75.24 453.11,-78.86 457.54,-84.28"/>
</a>
</g>
<text text-anchor="middle" x="464" y="-96" font-family="Helvetica,sans-Serif" font-size="10.00" fill="grey"> selectList</text>
</g>
<!-- Node11&#45;&gt;Node2 -->
<g id="edge17_Node000002_Node000011" class="edge">
<title>Node11&#45;&gt;Node2</title>
<g id="a_edge17_Node000002_Node000011"><a xlink:title=" ">
<path fill="none" stroke="#9a32cd" stroke-dasharray="5,2" d="M547.87,-83.07C540.39,-90.72 530.58,-99.16 520,-104 463.35,-129.9 442.28,-110.83 381,-122 376.96,-122.74 372.68,-123.64 368.55,-124.57"/>
<polygon fill="#9a32cd" stroke="#9a32cd" points="550.83,-85.03 555,-75.29 545.66,-80.31 550.83,-85.03"/>
</a>
</g>
<text text-anchor="middle" x="568.5" y="-96" font-family="Helvetica,sans-Serif" font-size="10.00" fill="grey"> imageFrame</text>
</g>
<!-- Node12&#45;&gt;Node2 -->
<g id="edge19_Node000002_Node000012" class="edge">
<title>Node12&#45;&gt;Node2</title>
<g id="a_edge19_Node000002_Node000012"><a xlink:title=" ">
<path fill="none" stroke="#9a32cd" stroke-dasharray="5,2" d="M341.68,-20.43C322.17,-27.07 301.57,-38.03 290,-56 274.08,-80.74 309.02,-108.18 330.25,-121.82"/>
<polygon fill="#9a32cd" stroke="#9a32cd" points="342.91,-23.72 351.43,-17.42 340.84,-17.03 342.91,-23.72"/>
</a>
</g>
<text text-anchor="middle" x="320" y="-63" font-family="Helvetica,sans-Serif" font-size="10.00" fill="grey"> radiobutton</text>
</g>
<!-- Node13&#45;&gt;Node2 -->
<g id="edge21_Node000002_Node000013" class="edge">
<title>Node13&#45;&gt;Node2</title>
<g id="a_edge21_Node000002_Node000013"><a xlink:title=" ">
<path fill="none" stroke="#9a32cd" stroke-dasharray="5,2" d="M689.4,-28.95C694.36,-50.16 698.31,-84.55 679,-104 655.63,-127.54 413.82,-117.17 381,-122 376.93,-122.6 372.65,-123.43 368.51,-124.34"/>
<polygon fill="#9a32cd" stroke="#9a32cd" points="692.77,-27.99 686.84,-19.21 686,-29.77 692.77,-27.99"/>
</a>
</g>
<text text-anchor="middle" x="708.5" y="-63" font-family="Helvetica,sans-Serif" font-size="10.00" fill="grey"> slider</text>
</g>
</g>
</svg>
