<?xml version="1.0" encoding="UTF-8" standalone="no"?>
<!DOCTYPE svg PUBLIC "-//W3C//DTD SVG 1.1//EN"
 "http://www.w3.org/Graphics/SVG/1.1/DTD/svg11.dtd">
<!-- Generated by graphviz version 2.43.0 (0)
 -->
<!-- Title: RayCShape Pages: 1 -->
<svg width="192pt" height="152pt"
 viewBox="0.00 0.00 191.50 152.00" xmlns="http://www.w3.org/2000/svg" xmlns:xlink="http://www.w3.org/1999/xlink">
<g id="graph0" class="graph" transform="scale(1 1) rotate(0) translate(4 148)">
<title>RayCShape</title>
<!-- Node1 -->
<g id="Node000001" class="node">
<title>Node1</title>
<g id="a_Node000001"><a xlink:title=" ">
<polygon fill="#999999" stroke="#666666" points="72,-19 0,-19 0,0 72,0 72,-19"/>
<text text-anchor="middle" x="36" y="-7" font-family="Helvetica,sans-Serif" font-size="10.00">RayCShape</text>
</a>
</g>
</g>
<!-- Node2 -->
<g id="Node000002" class="node">
<title>Node2</title>
<g id="a_Node000002"><a xlink:href="classCShape.html" target="_top" xlink:title=" ">
<polygon fill="white" stroke="#666666" points="62.5,-75 9.5,-75 9.5,-56 62.5,-56 62.5,-75"/>
<text text-anchor="middle" x="36" y="-63" font-family="Helvetica,sans-Serif" font-size="10.00">CShape</text>
</a>
</g>
</g>
<!-- Node2&#45;&gt;Node1 -->
<g id="edge1_Node000001_Node000002" class="edge">
<title>Node2&#45;&gt;Node1</title>
<g id="a_edge1_Node000001_Node000002"><a xlink:title=" ">
<path fill="none" stroke="#63b8ff" d="M36,-45.3C36,-36.41 36,-26.28 36,-19.25"/>
<polygon fill="#63b8ff" stroke="#63b8ff" points="32.5,-45.58 36,-55.58 39.5,-45.58 32.5,-45.58"/>
</a>
</g>
</g>
<!-- Node3 -->
<g id="Node000003" class="node">
<title>Node3</title>
<g id="a_Node000003"><a xlink:href="classNode.html" target="_top" xlink:title="Represents a node in the tree structure.">
<polygon fill="white" stroke="#666666" points="102,-142.5 60,-142.5 60,-123.5 102,-123.5 102,-142.5"/>
<text text-anchor="middle" x="81" y="-130.5" font-family="Helvetica,sans-Serif" font-size="10.00">Node</text>
</a>
</g>
</g>
<!-- Node3&#45;&gt;Node2 -->
<g id="edge2_Node000002_Node000003" class="edge">
<title>Node3&#45;&gt;Node2</title>
<g id="a_edge2_Node000002_Node000003"><a xlink:title=" ">
<path fill="none" stroke="#63b8ff" d="M67.44,-115.4C64.57,-111.7 61.62,-107.77 59,-104 52.28,-94.35 45.32,-82.74 40.84,-75.02"/>
<polygon fill="#63b8ff" stroke="#63b8ff" points="64.83,-117.73 73.8,-123.37 70.3,-113.37 64.83,-117.73"/>
</a>
</g>
</g>
<!-- Node3&#45;&gt;Node3 -->
<g id="edge3_Node000003_Node000003" class="edge">
<title>Node3&#45;&gt;Node3</title>
<g id="a_edge3_Node000003_Node000003"><a xlink:title=" ">
<path fill="none" stroke="#9a32cd" stroke-dasharray="5,2" d="M112.41,-138.74C116.95,-137.83 120,-135.91 120,-133 120,-128.22 111.77,-126.13 102.26,-126.72"/>
<polygon fill="#9a32cd" stroke="#9a32cd" points="112.06,-135.26 102.26,-139.28 112.43,-142.25 112.06,-135.26"/>
</a>
</g>
<text text-anchor="middle" x="141.5" y="-136" font-family="Helvetica,sans-Serif" font-size="10.00" fill="grey"> children</text>
<text text-anchor="middle" x="141.5" y="-125" font-family="Helvetica,sans-Serif" font-size="10.00" fill="grey">parent</text>
</g>
<!-- Node4 -->
<g id="Node000004" class="node">
<title>Node4</title>
<g id="a_Node000004"><a xlink:href="unionBehaviorAttribute.html" target="_top" xlink:title=" ">
<polygon fill="white" stroke="#666666" points="183.5,-75 80.5,-75 80.5,-56 183.5,-56 183.5,-75"/>
<text text-anchor="middle" x="132" y="-63" font-family="Helvetica,sans-Serif" font-size="10.00">BehaviorAttribute</text>
</a>
</g>
</g>
<!-- Node3&#45;&gt;Node4 -->
<g id="edge5_Node000004_Node000003" class="edge">
<title>Node3&#45;&gt;Node4</title>
<g id="a_edge5_Node000004_Node000003"><a xlink:title=" ">
<path fill="none" stroke="#9a32cd" stroke-dasharray="5,2" d="M75.12,-113.36C74.06,-106.51 74.28,-98.98 78,-93 83.14,-84.76 91.67,-79.01 100.45,-75.02"/>
<polygon fill="#9a32cd" stroke="#9a32cd" points="71.76,-114.34 77.52,-123.23 78.56,-112.69 71.76,-114.34"/>
</a>
</g>
<text text-anchor="middle" x="92" y="-96" font-family="Helvetica,sans-Serif" font-size="10.00" fill="grey"> node</text>
</g>
<!-- Node4&#45;&gt;Node3 -->
<g id="edge4_Node000003_Node000004" class="edge">
<title>Node4&#45;&gt;Node3</title>
<g id="a_edge4_Node000003_Node000004"><a xlink:title=" ">
<path fill="none" stroke="#9a32cd" stroke-dasharray="5,2" d="M122.76,-84.49C119.14,-90.9 114.72,-98.01 110,-104 104.46,-111.04 97.21,-118.04 91.35,-123.28"/>
<polygon fill="#9a32cd" stroke="#9a32cd" points="126.07,-85.73 127.73,-75.27 119.91,-82.41 126.07,-85.73"/>
</a>
</g>
<text text-anchor="middle" x="140" y="-96" font-family="Helvetica,sans-Serif" font-size="10.00" fill="grey"> attribute</text>
</g>
</g>
</svg>
