<?xml version="1.0" encoding="UTF-8" standalone="no"?>
<!DOCTYPE svg PUBLIC "-//W3C//DTD SVG 1.1//EN"
 "http://www.w3.org/Graphics/SVG/1.1/DTD/svg11.dtd">
<!-- Generated by graphviz version 2.43.0 (0)
 -->
<!-- Title: src/classes/classes_types.h Pages: 1 -->
<svg width="7301pt" height="159pt"
 viewBox="0.00 0.00 7301.00 159.00" xmlns="http://www.w3.org/2000/svg" xmlns:xlink="http://www.w3.org/1999/xlink">
<g id="graph0" class="graph" transform="scale(1 1) rotate(0) translate(4 155)">
<title>src/classes/classes_types.h</title>
<!-- Node1 -->
<g id="Node000001" class="node">
<title>Node1</title>
<g id="a_Node000001"><a xlink:title=" ">
<polygon fill="#999999" stroke="#666666" points="3777,-151 3668,-151 3668,-121 3777,-121 3777,-151"/>
<text text-anchor="start" x="3676" y="-139" font-family="Helvetica,sans-Serif" font-size="10.00">src/classes/classes</text>
<text text-anchor="middle" x="3722.5" y="-128" font-family="Helvetica,sans-Serif" font-size="10.00">_types.h</text>
</a>
</g>
</g>
<!-- Node2 -->
<g id="Node000002" class="node">
<title>Node2</title>
<g id="a_Node000002"><a xlink:href="classes_8h.html" target="_top" xlink:title=" ">
<polygon fill="white" stroke="#666666" points="3781.5,-85 3663.5,-85 3663.5,-66 3781.5,-66 3781.5,-85"/>
<text text-anchor="middle" x="3722.5" y="-73" font-family="Helvetica,sans-Serif" font-size="10.00">src/classes/classes.h</text>
</a>
</g>
</g>
<!-- Node1&#45;&gt;Node2 -->
<g id="edge1_Node000001_Node000002" class="edge">
<title>Node1&#45;&gt;Node2</title>
<g id="a_edge1_Node000001_Node000002"><a xlink:title=" ">
<path fill="none" stroke="#63b8ff" d="M3722.5,-110.75C3722.5,-101.72 3722.5,-92.03 3722.5,-85.27"/>
<polygon fill="#63b8ff" stroke="#63b8ff" points="3719,-110.84 3722.5,-120.84 3726,-110.84 3719,-110.84"/>
</a>
</g>
</g>
<!-- Node3 -->
<g id="Node000003" class="node">
<title>Node3</title>
<g id="a_Node000003"><a xlink:href="classes_8c.html" target="_top" xlink:title=" ">
<polygon fill="white" stroke="#666666" points="117,-24.5 0,-24.5 0,-5.5 117,-5.5 117,-24.5"/>
<text text-anchor="middle" x="58.5" y="-12.5" font-family="Helvetica,sans-Serif" font-size="10.00">src/classes/classes.c</text>
</a>
</g>
</g>
<!-- Node2&#45;&gt;Node3 -->
<g id="edge2_Node000002_Node000003" class="edge">
<title>Node2&#45;&gt;Node3</title>
<g id="a_edge2_Node000002_Node000003"><a xlink:title=" ">
<path fill="none" stroke="#63b8ff" d="M3652.99,-74.45C3183.86,-74.01 488.04,-69.74 125.5,-30 114.87,-28.83 103.43,-26.76 93.07,-24.56"/>
<polygon fill="#63b8ff" stroke="#63b8ff" points="3653.33,-77.95 3663.33,-74.46 3653.34,-70.95 3653.33,-77.95"/>
</a>
</g>
</g>
<!-- Node4 -->
<g id="Node000004" class="node">
<title>Node4</title>
<g id="a_Node000004"><a xlink:href="node_8class_8c.html" target="_top" xlink:title="Implementation of the node class for the ProjetSDLOpenGLL2 project.">
<polygon fill="white" stroke="#666666" points="268,-24.5 135,-24.5 135,-5.5 268,-5.5 268,-24.5"/>
<text text-anchor="middle" x="201.5" y="-12.5" font-family="Helvetica,sans-Serif" font-size="10.00">src/classes/node.class.c</text>
</a>
</g>
</g>
<!-- Node2&#45;&gt;Node4 -->
<g id="edge3_Node000002_Node000004" class="edge">
<title>Node2&#45;&gt;Node4</title>
<g id="a_edge3_Node000002_Node000004"><a xlink:title=" ">
<path fill="none" stroke="#63b8ff" d="M3653.41,-74.31C3197.11,-72.97 624.5,-63.95 277.5,-30 265.48,-28.82 252.52,-26.74 240.77,-24.54"/>
<polygon fill="#63b8ff" stroke="#63b8ff" points="3653.47,-77.81 3663.48,-74.34 3653.49,-70.81 3653.47,-77.81"/>
</a>
</g>
</g>
<!-- Node5 -->
<g id="Node000005" class="node">
<title>Node5</title>
<g id="a_Node000005"><a xlink:href="camera_8class_8c.html" target="_top" xlink:title="This file contains the implementation of the Camera class.">
<polygon fill="white" stroke="#666666" points="464.5,-24.5 286.5,-24.5 286.5,-5.5 464.5,-5.5 464.5,-24.5"/>
<text text-anchor="middle" x="375.5" y="-12.5" font-family="Helvetica,sans-Serif" font-size="10.00">src/classes/nodes/camera.class.c</text>
</a>
</g>
</g>
<!-- Node2&#45;&gt;Node5 -->
<g id="edge4_Node000002_Node000005" class="edge">
<title>Node2&#45;&gt;Node5</title>
<g id="a_edge4_Node000002_Node000005"><a xlink:title=" ">
<path fill="none" stroke="#63b8ff" d="M3653.24,-74.76C3242.54,-76.13 1122.59,-80.6 473.5,-30 458.08,-28.8 441.39,-26.71 426.23,-24.51"/>
<polygon fill="#63b8ff" stroke="#63b8ff" points="3653.49,-78.26 3663.48,-74.73 3653.47,-71.26 3653.49,-78.26"/>
</a>
</g>
</g>
<!-- Node6 -->
<g id="Node000006" class="node">
<title>Node6</title>
<g id="a_Node000006"><a xlink:href="box__cshape_8class_8c.html" target="_top" xlink:title="This source file defines the BoxCShape class and its associated methods.">
<polygon fill="white" stroke="#666666" points="628,-30 483,-30 483,0 628,0 628,-30"/>
<text text-anchor="start" x="491" y="-18" font-family="Helvetica,sans-Serif" font-size="10.00">src/classes/nodes/cshapes</text>
<text text-anchor="middle" x="555.5" y="-7" font-family="Helvetica,sans-Serif" font-size="10.00">/box_cshape.class.c</text>
</a>
</g>
</g>
<!-- Node2&#45;&gt;Node6 -->
<g id="edge5_Node000002_Node000006" class="edge">
<title>Node2&#45;&gt;Node6</title>
<g id="a_edge5_Node000002_Node000006"><a xlink:title=" ">
<path fill="none" stroke="#63b8ff" d="M3653.3,-74.15C3225.18,-71.92 945.68,-58.77 636.5,-30 633.8,-29.75 631.05,-29.46 628.29,-29.13"/>
<polygon fill="#63b8ff" stroke="#63b8ff" points="3653.34,-77.65 3663.36,-74.21 3653.38,-70.65 3653.34,-77.65"/>
</a>
</g>
</g>
<!-- Node7 -->
<g id="Node000007" class="node">
<title>Node7</title>
<g id="a_Node000007"><a xlink:href="capsule__cshape_8class_8c.html" target="_top" xlink:title="This file defines the implementation of the capsule shape class.">
<polygon fill="white" stroke="#666666" points="791,-30 646,-30 646,0 791,0 791,-30"/>
<text text-anchor="start" x="654" y="-18" font-family="Helvetica,sans-Serif" font-size="10.00">src/classes/nodes/cshapes</text>
<text text-anchor="middle" x="718.5" y="-7" font-family="Helvetica,sans-Serif" font-size="10.00">/capsule_cshape.class.c</text>
</a>
</g>
</g>
<!-- Node2&#45;&gt;Node7 -->
<g id="edge6_Node000002_Node000007" class="edge">
<title>Node2&#45;&gt;Node7</title>
<g id="a_edge6_Node000002_Node000007"><a xlink:title=" ">
<path fill="none" stroke="#63b8ff" d="M3653.36,-74.09C3238.85,-71.58 1091.49,-57.29 799.5,-30 796.8,-29.75 794.06,-29.46 791.29,-29.13"/>
<polygon fill="#63b8ff" stroke="#63b8ff" points="3653.38,-77.59 3663.4,-74.15 3653.42,-70.59 3653.38,-77.59"/>
</a>
</g>
</g>
<!-- Node8 -->
<g id="Node000008" class="node">
<title>Node8</title>
<g id="a_Node000008"><a xlink:href="cshape_8class_8c.html" target="_top" xlink:title="This file defines the implementation of various CShape classes.">
<polygon fill="white" stroke="#666666" points="954,-30 809,-30 809,0 954,0 954,-30"/>
<text text-anchor="start" x="817" y="-18" font-family="Helvetica,sans-Serif" font-size="10.00">src/classes/nodes/cshapes</text>
<text text-anchor="middle" x="881.5" y="-7" font-family="Helvetica,sans-Serif" font-size="10.00">/cshape.class.c</text>
</a>
</g>
</g>
<!-- Node2&#45;&gt;Node8 -->
<g id="edge7_Node000002_Node000008" class="edge">
<title>Node2&#45;&gt;Node8</title>
<g id="a_edge7_Node000002_Node000008"><a xlink:title=" ">
<path fill="none" stroke="#63b8ff" d="M3653.11,-74.03C3251.89,-71.2 1237.25,-55.8 962.5,-30 959.8,-29.75 957.06,-29.45 954.29,-29.13"/>
<polygon fill="#63b8ff" stroke="#63b8ff" points="3653.38,-77.53 3663.4,-74.1 3653.43,-70.53 3653.38,-77.53"/>
</a>
</g>
</g>
<!-- Node9 -->
<g id="Node000009" class="node">
<title>Node9</title>
<g id="a_Node000009"><a xlink:href="mesh__cshape_8class_8c.html" target="_top" xlink:title="This file defines the implementation of mesh shapes for the project.">
<polygon fill="white" stroke="#666666" points="1117,-30 972,-30 972,0 1117,0 1117,-30"/>
<text text-anchor="start" x="980" y="-18" font-family="Helvetica,sans-Serif" font-size="10.00">src/classes/nodes/cshapes</text>
<text text-anchor="middle" x="1044.5" y="-7" font-family="Helvetica,sans-Serif" font-size="10.00">/mesh_cshape.class.c</text>
</a>
</g>
</g>
<!-- Node2&#45;&gt;Node9 -->
<g id="edge8_Node000002_Node000009" class="edge">
<title>Node2&#45;&gt;Node9</title>
<g id="a_edge8_Node000002_Node000009"><a xlink:title=" ">
<path fill="none" stroke="#63b8ff" d="M3653.27,-74.76C3293.76,-75.87 1636.72,-78.27 1125.5,-30 1122.8,-29.75 1120.06,-29.45 1117.29,-29.12"/>
<polygon fill="#63b8ff" stroke="#63b8ff" points="3653.29,-78.26 3663.28,-74.73 3653.27,-71.26 3653.29,-78.26"/>
</a>
</g>
</g>
<!-- Node10 -->
<g id="Node000010" class="node">
<title>Node10</title>
<g id="a_Node000010"><a xlink:href="plane__cshape_8class_8c.html" target="_top" xlink:title="This file defines the implementation of a plane shape class.">
<polygon fill="white" stroke="#666666" points="1280,-30 1135,-30 1135,0 1280,0 1280,-30"/>
<text text-anchor="start" x="1143" y="-18" font-family="Helvetica,sans-Serif" font-size="10.00">src/classes/nodes/cshapes</text>
<text text-anchor="middle" x="1207.5" y="-7" font-family="Helvetica,sans-Serif" font-size="10.00">/plane_cshape.class.c</text>
</a>
</g>
</g>
<!-- Node2&#45;&gt;Node10 -->
<g id="edge9_Node000002_Node000010" class="edge">
<title>Node2&#45;&gt;Node10</title>
<g id="a_edge9_Node000002_Node000010"><a xlink:title=" ">
<path fill="none" stroke="#63b8ff" d="M3653.21,-74.66C3307.34,-75.27 1765.56,-75.32 1288.5,-30 1285.8,-29.74 1283.06,-29.45 1280.29,-29.12"/>
<polygon fill="#63b8ff" stroke="#63b8ff" points="3653.34,-78.16 3663.33,-74.65 3653.32,-71.16 3653.34,-78.16"/>
</a>
</g>
</g>
<!-- Node11 -->
<g id="Node000011" class="node">
<title>Node11</title>
<g id="a_Node000011"><a xlink:href="ray__cshape_8class_8c.html" target="_top" xlink:title="This file defines the implementation of ray&#45;casting shapes.">
<polygon fill="white" stroke="#666666" points="1443,-30 1298,-30 1298,0 1443,0 1443,-30"/>
<text text-anchor="start" x="1306" y="-18" font-family="Helvetica,sans-Serif" font-size="10.00">src/classes/nodes/cshapes</text>
<text text-anchor="middle" x="1370.5" y="-7" font-family="Helvetica,sans-Serif" font-size="10.00">/ray_cshape.class.c</text>
</a>
</g>
</g>
<!-- Node2&#45;&gt;Node11 -->
<g id="edge10_Node000002_Node000011" class="edge">
<title>Node2&#45;&gt;Node11</title>
<g id="a_edge10_Node000002_Node000011"><a xlink:title=" ">
<path fill="none" stroke="#63b8ff" d="M3652.82,-74.56C3320.49,-74.62 1894.33,-72.36 1451.5,-30 1448.8,-29.74 1446.06,-29.44 1443.29,-29.12"/>
<polygon fill="#63b8ff" stroke="#63b8ff" points="3653.26,-78.06 3663.26,-74.56 3653.26,-71.06 3653.26,-78.06"/>
</a>
</g>
</g>
<!-- Node12 -->
<g id="Node000012" class="node">
<title>Node12</title>
<g id="a_Node000012"><a xlink:href="sphere__cshape_8class_8c.html" target="_top" xlink:title="This file contains the implementation of the SphereCShape class.">
<polygon fill="white" stroke="#666666" points="1606,-30 1461,-30 1461,0 1606,0 1606,-30"/>
<text text-anchor="start" x="1469" y="-18" font-family="Helvetica,sans-Serif" font-size="10.00">src/classes/nodes/cshapes</text>
<text text-anchor="middle" x="1533.5" y="-7" font-family="Helvetica,sans-Serif" font-size="10.00">/sphere_cshape.class.c</text>
</a>
</g>
</g>
<!-- Node2&#45;&gt;Node12 -->
<g id="edge11_Node000002_Node000012" class="edge">
<title>Node2&#45;&gt;Node12</title>
<g id="a_edge11_Node000002_Node000012"><a xlink:title=" ">
<path fill="none" stroke="#63b8ff" d="M3653.01,-74.42C3335.92,-73.82 2024.25,-68.99 1615.5,-30 1612.48,-29.71 1609.41,-29.38 1606.3,-29"/>
<polygon fill="#63b8ff" stroke="#63b8ff" points="3653.42,-77.92 3663.43,-74.43 3653.43,-70.92 3653.42,-77.92"/>
</a>
</g>
</g>
<!-- Node13 -->
<g id="Node000013" class="node">
<title>Node13</title>
<g id="a_Node000013"><a xlink:href="button_8class_8c.html" target="_top" xlink:title="This file defines the Button class and its associated methods.">
<polygon fill="white" stroke="#666666" points="1764.5,-30 1624.5,-30 1624.5,0 1764.5,0 1764.5,-30"/>
<text text-anchor="start" x="1632.5" y="-18" font-family="Helvetica,sans-Serif" font-size="10.00">src/classes/nodes/frames</text>
<text text-anchor="middle" x="1694.5" y="-7" font-family="Helvetica,sans-Serif" font-size="10.00">/button.class.c</text>
</a>
</g>
</g>
<!-- Node2&#45;&gt;Node13 -->
<g id="edge12_Node000002_Node000013" class="edge">
<title>Node2&#45;&gt;Node13</title>
<g id="a_edge12_Node000002_Node000013"><a xlink:title=" ">
<path fill="none" stroke="#63b8ff" d="M3652.84,-74.34C3350.35,-73.4 2149.2,-67.36 1773.5,-30 1770.59,-29.71 1767.62,-29.37 1764.63,-29"/>
<polygon fill="#63b8ff" stroke="#63b8ff" points="3653.2,-77.84 3663.22,-74.37 3653.23,-70.84 3653.2,-77.84"/>
</a>
</g>
</g>
<!-- Node14 -->
<g id="Node000014" class="node">
<title>Node14</title>
<g id="a_Node000014"><a xlink:href="checkbox_8class_8c.html" target="_top" xlink:title="Implementation of the Checkbox class for the GUI framework.">
<polygon fill="white" stroke="#666666" points="1922.5,-30 1782.5,-30 1782.5,0 1922.5,0 1922.5,-30"/>
<text text-anchor="start" x="1790.5" y="-18" font-family="Helvetica,sans-Serif" font-size="10.00">src/classes/nodes/frames</text>
<text text-anchor="middle" x="1852.5" y="-7" font-family="Helvetica,sans-Serif" font-size="10.00">/checkbox.class.c</text>
</a>
</g>
</g>
<!-- Node2&#45;&gt;Node14 -->
<g id="edge13_Node000002_Node000014" class="edge">
<title>Node2&#45;&gt;Node14</title>
<g id="a_edge13_Node000002_Node000014"><a xlink:title=" ">
<path fill="none" stroke="#63b8ff" d="M3652.89,-74.17C3366.02,-72.6 2274.46,-64.45 1931.5,-30 1928.59,-29.71 1925.63,-29.37 1922.63,-28.99"/>
<polygon fill="#63b8ff" stroke="#63b8ff" points="3653.13,-77.67 3663.15,-74.23 3653.17,-70.67 3653.13,-77.67"/>
</a>
</g>
</g>
<!-- Node15 -->
<g id="Node000015" class="node">
<title>Node15</title>
<g id="a_Node000015"><a xlink:href="control__frame_8class_8c.html" target="_top" xlink:title="This file defines the implementation of the control frame class.">
<polygon fill="white" stroke="#666666" points="2080.5,-30 1940.5,-30 1940.5,0 2080.5,0 2080.5,-30"/>
<text text-anchor="start" x="1948.5" y="-18" font-family="Helvetica,sans-Serif" font-size="10.00">src/classes/nodes/frames</text>
<text text-anchor="middle" x="2010.5" y="-7" font-family="Helvetica,sans-Serif" font-size="10.00">/control_frame.class.c</text>
</a>
</g>
</g>
<!-- Node2&#45;&gt;Node15 -->
<g id="edge14_Node000002_Node000015" class="edge">
<title>Node2&#45;&gt;Node15</title>
<g id="a_edge14_Node000002_Node000015"><a xlink:title=" ">
<path fill="none" stroke="#63b8ff" d="M3653.28,-73.98C3383.21,-71.74 2399.94,-61.56 2089.5,-30 2086.59,-29.7 2083.63,-29.36 2080.64,-28.98"/>
<polygon fill="#63b8ff" stroke="#63b8ff" points="3653.32,-77.48 3663.35,-74.06 3653.37,-70.48 3653.32,-77.48"/>
</a>
</g>
</g>
<!-- Node16 -->
<g id="Node000016" class="node">
<title>Node16</title>
<g id="a_Node000016"><a xlink:href="frame_8class_8c.html" target="_top" xlink:title="This file defines the implementation of frame&#45;related functionalities.">
<polygon fill="white" stroke="#666666" points="2238.5,-30 2098.5,-30 2098.5,0 2238.5,0 2238.5,-30"/>
<text text-anchor="start" x="2106.5" y="-18" font-family="Helvetica,sans-Serif" font-size="10.00">src/classes/nodes/frames</text>
<text text-anchor="middle" x="2168.5" y="-7" font-family="Helvetica,sans-Serif" font-size="10.00">/frame.class.c</text>
</a>
</g>
</g>
<!-- Node2&#45;&gt;Node16 -->
<g id="edge15_Node000002_Node000016" class="edge">
<title>Node2&#45;&gt;Node16</title>
<g id="a_edge15_Node000002_Node000016"><a xlink:title=" ">
<path fill="none" stroke="#63b8ff" d="M3652.94,-73.74C3399.4,-70.77 2525.25,-58.65 2247.5,-30 2244.59,-29.7 2241.63,-29.35 2238.64,-28.97"/>
<polygon fill="#63b8ff" stroke="#63b8ff" points="3653.08,-77.24 3663.12,-73.86 3653.16,-70.24 3653.08,-77.24"/>
</a>
</g>
</g>
<!-- Node17 -->
<g id="Node000017" class="node">
<title>Node17</title>
<g id="a_Node000017"><a xlink:href="image__frame_8class_8c.html" target="_top" xlink:title="This file contains the implementation of the ImageFrame class.">
<polygon fill="white" stroke="#666666" points="2396.5,-30 2256.5,-30 2256.5,0 2396.5,0 2396.5,-30"/>
<text text-anchor="start" x="2264.5" y="-18" font-family="Helvetica,sans-Serif" font-size="10.00">src/classes/nodes/frames</text>
<text text-anchor="middle" x="2326.5" y="-7" font-family="Helvetica,sans-Serif" font-size="10.00">/image_frame.class.c</text>
</a>
</g>
</g>
<!-- Node2&#45;&gt;Node17 -->
<g id="edge16_Node000002_Node000017" class="edge">
<title>Node2&#45;&gt;Node17</title>
<g id="a_edge16_Node000002_Node000017"><a xlink:title=" ">
<path fill="none" stroke="#63b8ff" d="M3653,-73.45C3417.53,-69.7 2650.85,-55.75 2405.5,-30 2402.59,-29.69 2399.63,-29.35 2396.64,-28.96"/>
<polygon fill="#63b8ff" stroke="#63b8ff" points="3653.1,-76.95 3663.15,-73.61 3653.21,-69.95 3653.1,-76.95"/>
</a>
</g>
</g>
<!-- Node18 -->
<g id="Node000018" class="node">
<title>Node18</title>
<g id="a_Node000018"><a xlink:href="input__area_8class_8c.html" target="_top" xlink:title="This file defines the InputArea class and its associated methods.">
<polygon fill="white" stroke="#666666" points="2554.5,-30 2414.5,-30 2414.5,0 2554.5,0 2554.5,-30"/>
<text text-anchor="start" x="2422.5" y="-18" font-family="Helvetica,sans-Serif" font-size="10.00">src/classes/nodes/frames</text>
<text text-anchor="middle" x="2484.5" y="-7" font-family="Helvetica,sans-Serif" font-size="10.00">/input_area.class.c</text>
</a>
</g>
</g>
<!-- Node2&#45;&gt;Node18 -->
<g id="edge17_Node000002_Node000018" class="edge">
<title>Node2&#45;&gt;Node18</title>
<g id="a_edge17_Node000002_Node000018"><a xlink:title=" ">
<path fill="none" stroke="#63b8ff" d="M3653.37,-75.14C3473.31,-76.09 2975.21,-74.17 2563.5,-30 2560.59,-29.69 2557.63,-29.33 2554.64,-28.94"/>
<polygon fill="#63b8ff" stroke="#63b8ff" points="3653.52,-78.64 3663.5,-75.08 3653.48,-71.64 3653.52,-78.64"/>
</a>
</g>
</g>
<!-- Node19 -->
<g id="Node000019" class="node">
<title>Node19</title>
<g id="a_Node000019"><a xlink:href="label_8class_8c.html" target="_top" xlink:title="This file defines the Label class and its associated functions.">
<polygon fill="white" stroke="#666666" points="2712.5,-30 2572.5,-30 2572.5,0 2712.5,0 2712.5,-30"/>
<text text-anchor="start" x="2580.5" y="-18" font-family="Helvetica,sans-Serif" font-size="10.00">src/classes/nodes/frames</text>
<text text-anchor="middle" x="2642.5" y="-7" font-family="Helvetica,sans-Serif" font-size="10.00">/label.class.c</text>
</a>
</g>
</g>
<!-- Node2&#45;&gt;Node19 -->
<g id="edge18_Node000002_Node000019" class="edge">
<title>Node2&#45;&gt;Node19</title>
<g id="a_edge18_Node000002_Node000019"><a xlink:title=" ">
<path fill="none" stroke="#63b8ff" d="M3652.97,-74.54C3489.81,-73.94 3069.82,-68.44 2721.5,-30 2718.59,-29.68 2715.63,-29.32 2712.64,-28.92"/>
<polygon fill="#63b8ff" stroke="#63b8ff" points="3653.33,-78.04 3663.34,-74.57 3653.35,-71.04 3653.33,-78.04"/>
</a>
</g>
</g>
<!-- Node20 -->
<g id="Node000020" class="node">
<title>Node20</title>
<g id="a_Node000020"><a xlink:href="radiobutton_8class_8c.html" target="_top" xlink:title="Implementation of the RadioButton class.">
<polygon fill="white" stroke="#666666" points="2870.5,-30 2730.5,-30 2730.5,0 2870.5,0 2870.5,-30"/>
<text text-anchor="start" x="2738.5" y="-18" font-family="Helvetica,sans-Serif" font-size="10.00">src/classes/nodes/frames</text>
<text text-anchor="middle" x="2800.5" y="-7" font-family="Helvetica,sans-Serif" font-size="10.00">/radiobutton.class.c</text>
</a>
</g>
</g>
<!-- Node2&#45;&gt;Node20 -->
<g id="edge19_Node000002_Node000020" class="edge">
<title>Node2&#45;&gt;Node20</title>
<g id="a_edge19_Node000002_Node000020"><a xlink:title=" ">
<path fill="none" stroke="#63b8ff" d="M3653.22,-73.71C3508.86,-71.45 3165.49,-62.76 2879.5,-30 2876.59,-29.67 2873.63,-29.29 2870.65,-28.89"/>
<polygon fill="#63b8ff" stroke="#63b8ff" points="3653.22,-77.21 3663.27,-73.87 3653.32,-70.22 3653.22,-77.21"/>
</a>
</g>
</g>
<!-- Node21 -->
<g id="Node000021" class="node">
<title>Node21</title>
<g id="a_Node000021"><a xlink:href="selectlist_8class_8c.html" target="_top" xlink:title="This file implements the functionality for a selectable list frame in the application.">
<polygon fill="white" stroke="#666666" points="3028.5,-30 2888.5,-30 2888.5,0 3028.5,0 3028.5,-30"/>
<text text-anchor="start" x="2896.5" y="-18" font-family="Helvetica,sans-Serif" font-size="10.00">src/classes/nodes/frames</text>
<text text-anchor="middle" x="2958.5" y="-7" font-family="Helvetica,sans-Serif" font-size="10.00">/selectlist.class.c</text>
</a>
</g>
</g>
<!-- Node2&#45;&gt;Node21 -->
<g id="edge20_Node000002_Node000021" class="edge">
<title>Node2&#45;&gt;Node21</title>
<g id="a_edge20_Node000002_Node000021"><a xlink:title=" ">
<path fill="none" stroke="#63b8ff" d="M3653.09,-72.53C3529.11,-68.44 3261.62,-57.05 3037.5,-30 3034.6,-29.65 3031.64,-29.26 3028.65,-28.85"/>
<polygon fill="#63b8ff" stroke="#63b8ff" points="3653.09,-76.03 3663.2,-72.85 3653.32,-69.03 3653.09,-76.03"/>
</a>
</g>
</g>
<!-- Node22 -->
<g id="Node000022" class="node">
<title>Node22</title>
<g id="a_Node000022"><a xlink:href="slider_8class_8c.html" target="_top" xlink:title=" ">
<polygon fill="white" stroke="#666666" points="3186.5,-30 3046.5,-30 3046.5,0 3186.5,0 3186.5,-30"/>
<text text-anchor="start" x="3054.5" y="-18" font-family="Helvetica,sans-Serif" font-size="10.00">src/classes/nodes/frames</text>
<text text-anchor="middle" x="3116.5" y="-7" font-family="Helvetica,sans-Serif" font-size="10.00">/slider.class.c</text>
</a>
</g>
</g>
<!-- Node2&#45;&gt;Node22 -->
<g id="edge21_Node000002_Node000022" class="edge">
<title>Node2&#45;&gt;Node22</title>
<g id="a_edge21_Node000002_Node000022"><a xlink:title=" ">
<path fill="none" stroke="#63b8ff" d="M3653.37,-70.68C3552.45,-64.64 3359,-51.35 3195.5,-30 3192.6,-29.62 3189.64,-29.21 3186.66,-28.78"/>
<polygon fill="#63b8ff" stroke="#63b8ff" points="3653.24,-74.18 3663.43,-71.27 3653.66,-67.19 3653.24,-74.18"/>
</a>
</g>
</g>
<!-- Node23 -->
<g id="Node000023" class="node">
<title>Node23</title>
<g id="a_Node000023"><a xlink:href="directional__light_8class_8c.html" target="_top" xlink:title="This file contains the implementation of the directional light class.">
<polygon fill="white" stroke="#666666" points="3338.5,-30 3204.5,-30 3204.5,0 3338.5,0 3338.5,-30"/>
<text text-anchor="start" x="3212.5" y="-18" font-family="Helvetica,sans-Serif" font-size="10.00">src/classes/nodes/lights</text>
<text text-anchor="middle" x="3271.5" y="-7" font-family="Helvetica,sans-Serif" font-size="10.00">/directional_light.class.c</text>
</a>
</g>
</g>
<!-- Node2&#45;&gt;Node23 -->
<g id="edge22_Node000002_Node000023" class="edge">
<title>Node2&#45;&gt;Node23</title>
<g id="a_edge22_Node000002_Node000023"><a xlink:title=" ">
<path fill="none" stroke="#63b8ff" d="M3652.92,-67.59C3577.5,-59.79 3453.68,-46.06 3347.5,-30 3344.58,-29.56 3341.6,-29.09 3338.6,-28.6"/>
<polygon fill="#63b8ff" stroke="#63b8ff" points="3652.93,-71.11 3663.24,-68.65 3653.65,-64.15 3652.93,-71.11"/>
</a>
</g>
</g>
<!-- Node24 -->
<g id="Node000024" class="node">
<title>Node24</title>
<g id="a_Node000024"><a xlink:href="light_8class_8c.html" target="_top" xlink:title="This file contains the implementation of the light class for the project.">
<polygon fill="white" stroke="#666666" points="3488.5,-30 3356.5,-30 3356.5,0 3488.5,0 3488.5,-30"/>
<text text-anchor="start" x="3364.5" y="-18" font-family="Helvetica,sans-Serif" font-size="10.00">src/classes/nodes/lights</text>
<text text-anchor="middle" x="3422.5" y="-7" font-family="Helvetica,sans-Serif" font-size="10.00">/light.class.c</text>
</a>
</g>
</g>
<!-- Node2&#45;&gt;Node24 -->
<g id="edge23_Node000002_Node000024" class="edge">
<title>Node2&#45;&gt;Node24</title>
<g id="a_edge23_Node000002_Node000024"><a xlink:title=" ">
<path fill="none" stroke="#63b8ff" d="M3668.83,-64.03C3618.38,-54.2 3542.75,-39.45 3488.61,-28.89"/>
<polygon fill="#63b8ff" stroke="#63b8ff" points="3668.39,-67.51 3678.88,-65.99 3669.73,-60.64 3668.39,-67.51"/>
</a>
</g>
</g>
<!-- Node25 -->
<g id="Node000025" class="node">
<title>Node25</title>
<g id="a_Node000025"><a xlink:href="point__light_8class_8c.html" target="_top" xlink:title="This file contains the implementation of the PointLight class.">
<polygon fill="white" stroke="#666666" points="3638.5,-30 3506.5,-30 3506.5,0 3638.5,0 3638.5,-30"/>
<text text-anchor="start" x="3514.5" y="-18" font-family="Helvetica,sans-Serif" font-size="10.00">src/classes/nodes/lights</text>
<text text-anchor="middle" x="3572.5" y="-7" font-family="Helvetica,sans-Serif" font-size="10.00">/point_light.class.c</text>
</a>
</g>
</g>
<!-- Node2&#45;&gt;Node25 -->
<g id="edge24_Node000002_Node000025" class="edge">
<title>Node2&#45;&gt;Node25</title>
<g id="a_edge24_Node000002_Node000025"><a xlink:title=" ">
<path fill="none" stroke="#63b8ff" d="M3691.3,-62.33C3667.2,-52.93 3633.81,-39.91 3608.56,-30.06"/>
<polygon fill="#63b8ff" stroke="#63b8ff" points="3690.1,-65.62 3700.69,-65.99 3692.64,-59.1 3690.1,-65.62"/>
</a>
</g>
</g>
<!-- Node26 -->
<g id="Node000026" class="node">
<title>Node26</title>
<g id="a_Node000026"><a xlink:href="spot__light_8class_8c.html" target="_top" xlink:title="This file contains the implementation of the SpotLight class.">
<polygon fill="white" stroke="#666666" points="3788.5,-30 3656.5,-30 3656.5,0 3788.5,0 3788.5,-30"/>
<text text-anchor="start" x="3664.5" y="-18" font-family="Helvetica,sans-Serif" font-size="10.00">src/classes/nodes/lights</text>
<text text-anchor="middle" x="3722.5" y="-7" font-family="Helvetica,sans-Serif" font-size="10.00">/spot_light.class.c</text>
</a>
</g>
</g>
<!-- Node2&#45;&gt;Node26 -->
<g id="edge25_Node000002_Node000026" class="edge">
<title>Node2&#45;&gt;Node26</title>
<g id="a_edge25_Node000002_Node000026"><a xlink:title=" ">
<path fill="none" stroke="#63b8ff" d="M3722.5,-55.65C3722.5,-47.36 3722.5,-37.78 3722.5,-30.11"/>
<polygon fill="#63b8ff" stroke="#63b8ff" points="3719,-55.87 3722.5,-65.87 3726,-55.87 3719,-55.87"/>
</a>
</g>
</g>
<!-- Node27 -->
<g id="Node000027" class="node">
<title>Node27</title>
<g id="a_Node000027"><a xlink:href="mesh_8class_8c.html" target="_top" xlink:title="This file defines the implementation of the Mesh class.">
<polygon fill="white" stroke="#666666" points="3974.5,-24.5 3806.5,-24.5 3806.5,-5.5 3974.5,-5.5 3974.5,-24.5"/>
<text text-anchor="middle" x="3890.5" y="-12.5" font-family="Helvetica,sans-Serif" font-size="10.00">src/classes/nodes/mesh.class.c</text>
</a>
</g>
</g>
<!-- Node2&#45;&gt;Node27 -->
<g id="edge26_Node000002_Node000027" class="edge">
<title>Node2&#45;&gt;Node27</title>
<g id="a_edge26_Node000002_Node000027"><a xlink:title=" ">
<path fill="none" stroke="#63b8ff" d="M3756.47,-62.67C3788.96,-51.36 3837.16,-34.57 3866.04,-24.52"/>
<polygon fill="#63b8ff" stroke="#63b8ff" points="3755.22,-59.4 3746.93,-65.99 3757.52,-66.01 3755.22,-59.4"/>
</a>
</g>
</g>
<!-- Node28 -->
<g id="Node000028" class="node">
<title>Node28</title>
<g id="a_Node000028"><a xlink:href="model_8class_8c.html" target="_top" xlink:title="This file contains the implementation of the model class.">
<polygon fill="white" stroke="#666666" points="4164.5,-24.5 3992.5,-24.5 3992.5,-5.5 4164.5,-5.5 4164.5,-24.5"/>
<text text-anchor="middle" x="4078.5" y="-12.5" font-family="Helvetica,sans-Serif" font-size="10.00">src/classes/nodes/model.class.c</text>
</a>
</g>
</g>
<!-- Node2&#45;&gt;Node28 -->
<g id="edge27_Node000002_Node000028" class="edge">
<title>Node2&#45;&gt;Node28</title>
<g id="a_edge27_Node000002_Node000028"><a xlink:title=" ">
<path fill="none" stroke="#63b8ff" d="M3784.5,-64.31C3853.11,-53.04 3962.44,-35.07 4026.67,-24.52"/>
<polygon fill="#63b8ff" stroke="#63b8ff" points="3783.57,-60.92 3774.27,-65.99 3784.7,-67.83 3783.57,-60.92"/>
</a>
</g>
</g>
<!-- Node29 -->
<g id="Node000029" class="node">
<title>Node29</title>
<g id="a_Node000029"><a xlink:href="area_8class_8c.html" target="_top" xlink:title="This file handles the physics area nodes in the project.">
<polygon fill="white" stroke="#666666" points="4324.5,-30 4182.5,-30 4182.5,0 4324.5,0 4324.5,-30"/>
<text text-anchor="start" x="4190.5" y="-18" font-family="Helvetica,sans-Serif" font-size="10.00">src/classes/nodes/physics</text>
<text text-anchor="middle" x="4253.5" y="-7" font-family="Helvetica,sans-Serif" font-size="10.00">/area.class.c</text>
</a>
</g>
</g>
<!-- Node2&#45;&gt;Node29 -->
<g id="edge28_Node000002_Node000029" class="edge">
<title>Node2&#45;&gt;Node29</title>
<g id="a_edge28_Node000002_Node000029"><a xlink:title=" ">
<path fill="none" stroke="#63b8ff" d="M3791.97,-69.27C3880.7,-62.22 4038.9,-48.39 4173.5,-30 4176.43,-29.6 4179.42,-29.17 4182.44,-28.72"/>
<polygon fill="#63b8ff" stroke="#63b8ff" points="3791.46,-65.8 3781.76,-70.08 3792.01,-72.78 3791.46,-65.8"/>
</a>
</g>
</g>
<!-- Node30 -->
<g id="Node000030" class="node">
<title>Node30</title>
<g id="a_Node000030"><a xlink:href="body_8class_8c.html" target="_top" xlink:title="This file defines the body class for the physics engine.">
<polygon fill="white" stroke="#666666" points="4484.5,-30 4342.5,-30 4342.5,0 4484.5,0 4484.5,-30"/>
<text text-anchor="start" x="4350.5" y="-18" font-family="Helvetica,sans-Serif" font-size="10.00">src/classes/nodes/physics</text>
<text text-anchor="middle" x="4413.5" y="-7" font-family="Helvetica,sans-Serif" font-size="10.00">/bodies/body.class.c</text>
</a>
</g>
</g>
<!-- Node2&#45;&gt;Node30 -->
<g id="edge29_Node000002_Node000030" class="edge">
<title>Node2&#45;&gt;Node30</title>
<g id="a_edge29_Node000002_Node000030"><a xlink:title=" ">
<path fill="none" stroke="#63b8ff" d="M3791.96,-71.72C3905.55,-66.66 4137.99,-54.16 4333.5,-30 4336.44,-29.64 4339.43,-29.24 4342.46,-28.81"/>
<polygon fill="#63b8ff" stroke="#63b8ff" points="3791.51,-68.23 3781.68,-72.17 3791.82,-75.23 3791.51,-68.23"/>
</a>
</g>
</g>
<!-- Node31 -->
<g id="Node000031" class="node">
<title>Node31</title>
<g id="a_Node000031"><a xlink:href="kinematic__body_8class_8c.html" target="_top" xlink:title="This file defines the implementation of kinematic bodies for the physics engine.">
<polygon fill="white" stroke="#666666" points="4670,-30 4503,-30 4503,0 4670,0 4670,-30"/>
<text text-anchor="start" x="4511" y="-18" font-family="Helvetica,sans-Serif" font-size="10.00">src/classes/nodes/physics</text>
<text text-anchor="middle" x="4586.5" y="-7" font-family="Helvetica,sans-Serif" font-size="10.00">/bodies/kinematic_body.class.c</text>
</a>
</g>
</g>
<!-- Node2&#45;&gt;Node31 -->
<g id="edge30_Node000002_Node000031" class="edge">
<title>Node2&#45;&gt;Node31</title>
<g id="a_edge30_Node000002_Node000031"><a xlink:title=" ">
<path fill="none" stroke="#63b8ff" d="M3791.87,-72.63C3927.14,-68.51 4235.5,-56.81 4493.5,-30 4496.59,-29.68 4499.73,-29.33 4502.89,-28.96"/>
<polygon fill="#63b8ff" stroke="#63b8ff" points="3791.54,-69.14 3781.65,-72.94 3791.75,-76.13 3791.54,-69.14"/>
</a>
</g>
</g>
<!-- Node32 -->
<g id="Node000032" class="node">
<title>Node32</title>
<g id="a_Node000032"><a xlink:href="rigid__body_8class_8c.html" target="_top" xlink:title="This source file defines the implementation of rigid body physics for the project.">
<polygon fill="white" stroke="#666666" points="4830.5,-30 4688.5,-30 4688.5,0 4830.5,0 4830.5,-30"/>
<text text-anchor="start" x="4696.5" y="-18" font-family="Helvetica,sans-Serif" font-size="10.00">src/classes/nodes/physics</text>
<text text-anchor="middle" x="4759.5" y="-7" font-family="Helvetica,sans-Serif" font-size="10.00">/bodies/rigid_body.class.c</text>
</a>
</g>
</g>
<!-- Node2&#45;&gt;Node32 -->
<g id="edge31_Node000002_Node000032" class="edge">
<title>Node2&#45;&gt;Node32</title>
<g id="a_edge31_Node000002_Node000032"><a xlink:title=" ">
<path fill="none" stroke="#63b8ff" d="M3791.55,-74.28C3949.34,-73.14 4348.27,-66.53 4679.5,-30 4682.44,-29.68 4685.44,-29.31 4688.47,-28.91"/>
<polygon fill="#63b8ff" stroke="#63b8ff" points="3791.48,-70.79 3781.51,-74.35 3791.53,-77.79 3791.48,-70.79"/>
</a>
</g>
</g>
<!-- Node33 -->
<g id="Node000033" class="node">
<title>Node33</title>
<g id="a_Node000033"><a xlink:href="static__body_8class_8c.html" target="_top" xlink:title="This file defines the implementation of static bodies in the physics engine.">
<polygon fill="white" stroke="#666666" points="4994.5,-30 4848.5,-30 4848.5,0 4994.5,0 4994.5,-30"/>
<text text-anchor="start" x="4856.5" y="-18" font-family="Helvetica,sans-Serif" font-size="10.00">src/classes/nodes/physics</text>
<text text-anchor="middle" x="4921.5" y="-7" font-family="Helvetica,sans-Serif" font-size="10.00">/bodies/static_body.class.c</text>
</a>
</g>
</g>
<!-- Node2&#45;&gt;Node33 -->
<g id="edge32_Node000002_Node000033" class="edge">
<title>Node2&#45;&gt;Node33</title>
<g id="a_edge32_Node000002_Node000033"><a xlink:title=" ">
<path fill="none" stroke="#63b8ff" d="M3791.87,-74.85C3967.66,-75.05 4444.68,-71.39 4839.5,-30 4842.37,-29.7 4845.3,-29.36 4848.25,-28.99"/>
<polygon fill="#63b8ff" stroke="#63b8ff" points="3791.74,-71.35 3781.73,-74.83 3791.72,-78.35 3791.74,-71.35"/>
</a>
</g>
</g>
<!-- Node34 -->
<g id="Node000034" class="node">
<title>Node34</title>
<g id="a_Node000034"><a xlink:href="physical__node_8class_8c.html" target="_top" xlink:title="This file contains the implementation of the PhysicalNode class.">
<polygon fill="white" stroke="#666666" points="5154.5,-30 5012.5,-30 5012.5,0 5154.5,0 5154.5,-30"/>
<text text-anchor="start" x="5020.5" y="-18" font-family="Helvetica,sans-Serif" font-size="10.00">src/classes/nodes/physics</text>
<text text-anchor="middle" x="5083.5" y="-7" font-family="Helvetica,sans-Serif" font-size="10.00">/physical_node.class.c</text>
</a>
</g>
</g>
<!-- Node2&#45;&gt;Node34 -->
<g id="edge33_Node000002_Node000034" class="edge">
<title>Node2&#45;&gt;Node34</title>
<g id="a_edge33_Node000002_Node000034"><a xlink:title=" ">
<path fill="none" stroke="#63b8ff" d="M3792.02,-73.36C4023.27,-69.35 4765.5,-54.84 5003.5,-30 5006.44,-29.69 5009.45,-29.34 5012.47,-28.96"/>
<polygon fill="#63b8ff" stroke="#63b8ff" points="3791.66,-69.86 3781.72,-73.53 3791.78,-76.86 3791.66,-69.86"/>
</a>
</g>
</g>
<!-- Node35 -->
<g id="Node000035" class="node">
<title>Node35</title>
<g id="a_Node000035"><a xlink:href="render__target_8class_8c.html" target="_top" xlink:title="Framebuffer class implementation.">
<polygon fill="white" stroke="#666666" points="5310,-30 5173,-30 5173,0 5310,0 5310,-30"/>
<text text-anchor="start" x="5181" y="-18" font-family="Helvetica,sans-Serif" font-size="10.00">src/classes/nodes/render</text>
<text text-anchor="middle" x="5241.5" y="-7" font-family="Helvetica,sans-Serif" font-size="10.00">_target.class.c</text>
</a>
</g>
</g>
<!-- Node2&#45;&gt;Node35 -->
<g id="edge34_Node000002_Node000035" class="edge">
<title>Node2&#45;&gt;Node35</title>
<g id="a_edge34_Node000002_Node000035"><a xlink:title=" ">
<path fill="none" stroke="#63b8ff" d="M3791.73,-73.71C4041.06,-70.65 4892.65,-58.33 5163.5,-30 5166.51,-29.69 5169.58,-29.32 5172.67,-28.92"/>
<polygon fill="#63b8ff" stroke="#63b8ff" points="3791.67,-70.21 3781.71,-73.83 3791.75,-77.21 3791.67,-70.21"/>
</a>
</g>
</g>
<!-- Node36 -->
<g id="Node000036" class="node">
<title>Node36</title>
<g id="a_Node000036"><a xlink:href="scene_8class_8c.html" target="_top" xlink:title="This file contains the implementation of the scene class.">
<polygon fill="white" stroke="#666666" points="5498.5,-24.5 5328.5,-24.5 5328.5,-5.5 5498.5,-5.5 5498.5,-24.5"/>
<text text-anchor="middle" x="5413.5" y="-12.5" font-family="Helvetica,sans-Serif" font-size="10.00">src/classes/nodes/scene.class.c</text>
</a>
</g>
</g>
<!-- Node2&#45;&gt;Node36 -->
<g id="edge35_Node000002_Node000036" class="edge">
<title>Node2&#45;&gt;Node36</title>
<g id="a_edge35_Node000002_Node000036"><a xlink:title=" ">
<path fill="none" stroke="#63b8ff" d="M3791.9,-73.68C4058.38,-70.34 5016.17,-56.72 5319.5,-30 5333.96,-28.73 5349.59,-26.67 5363.87,-24.53"/>
<polygon fill="#63b8ff" stroke="#63b8ff" points="3791.55,-70.18 3781.59,-73.8 3791.64,-77.18 3791.55,-70.18"/>
</a>
</g>
</g>
<!-- Node37 -->
<g id="Node000037" class="node">
<title>Node37</title>
<g id="a_Node000037"><a xlink:href="skybox_8class_8c.html" target="_top" xlink:title="This file contains the implementation of the Skybox class.">
<polygon fill="white" stroke="#666666" points="5692.5,-24.5 5516.5,-24.5 5516.5,-5.5 5692.5,-5.5 5692.5,-24.5"/>
<text text-anchor="middle" x="5604.5" y="-12.5" font-family="Helvetica,sans-Serif" font-size="10.00">src/classes/nodes/skybox.class.c</text>
</a>
</g>
</g>
<!-- Node2&#45;&gt;Node37 -->
<g id="edge36_Node000002_Node000037" class="edge">
<title>Node2&#45;&gt;Node37</title>
<g id="a_edge36_Node000002_Node000037"><a xlink:title=" ">
<path fill="none" stroke="#63b8ff" d="M3791.85,-73.87C4077.65,-71.11 5165.19,-58.87 5507.5,-30 5522.5,-28.73 5538.73,-26.67 5553.53,-24.51"/>
<polygon fill="#63b8ff" stroke="#63b8ff" points="3791.59,-70.37 3781.63,-73.97 3791.66,-77.37 3791.59,-70.37"/>
</a>
</g>
</g>
<!-- Node38 -->
<g id="Node000038" class="node">
<title>Node38</title>
<g id="a_Node000038"><a xlink:href="texture_8class_8c.html" target="_top" xlink:title="This file contains the implementation of texture&#45;related functionalities.">
<polygon fill="white" stroke="#666666" points="5886.5,-24.5 5710.5,-24.5 5710.5,-5.5 5886.5,-5.5 5886.5,-24.5"/>
<text text-anchor="middle" x="5798.5" y="-12.5" font-family="Helvetica,sans-Serif" font-size="10.00">src/classes/nodes/texture.class.c</text>
</a>
</g>
</g>
<!-- Node2&#45;&gt;Node38 -->
<g id="edge37_Node000002_Node000038" class="edge">
<title>Node2&#45;&gt;Node38</title>
<g id="a_edge37_Node000002_Node000038"><a xlink:title=" ">
<path fill="none" stroke="#63b8ff" d="M3791.74,-74.07C4096.33,-71.99 5318.84,-61.8 5701.5,-30 5716.51,-28.75 5732.73,-26.69 5747.54,-24.54"/>
<polygon fill="#63b8ff" stroke="#63b8ff" points="3791.69,-70.57 3781.72,-74.13 3791.74,-77.57 3791.69,-70.57"/>
</a>
</g>
</g>
<!-- Node39 -->
<g id="Node000039" class="node">
<title>Node39</title>
<g id="a_Node000039"><a xlink:href="textured__mesh_8class_8c.html" target="_top" xlink:title="This file contains the implementation of the TexturedMesh class.">
<polygon fill="white" stroke="#666666" points="6050.5,-30 5904.5,-30 5904.5,0 6050.5,0 6050.5,-30"/>
<text text-anchor="start" x="5912.5" y="-18" font-family="Helvetica,sans-Serif" font-size="10.00">src/classes/nodes/textured</text>
<text text-anchor="middle" x="5977.5" y="-7" font-family="Helvetica,sans-Serif" font-size="10.00">_mesh.class.c</text>
</a>
</g>
</g>
<!-- Node2&#45;&gt;Node39 -->
<g id="edge38_Node000002_Node000039" class="edge">
<title>Node2&#45;&gt;Node39</title>
<g id="a_edge38_Node000002_Node000039"><a xlink:title=" ">
<path fill="none" stroke="#63b8ff" d="M3791.81,-74.47C4114.63,-74.11 5472.91,-70.18 5895.5,-30 5898.38,-29.73 5901.3,-29.41 5904.25,-29.06"/>
<polygon fill="#63b8ff" stroke="#63b8ff" points="3791.66,-70.97 3781.66,-74.48 3791.67,-77.97 3791.66,-70.97"/>
</a>
</g>
</g>
<!-- Node40 -->
<g id="Node000040" class="node">
<title>Node40</title>
<g id="a_Node000040"><a xlink:href="node__loader_8c.html" target="_top" xlink:title=" ">
<polygon fill="white" stroke="#666666" points="6182,-24.5 6069,-24.5 6069,-5.5 6182,-5.5 6182,-24.5"/>
<text text-anchor="middle" x="6125.5" y="-12.5" font-family="Helvetica,sans-Serif" font-size="10.00">src/io/node_loader.c</text>
</a>
</g>
</g>
<!-- Node2&#45;&gt;Node40 -->
<g id="edge39_Node000002_Node000040" class="edge">
<title>Node2&#45;&gt;Node40</title>
<g id="a_edge39_Node000002_Node000040"><a xlink:title=" ">
<path fill="none" stroke="#63b8ff" d="M3791.73,-73.97C4154.64,-71.06 5829.64,-56.33 6059.5,-30 6069.97,-28.8 6081.24,-26.71 6091.45,-24.51"/>
<polygon fill="#63b8ff" stroke="#63b8ff" points="3791.61,-70.47 3781.63,-74.05 3791.66,-77.47 3791.61,-70.47"/>
</a>
</g>
</g>
<!-- Node41 -->
<g id="Node000041" class="node">
<title>Node41</title>
<g id="a_Node000041"><a xlink:href="scene__loader_8c.html" target="_top" xlink:title=" ">
<polygon fill="white" stroke="#666666" points="6318.5,-24.5 6200.5,-24.5 6200.5,-5.5 6318.5,-5.5 6318.5,-24.5"/>
<text text-anchor="middle" x="6259.5" y="-12.5" font-family="Helvetica,sans-Serif" font-size="10.00">src/io/scene_loader.c</text>
</a>
</g>
</g>
<!-- Node2&#45;&gt;Node41 -->
<g id="edge40_Node000002_Node000041" class="edge">
<title>Node2&#45;&gt;Node41</title>
<g id="a_edge40_Node000002_Node000041"><a xlink:title=" ">
<path fill="none" stroke="#63b8ff" d="M3791.97,-74.02C4167.58,-71.29 5947.78,-57.05 6191.5,-30 6202.28,-28.8 6213.89,-26.72 6224.4,-24.52"/>
<polygon fill="#63b8ff" stroke="#63b8ff" points="3791.76,-70.52 3781.79,-74.09 3791.81,-77.52 3791.76,-70.52"/>
</a>
</g>
</g>
<!-- Node42 -->
<g id="Node000042" class="node">
<title>Node42</title>
<g id="a_Node000042"><a xlink:href="main_8c.html" target="_top" xlink:title=" ">
<polygon fill="white" stroke="#666666" points="6404,-24.5 6337,-24.5 6337,-5.5 6404,-5.5 6404,-24.5"/>
<text text-anchor="middle" x="6370.5" y="-12.5" font-family="Helvetica,sans-Serif" font-size="10.00">src/main.c</text>
</a>
</g>
</g>
<!-- Node2&#45;&gt;Node42 -->
<g id="edge41_Node000002_Node000042" class="edge">
<title>Node2&#45;&gt;Node42</title>
<g id="a_edge41_Node000002_Node000042"><a xlink:title=" ">
<path fill="none" stroke="#63b8ff" d="M3791.75,-74.55C4179.35,-74.64 6071.44,-72.88 6327.5,-30 6334.47,-28.83 6341.85,-26.76 6348.5,-24.55"/>
<polygon fill="#63b8ff" stroke="#63b8ff" points="3791.53,-71.05 3781.53,-74.54 3791.53,-78.05 3791.53,-71.05"/>
</a>
</g>
</g>
<!-- Node43 -->
<g id="Node000043" class="node">
<title>Node43</title>
<g id="a_Node000043"><a xlink:href="collision_8c.html" target="_top" xlink:title=" ">
<polygon fill="white" stroke="#666666" points="6544.5,-24.5 6422.5,-24.5 6422.5,-5.5 6544.5,-5.5 6544.5,-24.5"/>
<text text-anchor="middle" x="6483.5" y="-12.5" font-family="Helvetica,sans-Serif" font-size="10.00">src/physics/collision.c</text>
</a>
</g>
</g>
<!-- Node2&#45;&gt;Node43 -->
<g id="edge42_Node000002_Node000043" class="edge">
<title>Node2&#45;&gt;Node43</title>
<g id="a_edge42_Node000002_Node000043"><a xlink:title=" ">
<path fill="none" stroke="#63b8ff" d="M3791.75,-74.1C4186.7,-71.75 6146.34,-58.69 6413.5,-30 6424.59,-28.81 6436.53,-26.73 6447.36,-24.52"/>
<polygon fill="#63b8ff" stroke="#63b8ff" points="3791.59,-70.61 3781.62,-74.16 3791.64,-77.61 3791.59,-70.61"/>
</a>
</g>
</g>
<!-- Node44 -->
<g id="Node000044" class="node">
<title>Node44</title>
<g id="a_Node000044"><a xlink:href="physics_8c.html" target="_top" xlink:title=" ">
<polygon fill="white" stroke="#666666" points="6682,-24.5 6563,-24.5 6563,-5.5 6682,-5.5 6682,-24.5"/>
<text text-anchor="middle" x="6622.5" y="-12.5" font-family="Helvetica,sans-Serif" font-size="10.00">src/physics/physics.c</text>
</a>
</g>
</g>
<!-- Node2&#45;&gt;Node44 -->
<g id="edge43_Node000002_Node000044" class="edge">
<title>Node2&#45;&gt;Node44</title>
<g id="a_edge43_Node000002_Node000044"><a xlink:title=" ">
<path fill="none" stroke="#63b8ff" d="M3791.73,-74.18C4198.72,-72.18 6271.65,-60.54 6553.5,-30 6564.44,-28.81 6576.21,-26.73 6586.88,-24.53"/>
<polygon fill="#63b8ff" stroke="#63b8ff" points="3791.56,-70.68 3781.58,-74.23 3791.6,-77.68 3791.56,-70.68"/>
</a>
</g>
</g>
<!-- Node45 -->
<g id="Node000045" class="node">
<title>Node45</title>
<g id="a_Node000045"><a xlink:href="raptiquax_8c.html" target="_top" xlink:title=" ">
<polygon fill="white" stroke="#666666" points="6789,-24.5 6700,-24.5 6700,-5.5 6789,-5.5 6789,-24.5"/>
<text text-anchor="middle" x="6744.5" y="-12.5" font-family="Helvetica,sans-Serif" font-size="10.00">src/raptiquax.c</text>
</a>
</g>
</g>
<!-- Node2&#45;&gt;Node45 -->
<g id="edge44_Node000002_Node000045" class="edge">
<title>Node2&#45;&gt;Node45</title>
<g id="a_edge44_Node000002_Node000045"><a xlink:title=" ">
<path fill="none" stroke="#63b8ff" d="M3791.76,-74.47C4210.54,-74.16 6396.17,-70.6 6691.5,-30 6699.99,-28.83 6709.06,-26.76 6717.25,-24.55"/>
<polygon fill="#63b8ff" stroke="#63b8ff" points="3791.62,-70.97 3781.62,-74.48 3791.62,-77.97 3791.62,-70.97"/>
</a>
</g>
</g>
<!-- Node46 -->
<g id="Node000046" class="node">
<title>Node46</title>
<g id="a_Node000046"><a xlink:href="lighting_8c.html" target="_top" xlink:title=" ">
<polygon fill="white" stroke="#666666" points="6920,-24.5 6807,-24.5 6807,-5.5 6920,-5.5 6920,-24.5"/>
<text text-anchor="middle" x="6863.5" y="-12.5" font-family="Helvetica,sans-Serif" font-size="10.00">src/render/lighting.c</text>
</a>
</g>
</g>
<!-- Node2&#45;&gt;Node46 -->
<g id="edge45_Node000002_Node000046" class="edge">
<title>Node2&#45;&gt;Node46</title>
<g id="a_edge45_Node000002_Node000046"><a xlink:title=" ">
<path fill="none" stroke="#63b8ff" d="M3791.84,-74.32C4219.55,-73.1 6491.06,-64.98 6798.5,-30 6808.82,-28.83 6819.92,-26.75 6829.97,-24.54"/>
<polygon fill="#63b8ff" stroke="#63b8ff" points="3791.77,-70.82 3781.78,-74.35 3791.79,-77.82 3791.77,-70.82"/>
</a>
</g>
</g>
<!-- Node47 -->
<g id="Node000047" class="node">
<title>Node47</title>
<g id="a_Node000047"><a xlink:href="render_8c.html" target="_top" xlink:title=" ">
<polygon fill="white" stroke="#666666" points="7045,-24.5 6938,-24.5 6938,-5.5 7045,-5.5 7045,-24.5"/>
<text text-anchor="middle" x="6991.5" y="-12.5" font-family="Helvetica,sans-Serif" font-size="10.00">src/render/render.c</text>
</a>
</g>
</g>
<!-- Node2&#45;&gt;Node47 -->
<g id="edge46_Node000002_Node000047" class="edge">
<title>Node2&#45;&gt;Node47</title>
<g id="a_edge46_Node000002_Node000047"><a xlink:title=" ">
<path fill="none" stroke="#63b8ff" d="M3791.96,-74.4C4230.61,-73.69 6608.46,-68.05 6929.5,-30 6939.36,-28.83 6949.95,-26.75 6959.54,-24.55"/>
<polygon fill="#63b8ff" stroke="#63b8ff" points="3791.65,-70.9 3781.66,-74.42 3791.66,-77.9 3791.65,-70.9"/>
</a>
</g>
</g>
<!-- Node48 -->
<g id="Node000048" class="node">
<title>Node48</title>
<g id="a_Node000048"><a xlink:href="chessboard_8h.html" target="_top" xlink:title=" ">
<polygon fill="white" stroke="#666666" points="7180,-30 7063,-30 7063,0 7180,0 7180,-30"/>
<text text-anchor="start" x="7071" y="-18" font-family="Helvetica,sans-Serif" font-size="10.00">src/scripts/fps_chess</text>
<text text-anchor="middle" x="7121.5" y="-7" font-family="Helvetica,sans-Serif" font-size="10.00">/chessboard.h</text>
</a>
</g>
</g>
<!-- Node2&#45;&gt;Node48 -->
<g id="edge47_Node000002_Node000048" class="edge">
<title>Node2&#45;&gt;Node48</title>
<g id="a_edge47_Node000002_Node000048"><a xlink:title=" ">
<path fill="none" stroke="#63b8ff" d="M3791.79,-74.38C4239.89,-73.48 6719.92,-66.84 7054.5,-30 7057.22,-29.7 7059.99,-29.34 7062.78,-28.94"/>
<polygon fill="#63b8ff" stroke="#63b8ff" points="3791.58,-70.88 3781.59,-74.4 3791.6,-77.88 3791.58,-70.88"/>
</a>
</g>
</g>
<!-- Node49 -->
<g id="Node000049" class="node">
<title>Node49</title>
<g id="a_Node000049"><a xlink:href="scene_8c.html" target="_top" xlink:title=" ">
<polygon fill="white" stroke="#666666" points="7293,-24.5 7198,-24.5 7198,-5.5 7293,-5.5 7293,-24.5"/>
<text text-anchor="middle" x="7245.5" y="-12.5" font-family="Helvetica,sans-Serif" font-size="10.00">src/utils/scene.c</text>
</a>
</g>
</g>
<!-- Node2&#45;&gt;Node49 -->
<g id="edge48_Node000002_Node000049" class="edge">
<title>Node2&#45;&gt;Node49</title>
<g id="a_edge48_Node000002_Node000049"><a xlink:title=" ">
<path fill="none" stroke="#63b8ff" d="M3791.7,-74.58C4250.09,-74.96 6841.44,-75.12 7189.5,-30 7198.44,-28.84 7208.02,-26.77 7216.68,-24.56"/>
<polygon fill="#63b8ff" stroke="#63b8ff" points="3791.59,-71.08 3781.58,-74.57 3791.58,-78.08 3791.59,-71.08"/>
</a>
</g>
</g>
</g>
</svg>
