<?xml version="1.0" encoding="UTF-8" standalone="no"?>
<!DOCTYPE svg PUBLIC "-//W3C//DTD SVG 1.1//EN"
 "http://www.w3.org/Graphics/SVG/1.1/DTD/svg11.dtd">
<!-- Generated by graphviz version 2.43.0 (0)
 -->
<!-- Title: Light Pages: 1 -->
<svg width="170pt" height="96pt"
 viewBox="0.00 0.00 170.00 96.00" xmlns="http://www.w3.org/2000/svg" xmlns:xlink="http://www.w3.org/1999/xlink">
<g id="graph0" class="graph" transform="scale(1 1) rotate(0) translate(4 92)">
<title>Light</title>
<!-- Node1 -->
<g id="Node000001" class="node">
<title>Node1</title>
<g id="a_Node000001"><a xlink:title=" ">
<polygon fill="#999999" stroke="#666666" points="41,-19 0,-19 0,0 41,0 41,-19"/>
<text text-anchor="middle" x="20.5" y="-7" font-family="Helvetica,sans-Serif" font-size="10.00">Light</text>
</a>
</g>
</g>
<!-- Node2 -->
<g id="Node000002" class="node">
<title>Node2</title>
<g id="a_Node000002"><a xlink:href="classNode.html" target="_top" xlink:title="Represents a node in the tree structure.">
<polygon fill="white" stroke="#666666" points="80.5,-86.5 38.5,-86.5 38.5,-67.5 80.5,-67.5 80.5,-86.5"/>
<text text-anchor="middle" x="59.5" y="-74.5" font-family="Helvetica,sans-Serif" font-size="10.00">Node</text>
</a>
</g>
</g>
<!-- Node2&#45;&gt;Node1 -->
<g id="edge1_Node000001_Node000002" class="edge">
<title>Node2&#45;&gt;Node1</title>
<g id="a_edge1_Node000001_Node000002"><a xlink:title=" ">
<path fill="none" stroke="#63b8ff" d="M45.09,-58.99C42.41,-55.47 39.75,-51.7 37.5,-48 31.79,-38.59 26.79,-26.93 23.72,-19.13"/>
<polygon fill="#63b8ff" stroke="#63b8ff" points="42.59,-61.47 51.58,-67.07 48.05,-57.08 42.59,-61.47"/>
</a>
</g>
</g>
<!-- Node2&#45;&gt;Node2 -->
<g id="edge2_Node000002_Node000002" class="edge">
<title>Node2&#45;&gt;Node2</title>
<g id="a_edge2_Node000002_Node000002"><a xlink:title=" ">
<path fill="none" stroke="#9a32cd" stroke-dasharray="5,2" d="M90.91,-82.74C95.45,-81.83 98.5,-79.91 98.5,-77 98.5,-72.22 90.27,-70.13 80.76,-70.72"/>
<polygon fill="#9a32cd" stroke="#9a32cd" points="90.56,-79.26 80.76,-83.28 90.93,-86.25 90.56,-79.26"/>
</a>
</g>
<text text-anchor="middle" x="120" y="-80" font-family="Helvetica,sans-Serif" font-size="10.00" fill="grey"> children</text>
<text text-anchor="middle" x="120" y="-69" font-family="Helvetica,sans-Serif" font-size="10.00" fill="grey">parent</text>
</g>
<!-- Node3 -->
<g id="Node000003" class="node">
<title>Node3</title>
<g id="a_Node000003"><a xlink:href="unionBehaviorAttribute.html" target="_top" xlink:title=" ">
<polygon fill="white" stroke="#666666" points="162,-19 59,-19 59,0 162,0 162,-19"/>
<text text-anchor="middle" x="110.5" y="-7" font-family="Helvetica,sans-Serif" font-size="10.00">BehaviorAttribute</text>
</a>
</g>
</g>
<!-- Node2&#45;&gt;Node3 -->
<g id="edge4_Node000003_Node000002" class="edge">
<title>Node2&#45;&gt;Node3</title>
<g id="a_edge4_Node000003_Node000002"><a xlink:title=" ">
<path fill="none" stroke="#9a32cd" stroke-dasharray="5,2" d="M53.62,-57.36C52.56,-50.51 52.78,-42.98 56.5,-37 61.64,-28.76 70.17,-23.01 78.95,-19.02"/>
<polygon fill="#9a32cd" stroke="#9a32cd" points="50.26,-58.34 56.02,-67.23 57.06,-56.69 50.26,-58.34"/>
</a>
</g>
<text text-anchor="middle" x="70.5" y="-40" font-family="Helvetica,sans-Serif" font-size="10.00" fill="grey"> node</text>
</g>
<!-- Node3&#45;&gt;Node2 -->
<g id="edge3_Node000002_Node000003" class="edge">
<title>Node3&#45;&gt;Node2</title>
<g id="a_edge3_Node000002_Node000003"><a xlink:title=" ">
<path fill="none" stroke="#9a32cd" stroke-dasharray="5,2" d="M101.26,-28.49C97.64,-34.9 93.22,-42.01 88.5,-48 82.96,-55.04 75.71,-62.04 69.85,-67.28"/>
<polygon fill="#9a32cd" stroke="#9a32cd" points="104.57,-29.73 106.23,-19.27 98.41,-26.41 104.57,-29.73"/>
</a>
</g>
<text text-anchor="middle" x="118.5" y="-40" font-family="Helvetica,sans-Serif" font-size="10.00" fill="grey"> attribute</text>
</g>
</g>
</svg>
