<?xml version="1.0" encoding="UTF-8" standalone="no"?>
<!DOCTYPE svg PUBLIC "-//W3C//DTD SVG 1.1//EN"
 "http://www.w3.org/Graphics/SVG/1.1/DTD/svg11.dtd">
<!-- Generated by graphviz version 2.43.0 (0)
 -->
<!-- Title: Frame Pages: 1 -->
<svg width="694pt" height="218pt"
 viewBox="0.00 0.00 694.00 218.00" xmlns="http://www.w3.org/2000/svg" xmlns:xlink="http://www.w3.org/1999/xlink">
<g id="graph0" class="graph" transform="scale(1 1) rotate(0) translate(4 214)">
<title>Frame</title>
<!-- Node1 -->
<g id="Node000001" class="node">
<title>Node1</title>
<g id="a_Node000001"><a xlink:title="Represents a frame.">
<polygon fill="#999999" stroke="#666666" points="387.5,-141 340.5,-141 340.5,-122 387.5,-122 387.5,-141"/>
<text text-anchor="middle" x="364" y="-129" font-family="Helvetica,sans-Serif" font-size="10.00">Frame</text>
</a>
</g>
</g>
<!-- Node4 -->
<g id="Node000004" class="node">
<title>Node4</title>
<g id="a_Node000004"><a xlink:href="structTheme.html" target="_top" xlink:title="Represents a theme.">
<polygon fill="white" stroke="#666666" points="90,-75 40,-75 40,-56 90,-56 90,-75"/>
<text text-anchor="middle" x="65" y="-63" font-family="Helvetica,sans-Serif" font-size="10.00">Theme</text>
</a>
</g>
</g>
<!-- Node1&#45;&gt;Node4 -->
<g id="edge7_Node000004_Node000001" class="edge">
<title>Node1&#45;&gt;Node4</title>
<g id="a_edge7_Node000004_Node000001"><a xlink:title=" ">
<path fill="none" stroke="#9a32cd" stroke-dasharray="5,2" d="M329.98,-130.1C285.43,-128.76 205.33,-123.55 140,-104 117.27,-97.2 93.08,-83.86 78.5,-75.06"/>
<polygon fill="#9a32cd" stroke="#9a32cd" points="330.16,-133.61 340.24,-130.36 330.33,-126.61 330.16,-133.61"/>
</a>
</g>
<text text-anchor="middle" x="157.5" y="-96" font-family="Helvetica,sans-Serif" font-size="10.00" fill="grey"> parent</text>
</g>
<!-- Node6 -->
<g id="Node000006" class="node">
<title>Node6</title>
<g id="a_Node000006"><a xlink:href="classLabel.html" target="_top" xlink:title="Represents a label.">
<polygon fill="white" stroke="#666666" points="207.5,-75 164.5,-75 164.5,-56 207.5,-56 207.5,-75"/>
<text text-anchor="middle" x="186" y="-63" font-family="Helvetica,sans-Serif" font-size="10.00">Label</text>
</a>
</g>
</g>
<!-- Node1&#45;&gt;Node6 -->
<g id="edge9_Node000006_Node000001" class="edge">
<title>Node1&#45;&gt;Node6</title>
<g id="a_edge9_Node000006_Node000001"><a xlink:title=" ">
<path fill="none" stroke="#63b8ff" d="M330.21,-127.26C304.14,-123.86 267.65,-117.1 238,-104 221.51,-96.71 205.06,-83.63 195.21,-75.01"/>
<polygon fill="#63b8ff" stroke="#63b8ff" points="330,-130.76 340.34,-128.49 330.84,-123.81 330,-130.76"/>
</a>
</g>
</g>
<!-- Node7 -->
<g id="Node000007" class="node">
<title>Node7</title>
<g id="a_Node000007"><a xlink:href="classButton.html" target="_top" xlink:title="Represents a button.">
<polygon fill="white" stroke="#666666" points="636.5,-75 587.5,-75 587.5,-56 636.5,-56 636.5,-75"/>
<text text-anchor="middle" x="612" y="-63" font-family="Helvetica,sans-Serif" font-size="10.00">Button</text>
</a>
</g>
</g>
<!-- Node1&#45;&gt;Node7 -->
<g id="edge11_Node000007_Node000001" class="edge">
<title>Node1&#45;&gt;Node7</title>
<g id="a_edge11_Node000007_Node000001"><a xlink:title=" ">
<path fill="none" stroke="#63b8ff" d="M397.7,-122.38C398.47,-122.25 399.24,-122.12 400,-122 423.9,-118.21 600.61,-121.8 617,-104 624.12,-96.27 620.38,-83.55 616.58,-75.1"/>
<polygon fill="#63b8ff" stroke="#63b8ff" points="396.65,-119.02 387.53,-124.41 398.02,-125.89 396.65,-119.02"/>
</a>
</g>
</g>
<!-- Node8 -->
<g id="Node000008" class="node">
<title>Node8</title>
<g id="a_Node000008"><a xlink:href="classInputArea.html" target="_top" xlink:title="Represents an input area.">
<polygon fill="white" stroke="#666666" points="391,-75 327,-75 327,-56 391,-56 391,-75"/>
<text text-anchor="middle" x="359" y="-63" font-family="Helvetica,sans-Serif" font-size="10.00">InputArea</text>
</a>
</g>
</g>
<!-- Node1&#45;&gt;Node8 -->
<g id="edge13_Node000008_Node000001" class="edge">
<title>Node1&#45;&gt;Node8</title>
<g id="a_edge13_Node000008_Node000001"><a xlink:title=" ">
<path fill="none" stroke="#63b8ff" d="M362.52,-111.58C361.59,-99.63 360.42,-84.72 359.7,-75.41"/>
<polygon fill="#63b8ff" stroke="#63b8ff" points="359.06,-112.17 363.33,-121.87 366.04,-111.63 359.06,-112.17"/>
</a>
</g>
</g>
<!-- Node9 -->
<g id="Node000009" class="node">
<title>Node9</title>
<g id="a_Node000009"><a xlink:href="classSelectList.html" target="_top" xlink:title="Represents a selectable list.">
<polygon fill="white" stroke="#666666" points="473,-75 409,-75 409,-56 473,-56 473,-75"/>
<text text-anchor="middle" x="441" y="-63" font-family="Helvetica,sans-Serif" font-size="10.00">SelectList</text>
</a>
</g>
</g>
<!-- Node1&#45;&gt;Node9 -->
<g id="edge15_Node000009_Node000001" class="edge">
<title>Node1&#45;&gt;Node9</title>
<g id="a_edge15_Node000009_Node000001"><a xlink:title=" ">
<path fill="none" stroke="#63b8ff" d="M397.04,-120.83C411.81,-115.89 427.01,-109.72 432,-104 438.95,-96.03 440.75,-83.61 441.11,-75.27"/>
<polygon fill="#63b8ff" stroke="#63b8ff" points="395.96,-117.5 387.51,-123.89 398.1,-124.17 395.96,-117.5"/>
</a>
</g>
</g>
<!-- Node10 -->
<g id="Node000010" class="node">
<title>Node10</title>
<g id="a_Node000010"><a xlink:href="classImageFrame.html" target="_top" xlink:title="Represents an image frame.">
<polygon fill="white" stroke="#666666" points="569,-75 491,-75 491,-56 569,-56 569,-75"/>
<text text-anchor="middle" x="530" y="-63" font-family="Helvetica,sans-Serif" font-size="10.00">ImageFrame</text>
</a>
</g>
</g>
<!-- Node1&#45;&gt;Node10 -->
<g id="edge17_Node000010_Node000001" class="edge">
<title>Node1&#45;&gt;Node10</title>
<g id="a_edge17_Node000010_Node000001"><a xlink:title=" ">
<path fill="none" stroke="#63b8ff" d="M397.7,-122.43C398.48,-122.28 399.24,-122.14 400,-122 431.3,-116.34 520.97,-127.86 542,-104 549.14,-95.9 542.9,-83.51 537.07,-75.22"/>
<polygon fill="#63b8ff" stroke="#63b8ff" points="396.62,-119.08 387.55,-124.56 398.06,-125.93 396.62,-119.08"/>
</a>
</g>
</g>
<!-- Node2 -->
<g id="Node000002" class="node">
<title>Node2</title>
<g id="a_Node000002"><a xlink:href="classNode.html" target="_top" xlink:title="Represents a node in the tree structure.">
<polygon fill="white" stroke="#666666" points="418,-208.5 376,-208.5 376,-189.5 418,-189.5 418,-208.5"/>
<text text-anchor="middle" x="397" y="-196.5" font-family="Helvetica,sans-Serif" font-size="10.00">Node</text>
</a>
</g>
</g>
<!-- Node2&#45;&gt;Node1 -->
<g id="edge1_Node000001_Node000002" class="edge">
<title>Node2&#45;&gt;Node1</title>
<g id="a_edge1_Node000001_Node000002"><a xlink:title=" ">
<path fill="none" stroke="#63b8ff" d="M384.28,-180.62C382.03,-177.19 379.83,-173.55 378,-170 373.09,-160.49 369.02,-148.85 366.56,-141.09"/>
<polygon fill="#63b8ff" stroke="#63b8ff" points="381.52,-182.78 390.09,-189.01 387.27,-178.8 381.52,-182.78"/>
</a>
</g>
</g>
<!-- Node2&#45;&gt;Node2 -->
<g id="edge2_Node000002_Node000002" class="edge">
<title>Node2&#45;&gt;Node2</title>
<g id="a_edge2_Node000002_Node000002"><a xlink:title=" ">
<path fill="none" stroke="#9a32cd" stroke-dasharray="5,2" d="M428.41,-204.74C432.95,-203.83 436,-201.91 436,-199 436,-194.22 427.77,-192.13 418.26,-192.72"/>
<polygon fill="#9a32cd" stroke="#9a32cd" points="428.06,-201.26 418.26,-205.28 428.43,-208.25 428.06,-201.26"/>
</a>
</g>
<text text-anchor="middle" x="457.5" y="-202" font-family="Helvetica,sans-Serif" font-size="10.00" fill="grey"> children</text>
<text text-anchor="middle" x="457.5" y="-191" font-family="Helvetica,sans-Serif" font-size="10.00" fill="grey">parent</text>
</g>
<!-- Node3 -->
<g id="Node000003" class="node">
<title>Node3</title>
<g id="a_Node000003"><a xlink:href="unionBehaviorAttribute.html" target="_top" xlink:title=" ">
<polygon fill="white" stroke="#666666" points="512.5,-141 409.5,-141 409.5,-122 512.5,-122 512.5,-141"/>
<text text-anchor="middle" x="461" y="-129" font-family="Helvetica,sans-Serif" font-size="10.00">BehaviorAttribute</text>
</a>
</g>
</g>
<!-- Node2&#45;&gt;Node3 -->
<g id="edge4_Node000003_Node000002" class="edge">
<title>Node2&#45;&gt;Node3</title>
<g id="a_edge4_Node000003_Node000002"><a xlink:title=" ">
<path fill="none" stroke="#9a32cd" stroke-dasharray="5,2" d="M425.98,-184.49C432.49,-180.49 438.95,-175.65 444,-170 451.53,-161.58 456.24,-149.27 458.74,-141.08"/>
<polygon fill="#9a32cd" stroke="#9a32cd" points="424.22,-181.46 417.21,-189.41 427.64,-187.57 424.22,-181.46"/>
</a>
</g>
<text text-anchor="middle" x="466" y="-162" font-family="Helvetica,sans-Serif" font-size="10.00" fill="grey"> node</text>
</g>
<!-- Node3&#45;&gt;Node2 -->
<g id="edge3_Node000002_Node000003" class="edge">
<title>Node3&#45;&gt;Node2</title>
<g id="a_edge3_Node000002_Node000003"><a xlink:title=" ">
<path fill="none" stroke="#9a32cd" stroke-dasharray="5,2" d="M412.52,-145.74C406.83,-149.19 401.73,-153.53 398,-159 391.89,-167.95 393.03,-180.95 394.74,-189.44"/>
<polygon fill="#9a32cd" stroke="#9a32cd" points="414.5,-148.67 421.84,-141.03 411.33,-142.42 414.5,-148.67"/>
</a>
</g>
<text text-anchor="middle" x="421" y="-162" font-family="Helvetica,sans-Serif" font-size="10.00" fill="grey"> attribute</text>
</g>
<!-- Node4&#45;&gt;Node1 -->
<g id="edge5_Node000001_Node000004" class="edge">
<title>Node4&#45;&gt;Node1</title>
<g id="a_edge5_Node000001_Node000004"><a xlink:title=" ">
<path fill="none" stroke="#9a32cd" stroke-dasharray="5,2" d="M60.75,-85.05C60.31,-91.81 61.32,-99.02 66,-104 84.67,-123.87 273.24,-128.97 340.4,-130.17"/>
<polygon fill="#9a32cd" stroke="#9a32cd" points="64.2,-85.59 62.31,-75.16 57.29,-84.49 64.2,-85.59"/>
</a>
</g>
<text text-anchor="middle" x="83.5" y="-96" font-family="Helvetica,sans-Serif" font-size="10.00" fill="grey"> theme</text>
</g>
<!-- Node5 -->
<g id="Node000005" class="node">
<title>Node5</title>
<g id="a_Node000005"><a xlink:href="structFont.html" target="_top" xlink:title="Represents a font.">
<polygon fill="white" stroke="#666666" points="38,-141 0,-141 0,-122 38,-122 38,-141"/>
<text text-anchor="middle" x="19" y="-129" font-family="Helvetica,sans-Serif" font-size="10.00">Font</text>
</a>
</g>
</g>
<!-- Node5&#45;&gt;Node4 -->
<g id="edge6_Node000004_Node000005" class="edge">
<title>Node5&#45;&gt;Node4</title>
<g id="a_edge6_Node000004_Node000005"><a xlink:title=" ">
<path fill="none" stroke="#9a32cd" stroke-dasharray="5,2" d="M15.97,-111.47C15.86,-105.21 16.78,-98.47 20,-93 24.7,-85.03 32.79,-79.21 40.84,-75.08"/>
<polygon fill="#9a32cd" stroke="#9a32cd" points="12.52,-112.2 16.98,-121.81 19.49,-111.52 12.52,-112.2"/>
</a>
</g>
<text text-anchor="middle" x="31.5" y="-96" font-family="Helvetica,sans-Serif" font-size="10.00" fill="grey"> font</text>
</g>
<!-- Node6&#45;&gt;Node1 -->
<g id="edge8_Node000001_Node000006" class="edge">
<title>Node6&#45;&gt;Node1</title>
<g id="a_edge8_Node000001_Node000006"><a xlink:title=" ">
<path fill="none" stroke="#9a32cd" stroke-dasharray="5,2" d="M178.77,-84.82C177.37,-91.56 177.5,-98.8 182,-104 202.21,-127.37 295.85,-130.55 340.37,-130.71"/>
<polygon fill="#9a32cd" stroke="#9a32cd" points="182.19,-85.61 181.84,-75.02 175.51,-83.52 182.19,-85.61"/>
</a>
</g>
<text text-anchor="middle" x="196" y="-96" font-family="Helvetica,sans-Serif" font-size="10.00" fill="grey"> label</text>
</g>
<!-- Node7&#45;&gt;Node1 -->
<g id="edge10_Node000001_Node000007" class="edge">
<title>Node7&#45;&gt;Node1</title>
<g id="a_edge10_Node000001_Node000007"><a xlink:title=" ">
<path fill="none" stroke="#9a32cd" stroke-dasharray="5,2" d="M594.55,-81.65C584.3,-89.68 570.71,-98.9 557,-104 491.18,-128.5 469.19,-109.91 400,-122 395.95,-122.71 391.68,-123.59 387.54,-124.52"/>
<polygon fill="#9a32cd" stroke="#9a32cd" points="596.77,-84.36 602.3,-75.31 592.34,-78.94 596.77,-84.36"/>
</a>
</g>
<text text-anchor="middle" x="595.5" y="-96" font-family="Helvetica,sans-Serif" font-size="10.00" fill="grey"> button</text>
</g>
<!-- Node11 -->
<g id="Node000011" class="node">
<title>Node11</title>
<g id="a_Node000011"><a xlink:href="classRadioButton.html" target="_top" xlink:title="Represents a radio button.">
<polygon fill="white" stroke="#666666" points="396.5,-19 319.5,-19 319.5,0 396.5,0 396.5,-19"/>
<text text-anchor="middle" x="358" y="-7" font-family="Helvetica,sans-Serif" font-size="10.00">RadioButton</text>
</a>
</g>
</g>
<!-- Node7&#45;&gt;Node11 -->
<g id="edge19_Node000011_Node000007" class="edge">
<title>Node7&#45;&gt;Node11</title>
<g id="a_edge19_Node000011_Node000007"><a xlink:title=" ">
<path fill="none" stroke="#63b8ff" d="M577.37,-55.93C508.1,-40.22 438.69,-26.26 396.65,-18"/>
<polygon fill="#63b8ff" stroke="#63b8ff" points="576.62,-59.35 587.15,-58.16 578.17,-52.53 576.62,-59.35"/>
</a>
</g>
</g>
<!-- Node12 -->
<g id="Node000012" class="node">
<title>Node12</title>
<g id="a_Node000012"><a xlink:href="classSlider.html" target="_top" xlink:title=" ">
<polygon fill="white" stroke="#666666" points="674,-19 630,-19 630,0 674,0 674,-19"/>
<text text-anchor="middle" x="652" y="-7" font-family="Helvetica,sans-Serif" font-size="10.00">Slider</text>
</a>
</g>
</g>
<!-- Node7&#45;&gt;Node12 -->
<g id="edge21_Node000012_Node000007" class="edge">
<title>Node7&#45;&gt;Node12</title>
<g id="a_edge21_Node000012_Node000007"><a xlink:title=" ">
<path fill="none" stroke="#63b8ff" d="M624.7,-47.36C631.63,-38 639.91,-26.83 645.52,-19.25"/>
<polygon fill="#63b8ff" stroke="#63b8ff" points="621.75,-45.46 618.61,-55.58 627.37,-49.63 621.75,-45.46"/>
</a>
</g>
</g>
<!-- Node8&#45;&gt;Node1 -->
<g id="edge12_Node000001_Node000008" class="edge">
<title>Node8&#45;&gt;Node1</title>
<g id="a_edge12_Node000001_Node000008"><a xlink:title=" ">
<path fill="none" stroke="#9a32cd" stroke-dasharray="5,2" d="M317.01,-76.52C301.87,-81.06 287.41,-86.79 283,-93 280.17,-96.99 280.13,-100.04 283,-104 295.94,-121.85 321.26,-127.9 340.16,-129.84"/>
<polygon fill="#9a32cd" stroke="#9a32cd" points="318.27,-79.8 326.95,-73.73 316.38,-73.07 318.27,-79.8"/>
</a>
</g>
<text text-anchor="middle" x="308.5" y="-96" font-family="Helvetica,sans-Serif" font-size="10.00" fill="grey"> inputArea</text>
</g>
<!-- Node9&#45;&gt;Node1 -->
<g id="edge14_Node000001_Node000009" class="edge">
<title>Node9&#45;&gt;Node1</title>
<g id="a_edge14_Node000001_Node000009"><a xlink:title=" ">
<path fill="none" stroke="#9a32cd" stroke-dasharray="5,2" d="M402.26,-79.19C394.93,-82.83 387.77,-87.38 382,-93 373.83,-100.97 368.89,-113.38 366.3,-121.72"/>
<polygon fill="#9a32cd" stroke="#9a32cd" points="403.83,-82.32 411.54,-75.05 400.98,-75.93 403.83,-82.32"/>
</a>
</g>
<text text-anchor="middle" x="407" y="-96" font-family="Helvetica,sans-Serif" font-size="10.00" fill="grey"> selectList</text>
</g>
<!-- Node10&#45;&gt;Node1 -->
<g id="edge16_Node000001_Node000010" class="edge">
<title>Node10&#45;&gt;Node1</title>
<g id="a_edge16_Node000001_Node000010"><a xlink:title=" ">
<path fill="none" stroke="#9a32cd" stroke-dasharray="5,2" d="M504.12,-79.54C488.4,-87.2 467.8,-96.75 449,-104 428.66,-111.84 404.94,-119.08 387.74,-124.01"/>
<polygon fill="#9a32cd" stroke="#9a32cd" points="505.79,-82.62 513.21,-75.06 502.7,-76.34 505.79,-82.62"/>
</a>
</g>
<text text-anchor="middle" x="505.5" y="-96" font-family="Helvetica,sans-Serif" font-size="10.00" fill="grey"> imageFrame</text>
</g>
<!-- Node11&#45;&gt;Node1 -->
<g id="edge18_Node000001_Node000011" class="edge">
<title>Node11&#45;&gt;Node1</title>
<g id="a_edge18_Node000001_Node000011"><a xlink:title=" ">
<path fill="none" stroke="#9a32cd" stroke-dasharray="5,2" d="M309.68,-20.43C290.17,-27.07 269.57,-38.03 258,-56 253.43,-63.1 255.59,-66.91 258,-75 262.41,-89.77 264.67,-94.76 277,-104 295.57,-117.92 321.5,-124.59 340.22,-127.75"/>
<polygon fill="#9a32cd" stroke="#9a32cd" points="310.91,-23.72 319.43,-17.42 308.84,-17.03 310.91,-23.72"/>
</a>
</g>
<text text-anchor="middle" x="288" y="-63" font-family="Helvetica,sans-Serif" font-size="10.00" fill="grey"> radiobutton</text>
</g>
<!-- Node12&#45;&gt;Node1 -->
<g id="edge20_Node000001_Node000012" class="edge">
<title>Node12&#45;&gt;Node1</title>
<g id="a_edge20_Node000001_Node000012"><a xlink:title=" ">
<path fill="none" stroke="#9a32cd" stroke-dasharray="5,2" d="M654.79,-29.46C656.85,-51.75 656.07,-87.76 633,-104 590.53,-133.89 451.31,-114.01 400,-122 395.94,-122.63 391.66,-123.48 387.52,-124.4"/>
<polygon fill="#9a32cd" stroke="#9a32cd" points="658.23,-28.74 653.56,-19.23 651.28,-29.58 658.23,-28.74"/>
</a>
</g>
<text text-anchor="middle" x="670.5" y="-63" font-family="Helvetica,sans-Serif" font-size="10.00" fill="grey"> slider</text>
</g>
</g>
</svg>
