<?xml version="1.0" encoding="UTF-8" standalone="no"?>
<!DOCTYPE svg PUBLIC "-//W3C//DTD SVG 1.1//EN"
 "http://www.w3.org/Graphics/SVG/1.1/DTD/svg11.dtd">
<!-- Generated by graphviz version 2.43.0 (0)
 -->
<!-- Title: CShape Pages: 1 -->
<svg width="582pt" height="137pt"
 viewBox="0.00 0.00 581.50 137.00" xmlns="http://www.w3.org/2000/svg" xmlns:xlink="http://www.w3.org/1999/xlink">
<g id="graph0" class="graph" transform="scale(1 1) rotate(0) translate(4 133)">
<title>CShape</title>
<!-- Node1 -->
<g id="Node000001" class="node">
<title>Node1</title>
<g id="a_Node000001"><a xlink:title=" ">
<polygon fill="#999999" stroke="#666666" points="315.5,-74 262.5,-74 262.5,-55 315.5,-55 315.5,-74"/>
<text text-anchor="middle" x="289" y="-62" font-family="Helvetica,sans-Serif" font-size="10.00">CShape</text>
</a>
</g>
</g>
<!-- Node3 -->
<g id="Node000003" class="node">
<title>Node3</title>
<g id="a_Node000003"><a xlink:href="classBoxCShape.html" target="_top" xlink:title=" ">
<polygon fill="white" stroke="#666666" points="72,-19 0,-19 0,0 72,0 72,-19"/>
<text text-anchor="middle" x="36" y="-7" font-family="Helvetica,sans-Serif" font-size="10.00">BoxCShape</text>
</a>
</g>
</g>
<!-- Node1&#45;&gt;Node3 -->
<g id="edge2_Node000001_Node000003" class="edge">
<title>Node1&#45;&gt;Node3</title>
<g id="a_edge2_Node000001_Node000003"><a xlink:title=" ">
<path fill="none" stroke="#63b8ff" d="M252.43,-55.84C204.34,-45.76 120.35,-28.17 72.37,-18.12"/>
<polygon fill="#63b8ff" stroke="#63b8ff" points="251.9,-59.3 262.4,-57.93 253.33,-52.45 251.9,-59.3"/>
</a>
</g>
</g>
<!-- Node4 -->
<g id="Node000004" class="node">
<title>Node4</title>
<g id="a_Node000004"><a xlink:href="classCapsuleCShape.html" target="_top" xlink:title=" ">
<polygon fill="white" stroke="#666666" points="182,-19 90,-19 90,0 182,0 182,-19"/>
<text text-anchor="middle" x="136" y="-7" font-family="Helvetica,sans-Serif" font-size="10.00">CapsuleCShape</text>
</a>
</g>
</g>
<!-- Node1&#45;&gt;Node4 -->
<g id="edge3_Node000001_Node000004" class="edge">
<title>Node1&#45;&gt;Node4</title>
<g id="a_edge3_Node000001_Node000004"><a xlink:title=" ">
<path fill="none" stroke="#63b8ff" d="M254.85,-51.67C226.32,-41.79 186.31,-27.93 160.77,-19.08"/>
<polygon fill="#63b8ff" stroke="#63b8ff" points="253.82,-55.02 264.42,-54.98 256.11,-48.4 253.82,-55.02"/>
</a>
</g>
</g>
<!-- Node5 -->
<g id="Node000005" class="node">
<title>Node5</title>
<g id="a_Node000005"><a xlink:href="classMeshCShape.html" target="_top" xlink:title=" ">
<polygon fill="white" stroke="#666666" points="280,-19 200,-19 200,0 280,0 280,-19"/>
<text text-anchor="middle" x="240" y="-7" font-family="Helvetica,sans-Serif" font-size="10.00">MeshCShape</text>
</a>
</g>
</g>
<!-- Node1&#45;&gt;Node5 -->
<g id="edge4_Node000001_Node000005" class="edge">
<title>Node1&#45;&gt;Node5</title>
<g id="a_edge4_Node000001_Node000005"><a xlink:title=" ">
<path fill="none" stroke="#63b8ff" d="M273.97,-47.24C265.38,-37.95 254.96,-26.68 247.94,-19.09"/>
<polygon fill="#63b8ff" stroke="#63b8ff" points="271.55,-49.78 280.91,-54.75 276.69,-45.03 271.55,-49.78"/>
</a>
</g>
</g>
<!-- Node6 -->
<g id="Node000006" class="node">
<title>Node6</title>
<g id="a_Node000006"><a xlink:href="classPlaneCShape.html" target="_top" xlink:title=" ">
<polygon fill="white" stroke="#666666" points="378,-19 298,-19 298,0 378,0 378,-19"/>
<text text-anchor="middle" x="338" y="-7" font-family="Helvetica,sans-Serif" font-size="10.00">PlaneCShape</text>
</a>
</g>
</g>
<!-- Node1&#45;&gt;Node6 -->
<g id="edge5_Node000001_Node000006" class="edge">
<title>Node1&#45;&gt;Node6</title>
<g id="a_edge5_Node000001_Node000006"><a xlink:title=" ">
<path fill="none" stroke="#63b8ff" d="M304.03,-47.24C312.62,-37.95 323.04,-26.68 330.06,-19.09"/>
<polygon fill="#63b8ff" stroke="#63b8ff" points="301.31,-45.03 297.09,-54.75 306.45,-49.78 301.31,-45.03"/>
</a>
</g>
</g>
<!-- Node7 -->
<g id="Node000007" class="node">
<title>Node7</title>
<g id="a_Node000007"><a xlink:href="classRayCShape.html" target="_top" xlink:title=" ">
<polygon fill="white" stroke="#666666" points="468,-19 396,-19 396,0 468,0 468,-19"/>
<text text-anchor="middle" x="432" y="-7" font-family="Helvetica,sans-Serif" font-size="10.00">RayCShape</text>
</a>
</g>
</g>
<!-- Node1&#45;&gt;Node7 -->
<g id="edge6_Node000001_Node000007" class="edge">
<title>Node1&#45;&gt;Node7</title>
<g id="a_edge6_Node000001_Node000007"><a xlink:title=" ">
<path fill="none" stroke="#63b8ff" d="M321.59,-51.42C348.12,-41.59 384.93,-27.95 408.61,-19.17"/>
<polygon fill="#63b8ff" stroke="#63b8ff" points="320.14,-48.23 311.98,-54.98 322.57,-54.79 320.14,-48.23"/>
</a>
</g>
</g>
<!-- Node8 -->
<g id="Node000008" class="node">
<title>Node8</title>
<g id="a_Node000008"><a xlink:href="classSphereCShape.html" target="_top" xlink:title=" ">
<polygon fill="white" stroke="#666666" points="573.5,-19 486.5,-19 486.5,0 573.5,0 573.5,-19"/>
<text text-anchor="middle" x="530" y="-7" font-family="Helvetica,sans-Serif" font-size="10.00">SphereCShape</text>
</a>
</g>
</g>
<!-- Node1&#45;&gt;Node8 -->
<g id="edge7_Node000001_Node000008" class="edge">
<title>Node1&#45;&gt;Node8</title>
<g id="a_edge7_Node000001_Node000008"><a xlink:title=" ">
<path fill="none" stroke="#63b8ff" d="M325.57,-55.46C370.27,-45.63 445.59,-29.06 491.25,-19.02"/>
<polygon fill="#63b8ff" stroke="#63b8ff" points="324.73,-52.06 315.71,-57.63 326.23,-58.9 324.73,-52.06"/>
</a>
</g>
</g>
<!-- Node2 -->
<g id="Node000002" class="node">
<title>Node2</title>
<g id="a_Node000002"><a xlink:href="classNode.html" target="_top" xlink:title="Represents a node in the tree structure.">
<polygon fill="white" stroke="#666666" points="310,-129 268,-129 268,-110 310,-110 310,-129"/>
<text text-anchor="middle" x="289" y="-117" font-family="Helvetica,sans-Serif" font-size="10.00">Node</text>
</a>
</g>
</g>
<!-- Node2&#45;&gt;Node1 -->
<g id="edge1_Node000001_Node000002" class="edge">
<title>Node2&#45;&gt;Node1</title>
<g id="a_edge1_Node000001_Node000002"><a xlink:title=" ">
<path fill="none" stroke="#63b8ff" d="M289,-99.66C289,-90.93 289,-80.99 289,-74.09"/>
<polygon fill="#63b8ff" stroke="#63b8ff" points="285.5,-99.75 289,-109.75 292.5,-99.75 285.5,-99.75"/>
</a>
</g>
</g>
</g>
</svg>
