<?xml version="1.0" encoding="UTF-8" standalone="no"?>
<!DOCTYPE svg PUBLIC "-//W3C//DTD SVG 1.1//EN"
 "http://www.w3.org/Graphics/SVG/1.1/DTD/svg11.dtd">
<!-- Generated by graphviz version 2.43.0 (0)
 -->
<!-- Title: RadioButton Pages: 1 -->
<svg width="822pt" height="218pt"
 viewBox="0.00 0.00 821.50 218.00" xmlns="http://www.w3.org/2000/svg" xmlns:xlink="http://www.w3.org/1999/xlink">
<g id="graph0" class="graph" transform="scale(1 1) rotate(0) translate(4 214)">
<title>RadioButton</title>
<!-- Node1 -->
<g id="Node000001" class="node">
<title>Node1</title>
<g id="a_Node000001"><a xlink:title="Represents a radio button.">
<polygon fill="#999999" stroke="#666666" points="658.5,-208.5 581.5,-208.5 581.5,-189.5 658.5,-189.5 658.5,-208.5"/>
<text text-anchor="middle" x="620" y="-196.5" font-family="Helvetica,sans-Serif" font-size="10.00">RadioButton</text>
</a>
</g>
</g>
<!-- Node3 -->
<g id="Node000003" class="node">
<title>Node3</title>
<g id="a_Node000003"><a xlink:href="classFrame.html" target="_top" xlink:title="Represents a frame.">
<polygon fill="white" stroke="#666666" points="404.5,-141 357.5,-141 357.5,-122 404.5,-122 404.5,-141"/>
<text text-anchor="middle" x="381" y="-129" font-family="Helvetica,sans-Serif" font-size="10.00">Frame</text>
</a>
</g>
</g>
<!-- Node1&#45;&gt;Node3 -->
<g id="edge19_Node000003_Node000001" class="edge">
<title>Node1&#45;&gt;Node3</title>
<g id="a_edge19_Node000003_Node000001"><a xlink:title=" ">
<path fill="none" stroke="#9a32cd" stroke-dasharray="5,2" d="M578.86,-186.73C528.61,-172.95 445.28,-150.12 404.69,-138.99"/>
<polygon fill="#9a32cd" stroke="#9a32cd" points="578.19,-190.17 588.75,-189.44 580.04,-183.42 578.19,-190.17"/>
</a>
</g>
<text text-anchor="middle" x="545" y="-162" font-family="Helvetica,sans-Serif" font-size="10.00" fill="grey"> radiobutton</text>
</g>
<!-- Node2 -->
<g id="Node000002" class="node">
<title>Node2</title>
<g id="a_Node000002"><a xlink:href="classButton.html" target="_top" xlink:title="Represents a button.">
<polygon fill="white" stroke="#666666" points="657.5,-75 608.5,-75 608.5,-56 657.5,-56 657.5,-75"/>
<text text-anchor="middle" x="633" y="-63" font-family="Helvetica,sans-Serif" font-size="10.00">Button</text>
</a>
</g>
</g>
<!-- Node2&#45;&gt;Node1 -->
<g id="edge1_Node000001_Node000002" class="edge">
<title>Node2&#45;&gt;Node1</title>
<g id="a_edge1_Node000001_Node000002"><a xlink:title=" ">
<path fill="none" stroke="#63b8ff" d="M646.01,-83.77C647.65,-86.72 649.08,-89.85 650,-93 651.38,-97.69 650.75,-99.17 650,-104 644.94,-136.5 630.59,-173.12 623.74,-189.41"/>
<polygon fill="#63b8ff" stroke="#63b8ff" points="648.79,-81.63 640.38,-75.18 642.93,-85.47 648.79,-81.63"/>
</a>
</g>
</g>
<!-- Node2&#45;&gt;Node3 -->
<g id="edge12_Node000003_Node000002" class="edge">
<title>Node2&#45;&gt;Node3</title>
<g id="a_edge12_Node000003_Node000002"><a xlink:title=" ">
<path fill="none" stroke="#9a32cd" stroke-dasharray="5,2" d="M620.52,-83.1C613.83,-90.76 604.92,-99.19 595,-104 561.81,-120.07 452.98,-127.1 404.57,-129.49"/>
<polygon fill="#9a32cd" stroke="#9a32cd" points="623.27,-85.27 626.86,-75.31 617.83,-80.86 623.27,-85.27"/>
</a>
</g>
<text text-anchor="middle" x="628.5" y="-96" font-family="Helvetica,sans-Serif" font-size="10.00" fill="grey"> button</text>
</g>
<!-- Node12 -->
<g id="Node000012" class="node">
<title>Node12</title>
<g id="a_Node000012"><a xlink:href="classSlider.html" target="_top" xlink:title=" ">
<polygon fill="white" stroke="#666666" points="593,-19 549,-19 549,0 593,0 593,-19"/>
<text text-anchor="middle" x="571" y="-7" font-family="Helvetica,sans-Serif" font-size="10.00">Slider</text>
</a>
</g>
</g>
<!-- Node2&#45;&gt;Node12 -->
<g id="edge21_Node000012_Node000002" class="edge">
<title>Node2&#45;&gt;Node12</title>
<g id="a_edge21_Node000012_Node000002"><a xlink:title=" ">
<path fill="none" stroke="#63b8ff" d="M615.25,-49.04C604.19,-39.41 590.37,-27.37 581.14,-19.33"/>
<polygon fill="#63b8ff" stroke="#63b8ff" points="613.2,-51.9 623.04,-55.82 617.8,-46.62 613.2,-51.9"/>
</a>
</g>
</g>
<!-- Node3&#45;&gt;Node2 -->
<g id="edge2_Node000002_Node000003" class="edge">
<title>Node3&#45;&gt;Node2</title>
<g id="a_edge2_Node000002_Node000003"><a xlink:title=" ">
<path fill="none" stroke="#63b8ff" d="M414.85,-129.77C453.42,-128.03 517.86,-122.33 570,-104 589.45,-97.16 609.51,-83.96 621.62,-75.19"/>
<polygon fill="#63b8ff" stroke="#63b8ff" points="414.54,-126.28 404.69,-130.16 414.81,-133.27 414.54,-126.28"/>
</a>
</g>
</g>
<!-- Node6 -->
<g id="Node000006" class="node">
<title>Node6</title>
<g id="a_Node000006"><a xlink:href="structTheme.html" target="_top" xlink:title="Represents a theme.">
<polygon fill="white" stroke="#666666" points="90,-75 40,-75 40,-56 90,-56 90,-75"/>
<text text-anchor="middle" x="65" y="-63" font-family="Helvetica,sans-Serif" font-size="10.00">Theme</text>
</a>
</g>
</g>
<!-- Node3&#45;&gt;Node6 -->
<g id="edge9_Node000006_Node000003" class="edge">
<title>Node3&#45;&gt;Node6</title>
<g id="a_edge9_Node000006_Node000003"><a xlink:title=" ">
<path fill="none" stroke="#9a32cd" stroke-dasharray="5,2" d="M347.32,-129.15C303.57,-126.78 225.07,-120.45 160,-104 132.15,-96.96 101.51,-83.81 82.76,-75.11"/>
<polygon fill="#9a32cd" stroke="#9a32cd" points="347.25,-132.65 357.41,-129.65 347.6,-125.65 347.25,-132.65"/>
</a>
</g>
<text text-anchor="middle" x="177.5" y="-96" font-family="Helvetica,sans-Serif" font-size="10.00" fill="grey"> parent</text>
</g>
<!-- Node8 -->
<g id="Node000008" class="node">
<title>Node8</title>
<g id="a_Node000008"><a xlink:href="classLabel.html" target="_top" xlink:title="Represents a label.">
<polygon fill="white" stroke="#666666" points="196.5,-75 153.5,-75 153.5,-56 196.5,-56 196.5,-75"/>
<text text-anchor="middle" x="175" y="-63" font-family="Helvetica,sans-Serif" font-size="10.00">Label</text>
</a>
</g>
</g>
<!-- Node3&#45;&gt;Node8 -->
<g id="edge11_Node000008_Node000003" class="edge">
<title>Node3&#45;&gt;Node8</title>
<g id="a_edge11_Node000008_Node000003"><a xlink:title=" ">
<path fill="none" stroke="#63b8ff" d="M347.31,-130.82C312.49,-129.88 257.39,-124.78 215,-104 201.15,-97.21 188.81,-84 181.62,-75.21"/>
<polygon fill="#63b8ff" stroke="#63b8ff" points="347.37,-134.32 357.43,-130.99 347.49,-127.32 347.37,-134.32"/>
</a>
</g>
</g>
<!-- Node9 -->
<g id="Node000009" class="node">
<title>Node9</title>
<g id="a_Node000009"><a xlink:href="classInputArea.html" target="_top" xlink:title="Represents an input area.">
<polygon fill="white" stroke="#666666" points="289,-75 225,-75 225,-56 289,-56 289,-75"/>
<text text-anchor="middle" x="257" y="-63" font-family="Helvetica,sans-Serif" font-size="10.00">InputArea</text>
</a>
</g>
</g>
<!-- Node3&#45;&gt;Node9 -->
<g id="edge14_Node000009_Node000003" class="edge">
<title>Node3&#45;&gt;Node9</title>
<g id="a_edge14_Node000009_Node000003"><a xlink:title=" ">
<path fill="none" stroke="#63b8ff" d="M347.28,-127.25C327.14,-123.95 301.89,-117.32 283,-104 272.64,-96.69 265.08,-83.87 260.86,-75.28"/>
<polygon fill="#63b8ff" stroke="#63b8ff" points="346.89,-130.73 357.29,-128.68 347.89,-123.8 346.89,-130.73"/>
</a>
</g>
</g>
<!-- Node10 -->
<g id="Node000010" class="node">
<title>Node10</title>
<g id="a_Node000010"><a xlink:href="classSelectList.html" target="_top" xlink:title="Represents a selectable list.">
<polygon fill="white" stroke="#666666" points="384,-75 320,-75 320,-56 384,-56 384,-75"/>
<text text-anchor="middle" x="352" y="-63" font-family="Helvetica,sans-Serif" font-size="10.00">SelectList</text>
</a>
</g>
</g>
<!-- Node3&#45;&gt;Node10 -->
<g id="edge16_Node000010_Node000003" class="edge">
<title>Node3&#45;&gt;Node10</title>
<g id="a_edge16_Node000010_Node000003"><a xlink:title=" ">
<path fill="none" stroke="#63b8ff" d="M367.39,-113.38C365.39,-110.36 363.5,-107.17 362,-104 357.57,-94.62 354.85,-82.95 353.39,-75.15"/>
<polygon fill="#63b8ff" stroke="#63b8ff" points="364.73,-115.67 373.45,-121.69 370.38,-111.55 364.73,-115.67"/>
</a>
</g>
</g>
<!-- Node11 -->
<g id="Node000011" class="node">
<title>Node11</title>
<g id="a_Node000011"><a xlink:href="classImageFrame.html" target="_top" xlink:title="Represents an image frame.">
<polygon fill="white" stroke="#666666" points="501,-75 423,-75 423,-56 501,-56 501,-75"/>
<text text-anchor="middle" x="462" y="-63" font-family="Helvetica,sans-Serif" font-size="10.00">ImageFrame</text>
</a>
</g>
</g>
<!-- Node3&#45;&gt;Node11 -->
<g id="edge18_Node000011_Node000003" class="edge">
<title>Node3&#45;&gt;Node11</title>
<g id="a_edge18_Node000011_Node000003"><a xlink:title=" ">
<path fill="none" stroke="#63b8ff" d="M404.83,-116.64C410.92,-112.78 417.34,-108.43 423,-104 434.54,-94.97 446.5,-83.02 454.08,-75.06"/>
<polygon fill="#63b8ff" stroke="#63b8ff" points="402.97,-113.68 396.27,-121.89 406.63,-119.64 402.97,-113.68"/>
</a>
</g>
</g>
<!-- Node4 -->
<g id="Node000004" class="node">
<title>Node4</title>
<g id="a_Node000004"><a xlink:href="classNode.html" target="_top" xlink:title="Represents a node in the tree structure.">
<polygon fill="white" stroke="#666666" points="746,-208.5 704,-208.5 704,-189.5 746,-189.5 746,-208.5"/>
<text text-anchor="middle" x="725" y="-196.5" font-family="Helvetica,sans-Serif" font-size="10.00">Node</text>
</a>
</g>
</g>
<!-- Node4&#45;&gt;Node3 -->
<g id="edge3_Node000003_Node000004" class="edge">
<title>Node4&#45;&gt;Node3</title>
<g id="a_edge3_Node000003_Node000004"><a xlink:title=" ">
<path fill="none" stroke="#63b8ff" d="M694.25,-188.56C664.89,-179.83 619.28,-167.04 579,-159 516.59,-146.54 441.92,-138.33 404.63,-134.67"/>
<polygon fill="#63b8ff" stroke="#63b8ff" points="693.34,-191.94 703.92,-191.46 695.35,-185.23 693.34,-191.94"/>
</a>
</g>
</g>
<!-- Node4&#45;&gt;Node4 -->
<g id="edge4_Node000004_Node000004" class="edge">
<title>Node4&#45;&gt;Node4</title>
<g id="a_edge4_Node000004_Node000004"><a xlink:title=" ">
<path fill="none" stroke="#9a32cd" stroke-dasharray="5,2" d="M756.41,-204.74C760.95,-203.83 764,-201.91 764,-199 764,-194.22 755.77,-192.13 746.26,-192.72"/>
<polygon fill="#9a32cd" stroke="#9a32cd" points="756.06,-201.26 746.26,-205.28 756.43,-208.25 756.06,-201.26"/>
</a>
</g>
<text text-anchor="middle" x="785.5" y="-202" font-family="Helvetica,sans-Serif" font-size="10.00" fill="grey"> children</text>
<text text-anchor="middle" x="785.5" y="-191" font-family="Helvetica,sans-Serif" font-size="10.00" fill="grey">parent</text>
</g>
<!-- Node5 -->
<g id="Node000005" class="node">
<title>Node5</title>
<g id="a_Node000005"><a xlink:href="unionBehaviorAttribute.html" target="_top" xlink:title=" ">
<polygon fill="white" stroke="#666666" points="813.5,-141 710.5,-141 710.5,-122 813.5,-122 813.5,-141"/>
<text text-anchor="middle" x="762" y="-129" font-family="Helvetica,sans-Serif" font-size="10.00">BehaviorAttribute</text>
</a>
</g>
</g>
<!-- Node4&#45;&gt;Node5 -->
<g id="edge6_Node000005_Node000004" class="edge">
<title>Node4&#45;&gt;Node5</title>
<g id="a_edge6_Node000005_Node000004"><a xlink:title=" ">
<path fill="none" stroke="#9a32cd" stroke-dasharray="5,2" d="M719.54,-179.6C718.53,-172.78 718.67,-165.2 722,-159 726.18,-151.22 733.75,-145.34 741.2,-141.12"/>
<polygon fill="#9a32cd" stroke="#9a32cd" points="716.14,-180.42 721.79,-189.39 722.96,-178.86 716.14,-180.42"/>
</a>
</g>
<text text-anchor="middle" x="736" y="-162" font-family="Helvetica,sans-Serif" font-size="10.00" fill="grey"> node</text>
</g>
<!-- Node5&#45;&gt;Node4 -->
<g id="edge5_Node000004_Node000005" class="edge">
<title>Node5&#45;&gt;Node4</title>
<g id="a_edge5_Node000004_Node000005"><a xlink:title=" ">
<path fill="none" stroke="#9a32cd" stroke-dasharray="5,2" d="M760.22,-151.3C759.06,-157.53 757.15,-164.32 754,-170 749.79,-177.59 742.85,-184.39 736.82,-189.4"/>
<polygon fill="#9a32cd" stroke="#9a32cd" points="763.73,-151.42 761.6,-141.04 756.8,-150.48 763.73,-151.42"/>
</a>
</g>
<text text-anchor="middle" x="781" y="-162" font-family="Helvetica,sans-Serif" font-size="10.00" fill="grey"> attribute</text>
</g>
<!-- Node6&#45;&gt;Node3 -->
<g id="edge7_Node000003_Node000006" class="edge">
<title>Node6&#45;&gt;Node3</title>
<g id="a_edge7_Node000003_Node000006"><a xlink:title=" ">
<path fill="none" stroke="#9a32cd" stroke-dasharray="5,2" d="M60.73,-85.06C60.29,-91.83 61.3,-99.03 66,-104 85.88,-125.05 286.98,-129.4 357.06,-130.28"/>
<polygon fill="#9a32cd" stroke="#9a32cd" points="64.19,-85.59 62.3,-75.17 57.28,-84.5 64.19,-85.59"/>
</a>
</g>
<text text-anchor="middle" x="83.5" y="-96" font-family="Helvetica,sans-Serif" font-size="10.00" fill="grey"> theme</text>
</g>
<!-- Node7 -->
<g id="Node000007" class="node">
<title>Node7</title>
<g id="a_Node000007"><a xlink:href="structFont.html" target="_top" xlink:title="Represents a font.">
<polygon fill="white" stroke="#666666" points="38,-141 0,-141 0,-122 38,-122 38,-141"/>
<text text-anchor="middle" x="19" y="-129" font-family="Helvetica,sans-Serif" font-size="10.00">Font</text>
</a>
</g>
</g>
<!-- Node7&#45;&gt;Node6 -->
<g id="edge8_Node000006_Node000007" class="edge">
<title>Node7&#45;&gt;Node6</title>
<g id="a_edge8_Node000006_Node000007"><a xlink:title=" ">
<path fill="none" stroke="#9a32cd" stroke-dasharray="5,2" d="M15.97,-111.47C15.86,-105.21 16.78,-98.47 20,-93 24.7,-85.03 32.79,-79.21 40.84,-75.08"/>
<polygon fill="#9a32cd" stroke="#9a32cd" points="12.52,-112.2 16.98,-121.81 19.49,-111.52 12.52,-112.2"/>
</a>
</g>
<text text-anchor="middle" x="31.5" y="-96" font-family="Helvetica,sans-Serif" font-size="10.00" fill="grey"> font</text>
</g>
<!-- Node8&#45;&gt;Node3 -->
<g id="edge10_Node000003_Node000008" class="edge">
<title>Node8&#45;&gt;Node3</title>
<g id="a_edge10_Node000003_Node000008"><a xlink:title=" ">
<path fill="none" stroke="#9a32cd" stroke-dasharray="5,2" d="M196.27,-80.98C208.79,-88.88 225.23,-98.21 241,-104 280.36,-118.45 328.97,-125.38 357.33,-128.42"/>
<polygon fill="#9a32cd" stroke="#9a32cd" points="197.82,-77.82 187.53,-75.3 194.01,-83.69 197.82,-77.82"/>
</a>
</g>
<text text-anchor="middle" x="255" y="-96" font-family="Helvetica,sans-Serif" font-size="10.00" fill="grey"> label</text>
</g>
<!-- Node9&#45;&gt;Node3 -->
<g id="edge13_Node000003_Node000009" class="edge">
<title>Node9&#45;&gt;Node3</title>
<g id="a_edge13_Node000003_Node000009"><a xlink:title=" ">
<path fill="none" stroke="#9a32cd" stroke-dasharray="5,2" d="M273.31,-82.21C281.67,-89.61 292.32,-98.09 303,-104 320.14,-113.49 341.27,-120.41 357.22,-124.8"/>
<polygon fill="#9a32cd" stroke="#9a32cd" points="275.53,-79.5 265.8,-75.31 270.8,-84.66 275.53,-79.5"/>
</a>
</g>
<text text-anchor="middle" x="328.5" y="-96" font-family="Helvetica,sans-Serif" font-size="10.00" fill="grey"> inputArea</text>
</g>
<!-- Node10&#45;&gt;Node3 -->
<g id="edge15_Node000003_Node000010" class="edge">
<title>Node10&#45;&gt;Node3</title>
<g id="a_edge15_Node000003_Node000010"><a xlink:title=" ">
<path fill="none" stroke="#9a32cd" stroke-dasharray="5,2" d="M360.23,-84.66C365.76,-96.86 372.79,-112.38 377.09,-121.87"/>
<polygon fill="#9a32cd" stroke="#9a32cd" points="363.35,-83.07 356.04,-75.41 356.97,-85.96 363.35,-83.07"/>
</a>
</g>
<text text-anchor="middle" x="394" y="-96" font-family="Helvetica,sans-Serif" font-size="10.00" fill="grey"> selectList</text>
</g>
<!-- Node11&#45;&gt;Node3 -->
<g id="edge17_Node000003_Node000011" class="edge">
<title>Node11&#45;&gt;Node3</title>
<g id="a_edge17_Node000003_Node000011"><a xlink:title=" ">
<path fill="none" stroke="#9a32cd" stroke-dasharray="5,2" d="M463.33,-85.4C462.86,-91.91 461.2,-98.85 457,-104 444.29,-119.6 421.83,-126.03 404.61,-128.68"/>
<polygon fill="#9a32cd" stroke="#9a32cd" points="466.83,-85.21 463.25,-75.24 459.83,-85.27 466.83,-85.21"/>
</a>
</g>
<text text-anchor="middle" x="495.5" y="-96" font-family="Helvetica,sans-Serif" font-size="10.00" fill="grey"> imageFrame</text>
</g>
<!-- Node12&#45;&gt;Node3 -->
<g id="edge20_Node000003_Node000012" class="edge">
<title>Node12&#45;&gt;Node3</title>
<g id="a_edge20_Node000003_Node000012"><a xlink:title=" ">
<path fill="none" stroke="#9a32cd" stroke-dasharray="5,2" d="M568.57,-29.24C564.74,-50.76 555.17,-85.47 532,-104 512.72,-119.42 442.1,-126.41 404.66,-129.09"/>
<polygon fill="#9a32cd" stroke="#9a32cd" points="572.07,-29.51 570.13,-19.09 565.15,-28.44 572.07,-29.51"/>
</a>
</g>
<text text-anchor="middle" x="577.5" y="-63" font-family="Helvetica,sans-Serif" font-size="10.00" fill="grey"> slider</text>
</g>
</g>
</svg>
