<?xml version="1.0" encoding="UTF-8" standalone="no"?>
<!DOCTYPE svg PUBLIC "-//W3C//DTD SVG 1.1//EN"
 "http://www.w3.org/Graphics/SVG/1.1/DTD/svg11.dtd">
<!-- Generated by graphviz version 2.43.0 (0)
 -->
<!-- Title: Camera Pages: 1 -->
<svg width="184pt" height="96pt"
 viewBox="0.00 0.00 184.00 96.00" xmlns="http://www.w3.org/2000/svg" xmlns:xlink="http://www.w3.org/1999/xlink">
<g id="graph0" class="graph" transform="scale(1 1) rotate(0) translate(4 92)">
<title>Camera</title>
<!-- Node1 -->
<g id="Node000001" class="node">
<title>Node1</title>
<g id="a_Node000001"><a xlink:title="A structure to represent a camera with position and rotation in 3D space.">
<polygon fill="#999999" stroke="#666666" points="55,-19 0,-19 0,0 55,0 55,-19"/>
<text text-anchor="middle" x="27.5" y="-7" font-family="Helvetica,sans-Serif" font-size="10.00">Camera</text>
</a>
</g>
</g>
<!-- Node2 -->
<g id="Node000002" class="node">
<title>Node2</title>
<g id="a_Node000002"><a xlink:href="classNode.html" target="_top" xlink:title="Represents a node in the tree structure.">
<polygon fill="white" stroke="#666666" points="94.5,-86.5 52.5,-86.5 52.5,-67.5 94.5,-67.5 94.5,-86.5"/>
<text text-anchor="middle" x="73.5" y="-74.5" font-family="Helvetica,sans-Serif" font-size="10.00">Node</text>
</a>
</g>
</g>
<!-- Node2&#45;&gt;Node1 -->
<g id="edge1_Node000001_Node000002" class="edge">
<title>Node2&#45;&gt;Node1</title>
<g id="a_edge1_Node000001_Node000002"><a xlink:title=" ">
<path fill="none" stroke="#63b8ff" d="M60,-59.36C57.13,-55.67 54.16,-51.74 51.5,-48 44.7,-38.42 37.51,-27 32.8,-19.3"/>
<polygon fill="#63b8ff" stroke="#63b8ff" points="57.38,-61.69 66.34,-67.34 62.86,-57.33 57.38,-61.69"/>
</a>
</g>
</g>
<!-- Node2&#45;&gt;Node2 -->
<g id="edge2_Node000002_Node000002" class="edge">
<title>Node2&#45;&gt;Node2</title>
<g id="a_edge2_Node000002_Node000002"><a xlink:title=" ">
<path fill="none" stroke="#9a32cd" stroke-dasharray="5,2" d="M104.91,-82.74C109.45,-81.83 112.5,-79.91 112.5,-77 112.5,-72.22 104.27,-70.13 94.76,-70.72"/>
<polygon fill="#9a32cd" stroke="#9a32cd" points="104.56,-79.26 94.76,-83.28 104.93,-86.25 104.56,-79.26"/>
</a>
</g>
<text text-anchor="middle" x="134" y="-80" font-family="Helvetica,sans-Serif" font-size="10.00" fill="grey"> children</text>
<text text-anchor="middle" x="134" y="-69" font-family="Helvetica,sans-Serif" font-size="10.00" fill="grey">parent</text>
</g>
<!-- Node3 -->
<g id="Node000003" class="node">
<title>Node3</title>
<g id="a_Node000003"><a xlink:href="unionBehaviorAttribute.html" target="_top" xlink:title=" ">
<polygon fill="white" stroke="#666666" points="176,-19 73,-19 73,0 176,0 176,-19"/>
<text text-anchor="middle" x="124.5" y="-7" font-family="Helvetica,sans-Serif" font-size="10.00">BehaviorAttribute</text>
</a>
</g>
</g>
<!-- Node2&#45;&gt;Node3 -->
<g id="edge4_Node000003_Node000002" class="edge">
<title>Node2&#45;&gt;Node3</title>
<g id="a_edge4_Node000003_Node000002"><a xlink:title=" ">
<path fill="none" stroke="#9a32cd" stroke-dasharray="5,2" d="M67.62,-57.36C66.56,-50.51 66.78,-42.98 70.5,-37 75.64,-28.76 84.17,-23.01 92.95,-19.02"/>
<polygon fill="#9a32cd" stroke="#9a32cd" points="64.26,-58.34 70.02,-67.23 71.06,-56.69 64.26,-58.34"/>
</a>
</g>
<text text-anchor="middle" x="84.5" y="-40" font-family="Helvetica,sans-Serif" font-size="10.00" fill="grey"> node</text>
</g>
<!-- Node3&#45;&gt;Node2 -->
<g id="edge3_Node000002_Node000003" class="edge">
<title>Node3&#45;&gt;Node2</title>
<g id="a_edge3_Node000002_Node000003"><a xlink:title=" ">
<path fill="none" stroke="#9a32cd" stroke-dasharray="5,2" d="M115.26,-28.49C111.64,-34.9 107.22,-42.01 102.5,-48 96.96,-55.04 89.71,-62.04 83.85,-67.28"/>
<polygon fill="#9a32cd" stroke="#9a32cd" points="118.57,-29.73 120.23,-19.27 112.41,-26.41 118.57,-29.73"/>
</a>
</g>
<text text-anchor="middle" x="132.5" y="-40" font-family="Helvetica,sans-Serif" font-size="10.00" fill="grey"> attribute</text>
</g>
</g>
</svg>
