<?xml version="1.0" encoding="UTF-8" standalone="no"?>
<!DOCTYPE svg PUBLIC "-//W3C//DTD SVG 1.1//EN"
 "http://www.w3.org/Graphics/SVG/1.1/DTD/svg11.dtd">
<!-- Generated by graphviz version 2.43.0 (0)
 -->
<!-- Title: Texture Pages: 1 -->
<svg width="182pt" height="96pt"
 viewBox="0.00 0.00 182.00 96.00" xmlns="http://www.w3.org/2000/svg" xmlns:xlink="http://www.w3.org/1999/xlink">
<g id="graph0" class="graph" transform="scale(1 1) rotate(0) translate(4 92)">
<title>Texture</title>
<!-- Node1 -->
<g id="Node000001" class="node">
<title>Node1</title>
<g id="a_Node000001"><a xlink:title=" ">
<polygon fill="#999999" stroke="#666666" points="53,-19 0,-19 0,0 53,0 53,-19"/>
<text text-anchor="middle" x="26.5" y="-7" font-family="Helvetica,sans-Serif" font-size="10.00">Texture</text>
</a>
</g>
</g>
<!-- Node2 -->
<g id="Node000002" class="node">
<title>Node2</title>
<g id="a_Node000002"><a xlink:href="classNode.html" target="_top" xlink:title="Represents a node in the tree structure.">
<polygon fill="white" stroke="#666666" points="92.5,-86.5 50.5,-86.5 50.5,-67.5 92.5,-67.5 92.5,-86.5"/>
<text text-anchor="middle" x="71.5" y="-74.5" font-family="Helvetica,sans-Serif" font-size="10.00">Node</text>
</a>
</g>
</g>
<!-- Node2&#45;&gt;Node1 -->
<g id="edge1_Node000001_Node000002" class="edge">
<title>Node2&#45;&gt;Node1</title>
<g id="a_edge1_Node000001_Node000002"><a xlink:title=" ">
<path fill="none" stroke="#63b8ff" d="M57.94,-59.4C55.07,-55.7 52.12,-51.77 49.5,-48 42.78,-38.35 35.82,-26.74 31.34,-19.02"/>
<polygon fill="#63b8ff" stroke="#63b8ff" points="55.33,-61.73 64.3,-67.37 60.8,-57.37 55.33,-61.73"/>
</a>
</g>
</g>
<!-- Node2&#45;&gt;Node2 -->
<g id="edge2_Node000002_Node000002" class="edge">
<title>Node2&#45;&gt;Node2</title>
<g id="a_edge2_Node000002_Node000002"><a xlink:title=" ">
<path fill="none" stroke="#9a32cd" stroke-dasharray="5,2" d="M102.91,-82.74C107.45,-81.83 110.5,-79.91 110.5,-77 110.5,-72.22 102.27,-70.13 92.76,-70.72"/>
<polygon fill="#9a32cd" stroke="#9a32cd" points="102.56,-79.26 92.76,-83.28 102.93,-86.25 102.56,-79.26"/>
</a>
</g>
<text text-anchor="middle" x="132" y="-80" font-family="Helvetica,sans-Serif" font-size="10.00" fill="grey"> children</text>
<text text-anchor="middle" x="132" y="-69" font-family="Helvetica,sans-Serif" font-size="10.00" fill="grey">parent</text>
</g>
<!-- Node3 -->
<g id="Node000003" class="node">
<title>Node3</title>
<g id="a_Node000003"><a xlink:href="unionBehaviorAttribute.html" target="_top" xlink:title=" ">
<polygon fill="white" stroke="#666666" points="174,-19 71,-19 71,0 174,0 174,-19"/>
<text text-anchor="middle" x="122.5" y="-7" font-family="Helvetica,sans-Serif" font-size="10.00">BehaviorAttribute</text>
</a>
</g>
</g>
<!-- Node2&#45;&gt;Node3 -->
<g id="edge4_Node000003_Node000002" class="edge">
<title>Node2&#45;&gt;Node3</title>
<g id="a_edge4_Node000003_Node000002"><a xlink:title=" ">
<path fill="none" stroke="#9a32cd" stroke-dasharray="5,2" d="M65.62,-57.36C64.56,-50.51 64.78,-42.98 68.5,-37 73.64,-28.76 82.17,-23.01 90.95,-19.02"/>
<polygon fill="#9a32cd" stroke="#9a32cd" points="62.26,-58.34 68.02,-67.23 69.06,-56.69 62.26,-58.34"/>
</a>
</g>
<text text-anchor="middle" x="82.5" y="-40" font-family="Helvetica,sans-Serif" font-size="10.00" fill="grey"> node</text>
</g>
<!-- Node3&#45;&gt;Node2 -->
<g id="edge3_Node000002_Node000003" class="edge">
<title>Node3&#45;&gt;Node2</title>
<g id="a_edge3_Node000002_Node000003"><a xlink:title=" ">
<path fill="none" stroke="#9a32cd" stroke-dasharray="5,2" d="M113.26,-28.49C109.64,-34.9 105.22,-42.01 100.5,-48 94.96,-55.04 87.71,-62.04 81.85,-67.28"/>
<polygon fill="#9a32cd" stroke="#9a32cd" points="116.57,-29.73 118.23,-19.27 110.41,-26.41 116.57,-29.73"/>
</a>
</g>
<text text-anchor="middle" x="130.5" y="-40" font-family="Helvetica,sans-Serif" font-size="10.00" fill="grey"> attribute</text>
</g>
</g>
</svg>
