<?xml version="1.0" encoding="UTF-8" standalone="no"?>
<!DOCTYPE svg PUBLIC "-//W3C//DTD SVG 1.1//EN"
 "http://www.w3.org/Graphics/SVG/1.1/DTD/svg11.dtd">
<!-- Generated by graphviz version 2.43.0 (0)
 -->
<!-- Title: Frame Pages: 1 -->
<svg width="578pt" height="192pt"
 viewBox="0.00 0.00 577.50 192.00" xmlns="http://www.w3.org/2000/svg" xmlns:xlink="http://www.w3.org/1999/xlink">
<g id="graph0" class="graph" transform="scale(1 1) rotate(0) translate(4 188)">
<title>Frame</title>
<!-- Node1 -->
<g id="Node000001" class="node">
<title>Node1</title>
<g id="a_Node000001"><a xlink:title="Represents a frame.">
<polygon fill="#999999" stroke="#666666" points="372,-129 325,-129 325,-110 372,-110 372,-129"/>
<text text-anchor="middle" x="348.5" y="-117" font-family="Helvetica,sans-Serif" font-size="10.00">Frame</text>
</a>
</g>
</g>
<!-- Node3 -->
<g id="Node000003" class="node">
<title>Node3</title>
<g id="a_Node000003"><a xlink:href="classButton.html" target="_top" xlink:title="Represents a button.">
<polygon fill="white" stroke="#666666" points="146,-74 97,-74 97,-55 146,-55 146,-74"/>
<text text-anchor="middle" x="121.5" y="-62" font-family="Helvetica,sans-Serif" font-size="10.00">Button</text>
</a>
</g>
</g>
<!-- Node1&#45;&gt;Node3 -->
<g id="edge2_Node000001_Node000003" class="edge">
<title>Node1&#45;&gt;Node3</title>
<g id="a_edge2_Node000001_Node000003"><a xlink:title=" ">
<path fill="none" stroke="#63b8ff" d="M314.66,-111.02C275.9,-102.4 210.51,-87.63 154.5,-74 151.86,-73.36 149.1,-72.67 146.35,-71.98"/>
<polygon fill="#63b8ff" stroke="#63b8ff" points="314.34,-114.54 324.86,-113.29 315.86,-107.7 314.34,-114.54"/>
</a>
</g>
</g>
<!-- Node7 -->
<g id="Node000007" class="node">
<title>Node7</title>
<g id="a_Node000007"><a xlink:href="classControlFrame.html" target="_top" xlink:title=" ">
<polygon fill="white" stroke="#666666" points="247,-74 164,-74 164,-55 247,-55 247,-74"/>
<text text-anchor="middle" x="205.5" y="-62" font-family="Helvetica,sans-Serif" font-size="10.00">ControlFrame</text>
</a>
</g>
</g>
<!-- Node1&#45;&gt;Node7 -->
<g id="edge6_Node000001_Node000007" class="edge">
<title>Node1&#45;&gt;Node7</title>
<g id="a_edge6_Node000001_Node000007"><a xlink:title=" ">
<path fill="none" stroke="#63b8ff" d="M315.91,-106.42C289.38,-96.59 252.57,-82.95 228.89,-74.17"/>
<polygon fill="#63b8ff" stroke="#63b8ff" points="314.93,-109.79 325.52,-109.98 317.36,-103.23 314.93,-109.79"/>
</a>
</g>
</g>
<!-- Node8 -->
<g id="Node000008" class="node">
<title>Node8</title>
<g id="a_Node000008"><a xlink:href="classImageFrame.html" target="_top" xlink:title="Represents an image frame.">
<polygon fill="white" stroke="#666666" points="343.5,-74 265.5,-74 265.5,-55 343.5,-55 343.5,-74"/>
<text text-anchor="middle" x="304.5" y="-62" font-family="Helvetica,sans-Serif" font-size="10.00">ImageFrame</text>
</a>
</g>
</g>
<!-- Node1&#45;&gt;Node8 -->
<g id="edge7_Node000001_Node000008" class="edge">
<title>Node1&#45;&gt;Node8</title>
<g id="a_edge7_Node000001_Node000008"><a xlink:title=" ">
<path fill="none" stroke="#63b8ff" d="M334.77,-101.96C327.1,-92.72 317.87,-81.6 311.63,-74.09"/>
<polygon fill="#63b8ff" stroke="#63b8ff" points="332.15,-104.29 341.23,-109.75 337.54,-99.82 332.15,-104.29"/>
</a>
</g>
</g>
<!-- Node9 -->
<g id="Node000009" class="node">
<title>Node9</title>
<g id="a_Node000009"><a xlink:href="classInputArea.html" target="_top" xlink:title="Represents an input area.">
<polygon fill="white" stroke="#666666" points="425.5,-74 361.5,-74 361.5,-55 425.5,-55 425.5,-74"/>
<text text-anchor="middle" x="393.5" y="-62" font-family="Helvetica,sans-Serif" font-size="10.00">InputArea</text>
</a>
</g>
</g>
<!-- Node1&#45;&gt;Node9 -->
<g id="edge8_Node000001_Node000009" class="edge">
<title>Node1&#45;&gt;Node9</title>
<g id="a_edge8_Node000001_Node000009"><a xlink:title=" ">
<path fill="none" stroke="#63b8ff" d="M362.55,-101.96C370.39,-92.72 379.83,-81.6 386.21,-74.09"/>
<polygon fill="#63b8ff" stroke="#63b8ff" points="359.74,-99.86 355.93,-109.75 365.07,-104.39 359.74,-99.86"/>
</a>
</g>
</g>
<!-- Node10 -->
<g id="Node000010" class="node">
<title>Node10</title>
<g id="a_Node000010"><a xlink:href="classLabel.html" target="_top" xlink:title="Represents a label.">
<polygon fill="white" stroke="#666666" points="487,-74 444,-74 444,-55 487,-55 487,-74"/>
<text text-anchor="middle" x="465.5" y="-62" font-family="Helvetica,sans-Serif" font-size="10.00">Label</text>
</a>
</g>
</g>
<!-- Node1&#45;&gt;Node10 -->
<g id="edge9_Node000001_Node000010" class="edge">
<title>Node1&#45;&gt;Node10</title>
<g id="a_edge9_Node000001_Node000010"><a xlink:title=" ">
<path fill="none" stroke="#63b8ff" d="M376.61,-105.77C398.19,-95.99 427.41,-82.75 446.36,-74.17"/>
<polygon fill="#63b8ff" stroke="#63b8ff" points="374.96,-102.67 367.3,-109.98 377.85,-109.05 374.96,-102.67"/>
</a>
</g>
</g>
<!-- Node11 -->
<g id="Node000011" class="node">
<title>Node11</title>
<g id="a_Node000011"><a xlink:href="classSelectList.html" target="_top" xlink:title="Represents a selectable list.">
<polygon fill="white" stroke="#666666" points="569.5,-74 505.5,-74 505.5,-55 569.5,-55 569.5,-74"/>
<text text-anchor="middle" x="537.5" y="-62" font-family="Helvetica,sans-Serif" font-size="10.00">SelectList</text>
</a>
</g>
</g>
<!-- Node1&#45;&gt;Node11 -->
<g id="edge10_Node000001_Node000011" class="edge">
<title>Node1&#45;&gt;Node11</title>
<g id="a_edge10_Node000001_Node000011"><a xlink:title=" ">
<path fill="none" stroke="#63b8ff" d="M381.92,-109.13C417.35,-99.19 472.83,-83.64 507.07,-74.03"/>
<polygon fill="#63b8ff" stroke="#63b8ff" points="380.74,-105.82 372.05,-111.89 382.63,-112.56 380.74,-105.82"/>
</a>
</g>
</g>
<!-- Node2 -->
<g id="Node000002" class="node">
<title>Node2</title>
<g id="a_Node000002"><a xlink:href="classNode.html" target="_top" xlink:title="Represents a node in the tree structure.">
<polygon fill="white" stroke="#666666" points="369.5,-184 327.5,-184 327.5,-165 369.5,-165 369.5,-184"/>
<text text-anchor="middle" x="348.5" y="-172" font-family="Helvetica,sans-Serif" font-size="10.00">Node</text>
</a>
</g>
</g>
<!-- Node2&#45;&gt;Node1 -->
<g id="edge1_Node000001_Node000002" class="edge">
<title>Node2&#45;&gt;Node1</title>
<g id="a_edge1_Node000001_Node000002"><a xlink:title=" ">
<path fill="none" stroke="#63b8ff" d="M348.5,-154.66C348.5,-145.93 348.5,-135.99 348.5,-129.09"/>
<polygon fill="#63b8ff" stroke="#63b8ff" points="345,-154.75 348.5,-164.75 352,-154.75 345,-154.75"/>
</a>
</g>
</g>
<!-- Node4 -->
<g id="Node000004" class="node">
<title>Node4</title>
<g id="a_Node000004"><a xlink:href="classCheckBox.html" target="_top" xlink:title=" ">
<polygon fill="white" stroke="#666666" points="65,-19 0,-19 0,0 65,0 65,-19"/>
<text text-anchor="middle" x="32.5" y="-7" font-family="Helvetica,sans-Serif" font-size="10.00">CheckBox</text>
</a>
</g>
</g>
<!-- Node3&#45;&gt;Node4 -->
<g id="edge3_Node000003_Node000004" class="edge">
<title>Node3&#45;&gt;Node4</title>
<g id="a_edge3_Node000003_Node000004"><a xlink:title=" ">
<path fill="none" stroke="#63b8ff" d="M98.32,-49.7C82.11,-40.04 60.95,-27.44 47.06,-19.17"/>
<polygon fill="#63b8ff" stroke="#63b8ff" points="96.82,-52.88 107.2,-54.98 100.4,-46.86 96.82,-52.88"/>
</a>
</g>
</g>
<!-- Node5 -->
<g id="Node000005" class="node">
<title>Node5</title>
<g id="a_Node000005"><a xlink:href="classRadioButton.html" target="_top" xlink:title="Represents a radio button.">
<polygon fill="white" stroke="#666666" points="160,-19 83,-19 83,0 160,0 160,-19"/>
<text text-anchor="middle" x="121.5" y="-7" font-family="Helvetica,sans-Serif" font-size="10.00">RadioButton</text>
</a>
</g>
</g>
<!-- Node3&#45;&gt;Node5 -->
<g id="edge4_Node000003_Node000005" class="edge">
<title>Node3&#45;&gt;Node5</title>
<g id="a_edge4_Node000003_Node000005"><a xlink:title=" ">
<path fill="none" stroke="#63b8ff" d="M121.5,-44.66C121.5,-35.93 121.5,-25.99 121.5,-19.09"/>
<polygon fill="#63b8ff" stroke="#63b8ff" points="118,-44.75 121.5,-54.75 125,-44.75 118,-44.75"/>
</a>
</g>
</g>
<!-- Node6 -->
<g id="Node000006" class="node">
<title>Node6</title>
<g id="a_Node000006"><a xlink:href="classSlider.html" target="_top" xlink:title=" ">
<polygon fill="white" stroke="#666666" points="222.5,-19 178.5,-19 178.5,0 222.5,0 222.5,-19"/>
<text text-anchor="middle" x="200.5" y="-7" font-family="Helvetica,sans-Serif" font-size="10.00">Slider</text>
</a>
</g>
</g>
<!-- Node3&#45;&gt;Node6 -->
<g id="edge5_Node000003_Node000006" class="edge">
<title>Node3&#45;&gt;Node6</title>
<g id="a_edge5_Node000003_Node000006"><a xlink:title=" ">
<path fill="none" stroke="#63b8ff" d="M142.89,-49.15C157.17,-39.57 175.47,-27.29 187.58,-19.17"/>
<polygon fill="#63b8ff" stroke="#63b8ff" points="140.55,-46.51 134.19,-54.98 144.45,-52.32 140.55,-46.51"/>
</a>
</g>
</g>
</g>
</svg>
