<?xml version="1.0" encoding="UTF-8" standalone="no"?>
<!DOCTYPE svg PUBLIC "-//W3C//DTD SVG 1.1//EN"
 "http://www.w3.org/Graphics/SVG/1.1/DTD/svg11.dtd">
<!-- Generated by graphviz version 2.43.0 (0)
 -->
<!-- Title: src/io/socket/client.c Pages: 1 -->
<svg width="2252pt" height="302pt"
 viewBox="0.00 0.00 2252.00 302.00" xmlns="http://www.w3.org/2000/svg" xmlns:xlink="http://www.w3.org/1999/xlink">
<g id="graph0" class="graph" transform="scale(1 1) rotate(0) translate(4 298)">
<title>src/io/socket/client.c</title>
<!-- Node1 -->
<g id="Node000001" class="node">
<title>Node1</title>
<g id="a_Node000001"><a xlink:title=" ">
<polygon fill="#999999" stroke="#666666" points="1343,-294 1227,-294 1227,-275 1343,-275 1343,-294"/>
<text text-anchor="middle" x="1285" y="-282" font-family="Helvetica,sans-Serif" font-size="10.00">src/io/socket/client.c</text>
</a>
</g>
</g>
<!-- Node2 -->
<g id="Node000002" class="node">
<title>Node2</title>
<g id="a_Node000002"><a xlink:href="raptiquax_8h.html" target="_top" xlink:title="This file contains type definitions for fixed&#45;width integer types and floating&#45;point types.">
<polygon fill="white" stroke="#666666" points="864,-239 774,-239 774,-220 864,-220 864,-239"/>
<text text-anchor="middle" x="819" y="-227" font-family="Helvetica,sans-Serif" font-size="10.00">../../raptiquax.h</text>
</a>
</g>
</g>
<!-- Node1&#45;&gt;Node2 -->
<g id="edge1_Node000001_Node000002" class="edge">
<title>Node1&#45;&gt;Node2</title>
<g id="a_edge1_Node000001_Node000002"><a xlink:title=" ">
<path fill="none" stroke="#63b8ff" d="M1226.92,-276.89C1136.45,-266.6 963.05,-246.88 874.31,-236.79"/>
<polygon fill="#63b8ff" stroke="#63b8ff" points="874.51,-233.29 864.17,-235.64 873.71,-240.25 874.51,-233.29"/>
</a>
</g>
</g>
<!-- Node24 -->
<g id="Node000024" class="node">
<title>Node24</title>
<g id="a_Node000024"><a xlink:href="socket_8h.html" target="_top" xlink:title=" ">
<polygon fill="white" stroke="#666666" points="1875.5,-239 1818.5,-239 1818.5,-220 1875.5,-220 1875.5,-239"/>
<text text-anchor="middle" x="1847" y="-227" font-family="Helvetica,sans-Serif" font-size="10.00">socket.h</text>
</a>
</g>
</g>
<!-- Node1&#45;&gt;Node24 -->
<g id="edge23_Node000001_Node000024" class="edge">
<title>Node1&#45;&gt;Node24</title>
<g id="a_edge23_Node000001_Node000024"><a xlink:title=" ">
<path fill="none" stroke="#63b8ff" d="M1343.03,-278.03C1457.78,-267.21 1710.98,-243.33 1808.06,-234.17"/>
<polygon fill="#63b8ff" stroke="#63b8ff" points="1808.68,-237.63 1818.3,-233.21 1808.02,-230.66 1808.68,-237.63"/>
</a>
</g>
</g>
<!-- Node3 -->
<g id="Node000003" class="node">
<title>Node3</title>
<g id="a_Node000003"><a xlink:title=" ">
<polygon fill="#e0e0e0" stroke="#999999" points="50,-184 0,-184 0,-165 50,-165 50,-184"/>
<text text-anchor="middle" x="25" y="-172" font-family="Helvetica,sans-Serif" font-size="10.00">stdio.h</text>
</a>
</g>
</g>
<!-- Node2&#45;&gt;Node3 -->
<g id="edge2_Node000002_Node000003" class="edge">
<title>Node2&#45;&gt;Node3</title>
<g id="a_edge2_Node000002_Node000003"><a xlink:title=" ">
<path fill="none" stroke="#63b8ff" d="M773.72,-228.78C656.9,-228.88 335.78,-225.2 60.34,-183.89"/>
<polygon fill="#63b8ff" stroke="#63b8ff" points="60.56,-180.38 50.14,-182.34 59.51,-187.3 60.56,-180.38"/>
</a>
</g>
</g>
<!-- Node4 -->
<g id="Node000004" class="node">
<title>Node4</title>
<g id="a_Node000004"><a xlink:title=" ">
<polygon fill="#e0e0e0" stroke="#999999" points="121.5,-184 68.5,-184 68.5,-165 121.5,-165 121.5,-184"/>
<text text-anchor="middle" x="95" y="-172" font-family="Helvetica,sans-Serif" font-size="10.00">stdint.h</text>
</a>
</g>
</g>
<!-- Node2&#45;&gt;Node4 -->
<g id="edge3_Node000002_Node000004" class="edge">
<title>Node2&#45;&gt;Node4</title>
<g id="a_edge3_Node000002_Node000004"><a xlink:title=" ">
<path fill="none" stroke="#63b8ff" d="M773.64,-228.18C664.58,-226.86 378.98,-220.07 131.54,-183.78"/>
<polygon fill="#63b8ff" stroke="#63b8ff" points="132.05,-180.32 121.64,-182.31 131.02,-187.25 132.05,-180.32"/>
</a>
</g>
</g>
<!-- Node5 -->
<g id="Node000005" class="node">
<title>Node5</title>
<g id="a_Node000005"><a xlink:title=" ">
<polygon fill="#e0e0e0" stroke="#999999" points="202,-184 140,-184 140,-165 202,-165 202,-184"/>
<text text-anchor="middle" x="171" y="-172" font-family="Helvetica,sans-Serif" font-size="10.00">stdbool.h</text>
</a>
</g>
</g>
<!-- Node2&#45;&gt;Node5 -->
<g id="edge4_Node000002_Node000005" class="edge">
<title>Node2&#45;&gt;Node5</title>
<g id="a_edge4_Node000002_Node000005"><a xlink:title=" ">
<path fill="none" stroke="#63b8ff" d="M773.77,-227.3C674.05,-224.19 427.65,-214.03 212.28,-183.99"/>
<polygon fill="#63b8ff" stroke="#63b8ff" points="212.76,-180.52 202.37,-182.59 211.78,-187.45 212.76,-180.52"/>
</a>
</g>
</g>
<!-- Node6 -->
<g id="Node000006" class="node">
<title>Node6</title>
<g id="a_Node000006"><a xlink:title=" ">
<polygon fill="#e0e0e0" stroke="#999999" points="276,-184 220,-184 220,-165 276,-165 276,-184"/>
<text text-anchor="middle" x="248" y="-172" font-family="Helvetica,sans-Serif" font-size="10.00">stdarg.h</text>
</a>
</g>
</g>
<!-- Node2&#45;&gt;Node6 -->
<g id="edge5_Node000002_Node000006" class="edge">
<title>Node2&#45;&gt;Node6</title>
<g id="a_edge5_Node000002_Node000006"><a xlink:title=" ">
<path fill="none" stroke="#63b8ff" d="M773.73,-226.91C682.99,-223.24 472.29,-212.37 286.17,-183.96"/>
<polygon fill="#63b8ff" stroke="#63b8ff" points="286.62,-180.49 276.2,-182.42 285.55,-187.4 286.62,-180.49"/>
</a>
</g>
</g>
<!-- Node7 -->
<g id="Node000007" class="node">
<title>Node7</title>
<g id="a_Node000007"><a xlink:title=" ">
<polygon fill="#e0e0e0" stroke="#999999" points="347.5,-184 294.5,-184 294.5,-165 347.5,-165 347.5,-184"/>
<text text-anchor="middle" x="321" y="-172" font-family="Helvetica,sans-Serif" font-size="10.00">limits.h</text>
</a>
</g>
</g>
<!-- Node2&#45;&gt;Node7 -->
<g id="edge6_Node000002_Node000007" class="edge">
<title>Node2&#45;&gt;Node7</title>
<g id="a_edge6_Node000002_Node000007"><a xlink:title=" ">
<path fill="none" stroke="#63b8ff" d="M773.81,-226.19C692.51,-221.59 516.07,-209.59 357.59,-183.85"/>
<polygon fill="#63b8ff" stroke="#63b8ff" points="358.09,-180.39 347.65,-182.22 356.95,-187.3 358.09,-180.39"/>
</a>
</g>
</g>
<!-- Node8 -->
<g id="Node000008" class="node">
<title>Node8</title>
<g id="a_Node000008"><a xlink:title=" ">
<polygon fill="#e0e0e0" stroke="#999999" points="438,-184 366,-184 366,-165 438,-165 438,-184"/>
<text text-anchor="middle" x="402" y="-172" font-family="Helvetica,sans-Serif" font-size="10.00">SDL2/SDL.h</text>
</a>
</g>
</g>
<!-- Node2&#45;&gt;Node8 -->
<g id="edge7_Node000002_Node000008" class="edge">
<title>Node2&#45;&gt;Node8</title>
<g id="a_edge7_Node000002_Node000008"><a xlink:title=" ">
<path fill="none" stroke="#63b8ff" d="M773.92,-224.1C705.65,-217.22 571.78,-202.88 448.32,-184.11"/>
<polygon fill="#63b8ff" stroke="#63b8ff" points="448.73,-180.63 438.31,-182.58 447.67,-187.55 448.73,-180.63"/>
</a>
</g>
</g>
<!-- Node9 -->
<g id="Node000009" class="node">
<title>Node9</title>
<g id="a_Node000009"><a xlink:title=" ">
<polygon fill="#e0e0e0" stroke="#999999" points="564,-184 456,-184 456,-165 564,-165 564,-184"/>
<text text-anchor="middle" x="510" y="-172" font-family="Helvetica,sans-Serif" font-size="10.00">SDL2/SDL_image.h</text>
</a>
</g>
</g>
<!-- Node2&#45;&gt;Node9 -->
<g id="edge8_Node000002_Node000009" class="edge">
<title>Node2&#45;&gt;Node9</title>
<g id="a_edge8_Node000002_Node000009"><a xlink:title=" ">
<path fill="none" stroke="#63b8ff" d="M773.74,-220.74C719.78,-211.48 629.43,-195.98 569.77,-185.75"/>
<polygon fill="#63b8ff" stroke="#63b8ff" points="570.18,-182.27 559.74,-184.03 569,-189.17 570.18,-182.27"/>
</a>
</g>
</g>
<!-- Node10 -->
<g id="Node000010" class="node">
<title>Node10</title>
<g id="a_Node000010"><a xlink:title=" ">
<polygon fill="#e0e0e0" stroke="#999999" points="692,-184 582,-184 582,-165 692,-165 692,-184"/>
<text text-anchor="middle" x="637" y="-172" font-family="Helvetica,sans-Serif" font-size="10.00">SDL2/SDL_opengl.h</text>
</a>
</g>
</g>
<!-- Node2&#45;&gt;Node10 -->
<g id="edge9_Node000002_Node000010" class="edge">
<title>Node2&#45;&gt;Node10</title>
<g id="a_edge9_Node000002_Node000010"><a xlink:title=" ">
<path fill="none" stroke="#63b8ff" d="M789.76,-219.98C758.94,-211.01 710.22,-196.82 676.11,-186.89"/>
<polygon fill="#63b8ff" stroke="#63b8ff" points="677.05,-183.52 666.47,-184.08 675.09,-190.24 677.05,-183.52"/>
</a>
</g>
</g>
<!-- Node11 -->
<g id="Node000011" class="node">
<title>Node11</title>
<g id="a_Node000011"><a xlink:title=" ">
<polygon fill="#e0e0e0" stroke="#999999" points="814,-184 710,-184 710,-165 814,-165 814,-184"/>
<text text-anchor="middle" x="762" y="-172" font-family="Helvetica,sans-Serif" font-size="10.00">SDL2/SDL_mixer.h</text>
</a>
</g>
</g>
<!-- Node2&#45;&gt;Node11 -->
<g id="edge10_Node000002_Node000011" class="edge">
<title>Node2&#45;&gt;Node11</title>
<g id="a_edge10_Node000002_Node000011"><a xlink:title=" ">
<path fill="none" stroke="#63b8ff" d="M809.84,-219.98C801.5,-212.23 788.97,-200.58 778.82,-191.14"/>
<polygon fill="#63b8ff" stroke="#63b8ff" points="781.03,-188.42 771.32,-184.17 776.26,-193.54 781.03,-188.42"/>
</a>
</g>
</g>
<!-- Node12 -->
<g id="Node000012" class="node">
<title>Node12</title>
<g id="a_Node000012"><a xlink:title=" ">
<polygon fill="#e0e0e0" stroke="#999999" points="920,-184 832,-184 832,-165 920,-165 920,-184"/>
<text text-anchor="middle" x="876" y="-172" font-family="Helvetica,sans-Serif" font-size="10.00">SDL2/SDL_ttf.h</text>
</a>
</g>
</g>
<!-- Node2&#45;&gt;Node12 -->
<g id="edge11_Node000002_Node000012" class="edge">
<title>Node2&#45;&gt;Node12</title>
<g id="a_edge11_Node000002_Node000012"><a xlink:title=" ">
<path fill="none" stroke="#63b8ff" d="M828.16,-219.98C836.5,-212.23 849.03,-200.58 859.18,-191.14"/>
<polygon fill="#63b8ff" stroke="#63b8ff" points="861.74,-193.54 866.68,-184.17 856.97,-188.42 861.74,-193.54"/>
</a>
</g>
</g>
<!-- Node13 -->
<g id="Node000013" class="node">
<title>Node13</title>
<g id="a_Node000013"><a xlink:title=" ">
<polygon fill="#e0e0e0" stroke="#999999" points="988,-184 938,-184 938,-165 988,-165 988,-184"/>
<text text-anchor="middle" x="963" y="-172" font-family="Helvetica,sans-Serif" font-size="10.00">GL/gl.h</text>
</a>
</g>
</g>
<!-- Node2&#45;&gt;Node13 -->
<g id="edge12_Node000002_Node000013" class="edge">
<title>Node2&#45;&gt;Node13</title>
<g id="a_edge12_Node000002_Node000013"><a xlink:title=" ">
<path fill="none" stroke="#63b8ff" d="M842.14,-219.98C865.82,-211.27 902.87,-197.63 929.71,-187.75"/>
<polygon fill="#63b8ff" stroke="#63b8ff" points="931.27,-190.91 939.44,-184.17 928.85,-184.34 931.27,-190.91"/>
</a>
</g>
</g>
<!-- Node14 -->
<g id="Node000014" class="node">
<title>Node14</title>
<g id="a_Node000014"><a xlink:title=" ">
<polygon fill="#e0e0e0" stroke="#999999" points="1062,-184 1006,-184 1006,-165 1062,-165 1062,-184"/>
<text text-anchor="middle" x="1034" y="-172" font-family="Helvetica,sans-Serif" font-size="10.00">GL/glu.h</text>
</a>
</g>
</g>
<!-- Node2&#45;&gt;Node14 -->
<g id="edge13_Node000002_Node000014" class="edge">
<title>Node2&#45;&gt;Node14</title>
<g id="a_edge13_Node000002_Node000014"><a xlink:title=" ">
<path fill="none" stroke="#63b8ff" d="M853.54,-219.98C892.5,-210.38 955.66,-194.81 995.99,-184.87"/>
<polygon fill="#63b8ff" stroke="#63b8ff" points="996.85,-188.26 1005.72,-182.47 995.17,-181.47 996.85,-188.26"/>
</a>
</g>
</g>
<!-- Node15 -->
<g id="Node000015" class="node">
<title>Node15</title>
<g id="a_Node000015"><a xlink:title=" ">
<polygon fill="#e0e0e0" stroke="#999999" points="1146,-184 1080,-184 1080,-165 1146,-165 1146,-184"/>
<text text-anchor="middle" x="1113" y="-172" font-family="Helvetica,sans-Serif" font-size="10.00">GL/glext.h</text>
</a>
</g>
</g>
<!-- Node2&#45;&gt;Node15 -->
<g id="edge14_Node000002_Node000015" class="edge">
<title>Node2&#45;&gt;Node15</title>
<g id="a_edge14_Node000002_Node000015"><a xlink:title=" ">
<path fill="none" stroke="#63b8ff" d="M864.13,-220.88C912.53,-212.63 991.91,-198.87 1069.59,-184.23"/>
<polygon fill="#63b8ff" stroke="#63b8ff" points="1070.37,-187.65 1079.54,-182.35 1069.07,-180.77 1070.37,-187.65"/>
</a>
</g>
</g>
<!-- Node16 -->
<g id="Node000016" class="node">
<title>Node16</title>
<g id="a_Node000016"><a xlink:title=" ">
<polygon fill="#e0e0e0" stroke="#999999" points="1241.5,-184 1164.5,-184 1164.5,-165 1241.5,-165 1241.5,-184"/>
<text text-anchor="middle" x="1203" y="-172" font-family="Helvetica,sans-Serif" font-size="10.00">cglm/cglm.h</text>
</a>
</g>
</g>
<!-- Node2&#45;&gt;Node16 -->
<g id="edge15_Node000002_Node000016" class="edge">
<title>Node2&#45;&gt;Node16</title>
<g id="a_edge15_Node000002_Node000016"><a xlink:title=" ">
<path fill="none" stroke="#63b8ff" d="M864.2,-223.15C926.9,-215.58 1044.08,-200.95 1154.29,-184.05"/>
<polygon fill="#63b8ff" stroke="#63b8ff" points="1154.9,-187.49 1164.25,-182.51 1153.83,-180.58 1154.9,-187.49"/>
</a>
</g>
</g>
<!-- Node17 -->
<g id="Node000017" class="node">
<title>Node17</title>
<g id="a_Node000017"><a xlink:title=" ">
<polygon fill="#e0e0e0" stroke="#999999" points="1310.5,-184 1259.5,-184 1259.5,-165 1310.5,-165 1310.5,-184"/>
<text text-anchor="middle" x="1285" y="-172" font-family="Helvetica,sans-Serif" font-size="10.00">math.h</text>
</a>
</g>
</g>
<!-- Node2&#45;&gt;Node17 -->
<g id="edge16_Node000002_Node000017" class="edge">
<title>Node2&#45;&gt;Node17</title>
<g id="a_edge16_Node000002_Node000017"><a xlink:title=" ">
<path fill="none" stroke="#63b8ff" d="M864.26,-225.85C941.3,-220.9 1102.97,-208.61 1249.4,-183.85"/>
<polygon fill="#63b8ff" stroke="#63b8ff" points="1250.2,-187.26 1259.47,-182.12 1249.02,-180.36 1250.2,-187.26"/>
</a>
</g>
</g>
<!-- Node18 -->
<g id="Node000018" class="node">
<title>Node18</title>
<g id="a_Node000018"><a xlink:href="stringio_8h.html" target="_top" xlink:title="Provides utility functions for string and file operations.">
<polygon fill="white" stroke="#666666" points="1403,-184 1329,-184 1329,-165 1403,-165 1403,-184"/>
<text text-anchor="middle" x="1366" y="-172" font-family="Helvetica,sans-Serif" font-size="10.00">io/stringio.h</text>
</a>
</g>
</g>
<!-- Node2&#45;&gt;Node18 -->
<g id="edge17_Node000002_Node000018" class="edge">
<title>Node2&#45;&gt;Node18</title>
<g id="a_edge17_Node000002_Node000018"><a xlink:title=" ">
<path fill="none" stroke="#63b8ff" d="M864.31,-225.84C950.58,-220.48 1144.52,-207 1318.73,-183.89"/>
<polygon fill="#63b8ff" stroke="#63b8ff" points="1319.4,-187.34 1328.85,-182.54 1318.47,-180.4 1319.4,-187.34"/>
</a>
</g>
</g>
<!-- Node20 -->
<g id="Node000020" class="node">
<title>Node20</title>
<g id="a_Node000020"><a xlink:href="config_8h.html" target="_top" xlink:title=" ">
<polygon fill="white" stroke="#666666" points="1476.5,-184 1421.5,-184 1421.5,-165 1476.5,-165 1476.5,-184"/>
<text text-anchor="middle" x="1449" y="-172" font-family="Helvetica,sans-Serif" font-size="10.00">config.h</text>
</a>
</g>
</g>
<!-- Node2&#45;&gt;Node20 -->
<g id="edge19_Node000002_Node000020" class="edge">
<title>Node2&#45;&gt;Node20</title>
<g id="a_edge19_Node000002_Node000020"><a xlink:title=" ">
<path fill="none" stroke="#63b8ff" d="M864.27,-227.43C962.28,-224.61 1201.49,-215.04 1411.24,-183.86"/>
<polygon fill="#63b8ff" stroke="#63b8ff" points="1411.84,-187.31 1421.21,-182.36 1410.8,-180.39 1411.84,-187.31"/>
</a>
</g>
</g>
<!-- Node19 -->
<g id="Node000019" class="node">
<title>Node19</title>
<g id="a_Node000019"><a xlink:title=" ">
<polygon fill="#e0e0e0" stroke="#999999" points="1392.5,-129 1339.5,-129 1339.5,-110 1392.5,-110 1392.5,-129"/>
<text text-anchor="middle" x="1366" y="-117" font-family="Helvetica,sans-Serif" font-size="10.00">string.h</text>
</a>
</g>
</g>
<!-- Node18&#45;&gt;Node19 -->
<g id="edge18_Node000018_Node000019" class="edge">
<title>Node18&#45;&gt;Node19</title>
<g id="a_edge18_Node000018_Node000019"><a xlink:title=" ">
<path fill="none" stroke="#63b8ff" d="M1366,-164.75C1366,-157.8 1366,-147.85 1366,-139.13"/>
<polygon fill="#63b8ff" stroke="#63b8ff" points="1369.5,-139.09 1366,-129.09 1362.5,-139.09 1369.5,-139.09"/>
</a>
</g>
</g>
<!-- Node21 -->
<g id="Node000021" class="node">
<title>Node21</title>
<g id="a_Node000021"><a xlink:href="term_8h.html" target="_top" xlink:title=" ">
<polygon fill="white" stroke="#666666" points="1486.5,-129 1411.5,-129 1411.5,-110 1486.5,-110 1486.5,-129"/>
<text text-anchor="middle" x="1449" y="-117" font-family="Helvetica,sans-Serif" font-size="10.00">term/term.h</text>
</a>
</g>
</g>
<!-- Node20&#45;&gt;Node21 -->
<g id="edge20_Node000020_Node000021" class="edge">
<title>Node20&#45;&gt;Node21</title>
<g id="a_edge20_Node000020_Node000021"><a xlink:title=" ">
<path fill="none" stroke="#63b8ff" d="M1449,-164.75C1449,-157.8 1449,-147.85 1449,-139.13"/>
<polygon fill="#63b8ff" stroke="#63b8ff" points="1452.5,-139.09 1449,-129.09 1445.5,-139.09 1452.5,-139.09"/>
</a>
</g>
</g>
<!-- Node22 -->
<g id="Node000022" class="node">
<title>Node22</title>
<g id="a_Node000022"><a xlink:href="enhanced__print_8h.html" target="_top" xlink:title=" ">
<polygon fill="white" stroke="#666666" points="1499.5,-74 1398.5,-74 1398.5,-55 1499.5,-55 1499.5,-74"/>
<text text-anchor="middle" x="1449" y="-62" font-family="Helvetica,sans-Serif" font-size="10.00">enhanced_print.h</text>
</a>
</g>
</g>
<!-- Node21&#45;&gt;Node22 -->
<g id="edge21_Node000021_Node000022" class="edge">
<title>Node21&#45;&gt;Node22</title>
<g id="a_edge21_Node000021_Node000022"><a xlink:title=" ">
<path fill="none" stroke="#63b8ff" d="M1449,-109.75C1449,-102.8 1449,-92.85 1449,-84.13"/>
<polygon fill="#63b8ff" stroke="#63b8ff" points="1452.5,-84.09 1449,-74.09 1445.5,-84.09 1452.5,-84.09"/>
</a>
</g>
</g>
<!-- Node23 -->
<g id="Node000023" class="node">
<title>Node23</title>
<g id="a_Node000023"><a xlink:href="color_8h.html" target="_top" xlink:title=" ">
<polygon fill="white" stroke="#666666" points="1473.5,-19 1424.5,-19 1424.5,0 1473.5,0 1473.5,-19"/>
<text text-anchor="middle" x="1449" y="-7" font-family="Helvetica,sans-Serif" font-size="10.00">color.h</text>
</a>
</g>
</g>
<!-- Node22&#45;&gt;Node23 -->
<g id="edge22_Node000022_Node000023" class="edge">
<title>Node22&#45;&gt;Node23</title>
<g id="a_edge22_Node000022_Node000023"><a xlink:title=" ">
<path fill="none" stroke="#63b8ff" d="M1449,-54.75C1449,-47.8 1449,-37.85 1449,-29.13"/>
<polygon fill="#63b8ff" stroke="#63b8ff" points="1452.5,-29.09 1449,-19.09 1445.5,-29.09 1452.5,-29.09"/>
</a>
</g>
</g>
<!-- Node25 -->
<g id="Node000025" class="node">
<title>Node25</title>
<g id="a_Node000025"><a xlink:title=" ">
<polygon fill="#e0e0e0" stroke="#999999" points="1569,-184 1495,-184 1495,-165 1569,-165 1569,-184"/>
<text text-anchor="middle" x="1532" y="-172" font-family="Helvetica,sans-Serif" font-size="10.00">sys/select.h</text>
</a>
</g>
</g>
<!-- Node24&#45;&gt;Node25 -->
<g id="edge24_Node000024_Node000025" class="edge">
<title>Node24&#45;&gt;Node25</title>
<g id="a_edge24_Node000024_Node000025"><a xlink:title=" ">
<path fill="none" stroke="#63b8ff" d="M1818.31,-223.93C1770.77,-216.33 1672.45,-200.44 1579.04,-184.16"/>
<polygon fill="#63b8ff" stroke="#63b8ff" points="1579.6,-180.7 1569.15,-182.43 1578.39,-187.6 1579.6,-180.7"/>
</a>
</g>
</g>
<!-- Node26 -->
<g id="Node000026" class="node">
<title>Node26</title>
<g id="a_Node000026"><a xlink:title=" ">
<polygon fill="#e0e0e0" stroke="#999999" points="1664.5,-184 1587.5,-184 1587.5,-165 1664.5,-165 1664.5,-184"/>
<text text-anchor="middle" x="1626" y="-172" font-family="Helvetica,sans-Serif" font-size="10.00">sys/socket.h</text>
</a>
</g>
</g>
<!-- Node24&#45;&gt;Node26 -->
<g id="edge25_Node000024_Node000026" class="edge">
<title>Node24&#45;&gt;Node26</title>
<g id="a_edge25_Node000024_Node000026"><a xlink:title=" ">
<path fill="none" stroke="#63b8ff" d="M1818.11,-221.57C1780.77,-212.62 1715.34,-196.92 1671.34,-186.37"/>
<polygon fill="#63b8ff" stroke="#63b8ff" points="1672.02,-182.94 1661.48,-184.01 1670.38,-189.74 1672.02,-182.94"/>
</a>
</g>
</g>
<!-- Node27 -->
<g id="Node000027" class="node">
<title>Node27</title>
<g id="a_Node000027"><a xlink:title=" ">
<polygon fill="#e0e0e0" stroke="#999999" points="1755,-184 1683,-184 1683,-165 1755,-165 1755,-184"/>
<text text-anchor="middle" x="1719" y="-172" font-family="Helvetica,sans-Serif" font-size="10.00">netinet/in.h</text>
</a>
</g>
</g>
<!-- Node24&#45;&gt;Node27 -->
<g id="edge26_Node000024_Node000027" class="edge">
<title>Node24&#45;&gt;Node27</title>
<g id="a_edge26_Node000024_Node000027"><a xlink:title=" ">
<path fill="none" stroke="#63b8ff" d="M1826.43,-219.98C1805.57,-211.34 1773.03,-197.87 1749.23,-188.02"/>
<polygon fill="#63b8ff" stroke="#63b8ff" points="1750.52,-184.76 1739.94,-184.17 1747.84,-191.23 1750.52,-184.76"/>
</a>
</g>
</g>
<!-- Node28 -->
<g id="Node000028" class="node">
<title>Node28</title>
<g id="a_Node000028"><a xlink:title=" ">
<polygon fill="#e0e0e0" stroke="#999999" points="1842.5,-184 1773.5,-184 1773.5,-165 1842.5,-165 1842.5,-184"/>
<text text-anchor="middle" x="1808" y="-172" font-family="Helvetica,sans-Serif" font-size="10.00">arpa/inet.h</text>
</a>
</g>
</g>
<!-- Node24&#45;&gt;Node28 -->
<g id="edge27_Node000024_Node000028" class="edge">
<title>Node24&#45;&gt;Node28</title>
<g id="a_edge27_Node000024_Node000028"><a xlink:title=" ">
<path fill="none" stroke="#63b8ff" d="M1840.56,-219.75C1835.11,-212.34 1827.14,-201.5 1820.44,-192.41"/>
<polygon fill="#63b8ff" stroke="#63b8ff" points="1823.07,-190.07 1814.32,-184.09 1817.43,-194.22 1823.07,-190.07"/>
</a>
</g>
</g>
<!-- Node29 -->
<g id="Node000029" class="node">
<title>Node29</title>
<g id="a_Node000029"><a xlink:title=" ">
<polygon fill="#e0e0e0" stroke="#999999" points="1913.5,-184 1860.5,-184 1860.5,-165 1913.5,-165 1913.5,-184"/>
<text text-anchor="middle" x="1887" y="-172" font-family="Helvetica,sans-Serif" font-size="10.00">netdb.h</text>
</a>
</g>
</g>
<!-- Node24&#45;&gt;Node29 -->
<g id="edge28_Node000024_Node000029" class="edge">
<title>Node24&#45;&gt;Node29</title>
<g id="a_edge28_Node000024_Node000029"><a xlink:title=" ">
<path fill="none" stroke="#63b8ff" d="M1853.61,-219.75C1859.26,-212.26 1867.54,-201.28 1874.45,-192.13"/>
<polygon fill="#63b8ff" stroke="#63b8ff" points="1877.29,-194.18 1880.52,-184.09 1871.7,-189.96 1877.29,-194.18"/>
</a>
</g>
</g>
<!-- Node30 -->
<g id="Node000030" class="node">
<title>Node30</title>
<g id="a_Node000030"><a xlink:title=" ">
<polygon fill="#e0e0e0" stroke="#999999" points="1988,-184 1932,-184 1932,-165 1988,-165 1988,-184"/>
<text text-anchor="middle" x="1960" y="-172" font-family="Helvetica,sans-Serif" font-size="10.00">unistd.h</text>
</a>
</g>
</g>
<!-- Node24&#45;&gt;Node30 -->
<g id="edge29_Node000024_Node000030" class="edge">
<title>Node24&#45;&gt;Node30</title>
<g id="a_edge29_Node000024_Node000030"><a xlink:title=" ">
<path fill="none" stroke="#63b8ff" d="M1865.16,-219.98C1883.25,-211.5 1911.28,-198.35 1932.19,-188.54"/>
<polygon fill="#63b8ff" stroke="#63b8ff" points="1933.95,-191.59 1941.51,-184.17 1930.97,-185.25 1933.95,-191.59"/>
</a>
</g>
</g>
<!-- Node31 -->
<g id="Node000031" class="node">
<title>Node31</title>
<g id="a_Node000031"><a xlink:href="server_8h.html" target="_top" xlink:title=" ">
<polygon fill="white" stroke="#666666" points="2062,-184 2006,-184 2006,-165 2062,-165 2062,-184"/>
<text text-anchor="middle" x="2034" y="-172" font-family="Helvetica,sans-Serif" font-size="10.00">server.h</text>
</a>
</g>
</g>
<!-- Node24&#45;&gt;Node31 -->
<g id="edge30_Node000024_Node000031" class="edge">
<title>Node24&#45;&gt;Node31</title>
<g id="a_edge30_Node000024_Node000031"><a xlink:title=" ">
<path fill="none" stroke="#63b8ff" d="M1875.81,-220.33C1907.98,-211.22 1960.19,-196.42 1995.76,-186.34"/>
<polygon fill="#63b8ff" stroke="#63b8ff" points="1997.1,-189.6 2005.77,-183.5 1995.2,-182.86 1997.1,-189.6"/>
</a>
</g>
</g>
<!-- Node32 -->
<g id="Node000032" class="node">
<title>Node32</title>
<g id="a_Node000032"><a xlink:href="io_2socket_2client_8h.html" target="_top" xlink:title=" ">
<polygon fill="white" stroke="#666666" points="2133.5,-184 2080.5,-184 2080.5,-165 2133.5,-165 2133.5,-184"/>
<text text-anchor="middle" x="2107" y="-172" font-family="Helvetica,sans-Serif" font-size="10.00">client.h</text>
</a>
</g>
</g>
<!-- Node24&#45;&gt;Node32 -->
<g id="edge31_Node000024_Node000032" class="edge">
<title>Node24&#45;&gt;Node32</title>
<g id="a_edge31_Node000024_Node000032"><a xlink:title=" ">
<path fill="none" stroke="#63b8ff" d="M1875.71,-223.14C1916.56,-215.43 1994.04,-200.55 2070.06,-184.14"/>
<polygon fill="#63b8ff" stroke="#63b8ff" points="2071.26,-187.46 2080.29,-181.92 2069.77,-180.62 2071.26,-187.46"/>
</a>
</g>
</g>
<!-- Node33 -->
<g id="Node000033" class="node">
<title>Node33</title>
<g id="a_Node000033"><a xlink:href="network__utils_8h.html" target="_top" xlink:title=" ">
<polygon fill="white" stroke="#666666" points="2244,-184 2152,-184 2152,-165 2244,-165 2244,-184"/>
<text text-anchor="middle" x="2198" y="-172" font-family="Helvetica,sans-Serif" font-size="10.00">network_utils.h</text>
</a>
</g>
</g>
<!-- Node24&#45;&gt;Node33 -->
<g id="edge32_Node000024_Node000033" class="edge">
<title>Node24&#45;&gt;Node33</title>
<g id="a_edge32_Node000024_Node000033"><a xlink:title=" ">
<path fill="none" stroke="#63b8ff" d="M1875.58,-224.24C1926.75,-216.61 2037.66,-200.04 2141.74,-184.19"/>
<polygon fill="#63b8ff" stroke="#63b8ff" points="2142.43,-187.62 2151.79,-182.66 2141.38,-180.7 2142.43,-187.62"/>
</a>
</g>
</g>
</g>
</svg>
