<?xml version="1.0" encoding="UTF-8" standalone="no"?>
<!DOCTYPE svg PUBLIC "-//W3C//DTD SVG 1.1//EN"
 "http://www.w3.org/Graphics/SVG/1.1/DTD/svg11.dtd">
<!-- Generated by graphviz version 2.43.0 (0)
 -->
<!-- Title: src/physics/collision.c Pages: 1 -->
<svg width="2272pt" height="423pt"
 viewBox="0.00 0.00 2271.50 423.00" xmlns="http://www.w3.org/2000/svg" xmlns:xlink="http://www.w3.org/1999/xlink">
<g id="graph0" class="graph" transform="scale(1 1) rotate(0) translate(4 419)">
<title>src/physics/collision.c</title>
<!-- Node1 -->
<g id="Node000001" class="node">
<title>Node1</title>
<g id="a_Node000001"><a xlink:title=" ">
<polygon fill="#999999" stroke="#666666" points="1601,-415 1479,-415 1479,-396 1601,-396 1601,-415"/>
<text text-anchor="middle" x="1540" y="-403" font-family="Helvetica,sans-Serif" font-size="10.00">src/physics/collision.c</text>
</a>
</g>
</g>
<!-- Node2 -->
<g id="Node000002" class="node">
<title>Node2</title>
<g id="a_Node000002"><a xlink:href="raptiquax_8h.html" target="_top" xlink:title="This file contains type definitions for fixed&#45;width integer types and floating&#45;point types.">
<polygon fill="white" stroke="#666666" points="904.5,-250 823.5,-250 823.5,-231 904.5,-231 904.5,-250"/>
<text text-anchor="middle" x="864" y="-238" font-family="Helvetica,sans-Serif" font-size="10.00">../raptiquax.h</text>
</a>
</g>
</g>
<!-- Node1&#45;&gt;Node2 -->
<g id="edge1_Node000001_Node000002" class="edge">
<title>Node1&#45;&gt;Node2</title>
<g id="a_edge1_Node000001_Node000002"><a xlink:title=" ">
<path fill="none" stroke="#63b8ff" d="M1478.61,-404.46C1374.01,-403.34 1154.95,-396.36 974,-360 897.39,-344.6 852.81,-368.31 807,-305 793.69,-286.6 816.76,-267.46 837.42,-255.07"/>
<polygon fill="#63b8ff" stroke="#63b8ff" points="839.33,-258.01 846.3,-250.04 835.88,-251.92 839.33,-258.01"/>
</a>
</g>
</g>
<!-- Node24 -->
<g id="Node000024" class="node">
<title>Node24</title>
<g id="a_Node000024"><a xlink:href="math__util_8h.html" target="_top" xlink:title=" ">
<polygon fill="white" stroke="#666666" points="805,-250 695,-250 695,-231 805,-231 805,-250"/>
<text text-anchor="middle" x="750" y="-238" font-family="Helvetica,sans-Serif" font-size="10.00">../math/math_util.h</text>
</a>
</g>
</g>
<!-- Node1&#45;&gt;Node24 -->
<g id="edge23_Node000001_Node000024" class="edge">
<title>Node1&#45;&gt;Node24</title>
<g id="a_edge23_Node000001_Node000024"><a xlink:title=" ">
<path fill="none" stroke="#63b8ff" d="M1478.9,-403.36C1319.7,-400.01 900.59,-388.55 845,-360 801.95,-337.89 771.79,-286.57 758.18,-259.29"/>
<polygon fill="#63b8ff" stroke="#63b8ff" points="761.26,-257.62 753.77,-250.12 754.95,-260.65 761.26,-257.62"/>
</a>
</g>
</g>
<!-- Node25 -->
<g id="Node000025" class="node">
<title>Node25</title>
<g id="a_Node000025"><a xlink:href="model_8h.html" target="_top" xlink:title="Defines structures and functions for handling 3D models and their properties.">
<polygon fill="white" stroke="#666666" points="1562.5,-250 1485.5,-250 1485.5,-231 1562.5,-231 1562.5,-250"/>
<text text-anchor="middle" x="1524" y="-238" font-family="Helvetica,sans-Serif" font-size="10.00">../io/model.h</text>
</a>
</g>
</g>
<!-- Node1&#45;&gt;Node25 -->
<g id="edge24_Node000001_Node000025" class="edge">
<title>Node1&#45;&gt;Node25</title>
<g id="a_edge24_Node000001_Node000025"><a xlink:title=" ">
<path fill="none" stroke="#63b8ff" d="M1482.56,-395.97C1441.96,-388.63 1392.6,-376.59 1380,-360 1339.63,-306.87 1396.49,-373.09 1483,-305 1498.27,-292.98 1509.59,-273.62 1516.42,-259.44"/>
<polygon fill="#63b8ff" stroke="#63b8ff" points="1519.67,-260.75 1520.6,-250.2 1513.29,-257.87 1519.67,-260.75"/>
</a>
</g>
</g>
<!-- Node31 -->
<g id="Node000031" class="node">
<title>Node31</title>
<g id="a_Node000031"><a xlink:href="framebuffer_8h.html" target="_top" xlink:title=" ">
<polygon fill="white" stroke="#666666" points="1694,-305 1568,-305 1568,-286 1694,-286 1694,-305"/>
<text text-anchor="middle" x="1631" y="-293" font-family="Helvetica,sans-Serif" font-size="10.00">../render/framebuffer.h</text>
</a>
</g>
</g>
<!-- Node1&#45;&gt;Node31 -->
<g id="edge30_Node000001_Node000031" class="edge">
<title>Node1&#45;&gt;Node31</title>
<g id="a_edge30_Node000001_Node000031"><a xlink:title=" ">
<path fill="none" stroke="#63b8ff" d="M1561.52,-395.92C1577.33,-388.58 1598.19,-376.57 1611,-360 1621.05,-347 1626.11,-328.85 1628.62,-315.28"/>
<polygon fill="#63b8ff" stroke="#63b8ff" points="1632.11,-315.6 1630.18,-305.18 1625.19,-314.53 1632.11,-315.6"/>
</a>
</g>
</g>
<!-- Node33 -->
<g id="Node000033" class="node">
<title>Node33</title>
<g id="a_Node000033"><a xlink:href="node_8h.html" target="_top" xlink:title=" ">
<polygon fill="white" stroke="#666666" points="1183,-360 1085,-360 1085,-341 1183,-341 1183,-360"/>
<text text-anchor="middle" x="1134" y="-348" font-family="Helvetica,sans-Serif" font-size="10.00">../storage/node.h</text>
</a>
</g>
</g>
<!-- Node1&#45;&gt;Node33 -->
<g id="edge32_Node000001_Node000033" class="edge">
<title>Node1&#45;&gt;Node33</title>
<g id="a_edge32_Node000001_Node000033"><a xlink:title=" ">
<path fill="none" stroke="#63b8ff" d="M1478.78,-396.51C1401.5,-386.42 1269.48,-369.19 1193.18,-359.23"/>
<polygon fill="#63b8ff" stroke="#63b8ff" points="1193.62,-355.75 1183.25,-357.93 1192.72,-362.69 1193.62,-355.75"/>
</a>
</g>
</g>
<!-- Node34 -->
<g id="Node000034" class="node">
<title>Node34</title>
<g id="a_Node000034"><a xlink:href="camera_8h.html" target="_top" xlink:title=" ">
<polygon fill="white" stroke="#666666" points="922,-305 816,-305 816,-286 922,-286 922,-305"/>
<text text-anchor="middle" x="869" y="-293" font-family="Helvetica,sans-Serif" font-size="10.00">../render/camera.h</text>
</a>
</g>
</g>
<!-- Node1&#45;&gt;Node34 -->
<g id="edge46_Node000001_Node000034" class="edge">
<title>Node1&#45;&gt;Node34</title>
<g id="a_edge46_Node000001_Node000034"><a xlink:title=" ">
<path fill="none" stroke="#63b8ff" d="M1478.77,-404.27C1383.7,-402.76 1195.35,-395.09 1040,-360 987.65,-348.17 929.67,-324.18 896.46,-309.31"/>
<polygon fill="#63b8ff" stroke="#63b8ff" points="897.53,-305.95 886.98,-305.01 894.64,-312.33 897.53,-305.95"/>
</a>
</g>
</g>
<!-- Node35 -->
<g id="Node000035" class="node">
<title>Node35</title>
<g id="a_Node000035"><a xlink:href="bodies_8h.html" target="_top" xlink:title=" ">
<polygon fill="white" stroke="#666666" points="1047.5,-305 940.5,-305 940.5,-286 1047.5,-286 1047.5,-305"/>
<text text-anchor="middle" x="994" y="-293" font-family="Helvetica,sans-Serif" font-size="10.00">../physics/bodies.h</text>
</a>
</g>
</g>
<!-- Node1&#45;&gt;Node35 -->
<g id="edge61_Node000001_Node000035" class="edge">
<title>Node1&#45;&gt;Node35</title>
<g id="a_edge61_Node000001_Node000035"><a xlink:title=" ">
<path fill="none" stroke="#63b8ff" d="M1478.92,-402.84C1370.19,-399.2 1147.75,-388.43 1076,-360 1049.49,-349.49 1024.39,-327.68 1009.11,-312.57"/>
<polygon fill="#63b8ff" stroke="#63b8ff" points="1011.56,-310.07 1002.06,-305.38 1006.56,-314.97 1011.56,-310.07"/>
</a>
</g>
</g>
<!-- Node38 -->
<g id="Node000038" class="node">
<title>Node38</title>
<g id="a_Node000038"><a xlink:href="window_8h.html" target="_top" xlink:title=" ">
<polygon fill="white" stroke="#666666" points="1459.5,-360 1388.5,-360 1388.5,-341 1459.5,-341 1459.5,-360"/>
<text text-anchor="middle" x="1424" y="-348" font-family="Helvetica,sans-Serif" font-size="10.00">../window.h</text>
</a>
</g>
</g>
<!-- Node1&#45;&gt;Node38 -->
<g id="edge45_Node000001_Node000038" class="edge">
<title>Node1&#45;&gt;Node38</title>
<g id="a_edge45_Node000001_Node000038"><a xlink:title=" ">
<path fill="none" stroke="#63b8ff" d="M1521.36,-395.98C1502.7,-387.46 1473.75,-374.23 1452.26,-364.41"/>
<polygon fill="#63b8ff" stroke="#63b8ff" points="1453.53,-361.14 1442.98,-360.17 1450.62,-367.51 1453.53,-361.14"/>
</a>
</g>
</g>
<!-- Node39 -->
<g id="Node000039" class="node">
<title>Node39</title>
<g id="a_Node000039"><a xlink:href="depth__map_8h.html" target="_top" xlink:title=" ">
<polygon fill="white" stroke="#666666" points="1602,-360 1478,-360 1478,-341 1602,-341 1602,-360"/>
<text text-anchor="middle" x="1540" y="-348" font-family="Helvetica,sans-Serif" font-size="10.00">../render/depth_map.h</text>
</a>
</g>
</g>
<!-- Node1&#45;&gt;Node39 -->
<g id="edge47_Node000001_Node000039" class="edge">
<title>Node1&#45;&gt;Node39</title>
<g id="a_edge47_Node000001_Node000039"><a xlink:title=" ">
<path fill="none" stroke="#63b8ff" d="M1540,-395.75C1540,-388.8 1540,-378.85 1540,-370.13"/>
<polygon fill="#63b8ff" stroke="#63b8ff" points="1543.5,-370.09 1540,-360.09 1536.5,-370.09 1543.5,-370.09"/>
</a>
</g>
</g>
<!-- Node40 -->
<g id="Node000040" class="node">
<title>Node40</title>
<g id="a_Node000040"><a xlink:href="lighting_8h.html" target="_top" xlink:title=" ">
<polygon fill="white" stroke="#666666" points="1903,-305 1797,-305 1797,-286 1903,-286 1903,-305"/>
<text text-anchor="middle" x="1850" y="-293" font-family="Helvetica,sans-Serif" font-size="10.00">../render/lighting.h</text>
</a>
</g>
</g>
<!-- Node1&#45;&gt;Node40 -->
<g id="edge50_Node000001_Node000040" class="edge">
<title>Node1&#45;&gt;Node40</title>
<g id="a_edge50_Node000001_Node000040"><a xlink:title=" ">
<path fill="none" stroke="#63b8ff" d="M1601.2,-404.76C1654.88,-402.51 1733.44,-393.06 1793,-360 1812.76,-349.03 1829.22,-328.58 1839.28,-313.85"/>
<polygon fill="#63b8ff" stroke="#63b8ff" points="1842.43,-315.44 1844.95,-305.15 1836.56,-311.62 1842.43,-315.44"/>
</a>
</g>
</g>
<!-- Node41 -->
<g id="Node000041" class="node">
<title>Node41</title>
<g id="a_Node000041"><a xlink:href="gltexture__loader_8h.html" target="_top" xlink:title=" ">
<polygon fill="white" stroke="#666666" points="1784,-360 1658,-360 1658,-341 1784,-341 1784,-360"/>
<text text-anchor="middle" x="1721" y="-348" font-family="Helvetica,sans-Serif" font-size="10.00">../io/gltexture_loader.h</text>
</a>
</g>
</g>
<!-- Node1&#45;&gt;Node41 -->
<g id="edge51_Node000001_Node000041" class="edge">
<title>Node1&#45;&gt;Node41</title>
<g id="a_edge51_Node000001_Node000041"><a xlink:title=" ">
<path fill="none" stroke="#63b8ff" d="M1569.08,-395.98C1599.6,-387.05 1647.76,-372.94 1681.66,-363.02"/>
<polygon fill="#63b8ff" stroke="#63b8ff" points="1683.08,-366.25 1691.69,-360.08 1681.11,-359.53 1683.08,-366.25"/>
</a>
</g>
</g>
<!-- Node42 -->
<g id="Node000042" class="node">
<title>Node42</title>
<g id="a_Node000042"><a xlink:href="classes_8h.html" target="_top" xlink:title=" ">
<polygon fill="white" stroke="#666666" points="1332,-360 1222,-360 1222,-341 1332,-341 1332,-360"/>
<text text-anchor="middle" x="1277" y="-348" font-family="Helvetica,sans-Serif" font-size="10.00">../classes/classes.h</text>
</a>
</g>
</g>
<!-- Node1&#45;&gt;Node42 -->
<g id="edge52_Node000001_Node000042" class="edge">
<title>Node1&#45;&gt;Node42</title>
<g id="a_edge52_Node000001_Node000042"><a xlink:title=" ">
<path fill="none" stroke="#63b8ff" d="M1497.74,-395.98C1451.96,-386.76 1378.86,-372.03 1329.45,-362.07"/>
<polygon fill="#63b8ff" stroke="#63b8ff" points="1330.08,-358.63 1319.59,-360.08 1328.7,-365.49 1330.08,-358.63"/>
</a>
</g>
</g>
<!-- Node45 -->
<g id="Node000045" class="node">
<title>Node45</title>
<g id="a_Node000045"><a xlink:href="memory_8h.html" target="_top" xlink:title="Header file for memory management functions and structures.">
<polygon fill="white" stroke="#666666" points="1914,-360 1840,-360 1840,-341 1914,-341 1914,-360"/>
<text text-anchor="middle" x="1877" y="-348" font-family="Helvetica,sans-Serif" font-size="10.00">../memory.h</text>
</a>
</g>
</g>
<!-- Node1&#45;&gt;Node45 -->
<g id="edge56_Node000001_Node000045" class="edge">
<title>Node1&#45;&gt;Node45</title>
<g id="a_edge56_Node000001_Node000045"><a xlink:title=" ">
<path fill="none" stroke="#63b8ff" d="M1595.93,-395.98C1653.6,-387.15 1746.13,-372.87 1826,-360 1827.27,-359.8 1828.56,-359.59 1829.86,-359.38"/>
<polygon fill="#63b8ff" stroke="#63b8ff" points="1830.66,-362.79 1839.96,-357.72 1829.53,-355.88 1830.66,-362.79"/>
</a>
</g>
</g>
<!-- Node46 -->
<g id="Node000046" class="node">
<title>Node46</title>
<g id="a_Node000046"><a xlink:href="buffer_8h.html" target="_top" xlink:title="Functions for initializing and freeing Game.buffers&#45;&gt;">
<polygon fill="white" stroke="#666666" points="1994,-360 1932,-360 1932,-341 1994,-341 1994,-360"/>
<text text-anchor="middle" x="1963" y="-348" font-family="Helvetica,sans-Serif" font-size="10.00">../buffer.h</text>
</a>
</g>
</g>
<!-- Node1&#45;&gt;Node46 -->
<g id="edge57_Node000001_Node000046" class="edge">
<title>Node1&#45;&gt;Node46</title>
<g id="a_edge57_Node000001_Node000046"><a xlink:title=" ">
<path fill="none" stroke="#63b8ff" d="M1601.27,-399.17C1675.03,-392.35 1802.81,-379.26 1921.61,-360.09"/>
<polygon fill="#63b8ff" stroke="#63b8ff" points="1922.3,-363.53 1931.61,-358.46 1921.18,-356.62 1922.3,-363.53"/>
</a>
</g>
</g>
<!-- Node47 -->
<g id="Node000047" class="node">
<title>Node47</title>
<g id="a_Node000047"><a xlink:href="physics_8h.html" target="_top" xlink:title=" ">
<polygon fill="white" stroke="#666666" points="2074,-360 2012,-360 2012,-341 2074,-341 2074,-360"/>
<text text-anchor="middle" x="2043" y="-348" font-family="Helvetica,sans-Serif" font-size="10.00">physics.h</text>
</a>
</g>
</g>
<!-- Node1&#45;&gt;Node47 -->
<g id="edge58_Node000001_Node000047" class="edge">
<title>Node1&#45;&gt;Node47</title>
<g id="a_edge58_Node000001_Node000047"><a xlink:title=" ">
<path fill="none" stroke="#63b8ff" d="M1601.32,-400.83C1688.22,-395.14 1852.35,-382.58 2001.37,-360.09"/>
<polygon fill="#63b8ff" stroke="#63b8ff" points="2002.26,-363.49 2011.62,-358.52 2001.21,-356.57 2002.26,-363.49"/>
</a>
</g>
</g>
<!-- Node48 -->
<g id="Node000048" class="node">
<title>Node48</title>
<g id="a_Node000048"><a xlink:href="collision_8h.html" target="_top" xlink:title=" ">
<polygon fill="white" stroke="#666666" points="2158,-360 2092,-360 2092,-341 2158,-341 2158,-360"/>
<text text-anchor="middle" x="2125" y="-348" font-family="Helvetica,sans-Serif" font-size="10.00">collision.h</text>
</a>
</g>
</g>
<!-- Node1&#45;&gt;Node48 -->
<g id="edge62_Node000001_Node000048" class="edge">
<title>Node1&#45;&gt;Node48</title>
<g id="a_edge62_Node000001_Node000048"><a xlink:title=" ">
<path fill="none" stroke="#63b8ff" d="M1601.34,-401.83C1700.39,-397.01 1901.83,-385.05 2081.69,-360.03"/>
<polygon fill="#63b8ff" stroke="#63b8ff" points="2082.18,-363.49 2091.59,-358.63 2081.2,-356.56 2082.18,-363.49"/>
</a>
</g>
</g>
<!-- Node49 -->
<g id="Node000049" class="node">
<title>Node49</title>
<g id="a_Node000049"><a xlink:href="collision__util_8h.html" target="_top" xlink:title=" ">
<polygon fill="white" stroke="#666666" points="2263.5,-360 2176.5,-360 2176.5,-341 2263.5,-341 2263.5,-360"/>
<text text-anchor="middle" x="2220" y="-348" font-family="Helvetica,sans-Serif" font-size="10.00">collision_util.h</text>
</a>
</g>
</g>
<!-- Node1&#45;&gt;Node49 -->
<g id="edge63_Node000001_Node000049" class="edge">
<title>Node1&#45;&gt;Node49</title>
<g id="a_edge63_Node000001_Node000049"><a xlink:title=" ">
<path fill="none" stroke="#63b8ff" d="M1601.13,-401.95C1711.72,-396.96 1952.53,-384.28 2166.22,-359.98"/>
<polygon fill="#63b8ff" stroke="#63b8ff" points="2166.83,-363.43 2176.37,-358.81 2166.04,-356.47 2166.83,-363.43"/>
</a>
</g>
</g>
<!-- Node3 -->
<g id="Node000003" class="node">
<title>Node3</title>
<g id="a_Node000003"><a xlink:title=" ">
<polygon fill="#e0e0e0" stroke="#999999" points="835,-189.5 785,-189.5 785,-170.5 835,-170.5 835,-189.5"/>
<text text-anchor="middle" x="810" y="-177.5" font-family="Helvetica,sans-Serif" font-size="10.00">stdio.h</text>
</a>
</g>
</g>
<!-- Node2&#45;&gt;Node3 -->
<g id="edge2_Node000002_Node000003" class="edge">
<title>Node2&#45;&gt;Node3</title>
<g id="a_edge2_Node000002_Node000003"><a xlink:title=" ">
<path fill="none" stroke="#63b8ff" d="M856.03,-230.87C847.9,-222.05 835.07,-208.16 825.02,-197.27"/>
<polygon fill="#63b8ff" stroke="#63b8ff" points="827.36,-194.64 818,-189.67 822.21,-199.39 827.36,-194.64"/>
</a>
</g>
</g>
<!-- Node4 -->
<g id="Node000004" class="node">
<title>Node4</title>
<g id="a_Node000004"><a xlink:title=" ">
<polygon fill="#e0e0e0" stroke="#999999" points="906.5,-189.5 853.5,-189.5 853.5,-170.5 906.5,-170.5 906.5,-189.5"/>
<text text-anchor="middle" x="880" y="-177.5" font-family="Helvetica,sans-Serif" font-size="10.00">stdint.h</text>
</a>
</g>
</g>
<!-- Node2&#45;&gt;Node4 -->
<g id="edge3_Node000002_Node000004" class="edge">
<title>Node2&#45;&gt;Node4</title>
<g id="a_edge3_Node000002_Node000004"><a xlink:title=" ">
<path fill="none" stroke="#63b8ff" d="M866.36,-230.87C868.61,-222.66 872.06,-210.04 874.93,-199.55"/>
<polygon fill="#63b8ff" stroke="#63b8ff" points="878.37,-200.24 877.63,-189.67 871.62,-198.39 878.37,-200.24"/>
</a>
</g>
</g>
<!-- Node5 -->
<g id="Node000005" class="node">
<title>Node5</title>
<g id="a_Node000005"><a xlink:title=" ">
<polygon fill="#e0e0e0" stroke="#999999" points="987,-189.5 925,-189.5 925,-170.5 987,-170.5 987,-189.5"/>
<text text-anchor="middle" x="956" y="-177.5" font-family="Helvetica,sans-Serif" font-size="10.00">stdbool.h</text>
</a>
</g>
</g>
<!-- Node2&#45;&gt;Node5 -->
<g id="edge4_Node000002_Node000005" class="edge">
<title>Node2&#45;&gt;Node5</title>
<g id="a_edge4_Node000002_Node000005"><a xlink:title=" ">
<path fill="none" stroke="#63b8ff" d="M877.57,-230.87C892.39,-221.45 916.33,-206.23 933.86,-195.08"/>
<polygon fill="#63b8ff" stroke="#63b8ff" points="935.81,-197.99 942.37,-189.67 932.05,-192.08 935.81,-197.99"/>
</a>
</g>
</g>
<!-- Node6 -->
<g id="Node000006" class="node">
<title>Node6</title>
<g id="a_Node000006"><a xlink:title=" ">
<polygon fill="#e0e0e0" stroke="#999999" points="1061,-189.5 1005,-189.5 1005,-170.5 1061,-170.5 1061,-189.5"/>
<text text-anchor="middle" x="1033" y="-177.5" font-family="Helvetica,sans-Serif" font-size="10.00">stdarg.h</text>
</a>
</g>
</g>
<!-- Node2&#45;&gt;Node6 -->
<g id="edge5_Node000002_Node000006" class="edge">
<title>Node2&#45;&gt;Node6</title>
<g id="a_edge5_Node000002_Node000006"><a xlink:title=" ">
<path fill="none" stroke="#63b8ff" d="M890.39,-230.92C917.11,-222.15 959.57,-208.03 996,-195 997.65,-194.41 999.33,-193.8 1001.03,-193.18"/>
<polygon fill="#63b8ff" stroke="#63b8ff" points="1002.59,-196.33 1010.74,-189.57 1000.15,-189.77 1002.59,-196.33"/>
</a>
</g>
</g>
<!-- Node7 -->
<g id="Node000007" class="node">
<title>Node7</title>
<g id="a_Node000007"><a xlink:title=" ">
<polygon fill="#e0e0e0" stroke="#999999" points="1132.5,-189.5 1079.5,-189.5 1079.5,-170.5 1132.5,-170.5 1132.5,-189.5"/>
<text text-anchor="middle" x="1106" y="-177.5" font-family="Helvetica,sans-Serif" font-size="10.00">limits.h</text>
</a>
</g>
</g>
<!-- Node2&#45;&gt;Node7 -->
<g id="edge6_Node000002_Node000007" class="edge">
<title>Node2&#45;&gt;Node7</title>
<g id="a_edge6_Node000002_Node000007"><a xlink:title=" ">
<path fill="none" stroke="#63b8ff" d="M904.74,-232.67C946.65,-225.18 1013.58,-211.95 1070,-195 1071.93,-194.42 1073.9,-193.79 1075.87,-193.12"/>
<polygon fill="#63b8ff" stroke="#63b8ff" points="1077.43,-196.27 1085.64,-189.56 1075.04,-189.69 1077.43,-196.27"/>
</a>
</g>
</g>
<!-- Node8 -->
<g id="Node000008" class="node">
<title>Node8</title>
<g id="a_Node000008"><a xlink:title=" ">
<polygon fill="#e0e0e0" stroke="#999999" points="1223,-189.5 1151,-189.5 1151,-170.5 1223,-170.5 1223,-189.5"/>
<text text-anchor="middle" x="1187" y="-177.5" font-family="Helvetica,sans-Serif" font-size="10.00">SDL2/SDL.h</text>
</a>
</g>
</g>
<!-- Node2&#45;&gt;Node8 -->
<g id="edge7_Node000002_Node000008" class="edge">
<title>Node2&#45;&gt;Node8</title>
<g id="a_edge7_Node000002_Node000008"><a xlink:title=" ">
<path fill="none" stroke="#63b8ff" d="M904.7,-234.72C959.01,-227.95 1057.96,-214.21 1141,-195 1144.35,-194.22 1147.82,-193.33 1151.28,-192.39"/>
<polygon fill="#63b8ff" stroke="#63b8ff" points="1152.25,-195.75 1160.89,-189.62 1150.32,-189.02 1152.25,-195.75"/>
</a>
</g>
</g>
<!-- Node9 -->
<g id="Node000009" class="node">
<title>Node9</title>
<g id="a_Node000009"><a xlink:title=" ">
<polygon fill="#e0e0e0" stroke="#999999" points="1349,-189.5 1241,-189.5 1241,-170.5 1349,-170.5 1349,-189.5"/>
<text text-anchor="middle" x="1295" y="-177.5" font-family="Helvetica,sans-Serif" font-size="10.00">SDL2/SDL_image.h</text>
</a>
</g>
</g>
<!-- Node2&#45;&gt;Node9 -->
<g id="edge8_Node000002_Node000009" class="edge">
<title>Node2&#45;&gt;Node9</title>
<g id="a_edge8_Node000002_Node000009"><a xlink:title=" ">
<path fill="none" stroke="#63b8ff" d="M904.76,-235.89C972.83,-229.57 1113.86,-215.22 1232,-195 1237.73,-194.02 1243.73,-192.86 1249.64,-191.64"/>
<polygon fill="#63b8ff" stroke="#63b8ff" points="1250.42,-195.05 1259.47,-189.54 1248.96,-188.2 1250.42,-195.05"/>
</a>
</g>
</g>
<!-- Node10 -->
<g id="Node000010" class="node">
<title>Node10</title>
<g id="a_Node000010"><a xlink:title=" ">
<polygon fill="#e0e0e0" stroke="#999999" points="1477,-189.5 1367,-189.5 1367,-170.5 1477,-170.5 1477,-189.5"/>
<text text-anchor="middle" x="1422" y="-177.5" font-family="Helvetica,sans-Serif" font-size="10.00">SDL2/SDL_opengl.h</text>
</a>
</g>
</g>
<!-- Node2&#45;&gt;Node10 -->
<g id="edge9_Node000002_Node000010" class="edge">
<title>Node2&#45;&gt;Node10</title>
<g id="a_edge9_Node000002_Node000010"><a xlink:title=" ">
<path fill="none" stroke="#63b8ff" d="M904.62,-236.5C1006.46,-228.88 1270.76,-208.42 1358,-195 1364.2,-194.05 1370.69,-192.86 1377.07,-191.57"/>
<polygon fill="#63b8ff" stroke="#63b8ff" points="1377.87,-194.98 1386.94,-189.5 1376.43,-188.13 1377.87,-194.98"/>
</a>
</g>
</g>
<!-- Node11 -->
<g id="Node000011" class="node">
<title>Node11</title>
<g id="a_Node000011"><a xlink:title=" ">
<polygon fill="#e0e0e0" stroke="#999999" points="104,-189.5 0,-189.5 0,-170.5 104,-170.5 104,-189.5"/>
<text text-anchor="middle" x="52" y="-177.5" font-family="Helvetica,sans-Serif" font-size="10.00">SDL2/SDL_mixer.h</text>
</a>
</g>
</g>
<!-- Node2&#45;&gt;Node11 -->
<g id="edge10_Node000002_Node000011" class="edge">
<title>Node2&#45;&gt;Node11</title>
<g id="a_edge10_Node000002_Node000011"><a xlink:title=" ">
<path fill="none" stroke="#63b8ff" d="M823.4,-232.19C820.22,-231.74 817.06,-231.34 814,-231 503.91,-196.8 421.98,-238.06 113,-195 107,-194.16 100.72,-193.03 94.57,-191.76"/>
<polygon fill="#63b8ff" stroke="#63b8ff" points="94.93,-188.26 84.41,-189.54 93.43,-195.1 94.93,-188.26"/>
</a>
</g>
</g>
<!-- Node12 -->
<g id="Node000012" class="node">
<title>Node12</title>
<g id="a_Node000012"><a xlink:title=" ">
<polygon fill="#e0e0e0" stroke="#999999" points="210,-189.5 122,-189.5 122,-170.5 210,-170.5 210,-189.5"/>
<text text-anchor="middle" x="166" y="-177.5" font-family="Helvetica,sans-Serif" font-size="10.00">SDL2/SDL_ttf.h</text>
</a>
</g>
</g>
<!-- Node2&#45;&gt;Node12 -->
<g id="edge11_Node000002_Node000012" class="edge">
<title>Node2&#45;&gt;Node12</title>
<g id="a_edge11_Node000002_Node000012"><a xlink:title=" ">
<path fill="none" stroke="#63b8ff" d="M823.39,-232.22C820.22,-231.77 817.06,-231.35 814,-231 550.8,-200.76 480.57,-237.04 219,-195 214.15,-194.22 209.09,-193.18 204.12,-192.03"/>
<polygon fill="#63b8ff" stroke="#63b8ff" points="204.66,-188.56 194.11,-189.53 202.96,-195.35 204.66,-188.56"/>
</a>
</g>
</g>
<!-- Node13 -->
<g id="Node000013" class="node">
<title>Node13</title>
<g id="a_Node000013"><a xlink:title=" ">
<polygon fill="#e0e0e0" stroke="#999999" points="278,-189.5 228,-189.5 228,-170.5 278,-170.5 278,-189.5"/>
<text text-anchor="middle" x="253" y="-177.5" font-family="Helvetica,sans-Serif" font-size="10.00">GL/gl.h</text>
</a>
</g>
</g>
<!-- Node2&#45;&gt;Node13 -->
<g id="edge12_Node000002_Node000013" class="edge">
<title>Node2&#45;&gt;Node13</title>
<g id="a_edge12_Node000002_Node000013"><a xlink:title=" ">
<path fill="none" stroke="#63b8ff" d="M823.39,-232.25C820.22,-231.79 817.06,-231.36 814,-231 580.87,-203.29 515.62,-248.39 287,-195 284.78,-194.48 282.51,-193.83 280.26,-193.1"/>
<polygon fill="#63b8ff" stroke="#63b8ff" points="281.23,-189.73 270.64,-189.52 278.79,-196.29 281.23,-189.73"/>
</a>
</g>
</g>
<!-- Node14 -->
<g id="Node000014" class="node">
<title>Node14</title>
<g id="a_Node000014"><a xlink:title=" ">
<polygon fill="#e0e0e0" stroke="#999999" points="352,-189.5 296,-189.5 296,-170.5 352,-170.5 352,-189.5"/>
<text text-anchor="middle" x="324" y="-177.5" font-family="Helvetica,sans-Serif" font-size="10.00">GL/glu.h</text>
</a>
</g>
</g>
<!-- Node2&#45;&gt;Node14 -->
<g id="edge13_Node000002_Node000014" class="edge">
<title>Node2&#45;&gt;Node14</title>
<g id="a_edge13_Node000002_Node000014"><a xlink:title=" ">
<path fill="none" stroke="#63b8ff" d="M823.39,-232.28C820.21,-231.82 817.06,-231.38 814,-231 613.58,-206.05 558.08,-239.18 361,-195 358.48,-194.43 355.9,-193.73 353.33,-192.95"/>
<polygon fill="#63b8ff" stroke="#63b8ff" points="354.25,-189.56 343.65,-189.61 351.97,-196.18 354.25,-189.56"/>
</a>
</g>
</g>
<!-- Node15 -->
<g id="Node000015" class="node">
<title>Node15</title>
<g id="a_Node000015"><a xlink:title=" ">
<polygon fill="#e0e0e0" stroke="#999999" points="436,-189.5 370,-189.5 370,-170.5 436,-170.5 436,-189.5"/>
<text text-anchor="middle" x="403" y="-177.5" font-family="Helvetica,sans-Serif" font-size="10.00">GL/glext.h</text>
</a>
</g>
</g>
<!-- Node2&#45;&gt;Node15 -->
<g id="edge14_Node000002_Node000015" class="edge">
<title>Node2&#45;&gt;Node15</title>
<g id="a_edge14_Node000002_Node000015"><a xlink:title=" ">
<path fill="none" stroke="#63b8ff" d="M823.38,-232.35C820.21,-231.86 817.05,-231.41 814,-231 650.67,-209.18 606.18,-229.27 445,-195 441.77,-194.31 438.44,-193.46 435.13,-192.52"/>
<polygon fill="#63b8ff" stroke="#63b8ff" points="436,-189.13 425.41,-189.5 433.92,-195.81 436,-189.13"/>
</a>
</g>
</g>
<!-- Node16 -->
<g id="Node000016" class="node">
<title>Node16</title>
<g id="a_Node000016"><a xlink:title=" ">
<polygon fill="#e0e0e0" stroke="#999999" points="531.5,-189.5 454.5,-189.5 454.5,-170.5 531.5,-170.5 531.5,-189.5"/>
<text text-anchor="middle" x="493" y="-177.5" font-family="Helvetica,sans-Serif" font-size="10.00">cglm/cglm.h</text>
</a>
</g>
</g>
<!-- Node2&#45;&gt;Node16 -->
<g id="edge15_Node000002_Node000016" class="edge">
<title>Node2&#45;&gt;Node16</title>
<g id="a_edge15_Node000002_Node000016"><a xlink:title=" ">
<path fill="none" stroke="#63b8ff" d="M823.36,-232.46C820.2,-231.95 817.05,-231.46 814,-231 692.55,-212.7 660.12,-220.61 540,-195 536.37,-194.23 532.62,-193.31 528.89,-192.32"/>
<polygon fill="#63b8ff" stroke="#63b8ff" points="529.73,-188.93 519.16,-189.59 527.84,-195.67 529.73,-188.93"/>
</a>
</g>
</g>
<!-- Node17 -->
<g id="Node000017" class="node">
<title>Node17</title>
<g id="a_Node000017"><a xlink:title=" ">
<polygon fill="#e0e0e0" stroke="#999999" points="600.5,-189.5 549.5,-189.5 549.5,-170.5 600.5,-170.5 600.5,-189.5"/>
<text text-anchor="middle" x="575" y="-177.5" font-family="Helvetica,sans-Serif" font-size="10.00">math.h</text>
</a>
</g>
</g>
<!-- Node2&#45;&gt;Node17 -->
<g id="edge16_Node000002_Node000017" class="edge">
<title>Node2&#45;&gt;Node17</title>
<g id="a_edge16_Node000002_Node000017"><a xlink:title=" ">
<path fill="none" stroke="#63b8ff" d="M823.35,-232.49C752.91,-220.32 615.12,-196.46 610,-195 608.06,-194.45 606.09,-193.83 604.11,-193.16"/>
<polygon fill="#63b8ff" stroke="#63b8ff" points="604.97,-189.75 594.37,-189.58 602.55,-196.32 604.97,-189.75"/>
</a>
</g>
</g>
<!-- Node18 -->
<g id="Node000018" class="node">
<title>Node18</title>
<g id="a_Node000018"><a xlink:href="stringio_8h.html" target="_top" xlink:title="Provides utility functions for string and file operations.">
<polygon fill="white" stroke="#666666" points="693,-189.5 619,-189.5 619,-170.5 693,-170.5 693,-189.5"/>
<text text-anchor="middle" x="656" y="-177.5" font-family="Helvetica,sans-Serif" font-size="10.00">io/stringio.h</text>
</a>
</g>
</g>
<!-- Node2&#45;&gt;Node18 -->
<g id="edge17_Node000002_Node000018" class="edge">
<title>Node2&#45;&gt;Node18</title>
<g id="a_edge17_Node000002_Node000018"><a xlink:title=" ">
<path fill="none" stroke="#63b8ff" d="M831.96,-230.98C799.23,-222.2 746.97,-208.02 702,-195 699.22,-194.19 696.35,-193.35 693.46,-192.49"/>
<polygon fill="#63b8ff" stroke="#63b8ff" points="694.28,-189.09 683.69,-189.56 692.27,-195.79 694.28,-189.09"/>
</a>
</g>
</g>
<!-- Node20 -->
<g id="Node000020" class="node">
<title>Node20</title>
<g id="a_Node000020"><a xlink:href="config_8h.html" target="_top" xlink:title=" ">
<polygon fill="white" stroke="#666666" points="766.5,-189.5 711.5,-189.5 711.5,-170.5 766.5,-170.5 766.5,-189.5"/>
<text text-anchor="middle" x="739" y="-177.5" font-family="Helvetica,sans-Serif" font-size="10.00">config.h</text>
</a>
</g>
</g>
<!-- Node2&#45;&gt;Node20 -->
<g id="edge19_Node000002_Node000020" class="edge">
<title>Node2&#45;&gt;Node20</title>
<g id="a_edge19_Node000002_Node000020"><a xlink:title=" ">
<path fill="none" stroke="#63b8ff" d="M845.82,-230.99C824.99,-221.25 790.63,-205.16 766.52,-193.88"/>
<polygon fill="#63b8ff" stroke="#63b8ff" points="767.74,-190.59 757.2,-189.52 764.77,-196.93 767.74,-190.59"/>
</a>
</g>
</g>
<!-- Node19 -->
<g id="Node000019" class="node">
<title>Node19</title>
<g id="a_Node000019"><a xlink:title=" ">
<polygon fill="#e0e0e0" stroke="#999999" points="682.5,-129 629.5,-129 629.5,-110 682.5,-110 682.5,-129"/>
<text text-anchor="middle" x="656" y="-117" font-family="Helvetica,sans-Serif" font-size="10.00">string.h</text>
</a>
</g>
</g>
<!-- Node18&#45;&gt;Node19 -->
<g id="edge18_Node000018_Node000019" class="edge">
<title>Node18&#45;&gt;Node19</title>
<g id="a_edge18_Node000018_Node000019"><a xlink:title=" ">
<path fill="none" stroke="#63b8ff" d="M656,-170.37C656,-162.25 656,-149.81 656,-139.39"/>
<polygon fill="#63b8ff" stroke="#63b8ff" points="659.5,-139.17 656,-129.17 652.5,-139.17 659.5,-139.17"/>
</a>
</g>
</g>
<!-- Node21 -->
<g id="Node000021" class="node">
<title>Node21</title>
<g id="a_Node000021"><a xlink:href="term_8h.html" target="_top" xlink:title=" ">
<polygon fill="white" stroke="#666666" points="776.5,-129 701.5,-129 701.5,-110 776.5,-110 776.5,-129"/>
<text text-anchor="middle" x="739" y="-117" font-family="Helvetica,sans-Serif" font-size="10.00">term/term.h</text>
</a>
</g>
</g>
<!-- Node20&#45;&gt;Node21 -->
<g id="edge20_Node000020_Node000021" class="edge">
<title>Node20&#45;&gt;Node21</title>
<g id="a_edge20_Node000020_Node000021"><a xlink:title=" ">
<path fill="none" stroke="#63b8ff" d="M739,-170.37C739,-162.25 739,-149.81 739,-139.39"/>
<polygon fill="#63b8ff" stroke="#63b8ff" points="742.5,-139.17 739,-129.17 735.5,-139.17 742.5,-139.17"/>
</a>
</g>
</g>
<!-- Node22 -->
<g id="Node000022" class="node">
<title>Node22</title>
<g id="a_Node000022"><a xlink:href="enhanced__print_8h.html" target="_top" xlink:title=" ">
<polygon fill="white" stroke="#666666" points="789.5,-74 688.5,-74 688.5,-55 789.5,-55 789.5,-74"/>
<text text-anchor="middle" x="739" y="-62" font-family="Helvetica,sans-Serif" font-size="10.00">enhanced_print.h</text>
</a>
</g>
</g>
<!-- Node21&#45;&gt;Node22 -->
<g id="edge21_Node000021_Node000022" class="edge">
<title>Node21&#45;&gt;Node22</title>
<g id="a_edge21_Node000021_Node000022"><a xlink:title=" ">
<path fill="none" stroke="#63b8ff" d="M739,-109.75C739,-102.8 739,-92.85 739,-84.13"/>
<polygon fill="#63b8ff" stroke="#63b8ff" points="742.5,-84.09 739,-74.09 735.5,-84.09 742.5,-84.09"/>
</a>
</g>
</g>
<!-- Node23 -->
<g id="Node000023" class="node">
<title>Node23</title>
<g id="a_Node000023"><a xlink:href="color_8h.html" target="_top" xlink:title=" ">
<polygon fill="white" stroke="#666666" points="763.5,-19 714.5,-19 714.5,0 763.5,0 763.5,-19"/>
<text text-anchor="middle" x="739" y="-7" font-family="Helvetica,sans-Serif" font-size="10.00">color.h</text>
</a>
</g>
</g>
<!-- Node22&#45;&gt;Node23 -->
<g id="edge22_Node000022_Node000023" class="edge">
<title>Node22&#45;&gt;Node23</title>
<g id="a_edge22_Node000022_Node000023"><a xlink:title=" ">
<path fill="none" stroke="#63b8ff" d="M739,-54.75C739,-47.8 739,-37.85 739,-29.13"/>
<polygon fill="#63b8ff" stroke="#63b8ff" points="742.5,-29.09 739,-19.09 735.5,-29.09 742.5,-29.09"/>
</a>
</g>
</g>
<!-- Node26 -->
<g id="Node000026" class="node">
<title>Node26</title>
<g id="a_Node000026"><a xlink:href="shader_8h.html" target="_top" xlink:title=" ">
<polygon fill="white" stroke="#666666" points="1553,-189.5 1495,-189.5 1495,-170.5 1553,-170.5 1553,-189.5"/>
<text text-anchor="middle" x="1524" y="-177.5" font-family="Helvetica,sans-Serif" font-size="10.00">shader.h</text>
</a>
</g>
</g>
<!-- Node25&#45;&gt;Node26 -->
<g id="edge25_Node000025_Node000026" class="edge">
<title>Node25&#45;&gt;Node26</title>
<g id="a_edge25_Node000025_Node000026"><a xlink:title=" ">
<path fill="none" stroke="#63b8ff" d="M1524,-230.87C1524,-222.75 1524,-210.31 1524,-199.89"/>
<polygon fill="#63b8ff" stroke="#63b8ff" points="1527.5,-199.67 1524,-189.67 1520.5,-199.67 1527.5,-199.67"/>
</a>
</g>
</g>
<!-- Node27 -->
<g id="Node000027" class="node">
<title>Node27</title>
<g id="a_Node000027"><a xlink:href="model__loader_8h.html" target="_top" xlink:title=" ">
<polygon fill="white" stroke="#666666" points="1693,-195 1571,-195 1571,-165 1693,-165 1693,-195"/>
<text text-anchor="start" x="1579" y="-183" font-family="Helvetica,sans-Serif" font-size="10.00">model_loaders/model</text>
<text text-anchor="middle" x="1632" y="-172" font-family="Helvetica,sans-Serif" font-size="10.00">_loader.h</text>
</a>
</g>
</g>
<!-- Node25&#45;&gt;Node27 -->
<g id="edge26_Node000025_Node000027" class="edge">
<title>Node25&#45;&gt;Node27</title>
<g id="a_edge26_Node000025_Node000027"><a xlink:title=" ">
<path fill="none" stroke="#63b8ff" d="M1539.94,-230.87C1554.93,-222.75 1577.89,-210.31 1597.13,-199.89"/>
<polygon fill="#63b8ff" stroke="#63b8ff" points="1598.82,-202.96 1605.94,-195.11 1595.48,-196.8 1598.82,-202.96"/>
</a>
</g>
</g>
<!-- Node28 -->
<g id="Node000028" class="node">
<title>Node28</title>
<g id="a_Node000028"><a xlink:href="obj__loader_8h.html" target="_top" xlink:title=" ">
<polygon fill="white" stroke="#666666" points="1670,-129 1594,-129 1594,-110 1670,-110 1670,-129"/>
<text text-anchor="middle" x="1632" y="-117" font-family="Helvetica,sans-Serif" font-size="10.00">obj_loader.h</text>
</a>
</g>
</g>
<!-- Node27&#45;&gt;Node28 -->
<g id="edge27_Node000027_Node000028" class="edge">
<title>Node27&#45;&gt;Node28</title>
<g id="a_edge27_Node000027_Node000028"><a xlink:title=" ">
<path fill="none" stroke="#63b8ff" d="M1632,-164.84C1632,-157.21 1632,-147.7 1632,-139.45"/>
<polygon fill="#63b8ff" stroke="#63b8ff" points="1635.5,-139.27 1632,-129.27 1628.5,-139.27 1635.5,-139.27"/>
</a>
</g>
</g>
<!-- Node29 -->
<g id="Node000029" class="node">
<title>Node29</title>
<g id="a_Node000029"><a xlink:href="mtl__loader_8h.html" target="_top" xlink:title=" ">
<polygon fill="white" stroke="#666666" points="1765.5,-129 1688.5,-129 1688.5,-110 1765.5,-110 1765.5,-129"/>
<text text-anchor="middle" x="1727" y="-117" font-family="Helvetica,sans-Serif" font-size="10.00">mtl_loader.h</text>
</a>
</g>
</g>
<!-- Node27&#45;&gt;Node29 -->
<g id="edge28_Node000027_Node000029" class="edge">
<title>Node27&#45;&gt;Node29</title>
<g id="a_edge28_Node000027_Node000029"><a xlink:title=" ">
<path fill="none" stroke="#63b8ff" d="M1655,-164.84C1670,-155.6 1689.5,-143.59 1704.43,-134.4"/>
<polygon fill="#63b8ff" stroke="#63b8ff" points="1706.36,-137.32 1713.04,-129.09 1702.69,-131.36 1706.36,-137.32"/>
</a>
</g>
</g>
<!-- Node30 -->
<g id="Node000030" class="node">
<title>Node30</title>
<g id="a_Node000030"><a xlink:href="fbx__loader_8h.html" target="_top" xlink:title=" ">
<polygon fill="white" stroke="#666666" points="1575.5,-129 1498.5,-129 1498.5,-110 1575.5,-110 1575.5,-129"/>
<text text-anchor="middle" x="1537" y="-117" font-family="Helvetica,sans-Serif" font-size="10.00">fbx_loader.h</text>
</a>
</g>
</g>
<!-- Node27&#45;&gt;Node30 -->
<g id="edge29_Node000027_Node000030" class="edge">
<title>Node27&#45;&gt;Node30</title>
<g id="a_edge29_Node000027_Node000030"><a xlink:title=" ">
<path fill="none" stroke="#63b8ff" d="M1609,-164.84C1594,-155.6 1574.5,-143.59 1559.57,-134.4"/>
<polygon fill="#63b8ff" stroke="#63b8ff" points="1561.31,-131.36 1550.96,-129.09 1557.64,-137.32 1561.31,-131.36"/>
</a>
</g>
</g>
<!-- Node32 -->
<g id="Node000032" class="node">
<title>Node32</title>
<g id="a_Node000032"><a xlink:href="input_8h.html" target="_top" xlink:title=" ">
<polygon fill="white" stroke="#666666" points="1666.5,-250 1595.5,-250 1595.5,-231 1666.5,-231 1666.5,-250"/>
<text text-anchor="middle" x="1631" y="-238" font-family="Helvetica,sans-Serif" font-size="10.00">../io/input.h</text>
</a>
</g>
</g>
<!-- Node31&#45;&gt;Node32 -->
<g id="edge31_Node000031_Node000032" class="edge">
<title>Node31&#45;&gt;Node32</title>
<g id="a_edge31_Node000031_Node000032"><a xlink:title=" ">
<path fill="none" stroke="#63b8ff" d="M1631,-285.75C1631,-278.8 1631,-268.85 1631,-260.13"/>
<polygon fill="#63b8ff" stroke="#63b8ff" points="1634.5,-260.09 1631,-250.09 1627.5,-260.09 1634.5,-260.09"/>
</a>
</g>
</g>
<!-- Node33&#45;&gt;Node26 -->
<g id="edge33_Node000033_Node000026" class="edge">
<title>Node33&#45;&gt;Node26</title>
<g id="a_edge33_Node000033_Node000026"><a xlink:title=" ">
<path fill="none" stroke="#63b8ff" d="M1132.1,-340.71C1127.76,-317.99 1119.97,-257.25 1154,-231 1212.76,-185.67 1413.75,-211.95 1486,-195 1488.52,-194.41 1491.09,-193.7 1493.66,-192.92"/>
<polygon fill="#63b8ff" stroke="#63b8ff" points="1495.02,-196.15 1503.38,-189.64 1492.78,-189.52 1495.02,-196.15"/>
</a>
</g>
</g>
<!-- Node33&#45;&gt;Node31 -->
<g id="edge44_Node000033_Node000031" class="edge">
<title>Node33&#45;&gt;Node31</title>
<g id="a_edge44_Node000033_Node000031"><a xlink:title=" ">
<path fill="none" stroke="#63b8ff" d="M1183.3,-344.19C1193.14,-343.13 1203.4,-342.03 1213,-341 1333.86,-328.06 1474.39,-313.12 1557.83,-304.26"/>
<polygon fill="#63b8ff" stroke="#63b8ff" points="1558.4,-307.72 1567.97,-303.19 1557.66,-300.76 1558.4,-307.72"/>
</a>
</g>
</g>
<!-- Node33&#45;&gt;Node34 -->
<g id="edge34_Node000033_Node000034" class="edge">
<title>Node33&#45;&gt;Node34</title>
<g id="a_edge34_Node000033_Node000034"><a xlink:title=" ">
<path fill="none" stroke="#63b8ff" d="M1091.42,-340.98C1045.3,-331.76 971.64,-317.03 921.84,-307.07"/>
<polygon fill="#63b8ff" stroke="#63b8ff" points="922.4,-303.61 911.91,-305.08 921.03,-310.48 922.4,-303.61"/>
</a>
</g>
</g>
<!-- Node33&#45;&gt;Node35 -->
<g id="edge38_Node000033_Node000035" class="edge">
<title>Node33&#45;&gt;Node35</title>
<g id="a_edge38_Node000033_Node000035"><a xlink:title=" ">
<path fill="none" stroke="#63b8ff" d="M1111.51,-340.98C1088.48,-332.27 1052.46,-318.63 1026.37,-308.75"/>
<polygon fill="#63b8ff" stroke="#63b8ff" points="1027.49,-305.44 1016.9,-305.17 1025.02,-311.98 1027.49,-305.44"/>
</a>
</g>
</g>
<!-- Node36 -->
<g id="Node000036" class="node">
<title>Node36</title>
<g id="a_Node000036"><a xlink:href="scripts_8h.html" target="_top" xlink:title=" ">
<polygon fill="white" stroke="#666666" points="1244,-305 1142,-305 1142,-286 1244,-286 1244,-305"/>
<text text-anchor="middle" x="1193" y="-293" font-family="Helvetica,sans-Serif" font-size="10.00">../scripts/scripts.h</text>
</a>
</g>
</g>
<!-- Node33&#45;&gt;Node36 -->
<g id="edge41_Node000033_Node000036" class="edge">
<title>Node33&#45;&gt;Node36</title>
<g id="a_edge41_Node000033_Node000036"><a xlink:title=" ">
<path fill="none" stroke="#63b8ff" d="M1143.48,-340.98C1152.2,-333.15 1165.34,-321.34 1175.9,-311.86"/>
<polygon fill="#63b8ff" stroke="#63b8ff" points="1178.25,-314.46 1183.35,-305.17 1173.57,-309.25 1178.25,-314.46"/>
</a>
</g>
</g>
<!-- Node34&#45;&gt;Node2 -->
<g id="edge35_Node000034_Node000002" class="edge">
<title>Node34&#45;&gt;Node2</title>
<g id="a_edge35_Node000034_Node000002"><a xlink:title=" ">
<path fill="none" stroke="#63b8ff" d="M868.17,-285.75C867.52,-278.8 866.58,-268.85 865.76,-260.13"/>
<polygon fill="#63b8ff" stroke="#63b8ff" points="869.23,-259.72 864.81,-250.09 862.27,-260.37 869.23,-259.72"/>
</a>
</g>
</g>
<!-- Node34&#45;&gt;Node24 -->
<g id="edge36_Node000034_Node000024" class="edge">
<title>Node34&#45;&gt;Node24</title>
<g id="a_edge36_Node000034_Node000024"><a xlink:title=" ">
<path fill="none" stroke="#63b8ff" d="M849.88,-285.98C830.65,-277.42 800.77,-264.11 778.69,-254.28"/>
<polygon fill="#63b8ff" stroke="#63b8ff" points="780.03,-251.04 769.47,-250.17 777.18,-257.44 780.03,-251.04"/>
</a>
</g>
</g>
<!-- Node34&#45;&gt;Node26 -->
<g id="edge37_Node000034_Node000026" class="edge">
<title>Node34&#45;&gt;Node26</title>
<g id="a_edge37_Node000034_Node000026"><a xlink:title=" ">
<path fill="none" stroke="#63b8ff" d="M894.3,-285.97C936.44,-272.12 1023.9,-244.9 1100,-231 1269.5,-200.05 1317.97,-233.1 1486,-195 1488.67,-194.39 1491.41,-193.65 1494.13,-192.82"/>
<polygon fill="#63b8ff" stroke="#63b8ff" points="1495.44,-196.07 1503.79,-189.55 1493.19,-189.44 1495.44,-196.07"/>
</a>
</g>
</g>
<!-- Node35&#45;&gt;Node24 -->
<g id="edge39_Node000035_Node000024" class="edge">
<title>Node35&#45;&gt;Node24</title>
<g id="a_edge39_Node000035_Node000024"><a xlink:title=" ">
<path fill="none" stroke="#63b8ff" d="M954.8,-285.98C912.59,-276.82 845.35,-262.21 799.52,-252.26"/>
<polygon fill="#63b8ff" stroke="#63b8ff" points="800.03,-248.78 789.51,-250.08 798.54,-255.63 800.03,-248.78"/>
</a>
</g>
</g>
<!-- Node35&#45;&gt;Node25 -->
<g id="edge40_Node000035_Node000025" class="edge">
<title>Node35&#45;&gt;Node25</title>
<g id="a_edge40_Node000035_Node000025"><a xlink:title=" ">
<path fill="none" stroke="#63b8ff" d="M1047.74,-289.13C1151.06,-278.79 1375.96,-256.3 1475.24,-246.38"/>
<polygon fill="#63b8ff" stroke="#63b8ff" points="1475.69,-249.85 1485.3,-245.37 1475,-242.88 1475.69,-249.85"/>
</a>
</g>
</g>
<!-- Node36&#45;&gt;Node32 -->
<g id="edge42_Node000036_Node000032" class="edge">
<title>Node36&#45;&gt;Node32</title>
<g id="a_edge42_Node000036_Node000032"><a xlink:title=" ">
<path fill="none" stroke="#63b8ff" d="M1244.05,-287.17C1247.08,-286.76 1250.08,-286.37 1253,-286 1394.54,-267.99 1430.48,-268.17 1572,-250 1576.39,-249.44 1580.96,-248.82 1585.53,-248.19"/>
<polygon fill="#63b8ff" stroke="#63b8ff" points="1586.04,-251.66 1595.46,-246.8 1585.07,-244.72 1586.04,-251.66"/>
</a>
</g>
</g>
<!-- Node37 -->
<g id="Node000037" class="node">
<title>Node37</title>
<g id="a_Node000037"><a xlink:href="signals_8h.html" target="_top" xlink:title="Signal and slot system for C projects.">
<polygon fill="white" stroke="#666666" points="1223,-250 1163,-250 1163,-231 1223,-231 1223,-250"/>
<text text-anchor="middle" x="1193" y="-238" font-family="Helvetica,sans-Serif" font-size="10.00">signals.h</text>
</a>
</g>
</g>
<!-- Node36&#45;&gt;Node37 -->
<g id="edge43_Node000036_Node000037" class="edge">
<title>Node36&#45;&gt;Node37</title>
<g id="a_edge43_Node000036_Node000037"><a xlink:title=" ">
<path fill="none" stroke="#63b8ff" d="M1193,-285.75C1193,-278.8 1193,-268.85 1193,-260.13"/>
<polygon fill="#63b8ff" stroke="#63b8ff" points="1196.5,-260.09 1193,-250.09 1189.5,-260.09 1196.5,-260.09"/>
</a>
</g>
</g>
<!-- Node39&#45;&gt;Node25 -->
<g id="edge48_Node000039_Node000025" class="edge">
<title>Node39&#45;&gt;Node25</title>
<g id="a_edge48_Node000039_Node000025"><a xlink:title=" ">
<path fill="none" stroke="#63b8ff" d="M1538.69,-340.66C1536.1,-323.17 1530.27,-283.8 1526.78,-260.27"/>
<polygon fill="#63b8ff" stroke="#63b8ff" points="1530.21,-259.54 1525.28,-250.16 1523.29,-260.56 1530.21,-259.54"/>
</a>
</g>
</g>
<!-- Node39&#45;&gt;Node31 -->
<g id="edge49_Node000039_Node000031" class="edge">
<title>Node39&#45;&gt;Node31</title>
<g id="a_edge49_Node000039_Node000031"><a xlink:title=" ">
<path fill="none" stroke="#63b8ff" d="M1554.62,-340.98C1568.86,-332.69 1590.75,-319.94 1607.45,-310.22"/>
<polygon fill="#63b8ff" stroke="#63b8ff" points="1609.23,-313.23 1616.11,-305.17 1605.71,-307.18 1609.23,-313.23"/>
</a>
</g>
</g>
<!-- Node42&#45;&gt;Node2 -->
<g id="edge55_Node000042_Node000002" class="edge">
<title>Node42&#45;&gt;Node2</title>
<g id="a_edge55_Node000042_Node000002"><a xlink:title=" ">
<path fill="none" stroke="#63b8ff" d="M1248.87,-340.91C1207.01,-328.24 1125.75,-304.09 1056,-286 1007.81,-273.5 952.38,-260.84 913.5,-252.23"/>
<polygon fill="#63b8ff" stroke="#63b8ff" points="914.01,-248.76 903.49,-250.02 912.5,-255.59 914.01,-248.76"/>
</a>
</g>
</g>
<!-- Node43 -->
<g id="Node000043" class="node">
<title>Node43</title>
<g id="a_Node000043"><a xlink:href="classes__types_8h.html" target="_top" xlink:title=" ">
<polygon fill="white" stroke="#666666" points="1474,-305 1380,-305 1380,-286 1474,-286 1474,-305"/>
<text text-anchor="middle" x="1427" y="-293" font-family="Helvetica,sans-Serif" font-size="10.00">classes_types.h</text>
</a>
</g>
</g>
<!-- Node42&#45;&gt;Node43 -->
<g id="edge53_Node000042_Node000043" class="edge">
<title>Node42&#45;&gt;Node43</title>
<g id="a_edge53_Node000042_Node000043"><a xlink:title=" ">
<path fill="none" stroke="#63b8ff" d="M1301.1,-340.98C1325.88,-332.23 1364.7,-318.51 1392.69,-308.62"/>
<polygon fill="#63b8ff" stroke="#63b8ff" points="1394.2,-311.8 1402.46,-305.17 1391.87,-305.2 1394.2,-311.8"/>
</a>
</g>
</g>
<!-- Node44 -->
<g id="Node000044" class="node">
<title>Node44</title>
<g id="a_Node000044"><a xlink:title=" ">
<polygon fill="#e0e0e0" stroke="#999999" points="1361.5,-305 1262.5,-305 1262.5,-286 1361.5,-286 1361.5,-305"/>
<text text-anchor="middle" x="1312" y="-293" font-family="Helvetica,sans-Serif" font-size="10.00">import_classes.h</text>
</a>
</g>
</g>
<!-- Node42&#45;&gt;Node44 -->
<g id="edge54_Node000042_Node000044" class="edge">
<title>Node42&#45;&gt;Node44</title>
<g id="a_edge54_Node000042_Node000044"><a xlink:title=" ">
<path fill="none" stroke="#63b8ff" d="M1282.78,-340.75C1287.62,-333.42 1294.68,-322.73 1300.64,-313.7"/>
<polygon fill="#63b8ff" stroke="#63b8ff" points="1303.74,-315.36 1306.33,-305.09 1297.9,-311.5 1303.74,-315.36"/>
</a>
</g>
</g>
<!-- Node47&#45;&gt;Node32 -->
<g id="edge59_Node000047_Node000032" class="edge">
<title>Node47&#45;&gt;Node32</title>
<g id="a_edge59_Node000047_Node000032"><a xlink:title=" ">
<path fill="none" stroke="#63b8ff" d="M2028.65,-340.79C2005.16,-326.93 1956.61,-300.01 1912,-286 1831.48,-260.72 1733.27,-249.36 1676.85,-244.6"/>
<polygon fill="#63b8ff" stroke="#63b8ff" points="1677.06,-241.11 1666.81,-243.79 1676.5,-248.09 1677.06,-241.11"/>
</a>
</g>
</g>
<!-- Node47&#45;&gt;Node40 -->
<g id="edge60_Node000047_Node000040" class="edge">
<title>Node47&#45;&gt;Node40</title>
<g id="a_edge60_Node000047_Node000040"><a xlink:title=" ">
<path fill="none" stroke="#63b8ff" d="M2011.99,-340.98C1979.17,-331.97 1927.2,-317.7 1891.01,-307.76"/>
<polygon fill="#63b8ff" stroke="#63b8ff" points="1891.82,-304.36 1881.25,-305.08 1889.97,-311.11 1891.82,-304.36"/>
</a>
</g>
</g>
</g>
</svg>
