<?xml version="1.0" encoding="UTF-8" standalone="no"?>
<!DOCTYPE svg PUBLIC "-//W3C//DTD SVG 1.1//EN"
 "http://www.w3.org/Graphics/SVG/1.1/DTD/svg11.dtd">
<!-- Generated by graphviz version 2.43.0 (0)
 -->
<!-- Title: src/physics/collision_util.c Pages: 1 -->
<svg width="2078pt" height="434pt"
 viewBox="0.00 0.00 2078.00 434.00" xmlns="http://www.w3.org/2000/svg" xmlns:xlink="http://www.w3.org/1999/xlink">
<g id="graph0" class="graph" transform="scale(1 1) rotate(0) translate(4 430)">
<title>src/physics/collision_util.c</title>
<!-- Node1 -->
<g id="Node000001" class="node">
<title>Node1</title>
<g id="a_Node000001"><a xlink:title=" ">
<polygon fill="#999999" stroke="#666666" points="1630,-426 1516,-426 1516,-396 1630,-396 1630,-426"/>
<text text-anchor="start" x="1524" y="-414" font-family="Helvetica,sans-Serif" font-size="10.00">src/physics/collision</text>
<text text-anchor="middle" x="1573" y="-403" font-family="Helvetica,sans-Serif" font-size="10.00">_util.c</text>
</a>
</g>
</g>
<!-- Node2 -->
<g id="Node000002" class="node">
<title>Node2</title>
<g id="a_Node000002"><a xlink:href="raptiquax_8h.html" target="_top" xlink:title="This file contains type definitions for fixed&#45;width integer types and floating&#45;point types.">
<polygon fill="white" stroke="#666666" points="934.5,-250 853.5,-250 853.5,-231 934.5,-231 934.5,-250"/>
<text text-anchor="middle" x="894" y="-238" font-family="Helvetica,sans-Serif" font-size="10.00">../raptiquax.h</text>
</a>
</g>
</g>
<!-- Node1&#45;&gt;Node2 -->
<g id="edge1_Node000001_Node000002" class="edge">
<title>Node1&#45;&gt;Node2</title>
<g id="a_edge1_Node000001_Node000002"><a xlink:title=" ">
<path fill="none" stroke="#63b8ff" d="M1515.97,-402.38C1456.98,-393.98 1362.42,-379.11 1282,-360 1149.04,-328.41 994.73,-276.63 927.82,-253.41"/>
<polygon fill="#63b8ff" stroke="#63b8ff" points="928.81,-250.05 918.22,-250.07 926.51,-256.66 928.81,-250.05"/>
</a>
</g>
</g>
<!-- Node24 -->
<g id="Node000024" class="node">
<title>Node24</title>
<g id="a_Node000024"><a xlink:href="math__util_8h.html" target="_top" xlink:title=" ">
<polygon fill="white" stroke="#666666" points="1383,-250 1273,-250 1273,-231 1383,-231 1383,-250"/>
<text text-anchor="middle" x="1328" y="-238" font-family="Helvetica,sans-Serif" font-size="10.00">../math/math_util.h</text>
</a>
</g>
</g>
<!-- Node1&#45;&gt;Node24 -->
<g id="edge23_Node000001_Node000024" class="edge">
<title>Node1&#45;&gt;Node24</title>
<g id="a_edge23_Node000001_Node000024"><a xlink:title=" ">
<path fill="none" stroke="#63b8ff" d="M1515.72,-405.61C1475.48,-400.11 1422.06,-387.77 1383,-360 1349.68,-336.31 1336.01,-287.24 1330.84,-260.26"/>
<polygon fill="#63b8ff" stroke="#63b8ff" points="1334.26,-259.46 1329.12,-250.2 1327.36,-260.65 1334.26,-259.46"/>
</a>
</g>
</g>
<!-- Node25 -->
<g id="Node000025" class="node">
<title>Node25</title>
<g id="a_Node000025"><a xlink:href="model_8h.html" target="_top" xlink:title="Defines structures and functions for handling 3D models and their properties.">
<polygon fill="white" stroke="#666666" points="1595.5,-250 1518.5,-250 1518.5,-231 1595.5,-231 1595.5,-250"/>
<text text-anchor="middle" x="1557" y="-238" font-family="Helvetica,sans-Serif" font-size="10.00">../io/model.h</text>
</a>
</g>
</g>
<!-- Node1&#45;&gt;Node25 -->
<g id="edge24_Node000001_Node000025" class="edge">
<title>Node1&#45;&gt;Node25</title>
<g id="a_edge24_Node000001_Node000025"><a xlink:title=" ">
<path fill="none" stroke="#63b8ff" d="M1563.3,-395.86C1557.3,-386.23 1550.16,-372.93 1547,-360 1538.54,-325.37 1546.04,-283.55 1551.82,-259.99"/>
<polygon fill="#63b8ff" stroke="#63b8ff" points="1555.22,-260.83 1554.37,-250.27 1548.45,-259.06 1555.22,-260.83"/>
</a>
</g>
</g>
<!-- Node31 -->
<g id="Node000031" class="node">
<title>Node31</title>
<g id="a_Node000031"><a xlink:href="framebuffer_8h.html" target="_top" xlink:title=" ">
<polygon fill="white" stroke="#666666" points="1840,-305 1714,-305 1714,-286 1840,-286 1840,-305"/>
<text text-anchor="middle" x="1777" y="-293" font-family="Helvetica,sans-Serif" font-size="10.00">../render/framebuffer.h</text>
</a>
</g>
</g>
<!-- Node1&#45;&gt;Node31 -->
<g id="edge30_Node000001_Node000031" class="edge">
<title>Node1&#45;&gt;Node31</title>
<g id="a_edge30_Node000001_Node000031"><a xlink:title=" ">
<path fill="none" stroke="#63b8ff" d="M1611.35,-395.91C1634.45,-386.84 1664.11,-374.12 1689,-360 1714.4,-345.59 1741.3,-325.36 1758.57,-311.63"/>
<polygon fill="#63b8ff" stroke="#63b8ff" points="1761.07,-314.11 1766.67,-305.11 1756.68,-308.65 1761.07,-314.11"/>
</a>
</g>
</g>
<!-- Node33 -->
<g id="Node000033" class="node">
<title>Node33</title>
<g id="a_Node000033"><a xlink:href="node_8h.html" target="_top" xlink:title=" ">
<polygon fill="white" stroke="#666666" points="1500,-360 1402,-360 1402,-341 1500,-341 1500,-360"/>
<text text-anchor="middle" x="1451" y="-348" font-family="Helvetica,sans-Serif" font-size="10.00">../storage/node.h</text>
</a>
</g>
</g>
<!-- Node1&#45;&gt;Node33 -->
<g id="edge32_Node000001_Node000033" class="edge">
<title>Node1&#45;&gt;Node33</title>
<g id="a_edge32_Node000001_Node000033"><a xlink:title=" ">
<path fill="none" stroke="#63b8ff" d="M1543.78,-395.99C1523.88,-386.45 1497.72,-373.9 1478.25,-364.57"/>
<polygon fill="#63b8ff" stroke="#63b8ff" points="1479.55,-361.31 1469.02,-360.14 1476.52,-367.62 1479.55,-361.31"/>
</a>
</g>
</g>
<!-- Node34 -->
<g id="Node000034" class="node">
<title>Node34</title>
<g id="a_Node000034"><a xlink:href="camera_8h.html" target="_top" xlink:title=" ">
<polygon fill="white" stroke="#666666" points="1298,-305 1192,-305 1192,-286 1298,-286 1298,-305"/>
<text text-anchor="middle" x="1245" y="-293" font-family="Helvetica,sans-Serif" font-size="10.00">../render/camera.h</text>
</a>
</g>
</g>
<!-- Node1&#45;&gt;Node34 -->
<g id="edge46_Node000001_Node000034" class="edge">
<title>Node1&#45;&gt;Node34</title>
<g id="a_edge46_Node000001_Node000034"><a xlink:title=" ">
<path fill="none" stroke="#63b8ff" d="M1515.79,-408.24C1460.81,-404.48 1376.76,-393.22 1312,-360 1289.83,-348.63 1269.87,-327.65 1257.62,-312.92"/>
<polygon fill="#63b8ff" stroke="#63b8ff" points="1260.33,-310.7 1251.34,-305.1 1254.87,-315.08 1260.33,-310.7"/>
</a>
</g>
</g>
<!-- Node35 -->
<g id="Node000035" class="node">
<title>Node35</title>
<g id="a_Node000035"><a xlink:href="bodies_8h.html" target="_top" xlink:title=" ">
<polygon fill="white" stroke="#666666" points="1461.5,-305 1354.5,-305 1354.5,-286 1461.5,-286 1461.5,-305"/>
<text text-anchor="middle" x="1408" y="-293" font-family="Helvetica,sans-Serif" font-size="10.00">../physics/bodies.h</text>
</a>
</g>
</g>
<!-- Node1&#45;&gt;Node35 -->
<g id="edge55_Node000001_Node000035" class="edge">
<title>Node1&#45;&gt;Node35</title>
<g id="a_edge55_Node000001_Node000035"><a xlink:title=" ">
<path fill="none" stroke="#63b8ff" d="M1515.86,-401.74C1468.98,-393.66 1407.96,-379.69 1393,-360 1382.96,-346.79 1389.32,-327.91 1396.6,-314.18"/>
<polygon fill="#63b8ff" stroke="#63b8ff" points="1399.8,-315.63 1401.84,-305.24 1393.76,-312.09 1399.8,-315.63"/>
</a>
</g>
</g>
<!-- Node38 -->
<g id="Node000038" class="node">
<title>Node38</title>
<g id="a_Node000038"><a xlink:href="window_8h.html" target="_top" xlink:title=" ">
<polygon fill="white" stroke="#666666" points="1925.5,-360 1854.5,-360 1854.5,-341 1925.5,-341 1925.5,-360"/>
<text text-anchor="middle" x="1890" y="-348" font-family="Helvetica,sans-Serif" font-size="10.00">../window.h</text>
</a>
</g>
</g>
<!-- Node1&#45;&gt;Node38 -->
<g id="edge45_Node000001_Node000038" class="edge">
<title>Node1&#45;&gt;Node38</title>
<g id="a_edge45_Node000001_Node000038"><a xlink:title=" ">
<path fill="none" stroke="#63b8ff" d="M1630.04,-399.47C1691.29,-388.17 1787.41,-370.43 1844.02,-359.99"/>
<polygon fill="#63b8ff" stroke="#63b8ff" points="1844.91,-363.38 1854.11,-358.12 1843.64,-356.5 1844.91,-363.38"/>
</a>
</g>
</g>
<!-- Node39 -->
<g id="Node000039" class="node">
<title>Node39</title>
<g id="a_Node000039"><a xlink:href="depth__map_8h.html" target="_top" xlink:title=" ">
<polygon fill="white" stroke="#666666" points="1680,-360 1556,-360 1556,-341 1680,-341 1680,-360"/>
<text text-anchor="middle" x="1618" y="-348" font-family="Helvetica,sans-Serif" font-size="10.00">../render/depth_map.h</text>
</a>
</g>
</g>
<!-- Node1&#45;&gt;Node39 -->
<g id="edge47_Node000001_Node000039" class="edge">
<title>Node1&#45;&gt;Node39</title>
<g id="a_edge47_Node000001_Node000039"><a xlink:title=" ">
<path fill="none" stroke="#63b8ff" d="M1583.89,-395.84C1590.29,-387.52 1598.42,-376.96 1605.13,-368.23"/>
<polygon fill="#63b8ff" stroke="#63b8ff" points="1607.93,-370.33 1611.26,-360.27 1602.39,-366.06 1607.93,-370.33"/>
</a>
</g>
</g>
<!-- Node40 -->
<g id="Node000040" class="node">
<title>Node40</title>
<g id="a_Node000040"><a xlink:href="lighting_8h.html" target="_top" xlink:title=" ">
<polygon fill="white" stroke="#666666" points="2002,-305 1896,-305 1896,-286 2002,-286 2002,-305"/>
<text text-anchor="middle" x="1949" y="-293" font-family="Helvetica,sans-Serif" font-size="10.00">../render/lighting.h</text>
</a>
</g>
</g>
<!-- Node1&#45;&gt;Node40 -->
<g id="edge50_Node000001_Node000040" class="edge">
<title>Node1&#45;&gt;Node40</title>
<g id="a_edge50_Node000001_Node000040"><a xlink:title=" ">
<path fill="none" stroke="#63b8ff" d="M1630.31,-401.75C1678.34,-393.89 1748.28,-380.24 1807,-360 1825.23,-353.72 1828.48,-349.05 1846,-341 1870.34,-329.82 1898.25,-317.81 1918.87,-309.09"/>
<polygon fill="#63b8ff" stroke="#63b8ff" points="1920.5,-312.2 1928.36,-305.09 1917.78,-305.75 1920.5,-312.2"/>
</a>
</g>
</g>
<!-- Node41 -->
<g id="Node000041" class="node">
<title>Node41</title>
<g id="a_Node000041"><a xlink:href="gltexture__loader_8h.html" target="_top" xlink:title=" ">
<polygon fill="white" stroke="#666666" points="2070,-360 1944,-360 1944,-341 2070,-341 2070,-360"/>
<text text-anchor="middle" x="2007" y="-348" font-family="Helvetica,sans-Serif" font-size="10.00">../io/gltexture_loader.h</text>
</a>
</g>
</g>
<!-- Node1&#45;&gt;Node41 -->
<g id="edge51_Node000001_Node000041" class="edge">
<title>Node1&#45;&gt;Node41</title>
<g id="a_edge51_Node000001_Node000041"><a xlink:title=" ">
<path fill="none" stroke="#63b8ff" d="M1630.18,-402.29C1708.15,-391.78 1847.88,-372.95 1933.53,-361.4"/>
<polygon fill="#63b8ff" stroke="#63b8ff" points="1934.26,-364.84 1943.7,-360.03 1933.32,-357.9 1934.26,-364.84"/>
</a>
</g>
</g>
<!-- Node42 -->
<g id="Node000042" class="node">
<title>Node42</title>
<g id="a_Node000042"><a xlink:href="physics_8h.html" target="_top" xlink:title=" ">
<polygon fill="white" stroke="#666666" points="1798,-360 1736,-360 1736,-341 1798,-341 1798,-360"/>
<text text-anchor="middle" x="1767" y="-348" font-family="Helvetica,sans-Serif" font-size="10.00">physics.h</text>
</a>
</g>
</g>
<!-- Node1&#45;&gt;Node42 -->
<g id="edge52_Node000001_Node000042" class="edge">
<title>Node1&#45;&gt;Node42</title>
<g id="a_edge52_Node000001_Node000042"><a xlink:title=" ">
<path fill="none" stroke="#63b8ff" d="M1619.47,-395.99C1652.95,-385.89 1697.57,-372.44 1728.94,-362.98"/>
<polygon fill="#63b8ff" stroke="#63b8ff" points="1730.07,-366.29 1738.63,-360.05 1728.05,-359.59 1730.07,-366.29"/>
</a>
</g>
</g>
<!-- Node3 -->
<g id="Node000003" class="node">
<title>Node3</title>
<g id="a_Node000003"><a xlink:title=" ">
<polygon fill="#e0e0e0" stroke="#999999" points="1405,-189.5 1355,-189.5 1355,-170.5 1405,-170.5 1405,-189.5"/>
<text text-anchor="middle" x="1380" y="-177.5" font-family="Helvetica,sans-Serif" font-size="10.00">stdio.h</text>
</a>
</g>
</g>
<!-- Node2&#45;&gt;Node3 -->
<g id="edge2_Node000002_Node000003" class="edge">
<title>Node2&#45;&gt;Node3</title>
<g id="a_edge2_Node000002_Node000003"><a xlink:title=" ">
<path fill="none" stroke="#63b8ff" d="M934.58,-239.45C1014.53,-238.48 1197.57,-232.01 1346,-195 1348.16,-194.46 1350.37,-193.81 1352.57,-193.08"/>
<polygon fill="#63b8ff" stroke="#63b8ff" points="1353.84,-196.34 1361.98,-189.56 1351.39,-189.79 1353.84,-196.34"/>
</a>
</g>
</g>
<!-- Node4 -->
<g id="Node000004" class="node">
<title>Node4</title>
<g id="a_Node000004"><a xlink:title=" ">
<polygon fill="#e0e0e0" stroke="#999999" points="1476.5,-189.5 1423.5,-189.5 1423.5,-170.5 1476.5,-170.5 1476.5,-189.5"/>
<text text-anchor="middle" x="1450" y="-177.5" font-family="Helvetica,sans-Serif" font-size="10.00">stdint.h</text>
</a>
</g>
</g>
<!-- Node2&#45;&gt;Node4 -->
<g id="edge3_Node000002_Node000004" class="edge">
<title>Node2&#45;&gt;Node4</title>
<g id="a_edge3_Node000002_Node000004"><a xlink:title=" ">
<path fill="none" stroke="#63b8ff" d="M934.73,-239.93C1023.2,-240.02 1239.02,-235.62 1414,-195 1416.37,-194.45 1418.79,-193.77 1421.2,-193.02"/>
<polygon fill="#63b8ff" stroke="#63b8ff" points="1422.63,-196.23 1430.89,-189.6 1420.3,-189.63 1422.63,-196.23"/>
</a>
</g>
</g>
<!-- Node5 -->
<g id="Node000005" class="node">
<title>Node5</title>
<g id="a_Node000005"><a xlink:title=" ">
<polygon fill="#e0e0e0" stroke="#999999" points="62,-189.5 0,-189.5 0,-170.5 62,-170.5 62,-189.5"/>
<text text-anchor="middle" x="31" y="-177.5" font-family="Helvetica,sans-Serif" font-size="10.00">stdbool.h</text>
</a>
</g>
</g>
<!-- Node2&#45;&gt;Node5 -->
<g id="edge4_Node000002_Node000005" class="edge">
<title>Node2&#45;&gt;Node5</title>
<g id="a_edge4_Node000002_Node000005"><a xlink:title=" ">
<path fill="none" stroke="#63b8ff" d="M853.12,-238.81C708.75,-236.16 223.3,-225.14 71,-195 67.92,-194.39 64.76,-193.6 61.63,-192.7"/>
<polygon fill="#63b8ff" stroke="#63b8ff" points="62.46,-189.28 51.86,-189.55 60.31,-195.95 62.46,-189.28"/>
</a>
</g>
</g>
<!-- Node6 -->
<g id="Node000006" class="node">
<title>Node6</title>
<g id="a_Node000006"><a xlink:title=" ">
<polygon fill="#e0e0e0" stroke="#999999" points="136,-189.5 80,-189.5 80,-170.5 136,-170.5 136,-189.5"/>
<text text-anchor="middle" x="108" y="-177.5" font-family="Helvetica,sans-Serif" font-size="10.00">stdarg.h</text>
</a>
</g>
</g>
<!-- Node2&#45;&gt;Node6 -->
<g id="edge5_Node000002_Node000006" class="edge">
<title>Node2&#45;&gt;Node6</title>
<g id="a_edge5_Node000002_Node000006"><a xlink:title=" ">
<path fill="none" stroke="#63b8ff" d="M853.06,-238.69C717.16,-235.76 281.94,-224.26 145,-195 142.32,-194.43 139.58,-193.69 136.86,-192.86"/>
<polygon fill="#63b8ff" stroke="#63b8ff" points="137.85,-189.5 127.25,-189.54 135.56,-196.12 137.85,-189.5"/>
</a>
</g>
</g>
<!-- Node7 -->
<g id="Node000007" class="node">
<title>Node7</title>
<g id="a_Node000007"><a xlink:title=" ">
<polygon fill="#e0e0e0" stroke="#999999" points="207.5,-189.5 154.5,-189.5 154.5,-170.5 207.5,-170.5 207.5,-189.5"/>
<text text-anchor="middle" x="181" y="-177.5" font-family="Helvetica,sans-Serif" font-size="10.00">limits.h</text>
</a>
</g>
</g>
<!-- Node2&#45;&gt;Node7 -->
<g id="edge6_Node000002_Node000007" class="edge">
<title>Node2&#45;&gt;Node7</title>
<g id="a_edge6_Node000002_Node000007"><a xlink:title=" ">
<path fill="none" stroke="#63b8ff" d="M853.48,-238.45C726.81,-234.93 339.47,-222.16 217,-195 214.48,-194.44 211.9,-193.73 209.34,-192.93"/>
<polygon fill="#63b8ff" stroke="#63b8ff" points="210.31,-189.57 199.72,-189.52 207.98,-196.16 210.31,-189.57"/>
</a>
</g>
</g>
<!-- Node8 -->
<g id="Node000008" class="node">
<title>Node8</title>
<g id="a_Node000008"><a xlink:title=" ">
<polygon fill="#e0e0e0" stroke="#999999" points="298,-189.5 226,-189.5 226,-170.5 298,-170.5 298,-189.5"/>
<text text-anchor="middle" x="262" y="-177.5" font-family="Helvetica,sans-Serif" font-size="10.00">SDL2/SDL.h</text>
</a>
</g>
</g>
<!-- Node2&#45;&gt;Node8 -->
<g id="edge7_Node000002_Node000008" class="edge">
<title>Node2&#45;&gt;Node8</title>
<g id="a_edge7_Node000002_Node000008"><a xlink:title=" ">
<path fill="none" stroke="#63b8ff" d="M853.38,-239.56C757.41,-239.03 509.53,-233.67 307,-195 303.33,-194.3 299.53,-193.4 295.78,-192.4"/>
<polygon fill="#63b8ff" stroke="#63b8ff" points="296.61,-189 286.03,-189.58 294.66,-195.72 296.61,-189"/>
</a>
</g>
</g>
<!-- Node9 -->
<g id="Node000009" class="node">
<title>Node9</title>
<g id="a_Node000009"><a xlink:title=" ">
<polygon fill="#e0e0e0" stroke="#999999" points="424,-189.5 316,-189.5 316,-170.5 424,-170.5 424,-189.5"/>
<text text-anchor="middle" x="370" y="-177.5" font-family="Helvetica,sans-Serif" font-size="10.00">SDL2/SDL_image.h</text>
</a>
</g>
</g>
<!-- Node2&#45;&gt;Node9 -->
<g id="edge8_Node000002_Node000009" class="edge">
<title>Node2&#45;&gt;Node9</title>
<g id="a_edge8_Node000002_Node000009"><a xlink:title=" ">
<path fill="none" stroke="#63b8ff" d="M853.4,-237.26C772.84,-232.44 587.26,-219.49 433,-195 427.12,-194.07 420.96,-192.92 414.89,-191.68"/>
<polygon fill="#63b8ff" stroke="#63b8ff" points="415.35,-188.2 404.84,-189.54 413.9,-195.05 415.35,-188.2"/>
</a>
</g>
</g>
<!-- Node10 -->
<g id="Node000010" class="node">
<title>Node10</title>
<g id="a_Node000010"><a xlink:title=" ">
<polygon fill="#e0e0e0" stroke="#999999" points="552,-189.5 442,-189.5 442,-170.5 552,-170.5 552,-189.5"/>
<text text-anchor="middle" x="497" y="-177.5" font-family="Helvetica,sans-Serif" font-size="10.00">SDL2/SDL_opengl.h</text>
</a>
</g>
</g>
<!-- Node2&#45;&gt;Node10 -->
<g id="edge9_Node000002_Node000010" class="edge">
<title>Node2&#45;&gt;Node10</title>
<g id="a_edge9_Node000002_Node000010"><a xlink:title=" ">
<path fill="none" stroke="#63b8ff" d="M853.34,-235.16C790.43,-228.2 665.84,-213.44 561,-195 555.26,-193.99 549.25,-192.82 543.31,-191.6"/>
<polygon fill="#63b8ff" stroke="#63b8ff" points="543.96,-188.16 533.45,-189.52 542.51,-195.01 543.96,-188.16"/>
</a>
</g>
</g>
<!-- Node11 -->
<g id="Node000011" class="node">
<title>Node11</title>
<g id="a_Node000011"><a xlink:title=" ">
<polygon fill="#e0e0e0" stroke="#999999" points="674,-189.5 570,-189.5 570,-170.5 674,-170.5 674,-189.5"/>
<text text-anchor="middle" x="622" y="-177.5" font-family="Helvetica,sans-Serif" font-size="10.00">SDL2/SDL_mixer.h</text>
</a>
</g>
</g>
<!-- Node2&#45;&gt;Node11 -->
<g id="edge10_Node000002_Node000011" class="edge">
<title>Node2&#45;&gt;Node11</title>
<g id="a_edge10_Node000002_Node000011"><a xlink:title=" ">
<path fill="none" stroke="#63b8ff" d="M853.11,-231.1C810.57,-222.31 742.05,-208 683,-195 678.34,-193.97 673.48,-192.89 668.63,-191.79"/>
<polygon fill="#63b8ff" stroke="#63b8ff" points="669.28,-188.35 658.75,-189.55 667.72,-195.17 669.28,-188.35"/>
</a>
</g>
</g>
<!-- Node12 -->
<g id="Node000012" class="node">
<title>Node12</title>
<g id="a_Node000012"><a xlink:title=" ">
<polygon fill="#e0e0e0" stroke="#999999" points="780,-189.5 692,-189.5 692,-170.5 780,-170.5 780,-189.5"/>
<text text-anchor="middle" x="736" y="-177.5" font-family="Helvetica,sans-Serif" font-size="10.00">SDL2/SDL_ttf.h</text>
</a>
</g>
</g>
<!-- Node2&#45;&gt;Node12 -->
<g id="edge11_Node000002_Node000012" class="edge">
<title>Node2&#45;&gt;Node12</title>
<g id="a_edge11_Node000002_Node000012"><a xlink:title=" ">
<path fill="none" stroke="#63b8ff" d="M871.03,-230.99C844.11,-221.03 799.33,-204.45 768.77,-193.13"/>
<polygon fill="#63b8ff" stroke="#63b8ff" points="769.6,-189.71 759,-189.52 767.16,-196.27 769.6,-189.71"/>
</a>
</g>
</g>
<!-- Node13 -->
<g id="Node000013" class="node">
<title>Node13</title>
<g id="a_Node000013"><a xlink:title=" ">
<polygon fill="#e0e0e0" stroke="#999999" points="848,-189.5 798,-189.5 798,-170.5 848,-170.5 848,-189.5"/>
<text text-anchor="middle" x="823" y="-177.5" font-family="Helvetica,sans-Serif" font-size="10.00">GL/gl.h</text>
</a>
</g>
</g>
<!-- Node2&#45;&gt;Node13 -->
<g id="edge12_Node000002_Node000013" class="edge">
<title>Node2&#45;&gt;Node13</title>
<g id="a_edge12_Node000002_Node000013"><a xlink:title=" ">
<path fill="none" stroke="#63b8ff" d="M883.52,-230.87C872.51,-221.8 854.96,-207.34 841.59,-196.32"/>
<polygon fill="#63b8ff" stroke="#63b8ff" points="843.46,-193.33 833.52,-189.67 839.01,-198.73 843.46,-193.33"/>
</a>
</g>
</g>
<!-- Node14 -->
<g id="Node000014" class="node">
<title>Node14</title>
<g id="a_Node000014"><a xlink:title=" ">
<polygon fill="#e0e0e0" stroke="#999999" points="922,-189.5 866,-189.5 866,-170.5 922,-170.5 922,-189.5"/>
<text text-anchor="middle" x="894" y="-177.5" font-family="Helvetica,sans-Serif" font-size="10.00">GL/glu.h</text>
</a>
</g>
</g>
<!-- Node2&#45;&gt;Node14 -->
<g id="edge13_Node000002_Node000014" class="edge">
<title>Node2&#45;&gt;Node14</title>
<g id="a_edge13_Node000002_Node000014"><a xlink:title=" ">
<path fill="none" stroke="#63b8ff" d="M894,-230.87C894,-222.75 894,-210.31 894,-199.89"/>
<polygon fill="#63b8ff" stroke="#63b8ff" points="897.5,-199.67 894,-189.67 890.5,-199.67 897.5,-199.67"/>
</a>
</g>
</g>
<!-- Node15 -->
<g id="Node000015" class="node">
<title>Node15</title>
<g id="a_Node000015"><a xlink:title=" ">
<polygon fill="#e0e0e0" stroke="#999999" points="1006,-189.5 940,-189.5 940,-170.5 1006,-170.5 1006,-189.5"/>
<text text-anchor="middle" x="973" y="-177.5" font-family="Helvetica,sans-Serif" font-size="10.00">GL/glext.h</text>
</a>
</g>
</g>
<!-- Node2&#45;&gt;Node15 -->
<g id="edge14_Node000002_Node000015" class="edge">
<title>Node2&#45;&gt;Node15</title>
<g id="a_edge14_Node000002_Node000015"><a xlink:title=" ">
<path fill="none" stroke="#63b8ff" d="M905.66,-230.87C918.14,-221.62 938.18,-206.78 953.16,-195.69"/>
<polygon fill="#63b8ff" stroke="#63b8ff" points="955.34,-198.43 961.3,-189.67 951.18,-192.81 955.34,-198.43"/>
</a>
</g>
</g>
<!-- Node16 -->
<g id="Node000016" class="node">
<title>Node16</title>
<g id="a_Node000016"><a xlink:title=" ">
<polygon fill="#e0e0e0" stroke="#999999" points="1101.5,-189.5 1024.5,-189.5 1024.5,-170.5 1101.5,-170.5 1101.5,-189.5"/>
<text text-anchor="middle" x="1063" y="-177.5" font-family="Helvetica,sans-Serif" font-size="10.00">cglm/cglm.h</text>
</a>
</g>
</g>
<!-- Node2&#45;&gt;Node16 -->
<g id="edge15_Node000002_Node000016" class="edge">
<title>Node2&#45;&gt;Node16</title>
<g id="a_edge15_Node000002_Node000016"><a xlink:title=" ">
<path fill="none" stroke="#63b8ff" d="M918.57,-230.99C947.61,-220.94 996.1,-204.16 1028.8,-192.84"/>
<polygon fill="#63b8ff" stroke="#63b8ff" points="1030.09,-196.1 1038.4,-189.52 1027.8,-189.48 1030.09,-196.1"/>
</a>
</g>
</g>
<!-- Node17 -->
<g id="Node000017" class="node">
<title>Node17</title>
<g id="a_Node000017"><a xlink:title=" ">
<polygon fill="#e0e0e0" stroke="#999999" points="1170.5,-189.5 1119.5,-189.5 1119.5,-170.5 1170.5,-170.5 1170.5,-189.5"/>
<text text-anchor="middle" x="1145" y="-177.5" font-family="Helvetica,sans-Serif" font-size="10.00">math.h</text>
</a>
</g>
</g>
<!-- Node2&#45;&gt;Node17 -->
<g id="edge16_Node000002_Node000017" class="edge">
<title>Node2&#45;&gt;Node17</title>
<g id="a_edge16_Node000002_Node000017"><a xlink:title=" ">
<path fill="none" stroke="#63b8ff" d="M934.74,-233.32C978.57,-226.17 1050.05,-213.01 1110,-195 1111.88,-194.44 1113.8,-193.81 1115.73,-193.15"/>
<polygon fill="#63b8ff" stroke="#63b8ff" points="1117.07,-196.38 1125.23,-189.62 1114.63,-189.82 1117.07,-196.38"/>
</a>
</g>
</g>
<!-- Node18 -->
<g id="Node000018" class="node">
<title>Node18</title>
<g id="a_Node000018"><a xlink:href="stringio_8h.html" target="_top" xlink:title="Provides utility functions for string and file operations.">
<polygon fill="white" stroke="#666666" points="1263,-189.5 1189,-189.5 1189,-170.5 1263,-170.5 1263,-189.5"/>
<text text-anchor="middle" x="1226" y="-177.5" font-family="Helvetica,sans-Serif" font-size="10.00">io/stringio.h</text>
</a>
</g>
</g>
<!-- Node2&#45;&gt;Node18 -->
<g id="edge17_Node000002_Node000018" class="edge">
<title>Node2&#45;&gt;Node18</title>
<g id="a_edge17_Node000002_Node000018"><a xlink:title=" ">
<path fill="none" stroke="#63b8ff" d="M934.91,-234.87C990.56,-228.17 1093.03,-214.42 1179,-195 1182.43,-194.23 1185.97,-193.34 1189.5,-192.39"/>
<polygon fill="#63b8ff" stroke="#63b8ff" points="1190.65,-195.71 1199.32,-189.62 1188.75,-188.97 1190.65,-195.71"/>
</a>
</g>
</g>
<!-- Node20 -->
<g id="Node000020" class="node">
<title>Node20</title>
<g id="a_Node000020"><a xlink:href="config_8h.html" target="_top" xlink:title=" ">
<polygon fill="white" stroke="#666666" points="1336.5,-189.5 1281.5,-189.5 1281.5,-170.5 1336.5,-170.5 1336.5,-189.5"/>
<text text-anchor="middle" x="1309" y="-177.5" font-family="Helvetica,sans-Serif" font-size="10.00">config.h</text>
</a>
</g>
</g>
<!-- Node2&#45;&gt;Node20 -->
<g id="edge19_Node000002_Node000020" class="edge">
<title>Node2&#45;&gt;Node20</title>
<g id="a_edge19_Node000002_Node000020"><a xlink:title=" ">
<path fill="none" stroke="#63b8ff" d="M934.58,-237.97C1004.42,-234.62 1151.48,-224.42 1272,-195 1274.45,-194.4 1276.96,-193.69 1279.46,-192.9"/>
<polygon fill="#63b8ff" stroke="#63b8ff" points="1280.63,-196.2 1288.93,-189.61 1278.33,-189.59 1280.63,-196.2"/>
</a>
</g>
</g>
<!-- Node19 -->
<g id="Node000019" class="node">
<title>Node19</title>
<g id="a_Node000019"><a xlink:title=" ">
<polygon fill="#e0e0e0" stroke="#999999" points="1252.5,-129 1199.5,-129 1199.5,-110 1252.5,-110 1252.5,-129"/>
<text text-anchor="middle" x="1226" y="-117" font-family="Helvetica,sans-Serif" font-size="10.00">string.h</text>
</a>
</g>
</g>
<!-- Node18&#45;&gt;Node19 -->
<g id="edge18_Node000018_Node000019" class="edge">
<title>Node18&#45;&gt;Node19</title>
<g id="a_edge18_Node000018_Node000019"><a xlink:title=" ">
<path fill="none" stroke="#63b8ff" d="M1226,-170.37C1226,-162.25 1226,-149.81 1226,-139.39"/>
<polygon fill="#63b8ff" stroke="#63b8ff" points="1229.5,-139.17 1226,-129.17 1222.5,-139.17 1229.5,-139.17"/>
</a>
</g>
</g>
<!-- Node21 -->
<g id="Node000021" class="node">
<title>Node21</title>
<g id="a_Node000021"><a xlink:href="term_8h.html" target="_top" xlink:title=" ">
<polygon fill="white" stroke="#666666" points="1346.5,-129 1271.5,-129 1271.5,-110 1346.5,-110 1346.5,-129"/>
<text text-anchor="middle" x="1309" y="-117" font-family="Helvetica,sans-Serif" font-size="10.00">term/term.h</text>
</a>
</g>
</g>
<!-- Node20&#45;&gt;Node21 -->
<g id="edge20_Node000020_Node000021" class="edge">
<title>Node20&#45;&gt;Node21</title>
<g id="a_edge20_Node000020_Node000021"><a xlink:title=" ">
<path fill="none" stroke="#63b8ff" d="M1309,-170.37C1309,-162.25 1309,-149.81 1309,-139.39"/>
<polygon fill="#63b8ff" stroke="#63b8ff" points="1312.5,-139.17 1309,-129.17 1305.5,-139.17 1312.5,-139.17"/>
</a>
</g>
</g>
<!-- Node22 -->
<g id="Node000022" class="node">
<title>Node22</title>
<g id="a_Node000022"><a xlink:href="enhanced__print_8h.html" target="_top" xlink:title=" ">
<polygon fill="white" stroke="#666666" points="1359.5,-74 1258.5,-74 1258.5,-55 1359.5,-55 1359.5,-74"/>
<text text-anchor="middle" x="1309" y="-62" font-family="Helvetica,sans-Serif" font-size="10.00">enhanced_print.h</text>
</a>
</g>
</g>
<!-- Node21&#45;&gt;Node22 -->
<g id="edge21_Node000021_Node000022" class="edge">
<title>Node21&#45;&gt;Node22</title>
<g id="a_edge21_Node000021_Node000022"><a xlink:title=" ">
<path fill="none" stroke="#63b8ff" d="M1309,-109.75C1309,-102.8 1309,-92.85 1309,-84.13"/>
<polygon fill="#63b8ff" stroke="#63b8ff" points="1312.5,-84.09 1309,-74.09 1305.5,-84.09 1312.5,-84.09"/>
</a>
</g>
</g>
<!-- Node23 -->
<g id="Node000023" class="node">
<title>Node23</title>
<g id="a_Node000023"><a xlink:href="color_8h.html" target="_top" xlink:title=" ">
<polygon fill="white" stroke="#666666" points="1333.5,-19 1284.5,-19 1284.5,0 1333.5,0 1333.5,-19"/>
<text text-anchor="middle" x="1309" y="-7" font-family="Helvetica,sans-Serif" font-size="10.00">color.h</text>
</a>
</g>
</g>
<!-- Node22&#45;&gt;Node23 -->
<g id="edge22_Node000022_Node000023" class="edge">
<title>Node22&#45;&gt;Node23</title>
<g id="a_edge22_Node000022_Node000023"><a xlink:title=" ">
<path fill="none" stroke="#63b8ff" d="M1309,-54.75C1309,-47.8 1309,-37.85 1309,-29.13"/>
<polygon fill="#63b8ff" stroke="#63b8ff" points="1312.5,-29.09 1309,-19.09 1305.5,-29.09 1312.5,-29.09"/>
</a>
</g>
</g>
<!-- Node26 -->
<g id="Node000026" class="node">
<title>Node26</title>
<g id="a_Node000026"><a xlink:href="shader_8h.html" target="_top" xlink:title=" ">
<polygon fill="white" stroke="#666666" points="1553,-189.5 1495,-189.5 1495,-170.5 1553,-170.5 1553,-189.5"/>
<text text-anchor="middle" x="1524" y="-177.5" font-family="Helvetica,sans-Serif" font-size="10.00">shader.h</text>
</a>
</g>
</g>
<!-- Node25&#45;&gt;Node26 -->
<g id="edge25_Node000025_Node000026" class="edge">
<title>Node25&#45;&gt;Node26</title>
<g id="a_edge25_Node000025_Node000026"><a xlink:title=" ">
<path fill="none" stroke="#63b8ff" d="M1552.13,-230.87C1547.35,-222.4 1539.93,-209.24 1533.91,-198.57"/>
<polygon fill="#63b8ff" stroke="#63b8ff" points="1536.85,-196.66 1528.89,-189.67 1530.75,-200.1 1536.85,-196.66"/>
</a>
</g>
</g>
<!-- Node27 -->
<g id="Node000027" class="node">
<title>Node27</title>
<g id="a_Node000027"><a xlink:href="model__loader_8h.html" target="_top" xlink:title=" ">
<polygon fill="white" stroke="#666666" points="1693,-195 1571,-195 1571,-165 1693,-165 1693,-195"/>
<text text-anchor="start" x="1579" y="-183" font-family="Helvetica,sans-Serif" font-size="10.00">model_loaders/model</text>
<text text-anchor="middle" x="1632" y="-172" font-family="Helvetica,sans-Serif" font-size="10.00">_loader.h</text>
</a>
</g>
</g>
<!-- Node25&#45;&gt;Node27 -->
<g id="edge26_Node000025_Node000027" class="edge">
<title>Node25&#45;&gt;Node27</title>
<g id="a_edge26_Node000025_Node000027"><a xlink:title=" ">
<path fill="none" stroke="#63b8ff" d="M1568.07,-230.87C1577.96,-223.15 1592.85,-211.54 1605.77,-201.46"/>
<polygon fill="#63b8ff" stroke="#63b8ff" points="1608.17,-204.02 1613.9,-195.11 1603.87,-198.51 1608.17,-204.02"/>
</a>
</g>
</g>
<!-- Node28 -->
<g id="Node000028" class="node">
<title>Node28</title>
<g id="a_Node000028"><a xlink:href="obj__loader_8h.html" target="_top" xlink:title=" ">
<polygon fill="white" stroke="#666666" points="1670,-129 1594,-129 1594,-110 1670,-110 1670,-129"/>
<text text-anchor="middle" x="1632" y="-117" font-family="Helvetica,sans-Serif" font-size="10.00">obj_loader.h</text>
</a>
</g>
</g>
<!-- Node27&#45;&gt;Node28 -->
<g id="edge27_Node000027_Node000028" class="edge">
<title>Node27&#45;&gt;Node28</title>
<g id="a_edge27_Node000027_Node000028"><a xlink:title=" ">
<path fill="none" stroke="#63b8ff" d="M1632,-164.84C1632,-157.21 1632,-147.7 1632,-139.45"/>
<polygon fill="#63b8ff" stroke="#63b8ff" points="1635.5,-139.27 1632,-129.27 1628.5,-139.27 1635.5,-139.27"/>
</a>
</g>
</g>
<!-- Node29 -->
<g id="Node000029" class="node">
<title>Node29</title>
<g id="a_Node000029"><a xlink:href="mtl__loader_8h.html" target="_top" xlink:title=" ">
<polygon fill="white" stroke="#666666" points="1765.5,-129 1688.5,-129 1688.5,-110 1765.5,-110 1765.5,-129"/>
<text text-anchor="middle" x="1727" y="-117" font-family="Helvetica,sans-Serif" font-size="10.00">mtl_loader.h</text>
</a>
</g>
</g>
<!-- Node27&#45;&gt;Node29 -->
<g id="edge28_Node000027_Node000029" class="edge">
<title>Node27&#45;&gt;Node29</title>
<g id="a_edge28_Node000027_Node000029"><a xlink:title=" ">
<path fill="none" stroke="#63b8ff" d="M1655,-164.84C1670,-155.6 1689.5,-143.59 1704.43,-134.4"/>
<polygon fill="#63b8ff" stroke="#63b8ff" points="1706.36,-137.32 1713.04,-129.09 1702.69,-131.36 1706.36,-137.32"/>
</a>
</g>
</g>
<!-- Node30 -->
<g id="Node000030" class="node">
<title>Node30</title>
<g id="a_Node000030"><a xlink:href="fbx__loader_8h.html" target="_top" xlink:title=" ">
<polygon fill="white" stroke="#666666" points="1575.5,-129 1498.5,-129 1498.5,-110 1575.5,-110 1575.5,-129"/>
<text text-anchor="middle" x="1537" y="-117" font-family="Helvetica,sans-Serif" font-size="10.00">fbx_loader.h</text>
</a>
</g>
</g>
<!-- Node27&#45;&gt;Node30 -->
<g id="edge29_Node000027_Node000030" class="edge">
<title>Node27&#45;&gt;Node30</title>
<g id="a_edge29_Node000027_Node000030"><a xlink:title=" ">
<path fill="none" stroke="#63b8ff" d="M1609,-164.84C1594,-155.6 1574.5,-143.59 1559.57,-134.4"/>
<polygon fill="#63b8ff" stroke="#63b8ff" points="1561.31,-131.36 1550.96,-129.09 1557.64,-137.32 1561.31,-131.36"/>
</a>
</g>
</g>
<!-- Node32 -->
<g id="Node000032" class="node">
<title>Node32</title>
<g id="a_Node000032"><a xlink:href="input_8h.html" target="_top" xlink:title=" ">
<polygon fill="white" stroke="#666666" points="1812.5,-250 1741.5,-250 1741.5,-231 1812.5,-231 1812.5,-250"/>
<text text-anchor="middle" x="1777" y="-238" font-family="Helvetica,sans-Serif" font-size="10.00">../io/input.h</text>
</a>
</g>
</g>
<!-- Node31&#45;&gt;Node32 -->
<g id="edge31_Node000031_Node000032" class="edge">
<title>Node31&#45;&gt;Node32</title>
<g id="a_edge31_Node000031_Node000032"><a xlink:title=" ">
<path fill="none" stroke="#63b8ff" d="M1777,-285.75C1777,-278.8 1777,-268.85 1777,-260.13"/>
<polygon fill="#63b8ff" stroke="#63b8ff" points="1780.5,-260.09 1777,-250.09 1773.5,-260.09 1780.5,-260.09"/>
</a>
</g>
</g>
<!-- Node33&#45;&gt;Node26 -->
<g id="edge33_Node000033_Node000026" class="edge">
<title>Node33&#45;&gt;Node26</title>
<g id="a_edge33_Node000033_Node000026"><a xlink:title=" ">
<path fill="none" stroke="#63b8ff" d="M1454.88,-340.99C1458.95,-332.05 1465.49,-317.57 1471,-305 1487.46,-267.46 1506.2,-223.26 1516.4,-199.08"/>
<polygon fill="#63b8ff" stroke="#63b8ff" points="1519.67,-200.32 1520.33,-189.74 1513.22,-197.6 1519.67,-200.32"/>
</a>
</g>
</g>
<!-- Node33&#45;&gt;Node31 -->
<g id="edge44_Node000033_Node000031" class="edge">
<title>Node33&#45;&gt;Node31</title>
<g id="a_edge44_Node000033_Node000031"><a xlink:title=" ">
<path fill="none" stroke="#63b8ff" d="M1500.16,-341.51C1557.36,-332.21 1651.93,-316.83 1714.35,-306.69"/>
<polygon fill="#63b8ff" stroke="#63b8ff" points="1715.16,-310.1 1724.47,-305.04 1714.03,-303.19 1715.16,-310.1"/>
</a>
</g>
</g>
<!-- Node33&#45;&gt;Node34 -->
<g id="edge34_Node000033_Node000034" class="edge">
<title>Node33&#45;&gt;Node34</title>
<g id="a_edge34_Node000033_Node000034"><a xlink:title=" ">
<path fill="none" stroke="#63b8ff" d="M1417.9,-340.98C1382.72,-331.93 1326.93,-317.58 1288.28,-307.64"/>
<polygon fill="#63b8ff" stroke="#63b8ff" points="1288.91,-304.18 1278.36,-305.08 1287.17,-310.96 1288.91,-304.18"/>
</a>
</g>
</g>
<!-- Node33&#45;&gt;Node35 -->
<g id="edge38_Node000033_Node000035" class="edge">
<title>Node33&#45;&gt;Node35</title>
<g id="a_edge38_Node000033_Node000035"><a xlink:title=" ">
<path fill="none" stroke="#63b8ff" d="M1443.9,-340.75C1437.83,-333.26 1428.91,-322.28 1421.49,-313.13"/>
<polygon fill="#63b8ff" stroke="#63b8ff" points="1423.99,-310.65 1414.97,-305.09 1418.55,-315.06 1423.99,-310.65"/>
</a>
</g>
</g>
<!-- Node36 -->
<g id="Node000036" class="node">
<title>Node36</title>
<g id="a_Node000036"><a xlink:href="scripts_8h.html" target="_top" xlink:title=" ">
<polygon fill="white" stroke="#666666" points="1696,-305 1594,-305 1594,-286 1696,-286 1696,-305"/>
<text text-anchor="middle" x="1645" y="-293" font-family="Helvetica,sans-Serif" font-size="10.00">../scripts/scripts.h</text>
</a>
</g>
</g>
<!-- Node33&#45;&gt;Node36 -->
<g id="edge41_Node000033_Node000036" class="edge">
<title>Node33&#45;&gt;Node36</title>
<g id="a_edge41_Node000033_Node000036"><a xlink:title=" ">
<path fill="none" stroke="#63b8ff" d="M1482.17,-340.98C1515.16,-331.97 1567.4,-317.7 1603.77,-307.76"/>
<polygon fill="#63b8ff" stroke="#63b8ff" points="1604.86,-311.09 1613.59,-305.08 1603.02,-304.34 1604.86,-311.09"/>
</a>
</g>
</g>
<!-- Node34&#45;&gt;Node2 -->
<g id="edge35_Node000034_Node000002" class="edge">
<title>Node34&#45;&gt;Node2</title>
<g id="a_edge35_Node000034_Node000002"><a xlink:title=" ">
<path fill="none" stroke="#63b8ff" d="M1191.69,-286.45C1124.7,-276.33 1010.55,-259.1 944.78,-249.17"/>
<polygon fill="#63b8ff" stroke="#63b8ff" points="945.06,-245.67 934.65,-247.64 944.02,-252.59 945.06,-245.67"/>
</a>
</g>
</g>
<!-- Node34&#45;&gt;Node24 -->
<g id="edge36_Node000034_Node000024" class="edge">
<title>Node34&#45;&gt;Node24</title>
<g id="a_edge36_Node000034_Node000024"><a xlink:title=" ">
<path fill="none" stroke="#63b8ff" d="M1258.34,-285.98C1271.09,-277.84 1290.55,-265.41 1305.67,-255.76"/>
<polygon fill="#63b8ff" stroke="#63b8ff" points="1307.88,-258.5 1314.42,-250.17 1304.11,-252.6 1307.88,-258.5"/>
</a>
</g>
</g>
<!-- Node34&#45;&gt;Node26 -->
<g id="edge37_Node000034_Node000026" class="edge">
<title>Node34&#45;&gt;Node26</title>
<g id="a_edge37_Node000034_Node000026"><a xlink:title=" ">
<path fill="none" stroke="#63b8ff" d="M1244.89,-285.57C1245.23,-271.66 1248.09,-244.97 1264,-231 1339.12,-165.06 1389.32,-220.39 1486,-195 1488.44,-194.36 1490.94,-193.62 1493.44,-192.83"/>
<polygon fill="#63b8ff" stroke="#63b8ff" points="1494.6,-196.13 1502.93,-189.58 1492.33,-189.51 1494.6,-196.13"/>
</a>
</g>
</g>
<!-- Node35&#45;&gt;Node24 -->
<g id="edge39_Node000035_Node000024" class="edge">
<title>Node35&#45;&gt;Node24</title>
<g id="a_edge39_Node000035_Node000024"><a xlink:title=" ">
<path fill="none" stroke="#63b8ff" d="M1395.15,-285.98C1382.86,-277.84 1364.09,-265.41 1349.52,-255.76"/>
<polygon fill="#63b8ff" stroke="#63b8ff" points="1351.36,-252.78 1341.09,-250.17 1347.49,-258.61 1351.36,-252.78"/>
</a>
</g>
</g>
<!-- Node35&#45;&gt;Node25 -->
<g id="edge40_Node000035_Node000025" class="edge">
<title>Node35&#45;&gt;Node25</title>
<g id="a_edge40_Node000035_Node000025"><a xlink:title=" ">
<path fill="none" stroke="#63b8ff" d="M1431.94,-285.98C1456.56,-277.23 1495.12,-263.51 1522.92,-253.62"/>
<polygon fill="#63b8ff" stroke="#63b8ff" points="1524.38,-256.82 1532.62,-250.17 1522.03,-250.22 1524.38,-256.82"/>
</a>
</g>
</g>
<!-- Node36&#45;&gt;Node32 -->
<g id="edge42_Node000036_Node000032" class="edge">
<title>Node36&#45;&gt;Node32</title>
<g id="a_edge42_Node000036_Node000032"><a xlink:title=" ">
<path fill="none" stroke="#63b8ff" d="M1666.21,-285.98C1687.73,-277.34 1721.28,-263.87 1745.83,-254.02"/>
<polygon fill="#63b8ff" stroke="#63b8ff" points="1747.43,-257.14 1755.41,-250.17 1744.82,-250.65 1747.43,-257.14"/>
</a>
</g>
</g>
<!-- Node37 -->
<g id="Node000037" class="node">
<title>Node37</title>
<g id="a_Node000037"><a xlink:href="signals_8h.html" target="_top" xlink:title="Signal and slot system for C projects.">
<polygon fill="white" stroke="#666666" points="1675,-250 1615,-250 1615,-231 1675,-231 1675,-250"/>
<text text-anchor="middle" x="1645" y="-238" font-family="Helvetica,sans-Serif" font-size="10.00">signals.h</text>
</a>
</g>
</g>
<!-- Node36&#45;&gt;Node37 -->
<g id="edge43_Node000036_Node000037" class="edge">
<title>Node36&#45;&gt;Node37</title>
<g id="a_edge43_Node000036_Node000037"><a xlink:title=" ">
<path fill="none" stroke="#63b8ff" d="M1645,-285.75C1645,-278.8 1645,-268.85 1645,-260.13"/>
<polygon fill="#63b8ff" stroke="#63b8ff" points="1648.5,-260.09 1645,-250.09 1641.5,-260.09 1648.5,-260.09"/>
</a>
</g>
</g>
<!-- Node39&#45;&gt;Node25 -->
<g id="edge48_Node000039_Node000025" class="edge">
<title>Node39&#45;&gt;Node25</title>
<g id="a_edge48_Node000039_Node000025"><a xlink:title=" ">
<path fill="none" stroke="#63b8ff" d="M1610.55,-340.7C1603.42,-332.01 1592.64,-318.14 1585,-305 1576.48,-290.35 1568.87,-272.64 1563.75,-259.64"/>
<polygon fill="#63b8ff" stroke="#63b8ff" points="1566.9,-258.1 1560.06,-250.01 1560.36,-260.6 1566.9,-258.1"/>
</a>
</g>
</g>
<!-- Node39&#45;&gt;Node31 -->
<g id="edge49_Node000039_Node000031" class="edge">
<title>Node39&#45;&gt;Node31</title>
<g id="a_edge49_Node000039_Node000031"><a xlink:title=" ">
<path fill="none" stroke="#63b8ff" d="M1643.55,-340.98C1670.12,-332.13 1711.94,-318.19 1741.67,-308.28"/>
<polygon fill="#63b8ff" stroke="#63b8ff" points="1742.87,-311.56 1751.25,-305.08 1740.66,-304.92 1742.87,-311.56"/>
</a>
</g>
</g>
<!-- Node42&#45;&gt;Node32 -->
<g id="edge53_Node000042_Node000032" class="edge">
<title>Node42&#45;&gt;Node32</title>
<g id="a_edge53_Node000042_Node000032"><a xlink:title=" ">
<path fill="none" stroke="#63b8ff" d="M1798.38,-341.22C1816.61,-334.63 1838.07,-323.37 1849,-305 1861.77,-283.54 1834.92,-265.44 1810.46,-254.13"/>
<polygon fill="#63b8ff" stroke="#63b8ff" points="1811.85,-250.92 1801.29,-250.13 1809.05,-257.33 1811.85,-250.92"/>
</a>
</g>
</g>
<!-- Node42&#45;&gt;Node40 -->
<g id="edge54_Node000042_Node000040" class="edge">
<title>Node42&#45;&gt;Node40</title>
<g id="a_edge54_Node000042_Node000040"><a xlink:title=" ">
<path fill="none" stroke="#63b8ff" d="M1796.24,-340.98C1827.06,-332.01 1875.78,-317.82 1909.89,-307.89"/>
<polygon fill="#63b8ff" stroke="#63b8ff" points="1910.91,-311.24 1919.53,-305.08 1908.95,-304.52 1910.91,-311.24"/>
</a>
</g>
</g>
</g>
</svg>
