<?xml version="1.0" encoding="UTF-8" standalone="no"?>
<!DOCTYPE svg PUBLIC "-//W3C//DTD SVG 1.1//EN"
 "http://www.w3.org/Graphics/SVG/1.1/DTD/svg11.dtd">
<!-- Generated by graphviz version 2.43.0 (0)
 -->
<!-- Title: src/classes/nodes/frames/control_frame.class.c Pages: 1 -->
<svg width="2014pt" height="434pt"
 viewBox="0.00 0.00 2014.00 434.00" xmlns="http://www.w3.org/2000/svg" xmlns:xlink="http://www.w3.org/1999/xlink">
<g id="graph0" class="graph" transform="scale(1 1) rotate(0) translate(4 430)">
<title>src/classes/nodes/frames/control_frame.class.c</title>
<!-- Node1 -->
<g id="Node000001" class="node">
<title>Node1</title>
<g id="a_Node000001"><a xlink:title="This file defines the implementation of the control frame class.">
<polygon fill="#999999" stroke="#666666" points="1746.5,-426 1606.5,-426 1606.5,-396 1746.5,-396 1746.5,-426"/>
<text text-anchor="start" x="1614.5" y="-414" font-family="Helvetica,sans-Serif" font-size="10.00">src/classes/nodes/frames</text>
<text text-anchor="middle" x="1676.5" y="-403" font-family="Helvetica,sans-Serif" font-size="10.00">/control_frame.class.c</text>
</a>
</g>
</g>
<!-- Node2 -->
<g id="Node000002" class="node">
<title>Node2</title>
<g id="a_Node000002"><a xlink:href="raptiquax_8h.html" target="_top" xlink:title="This file contains type definitions for fixed&#45;width integer types and floating&#45;point types.">
<polygon fill="white" stroke="#666666" points="854.5,-250 782.5,-250 782.5,-231 854.5,-231 854.5,-250"/>
<text text-anchor="middle" x="818.5" y="-238" font-family="Helvetica,sans-Serif" font-size="10.00">raptiquax.h</text>
</a>
</g>
</g>
<!-- Node1&#45;&gt;Node2 -->
<g id="edge1_Node000001_Node000002" class="edge">
<title>Node1&#45;&gt;Node2</title>
<g id="a_edge1_Node000001_Node000002"><a xlink:title=" ">
<path fill="none" stroke="#63b8ff" d="M1606.2,-407.93C1426,-402.29 957.15,-385.34 891.5,-360 854.91,-345.88 840.62,-339.78 822.5,-305 815.39,-291.36 814.83,-273.78 815.8,-260.57"/>
<polygon fill="#63b8ff" stroke="#63b8ff" points="819.32,-260.62 816.92,-250.3 812.36,-259.87 819.32,-260.62"/>
</a>
</g>
</g>
<!-- Node24 -->
<g id="Node000024" class="node">
<title>Node24</title>
<g id="a_Node000024"><a xlink:href="classes_8h.html" target="_top" xlink:title=" ">
<polygon fill="white" stroke="#666666" points="1002,-360 901,-360 901,-341 1002,-341 1002,-360"/>
<text text-anchor="middle" x="951.5" y="-348" font-family="Helvetica,sans-Serif" font-size="10.00">classes/classes.h</text>
</a>
</g>
</g>
<!-- Node1&#45;&gt;Node24 -->
<g id="edge23_Node000001_Node000024" class="edge">
<title>Node1&#45;&gt;Node24</title>
<g id="a_edge23_Node000001_Node000024"><a xlink:title=" ">
<path fill="none" stroke="#63b8ff" d="M1606.33,-404.34C1464.5,-392.89 1145.9,-367.19 1012.29,-356.4"/>
<polygon fill="#63b8ff" stroke="#63b8ff" points="1012.48,-352.91 1002.23,-355.59 1011.91,-359.89 1012.48,-352.91"/>
</a>
</g>
</g>
<!-- Node27 -->
<g id="Node000027" class="node">
<title>Node27</title>
<g id="a_Node000027"><a xlink:href="math__util_8h.html" target="_top" xlink:title=" ">
<polygon fill="white" stroke="#666666" points="1607,-250 1506,-250 1506,-231 1607,-231 1607,-250"/>
<text text-anchor="middle" x="1556.5" y="-238" font-family="Helvetica,sans-Serif" font-size="10.00">math/math_util.h</text>
</a>
</g>
</g>
<!-- Node1&#45;&gt;Node27 -->
<g id="edge27_Node000001_Node000027" class="edge">
<title>Node1&#45;&gt;Node27</title>
<g id="a_edge27_Node000001_Node000027"><a xlink:title=" ">
<path fill="none" stroke="#63b8ff" d="M1672.44,-395.68C1664.94,-371.14 1647.04,-320.38 1618.5,-286 1608.32,-273.73 1594.01,-263.17 1581.7,-255.41"/>
<polygon fill="#63b8ff" stroke="#63b8ff" points="1583.16,-252.2 1572.78,-250.05 1579.55,-258.2 1583.16,-252.2"/>
</a>
</g>
</g>
<!-- Node28 -->
<g id="Node000028" class="node">
<title>Node28</title>
<g id="a_Node000028"><a xlink:href="model_8h.html" target="_top" xlink:title="Defines structures and functions for handling 3D models and their properties.">
<polygon fill="white" stroke="#666666" points="1760.5,-250 1692.5,-250 1692.5,-231 1760.5,-231 1760.5,-250"/>
<text text-anchor="middle" x="1726.5" y="-238" font-family="Helvetica,sans-Serif" font-size="10.00">io/model.h</text>
</a>
</g>
</g>
<!-- Node1&#45;&gt;Node28 -->
<g id="edge28_Node000001_Node000028" class="edge">
<title>Node1&#45;&gt;Node28</title>
<g id="a_edge28_Node000001_Node000028"><a xlink:title=" ">
<path fill="none" stroke="#63b8ff" d="M1680.68,-395.92C1689.66,-365.65 1710.82,-294.35 1720.93,-260.27"/>
<polygon fill="#63b8ff" stroke="#63b8ff" points="1724.41,-260.84 1723.9,-250.25 1717.7,-258.85 1724.41,-260.84"/>
</a>
</g>
</g>
<!-- Node29 -->
<g id="Node000029" class="node">
<title>Node29</title>
<g id="a_Node000029"><a xlink:href="shader_8h.html" target="_top" xlink:title=" ">
<polygon fill="white" stroke="#666666" points="1606.5,-189.5 1548.5,-189.5 1548.5,-170.5 1606.5,-170.5 1606.5,-189.5"/>
<text text-anchor="middle" x="1577.5" y="-177.5" font-family="Helvetica,sans-Serif" font-size="10.00">shader.h</text>
</a>
</g>
</g>
<!-- Node1&#45;&gt;Node29 -->
<g id="edge48_Node000001_Node000029" class="edge">
<title>Node1&#45;&gt;Node29</title>
<g id="a_edge48_Node000001_Node000029"><a xlink:title=" ">
<path fill="none" stroke="#63b8ff" d="M1674.45,-395.79C1672.23,-381.7 1668.21,-359.58 1662.5,-341 1646.88,-290.18 1642.41,-276.85 1615.5,-231 1608.57,-219.19 1599.3,-206.94 1591.65,-197.52"/>
<polygon fill="#63b8ff" stroke="#63b8ff" points="1594.28,-195.21 1585.19,-189.76 1588.89,-199.68 1594.28,-195.21"/>
</a>
</g>
</g>
<!-- Node34 -->
<g id="Node000034" class="node">
<title>Node34</title>
<g id="a_Node000034"><a xlink:href="node_8h.html" target="_top" xlink:title=" ">
<polygon fill="white" stroke="#666666" points="1415,-360 1326,-360 1326,-341 1415,-341 1415,-360"/>
<text text-anchor="middle" x="1370.5" y="-348" font-family="Helvetica,sans-Serif" font-size="10.00">storage/node.h</text>
</a>
</g>
</g>
<!-- Node1&#45;&gt;Node34 -->
<g id="edge34_Node000001_Node000034" class="edge">
<title>Node1&#45;&gt;Node34</title>
<g id="a_edge34_Node000001_Node000034"><a xlink:title=" ">
<path fill="none" stroke="#63b8ff" d="M1606.3,-396.58C1551.33,-386.07 1475.95,-371.66 1425.35,-361.99"/>
<polygon fill="#63b8ff" stroke="#63b8ff" points="1425.74,-358.5 1415.27,-360.06 1424.43,-365.37 1425.74,-358.5"/>
</a>
</g>
</g>
<!-- Node41 -->
<g id="Node000041" class="node">
<title>Node41</title>
<g id="a_Node000041"><a xlink:href="render_8h.html" target="_top" xlink:title=" ">
<polygon fill="white" stroke="#666666" points="1834,-360 1743,-360 1743,-341 1834,-341 1834,-360"/>
<text text-anchor="middle" x="1788.5" y="-348" font-family="Helvetica,sans-Serif" font-size="10.00">render/render.h</text>
</a>
</g>
</g>
<!-- Node1&#45;&gt;Node41 -->
<g id="edge49_Node000001_Node000041" class="edge">
<title>Node1&#45;&gt;Node41</title>
<g id="a_edge49_Node000001_Node000041"><a xlink:title=" ">
<path fill="none" stroke="#63b8ff" d="M1703.33,-395.99C1721.35,-386.58 1744.96,-374.24 1762.75,-364.95"/>
<polygon fill="#63b8ff" stroke="#63b8ff" points="1764.72,-367.87 1771.96,-360.14 1761.48,-361.67 1764.72,-367.87"/>
</a>
</g>
</g>
<!-- Node42 -->
<g id="Node000042" class="node">
<title>Node42</title>
<g id="a_Node000042"><a xlink:href="window_8h.html" target="_top" xlink:title=" ">
<polygon fill="white" stroke="#666666" points="1914.5,-360 1852.5,-360 1852.5,-341 1914.5,-341 1914.5,-360"/>
<text text-anchor="middle" x="1883.5" y="-348" font-family="Helvetica,sans-Serif" font-size="10.00">window.h</text>
</a>
</g>
</g>
<!-- Node1&#45;&gt;Node42 -->
<g id="edge50_Node000001_Node000042" class="edge">
<title>Node1&#45;&gt;Node42</title>
<g id="a_edge50_Node000001_Node000042"><a xlink:title=" ">
<path fill="none" stroke="#63b8ff" d="M1726.08,-395.99C1761.96,-385.85 1809.83,-372.32 1843.33,-362.85"/>
<polygon fill="#63b8ff" stroke="#63b8ff" points="1844.56,-366.14 1853.23,-360.05 1842.66,-359.41 1844.56,-366.14"/>
</a>
</g>
</g>
<!-- Node43 -->
<g id="Node000043" class="node">
<title>Node43</title>
<g id="a_Node000043"><a xlink:href="frame_8h.html" target="_top" xlink:title="GUI Frame and related structures for SDL and OpenGL project.">
<polygon fill="white" stroke="#666666" points="2006,-360 1933,-360 1933,-341 2006,-341 2006,-360"/>
<text text-anchor="middle" x="1969.5" y="-348" font-family="Helvetica,sans-Serif" font-size="10.00">gui/frame.h</text>
</a>
</g>
</g>
<!-- Node1&#45;&gt;Node43 -->
<g id="edge51_Node000001_Node000043" class="edge">
<title>Node1&#45;&gt;Node43</title>
<g id="a_edge51_Node000001_Node000043"><a xlink:title=" ">
<path fill="none" stroke="#63b8ff" d="M1746.68,-395.99C1801.25,-385.09 1875.43,-370.28 1922.9,-360.81"/>
<polygon fill="#63b8ff" stroke="#63b8ff" points="1923.77,-364.2 1932.89,-358.81 1922.4,-357.33 1923.77,-364.2"/>
</a>
</g>
</g>
<!-- Node3 -->
<g id="Node000003" class="node">
<title>Node3</title>
<g id="a_Node000003"><a xlink:title=" ">
<polygon fill="#e0e0e0" stroke="#999999" points="1250.5,-189.5 1200.5,-189.5 1200.5,-170.5 1250.5,-170.5 1250.5,-189.5"/>
<text text-anchor="middle" x="1225.5" y="-177.5" font-family="Helvetica,sans-Serif" font-size="10.00">stdio.h</text>
</a>
</g>
</g>
<!-- Node2&#45;&gt;Node3 -->
<g id="edge2_Node000002_Node000003" class="edge">
<title>Node2&#45;&gt;Node3</title>
<g id="a_edge2_Node000002_Node000003"><a xlink:title=" ">
<path fill="none" stroke="#63b8ff" d="M854.72,-238.3C921.91,-235.39 1069.96,-225.75 1190.5,-195 1192.66,-194.45 1194.87,-193.79 1197.08,-193.08"/>
<polygon fill="#63b8ff" stroke="#63b8ff" points="1198.35,-196.34 1206.55,-189.63 1195.95,-189.76 1198.35,-196.34"/>
</a>
</g>
</g>
<!-- Node4 -->
<g id="Node000004" class="node">
<title>Node4</title>
<g id="a_Node000004"><a xlink:title=" ">
<polygon fill="#e0e0e0" stroke="#999999" points="1322,-189.5 1269,-189.5 1269,-170.5 1322,-170.5 1322,-189.5"/>
<text text-anchor="middle" x="1295.5" y="-177.5" font-family="Helvetica,sans-Serif" font-size="10.00">stdint.h</text>
</a>
</g>
</g>
<!-- Node2&#45;&gt;Node4 -->
<g id="edge3_Node000002_Node000004" class="edge">
<title>Node2&#45;&gt;Node4</title>
<g id="a_edge3_Node000002_Node000004"><a xlink:title=" ">
<path fill="none" stroke="#63b8ff" d="M854.78,-239.13C930.87,-237.65 1112.29,-230.36 1259.5,-195 1261.87,-194.43 1264.28,-193.74 1266.69,-192.98"/>
<polygon fill="#63b8ff" stroke="#63b8ff" points="1268.13,-196.19 1276.38,-189.54 1265.78,-189.59 1268.13,-196.19"/>
</a>
</g>
</g>
<!-- Node5 -->
<g id="Node000005" class="node">
<title>Node5</title>
<g id="a_Node000005"><a xlink:title=" ">
<polygon fill="#e0e0e0" stroke="#999999" points="1402.5,-189.5 1340.5,-189.5 1340.5,-170.5 1402.5,-170.5 1402.5,-189.5"/>
<text text-anchor="middle" x="1371.5" y="-177.5" font-family="Helvetica,sans-Serif" font-size="10.00">stdbool.h</text>
</a>
</g>
</g>
<!-- Node2&#45;&gt;Node5 -->
<g id="edge4_Node000002_Node000005" class="edge">
<title>Node2&#45;&gt;Node5</title>
<g id="a_edge4_Node000002_Node000005"><a xlink:title=" ">
<path fill="none" stroke="#63b8ff" d="M854.63,-239.35C938.93,-238.35 1154.8,-232.06 1330.5,-195 1333.57,-194.35 1336.72,-193.55 1339.85,-192.65"/>
<polygon fill="#63b8ff" stroke="#63b8ff" points="1341.16,-195.9 1349.65,-189.56 1339.06,-189.23 1341.16,-195.9"/>
</a>
</g>
</g>
<!-- Node6 -->
<g id="Node000006" class="node">
<title>Node6</title>
<g id="a_Node000006"><a xlink:title=" ">
<polygon fill="#e0e0e0" stroke="#999999" points="1476.5,-189.5 1420.5,-189.5 1420.5,-170.5 1476.5,-170.5 1476.5,-189.5"/>
<text text-anchor="middle" x="1448.5" y="-177.5" font-family="Helvetica,sans-Serif" font-size="10.00">stdarg.h</text>
</a>
</g>
</g>
<!-- Node2&#45;&gt;Node6 -->
<g id="edge5_Node000002_Node000006" class="edge">
<title>Node2&#45;&gt;Node6</title>
<g id="a_edge5_Node000002_Node000006"><a xlink:title=" ">
<path fill="none" stroke="#63b8ff" d="M854.77,-238.14C966.51,-233.74 1304.41,-218.76 1411.5,-195 1414.02,-194.44 1416.6,-193.74 1419.17,-192.96"/>
<polygon fill="#63b8ff" stroke="#63b8ff" points="1420.53,-196.19 1428.85,-189.63 1418.26,-189.57 1420.53,-196.19"/>
</a>
</g>
</g>
<!-- Node7 -->
<g id="Node000007" class="node">
<title>Node7</title>
<g id="a_Node000007"><a xlink:title=" ">
<polygon fill="#e0e0e0" stroke="#999999" points="53,-189.5 0,-189.5 0,-170.5 53,-170.5 53,-189.5"/>
<text text-anchor="middle" x="26.5" y="-177.5" font-family="Helvetica,sans-Serif" font-size="10.00">limits.h</text>
</a>
</g>
</g>
<!-- Node2&#45;&gt;Node7 -->
<g id="edge6_Node000002_Node000007" class="edge">
<title>Node2&#45;&gt;Node7</title>
<g id="a_edge6_Node000002_Node000007"><a xlink:title=" ">
<path fill="none" stroke="#63b8ff" d="M782.28,-238.86C651.26,-236.32 202.35,-225.52 62.5,-195 59.98,-194.45 57.4,-193.75 54.84,-192.95"/>
<polygon fill="#63b8ff" stroke="#63b8ff" points="55.81,-189.58 45.21,-189.55 53.47,-196.18 55.81,-189.58"/>
</a>
</g>
</g>
<!-- Node8 -->
<g id="Node000008" class="node">
<title>Node8</title>
<g id="a_Node000008"><a xlink:title=" ">
<polygon fill="#e0e0e0" stroke="#999999" points="143.5,-189.5 71.5,-189.5 71.5,-170.5 143.5,-170.5 143.5,-189.5"/>
<text text-anchor="middle" x="107.5" y="-177.5" font-family="Helvetica,sans-Serif" font-size="10.00">SDL2/SDL.h</text>
</a>
</g>
</g>
<!-- Node2&#45;&gt;Node8 -->
<g id="edge7_Node000002_Node000008" class="edge">
<title>Node2&#45;&gt;Node8</title>
<g id="a_edge7_Node000002_Node000008"><a xlink:title=" ">
<path fill="none" stroke="#63b8ff" d="M782.39,-240.05C681.73,-240.93 389.74,-239.19 152.5,-195 148.83,-194.32 145.03,-193.43 141.27,-192.44"/>
<polygon fill="#63b8ff" stroke="#63b8ff" points="142.1,-189.03 131.53,-189.62 140.16,-195.76 142.1,-189.03"/>
</a>
</g>
</g>
<!-- Node9 -->
<g id="Node000009" class="node">
<title>Node9</title>
<g id="a_Node000009"><a xlink:title=" ">
<polygon fill="#e0e0e0" stroke="#999999" points="269.5,-189.5 161.5,-189.5 161.5,-170.5 269.5,-170.5 269.5,-189.5"/>
<text text-anchor="middle" x="215.5" y="-177.5" font-family="Helvetica,sans-Serif" font-size="10.00">SDL2/SDL_image.h</text>
</a>
</g>
</g>
<!-- Node2&#45;&gt;Node9 -->
<g id="edge8_Node000002_Node000009" class="edge">
<title>Node2&#45;&gt;Node9</title>
<g id="a_edge8_Node000002_Node000009"><a xlink:title=" ">
<path fill="none" stroke="#63b8ff" d="M782.28,-238.22C695.1,-234.78 466.84,-223.55 278.5,-195 272.54,-194.1 266.3,-192.95 260.16,-191.71"/>
<polygon fill="#63b8ff" stroke="#63b8ff" points="260.51,-188.21 250,-189.56 259.06,-195.06 260.51,-188.21"/>
</a>
</g>
</g>
<!-- Node10 -->
<g id="Node000010" class="node">
<title>Node10</title>
<g id="a_Node000010"><a xlink:title=" ">
<polygon fill="#e0e0e0" stroke="#999999" points="397.5,-189.5 287.5,-189.5 287.5,-170.5 397.5,-170.5 397.5,-189.5"/>
<text text-anchor="middle" x="342.5" y="-177.5" font-family="Helvetica,sans-Serif" font-size="10.00">SDL2/SDL_opengl.h</text>
</a>
</g>
</g>
<!-- Node2&#45;&gt;Node10 -->
<g id="edge9_Node000002_Node000010" class="edge">
<title>Node2&#45;&gt;Node10</title>
<g id="a_edge9_Node000002_Node000010"><a xlink:title=" ">
<path fill="none" stroke="#63b8ff" d="M782.23,-236.9C710.26,-231.46 544.43,-217.47 406.5,-195 400.6,-194.04 394.43,-192.88 388.35,-191.65"/>
<polygon fill="#63b8ff" stroke="#63b8ff" points="388.76,-188.16 378.25,-189.53 387.32,-195.01 388.76,-188.16"/>
</a>
</g>
</g>
<!-- Node11 -->
<g id="Node000011" class="node">
<title>Node11</title>
<g id="a_Node000011"><a xlink:title=" ">
<polygon fill="#e0e0e0" stroke="#999999" points="519.5,-189.5 415.5,-189.5 415.5,-170.5 519.5,-170.5 519.5,-189.5"/>
<text text-anchor="middle" x="467.5" y="-177.5" font-family="Helvetica,sans-Serif" font-size="10.00">SDL2/SDL_mixer.h</text>
</a>
</g>
</g>
<!-- Node2&#45;&gt;Node11 -->
<g id="edge10_Node000002_Node000011" class="edge">
<title>Node2&#45;&gt;Node11</title>
<g id="a_edge10_Node000002_Node000011"><a xlink:title=" ">
<path fill="none" stroke="#63b8ff" d="M782.19,-234.8C727.12,-227.47 619.3,-212.36 528.5,-195 523.36,-194.02 518,-192.91 512.68,-191.76"/>
<polygon fill="#63b8ff" stroke="#63b8ff" points="513.09,-188.26 502.57,-189.51 511.57,-195.1 513.09,-188.26"/>
</a>
</g>
</g>
<!-- Node12 -->
<g id="Node000012" class="node">
<title>Node12</title>
<g id="a_Node000012"><a xlink:title=" ">
<polygon fill="#e0e0e0" stroke="#999999" points="625.5,-189.5 537.5,-189.5 537.5,-170.5 625.5,-170.5 625.5,-189.5"/>
<text text-anchor="middle" x="581.5" y="-177.5" font-family="Helvetica,sans-Serif" font-size="10.00">SDL2/SDL_ttf.h</text>
</a>
</g>
</g>
<!-- Node2&#45;&gt;Node12 -->
<g id="edge11_Node000002_Node000012" class="edge">
<title>Node2&#45;&gt;Node12</title>
<g id="a_edge11_Node000002_Node000012"><a xlink:title=" ">
<path fill="none" stroke="#63b8ff" d="M782.48,-231.02C745.35,-222.23 685.8,-207.98 634.5,-195 630.87,-194.08 627.11,-193.12 623.34,-192.14"/>
<polygon fill="#63b8ff" stroke="#63b8ff" points="623.98,-188.69 613.42,-189.55 622.21,-195.46 623.98,-188.69"/>
</a>
</g>
</g>
<!-- Node13 -->
<g id="Node000013" class="node">
<title>Node13</title>
<g id="a_Node000013"><a xlink:title=" ">
<polygon fill="#e0e0e0" stroke="#999999" points="693.5,-189.5 643.5,-189.5 643.5,-170.5 693.5,-170.5 693.5,-189.5"/>
<text text-anchor="middle" x="668.5" y="-177.5" font-family="Helvetica,sans-Serif" font-size="10.00">GL/gl.h</text>
</a>
</g>
</g>
<!-- Node2&#45;&gt;Node13 -->
<g id="edge12_Node000002_Node000013" class="edge">
<title>Node2&#45;&gt;Node13</title>
<g id="a_edge12_Node000002_Node000013"><a xlink:title=" ">
<path fill="none" stroke="#63b8ff" d="M795.76,-230.96C772.33,-222.12 734.77,-207.83 702.5,-195 701.13,-194.45 699.73,-193.89 698.31,-193.32"/>
<polygon fill="#63b8ff" stroke="#63b8ff" points="699.55,-190.05 688.96,-189.52 696.91,-196.53 699.55,-190.05"/>
</a>
</g>
</g>
<!-- Node14 -->
<g id="Node000014" class="node">
<title>Node14</title>
<g id="a_Node000014"><a xlink:title=" ">
<polygon fill="#e0e0e0" stroke="#999999" points="767.5,-189.5 711.5,-189.5 711.5,-170.5 767.5,-170.5 767.5,-189.5"/>
<text text-anchor="middle" x="739.5" y="-177.5" font-family="Helvetica,sans-Serif" font-size="10.00">GL/glu.h</text>
</a>
</g>
</g>
<!-- Node2&#45;&gt;Node14 -->
<g id="edge13_Node000002_Node000014" class="edge">
<title>Node2&#45;&gt;Node14</title>
<g id="a_edge13_Node000002_Node000014"><a xlink:title=" ">
<path fill="none" stroke="#63b8ff" d="M806.84,-230.87C794.36,-221.62 774.32,-206.78 759.34,-195.69"/>
<polygon fill="#63b8ff" stroke="#63b8ff" points="761.32,-192.81 751.2,-189.67 757.16,-198.43 761.32,-192.81"/>
</a>
</g>
</g>
<!-- Node15 -->
<g id="Node000015" class="node">
<title>Node15</title>
<g id="a_Node000015"><a xlink:title=" ">
<polygon fill="#e0e0e0" stroke="#999999" points="851.5,-189.5 785.5,-189.5 785.5,-170.5 851.5,-170.5 851.5,-189.5"/>
<text text-anchor="middle" x="818.5" y="-177.5" font-family="Helvetica,sans-Serif" font-size="10.00">GL/glext.h</text>
</a>
</g>
</g>
<!-- Node2&#45;&gt;Node15 -->
<g id="edge14_Node000002_Node000015" class="edge">
<title>Node2&#45;&gt;Node15</title>
<g id="a_edge14_Node000002_Node000015"><a xlink:title=" ">
<path fill="none" stroke="#63b8ff" d="M818.5,-230.87C818.5,-222.75 818.5,-210.31 818.5,-199.89"/>
<polygon fill="#63b8ff" stroke="#63b8ff" points="822,-199.67 818.5,-189.67 815,-199.67 822,-199.67"/>
</a>
</g>
</g>
<!-- Node16 -->
<g id="Node000016" class="node">
<title>Node16</title>
<g id="a_Node000016"><a xlink:title=" ">
<polygon fill="#e0e0e0" stroke="#999999" points="947,-189.5 870,-189.5 870,-170.5 947,-170.5 947,-189.5"/>
<text text-anchor="middle" x="908.5" y="-177.5" font-family="Helvetica,sans-Serif" font-size="10.00">cglm/cglm.h</text>
</a>
</g>
</g>
<!-- Node2&#45;&gt;Node16 -->
<g id="edge15_Node000002_Node000016" class="edge">
<title>Node2&#45;&gt;Node16</title>
<g id="a_edge15_Node000002_Node000016"><a xlink:title=" ">
<path fill="none" stroke="#63b8ff" d="M831.78,-230.87C846.14,-221.54 869.26,-206.51 886.37,-195.38"/>
<polygon fill="#63b8ff" stroke="#63b8ff" points="888.69,-198.05 895.17,-189.67 884.87,-192.18 888.69,-198.05"/>
</a>
</g>
</g>
<!-- Node17 -->
<g id="Node000017" class="node">
<title>Node17</title>
<g id="a_Node000017"><a xlink:title=" ">
<polygon fill="#e0e0e0" stroke="#999999" points="1016,-189.5 965,-189.5 965,-170.5 1016,-170.5 1016,-189.5"/>
<text text-anchor="middle" x="990.5" y="-177.5" font-family="Helvetica,sans-Serif" font-size="10.00">math.h</text>
</a>
</g>
</g>
<!-- Node2&#45;&gt;Node17 -->
<g id="edge16_Node000002_Node000017" class="edge">
<title>Node2&#45;&gt;Node17</title>
<g id="a_edge16_Node000002_Node000017"><a xlink:title=" ">
<path fill="none" stroke="#63b8ff" d="M846.76,-230.92C874.59,-222.33 918.23,-208.49 955.5,-195 957.11,-194.42 958.75,-193.81 960.41,-193.18"/>
<polygon fill="#63b8ff" stroke="#63b8ff" points="961.8,-196.4 969.86,-189.52 959.27,-189.87 961.8,-196.4"/>
</a>
</g>
</g>
<!-- Node18 -->
<g id="Node000018" class="node">
<title>Node18</title>
<g id="a_Node000018"><a xlink:href="stringio_8h.html" target="_top" xlink:title="Provides utility functions for string and file operations.">
<polygon fill="white" stroke="#666666" points="1108.5,-189.5 1034.5,-189.5 1034.5,-170.5 1108.5,-170.5 1108.5,-189.5"/>
<text text-anchor="middle" x="1071.5" y="-177.5" font-family="Helvetica,sans-Serif" font-size="10.00">io/stringio.h</text>
</a>
</g>
</g>
<!-- Node2&#45;&gt;Node18 -->
<g id="edge17_Node000002_Node000018" class="edge">
<title>Node2&#45;&gt;Node18</title>
<g id="a_edge17_Node000002_Node000018"><a xlink:title=" ">
<path fill="none" stroke="#63b8ff" d="M854.79,-232.54C896.1,-224.41 965.49,-210.14 1024.5,-195 1027.63,-194.2 1030.87,-193.32 1034.12,-192.42"/>
<polygon fill="#63b8ff" stroke="#63b8ff" points="1035.12,-195.77 1043.76,-189.65 1033.19,-189.04 1035.12,-195.77"/>
</a>
</g>
</g>
<!-- Node20 -->
<g id="Node000020" class="node">
<title>Node20</title>
<g id="a_Node000020"><a xlink:href="config_8h.html" target="_top" xlink:title=" ">
<polygon fill="white" stroke="#666666" points="1182,-189.5 1127,-189.5 1127,-170.5 1182,-170.5 1182,-189.5"/>
<text text-anchor="middle" x="1154.5" y="-177.5" font-family="Helvetica,sans-Serif" font-size="10.00">config.h</text>
</a>
</g>
</g>
<!-- Node2&#45;&gt;Node20 -->
<g id="edge19_Node000002_Node000020" class="edge">
<title>Node2&#45;&gt;Node20</title>
<g id="a_edge19_Node000002_Node000020"><a xlink:title=" ">
<path fill="none" stroke="#63b8ff" d="M854.9,-236.61C911.7,-231.54 1024.56,-219.2 1117.5,-195 1119.8,-194.4 1122.15,-193.71 1124.5,-192.96"/>
<polygon fill="#63b8ff" stroke="#63b8ff" points="1125.72,-196.24 1134.01,-189.64 1123.42,-189.63 1125.72,-196.24"/>
</a>
</g>
</g>
<!-- Node19 -->
<g id="Node000019" class="node">
<title>Node19</title>
<g id="a_Node000019"><a xlink:title=" ">
<polygon fill="#e0e0e0" stroke="#999999" points="1098,-129 1045,-129 1045,-110 1098,-110 1098,-129"/>
<text text-anchor="middle" x="1071.5" y="-117" font-family="Helvetica,sans-Serif" font-size="10.00">string.h</text>
</a>
</g>
</g>
<!-- Node18&#45;&gt;Node19 -->
<g id="edge18_Node000018_Node000019" class="edge">
<title>Node18&#45;&gt;Node19</title>
<g id="a_edge18_Node000018_Node000019"><a xlink:title=" ">
<path fill="none" stroke="#63b8ff" d="M1071.5,-170.37C1071.5,-162.25 1071.5,-149.81 1071.5,-139.39"/>
<polygon fill="#63b8ff" stroke="#63b8ff" points="1075,-139.17 1071.5,-129.17 1068,-139.17 1075,-139.17"/>
</a>
</g>
</g>
<!-- Node21 -->
<g id="Node000021" class="node">
<title>Node21</title>
<g id="a_Node000021"><a xlink:href="term_8h.html" target="_top" xlink:title=" ">
<polygon fill="white" stroke="#666666" points="1192,-129 1117,-129 1117,-110 1192,-110 1192,-129"/>
<text text-anchor="middle" x="1154.5" y="-117" font-family="Helvetica,sans-Serif" font-size="10.00">term/term.h</text>
</a>
</g>
</g>
<!-- Node20&#45;&gt;Node21 -->
<g id="edge20_Node000020_Node000021" class="edge">
<title>Node20&#45;&gt;Node21</title>
<g id="a_edge20_Node000020_Node000021"><a xlink:title=" ">
<path fill="none" stroke="#63b8ff" d="M1154.5,-170.37C1154.5,-162.25 1154.5,-149.81 1154.5,-139.39"/>
<polygon fill="#63b8ff" stroke="#63b8ff" points="1158,-139.17 1154.5,-129.17 1151,-139.17 1158,-139.17"/>
</a>
</g>
</g>
<!-- Node22 -->
<g id="Node000022" class="node">
<title>Node22</title>
<g id="a_Node000022"><a xlink:href="enhanced__print_8h.html" target="_top" xlink:title=" ">
<polygon fill="white" stroke="#666666" points="1205,-74 1104,-74 1104,-55 1205,-55 1205,-74"/>
<text text-anchor="middle" x="1154.5" y="-62" font-family="Helvetica,sans-Serif" font-size="10.00">enhanced_print.h</text>
</a>
</g>
</g>
<!-- Node21&#45;&gt;Node22 -->
<g id="edge21_Node000021_Node000022" class="edge">
<title>Node21&#45;&gt;Node22</title>
<g id="a_edge21_Node000021_Node000022"><a xlink:title=" ">
<path fill="none" stroke="#63b8ff" d="M1154.5,-109.75C1154.5,-102.8 1154.5,-92.85 1154.5,-84.13"/>
<polygon fill="#63b8ff" stroke="#63b8ff" points="1158,-84.09 1154.5,-74.09 1151,-84.09 1158,-84.09"/>
</a>
</g>
</g>
<!-- Node23 -->
<g id="Node000023" class="node">
<title>Node23</title>
<g id="a_Node000023"><a xlink:href="color_8h.html" target="_top" xlink:title=" ">
<polygon fill="white" stroke="#666666" points="1179,-19 1130,-19 1130,0 1179,0 1179,-19"/>
<text text-anchor="middle" x="1154.5" y="-7" font-family="Helvetica,sans-Serif" font-size="10.00">color.h</text>
</a>
</g>
</g>
<!-- Node22&#45;&gt;Node23 -->
<g id="edge22_Node000022_Node000023" class="edge">
<title>Node22&#45;&gt;Node23</title>
<g id="a_edge22_Node000022_Node000023"><a xlink:title=" ">
<path fill="none" stroke="#63b8ff" d="M1154.5,-54.75C1154.5,-47.8 1154.5,-37.85 1154.5,-29.13"/>
<polygon fill="#63b8ff" stroke="#63b8ff" points="1158,-29.09 1154.5,-19.09 1151,-29.09 1158,-29.09"/>
</a>
</g>
</g>
<!-- Node24&#45;&gt;Node2 -->
<g id="edge26_Node000024_Node000002" class="edge">
<title>Node24&#45;&gt;Node2</title>
<g id="a_edge26_Node000024_Node000002"><a xlink:title=" ">
<path fill="none" stroke="#63b8ff" d="M903.51,-340.96C880.69,-334.6 854.71,-323.67 837.5,-305 826.29,-292.84 821.68,-274.31 819.79,-260.4"/>
<polygon fill="#63b8ff" stroke="#63b8ff" points="823.23,-259.65 818.76,-250.05 816.27,-260.35 823.23,-259.65"/>
</a>
</g>
</g>
<!-- Node25 -->
<g id="Node000025" class="node">
<title>Node25</title>
<g id="a_Node000025"><a xlink:href="classes__types_8h.html" target="_top" xlink:title=" ">
<polygon fill="white" stroke="#666666" points="940.5,-305 846.5,-305 846.5,-286 940.5,-286 940.5,-305"/>
<text text-anchor="middle" x="893.5" y="-293" font-family="Helvetica,sans-Serif" font-size="10.00">classes_types.h</text>
</a>
</g>
</g>
<!-- Node24&#45;&gt;Node25 -->
<g id="edge24_Node000024_Node000025" class="edge">
<title>Node24&#45;&gt;Node25</title>
<g id="a_edge24_Node000024_Node000025"><a xlink:title=" ">
<path fill="none" stroke="#63b8ff" d="M942.18,-340.98C933.69,-333.23 920.94,-321.58 910.62,-312.14"/>
<polygon fill="#63b8ff" stroke="#63b8ff" points="912.73,-309.33 902.99,-305.17 908.01,-314.5 912.73,-309.33"/>
</a>
</g>
</g>
<!-- Node26 -->
<g id="Node000026" class="node">
<title>Node26</title>
<g id="a_Node000026"><a xlink:title=" ">
<polygon fill="#e0e0e0" stroke="#999999" points="1058,-305 959,-305 959,-286 1058,-286 1058,-305"/>
<text text-anchor="middle" x="1008.5" y="-293" font-family="Helvetica,sans-Serif" font-size="10.00">import_classes.h</text>
</a>
</g>
</g>
<!-- Node24&#45;&gt;Node26 -->
<g id="edge25_Node000024_Node000026" class="edge">
<title>Node24&#45;&gt;Node26</title>
<g id="a_edge25_Node000024_Node000026"><a xlink:title=" ">
<path fill="none" stroke="#63b8ff" d="M960.66,-340.98C969,-333.23 981.53,-321.58 991.68,-312.14"/>
<polygon fill="#63b8ff" stroke="#63b8ff" points="994.24,-314.54 999.18,-305.17 989.47,-309.42 994.24,-314.54"/>
</a>
</g>
</g>
<!-- Node28&#45;&gt;Node29 -->
<g id="edge29_Node000028_Node000029" class="edge">
<title>Node28&#45;&gt;Node29</title>
<g id="a_edge29_Node000028_Node000029"><a xlink:title=" ">
<path fill="none" stroke="#63b8ff" d="M1704.83,-230.99C1679.56,-221.07 1637.59,-204.59 1608.78,-193.28"/>
<polygon fill="#63b8ff" stroke="#63b8ff" points="1609.78,-189.91 1599.19,-189.52 1607.22,-196.43 1609.78,-189.91"/>
</a>
</g>
</g>
<!-- Node30 -->
<g id="Node000030" class="node">
<title>Node30</title>
<g id="a_Node000030"><a xlink:href="model__loader_8h.html" target="_top" xlink:title=" ">
<polygon fill="white" stroke="#666666" points="1787.5,-195 1665.5,-195 1665.5,-165 1787.5,-165 1787.5,-195"/>
<text text-anchor="start" x="1673.5" y="-183" font-family="Helvetica,sans-Serif" font-size="10.00">model_loaders/model</text>
<text text-anchor="middle" x="1726.5" y="-172" font-family="Helvetica,sans-Serif" font-size="10.00">_loader.h</text>
</a>
</g>
</g>
<!-- Node28&#45;&gt;Node30 -->
<g id="edge30_Node000028_Node000030" class="edge">
<title>Node28&#45;&gt;Node30</title>
<g id="a_edge30_Node000028_Node000030"><a xlink:title=" ">
<path fill="none" stroke="#63b8ff" d="M1726.5,-230.87C1726.5,-224.11 1726.5,-214.35 1726.5,-205.26"/>
<polygon fill="#63b8ff" stroke="#63b8ff" points="1730,-205.11 1726.5,-195.11 1723,-205.11 1730,-205.11"/>
</a>
</g>
</g>
<!-- Node31 -->
<g id="Node000031" class="node">
<title>Node31</title>
<g id="a_Node000031"><a xlink:href="obj__loader_8h.html" target="_top" xlink:title=" ">
<polygon fill="white" stroke="#666666" points="1859.5,-129 1783.5,-129 1783.5,-110 1859.5,-110 1859.5,-129"/>
<text text-anchor="middle" x="1821.5" y="-117" font-family="Helvetica,sans-Serif" font-size="10.00">obj_loader.h</text>
</a>
</g>
</g>
<!-- Node30&#45;&gt;Node31 -->
<g id="edge31_Node000030_Node000031" class="edge">
<title>Node30&#45;&gt;Node31</title>
<g id="a_edge31_Node000030_Node000031"><a xlink:title=" ">
<path fill="none" stroke="#63b8ff" d="M1749.5,-164.84C1764.5,-155.6 1784,-143.59 1798.93,-134.4"/>
<polygon fill="#63b8ff" stroke="#63b8ff" points="1800.86,-137.32 1807.54,-129.09 1797.19,-131.36 1800.86,-137.32"/>
</a>
</g>
</g>
<!-- Node32 -->
<g id="Node000032" class="node">
<title>Node32</title>
<g id="a_Node000032"><a xlink:href="mtl__loader_8h.html" target="_top" xlink:title=" ">
<polygon fill="white" stroke="#666666" points="1670,-129 1593,-129 1593,-110 1670,-110 1670,-129"/>
<text text-anchor="middle" x="1631.5" y="-117" font-family="Helvetica,sans-Serif" font-size="10.00">mtl_loader.h</text>
</a>
</g>
</g>
<!-- Node30&#45;&gt;Node32 -->
<g id="edge32_Node000030_Node000032" class="edge">
<title>Node30&#45;&gt;Node32</title>
<g id="a_edge32_Node000030_Node000032"><a xlink:title=" ">
<path fill="none" stroke="#63b8ff" d="M1703.5,-164.84C1688.5,-155.6 1669,-143.59 1654.07,-134.4"/>
<polygon fill="#63b8ff" stroke="#63b8ff" points="1655.81,-131.36 1645.46,-129.09 1652.14,-137.32 1655.81,-131.36"/>
</a>
</g>
</g>
<!-- Node33 -->
<g id="Node000033" class="node">
<title>Node33</title>
<g id="a_Node000033"><a xlink:href="fbx__loader_8h.html" target="_top" xlink:title=" ">
<polygon fill="white" stroke="#666666" points="1765,-129 1688,-129 1688,-110 1765,-110 1765,-129"/>
<text text-anchor="middle" x="1726.5" y="-117" font-family="Helvetica,sans-Serif" font-size="10.00">fbx_loader.h</text>
</a>
</g>
</g>
<!-- Node30&#45;&gt;Node33 -->
<g id="edge33_Node000030_Node000033" class="edge">
<title>Node30&#45;&gt;Node33</title>
<g id="a_edge33_Node000030_Node000033"><a xlink:title=" ">
<path fill="none" stroke="#63b8ff" d="M1726.5,-164.84C1726.5,-157.21 1726.5,-147.7 1726.5,-139.45"/>
<polygon fill="#63b8ff" stroke="#63b8ff" points="1730,-139.27 1726.5,-129.27 1723,-139.27 1730,-139.27"/>
</a>
</g>
</g>
<!-- Node34&#45;&gt;Node29 -->
<g id="edge35_Node000034_Node000029" class="edge">
<title>Node34&#45;&gt;Node29</title>
<g id="a_edge35_Node000034_Node000029"><a xlink:title=" ">
<path fill="none" stroke="#63b8ff" d="M1325.98,-348.7C1257.99,-346.42 1133.22,-337.77 1105.5,-305 1100.05,-298.55 1102.42,-293.86 1105.5,-286 1117.67,-254.97 1126.72,-245.98 1156.5,-231 1287.91,-164.9 1339.65,-214.07 1485.5,-195 1502.71,-192.75 1521.69,-189.92 1537.91,-187.4"/>
<polygon fill="#63b8ff" stroke="#63b8ff" points="1538.79,-190.8 1548.13,-185.79 1537.71,-183.89 1538.79,-190.8"/>
</a>
</g>
</g>
<!-- Node35 -->
<g id="Node000035" class="node">
<title>Node35</title>
<g id="a_Node000035"><a xlink:href="camera_8h.html" target="_top" xlink:title=" ">
<polygon fill="white" stroke="#666666" points="1484.5,-305 1378.5,-305 1378.5,-286 1484.5,-286 1484.5,-305"/>
<text text-anchor="middle" x="1431.5" y="-293" font-family="Helvetica,sans-Serif" font-size="10.00">../render/camera.h</text>
</a>
</g>
</g>
<!-- Node34&#45;&gt;Node35 -->
<g id="edge36_Node000034_Node000035" class="edge">
<title>Node34&#45;&gt;Node35</title>
<g id="a_edge36_Node000034_Node000035"><a xlink:title=" ">
<path fill="none" stroke="#63b8ff" d="M1380.3,-340.98C1389.32,-333.15 1402.91,-321.34 1413.82,-311.86"/>
<polygon fill="#63b8ff" stroke="#63b8ff" points="1416.27,-314.37 1421.52,-305.17 1411.68,-309.09 1416.27,-314.37"/>
</a>
</g>
</g>
<!-- Node36 -->
<g id="Node000036" class="node">
<title>Node36</title>
<g id="a_Node000036"><a xlink:href="bodies_8h.html" target="_top" xlink:title=" ">
<polygon fill="white" stroke="#666666" points="1610,-305 1503,-305 1503,-286 1610,-286 1610,-305"/>
<text text-anchor="middle" x="1556.5" y="-293" font-family="Helvetica,sans-Serif" font-size="10.00">../physics/bodies.h</text>
</a>
</g>
</g>
<!-- Node34&#45;&gt;Node36 -->
<g id="edge40_Node000034_Node000036" class="edge">
<title>Node34&#45;&gt;Node36</title>
<g id="a_edge40_Node000034_Node000036"><a xlink:title=" ">
<path fill="none" stroke="#63b8ff" d="M1400.38,-340.98C1431.88,-332.01 1481.67,-317.82 1516.53,-307.89"/>
<polygon fill="#63b8ff" stroke="#63b8ff" points="1517.72,-311.19 1526.38,-305.08 1515.81,-304.46 1517.72,-311.19"/>
</a>
</g>
</g>
<!-- Node37 -->
<g id="Node000037" class="node">
<title>Node37</title>
<g id="a_Node000037"><a xlink:href="scripts_8h.html" target="_top" xlink:title=" ">
<polygon fill="white" stroke="#666666" points="1360.5,-305 1258.5,-305 1258.5,-286 1360.5,-286 1360.5,-305"/>
<text text-anchor="middle" x="1309.5" y="-293" font-family="Helvetica,sans-Serif" font-size="10.00">../scripts/scripts.h</text>
</a>
</g>
</g>
<!-- Node34&#45;&gt;Node37 -->
<g id="edge43_Node000034_Node000037" class="edge">
<title>Node34&#45;&gt;Node37</title>
<g id="a_edge43_Node000034_Node000037"><a xlink:title=" ">
<path fill="none" stroke="#63b8ff" d="M1360.7,-340.98C1351.68,-333.15 1338.09,-321.34 1327.18,-311.86"/>
<polygon fill="#63b8ff" stroke="#63b8ff" points="1329.32,-309.09 1319.48,-305.17 1324.73,-314.37 1329.32,-309.09"/>
</a>
</g>
</g>
<!-- Node40 -->
<g id="Node000040" class="node">
<title>Node40</title>
<g id="a_Node000040"><a xlink:href="framebuffer_8h.html" target="_top" xlink:title=" ">
<polygon fill="white" stroke="#666666" points="1240.5,-305 1114.5,-305 1114.5,-286 1240.5,-286 1240.5,-305"/>
<text text-anchor="middle" x="1177.5" y="-293" font-family="Helvetica,sans-Serif" font-size="10.00">../render/framebuffer.h</text>
</a>
</g>
</g>
<!-- Node34&#45;&gt;Node40 -->
<g id="edge46_Node000034_Node000040" class="edge">
<title>Node34&#45;&gt;Node40</title>
<g id="a_edge46_Node000034_Node000040"><a xlink:title=" ">
<path fill="none" stroke="#63b8ff" d="M1339.49,-340.98C1306.67,-331.97 1254.7,-317.7 1218.51,-307.76"/>
<polygon fill="#63b8ff" stroke="#63b8ff" points="1219.32,-304.36 1208.75,-305.08 1217.47,-311.11 1219.32,-304.36"/>
</a>
</g>
</g>
<!-- Node35&#45;&gt;Node2 -->
<g id="edge37_Node000035_Node000002" class="edge">
<title>Node35&#45;&gt;Node2</title>
<g id="a_edge37_Node000035_Node000002"><a xlink:title=" ">
<path fill="none" stroke="#63b8ff" d="M1378.42,-287.03C1375.41,-286.66 1372.42,-286.32 1369.5,-286 1182.82,-265.68 959.62,-250.43 864.78,-244.36"/>
<polygon fill="#63b8ff" stroke="#63b8ff" points="864.87,-240.86 854.67,-243.72 864.43,-247.85 864.87,-240.86"/>
</a>
</g>
</g>
<!-- Node35&#45;&gt;Node27 -->
<g id="edge38_Node000035_Node000027" class="edge">
<title>Node35&#45;&gt;Node27</title>
<g id="a_edge38_Node000035_Node000027"><a xlink:title=" ">
<path fill="none" stroke="#63b8ff" d="M1451.58,-285.98C1471.87,-277.38 1503.46,-263.99 1526.67,-254.15"/>
<polygon fill="#63b8ff" stroke="#63b8ff" points="1528.21,-257.3 1536.05,-250.17 1525.48,-250.85 1528.21,-257.3"/>
</a>
</g>
</g>
<!-- Node35&#45;&gt;Node29 -->
<g id="edge39_Node000035_Node000029" class="edge">
<title>Node35&#45;&gt;Node29</title>
<g id="a_edge39_Node000035_Node000029"><a xlink:title=" ">
<path fill="none" stroke="#63b8ff" d="M1439.37,-285.66C1451.08,-272.78 1474.13,-248.49 1496.5,-231 1514.13,-217.22 1535.78,-204.03 1552.25,-194.66"/>
<polygon fill="#63b8ff" stroke="#63b8ff" points="1554.27,-197.54 1561.29,-189.61 1550.85,-191.43 1554.27,-197.54"/>
</a>
</g>
</g>
<!-- Node36&#45;&gt;Node27 -->
<g id="edge41_Node000036_Node000027" class="edge">
<title>Node36&#45;&gt;Node27</title>
<g id="a_edge41_Node000036_Node000027"><a xlink:title=" ">
<path fill="none" stroke="#63b8ff" d="M1556.5,-285.75C1556.5,-278.8 1556.5,-268.85 1556.5,-260.13"/>
<polygon fill="#63b8ff" stroke="#63b8ff" points="1560,-260.09 1556.5,-250.09 1553,-260.09 1560,-260.09"/>
</a>
</g>
</g>
<!-- Node36&#45;&gt;Node28 -->
<g id="edge42_Node000036_Node000028" class="edge">
<title>Node36&#45;&gt;Node28</title>
<g id="a_edge42_Node000036_Node000028"><a xlink:title=" ">
<path fill="none" stroke="#63b8ff" d="M1583.81,-285.98C1612.35,-277.09 1657.33,-263.07 1689.14,-253.15"/>
<polygon fill="#63b8ff" stroke="#63b8ff" points="1690.47,-256.4 1698.97,-250.08 1688.38,-249.72 1690.47,-256.4"/>
</a>
</g>
</g>
<!-- Node38 -->
<g id="Node000038" class="node">
<title>Node38</title>
<g id="a_Node000038"><a xlink:href="input_8h.html" target="_top" xlink:title=" ">
<polygon fill="white" stroke="#666666" points="1237,-250 1166,-250 1166,-231 1237,-231 1237,-250"/>
<text text-anchor="middle" x="1201.5" y="-238" font-family="Helvetica,sans-Serif" font-size="10.00">../io/input.h</text>
</a>
</g>
</g>
<!-- Node37&#45;&gt;Node38 -->
<g id="edge44_Node000037_Node000038" class="edge">
<title>Node37&#45;&gt;Node38</title>
<g id="a_edge44_Node000037_Node000038"><a xlink:title=" ">
<path fill="none" stroke="#63b8ff" d="M1292.15,-285.98C1274.93,-277.54 1248.3,-264.47 1228.35,-254.68"/>
<polygon fill="#63b8ff" stroke="#63b8ff" points="1229.69,-251.43 1219.17,-250.17 1226.6,-257.72 1229.69,-251.43"/>
</a>
</g>
</g>
<!-- Node39 -->
<g id="Node000039" class="node">
<title>Node39</title>
<g id="a_Node000039"><a xlink:href="signals_8h.html" target="_top" xlink:title="Signal and slot system for C projects.">
<polygon fill="white" stroke="#666666" points="1339.5,-250 1279.5,-250 1279.5,-231 1339.5,-231 1339.5,-250"/>
<text text-anchor="middle" x="1309.5" y="-238" font-family="Helvetica,sans-Serif" font-size="10.00">signals.h</text>
</a>
</g>
</g>
<!-- Node37&#45;&gt;Node39 -->
<g id="edge45_Node000037_Node000039" class="edge">
<title>Node37&#45;&gt;Node39</title>
<g id="a_edge45_Node000037_Node000039"><a xlink:title=" ">
<path fill="none" stroke="#63b8ff" d="M1309.5,-285.75C1309.5,-278.8 1309.5,-268.85 1309.5,-260.13"/>
<polygon fill="#63b8ff" stroke="#63b8ff" points="1313,-260.09 1309.5,-250.09 1306,-260.09 1313,-260.09"/>
</a>
</g>
</g>
<!-- Node40&#45;&gt;Node38 -->
<g id="edge47_Node000040_Node000038" class="edge">
<title>Node40&#45;&gt;Node38</title>
<g id="a_edge47_Node000040_Node000038"><a xlink:title=" ">
<path fill="none" stroke="#63b8ff" d="M1181.46,-285.75C1184.71,-278.57 1189.42,-268.18 1193.45,-259.27"/>
<polygon fill="#63b8ff" stroke="#63b8ff" points="1196.67,-260.64 1197.61,-250.09 1190.3,-257.75 1196.67,-260.64"/>
</a>
</g>
</g>
</g>
</svg>
