<?xml version="1.0" encoding="UTF-8" standalone="no"?>
<!DOCTYPE svg PUBLIC "-//W3C//DTD SVG 1.1//EN"
 "http://www.w3.org/Graphics/SVG/1.1/DTD/svg11.dtd">
<!-- Generated by graphviz version 2.43.0 (0)
 -->
<!-- Title: src/render/depth_map.h Pages: 1 -->
<svg width="1965pt" height="93pt"
 viewBox="0.00 0.00 1964.50 93.00" xmlns="http://www.w3.org/2000/svg" xmlns:xlink="http://www.w3.org/1999/xlink">
<g id="graph0" class="graph" transform="scale(1 1) rotate(0) translate(4 89)">
<title>src/render/depth_map.h</title>
<!-- Node1 -->
<g id="Node000001" class="node">
<title>Node1</title>
<g id="a_Node000001"><a xlink:title=" ">
<polygon fill="#999999" stroke="#666666" points="1083,-85 951,-85 951,-66 1083,-66 1083,-85"/>
<text text-anchor="middle" x="1017" y="-73" font-family="Helvetica,sans-Serif" font-size="10.00">src/render/depth_map.h</text>
</a>
</g>
</g>
<!-- Node2 -->
<g id="Node000002" class="node">
<title>Node2</title>
<g id="a_Node000002"><a xlink:href="directional__light_8class_8c.html" target="_top" xlink:title="This file contains the implementation of the directional light class.">
<polygon fill="white" stroke="#666666" points="134,-30 0,-30 0,0 134,0 134,-30"/>
<text text-anchor="start" x="8" y="-18" font-family="Helvetica,sans-Serif" font-size="10.00">src/classes/nodes/lights</text>
<text text-anchor="middle" x="67" y="-7" font-family="Helvetica,sans-Serif" font-size="10.00">/directional_light.class.c</text>
</a>
</g>
</g>
<!-- Node1&#45;&gt;Node2 -->
<g id="edge1_Node000001_Node000002" class="edge">
<title>Node1&#45;&gt;Node2</title>
<g id="a_edge1_Node000001_Node000002"><a xlink:title=" ">
<path fill="none" stroke="#63b8ff" d="M940.8,-73.98C788.64,-72.2 436.55,-64.36 143,-30 140.07,-29.66 137.08,-29.27 134.06,-28.85"/>
<polygon fill="#63b8ff" stroke="#63b8ff" points="940.93,-77.48 950.97,-74.09 941.01,-70.48 940.93,-77.48"/>
</a>
</g>
</g>
<!-- Node3 -->
<g id="Node000003" class="node">
<title>Node3</title>
<g id="a_Node000003"><a xlink:href="light_8class_8c.html" target="_top" xlink:title="This file contains the implementation of the light class for the project.">
<polygon fill="white" stroke="#666666" points="284,-30 152,-30 152,0 284,0 284,-30"/>
<text text-anchor="start" x="160" y="-18" font-family="Helvetica,sans-Serif" font-size="10.00">src/classes/nodes/lights</text>
<text text-anchor="middle" x="218" y="-7" font-family="Helvetica,sans-Serif" font-size="10.00">/light.class.c</text>
</a>
</g>
</g>
<!-- Node1&#45;&gt;Node3 -->
<g id="edge2_Node000001_Node000003" class="edge">
<title>Node1&#45;&gt;Node3</title>
<g id="a_edge2_Node000001_Node000003"><a xlink:title=" ">
<path fill="none" stroke="#63b8ff" d="M940.83,-72.9C808.58,-69.44 528.09,-59.05 293,-30 290.11,-29.64 287.16,-29.24 284.18,-28.81"/>
<polygon fill="#63b8ff" stroke="#63b8ff" points="940.78,-76.4 950.87,-73.16 940.96,-69.4 940.78,-76.4"/>
</a>
</g>
</g>
<!-- Node4 -->
<g id="Node000004" class="node">
<title>Node4</title>
<g id="a_Node000004"><a xlink:href="point__light_8class_8c.html" target="_top" xlink:title="This file contains the implementation of the PointLight class.">
<polygon fill="white" stroke="#666666" points="434,-30 302,-30 302,0 434,0 434,-30"/>
<text text-anchor="start" x="310" y="-18" font-family="Helvetica,sans-Serif" font-size="10.00">src/classes/nodes/lights</text>
<text text-anchor="middle" x="368" y="-7" font-family="Helvetica,sans-Serif" font-size="10.00">/point_light.class.c</text>
</a>
</g>
</g>
<!-- Node1&#45;&gt;Node4 -->
<g id="edge3_Node000001_Node000004" class="edge">
<title>Node1&#45;&gt;Node4</title>
<g id="a_edge3_Node000001_Node000004"><a xlink:title=" ">
<path fill="none" stroke="#63b8ff" d="M940.88,-71.2C830.71,-65.83 620.54,-53.38 443,-30 440.11,-29.62 437.16,-29.2 434.19,-28.75"/>
<polygon fill="#63b8ff" stroke="#63b8ff" points="940.75,-74.7 950.91,-71.68 941.09,-67.7 940.75,-74.7"/>
</a>
</g>
</g>
<!-- Node5 -->
<g id="Node000005" class="node">
<title>Node5</title>
<g id="a_Node000005"><a xlink:href="spot__light_8class_8c.html" target="_top" xlink:title="This file contains the implementation of the SpotLight class.">
<polygon fill="white" stroke="#666666" points="584,-30 452,-30 452,0 584,0 584,-30"/>
<text text-anchor="start" x="460" y="-18" font-family="Helvetica,sans-Serif" font-size="10.00">src/classes/nodes/lights</text>
<text text-anchor="middle" x="518" y="-7" font-family="Helvetica,sans-Serif" font-size="10.00">/spot_light.class.c</text>
</a>
</g>
</g>
<!-- Node1&#45;&gt;Node5 -->
<g id="edge4_Node000001_Node000005" class="edge">
<title>Node1&#45;&gt;Node5</title>
<g id="a_edge4_Node000001_Node000005"><a xlink:title=" ">
<path fill="none" stroke="#63b8ff" d="M940.61,-68.33C855.54,-61.04 714.06,-47.62 593,-30 590.12,-29.58 587.17,-29.13 584.21,-28.66"/>
<polygon fill="#63b8ff" stroke="#63b8ff" points="940.44,-71.83 950.7,-69.19 941.03,-64.86 940.44,-71.83"/>
</a>
</g>
</g>
<!-- Node6 -->
<g id="Node000006" class="node">
<title>Node6</title>
<g id="a_Node000006"><a xlink:href="node__loader_8c.html" target="_top" xlink:title=" ">
<polygon fill="white" stroke="#666666" points="715.5,-24.5 602.5,-24.5 602.5,-5.5 715.5,-5.5 715.5,-24.5"/>
<text text-anchor="middle" x="659" y="-12.5" font-family="Helvetica,sans-Serif" font-size="10.00">src/io/node_loader.c</text>
</a>
</g>
</g>
<!-- Node1&#45;&gt;Node6 -->
<g id="edge5_Node000001_Node000006" class="edge">
<title>Node1&#45;&gt;Node6</title>
<g id="a_edge5_Node000001_Node000006"><a xlink:title=" ">
<path fill="none" stroke="#63b8ff" d="M944.17,-64.59C884.98,-56.25 799.4,-43.55 725,-30 716.01,-28.36 706.37,-26.42 697.32,-24.52"/>
<polygon fill="#63b8ff" stroke="#63b8ff" points="943.78,-68.07 954.17,-65.99 944.75,-61.14 943.78,-68.07"/>
</a>
</g>
</g>
<!-- Node7 -->
<g id="Node000007" class="node">
<title>Node7</title>
<g id="a_Node000007"><a xlink:href="scene__loader_8c.html" target="_top" xlink:title=" ">
<polygon fill="white" stroke="#666666" points="852,-24.5 734,-24.5 734,-5.5 852,-5.5 852,-24.5"/>
<text text-anchor="middle" x="793" y="-12.5" font-family="Helvetica,sans-Serif" font-size="10.00">src/io/scene_loader.c</text>
</a>
</g>
</g>
<!-- Node1&#45;&gt;Node7 -->
<g id="edge6_Node000001_Node000007" class="edge">
<title>Node1&#45;&gt;Node7</title>
<g id="a_edge6_Node000001_Node000007"><a xlink:title=" ">
<path fill="none" stroke="#63b8ff" d="M974.48,-63.4C931.17,-52.08 864.95,-34.79 825.61,-24.52"/>
<polygon fill="#63b8ff" stroke="#63b8ff" points="973.87,-66.85 984.43,-65.99 975.64,-60.08 973.87,-66.85"/>
</a>
</g>
</g>
<!-- Node8 -->
<g id="Node000008" class="node">
<title>Node8</title>
<g id="a_Node000008"><a xlink:href="main_8c.html" target="_top" xlink:title=" ">
<polygon fill="white" stroke="#666666" points="937.5,-24.5 870.5,-24.5 870.5,-5.5 937.5,-5.5 937.5,-24.5"/>
<text text-anchor="middle" x="904" y="-12.5" font-family="Helvetica,sans-Serif" font-size="10.00">src/main.c</text>
</a>
</g>
</g>
<!-- Node1&#45;&gt;Node8 -->
<g id="edge7_Node000001_Node000008" class="edge">
<title>Node1&#45;&gt;Node8</title>
<g id="a_edge7_Node000001_Node000008"><a xlink:title=" ">
<path fill="none" stroke="#63b8ff" d="M991.36,-61.23C969.72,-50.03 939.38,-34.32 920.74,-24.67"/>
<polygon fill="#63b8ff" stroke="#63b8ff" points="989.84,-64.38 1000.33,-65.87 993.06,-58.16 989.84,-64.38"/>
</a>
</g>
</g>
<!-- Node9 -->
<g id="Node000009" class="node">
<title>Node9</title>
<g id="a_Node000009"><a xlink:href="collision_8c.html" target="_top" xlink:title=" ">
<polygon fill="white" stroke="#666666" points="1078,-24.5 956,-24.5 956,-5.5 1078,-5.5 1078,-24.5"/>
<text text-anchor="middle" x="1017" y="-12.5" font-family="Helvetica,sans-Serif" font-size="10.00">src/physics/collision.c</text>
</a>
</g>
</g>
<!-- Node1&#45;&gt;Node9 -->
<g id="edge8_Node000001_Node000009" class="edge">
<title>Node1&#45;&gt;Node9</title>
<g id="a_edge8_Node000001_Node000009"><a xlink:title=" ">
<path fill="none" stroke="#63b8ff" d="M1017,-55.66C1017,-45.24 1017,-32.8 1017,-24.67"/>
<polygon fill="#63b8ff" stroke="#63b8ff" points="1013.5,-55.87 1017,-65.87 1020.5,-55.87 1013.5,-55.87"/>
</a>
</g>
</g>
<!-- Node10 -->
<g id="Node000010" class="node">
<title>Node10</title>
<g id="a_Node000010"><a xlink:href="collision__util_8c.html" target="_top" xlink:title=" ">
<polygon fill="white" stroke="#666666" points="1210,-30 1096,-30 1096,0 1210,0 1210,-30"/>
<text text-anchor="start" x="1104" y="-18" font-family="Helvetica,sans-Serif" font-size="10.00">src/physics/collision</text>
<text text-anchor="middle" x="1153" y="-7" font-family="Helvetica,sans-Serif" font-size="10.00">_util.c</text>
</a>
</g>
</g>
<!-- Node1&#45;&gt;Node10 -->
<g id="edge9_Node000001_Node000010" class="edge">
<title>Node1&#45;&gt;Node10</title>
<g id="a_edge9_Node000001_Node000010"><a xlink:title=" ">
<path fill="none" stroke="#63b8ff" d="M1046.17,-61.95C1067.94,-52.59 1097.72,-39.78 1120.3,-30.06"/>
<polygon fill="#63b8ff" stroke="#63b8ff" points="1044.58,-58.83 1036.78,-65.99 1047.34,-65.26 1044.58,-58.83"/>
</a>
</g>
</g>
<!-- Node11 -->
<g id="Node000011" class="node">
<title>Node11</title>
<g id="a_Node000011"><a xlink:href="physics_8c.html" target="_top" xlink:title=" ">
<polygon fill="white" stroke="#666666" points="1347.5,-24.5 1228.5,-24.5 1228.5,-5.5 1347.5,-5.5 1347.5,-24.5"/>
<text text-anchor="middle" x="1288" y="-12.5" font-family="Helvetica,sans-Serif" font-size="10.00">src/physics/physics.c</text>
</a>
</g>
</g>
<!-- Node1&#45;&gt;Node11 -->
<g id="edge10_Node000001_Node000011" class="edge">
<title>Node1&#45;&gt;Node11</title>
<g id="a_edge10_Node000001_Node000011"><a xlink:title=" ">
<path fill="none" stroke="#63b8ff" d="M1066.47,-63.82C1118.81,-52.52 1200.36,-34.92 1248.55,-24.52"/>
<polygon fill="#63b8ff" stroke="#63b8ff" points="1065.44,-60.46 1056.41,-65.99 1066.92,-67.3 1065.44,-60.46"/>
</a>
</g>
</g>
<!-- Node12 -->
<g id="Node000012" class="node">
<title>Node12</title>
<g id="a_Node000012"><a xlink:href="raptiquax_8c.html" target="_top" xlink:title=" ">
<polygon fill="white" stroke="#666666" points="1454.5,-24.5 1365.5,-24.5 1365.5,-5.5 1454.5,-5.5 1454.5,-24.5"/>
<text text-anchor="middle" x="1410" y="-12.5" font-family="Helvetica,sans-Serif" font-size="10.00">src/raptiquax.c</text>
</a>
</g>
</g>
<!-- Node1&#45;&gt;Node12 -->
<g id="edge11_Node000001_Node000012" class="edge">
<title>Node1&#45;&gt;Node12</title>
<g id="a_edge11_Node000001_Node000012"><a xlink:title=" ">
<path fill="none" stroke="#63b8ff" d="M1093.59,-67.31C1162.8,-60.14 1267.27,-47.65 1357,-30 1364.66,-28.49 1372.85,-26.52 1380.44,-24.52"/>
<polygon fill="#63b8ff" stroke="#63b8ff" points="1092.81,-63.87 1083.22,-68.37 1093.53,-70.83 1092.81,-63.87"/>
</a>
</g>
</g>
<!-- Node13 -->
<g id="Node000013" class="node">
<title>Node13</title>
<g id="a_Node000013"><a xlink:href="depth__map_8c.html" target="_top" xlink:title=" ">
<polygon fill="white" stroke="#666666" points="1603.5,-24.5 1472.5,-24.5 1472.5,-5.5 1603.5,-5.5 1603.5,-24.5"/>
<text text-anchor="middle" x="1538" y="-12.5" font-family="Helvetica,sans-Serif" font-size="10.00">src/render/depth_map.c</text>
</a>
</g>
</g>
<!-- Node1&#45;&gt;Node13 -->
<g id="edge12_Node000001_Node000013" class="edge">
<title>Node1&#45;&gt;Node13</title>
<g id="a_edge12_Node000001_Node000013"><a xlink:title=" ">
<path fill="none" stroke="#63b8ff" d="M1093.14,-68.97C1182.29,-62.01 1334.3,-48.69 1464,-30 1474.48,-28.49 1485.74,-26.53 1496.23,-24.56"/>
<polygon fill="#63b8ff" stroke="#63b8ff" points="1092.81,-65.48 1083.11,-69.74 1093.35,-72.46 1092.81,-65.48"/>
</a>
</g>
</g>
<!-- Node14 -->
<g id="Node000014" class="node">
<title>Node14</title>
<g id="a_Node000014"><a xlink:href="lighting_8c.html" target="_top" xlink:title=" ">
<polygon fill="white" stroke="#666666" points="1734.5,-24.5 1621.5,-24.5 1621.5,-5.5 1734.5,-5.5 1734.5,-24.5"/>
<text text-anchor="middle" x="1678" y="-12.5" font-family="Helvetica,sans-Serif" font-size="10.00">src/render/lighting.c</text>
</a>
</g>
</g>
<!-- Node1&#45;&gt;Node14 -->
<g id="edge13_Node000001_Node000014" class="edge">
<title>Node1&#45;&gt;Node14</title>
<g id="a_edge13_Node000001_Node000014"><a xlink:title=" ">
<path fill="none" stroke="#63b8ff" d="M1093.36,-72.16C1207.1,-67.92 1427.52,-56.77 1613,-30 1622.71,-28.6 1633.14,-26.58 1642.74,-24.52"/>
<polygon fill="#63b8ff" stroke="#63b8ff" points="1092.89,-68.67 1083.03,-72.54 1093.15,-75.67 1092.89,-68.67"/>
</a>
</g>
</g>
<!-- Node15 -->
<g id="Node000015" class="node">
<title>Node15</title>
<g id="a_Node000015"><a xlink:href="render_8c.html" target="_top" xlink:title=" ">
<polygon fill="white" stroke="#666666" points="1859.5,-24.5 1752.5,-24.5 1752.5,-5.5 1859.5,-5.5 1859.5,-24.5"/>
<text text-anchor="middle" x="1806" y="-12.5" font-family="Helvetica,sans-Serif" font-size="10.00">src/render/render.c</text>
</a>
</g>
</g>
<!-- Node1&#45;&gt;Node15 -->
<g id="edge14_Node000001_Node000015" class="edge">
<title>Node1&#45;&gt;Node15</title>
<g id="a_edge14_Node000001_Node000015"><a xlink:title=" ">
<path fill="none" stroke="#63b8ff" d="M1093.09,-73.86C1225.87,-71.85 1508.22,-63.61 1744,-30 1753.4,-28.66 1763.47,-26.64 1772.72,-24.55"/>
<polygon fill="#63b8ff" stroke="#63b8ff" points="1092.97,-70.36 1083.02,-74.01 1093.07,-77.36 1092.97,-70.36"/>
</a>
</g>
</g>
<!-- Node16 -->
<g id="Node000016" class="node">
<title>Node16</title>
<g id="a_Node000016"><a xlink:href="window_8c.html" target="_top" xlink:title=" ">
<polygon fill="white" stroke="#666666" points="1956.5,-24.5 1877.5,-24.5 1877.5,-5.5 1956.5,-5.5 1956.5,-24.5"/>
<text text-anchor="middle" x="1917" y="-12.5" font-family="Helvetica,sans-Serif" font-size="10.00">src/window.c</text>
</a>
</g>
</g>
<!-- Node1&#45;&gt;Node16 -->
<g id="edge15_Node000001_Node000016" class="edge">
<title>Node1&#45;&gt;Node16</title>
<g id="a_edge15_Node000001_Node000016"><a xlink:title=" ">
<path fill="none" stroke="#63b8ff" d="M1093.2,-72.78C1273.26,-68.35 1721,-55.1 1869,-30 1876.53,-28.72 1884.56,-26.67 1891.85,-24.52"/>
<polygon fill="#63b8ff" stroke="#63b8ff" points="1092.93,-69.29 1083.02,-73.03 1093.1,-76.28 1092.93,-69.29"/>
</a>
</g>
</g>
</g>
</svg>
