<?xml version="1.0" encoding="UTF-8" standalone="no"?>
<!DOCTYPE svg PUBLIC "-//W3C//DTD SVG 1.1//EN"
 "http://www.w3.org/Graphics/SVG/1.1/DTD/svg11.dtd">
<!-- Generated by graphviz version 2.43.0 (0)
 -->
<!-- Title: src/render/depth_map.c Pages: 1 -->
<svg width="1821pt" height="313pt"
 viewBox="0.00 0.00 1820.50 313.00" xmlns="http://www.w3.org/2000/svg" xmlns:xlink="http://www.w3.org/1999/xlink">
<g id="graph0" class="graph" transform="scale(1 1) rotate(0) translate(4 309)">
<title>src/render/depth_map.c</title>
<!-- Node1 -->
<g id="Node000001" class="node">
<title>Node1</title>
<g id="a_Node000001"><a xlink:title=" ">
<polygon fill="#999999" stroke="#666666" points="1624.5,-305 1493.5,-305 1493.5,-286 1624.5,-286 1624.5,-305"/>
<text text-anchor="middle" x="1559" y="-293" font-family="Helvetica,sans-Serif" font-size="10.00">src/render/depth_map.c</text>
</a>
</g>
</g>
<!-- Node2 -->
<g id="Node000002" class="node">
<title>Node2</title>
<g id="a_Node000002"><a xlink:href="raptiquax_8h.html" target="_top" xlink:title="This file contains type definitions for fixed&#45;width integer types and floating&#45;point types.">
<polygon fill="white" stroke="#666666" points="859.5,-250 778.5,-250 778.5,-231 859.5,-231 859.5,-250"/>
<text text-anchor="middle" x="819" y="-238" font-family="Helvetica,sans-Serif" font-size="10.00">../raptiquax.h</text>
</a>
</g>
</g>
<!-- Node1&#45;&gt;Node2 -->
<g id="edge1_Node000001_Node000002" class="edge">
<title>Node1&#45;&gt;Node2</title>
<g id="a_edge1_Node000001_Node000002"><a xlink:title=" ">
<path fill="none" stroke="#63b8ff" d="M1493.33,-289.8C1347.82,-279.38 1000.84,-254.52 870.05,-245.16"/>
<polygon fill="#63b8ff" stroke="#63b8ff" points="870.14,-241.65 859.91,-244.43 869.64,-248.64 870.14,-241.65"/>
</a>
</g>
</g>
<!-- Node24 -->
<g id="Node000024" class="node">
<title>Node24</title>
<g id="a_Node000024"><a xlink:href="math__util_8h.html" target="_top" xlink:title=" ">
<polygon fill="white" stroke="#666666" points="1503,-250 1393,-250 1393,-231 1503,-231 1503,-250"/>
<text text-anchor="middle" x="1448" y="-238" font-family="Helvetica,sans-Serif" font-size="10.00">../math/math_util.h</text>
</a>
</g>
</g>
<!-- Node1&#45;&gt;Node24 -->
<g id="edge23_Node000001_Node000024" class="edge">
<title>Node1&#45;&gt;Node24</title>
<g id="a_edge23_Node000001_Node000024"><a xlink:title=" ">
<path fill="none" stroke="#63b8ff" d="M1541.17,-285.98C1523.39,-277.5 1495.85,-264.35 1475.32,-254.54"/>
<polygon fill="#63b8ff" stroke="#63b8ff" points="1476.69,-251.32 1466.16,-250.17 1473.67,-257.64 1476.69,-251.32"/>
</a>
</g>
</g>
<!-- Node25 -->
<g id="Node000025" class="node">
<title>Node25</title>
<g id="a_Node000025"><a xlink:href="shader_8h.html" target="_top" xlink:title=" ">
<polygon fill="white" stroke="#666666" points="1582.5,-134.5 1503.5,-134.5 1503.5,-115.5 1582.5,-115.5 1582.5,-134.5"/>
<text text-anchor="middle" x="1543" y="-122.5" font-family="Helvetica,sans-Serif" font-size="10.00">../io/shader.h</text>
</a>
</g>
</g>
<!-- Node1&#45;&gt;Node25 -->
<g id="edge24_Node000001_Node000025" class="edge">
<title>Node1&#45;&gt;Node25</title>
<g id="a_edge24_Node000001_Node000025"><a xlink:title=" ">
<path fill="none" stroke="#63b8ff" d="M1556.83,-285.7C1554.72,-276.76 1551.61,-262.51 1550,-250 1545.23,-212.89 1543.71,-169.12 1543.22,-144.77"/>
<polygon fill="#63b8ff" stroke="#63b8ff" points="1546.72,-144.7 1543.06,-134.76 1539.73,-144.81 1546.72,-144.7"/>
</a>
</g>
</g>
<!-- Node26 -->
<g id="Node000026" class="node">
<title>Node26</title>
<g id="a_Node000026"><a xlink:href="render_8h.html" target="_top" xlink:title=" ">
<polygon fill="white" stroke="#666666" points="1615,-250 1559,-250 1559,-231 1615,-231 1615,-250"/>
<text text-anchor="middle" x="1587" y="-238" font-family="Helvetica,sans-Serif" font-size="10.00">render.h</text>
</a>
</g>
</g>
<!-- Node1&#45;&gt;Node26 -->
<g id="edge25_Node000001_Node000026" class="edge">
<title>Node1&#45;&gt;Node26</title>
<g id="a_edge25_Node000001_Node000026"><a xlink:title=" ">
<path fill="none" stroke="#63b8ff" d="M1563.62,-285.75C1567.46,-278.49 1573.02,-267.95 1577.76,-258.98"/>
<polygon fill="#63b8ff" stroke="#63b8ff" points="1580.89,-260.57 1582.46,-250.09 1574.7,-257.3 1580.89,-260.57"/>
</a>
</g>
</g>
<!-- Node27 -->
<g id="Node000027" class="node">
<title>Node27</title>
<g id="a_Node000027"><a xlink:href="depth__map_8h.html" target="_top" xlink:title=" ">
<polygon fill="white" stroke="#666666" points="1713,-250 1633,-250 1633,-231 1713,-231 1713,-250"/>
<text text-anchor="middle" x="1673" y="-238" font-family="Helvetica,sans-Serif" font-size="10.00">depth_map.h</text>
</a>
</g>
</g>
<!-- Node1&#45;&gt;Node27 -->
<g id="edge26_Node000001_Node000027" class="edge">
<title>Node1&#45;&gt;Node27</title>
<g id="a_edge26_Node000001_Node000027"><a xlink:title=" ">
<path fill="none" stroke="#63b8ff" d="M1577.32,-285.98C1595.66,-277.46 1624.11,-264.23 1645.23,-254.41"/>
<polygon fill="#63b8ff" stroke="#63b8ff" points="1646.76,-257.56 1654.35,-250.17 1643.81,-251.21 1646.76,-257.56"/>
</a>
</g>
</g>
<!-- Node35 -->
<g id="Node000035" class="node">
<title>Node35</title>
<g id="a_Node000035"><a xlink:href="settings_8h.html" target="_top" xlink:title=" ">
<polygon fill="white" stroke="#666666" points="1805,-250 1731,-250 1731,-231 1805,-231 1805,-250"/>
<text text-anchor="middle" x="1768" y="-238" font-family="Helvetica,sans-Serif" font-size="10.00">../settings.h</text>
</a>
</g>
</g>
<!-- Node1&#45;&gt;Node35 -->
<g id="edge35_Node000001_Node000035" class="edge">
<title>Node1&#45;&gt;Node35</title>
<g id="a_edge35_Node000001_Node000035"><a xlink:title=" ">
<path fill="none" stroke="#63b8ff" d="M1592.58,-285.98C1628.35,-276.91 1685.12,-262.52 1724.34,-252.57"/>
<polygon fill="#63b8ff" stroke="#63b8ff" points="1725.32,-255.93 1734.16,-250.08 1723.6,-249.15 1725.32,-255.93"/>
</a>
</g>
</g>
<!-- Node3 -->
<g id="Node000003" class="node">
<title>Node3</title>
<g id="a_Node000003"><a xlink:title=" ">
<polygon fill="#e0e0e0" stroke="#999999" points="50,-195 0,-195 0,-176 50,-176 50,-195"/>
<text text-anchor="middle" x="25" y="-183" font-family="Helvetica,sans-Serif" font-size="10.00">stdio.h</text>
</a>
</g>
</g>
<!-- Node2&#45;&gt;Node3 -->
<g id="edge2_Node000002_Node000003" class="edge">
<title>Node2&#45;&gt;Node3</title>
<g id="a_edge2_Node000002_Node000003"><a xlink:title=" ">
<path fill="none" stroke="#63b8ff" d="M778.35,-239.77C665.56,-239.97 339.18,-236.73 60.05,-194.85"/>
<polygon fill="#63b8ff" stroke="#63b8ff" points="60.56,-191.38 50.14,-193.34 59.51,-198.3 60.56,-191.38"/>
</a>
</g>
</g>
<!-- Node4 -->
<g id="Node000004" class="node">
<title>Node4</title>
<g id="a_Node000004"><a xlink:title=" ">
<polygon fill="#e0e0e0" stroke="#999999" points="121.5,-195 68.5,-195 68.5,-176 121.5,-176 121.5,-195"/>
<text text-anchor="middle" x="95" y="-183" font-family="Helvetica,sans-Serif" font-size="10.00">stdint.h</text>
</a>
</g>
</g>
<!-- Node2&#45;&gt;Node4 -->
<g id="edge3_Node000002_Node000004" class="edge">
<title>Node2&#45;&gt;Node4</title>
<g id="a_edge3_Node000002_Node000004"><a xlink:title=" ">
<path fill="none" stroke="#63b8ff" d="M778.42,-239.24C673.16,-238.06 382.66,-231.59 131.68,-194.8"/>
<polygon fill="#63b8ff" stroke="#63b8ff" points="132.05,-191.32 121.64,-193.31 131.02,-198.24 132.05,-191.32"/>
</a>
</g>
</g>
<!-- Node5 -->
<g id="Node000005" class="node">
<title>Node5</title>
<g id="a_Node000005"><a xlink:title=" ">
<polygon fill="#e0e0e0" stroke="#999999" points="202,-195 140,-195 140,-176 202,-176 202,-195"/>
<text text-anchor="middle" x="171" y="-183" font-family="Helvetica,sans-Serif" font-size="10.00">stdbool.h</text>
</a>
</g>
</g>
<!-- Node2&#45;&gt;Node5 -->
<g id="edge4_Node000002_Node000005" class="edge">
<title>Node2&#45;&gt;Node5</title>
<g id="a_edge4_Node000002_Node000005"><a xlink:title=" ">
<path fill="none" stroke="#63b8ff" d="M778.24,-238.43C681.6,-235.5 430.93,-225.48 212.42,-195.01"/>
<polygon fill="#63b8ff" stroke="#63b8ff" points="212.76,-191.52 202.37,-193.59 211.78,-198.45 212.76,-191.52"/>
</a>
</g>
</g>
<!-- Node6 -->
<g id="Node000006" class="node">
<title>Node6</title>
<g id="a_Node000006"><a xlink:title=" ">
<polygon fill="#e0e0e0" stroke="#999999" points="276,-195 220,-195 220,-176 276,-176 276,-195"/>
<text text-anchor="middle" x="248" y="-183" font-family="Helvetica,sans-Serif" font-size="10.00">stdarg.h</text>
</a>
</g>
</g>
<!-- Node2&#45;&gt;Node6 -->
<g id="edge5_Node000002_Node000006" class="edge">
<title>Node2&#45;&gt;Node6</title>
<g id="a_edge5_Node000002_Node000006"><a xlink:title=" ">
<path fill="none" stroke="#63b8ff" d="M778.24,-238.09C690.16,-234.61 475.42,-223.84 286.33,-194.98"/>
<polygon fill="#63b8ff" stroke="#63b8ff" points="286.62,-191.49 276.2,-193.42 285.55,-198.4 286.62,-191.49"/>
</a>
</g>
</g>
<!-- Node7 -->
<g id="Node000007" class="node">
<title>Node7</title>
<g id="a_Node000007"><a xlink:title=" ">
<polygon fill="#e0e0e0" stroke="#999999" points="347.5,-195 294.5,-195 294.5,-176 347.5,-176 347.5,-195"/>
<text text-anchor="middle" x="321" y="-183" font-family="Helvetica,sans-Serif" font-size="10.00">limits.h</text>
</a>
</g>
</g>
<!-- Node2&#45;&gt;Node7 -->
<g id="edge6_Node000002_Node000007" class="edge">
<title>Node2&#45;&gt;Node7</title>
<g id="a_edge6_Node000002_Node000007"><a xlink:title=" ">
<path fill="none" stroke="#63b8ff" d="M778.28,-237.44C699.16,-233.04 519.01,-221.05 357.76,-194.88"/>
<polygon fill="#63b8ff" stroke="#63b8ff" points="358.09,-191.39 347.65,-193.22 356.95,-198.3 358.09,-191.39"/>
</a>
</g>
</g>
<!-- Node8 -->
<g id="Node000008" class="node">
<title>Node8</title>
<g id="a_Node000008"><a xlink:title=" ">
<polygon fill="#e0e0e0" stroke="#999999" points="438,-195 366,-195 366,-176 438,-176 438,-195"/>
<text text-anchor="middle" x="402" y="-183" font-family="Helvetica,sans-Serif" font-size="10.00">SDL2/SDL.h</text>
</a>
</g>
</g>
<!-- Node2&#45;&gt;Node8 -->
<g id="edge7_Node000002_Node000008" class="edge">
<title>Node2&#45;&gt;Node8</title>
<g id="a_edge7_Node000002_Node000008"><a xlink:title=" ">
<path fill="none" stroke="#63b8ff" d="M778.42,-235.55C711.72,-228.87 574.53,-214.29 448.52,-195.14"/>
<polygon fill="#63b8ff" stroke="#63b8ff" points="448.73,-191.63 438.31,-193.58 447.67,-198.55 448.73,-191.63"/>
</a>
</g>
</g>
<!-- Node9 -->
<g id="Node000009" class="node">
<title>Node9</title>
<g id="a_Node000009"><a xlink:title=" ">
<polygon fill="#e0e0e0" stroke="#999999" points="564,-195 456,-195 456,-176 564,-176 564,-195"/>
<text text-anchor="middle" x="510" y="-183" font-family="Helvetica,sans-Serif" font-size="10.00">SDL2/SDL_image.h</text>
</a>
</g>
</g>
<!-- Node2&#45;&gt;Node9 -->
<g id="edge8_Node000002_Node000009" class="edge">
<title>Node2&#45;&gt;Node9</title>
<g id="a_edge8_Node000002_Node000009"><a xlink:title=" ">
<path fill="none" stroke="#63b8ff" d="M778.29,-232.52C724.96,-223.37 631.06,-207.26 569.69,-196.74"/>
<polygon fill="#63b8ff" stroke="#63b8ff" points="570.2,-193.28 559.76,-195.03 569.02,-200.17 570.2,-193.28"/>
</a>
</g>
</g>
<!-- Node10 -->
<g id="Node000010" class="node">
<title>Node10</title>
<g id="a_Node000010"><a xlink:title=" ">
<polygon fill="#e0e0e0" stroke="#999999" points="692,-195 582,-195 582,-176 692,-176 692,-195"/>
<text text-anchor="middle" x="637" y="-183" font-family="Helvetica,sans-Serif" font-size="10.00">SDL2/SDL_opengl.h</text>
</a>
</g>
</g>
<!-- Node2&#45;&gt;Node10 -->
<g id="edge9_Node000002_Node000010" class="edge">
<title>Node2&#45;&gt;Node10</title>
<g id="a_edge9_Node000002_Node000010"><a xlink:title=" ">
<path fill="none" stroke="#63b8ff" d="M789.76,-230.98C758.94,-222.01 710.22,-207.82 676.11,-197.89"/>
<polygon fill="#63b8ff" stroke="#63b8ff" points="677.05,-194.52 666.47,-195.08 675.09,-201.24 677.05,-194.52"/>
</a>
</g>
</g>
<!-- Node11 -->
<g id="Node000011" class="node">
<title>Node11</title>
<g id="a_Node000011"><a xlink:title=" ">
<polygon fill="#e0e0e0" stroke="#999999" points="814,-195 710,-195 710,-176 814,-176 814,-195"/>
<text text-anchor="middle" x="762" y="-183" font-family="Helvetica,sans-Serif" font-size="10.00">SDL2/SDL_mixer.h</text>
</a>
</g>
</g>
<!-- Node2&#45;&gt;Node11 -->
<g id="edge10_Node000002_Node000011" class="edge">
<title>Node2&#45;&gt;Node11</title>
<g id="a_edge10_Node000002_Node000011"><a xlink:title=" ">
<path fill="none" stroke="#63b8ff" d="M809.84,-230.98C801.5,-223.23 788.97,-211.58 778.82,-202.14"/>
<polygon fill="#63b8ff" stroke="#63b8ff" points="781.03,-199.42 771.32,-195.17 776.26,-204.54 781.03,-199.42"/>
</a>
</g>
</g>
<!-- Node12 -->
<g id="Node000012" class="node">
<title>Node12</title>
<g id="a_Node000012"><a xlink:title=" ">
<polygon fill="#e0e0e0" stroke="#999999" points="920,-195 832,-195 832,-176 920,-176 920,-195"/>
<text text-anchor="middle" x="876" y="-183" font-family="Helvetica,sans-Serif" font-size="10.00">SDL2/SDL_ttf.h</text>
</a>
</g>
</g>
<!-- Node2&#45;&gt;Node12 -->
<g id="edge11_Node000002_Node000012" class="edge">
<title>Node2&#45;&gt;Node12</title>
<g id="a_edge11_Node000002_Node000012"><a xlink:title=" ">
<path fill="none" stroke="#63b8ff" d="M828.16,-230.98C836.5,-223.23 849.03,-211.58 859.18,-202.14"/>
<polygon fill="#63b8ff" stroke="#63b8ff" points="861.74,-204.54 866.68,-195.17 856.97,-199.42 861.74,-204.54"/>
</a>
</g>
</g>
<!-- Node13 -->
<g id="Node000013" class="node">
<title>Node13</title>
<g id="a_Node000013"><a xlink:title=" ">
<polygon fill="#e0e0e0" stroke="#999999" points="988,-195 938,-195 938,-176 988,-176 988,-195"/>
<text text-anchor="middle" x="963" y="-183" font-family="Helvetica,sans-Serif" font-size="10.00">GL/gl.h</text>
</a>
</g>
</g>
<!-- Node2&#45;&gt;Node13 -->
<g id="edge12_Node000002_Node000013" class="edge">
<title>Node2&#45;&gt;Node13</title>
<g id="a_edge12_Node000002_Node000013"><a xlink:title=" ">
<path fill="none" stroke="#63b8ff" d="M842.14,-230.98C865.82,-222.27 902.87,-208.63 929.71,-198.75"/>
<polygon fill="#63b8ff" stroke="#63b8ff" points="931.27,-201.91 939.44,-195.17 928.85,-195.34 931.27,-201.91"/>
</a>
</g>
</g>
<!-- Node14 -->
<g id="Node000014" class="node">
<title>Node14</title>
<g id="a_Node000014"><a xlink:title=" ">
<polygon fill="#e0e0e0" stroke="#999999" points="1062,-195 1006,-195 1006,-176 1062,-176 1062,-195"/>
<text text-anchor="middle" x="1034" y="-183" font-family="Helvetica,sans-Serif" font-size="10.00">GL/glu.h</text>
</a>
</g>
</g>
<!-- Node2&#45;&gt;Node14 -->
<g id="edge13_Node000002_Node000014" class="edge">
<title>Node2&#45;&gt;Node14</title>
<g id="a_edge13_Node000002_Node000014"><a xlink:title=" ">
<path fill="none" stroke="#63b8ff" d="M853.54,-230.98C892.5,-221.38 955.66,-205.81 995.99,-195.87"/>
<polygon fill="#63b8ff" stroke="#63b8ff" points="996.85,-199.26 1005.72,-193.47 995.17,-192.47 996.85,-199.26"/>
</a>
</g>
</g>
<!-- Node15 -->
<g id="Node000015" class="node">
<title>Node15</title>
<g id="a_Node000015"><a xlink:title=" ">
<polygon fill="#e0e0e0" stroke="#999999" points="1146,-195 1080,-195 1080,-176 1146,-176 1146,-195"/>
<text text-anchor="middle" x="1113" y="-183" font-family="Helvetica,sans-Serif" font-size="10.00">GL/glext.h</text>
</a>
</g>
</g>
<!-- Node2&#45;&gt;Node15 -->
<g id="edge14_Node000002_Node000015" class="edge">
<title>Node2&#45;&gt;Node15</title>
<g id="a_edge14_Node000002_Node000015"><a xlink:title=" ">
<path fill="none" stroke="#63b8ff" d="M859.65,-232.64C907.46,-224.51 989.5,-210.32 1069.32,-195.28"/>
<polygon fill="#63b8ff" stroke="#63b8ff" points="1070.37,-198.65 1079.54,-193.35 1069.07,-191.77 1070.37,-198.65"/>
</a>
</g>
</g>
<!-- Node16 -->
<g id="Node000016" class="node">
<title>Node16</title>
<g id="a_Node000016"><a xlink:title=" ">
<polygon fill="#e0e0e0" stroke="#999999" points="1241.5,-195 1164.5,-195 1164.5,-176 1241.5,-176 1241.5,-195"/>
<text text-anchor="middle" x="1203" y="-183" font-family="Helvetica,sans-Serif" font-size="10.00">cglm/cglm.h</text>
</a>
</g>
</g>
<!-- Node2&#45;&gt;Node16 -->
<g id="edge15_Node000002_Node000016" class="edge">
<title>Node2&#45;&gt;Node16</title>
<g id="a_edge15_Node000002_Node000016"><a xlink:title=" ">
<path fill="none" stroke="#63b8ff" d="M859.68,-234.69C921.1,-227.31 1041.41,-212.35 1154.07,-195.08"/>
<polygon fill="#63b8ff" stroke="#63b8ff" points="1154.9,-198.49 1164.25,-193.51 1153.83,-191.58 1154.9,-198.49"/>
</a>
</g>
</g>
<!-- Node17 -->
<g id="Node000017" class="node">
<title>Node17</title>
<g id="a_Node000017"><a xlink:title=" ">
<polygon fill="#e0e0e0" stroke="#999999" points="1310.5,-195 1259.5,-195 1259.5,-176 1310.5,-176 1310.5,-195"/>
<text text-anchor="middle" x="1285" y="-183" font-family="Helvetica,sans-Serif" font-size="10.00">math.h</text>
</a>
</g>
</g>
<!-- Node2&#45;&gt;Node17 -->
<g id="edge16_Node000002_Node000017" class="edge">
<title>Node2&#45;&gt;Node17</title>
<g id="a_edge16_Node000002_Node000017"><a xlink:title=" ">
<path fill="none" stroke="#63b8ff" d="M859.77,-237.24C934.98,-232.65 1100.75,-220.59 1249.26,-195.08"/>
<polygon fill="#63b8ff" stroke="#63b8ff" points="1250.21,-198.46 1259.46,-193.3 1249.01,-191.57 1250.21,-198.46"/>
</a>
</g>
</g>
<!-- Node18 -->
<g id="Node000018" class="node">
<title>Node18</title>
<g id="a_Node000018"><a xlink:href="stringio_8h.html" target="_top" xlink:title="Provides utility functions for string and file operations.">
<polygon fill="white" stroke="#666666" points="1403,-195 1329,-195 1329,-176 1403,-176 1403,-195"/>
<text text-anchor="middle" x="1366" y="-183" font-family="Helvetica,sans-Serif" font-size="10.00">io/stringio.h</text>
</a>
</g>
</g>
<!-- Node2&#45;&gt;Node18 -->
<g id="edge17_Node000002_Node000018" class="edge">
<title>Node2&#45;&gt;Node18</title>
<g id="a_edge17_Node000002_Node000018"><a xlink:title=" ">
<path fill="none" stroke="#63b8ff" d="M859.73,-237.19C943.69,-232.14 1142.23,-218.74 1318.9,-195.02"/>
<polygon fill="#63b8ff" stroke="#63b8ff" points="1319.45,-198.48 1328.89,-193.67 1318.51,-191.54 1319.45,-198.48"/>
</a>
</g>
</g>
<!-- Node20 -->
<g id="Node000020" class="node">
<title>Node20</title>
<g id="a_Node000020"><a xlink:href="config_8h.html" target="_top" xlink:title=" ">
<polygon fill="white" stroke="#666666" points="1476.5,-195 1421.5,-195 1421.5,-176 1476.5,-176 1476.5,-195"/>
<text text-anchor="middle" x="1449" y="-183" font-family="Helvetica,sans-Serif" font-size="10.00">config.h</text>
</a>
</g>
</g>
<!-- Node2&#45;&gt;Node20 -->
<g id="edge19_Node000002_Node000020" class="edge">
<title>Node2&#45;&gt;Node20</title>
<g id="a_edge19_Node000002_Node000020"><a xlink:title=" ">
<path fill="none" stroke="#63b8ff" d="M859.5,-238.57C954.29,-235.93 1198.03,-226.54 1411.08,-194.88"/>
<polygon fill="#63b8ff" stroke="#63b8ff" points="1411.84,-198.31 1421.21,-193.36 1410.8,-191.39 1411.84,-198.31"/>
</a>
</g>
</g>
<!-- Node19 -->
<g id="Node000019" class="node">
<title>Node19</title>
<g id="a_Node000019"><a xlink:title=" ">
<polygon fill="#e0e0e0" stroke="#999999" points="1392.5,-134.5 1339.5,-134.5 1339.5,-115.5 1392.5,-115.5 1392.5,-134.5"/>
<text text-anchor="middle" x="1366" y="-122.5" font-family="Helvetica,sans-Serif" font-size="10.00">string.h</text>
</a>
</g>
</g>
<!-- Node18&#45;&gt;Node19 -->
<g id="edge18_Node000018_Node000019" class="edge">
<title>Node18&#45;&gt;Node19</title>
<g id="a_edge18_Node000018_Node000019"><a xlink:title=" ">
<path fill="none" stroke="#63b8ff" d="M1366,-175.87C1366,-167.75 1366,-155.31 1366,-144.89"/>
<polygon fill="#63b8ff" stroke="#63b8ff" points="1369.5,-144.67 1366,-134.67 1362.5,-144.67 1369.5,-144.67"/>
</a>
</g>
</g>
<!-- Node21 -->
<g id="Node000021" class="node">
<title>Node21</title>
<g id="a_Node000021"><a xlink:href="term_8h.html" target="_top" xlink:title=" ">
<polygon fill="white" stroke="#666666" points="1485.5,-134.5 1410.5,-134.5 1410.5,-115.5 1485.5,-115.5 1485.5,-134.5"/>
<text text-anchor="middle" x="1448" y="-122.5" font-family="Helvetica,sans-Serif" font-size="10.00">term/term.h</text>
</a>
</g>
</g>
<!-- Node20&#45;&gt;Node21 -->
<g id="edge20_Node000020_Node000021" class="edge">
<title>Node20&#45;&gt;Node21</title>
<g id="a_edge20_Node000020_Node000021"><a xlink:title=" ">
<path fill="none" stroke="#63b8ff" d="M1448.85,-175.87C1448.71,-167.75 1448.5,-155.31 1448.32,-144.89"/>
<polygon fill="#63b8ff" stroke="#63b8ff" points="1451.82,-144.61 1448.15,-134.67 1444.82,-144.73 1451.82,-144.61"/>
</a>
</g>
</g>
<!-- Node22 -->
<g id="Node000022" class="node">
<title>Node22</title>
<g id="a_Node000022"><a xlink:href="enhanced__print_8h.html" target="_top" xlink:title=" ">
<polygon fill="white" stroke="#666666" points="1498.5,-74 1397.5,-74 1397.5,-55 1498.5,-55 1498.5,-74"/>
<text text-anchor="middle" x="1448" y="-62" font-family="Helvetica,sans-Serif" font-size="10.00">enhanced_print.h</text>
</a>
</g>
</g>
<!-- Node21&#45;&gt;Node22 -->
<g id="edge21_Node000021_Node000022" class="edge">
<title>Node21&#45;&gt;Node22</title>
<g id="a_edge21_Node000021_Node000022"><a xlink:title=" ">
<path fill="none" stroke="#63b8ff" d="M1448,-115.37C1448,-107.25 1448,-94.81 1448,-84.39"/>
<polygon fill="#63b8ff" stroke="#63b8ff" points="1451.5,-84.17 1448,-74.17 1444.5,-84.17 1451.5,-84.17"/>
</a>
</g>
</g>
<!-- Node23 -->
<g id="Node000023" class="node">
<title>Node23</title>
<g id="a_Node000023"><a xlink:href="color_8h.html" target="_top" xlink:title=" ">
<polygon fill="white" stroke="#666666" points="1472.5,-19 1423.5,-19 1423.5,0 1472.5,0 1472.5,-19"/>
<text text-anchor="middle" x="1448" y="-7" font-family="Helvetica,sans-Serif" font-size="10.00">color.h</text>
</a>
</g>
</g>
<!-- Node22&#45;&gt;Node23 -->
<g id="edge22_Node000022_Node000023" class="edge">
<title>Node22&#45;&gt;Node23</title>
<g id="a_edge22_Node000022_Node000023"><a xlink:title=" ">
<path fill="none" stroke="#63b8ff" d="M1448,-54.75C1448,-47.8 1448,-37.85 1448,-29.13"/>
<polygon fill="#63b8ff" stroke="#63b8ff" points="1451.5,-29.09 1448,-19.09 1444.5,-29.09 1451.5,-29.09"/>
</a>
</g>
</g>
<!-- Node28 -->
<g id="Node000028" class="node">
<title>Node28</title>
<g id="a_Node000028"><a xlink:href="model_8h.html" target="_top" xlink:title="Defines structures and functions for handling 3D models and their properties.">
<polygon fill="white" stroke="#666666" points="1700.5,-195 1623.5,-195 1623.5,-176 1700.5,-176 1700.5,-195"/>
<text text-anchor="middle" x="1662" y="-183" font-family="Helvetica,sans-Serif" font-size="10.00">../io/model.h</text>
</a>
</g>
</g>
<!-- Node27&#45;&gt;Node28 -->
<g id="edge27_Node000027_Node000028" class="edge">
<title>Node27&#45;&gt;Node28</title>
<g id="a_edge27_Node000027_Node000028"><a xlink:title=" ">
<path fill="none" stroke="#63b8ff" d="M1671.18,-230.75C1669.74,-223.8 1667.68,-213.85 1665.87,-205.13"/>
<polygon fill="#63b8ff" stroke="#63b8ff" points="1669.24,-204.17 1663.78,-195.09 1662.39,-205.59 1669.24,-204.17"/>
</a>
</g>
</g>
<!-- Node33 -->
<g id="Node000033" class="node">
<title>Node33</title>
<g id="a_Node000033"><a xlink:href="framebuffer_8h.html" target="_top" xlink:title=" ">
<polygon fill="white" stroke="#666666" points="1810.5,-195 1727.5,-195 1727.5,-176 1810.5,-176 1810.5,-195"/>
<text text-anchor="middle" x="1769" y="-183" font-family="Helvetica,sans-Serif" font-size="10.00">framebuffer.h</text>
</a>
</g>
</g>
<!-- Node27&#45;&gt;Node33 -->
<g id="edge33_Node000027_Node000033" class="edge">
<title>Node27&#45;&gt;Node33</title>
<g id="a_edge33_Node000027_Node000033"><a xlink:title=" ">
<path fill="none" stroke="#63b8ff" d="M1688.42,-230.98C1703.45,-222.69 1726.54,-209.94 1744.16,-200.22"/>
<polygon fill="#63b8ff" stroke="#63b8ff" points="1746.23,-203.07 1753.3,-195.17 1742.85,-196.94 1746.23,-203.07"/>
</a>
</g>
</g>
<!-- Node28&#45;&gt;Node25 -->
<g id="edge28_Node000028_Node000025" class="edge">
<title>Node28&#45;&gt;Node25</title>
<g id="a_edge28_Node000028_Node000025"><a xlink:title=" ">
<path fill="none" stroke="#63b8ff" d="M1644.7,-175.99C1624.95,-166.29 1592.45,-150.31 1569.51,-139.03"/>
<polygon fill="#63b8ff" stroke="#63b8ff" points="1570.84,-135.79 1560.32,-134.52 1567.75,-142.07 1570.84,-135.79"/>
</a>
</g>
</g>
<!-- Node29 -->
<g id="Node000029" class="node">
<title>Node29</title>
<g id="a_Node000029"><a xlink:href="model__loader_8h.html" target="_top" xlink:title=" ">
<polygon fill="white" stroke="#666666" points="1723,-140 1601,-140 1601,-110 1723,-110 1723,-140"/>
<text text-anchor="start" x="1609" y="-128" font-family="Helvetica,sans-Serif" font-size="10.00">model_loaders/model</text>
<text text-anchor="middle" x="1662" y="-117" font-family="Helvetica,sans-Serif" font-size="10.00">_loader.h</text>
</a>
</g>
</g>
<!-- Node28&#45;&gt;Node29 -->
<g id="edge29_Node000028_Node000029" class="edge">
<title>Node28&#45;&gt;Node29</title>
<g id="a_edge29_Node000028_Node000029"><a xlink:title=" ">
<path fill="none" stroke="#63b8ff" d="M1662,-175.87C1662,-169.11 1662,-159.35 1662,-150.26"/>
<polygon fill="#63b8ff" stroke="#63b8ff" points="1665.5,-150.11 1662,-140.11 1658.5,-150.11 1665.5,-150.11"/>
</a>
</g>
</g>
<!-- Node30 -->
<g id="Node000030" class="node">
<title>Node30</title>
<g id="a_Node000030"><a xlink:href="obj__loader_8h.html" target="_top" xlink:title=" ">
<polygon fill="white" stroke="#666666" points="1605,-74 1529,-74 1529,-55 1605,-55 1605,-74"/>
<text text-anchor="middle" x="1567" y="-62" font-family="Helvetica,sans-Serif" font-size="10.00">obj_loader.h</text>
</a>
</g>
</g>
<!-- Node29&#45;&gt;Node30 -->
<g id="edge30_Node000029_Node000030" class="edge">
<title>Node29&#45;&gt;Node30</title>
<g id="a_edge30_Node000029_Node000030"><a xlink:title=" ">
<path fill="none" stroke="#63b8ff" d="M1639,-109.84C1624,-100.6 1604.5,-88.59 1589.57,-79.4"/>
<polygon fill="#63b8ff" stroke="#63b8ff" points="1591.31,-76.36 1580.96,-74.09 1587.64,-82.32 1591.31,-76.36"/>
</a>
</g>
</g>
<!-- Node31 -->
<g id="Node000031" class="node">
<title>Node31</title>
<g id="a_Node000031"><a xlink:href="mtl__loader_8h.html" target="_top" xlink:title=" ">
<polygon fill="white" stroke="#666666" points="1700.5,-74 1623.5,-74 1623.5,-55 1700.5,-55 1700.5,-74"/>
<text text-anchor="middle" x="1662" y="-62" font-family="Helvetica,sans-Serif" font-size="10.00">mtl_loader.h</text>
</a>
</g>
</g>
<!-- Node29&#45;&gt;Node31 -->
<g id="edge31_Node000029_Node000031" class="edge">
<title>Node29&#45;&gt;Node31</title>
<g id="a_edge31_Node000029_Node000031"><a xlink:title=" ">
<path fill="none" stroke="#63b8ff" d="M1662,-109.84C1662,-102.21 1662,-92.7 1662,-84.45"/>
<polygon fill="#63b8ff" stroke="#63b8ff" points="1665.5,-84.27 1662,-74.27 1658.5,-84.27 1665.5,-84.27"/>
</a>
</g>
</g>
<!-- Node32 -->
<g id="Node000032" class="node">
<title>Node32</title>
<g id="a_Node000032"><a xlink:href="fbx__loader_8h.html" target="_top" xlink:title=" ">
<polygon fill="white" stroke="#666666" points="1795.5,-74 1718.5,-74 1718.5,-55 1795.5,-55 1795.5,-74"/>
<text text-anchor="middle" x="1757" y="-62" font-family="Helvetica,sans-Serif" font-size="10.00">fbx_loader.h</text>
</a>
</g>
</g>
<!-- Node29&#45;&gt;Node32 -->
<g id="edge32_Node000029_Node000032" class="edge">
<title>Node29&#45;&gt;Node32</title>
<g id="a_edge32_Node000029_Node000032"><a xlink:title=" ">
<path fill="none" stroke="#63b8ff" d="M1685,-109.84C1700,-100.6 1719.5,-88.59 1734.43,-79.4"/>
<polygon fill="#63b8ff" stroke="#63b8ff" points="1736.36,-82.32 1743.04,-74.09 1732.69,-76.36 1736.36,-82.32"/>
</a>
</g>
</g>
<!-- Node34 -->
<g id="Node000034" class="node">
<title>Node34</title>
<g id="a_Node000034"><a xlink:href="input_8h.html" target="_top" xlink:title=" ">
<polygon fill="white" stroke="#666666" points="1812.5,-134.5 1741.5,-134.5 1741.5,-115.5 1812.5,-115.5 1812.5,-134.5"/>
<text text-anchor="middle" x="1777" y="-122.5" font-family="Helvetica,sans-Serif" font-size="10.00">../io/input.h</text>
</a>
</g>
</g>
<!-- Node33&#45;&gt;Node34 -->
<g id="edge34_Node000033_Node000034" class="edge">
<title>Node33&#45;&gt;Node34</title>
<g id="a_edge34_Node000033_Node000034"><a xlink:title=" ">
<path fill="none" stroke="#63b8ff" d="M1770.18,-175.87C1771.29,-167.75 1772.99,-155.31 1774.42,-144.89"/>
<polygon fill="#63b8ff" stroke="#63b8ff" points="1777.93,-145.05 1775.81,-134.67 1770.99,-144.1 1777.93,-145.05"/>
</a>
</g>
</g>
</g>
</svg>
