<?xml version="1.0" encoding="UTF-8" standalone="no"?>
<!DOCTYPE svg PUBLIC "-//W3C//DTD SVG 1.1//EN"
 "http://www.w3.org/Graphics/SVG/1.1/DTD/svg11.dtd">
<!-- Generated by graphviz version 2.43.0 (0)
 -->
<!-- Title: src/io Pages: 1 -->
<svg width="500pt" height="196pt"
 viewBox="0.00 0.00 500.00 196.00" xmlns="http://www.w3.org/2000/svg" xmlns:xlink="http://www.w3.org/1999/xlink">
<g id="graph0" class="graph" transform="scale(1 1) rotate(0) translate(4 192)">
<title>src/io</title>
<g id="clust1" class="cluster">
<title>clusterdir_68267d1309a1af8e8297ef4c3efbcdba</title>
<g id="a_clust1"><a xlink:href="dir_68267d1309a1af8e8297ef4c3efbcdba.html" target="_top" xlink:title="src">
<polygon fill="#edf0f7" stroke="#404040" stroke-dasharray="5,2" points="8,-8 8,-180 484,-180 484,-8 8,-8"/>
<text text-anchor="middle" x="246" y="-168" font-family="Helvetica,sans-Serif" font-size="10.00">src</text>
</a>
</g>
</g>
<g id="clust2" class="cluster">
<title>clusterdir_c184e51c84f2c3f0345bbc8a0d75d3e1</title>
<g id="a_clust2"><a xlink:href="dir_c184e51c84f2c3f0345bbc8a0d75d3e1.html" target="_top">
<polygon fill="#edf0f7" stroke="#404040" stroke-width="2" points="16,-63 16,-153 128,-153 128,-63 16,-63"/>
</a>
</g>
</g>
<!-- dir_018e9aafb459e6e1a4953404cb0c0b1d -->
<g id="node1" class="node">
<title>dir_018e9aafb459e6e1a4953404cb0c0b1d</title>
<g id="a_node1"><a xlink:href="dir_018e9aafb459e6e1a4953404cb0c0b1d.html" target="_top" xlink:title="classes">
<polygon fill="#a2b4d6" stroke="red" points="189.5,-90 136.5,-90 136.5,-71 189.5,-71 189.5,-90"/>
<text text-anchor="middle" x="163" y="-78" font-family="Helvetica,sans-Serif" font-size="10.00">classes</text>
</a>
</g>
</g>
<!-- dir_452baf35e1d7639c9f2a5ece4ec85855 -->
<g id="node2" class="node">
<title>dir_452baf35e1d7639c9f2a5ece4ec85855</title>
<g id="a_node2"><a xlink:href="dir_452baf35e1d7639c9f2a5ece4ec85855.html" target="_top" xlink:title="storage">
<polygon fill="#a2b4d6" stroke="#404040" points="260.5,-90 207.5,-90 207.5,-71 260.5,-71 260.5,-90"/>
<text text-anchor="middle" x="234" y="-78" font-family="Helvetica,sans-Serif" font-size="10.00">storage</text>
</a>
</g>
</g>
<!-- dir_8250e12e5a19acb8ece30f1703b6dc16 -->
<g id="node3" class="node">
<title>dir_8250e12e5a19acb8ece30f1703b6dc16</title>
<g id="a_node3"><a xlink:href="dir_8250e12e5a19acb8ece30f1703b6dc16.html" target="_top" xlink:title="physics">
<polygon fill="#a2b4d6" stroke="#404040" points="331.5,-90 278.5,-90 278.5,-71 331.5,-71 331.5,-90"/>
<text text-anchor="middle" x="305" y="-78" font-family="Helvetica,sans-Serif" font-size="10.00">physics</text>
</a>
</g>
</g>
<!-- dir_ae9a93452e2a84339148a16bcf2eb561 -->
<g id="node4" class="node">
<title>dir_ae9a93452e2a84339148a16bcf2eb561</title>
<g id="a_node4"><a xlink:href="dir_ae9a93452e2a84339148a16bcf2eb561.html" target="_top" xlink:title="math">
<polygon fill="#a2b4d6" stroke="#404040" points="233,-35 191,-35 191,-16 233,-16 233,-35"/>
<text text-anchor="middle" x="212" y="-23" font-family="Helvetica,sans-Serif" font-size="10.00">math</text>
</a>
</g>
</g>
<!-- dir_e488ee1cea97fb16abdb5ccc78d2123b -->
<g id="node5" class="node">
<title>dir_e488ee1cea97fb16abdb5ccc78d2123b</title>
<g id="a_node5"><a xlink:href="dir_e488ee1cea97fb16abdb5ccc78d2123b.html" target="_top" xlink:title="render">
<polygon fill="#a2b4d6" stroke="#404040" points="418,-90 370,-90 370,-71 418,-71 418,-90"/>
<text text-anchor="middle" x="394" y="-78" font-family="Helvetica,sans-Serif" font-size="10.00">render</text>
</a>
</g>
</g>
<!-- dir_f015963f69ae14c534311f2118856536 -->
<g id="node6" class="node">
<title>dir_f015963f69ae14c534311f2118856536</title>
<g id="a_node6"><a xlink:href="dir_f015963f69ae14c534311f2118856536.html" target="_top" xlink:title="term">
<polygon fill="#a2b4d6" stroke="#404040" points="476,-90 436,-90 436,-71 476,-71 476,-90"/>
<text text-anchor="middle" x="456" y="-78" font-family="Helvetica,sans-Serif" font-size="10.00">term</text>
</a>
</g>
</g>
<!-- dir_c184e51c84f2c3f0345bbc8a0d75d3e1 -->
<g id="node7" class="node">
<title>dir_c184e51c84f2c3f0345bbc8a0d75d3e1</title>
<text text-anchor="middle" x="105" y="-133" font-family="Helvetica,sans-Serif" font-size="10.00">io</text>
</g>
<!-- dir_c184e51c84f2c3f0345bbc8a0d75d3e1&#45;&gt;dir_018e9aafb459e6e1a4953404cb0c0b1d -->
<g id="edge1" class="edge">
<title>dir_c184e51c84f2c3f0345bbc8a0d75d3e1&#45;&gt;dir_018e9aafb459e6e1a4953404cb0c0b1d</title>
<g id="a_edge1"><a xlink:href="dir_000007_000001.html" target="_top">
<path fill="none" stroke="#63b8ff" d="M114.32,-125.98C122.81,-118.23 135.56,-106.58 145.88,-97.14"/>
<polygon fill="#63b8ff" stroke="#63b8ff" points="148.49,-99.5 153.51,-90.17 143.77,-94.33 148.49,-99.5"/>
</a>
</g>
<g id="a_edge1&#45;headlabel"><a xlink:href="dir_000007_000001.html" target="_top" xlink:title="2">
<text text-anchor="middle" x="147.75" y="-101.52" font-family="Helvetica,sans-Serif" font-size="10.00" fill="#63b8ff">2</text>
</a>
</g>
</g>
<!-- dir_c184e51c84f2c3f0345bbc8a0d75d3e1&#45;&gt;dir_452baf35e1d7639c9f2a5ece4ec85855 -->
<g id="edge2" class="edge">
<title>dir_c184e51c84f2c3f0345bbc8a0d75d3e1&#45;&gt;dir_452baf35e1d7639c9f2a5ece4ec85855</title>
<g id="a_edge2"><a xlink:href="dir_000007_000018.html" target="_top">
<path fill="none" stroke="#63b8ff" d="M119.8,-128.42C140.1,-120.08 177.08,-104.89 203.46,-94.05"/>
<polygon fill="#63b8ff" stroke="#63b8ff" points="205.07,-97.17 212.99,-90.13 202.41,-90.69 205.07,-97.17"/>
</a>
</g>
<g id="a_edge2&#45;headlabel"><a xlink:href="dir_000007_000018.html" target="_top" xlink:title="3">
<text text-anchor="middle" x="202.83" y="-98.66" font-family="Helvetica,sans-Serif" font-size="10.00" fill="#63b8ff">3</text>
</a>
</g>
</g>
<!-- dir_c184e51c84f2c3f0345bbc8a0d75d3e1&#45;&gt;dir_8250e12e5a19acb8ece30f1703b6dc16 -->
<g id="edge4" class="edge">
<title>dir_c184e51c84f2c3f0345bbc8a0d75d3e1&#45;&gt;dir_8250e12e5a19acb8ece30f1703b6dc16</title>
<g id="a_edge4"><a xlink:href="dir_000007_000013.html" target="_top">
<path fill="none" stroke="#63b8ff" d="M119.71,-130.6C150.76,-122.37 223.8,-103.02 268.34,-91.22"/>
<polygon fill="#63b8ff" stroke="#63b8ff" points="269.43,-94.55 278.2,-88.6 267.63,-87.78 269.43,-94.55"/>
</a>
</g>
<g id="a_edge4&#45;headlabel"><a xlink:href="dir_000007_000013.html" target="_top" xlink:title="1">
<text text-anchor="middle" x="266.68" y="-95.71" font-family="Helvetica,sans-Serif" font-size="10.00" fill="#63b8ff">1</text>
</a>
</g>
</g>
<!-- dir_c184e51c84f2c3f0345bbc8a0d75d3e1&#45;&gt;dir_ae9a93452e2a84339148a16bcf2eb561 -->
<g id="edge5" class="edge">
<title>dir_c184e51c84f2c3f0345bbc8a0d75d3e1&#45;&gt;dir_ae9a93452e2a84339148a16bcf2eb561</title>
<g id="a_edge5"><a xlink:href="dir_000007_000009.html" target="_top">
<path fill="none" stroke="#63b8ff" d="M119.67,-134.07C166.74,-132.37 312.53,-124.34 341,-90 370.48,-54.45 289.97,-37.12 243.06,-30.24"/>
<polygon fill="#63b8ff" stroke="#63b8ff" points="243.44,-26.76 233.05,-28.85 242.48,-33.69 243.44,-26.76"/>
</a>
</g>
<g id="a_edge5&#45;headlabel"><a xlink:href="dir_000007_000009.html" target="_top" xlink:title="10">
<text text-anchor="middle" x="247.39" y="-21.94" font-family="Helvetica,sans-Serif" font-size="10.00" fill="#63b8ff">10</text>
</a>
</g>
</g>
<!-- dir_c184e51c84f2c3f0345bbc8a0d75d3e1&#45;&gt;dir_e488ee1cea97fb16abdb5ccc78d2123b -->
<g id="edge6" class="edge">
<title>dir_c184e51c84f2c3f0345bbc8a0d75d3e1&#45;&gt;dir_e488ee1cea97fb16abdb5ccc78d2123b</title>
<g id="a_edge6"><a xlink:href="dir_000007_000014.html" target="_top">
<path fill="none" stroke="#63b8ff" d="M119.75,-132.12C158.55,-125.81 266.61,-107.91 356,-90 357.27,-89.75 358.56,-89.48 359.86,-89.21"/>
<polygon fill="#63b8ff" stroke="#63b8ff" points="360.87,-92.58 369.91,-87.06 359.4,-85.73 360.87,-92.58"/>
</a>
</g>
<g id="a_edge6&#45;headlabel"><a xlink:href="dir_000007_000014.html" target="_top" xlink:title="14">
<text text-anchor="middle" x="357.95" y="-93.61" font-family="Helvetica,sans-Serif" font-size="10.00" fill="#63b8ff">14</text>
</a>
</g>
</g>
<!-- dir_c184e51c84f2c3f0345bbc8a0d75d3e1&#45;&gt;dir_f015963f69ae14c534311f2118856536 -->
<g id="edge7" class="edge">
<title>dir_c184e51c84f2c3f0345bbc8a0d75d3e1&#45;&gt;dir_f015963f69ae14c534311f2118856536</title>
<g id="a_edge7"><a xlink:href="dir_000007_000019.html" target="_top">
<path fill="none" stroke="#63b8ff" d="M119.58,-133.26C164.08,-129.31 302.19,-115.88 425.81,-89.96"/>
<polygon fill="#63b8ff" stroke="#63b8ff" points="426.77,-93.34 435.82,-87.83 425.31,-86.49 426.77,-93.34"/>
</a>
</g>
<g id="a_edge7&#45;headlabel"><a xlink:href="dir_000007_000019.html" target="_top" xlink:title="1">
<text text-anchor="middle" x="423.84" y="-94.36" font-family="Helvetica,sans-Serif" font-size="10.00" fill="#63b8ff">1</text>
</a>
</g>
</g>
<!-- dir_5cf609af6c39cb1b550954c4a9b49fff -->
<g id="node8" class="node">
<title>dir_5cf609af6c39cb1b550954c4a9b49fff</title>
<g id="a_node8"><a xlink:href="dir_5cf609af6c39cb1b550954c4a9b49fff.html" target="_top" xlink:title="model_loaders">
<polygon fill="#a2b4d6" stroke="#404040" points="118.5,-90 29.5,-90 29.5,-71 118.5,-71 118.5,-90"/>
<text text-anchor="middle" x="74" y="-78" font-family="Helvetica,sans-Serif" font-size="10.00">model_loaders</text>
</a>
</g>
</g>
<!-- dir_c184e51c84f2c3f0345bbc8a0d75d3e1&#45;&gt;dir_5cf609af6c39cb1b550954c4a9b49fff -->
<g id="edge3" class="edge">
<title>dir_c184e51c84f2c3f0345bbc8a0d75d3e1&#45;&gt;dir_5cf609af6c39cb1b550954c4a9b49fff</title>
<g id="a_edge3"><a xlink:href="dir_000007_000010.html" target="_top">
<path fill="none" stroke="#63b8ff" d="M99.88,-125.75C95.64,-118.49 89.47,-107.95 84.22,-98.98"/>
<polygon fill="#63b8ff" stroke="#63b8ff" points="87.09,-96.95 79.02,-90.09 81.05,-100.49 87.09,-96.95"/>
</a>
</g>
<g id="a_edge3&#45;headlabel"><a xlink:href="dir_000007_000010.html" target="_top" xlink:title="1">
<text text-anchor="middle" x="91.36" y="-96.12" font-family="Helvetica,sans-Serif" font-size="10.00" fill="#63b8ff">1</text>
</a>
</g>
</g>
<!-- dir_5cf609af6c39cb1b550954c4a9b49fff&#45;&gt;dir_ae9a93452e2a84339148a16bcf2eb561 -->
<g id="edge8" class="edge">
<title>dir_5cf609af6c39cb1b550954c4a9b49fff&#45;&gt;dir_ae9a93452e2a84339148a16bcf2eb561</title>
<g id="a_edge8"><a xlink:href="dir_000010_000009.html" target="_top">
<path fill="none" stroke="#63b8ff" d="M96.17,-70.98C119.18,-62.15 155.33,-48.27 181.12,-38.36"/>
<polygon fill="#63b8ff" stroke="#63b8ff" points="182.71,-41.5 190.79,-34.65 180.2,-34.96 182.71,-41.5"/>
</a>
</g>
<g id="a_edge8&#45;headlabel"><a xlink:href="dir_000010_000009.html" target="_top" xlink:title="4">
<text text-anchor="middle" x="180.37" y="-42.94" font-family="Helvetica,sans-Serif" font-size="10.00" fill="#63b8ff">4</text>
</a>
</g>
</g>
<!-- dir_ef516d76f21f096676b9e6c12b74d1fb -->
<g id="node9" class="node">
<title>dir_ef516d76f21f096676b9e6c12b74d1fb</title>
<g id="a_node9"><a xlink:href="dir_ef516d76f21f096676b9e6c12b74d1fb.html" target="_top" xlink:title="socket">
<polygon fill="#a2b4d6" stroke="#404040" points="72,-145 24,-145 24,-126 72,-126 72,-145"/>
<text text-anchor="middle" x="48" y="-133" font-family="Helvetica,sans-Serif" font-size="10.00">socket</text>
</a>
</g>
</g>
</g>
</svg>
