<?xml version="1.0" encoding="UTF-8" standalone="no"?>
<!DOCTYPE svg PUBLIC "-//W3C//DTD SVG 1.1//EN"
 "http://www.w3.org/Graphics/SVG/1.1/DTD/svg11.dtd">
<!-- Generated by graphviz version 2.43.0 (0)
 -->
<!-- Title: src/classes/nodes Pages: 1 -->
<svg width="399pt" height="125pt"
 viewBox="0.00 0.00 398.50 125.00" xmlns="http://www.w3.org/2000/svg" xmlns:xlink="http://www.w3.org/1999/xlink">
<g id="graph0" class="graph" transform="scale(1 1) rotate(0) translate(4 121)">
<title>src/classes/nodes</title>
<g id="clust1" class="cluster">
<title>clusterdir_018e9aafb459e6e1a4953404cb0c0b1d</title>
<g id="a_clust1"><a xlink:href="dir_018e9aafb459e6e1a4953404cb0c0b1d.html" target="_top" xlink:title="classes">
<polygon fill="#edf0f7" stroke="#7f7f7f" stroke-dasharray="5,2" points="8,-39 8,-109 363,-109 363,-39 8,-39"/>
<text text-anchor="middle" x="185.5" y="-97" font-family="Helvetica,sans-Serif" font-size="10.00">classes</text>
</a>
</g>
</g>
<g id="clust2" class="cluster">
<title>clusterdir_27d2482428742dd719ba843f58f9643f</title>
<g id="a_clust2"><a xlink:href="dir_27d2482428742dd719ba843f58f9643f.html" target="_top">
<polygon fill="#edf0f7" stroke="#404040" stroke-width="2" points="16,-47 16,-82 355,-82 355,-47 16,-47"/>
</a>
</g>
</g>
<!-- dir_27d2482428742dd719ba843f58f9643f -->
<g id="node1" class="node">
<title>dir_27d2482428742dd719ba843f58f9643f</title>
<text text-anchor="middle" x="183" y="-62" font-family="Helvetica,sans-Serif" font-size="10.00">nodes</text>
</g>
<!-- dir_452baf35e1d7639c9f2a5ece4ec85855 -->
<g id="node6" class="node">
<title>dir_452baf35e1d7639c9f2a5ece4ec85855</title>
<g id="a_node6"><a xlink:href="dir_452baf35e1d7639c9f2a5ece4ec85855.html" target="_top" xlink:title="storage">
<polygon fill="#edf0f7" stroke="#7f7f7f" points="94.5,-19 41.5,-19 41.5,0 94.5,0 94.5,-19"/>
<text text-anchor="middle" x="68" y="-7" font-family="Helvetica,sans-Serif" font-size="10.00">storage</text>
</a>
</g>
</g>
<!-- dir_27d2482428742dd719ba843f58f9643f&#45;&gt;dir_452baf35e1d7639c9f2a5ece4ec85855 -->
<g id="edge1" class="edge">
<title>dir_27d2482428742dd719ba843f58f9643f&#45;&gt;dir_452baf35e1d7639c9f2a5ece4ec85855</title>
<g id="a_edge1"><a xlink:href="dir_000011_000018.html" target="_top">
<path fill="none" stroke="#63b8ff" d="M173.48,-54.9C167.39,-49.74 159.14,-43.36 151,-39 136.49,-31.22 119.44,-24.93 104.58,-20.26"/>
<polygon fill="#63b8ff" stroke="#63b8ff" points="105.29,-16.82 94.7,-17.29 103.27,-23.52 105.29,-16.82"/>
</a>
</g>
<g id="a_edge1&#45;headlabel"><a xlink:href="dir_000011_000018.html" target="_top" xlink:title="35">
<text text-anchor="middle" x="109.55" y="-12.63" font-family="Helvetica,sans-Serif" font-size="10.00" fill="#63b8ff">35</text>
</a>
</g>
</g>
<!-- dir_ae9a93452e2a84339148a16bcf2eb561 -->
<g id="node8" class="node">
<title>dir_ae9a93452e2a84339148a16bcf2eb561</title>
<g id="a_node8"><a xlink:href="dir_ae9a93452e2a84339148a16bcf2eb561.html" target="_top" xlink:title="math">
<polygon fill="#edf0f7" stroke="#7f7f7f" points="155,-19 113,-19 113,0 155,0 155,-19"/>
<text text-anchor="middle" x="134" y="-7" font-family="Helvetica,sans-Serif" font-size="10.00">math</text>
</a>
</g>
</g>
<!-- dir_27d2482428742dd719ba843f58f9643f&#45;&gt;dir_ae9a93452e2a84339148a16bcf2eb561 -->
<g id="edge2" class="edge">
<title>dir_27d2482428742dd719ba843f58f9643f&#45;&gt;dir_ae9a93452e2a84339148a16bcf2eb561</title>
<g id="a_edge2"><a xlink:href="dir_000011_000009.html" target="_top">
<path fill="none" stroke="#63b8ff" d="M174.91,-54.75C167.84,-47.11 157.41,-35.82 148.85,-26.56"/>
<polygon fill="#63b8ff" stroke="#63b8ff" points="151.3,-24.06 141.94,-19.09 146.16,-28.81 151.3,-24.06"/>
</a>
</g>
<g id="a_edge2&#45;headlabel"><a xlink:href="dir_000011_000009.html" target="_top" xlink:title="35">
<text text-anchor="middle" x="155.82" y="-22.27" font-family="Helvetica,sans-Serif" font-size="10.00" fill="#63b8ff">35</text>
</a>
</g>
</g>
<!-- dir_c184e51c84f2c3f0345bbc8a0d75d3e1 -->
<g id="node9" class="node">
<title>dir_c184e51c84f2c3f0345bbc8a0d75d3e1</title>
<g id="a_node9"><a xlink:href="dir_c184e51c84f2c3f0345bbc8a0d75d3e1.html" target="_top" xlink:title="io">
<polygon fill="#edf0f7" stroke="red" stroke-dasharray="5,2" points="202.5,-19 173.5,-19 173.5,0 202.5,0 202.5,-19"/>
<text text-anchor="middle" x="188" y="-7" font-family="Helvetica,sans-Serif" font-size="10.00">io</text>
</a>
</g>
</g>
<!-- dir_27d2482428742dd719ba843f58f9643f&#45;&gt;dir_c184e51c84f2c3f0345bbc8a0d75d3e1 -->
<g id="edge3" class="edge">
<title>dir_27d2482428742dd719ba843f58f9643f&#45;&gt;dir_c184e51c84f2c3f0345bbc8a0d75d3e1</title>
<g id="a_edge3"><a xlink:href="dir_000011_000007.html" target="_top">
<path fill="none" stroke="#63b8ff" d="M183.83,-54.75C184.48,-47.8 185.42,-37.85 186.24,-29.13"/>
<polygon fill="#63b8ff" stroke="#63b8ff" points="189.73,-29.37 187.19,-19.09 182.77,-28.72 189.73,-29.37"/>
</a>
</g>
<g id="a_edge3&#45;headlabel"><a xlink:href="dir_000011_000007.html" target="_top" xlink:title="58">
<text text-anchor="middle" x="192.22" y="-30.72" font-family="Helvetica,sans-Serif" font-size="10.00" fill="#63b8ff">58</text>
</a>
</g>
</g>
<!-- dir_e488ee1cea97fb16abdb5ccc78d2123b -->
<g id="node10" class="node">
<title>dir_e488ee1cea97fb16abdb5ccc78d2123b</title>
<g id="a_node10"><a xlink:href="dir_e488ee1cea97fb16abdb5ccc78d2123b.html" target="_top" xlink:title="render">
<polygon fill="#edf0f7" stroke="#7f7f7f" points="269,-19 221,-19 221,0 269,0 269,-19"/>
<text text-anchor="middle" x="245" y="-7" font-family="Helvetica,sans-Serif" font-size="10.00">render</text>
</a>
</g>
</g>
<!-- dir_27d2482428742dd719ba843f58f9643f&#45;&gt;dir_e488ee1cea97fb16abdb5ccc78d2123b -->
<g id="edge4" class="edge">
<title>dir_27d2482428742dd719ba843f58f9643f&#45;&gt;dir_e488ee1cea97fb16abdb5ccc78d2123b</title>
<g id="a_edge4"><a xlink:href="dir_000011_000014.html" target="_top">
<path fill="none" stroke="#63b8ff" d="M192.96,-54.98C202.13,-47.15 215.94,-35.34 227.03,-25.86"/>
<polygon fill="#63b8ff" stroke="#63b8ff" points="229.53,-28.33 234.86,-19.17 224.98,-23.01 229.53,-28.33"/>
</a>
</g>
<g id="a_edge4&#45;headlabel"><a xlink:href="dir_000011_000014.html" target="_top" xlink:title="51">
<text text-anchor="middle" x="228.64" y="-30.32" font-family="Helvetica,sans-Serif" font-size="10.00" fill="#63b8ff">51</text>
</a>
</g>
</g>
<!-- dir_59dabfde000804d426031c34915e9fe8 -->
<g id="node2" class="node">
<title>dir_59dabfde000804d426031c34915e9fe8</title>
<g id="a_node2"><a xlink:href="dir_59dabfde000804d426031c34915e9fe8.html" target="_top" xlink:title="cshapes">
<polygon fill="#a2b4d6" stroke="#404040" points="142,-74 86,-74 86,-55 142,-55 142,-74"/>
<text text-anchor="middle" x="114" y="-62" font-family="Helvetica,sans-Serif" font-size="10.00">cshapes</text>
</a>
</g>
</g>
<!-- dir_59dabfde000804d426031c34915e9fe8&#45;&gt;dir_452baf35e1d7639c9f2a5ece4ec85855 -->
<g id="edge5" class="edge">
<title>dir_59dabfde000804d426031c34915e9fe8&#45;&gt;dir_452baf35e1d7639c9f2a5ece4ec85855</title>
<g id="a_edge5"><a xlink:href="dir_000002_000018.html" target="_top">
<path fill="none" stroke="#63b8ff" d="M106.4,-54.75C99.84,-47.18 90.18,-36.05 82.19,-26.84"/>
<polygon fill="#63b8ff" stroke="#63b8ff" points="84.65,-24.35 75.45,-19.09 79.37,-28.94 84.65,-24.35"/>
</a>
</g>
<g id="a_edge5&#45;headlabel"><a xlink:href="dir_000002_000018.html" target="_top" xlink:title="7">
<text text-anchor="middle" x="89.15" y="-22.7" font-family="Helvetica,sans-Serif" font-size="10.00" fill="#63b8ff">7</text>
</a>
</g>
</g>
<!-- dir_59dabfde000804d426031c34915e9fe8&#45;&gt;dir_ae9a93452e2a84339148a16bcf2eb561 -->
<g id="edge6" class="edge">
<title>dir_59dabfde000804d426031c34915e9fe8&#45;&gt;dir_ae9a93452e2a84339148a16bcf2eb561</title>
<g id="a_edge6"><a xlink:href="dir_000002_000009.html" target="_top">
<path fill="none" stroke="#63b8ff" d="M117.3,-54.75C119.98,-47.65 123.85,-37.4 127.19,-28.56"/>
<polygon fill="#63b8ff" stroke="#63b8ff" points="130.5,-29.68 130.76,-19.09 123.95,-27.21 130.5,-29.68"/>
</a>
</g>
<g id="a_edge6&#45;headlabel"><a xlink:href="dir_000002_000009.html" target="_top" xlink:title="7">
<text text-anchor="middle" x="131.89" y="-31.55" font-family="Helvetica,sans-Serif" font-size="10.00" fill="#63b8ff">7</text>
</a>
</g>
</g>
<!-- dir_59dabfde000804d426031c34915e9fe8&#45;&gt;dir_c184e51c84f2c3f0345bbc8a0d75d3e1 -->
<g id="edge7" class="edge">
<title>dir_59dabfde000804d426031c34915e9fe8&#45;&gt;dir_c184e51c84f2c3f0345bbc8a0d75d3e1</title>
<g id="a_edge7"><a xlink:href="dir_000002_000007.html" target="_top">
<path fill="none" stroke="#63b8ff" d="M125.89,-54.98C137.15,-46.92 154.29,-34.65 167.71,-25.03"/>
<polygon fill="#63b8ff" stroke="#63b8ff" points="169.8,-27.84 175.89,-19.17 165.73,-22.15 169.8,-27.84"/>
</a>
</g>
<g id="a_edge7&#45;headlabel"><a xlink:href="dir_000002_000007.html" target="_top" xlink:title="7">
<text text-anchor="middle" x="168.53" y="-29.74" font-family="Helvetica,sans-Serif" font-size="10.00" fill="#63b8ff">7</text>
</a>
</g>
</g>
<!-- dir_59dabfde000804d426031c34915e9fe8&#45;&gt;dir_e488ee1cea97fb16abdb5ccc78d2123b -->
<g id="edge8" class="edge">
<title>dir_59dabfde000804d426031c34915e9fe8&#45;&gt;dir_e488ee1cea97fb16abdb5ccc78d2123b</title>
<g id="a_edge8"><a xlink:href="dir_000002_000014.html" target="_top">
<path fill="none" stroke="#63b8ff" d="M125.16,-54.87C132.25,-49.71 141.8,-43.33 151,-39 161.77,-33.93 188.75,-25.92 211.06,-19.67"/>
<polygon fill="#63b8ff" stroke="#63b8ff" points="212.2,-22.99 220.91,-16.95 210.33,-16.24 212.2,-22.99"/>
</a>
</g>
<g id="a_edge8&#45;headlabel"><a xlink:href="dir_000002_000014.html" target="_top" xlink:title="7">
<text text-anchor="middle" x="209.5" y="-24.19" font-family="Helvetica,sans-Serif" font-size="10.00" fill="#63b8ff">7</text>
</a>
</g>
</g>
<!-- dir_508da4921e4ed46ab32b10b9bd4fb5a1 -->
<g id="node3" class="node">
<title>dir_508da4921e4ed46ab32b10b9bd4fb5a1</title>
<g id="a_node3"><a xlink:href="dir_508da4921e4ed46ab32b10b9bd4fb5a1.html" target="_top" xlink:title="frames">
<polygon fill="#a2b4d6" stroke="#404040" points="275.5,-74 224.5,-74 224.5,-55 275.5,-55 275.5,-74"/>
<text text-anchor="middle" x="250" y="-62" font-family="Helvetica,sans-Serif" font-size="10.00">frames</text>
</a>
</g>
</g>
<!-- dir_508da4921e4ed46ab32b10b9bd4fb5a1&#45;&gt;dir_452baf35e1d7639c9f2a5ece4ec85855 -->
<g id="edge9" class="edge">
<title>dir_508da4921e4ed46ab32b10b9bd4fb5a1&#45;&gt;dir_452baf35e1d7639c9f2a5ece4ec85855</title>
<g id="a_edge9"><a xlink:href="dir_000005_000018.html" target="_top">
<path fill="none" stroke="#63b8ff" d="M240.28,-54.95C233.61,-49.55 224.31,-42.88 215,-39 171.43,-20.86 155.02,-28.2 104.54,-18.91"/>
<polygon fill="#63b8ff" stroke="#63b8ff" points="105.19,-15.47 94.7,-16.97 103.84,-22.34 105.19,-15.47"/>
</a>
</g>
<g id="a_edge9&#45;headlabel"><a xlink:href="dir_000005_000018.html" target="_top" xlink:title="10">
<text text-anchor="middle" x="109.26" y="-10.88" font-family="Helvetica,sans-Serif" font-size="10.00" fill="#63b8ff">10</text>
</a>
</g>
</g>
<!-- dir_99d0482cf009f9d97a0877749b817f19 -->
<g id="node7" class="node">
<title>dir_99d0482cf009f9d97a0877749b817f19</title>
<g id="a_node7"><a xlink:href="dir_99d0482cf009f9d97a0877749b817f19.html" target="_top" xlink:title="gui">
<polygon fill="#edf0f7" stroke="#7f7f7f" points="319,-19 287,-19 287,0 319,0 319,-19"/>
<text text-anchor="middle" x="303" y="-7" font-family="Helvetica,sans-Serif" font-size="10.00">gui</text>
</a>
</g>
</g>
<!-- dir_508da4921e4ed46ab32b10b9bd4fb5a1&#45;&gt;dir_99d0482cf009f9d97a0877749b817f19 -->
<g id="edge10" class="edge">
<title>dir_508da4921e4ed46ab32b10b9bd4fb5a1&#45;&gt;dir_99d0482cf009f9d97a0877749b817f19</title>
<g id="a_edge10"><a xlink:href="dir_000005_000006.html" target="_top">
<path fill="none" stroke="#63b8ff" d="M258.75,-54.75C266.47,-47.03 277.9,-35.6 287.22,-26.28"/>
<polygon fill="#63b8ff" stroke="#63b8ff" points="289.81,-28.64 294.41,-19.09 284.86,-23.69 289.81,-28.64"/>
</a>
</g>
<g id="a_edge10&#45;headlabel"><a xlink:href="dir_000005_000006.html" target="_top" xlink:title="10">
<text text-anchor="middle" x="289.28" y="-30.68" font-family="Helvetica,sans-Serif" font-size="10.00" fill="#63b8ff">10</text>
</a>
</g>
</g>
<!-- dir_508da4921e4ed46ab32b10b9bd4fb5a1&#45;&gt;dir_ae9a93452e2a84339148a16bcf2eb561 -->
<g id="edge11" class="edge">
<title>dir_508da4921e4ed46ab32b10b9bd4fb5a1&#45;&gt;dir_ae9a93452e2a84339148a16bcf2eb561</title>
<g id="a_edge11"><a xlink:href="dir_000005_000009.html" target="_top">
<path fill="none" stroke="#63b8ff" d="M239.45,-54.97C232.74,-49.85 223.71,-43.47 215,-39 205.97,-34.36 183.6,-26.59 164.66,-20.33"/>
<polygon fill="#63b8ff" stroke="#63b8ff" points="165.75,-17 155.15,-17.22 163.57,-23.65 165.75,-17"/>
</a>
</g>
<g id="a_edge11&#45;headlabel"><a xlink:href="dir_000005_000009.html" target="_top" xlink:title="10">
<text text-anchor="middle" x="170.05" y="-12.92" font-family="Helvetica,sans-Serif" font-size="10.00" fill="#63b8ff">10</text>
</a>
</g>
</g>
<!-- dir_508da4921e4ed46ab32b10b9bd4fb5a1&#45;&gt;dir_c184e51c84f2c3f0345bbc8a0d75d3e1 -->
<g id="edge12" class="edge">
<title>dir_508da4921e4ed46ab32b10b9bd4fb5a1&#45;&gt;dir_c184e51c84f2c3f0345bbc8a0d75d3e1</title>
<g id="a_edge12"><a xlink:href="dir_000005_000007.html" target="_top">
<path fill="none" stroke="#63b8ff" d="M240.04,-54.98C230.87,-47.15 217.06,-35.34 205.97,-25.86"/>
<polygon fill="#63b8ff" stroke="#63b8ff" points="208.02,-23.01 198.14,-19.17 203.47,-28.33 208.02,-23.01"/>
</a>
</g>
<g id="a_edge12&#45;headlabel"><a xlink:href="dir_000005_000007.html" target="_top" xlink:title="26">
<text text-anchor="middle" x="212.6" y="-20.69" font-family="Helvetica,sans-Serif" font-size="10.00" fill="#63b8ff">26</text>
</a>
</g>
</g>
<!-- dir_508da4921e4ed46ab32b10b9bd4fb5a1&#45;&gt;dir_e488ee1cea97fb16abdb5ccc78d2123b -->
<g id="edge13" class="edge">
<title>dir_508da4921e4ed46ab32b10b9bd4fb5a1&#45;&gt;dir_e488ee1cea97fb16abdb5ccc78d2123b</title>
<g id="a_edge13"><a xlink:href="dir_000005_000014.html" target="_top">
<path fill="none" stroke="#63b8ff" d="M249.17,-54.75C248.52,-47.8 247.58,-37.85 246.76,-29.13"/>
<polygon fill="#63b8ff" stroke="#63b8ff" points="250.23,-28.72 245.81,-19.09 243.27,-29.37 250.23,-28.72"/>
</a>
</g>
<g id="a_edge13&#45;headlabel"><a xlink:href="dir_000005_000014.html" target="_top" xlink:title="10">
<text text-anchor="middle" x="253.4" y="-29.53" font-family="Helvetica,sans-Serif" font-size="10.00" fill="#63b8ff">10</text>
</a>
</g>
</g>
<!-- dir_50d9b5c282cafe7e45ba380ada578725 -->
<g id="node4" class="node">
<title>dir_50d9b5c282cafe7e45ba380ada578725</title>
<g id="a_node4"><a xlink:href="dir_50d9b5c282cafe7e45ba380ada578725.html" target="_top" xlink:title="lights">
<polygon fill="#a2b4d6" stroke="#404040" points="68,-74 24,-74 24,-55 68,-55 68,-74"/>
<text text-anchor="middle" x="46" y="-62" font-family="Helvetica,sans-Serif" font-size="10.00">lights</text>
</a>
</g>
</g>
<!-- dir_50d9b5c282cafe7e45ba380ada578725&#45;&gt;dir_452baf35e1d7639c9f2a5ece4ec85855 -->
<g id="edge14" class="edge">
<title>dir_50d9b5c282cafe7e45ba380ada578725&#45;&gt;dir_452baf35e1d7639c9f2a5ece4ec85855</title>
<g id="a_edge14"><a xlink:href="dir_000008_000018.html" target="_top">
<path fill="none" stroke="#63b8ff" d="M49.63,-54.75C52.58,-47.65 56.83,-37.4 60.51,-28.56"/>
<polygon fill="#63b8ff" stroke="#63b8ff" points="63.83,-29.67 64.43,-19.09 57.37,-26.98 63.83,-29.67"/>
</a>
</g>
<g id="a_edge14&#45;headlabel"><a xlink:href="dir_000008_000018.html" target="_top" xlink:title="4">
<text text-anchor="middle" x="65.08" y="-31.58" font-family="Helvetica,sans-Serif" font-size="10.00" fill="#63b8ff">4</text>
</a>
</g>
</g>
<!-- dir_50d9b5c282cafe7e45ba380ada578725&#45;&gt;dir_ae9a93452e2a84339148a16bcf2eb561 -->
<g id="edge15" class="edge">
<title>dir_50d9b5c282cafe7e45ba380ada578725&#45;&gt;dir_ae9a93452e2a84339148a16bcf2eb561</title>
<g id="a_edge15"><a xlink:href="dir_000008_000009.html" target="_top">
<path fill="none" stroke="#63b8ff" d="M55.94,-54.78C61.84,-49.84 69.59,-43.71 77,-39 85.87,-33.36 96.01,-27.98 105.25,-23.45"/>
<polygon fill="#63b8ff" stroke="#63b8ff" points="106.94,-26.52 114.46,-19.05 103.93,-20.2 106.94,-26.52"/>
</a>
</g>
<g id="a_edge15&#45;headlabel"><a xlink:href="dir_000008_000009.html" target="_top" xlink:title="4">
<text text-anchor="middle" x="104.92" y="-28.13" font-family="Helvetica,sans-Serif" font-size="10.00" fill="#63b8ff">4</text>
</a>
</g>
</g>
<!-- dir_50d9b5c282cafe7e45ba380ada578725&#45;&gt;dir_c184e51c84f2c3f0345bbc8a0d75d3e1 -->
<g id="edge16" class="edge">
<title>dir_50d9b5c282cafe7e45ba380ada578725&#45;&gt;dir_c184e51c84f2c3f0345bbc8a0d75d3e1</title>
<g id="a_edge16"><a xlink:href="dir_000008_000007.html" target="_top">
<path fill="none" stroke="#63b8ff" d="M54.76,-54.82C60.61,-49.5 68.71,-42.98 77,-39 110.19,-23.08 123.89,-29.03 163.59,-18.71"/>
<polygon fill="#63b8ff" stroke="#63b8ff" points="164.67,-22.04 173.36,-15.98 162.79,-15.3 164.67,-22.04"/>
</a>
</g>
<g id="a_edge16&#45;headlabel"><a xlink:href="dir_000008_000007.html" target="_top" xlink:title="4">
<text text-anchor="middle" x="161.97" y="-23.24" font-family="Helvetica,sans-Serif" font-size="10.00" fill="#63b8ff">4</text>
</a>
</g>
</g>
<!-- dir_50d9b5c282cafe7e45ba380ada578725&#45;&gt;dir_e488ee1cea97fb16abdb5ccc78d2123b -->
<g id="edge17" class="edge">
<title>dir_50d9b5c282cafe7e45ba380ada578725&#45;&gt;dir_e488ee1cea97fb16abdb5ccc78d2123b</title>
<g id="a_edge17"><a xlink:href="dir_000008_000014.html" target="_top">
<path fill="none" stroke="#63b8ff" d="M54.41,-54.84C60.22,-49.39 68.44,-42.71 77,-39 132.26,-15.08 151.94,-30.76 211,-19 211.1,-18.98 211.2,-18.96 211.3,-18.94"/>
<polygon fill="#63b8ff" stroke="#63b8ff" points="211.9,-22.39 220.92,-16.83 210.4,-15.55 211.9,-22.39"/>
</a>
</g>
<g id="a_edge17&#45;headlabel"><a xlink:href="dir_000008_000014.html" target="_top" xlink:title="12">
<text text-anchor="middle" x="209" y="-23.44" font-family="Helvetica,sans-Serif" font-size="10.00" fill="#63b8ff">12</text>
</a>
</g>
</g>
<!-- dir_5f7004c4d7b64413b965d15675669cf1 -->
<g id="node5" class="node">
<title>dir_5f7004c4d7b64413b965d15675669cf1</title>
<g id="a_node5"><a xlink:href="dir_5f7004c4d7b64413b965d15675669cf1.html" target="_top" xlink:title="physics">
<polygon fill="#a2b4d6" stroke="#404040" points="346.5,-74 293.5,-74 293.5,-55 346.5,-55 346.5,-74"/>
<text text-anchor="middle" x="320" y="-62" font-family="Helvetica,sans-Serif" font-size="10.00">physics</text>
</a>
</g>
</g>
<!-- dir_5f7004c4d7b64413b965d15675669cf1&#45;&gt;dir_452baf35e1d7639c9f2a5ece4ec85855 -->
<g id="edge18" class="edge">
<title>dir_5f7004c4d7b64413b965d15675669cf1&#45;&gt;dir_452baf35e1d7639c9f2a5ece4ec85855</title>
<g id="a_edge18"><a xlink:href="dir_000012_000018.html" target="_top">
<path fill="none" stroke="#63b8ff" d="M310.34,-54.99C303.48,-49.45 293.79,-42.62 284,-39 211.45,-12.18 185.36,-31.1 104.77,-18.83"/>
<polygon fill="#63b8ff" stroke="#63b8ff" points="105.1,-15.34 94.66,-17.18 103.96,-22.25 105.1,-15.34"/>
</a>
</g>
<g id="a_edge18&#45;headlabel"><a xlink:href="dir_000012_000018.html" target="_top" xlink:title="6">
<text text-anchor="middle" x="109.1" y="-10.62" font-family="Helvetica,sans-Serif" font-size="10.00" fill="#63b8ff">6</text>
</a>
</g>
</g>
<!-- dir_5f7004c4d7b64413b965d15675669cf1&#45;&gt;dir_ae9a93452e2a84339148a16bcf2eb561 -->
<g id="edge20" class="edge">
<title>dir_5f7004c4d7b64413b965d15675669cf1&#45;&gt;dir_ae9a93452e2a84339148a16bcf2eb561</title>
<g id="a_edge20"><a xlink:href="dir_000012_000009.html" target="_top">
<path fill="none" stroke="#63b8ff" d="M309.98,-54.92C303.11,-49.5 293.54,-42.83 284,-39 236.66,-20.02 218.8,-29.58 165.27,-18.97"/>
<polygon fill="#63b8ff" stroke="#63b8ff" points="165.74,-15.49 155.23,-16.83 164.28,-22.34 165.74,-15.49"/>
</a>
</g>
<g id="a_edge20&#45;headlabel"><a xlink:href="dir_000012_000009.html" target="_top" xlink:title="6">
<text text-anchor="middle" x="169.85" y="-10.96" font-family="Helvetica,sans-Serif" font-size="10.00" fill="#63b8ff">6</text>
</a>
</g>
</g>
<!-- dir_5f7004c4d7b64413b965d15675669cf1&#45;&gt;dir_c184e51c84f2c3f0345bbc8a0d75d3e1 -->
<g id="edge21" class="edge">
<title>dir_5f7004c4d7b64413b965d15675669cf1&#45;&gt;dir_c184e51c84f2c3f0345bbc8a0d75d3e1</title>
<g id="a_edge21"><a xlink:href="dir_000012_000007.html" target="_top">
<path fill="none" stroke="#63b8ff" d="M309.22,-54.78C302.34,-49.58 293.05,-43.2 284,-39 256.46,-26.23 245.57,-28.44 212.59,-18.9"/>
<polygon fill="#63b8ff" stroke="#63b8ff" points="213.25,-15.45 202.67,-15.88 211.21,-22.14 213.25,-15.45"/>
</a>
</g>
<g id="a_edge21&#45;headlabel"><a xlink:href="dir_000012_000007.html" target="_top" xlink:title="12">
<text text-anchor="middle" x="217.52" y="-11.28" font-family="Helvetica,sans-Serif" font-size="10.00" fill="#63b8ff">12</text>
</a>
</g>
</g>
<!-- dir_5f7004c4d7b64413b965d15675669cf1&#45;&gt;dir_e488ee1cea97fb16abdb5ccc78d2123b -->
<g id="edge22" class="edge">
<title>dir_5f7004c4d7b64413b965d15675669cf1&#45;&gt;dir_e488ee1cea97fb16abdb5ccc78d2123b</title>
<g id="a_edge22"><a xlink:href="dir_000012_000014.html" target="_top">
<path fill="none" stroke="#63b8ff" d="M307.95,-54.98C296.54,-46.92 279.17,-34.65 265.57,-25.03"/>
<polygon fill="#63b8ff" stroke="#63b8ff" points="267.46,-22.08 257.27,-19.17 263.42,-27.8 267.46,-22.08"/>
</a>
</g>
<g id="a_edge22&#45;headlabel"><a xlink:href="dir_000012_000014.html" target="_top" xlink:title="12">
<text text-anchor="middle" x="272.03" y="-19.34" font-family="Helvetica,sans-Serif" font-size="10.00" fill="#63b8ff">12</text>
</a>
</g>
</g>
<!-- dir_8250e12e5a19acb8ece30f1703b6dc16 -->
<g id="node11" class="node">
<title>dir_8250e12e5a19acb8ece30f1703b6dc16</title>
<g id="a_node11"><a xlink:href="dir_8250e12e5a19acb8ece30f1703b6dc16.html" target="_top" xlink:title="physics">
<polygon fill="#edf0f7" stroke="#7f7f7f" points="390.5,-19 337.5,-19 337.5,0 390.5,0 390.5,-19"/>
<text text-anchor="middle" x="364" y="-7" font-family="Helvetica,sans-Serif" font-size="10.00">physics</text>
</a>
</g>
</g>
<!-- dir_5f7004c4d7b64413b965d15675669cf1&#45;&gt;dir_8250e12e5a19acb8ece30f1703b6dc16 -->
<g id="edge19" class="edge">
<title>dir_5f7004c4d7b64413b965d15675669cf1&#45;&gt;dir_8250e12e5a19acb8ece30f1703b6dc16</title>
<g id="a_edge19"><a xlink:href="dir_000012_000013.html" target="_top">
<path fill="none" stroke="#63b8ff" d="M327.27,-54.75C333.54,-47.18 342.79,-36.05 350.43,-26.84"/>
<polygon fill="#63b8ff" stroke="#63b8ff" points="353.17,-29.02 356.87,-19.09 347.79,-24.55 353.17,-29.02"/>
</a>
</g>
<g id="a_edge19&#45;headlabel"><a xlink:href="dir_000012_000013.html" target="_top" xlink:title="1">
<text text-anchor="middle" x="353.06" y="-31.1" font-family="Helvetica,sans-Serif" font-size="10.00" fill="#63b8ff">1</text>
</a>
</g>
</g>
</g>
</svg>
