<?xml version="1.0" encoding="UTF-8" standalone="no"?>
<!DOCTYPE svg PUBLIC "-//W3C//DTD SVG 1.1//EN"
 "http://www.w3.org/Graphics/SVG/1.1/DTD/svg11.dtd">
<!-- Generated by graphviz version 2.43.0 (0)
 -->
<!-- Title: src/classes/nodes/physics Pages: 1 -->
<svg width="307pt" height="125pt"
 viewBox="0.00 0.00 307.00 125.00" xmlns="http://www.w3.org/2000/svg" xmlns:xlink="http://www.w3.org/1999/xlink">
<g id="graph0" class="graph" transform="scale(1 1) rotate(0) translate(4 121)">
<title>src/classes/nodes/physics</title>
<g id="clust1" class="cluster">
<title>clusterdir_27d2482428742dd719ba843f58f9643f</title>
<g id="a_clust1"><a xlink:href="dir_27d2482428742dd719ba843f58f9643f.html" target="_top" xlink:title="nodes">
<polygon fill="#edf0f7" stroke="#7f7f7f" stroke-dasharray="5,2" points="118.5,-39 118.5,-109 271.5,-109 271.5,-39 118.5,-39"/>
<text text-anchor="middle" x="195" y="-97" font-family="Helvetica,sans-Serif" font-size="10.00">nodes</text>
</a>
</g>
</g>
<g id="clust2" class="cluster">
<title>clusterdir_5f7004c4d7b64413b965d15675669cf1</title>
<g id="a_clust2"><a xlink:href="dir_5f7004c4d7b64413b965d15675669cf1.html" target="_top">
<polygon fill="#edf0f7" stroke="#404040" stroke-width="2" points="126.5,-47 126.5,-82 263.5,-82 263.5,-47 126.5,-47"/>
</a>
</g>
</g>
<!-- dir_5f7004c4d7b64413b965d15675669cf1 -->
<g id="node1" class="node">
<title>dir_5f7004c4d7b64413b965d15675669cf1</title>
<text text-anchor="middle" x="161.5" y="-62" font-family="Helvetica,sans-Serif" font-size="10.00">physics</text>
</g>
<!-- dir_452baf35e1d7639c9f2a5ece4ec85855 -->
<g id="node3" class="node">
<title>dir_452baf35e1d7639c9f2a5ece4ec85855</title>
<g id="a_node3"><a xlink:href="dir_452baf35e1d7639c9f2a5ece4ec85855.html" target="_top" xlink:title="storage">
<polygon fill="#edf0f7" stroke="#7f7f7f" points="191,-19 138,-19 138,0 191,0 191,-19"/>
<text text-anchor="middle" x="164.5" y="-7" font-family="Helvetica,sans-Serif" font-size="10.00">storage</text>
</a>
</g>
</g>
<!-- dir_5f7004c4d7b64413b965d15675669cf1&#45;&gt;dir_452baf35e1d7639c9f2a5ece4ec85855 -->
<g id="edge1" class="edge">
<title>dir_5f7004c4d7b64413b965d15675669cf1&#45;&gt;dir_452baf35e1d7639c9f2a5ece4ec85855</title>
<g id="a_edge1"><a xlink:href="dir_000012_000018.html" target="_top">
<path fill="none" stroke="#63b8ff" d="M162,-54.75C162.39,-47.8 162.95,-37.85 163.45,-29.13"/>
<polygon fill="#63b8ff" stroke="#63b8ff" points="166.94,-29.27 164.01,-19.09 159.95,-28.88 166.94,-29.27"/>
</a>
</g>
<g id="a_edge1&#45;headlabel"><a xlink:href="dir_000012_000018.html" target="_top" xlink:title="6">
<text text-anchor="middle" x="169.57" y="-30.52" font-family="Helvetica,sans-Serif" font-size="10.00" fill="#63b8ff">6</text>
</a>
</g>
</g>
<!-- dir_8250e12e5a19acb8ece30f1703b6dc16 -->
<g id="node4" class="node">
<title>dir_8250e12e5a19acb8ece30f1703b6dc16</title>
<g id="a_node4"><a xlink:href="dir_8250e12e5a19acb8ece30f1703b6dc16.html" target="_top" xlink:title="physics">
<polygon fill="#edf0f7" stroke="#7f7f7f" points="53,-19 0,-19 0,0 53,0 53,-19"/>
<text text-anchor="middle" x="26.5" y="-7" font-family="Helvetica,sans-Serif" font-size="10.00">physics</text>
</a>
</g>
</g>
<!-- dir_5f7004c4d7b64413b965d15675669cf1&#45;&gt;dir_8250e12e5a19acb8ece30f1703b6dc16 -->
<g id="edge2" class="edge">
<title>dir_5f7004c4d7b64413b965d15675669cf1&#45;&gt;dir_8250e12e5a19acb8ece30f1703b6dc16</title>
<g id="a_edge2"><a xlink:href="dir_000012_000013.html" target="_top">
<path fill="none" stroke="#63b8ff" d="M139.81,-54.98C117.7,-46.3 83.18,-32.75 58.05,-22.88"/>
<polygon fill="#63b8ff" stroke="#63b8ff" points="59.17,-19.57 48.58,-19.17 56.61,-26.08 59.17,-19.57"/>
</a>
</g>
<g id="a_edge2&#45;headlabel"><a xlink:href="dir_000012_000013.html" target="_top" xlink:title="1">
<text text-anchor="middle" x="63.56" y="-15.74" font-family="Helvetica,sans-Serif" font-size="10.00" fill="#63b8ff">1</text>
</a>
</g>
</g>
<!-- dir_ae9a93452e2a84339148a16bcf2eb561 -->
<g id="node5" class="node">
<title>dir_ae9a93452e2a84339148a16bcf2eb561</title>
<g id="a_node5"><a xlink:href="dir_ae9a93452e2a84339148a16bcf2eb561.html" target="_top" xlink:title="math">
<polygon fill="#edf0f7" stroke="#7f7f7f" points="251.5,-19 209.5,-19 209.5,0 251.5,0 251.5,-19"/>
<text text-anchor="middle" x="230.5" y="-7" font-family="Helvetica,sans-Serif" font-size="10.00">math</text>
</a>
</g>
</g>
<!-- dir_5f7004c4d7b64413b965d15675669cf1&#45;&gt;dir_ae9a93452e2a84339148a16bcf2eb561 -->
<g id="edge3" class="edge">
<title>dir_5f7004c4d7b64413b965d15675669cf1&#45;&gt;dir_ae9a93452e2a84339148a16bcf2eb561</title>
<g id="a_edge3"><a xlink:href="dir_000012_000009.html" target="_top">
<path fill="none" stroke="#63b8ff" d="M172.59,-54.98C182.99,-47 198.76,-34.88 211.22,-25.31"/>
<polygon fill="#63b8ff" stroke="#63b8ff" points="213.41,-28.04 219.21,-19.17 209.15,-22.49 213.41,-28.04"/>
</a>
</g>
<g id="a_edge3&#45;headlabel"><a xlink:href="dir_000012_000009.html" target="_top" xlink:title="6">
<text text-anchor="middle" x="212.29" y="-29.98" font-family="Helvetica,sans-Serif" font-size="10.00" fill="#63b8ff">6</text>
</a>
</g>
</g>
<!-- dir_c184e51c84f2c3f0345bbc8a0d75d3e1 -->
<g id="node6" class="node">
<title>dir_c184e51c84f2c3f0345bbc8a0d75d3e1</title>
<g id="a_node6"><a xlink:href="dir_c184e51c84f2c3f0345bbc8a0d75d3e1.html" target="_top" xlink:title="io">
<polygon fill="#edf0f7" stroke="red" stroke-dasharray="5,2" points="299,-19 270,-19 270,0 299,0 299,-19"/>
<text text-anchor="middle" x="284.5" y="-7" font-family="Helvetica,sans-Serif" font-size="10.00">io</text>
</a>
</g>
</g>
<!-- dir_5f7004c4d7b64413b965d15675669cf1&#45;&gt;dir_c184e51c84f2c3f0345bbc8a0d75d3e1 -->
<g id="edge4" class="edge">
<title>dir_5f7004c4d7b64413b965d15675669cf1&#45;&gt;dir_c184e51c84f2c3f0345bbc8a0d75d3e1</title>
<g id="a_edge4"><a xlink:href="dir_000012_000007.html" target="_top">
<path fill="none" stroke="#63b8ff" d="M172,-54.86C178.68,-49.7 187.71,-43.32 196.5,-39 220.74,-27.09 230.39,-28.08 259.95,-18.98"/>
<polygon fill="#63b8ff" stroke="#63b8ff" points="261.36,-22.2 269.81,-15.8 259.22,-15.54 261.36,-22.2"/>
</a>
</g>
<g id="a_edge4&#45;headlabel"><a xlink:href="dir_000012_000007.html" target="_top" xlink:title="12">
<text text-anchor="middle" x="258.81" y="-23.5" font-family="Helvetica,sans-Serif" font-size="10.00" fill="#63b8ff">12</text>
</a>
</g>
</g>
<!-- dir_e488ee1cea97fb16abdb5ccc78d2123b -->
<g id="node7" class="node">
<title>dir_e488ee1cea97fb16abdb5ccc78d2123b</title>
<g id="a_node7"><a xlink:href="dir_e488ee1cea97fb16abdb5ccc78d2123b.html" target="_top" xlink:title="render">
<polygon fill="#edf0f7" stroke="#7f7f7f" points="119.5,-19 71.5,-19 71.5,0 119.5,0 119.5,-19"/>
<text text-anchor="middle" x="95.5" y="-7" font-family="Helvetica,sans-Serif" font-size="10.00">render</text>
</a>
</g>
</g>
<!-- dir_5f7004c4d7b64413b965d15675669cf1&#45;&gt;dir_e488ee1cea97fb16abdb5ccc78d2123b -->
<g id="edge5" class="edge">
<title>dir_5f7004c4d7b64413b965d15675669cf1&#45;&gt;dir_e488ee1cea97fb16abdb5ccc78d2123b</title>
<g id="a_edge5"><a xlink:href="dir_000012_000014.html" target="_top">
<path fill="none" stroke="#63b8ff" d="M150.9,-54.98C141.04,-47.07 126.15,-35.11 114.28,-25.58"/>
<polygon fill="#63b8ff" stroke="#63b8ff" points="116.29,-22.7 106.3,-19.17 111.9,-28.16 116.29,-22.7"/>
</a>
</g>
<g id="a_edge5&#45;headlabel"><a xlink:href="dir_000012_000014.html" target="_top" xlink:title="12">
<text text-anchor="middle" x="120.87" y="-20.24" font-family="Helvetica,sans-Serif" font-size="10.00" fill="#63b8ff">12</text>
</a>
</g>
</g>
<!-- dir_fd485f760523b7877acfcfb7d639f80b -->
<g id="node2" class="node">
<title>dir_fd485f760523b7877acfcfb7d639f80b</title>
<g id="a_node2"><a xlink:href="dir_fd485f760523b7877acfcfb7d639f80b.html" target="_top" xlink:title="bodies">
<polygon fill="#a2b4d6" stroke="#404040" points="255,-74 206,-74 206,-55 255,-55 255,-74"/>
<text text-anchor="middle" x="230.5" y="-62" font-family="Helvetica,sans-Serif" font-size="10.00">bodies</text>
</a>
</g>
</g>
<!-- dir_fd485f760523b7877acfcfb7d639f80b&#45;&gt;dir_452baf35e1d7639c9f2a5ece4ec85855 -->
<g id="edge6" class="edge">
<title>dir_fd485f760523b7877acfcfb7d639f80b&#45;&gt;dir_452baf35e1d7639c9f2a5ece4ec85855</title>
<g id="a_edge6"><a xlink:href="dir_000000_000018.html" target="_top">
<path fill="none" stroke="#63b8ff" d="M219.9,-54.98C210.04,-47.07 195.15,-35.11 183.28,-25.58"/>
<polygon fill="#63b8ff" stroke="#63b8ff" points="185.29,-22.7 175.3,-19.17 180.9,-28.16 185.29,-22.7"/>
</a>
</g>
<g id="a_edge6&#45;headlabel"><a xlink:href="dir_000000_000018.html" target="_top" xlink:title="4">
<text text-anchor="middle" x="189.87" y="-20.24" font-family="Helvetica,sans-Serif" font-size="10.00" fill="#63b8ff">4</text>
</a>
</g>
</g>
<!-- dir_fd485f760523b7877acfcfb7d639f80b&#45;&gt;dir_ae9a93452e2a84339148a16bcf2eb561 -->
<g id="edge7" class="edge">
<title>dir_fd485f760523b7877acfcfb7d639f80b&#45;&gt;dir_ae9a93452e2a84339148a16bcf2eb561</title>
<g id="a_edge7"><a xlink:href="dir_000000_000009.html" target="_top">
<path fill="none" stroke="#63b8ff" d="M230.5,-54.75C230.5,-47.8 230.5,-37.85 230.5,-29.13"/>
<polygon fill="#63b8ff" stroke="#63b8ff" points="234,-29.09 230.5,-19.09 227,-29.09 234,-29.09"/>
</a>
</g>
<g id="a_edge7&#45;headlabel"><a xlink:href="dir_000000_000009.html" target="_top" xlink:title="4">
<text text-anchor="middle" x="236.84" y="-30.18" font-family="Helvetica,sans-Serif" font-size="10.00" fill="#63b8ff">4</text>
</a>
</g>
</g>
<!-- dir_fd485f760523b7877acfcfb7d639f80b&#45;&gt;dir_c184e51c84f2c3f0345bbc8a0d75d3e1 -->
<g id="edge8" class="edge">
<title>dir_fd485f760523b7877acfcfb7d639f80b&#45;&gt;dir_c184e51c84f2c3f0345bbc8a0d75d3e1</title>
<g id="a_edge8"><a xlink:href="dir_000000_000007.html" target="_top">
<path fill="none" stroke="#63b8ff" d="M239.42,-54.75C247.28,-47.03 258.93,-35.6 268.42,-26.28"/>
<polygon fill="#63b8ff" stroke="#63b8ff" points="271.06,-28.59 275.75,-19.09 266.16,-23.6 271.06,-28.59"/>
</a>
</g>
<g id="a_edge8&#45;headlabel"><a xlink:href="dir_000000_000007.html" target="_top" xlink:title="8">
<text text-anchor="middle" x="270.49" y="-30.64" font-family="Helvetica,sans-Serif" font-size="10.00" fill="#63b8ff">8</text>
</a>
</g>
</g>
<!-- dir_fd485f760523b7877acfcfb7d639f80b&#45;&gt;dir_e488ee1cea97fb16abdb5ccc78d2123b -->
<g id="edge9" class="edge">
<title>dir_fd485f760523b7877acfcfb7d639f80b&#45;&gt;dir_e488ee1cea97fb16abdb5ccc78d2123b</title>
<g id="a_edge9"><a xlink:href="dir_000000_000014.html" target="_top">
<path fill="none" stroke="#63b8ff" d="M220.68,-55C214.18,-49.75 205.28,-43.24 196.5,-39 190.32,-36.02 156.4,-26.66 129.55,-19.48"/>
<polygon fill="#63b8ff" stroke="#63b8ff" points="130.24,-16.04 119.68,-16.85 128.44,-22.81 130.24,-16.04"/>
</a>
</g>
<g id="a_edge9&#45;headlabel"><a xlink:href="dir_000000_000014.html" target="_top" xlink:title="8">
<text text-anchor="middle" x="134.44" y="-11.72" font-family="Helvetica,sans-Serif" font-size="10.00" fill="#63b8ff">8</text>
</a>
</g>
</g>
</g>
</svg>
