<?xml version="1.0" encoding="UTF-8" standalone="no"?>
<!DOCTYPE svg PUBLIC "-//W3C//DTD SVG 1.1//EN"
 "http://www.w3.org/Graphics/SVG/1.1/DTD/svg11.dtd">
<!-- Generated by graphviz version 2.43.0 (0)
 -->
<!-- Title: src Pages: 1 -->
<svg width="452pt" height="499pt"
 viewBox="0.00 0.00 452.00 499.00" xmlns="http://www.w3.org/2000/svg" xmlns:xlink="http://www.w3.org/1999/xlink">
<g id="graph0" class="graph" transform="scale(1 1) rotate(0) translate(4 495)">
<title>src</title>
<g id="clust1" class="cluster">
<title>clusterdir_68267d1309a1af8e8297ef4c3efbcdba</title>
<g id="a_clust1"><a xlink:href="dir_68267d1309a1af8e8297ef4c3efbcdba.html" target="_top">
<polygon fill="#edf0f7" stroke="#404040" stroke-width="2" points="8,-8 8,-483 436,-483 436,-8 8,-8"/>
</a>
</g>
</g>
<!-- dir_68267d1309a1af8e8297ef4c3efbcdba -->
<g id="node1" class="node">
<title>dir_68267d1309a1af8e8297ef4c3efbcdba</title>
<text text-anchor="middle" x="213" y="-463" font-family="Helvetica,sans-Serif" font-size="10.00">src</text>
</g>
<!-- dir_018e9aafb459e6e1a4953404cb0c0b1d -->
<g id="node2" class="node">
<title>dir_018e9aafb459e6e1a4953404cb0c0b1d</title>
<g id="a_node2"><a xlink:href="dir_018e9aafb459e6e1a4953404cb0c0b1d.html" target="_top" xlink:title="classes">
<polygon fill="#a2b4d6" stroke="#404040" points="215.5,-420 162.5,-420 162.5,-401 215.5,-401 215.5,-420"/>
<text text-anchor="middle" x="189" y="-408" font-family="Helvetica,sans-Serif" font-size="10.00">classes</text>
</a>
</g>
</g>
<!-- dir_68267d1309a1af8e8297ef4c3efbcdba&#45;&gt;dir_018e9aafb459e6e1a4953404cb0c0b1d -->
<g id="edge1" class="edge">
<title>dir_68267d1309a1af8e8297ef4c3efbcdba&#45;&gt;dir_018e9aafb459e6e1a4953404cb0c0b1d</title>
<g id="a_edge1"><a xlink:href="dir_000017_000001.html" target="_top">
<path fill="none" stroke="#63b8ff" d="M209.04,-455.75C205.79,-448.57 201.08,-438.18 197.05,-429.27"/>
<polygon fill="#63b8ff" stroke="#63b8ff" points="200.2,-427.75 192.89,-420.09 193.83,-430.64 200.2,-427.75"/>
</a>
</g>
<g id="a_edge1&#45;headlabel"><a xlink:href="dir_000017_000001.html" target="_top" xlink:title="10">
<text text-anchor="middle" x="204.27" y="-427.36" font-family="Helvetica,sans-Serif" font-size="10.00" fill="#63b8ff">10</text>
</a>
</g>
</g>
<!-- dir_99d0482cf009f9d97a0877749b817f19 -->
<g id="node3" class="node">
<title>dir_99d0482cf009f9d97a0877749b817f19</title>
<g id="a_node3"><a xlink:href="dir_99d0482cf009f9d97a0877749b817f19.html" target="_top" xlink:title="gui">
<polygon fill="#a2b4d6" stroke="#404040" points="108,-365 76,-365 76,-346 108,-346 108,-365"/>
<text text-anchor="middle" x="92" y="-353" font-family="Helvetica,sans-Serif" font-size="10.00">gui</text>
</a>
</g>
</g>
<!-- dir_68267d1309a1af8e8297ef4c3efbcdba&#45;&gt;dir_99d0482cf009f9d97a0877749b817f19 -->
<g id="edge6" class="edge">
<title>dir_68267d1309a1af8e8297ef4c3efbcdba&#45;&gt;dir_99d0482cf009f9d97a0877749b817f19</title>
<g id="a_edge6"><a xlink:href="dir_000017_000006.html" target="_top">
<path fill="none" stroke="#63b8ff" d="M200.37,-455.82C188.12,-447.21 169.22,-433.39 154,-420 136.76,-404.83 118.58,-385.79 106.39,-372.54"/>
<polygon fill="#63b8ff" stroke="#63b8ff" points="108.96,-370.16 99.64,-365.12 103.78,-374.87 108.96,-370.16"/>
</a>
</g>
<g id="a_edge6&#45;headlabel"><a xlink:href="dir_000017_000006.html" target="_top" xlink:title="12">
<text text-anchor="middle" x="113.48" y="-368.41" font-family="Helvetica,sans-Serif" font-size="10.00" fill="#63b8ff">12</text>
</a>
</g>
</g>
<!-- dir_c184e51c84f2c3f0345bbc8a0d75d3e1 -->
<g id="node4" class="node">
<title>dir_c184e51c84f2c3f0345bbc8a0d75d3e1</title>
<g id="a_node4"><a xlink:href="dir_c184e51c84f2c3f0345bbc8a0d75d3e1.html" target="_top" xlink:title="io">
<polygon fill="#a2b4d6" stroke="#404040" points="255.5,-365 226.5,-365 226.5,-346 255.5,-346 255.5,-365"/>
<text text-anchor="middle" x="241" y="-353" font-family="Helvetica,sans-Serif" font-size="10.00">io</text>
</a>
</g>
</g>
<!-- dir_68267d1309a1af8e8297ef4c3efbcdba&#45;&gt;dir_c184e51c84f2c3f0345bbc8a0d75d3e1 -->
<g id="edge8" class="edge">
<title>dir_68267d1309a1af8e8297ef4c3efbcdba&#45;&gt;dir_c184e51c84f2c3f0345bbc8a0d75d3e1</title>
<g id="a_edge8"><a xlink:href="dir_000017_000007.html" target="_top">
<path fill="none" stroke="#63b8ff" d="M215.34,-455.98C217.79,-447.03 221.73,-432.54 225,-420 228.95,-404.85 233.28,-387.63 236.44,-374.95"/>
<polygon fill="#63b8ff" stroke="#63b8ff" points="239.86,-375.69 238.87,-365.14 233.07,-374 239.86,-375.69"/>
</a>
</g>
<g id="a_edge8&#45;headlabel"><a xlink:href="dir_000017_000007.html" target="_top" xlink:title="100">
<text text-anchor="middle" x="241.75" y="-377.36" font-family="Helvetica,sans-Serif" font-size="10.00" fill="#63b8ff">100</text>
</a>
</g>
</g>
<!-- dir_ae9a93452e2a84339148a16bcf2eb561 -->
<g id="node5" class="node">
<title>dir_ae9a93452e2a84339148a16bcf2eb561</title>
<g id="a_node5"><a xlink:href="dir_ae9a93452e2a84339148a16bcf2eb561.html" target="_top" xlink:title="math">
<polygon fill="#a2b4d6" stroke="#404040" points="252,-35 210,-35 210,-16 252,-16 252,-35"/>
<text text-anchor="middle" x="231" y="-23" font-family="Helvetica,sans-Serif" font-size="10.00">math</text>
</a>
</g>
</g>
<!-- dir_68267d1309a1af8e8297ef4c3efbcdba&#45;&gt;dir_ae9a93452e2a84339148a16bcf2eb561 -->
<g id="edge7" class="edge">
<title>dir_68267d1309a1af8e8297ef4c3efbcdba&#45;&gt;dir_ae9a93452e2a84339148a16bcf2eb561</title>
<g id="a_edge7"><a xlink:href="dir_000017_000009.html" target="_top">
<path fill="none" stroke="#63b8ff" d="M228.74,-463.9C278.16,-461.12 427,-445.35 427,-356.5 427,-356.5 427,-356.5 427,-134.5 427,-60.22 317.69,-36.65 262.34,-29.48"/>
<polygon fill="#63b8ff" stroke="#63b8ff" points="262.69,-26 252.35,-28.29 261.86,-32.95 262.69,-26"/>
</a>
</g>
<g id="a_edge7&#45;headlabel"><a xlink:href="dir_000017_000009.html" target="_top" xlink:title="64">
<text text-anchor="middle" x="266.6" y="-21.1" font-family="Helvetica,sans-Serif" font-size="10.00" fill="#63b8ff">64</text>
</a>
</g>
</g>
<!-- dir_8250e12e5a19acb8ece30f1703b6dc16 -->
<g id="node6" class="node">
<title>dir_8250e12e5a19acb8ece30f1703b6dc16</title>
<g id="a_node6"><a xlink:href="dir_8250e12e5a19acb8ece30f1703b6dc16.html" target="_top" xlink:title="physics">
<polygon fill="#a2b4d6" stroke="#404040" points="329.5,-310 276.5,-310 276.5,-291 329.5,-291 329.5,-310"/>
<text text-anchor="middle" x="303" y="-298" font-family="Helvetica,sans-Serif" font-size="10.00">physics</text>
</a>
</g>
</g>
<!-- dir_68267d1309a1af8e8297ef4c3efbcdba&#45;&gt;dir_8250e12e5a19acb8ece30f1703b6dc16 -->
<g id="edge5" class="edge">
<title>dir_68267d1309a1af8e8297ef4c3efbcdba&#45;&gt;dir_8250e12e5a19acb8ece30f1703b6dc16</title>
<g id="a_edge5"><a xlink:href="dir_000017_000013.html" target="_top">
<path fill="none" stroke="#63b8ff" d="M219.39,-455.78C231.61,-438.86 258.69,-400.16 277,-365 284.65,-350.31 291.66,-332.84 296.47,-319.95"/>
<polygon fill="#63b8ff" stroke="#63b8ff" points="299.83,-320.95 299.96,-310.35 293.25,-318.56 299.83,-320.95"/>
</a>
</g>
<g id="a_edge5&#45;headlabel"><a xlink:href="dir_000017_000013.html" target="_top" xlink:title="8">
<text text-anchor="middle" x="301.27" y="-322.8" font-family="Helvetica,sans-Serif" font-size="10.00" fill="#63b8ff">8</text>
</a>
</g>
</g>
<!-- dir_e488ee1cea97fb16abdb5ccc78d2123b -->
<g id="node7" class="node">
<title>dir_e488ee1cea97fb16abdb5ccc78d2123b</title>
<g id="a_node7"><a xlink:href="dir_e488ee1cea97fb16abdb5ccc78d2123b.html" target="_top" xlink:title="render">
<polygon fill="#a2b4d6" stroke="#404040" points="255,-90 207,-90 207,-71 255,-71 255,-90"/>
<text text-anchor="middle" x="231" y="-78" font-family="Helvetica,sans-Serif" font-size="10.00">render</text>
</a>
</g>
</g>
<!-- dir_68267d1309a1af8e8297ef4c3efbcdba&#45;&gt;dir_e488ee1cea97fb16abdb5ccc78d2123b -->
<g id="edge9" class="edge">
<title>dir_68267d1309a1af8e8297ef4c3efbcdba&#45;&gt;dir_e488ee1cea97fb16abdb5ccc78d2123b</title>
<g id="a_edge9"><a xlink:href="dir_000017_000014.html" target="_top">
<path fill="none" stroke="#63b8ff" d="M228.55,-463.23C274.58,-458.56 407,-438.03 407,-356.5 407,-356.5 407,-356.5 407,-299.5 407,-203.51 302.41,-125.97 254.49,-95.47"/>
<polygon fill="#63b8ff" stroke="#63b8ff" points="256.04,-92.32 245.7,-90.01 252.35,-98.26 256.04,-92.32"/>
</a>
</g>
<g id="a_edge9&#45;headlabel"><a xlink:href="dir_000017_000014.html" target="_top" xlink:title="101">
<text text-anchor="middle" x="260.59" y="-89.31" font-family="Helvetica,sans-Serif" font-size="10.00" fill="#63b8ff">101</text>
</a>
</g>
</g>
<!-- dir_634e799a3947388232110823971192a8 -->
<g id="node8" class="node">
<title>dir_634e799a3947388232110823971192a8</title>
<g id="a_node8"><a xlink:href="dir_634e799a3947388232110823971192a8.html" target="_top" xlink:title="scripts">
<polygon fill="#a2b4d6" stroke="#404040" points="178.5,-200 129.5,-200 129.5,-181 178.5,-181 178.5,-200"/>
<text text-anchor="middle" x="154" y="-188" font-family="Helvetica,sans-Serif" font-size="10.00">scripts</text>
</a>
</g>
</g>
<!-- dir_68267d1309a1af8e8297ef4c3efbcdba&#45;&gt;dir_634e799a3947388232110823971192a8 -->
<g id="edge4" class="edge">
<title>dir_68267d1309a1af8e8297ef4c3efbcdba&#45;&gt;dir_634e799a3947388232110823971192a8</title>
<g id="a_edge4"><a xlink:href="dir_000017_000015.html" target="_top">
<path fill="none" stroke="#63b8ff" d="M197.31,-462.34C172.13,-458.17 122.25,-446.92 90,-420 68.29,-401.88 65.37,-392.3 58,-365 40.88,-301.54 102.7,-236.23 135.23,-207.13"/>
<polygon fill="#63b8ff" stroke="#63b8ff" points="137.92,-209.42 143.17,-200.22 133.33,-204.14 137.92,-209.42"/>
</a>
</g>
<g id="a_edge4&#45;headlabel"><a xlink:href="dir_000017_000015.html" target="_top" xlink:title="4">
<text text-anchor="middle" x="137.08" y="-211.42" font-family="Helvetica,sans-Serif" font-size="10.00" fill="#63b8ff">4</text>
</a>
</g>
</g>
<!-- dir_452baf35e1d7639c9f2a5ece4ec85855 -->
<g id="node9" class="node">
<title>dir_452baf35e1d7639c9f2a5ece4ec85855</title>
<g id="a_node9"><a xlink:href="dir_452baf35e1d7639c9f2a5ece4ec85855.html" target="_top" xlink:title="storage">
<polygon fill="#a2b4d6" stroke="#404040" points="226.5,-255 173.5,-255 173.5,-236 226.5,-236 226.5,-255"/>
<text text-anchor="middle" x="200" y="-243" font-family="Helvetica,sans-Serif" font-size="10.00">storage</text>
</a>
</g>
</g>
<!-- dir_68267d1309a1af8e8297ef4c3efbcdba&#45;&gt;dir_452baf35e1d7639c9f2a5ece4ec85855 -->
<g id="edge3" class="edge">
<title>dir_68267d1309a1af8e8297ef4c3efbcdba&#45;&gt;dir_452baf35e1d7639c9f2a5ece4ec85855</title>
<g id="a_edge3"><a xlink:href="dir_000017_000018.html" target="_top">
<path fill="none" stroke="#63b8ff" d="M197.29,-459.85C164.98,-449.28 92,-420.01 67,-365 44.12,-314.66 118.07,-276.84 164.76,-258.6"/>
<polygon fill="#63b8ff" stroke="#63b8ff" points="166.14,-261.82 174.26,-255.01 163.67,-255.27 166.14,-261.82"/>
</a>
</g>
<g id="a_edge3&#45;headlabel"><a xlink:href="dir_000017_000018.html" target="_top" xlink:title="58">
<text text-anchor="middle" x="163.78" y="-263.24" font-family="Helvetica,sans-Serif" font-size="10.00" fill="#63b8ff">58</text>
</a>
</g>
</g>
<!-- dir_f015963f69ae14c534311f2118856536 -->
<g id="node10" class="node">
<title>dir_f015963f69ae14c534311f2118856536</title>
<g id="a_node10"><a xlink:href="dir_f015963f69ae14c534311f2118856536.html" target="_top" xlink:title="term">
<polygon fill="#a2b4d6" stroke="#404040" points="388,-310 348,-310 348,-291 388,-291 388,-310"/>
<text text-anchor="middle" x="368" y="-298" font-family="Helvetica,sans-Serif" font-size="10.00">term</text>
</a>
</g>
</g>
<!-- dir_68267d1309a1af8e8297ef4c3efbcdba&#45;&gt;dir_f015963f69ae14c534311f2118856536 -->
<g id="edge10" class="edge">
<title>dir_68267d1309a1af8e8297ef4c3efbcdba&#45;&gt;dir_f015963f69ae14c534311f2118856536</title>
<g id="a_edge10"><a xlink:href="dir_000017_000019.html" target="_top">
<path fill="none" stroke="#63b8ff" d="M221.33,-455.74C246.25,-429.53 320.44,-351.51 352.72,-317.57"/>
<polygon fill="#63b8ff" stroke="#63b8ff" points="355.27,-319.97 359.63,-310.31 350.2,-315.14 355.27,-319.97"/>
</a>
</g>
<g id="a_edge10&#45;headlabel"><a xlink:href="dir_000017_000019.html" target="_top" xlink:title="2">
<text text-anchor="middle" x="354.85" y="-322.03" font-family="Helvetica,sans-Serif" font-size="10.00" fill="#63b8ff">2</text>
</a>
</g>
</g>
<!-- dir_313caf1132e152dd9b58bea13a4052ca -->
<g id="node11" class="node">
<title>dir_313caf1132e152dd9b58bea13a4052ca</title>
<g id="a_node11"><a xlink:href="dir_313caf1132e152dd9b58bea13a4052ca.html" target="_top" xlink:title="utils">
<polygon fill="#a2b4d6" stroke="#404040" points="207,-145 169,-145 169,-126 207,-126 207,-145"/>
<text text-anchor="middle" x="188" y="-133" font-family="Helvetica,sans-Serif" font-size="10.00">utils</text>
</a>
</g>
</g>
<!-- dir_68267d1309a1af8e8297ef4c3efbcdba&#45;&gt;dir_313caf1132e152dd9b58bea13a4052ca -->
<g id="edge2" class="edge">
<title>dir_68267d1309a1af8e8297ef4c3efbcdba&#45;&gt;dir_313caf1132e152dd9b58bea13a4052ca</title>
<g id="a_edge2"><a xlink:href="dir_000017_000020.html" target="_top">
<path fill="none" stroke="#63b8ff" d="M197.35,-464.35C167.67,-463.2 102.93,-456.39 67,-420 49.11,-401.88 54.59,-390.2 51,-365 38.81,-279.43 54.62,-243.81 114,-181 126.76,-167.51 144.49,-156.65 159.4,-149.04"/>
<polygon fill="#63b8ff" stroke="#63b8ff" points="161.25,-152.04 168.71,-144.52 158.19,-145.74 161.25,-152.04"/>
</a>
</g>
<g id="a_edge2&#45;headlabel"><a xlink:href="dir_000017_000020.html" target="_top" xlink:title="4">
<text text-anchor="middle" x="159.26" y="-153.66" font-family="Helvetica,sans-Serif" font-size="10.00" fill="#63b8ff">4</text>
</a>
</g>
</g>
<!-- dir_018e9aafb459e6e1a4953404cb0c0b1d&#45;&gt;dir_99d0482cf009f9d97a0877749b817f19 -->
<g id="edge15" class="edge">
<title>dir_018e9aafb459e6e1a4953404cb0c0b1d&#45;&gt;dir_99d0482cf009f9d97a0877749b817f19</title>
<g id="a_edge15"><a xlink:href="dir_000001_000006.html" target="_top">
<path fill="none" stroke="#63b8ff" d="M173.42,-400.98C158.23,-392.69 134.9,-379.94 117.1,-370.22"/>
<polygon fill="#63b8ff" stroke="#63b8ff" points="118.32,-366.89 107.87,-365.17 114.97,-373.04 118.32,-366.89"/>
</a>
</g>
<g id="a_edge15&#45;headlabel"><a xlink:href="dir_000001_000006.html" target="_top" xlink:title="10">
<text text-anchor="middle" x="122.84" y="-363.63" font-family="Helvetica,sans-Serif" font-size="10.00" fill="#63b8ff">10</text>
</a>
</g>
</g>
<!-- dir_018e9aafb459e6e1a4953404cb0c0b1d&#45;&gt;dir_c184e51c84f2c3f0345bbc8a0d75d3e1 -->
<g id="edge13" class="edge">
<title>dir_018e9aafb459e6e1a4953404cb0c0b1d&#45;&gt;dir_c184e51c84f2c3f0345bbc8a0d75d3e1</title>
<g id="a_edge13"><a xlink:href="dir_000001_000007.html" target="_top">
<path fill="none" stroke="#63b8ff" d="M192.42,-400.75C198.45,-392.88 209.63,-381.14 219.89,-371.73"/>
<polygon fill="#63b8ff" stroke="#63b8ff" points="222.24,-374.32 227.44,-365.09 217.62,-369.06 222.24,-374.32"/>
</a>
</g>
<g id="a_edge13&#45;headlabel"><a xlink:href="dir_000001_000007.html" target="_top" xlink:title="59">
<text text-anchor="middle" x="221.41" y="-376.32" font-family="Helvetica,sans-Serif" font-size="10.00" fill="#63b8ff">59</text>
</a>
</g>
</g>
<!-- dir_018e9aafb459e6e1a4953404cb0c0b1d&#45;&gt;dir_ae9a93452e2a84339148a16bcf2eb561 -->
<g id="edge12" class="edge">
<title>dir_018e9aafb459e6e1a4953404cb0c0b1d&#45;&gt;dir_ae9a93452e2a84339148a16bcf2eb561</title>
<g id="a_edge12"><a xlink:href="dir_000001_000009.html" target="_top">
<path fill="none" stroke="#63b8ff" d="M177.9,-400.7C167.62,-392.22 152.26,-378.7 141,-365 83.48,-295.01 34,-282.1 34,-191.5 34,-191.5 34,-191.5 34,-134.5 34,-59.75 144.41,-36.39 199.91,-29.37"/>
<polygon fill="#63b8ff" stroke="#63b8ff" points="200.39,-32.84 209.92,-28.21 199.58,-25.89 200.39,-32.84"/>
</a>
</g>
<g id="a_edge12&#45;headlabel"><a xlink:href="dir_000001_000009.html" target="_top" xlink:title="36">
<text text-anchor="middle" x="197.15" y="-33.58" font-family="Helvetica,sans-Serif" font-size="10.00" fill="#63b8ff">36</text>
</a>
</g>
</g>
<!-- dir_018e9aafb459e6e1a4953404cb0c0b1d&#45;&gt;dir_8250e12e5a19acb8ece30f1703b6dc16 -->
<g id="edge16" class="edge">
<title>dir_018e9aafb459e6e1a4953404cb0c0b1d&#45;&gt;dir_8250e12e5a19acb8ece30f1703b6dc16</title>
<g id="a_edge16"><a xlink:href="dir_000001_000013.html" target="_top">
<path fill="none" stroke="#63b8ff" d="M202.32,-400.93C217.03,-393.31 239.92,-380.92 256,-365 269.5,-351.63 280.08,-332.52 288.35,-318.76"/>
<polygon fill="#63b8ff" stroke="#63b8ff" points="291.35,-320.56 293.71,-310.23 285.43,-316.83 291.35,-320.56"/>
</a>
</g>
<g id="a_edge16&#45;headlabel"><a xlink:href="dir_000001_000013.html" target="_top" xlink:title="1">
<text text-anchor="middle" x="291.85" y="-322.61" font-family="Helvetica,sans-Serif" font-size="10.00" fill="#63b8ff">1</text>
</a>
</g>
</g>
<!-- dir_018e9aafb459e6e1a4953404cb0c0b1d&#45;&gt;dir_e488ee1cea97fb16abdb5ccc78d2123b -->
<g id="edge14" class="edge">
<title>dir_018e9aafb459e6e1a4953404cb0c0b1d&#45;&gt;dir_e488ee1cea97fb16abdb5ccc78d2123b</title>
<g id="a_edge14"><a xlink:href="dir_000001_000014.html" target="_top">
<path fill="none" stroke="#63b8ff" d="M178.23,-400.72C148.78,-370.16 74.22,-265.77 105,-181 120.17,-139.21 165.22,-109.64 197.27,-94.11"/>
<polygon fill="#63b8ff" stroke="#63b8ff" points="199.14,-97.1 206.76,-89.74 196.21,-90.75 199.14,-97.1"/>
</a>
</g>
<g id="a_edge14&#45;headlabel"><a xlink:href="dir_000001_000014.html" target="_top" xlink:title="52">
<text text-anchor="middle" x="197.06" y="-98.69" font-family="Helvetica,sans-Serif" font-size="10.00" fill="#63b8ff">52</text>
</a>
</g>
</g>
<!-- dir_018e9aafb459e6e1a4953404cb0c0b1d&#45;&gt;dir_452baf35e1d7639c9f2a5ece4ec85855 -->
<g id="edge11" class="edge">
<title>dir_018e9aafb459e6e1a4953404cb0c0b1d&#45;&gt;dir_452baf35e1d7639c9f2a5ece4ec85855</title>
<g id="a_edge11"><a xlink:href="dir_000001_000018.html" target="_top">
<path fill="none" stroke="#63b8ff" d="M189.59,-400.74C191.31,-375.31 196.32,-301.08 198.7,-265.69"/>
<polygon fill="#63b8ff" stroke="#63b8ff" points="202.22,-265.52 199.41,-255.31 195.24,-265.05 202.22,-265.52"/>
</a>
</g>
<g id="a_edge11&#45;headlabel"><a xlink:href="dir_000001_000018.html" target="_top" xlink:title="36">
<text text-anchor="middle" x="204.82" y="-266.8" font-family="Helvetica,sans-Serif" font-size="10.00" fill="#63b8ff">36</text>
</a>
</g>
</g>
<!-- dir_c184e51c84f2c3f0345bbc8a0d75d3e1&#45;&gt;dir_018e9aafb459e6e1a4953404cb0c0b1d -->
<g id="edge17" class="edge">
<title>dir_c184e51c84f2c3f0345bbc8a0d75d3e1&#45;&gt;dir_018e9aafb459e6e1a4953404cb0c0b1d</title>
<g id="a_edge17"><a xlink:href="dir_000007_000001.html" target="_top">
<path fill="none" stroke="#63b8ff" d="M237.64,-365.17C231.61,-373.06 220.36,-384.87 210.06,-394.32"/>
<polygon fill="#63b8ff" stroke="#63b8ff" points="207.68,-391.76 202.47,-400.98 212.29,-397.02 207.68,-391.76"/>
</a>
</g>
<g id="a_edge17&#45;headlabel"><a xlink:href="dir_000007_000001.html" target="_top" xlink:title="2">
<text text-anchor="middle" x="208.51" y="-384.75" font-family="Helvetica,sans-Serif" font-size="10.00" fill="#63b8ff">2</text>
</a>
</g>
</g>
<!-- dir_c184e51c84f2c3f0345bbc8a0d75d3e1&#45;&gt;dir_ae9a93452e2a84339148a16bcf2eb561 -->
<g id="edge20" class="edge">
<title>dir_c184e51c84f2c3f0345bbc8a0d75d3e1&#45;&gt;dir_ae9a93452e2a84339148a16bcf2eb561</title>
<g id="a_edge20"><a xlink:href="dir_000007_000009.html" target="_top">
<path fill="none" stroke="#63b8ff" d="M245.15,-345.9C256.29,-322 286,-252.56 286,-191.5 286,-191.5 286,-191.5 286,-134.5 286,-98.94 262.03,-63.27 245.74,-43.12"/>
<polygon fill="#63b8ff" stroke="#63b8ff" points="248.23,-40.65 239.12,-35.25 242.88,-45.16 248.23,-40.65"/>
</a>
</g>
<g id="a_edge20&#45;headlabel"><a xlink:href="dir_000007_000009.html" target="_top" xlink:title="10">
<text text-anchor="middle" x="252.72" y="-39.07" font-family="Helvetica,sans-Serif" font-size="10.00" fill="#63b8ff">10</text>
</a>
</g>
</g>
<!-- dir_c184e51c84f2c3f0345bbc8a0d75d3e1&#45;&gt;dir_8250e12e5a19acb8ece30f1703b6dc16 -->
<g id="edge19" class="edge">
<title>dir_c184e51c84f2c3f0345bbc8a0d75d3e1&#45;&gt;dir_8250e12e5a19acb8ece30f1703b6dc16</title>
<g id="a_edge19"><a xlink:href="dir_000007_000013.html" target="_top">
<path fill="none" stroke="#63b8ff" d="M246.07,-345.75C253.74,-337.72 267.51,-325.67 279.72,-316.18"/>
<polygon fill="#63b8ff" stroke="#63b8ff" points="281.93,-318.89 287.82,-310.09 277.72,-313.3 281.93,-318.89"/>
</a>
</g>
<g id="a_edge19&#45;headlabel"><a xlink:href="dir_000007_000013.html" target="_top" xlink:title="1">
<text text-anchor="middle" x="280.76" y="-320.82" font-family="Helvetica,sans-Serif" font-size="10.00" fill="#63b8ff">1</text>
</a>
</g>
</g>
<!-- dir_c184e51c84f2c3f0345bbc8a0d75d3e1&#45;&gt;dir_e488ee1cea97fb16abdb5ccc78d2123b -->
<g id="edge21" class="edge">
<title>dir_c184e51c84f2c3f0345bbc8a0d75d3e1&#45;&gt;dir_e488ee1cea97fb16abdb5ccc78d2123b</title>
<g id="a_edge21"><a xlink:href="dir_000007_000014.html" target="_top">
<path fill="none" stroke="#63b8ff" d="M236.48,-345.87C232.58,-326.32 233.33,-277.12 232,-236 230.42,-187.12 226.04,-129.69 226.86,-100.54"/>
<polygon fill="#63b8ff" stroke="#63b8ff" points="230.38,-100.4 227.52,-90.2 223.39,-99.96 230.38,-100.4"/>
</a>
</g>
<g id="a_edge21&#45;headlabel"><a xlink:href="dir_000007_000014.html" target="_top" xlink:title="14">
<text text-anchor="middle" x="232.98" y="-101.67" font-family="Helvetica,sans-Serif" font-size="10.00" fill="#63b8ff">14</text>
</a>
</g>
</g>
<!-- dir_c184e51c84f2c3f0345bbc8a0d75d3e1&#45;&gt;dir_452baf35e1d7639c9f2a5ece4ec85855 -->
<g id="edge18" class="edge">
<title>dir_c184e51c84f2c3f0345bbc8a0d75d3e1&#45;&gt;dir_452baf35e1d7639c9f2a5ece4ec85855</title>
<g id="a_edge18"><a xlink:href="dir_000007_000018.html" target="_top">
<path fill="none" stroke="#63b8ff" d="M227.01,-345.87C218.21,-337.3 208.43,-323.52 203,-310 197.17,-295.51 194.14,-278 194.02,-265.04"/>
<polygon fill="#63b8ff" stroke="#63b8ff" points="197.52,-265.22 194.68,-255.01 190.53,-264.76 197.52,-265.22"/>
</a>
</g>
<g id="a_edge18&#45;headlabel"><a xlink:href="dir_000007_000018.html" target="_top" xlink:title="3">
<text text-anchor="middle" x="200.12" y="-266.49" font-family="Helvetica,sans-Serif" font-size="10.00" fill="#63b8ff">3</text>
</a>
</g>
</g>
<!-- dir_c184e51c84f2c3f0345bbc8a0d75d3e1&#45;&gt;dir_f015963f69ae14c534311f2118856536 -->
<g id="edge22" class="edge">
<title>dir_c184e51c84f2c3f0345bbc8a0d75d3e1&#45;&gt;dir_f015963f69ae14c534311f2118856536</title>
<g id="a_edge22"><a xlink:href="dir_000007_000019.html" target="_top">
<path fill="none" stroke="#63b8ff" d="M255.57,-348.42C275.67,-340.03 312.38,-324.71 338.38,-313.86"/>
<polygon fill="#63b8ff" stroke="#63b8ff" points="339.88,-317.03 347.76,-309.95 337.19,-310.57 339.88,-317.03"/>
</a>
</g>
<g id="a_edge22&#45;headlabel"><a xlink:href="dir_000007_000019.html" target="_top" xlink:title="1">
<text text-anchor="middle" x="337.66" y="-318.53" font-family="Helvetica,sans-Serif" font-size="10.00" fill="#63b8ff">1</text>
</a>
</g>
</g>
<!-- dir_8250e12e5a19acb8ece30f1703b6dc16&#45;&gt;dir_018e9aafb459e6e1a4953404cb0c0b1d -->
<g id="edge23" class="edge">
<title>dir_8250e12e5a19acb8ece30f1703b6dc16&#45;&gt;dir_018e9aafb459e6e1a4953404cb0c0b1d</title>
<g id="a_edge23"><a xlink:href="dir_000013_000001.html" target="_top">
<path fill="none" stroke="#63b8ff" d="M305.24,-310.23C302.81,-323.39 290.61,-348.55 274,-365 260.29,-378.58 241.62,-389.59 225.14,-397.26"/>
<polygon fill="#63b8ff" stroke="#63b8ff" points="223.49,-394.16 215.74,-401.38 226.31,-400.57 223.49,-394.16"/>
</a>
</g>
<g id="a_edge23&#45;headlabel"><a xlink:href="dir_000013_000001.html" target="_top" xlink:title="2">
<text text-anchor="middle" x="225.64" y="-387.61" font-family="Helvetica,sans-Serif" font-size="10.00" fill="#63b8ff">2</text>
</a>
</g>
</g>
<!-- dir_8250e12e5a19acb8ece30f1703b6dc16&#45;&gt;dir_c184e51c84f2c3f0345bbc8a0d75d3e1 -->
<g id="edge26" class="edge">
<title>dir_8250e12e5a19acb8ece30f1703b6dc16&#45;&gt;dir_c184e51c84f2c3f0345bbc8a0d75d3e1</title>
<g id="a_edge26"><a xlink:href="dir_000013_000007.html" target="_top">
<path fill="none" stroke="#63b8ff" d="M297.93,-310.25C290.18,-318.36 276.2,-330.58 263.9,-340.12"/>
<polygon fill="#63b8ff" stroke="#63b8ff" points="261.66,-337.43 255.75,-346.22 265.85,-343.03 261.66,-337.43"/>
</a>
</g>
<g id="a_edge26&#45;headlabel"><a xlink:href="dir_000013_000007.html" target="_top" xlink:title="8">
<text text-anchor="middle" x="262.84" y="-330.5" font-family="Helvetica,sans-Serif" font-size="10.00" fill="#63b8ff">8</text>
</a>
</g>
</g>
<!-- dir_8250e12e5a19acb8ece30f1703b6dc16&#45;&gt;dir_ae9a93452e2a84339148a16bcf2eb561 -->
<g id="edge25" class="edge">
<title>dir_8250e12e5a19acb8ece30f1703b6dc16&#45;&gt;dir_ae9a93452e2a84339148a16bcf2eb561</title>
<g id="a_edge25"><a xlink:href="dir_000013_000009.html" target="_top">
<path fill="none" stroke="#63b8ff" d="M316.5,-290.92C340.24,-274.66 387,-236.87 387,-191.5 387,-191.5 387,-191.5 387,-134.5 387,-74.3 307.49,-45.01 262,-33.18"/>
<polygon fill="#63b8ff" stroke="#63b8ff" points="262.59,-29.72 252.04,-30.72 260.91,-36.52 262.59,-29.72"/>
</a>
</g>
<g id="a_edge25&#45;headlabel"><a xlink:href="dir_000013_000009.html" target="_top" xlink:title="4">
<text text-anchor="middle" x="266.76" y="-25.32" font-family="Helvetica,sans-Serif" font-size="10.00" fill="#63b8ff">4</text>
</a>
</g>
</g>
<!-- dir_8250e12e5a19acb8ece30f1703b6dc16&#45;&gt;dir_e488ee1cea97fb16abdb5ccc78d2123b -->
<g id="edge27" class="edge">
<title>dir_8250e12e5a19acb8ece30f1703b6dc16&#45;&gt;dir_e488ee1cea97fb16abdb5ccc78d2123b</title>
<g id="a_edge27"><a xlink:href="dir_000013_000014.html" target="_top">
<path fill="none" stroke="#63b8ff" d="M303.03,-290.68C302.77,-264.25 299.53,-183.99 271,-126 265.7,-115.23 257.04,-105.13 249.13,-97.27"/>
<polygon fill="#63b8ff" stroke="#63b8ff" points="251.31,-94.52 241.63,-90.23 246.52,-99.62 251.31,-94.52"/>
</a>
</g>
<g id="a_edge27&#45;headlabel"><a xlink:href="dir_000013_000014.html" target="_top" xlink:title="13">
<text text-anchor="middle" x="255.88" y="-92.41" font-family="Helvetica,sans-Serif" font-size="10.00" fill="#63b8ff">13</text>
</a>
</g>
</g>
<!-- dir_8250e12e5a19acb8ece30f1703b6dc16&#45;&gt;dir_452baf35e1d7639c9f2a5ece4ec85855 -->
<g id="edge24" class="edge">
<title>dir_8250e12e5a19acb8ece30f1703b6dc16&#45;&gt;dir_452baf35e1d7639c9f2a5ece4ec85855</title>
<g id="a_edge24"><a xlink:href="dir_000013_000018.html" target="_top">
<path fill="none" stroke="#63b8ff" d="M281.34,-290.98C263.38,-282.69 238.32,-269.94 220.66,-260.22"/>
<polygon fill="#63b8ff" stroke="#63b8ff" points="222.13,-257.03 211.7,-255.17 218.7,-263.13 222.13,-257.03"/>
</a>
</g>
<g id="a_edge24&#45;headlabel"><a xlink:href="dir_000013_000018.html" target="_top" xlink:title="3">
<text text-anchor="middle" x="226.66" y="-253.82" font-family="Helvetica,sans-Serif" font-size="10.00" fill="#63b8ff">3</text>
</a>
</g>
</g>
<!-- dir_e488ee1cea97fb16abdb5ccc78d2123b&#45;&gt;dir_018e9aafb459e6e1a4953404cb0c0b1d -->
<g id="edge28" class="edge">
<title>dir_e488ee1cea97fb16abdb5ccc78d2123b&#45;&gt;dir_018e9aafb459e6e1a4953404cb0c0b1d</title>
<g id="a_edge28"><a xlink:href="dir_000014_000001.html" target="_top">
<path fill="none" stroke="#63b8ff" d="M217.24,-90.2C191.71,-104.34 139.56,-135.38 123,-181 94.75,-258.82 155.25,-353.17 179.79,-391.76"/>
<polygon fill="#63b8ff" stroke="#63b8ff" points="177.14,-394.11 185.42,-400.72 183.06,-390.39 177.14,-394.11"/>
</a>
</g>
<g id="a_edge28&#45;headlabel"><a xlink:href="dir_000014_000001.html" target="_top" xlink:title="2">
<text text-anchor="middle" x="172.82" y="-390.08" font-family="Helvetica,sans-Serif" font-size="10.00" fill="#63b8ff">2</text>
</a>
</g>
</g>
<!-- dir_e488ee1cea97fb16abdb5ccc78d2123b&#45;&gt;dir_c184e51c84f2c3f0345bbc8a0d75d3e1 -->
<g id="edge31" class="edge">
<title>dir_e488ee1cea97fb16abdb5ccc78d2123b&#45;&gt;dir_c184e51c84f2c3f0345bbc8a0d75d3e1</title>
<g id="a_edge31"><a xlink:href="dir_000014_000007.html" target="_top">
<path fill="none" stroke="#63b8ff" d="M236,-90.2C242.77,-113.7 248.2,-180.39 250,-236 251.14,-271.34 250.75,-312.64 247.65,-335.97"/>
<polygon fill="#63b8ff" stroke="#63b8ff" points="244.19,-335.42 245.9,-345.87 251.08,-336.63 244.19,-335.42"/>
</a>
</g>
<g id="a_edge31&#45;headlabel"><a xlink:href="dir_000014_000007.html" target="_top" xlink:title="10">
<text text-anchor="middle" x="242.02" y="-328.88" font-family="Helvetica,sans-Serif" font-size="10.00" fill="#63b8ff">10</text>
</a>
</g>
</g>
<!-- dir_e488ee1cea97fb16abdb5ccc78d2123b&#45;&gt;dir_ae9a93452e2a84339148a16bcf2eb561 -->
<g id="edge30" class="edge">
<title>dir_e488ee1cea97fb16abdb5ccc78d2123b&#45;&gt;dir_ae9a93452e2a84339148a16bcf2eb561</title>
<g id="a_edge30"><a xlink:href="dir_000014_000009.html" target="_top">
<path fill="none" stroke="#63b8ff" d="M231,-70.75C231,-63.8 231,-53.85 231,-45.13"/>
<polygon fill="#63b8ff" stroke="#63b8ff" points="234.5,-45.09 231,-35.09 227.5,-45.09 234.5,-45.09"/>
</a>
</g>
<g id="a_edge30&#45;headlabel"><a xlink:href="dir_000014_000009.html" target="_top" xlink:title="6">
<text text-anchor="middle" x="237.34" y="-46.18" font-family="Helvetica,sans-Serif" font-size="10.00" fill="#63b8ff">6</text>
</a>
</g>
</g>
<!-- dir_e488ee1cea97fb16abdb5ccc78d2123b&#45;&gt;dir_452baf35e1d7639c9f2a5ece4ec85855 -->
<g id="edge29" class="edge">
<title>dir_e488ee1cea97fb16abdb5ccc78d2123b&#45;&gt;dir_452baf35e1d7639c9f2a5ece4ec85855</title>
<g id="a_edge29"><a xlink:href="dir_000014_000018.html" target="_top">
<path fill="none" stroke="#63b8ff" d="M232.6,-90.31C231.92,-115.9 218.1,-190.67 208.04,-225.83"/>
<polygon fill="#63b8ff" stroke="#63b8ff" points="204.59,-225.15 204.93,-235.74 211.27,-227.25 204.59,-225.15"/>
</a>
</g>
<g id="a_edge29&#45;headlabel"><a xlink:href="dir_000014_000018.html" target="_top" xlink:title="4">
<text text-anchor="middle" x="202.96" y="-218.37" font-family="Helvetica,sans-Serif" font-size="10.00" fill="#63b8ff">4</text>
</a>
</g>
</g>
<!-- dir_634e799a3947388232110823971192a8&#45;&gt;dir_018e9aafb459e6e1a4953404cb0c0b1d -->
<g id="edge32" class="edge">
<title>dir_634e799a3947388232110823971192a8&#45;&gt;dir_018e9aafb459e6e1a4953404cb0c0b1d</title>
<g id="a_edge32"><a xlink:href="dir_000015_000001.html" target="_top">
<path fill="none" stroke="#63b8ff" d="M153.59,-200.16C153.13,-212.42 152.73,-235.51 155,-255 160.82,-304.85 175.65,-362.26 183.67,-391.03"/>
<polygon fill="#63b8ff" stroke="#63b8ff" points="180.37,-392.23 186.46,-400.89 187.11,-390.32 180.37,-392.23"/>
</a>
</g>
<g id="a_edge32&#45;headlabel"><a xlink:href="dir_000015_000001.html" target="_top" xlink:title="1">
<text text-anchor="middle" x="176.66" y="-387.04" font-family="Helvetica,sans-Serif" font-size="10.00" fill="#63b8ff">1</text>
</a>
</g>
</g>
<!-- dir_634e799a3947388232110823971192a8&#45;&gt;dir_c184e51c84f2c3f0345bbc8a0d75d3e1 -->
<g id="edge36" class="edge">
<title>dir_634e799a3947388232110823971192a8&#45;&gt;dir_c184e51c84f2c3f0345bbc8a0d75d3e1</title>
<g id="a_edge36"><a xlink:href="dir_000015_000007.html" target="_top">
<path fill="none" stroke="#63b8ff" d="M154.35,-200.03C155.11,-212.51 157.5,-236.31 165,-255 178.42,-288.41 206.29,-320.24 224.29,-338.55"/>
<polygon fill="#63b8ff" stroke="#63b8ff" points="222.21,-341.42 231.78,-345.96 227.14,-336.44 222.21,-341.42"/>
</a>
</g>
<g id="a_edge36&#45;headlabel"><a xlink:href="dir_000015_000007.html" target="_top" xlink:title="2">
<text text-anchor="middle" x="217.66" y="-338.4" font-family="Helvetica,sans-Serif" font-size="10.00" fill="#63b8ff">2</text>
</a>
</g>
</g>
<!-- dir_634e799a3947388232110823971192a8&#45;&gt;dir_ae9a93452e2a84339148a16bcf2eb561 -->
<g id="edge35" class="edge">
<title>dir_634e799a3947388232110823971192a8&#45;&gt;dir_ae9a93452e2a84339148a16bcf2eb561</title>
<g id="a_edge35"><a xlink:href="dir_000015_000009.html" target="_top">
<path fill="none" stroke="#63b8ff" d="M153.8,-180.68C153.75,-168.23 154.5,-144.93 160,-126 167.65,-99.66 172.07,-93.33 188,-71 195.38,-60.66 205.11,-50.38 213.45,-42.31"/>
<polygon fill="#63b8ff" stroke="#63b8ff" points="216,-44.72 220.9,-35.32 211.21,-39.61 216,-44.72"/>
</a>
</g>
<g id="a_edge35&#45;headlabel"><a xlink:href="dir_000015_000009.html" target="_top" xlink:title="1">
<text text-anchor="middle" x="215.32" y="-46.75" font-family="Helvetica,sans-Serif" font-size="10.00" fill="#63b8ff">1</text>
</a>
</g>
</g>
<!-- dir_634e799a3947388232110823971192a8&#45;&gt;dir_452baf35e1d7639c9f2a5ece4ec85855 -->
<g id="edge34" class="edge">
<title>dir_634e799a3947388232110823971192a8&#45;&gt;dir_452baf35e1d7639c9f2a5ece4ec85855</title>
<g id="a_edge34"><a xlink:href="dir_000015_000018.html" target="_top">
<path fill="none" stroke="#63b8ff" d="M166.59,-200.09C174.58,-207.45 184.38,-218.27 191.51,-227.39"/>
<polygon fill="#63b8ff" stroke="#63b8ff" points="188.87,-229.71 197.57,-235.75 194.53,-225.6 188.87,-229.71"/>
</a>
</g>
<g id="a_edge34&#45;headlabel"><a xlink:href="dir_000015_000018.html" target="_top" xlink:title="3">
<text text-anchor="middle" x="184.46" y="-225.97" font-family="Helvetica,sans-Serif" font-size="10.00" fill="#63b8ff">3</text>
</a>
</g>
</g>
<!-- dir_634e799a3947388232110823971192a8&#45;&gt;dir_313caf1132e152dd9b58bea13a4052ca -->
<g id="edge33" class="edge">
<title>dir_634e799a3947388232110823971192a8&#45;&gt;dir_313caf1132e152dd9b58bea13a4052ca</title>
<g id="a_edge33"><a xlink:href="dir_000015_000020.html" target="_top">
<path fill="none" stroke="#63b8ff" d="M154.45,-180.75C157.64,-173.26 164.3,-162.28 171.02,-153.13"/>
<polygon fill="#63b8ff" stroke="#63b8ff" points="173.91,-155.11 177.36,-145.09 168.42,-150.77 173.91,-155.11"/>
</a>
</g>
<g id="a_edge33&#45;headlabel"><a xlink:href="dir_000015_000020.html" target="_top" xlink:title="1">
<text text-anchor="middle" x="173.92" y="-157.19" font-family="Helvetica,sans-Serif" font-size="10.00" fill="#63b8ff">1</text>
</a>
</g>
</g>
<!-- dir_452baf35e1d7639c9f2a5ece4ec85855&#45;&gt;dir_c184e51c84f2c3f0345bbc8a0d75d3e1 -->
<g id="edge39" class="edge">
<title>dir_452baf35e1d7639c9f2a5ece4ec85855&#45;&gt;dir_c184e51c84f2c3f0345bbc8a0d75d3e1</title>
<g id="a_edge39"><a xlink:href="dir_000018_000007.html" target="_top">
<path fill="none" stroke="#63b8ff" d="M206.43,-255.01C210.6,-267.48 213.47,-291.26 221,-310 224.82,-319.51 230.79,-329.14 235.58,-337"/>
<polygon fill="#63b8ff" stroke="#63b8ff" points="232.7,-339.01 240.78,-345.87 238.74,-335.47 232.7,-339.01"/>
</a>
</g>
<g id="a_edge39&#45;headlabel"><a xlink:href="dir_000018_000007.html" target="_top" xlink:title="1">
<text text-anchor="middle" x="228.43" y="-334.85" font-family="Helvetica,sans-Serif" font-size="10.00" fill="#63b8ff">1</text>
</a>
</g>
</g>
<!-- dir_452baf35e1d7639c9f2a5ece4ec85855&#45;&gt;dir_8250e12e5a19acb8ece30f1703b6dc16 -->
<g id="edge38" class="edge">
<title>dir_452baf35e1d7639c9f2a5ece4ec85855&#45;&gt;dir_8250e12e5a19acb8ece30f1703b6dc16</title>
<g id="a_edge38"><a xlink:href="dir_000018_000013.html" target="_top">
<path fill="none" stroke="#63b8ff" d="M222,-255.17C240.04,-263.52 265.1,-276.28 282.67,-285.97"/>
<polygon fill="#63b8ff" stroke="#63b8ff" points="281.14,-289.12 291.57,-290.98 284.58,-283.02 281.14,-289.12"/>
</a>
</g>
<g id="a_edge38&#45;headlabel"><a xlink:href="dir_000018_000013.html" target="_top" xlink:title="1">
<text text-anchor="middle" x="276.61" y="-287.33" font-family="Helvetica,sans-Serif" font-size="10.00" fill="#63b8ff">1</text>
</a>
</g>
</g>
<!-- dir_452baf35e1d7639c9f2a5ece4ec85855&#45;&gt;dir_e488ee1cea97fb16abdb5ccc78d2123b -->
<g id="edge40" class="edge">
<title>dir_452baf35e1d7639c9f2a5ece4ec85855&#45;&gt;dir_e488ee1cea97fb16abdb5ccc78d2123b</title>
<g id="a_edge40"><a xlink:href="dir_000018_000014.html" target="_top">
<path fill="none" stroke="#63b8ff" d="M198.4,-235.74C199.07,-210.2 212.88,-135.43 222.94,-100.23"/>
<polygon fill="#63b8ff" stroke="#63b8ff" points="226.4,-100.9 226.06,-90.31 219.72,-98.8 226.4,-100.9"/>
</a>
</g>
<g id="a_edge40&#45;headlabel"><a xlink:href="dir_000018_000014.html" target="_top" xlink:title="2">
<text text-anchor="middle" x="228.03" y="-102.68" font-family="Helvetica,sans-Serif" font-size="10.00" fill="#63b8ff">2</text>
</a>
</g>
</g>
<!-- dir_452baf35e1d7639c9f2a5ece4ec85855&#45;&gt;dir_634e799a3947388232110823971192a8 -->
<g id="edge37" class="edge">
<title>dir_452baf35e1d7639c9f2a5ece4ec85855&#45;&gt;dir_634e799a3947388232110823971192a8</title>
<g id="a_edge37"><a xlink:href="dir_000018_000015.html" target="_top">
<path fill="none" stroke="#63b8ff" d="M187.49,-235.98C179.47,-228.61 169.6,-217.72 162.45,-208.56"/>
<polygon fill="#63b8ff" stroke="#63b8ff" points="165.08,-206.22 156.38,-200.17 159.41,-210.32 165.08,-206.22"/>
</a>
</g>
<g id="a_edge37&#45;headlabel"><a xlink:href="dir_000018_000015.html" target="_top" xlink:title="1">
<text text-anchor="middle" x="169.48" y="-204.96" font-family="Helvetica,sans-Serif" font-size="10.00" fill="#63b8ff">1</text>
</a>
</g>
</g>
<!-- dir_313caf1132e152dd9b58bea13a4052ca&#45;&gt;dir_018e9aafb459e6e1a4953404cb0c0b1d -->
<g id="edge41" class="edge">
<title>dir_313caf1132e152dd9b58bea13a4052ca&#45;&gt;dir_018e9aafb459e6e1a4953404cb0c0b1d</title>
<g id="a_edge41"><a xlink:href="dir_000020_000001.html" target="_top">
<path fill="none" stroke="#63b8ff" d="M168.78,-143.3C152.77,-150.11 131.03,-162.3 121,-181 117.01,-188.44 119.74,-191.65 121,-200 132.07,-273.33 165.4,-355.79 180.9,-391.46"/>
<polygon fill="#63b8ff" stroke="#63b8ff" points="177.86,-393.23 185.1,-400.97 184.26,-390.41 177.86,-393.23"/>
</a>
</g>
<g id="a_edge41&#45;headlabel"><a xlink:href="dir_000020_000001.html" target="_top" xlink:title="1">
<text text-anchor="middle" x="173.81" y="-388.59" font-family="Helvetica,sans-Serif" font-size="10.00" fill="#63b8ff">1</text>
</a>
</g>
</g>
<!-- dir_313caf1132e152dd9b58bea13a4052ca&#45;&gt;dir_c184e51c84f2c3f0345bbc8a0d75d3e1 -->
<g id="edge45" class="edge">
<title>dir_313caf1132e152dd9b58bea13a4052ca&#45;&gt;dir_c184e51c84f2c3f0345bbc8a0d75d3e1</title>
<g id="a_edge45"><a xlink:href="dir_000020_000007.html" target="_top">
<path fill="none" stroke="#63b8ff" d="M193.79,-145.06C204.66,-161.69 227.75,-199.91 236,-236 237.88,-244.23 236.47,-246.57 236,-255 234.64,-279.47 229.56,-285.61 232,-310 232.85,-318.53 234.61,-327.84 236.34,-335.73"/>
<polygon fill="#63b8ff" stroke="#63b8ff" points="232.99,-336.78 238.68,-345.71 239.8,-335.18 232.99,-336.78"/>
</a>
</g>
<g id="a_edge45&#45;headlabel"><a xlink:href="dir_000020_000007.html" target="_top" xlink:title="2">
<text text-anchor="middle" x="229.4" y="-331.43" font-family="Helvetica,sans-Serif" font-size="10.00" fill="#63b8ff">2</text>
</a>
</g>
</g>
<!-- dir_313caf1132e152dd9b58bea13a4052ca&#45;&gt;dir_ae9a93452e2a84339148a16bcf2eb561 -->
<g id="edge44" class="edge">
<title>dir_313caf1132e152dd9b58bea13a4052ca&#45;&gt;dir_ae9a93452e2a84339148a16bcf2eb561</title>
<g id="a_edge44"><a xlink:href="dir_000020_000009.html" target="_top">
<path fill="none" stroke="#63b8ff" d="M188.07,-125.93C188.44,-113.39 190.23,-89.52 198,-71 202.26,-60.84 209.32,-50.86 215.81,-42.94"/>
<polygon fill="#63b8ff" stroke="#63b8ff" points="218.58,-45.08 222.48,-35.23 213.29,-40.5 218.58,-45.08"/>
</a>
</g>
<g id="a_edge44&#45;headlabel"><a xlink:href="dir_000020_000009.html" target="_top" xlink:title="1">
<text text-anchor="middle" x="218.38" y="-47.16" font-family="Helvetica,sans-Serif" font-size="10.00" fill="#63b8ff">1</text>
</a>
</g>
</g>
<!-- dir_313caf1132e152dd9b58bea13a4052ca&#45;&gt;dir_e488ee1cea97fb16abdb5ccc78d2123b -->
<g id="edge46" class="edge">
<title>dir_313caf1132e152dd9b58bea13a4052ca&#45;&gt;dir_e488ee1cea97fb16abdb5ccc78d2123b</title>
<g id="a_edge46"><a xlink:href="dir_000020_000014.html" target="_top">
<path fill="none" stroke="#63b8ff" d="M195.1,-125.75C201.17,-118.26 210.09,-107.28 217.51,-98.13"/>
<polygon fill="#63b8ff" stroke="#63b8ff" points="220.45,-100.06 224.03,-90.09 215.01,-95.65 220.45,-100.06"/>
</a>
</g>
<g id="a_edge46&#45;headlabel"><a xlink:href="dir_000020_000014.html" target="_top" xlink:title="4">
<text text-anchor="middle" x="220.39" y="-102.14" font-family="Helvetica,sans-Serif" font-size="10.00" fill="#63b8ff">4</text>
</a>
</g>
</g>
<!-- dir_313caf1132e152dd9b58bea13a4052ca&#45;&gt;dir_634e799a3947388232110823971192a8 -->
<g id="edge43" class="edge">
<title>dir_313caf1132e152dd9b58bea13a4052ca&#45;&gt;dir_634e799a3947388232110823971192a8</title>
<g id="a_edge43"><a xlink:href="dir_000020_000015.html" target="_top">
<path fill="none" stroke="#63b8ff" d="M187.62,-145.09C184.48,-152.52 177.84,-163.5 171.13,-172.67"/>
<polygon fill="#63b8ff" stroke="#63b8ff" points="168.21,-170.72 164.78,-180.75 173.71,-175.05 168.21,-170.72"/>
</a>
</g>
<g id="a_edge43&#45;headlabel"><a xlink:href="dir_000020_000015.html" target="_top" xlink:title="1">
<text text-anchor="middle" x="168.2" y="-163.64" font-family="Helvetica,sans-Serif" font-size="10.00" fill="#63b8ff">1</text>
</a>
</g>
</g>
<!-- dir_313caf1132e152dd9b58bea13a4052ca&#45;&gt;dir_452baf35e1d7639c9f2a5ece4ec85855 -->
<g id="edge42" class="edge">
<title>dir_313caf1132e152dd9b58bea13a4052ca&#45;&gt;dir_452baf35e1d7639c9f2a5ece4ec85855</title>
<g id="a_edge42"><a xlink:href="dir_000020_000018.html" target="_top">
<path fill="none" stroke="#63b8ff" d="M188.96,-145.16C190.89,-162.5 195.26,-201.84 197.89,-225.48"/>
<polygon fill="#63b8ff" stroke="#63b8ff" points="194.43,-226.11 199.02,-235.66 201.39,-225.34 194.43,-226.11"/>
</a>
</g>
<g id="a_edge42&#45;headlabel"><a xlink:href="dir_000020_000018.html" target="_top" xlink:title="2">
<text text-anchor="middle" x="191.22" y="-220.35" font-family="Helvetica,sans-Serif" font-size="10.00" fill="#63b8ff">2</text>
</a>
</g>
</g>
</g>
</svg>
