<?xml version="1.0" encoding="UTF-8" standalone="no"?>
<!DOCTYPE svg PUBLIC "-//W3C//DTD SVG 1.1//EN"
 "http://www.w3.org/Graphics/SVG/1.1/DTD/svg11.dtd">
<!-- Generated by graphviz version 2.43.0 (0)
 -->
<!-- Title: src/io/model_loaders/fbx_loader.c Pages: 1 -->
<svg width="1779pt" height="324pt"
 viewBox="0.00 0.00 1778.50 324.00" xmlns="http://www.w3.org/2000/svg" xmlns:xlink="http://www.w3.org/1999/xlink">
<g id="graph0" class="graph" transform="scale(1 1) rotate(0) translate(4 320)">
<title>src/io/model_loaders/fbx_loader.c</title>
<!-- Node1 -->
<g id="Node000001" class="node">
<title>Node1</title>
<g id="a_Node000001"><a xlink:title=" ">
<polygon fill="#999999" stroke="#666666" points="1468,-316 1350,-316 1350,-286 1468,-286 1468,-316"/>
<text text-anchor="start" x="1358" y="-304" font-family="Helvetica,sans-Serif" font-size="10.00">src/io/model_loaders</text>
<text text-anchor="middle" x="1409" y="-293" font-family="Helvetica,sans-Serif" font-size="10.00">/fbx_loader.c</text>
</a>
</g>
</g>
<!-- Node2 -->
<g id="Node000002" class="node">
<title>Node2</title>
<g id="a_Node000002"><a xlink:title=" ">
<polygon fill="#e0e0e0" stroke="#999999" points="813,-250 741,-250 741,-231 813,-231 813,-250"/>
<text text-anchor="middle" x="777" y="-238" font-family="Helvetica,sans-Serif" font-size="10.00">ufbx/ufbx.h</text>
</a>
</g>
</g>
<!-- Node1&#45;&gt;Node2 -->
<g id="edge1_Node000001_Node000002" class="edge">
<title>Node1&#45;&gt;Node2</title>
<g id="a_edge1_Node000001_Node000002"><a xlink:title=" ">
<path fill="none" stroke="#63b8ff" d="M1349.62,-296.94C1245.18,-291.13 1021.62,-276.73 823.32,-250.05"/>
<polygon fill="#63b8ff" stroke="#63b8ff" points="823.68,-246.56 813.3,-248.68 822.73,-253.5 823.68,-246.56"/>
</a>
</g>
</g>
<!-- Node3 -->
<g id="Node000003" class="node">
<title>Node3</title>
<g id="a_Node000003"><a xlink:href="raptiquax_8h.html" target="_top" xlink:title="This file contains type definitions for fixed&#45;width integer types and floating&#45;point types.">
<polygon fill="white" stroke="#666666" points="921,-250 831,-250 831,-231 921,-231 921,-250"/>
<text text-anchor="middle" x="876" y="-238" font-family="Helvetica,sans-Serif" font-size="10.00">../../raptiquax.h</text>
</a>
</g>
</g>
<!-- Node1&#45;&gt;Node3 -->
<g id="edge2_Node000001_Node000003" class="edge">
<title>Node1&#45;&gt;Node3</title>
<g id="a_edge2_Node000001_Node000003"><a xlink:title=" ">
<path fill="none" stroke="#63b8ff" d="M1349.92,-293.52C1246.02,-282.11 1032.04,-258.63 931.06,-247.54"/>
<polygon fill="#63b8ff" stroke="#63b8ff" points="931.39,-244.06 921.06,-246.45 930.62,-251.02 931.39,-244.06"/>
</a>
</g>
</g>
<!-- Node25 -->
<g id="Node000025" class="node">
<title>Node25</title>
<g id="a_Node000025"><a xlink:href="math__util_8h.html" target="_top" xlink:title=" ">
<polygon fill="white" stroke="#666666" points="1424.5,-250 1305.5,-250 1305.5,-231 1424.5,-231 1424.5,-250"/>
<text text-anchor="middle" x="1365" y="-238" font-family="Helvetica,sans-Serif" font-size="10.00">../../math/math_util.h</text>
</a>
</g>
</g>
<!-- Node1&#45;&gt;Node25 -->
<g id="edge24_Node000001_Node000025" class="edge">
<title>Node1&#45;&gt;Node25</title>
<g id="a_edge24_Node000001_Node000025"><a xlink:title=" ">
<path fill="none" stroke="#63b8ff" d="M1398.35,-285.84C1392.16,-277.61 1384.31,-267.18 1377.79,-258.51"/>
<polygon fill="#63b8ff" stroke="#63b8ff" points="1380.4,-256.15 1371.59,-250.27 1374.81,-260.36 1380.4,-256.15"/>
</a>
</g>
</g>
<!-- Node26 -->
<g id="Node000026" class="node">
<title>Node26</title>
<g id="a_Node000026"><a xlink:href="model_8h.html" target="_top" xlink:title="Defines structures and functions for handling 3D models and their properties.">
<polygon fill="white" stroke="#666666" points="1567,-250 1481,-250 1481,-231 1567,-231 1567,-250"/>
<text text-anchor="middle" x="1524" y="-238" font-family="Helvetica,sans-Serif" font-size="10.00">../../io/model.h</text>
</a>
</g>
</g>
<!-- Node1&#45;&gt;Node26 -->
<g id="edge25_Node000001_Node000026" class="edge">
<title>Node1&#45;&gt;Node26</title>
<g id="a_edge25_Node000001_Node000026"><a xlink:title=" ">
<path fill="none" stroke="#63b8ff" d="M1436.55,-285.99C1455.22,-276.49 1479.74,-264.02 1498.06,-254.69"/>
<polygon fill="#63b8ff" stroke="#63b8ff" points="1499.69,-257.79 1507.02,-250.14 1496.52,-251.55 1499.69,-257.79"/>
</a>
</g>
</g>
<!-- Node27 -->
<g id="Node000027" class="node">
<title>Node27</title>
<g id="a_Node000027"><a xlink:href="shader_8h.html" target="_top" xlink:title=" ">
<polygon fill="white" stroke="#666666" points="1553,-189.5 1495,-189.5 1495,-170.5 1553,-170.5 1553,-189.5"/>
<text text-anchor="middle" x="1524" y="-177.5" font-family="Helvetica,sans-Serif" font-size="10.00">shader.h</text>
</a>
</g>
</g>
<!-- Node1&#45;&gt;Node27 -->
<g id="edge31_Node000001_Node000027" class="edge">
<title>Node1&#45;&gt;Node27</title>
<g id="a_edge31_Node000001_Node000027"><a xlink:title=" ">
<path fill="none" stroke="#63b8ff" d="M1421.53,-285.74C1434.06,-271.62 1454,-249.47 1472,-231 1483.45,-219.25 1496.8,-206.44 1507.1,-196.72"/>
<polygon fill="#63b8ff" stroke="#63b8ff" points="1509.72,-199.07 1514.62,-189.67 1504.93,-193.96 1509.72,-199.07"/>
</a>
</g>
</g>
<!-- Node32 -->
<g id="Node000032" class="node">
<title>Node32</title>
<g id="a_Node000032"><a xlink:href="memory_8h.html" target="_top" xlink:title="Header file for memory management functions and structures.">
<polygon fill="white" stroke="#666666" points="1668.5,-250 1585.5,-250 1585.5,-231 1668.5,-231 1668.5,-250"/>
<text text-anchor="middle" x="1627" y="-238" font-family="Helvetica,sans-Serif" font-size="10.00">../../memory.h</text>
</a>
</g>
</g>
<!-- Node1&#45;&gt;Node32 -->
<g id="edge32_Node000001_Node000032" class="edge">
<title>Node1&#45;&gt;Node32</title>
<g id="a_edge32_Node000001_Node000032"><a xlink:title=" ">
<path fill="none" stroke="#63b8ff" d="M1461.22,-285.99C1499.16,-275.8 1549.85,-262.2 1585.15,-252.73"/>
<polygon fill="#63b8ff" stroke="#63b8ff" points="1586.37,-256.03 1595.12,-250.05 1584.56,-249.27 1586.37,-256.03"/>
</a>
</g>
</g>
<!-- Node4 -->
<g id="Node000004" class="node">
<title>Node4</title>
<g id="a_Node000004"><a xlink:title=" ">
<polygon fill="#e0e0e0" stroke="#999999" points="50,-189.5 0,-189.5 0,-170.5 50,-170.5 50,-189.5"/>
<text text-anchor="middle" x="25" y="-177.5" font-family="Helvetica,sans-Serif" font-size="10.00">stdio.h</text>
</a>
</g>
</g>
<!-- Node3&#45;&gt;Node4 -->
<g id="edge3_Node000003_Node000004" class="edge">
<title>Node3&#45;&gt;Node4</title>
<g id="a_edge3_Node000003_Node000004"><a xlink:title=" ">
<path fill="none" stroke="#63b8ff" d="M830.97,-232.04C827.94,-231.65 824.93,-231.3 822,-231 484.26,-196.55 390.39,-268.71 59,-195 56.77,-194.5 54.5,-193.87 52.25,-193.16"/>
<polygon fill="#63b8ff" stroke="#63b8ff" points="53.22,-189.78 42.62,-189.6 50.79,-196.35 53.22,-189.78"/>
</a>
</g>
</g>
<!-- Node5 -->
<g id="Node000005" class="node">
<title>Node5</title>
<g id="a_Node000005"><a xlink:title=" ">
<polygon fill="#e0e0e0" stroke="#999999" points="121.5,-189.5 68.5,-189.5 68.5,-170.5 121.5,-170.5 121.5,-189.5"/>
<text text-anchor="middle" x="95" y="-177.5" font-family="Helvetica,sans-Serif" font-size="10.00">stdint.h</text>
</a>
</g>
</g>
<!-- Node3&#45;&gt;Node5 -->
<g id="edge4_Node000003_Node000005" class="edge">
<title>Node3&#45;&gt;Node5</title>
<g id="a_edge4_Node000003_Node000005"><a xlink:title=" ">
<path fill="none" stroke="#63b8ff" d="M830.96,-232.05C827.94,-231.66 824.93,-231.31 822,-231 516.14,-199.05 431.68,-259.55 131,-195 128.48,-194.46 125.9,-193.76 123.34,-192.97"/>
<polygon fill="#63b8ff" stroke="#63b8ff" points="124.3,-189.6 113.71,-189.57 121.97,-196.2 124.3,-189.6"/>
</a>
</g>
</g>
<!-- Node6 -->
<g id="Node000006" class="node">
<title>Node6</title>
<g id="a_Node000006"><a xlink:title=" ">
<polygon fill="#e0e0e0" stroke="#999999" points="202,-189.5 140,-189.5 140,-170.5 202,-170.5 202,-189.5"/>
<text text-anchor="middle" x="171" y="-177.5" font-family="Helvetica,sans-Serif" font-size="10.00">stdbool.h</text>
</a>
</g>
</g>
<!-- Node3&#45;&gt;Node6 -->
<g id="edge5_Node000003_Node000006" class="edge">
<title>Node3&#45;&gt;Node6</title>
<g id="a_edge5_Node000003_Node000006"><a xlink:title=" ">
<path fill="none" stroke="#63b8ff" d="M830.96,-232.08C827.93,-231.68 824.93,-231.32 822,-231 551.54,-201.82 477.72,-248.45 211,-195 207.92,-194.38 204.77,-193.58 201.63,-192.68"/>
<polygon fill="#63b8ff" stroke="#63b8ff" points="202.46,-189.27 191.87,-189.53 200.31,-195.93 202.46,-189.27"/>
</a>
</g>
</g>
<!-- Node7 -->
<g id="Node000007" class="node">
<title>Node7</title>
<g id="a_Node000007"><a xlink:title=" ">
<polygon fill="#e0e0e0" stroke="#999999" points="276,-189.5 220,-189.5 220,-170.5 276,-170.5 276,-189.5"/>
<text text-anchor="middle" x="248" y="-177.5" font-family="Helvetica,sans-Serif" font-size="10.00">stdarg.h</text>
</a>
</g>
</g>
<!-- Node3&#45;&gt;Node7 -->
<g id="edge6_Node000003_Node000007" class="edge">
<title>Node3&#45;&gt;Node7</title>
<g id="a_edge6_Node000003_Node000007"><a xlink:title=" ">
<path fill="none" stroke="#63b8ff" d="M830.96,-232.1C827.93,-231.7 824.92,-231.33 822,-231 584.28,-204.38 518.73,-245.88 285,-195 282.32,-194.42 279.58,-193.68 276.86,-192.84"/>
<polygon fill="#63b8ff" stroke="#63b8ff" points="277.85,-189.48 267.26,-189.51 275.56,-196.09 277.85,-189.48"/>
</a>
</g>
</g>
<!-- Node8 -->
<g id="Node000008" class="node">
<title>Node8</title>
<g id="a_Node000008"><a xlink:title=" ">
<polygon fill="#e0e0e0" stroke="#999999" points="347.5,-189.5 294.5,-189.5 294.5,-170.5 347.5,-170.5 347.5,-189.5"/>
<text text-anchor="middle" x="321" y="-177.5" font-family="Helvetica,sans-Serif" font-size="10.00">limits.h</text>
</a>
</g>
</g>
<!-- Node3&#45;&gt;Node8 -->
<g id="edge7_Node000003_Node000008" class="edge">
<title>Node3&#45;&gt;Node8</title>
<g id="a_edge7_Node000003_Node000008"><a xlink:title=" ">
<path fill="none" stroke="#63b8ff" d="M830.96,-232.14C827.93,-231.73 824.92,-231.34 822,-231 616.12,-206.87 559.1,-241.06 357,-195 354.63,-194.46 352.2,-193.79 349.79,-193.04"/>
<polygon fill="#63b8ff" stroke="#63b8ff" points="350.7,-189.65 340.1,-189.63 348.37,-196.25 350.7,-189.65"/>
</a>
</g>
</g>
<!-- Node9 -->
<g id="Node000009" class="node">
<title>Node9</title>
<g id="a_Node000009"><a xlink:title=" ">
<polygon fill="#e0e0e0" stroke="#999999" points="438,-189.5 366,-189.5 366,-170.5 438,-170.5 438,-189.5"/>
<text text-anchor="middle" x="402" y="-177.5" font-family="Helvetica,sans-Serif" font-size="10.00">SDL2/SDL.h</text>
</a>
</g>
</g>
<!-- Node3&#45;&gt;Node9 -->
<g id="edge8_Node000003_Node000009" class="edge">
<title>Node3&#45;&gt;Node9</title>
<g id="a_edge8_Node000003_Node000009"><a xlink:title=" ">
<path fill="none" stroke="#63b8ff" d="M830.95,-232.2C827.92,-231.77 824.92,-231.37 822,-231 655.89,-209.97 611.14,-228.04 447,-195 443.53,-194.3 439.94,-193.44 436.38,-192.49"/>
<polygon fill="#63b8ff" stroke="#63b8ff" points="437.1,-189.05 426.52,-189.63 435.15,-195.77 437.1,-189.05"/>
</a>
</g>
</g>
<!-- Node10 -->
<g id="Node000010" class="node">
<title>Node10</title>
<g id="a_Node000010"><a xlink:title=" ">
<polygon fill="#e0e0e0" stroke="#999999" points="564,-189.5 456,-189.5 456,-170.5 564,-170.5 564,-189.5"/>
<text text-anchor="middle" x="510" y="-177.5" font-family="Helvetica,sans-Serif" font-size="10.00">SDL2/SDL_image.h</text>
</a>
</g>
</g>
<!-- Node3&#45;&gt;Node10 -->
<g id="edge9_Node000003_Node000010" class="edge">
<title>Node3&#45;&gt;Node10</title>
<g id="a_edge9_Node000003_Node000010"><a xlink:title=" ">
<path fill="none" stroke="#63b8ff" d="M830.93,-232.36C827.91,-231.9 824.91,-231.44 822,-231 711.44,-214.31 682.99,-215.14 573,-195 567.56,-194 561.87,-192.87 556.24,-191.69"/>
<polygon fill="#63b8ff" stroke="#63b8ff" points="556.73,-188.22 546.22,-189.54 555.26,-195.06 556.73,-188.22"/>
</a>
</g>
</g>
<!-- Node11 -->
<g id="Node000011" class="node">
<title>Node11</title>
<g id="a_Node000011"><a xlink:title=" ">
<polygon fill="#e0e0e0" stroke="#999999" points="692,-189.5 582,-189.5 582,-170.5 692,-170.5 692,-189.5"/>
<text text-anchor="middle" x="637" y="-177.5" font-family="Helvetica,sans-Serif" font-size="10.00">SDL2/SDL_opengl.h</text>
</a>
</g>
</g>
<!-- Node3&#45;&gt;Node11 -->
<g id="edge10_Node000003_Node000011" class="edge">
<title>Node3&#45;&gt;Node11</title>
<g id="a_edge10_Node000003_Node000011"><a xlink:title=" ">
<path fill="none" stroke="#63b8ff" d="M841.25,-230.99C799.03,-220.66 727.75,-203.21 681.54,-191.9"/>
<polygon fill="#63b8ff" stroke="#63b8ff" points="682.34,-188.49 671.79,-189.52 680.68,-195.29 682.34,-188.49"/>
</a>
</g>
</g>
<!-- Node12 -->
<g id="Node000012" class="node">
<title>Node12</title>
<g id="a_Node000012"><a xlink:title=" ">
<polygon fill="#e0e0e0" stroke="#999999" points="814,-189.5 710,-189.5 710,-170.5 814,-170.5 814,-189.5"/>
<text text-anchor="middle" x="762" y="-177.5" font-family="Helvetica,sans-Serif" font-size="10.00">SDL2/SDL_mixer.h</text>
</a>
</g>
</g>
<!-- Node3&#45;&gt;Node12 -->
<g id="edge11_Node000003_Node000012" class="edge">
<title>Node3&#45;&gt;Node12</title>
<g id="a_edge11_Node000003_Node000012"><a xlink:title=" ">
<path fill="none" stroke="#63b8ff" d="M859.18,-230.87C840.4,-221.23 809.8,-205.53 787.95,-194.31"/>
<polygon fill="#63b8ff" stroke="#63b8ff" points="789.39,-191.12 778.89,-189.67 786.19,-197.35 789.39,-191.12"/>
</a>
</g>
</g>
<!-- Node13 -->
<g id="Node000013" class="node">
<title>Node13</title>
<g id="a_Node000013"><a xlink:title=" ">
<polygon fill="#e0e0e0" stroke="#999999" points="920,-189.5 832,-189.5 832,-170.5 920,-170.5 920,-189.5"/>
<text text-anchor="middle" x="876" y="-177.5" font-family="Helvetica,sans-Serif" font-size="10.00">SDL2/SDL_ttf.h</text>
</a>
</g>
</g>
<!-- Node3&#45;&gt;Node13 -->
<g id="edge12_Node000003_Node000013" class="edge">
<title>Node3&#45;&gt;Node13</title>
<g id="a_edge12_Node000003_Node000013"><a xlink:title=" ">
<path fill="none" stroke="#63b8ff" d="M876,-230.87C876,-222.75 876,-210.31 876,-199.89"/>
<polygon fill="#63b8ff" stroke="#63b8ff" points="879.5,-199.67 876,-189.67 872.5,-199.67 879.5,-199.67"/>
</a>
</g>
</g>
<!-- Node14 -->
<g id="Node000014" class="node">
<title>Node14</title>
<g id="a_Node000014"><a xlink:title=" ">
<polygon fill="#e0e0e0" stroke="#999999" points="988,-189.5 938,-189.5 938,-170.5 988,-170.5 988,-189.5"/>
<text text-anchor="middle" x="963" y="-177.5" font-family="Helvetica,sans-Serif" font-size="10.00">GL/gl.h</text>
</a>
</g>
</g>
<!-- Node3&#45;&gt;Node14 -->
<g id="edge13_Node000003_Node000014" class="edge">
<title>Node3&#45;&gt;Node14</title>
<g id="a_edge13_Node000003_Node000014"><a xlink:title=" ">
<path fill="none" stroke="#63b8ff" d="M888.84,-230.87C902.72,-221.54 925.07,-206.51 941.61,-195.38"/>
<polygon fill="#63b8ff" stroke="#63b8ff" points="943.76,-198.15 950.11,-189.67 939.86,-192.34 943.76,-198.15"/>
</a>
</g>
</g>
<!-- Node15 -->
<g id="Node000015" class="node">
<title>Node15</title>
<g id="a_Node000015"><a xlink:title=" ">
<polygon fill="#e0e0e0" stroke="#999999" points="1062,-189.5 1006,-189.5 1006,-170.5 1062,-170.5 1062,-189.5"/>
<text text-anchor="middle" x="1034" y="-177.5" font-family="Helvetica,sans-Serif" font-size="10.00">GL/glu.h</text>
</a>
</g>
</g>
<!-- Node3&#45;&gt;Node15 -->
<g id="edge14_Node000003_Node000015" class="edge">
<title>Node3&#45;&gt;Node15</title>
<g id="a_edge14_Node000003_Node000015"><a xlink:title=" ">
<path fill="none" stroke="#63b8ff" d="M899.67,-230.87C924.08,-221.95 963.24,-207.6 997,-195 998.59,-194.41 1000.22,-193.8 1001.87,-193.18"/>
<polygon fill="#63b8ff" stroke="#63b8ff" points="1003.19,-196.42 1011.31,-189.62 1000.72,-189.87 1003.19,-196.42"/>
</a>
</g>
</g>
<!-- Node16 -->
<g id="Node000016" class="node">
<title>Node16</title>
<g id="a_Node000016"><a xlink:title=" ">
<polygon fill="#e0e0e0" stroke="#999999" points="1146,-189.5 1080,-189.5 1080,-170.5 1146,-170.5 1146,-189.5"/>
<text text-anchor="middle" x="1113" y="-177.5" font-family="Helvetica,sans-Serif" font-size="10.00">GL/glext.h</text>
</a>
</g>
</g>
<!-- Node3&#45;&gt;Node16 -->
<g id="edge15_Node000003_Node000016" class="edge">
<title>Node3&#45;&gt;Node16</title>
<g id="a_edge15_Node000003_Node000016"><a xlink:title=" ">
<path fill="none" stroke="#63b8ff" d="M918.91,-230.96C958.62,-222.77 1019.17,-209.51 1071,-195 1073.62,-194.27 1076.31,-193.47 1079.01,-192.64"/>
<polygon fill="#63b8ff" stroke="#63b8ff" points="1080.23,-195.92 1088.69,-189.55 1078.1,-189.26 1080.23,-195.92"/>
</a>
</g>
</g>
<!-- Node17 -->
<g id="Node000017" class="node">
<title>Node17</title>
<g id="a_Node000017"><a xlink:title=" ">
<polygon fill="#e0e0e0" stroke="#999999" points="1241.5,-189.5 1164.5,-189.5 1164.5,-170.5 1241.5,-170.5 1241.5,-189.5"/>
<text text-anchor="middle" x="1203" y="-177.5" font-family="Helvetica,sans-Serif" font-size="10.00">cglm/cglm.h</text>
</a>
</g>
</g>
<!-- Node3&#45;&gt;Node17 -->
<g id="edge16_Node000003_Node000017" class="edge">
<title>Node3&#45;&gt;Node17</title>
<g id="a_edge16_Node000003_Node000017"><a xlink:title=" ">
<path fill="none" stroke="#63b8ff" d="M921.27,-234.06C976.74,-226.98 1073.4,-213.33 1155,-195 1158.64,-194.18 1162.42,-193.24 1166.18,-192.25"/>
<polygon fill="#63b8ff" stroke="#63b8ff" points="1167.29,-195.57 1175.99,-189.52 1165.42,-188.82 1167.29,-195.57"/>
</a>
</g>
</g>
<!-- Node18 -->
<g id="Node000018" class="node">
<title>Node18</title>
<g id="a_Node000018"><a xlink:title=" ">
<polygon fill="#e0e0e0" stroke="#999999" points="1310.5,-189.5 1259.5,-189.5 1259.5,-170.5 1310.5,-170.5 1310.5,-189.5"/>
<text text-anchor="middle" x="1285" y="-177.5" font-family="Helvetica,sans-Serif" font-size="10.00">math.h</text>
</a>
</g>
</g>
<!-- Node3&#45;&gt;Node18 -->
<g id="edge17_Node000003_Node000018" class="edge">
<title>Node3&#45;&gt;Node18</title>
<g id="a_edge17_Node000003_Node000018"><a xlink:title=" ">
<path fill="none" stroke="#63b8ff" d="M921.02,-237.94C991.98,-234.64 1133.73,-224.62 1250,-195 1252.16,-194.45 1254.37,-193.8 1256.58,-193.08"/>
<polygon fill="#63b8ff" stroke="#63b8ff" points="1257.85,-196.34 1266.05,-189.63 1255.45,-189.76 1257.85,-196.34"/>
</a>
</g>
</g>
<!-- Node19 -->
<g id="Node000019" class="node">
<title>Node19</title>
<g id="a_Node000019"><a xlink:href="stringio_8h.html" target="_top" xlink:title="Provides utility functions for string and file operations.">
<polygon fill="white" stroke="#666666" points="1403,-189.5 1329,-189.5 1329,-170.5 1403,-170.5 1403,-189.5"/>
<text text-anchor="middle" x="1366" y="-177.5" font-family="Helvetica,sans-Serif" font-size="10.00">io/stringio.h</text>
</a>
</g>
</g>
<!-- Node3&#45;&gt;Node19 -->
<g id="edge18_Node000003_Node000019" class="edge">
<title>Node3&#45;&gt;Node19</title>
<g id="a_edge18_Node000003_Node000019"><a xlink:title=" ">
<path fill="none" stroke="#63b8ff" d="M921.06,-237.79C1001.6,-234.11 1175.29,-223.36 1319,-195 1322.73,-194.26 1326.58,-193.36 1330.41,-192.37"/>
<polygon fill="#63b8ff" stroke="#63b8ff" points="1331.67,-195.65 1340.36,-189.59 1329.79,-188.91 1331.67,-195.65"/>
</a>
</g>
</g>
<!-- Node21 -->
<g id="Node000021" class="node">
<title>Node21</title>
<g id="a_Node000021"><a xlink:href="config_8h.html" target="_top" xlink:title=" ">
<polygon fill="white" stroke="#666666" points="1476.5,-189.5 1421.5,-189.5 1421.5,-170.5 1476.5,-170.5 1476.5,-189.5"/>
<text text-anchor="middle" x="1449" y="-177.5" font-family="Helvetica,sans-Serif" font-size="10.00">config.h</text>
</a>
</g>
</g>
<!-- Node3&#45;&gt;Node21 -->
<g id="edge20_Node000003_Node000021" class="edge">
<title>Node3&#45;&gt;Node21</title>
<g id="a_edge20_Node000003_Node000021"><a xlink:title=" ">
<path fill="none" stroke="#63b8ff" d="M921.11,-239.96C1014.13,-240 1233.49,-235.35 1412,-195 1414.52,-194.43 1417.1,-193.73 1419.67,-192.94"/>
<polygon fill="#63b8ff" stroke="#63b8ff" points="1421.03,-196.17 1429.34,-189.6 1418.75,-189.55 1421.03,-196.17"/>
</a>
</g>
</g>
<!-- Node20 -->
<g id="Node000020" class="node">
<title>Node20</title>
<g id="a_Node000020"><a xlink:title=" ">
<polygon fill="#e0e0e0" stroke="#999999" points="1392.5,-129 1339.5,-129 1339.5,-110 1392.5,-110 1392.5,-129"/>
<text text-anchor="middle" x="1366" y="-117" font-family="Helvetica,sans-Serif" font-size="10.00">string.h</text>
</a>
</g>
</g>
<!-- Node19&#45;&gt;Node20 -->
<g id="edge19_Node000019_Node000020" class="edge">
<title>Node19&#45;&gt;Node20</title>
<g id="a_edge19_Node000019_Node000020"><a xlink:title=" ">
<path fill="none" stroke="#63b8ff" d="M1366,-170.37C1366,-162.25 1366,-149.81 1366,-139.39"/>
<polygon fill="#63b8ff" stroke="#63b8ff" points="1369.5,-139.17 1366,-129.17 1362.5,-139.17 1369.5,-139.17"/>
</a>
</g>
</g>
<!-- Node22 -->
<g id="Node000022" class="node">
<title>Node22</title>
<g id="a_Node000022"><a xlink:href="term_8h.html" target="_top" xlink:title=" ">
<polygon fill="white" stroke="#666666" points="1485.5,-129 1410.5,-129 1410.5,-110 1485.5,-110 1485.5,-129"/>
<text text-anchor="middle" x="1448" y="-117" font-family="Helvetica,sans-Serif" font-size="10.00">term/term.h</text>
</a>
</g>
</g>
<!-- Node21&#45;&gt;Node22 -->
<g id="edge21_Node000021_Node000022" class="edge">
<title>Node21&#45;&gt;Node22</title>
<g id="a_edge21_Node000021_Node000022"><a xlink:title=" ">
<path fill="none" stroke="#63b8ff" d="M1448.85,-170.37C1448.71,-162.25 1448.5,-149.81 1448.32,-139.39"/>
<polygon fill="#63b8ff" stroke="#63b8ff" points="1451.82,-139.11 1448.15,-129.17 1444.82,-139.23 1451.82,-139.11"/>
</a>
</g>
</g>
<!-- Node23 -->
<g id="Node000023" class="node">
<title>Node23</title>
<g id="a_Node000023"><a xlink:href="enhanced__print_8h.html" target="_top" xlink:title=" ">
<polygon fill="white" stroke="#666666" points="1498.5,-74 1397.5,-74 1397.5,-55 1498.5,-55 1498.5,-74"/>
<text text-anchor="middle" x="1448" y="-62" font-family="Helvetica,sans-Serif" font-size="10.00">enhanced_print.h</text>
</a>
</g>
</g>
<!-- Node22&#45;&gt;Node23 -->
<g id="edge22_Node000022_Node000023" class="edge">
<title>Node22&#45;&gt;Node23</title>
<g id="a_edge22_Node000022_Node000023"><a xlink:title=" ">
<path fill="none" stroke="#63b8ff" d="M1448,-109.75C1448,-102.8 1448,-92.85 1448,-84.13"/>
<polygon fill="#63b8ff" stroke="#63b8ff" points="1451.5,-84.09 1448,-74.09 1444.5,-84.09 1451.5,-84.09"/>
</a>
</g>
</g>
<!-- Node24 -->
<g id="Node000024" class="node">
<title>Node24</title>
<g id="a_Node000024"><a xlink:href="color_8h.html" target="_top" xlink:title=" ">
<polygon fill="white" stroke="#666666" points="1472.5,-19 1423.5,-19 1423.5,0 1472.5,0 1472.5,-19"/>
<text text-anchor="middle" x="1448" y="-7" font-family="Helvetica,sans-Serif" font-size="10.00">color.h</text>
</a>
</g>
</g>
<!-- Node23&#45;&gt;Node24 -->
<g id="edge23_Node000023_Node000024" class="edge">
<title>Node23&#45;&gt;Node24</title>
<g id="a_edge23_Node000023_Node000024"><a xlink:title=" ">
<path fill="none" stroke="#63b8ff" d="M1448,-54.75C1448,-47.8 1448,-37.85 1448,-29.13"/>
<polygon fill="#63b8ff" stroke="#63b8ff" points="1451.5,-29.09 1448,-19.09 1444.5,-29.09 1451.5,-29.09"/>
</a>
</g>
</g>
<!-- Node26&#45;&gt;Node27 -->
<g id="edge26_Node000026_Node000027" class="edge">
<title>Node26&#45;&gt;Node27</title>
<g id="a_edge26_Node000026_Node000027"><a xlink:title=" ">
<path fill="none" stroke="#63b8ff" d="M1524,-230.87C1524,-222.75 1524,-210.31 1524,-199.89"/>
<polygon fill="#63b8ff" stroke="#63b8ff" points="1527.5,-199.67 1524,-189.67 1520.5,-199.67 1527.5,-199.67"/>
</a>
</g>
</g>
<!-- Node28 -->
<g id="Node000028" class="node">
<title>Node28</title>
<g id="a_Node000028"><a xlink:href="model__loader_8h.html" target="_top" xlink:title=" ">
<polygon fill="white" stroke="#666666" points="1696,-195 1574,-195 1574,-165 1696,-165 1696,-195"/>
<text text-anchor="start" x="1582" y="-183" font-family="Helvetica,sans-Serif" font-size="10.00">model_loaders/model</text>
<text text-anchor="middle" x="1635" y="-172" font-family="Helvetica,sans-Serif" font-size="10.00">_loader.h</text>
</a>
</g>
</g>
<!-- Node26&#45;&gt;Node28 -->
<g id="edge27_Node000026_Node000028" class="edge">
<title>Node26&#45;&gt;Node28</title>
<g id="a_edge27_Node000026_Node000028"><a xlink:title=" ">
<path fill="none" stroke="#63b8ff" d="M1540.38,-230.87C1555.79,-222.75 1579.39,-210.31 1599.16,-199.89"/>
<polygon fill="#63b8ff" stroke="#63b8ff" points="1601,-202.87 1608.22,-195.11 1597.74,-196.68 1601,-202.87"/>
</a>
</g>
</g>
<!-- Node29 -->
<g id="Node000029" class="node">
<title>Node29</title>
<g id="a_Node000029"><a xlink:href="obj__loader_8h.html" target="_top" xlink:title=" ">
<polygon fill="white" stroke="#666666" points="1580,-129 1504,-129 1504,-110 1580,-110 1580,-129"/>
<text text-anchor="middle" x="1542" y="-117" font-family="Helvetica,sans-Serif" font-size="10.00">obj_loader.h</text>
</a>
</g>
</g>
<!-- Node28&#45;&gt;Node29 -->
<g id="edge28_Node000028_Node000029" class="edge">
<title>Node28&#45;&gt;Node29</title>
<g id="a_edge28_Node000028_Node000029"><a xlink:title=" ">
<path fill="none" stroke="#63b8ff" d="M1612.49,-164.84C1597.94,-155.68 1579.07,-143.82 1564.51,-134.66"/>
<polygon fill="#63b8ff" stroke="#63b8ff" points="1565.99,-131.46 1555.66,-129.09 1562.26,-137.38 1565.99,-131.46"/>
</a>
</g>
</g>
<!-- Node30 -->
<g id="Node000030" class="node">
<title>Node30</title>
<g id="a_Node000030"><a xlink:href="mtl__loader_8h.html" target="_top" xlink:title=" ">
<polygon fill="white" stroke="#666666" points="1675.5,-129 1598.5,-129 1598.5,-110 1675.5,-110 1675.5,-129"/>
<text text-anchor="middle" x="1637" y="-117" font-family="Helvetica,sans-Serif" font-size="10.00">mtl_loader.h</text>
</a>
</g>
</g>
<!-- Node28&#45;&gt;Node30 -->
<g id="edge29_Node000028_Node000030" class="edge">
<title>Node28&#45;&gt;Node30</title>
<g id="a_edge29_Node000028_Node000030"><a xlink:title=" ">
<path fill="none" stroke="#63b8ff" d="M1635.48,-164.84C1635.74,-157.21 1636.07,-147.7 1636.35,-139.45"/>
<polygon fill="#63b8ff" stroke="#63b8ff" points="1639.86,-139.38 1636.7,-129.27 1632.86,-139.14 1639.86,-139.38"/>
</a>
</g>
</g>
<!-- Node31 -->
<g id="Node000031" class="node">
<title>Node31</title>
<g id="a_Node000031"><a xlink:href="fbx__loader_8h.html" target="_top" xlink:title=" ">
<polygon fill="white" stroke="#666666" points="1770.5,-129 1693.5,-129 1693.5,-110 1770.5,-110 1770.5,-129"/>
<text text-anchor="middle" x="1732" y="-117" font-family="Helvetica,sans-Serif" font-size="10.00">fbx_loader.h</text>
</a>
</g>
</g>
<!-- Node28&#45;&gt;Node31 -->
<g id="edge30_Node000028_Node000031" class="edge">
<title>Node28&#45;&gt;Node31</title>
<g id="a_edge30_Node000028_Node000031"><a xlink:title=" ">
<path fill="none" stroke="#63b8ff" d="M1658.48,-164.84C1673.8,-155.6 1693.71,-143.59 1708.95,-134.4"/>
<polygon fill="#63b8ff" stroke="#63b8ff" points="1710.99,-137.26 1717.75,-129.09 1707.38,-131.26 1710.99,-137.26"/>
</a>
</g>
</g>
</g>
</svg>
