<?xml version="1.0" encoding="UTF-8" standalone="no"?>
<!DOCTYPE svg PUBLIC "-//W3C//DTD SVG 1.1//EN"
 "http://www.w3.org/Graphics/SVG/1.1/DTD/svg11.dtd">
<!-- Generated by graphviz version 2.43.0 (0)
 -->
<!-- Title: src/gui/frame.h Pages: 1 -->
<svg width="1763pt" height="93pt"
 viewBox="0.00 0.00 1762.50 93.00" xmlns="http://www.w3.org/2000/svg" xmlns:xlink="http://www.w3.org/1999/xlink">
<g id="graph0" class="graph" transform="scale(1 1) rotate(0) translate(4 89)">
<title>src/gui/frame.h</title>
<!-- Node1 -->
<g id="Node000001" class="node">
<title>Node1</title>
<g id="a_Node000001"><a xlink:title="GUI Frame and related structures for SDL and OpenGL project.">
<polygon fill="#999999" stroke="#666666" points="984,-85 894,-85 894,-66 984,-66 984,-85"/>
<text text-anchor="middle" x="939" y="-73" font-family="Helvetica,sans-Serif" font-size="10.00">src/gui/frame.h</text>
</a>
</g>
</g>
<!-- Node2 -->
<g id="Node000002" class="node">
<title>Node2</title>
<g id="a_Node000002"><a xlink:href="button_8class_8c.html" target="_top" xlink:title="This file defines the Button class and its associated methods.">
<polygon fill="white" stroke="#666666" points="140,-30 0,-30 0,0 140,0 140,-30"/>
<text text-anchor="start" x="8" y="-18" font-family="Helvetica,sans-Serif" font-size="10.00">src/classes/nodes/frames</text>
<text text-anchor="middle" x="70" y="-7" font-family="Helvetica,sans-Serif" font-size="10.00">/button.class.c</text>
</a>
</g>
</g>
<!-- Node1&#45;&gt;Node2 -->
<g id="edge1_Node000001_Node000002" class="edge">
<title>Node1&#45;&gt;Node2</title>
<g id="a_edge1_Node000001_Node000002"><a xlink:title=" ">
<path fill="none" stroke="#63b8ff" d="M883.83,-73.65C754.84,-71.17 423.67,-61.96 149,-30 146.09,-29.66 143.13,-29.29 140.15,-28.88"/>
<polygon fill="#63b8ff" stroke="#63b8ff" points="883.79,-77.15 893.86,-73.84 883.92,-70.15 883.79,-77.15"/>
</a>
</g>
</g>
<!-- Node3 -->
<g id="Node000003" class="node">
<title>Node3</title>
<g id="a_Node000003"><a xlink:href="checkbox_8class_8c.html" target="_top" xlink:title="Implementation of the Checkbox class for the GUI framework.">
<polygon fill="white" stroke="#666666" points="298,-30 158,-30 158,0 298,0 298,-30"/>
<text text-anchor="start" x="166" y="-18" font-family="Helvetica,sans-Serif" font-size="10.00">src/classes/nodes/frames</text>
<text text-anchor="middle" x="228" y="-7" font-family="Helvetica,sans-Serif" font-size="10.00">/checkbox.class.c</text>
</a>
</g>
</g>
<!-- Node1&#45;&gt;Node3 -->
<g id="edge2_Node000001_Node000003" class="edge">
<title>Node1&#45;&gt;Node3</title>
<g id="a_edge2_Node000001_Node000003"><a xlink:title=" ">
<path fill="none" stroke="#63b8ff" d="M883.41,-72.55C773.14,-68.25 519.04,-56.18 307,-30 304.1,-29.64 301.14,-29.25 298.15,-28.83"/>
<polygon fill="#63b8ff" stroke="#63b8ff" points="883.5,-76.06 893.63,-72.94 883.77,-69.06 883.5,-76.06"/>
</a>
</g>
</g>
<!-- Node4 -->
<g id="Node000004" class="node">
<title>Node4</title>
<g id="a_Node000004"><a xlink:href="control__frame_8class_8c.html" target="_top" xlink:title="This file defines the implementation of the control frame class.">
<polygon fill="white" stroke="#666666" points="456,-30 316,-30 316,0 456,0 456,-30"/>
<text text-anchor="start" x="324" y="-18" font-family="Helvetica,sans-Serif" font-size="10.00">src/classes/nodes/frames</text>
<text text-anchor="middle" x="386" y="-7" font-family="Helvetica,sans-Serif" font-size="10.00">/control_frame.class.c</text>
</a>
</g>
</g>
<!-- Node1&#45;&gt;Node4 -->
<g id="edge3_Node000001_Node000004" class="edge">
<title>Node1&#45;&gt;Node4</title>
<g id="a_edge3_Node000001_Node000004"><a xlink:title=" ">
<path fill="none" stroke="#63b8ff" d="M883.67,-70.78C795.04,-64.49 615.88,-50.42 465,-30 462.1,-29.61 459.15,-29.19 456.16,-28.74"/>
<polygon fill="#63b8ff" stroke="#63b8ff" points="883.54,-74.28 893.76,-71.49 884.03,-67.3 883.54,-74.28"/>
</a>
</g>
</g>
<!-- Node5 -->
<g id="Node000005" class="node">
<title>Node5</title>
<g id="a_Node000005"><a xlink:href="frame_8class_8c.html" target="_top" xlink:title="This file defines the implementation of frame&#45;related functionalities.">
<polygon fill="white" stroke="#666666" points="614,-30 474,-30 474,0 614,0 614,-30"/>
<text text-anchor="start" x="482" y="-18" font-family="Helvetica,sans-Serif" font-size="10.00">src/classes/nodes/frames</text>
<text text-anchor="middle" x="544" y="-7" font-family="Helvetica,sans-Serif" font-size="10.00">/frame.class.c</text>
</a>
</g>
</g>
<!-- Node1&#45;&gt;Node5 -->
<g id="edge4_Node000001_Node000005" class="edge">
<title>Node1&#45;&gt;Node5</title>
<g id="a_edge4_Node000001_Node000005"><a xlink:title=" ">
<path fill="none" stroke="#63b8ff" d="M883.79,-67.33C820.65,-58.99 714.22,-44.5 623,-30 620.11,-29.54 617.16,-29.06 614.19,-28.57"/>
<polygon fill="#63b8ff" stroke="#63b8ff" points="883.55,-70.83 893.92,-68.66 884.46,-63.89 883.55,-70.83"/>
</a>
</g>
</g>
<!-- Node6 -->
<g id="Node000006" class="node">
<title>Node6</title>
<g id="a_Node000006"><a xlink:href="image__frame_8class_8c.html" target="_top" xlink:title="This file contains the implementation of the ImageFrame class.">
<polygon fill="white" stroke="#666666" points="772,-30 632,-30 632,0 772,0 772,-30"/>
<text text-anchor="start" x="640" y="-18" font-family="Helvetica,sans-Serif" font-size="10.00">src/classes/nodes/frames</text>
<text text-anchor="middle" x="702" y="-7" font-family="Helvetica,sans-Serif" font-size="10.00">/image_frame.class.c</text>
</a>
</g>
</g>
<!-- Node1&#45;&gt;Node6 -->
<g id="edge5_Node000001_Node000006" class="edge">
<title>Node1&#45;&gt;Node6</title>
<g id="a_edge5_Node000001_Node000006"><a xlink:title=" ">
<path fill="none" stroke="#63b8ff" d="M894.69,-63.56C856.34,-54.1 800.64,-40.35 758.98,-30.06"/>
<polygon fill="#63b8ff" stroke="#63b8ff" points="893.99,-67 904.54,-65.99 895.67,-60.2 893.99,-67"/>
</a>
</g>
</g>
<!-- Node7 -->
<g id="Node000007" class="node">
<title>Node7</title>
<g id="a_Node000007"><a xlink:href="input__area_8class_8c.html" target="_top" xlink:title="This file defines the InputArea class and its associated methods.">
<polygon fill="white" stroke="#666666" points="930,-30 790,-30 790,0 930,0 930,-30"/>
<text text-anchor="start" x="798" y="-18" font-family="Helvetica,sans-Serif" font-size="10.00">src/classes/nodes/frames</text>
<text text-anchor="middle" x="860" y="-7" font-family="Helvetica,sans-Serif" font-size="10.00">/input_area.class.c</text>
</a>
</g>
</g>
<!-- Node1&#45;&gt;Node7 -->
<g id="edge6_Node000001_Node000007" class="edge">
<title>Node1&#45;&gt;Node7</title>
<g id="a_edge6_Node000001_Node000007"><a xlink:title=" ">
<path fill="none" stroke="#63b8ff" d="M919.1,-59.77C906.83,-50.68 891.18,-39.09 879.06,-30.11"/>
<polygon fill="#63b8ff" stroke="#63b8ff" points="917.22,-62.73 927.34,-65.87 921.39,-57.1 917.22,-62.73"/>
</a>
</g>
</g>
<!-- Node8 -->
<g id="Node000008" class="node">
<title>Node8</title>
<g id="a_Node000008"><a xlink:href="label_8class_8c.html" target="_top" xlink:title="This file defines the Label class and its associated functions.">
<polygon fill="white" stroke="#666666" points="1088,-30 948,-30 948,0 1088,0 1088,-30"/>
<text text-anchor="start" x="956" y="-18" font-family="Helvetica,sans-Serif" font-size="10.00">src/classes/nodes/frames</text>
<text text-anchor="middle" x="1018" y="-7" font-family="Helvetica,sans-Serif" font-size="10.00">/label.class.c</text>
</a>
</g>
</g>
<!-- Node1&#45;&gt;Node8 -->
<g id="edge7_Node000001_Node000008" class="edge">
<title>Node1&#45;&gt;Node8</title>
<g id="a_edge7_Node000001_Node000008"><a xlink:title=" ">
<path fill="none" stroke="#63b8ff" d="M958.9,-59.77C971.17,-50.68 986.82,-39.09 998.94,-30.11"/>
<polygon fill="#63b8ff" stroke="#63b8ff" points="956.61,-57.1 950.66,-65.87 960.78,-62.73 956.61,-57.1"/>
</a>
</g>
</g>
<!-- Node9 -->
<g id="Node000009" class="node">
<title>Node9</title>
<g id="a_Node000009"><a xlink:href="radiobutton_8class_8c.html" target="_top" xlink:title="Implementation of the RadioButton class.">
<polygon fill="white" stroke="#666666" points="1246,-30 1106,-30 1106,0 1246,0 1246,-30"/>
<text text-anchor="start" x="1114" y="-18" font-family="Helvetica,sans-Serif" font-size="10.00">src/classes/nodes/frames</text>
<text text-anchor="middle" x="1176" y="-7" font-family="Helvetica,sans-Serif" font-size="10.00">/radiobutton.class.c</text>
</a>
</g>
</g>
<!-- Node1&#45;&gt;Node9 -->
<g id="edge8_Node000001_Node000009" class="edge">
<title>Node1&#45;&gt;Node9</title>
<g id="a_edge8_Node000001_Node000009"><a xlink:title=" ">
<path fill="none" stroke="#63b8ff" d="M983.31,-63.56C1021.66,-54.1 1077.36,-40.35 1119.02,-30.06"/>
<polygon fill="#63b8ff" stroke="#63b8ff" points="982.33,-60.2 973.46,-65.99 984.01,-67 982.33,-60.2"/>
</a>
</g>
</g>
<!-- Node10 -->
<g id="Node000010" class="node">
<title>Node10</title>
<g id="a_Node000010"><a xlink:href="selectlist_8class_8c.html" target="_top" xlink:title="This file implements the functionality for a selectable list frame in the application.">
<polygon fill="white" stroke="#666666" points="1404,-30 1264,-30 1264,0 1404,0 1404,-30"/>
<text text-anchor="start" x="1272" y="-18" font-family="Helvetica,sans-Serif" font-size="10.00">src/classes/nodes/frames</text>
<text text-anchor="middle" x="1334" y="-7" font-family="Helvetica,sans-Serif" font-size="10.00">/selectlist.class.c</text>
</a>
</g>
</g>
<!-- Node1&#45;&gt;Node10 -->
<g id="edge9_Node000001_Node000010" class="edge">
<title>Node1&#45;&gt;Node10</title>
<g id="a_edge9_Node000001_Node000010"><a xlink:title=" ">
<path fill="none" stroke="#63b8ff" d="M994.21,-67.33C1057.35,-58.99 1163.78,-44.5 1255,-30 1257.89,-29.54 1260.84,-29.06 1263.81,-28.57"/>
<polygon fill="#63b8ff" stroke="#63b8ff" points="993.54,-63.89 984.08,-68.66 994.45,-70.83 993.54,-63.89"/>
</a>
</g>
</g>
<!-- Node11 -->
<g id="Node000011" class="node">
<title>Node11</title>
<g id="a_Node000011"><a xlink:href="slider_8class_8c.html" target="_top" xlink:title=" ">
<polygon fill="white" stroke="#666666" points="1562,-30 1422,-30 1422,0 1562,0 1562,-30"/>
<text text-anchor="start" x="1430" y="-18" font-family="Helvetica,sans-Serif" font-size="10.00">src/classes/nodes/frames</text>
<text text-anchor="middle" x="1492" y="-7" font-family="Helvetica,sans-Serif" font-size="10.00">/slider.class.c</text>
</a>
</g>
</g>
<!-- Node1&#45;&gt;Node11 -->
<g id="edge10_Node000001_Node000011" class="edge">
<title>Node1&#45;&gt;Node11</title>
<g id="a_edge10_Node000001_Node000011"><a xlink:title=" ">
<path fill="none" stroke="#63b8ff" d="M994.33,-70.78C1082.96,-64.49 1262.12,-50.42 1413,-30 1415.9,-29.61 1418.85,-29.19 1421.84,-28.74"/>
<polygon fill="#63b8ff" stroke="#63b8ff" points="993.97,-67.3 984.24,-71.49 994.46,-74.28 993.97,-67.3"/>
</a>
</g>
</g>
<!-- Node12 -->
<g id="Node000012" class="node">
<title>Node12</title>
<g id="a_Node000012"><a xlink:href="main_8c.html" target="_top" xlink:title=" ">
<polygon fill="white" stroke="#666666" points="1647.5,-24.5 1580.5,-24.5 1580.5,-5.5 1647.5,-5.5 1647.5,-24.5"/>
<text text-anchor="middle" x="1614" y="-12.5" font-family="Helvetica,sans-Serif" font-size="10.00">src/main.c</text>
</a>
</g>
</g>
<!-- Node1&#45;&gt;Node12 -->
<g id="edge11_Node000001_Node000012" class="edge">
<title>Node1&#45;&gt;Node12</title>
<g id="a_edge11_Node000001_Node000012"><a xlink:title=" ">
<path fill="none" stroke="#63b8ff" d="M994.58,-75.12C1105.35,-75.35 1361.04,-70.93 1571,-30 1577.63,-28.71 1584.65,-26.7 1591.06,-24.61"/>
<polygon fill="#63b8ff" stroke="#63b8ff" points="994.33,-71.62 984.32,-75.08 994.31,-78.62 994.33,-71.62"/>
</a>
</g>
</g>
<!-- Node13 -->
<g id="Node000013" class="node">
<title>Node13</title>
<g id="a_Node000013"><a xlink:href="raptiquax_8c.html" target="_top" xlink:title=" ">
<polygon fill="white" stroke="#666666" points="1754.5,-24.5 1665.5,-24.5 1665.5,-5.5 1754.5,-5.5 1754.5,-24.5"/>
<text text-anchor="middle" x="1710" y="-12.5" font-family="Helvetica,sans-Serif" font-size="10.00">src/raptiquax.c</text>
</a>
</g>
</g>
<!-- Node1&#45;&gt;Node13 -->
<g id="edge12_Node000001_Node000013" class="edge">
<title>Node1&#45;&gt;Node13</title>
<g id="a_edge12_Node000001_Node000013"><a xlink:title=" ">
<path fill="none" stroke="#63b8ff" d="M994.42,-74.75C1115.48,-74.5 1412.3,-69.51 1657,-30 1665.17,-28.68 1673.91,-26.64 1681.89,-24.52"/>
<polygon fill="#63b8ff" stroke="#63b8ff" points="994.28,-71.25 984.29,-74.76 994.29,-78.25 994.28,-71.25"/>
</a>
</g>
</g>
</g>
</svg>
