<?xml version="1.0" encoding="UTF-8" standalone="no"?>
<!DOCTYPE svg PUBLIC "-//W3C//DTD SVG 1.1//EN"
 "http://www.w3.org/Graphics/SVG/1.1/DTD/svg11.dtd">
<!-- Generated by graphviz version 2.43.0 (0)
 -->
<!-- Title: src/render/framebuffer.c Pages: 1 -->
<svg width="1862pt" height="423pt"
 viewBox="0.00 0.00 1861.50 423.00" xmlns="http://www.w3.org/2000/svg" xmlns:xlink="http://www.w3.org/1999/xlink">
<g id="graph0" class="graph" transform="scale(1 1) rotate(0) translate(4 419)">
<title>src/render/framebuffer.c</title>
<!-- Node1 -->
<g id="Node000001" class="node">
<title>Node1</title>
<g id="a_Node000001"><a xlink:title=" ">
<polygon fill="#999999" stroke="#666666" points="1650,-415 1516,-415 1516,-396 1650,-396 1650,-415"/>
<text text-anchor="middle" x="1583" y="-403" font-family="Helvetica,sans-Serif" font-size="10.00">src/render/framebuffer.c</text>
</a>
</g>
</g>
<!-- Node2 -->
<g id="Node000002" class="node">
<title>Node2</title>
<g id="a_Node000002"><a xlink:href="raptiquax_8h.html" target="_top" xlink:title="This file contains type definitions for fixed&#45;width integer types and floating&#45;point types.">
<polygon fill="white" stroke="#666666" points="950.5,-250 869.5,-250 869.5,-231 950.5,-231 950.5,-250"/>
<text text-anchor="middle" x="910" y="-238" font-family="Helvetica,sans-Serif" font-size="10.00">../raptiquax.h</text>
</a>
</g>
</g>
<!-- Node1&#45;&gt;Node2 -->
<g id="edge1_Node000001_Node000002" class="edge">
<title>Node1&#45;&gt;Node2</title>
<g id="a_edge1_Node000001_Node000002"><a xlink:title=" ">
<path fill="none" stroke="#63b8ff" d="M1547.76,-395.97C1434.78,-368.6 1081.58,-283.06 955.39,-252.49"/>
<polygon fill="#63b8ff" stroke="#63b8ff" points="955.83,-249 945.29,-250.05 954.19,-255.8 955.83,-249"/>
</a>
</g>
</g>
<!-- Node24 -->
<g id="Node000024" class="node">
<title>Node24</title>
<g id="a_Node000024"><a xlink:href="math__util_8h.html" target="_top" xlink:title=" ">
<polygon fill="white" stroke="#666666" points="1442,-250 1332,-250 1332,-231 1442,-231 1442,-250"/>
<text text-anchor="middle" x="1387" y="-238" font-family="Helvetica,sans-Serif" font-size="10.00">../math/math_util.h</text>
</a>
</g>
</g>
<!-- Node1&#45;&gt;Node24 -->
<g id="edge23_Node000001_Node000024" class="edge">
<title>Node1&#45;&gt;Node24</title>
<g id="a_edge23_Node000001_Node000024"><a xlink:title=" ">
<path fill="none" stroke="#63b8ff" d="M1555.1,-395.87C1534.17,-388.52 1505.54,-376.5 1484,-360 1445.99,-330.88 1413.45,-284.09 1397.5,-258.9"/>
<polygon fill="#63b8ff" stroke="#63b8ff" points="1400.29,-256.76 1392.05,-250.1 1394.34,-260.44 1400.29,-256.76"/>
</a>
</g>
</g>
<!-- Node25 -->
<g id="Node000025" class="node">
<title>Node25</title>
<g id="a_Node000025"><a xlink:href="model_8h.html" target="_top" xlink:title="Defines structures and functions for handling 3D models and their properties.">
<polygon fill="white" stroke="#666666" points="1615.5,-250 1538.5,-250 1538.5,-231 1615.5,-231 1615.5,-250"/>
<text text-anchor="middle" x="1577" y="-238" font-family="Helvetica,sans-Serif" font-size="10.00">../io/model.h</text>
</a>
</g>
</g>
<!-- Node1&#45;&gt;Node25 -->
<g id="edge24_Node000001_Node000025" class="edge">
<title>Node1&#45;&gt;Node25</title>
<g id="a_edge24_Node000001_Node000025"><a xlink:title=" ">
<path fill="none" stroke="#63b8ff" d="M1587.27,-395.89C1591.38,-387.11 1597.36,-372.97 1600,-360 1606.56,-327.76 1610.33,-317.83 1602,-286 1599.45,-276.26 1594.25,-266.41 1589.24,-258.46"/>
<polygon fill="#63b8ff" stroke="#63b8ff" points="1592.11,-256.46 1583.63,-250.12 1586.31,-260.37 1592.11,-256.46"/>
</a>
</g>
</g>
<!-- Node31 -->
<g id="Node000031" class="node">
<title>Node31</title>
<g id="a_Node000031"><a xlink:href="framebuffer_8h.html" target="_top" xlink:title=" ">
<polygon fill="white" stroke="#666666" points="1853.5,-305 1770.5,-305 1770.5,-286 1853.5,-286 1853.5,-305"/>
<text text-anchor="middle" x="1812" y="-293" font-family="Helvetica,sans-Serif" font-size="10.00">framebuffer.h</text>
</a>
</g>
</g>
<!-- Node1&#45;&gt;Node31 -->
<g id="edge30_Node000001_Node000031" class="edge">
<title>Node1&#45;&gt;Node31</title>
<g id="a_edge30_Node000001_Node000031"><a xlink:title=" ">
<path fill="none" stroke="#63b8ff" d="M1593.95,-395.86C1611.2,-382.59 1646.13,-357.03 1679,-341 1707.82,-326.95 1742.18,-315.58 1768.76,-307.85"/>
<polygon fill="#63b8ff" stroke="#63b8ff" points="1769.87,-311.17 1778.53,-305.07 1767.96,-304.44 1769.87,-311.17"/>
</a>
</g>
</g>
<!-- Node33 -->
<g id="Node000033" class="node">
<title>Node33</title>
<g id="a_Node000033"><a xlink:href="node_8h.html" target="_top" xlink:title=" ">
<polygon fill="white" stroke="#666666" points="1591,-360 1493,-360 1493,-341 1591,-341 1591,-360"/>
<text text-anchor="middle" x="1542" y="-348" font-family="Helvetica,sans-Serif" font-size="10.00">../storage/node.h</text>
</a>
</g>
</g>
<!-- Node1&#45;&gt;Node33 -->
<g id="edge32_Node000001_Node000033" class="edge">
<title>Node1&#45;&gt;Node33</title>
<g id="a_edge32_Node000001_Node000033"><a xlink:title=" ">
<path fill="none" stroke="#63b8ff" d="M1576.23,-395.75C1570.44,-388.26 1561.94,-377.28 1554.86,-368.13"/>
<polygon fill="#63b8ff" stroke="#63b8ff" points="1557.53,-365.86 1548.64,-360.09 1551.99,-370.14 1557.53,-365.86"/>
</a>
</g>
</g>
<!-- Node38 -->
<g id="Node000038" class="node">
<title>Node38</title>
<g id="a_Node000038"><a xlink:href="window_8h.html" target="_top" xlink:title=" ">
<polygon fill="white" stroke="#666666" points="1759.5,-360 1688.5,-360 1688.5,-341 1759.5,-341 1759.5,-360"/>
<text text-anchor="middle" x="1724" y="-348" font-family="Helvetica,sans-Serif" font-size="10.00">../window.h</text>
</a>
</g>
</g>
<!-- Node1&#45;&gt;Node38 -->
<g id="edge45_Node000001_Node000038" class="edge">
<title>Node1&#45;&gt;Node38</title>
<g id="a_edge45_Node000001_Node000038"><a xlink:title=" ">
<path fill="none" stroke="#63b8ff" d="M1605.65,-395.98C1628.85,-387.27 1665.12,-373.63 1691.4,-363.75"/>
<polygon fill="#63b8ff" stroke="#63b8ff" points="1692.8,-366.97 1700.93,-360.17 1690.34,-360.41 1692.8,-366.97"/>
</a>
</g>
</g>
<!-- Node3 -->
<g id="Node000003" class="node">
<title>Node3</title>
<g id="a_Node000003"><a xlink:title=" ">
<polygon fill="#e0e0e0" stroke="#999999" points="1089,-189.5 1039,-189.5 1039,-170.5 1089,-170.5 1089,-189.5"/>
<text text-anchor="middle" x="1064" y="-177.5" font-family="Helvetica,sans-Serif" font-size="10.00">stdio.h</text>
</a>
</g>
</g>
<!-- Node2&#45;&gt;Node3 -->
<g id="edge2_Node000002_Node000003" class="edge">
<title>Node2&#45;&gt;Node3</title>
<g id="a_edge2_Node000002_Node000003"><a xlink:title=" ">
<path fill="none" stroke="#63b8ff" d="M933.32,-230.96C957.35,-222.11 995.88,-207.81 1029,-195 1030.41,-194.45 1031.85,-193.89 1033.31,-193.32"/>
<polygon fill="#63b8ff" stroke="#63b8ff" points="1034.92,-196.45 1042.93,-189.52 1032.34,-189.94 1034.92,-196.45"/>
</a>
</g>
</g>
<!-- Node4 -->
<g id="Node000004" class="node">
<title>Node4</title>
<g id="a_Node000004"><a xlink:title=" ">
<polygon fill="#e0e0e0" stroke="#999999" points="1160.5,-189.5 1107.5,-189.5 1107.5,-170.5 1160.5,-170.5 1160.5,-189.5"/>
<text text-anchor="middle" x="1134" y="-177.5" font-family="Helvetica,sans-Serif" font-size="10.00">stdint.h</text>
</a>
</g>
</g>
<!-- Node2&#45;&gt;Node4 -->
<g id="edge3_Node000002_Node000004" class="edge">
<title>Node2&#45;&gt;Node4</title>
<g id="a_edge3_Node000002_Node000004"><a xlink:title=" ">
<path fill="none" stroke="#63b8ff" d="M950.78,-231.55C989.16,-223.67 1048.04,-210.55 1098,-195 1099.87,-194.42 1101.79,-193.78 1103.71,-193.12"/>
<polygon fill="#63b8ff" stroke="#63b8ff" points="1105.04,-196.36 1113.23,-189.64 1102.64,-189.79 1105.04,-196.36"/>
</a>
</g>
</g>
<!-- Node5 -->
<g id="Node000005" class="node">
<title>Node5</title>
<g id="a_Node000005"><a xlink:title=" ">
<polygon fill="#e0e0e0" stroke="#999999" points="1241,-189.5 1179,-189.5 1179,-170.5 1241,-170.5 1241,-189.5"/>
<text text-anchor="middle" x="1210" y="-177.5" font-family="Helvetica,sans-Serif" font-size="10.00">stdbool.h</text>
</a>
</g>
</g>
<!-- Node2&#45;&gt;Node5 -->
<g id="edge4_Node000002_Node000005" class="edge">
<title>Node2&#45;&gt;Node5</title>
<g id="a_edge4_Node000002_Node000005"><a xlink:title=" ">
<path fill="none" stroke="#63b8ff" d="M950.8,-234.53C1002.18,-227.81 1092.96,-214.38 1169,-195 1171.64,-194.33 1174.36,-193.56 1177.07,-192.75"/>
<polygon fill="#63b8ff" stroke="#63b8ff" points="1178.32,-196.03 1186.78,-189.65 1176.19,-189.36 1178.32,-196.03"/>
</a>
</g>
</g>
<!-- Node6 -->
<g id="Node000006" class="node">
<title>Node6</title>
<g id="a_Node000006"><a xlink:title=" ">
<polygon fill="#e0e0e0" stroke="#999999" points="1315,-189.5 1259,-189.5 1259,-170.5 1315,-170.5 1315,-189.5"/>
<text text-anchor="middle" x="1287" y="-177.5" font-family="Helvetica,sans-Serif" font-size="10.00">stdarg.h</text>
</a>
</g>
</g>
<!-- Node2&#45;&gt;Node6 -->
<g id="edge5_Node000002_Node000006" class="edge">
<title>Node2&#45;&gt;Node6</title>
<g id="a_edge5_Node000002_Node000006"><a xlink:title=" ">
<path fill="none" stroke="#63b8ff" d="M950.61,-237.23C1014.95,-232.96 1143.9,-221.63 1250,-195 1252.45,-194.39 1254.96,-193.66 1257.46,-192.87"/>
<polygon fill="#63b8ff" stroke="#63b8ff" points="1258.63,-196.16 1266.91,-189.57 1256.32,-189.55 1258.63,-196.16"/>
</a>
</g>
</g>
<!-- Node7 -->
<g id="Node000007" class="node">
<title>Node7</title>
<g id="a_Node000007"><a xlink:title=" ">
<polygon fill="#e0e0e0" stroke="#999999" points="1386.5,-189.5 1333.5,-189.5 1333.5,-170.5 1386.5,-170.5 1386.5,-189.5"/>
<text text-anchor="middle" x="1360" y="-177.5" font-family="Helvetica,sans-Serif" font-size="10.00">limits.h</text>
</a>
</g>
</g>
<!-- Node2&#45;&gt;Node7 -->
<g id="edge6_Node000002_Node000007" class="edge">
<title>Node2&#45;&gt;Node7</title>
<g id="a_edge6_Node000002_Node000007"><a xlink:title=" ">
<path fill="none" stroke="#63b8ff" d="M950.57,-238.67C1025.42,-236.37 1189.85,-227.68 1324,-195 1326.36,-194.42 1328.78,-193.73 1331.19,-192.96"/>
<polygon fill="#63b8ff" stroke="#63b8ff" points="1332.62,-196.17 1340.87,-189.52 1330.28,-189.57 1332.62,-196.17"/>
</a>
</g>
</g>
<!-- Node8 -->
<g id="Node000008" class="node">
<title>Node8</title>
<g id="a_Node000008"><a xlink:title=" ">
<polygon fill="#e0e0e0" stroke="#999999" points="1477,-189.5 1405,-189.5 1405,-170.5 1477,-170.5 1477,-189.5"/>
<text text-anchor="middle" x="1441" y="-177.5" font-family="Helvetica,sans-Serif" font-size="10.00">SDL2/SDL.h</text>
</a>
</g>
</g>
<!-- Node2&#45;&gt;Node8 -->
<g id="edge7_Node000002_Node000008" class="edge">
<title>Node2&#45;&gt;Node8</title>
<g id="a_edge7_Node000002_Node000008"><a xlink:title=" ">
<path fill="none" stroke="#63b8ff" d="M950.64,-238.56C1034.47,-236.02 1232.36,-226.86 1395,-195 1398.66,-194.28 1402.43,-193.39 1406.18,-192.41"/>
<polygon fill="#63b8ff" stroke="#63b8ff" points="1407.26,-195.74 1415.93,-189.64 1405.35,-189.01 1407.26,-195.74"/>
</a>
</g>
</g>
<!-- Node9 -->
<g id="Node000009" class="node">
<title>Node9</title>
<g id="a_Node000009"><a xlink:title=" ">
<polygon fill="#e0e0e0" stroke="#999999" points="108,-189.5 0,-189.5 0,-170.5 108,-170.5 108,-189.5"/>
<text text-anchor="middle" x="54" y="-177.5" font-family="Helvetica,sans-Serif" font-size="10.00">SDL2/SDL_image.h</text>
</a>
</g>
</g>
<!-- Node2&#45;&gt;Node9 -->
<g id="edge8_Node000002_Node000009" class="edge">
<title>Node2&#45;&gt;Node9</title>
<g id="a_edge8_Node000002_Node000009"><a xlink:title=" ">
<path fill="none" stroke="#63b8ff" d="M869.34,-239.54C752.04,-239.17 403.16,-234.56 117,-195 110.66,-194.12 104.02,-192.94 97.52,-191.64"/>
<polygon fill="#63b8ff" stroke="#63b8ff" points="98,-188.16 87.49,-189.5 96.55,-195.01 98,-188.16"/>
</a>
</g>
</g>
<!-- Node10 -->
<g id="Node000010" class="node">
<title>Node10</title>
<g id="a_Node000010"><a xlink:title=" ">
<polygon fill="#e0e0e0" stroke="#999999" points="236,-189.5 126,-189.5 126,-170.5 236,-170.5 236,-189.5"/>
<text text-anchor="middle" x="181" y="-177.5" font-family="Helvetica,sans-Serif" font-size="10.00">SDL2/SDL_opengl.h</text>
</a>
</g>
</g>
<!-- Node2&#45;&gt;Node10 -->
<g id="edge9_Node000002_Node000010" class="edge">
<title>Node2&#45;&gt;Node10</title>
<g id="a_edge9_Node000002_Node000010"><a xlink:title=" ">
<path fill="none" stroke="#63b8ff" d="M869.3,-238.88C765,-236.83 479.85,-228.36 245,-195 238.64,-194.1 231.98,-192.91 225.45,-191.61"/>
<polygon fill="#63b8ff" stroke="#63b8ff" points="225.88,-188.13 215.37,-189.5 224.44,-194.98 225.88,-188.13"/>
</a>
</g>
</g>
<!-- Node11 -->
<g id="Node000011" class="node">
<title>Node11</title>
<g id="a_Node000011"><a xlink:title=" ">
<polygon fill="#e0e0e0" stroke="#999999" points="358,-189.5 254,-189.5 254,-170.5 358,-170.5 358,-189.5"/>
<text text-anchor="middle" x="306" y="-177.5" font-family="Helvetica,sans-Serif" font-size="10.00">SDL2/SDL_mixer.h</text>
</a>
</g>
</g>
<!-- Node2&#45;&gt;Node11 -->
<g id="edge10_Node000002_Node000011" class="edge">
<title>Node2&#45;&gt;Node11</title>
<g id="a_edge10_Node000002_Node000011"><a xlink:title=" ">
<path fill="none" stroke="#63b8ff" d="M869.24,-238.16C778.51,-234.75 553.24,-223.85 367,-195 361.15,-194.09 355.03,-192.94 349.02,-191.69"/>
<polygon fill="#63b8ff" stroke="#63b8ff" points="349.59,-188.23 339.07,-189.5 348.09,-195.06 349.59,-188.23"/>
</a>
</g>
</g>
<!-- Node12 -->
<g id="Node000012" class="node">
<title>Node12</title>
<g id="a_Node000012"><a xlink:title=" ">
<polygon fill="#e0e0e0" stroke="#999999" points="464,-189.5 376,-189.5 376,-170.5 464,-170.5 464,-189.5"/>
<text text-anchor="middle" x="420" y="-177.5" font-family="Helvetica,sans-Serif" font-size="10.00">SDL2/SDL_ttf.h</text>
</a>
</g>
</g>
<!-- Node2&#45;&gt;Node12 -->
<g id="edge11_Node000002_Node000012" class="edge">
<title>Node2&#45;&gt;Node12</title>
<g id="a_edge11_Node000002_Node000012"><a xlink:title=" ">
<path fill="none" stroke="#63b8ff" d="M869.34,-237.49C791.75,-233.19 617.43,-221.26 473,-195 468.45,-194.17 463.72,-193.16 459.05,-192.05"/>
<polygon fill="#63b8ff" stroke="#63b8ff" points="459.52,-188.56 448.97,-189.53 457.83,-195.35 459.52,-188.56"/>
</a>
</g>
</g>
<!-- Node13 -->
<g id="Node000013" class="node">
<title>Node13</title>
<g id="a_Node000013"><a xlink:title=" ">
<polygon fill="#e0e0e0" stroke="#999999" points="532,-189.5 482,-189.5 482,-170.5 532,-170.5 532,-189.5"/>
<text text-anchor="middle" x="507" y="-177.5" font-family="Helvetica,sans-Serif" font-size="10.00">GL/gl.h</text>
</a>
</g>
</g>
<!-- Node2&#45;&gt;Node13 -->
<g id="edge12_Node000002_Node000013" class="edge">
<title>Node2&#45;&gt;Node13</title>
<g id="a_edge12_Node000002_Node000013"><a xlink:title=" ">
<path fill="none" stroke="#63b8ff" d="M869.48,-238.19C800.83,-235.17 657.75,-225.47 541,-195 539.05,-194.49 537.07,-193.9 535.09,-193.24"/>
<polygon fill="#63b8ff" stroke="#63b8ff" points="535.99,-189.84 525.39,-189.63 533.54,-196.4 535.99,-189.84"/>
</a>
</g>
</g>
<!-- Node14 -->
<g id="Node000014" class="node">
<title>Node14</title>
<g id="a_Node000014"><a xlink:title=" ">
<polygon fill="#e0e0e0" stroke="#999999" points="606,-189.5 550,-189.5 550,-170.5 606,-170.5 606,-189.5"/>
<text text-anchor="middle" x="578" y="-177.5" font-family="Helvetica,sans-Serif" font-size="10.00">GL/glu.h</text>
</a>
</g>
</g>
<!-- Node2&#45;&gt;Node14 -->
<g id="edge13_Node000002_Node000014" class="edge">
<title>Node2&#45;&gt;Node14</title>
<g id="a_edge13_Node000002_Node000014"><a xlink:title=" ">
<path fill="none" stroke="#63b8ff" d="M869.37,-236.12C811.97,-230.72 704.2,-218.32 615,-195 612.7,-194.4 610.35,-193.7 608,-192.95"/>
<polygon fill="#63b8ff" stroke="#63b8ff" points="609.09,-189.63 598.49,-189.64 606.78,-196.24 609.09,-189.63"/>
</a>
</g>
</g>
<!-- Node15 -->
<g id="Node000015" class="node">
<title>Node15</title>
<g id="a_Node000015"><a xlink:title=" ">
<polygon fill="#e0e0e0" stroke="#999999" points="690,-189.5 624,-189.5 624,-170.5 690,-170.5 690,-189.5"/>
<text text-anchor="middle" x="657" y="-177.5" font-family="Helvetica,sans-Serif" font-size="10.00">GL/glext.h</text>
</a>
</g>
</g>
<!-- Node2&#45;&gt;Node15 -->
<g id="edge14_Node000002_Node000015" class="edge">
<title>Node2&#45;&gt;Node15</title>
<g id="a_edge14_Node000002_Node000015"><a xlink:title=" ">
<path fill="none" stroke="#63b8ff" d="M869.22,-232.33C826.48,-224.48 757.54,-210.87 699,-195 696.38,-194.29 693.68,-193.51 690.98,-192.69"/>
<polygon fill="#63b8ff" stroke="#63b8ff" points="691.88,-189.3 681.29,-189.62 689.76,-195.98 691.88,-189.3"/>
</a>
</g>
</g>
<!-- Node16 -->
<g id="Node000016" class="node">
<title>Node16</title>
<g id="a_Node000016"><a xlink:title=" ">
<polygon fill="#e0e0e0" stroke="#999999" points="785.5,-189.5 708.5,-189.5 708.5,-170.5 785.5,-170.5 785.5,-189.5"/>
<text text-anchor="middle" x="747" y="-177.5" font-family="Helvetica,sans-Serif" font-size="10.00">cglm/cglm.h</text>
</a>
</g>
</g>
<!-- Node2&#45;&gt;Node16 -->
<g id="edge15_Node000002_Node000016" class="edge">
<title>Node2&#45;&gt;Node16</title>
<g id="a_edge15_Node000002_Node000016"><a xlink:title=" ">
<path fill="none" stroke="#63b8ff" d="M886.3,-230.99C858.41,-220.99 811.93,-204.3 780.4,-192.99"/>
<polygon fill="#63b8ff" stroke="#63b8ff" points="781.32,-189.6 770.73,-189.52 778.96,-196.19 781.32,-189.6"/>
</a>
</g>
</g>
<!-- Node17 -->
<g id="Node000017" class="node">
<title>Node17</title>
<g id="a_Node000017"><a xlink:title=" ">
<polygon fill="#e0e0e0" stroke="#999999" points="854.5,-189.5 803.5,-189.5 803.5,-170.5 854.5,-170.5 854.5,-189.5"/>
<text text-anchor="middle" x="829" y="-177.5" font-family="Helvetica,sans-Serif" font-size="10.00">math.h</text>
</a>
</g>
</g>
<!-- Node2&#45;&gt;Node17 -->
<g id="edge16_Node000002_Node000017" class="edge">
<title>Node2&#45;&gt;Node17</title>
<g id="a_edge16_Node000002_Node000017"><a xlink:title=" ">
<path fill="none" stroke="#63b8ff" d="M898.05,-230.87C885.25,-221.62 864.7,-206.78 849.35,-195.69"/>
<polygon fill="#63b8ff" stroke="#63b8ff" points="851.16,-192.68 841,-189.67 847.06,-198.36 851.16,-192.68"/>
</a>
</g>
</g>
<!-- Node18 -->
<g id="Node000018" class="node">
<title>Node18</title>
<g id="a_Node000018"><a xlink:href="stringio_8h.html" target="_top" xlink:title="Provides utility functions for string and file operations.">
<polygon fill="white" stroke="#666666" points="947,-189.5 873,-189.5 873,-170.5 947,-170.5 947,-189.5"/>
<text text-anchor="middle" x="910" y="-177.5" font-family="Helvetica,sans-Serif" font-size="10.00">io/stringio.h</text>
</a>
</g>
</g>
<!-- Node2&#45;&gt;Node18 -->
<g id="edge17_Node000002_Node000018" class="edge">
<title>Node2&#45;&gt;Node18</title>
<g id="a_edge17_Node000002_Node000018"><a xlink:title=" ">
<path fill="none" stroke="#63b8ff" d="M910,-230.87C910,-222.75 910,-210.31 910,-199.89"/>
<polygon fill="#63b8ff" stroke="#63b8ff" points="913.5,-199.67 910,-189.67 906.5,-199.67 913.5,-199.67"/>
</a>
</g>
</g>
<!-- Node20 -->
<g id="Node000020" class="node">
<title>Node20</title>
<g id="a_Node000020"><a xlink:href="config_8h.html" target="_top" xlink:title=" ">
<polygon fill="white" stroke="#666666" points="1020.5,-189.5 965.5,-189.5 965.5,-170.5 1020.5,-170.5 1020.5,-189.5"/>
<text text-anchor="middle" x="993" y="-177.5" font-family="Helvetica,sans-Serif" font-size="10.00">config.h</text>
</a>
</g>
</g>
<!-- Node2&#45;&gt;Node20 -->
<g id="edge19_Node000002_Node000020" class="edge">
<title>Node2&#45;&gt;Node20</title>
<g id="a_edge19_Node000002_Node000020"><a xlink:title=" ">
<path fill="none" stroke="#63b8ff" d="M922.25,-230.87C935.36,-221.62 956.42,-206.78 972.15,-195.69"/>
<polygon fill="#63b8ff" stroke="#63b8ff" points="974.55,-198.29 980.7,-189.67 970.51,-192.57 974.55,-198.29"/>
</a>
</g>
</g>
<!-- Node19 -->
<g id="Node000019" class="node">
<title>Node19</title>
<g id="a_Node000019"><a xlink:title=" ">
<polygon fill="#e0e0e0" stroke="#999999" points="936.5,-129 883.5,-129 883.5,-110 936.5,-110 936.5,-129"/>
<text text-anchor="middle" x="910" y="-117" font-family="Helvetica,sans-Serif" font-size="10.00">string.h</text>
</a>
</g>
</g>
<!-- Node18&#45;&gt;Node19 -->
<g id="edge18_Node000018_Node000019" class="edge">
<title>Node18&#45;&gt;Node19</title>
<g id="a_edge18_Node000018_Node000019"><a xlink:title=" ">
<path fill="none" stroke="#63b8ff" d="M910,-170.37C910,-162.25 910,-149.81 910,-139.39"/>
<polygon fill="#63b8ff" stroke="#63b8ff" points="913.5,-139.17 910,-129.17 906.5,-139.17 913.5,-139.17"/>
</a>
</g>
</g>
<!-- Node21 -->
<g id="Node000021" class="node">
<title>Node21</title>
<g id="a_Node000021"><a xlink:href="term_8h.html" target="_top" xlink:title=" ">
<polygon fill="white" stroke="#666666" points="1030.5,-129 955.5,-129 955.5,-110 1030.5,-110 1030.5,-129"/>
<text text-anchor="middle" x="993" y="-117" font-family="Helvetica,sans-Serif" font-size="10.00">term/term.h</text>
</a>
</g>
</g>
<!-- Node20&#45;&gt;Node21 -->
<g id="edge20_Node000020_Node000021" class="edge">
<title>Node20&#45;&gt;Node21</title>
<g id="a_edge20_Node000020_Node000021"><a xlink:title=" ">
<path fill="none" stroke="#63b8ff" d="M993,-170.37C993,-162.25 993,-149.81 993,-139.39"/>
<polygon fill="#63b8ff" stroke="#63b8ff" points="996.5,-139.17 993,-129.17 989.5,-139.17 996.5,-139.17"/>
</a>
</g>
</g>
<!-- Node22 -->
<g id="Node000022" class="node">
<title>Node22</title>
<g id="a_Node000022"><a xlink:href="enhanced__print_8h.html" target="_top" xlink:title=" ">
<polygon fill="white" stroke="#666666" points="1043.5,-74 942.5,-74 942.5,-55 1043.5,-55 1043.5,-74"/>
<text text-anchor="middle" x="993" y="-62" font-family="Helvetica,sans-Serif" font-size="10.00">enhanced_print.h</text>
</a>
</g>
</g>
<!-- Node21&#45;&gt;Node22 -->
<g id="edge21_Node000021_Node000022" class="edge">
<title>Node21&#45;&gt;Node22</title>
<g id="a_edge21_Node000021_Node000022"><a xlink:title=" ">
<path fill="none" stroke="#63b8ff" d="M993,-109.75C993,-102.8 993,-92.85 993,-84.13"/>
<polygon fill="#63b8ff" stroke="#63b8ff" points="996.5,-84.09 993,-74.09 989.5,-84.09 996.5,-84.09"/>
</a>
</g>
</g>
<!-- Node23 -->
<g id="Node000023" class="node">
<title>Node23</title>
<g id="a_Node000023"><a xlink:href="color_8h.html" target="_top" xlink:title=" ">
<polygon fill="white" stroke="#666666" points="1017.5,-19 968.5,-19 968.5,0 1017.5,0 1017.5,-19"/>
<text text-anchor="middle" x="993" y="-7" font-family="Helvetica,sans-Serif" font-size="10.00">color.h</text>
</a>
</g>
</g>
<!-- Node22&#45;&gt;Node23 -->
<g id="edge22_Node000022_Node000023" class="edge">
<title>Node22&#45;&gt;Node23</title>
<g id="a_edge22_Node000022_Node000023"><a xlink:title=" ">
<path fill="none" stroke="#63b8ff" d="M993,-54.75C993,-47.8 993,-37.85 993,-29.13"/>
<polygon fill="#63b8ff" stroke="#63b8ff" points="996.5,-29.09 993,-19.09 989.5,-29.09 996.5,-29.09"/>
</a>
</g>
</g>
<!-- Node26 -->
<g id="Node000026" class="node">
<title>Node26</title>
<g id="a_Node000026"><a xlink:href="shader_8h.html" target="_top" xlink:title=" ">
<polygon fill="white" stroke="#666666" points="1553,-189.5 1495,-189.5 1495,-170.5 1553,-170.5 1553,-189.5"/>
<text text-anchor="middle" x="1524" y="-177.5" font-family="Helvetica,sans-Serif" font-size="10.00">shader.h</text>
</a>
</g>
</g>
<!-- Node25&#45;&gt;Node26 -->
<g id="edge25_Node000025_Node000026" class="edge">
<title>Node25&#45;&gt;Node26</title>
<g id="a_edge25_Node000025_Node000026"><a xlink:title=" ">
<path fill="none" stroke="#63b8ff" d="M1569.18,-230.87C1561.19,-222.05 1548.61,-208.16 1538.74,-197.27"/>
<polygon fill="#63b8ff" stroke="#63b8ff" points="1541.16,-194.73 1531.85,-189.67 1535.97,-199.43 1541.16,-194.73"/>
</a>
</g>
</g>
<!-- Node27 -->
<g id="Node000027" class="node">
<title>Node27</title>
<g id="a_Node000027"><a xlink:href="model__loader_8h.html" target="_top" xlink:title=" ">
<polygon fill="white" stroke="#666666" points="1693,-195 1571,-195 1571,-165 1693,-165 1693,-195"/>
<text text-anchor="start" x="1579" y="-183" font-family="Helvetica,sans-Serif" font-size="10.00">model_loaders/model</text>
<text text-anchor="middle" x="1632" y="-172" font-family="Helvetica,sans-Serif" font-size="10.00">_loader.h</text>
</a>
</g>
</g>
<!-- Node25&#45;&gt;Node27 -->
<g id="edge26_Node000025_Node000027" class="edge">
<title>Node25&#45;&gt;Node27</title>
<g id="a_edge26_Node000025_Node000027"><a xlink:title=" ">
<path fill="none" stroke="#63b8ff" d="M1585.12,-230.87C1592.09,-223.44 1602.46,-212.42 1611.68,-202.62"/>
<polygon fill="#63b8ff" stroke="#63b8ff" points="1614.43,-204.8 1618.73,-195.11 1609.33,-200 1614.43,-204.8"/>
</a>
</g>
</g>
<!-- Node28 -->
<g id="Node000028" class="node">
<title>Node28</title>
<g id="a_Node000028"><a xlink:href="obj__loader_8h.html" target="_top" xlink:title=" ">
<polygon fill="white" stroke="#666666" points="1575,-129 1499,-129 1499,-110 1575,-110 1575,-129"/>
<text text-anchor="middle" x="1537" y="-117" font-family="Helvetica,sans-Serif" font-size="10.00">obj_loader.h</text>
</a>
</g>
</g>
<!-- Node27&#45;&gt;Node28 -->
<g id="edge27_Node000027_Node000028" class="edge">
<title>Node27&#45;&gt;Node28</title>
<g id="a_edge27_Node000027_Node000028"><a xlink:title=" ">
<path fill="none" stroke="#63b8ff" d="M1609,-164.84C1594,-155.6 1574.5,-143.59 1559.57,-134.4"/>
<polygon fill="#63b8ff" stroke="#63b8ff" points="1561.31,-131.36 1550.96,-129.09 1557.64,-137.32 1561.31,-131.36"/>
</a>
</g>
</g>
<!-- Node29 -->
<g id="Node000029" class="node">
<title>Node29</title>
<g id="a_Node000029"><a xlink:href="mtl__loader_8h.html" target="_top" xlink:title=" ">
<polygon fill="white" stroke="#666666" points="1670.5,-129 1593.5,-129 1593.5,-110 1670.5,-110 1670.5,-129"/>
<text text-anchor="middle" x="1632" y="-117" font-family="Helvetica,sans-Serif" font-size="10.00">mtl_loader.h</text>
</a>
</g>
</g>
<!-- Node27&#45;&gt;Node29 -->
<g id="edge28_Node000027_Node000029" class="edge">
<title>Node27&#45;&gt;Node29</title>
<g id="a_edge28_Node000027_Node000029"><a xlink:title=" ">
<path fill="none" stroke="#63b8ff" d="M1632,-164.84C1632,-157.21 1632,-147.7 1632,-139.45"/>
<polygon fill="#63b8ff" stroke="#63b8ff" points="1635.5,-139.27 1632,-129.27 1628.5,-139.27 1635.5,-139.27"/>
</a>
</g>
</g>
<!-- Node30 -->
<g id="Node000030" class="node">
<title>Node30</title>
<g id="a_Node000030"><a xlink:href="fbx__loader_8h.html" target="_top" xlink:title=" ">
<polygon fill="white" stroke="#666666" points="1765.5,-129 1688.5,-129 1688.5,-110 1765.5,-110 1765.5,-129"/>
<text text-anchor="middle" x="1727" y="-117" font-family="Helvetica,sans-Serif" font-size="10.00">fbx_loader.h</text>
</a>
</g>
</g>
<!-- Node27&#45;&gt;Node30 -->
<g id="edge29_Node000027_Node000030" class="edge">
<title>Node27&#45;&gt;Node30</title>
<g id="a_edge29_Node000027_Node000030"><a xlink:title=" ">
<path fill="none" stroke="#63b8ff" d="M1655,-164.84C1670,-155.6 1689.5,-143.59 1704.43,-134.4"/>
<polygon fill="#63b8ff" stroke="#63b8ff" points="1706.36,-137.32 1713.04,-129.09 1702.69,-131.36 1706.36,-137.32"/>
</a>
</g>
</g>
<!-- Node32 -->
<g id="Node000032" class="node">
<title>Node32</title>
<g id="a_Node000032"><a xlink:href="input_8h.html" target="_top" xlink:title=" ">
<polygon fill="white" stroke="#666666" points="1833.5,-250 1762.5,-250 1762.5,-231 1833.5,-231 1833.5,-250"/>
<text text-anchor="middle" x="1798" y="-238" font-family="Helvetica,sans-Serif" font-size="10.00">../io/input.h</text>
</a>
</g>
</g>
<!-- Node31&#45;&gt;Node32 -->
<g id="edge31_Node000031_Node000032" class="edge">
<title>Node31&#45;&gt;Node32</title>
<g id="a_edge31_Node000031_Node000032"><a xlink:title=" ">
<path fill="none" stroke="#63b8ff" d="M1809.69,-285.75C1807.83,-278.72 1805.16,-268.62 1802.85,-259.84"/>
<polygon fill="#63b8ff" stroke="#63b8ff" points="1806.21,-258.86 1800.27,-250.09 1799.44,-260.65 1806.21,-258.86"/>
</a>
</g>
</g>
<!-- Node33&#45;&gt;Node26 -->
<g id="edge33_Node000033_Node000026" class="edge">
<title>Node33&#45;&gt;Node26</title>
<g id="a_edge33_Node000033_Node000026"><a xlink:title=" ">
<path fill="none" stroke="#63b8ff" d="M1519.88,-340.95C1504.8,-333.82 1485.99,-322.06 1477,-305 1457.6,-268.2 1489,-221.57 1509.16,-197.32"/>
<polygon fill="#63b8ff" stroke="#63b8ff" points="1511.82,-199.59 1515.71,-189.73 1506.53,-195.01 1511.82,-199.59"/>
</a>
</g>
</g>
<!-- Node33&#45;&gt;Node31 -->
<g id="edge44_Node000033_Node000031" class="edge">
<title>Node33&#45;&gt;Node31</title>
<g id="a_edge44_Node000033_Node000031"><a xlink:title=" ">
<path fill="none" stroke="#63b8ff" d="M1585.38,-340.98C1632.94,-331.65 1709.21,-316.68 1759.95,-306.72"/>
<polygon fill="#63b8ff" stroke="#63b8ff" points="1760.92,-310.09 1770.06,-304.73 1759.57,-303.22 1760.92,-310.09"/>
</a>
</g>
</g>
<!-- Node34 -->
<g id="Node000034" class="node">
<title>Node34</title>
<g id="a_Node000034"><a xlink:href="camera_8h.html" target="_top" xlink:title=" ">
<polygon fill="white" stroke="#666666" points="1369,-305 1263,-305 1263,-286 1369,-286 1369,-305"/>
<text text-anchor="middle" x="1316" y="-293" font-family="Helvetica,sans-Serif" font-size="10.00">../render/camera.h</text>
</a>
</g>
</g>
<!-- Node33&#45;&gt;Node34 -->
<g id="edge34_Node000033_Node000034" class="edge">
<title>Node33&#45;&gt;Node34</title>
<g id="a_edge34_Node000033_Node000034"><a xlink:title=" ">
<path fill="none" stroke="#63b8ff" d="M1505.69,-340.98C1466.76,-331.86 1404.84,-317.33 1362.4,-307.38"/>
<polygon fill="#63b8ff" stroke="#63b8ff" points="1363.13,-303.96 1352.6,-305.08 1361.53,-310.77 1363.13,-303.96"/>
</a>
</g>
</g>
<!-- Node35 -->
<g id="Node000035" class="node">
<title>Node35</title>
<g id="a_Node000035"><a xlink:href="bodies_8h.html" target="_top" xlink:title=" ">
<polygon fill="white" stroke="#666666" points="1593.5,-305 1486.5,-305 1486.5,-286 1593.5,-286 1593.5,-305"/>
<text text-anchor="middle" x="1540" y="-293" font-family="Helvetica,sans-Serif" font-size="10.00">../physics/bodies.h</text>
</a>
</g>
</g>
<!-- Node33&#45;&gt;Node35 -->
<g id="edge38_Node000033_Node000035" class="edge">
<title>Node33&#45;&gt;Node35</title>
<g id="a_edge38_Node000033_Node000035"><a xlink:title=" ">
<path fill="none" stroke="#63b8ff" d="M1541.67,-340.75C1541.41,-333.8 1541.03,-323.85 1540.7,-315.13"/>
<polygon fill="#63b8ff" stroke="#63b8ff" points="1544.2,-314.95 1540.32,-305.09 1537.2,-315.21 1544.2,-314.95"/>
</a>
</g>
</g>
<!-- Node36 -->
<g id="Node000036" class="node">
<title>Node36</title>
<g id="a_Node000036"><a xlink:href="scripts_8h.html" target="_top" xlink:title=" ">
<polygon fill="white" stroke="#666666" points="1752,-305 1650,-305 1650,-286 1752,-286 1752,-305"/>
<text text-anchor="middle" x="1701" y="-293" font-family="Helvetica,sans-Serif" font-size="10.00">../scripts/scripts.h</text>
</a>
</g>
</g>
<!-- Node33&#45;&gt;Node36 -->
<g id="edge41_Node000033_Node000036" class="edge">
<title>Node33&#45;&gt;Node36</title>
<g id="a_edge41_Node000033_Node000036"><a xlink:title=" ">
<path fill="none" stroke="#63b8ff" d="M1567.55,-340.98C1594.12,-332.13 1635.94,-318.19 1665.67,-308.28"/>
<polygon fill="#63b8ff" stroke="#63b8ff" points="1666.87,-311.56 1675.25,-305.08 1664.66,-304.92 1666.87,-311.56"/>
</a>
</g>
</g>
<!-- Node34&#45;&gt;Node2 -->
<g id="edge35_Node000034_Node000002" class="edge">
<title>Node34&#45;&gt;Node2</title>
<g id="a_edge35_Node000034_Node000002"><a xlink:title=" ">
<path fill="none" stroke="#63b8ff" d="M1262.92,-287.57C1184.24,-277.3 1037.66,-258.17 960.49,-248.09"/>
<polygon fill="#63b8ff" stroke="#63b8ff" points="960.9,-244.62 950.53,-246.79 960,-251.56 960.9,-244.62"/>
</a>
</g>
</g>
<!-- Node34&#45;&gt;Node24 -->
<g id="edge36_Node000034_Node000024" class="edge">
<title>Node34&#45;&gt;Node24</title>
<g id="a_edge36_Node000034_Node000024"><a xlink:title=" ">
<path fill="none" stroke="#63b8ff" d="M1327.41,-285.98C1338.11,-278 1354.34,-265.88 1367.16,-256.31"/>
<polygon fill="#63b8ff" stroke="#63b8ff" points="1369.47,-258.96 1375.39,-250.17 1365.28,-253.35 1369.47,-258.96"/>
</a>
</g>
</g>
<!-- Node34&#45;&gt;Node26 -->
<g id="edge37_Node000034_Node000026" class="edge">
<title>Node34&#45;&gt;Node26</title>
<g id="a_edge37_Node000034_Node000026"><a xlink:title=" ">
<path fill="none" stroke="#63b8ff" d="M1314.11,-285.86C1311.71,-272.35 1309.37,-246.19 1323,-231 1372.56,-175.8 1414.81,-215.87 1486,-195 1488.28,-194.33 1490.61,-193.6 1492.96,-192.82"/>
<polygon fill="#63b8ff" stroke="#63b8ff" points="1494.18,-196.11 1502.47,-189.51 1491.87,-189.5 1494.18,-196.11"/>
</a>
</g>
</g>
<!-- Node35&#45;&gt;Node24 -->
<g id="edge39_Node000035_Node000024" class="edge">
<title>Node35&#45;&gt;Node24</title>
<g id="a_edge39_Node000035_Node000024"><a xlink:title=" ">
<path fill="none" stroke="#63b8ff" d="M1515.42,-285.98C1489.95,-277.16 1449.96,-263.31 1421.37,-253.41"/>
<polygon fill="#63b8ff" stroke="#63b8ff" points="1422.37,-250.05 1411.77,-250.08 1420.08,-256.66 1422.37,-250.05"/>
</a>
</g>
</g>
<!-- Node35&#45;&gt;Node25 -->
<g id="edge40_Node000035_Node000025" class="edge">
<title>Node35&#45;&gt;Node25</title>
<g id="a_edge40_Node000035_Node000025"><a xlink:title=" ">
<path fill="none" stroke="#63b8ff" d="M1546.11,-285.75C1551.28,-278.34 1558.85,-267.5 1565.19,-258.41"/>
<polygon fill="#63b8ff" stroke="#63b8ff" points="1568.15,-260.29 1571,-250.09 1562.41,-256.29 1568.15,-260.29"/>
</a>
</g>
</g>
<!-- Node36&#45;&gt;Node32 -->
<g id="edge42_Node000036_Node000032" class="edge">
<title>Node36&#45;&gt;Node32</title>
<g id="a_edge42_Node000036_Node000032"><a xlink:title=" ">
<path fill="none" stroke="#63b8ff" d="M1716.58,-285.98C1731.77,-277.69 1755.1,-264.94 1772.9,-255.22"/>
<polygon fill="#63b8ff" stroke="#63b8ff" points="1775.03,-258.04 1782.13,-250.17 1771.68,-251.89 1775.03,-258.04"/>
</a>
</g>
</g>
<!-- Node37 -->
<g id="Node000037" class="node">
<title>Node37</title>
<g id="a_Node000037"><a xlink:href="signals_8h.html" target="_top" xlink:title="Signal and slot system for C projects.">
<polygon fill="white" stroke="#666666" points="1731,-250 1671,-250 1671,-231 1731,-231 1731,-250"/>
<text text-anchor="middle" x="1701" y="-238" font-family="Helvetica,sans-Serif" font-size="10.00">signals.h</text>
</a>
</g>
</g>
<!-- Node36&#45;&gt;Node37 -->
<g id="edge43_Node000036_Node000037" class="edge">
<title>Node36&#45;&gt;Node37</title>
<g id="a_edge43_Node000036_Node000037"><a xlink:title=" ">
<path fill="none" stroke="#63b8ff" d="M1701,-285.75C1701,-278.8 1701,-268.85 1701,-260.13"/>
<polygon fill="#63b8ff" stroke="#63b8ff" points="1704.5,-260.09 1701,-250.09 1697.5,-260.09 1704.5,-260.09"/>
</a>
</g>
</g>
</g>
</svg>
