<?xml version="1.0" encoding="UTF-8" standalone="no"?>
<!DOCTYPE svg PUBLIC "-//W3C//DTD SVG 1.1//EN"
 "http://www.w3.org/Graphics/SVG/1.1/DTD/svg11.dtd">
<!-- Generated by graphviz version 2.43.0 (0)
 -->
<!-- Title: src/io/gltexture_loader.h Pages: 1 -->
<svg width="677pt" height="93pt"
 viewBox="0.00 0.00 676.50 93.00" xmlns="http://www.w3.org/2000/svg" xmlns:xlink="http://www.w3.org/1999/xlink">
<g id="graph0" class="graph" transform="scale(1 1) rotate(0) translate(4 89)">
<title>src/io/gltexture_loader.h</title>
<!-- Node1 -->
<g id="Node000001" class="node">
<title>Node1</title>
<g id="a_Node000001"><a xlink:title=" ">
<polygon fill="#999999" stroke="#666666" points="416,-85 282,-85 282,-66 416,-66 416,-85"/>
<text text-anchor="middle" x="349" y="-73" font-family="Helvetica,sans-Serif" font-size="10.00">src/io/gltexture_loader.h</text>
</a>
</g>
</g>
<!-- Node2 -->
<g id="Node000002" class="node">
<title>Node2</title>
<g id="a_Node000002"><a xlink:href="gltexture__loader_8c.html" target="_top" xlink:title=" ">
<polygon fill="white" stroke="#666666" points="134,-24.5 0,-24.5 0,-5.5 134,-5.5 134,-24.5"/>
<text text-anchor="middle" x="67" y="-12.5" font-family="Helvetica,sans-Serif" font-size="10.00">src/io/gltexture_loader.c</text>
</a>
</g>
</g>
<!-- Node1&#45;&gt;Node2 -->
<g id="edge1_Node000001_Node000002" class="edge">
<title>Node1&#45;&gt;Node2</title>
<g id="a_edge1_Node000001_Node000002"><a xlink:title=" ">
<path fill="none" stroke="#63b8ff" d="M297.87,-63.89C243.41,-52.6 158.31,-34.94 108.05,-24.52"/>
<polygon fill="#63b8ff" stroke="#63b8ff" points="297.49,-67.39 307.99,-65.99 298.91,-60.54 297.49,-67.39"/>
</a>
</g>
</g>
<!-- Node3 -->
<g id="Node000003" class="node">
<title>Node3</title>
<g id="a_Node000003"><a xlink:href="collision_8c.html" target="_top" xlink:title=" ">
<polygon fill="white" stroke="#666666" points="274,-24.5 152,-24.5 152,-5.5 274,-5.5 274,-24.5"/>
<text text-anchor="middle" x="213" y="-12.5" font-family="Helvetica,sans-Serif" font-size="10.00">src/physics/collision.c</text>
</a>
</g>
</g>
<!-- Node1&#45;&gt;Node3 -->
<g id="edge2_Node000001_Node000003" class="edge">
<title>Node1&#45;&gt;Node3</title>
<g id="a_edge2_Node000001_Node000003"><a xlink:title=" ">
<path fill="none" stroke="#63b8ff" d="M319.78,-61.93C293.52,-50.64 255.67,-34.36 232.8,-24.52"/>
<polygon fill="#63b8ff" stroke="#63b8ff" points="318.66,-65.26 329.22,-65.99 321.42,-58.83 318.66,-65.26"/>
</a>
</g>
</g>
<!-- Node4 -->
<g id="Node000004" class="node">
<title>Node4</title>
<g id="a_Node000004"><a xlink:href="collision__util_8c.html" target="_top" xlink:title=" ">
<polygon fill="white" stroke="#666666" points="406,-30 292,-30 292,0 406,0 406,-30"/>
<text text-anchor="start" x="300" y="-18" font-family="Helvetica,sans-Serif" font-size="10.00">src/physics/collision</text>
<text text-anchor="middle" x="349" y="-7" font-family="Helvetica,sans-Serif" font-size="10.00">_util.c</text>
</a>
</g>
</g>
<!-- Node1&#45;&gt;Node4 -->
<g id="edge3_Node000001_Node000004" class="edge">
<title>Node1&#45;&gt;Node4</title>
<g id="a_edge3_Node000001_Node000004"><a xlink:title=" ">
<path fill="none" stroke="#63b8ff" d="M349,-55.65C349,-47.36 349,-37.78 349,-30.11"/>
<polygon fill="#63b8ff" stroke="#63b8ff" points="345.5,-55.87 349,-65.87 352.5,-55.87 345.5,-55.87"/>
</a>
</g>
</g>
<!-- Node5 -->
<g id="Node000005" class="node">
<title>Node5</title>
<g id="a_Node000005"><a xlink:href="physics_8c.html" target="_top" xlink:title=" ">
<polygon fill="white" stroke="#666666" points="543.5,-24.5 424.5,-24.5 424.5,-5.5 543.5,-5.5 543.5,-24.5"/>
<text text-anchor="middle" x="484" y="-12.5" font-family="Helvetica,sans-Serif" font-size="10.00">src/physics/physics.c</text>
</a>
</g>
</g>
<!-- Node1&#45;&gt;Node5 -->
<g id="edge4_Node000001_Node000005" class="edge">
<title>Node1&#45;&gt;Node5</title>
<g id="a_edge4_Node000001_Node000005"><a xlink:title=" ">
<path fill="none" stroke="#63b8ff" d="M378,-61.93C404.07,-50.64 441.64,-34.36 464.35,-24.52"/>
<polygon fill="#63b8ff" stroke="#63b8ff" points="376.41,-58.81 368.63,-65.99 379.2,-65.23 376.41,-58.81"/>
</a>
</g>
</g>
<!-- Node6 -->
<g id="Node000006" class="node">
<title>Node6</title>
<g id="a_Node000006"><a xlink:href="render_8c.html" target="_top" xlink:title=" ">
<polygon fill="white" stroke="#666666" points="668.5,-24.5 561.5,-24.5 561.5,-5.5 668.5,-5.5 668.5,-24.5"/>
<text text-anchor="middle" x="615" y="-12.5" font-family="Helvetica,sans-Serif" font-size="10.00">src/render/render.c</text>
</a>
</g>
</g>
<!-- Node1&#45;&gt;Node6 -->
<g id="edge5_Node000001_Node000006" class="edge">
<title>Node1&#45;&gt;Node6</title>
<g id="a_edge5_Node000001_Node000006"><a xlink:title=" ">
<path fill="none" stroke="#63b8ff" d="M398.32,-63.85C439.65,-54.89 500.2,-41.72 553,-30 560.86,-28.25 569.28,-26.37 577.3,-24.56"/>
<polygon fill="#63b8ff" stroke="#63b8ff" points="397.54,-60.43 388.51,-65.97 399.02,-67.28 397.54,-60.43"/>
</a>
</g>
</g>
</g>
</svg>
