<?xml version="1.0" encoding="UTF-8" standalone="no"?>
<!DOCTYPE svg PUBLIC "-//W3C//DTD SVG 1.1//EN"
 "http://www.w3.org/Graphics/SVG/1.1/DTD/svg11.dtd">
<!-- Generated by graphviz version 2.43.0 (0)
 -->
<!-- Title: src/storage/hash.h Pages: 1 -->
<svg width="440pt" height="93pt"
 viewBox="0.00 0.00 440.00 93.00" xmlns="http://www.w3.org/2000/svg" xmlns:xlink="http://www.w3.org/1999/xlink">
<g id="graph0" class="graph" transform="scale(1 1) rotate(0) translate(4 89)">
<title>src/storage/hash.h</title>
<!-- Node1 -->
<g id="Node000001" class="node">
<title>Node1</title>
<g id="a_Node000001"><a xlink:title=" ">
<polygon fill="#999999" stroke="#666666" points="242.5,-85 136.5,-85 136.5,-66 242.5,-66 242.5,-85"/>
<text text-anchor="middle" x="189.5" y="-73" font-family="Helvetica,sans-Serif" font-size="10.00">src/storage/hash.h</text>
</a>
</g>
</g>
<!-- Node2 -->
<g id="Node000002" class="node">
<title>Node2</title>
<g id="a_Node000002"><a xlink:href="main_8c.html" target="_top" xlink:title=" ">
<polygon fill="white" stroke="#666666" points="67,-24.5 0,-24.5 0,-5.5 67,-5.5 67,-24.5"/>
<text text-anchor="middle" x="33.5" y="-12.5" font-family="Helvetica,sans-Serif" font-size="10.00">src/main.c</text>
</a>
</g>
</g>
<!-- Node1&#45;&gt;Node2 -->
<g id="edge1_Node000001_Node000002" class="edge">
<title>Node1&#45;&gt;Node2</title>
<g id="a_edge1_Node000001_Node000002"><a xlink:title=" ">
<path fill="none" stroke="#63b8ff" d="M157.17,-62.38C127.02,-51.07 82.8,-34.49 56.21,-24.52"/>
<polygon fill="#63b8ff" stroke="#63b8ff" points="156.22,-65.76 166.82,-65.99 158.68,-59.21 156.22,-65.76"/>
</a>
</g>
</g>
<!-- Node3 -->
<g id="Node000003" class="node">
<title>Node3</title>
<g id="a_Node000003"><a xlink:href="raptiquax_8c.html" target="_top" xlink:title=" ">
<polygon fill="white" stroke="#666666" points="174,-24.5 85,-24.5 85,-5.5 174,-5.5 174,-24.5"/>
<text text-anchor="middle" x="129.5" y="-12.5" font-family="Helvetica,sans-Serif" font-size="10.00">src/raptiquax.c</text>
</a>
</g>
</g>
<!-- Node1&#45;&gt;Node3 -->
<g id="edge2_Node000001_Node000003" class="edge">
<title>Node1&#45;&gt;Node3</title>
<g id="a_edge2_Node000001_Node000003"><a xlink:title=" ">
<path fill="none" stroke="#63b8ff" d="M173.18,-58.59C161.98,-47.67 147.53,-33.58 138.39,-24.67"/>
<polygon fill="#63b8ff" stroke="#63b8ff" points="171.04,-61.39 180.65,-65.87 175.93,-56.38 171.04,-61.39"/>
</a>
</g>
</g>
<!-- Node4 -->
<g id="Node000004" class="node">
<title>Node4</title>
<g id="a_Node000004"><a xlink:href="chessboard_8h.html" target="_top" xlink:title=" ">
<polygon fill="white" stroke="#666666" points="309,-30 192,-30 192,0 309,0 309,-30"/>
<text text-anchor="start" x="200" y="-18" font-family="Helvetica,sans-Serif" font-size="10.00">src/scripts/fps_chess</text>
<text text-anchor="middle" x="250.5" y="-7" font-family="Helvetica,sans-Serif" font-size="10.00">/chessboard.h</text>
</a>
</g>
</g>
<!-- Node1&#45;&gt;Node4 -->
<g id="edge3_Node000001_Node000004" class="edge">
<title>Node1&#45;&gt;Node4</title>
<g id="a_edge3_Node000001_Node000004"><a xlink:title=" ">
<path fill="none" stroke="#63b8ff" d="M205.98,-58.7C215.27,-49.78 226.79,-38.74 235.78,-30.11"/>
<polygon fill="#63b8ff" stroke="#63b8ff" points="203.3,-56.42 198.5,-65.87 208.14,-61.47 203.3,-56.42"/>
</a>
</g>
</g>
<!-- Node5 -->
<g id="Node000005" class="node">
<title>Node5</title>
<g id="a_Node000005"><a xlink:href="hash_8c.html" target="_top" xlink:title=" ">
<polygon fill="white" stroke="#666666" points="432,-24.5 327,-24.5 327,-5.5 432,-5.5 432,-24.5"/>
<text text-anchor="middle" x="379.5" y="-12.5" font-family="Helvetica,sans-Serif" font-size="10.00">src/storage/hash.c</text>
</a>
</g>
</g>
<!-- Node1&#45;&gt;Node5 -->
<g id="edge4_Node000001_Node000005" class="edge">
<title>Node1&#45;&gt;Node5</title>
<g id="a_edge4_Node000001_Node000005"><a xlink:title=" ">
<path fill="none" stroke="#63b8ff" d="M226.97,-62.96C263.72,-51.65 318.9,-34.66 351.84,-24.52"/>
<polygon fill="#63b8ff" stroke="#63b8ff" points="225.65,-59.71 217.13,-65.99 227.71,-66.4 225.65,-59.71"/>
</a>
</g>
</g>
</g>
</svg>
