<?xml version="1.0" encoding="UTF-8" standalone="no"?>
<!DOCTYPE svg PUBLIC "-//W3C//DTD SVG 1.1//EN"
 "http://www.w3.org/Graphics/SVG/1.1/DTD/svg11.dtd">
<!-- Generated by graphviz version 2.43.0 (0)
 -->
<!-- Title: src/io/input.c Pages: 1 -->
<svg width="2143pt" height="423pt"
 viewBox="0.00 0.00 2142.50 423.00" xmlns="http://www.w3.org/2000/svg" xmlns:xlink="http://www.w3.org/1999/xlink">
<g id="graph0" class="graph" transform="scale(1 1) rotate(0) translate(4 419)">
<title>src/io/input.c</title>
<!-- Node1 -->
<g id="Node000001" class="node">
<title>Node1</title>
<g id="a_Node000001"><a xlink:title=" ">
<polygon fill="#999999" stroke="#666666" points="1654.5,-415 1575.5,-415 1575.5,-396 1654.5,-396 1654.5,-415"/>
<text text-anchor="middle" x="1615" y="-403" font-family="Helvetica,sans-Serif" font-size="10.00">src/io/input.c</text>
</a>
</g>
</g>
<!-- Node2 -->
<g id="Node000002" class="node">
<title>Node2</title>
<g id="a_Node000002"><a xlink:href="raptiquax_8h.html" target="_top" xlink:title="This file contains type definitions for fixed&#45;width integer types and floating&#45;point types.">
<polygon fill="white" stroke="#666666" points="950.5,-250 869.5,-250 869.5,-231 950.5,-231 950.5,-250"/>
<text text-anchor="middle" x="910" y="-238" font-family="Helvetica,sans-Serif" font-size="10.00">../raptiquax.h</text>
</a>
</g>
</g>
<!-- Node1&#45;&gt;Node2 -->
<g id="edge1_Node000001_Node000002" class="edge">
<title>Node1&#45;&gt;Node2</title>
<g id="a_edge1_Node000001_Node000002"><a xlink:title=" ">
<path fill="none" stroke="#63b8ff" d="M1575.2,-398.23C1526.4,-390.32 1441.28,-375.85 1369,-360 1212.82,-325.76 1029.34,-275.24 949.94,-252.87"/>
<polygon fill="#63b8ff" stroke="#63b8ff" points="950.47,-249.38 939.89,-250.03 948.56,-256.12 950.47,-249.38"/>
</a>
</g>
</g>
<!-- Node24 -->
<g id="Node000024" class="node">
<title>Node24</title>
<g id="a_Node000024"><a xlink:href="math__util_8h.html" target="_top" xlink:title=" ">
<polygon fill="white" stroke="#666666" points="1446,-250 1336,-250 1336,-231 1446,-231 1446,-250"/>
<text text-anchor="middle" x="1391" y="-238" font-family="Helvetica,sans-Serif" font-size="10.00">../math/math_util.h</text>
</a>
</g>
</g>
<!-- Node1&#45;&gt;Node24 -->
<g id="edge23_Node000001_Node000024" class="edge">
<title>Node1&#45;&gt;Node24</title>
<g id="a_edge23_Node000001_Node000024"><a xlink:title=" ">
<path fill="none" stroke="#63b8ff" d="M1575.41,-398.56C1546.06,-392.62 1506.24,-381.21 1477,-360 1439.76,-332.99 1412.19,-284.95 1399.23,-259.11"/>
<polygon fill="#63b8ff" stroke="#63b8ff" points="1402.37,-257.56 1394.86,-250.09 1396.08,-260.62 1402.37,-257.56"/>
</a>
</g>
</g>
<!-- Node25 -->
<g id="Node000025" class="node">
<title>Node25</title>
<g id="a_Node000025"><a xlink:href="model_8h.html" target="_top" xlink:title="Defines structures and functions for handling 3D models and their properties.">
<polygon fill="white" stroke="#666666" points="1602,-250 1546,-250 1546,-231 1602,-231 1602,-250"/>
<text text-anchor="middle" x="1574" y="-238" font-family="Helvetica,sans-Serif" font-size="10.00">model.h</text>
</a>
</g>
</g>
<!-- Node1&#45;&gt;Node25 -->
<g id="edge24_Node000001_Node000025" class="edge">
<title>Node1&#45;&gt;Node25</title>
<g id="a_edge24_Node000001_Node000025"><a xlink:title=" ">
<path fill="none" stroke="#63b8ff" d="M1614.51,-395.97C1613.19,-376.19 1608.74,-325.9 1596,-286 1593.02,-276.66 1588.34,-266.84 1584.07,-258.8"/>
<polygon fill="#63b8ff" stroke="#63b8ff" points="1587.11,-257.07 1579.19,-250.04 1581,-260.48 1587.11,-257.07"/>
</a>
</g>
</g>
<!-- Node31 -->
<g id="Node000031" class="node">
<title>Node31</title>
<g id="a_Node000031"><a xlink:href="framebuffer_8h.html" target="_top" xlink:title=" ">
<polygon fill="white" stroke="#666666" points="1889,-305 1763,-305 1763,-286 1889,-286 1889,-305"/>
<text text-anchor="middle" x="1826" y="-293" font-family="Helvetica,sans-Serif" font-size="10.00">../render/framebuffer.h</text>
</a>
</g>
</g>
<!-- Node1&#45;&gt;Node31 -->
<g id="edge30_Node000001_Node000031" class="edge">
<title>Node1&#45;&gt;Node31</title>
<g id="a_edge30_Node000001_Node000031"><a xlink:title=" ">
<path fill="none" stroke="#63b8ff" d="M1631.91,-395.84C1668.73,-377 1756.36,-332.14 1800.16,-309.73"/>
<polygon fill="#63b8ff" stroke="#63b8ff" points="1802,-312.72 1809.3,-305.05 1798.81,-306.49 1802,-312.72"/>
</a>
</g>
</g>
<!-- Node32 -->
<g id="Node000032" class="node">
<title>Node32</title>
<g id="a_Node000032"><a xlink:href="input_8h.html" target="_top" xlink:title=" ">
<polygon fill="white" stroke="#666666" points="1861.5,-250 1790.5,-250 1790.5,-231 1861.5,-231 1861.5,-250"/>
<text text-anchor="middle" x="1826" y="-238" font-family="Helvetica,sans-Serif" font-size="10.00">../io/input.h</text>
</a>
</g>
</g>
<!-- Node1&#45;&gt;Node32 -->
<g id="edge48_Node000001_Node000032" class="edge">
<title>Node1&#45;&gt;Node32</title>
<g id="a_edge48_Node000001_Node000032"><a xlink:title=" ">
<path fill="none" stroke="#63b8ff" d="M1654.6,-403.97C1718.32,-400.71 1842.08,-383.94 1898,-305 1912.61,-284.38 1884.65,-265.91 1859.43,-254.28"/>
<polygon fill="#63b8ff" stroke="#63b8ff" points="1860.56,-250.95 1849.99,-250.16 1857.76,-257.37 1860.56,-250.95"/>
</a>
</g>
</g>
<!-- Node33 -->
<g id="Node000033" class="node">
<title>Node33</title>
<g id="a_Node000033"><a xlink:href="node_8h.html" target="_top" xlink:title=" ">
<polygon fill="white" stroke="#666666" points="1584,-360 1486,-360 1486,-341 1584,-341 1584,-360"/>
<text text-anchor="middle" x="1535" y="-348" font-family="Helvetica,sans-Serif" font-size="10.00">../storage/node.h</text>
</a>
</g>
</g>
<!-- Node1&#45;&gt;Node33 -->
<g id="edge32_Node000001_Node000033" class="edge">
<title>Node1&#45;&gt;Node33</title>
<g id="a_edge32_Node000001_Node000033"><a xlink:title=" ">
<path fill="none" stroke="#63b8ff" d="M1602.15,-395.98C1589.86,-387.84 1571.09,-375.41 1556.52,-365.76"/>
<polygon fill="#63b8ff" stroke="#63b8ff" points="1558.36,-362.78 1548.09,-360.17 1554.49,-368.61 1558.36,-362.78"/>
</a>
</g>
</g>
<!-- Node34 -->
<g id="Node000034" class="node">
<title>Node34</title>
<g id="a_Node000034"><a xlink:href="camera_8h.html" target="_top" xlink:title=" ">
<polygon fill="white" stroke="#666666" points="1385,-305 1279,-305 1279,-286 1385,-286 1385,-305"/>
<text text-anchor="middle" x="1332" y="-293" font-family="Helvetica,sans-Serif" font-size="10.00">../render/camera.h</text>
</a>
</g>
</g>
<!-- Node1&#45;&gt;Node34 -->
<g id="edge47_Node000001_Node000034" class="edge">
<title>Node1&#45;&gt;Node34</title>
<g id="a_edge47_Node000001_Node000034"><a xlink:title=" ">
<path fill="none" stroke="#63b8ff" d="M1575.39,-402.83C1530.34,-399.5 1455.69,-389.58 1399,-360 1376.91,-348.47 1356.94,-327.52 1344.66,-312.85"/>
<polygon fill="#63b8ff" stroke="#63b8ff" points="1347.37,-310.63 1338.36,-305.05 1341.92,-315.03 1347.37,-310.63"/>
</a>
</g>
</g>
<!-- Node38 -->
<g id="Node000038" class="node">
<title>Node38</title>
<g id="a_Node000038"><a xlink:href="render_8h.html" target="_top" xlink:title=" ">
<polygon fill="white" stroke="#666666" points="2045,-360 1945,-360 1945,-341 2045,-341 2045,-360"/>
<text text-anchor="middle" x="1995" y="-348" font-family="Helvetica,sans-Serif" font-size="10.00">../render/render.h</text>
</a>
</g>
</g>
<!-- Node1&#45;&gt;Node38 -->
<g id="edge45_Node000001_Node000038" class="edge">
<title>Node1&#45;&gt;Node38</title>
<g id="a_edge45_Node000001_Node000038"><a xlink:title=" ">
<path fill="none" stroke="#63b8ff" d="M1654.59,-398.98C1721.18,-389.69 1855.98,-370.89 1934.49,-359.94"/>
<polygon fill="#63b8ff" stroke="#63b8ff" points="1935.3,-363.36 1944.72,-358.51 1934.33,-356.43 1935.3,-363.36"/>
</a>
</g>
</g>
<!-- Node39 -->
<g id="Node000039" class="node">
<title>Node39</title>
<g id="a_Node000039"><a xlink:href="window_8h.html" target="_top" xlink:title=" ">
<polygon fill="white" stroke="#666666" points="2134.5,-360 2063.5,-360 2063.5,-341 2134.5,-341 2134.5,-360"/>
<text text-anchor="middle" x="2099" y="-348" font-family="Helvetica,sans-Serif" font-size="10.00">../window.h</text>
</a>
</g>
</g>
<!-- Node1&#45;&gt;Node39 -->
<g id="edge46_Node000001_Node000039" class="edge">
<title>Node1&#45;&gt;Node39</title>
<g id="a_edge46_Node000001_Node000039"><a xlink:title=" ">
<path fill="none" stroke="#63b8ff" d="M1654.79,-401.62C1730.35,-395.89 1899.99,-381.84 2053.12,-360"/>
<polygon fill="#63b8ff" stroke="#63b8ff" points="2053.79,-363.44 2063.18,-358.55 2052.79,-356.51 2053.79,-363.44"/>
</a>
</g>
</g>
<!-- Node3 -->
<g id="Node000003" class="node">
<title>Node3</title>
<g id="a_Node000003"><a xlink:title=" ">
<polygon fill="#e0e0e0" stroke="#999999" points="1089,-189.5 1039,-189.5 1039,-170.5 1089,-170.5 1089,-189.5"/>
<text text-anchor="middle" x="1064" y="-177.5" font-family="Helvetica,sans-Serif" font-size="10.00">stdio.h</text>
</a>
</g>
</g>
<!-- Node2&#45;&gt;Node3 -->
<g id="edge2_Node000002_Node000003" class="edge">
<title>Node2&#45;&gt;Node3</title>
<g id="a_edge2_Node000002_Node000003"><a xlink:title=" ">
<path fill="none" stroke="#63b8ff" d="M933.32,-230.96C957.35,-222.11 995.88,-207.81 1029,-195 1030.41,-194.45 1031.85,-193.89 1033.31,-193.32"/>
<polygon fill="#63b8ff" stroke="#63b8ff" points="1034.92,-196.45 1042.93,-189.52 1032.34,-189.94 1034.92,-196.45"/>
</a>
</g>
</g>
<!-- Node4 -->
<g id="Node000004" class="node">
<title>Node4</title>
<g id="a_Node000004"><a xlink:title=" ">
<polygon fill="#e0e0e0" stroke="#999999" points="1160.5,-189.5 1107.5,-189.5 1107.5,-170.5 1160.5,-170.5 1160.5,-189.5"/>
<text text-anchor="middle" x="1134" y="-177.5" font-family="Helvetica,sans-Serif" font-size="10.00">stdint.h</text>
</a>
</g>
</g>
<!-- Node2&#45;&gt;Node4 -->
<g id="edge3_Node000002_Node000004" class="edge">
<title>Node2&#45;&gt;Node4</title>
<g id="a_edge3_Node000002_Node000004"><a xlink:title=" ">
<path fill="none" stroke="#63b8ff" d="M950.78,-231.55C989.16,-223.67 1048.04,-210.55 1098,-195 1099.87,-194.42 1101.79,-193.78 1103.71,-193.12"/>
<polygon fill="#63b8ff" stroke="#63b8ff" points="1105.04,-196.36 1113.23,-189.64 1102.64,-189.79 1105.04,-196.36"/>
</a>
</g>
</g>
<!-- Node5 -->
<g id="Node000005" class="node">
<title>Node5</title>
<g id="a_Node000005"><a xlink:title=" ">
<polygon fill="#e0e0e0" stroke="#999999" points="1241,-189.5 1179,-189.5 1179,-170.5 1241,-170.5 1241,-189.5"/>
<text text-anchor="middle" x="1210" y="-177.5" font-family="Helvetica,sans-Serif" font-size="10.00">stdbool.h</text>
</a>
</g>
</g>
<!-- Node2&#45;&gt;Node5 -->
<g id="edge4_Node000002_Node000005" class="edge">
<title>Node2&#45;&gt;Node5</title>
<g id="a_edge4_Node000002_Node000005"><a xlink:title=" ">
<path fill="none" stroke="#63b8ff" d="M950.8,-234.53C1002.18,-227.81 1092.96,-214.38 1169,-195 1171.64,-194.33 1174.36,-193.56 1177.07,-192.75"/>
<polygon fill="#63b8ff" stroke="#63b8ff" points="1178.32,-196.03 1186.78,-189.65 1176.19,-189.36 1178.32,-196.03"/>
</a>
</g>
</g>
<!-- Node6 -->
<g id="Node000006" class="node">
<title>Node6</title>
<g id="a_Node000006"><a xlink:title=" ">
<polygon fill="#e0e0e0" stroke="#999999" points="1315,-189.5 1259,-189.5 1259,-170.5 1315,-170.5 1315,-189.5"/>
<text text-anchor="middle" x="1287" y="-177.5" font-family="Helvetica,sans-Serif" font-size="10.00">stdarg.h</text>
</a>
</g>
</g>
<!-- Node2&#45;&gt;Node6 -->
<g id="edge5_Node000002_Node000006" class="edge">
<title>Node2&#45;&gt;Node6</title>
<g id="a_edge5_Node000002_Node000006"><a xlink:title=" ">
<path fill="none" stroke="#63b8ff" d="M950.61,-237.23C1014.95,-232.96 1143.9,-221.63 1250,-195 1252.45,-194.39 1254.96,-193.66 1257.46,-192.87"/>
<polygon fill="#63b8ff" stroke="#63b8ff" points="1258.63,-196.16 1266.91,-189.57 1256.32,-189.55 1258.63,-196.16"/>
</a>
</g>
</g>
<!-- Node7 -->
<g id="Node000007" class="node">
<title>Node7</title>
<g id="a_Node000007"><a xlink:title=" ">
<polygon fill="#e0e0e0" stroke="#999999" points="1386.5,-189.5 1333.5,-189.5 1333.5,-170.5 1386.5,-170.5 1386.5,-189.5"/>
<text text-anchor="middle" x="1360" y="-177.5" font-family="Helvetica,sans-Serif" font-size="10.00">limits.h</text>
</a>
</g>
</g>
<!-- Node2&#45;&gt;Node7 -->
<g id="edge6_Node000002_Node000007" class="edge">
<title>Node2&#45;&gt;Node7</title>
<g id="a_edge6_Node000002_Node000007"><a xlink:title=" ">
<path fill="none" stroke="#63b8ff" d="M950.57,-238.67C1025.42,-236.37 1189.85,-227.68 1324,-195 1326.36,-194.42 1328.78,-193.73 1331.19,-192.96"/>
<polygon fill="#63b8ff" stroke="#63b8ff" points="1332.62,-196.17 1340.87,-189.52 1330.28,-189.57 1332.62,-196.17"/>
</a>
</g>
</g>
<!-- Node8 -->
<g id="Node000008" class="node">
<title>Node8</title>
<g id="a_Node000008"><a xlink:title=" ">
<polygon fill="#e0e0e0" stroke="#999999" points="1477,-189.5 1405,-189.5 1405,-170.5 1477,-170.5 1477,-189.5"/>
<text text-anchor="middle" x="1441" y="-177.5" font-family="Helvetica,sans-Serif" font-size="10.00">SDL2/SDL.h</text>
</a>
</g>
</g>
<!-- Node2&#45;&gt;Node8 -->
<g id="edge7_Node000002_Node000008" class="edge">
<title>Node2&#45;&gt;Node8</title>
<g id="a_edge7_Node000002_Node000008"><a xlink:title=" ">
<path fill="none" stroke="#63b8ff" d="M950.64,-238.56C1034.47,-236.02 1232.36,-226.86 1395,-195 1398.66,-194.28 1402.43,-193.39 1406.18,-192.41"/>
<polygon fill="#63b8ff" stroke="#63b8ff" points="1407.26,-195.74 1415.93,-189.64 1405.35,-189.01 1407.26,-195.74"/>
</a>
</g>
</g>
<!-- Node9 -->
<g id="Node000009" class="node">
<title>Node9</title>
<g id="a_Node000009"><a xlink:title=" ">
<polygon fill="#e0e0e0" stroke="#999999" points="108,-189.5 0,-189.5 0,-170.5 108,-170.5 108,-189.5"/>
<text text-anchor="middle" x="54" y="-177.5" font-family="Helvetica,sans-Serif" font-size="10.00">SDL2/SDL_image.h</text>
</a>
</g>
</g>
<!-- Node2&#45;&gt;Node9 -->
<g id="edge8_Node000002_Node000009" class="edge">
<title>Node2&#45;&gt;Node9</title>
<g id="a_edge8_Node000002_Node000009"><a xlink:title=" ">
<path fill="none" stroke="#63b8ff" d="M869.34,-239.54C752.04,-239.17 403.16,-234.56 117,-195 110.66,-194.12 104.02,-192.94 97.52,-191.64"/>
<polygon fill="#63b8ff" stroke="#63b8ff" points="98,-188.16 87.49,-189.5 96.55,-195.01 98,-188.16"/>
</a>
</g>
</g>
<!-- Node10 -->
<g id="Node000010" class="node">
<title>Node10</title>
<g id="a_Node000010"><a xlink:title=" ">
<polygon fill="#e0e0e0" stroke="#999999" points="236,-189.5 126,-189.5 126,-170.5 236,-170.5 236,-189.5"/>
<text text-anchor="middle" x="181" y="-177.5" font-family="Helvetica,sans-Serif" font-size="10.00">SDL2/SDL_opengl.h</text>
</a>
</g>
</g>
<!-- Node2&#45;&gt;Node10 -->
<g id="edge9_Node000002_Node000010" class="edge">
<title>Node2&#45;&gt;Node10</title>
<g id="a_edge9_Node000002_Node000010"><a xlink:title=" ">
<path fill="none" stroke="#63b8ff" d="M869.3,-238.88C765,-236.83 479.85,-228.36 245,-195 238.64,-194.1 231.98,-192.91 225.45,-191.61"/>
<polygon fill="#63b8ff" stroke="#63b8ff" points="225.88,-188.13 215.37,-189.5 224.44,-194.98 225.88,-188.13"/>
</a>
</g>
</g>
<!-- Node11 -->
<g id="Node000011" class="node">
<title>Node11</title>
<g id="a_Node000011"><a xlink:title=" ">
<polygon fill="#e0e0e0" stroke="#999999" points="358,-189.5 254,-189.5 254,-170.5 358,-170.5 358,-189.5"/>
<text text-anchor="middle" x="306" y="-177.5" font-family="Helvetica,sans-Serif" font-size="10.00">SDL2/SDL_mixer.h</text>
</a>
</g>
</g>
<!-- Node2&#45;&gt;Node11 -->
<g id="edge10_Node000002_Node000011" class="edge">
<title>Node2&#45;&gt;Node11</title>
<g id="a_edge10_Node000002_Node000011"><a xlink:title=" ">
<path fill="none" stroke="#63b8ff" d="M869.24,-238.16C778.51,-234.75 553.24,-223.85 367,-195 361.15,-194.09 355.03,-192.94 349.02,-191.69"/>
<polygon fill="#63b8ff" stroke="#63b8ff" points="349.59,-188.23 339.07,-189.5 348.09,-195.06 349.59,-188.23"/>
</a>
</g>
</g>
<!-- Node12 -->
<g id="Node000012" class="node">
<title>Node12</title>
<g id="a_Node000012"><a xlink:title=" ">
<polygon fill="#e0e0e0" stroke="#999999" points="464,-189.5 376,-189.5 376,-170.5 464,-170.5 464,-189.5"/>
<text text-anchor="middle" x="420" y="-177.5" font-family="Helvetica,sans-Serif" font-size="10.00">SDL2/SDL_ttf.h</text>
</a>
</g>
</g>
<!-- Node2&#45;&gt;Node12 -->
<g id="edge11_Node000002_Node000012" class="edge">
<title>Node2&#45;&gt;Node12</title>
<g id="a_edge11_Node000002_Node000012"><a xlink:title=" ">
<path fill="none" stroke="#63b8ff" d="M869.34,-237.49C791.75,-233.19 617.43,-221.26 473,-195 468.45,-194.17 463.72,-193.16 459.05,-192.05"/>
<polygon fill="#63b8ff" stroke="#63b8ff" points="459.52,-188.56 448.97,-189.53 457.83,-195.35 459.52,-188.56"/>
</a>
</g>
</g>
<!-- Node13 -->
<g id="Node000013" class="node">
<title>Node13</title>
<g id="a_Node000013"><a xlink:title=" ">
<polygon fill="#e0e0e0" stroke="#999999" points="532,-189.5 482,-189.5 482,-170.5 532,-170.5 532,-189.5"/>
<text text-anchor="middle" x="507" y="-177.5" font-family="Helvetica,sans-Serif" font-size="10.00">GL/gl.h</text>
</a>
</g>
</g>
<!-- Node2&#45;&gt;Node13 -->
<g id="edge12_Node000002_Node000013" class="edge">
<title>Node2&#45;&gt;Node13</title>
<g id="a_edge12_Node000002_Node000013"><a xlink:title=" ">
<path fill="none" stroke="#63b8ff" d="M869.48,-238.19C800.83,-235.17 657.75,-225.47 541,-195 539.05,-194.49 537.07,-193.9 535.09,-193.24"/>
<polygon fill="#63b8ff" stroke="#63b8ff" points="535.99,-189.84 525.39,-189.63 533.54,-196.4 535.99,-189.84"/>
</a>
</g>
</g>
<!-- Node14 -->
<g id="Node000014" class="node">
<title>Node14</title>
<g id="a_Node000014"><a xlink:title=" ">
<polygon fill="#e0e0e0" stroke="#999999" points="606,-189.5 550,-189.5 550,-170.5 606,-170.5 606,-189.5"/>
<text text-anchor="middle" x="578" y="-177.5" font-family="Helvetica,sans-Serif" font-size="10.00">GL/glu.h</text>
</a>
</g>
</g>
<!-- Node2&#45;&gt;Node14 -->
<g id="edge13_Node000002_Node000014" class="edge">
<title>Node2&#45;&gt;Node14</title>
<g id="a_edge13_Node000002_Node000014"><a xlink:title=" ">
<path fill="none" stroke="#63b8ff" d="M869.37,-236.12C811.97,-230.72 704.2,-218.32 615,-195 612.7,-194.4 610.35,-193.7 608,-192.95"/>
<polygon fill="#63b8ff" stroke="#63b8ff" points="609.09,-189.63 598.49,-189.64 606.78,-196.24 609.09,-189.63"/>
</a>
</g>
</g>
<!-- Node15 -->
<g id="Node000015" class="node">
<title>Node15</title>
<g id="a_Node000015"><a xlink:title=" ">
<polygon fill="#e0e0e0" stroke="#999999" points="690,-189.5 624,-189.5 624,-170.5 690,-170.5 690,-189.5"/>
<text text-anchor="middle" x="657" y="-177.5" font-family="Helvetica,sans-Serif" font-size="10.00">GL/glext.h</text>
</a>
</g>
</g>
<!-- Node2&#45;&gt;Node15 -->
<g id="edge14_Node000002_Node000015" class="edge">
<title>Node2&#45;&gt;Node15</title>
<g id="a_edge14_Node000002_Node000015"><a xlink:title=" ">
<path fill="none" stroke="#63b8ff" d="M869.22,-232.33C826.48,-224.48 757.54,-210.87 699,-195 696.38,-194.29 693.68,-193.51 690.98,-192.69"/>
<polygon fill="#63b8ff" stroke="#63b8ff" points="691.88,-189.3 681.29,-189.62 689.76,-195.98 691.88,-189.3"/>
</a>
</g>
</g>
<!-- Node16 -->
<g id="Node000016" class="node">
<title>Node16</title>
<g id="a_Node000016"><a xlink:title=" ">
<polygon fill="#e0e0e0" stroke="#999999" points="785.5,-189.5 708.5,-189.5 708.5,-170.5 785.5,-170.5 785.5,-189.5"/>
<text text-anchor="middle" x="747" y="-177.5" font-family="Helvetica,sans-Serif" font-size="10.00">cglm/cglm.h</text>
</a>
</g>
</g>
<!-- Node2&#45;&gt;Node16 -->
<g id="edge15_Node000002_Node000016" class="edge">
<title>Node2&#45;&gt;Node16</title>
<g id="a_edge15_Node000002_Node000016"><a xlink:title=" ">
<path fill="none" stroke="#63b8ff" d="M886.3,-230.99C858.41,-220.99 811.93,-204.3 780.4,-192.99"/>
<polygon fill="#63b8ff" stroke="#63b8ff" points="781.32,-189.6 770.73,-189.52 778.96,-196.19 781.32,-189.6"/>
</a>
</g>
</g>
<!-- Node17 -->
<g id="Node000017" class="node">
<title>Node17</title>
<g id="a_Node000017"><a xlink:title=" ">
<polygon fill="#e0e0e0" stroke="#999999" points="854.5,-189.5 803.5,-189.5 803.5,-170.5 854.5,-170.5 854.5,-189.5"/>
<text text-anchor="middle" x="829" y="-177.5" font-family="Helvetica,sans-Serif" font-size="10.00">math.h</text>
</a>
</g>
</g>
<!-- Node2&#45;&gt;Node17 -->
<g id="edge16_Node000002_Node000017" class="edge">
<title>Node2&#45;&gt;Node17</title>
<g id="a_edge16_Node000002_Node000017"><a xlink:title=" ">
<path fill="none" stroke="#63b8ff" d="M898.05,-230.87C885.25,-221.62 864.7,-206.78 849.35,-195.69"/>
<polygon fill="#63b8ff" stroke="#63b8ff" points="851.16,-192.68 841,-189.67 847.06,-198.36 851.16,-192.68"/>
</a>
</g>
</g>
<!-- Node18 -->
<g id="Node000018" class="node">
<title>Node18</title>
<g id="a_Node000018"><a xlink:href="stringio_8h.html" target="_top" xlink:title="Provides utility functions for string and file operations.">
<polygon fill="white" stroke="#666666" points="947,-189.5 873,-189.5 873,-170.5 947,-170.5 947,-189.5"/>
<text text-anchor="middle" x="910" y="-177.5" font-family="Helvetica,sans-Serif" font-size="10.00">io/stringio.h</text>
</a>
</g>
</g>
<!-- Node2&#45;&gt;Node18 -->
<g id="edge17_Node000002_Node000018" class="edge">
<title>Node2&#45;&gt;Node18</title>
<g id="a_edge17_Node000002_Node000018"><a xlink:title=" ">
<path fill="none" stroke="#63b8ff" d="M910,-230.87C910,-222.75 910,-210.31 910,-199.89"/>
<polygon fill="#63b8ff" stroke="#63b8ff" points="913.5,-199.67 910,-189.67 906.5,-199.67 913.5,-199.67"/>
</a>
</g>
</g>
<!-- Node20 -->
<g id="Node000020" class="node">
<title>Node20</title>
<g id="a_Node000020"><a xlink:href="config_8h.html" target="_top" xlink:title=" ">
<polygon fill="white" stroke="#666666" points="1020.5,-189.5 965.5,-189.5 965.5,-170.5 1020.5,-170.5 1020.5,-189.5"/>
<text text-anchor="middle" x="993" y="-177.5" font-family="Helvetica,sans-Serif" font-size="10.00">config.h</text>
</a>
</g>
</g>
<!-- Node2&#45;&gt;Node20 -->
<g id="edge19_Node000002_Node000020" class="edge">
<title>Node2&#45;&gt;Node20</title>
<g id="a_edge19_Node000002_Node000020"><a xlink:title=" ">
<path fill="none" stroke="#63b8ff" d="M922.25,-230.87C935.36,-221.62 956.42,-206.78 972.15,-195.69"/>
<polygon fill="#63b8ff" stroke="#63b8ff" points="974.55,-198.29 980.7,-189.67 970.51,-192.57 974.55,-198.29"/>
</a>
</g>
</g>
<!-- Node19 -->
<g id="Node000019" class="node">
<title>Node19</title>
<g id="a_Node000019"><a xlink:title=" ">
<polygon fill="#e0e0e0" stroke="#999999" points="936.5,-129 883.5,-129 883.5,-110 936.5,-110 936.5,-129"/>
<text text-anchor="middle" x="910" y="-117" font-family="Helvetica,sans-Serif" font-size="10.00">string.h</text>
</a>
</g>
</g>
<!-- Node18&#45;&gt;Node19 -->
<g id="edge18_Node000018_Node000019" class="edge">
<title>Node18&#45;&gt;Node19</title>
<g id="a_edge18_Node000018_Node000019"><a xlink:title=" ">
<path fill="none" stroke="#63b8ff" d="M910,-170.37C910,-162.25 910,-149.81 910,-139.39"/>
<polygon fill="#63b8ff" stroke="#63b8ff" points="913.5,-139.17 910,-129.17 906.5,-139.17 913.5,-139.17"/>
</a>
</g>
</g>
<!-- Node21 -->
<g id="Node000021" class="node">
<title>Node21</title>
<g id="a_Node000021"><a xlink:href="term_8h.html" target="_top" xlink:title=" ">
<polygon fill="white" stroke="#666666" points="1030.5,-129 955.5,-129 955.5,-110 1030.5,-110 1030.5,-129"/>
<text text-anchor="middle" x="993" y="-117" font-family="Helvetica,sans-Serif" font-size="10.00">term/term.h</text>
</a>
</g>
</g>
<!-- Node20&#45;&gt;Node21 -->
<g id="edge20_Node000020_Node000021" class="edge">
<title>Node20&#45;&gt;Node21</title>
<g id="a_edge20_Node000020_Node000021"><a xlink:title=" ">
<path fill="none" stroke="#63b8ff" d="M993,-170.37C993,-162.25 993,-149.81 993,-139.39"/>
<polygon fill="#63b8ff" stroke="#63b8ff" points="996.5,-139.17 993,-129.17 989.5,-139.17 996.5,-139.17"/>
</a>
</g>
</g>
<!-- Node22 -->
<g id="Node000022" class="node">
<title>Node22</title>
<g id="a_Node000022"><a xlink:href="enhanced__print_8h.html" target="_top" xlink:title=" ">
<polygon fill="white" stroke="#666666" points="1043.5,-74 942.5,-74 942.5,-55 1043.5,-55 1043.5,-74"/>
<text text-anchor="middle" x="993" y="-62" font-family="Helvetica,sans-Serif" font-size="10.00">enhanced_print.h</text>
</a>
</g>
</g>
<!-- Node21&#45;&gt;Node22 -->
<g id="edge21_Node000021_Node000022" class="edge">
<title>Node21&#45;&gt;Node22</title>
<g id="a_edge21_Node000021_Node000022"><a xlink:title=" ">
<path fill="none" stroke="#63b8ff" d="M993,-109.75C993,-102.8 993,-92.85 993,-84.13"/>
<polygon fill="#63b8ff" stroke="#63b8ff" points="996.5,-84.09 993,-74.09 989.5,-84.09 996.5,-84.09"/>
</a>
</g>
</g>
<!-- Node23 -->
<g id="Node000023" class="node">
<title>Node23</title>
<g id="a_Node000023"><a xlink:href="color_8h.html" target="_top" xlink:title=" ">
<polygon fill="white" stroke="#666666" points="1017.5,-19 968.5,-19 968.5,0 1017.5,0 1017.5,-19"/>
<text text-anchor="middle" x="993" y="-7" font-family="Helvetica,sans-Serif" font-size="10.00">color.h</text>
</a>
</g>
</g>
<!-- Node22&#45;&gt;Node23 -->
<g id="edge22_Node000022_Node000023" class="edge">
<title>Node22&#45;&gt;Node23</title>
<g id="a_edge22_Node000022_Node000023"><a xlink:title=" ">
<path fill="none" stroke="#63b8ff" d="M993,-54.75C993,-47.8 993,-37.85 993,-29.13"/>
<polygon fill="#63b8ff" stroke="#63b8ff" points="996.5,-29.09 993,-19.09 989.5,-29.09 996.5,-29.09"/>
</a>
</g>
</g>
<!-- Node26 -->
<g id="Node000026" class="node">
<title>Node26</title>
<g id="a_Node000026"><a xlink:href="shader_8h.html" target="_top" xlink:title=" ">
<polygon fill="white" stroke="#666666" points="1553,-189.5 1495,-189.5 1495,-170.5 1553,-170.5 1553,-189.5"/>
<text text-anchor="middle" x="1524" y="-177.5" font-family="Helvetica,sans-Serif" font-size="10.00">shader.h</text>
</a>
</g>
</g>
<!-- Node25&#45;&gt;Node26 -->
<g id="edge25_Node000025_Node000026" class="edge">
<title>Node25&#45;&gt;Node26</title>
<g id="a_edge25_Node000025_Node000026"><a xlink:title=" ">
<path fill="none" stroke="#63b8ff" d="M1566.62,-230.87C1559.09,-222.05 1547.21,-208.16 1537.91,-197.27"/>
<polygon fill="#63b8ff" stroke="#63b8ff" points="1540.57,-195 1531.41,-189.67 1535.24,-199.54 1540.57,-195"/>
</a>
</g>
</g>
<!-- Node27 -->
<g id="Node000027" class="node">
<title>Node27</title>
<g id="a_Node000027"><a xlink:href="model__loader_8h.html" target="_top" xlink:title=" ">
<polygon fill="white" stroke="#666666" points="1693,-195 1571,-195 1571,-165 1693,-165 1693,-195"/>
<text text-anchor="start" x="1579" y="-183" font-family="Helvetica,sans-Serif" font-size="10.00">model_loaders/model</text>
<text text-anchor="middle" x="1632" y="-172" font-family="Helvetica,sans-Serif" font-size="10.00">_loader.h</text>
</a>
</g>
</g>
<!-- Node25&#45;&gt;Node27 -->
<g id="edge26_Node000025_Node000027" class="edge">
<title>Node25&#45;&gt;Node27</title>
<g id="a_edge26_Node000025_Node000027"><a xlink:title=" ">
<path fill="none" stroke="#63b8ff" d="M1582.56,-230.87C1589.99,-223.37 1601.07,-212.2 1610.86,-202.33"/>
<polygon fill="#63b8ff" stroke="#63b8ff" points="1613.45,-204.68 1618.01,-195.11 1608.48,-199.75 1613.45,-204.68"/>
</a>
</g>
</g>
<!-- Node28 -->
<g id="Node000028" class="node">
<title>Node28</title>
<g id="a_Node000028"><a xlink:href="obj__loader_8h.html" target="_top" xlink:title=" ">
<polygon fill="white" stroke="#666666" points="1575,-129 1499,-129 1499,-110 1575,-110 1575,-129"/>
<text text-anchor="middle" x="1537" y="-117" font-family="Helvetica,sans-Serif" font-size="10.00">obj_loader.h</text>
</a>
</g>
</g>
<!-- Node27&#45;&gt;Node28 -->
<g id="edge27_Node000027_Node000028" class="edge">
<title>Node27&#45;&gt;Node28</title>
<g id="a_edge27_Node000027_Node000028"><a xlink:title=" ">
<path fill="none" stroke="#63b8ff" d="M1609,-164.84C1594,-155.6 1574.5,-143.59 1559.57,-134.4"/>
<polygon fill="#63b8ff" stroke="#63b8ff" points="1561.31,-131.36 1550.96,-129.09 1557.64,-137.32 1561.31,-131.36"/>
</a>
</g>
</g>
<!-- Node29 -->
<g id="Node000029" class="node">
<title>Node29</title>
<g id="a_Node000029"><a xlink:href="mtl__loader_8h.html" target="_top" xlink:title=" ">
<polygon fill="white" stroke="#666666" points="1670.5,-129 1593.5,-129 1593.5,-110 1670.5,-110 1670.5,-129"/>
<text text-anchor="middle" x="1632" y="-117" font-family="Helvetica,sans-Serif" font-size="10.00">mtl_loader.h</text>
</a>
</g>
</g>
<!-- Node27&#45;&gt;Node29 -->
<g id="edge28_Node000027_Node000029" class="edge">
<title>Node27&#45;&gt;Node29</title>
<g id="a_edge28_Node000027_Node000029"><a xlink:title=" ">
<path fill="none" stroke="#63b8ff" d="M1632,-164.84C1632,-157.21 1632,-147.7 1632,-139.45"/>
<polygon fill="#63b8ff" stroke="#63b8ff" points="1635.5,-139.27 1632,-129.27 1628.5,-139.27 1635.5,-139.27"/>
</a>
</g>
</g>
<!-- Node30 -->
<g id="Node000030" class="node">
<title>Node30</title>
<g id="a_Node000030"><a xlink:href="fbx__loader_8h.html" target="_top" xlink:title=" ">
<polygon fill="white" stroke="#666666" points="1765.5,-129 1688.5,-129 1688.5,-110 1765.5,-110 1765.5,-129"/>
<text text-anchor="middle" x="1727" y="-117" font-family="Helvetica,sans-Serif" font-size="10.00">fbx_loader.h</text>
</a>
</g>
</g>
<!-- Node27&#45;&gt;Node30 -->
<g id="edge29_Node000027_Node000030" class="edge">
<title>Node27&#45;&gt;Node30</title>
<g id="a_edge29_Node000027_Node000030"><a xlink:title=" ">
<path fill="none" stroke="#63b8ff" d="M1655,-164.84C1670,-155.6 1689.5,-143.59 1704.43,-134.4"/>
<polygon fill="#63b8ff" stroke="#63b8ff" points="1706.36,-137.32 1713.04,-129.09 1702.69,-131.36 1706.36,-137.32"/>
</a>
</g>
</g>
<!-- Node31&#45;&gt;Node32 -->
<g id="edge31_Node000031_Node000032" class="edge">
<title>Node31&#45;&gt;Node32</title>
<g id="a_edge31_Node000031_Node000032"><a xlink:title=" ">
<path fill="none" stroke="#63b8ff" d="M1826,-285.75C1826,-278.8 1826,-268.85 1826,-260.13"/>
<polygon fill="#63b8ff" stroke="#63b8ff" points="1829.5,-260.09 1826,-250.09 1822.5,-260.09 1829.5,-260.09"/>
</a>
</g>
</g>
<!-- Node33&#45;&gt;Node26 -->
<g id="edge33_Node000033_Node000026" class="edge">
<title>Node33&#45;&gt;Node26</title>
<g id="a_edge33_Node000033_Node000026"><a xlink:title=" ">
<path fill="none" stroke="#63b8ff" d="M1513.21,-340.87C1498.36,-333.69 1479.84,-321.91 1471,-305 1451.4,-267.51 1485.88,-221.16 1507.85,-197.14"/>
<polygon fill="#63b8ff" stroke="#63b8ff" points="1510.64,-199.29 1515,-189.63 1505.57,-194.47 1510.64,-199.29"/>
</a>
</g>
</g>
<!-- Node33&#45;&gt;Node31 -->
<g id="edge44_Node000033_Node000031" class="edge">
<title>Node33&#45;&gt;Node31</title>
<g id="a_edge44_Node000033_Node000031"><a xlink:title=" ">
<path fill="none" stroke="#63b8ff" d="M1581.75,-340.98C1632.72,-331.7 1714.31,-316.84 1768.99,-306.88"/>
<polygon fill="#63b8ff" stroke="#63b8ff" points="1769.67,-310.32 1778.88,-305.08 1768.41,-303.43 1769.67,-310.32"/>
</a>
</g>
</g>
<!-- Node33&#45;&gt;Node34 -->
<g id="edge34_Node000033_Node000034" class="edge">
<title>Node33&#45;&gt;Node34</title>
<g id="a_edge34_Node000033_Node000034"><a xlink:title=" ">
<path fill="none" stroke="#63b8ff" d="M1502.38,-340.98C1467.71,-331.93 1412.74,-317.58 1374.65,-307.64"/>
<polygon fill="#63b8ff" stroke="#63b8ff" points="1375.43,-304.22 1364.87,-305.08 1373.66,-310.99 1375.43,-304.22"/>
</a>
</g>
</g>
<!-- Node35 -->
<g id="Node000035" class="node">
<title>Node35</title>
<g id="a_Node000035"><a xlink:href="bodies_8h.html" target="_top" xlink:title=" ">
<polygon fill="white" stroke="#666666" points="1586.5,-305 1479.5,-305 1479.5,-286 1586.5,-286 1586.5,-305"/>
<text text-anchor="middle" x="1533" y="-293" font-family="Helvetica,sans-Serif" font-size="10.00">../physics/bodies.h</text>
</a>
</g>
</g>
<!-- Node33&#45;&gt;Node35 -->
<g id="edge38_Node000033_Node000035" class="edge">
<title>Node33&#45;&gt;Node35</title>
<g id="a_edge38_Node000033_Node000035"><a xlink:title=" ">
<path fill="none" stroke="#63b8ff" d="M1534.67,-340.75C1534.41,-333.8 1534.03,-323.85 1533.7,-315.13"/>
<polygon fill="#63b8ff" stroke="#63b8ff" points="1537.2,-314.95 1533.32,-305.09 1530.2,-315.21 1537.2,-314.95"/>
</a>
</g>
</g>
<!-- Node36 -->
<g id="Node000036" class="node">
<title>Node36</title>
<g id="a_Node000036"><a xlink:href="scripts_8h.html" target="_top" xlink:title=" ">
<polygon fill="white" stroke="#666666" points="1745,-305 1643,-305 1643,-286 1745,-286 1745,-305"/>
<text text-anchor="middle" x="1694" y="-293" font-family="Helvetica,sans-Serif" font-size="10.00">../scripts/scripts.h</text>
</a>
</g>
</g>
<!-- Node33&#45;&gt;Node36 -->
<g id="edge41_Node000033_Node000036" class="edge">
<title>Node33&#45;&gt;Node36</title>
<g id="a_edge41_Node000033_Node000036"><a xlink:title=" ">
<path fill="none" stroke="#63b8ff" d="M1560.55,-340.98C1587.12,-332.13 1628.94,-318.19 1658.67,-308.28"/>
<polygon fill="#63b8ff" stroke="#63b8ff" points="1659.87,-311.56 1668.25,-305.08 1657.66,-304.92 1659.87,-311.56"/>
</a>
</g>
</g>
<!-- Node34&#45;&gt;Node2 -->
<g id="edge35_Node000034_Node000002" class="edge">
<title>Node34&#45;&gt;Node2</title>
<g id="a_edge35_Node000034_Node000002"><a xlink:title=" ">
<path fill="none" stroke="#63b8ff" d="M1278.98,-287.84C1197.2,-277.57 1041.35,-258 960.88,-247.89"/>
<polygon fill="#63b8ff" stroke="#63b8ff" points="960.87,-244.36 950.52,-246.59 960,-251.31 960.87,-244.36"/>
</a>
</g>
</g>
<!-- Node34&#45;&gt;Node24 -->
<g id="edge36_Node000034_Node000024" class="edge">
<title>Node34&#45;&gt;Node24</title>
<g id="a_edge36_Node000034_Node000024"><a xlink:title=" ">
<path fill="none" stroke="#63b8ff" d="M1341.48,-285.98C1350.2,-278.15 1363.34,-266.34 1373.9,-256.86"/>
<polygon fill="#63b8ff" stroke="#63b8ff" points="1376.25,-259.46 1381.35,-250.17 1371.57,-254.25 1376.25,-259.46"/>
</a>
</g>
</g>
<!-- Node34&#45;&gt;Node26 -->
<g id="edge37_Node000034_Node000026" class="edge">
<title>Node34&#45;&gt;Node26</title>
<g id="a_edge37_Node000034_Node000026"><a xlink:title=" ">
<path fill="none" stroke="#63b8ff" d="M1327.84,-285.59C1322.26,-272.19 1314.44,-246.72 1327,-231 1372.22,-174.39 1416.53,-215.57 1486,-195 1488.14,-194.37 1490.33,-193.68 1492.52,-192.95"/>
<polygon fill="#63b8ff" stroke="#63b8ff" points="1493.77,-196.23 1502.06,-189.64 1491.47,-189.62 1493.77,-196.23"/>
</a>
</g>
</g>
<!-- Node35&#45;&gt;Node24 -->
<g id="edge39_Node000035_Node000024" class="edge">
<title>Node35&#45;&gt;Node24</title>
<g id="a_edge39_Node000035_Node000024"><a xlink:title=" ">
<path fill="none" stroke="#63b8ff" d="M1510.19,-285.98C1486.83,-277.27 1450.3,-263.63 1423.83,-253.75"/>
<polygon fill="#63b8ff" stroke="#63b8ff" points="1424.82,-250.39 1414.23,-250.17 1422.37,-256.95 1424.82,-250.39"/>
</a>
</g>
</g>
<!-- Node35&#45;&gt;Node25 -->
<g id="edge40_Node000035_Node000025" class="edge">
<title>Node35&#45;&gt;Node25</title>
<g id="a_edge40_Node000035_Node000025"><a xlink:title=" ">
<path fill="none" stroke="#63b8ff" d="M1539.77,-285.75C1545.56,-278.26 1554.06,-267.28 1561.14,-258.13"/>
<polygon fill="#63b8ff" stroke="#63b8ff" points="1564.01,-260.14 1567.36,-250.09 1558.47,-255.86 1564.01,-260.14"/>
</a>
</g>
</g>
<!-- Node36&#45;&gt;Node32 -->
<g id="edge42_Node000036_Node000032" class="edge">
<title>Node36&#45;&gt;Node32</title>
<g id="a_edge42_Node000036_Node000032"><a xlink:title=" ">
<path fill="none" stroke="#63b8ff" d="M1715.21,-285.98C1736.73,-277.34 1770.28,-263.87 1794.83,-254.02"/>
<polygon fill="#63b8ff" stroke="#63b8ff" points="1796.43,-257.14 1804.41,-250.17 1793.82,-250.65 1796.43,-257.14"/>
</a>
</g>
</g>
<!-- Node37 -->
<g id="Node000037" class="node">
<title>Node37</title>
<g id="a_Node000037"><a xlink:href="signals_8h.html" target="_top" xlink:title="Signal and slot system for C projects.">
<polygon fill="white" stroke="#666666" points="1724,-250 1664,-250 1664,-231 1724,-231 1724,-250"/>
<text text-anchor="middle" x="1694" y="-238" font-family="Helvetica,sans-Serif" font-size="10.00">signals.h</text>
</a>
</g>
</g>
<!-- Node36&#45;&gt;Node37 -->
<g id="edge43_Node000036_Node000037" class="edge">
<title>Node36&#45;&gt;Node37</title>
<g id="a_edge43_Node000036_Node000037"><a xlink:title=" ">
<path fill="none" stroke="#63b8ff" d="M1694,-285.75C1694,-278.8 1694,-268.85 1694,-260.13"/>
<polygon fill="#63b8ff" stroke="#63b8ff" points="1697.5,-260.09 1694,-250.09 1690.5,-260.09 1697.5,-260.09"/>
</a>
</g>
</g>
</g>
</svg>
