<?xml version="1.0" encoding="UTF-8" standalone="no"?>
<!DOCTYPE svg PUBLIC "-//W3C//DTD SVG 1.1//EN"
 "http://www.w3.org/Graphics/SVG/1.1/DTD/svg11.dtd">
<!-- Generated by graphviz version 2.43.0 (0)
 -->
<!-- Title: src/io/socket/client.h Pages: 1 -->
<svg width="535pt" height="148pt"
 viewBox="0.00 0.00 534.50 148.00" xmlns="http://www.w3.org/2000/svg" xmlns:xlink="http://www.w3.org/1999/xlink">
<g id="graph0" class="graph" transform="scale(1 1) rotate(0) translate(4 144)">
<title>src/io/socket/client.h</title>
<!-- Node1 -->
<g id="Node000001" class="node">
<title>Node1</title>
<g id="a_Node000001"><a xlink:title=" ">
<polygon fill="#999999" stroke="#666666" points="321,-140 205,-140 205,-121 321,-121 321,-140"/>
<text text-anchor="middle" x="263" y="-128" font-family="Helvetica,sans-Serif" font-size="10.00">src/io/socket/client.h</text>
</a>
</g>
</g>
<!-- Node2 -->
<g id="Node000002" class="node">
<title>Node2</title>
<g id="a_Node000002"><a xlink:href="socket_8h.html" target="_top" xlink:title=" ">
<polygon fill="white" stroke="#666666" points="323.5,-85 202.5,-85 202.5,-66 323.5,-66 323.5,-85"/>
<text text-anchor="middle" x="263" y="-73" font-family="Helvetica,sans-Serif" font-size="10.00">src/io/socket/socket.h</text>
</a>
</g>
</g>
<!-- Node1&#45;&gt;Node2 -->
<g id="edge1_Node000001_Node000002" class="edge">
<title>Node1&#45;&gt;Node2</title>
<g id="a_edge1_Node000001_Node000002"><a xlink:title=" ">
<path fill="none" stroke="#63b8ff" d="M263,-110.66C263,-101.93 263,-91.99 263,-85.09"/>
<polygon fill="#63b8ff" stroke="#63b8ff" points="259.5,-110.75 263,-120.75 266.5,-110.75 259.5,-110.75"/>
</a>
</g>
</g>
<!-- Node3 -->
<g id="Node000003" class="node">
<title>Node3</title>
<g id="a_Node000003"><a xlink:href="client_8c.html" target="_top" xlink:title=" ">
<polygon fill="white" stroke="#666666" points="116,-24.5 0,-24.5 0,-5.5 116,-5.5 116,-24.5"/>
<text text-anchor="middle" x="58" y="-12.5" font-family="Helvetica,sans-Serif" font-size="10.00">src/io/socket/client.c</text>
</a>
</g>
</g>
<!-- Node2&#45;&gt;Node3 -->
<g id="edge2_Node000002_Node000003" class="edge">
<title>Node2&#45;&gt;Node3</title>
<g id="a_edge2_Node000002_Node000003"><a xlink:title=" ">
<path fill="none" stroke="#63b8ff" d="M223.33,-63.18C183.68,-51.87 123.62,-34.72 87.84,-24.52"/>
<polygon fill="#63b8ff" stroke="#63b8ff" points="222.61,-66.62 233.19,-65.99 224.54,-59.88 222.61,-66.62"/>
</a>
</g>
</g>
<!-- Node4 -->
<g id="Node000004" class="node">
<title>Node4</title>
<g id="a_Node000004"><a xlink:href="network__utils_8c.html" target="_top" xlink:title=" ">
<polygon fill="white" stroke="#666666" points="254,-30 134,-30 134,0 254,0 254,-30"/>
<text text-anchor="start" x="142" y="-18" font-family="Helvetica,sans-Serif" font-size="10.00">src/io/socket/network</text>
<text text-anchor="middle" x="194" y="-7" font-family="Helvetica,sans-Serif" font-size="10.00">_utils.c</text>
</a>
</g>
</g>
<!-- Node2&#45;&gt;Node4 -->
<g id="edge3_Node000002_Node000004" class="edge">
<title>Node2&#45;&gt;Node4</title>
<g id="a_edge3_Node000002_Node000004"><a xlink:title=" ">
<path fill="none" stroke="#63b8ff" d="M244.99,-59.23C234.37,-50.23 221.02,-38.91 210.65,-30.11"/>
<polygon fill="#63b8ff" stroke="#63b8ff" points="242.93,-62.07 252.82,-65.87 247.45,-56.73 242.93,-62.07"/>
</a>
</g>
</g>
<!-- Node5 -->
<g id="Node000005" class="node">
<title>Node5</title>
<g id="a_Node000005"><a xlink:href="server_8c.html" target="_top" xlink:title=" ">
<polygon fill="white" stroke="#666666" points="391.5,-24.5 272.5,-24.5 272.5,-5.5 391.5,-5.5 391.5,-24.5"/>
<text text-anchor="middle" x="332" y="-12.5" font-family="Helvetica,sans-Serif" font-size="10.00">src/io/socket/server.c</text>
</a>
</g>
</g>
<!-- Node2&#45;&gt;Node5 -->
<g id="edge4_Node000002_Node000005" class="edge">
<title>Node2&#45;&gt;Node5</title>
<g id="a_edge4_Node000002_Node000005"><a xlink:title=" ">
<path fill="none" stroke="#63b8ff" d="M281.02,-59.22C294,-48.21 311.06,-33.75 321.78,-24.67"/>
<polygon fill="#63b8ff" stroke="#63b8ff" points="278.55,-56.73 273.18,-65.87 283.07,-62.07 278.55,-56.73"/>
</a>
</g>
</g>
<!-- Node6 -->
<g id="Node000006" class="node">
<title>Node6</title>
<g id="a_Node000006"><a xlink:href="chessboard_8h.html" target="_top" xlink:title=" ">
<polygon fill="white" stroke="#666666" points="526.5,-30 409.5,-30 409.5,0 526.5,0 526.5,-30"/>
<text text-anchor="start" x="417.5" y="-18" font-family="Helvetica,sans-Serif" font-size="10.00">src/scripts/fps_chess</text>
<text text-anchor="middle" x="468" y="-7" font-family="Helvetica,sans-Serif" font-size="10.00">/chessboard.h</text>
</a>
</g>
</g>
<!-- Node2&#45;&gt;Node6 -->
<g id="edge5_Node000002_Node000006" class="edge">
<title>Node2&#45;&gt;Node6</title>
<g id="a_edge5_Node000002_Node000006"><a xlink:title=" ">
<path fill="none" stroke="#63b8ff" d="M302.6,-63.2C335.73,-53.75 383.14,-40.22 418.72,-30.06"/>
<polygon fill="#63b8ff" stroke="#63b8ff" points="301.46,-59.88 292.81,-65.99 303.39,-66.62 301.46,-59.88"/>
</a>
</g>
</g>
</g>
</svg>
