<?xml version="1.0" encoding="UTF-8" standalone="no"?>
<!DOCTYPE svg PUBLIC "-//W3C//DTD SVG 1.1//EN"
 "http://www.w3.org/Graphics/SVG/1.1/DTD/svg11.dtd">
<!-- Generated by graphviz version 2.43.0 (0)
 -->
<!-- Title: src/render/lighting.c Pages: 1 -->
<svg width="1774pt" height="423pt"
 viewBox="0.00 0.00 1773.50 423.00" xmlns="http://www.w3.org/2000/svg" xmlns:xlink="http://www.w3.org/1999/xlink">
<g id="graph0" class="graph" transform="scale(1 1) rotate(0) translate(4 419)">
<title>src/render/lighting.c</title>
<!-- Node1 -->
<g id="Node000001" class="node">
<title>Node1</title>
<g id="a_Node000001"><a xlink:title=" ">
<polygon fill="#999999" stroke="#666666" points="712,-415 599,-415 599,-396 712,-396 712,-415"/>
<text text-anchor="middle" x="655.5" y="-403" font-family="Helvetica,sans-Serif" font-size="10.00">src/render/lighting.c</text>
</a>
</g>
</g>
<!-- Node2 -->
<g id="Node000002" class="node">
<title>Node2</title>
<g id="a_Node000002"><a xlink:href="raptiquax_8h.html" target="_top" xlink:title="This file contains type definitions for fixed&#45;width integer types and floating&#45;point types.">
<polygon fill="white" stroke="#666666" points="1076,-250 995,-250 995,-231 1076,-231 1076,-250"/>
<text text-anchor="middle" x="1035.5" y="-238" font-family="Helvetica,sans-Serif" font-size="10.00">../raptiquax.h</text>
</a>
</g>
</g>
<!-- Node1&#45;&gt;Node2 -->
<g id="edge1_Node000001_Node000002" class="edge">
<title>Node1&#45;&gt;Node2</title>
<g id="a_edge1_Node000001_Node000002"><a xlink:title=" ">
<path fill="none" stroke="#63b8ff" d="M712.1,-403.03C793.17,-399.89 937.15,-390.13 978.5,-360 1011.76,-335.77 1026.44,-286.91 1032.22,-260.12"/>
<polygon fill="#63b8ff" stroke="#63b8ff" points="1035.69,-260.61 1034.18,-250.13 1028.82,-259.27 1035.69,-260.61"/>
</a>
</g>
</g>
<!-- Node24 -->
<g id="Node000024" class="node">
<title>Node24</title>
<g id="a_Node000024"><a xlink:href="math__util_8h.html" target="_top" xlink:title=" ">
<polygon fill="white" stroke="#666666" points="674.5,-250 564.5,-250 564.5,-231 674.5,-231 674.5,-250"/>
<text text-anchor="middle" x="619.5" y="-238" font-family="Helvetica,sans-Serif" font-size="10.00">../math/math_util.h</text>
</a>
</g>
</g>
<!-- Node1&#45;&gt;Node24 -->
<g id="edge23_Node000001_Node000024" class="edge">
<title>Node1&#45;&gt;Node24</title>
<g id="a_edge23_Node000001_Node000024"><a xlink:title=" ">
<path fill="none" stroke="#63b8ff" d="M649.17,-395.75C637.56,-379.08 613.24,-341.23 604.5,-305 600.8,-289.69 605.55,-272.27 610.66,-259.56"/>
<polygon fill="#63b8ff" stroke="#63b8ff" points="613.98,-260.69 614.85,-250.13 607.59,-257.85 613.98,-260.69"/>
</a>
</g>
</g>
<!-- Node25 -->
<g id="Node000025" class="node">
<title>Node25</title>
<g id="a_Node000025"><a xlink:href="model_8h.html" target="_top" xlink:title="Defines structures and functions for handling 3D models and their properties.">
<polygon fill="white" stroke="#666666" points="201,-250 124,-250 124,-231 201,-231 201,-250"/>
<text text-anchor="middle" x="162.5" y="-238" font-family="Helvetica,sans-Serif" font-size="10.00">../io/model.h</text>
</a>
</g>
</g>
<!-- Node1&#45;&gt;Node25 -->
<g id="edge24_Node000001_Node000025" class="edge">
<title>Node1&#45;&gt;Node25</title>
<g id="a_edge24_Node000001_Node000025"><a xlink:title=" ">
<path fill="none" stroke="#63b8ff" d="M598.56,-402.76C479.88,-398.62 214.46,-386.49 183.5,-360 154.89,-335.52 156.15,-286.76 159.41,-260.05"/>
<polygon fill="#63b8ff" stroke="#63b8ff" points="162.89,-260.49 160.85,-250.09 155.96,-259.49 162.89,-260.49"/>
</a>
</g>
</g>
<!-- Node31 -->
<g id="Node000031" class="node">
<title>Node31</title>
<g id="a_Node000031"><a xlink:href="framebuffer_8h.html" target="_top" xlink:title=" ">
<polygon fill="white" stroke="#666666" points="274,-305 191,-305 191,-286 274,-286 274,-305"/>
<text text-anchor="middle" x="232.5" y="-293" font-family="Helvetica,sans-Serif" font-size="10.00">framebuffer.h</text>
</a>
</g>
</g>
<!-- Node1&#45;&gt;Node31 -->
<g id="edge30_Node000001_Node000031" class="edge">
<title>Node1&#45;&gt;Node31</title>
<g id="a_edge30_Node000001_Node000031"><a xlink:title=" ">
<path fill="none" stroke="#63b8ff" d="M603.28,-395.93C557.43,-387.99 489.1,-375.14 430.5,-360 371.66,-344.8 304.58,-322.13 265.55,-308.39"/>
<polygon fill="#63b8ff" stroke="#63b8ff" points="266.61,-305.05 256.02,-305.01 264.27,-311.65 266.61,-305.05"/>
</a>
</g>
</g>
<!-- Node33 -->
<g id="Node000033" class="node">
<title>Node33</title>
<g id="a_Node000033"><a xlink:href="node_8h.html" target="_top" xlink:title=" ">
<polygon fill="white" stroke="#666666" points="537.5,-360 439.5,-360 439.5,-341 537.5,-341 537.5,-360"/>
<text text-anchor="middle" x="488.5" y="-348" font-family="Helvetica,sans-Serif" font-size="10.00">../storage/node.h</text>
</a>
</g>
</g>
<!-- Node1&#45;&gt;Node33 -->
<g id="edge32_Node000001_Node000033" class="edge">
<title>Node1&#45;&gt;Node33</title>
<g id="a_edge32_Node000001_Node000033"><a xlink:title=" ">
<path fill="none" stroke="#63b8ff" d="M628.67,-395.98C600.63,-387.09 556.45,-373.07 525.2,-363.15"/>
<polygon fill="#63b8ff" stroke="#63b8ff" points="526.13,-359.77 515.54,-360.08 524.01,-366.44 526.13,-359.77"/>
</a>
</g>
</g>
<!-- Node34 -->
<g id="Node000034" class="node">
<title>Node34</title>
<g id="a_Node000034"><a xlink:href="camera_8h.html" target="_top" xlink:title=" ">
<polygon fill="white" stroke="#666666" points="719.5,-305 613.5,-305 613.5,-286 719.5,-286 719.5,-305"/>
<text text-anchor="middle" x="666.5" y="-293" font-family="Helvetica,sans-Serif" font-size="10.00">../render/camera.h</text>
</a>
</g>
</g>
<!-- Node1&#45;&gt;Node34 -->
<g id="edge46_Node000001_Node000034" class="edge">
<title>Node1&#45;&gt;Node34</title>
<g id="a_edge46_Node000001_Node000034"><a xlink:title=" ">
<path fill="none" stroke="#63b8ff" d="M651.25,-395.82C645.8,-383.53 637.6,-360.42 642.5,-341 644.91,-331.44 649.83,-321.7 654.59,-313.78"/>
<polygon fill="#63b8ff" stroke="#63b8ff" points="657.67,-315.46 660.13,-305.16 651.78,-311.68 657.67,-315.46"/>
</a>
</g>
</g>
<!-- Node38 -->
<g id="Node000038" class="node">
<title>Node38</title>
<g id="a_Node000038"><a xlink:href="window_8h.html" target="_top" xlink:title=" ">
<polygon fill="white" stroke="#666666" points="723,-360 652,-360 652,-341 723,-341 723,-360"/>
<text text-anchor="middle" x="687.5" y="-348" font-family="Helvetica,sans-Serif" font-size="10.00">../window.h</text>
</a>
</g>
</g>
<!-- Node1&#45;&gt;Node38 -->
<g id="edge45_Node000001_Node000038" class="edge">
<title>Node1&#45;&gt;Node38</title>
<g id="a_edge45_Node000001_Node000038"><a xlink:title=" ">
<path fill="none" stroke="#63b8ff" d="M660.78,-395.75C665.21,-388.42 671.66,-377.73 677.12,-368.7"/>
<polygon fill="#63b8ff" stroke="#63b8ff" points="680.14,-370.46 682.31,-360.09 674.15,-366.84 680.14,-370.46"/>
</a>
</g>
</g>
<!-- Node39 -->
<g id="Node000039" class="node">
<title>Node39</title>
<g id="a_Node000039"><a xlink:href="render_8h.html" target="_top" xlink:title=" ">
<polygon fill="white" stroke="#666666" points="797.5,-360 741.5,-360 741.5,-341 797.5,-341 797.5,-360"/>
<text text-anchor="middle" x="769.5" y="-348" font-family="Helvetica,sans-Serif" font-size="10.00">render.h</text>
</a>
</g>
</g>
<!-- Node1&#45;&gt;Node39 -->
<g id="edge47_Node000001_Node000039" class="edge">
<title>Node1&#45;&gt;Node39</title>
<g id="a_edge47_Node000001_Node000039"><a xlink:title=" ">
<path fill="none" stroke="#63b8ff" d="M673.82,-395.98C692.16,-387.46 720.61,-374.23 741.73,-364.41"/>
<polygon fill="#63b8ff" stroke="#63b8ff" points="743.26,-367.56 750.85,-360.17 740.31,-361.21 743.26,-367.56"/>
</a>
</g>
</g>
<!-- Node40 -->
<g id="Node000040" class="node">
<title>Node40</title>
<g id="a_Node000040"><a xlink:href="memory_8h.html" target="_top" xlink:title="Header file for memory management functions and structures.">
<polygon fill="white" stroke="#666666" points="889.5,-360 815.5,-360 815.5,-341 889.5,-341 889.5,-360"/>
<text text-anchor="middle" x="852.5" y="-348" font-family="Helvetica,sans-Serif" font-size="10.00">../memory.h</text>
</a>
</g>
</g>
<!-- Node1&#45;&gt;Node40 -->
<g id="edge48_Node000001_Node000040" class="edge">
<title>Node1&#45;&gt;Node40</title>
<g id="a_edge48_Node000001_Node000040"><a xlink:title=" ">
<path fill="none" stroke="#63b8ff" d="M687.15,-395.98C720.66,-386.97 773.7,-372.7 810.64,-362.76"/>
<polygon fill="#63b8ff" stroke="#63b8ff" points="811.85,-366.06 820.6,-360.08 810.03,-359.3 811.85,-366.06"/>
</a>
</g>
</g>
<!-- Node41 -->
<g id="Node000041" class="node">
<title>Node41</title>
<g id="a_Node000041"><a xlink:href="lighting_8h.html" target="_top" xlink:title=" ">
<polygon fill="white" stroke="#666666" points="969.5,-360 907.5,-360 907.5,-341 969.5,-341 969.5,-360"/>
<text text-anchor="middle" x="938.5" y="-348" font-family="Helvetica,sans-Serif" font-size="10.00">lighting.h</text>
</a>
</g>
</g>
<!-- Node1&#45;&gt;Node41 -->
<g id="edge49_Node000001_Node000041" class="edge">
<title>Node1&#45;&gt;Node41</title>
<g id="a_edge49_Node000001_Node000041"><a xlink:title=" ">
<path fill="none" stroke="#63b8ff" d="M704.45,-395.96C751.37,-387.67 824.46,-374.52 896.86,-360.28"/>
<polygon fill="#63b8ff" stroke="#63b8ff" points="897.94,-363.64 907.07,-358.27 896.59,-356.77 897.94,-363.64"/>
</a>
</g>
</g>
<!-- Node42 -->
<g id="Node000042" class="node">
<title>Node42</title>
<g id="a_Node000042"><a xlink:href="depth__map_8h.html" target="_top" xlink:title=" ">
<polygon fill="white" stroke="#666666" points="272.5,-360 192.5,-360 192.5,-341 272.5,-341 272.5,-360"/>
<text text-anchor="middle" x="232.5" y="-348" font-family="Helvetica,sans-Serif" font-size="10.00">depth_map.h</text>
</a>
</g>
</g>
<!-- Node1&#45;&gt;Node42 -->
<g id="edge50_Node000001_Node000042" class="edge">
<title>Node1&#45;&gt;Node42</title>
<g id="a_edge50_Node000001_Node000042"><a xlink:title=" ">
<path fill="none" stroke="#63b8ff" d="M598.89,-397.41C515.83,-387 362.23,-367.76 282.88,-357.81"/>
<polygon fill="#63b8ff" stroke="#63b8ff" points="283.01,-354.3 272.65,-356.53 282.14,-361.25 283.01,-354.3"/>
</a>
</g>
</g>
<!-- Node43 -->
<g id="Node000043" class="node">
<title>Node43</title>
<g id="a_Node000043"><a xlink:href="classes_8h.html" target="_top" xlink:title=" ">
<polygon fill="white" stroke="#666666" points="1150.5,-360 1040.5,-360 1040.5,-341 1150.5,-341 1150.5,-360"/>
<text text-anchor="middle" x="1095.5" y="-348" font-family="Helvetica,sans-Serif" font-size="10.00">../classes/classes.h</text>
</a>
</g>
</g>
<!-- Node1&#45;&gt;Node43 -->
<g id="edge53_Node000001_Node000043" class="edge">
<title>Node1&#45;&gt;Node43</title>
<g id="a_edge53_Node000001_Node000043"><a xlink:title=" ">
<path fill="none" stroke="#63b8ff" d="M712.12,-397.68C793.75,-387.85 944.14,-369.73 1030.3,-359.35"/>
<polygon fill="#63b8ff" stroke="#63b8ff" points="1030.97,-362.8 1040.48,-358.13 1030.13,-355.85 1030.97,-362.8"/>
</a>
</g>
</g>
<!-- Node3 -->
<g id="Node000003" class="node">
<title>Node3</title>
<g id="a_Node000003"><a xlink:title=" ">
<polygon fill="#e0e0e0" stroke="#999999" points="1377.5,-189.5 1327.5,-189.5 1327.5,-170.5 1377.5,-170.5 1377.5,-189.5"/>
<text text-anchor="middle" x="1352.5" y="-177.5" font-family="Helvetica,sans-Serif" font-size="10.00">stdio.h</text>
</a>
</g>
</g>
<!-- Node2&#45;&gt;Node3 -->
<g id="edge2_Node000002_Node000003" class="edge">
<title>Node2&#45;&gt;Node3</title>
<g id="a_edge2_Node000002_Node000003"><a xlink:title=" ">
<path fill="none" stroke="#63b8ff" d="M1076.44,-236.1C1132.06,-230.8 1234.21,-218.63 1318.5,-195 1320.44,-194.46 1322.41,-193.84 1324.38,-193.16"/>
<polygon fill="#63b8ff" stroke="#63b8ff" points="1325.95,-196.31 1334.07,-189.51 1323.48,-189.76 1325.95,-196.31"/>
</a>
</g>
</g>
<!-- Node4 -->
<g id="Node000004" class="node">
<title>Node4</title>
<g id="a_Node000004"><a xlink:title=" ">
<polygon fill="#e0e0e0" stroke="#999999" points="1449,-189.5 1396,-189.5 1396,-170.5 1449,-170.5 1449,-189.5"/>
<text text-anchor="middle" x="1422.5" y="-177.5" font-family="Helvetica,sans-Serif" font-size="10.00">stdint.h</text>
</a>
</g>
</g>
<!-- Node2&#45;&gt;Node4 -->
<g id="edge3_Node000002_Node000004" class="edge">
<title>Node2&#45;&gt;Node4</title>
<g id="a_edge3_Node000002_Node000004"><a xlink:title=" ">
<path fill="none" stroke="#63b8ff" d="M1076.1,-237.58C1142.1,-233.74 1276.35,-222.95 1386.5,-195 1388.8,-194.42 1391.16,-193.72 1393.51,-192.97"/>
<polygon fill="#63b8ff" stroke="#63b8ff" points="1394.73,-196.25 1402.98,-189.59 1392.38,-189.65 1394.73,-196.25"/>
</a>
</g>
</g>
<!-- Node5 -->
<g id="Node000005" class="node">
<title>Node5</title>
<g id="a_Node000005"><a xlink:title=" ">
<polygon fill="#e0e0e0" stroke="#999999" points="1529.5,-189.5 1467.5,-189.5 1467.5,-170.5 1529.5,-170.5 1529.5,-189.5"/>
<text text-anchor="middle" x="1498.5" y="-177.5" font-family="Helvetica,sans-Serif" font-size="10.00">stdbool.h</text>
</a>
</g>
</g>
<!-- Node2&#45;&gt;Node5 -->
<g id="edge4_Node000002_Node000005" class="edge">
<title>Node2&#45;&gt;Node5</title>
<g id="a_edge4_Node000002_Node000005"><a xlink:title=" ">
<path fill="none" stroke="#63b8ff" d="M1076.25,-238.35C1152.27,-235.5 1320.52,-225.96 1458.5,-195 1461.33,-194.37 1464.23,-193.6 1467.12,-192.75"/>
<polygon fill="#63b8ff" stroke="#63b8ff" points="1468.32,-196.04 1476.76,-189.63 1466.17,-189.37 1468.32,-196.04"/>
</a>
</g>
</g>
<!-- Node6 -->
<g id="Node000006" class="node">
<title>Node6</title>
<g id="a_Node000006"><a xlink:title=" ">
<polygon fill="#e0e0e0" stroke="#999999" points="1603.5,-189.5 1547.5,-189.5 1547.5,-170.5 1603.5,-170.5 1603.5,-189.5"/>
<text text-anchor="middle" x="1575.5" y="-177.5" font-family="Helvetica,sans-Serif" font-size="10.00">stdarg.h</text>
</a>
</g>
</g>
<!-- Node2&#45;&gt;Node6 -->
<g id="edge5_Node000002_Node000006" class="edge">
<title>Node2&#45;&gt;Node6</title>
<g id="a_edge5_Node000002_Node000006"><a xlink:title=" ">
<path fill="none" stroke="#63b8ff" d="M1076.18,-239.64C1162.51,-239.13 1369.93,-233.58 1538.5,-195 1541.02,-194.42 1543.6,-193.71 1546.16,-192.92"/>
<polygon fill="#63b8ff" stroke="#63b8ff" points="1547.53,-196.15 1555.84,-189.58 1545.24,-189.54 1547.53,-196.15"/>
</a>
</g>
</g>
<!-- Node7 -->
<g id="Node000007" class="node">
<title>Node7</title>
<g id="a_Node000007"><a xlink:title=" ">
<polygon fill="#e0e0e0" stroke="#999999" points="1675,-189.5 1622,-189.5 1622,-170.5 1675,-170.5 1675,-189.5"/>
<text text-anchor="middle" x="1648.5" y="-177.5" font-family="Helvetica,sans-Serif" font-size="10.00">limits.h</text>
</a>
</g>
</g>
<!-- Node2&#45;&gt;Node7 -->
<g id="edge6_Node000002_Node000007" class="edge">
<title>Node2&#45;&gt;Node7</title>
<g id="a_edge6_Node000002_Node000007"><a xlink:title=" ">
<path fill="none" stroke="#63b8ff" d="M1076.35,-237.91C1190.33,-233.22 1510.13,-218.32 1612.5,-195 1614.87,-194.46 1617.3,-193.79 1619.71,-193.04"/>
<polygon fill="#63b8ff" stroke="#63b8ff" points="1621.13,-196.25 1629.4,-189.63 1618.8,-189.65 1621.13,-196.25"/>
</a>
</g>
</g>
<!-- Node8 -->
<g id="Node000008" class="node">
<title>Node8</title>
<g id="a_Node000008"><a xlink:title=" ">
<polygon fill="#e0e0e0" stroke="#999999" points="1765.5,-189.5 1693.5,-189.5 1693.5,-170.5 1765.5,-170.5 1765.5,-189.5"/>
<text text-anchor="middle" x="1729.5" y="-177.5" font-family="Helvetica,sans-Serif" font-size="10.00">SDL2/SDL.h</text>
</a>
</g>
</g>
<!-- Node2&#45;&gt;Node8 -->
<g id="edge7_Node000002_Node000008" class="edge">
<title>Node2&#45;&gt;Node8</title>
<g id="a_edge7_Node000002_Node000008"><a xlink:title=" ">
<path fill="none" stroke="#63b8ff" d="M1076.17,-239.98C1179.02,-240.49 1457.48,-237.49 1684.5,-195 1688.17,-194.31 1691.97,-193.42 1695.73,-192.43"/>
<polygon fill="#63b8ff" stroke="#63b8ff" points="1696.84,-195.75 1705.47,-189.61 1694.89,-189.03 1696.84,-195.75"/>
</a>
</g>
</g>
<!-- Node9 -->
<g id="Node000009" class="node">
<title>Node9</title>
<g id="a_Node000009"><a xlink:title=" ">
<polygon fill="#e0e0e0" stroke="#999999" points="396.5,-189.5 288.5,-189.5 288.5,-170.5 396.5,-170.5 396.5,-189.5"/>
<text text-anchor="middle" x="342.5" y="-177.5" font-family="Helvetica,sans-Serif" font-size="10.00">SDL2/SDL_image.h</text>
</a>
</g>
</g>
<!-- Node2&#45;&gt;Node9 -->
<g id="edge8_Node000002_Node000009" class="edge">
<title>Node2&#45;&gt;Node9</title>
<g id="a_edge8_Node000002_Node000009"><a xlink:title=" ">
<path fill="none" stroke="#63b8ff" d="M994.74,-238.71C894.16,-236.31 626.3,-227.15 405.5,-195 399.32,-194.1 392.83,-192.93 386.48,-191.64"/>
<polygon fill="#63b8ff" stroke="#63b8ff" points="387.17,-188.21 376.66,-189.56 385.72,-195.06 387.17,-188.21"/>
</a>
</g>
</g>
<!-- Node10 -->
<g id="Node000010" class="node">
<title>Node10</title>
<g id="a_Node000010"><a xlink:title=" ">
<polygon fill="#e0e0e0" stroke="#999999" points="524.5,-189.5 414.5,-189.5 414.5,-170.5 524.5,-170.5 524.5,-189.5"/>
<text text-anchor="middle" x="469.5" y="-177.5" font-family="Helvetica,sans-Serif" font-size="10.00">SDL2/SDL_opengl.h</text>
</a>
</g>
</g>
<!-- Node2&#45;&gt;Node10 -->
<g id="edge9_Node000002_Node000010" class="edge">
<title>Node2&#45;&gt;Node10</title>
<g id="a_edge9_Node000002_Node000010"><a xlink:title=" ">
<path fill="none" stroke="#63b8ff" d="M994.95,-237.65C909.31,-233.37 703.88,-221.08 533.5,-195 527.3,-194.05 520.81,-192.86 514.43,-191.58"/>
<polygon fill="#63b8ff" stroke="#63b8ff" points="515.07,-188.14 504.56,-189.51 513.63,-194.99 515.07,-188.14"/>
</a>
</g>
</g>
<!-- Node11 -->
<g id="Node000011" class="node">
<title>Node11</title>
<g id="a_Node000011"><a xlink:title=" ">
<polygon fill="#e0e0e0" stroke="#999999" points="646.5,-189.5 542.5,-189.5 542.5,-170.5 646.5,-170.5 646.5,-189.5"/>
<text text-anchor="middle" x="594.5" y="-177.5" font-family="Helvetica,sans-Serif" font-size="10.00">SDL2/SDL_mixer.h</text>
</a>
</g>
</g>
<!-- Node2&#45;&gt;Node11 -->
<g id="edge10_Node000002_Node000011" class="edge">
<title>Node2&#45;&gt;Node11</title>
<g id="a_edge10_Node000002_Node000011"><a xlink:title=" ">
<path fill="none" stroke="#63b8ff" d="M994.8,-236.2C925.02,-230.22 778.22,-216.2 655.5,-195 650.01,-194.05 644.28,-192.92 638.61,-191.72"/>
<polygon fill="#63b8ff" stroke="#63b8ff" points="639.08,-188.24 628.57,-189.51 637.58,-195.08 639.08,-188.24"/>
</a>
</g>
</g>
<!-- Node12 -->
<g id="Node000012" class="node">
<title>Node12</title>
<g id="a_Node000012"><a xlink:title=" ">
<polygon fill="#e0e0e0" stroke="#999999" points="752.5,-189.5 664.5,-189.5 664.5,-170.5 752.5,-170.5 752.5,-189.5"/>
<text text-anchor="middle" x="708.5" y="-177.5" font-family="Helvetica,sans-Serif" font-size="10.00">SDL2/SDL_ttf.h</text>
</a>
</g>
</g>
<!-- Node2&#45;&gt;Node12 -->
<g id="edge11_Node000002_Node000012" class="edge">
<title>Node2&#45;&gt;Node12</title>
<g id="a_edge11_Node000002_Node000012"><a xlink:title=" ">
<path fill="none" stroke="#63b8ff" d="M994.88,-234.16C941.18,-226.82 843.76,-212.5 761.5,-195 757.31,-194.11 752.96,-193.1 748.63,-192.04"/>
<polygon fill="#63b8ff" stroke="#63b8ff" points="749.2,-188.57 738.65,-189.51 747.48,-195.36 749.2,-188.57"/>
</a>
</g>
</g>
<!-- Node13 -->
<g id="Node000013" class="node">
<title>Node13</title>
<g id="a_Node000013"><a xlink:title=" ">
<polygon fill="#e0e0e0" stroke="#999999" points="820.5,-189.5 770.5,-189.5 770.5,-170.5 820.5,-170.5 820.5,-189.5"/>
<text text-anchor="middle" x="795.5" y="-177.5" font-family="Helvetica,sans-Serif" font-size="10.00">GL/gl.h</text>
</a>
</g>
</g>
<!-- Node2&#45;&gt;Node13 -->
<g id="edge12_Node000002_Node000013" class="edge">
<title>Node2&#45;&gt;Node13</title>
<g id="a_edge12_Node000002_Node000013"><a xlink:title=" ">
<path fill="none" stroke="#63b8ff" d="M994.69,-232.89C952.72,-225.59 885.75,-212.5 829.5,-195 827.82,-194.48 826.12,-193.91 824.4,-193.3"/>
<polygon fill="#63b8ff" stroke="#63b8ff" points="825.29,-189.9 814.7,-189.6 822.79,-196.44 825.29,-189.9"/>
</a>
</g>
</g>
<!-- Node14 -->
<g id="Node000014" class="node">
<title>Node14</title>
<g id="a_Node000014"><a xlink:title=" ">
<polygon fill="#e0e0e0" stroke="#999999" points="894.5,-189.5 838.5,-189.5 838.5,-170.5 894.5,-170.5 894.5,-189.5"/>
<text text-anchor="middle" x="866.5" y="-177.5" font-family="Helvetica,sans-Serif" font-size="10.00">GL/glu.h</text>
</a>
</g>
</g>
<!-- Node2&#45;&gt;Node14 -->
<g id="edge13_Node000002_Node000014" class="edge">
<title>Node2&#45;&gt;Node14</title>
<g id="a_edge13_Node000002_Node000014"><a xlink:title=" ">
<path fill="none" stroke="#63b8ff" d="M1009.11,-230.92C982.39,-222.15 939.93,-208.03 903.5,-195 901.85,-194.41 900.17,-193.8 898.47,-193.18"/>
<polygon fill="#63b8ff" stroke="#63b8ff" points="899.35,-189.77 888.76,-189.57 896.91,-196.33 899.35,-189.77"/>
</a>
</g>
</g>
<!-- Node15 -->
<g id="Node000015" class="node">
<title>Node15</title>
<g id="a_Node000015"><a xlink:title=" ">
<polygon fill="#e0e0e0" stroke="#999999" points="978.5,-189.5 912.5,-189.5 912.5,-170.5 978.5,-170.5 978.5,-189.5"/>
<text text-anchor="middle" x="945.5" y="-177.5" font-family="Helvetica,sans-Serif" font-size="10.00">GL/glext.h</text>
</a>
</g>
</g>
<!-- Node2&#45;&gt;Node15 -->
<g id="edge14_Node000002_Node000015" class="edge">
<title>Node2&#45;&gt;Node15</title>
<g id="a_edge14_Node000002_Node000015"><a xlink:title=" ">
<path fill="none" stroke="#63b8ff" d="M1022.22,-230.87C1007.86,-221.54 984.74,-206.51 967.63,-195.38"/>
<polygon fill="#63b8ff" stroke="#63b8ff" points="969.13,-192.18 958.83,-189.67 965.31,-198.05 969.13,-192.18"/>
</a>
</g>
</g>
<!-- Node16 -->
<g id="Node000016" class="node">
<title>Node16</title>
<g id="a_Node000016"><a xlink:title=" ">
<polygon fill="#e0e0e0" stroke="#999999" points="1074,-189.5 997,-189.5 997,-170.5 1074,-170.5 1074,-189.5"/>
<text text-anchor="middle" x="1035.5" y="-177.5" font-family="Helvetica,sans-Serif" font-size="10.00">cglm/cglm.h</text>
</a>
</g>
</g>
<!-- Node2&#45;&gt;Node16 -->
<g id="edge15_Node000002_Node000016" class="edge">
<title>Node2&#45;&gt;Node16</title>
<g id="a_edge15_Node000002_Node000016"><a xlink:title=" ">
<path fill="none" stroke="#63b8ff" d="M1035.5,-230.87C1035.5,-222.75 1035.5,-210.31 1035.5,-199.89"/>
<polygon fill="#63b8ff" stroke="#63b8ff" points="1039,-199.67 1035.5,-189.67 1032,-199.67 1039,-199.67"/>
</a>
</g>
</g>
<!-- Node17 -->
<g id="Node000017" class="node">
<title>Node17</title>
<g id="a_Node000017"><a xlink:title=" ">
<polygon fill="#e0e0e0" stroke="#999999" points="1143,-189.5 1092,-189.5 1092,-170.5 1143,-170.5 1143,-189.5"/>
<text text-anchor="middle" x="1117.5" y="-177.5" font-family="Helvetica,sans-Serif" font-size="10.00">math.h</text>
</a>
</g>
</g>
<!-- Node2&#45;&gt;Node17 -->
<g id="edge16_Node000002_Node000017" class="edge">
<title>Node2&#45;&gt;Node17</title>
<g id="a_edge16_Node000002_Node000017"><a xlink:title=" ">
<path fill="none" stroke="#63b8ff" d="M1047.6,-230.87C1060.56,-221.62 1081.36,-206.78 1096.9,-195.69"/>
<polygon fill="#63b8ff" stroke="#63b8ff" points="1099.24,-198.32 1105.35,-189.67 1095.18,-192.63 1099.24,-198.32"/>
</a>
</g>
</g>
<!-- Node18 -->
<g id="Node000018" class="node">
<title>Node18</title>
<g id="a_Node000018"><a xlink:href="stringio_8h.html" target="_top" xlink:title="Provides utility functions for string and file operations.">
<polygon fill="white" stroke="#666666" points="1235.5,-189.5 1161.5,-189.5 1161.5,-170.5 1235.5,-170.5 1235.5,-189.5"/>
<text text-anchor="middle" x="1198.5" y="-177.5" font-family="Helvetica,sans-Serif" font-size="10.00">io/stringio.h</text>
</a>
</g>
</g>
<!-- Node2&#45;&gt;Node18 -->
<g id="edge17_Node000002_Node000018" class="edge">
<title>Node2&#45;&gt;Node18</title>
<g id="a_edge17_Node000002_Node000018"><a xlink:title=" ">
<path fill="none" stroke="#63b8ff" d="M1059.2,-230.99C1087.09,-220.99 1133.57,-204.3 1165.1,-192.99"/>
<polygon fill="#63b8ff" stroke="#63b8ff" points="1166.54,-196.19 1174.77,-189.52 1164.18,-189.6 1166.54,-196.19"/>
</a>
</g>
</g>
<!-- Node20 -->
<g id="Node000020" class="node">
<title>Node20</title>
<g id="a_Node000020"><a xlink:href="config_8h.html" target="_top" xlink:title=" ">
<polygon fill="white" stroke="#666666" points="1309,-189.5 1254,-189.5 1254,-170.5 1309,-170.5 1309,-189.5"/>
<text text-anchor="middle" x="1281.5" y="-177.5" font-family="Helvetica,sans-Serif" font-size="10.00">config.h</text>
</a>
</g>
</g>
<!-- Node2&#45;&gt;Node20 -->
<g id="edge19_Node000002_Node000020" class="edge">
<title>Node2&#45;&gt;Node20</title>
<g id="a_edge19_Node000002_Node000020"><a xlink:title=" ">
<path fill="none" stroke="#63b8ff" d="M1076.02,-232.76C1118.46,-225.26 1186.84,-211.94 1244.5,-195 1246.64,-194.37 1248.84,-193.68 1251.03,-192.94"/>
<polygon fill="#63b8ff" stroke="#63b8ff" points="1252.31,-196.2 1260.56,-189.56 1249.96,-189.61 1252.31,-196.2"/>
</a>
</g>
</g>
<!-- Node19 -->
<g id="Node000019" class="node">
<title>Node19</title>
<g id="a_Node000019"><a xlink:title=" ">
<polygon fill="#e0e0e0" stroke="#999999" points="1225,-129 1172,-129 1172,-110 1225,-110 1225,-129"/>
<text text-anchor="middle" x="1198.5" y="-117" font-family="Helvetica,sans-Serif" font-size="10.00">string.h</text>
</a>
</g>
</g>
<!-- Node18&#45;&gt;Node19 -->
<g id="edge18_Node000018_Node000019" class="edge">
<title>Node18&#45;&gt;Node19</title>
<g id="a_edge18_Node000018_Node000019"><a xlink:title=" ">
<path fill="none" stroke="#63b8ff" d="M1198.5,-170.37C1198.5,-162.25 1198.5,-149.81 1198.5,-139.39"/>
<polygon fill="#63b8ff" stroke="#63b8ff" points="1202,-139.17 1198.5,-129.17 1195,-139.17 1202,-139.17"/>
</a>
</g>
</g>
<!-- Node21 -->
<g id="Node000021" class="node">
<title>Node21</title>
<g id="a_Node000021"><a xlink:href="term_8h.html" target="_top" xlink:title=" ">
<polygon fill="white" stroke="#666666" points="1319,-129 1244,-129 1244,-110 1319,-110 1319,-129"/>
<text text-anchor="middle" x="1281.5" y="-117" font-family="Helvetica,sans-Serif" font-size="10.00">term/term.h</text>
</a>
</g>
</g>
<!-- Node20&#45;&gt;Node21 -->
<g id="edge20_Node000020_Node000021" class="edge">
<title>Node20&#45;&gt;Node21</title>
<g id="a_edge20_Node000020_Node000021"><a xlink:title=" ">
<path fill="none" stroke="#63b8ff" d="M1281.5,-170.37C1281.5,-162.25 1281.5,-149.81 1281.5,-139.39"/>
<polygon fill="#63b8ff" stroke="#63b8ff" points="1285,-139.17 1281.5,-129.17 1278,-139.17 1285,-139.17"/>
</a>
</g>
</g>
<!-- Node22 -->
<g id="Node000022" class="node">
<title>Node22</title>
<g id="a_Node000022"><a xlink:href="enhanced__print_8h.html" target="_top" xlink:title=" ">
<polygon fill="white" stroke="#666666" points="1332,-74 1231,-74 1231,-55 1332,-55 1332,-74"/>
<text text-anchor="middle" x="1281.5" y="-62" font-family="Helvetica,sans-Serif" font-size="10.00">enhanced_print.h</text>
</a>
</g>
</g>
<!-- Node21&#45;&gt;Node22 -->
<g id="edge21_Node000021_Node000022" class="edge">
<title>Node21&#45;&gt;Node22</title>
<g id="a_edge21_Node000021_Node000022"><a xlink:title=" ">
<path fill="none" stroke="#63b8ff" d="M1281.5,-109.75C1281.5,-102.8 1281.5,-92.85 1281.5,-84.13"/>
<polygon fill="#63b8ff" stroke="#63b8ff" points="1285,-84.09 1281.5,-74.09 1278,-84.09 1285,-84.09"/>
</a>
</g>
</g>
<!-- Node23 -->
<g id="Node000023" class="node">
<title>Node23</title>
<g id="a_Node000023"><a xlink:href="color_8h.html" target="_top" xlink:title=" ">
<polygon fill="white" stroke="#666666" points="1306,-19 1257,-19 1257,0 1306,0 1306,-19"/>
<text text-anchor="middle" x="1281.5" y="-7" font-family="Helvetica,sans-Serif" font-size="10.00">color.h</text>
</a>
</g>
</g>
<!-- Node22&#45;&gt;Node23 -->
<g id="edge22_Node000022_Node000023" class="edge">
<title>Node22&#45;&gt;Node23</title>
<g id="a_edge22_Node000022_Node000023"><a xlink:title=" ">
<path fill="none" stroke="#63b8ff" d="M1281.5,-54.75C1281.5,-47.8 1281.5,-37.85 1281.5,-29.13"/>
<polygon fill="#63b8ff" stroke="#63b8ff" points="1285,-29.09 1281.5,-19.09 1278,-29.09 1285,-29.09"/>
</a>
</g>
</g>
<!-- Node26 -->
<g id="Node000026" class="node">
<title>Node26</title>
<g id="a_Node000026"><a xlink:href="shader_8h.html" target="_top" xlink:title=" ">
<polygon fill="white" stroke="#666666" points="270.5,-189.5 212.5,-189.5 212.5,-170.5 270.5,-170.5 270.5,-189.5"/>
<text text-anchor="middle" x="241.5" y="-177.5" font-family="Helvetica,sans-Serif" font-size="10.00">shader.h</text>
</a>
</g>
</g>
<!-- Node25&#45;&gt;Node26 -->
<g id="edge25_Node000025_Node000026" class="edge">
<title>Node25&#45;&gt;Node26</title>
<g id="a_edge25_Node000025_Node000026"><a xlink:title=" ">
<path fill="none" stroke="#63b8ff" d="M174.16,-230.87C186.64,-221.62 206.68,-206.78 221.66,-195.69"/>
<polygon fill="#63b8ff" stroke="#63b8ff" points="223.84,-198.43 229.8,-189.67 219.68,-192.81 223.84,-198.43"/>
</a>
</g>
</g>
<!-- Node27 -->
<g id="Node000027" class="node">
<title>Node27</title>
<g id="a_Node000027"><a xlink:href="model__loader_8h.html" target="_top" xlink:title=" ">
<polygon fill="white" stroke="#666666" points="194.5,-195 72.5,-195 72.5,-165 194.5,-165 194.5,-195"/>
<text text-anchor="start" x="80.5" y="-183" font-family="Helvetica,sans-Serif" font-size="10.00">model_loaders/model</text>
<text text-anchor="middle" x="133.5" y="-172" font-family="Helvetica,sans-Serif" font-size="10.00">_loader.h</text>
</a>
</g>
</g>
<!-- Node25&#45;&gt;Node27 -->
<g id="edge26_Node000025_Node000027" class="edge">
<title>Node25&#45;&gt;Node27</title>
<g id="a_edge26_Node000025_Node000027"><a xlink:title=" ">
<path fill="none" stroke="#63b8ff" d="M158.22,-230.87C154.72,-223.81 149.61,-213.5 144.94,-204.08"/>
<polygon fill="#63b8ff" stroke="#63b8ff" points="148.07,-202.52 140.5,-195.11 141.8,-205.63 148.07,-202.52"/>
</a>
</g>
</g>
<!-- Node28 -->
<g id="Node000028" class="node">
<title>Node28</title>
<g id="a_Node000028"><a xlink:href="obj__loader_8h.html" target="_top" xlink:title=" ">
<polygon fill="white" stroke="#666666" points="266.5,-129 190.5,-129 190.5,-110 266.5,-110 266.5,-129"/>
<text text-anchor="middle" x="228.5" y="-117" font-family="Helvetica,sans-Serif" font-size="10.00">obj_loader.h</text>
</a>
</g>
</g>
<!-- Node27&#45;&gt;Node28 -->
<g id="edge27_Node000027_Node000028" class="edge">
<title>Node27&#45;&gt;Node28</title>
<g id="a_edge27_Node000027_Node000028"><a xlink:title=" ">
<path fill="none" stroke="#63b8ff" d="M156.5,-164.84C171.5,-155.6 191,-143.59 205.93,-134.4"/>
<polygon fill="#63b8ff" stroke="#63b8ff" points="207.86,-137.32 214.54,-129.09 204.19,-131.36 207.86,-137.32"/>
</a>
</g>
</g>
<!-- Node29 -->
<g id="Node000029" class="node">
<title>Node29</title>
<g id="a_Node000029"><a xlink:href="mtl__loader_8h.html" target="_top" xlink:title=" ">
<polygon fill="white" stroke="#666666" points="77,-129 0,-129 0,-110 77,-110 77,-129"/>
<text text-anchor="middle" x="38.5" y="-117" font-family="Helvetica,sans-Serif" font-size="10.00">mtl_loader.h</text>
</a>
</g>
</g>
<!-- Node27&#45;&gt;Node29 -->
<g id="edge28_Node000027_Node000029" class="edge">
<title>Node27&#45;&gt;Node29</title>
<g id="a_edge28_Node000027_Node000029"><a xlink:title=" ">
<path fill="none" stroke="#63b8ff" d="M110.5,-164.84C95.5,-155.6 76,-143.59 61.07,-134.4"/>
<polygon fill="#63b8ff" stroke="#63b8ff" points="62.81,-131.36 52.46,-129.09 59.14,-137.32 62.81,-131.36"/>
</a>
</g>
</g>
<!-- Node30 -->
<g id="Node000030" class="node">
<title>Node30</title>
<g id="a_Node000030"><a xlink:href="fbx__loader_8h.html" target="_top" xlink:title=" ">
<polygon fill="white" stroke="#666666" points="172,-129 95,-129 95,-110 172,-110 172,-129"/>
<text text-anchor="middle" x="133.5" y="-117" font-family="Helvetica,sans-Serif" font-size="10.00">fbx_loader.h</text>
</a>
</g>
</g>
<!-- Node27&#45;&gt;Node30 -->
<g id="edge29_Node000027_Node000030" class="edge">
<title>Node27&#45;&gt;Node30</title>
<g id="a_edge29_Node000027_Node000030"><a xlink:title=" ">
<path fill="none" stroke="#63b8ff" d="M133.5,-164.84C133.5,-157.21 133.5,-147.7 133.5,-139.45"/>
<polygon fill="#63b8ff" stroke="#63b8ff" points="137,-139.27 133.5,-129.27 130,-139.27 137,-139.27"/>
</a>
</g>
</g>
<!-- Node32 -->
<g id="Node000032" class="node">
<title>Node32</title>
<g id="a_Node000032"><a xlink:href="input_8h.html" target="_top" xlink:title=" ">
<polygon fill="white" stroke="#666666" points="355,-250 284,-250 284,-231 355,-231 355,-250"/>
<text text-anchor="middle" x="319.5" y="-238" font-family="Helvetica,sans-Serif" font-size="10.00">../io/input.h</text>
</a>
</g>
</g>
<!-- Node31&#45;&gt;Node32 -->
<g id="edge31_Node000031_Node000032" class="edge">
<title>Node31&#45;&gt;Node32</title>
<g id="a_edge31_Node000031_Node000032"><a xlink:title=" ">
<path fill="none" stroke="#63b8ff" d="M246.48,-285.98C259.97,-277.77 280.63,-265.18 296.54,-255.49"/>
<polygon fill="#63b8ff" stroke="#63b8ff" points="298.55,-258.36 305.27,-250.17 294.91,-252.38 298.55,-258.36"/>
</a>
</g>
</g>
<!-- Node33&#45;&gt;Node26 -->
<g id="edge33_Node000033_Node000026" class="edge">
<title>Node33&#45;&gt;Node26</title>
<g id="a_edge33_Node000033_Node000026"><a xlink:title=" ">
<path fill="none" stroke="#63b8ff" d="M500.14,-340.73C509.81,-332.67 522.85,-319.74 528.5,-305 540.74,-273.08 534.05,-252.53 507.5,-231 427.82,-166.39 378.78,-220.86 279.5,-195 277.06,-194.36 274.56,-193.63 272.06,-192.84"/>
<polygon fill="#63b8ff" stroke="#63b8ff" points="273.16,-189.52 262.57,-189.6 270.9,-196.15 273.16,-189.52"/>
</a>
</g>
</g>
<!-- Node33&#45;&gt;Node31 -->
<g id="edge44_Node000033_Node000031" class="edge">
<title>Node33&#45;&gt;Node31</title>
<g id="a_edge44_Node000033_Node000031"><a xlink:title=" ">
<path fill="none" stroke="#63b8ff" d="M447.37,-340.98C402.9,-331.78 331.95,-317.09 283.85,-307.13"/>
<polygon fill="#63b8ff" stroke="#63b8ff" points="284.46,-303.68 273.95,-305.08 283.04,-310.54 284.46,-303.68"/>
</a>
</g>
</g>
<!-- Node33&#45;&gt;Node34 -->
<g id="edge34_Node000033_Node000034" class="edge">
<title>Node33&#45;&gt;Node34</title>
<g id="a_edge34_Node000033_Node000034"><a xlink:title=" ">
<path fill="none" stroke="#63b8ff" d="M517.1,-340.98C547.11,-332.05 594.48,-317.94 627.82,-308.02"/>
<polygon fill="#63b8ff" stroke="#63b8ff" points="629.09,-311.29 637.68,-305.08 627.09,-304.58 629.09,-311.29"/>
</a>
</g>
</g>
<!-- Node35 -->
<g id="Node000035" class="node">
<title>Node35</title>
<g id="a_Node000035"><a xlink:href="bodies_8h.html" target="_top" xlink:title=" ">
<polygon fill="white" stroke="#666666" points="399,-305 292,-305 292,-286 399,-286 399,-305"/>
<text text-anchor="middle" x="345.5" y="-293" font-family="Helvetica,sans-Serif" font-size="10.00">../physics/bodies.h</text>
</a>
</g>
</g>
<!-- Node33&#45;&gt;Node35 -->
<g id="edge38_Node000033_Node000035" class="edge">
<title>Node33&#45;&gt;Node35</title>
<g id="a_edge38_Node000033_Node000035"><a xlink:title=" ">
<path fill="none" stroke="#63b8ff" d="M465.52,-340.98C442,-332.27 405.21,-318.63 378.56,-308.75"/>
<polygon fill="#63b8ff" stroke="#63b8ff" points="379.49,-305.36 368.89,-305.17 377.05,-311.93 379.49,-305.36"/>
</a>
</g>
</g>
<!-- Node36 -->
<g id="Node000036" class="node">
<title>Node36</title>
<g id="a_Node000036"><a xlink:href="scripts_8h.html" target="_top" xlink:title=" ">
<polygon fill="white" stroke="#666666" points="519.5,-305 417.5,-305 417.5,-286 519.5,-286 519.5,-305"/>
<text text-anchor="middle" x="468.5" y="-293" font-family="Helvetica,sans-Serif" font-size="10.00">../scripts/scripts.h</text>
</a>
</g>
</g>
<!-- Node33&#45;&gt;Node36 -->
<g id="edge41_Node000033_Node000036" class="edge">
<title>Node33&#45;&gt;Node36</title>
<g id="a_edge41_Node000033_Node000036"><a xlink:title=" ">
<path fill="none" stroke="#63b8ff" d="M485.2,-340.75C482.52,-333.65 478.65,-323.4 475.31,-314.56"/>
<polygon fill="#63b8ff" stroke="#63b8ff" points="478.55,-313.21 471.74,-305.09 472,-315.68 478.55,-313.21"/>
</a>
</g>
</g>
<!-- Node34&#45;&gt;Node2 -->
<g id="edge35_Node000034_Node000002" class="edge">
<title>Node34&#45;&gt;Node2</title>
<g id="a_edge35_Node000034_Node000002"><a xlink:title=" ">
<path fill="none" stroke="#63b8ff" d="M719.76,-286.85C790.57,-276.68 914.86,-258.83 984.5,-248.82"/>
<polygon fill="#63b8ff" stroke="#63b8ff" points="985.38,-252.23 994.78,-247.35 984.39,-245.31 985.38,-252.23"/>
</a>
</g>
</g>
<!-- Node34&#45;&gt;Node24 -->
<g id="edge36_Node000034_Node000024" class="edge">
<title>Node34&#45;&gt;Node24</title>
<g id="a_edge36_Node000034_Node000024"><a xlink:title=" ">
<path fill="none" stroke="#63b8ff" d="M658.74,-285.75C652.03,-278.18 642.16,-267.05 633.99,-257.84"/>
<polygon fill="#63b8ff" stroke="#63b8ff" points="636.37,-255.25 627.12,-250.09 631.13,-259.89 636.37,-255.25"/>
</a>
</g>
</g>
<!-- Node34&#45;&gt;Node26 -->
<g id="edge37_Node000034_Node000026" class="edge">
<title>Node34&#45;&gt;Node26</title>
<g id="a_edge37_Node000034_Node000026"><a xlink:title=" ">
<path fill="none" stroke="#63b8ff" d="M673.14,-285.93C682.69,-272.52 697.67,-246.49 683.5,-231 622.66,-164.5 367.44,-214.75 279.5,-195 276.83,-194.4 274.09,-193.66 271.36,-192.83"/>
<polygon fill="#63b8ff" stroke="#63b8ff" points="272.31,-189.46 261.71,-189.57 270.06,-196.09 272.31,-189.46"/>
</a>
</g>
</g>
<!-- Node35&#45;&gt;Node24 -->
<g id="edge39_Node000035_Node000024" class="edge">
<title>Node35&#45;&gt;Node24</title>
<g id="a_edge39_Node000035_Node000024"><a xlink:title=" ">
<path fill="none" stroke="#63b8ff" d="M389.52,-285.98C437.32,-276.74 513.7,-261.97 565.18,-252.01"/>
<polygon fill="#63b8ff" stroke="#63b8ff" points="565.98,-255.42 575.13,-250.08 564.65,-248.54 565.98,-255.42"/>
</a>
</g>
</g>
<!-- Node35&#45;&gt;Node25 -->
<g id="edge40_Node000035_Node000025" class="edge">
<title>Node35&#45;&gt;Node25</title>
<g id="a_edge40_Node000035_Node000025"><a xlink:title=" ">
<path fill="none" stroke="#63b8ff" d="M316.1,-285.98C285.11,-277.01 236.12,-262.82 201.83,-252.89"/>
<polygon fill="#63b8ff" stroke="#63b8ff" points="202.71,-249.5 192.13,-250.08 200.76,-256.23 202.71,-249.5"/>
</a>
</g>
</g>
<!-- Node36&#45;&gt;Node32 -->
<g id="edge42_Node000036_Node000032" class="edge">
<title>Node36&#45;&gt;Node32</title>
<g id="a_edge42_Node000036_Node000032"><a xlink:title=" ">
<path fill="none" stroke="#63b8ff" d="M444.56,-285.98C419.94,-277.23 381.38,-263.51 353.58,-253.62"/>
<polygon fill="#63b8ff" stroke="#63b8ff" points="354.47,-250.22 343.88,-250.17 352.12,-256.82 354.47,-250.22"/>
</a>
</g>
</g>
<!-- Node37 -->
<g id="Node000037" class="node">
<title>Node37</title>
<g id="a_Node000037"><a xlink:href="signals_8h.html" target="_top" xlink:title="Signal and slot system for C projects.">
<polygon fill="white" stroke="#666666" points="498.5,-250 438.5,-250 438.5,-231 498.5,-231 498.5,-250"/>
<text text-anchor="middle" x="468.5" y="-238" font-family="Helvetica,sans-Serif" font-size="10.00">signals.h</text>
</a>
</g>
</g>
<!-- Node36&#45;&gt;Node37 -->
<g id="edge43_Node000036_Node000037" class="edge">
<title>Node36&#45;&gt;Node37</title>
<g id="a_edge43_Node000036_Node000037"><a xlink:title=" ">
<path fill="none" stroke="#63b8ff" d="M468.5,-285.75C468.5,-278.8 468.5,-268.85 468.5,-260.13"/>
<polygon fill="#63b8ff" stroke="#63b8ff" points="472,-260.09 468.5,-250.09 465,-260.09 472,-260.09"/>
</a>
</g>
</g>
<!-- Node42&#45;&gt;Node25 -->
<g id="edge51_Node000042_Node000025" class="edge">
<title>Node42&#45;&gt;Node25</title>
<g id="a_edge51_Node000042_Node000025"><a xlink:title=" ">
<path fill="none" stroke="#63b8ff" d="M218.88,-340.87C207.34,-332.89 191.17,-320.02 181.5,-305 172.74,-291.39 167.87,-273.58 165.26,-260.28"/>
<polygon fill="#63b8ff" stroke="#63b8ff" points="168.7,-259.63 163.56,-250.36 161.8,-260.81 168.7,-259.63"/>
</a>
</g>
</g>
<!-- Node42&#45;&gt;Node31 -->
<g id="edge52_Node000042_Node000031" class="edge">
<title>Node42&#45;&gt;Node31</title>
<g id="a_edge52_Node000042_Node000031"><a xlink:title=" ">
<path fill="none" stroke="#63b8ff" d="M232.5,-340.75C232.5,-333.8 232.5,-323.85 232.5,-315.13"/>
<polygon fill="#63b8ff" stroke="#63b8ff" points="236,-315.09 232.5,-305.09 229,-315.09 236,-315.09"/>
</a>
</g>
</g>
<!-- Node43&#45;&gt;Node2 -->
<g id="edge56_Node000043_Node000002" class="edge">
<title>Node43&#45;&gt;Node2</title>
<g id="a_edge56_Node000043_Node000002"><a xlink:title=" ">
<path fill="none" stroke="#63b8ff" d="M1085.33,-340.95C1076.06,-332.65 1062.61,-319.24 1054.5,-305 1046.57,-291.08 1041.65,-273.52 1038.81,-260.4"/>
<polygon fill="#63b8ff" stroke="#63b8ff" points="1042.17,-259.35 1036.82,-250.21 1035.3,-260.69 1042.17,-259.35"/>
</a>
</g>
</g>
<!-- Node44 -->
<g id="Node000044" class="node">
<title>Node44</title>
<g id="a_Node000044"><a xlink:href="classes__types_8h.html" target="_top" xlink:title=" ">
<polygon fill="white" stroke="#666666" points="1157.5,-305 1063.5,-305 1063.5,-286 1157.5,-286 1157.5,-305"/>
<text text-anchor="middle" x="1110.5" y="-293" font-family="Helvetica,sans-Serif" font-size="10.00">classes_types.h</text>
</a>
</g>
</g>
<!-- Node43&#45;&gt;Node44 -->
<g id="edge54_Node000043_Node000044" class="edge">
<title>Node43&#45;&gt;Node44</title>
<g id="a_edge54_Node000043_Node000044"><a xlink:title=" ">
<path fill="none" stroke="#63b8ff" d="M1097.98,-340.75C1099.96,-333.72 1102.82,-323.62 1105.31,-314.84"/>
<polygon fill="#63b8ff" stroke="#63b8ff" points="1108.71,-315.66 1108.07,-305.09 1101.98,-313.76 1108.71,-315.66"/>
</a>
</g>
</g>
<!-- Node45 -->
<g id="Node000045" class="node">
<title>Node45</title>
<g id="a_Node000045"><a xlink:title=" ">
<polygon fill="#e0e0e0" stroke="#999999" points="1275,-305 1176,-305 1176,-286 1275,-286 1275,-305"/>
<text text-anchor="middle" x="1225.5" y="-293" font-family="Helvetica,sans-Serif" font-size="10.00">import_classes.h</text>
</a>
</g>
</g>
<!-- Node43&#45;&gt;Node45 -->
<g id="edge55_Node000043_Node000045" class="edge">
<title>Node43&#45;&gt;Node45</title>
<g id="a_edge55_Node000043_Node000045"><a xlink:title=" ">
<path fill="none" stroke="#63b8ff" d="M1116.39,-340.98C1137.58,-332.34 1170.63,-318.87 1194.8,-309.02"/>
<polygon fill="#63b8ff" stroke="#63b8ff" points="1196.29,-312.19 1204.23,-305.17 1193.65,-305.7 1196.29,-312.19"/>
</a>
</g>
</g>
</g>
</svg>
