<?xml version="1.0" encoding="UTF-8" standalone="no"?>
<!DOCTYPE svg PUBLIC "-//W3C//DTD SVG 1.1//EN"
 "http://www.w3.org/Graphics/SVG/1.1/DTD/svg11.dtd">
<!-- Generated by graphviz version 2.43.0 (0)
 -->
<!-- Title: src/render/lighting.h Pages: 1 -->
<svg width="2514pt" height="159pt"
 viewBox="0.00 0.00 2513.50 159.00" xmlns="http://www.w3.org/2000/svg" xmlns:xlink="http://www.w3.org/1999/xlink">
<g id="graph0" class="graph" transform="scale(1 1) rotate(0) translate(4 155)">
<title>src/render/lighting.h</title>
<!-- Node1 -->
<g id="Node000001" class="node">
<title>Node1</title>
<g id="a_Node000001"><a xlink:title=" ">
<polygon fill="#999999" stroke="#666666" points="1066,-151 952,-151 952,-132 1066,-132 1066,-151"/>
<text text-anchor="middle" x="1009" y="-139" font-family="Helvetica,sans-Serif" font-size="10.00">src/render/lighting.h</text>
</a>
</g>
</g>
<!-- Node2 -->
<g id="Node000002" class="node">
<title>Node2</title>
<g id="a_Node000002"><a xlink:href="buffer_8c.html" target="_top" xlink:title=" ">
<polygon fill="white" stroke="#666666" points="70,-90.5 0,-90.5 0,-71.5 70,-71.5 70,-90.5"/>
<text text-anchor="middle" x="35" y="-78.5" font-family="Helvetica,sans-Serif" font-size="10.00">src/buffer.c</text>
</a>
</g>
</g>
<!-- Node1&#45;&gt;Node2 -->
<g id="edge1_Node000001_Node000002" class="edge">
<title>Node1&#45;&gt;Node2</title>
<g id="a_edge1_Node000001_Node000002"><a xlink:title=" ">
<path fill="none" stroke="#63b8ff" d="M941.78,-139.55C757.13,-136.58 244.8,-125.82 79,-96 72.06,-94.75 64.69,-92.71 58.01,-90.56"/>
<polygon fill="#63b8ff" stroke="#63b8ff" points="941.85,-143.05 951.9,-139.71 941.96,-136.05 941.85,-143.05"/>
</a>
</g>
</g>
<!-- Node3 -->
<g id="Node000003" class="node">
<title>Node3</title>
<g id="a_Node000003"><a xlink:href="directional__light_8class_8c.html" target="_top" xlink:title="This file contains the implementation of the directional light class.">
<polygon fill="white" stroke="#666666" points="222,-96 88,-96 88,-66 222,-66 222,-96"/>
<text text-anchor="start" x="96" y="-84" font-family="Helvetica,sans-Serif" font-size="10.00">src/classes/nodes/lights</text>
<text text-anchor="middle" x="155" y="-73" font-family="Helvetica,sans-Serif" font-size="10.00">/directional_light.class.c</text>
</a>
</g>
</g>
<!-- Node1&#45;&gt;Node3 -->
<g id="edge2_Node000001_Node000003" class="edge">
<title>Node1&#45;&gt;Node3</title>
<g id="a_edge2_Node000001_Node000003"><a xlink:title=" ">
<path fill="none" stroke="#63b8ff" d="M941.48,-139.47C806.2,-136.8 492.5,-127.44 231,-96 228.07,-95.65 225.08,-95.25 222.07,-94.82"/>
<polygon fill="#63b8ff" stroke="#63b8ff" points="941.62,-142.98 951.68,-139.67 941.75,-135.98 941.62,-142.98"/>
</a>
</g>
</g>
<!-- Node4 -->
<g id="Node000004" class="node">
<title>Node4</title>
<g id="a_Node000004"><a xlink:href="light_8class_8c.html" target="_top" xlink:title="This file contains the implementation of the light class for the project.">
<polygon fill="white" stroke="#666666" points="372,-96 240,-96 240,-66 372,-66 372,-96"/>
<text text-anchor="start" x="248" y="-84" font-family="Helvetica,sans-Serif" font-size="10.00">src/classes/nodes/lights</text>
<text text-anchor="middle" x="306" y="-73" font-family="Helvetica,sans-Serif" font-size="10.00">/light.class.c</text>
</a>
</g>
</g>
<!-- Node1&#45;&gt;Node4 -->
<g id="edge3_Node000001_Node000004" class="edge">
<title>Node1&#45;&gt;Node4</title>
<g id="a_edge3_Node000001_Node000004"><a xlink:title=" ">
<path fill="none" stroke="#63b8ff" d="M941.55,-138.24C826.27,-133.81 584.11,-122.07 381,-96 378.11,-95.63 375.16,-95.22 372.19,-94.78"/>
<polygon fill="#63b8ff" stroke="#63b8ff" points="941.51,-141.74 951.64,-138.62 941.77,-134.75 941.51,-141.74"/>
</a>
</g>
</g>
<!-- Node5 -->
<g id="Node000005" class="node">
<title>Node5</title>
<g id="a_Node000005"><a xlink:href="point__light_8class_8c.html" target="_top" xlink:title="This file contains the implementation of the PointLight class.">
<polygon fill="white" stroke="#666666" points="522,-96 390,-96 390,-66 522,-66 522,-96"/>
<text text-anchor="start" x="398" y="-84" font-family="Helvetica,sans-Serif" font-size="10.00">src/classes/nodes/lights</text>
<text text-anchor="middle" x="456" y="-73" font-family="Helvetica,sans-Serif" font-size="10.00">/point_light.class.c</text>
</a>
</g>
</g>
<!-- Node1&#45;&gt;Node5 -->
<g id="edge4_Node000001_Node000005" class="edge">
<title>Node1&#45;&gt;Node5</title>
<g id="a_edge4_Node000001_Node000005"><a xlink:title=" ">
<path fill="none" stroke="#63b8ff" d="M941.69,-136.19C848.95,-129.8 676.8,-116.35 531,-96 528.11,-95.6 525.17,-95.16 522.2,-94.7"/>
<polygon fill="#63b8ff" stroke="#63b8ff" points="941.57,-139.69 951.78,-136.88 942.04,-132.7 941.57,-139.69"/>
</a>
</g>
</g>
<!-- Node6 -->
<g id="Node000006" class="node">
<title>Node6</title>
<g id="a_Node000006"><a xlink:href="spot__light_8class_8c.html" target="_top" xlink:title="This file contains the implementation of the SpotLight class.">
<polygon fill="white" stroke="#666666" points="672,-96 540,-96 540,-66 672,-66 672,-96"/>
<text text-anchor="start" x="548" y="-84" font-family="Helvetica,sans-Serif" font-size="10.00">src/classes/nodes/lights</text>
<text text-anchor="middle" x="606" y="-73" font-family="Helvetica,sans-Serif" font-size="10.00">/spot_light.class.c</text>
</a>
</g>
</g>
<!-- Node1&#45;&gt;Node6 -->
<g id="edge5_Node000001_Node000006" class="edge">
<title>Node1&#45;&gt;Node6</title>
<g id="a_edge5_Node000001_Node000006"><a xlink:title=" ">
<path fill="none" stroke="#63b8ff" d="M941.55,-131.93C876.13,-123.45 774.12,-109.78 686,-96 681.54,-95.3 676.95,-94.56 672.32,-93.8"/>
<polygon fill="#63b8ff" stroke="#63b8ff" points="941.36,-135.44 951.73,-133.25 942.26,-128.5 941.36,-135.44"/>
</a>
</g>
</g>
<!-- Node7 -->
<g id="Node000007" class="node">
<title>Node7</title>
<g id="a_Node000007"><a xlink:href="area_8class_8c.html" target="_top" xlink:title="This file handles the physics area nodes in the project.">
<polygon fill="white" stroke="#666666" points="631,-30 489,-30 489,0 631,0 631,-30"/>
<text text-anchor="start" x="497" y="-18" font-family="Helvetica,sans-Serif" font-size="10.00">src/classes/nodes/physics</text>
<text text-anchor="middle" x="560" y="-7" font-family="Helvetica,sans-Serif" font-size="10.00">/area.class.c</text>
</a>
</g>
</g>
<!-- Node1&#45;&gt;Node7 -->
<g id="edge6_Node000001_Node000007" class="edge">
<title>Node1&#45;&gt;Node7</title>
<g id="a_edge6_Node000001_Node000007"><a xlink:title=" ">
<path fill="none" stroke="#63b8ff" d="M941.74,-136.7C884.55,-131.84 800.96,-120.82 732,-96 707.26,-87.09 704.54,-77.72 681,-66 653.83,-52.48 622.1,-39.46 597.94,-30.1"/>
<polygon fill="#63b8ff" stroke="#63b8ff" points="941.5,-140.19 951.75,-137.51 942.07,-133.22 941.5,-140.19"/>
</a>
</g>
</g>
<!-- Node8 -->
<g id="Node000008" class="node">
<title>Node8</title>
<g id="a_Node000008"><a xlink:href="body_8class_8c.html" target="_top" xlink:title="This file defines the body class for the physics engine.">
<polygon fill="white" stroke="#666666" points="1198,-96 1056,-96 1056,-66 1198,-66 1198,-96"/>
<text text-anchor="start" x="1064" y="-84" font-family="Helvetica,sans-Serif" font-size="10.00">src/classes/nodes/physics</text>
<text text-anchor="middle" x="1127" y="-73" font-family="Helvetica,sans-Serif" font-size="10.00">/bodies/body.class.c</text>
</a>
</g>
</g>
<!-- Node1&#45;&gt;Node8 -->
<g id="edge7_Node000001_Node000008" class="edge">
<title>Node1&#45;&gt;Node8</title>
<g id="a_edge7_Node000001_Node000008"><a xlink:title=" ">
<path fill="none" stroke="#63b8ff" d="M1035.3,-127.46C1054.03,-118.18 1079.18,-105.71 1098.4,-96.18"/>
<polygon fill="#63b8ff" stroke="#63b8ff" points="1033.56,-124.42 1026.16,-131.99 1036.67,-130.69 1033.56,-124.42"/>
</a>
</g>
</g>
<!-- Node9 -->
<g id="Node000009" class="node">
<title>Node9</title>
<g id="a_Node000009"><a xlink:href="kinematic__body_8class_8c.html" target="_top" xlink:title="This file defines the implementation of kinematic bodies for the physics engine.">
<polygon fill="white" stroke="#666666" points="1383.5,-96 1216.5,-96 1216.5,-66 1383.5,-66 1383.5,-96"/>
<text text-anchor="start" x="1224.5" y="-84" font-family="Helvetica,sans-Serif" font-size="10.00">src/classes/nodes/physics</text>
<text text-anchor="middle" x="1300" y="-73" font-family="Helvetica,sans-Serif" font-size="10.00">/bodies/kinematic_body.class.c</text>
</a>
</g>
</g>
<!-- Node1&#45;&gt;Node9 -->
<g id="edge8_Node000001_Node000009" class="edge">
<title>Node1&#45;&gt;Node9</title>
<g id="a_edge8_Node000001_Node000009"><a xlink:title=" ">
<path fill="none" stroke="#63b8ff" d="M1061.33,-129.98C1108.55,-120.49 1178.38,-106.45 1230.32,-96.01"/>
<polygon fill="#63b8ff" stroke="#63b8ff" points="1060.43,-126.59 1051.31,-131.99 1061.81,-133.45 1060.43,-126.59"/>
</a>
</g>
</g>
<!-- Node10 -->
<g id="Node000010" class="node">
<title>Node10</title>
<g id="a_Node000010"><a xlink:href="rigid__body_8class_8c.html" target="_top" xlink:title="This source file defines the implementation of rigid body physics for the project.">
<polygon fill="white" stroke="#666666" points="1544,-96 1402,-96 1402,-66 1544,-66 1544,-96"/>
<text text-anchor="start" x="1410" y="-84" font-family="Helvetica,sans-Serif" font-size="10.00">src/classes/nodes/physics</text>
<text text-anchor="middle" x="1473" y="-73" font-family="Helvetica,sans-Serif" font-size="10.00">/bodies/rigid_body.class.c</text>
</a>
</g>
</g>
<!-- Node1&#45;&gt;Node10 -->
<g id="edge9_Node000001_Node000010" class="edge">
<title>Node1&#45;&gt;Node10</title>
<g id="a_edge9_Node000001_Node000010"><a xlink:title=" ">
<path fill="none" stroke="#63b8ff" d="M1076.08,-133.92C1152.84,-126.1 1282.24,-112.09 1393,-96 1395.93,-95.57 1398.92,-95.12 1401.93,-94.66"/>
<polygon fill="#63b8ff" stroke="#63b8ff" points="1075.66,-130.44 1066.06,-134.93 1076.36,-137.4 1075.66,-130.44"/>
</a>
</g>
</g>
<!-- Node11 -->
<g id="Node000011" class="node">
<title>Node11</title>
<g id="a_Node000011"><a xlink:href="static__body_8class_8c.html" target="_top" xlink:title="This file defines the implementation of static bodies in the physics engine.">
<polygon fill="white" stroke="#666666" points="1708,-96 1562,-96 1562,-66 1708,-66 1708,-96"/>
<text text-anchor="start" x="1570" y="-84" font-family="Helvetica,sans-Serif" font-size="10.00">src/classes/nodes/physics</text>
<text text-anchor="middle" x="1635" y="-73" font-family="Helvetica,sans-Serif" font-size="10.00">/bodies/static_body.class.c</text>
</a>
</g>
</g>
<!-- Node1&#45;&gt;Node11 -->
<g id="edge10_Node000001_Node000011" class="edge">
<title>Node1&#45;&gt;Node11</title>
<g id="a_edge10_Node000001_Node000011"><a xlink:title=" ">
<path fill="none" stroke="#63b8ff" d="M1076.61,-136.88C1179.66,-130.92 1382.12,-117.53 1553,-96 1555.87,-95.64 1558.78,-95.25 1561.73,-94.84"/>
<polygon fill="#63b8ff" stroke="#63b8ff" points="1076.13,-133.4 1066.34,-137.46 1076.53,-140.39 1076.13,-133.4"/>
</a>
</g>
</g>
<!-- Node12 -->
<g id="Node000012" class="node">
<title>Node12</title>
<g id="a_Node000012"><a xlink:href="physical__node_8class_8c.html" target="_top" xlink:title="This file contains the implementation of the PhysicalNode class.">
<polygon fill="white" stroke="#666666" points="1868,-96 1726,-96 1726,-66 1868,-66 1868,-96"/>
<text text-anchor="start" x="1734" y="-84" font-family="Helvetica,sans-Serif" font-size="10.00">src/classes/nodes/physics</text>
<text text-anchor="middle" x="1797" y="-73" font-family="Helvetica,sans-Serif" font-size="10.00">/physical_node.class.c</text>
</a>
</g>
</g>
<!-- Node1&#45;&gt;Node12 -->
<g id="edge11_Node000001_Node000012" class="edge">
<title>Node1&#45;&gt;Node12</title>
<g id="a_edge11_Node000001_Node000012"><a xlink:title=" ">
<path fill="none" stroke="#63b8ff" d="M1076.36,-138.74C1202.47,-134.91 1482.65,-123.78 1717,-96 1719.94,-95.65 1722.94,-95.27 1725.96,-94.85"/>
<polygon fill="#63b8ff" stroke="#63b8ff" points="1075.98,-135.25 1066.09,-139.05 1076.19,-142.25 1075.98,-135.25"/>
</a>
</g>
</g>
<!-- Node13 -->
<g id="Node000013" class="node">
<title>Node13</title>
<g id="a_Node000013"><a xlink:href="node__loader_8c.html" target="_top" xlink:title=" ">
<polygon fill="white" stroke="#666666" points="1999.5,-90.5 1886.5,-90.5 1886.5,-71.5 1999.5,-71.5 1999.5,-90.5"/>
<text text-anchor="middle" x="1943" y="-78.5" font-family="Helvetica,sans-Serif" font-size="10.00">src/io/node_loader.c</text>
</a>
</g>
</g>
<!-- Node1&#45;&gt;Node13 -->
<g id="edge12_Node000001_Node000013" class="edge">
<title>Node1&#45;&gt;Node13</title>
<g id="a_edge12_Node000001_Node000013"><a xlink:title=" ">
<path fill="none" stroke="#63b8ff" d="M1076.32,-140.65C1222.65,-140.2 1580.4,-134.81 1877,-96 1887.1,-94.68 1897.96,-92.64 1907.9,-90.52"/>
<polygon fill="#63b8ff" stroke="#63b8ff" points="1076.14,-137.15 1066.15,-140.68 1076.16,-144.15 1076.14,-137.15"/>
</a>
</g>
</g>
<!-- Node14 -->
<g id="Node000014" class="node">
<title>Node14</title>
<g id="a_Node000014"><a xlink:href="scene__loader_8c.html" target="_top" xlink:title=" ">
<polygon fill="white" stroke="#666666" points="2136,-90.5 2018,-90.5 2018,-71.5 2136,-71.5 2136,-90.5"/>
<text text-anchor="middle" x="2077" y="-78.5" font-family="Helvetica,sans-Serif" font-size="10.00">src/io/scene_loader.c</text>
</a>
</g>
</g>
<!-- Node1&#45;&gt;Node14 -->
<g id="edge13_Node000001_Node000014" class="edge">
<title>Node1&#45;&gt;Node14</title>
<g id="a_edge13_Node000001_Node000014"><a xlink:title=" ">
<path fill="none" stroke="#63b8ff" d="M1076.47,-141.18C1238.13,-142 1660.11,-139.4 2009,-96 2019.41,-94.71 2030.59,-92.67 2040.83,-90.56"/>
<polygon fill="#63b8ff" stroke="#63b8ff" points="1076.22,-137.67 1066.2,-141.12 1076.18,-144.67 1076.22,-137.67"/>
</a>
</g>
</g>
<!-- Node15 -->
<g id="Node000015" class="node">
<title>Node15</title>
<g id="a_Node000015"><a xlink:href="main_8c.html" target="_top" xlink:title=" ">
<polygon fill="white" stroke="#666666" points="716.5,-24.5 649.5,-24.5 649.5,-5.5 716.5,-5.5 716.5,-24.5"/>
<text text-anchor="middle" x="683" y="-12.5" font-family="Helvetica,sans-Serif" font-size="10.00">src/main.c</text>
</a>
</g>
</g>
<!-- Node1&#45;&gt;Node15 -->
<g id="edge14_Node000001_Node000015" class="edge">
<title>Node1&#45;&gt;Node15</title>
<g id="a_edge14_Node000001_Node000015"><a xlink:title=" ">
<path fill="none" stroke="#63b8ff" d="M941.61,-135.88C894.99,-130.67 832.52,-119.57 782,-96 743.15,-77.87 706.33,-41.28 690.77,-24.61"/>
<polygon fill="#63b8ff" stroke="#63b8ff" points="941.29,-139.37 951.6,-136.94 942.02,-132.41 941.29,-139.37"/>
</a>
</g>
</g>
<!-- Node16 -->
<g id="Node000016" class="node">
<title>Node16</title>
<g id="a_Node000016"><a xlink:href="collision_8c.html" target="_top" xlink:title=" ">
<polygon fill="white" stroke="#666666" points="857,-24.5 735,-24.5 735,-5.5 857,-5.5 857,-24.5"/>
<text text-anchor="middle" x="796" y="-12.5" font-family="Helvetica,sans-Serif" font-size="10.00">src/physics/collision.c</text>
</a>
</g>
</g>
<!-- Node1&#45;&gt;Node16 -->
<g id="edge15_Node000001_Node000016" class="edge">
<title>Node1&#45;&gt;Node16</title>
<g id="a_edge15_Node000001_Node000016"><a xlink:title=" ">
<path fill="none" stroke="#63b8ff" d="M941.82,-135.62C886.16,-130.01 813.32,-118.52 795,-96 778.17,-75.31 787.15,-40.66 792.69,-24.62"/>
<polygon fill="#63b8ff" stroke="#63b8ff" points="941.71,-139.13 952,-136.6 942.38,-132.16 941.71,-139.13"/>
</a>
</g>
</g>
<!-- Node17 -->
<g id="Node000017" class="node">
<title>Node17</title>
<g id="a_Node000017"><a xlink:href="collision__util_8c.html" target="_top" xlink:title=" ">
<polygon fill="white" stroke="#666666" points="989,-30 875,-30 875,0 989,0 989,-30"/>
<text text-anchor="start" x="883" y="-18" font-family="Helvetica,sans-Serif" font-size="10.00">src/physics/collision</text>
<text text-anchor="middle" x="932" y="-7" font-family="Helvetica,sans-Serif" font-size="10.00">_util.c</text>
</a>
</g>
</g>
<!-- Node1&#45;&gt;Node17 -->
<g id="edge16_Node000001_Node000017" class="edge">
<title>Node1&#45;&gt;Node17</title>
<g id="a_edge16_Node000001_Node000017"><a xlink:title=" ">
<path fill="none" stroke="#63b8ff" d="M998.33,-123.24C982.98,-98.43 954.96,-53.13 940.76,-30.16"/>
<polygon fill="#63b8ff" stroke="#63b8ff" points="995.47,-125.28 1003.71,-131.94 1001.42,-121.6 995.47,-125.28"/>
</a>
</g>
</g>
<!-- Node18 -->
<g id="Node000018" class="node">
<title>Node18</title>
<g id="a_Node000018"><a xlink:href="physics_8c.html" target="_top" xlink:title=" ">
<polygon fill="white" stroke="#666666" points="1126.5,-24.5 1007.5,-24.5 1007.5,-5.5 1126.5,-5.5 1126.5,-24.5"/>
<text text-anchor="middle" x="1067" y="-12.5" font-family="Helvetica,sans-Serif" font-size="10.00">src/physics/physics.c</text>
</a>
</g>
</g>
<!-- Node1&#45;&gt;Node18 -->
<g id="edge17_Node000001_Node000018" class="edge">
<title>Node1&#45;&gt;Node18</title>
<g id="a_edge17_Node000001_Node000018"><a xlink:title=" ">
<path fill="none" stroke="#63b8ff" d="M1006.59,-121.7C1005.41,-106.04 1005.72,-83.55 1014,-66 1022.42,-48.15 1040.26,-33.49 1052.91,-24.76"/>
<polygon fill="#63b8ff" stroke="#63b8ff" points="1003.11,-122.13 1007.61,-131.73 1010.08,-121.42 1003.11,-122.13"/>
</a>
</g>
</g>
<!-- Node19 -->
<g id="Node000019" class="node">
<title>Node19</title>
<g id="a_Node000019"><a xlink:href="physics_8h.html" target="_top" xlink:title=" ">
<polygon fill="white" stroke="#666666" points="923.5,-90.5 804.5,-90.5 804.5,-71.5 923.5,-71.5 923.5,-90.5"/>
<text text-anchor="middle" x="864" y="-78.5" font-family="Helvetica,sans-Serif" font-size="10.00">src/physics/physics.h</text>
</a>
</g>
</g>
<!-- Node1&#45;&gt;Node19 -->
<g id="edge18_Node000001_Node000019" class="edge">
<title>Node1&#45;&gt;Node19</title>
<g id="a_edge18_Node000001_Node000019"><a xlink:title=" ">
<path fill="none" stroke="#63b8ff" d="M978.59,-128.23C950.57,-116.92 909.71,-100.44 885.11,-90.52"/>
<polygon fill="#63b8ff" stroke="#63b8ff" points="977.33,-131.5 987.92,-131.99 979.95,-125.01 977.33,-131.5"/>
</a>
</g>
</g>
<!-- Node20 -->
<g id="Node000020" class="node">
<title>Node20</title>
<g id="a_Node000020"><a xlink:href="raptiquax_8c.html" target="_top" xlink:title=" ">
<polygon fill="white" stroke="#666666" points="1233.5,-24.5 1144.5,-24.5 1144.5,-5.5 1233.5,-5.5 1233.5,-24.5"/>
<text text-anchor="middle" x="1189" y="-12.5" font-family="Helvetica,sans-Serif" font-size="10.00">src/raptiquax.c</text>
</a>
</g>
</g>
<!-- Node1&#45;&gt;Node20 -->
<g id="edge25_Node000001_Node000020" class="edge">
<title>Node1&#45;&gt;Node20</title>
<g id="a_edge25_Node000001_Node000020"><a xlink:title=" ">
<path fill="none" stroke="#63b8ff" d="M1014.08,-122.06C1019.59,-105.27 1029.97,-80.9 1047,-66 1063.52,-51.54 1119.51,-34.53 1156.05,-24.54"/>
<polygon fill="#63b8ff" stroke="#63b8ff" points="1010.67,-121.24 1011.14,-131.82 1017.37,-123.26 1010.67,-121.24"/>
</a>
</g>
</g>
<!-- Node21 -->
<g id="Node000021" class="node">
<title>Node21</title>
<g id="a_Node000021"><a xlink:href="lighting_8c.html" target="_top" xlink:title=" ">
<polygon fill="white" stroke="#666666" points="2267.5,-90.5 2154.5,-90.5 2154.5,-71.5 2267.5,-71.5 2267.5,-90.5"/>
<text text-anchor="middle" x="2211" y="-78.5" font-family="Helvetica,sans-Serif" font-size="10.00">src/render/lighting.c</text>
</a>
</g>
</g>
<!-- Node1&#45;&gt;Node21 -->
<g id="edge26_Node000001_Node000021" class="edge">
<title>Node1&#45;&gt;Node21</title>
<g id="a_edge26_Node000001_Node000021"><a xlink:title=" ">
<path fill="none" stroke="#63b8ff" d="M1076.33,-139.36C1287.68,-135.56 1936.28,-122.03 2145,-96 2155.23,-94.72 2166.22,-92.67 2176.25,-90.53"/>
<polygon fill="#63b8ff" stroke="#63b8ff" points="1076.24,-135.87 1066.3,-139.54 1076.36,-142.86 1076.24,-135.87"/>
</a>
</g>
</g>
<!-- Node22 -->
<g id="Node000022" class="node">
<title>Node22</title>
<g id="a_Node000022"><a xlink:href="render_8c.html" target="_top" xlink:title=" ">
<polygon fill="white" stroke="#666666" points="2392.5,-90.5 2285.5,-90.5 2285.5,-71.5 2392.5,-71.5 2392.5,-90.5"/>
<text text-anchor="middle" x="2339" y="-78.5" font-family="Helvetica,sans-Serif" font-size="10.00">src/render/render.c</text>
</a>
</g>
</g>
<!-- Node1&#45;&gt;Node22 -->
<g id="edge27_Node000001_Node000022" class="edge">
<title>Node1&#45;&gt;Node22</title>
<g id="a_edge27_Node000001_Node000022"><a xlink:title=" ">
<path fill="none" stroke="#63b8ff" d="M1076.3,-139.8C1303.57,-137.17 2041.55,-126.44 2277,-96 2286.63,-94.75 2296.97,-92.71 2306.38,-90.57"/>
<polygon fill="#63b8ff" stroke="#63b8ff" points="1076.14,-136.3 1066.18,-139.91 1076.22,-143.3 1076.14,-136.3"/>
</a>
</g>
</g>
<!-- Node23 -->
<g id="Node000023" class="node">
<title>Node23</title>
<g id="a_Node000023"><a xlink:href="scene_8c.html" target="_top" xlink:title=" ">
<polygon fill="white" stroke="#666666" points="2505.5,-90.5 2410.5,-90.5 2410.5,-71.5 2505.5,-71.5 2505.5,-90.5"/>
<text text-anchor="middle" x="2458" y="-78.5" font-family="Helvetica,sans-Serif" font-size="10.00">src/utils/scene.c</text>
</a>
</g>
</g>
<!-- Node1&#45;&gt;Node23 -->
<g id="edge28_Node000001_Node000023" class="edge">
<title>Node1&#45;&gt;Node23</title>
<g id="a_edge28_Node000001_Node000023"><a xlink:title=" ">
<path fill="none" stroke="#63b8ff" d="M1076.36,-140.25C1318.09,-139.05 2141.38,-132.32 2402,-96 2410.83,-94.77 2420.29,-92.7 2428.88,-90.53"/>
<polygon fill="#63b8ff" stroke="#63b8ff" points="1076.28,-136.75 1066.3,-140.3 1076.32,-143.75 1076.28,-136.75"/>
</a>
</g>
</g>
<!-- Node19&#45;&gt;Node7 -->
<g id="edge19_Node000019_Node000007" class="edge">
<title>Node19&#45;&gt;Node7</title>
<g id="a_edge19_Node000019_Node000007"><a xlink:title=" ">
<path fill="none" stroke="#63b8ff" d="M813.48,-69.36C762.31,-58.59 682.9,-41.87 626.62,-30.02"/>
<polygon fill="#63b8ff" stroke="#63b8ff" points="812.81,-72.8 823.32,-71.44 814.25,-65.95 812.81,-72.8"/>
</a>
</g>
</g>
<!-- Node19&#45;&gt;Node15 -->
<g id="edge20_Node000019_Node000015" class="edge">
<title>Node19&#45;&gt;Node15</title>
<g id="a_edge20_Node000019_Node000015"><a xlink:title=" ">
<path fill="none" stroke="#63b8ff" d="M830.07,-68C794.32,-55.36 738.93,-35.78 707.31,-24.6"/>
<polygon fill="#63b8ff" stroke="#63b8ff" points="828.99,-71.33 839.59,-71.37 831.33,-64.74 828.99,-71.33"/>
</a>
</g>
</g>
<!-- Node19&#45;&gt;Node16 -->
<g id="edge21_Node000019_Node000016" class="edge">
<title>Node19&#45;&gt;Node16</title>
<g id="a_edge21_Node000019_Node000016"><a xlink:title=" ">
<path fill="none" stroke="#63b8ff" d="M847.35,-64.33C834.19,-51.94 816.28,-35.09 805.46,-24.91"/>
<polygon fill="#63b8ff" stroke="#63b8ff" points="845.15,-67.06 854.83,-71.37 849.95,-61.97 845.15,-67.06"/>
</a>
</g>
</g>
<!-- Node19&#45;&gt;Node17 -->
<g id="edge22_Node000019_Node000017" class="edge">
<title>Node19&#45;&gt;Node17</title>
<g id="a_edge22_Node000019_Node000017"><a xlink:title=" ">
<path fill="none" stroke="#63b8ff" d="M880.56,-64.41C891.69,-53.94 906.22,-40.26 917,-30.12"/>
<polygon fill="#63b8ff" stroke="#63b8ff" points="878.05,-61.97 873.17,-71.37 882.85,-67.06 878.05,-61.97"/>
</a>
</g>
</g>
<!-- Node19&#45;&gt;Node18 -->
<g id="edge23_Node000019_Node000018" class="edge">
<title>Node19&#45;&gt;Node18</title>
<g id="a_edge23_Node000019_Node000018"><a xlink:title=" ">
<path fill="none" stroke="#63b8ff" d="M901.04,-68.32C941.08,-55.7 1003.97,-35.87 1039.73,-24.6"/>
<polygon fill="#63b8ff" stroke="#63b8ff" points="899.86,-65.02 891.38,-71.37 901.97,-71.7 899.86,-65.02"/>
</a>
</g>
</g>
<!-- Node19&#45;&gt;Node20 -->
<g id="edge24_Node000019_Node000020" class="edge">
<title>Node19&#45;&gt;Node20</title>
<g id="a_edge24_Node000019_Node000020"><a xlink:title=" ">
<path fill="none" stroke="#63b8ff" d="M927.15,-69.8C982.46,-60.53 1064.87,-45.91 1136,-30 1143.24,-28.38 1150.99,-26.45 1158.27,-24.54"/>
<polygon fill="#63b8ff" stroke="#63b8ff" points="926.44,-66.37 917.15,-71.47 927.59,-73.27 926.44,-66.37"/>
</a>
</g>
</g>
</g>
</svg>
