<?xml version="1.0" encoding="UTF-8" standalone="no"?>
<!DOCTYPE svg PUBLIC "-//W3C//DTD SVG 1.1//EN"
 "http://www.w3.org/Graphics/SVG/1.1/DTD/svg11.dtd">
<!-- Generated by graphviz version 2.43.0 (0)
 -->
<!-- Title: src/main.c Pages: 1 -->
<svg width="3000pt" height="313pt"
 viewBox="0.00 0.00 3000.00 313.00" xmlns="http://www.w3.org/2000/svg" xmlns:xlink="http://www.w3.org/1999/xlink">
<g id="graph0" class="graph" transform="scale(1 1) rotate(0) translate(4 309)">
<title>src/main.c</title>
<!-- Node1 -->
<g id="Node000001" class="node">
<title>Node1</title>
<g id="a_Node000001"><a xlink:title=" ">
<polygon fill="#999999" stroke="#666666" points="1858.5,-305 1791.5,-305 1791.5,-286 1858.5,-286 1858.5,-305"/>
<text text-anchor="middle" x="1825" y="-293" font-family="Helvetica,sans-Serif" font-size="10.00">src/main.c</text>
</a>
</g>
</g>
<!-- Node2 -->
<g id="Node000002" class="node">
<title>Node2</title>
<g id="a_Node000002"><a xlink:href="raptiquax_8h.html" target="_top" xlink:title="This file contains type definitions for fixed&#45;width integer types and floating&#45;point types.">
<polygon fill="white" stroke="#666666" points="908,-140 836,-140 836,-121 908,-121 908,-140"/>
<text text-anchor="middle" x="872" y="-128" font-family="Helvetica,sans-Serif" font-size="10.00">raptiquax.h</text>
</a>
</g>
</g>
<!-- Node1&#45;&gt;Node2 -->
<g id="edge1_Node000001_Node000002" class="edge">
<title>Node1&#45;&gt;Node2</title>
<g id="a_edge1_Node000001_Node000002"><a xlink:title=" ">
<path fill="none" stroke="#63b8ff" d="M1791.44,-294.06C1645.58,-291.97 1070.81,-281.75 997,-250 946.13,-228.12 903.45,-175.9 883.73,-148.67"/>
<polygon fill="#63b8ff" stroke="#63b8ff" points="886.36,-146.33 877.74,-140.17 880.64,-150.36 886.36,-146.33"/>
</a>
</g>
</g>
<!-- Node24 -->
<g id="Node000024" class="node">
<title>Node24</title>
<g id="a_Node000024"><a xlink:href="math__util_8h.html" target="_top" xlink:title=" ">
<polygon fill="white" stroke="#666666" points="1223.5,-140 1122.5,-140 1122.5,-121 1223.5,-121 1223.5,-140"/>
<text text-anchor="middle" x="1173" y="-128" font-family="Helvetica,sans-Serif" font-size="10.00">math/math_util.h</text>
</a>
</g>
</g>
<!-- Node1&#45;&gt;Node24 -->
<g id="edge21_Node000001_Node000024" class="edge">
<title>Node1&#45;&gt;Node24</title>
<g id="a_edge21_Node000001_Node000024"><a xlink:title=" ">
<path fill="none" stroke="#63b8ff" d="M1791.2,-294.24C1685.59,-293.05 1363.06,-286.46 1266,-250 1227.64,-235.59 1215.51,-228.56 1192,-195 1182.61,-181.6 1177.79,-163.5 1175.36,-150.05"/>
<polygon fill="#63b8ff" stroke="#63b8ff" points="1178.8,-149.41 1173.83,-140.05 1171.88,-150.46 1178.8,-149.41"/>
</a>
</g>
</g>
<!-- Node25 -->
<g id="Node000025" class="node">
<title>Node25</title>
<g id="a_Node000025"><a xlink:href="model_8h.html" target="_top" xlink:title="Defines structures and functions for handling 3D models and their properties.">
<polygon fill="white" stroke="#666666" points="1558,-140 1490,-140 1490,-121 1558,-121 1558,-140"/>
<text text-anchor="middle" x="1524" y="-128" font-family="Helvetica,sans-Serif" font-size="10.00">io/model.h</text>
</a>
</g>
</g>
<!-- Node1&#45;&gt;Node25 -->
<g id="edge22_Node000001_Node000025" class="edge">
<title>Node1&#45;&gt;Node25</title>
<g id="a_edge22_Node000001_Node000025"><a xlink:title=" ">
<path fill="none" stroke="#63b8ff" d="M1791.33,-292.71C1707.71,-287.92 1495.75,-273.56 1475,-250 1461.18,-234.32 1494,-177.89 1512.47,-148.92"/>
<polygon fill="#63b8ff" stroke="#63b8ff" points="1515.59,-150.54 1518.1,-140.25 1509.72,-146.73 1515.59,-150.54"/>
</a>
</g>
</g>
<!-- Node26 -->
<g id="Node000026" class="node">
<title>Node26</title>
<g id="a_Node000026"><a xlink:href="shader_8h.html" target="_top" xlink:title=" ">
<polygon fill="white" stroke="#666666" points="1553,-79.5 1495,-79.5 1495,-60.5 1553,-60.5 1553,-79.5"/>
<text text-anchor="middle" x="1524" y="-67.5" font-family="Helvetica,sans-Serif" font-size="10.00">shader.h</text>
</a>
</g>
</g>
<!-- Node1&#45;&gt;Node26 -->
<g id="edge49_Node000001_Node000026" class="edge">
<title>Node1&#45;&gt;Node26</title>
<g id="a_edge49_Node000001_Node000026"><a xlink:title=" ">
<path fill="none" stroke="#63b8ff" d="M1791.45,-294.32C1670.11,-293.39 1254.59,-287.44 1128,-250 1080.11,-235.83 1055.24,-238.1 1030,-195 1004.2,-150.93 1073.82,-130.21 1096,-121 1256.77,-54.27 1316.22,-123.42 1486,-85 1488.67,-84.4 1491.41,-83.65 1494.14,-82.82"/>
<polygon fill="#63b8ff" stroke="#63b8ff" points="1495.44,-86.08 1503.79,-79.56 1493.19,-79.45 1495.44,-86.08"/>
</a>
</g>
</g>
<!-- Node31 -->
<g id="Node000031" class="node">
<title>Node31</title>
<g id="a_Node000031"><a xlink:href="framebuffer_8h.html" target="_top" xlink:title=" ">
<polygon fill="white" stroke="#666666" points="1678.5,-195 1561.5,-195 1561.5,-176 1678.5,-176 1678.5,-195"/>
<text text-anchor="middle" x="1620" y="-183" font-family="Helvetica,sans-Serif" font-size="10.00">render/framebuffer.h</text>
</a>
</g>
</g>
<!-- Node1&#45;&gt;Node31 -->
<g id="edge25_Node000001_Node000031" class="edge">
<title>Node1&#45;&gt;Node31</title>
<g id="a_edge25_Node000001_Node000031"><a xlink:title=" ">
<path fill="none" stroke="#63b8ff" d="M1791.48,-294.69C1752.4,-293.16 1687.93,-284.96 1647,-250 1633.77,-238.7 1626.87,-219.8 1623.36,-205.54"/>
<polygon fill="#63b8ff" stroke="#63b8ff" points="1626.7,-204.42 1621.23,-195.35 1619.85,-205.85 1626.7,-204.42"/>
</a>
</g>
</g>
<!-- Node32 -->
<g id="Node000032" class="node">
<title>Node32</title>
<g id="a_Node000032"><a xlink:href="input_8h.html" target="_top" xlink:title=" ">
<polygon fill="white" stroke="#666666" points="1664.5,-140 1593.5,-140 1593.5,-121 1664.5,-121 1664.5,-140"/>
<text text-anchor="middle" x="1629" y="-128" font-family="Helvetica,sans-Serif" font-size="10.00">../io/input.h</text>
</a>
</g>
</g>
<!-- Node1&#45;&gt;Node32 -->
<g id="edge46_Node000001_Node000032" class="edge">
<title>Node1&#45;&gt;Node32</title>
<g id="a_edge46_Node000001_Node000032"><a xlink:title=" ">
<path fill="none" stroke="#63b8ff" d="M1845.01,-285.84C1865.27,-277.01 1897.44,-262.84 1925,-250 1942.48,-241.86 1945.87,-237.57 1964,-231 2026.84,-208.24 2068.79,-247.61 2110,-195 2115.21,-188.35 2115.69,-182.24 2110,-176 2081.03,-144.22 1789.74,-134.8 1675.05,-132.31"/>
<polygon fill="#63b8ff" stroke="#63b8ff" points="1674.91,-128.81 1664.84,-132.1 1674.77,-135.8 1674.91,-128.81"/>
</a>
</g>
</g>
<!-- Node33 -->
<g id="Node000033" class="node">
<title>Node33</title>
<g id="a_Node000033"><a xlink:href="node_8h.html" target="_top" xlink:title=" ">
<polygon fill="white" stroke="#666666" points="1384.5,-250 1295.5,-250 1295.5,-231 1384.5,-231 1384.5,-250"/>
<text text-anchor="middle" x="1340" y="-238" font-family="Helvetica,sans-Serif" font-size="10.00">storage/node.h</text>
</a>
</g>
</g>
<!-- Node1&#45;&gt;Node33 -->
<g id="edge27_Node000001_Node000033" class="edge">
<title>Node1&#45;&gt;Node33</title>
<g id="a_edge27_Node000001_Node000033"><a xlink:title=" ">
<path fill="none" stroke="#63b8ff" d="M1791.32,-291.28C1719.75,-284.38 1547.28,-267.34 1403,-250 1400.32,-249.68 1397.57,-249.34 1394.8,-248.99"/>
<polygon fill="#63b8ff" stroke="#63b8ff" points="1395.08,-245.5 1384.72,-247.7 1394.19,-252.44 1395.08,-245.5"/>
</a>
</g>
</g>
<!-- Node34 -->
<g id="Node000034" class="node">
<title>Node34</title>
<g id="a_Node000034"><a xlink:href="camera_8h.html" target="_top" xlink:title=" ">
<polygon fill="white" stroke="#666666" points="1145,-195 1039,-195 1039,-176 1145,-176 1145,-195"/>
<text text-anchor="middle" x="1092" y="-183" font-family="Helvetica,sans-Serif" font-size="10.00">../render/camera.h</text>
</a>
</g>
</g>
<!-- Node1&#45;&gt;Node34 -->
<g id="edge48_Node000001_Node000034" class="edge">
<title>Node1&#45;&gt;Node34</title>
<g id="a_edge48_Node000001_Node000034"><a xlink:title=" ">
<path fill="none" stroke="#63b8ff" d="M1791.36,-293.59C1664.22,-289.95 1217.19,-275.47 1159,-250 1135.93,-239.9 1115.93,-218.27 1103.93,-203.07"/>
<polygon fill="#63b8ff" stroke="#63b8ff" points="1106.65,-200.87 1097.83,-195 1101.07,-205.09 1106.65,-200.87"/>
</a>
</g>
</g>
<!-- Node35 -->
<g id="Node000035" class="node">
<title>Node35</title>
<g id="a_Node000035"><a xlink:href="bodies_8h.html" target="_top" xlink:title=" ">
<polygon fill="white" stroke="#666666" points="1308.5,-195 1201.5,-195 1201.5,-176 1308.5,-176 1308.5,-195"/>
<text text-anchor="middle" x="1255" y="-183" font-family="Helvetica,sans-Serif" font-size="10.00">../physics/bodies.h</text>
</a>
</g>
</g>
<!-- Node1&#45;&gt;Node35 -->
<g id="edge55_Node000001_Node000035" class="edge">
<title>Node1&#45;&gt;Node35</title>
<g id="a_edge55_Node000001_Node000035"><a xlink:title=" ">
<path fill="none" stroke="#63b8ff" d="M1791.16,-293.63C1679.52,-290.51 1327.67,-278.48 1286,-250 1270.99,-239.74 1262.97,-220.07 1258.87,-205.33"/>
<polygon fill="#63b8ff" stroke="#63b8ff" points="1262.19,-204.17 1256.46,-195.26 1255.39,-205.8 1262.19,-204.17"/>
</a>
</g>
</g>
<!-- Node36 -->
<g id="Node000036" class="node">
<title>Node36</title>
<g id="a_Node000036"><a xlink:href="scripts_8h.html" target="_top" xlink:title=" ">
<polygon fill="white" stroke="#666666" points="1467,-195 1365,-195 1365,-176 1467,-176 1467,-195"/>
<text text-anchor="middle" x="1416" y="-183" font-family="Helvetica,sans-Serif" font-size="10.00">../scripts/scripts.h</text>
</a>
</g>
</g>
<!-- Node1&#45;&gt;Node36 -->
<g id="edge56_Node000001_Node000036" class="edge">
<title>Node1&#45;&gt;Node36</title>
<g id="a_edge56_Node000001_Node000036"><a xlink:title=" ">
<path fill="none" stroke="#63b8ff" d="M1791.36,-294.84C1708.34,-295.04 1496.53,-291.36 1442,-250 1427.93,-239.33 1421.44,-219.73 1418.46,-205.12"/>
<polygon fill="#63b8ff" stroke="#63b8ff" points="1421.9,-204.44 1416.81,-195.14 1414.99,-205.58 1421.9,-204.44"/>
</a>
</g>
</g>
<!-- Node38 -->
<g id="Node000038" class="node">
<title>Node38</title>
<g id="a_Node000038"><a xlink:href="depth__map_8h.html" target="_top" xlink:title=" ">
<polygon fill="white" stroke="#666666" points="1599.5,-250 1484.5,-250 1484.5,-231 1599.5,-231 1599.5,-250"/>
<text text-anchor="middle" x="1542" y="-238" font-family="Helvetica,sans-Serif" font-size="10.00">render/depth_map.h</text>
</a>
</g>
</g>
<!-- Node1&#45;&gt;Node38 -->
<g id="edge40_Node000001_Node000038" class="edge">
<title>Node1&#45;&gt;Node38</title>
<g id="a_edge40_Node000001_Node000038"><a xlink:title=" ">
<path fill="none" stroke="#63b8ff" d="M1791.42,-288.21C1743.64,-279.26 1655.41,-262.74 1597.72,-251.94"/>
<polygon fill="#63b8ff" stroke="#63b8ff" points="1598.15,-248.46 1587.68,-250.05 1596.86,-255.34 1598.15,-248.46"/>
</a>
</g>
</g>
<!-- Node39 -->
<g id="Node000039" class="node">
<title>Node39</title>
<g id="a_Node000039"><a xlink:href="render_8h.html" target="_top" xlink:title=" ">
<polygon fill="white" stroke="#666666" points="2063.5,-250 1972.5,-250 1972.5,-231 2063.5,-231 2063.5,-250"/>
<text text-anchor="middle" x="2018" y="-238" font-family="Helvetica,sans-Serif" font-size="10.00">render/render.h</text>
</a>
</g>
</g>
<!-- Node1&#45;&gt;Node39 -->
<g id="edge43_Node000001_Node000039" class="edge">
<title>Node1&#45;&gt;Node39</title>
<g id="a_edge43_Node000001_Node000039"><a xlink:title=" ">
<path fill="none" stroke="#63b8ff" d="M1856.01,-285.98C1888.83,-276.97 1940.8,-262.7 1976.99,-252.76"/>
<polygon fill="#63b8ff" stroke="#63b8ff" points="1978.03,-256.11 1986.75,-250.08 1976.18,-249.36 1978.03,-256.11"/>
</a>
</g>
</g>
<!-- Node40 -->
<g id="Node000040" class="node">
<title>Node40</title>
<g id="a_Node000040"><a xlink:href="lighting_8h.html" target="_top" xlink:title=" ">
<polygon fill="white" stroke="#666666" points="1832.5,-195 1735.5,-195 1735.5,-176 1832.5,-176 1832.5,-195"/>
<text text-anchor="middle" x="1784" y="-183" font-family="Helvetica,sans-Serif" font-size="10.00">render/lighting.h</text>
</a>
</g>
</g>
<!-- Node1&#45;&gt;Node40 -->
<g id="edge44_Node000001_Node000040" class="edge">
<title>Node1&#45;&gt;Node40</title>
<g id="a_edge44_Node000001_Node000040"><a xlink:title=" ">
<path fill="none" stroke="#63b8ff" d="M1820.74,-285.75C1816.5,-276.86 1809.91,-262.63 1805,-250 1799.21,-235.1 1793.57,-217.86 1789.6,-205.11"/>
<polygon fill="#63b8ff" stroke="#63b8ff" points="1792.85,-203.77 1786.57,-195.23 1786.15,-205.81 1792.85,-203.77"/>
</a>
</g>
</g>
<!-- Node41 -->
<g id="Node000041" class="node">
<title>Node41</title>
<g id="a_Node000041"><a xlink:href="window_8h.html" target="_top" xlink:title=" ">
<polygon fill="white" stroke="#666666" points="2144,-250 2082,-250 2082,-231 2144,-231 2144,-250"/>
<text text-anchor="middle" x="2113" y="-238" font-family="Helvetica,sans-Serif" font-size="10.00">window.h</text>
</a>
</g>
</g>
<!-- Node1&#45;&gt;Node41 -->
<g id="edge45_Node000001_Node000041" class="edge">
<title>Node1&#45;&gt;Node41</title>
<g id="a_edge45_Node000001_Node000041"><a xlink:title=" ">
<path fill="none" stroke="#63b8ff" d="M1858.76,-288.79C1904.67,-280.95 1989.62,-266.18 2071.6,-250.23"/>
<polygon fill="#63b8ff" stroke="#63b8ff" points="2072.43,-253.63 2081.58,-248.28 2071.09,-246.76 2072.43,-253.63"/>
</a>
</g>
</g>
<!-- Node42 -->
<g id="Node000042" class="node">
<title>Node42</title>
<g id="a_Node000042"><a xlink:href="osio_8h.html" target="_top" xlink:title="File operations and error handling for the project.">
<polygon fill="white" stroke="#666666" points="2220,-250 2162,-250 2162,-231 2220,-231 2220,-250"/>
<text text-anchor="middle" x="2191" y="-238" font-family="Helvetica,sans-Serif" font-size="10.00">io/osio.h</text>
</a>
</g>
</g>
<!-- Node1&#45;&gt;Node42 -->
<g id="edge47_Node000001_Node000042" class="edge">
<title>Node1&#45;&gt;Node42</title>
<g id="a_edge47_Node000001_Node000042"><a xlink:title=" ">
<path fill="none" stroke="#63b8ff" d="M1858.67,-290.89C1916.52,-284.48 2038.66,-270.05 2151.41,-250.15"/>
<polygon fill="#63b8ff" stroke="#63b8ff" points="2152.36,-253.54 2161.59,-248.34 2151.13,-246.65 2152.36,-253.54"/>
</a>
</g>
</g>
<!-- Node43 -->
<g id="Node000043" class="node">
<title>Node43</title>
<g id="a_Node000043"><a xlink:href="scene__loader_8h.html" target="_top" xlink:title=" ">
<polygon fill="white" stroke="#666666" points="2339.5,-250 2238.5,-250 2238.5,-231 2339.5,-231 2339.5,-250"/>
<text text-anchor="middle" x="2289" y="-238" font-family="Helvetica,sans-Serif" font-size="10.00">io/scene_loader.h</text>
</a>
</g>
</g>
<!-- Node1&#45;&gt;Node43 -->
<g id="edge50_Node000001_Node000043" class="edge">
<title>Node1&#45;&gt;Node43</title>
<g id="a_edge50_Node000001_Node000043"><a xlink:title=" ">
<path fill="none" stroke="#63b8ff" d="M1858.56,-291.16C1926.24,-284.35 2084.15,-268.06 2227.95,-250.09"/>
<polygon fill="#63b8ff" stroke="#63b8ff" points="2228.79,-253.52 2238.28,-248.8 2227.92,-246.57 2228.79,-253.52"/>
</a>
</g>
</g>
<!-- Node44 -->
<g id="Node000044" class="node">
<title>Node44</title>
<g id="a_Node000044"><a xlink:href="node__loader_8h.html" target="_top" xlink:title=" ">
<polygon fill="white" stroke="#666666" points="2454.5,-250 2357.5,-250 2357.5,-231 2454.5,-231 2454.5,-250"/>
<text text-anchor="middle" x="2406" y="-238" font-family="Helvetica,sans-Serif" font-size="10.00">io/node_loader.h</text>
</a>
</g>
</g>
<!-- Node1&#45;&gt;Node44 -->
<g id="edge51_Node000001_Node000044" class="edge">
<title>Node1&#45;&gt;Node44</title>
<g id="a_edge51_Node000001_Node000044"><a xlink:title=" ">
<path fill="none" stroke="#63b8ff" d="M1858.79,-292.37C1940.73,-287.06 2156.69,-272.11 2347.02,-250.17"/>
<polygon fill="#63b8ff" stroke="#63b8ff" points="2347.68,-253.61 2357.21,-248.98 2346.87,-246.66 2347.68,-253.61"/>
</a>
</g>
</g>
<!-- Node45 -->
<g id="Node000045" class="node">
<title>Node45</title>
<g id="a_Node000045"><a xlink:href="physics_8h.html" target="_top" xlink:title=" ">
<polygon fill="white" stroke="#666666" points="1758,-250 1656,-250 1656,-231 1758,-231 1758,-250"/>
<text text-anchor="middle" x="1707" y="-238" font-family="Helvetica,sans-Serif" font-size="10.00">physics/physics.h</text>
</a>
</g>
</g>
<!-- Node1&#45;&gt;Node45 -->
<g id="edge52_Node000001_Node000045" class="edge">
<title>Node1&#45;&gt;Node45</title>
<g id="a_edge52_Node000001_Node000045"><a xlink:title=" ">
<path fill="none" stroke="#63b8ff" d="M1806.04,-285.98C1786.97,-277.42 1757.34,-264.11 1735.45,-254.28"/>
<polygon fill="#63b8ff" stroke="#63b8ff" points="1736.86,-251.07 1726.3,-250.17 1733.99,-257.46 1736.86,-251.07"/>
</a>
</g>
</g>
<!-- Node46 -->
<g id="Node000046" class="node">
<title>Node46</title>
<g id="a_Node000046"><a xlink:href="frame_8h.html" target="_top" xlink:title="GUI Frame and related structures for SDL and OpenGL project.">
<polygon fill="white" stroke="#666666" points="2545.5,-250 2472.5,-250 2472.5,-231 2545.5,-231 2545.5,-250"/>
<text text-anchor="middle" x="2509" y="-238" font-family="Helvetica,sans-Serif" font-size="10.00">gui/frame.h</text>
</a>
</g>
</g>
<!-- Node1&#45;&gt;Node46 -->
<g id="edge57_Node000001_Node000046" class="edge">
<title>Node1&#45;&gt;Node46</title>
<g id="a_edge57_Node000001_Node000046"><a xlink:title=" ">
<path fill="none" stroke="#63b8ff" d="M1858.74,-293.54C1952.77,-290.58 2225.88,-279.96 2462.07,-250.11"/>
<polygon fill="#63b8ff" stroke="#63b8ff" points="2462.74,-253.55 2472.22,-248.81 2461.86,-246.61 2462.74,-253.55"/>
</a>
</g>
</g>
<!-- Node47 -->
<g id="Node000047" class="node">
<title>Node47</title>
<g id="a_Node000047"><a xlink:href="settings_8h.html" target="_top" xlink:title=" ">
<polygon fill="white" stroke="#666666" points="2628.5,-250 2563.5,-250 2563.5,-231 2628.5,-231 2628.5,-250"/>
<text text-anchor="middle" x="2596" y="-238" font-family="Helvetica,sans-Serif" font-size="10.00">settings.h</text>
</a>
</g>
</g>
<!-- Node1&#45;&gt;Node47 -->
<g id="edge58_Node000001_Node000047" class="edge">
<title>Node1&#45;&gt;Node47</title>
<g id="a_edge58_Node000001_Node000047"><a xlink:title=" ">
<path fill="none" stroke="#63b8ff" d="M1858.64,-294.16C1961.39,-292.77 2280.27,-285.78 2553.3,-250.04"/>
<polygon fill="#63b8ff" stroke="#63b8ff" points="2553.94,-253.48 2563.4,-248.7 2553.03,-246.54 2553.94,-253.48"/>
</a>
</g>
</g>
<!-- Node48 -->
<g id="Node000048" class="node">
<title>Node48</title>
<g id="a_Node000048"><a xlink:href="memory_8h.html" target="_top" xlink:title="Header file for memory management functions and structures.">
<polygon fill="white" stroke="#666666" points="2711.5,-250 2646.5,-250 2646.5,-231 2711.5,-231 2711.5,-250"/>
<text text-anchor="middle" x="2679" y="-238" font-family="Helvetica,sans-Serif" font-size="10.00">memory.h</text>
</a>
</g>
</g>
<!-- Node1&#45;&gt;Node48 -->
<g id="edge59_Node000001_Node000048" class="edge">
<title>Node1&#45;&gt;Node48</title>
<g id="a_edge59_Node000001_Node000048"><a xlink:title=" ">
<path fill="none" stroke="#63b8ff" d="M1858.85,-294.46C1969.4,-293.94 2329.82,-289.23 2636.43,-250.01"/>
<polygon fill="#63b8ff" stroke="#63b8ff" points="2636.93,-253.47 2646.4,-248.72 2636.03,-246.53 2636.93,-253.47"/>
</a>
</g>
</g>
<!-- Node49 -->
<g id="Node000049" class="node">
<title>Node49</title>
<g id="a_Node000049"><a xlink:href="buffer_8h.html" target="_top" xlink:title="Functions for initializing and freeing Game.buffers&#45;&gt;">
<polygon fill="white" stroke="#666666" points="2782.5,-250 2729.5,-250 2729.5,-231 2782.5,-231 2782.5,-250"/>
<text text-anchor="middle" x="2756" y="-238" font-family="Helvetica,sans-Serif" font-size="10.00">buffer.h</text>
</a>
</g>
</g>
<!-- Node1&#45;&gt;Node49 -->
<g id="edge60_Node000001_Node000049" class="edge">
<title>Node1&#45;&gt;Node49</title>
<g id="a_edge60_Node000001_Node000049"><a xlink:title=" ">
<path fill="none" stroke="#63b8ff" d="M1858.68,-293.68C1997.95,-290.15 2530,-275.37 2719.26,-249.94"/>
<polygon fill="#63b8ff" stroke="#63b8ff" points="2719.93,-253.38 2729.35,-248.52 2718.96,-246.44 2719.93,-253.38"/>
</a>
</g>
</g>
<!-- Node50 -->
<g id="Node000050" class="node">
<title>Node50</title>
<g id="a_Node000050"><a xlink:href="queue_8h.html" target="_top" xlink:title="Queue data structure and related operations.">
<polygon fill="white" stroke="#666666" points="2895.5,-250 2800.5,-250 2800.5,-231 2895.5,-231 2895.5,-250"/>
<text text-anchor="middle" x="2848" y="-238" font-family="Helvetica,sans-Serif" font-size="10.00">storage/queue.h</text>
</a>
</g>
</g>
<!-- Node1&#45;&gt;Node50 -->
<g id="edge61_Node000001_Node000050" class="edge">
<title>Node1&#45;&gt;Node50</title>
<g id="a_edge61_Node000001_Node000050"><a xlink:title=" ">
<path fill="none" stroke="#63b8ff" d="M1858.92,-294.22C1982.43,-292.94 2419.82,-286.05 2790.27,-250.07"/>
<polygon fill="#63b8ff" stroke="#63b8ff" points="2790.77,-253.53 2800.38,-249.07 2790.09,-246.57 2790.77,-253.53"/>
</a>
</g>
</g>
<!-- Node51 -->
<g id="Node000051" class="node">
<title>Node51</title>
<g id="a_Node000051"><a xlink:href="hash_8h.html" target="_top" xlink:title=" ">
<polygon fill="white" stroke="#666666" points="267.5,-140 178.5,-140 178.5,-121 267.5,-121 267.5,-140"/>
<text text-anchor="middle" x="223" y="-128" font-family="Helvetica,sans-Serif" font-size="10.00">storage/hash.h</text>
</a>
</g>
</g>
<!-- Node1&#45;&gt;Node51 -->
<g id="edge62_Node000001_Node000051" class="edge">
<title>Node1&#45;&gt;Node51</title>
<g id="a_edge62_Node000001_Node000051"><a xlink:title=" ">
<path fill="none" stroke="#63b8ff" d="M1791.18,-294.06C1675.27,-292.28 1283.52,-283.97 962,-250 703.35,-222.67 397.38,-165.63 276.21,-142.05"/>
<polygon fill="#63b8ff" stroke="#63b8ff" points="276.58,-138.56 266.1,-140.08 275.24,-145.43 276.58,-138.56"/>
</a>
</g>
</g>
<!-- Node52 -->
<g id="Node000052" class="node">
<title>Node52</title>
<g id="a_Node000052"><a xlink:href="scene_8h.html" target="_top" xlink:title=" ">
<polygon fill="white" stroke="#666666" points="2992,-250 2914,-250 2914,-231 2992,-231 2992,-250"/>
<text text-anchor="middle" x="2953" y="-238" font-family="Helvetica,sans-Serif" font-size="10.00">utils/scene.h</text>
</a>
</g>
</g>
<!-- Node1&#45;&gt;Node52 -->
<g id="edge64_Node000001_Node000052" class="edge">
<title>Node1&#45;&gt;Node52</title>
<g id="a_edge64_Node000001_Node000052"><a xlink:title=" ">
<path fill="none" stroke="#63b8ff" d="M1858.72,-294.75C1990.88,-295.4 2486.49,-294.61 2903.62,-249.98"/>
<polygon fill="#63b8ff" stroke="#63b8ff" points="2904.2,-253.44 2913.77,-248.89 2903.45,-246.48 2904.2,-253.44"/>
</a>
</g>
</g>
<!-- Node53 -->
<g id="Node000053" class="node">
<title>Node53</title>
<g id="a_Node000053"><a xlink:href="classes_8h.html" target="_top" xlink:title=" ">
<polygon fill="white" stroke="#666666" points="1915.5,-250 1814.5,-250 1814.5,-231 1915.5,-231 1915.5,-250"/>
<text text-anchor="middle" x="1865" y="-238" font-family="Helvetica,sans-Serif" font-size="10.00">classes/classes.h</text>
</a>
</g>
</g>
<!-- Node1&#45;&gt;Node53 -->
<g id="edge65_Node000001_Node000053" class="edge">
<title>Node1&#45;&gt;Node53</title>
<g id="a_edge65_Node000001_Node000053"><a xlink:title=" ">
<path fill="none" stroke="#63b8ff" d="M1831.61,-285.75C1837.26,-278.26 1845.54,-267.28 1852.45,-258.13"/>
<polygon fill="#63b8ff" stroke="#63b8ff" points="1855.29,-260.18 1858.52,-250.09 1849.7,-255.96 1855.29,-260.18"/>
</a>
</g>
</g>
<!-- Node3 -->
<g id="Node000003" class="node">
<title>Node3</title>
<g id="a_Node000003"><a xlink:title=" ">
<polygon fill="#e0e0e0" stroke="#999999" points="204,-79.5 154,-79.5 154,-60.5 204,-60.5 204,-79.5"/>
<text text-anchor="middle" x="179" y="-67.5" font-family="Helvetica,sans-Serif" font-size="10.00">stdio.h</text>
</a>
</g>
</g>
<!-- Node2&#45;&gt;Node3 -->
<g id="edge2_Node000002_Node000003" class="edge">
<title>Node2&#45;&gt;Node3</title>
<g id="a_edge2_Node000002_Node000003"><a xlink:title=" ">
<path fill="none" stroke="#63b8ff" d="M835.94,-128.59C716.27,-125.35 333.05,-112.98 213,-85 210.78,-84.48 208.51,-83.84 206.26,-83.11"/>
<polygon fill="#63b8ff" stroke="#63b8ff" points="207.23,-79.73 196.64,-79.53 204.79,-86.29 207.23,-79.73"/>
</a>
</g>
</g>
<!-- Node4 -->
<g id="Node000004" class="node">
<title>Node4</title>
<g id="a_Node000004"><a xlink:title=" ">
<polygon fill="#e0e0e0" stroke="#999999" points="275.5,-79.5 222.5,-79.5 222.5,-60.5 275.5,-60.5 275.5,-79.5"/>
<text text-anchor="middle" x="249" y="-67.5" font-family="Helvetica,sans-Serif" font-size="10.00">stdint.h</text>
</a>
</g>
</g>
<!-- Node2&#45;&gt;Node4 -->
<g id="edge3_Node000002_Node000004" class="edge">
<title>Node2&#45;&gt;Node4</title>
<g id="a_edge3_Node000002_Node000004"><a xlink:title=" ">
<path fill="none" stroke="#63b8ff" d="M835.69,-128.15C724.66,-123.8 390.77,-109.02 285,-85 282.63,-84.46 280.2,-83.79 277.79,-83.05"/>
<polygon fill="#63b8ff" stroke="#63b8ff" points="278.7,-79.65 268.1,-79.63 276.37,-86.26 278.7,-79.65"/>
</a>
</g>
</g>
<!-- Node5 -->
<g id="Node000005" class="node">
<title>Node5</title>
<g id="a_Node000005"><a xlink:title=" ">
<polygon fill="#e0e0e0" stroke="#999999" points="62,-79.5 0,-79.5 0,-60.5 62,-60.5 62,-79.5"/>
<text text-anchor="middle" x="31" y="-67.5" font-family="Helvetica,sans-Serif" font-size="10.00">stdbool.h</text>
</a>
</g>
</g>
<!-- Node2&#45;&gt;Node5 -->
<g id="edge4_Node000002_Node000005" class="edge">
<title>Node2&#45;&gt;Node5</title>
<g id="a_edge4_Node000002_Node000005"><a xlink:title=" ">
<path fill="none" stroke="#63b8ff" d="M835.55,-128.83C699.34,-126.13 220.41,-114.68 71,-85 67.92,-84.39 64.76,-83.59 61.63,-82.69"/>
<polygon fill="#63b8ff" stroke="#63b8ff" points="62.46,-79.28 51.86,-79.54 60.31,-85.94 62.46,-79.28"/>
</a>
</g>
</g>
<!-- Node6 -->
<g id="Node000006" class="node">
<title>Node6</title>
<g id="a_Node000006"><a xlink:title=" ">
<polygon fill="#e0e0e0" stroke="#999999" points="350,-79.5 294,-79.5 294,-60.5 350,-60.5 350,-79.5"/>
<text text-anchor="middle" x="322" y="-67.5" font-family="Helvetica,sans-Serif" font-size="10.00">stdarg.h</text>
</a>
</g>
</g>
<!-- Node2&#45;&gt;Node6 -->
<g id="edge5_Node000002_Node000006" class="edge">
<title>Node2&#45;&gt;Node6</title>
<g id="a_edge5_Node000002_Node000006"><a xlink:title=" ">
<path fill="none" stroke="#63b8ff" d="M835.71,-129.75C751.07,-129.6 534.41,-124.99 359,-85 356.48,-84.43 353.9,-83.72 351.34,-82.93"/>
<polygon fill="#63b8ff" stroke="#63b8ff" points="352.25,-79.54 341.66,-79.58 349.97,-86.16 352.25,-79.54"/>
</a>
</g>
</g>
<!-- Node7 -->
<g id="Node000007" class="node">
<title>Node7</title>
<g id="a_Node000007"><a xlink:title=" ">
<polygon fill="#e0e0e0" stroke="#999999" points="421.5,-79.5 368.5,-79.5 368.5,-60.5 421.5,-60.5 421.5,-79.5"/>
<text text-anchor="middle" x="395" y="-67.5" font-family="Helvetica,sans-Serif" font-size="10.00">limits.h</text>
</a>
</g>
</g>
<!-- Node2&#45;&gt;Node7 -->
<g id="edge6_Node000002_Node000007" class="edge">
<title>Node2&#45;&gt;Node7</title>
<g id="a_edge6_Node000002_Node000007"><a xlink:title=" ">
<path fill="none" stroke="#63b8ff" d="M835.72,-129.13C759.63,-127.65 578.21,-120.36 431,-85 428.63,-84.43 426.22,-83.74 423.81,-82.98"/>
<polygon fill="#63b8ff" stroke="#63b8ff" points="424.72,-79.59 414.12,-79.54 422.37,-86.19 424.72,-79.59"/>
</a>
</g>
</g>
<!-- Node8 -->
<g id="Node000008" class="node">
<title>Node8</title>
<g id="a_Node000008"><a xlink:title=" ">
<polygon fill="#e0e0e0" stroke="#999999" points="512,-79.5 440,-79.5 440,-60.5 512,-60.5 512,-79.5"/>
<text text-anchor="middle" x="476" y="-67.5" font-family="Helvetica,sans-Serif" font-size="10.00">SDL2/SDL.h</text>
</a>
</g>
</g>
<!-- Node2&#45;&gt;Node8 -->
<g id="edge7_Node000002_Node000008" class="edge">
<title>Node2&#45;&gt;Node8</title>
<g id="a_edge7_Node000002_Node000008"><a xlink:title=" ">
<path fill="none" stroke="#63b8ff" d="M835.77,-127.01C771.7,-122.15 634.45,-109.64 521,-85 517.62,-84.27 514.13,-83.39 510.65,-82.45"/>
<polygon fill="#63b8ff" stroke="#63b8ff" points="511.6,-79.08 501.02,-79.64 509.64,-85.8 511.6,-79.08"/>
</a>
</g>
</g>
<!-- Node9 -->
<g id="Node000009" class="node">
<title>Node9</title>
<g id="a_Node000009"><a xlink:title=" ">
<polygon fill="#e0e0e0" stroke="#999999" points="638,-79.5 530,-79.5 530,-60.5 638,-60.5 638,-79.5"/>
<text text-anchor="middle" x="584" y="-67.5" font-family="Helvetica,sans-Serif" font-size="10.00">SDL2/SDL_image.h</text>
</a>
</g>
</g>
<!-- Node2&#45;&gt;Node9 -->
<g id="edge8_Node000002_Node000009" class="edge">
<title>Node2&#45;&gt;Node9</title>
<g id="a_edge8_Node000002_Node000009"><a xlink:title=" ">
<path fill="none" stroke="#63b8ff" d="M835.71,-122.59C791.19,-114.06 713.44,-98.95 647,-85 641.99,-83.95 636.76,-82.82 631.55,-81.69"/>
<polygon fill="#63b8ff" stroke="#63b8ff" points="632.13,-78.24 621.61,-79.51 630.63,-85.07 632.13,-78.24"/>
</a>
</g>
</g>
<!-- Node10 -->
<g id="Node000010" class="node">
<title>Node10</title>
<g id="a_Node000010"><a xlink:title=" ">
<polygon fill="#e0e0e0" stroke="#999999" points="766,-79.5 656,-79.5 656,-60.5 766,-60.5 766,-79.5"/>
<text text-anchor="middle" x="711" y="-67.5" font-family="Helvetica,sans-Serif" font-size="10.00">SDL2/SDL_opengl.h</text>
</a>
</g>
</g>
<!-- Node2&#45;&gt;Node10 -->
<g id="edge9_Node000002_Node000010" class="edge">
<title>Node2&#45;&gt;Node10</title>
<g id="a_edge9_Node000002_Node000010"><a xlink:title=" ">
<path fill="none" stroke="#63b8ff" d="M848.59,-120.99C821.05,-110.99 775.13,-94.3 743.99,-82.99"/>
<polygon fill="#63b8ff" stroke="#63b8ff" points="745.03,-79.64 734.44,-79.52 742.64,-86.22 745.03,-79.64"/>
</a>
</g>
</g>
<!-- Node11 -->
<g id="Node000011" class="node">
<title>Node11</title>
<g id="a_Node000011"><a xlink:title=" ">
<polygon fill="#e0e0e0" stroke="#999999" points="888,-79.5 784,-79.5 784,-60.5 888,-60.5 888,-79.5"/>
<text text-anchor="middle" x="836" y="-67.5" font-family="Helvetica,sans-Serif" font-size="10.00">SDL2/SDL_mixer.h</text>
</a>
</g>
</g>
<!-- Node2&#45;&gt;Node11 -->
<g id="edge10_Node000002_Node000011" class="edge">
<title>Node2&#45;&gt;Node11</title>
<g id="a_edge10_Node000002_Node000011"><a xlink:title=" ">
<path fill="none" stroke="#63b8ff" d="M866.69,-120.87C861.42,-112.31 853.21,-98.97 846.61,-88.24"/>
<polygon fill="#63b8ff" stroke="#63b8ff" points="849.56,-86.35 841.33,-79.67 843.59,-90.02 849.56,-86.35"/>
</a>
</g>
</g>
<!-- Node12 -->
<g id="Node000012" class="node">
<title>Node12</title>
<g id="a_Node000012"><a xlink:title=" ">
<polygon fill="#e0e0e0" stroke="#999999" points="994,-79.5 906,-79.5 906,-60.5 994,-60.5 994,-79.5"/>
<text text-anchor="middle" x="950" y="-67.5" font-family="Helvetica,sans-Serif" font-size="10.00">SDL2/SDL_ttf.h</text>
</a>
</g>
</g>
<!-- Node2&#45;&gt;Node12 -->
<g id="edge11_Node000002_Node000012" class="edge">
<title>Node2&#45;&gt;Node12</title>
<g id="a_edge11_Node000002_Node000012"><a xlink:title=" ">
<path fill="none" stroke="#63b8ff" d="M883.51,-120.87C895.84,-111.62 915.62,-96.78 930.41,-85.69"/>
<polygon fill="#63b8ff" stroke="#63b8ff" points="932.54,-88.47 938.44,-79.67 928.34,-82.87 932.54,-88.47"/>
</a>
</g>
</g>
<!-- Node13 -->
<g id="Node000013" class="node">
<title>Node13</title>
<g id="a_Node000013"><a xlink:title=" ">
<polygon fill="#e0e0e0" stroke="#999999" points="1062,-79.5 1012,-79.5 1012,-60.5 1062,-60.5 1062,-79.5"/>
<text text-anchor="middle" x="1037" y="-67.5" font-family="Helvetica,sans-Serif" font-size="10.00">GL/gl.h</text>
</a>
</g>
</g>
<!-- Node2&#45;&gt;Node13 -->
<g id="edge12_Node000002_Node000013" class="edge">
<title>Node2&#45;&gt;Node13</title>
<g id="a_edge12_Node000002_Node000013"><a xlink:title=" ">
<path fill="none" stroke="#63b8ff" d="M898.77,-120.95C925.37,-112.34 967.24,-98.42 1003,-85 1004.42,-84.47 1005.87,-83.91 1007.33,-83.35"/>
<polygon fill="#63b8ff" stroke="#63b8ff" points="1008.96,-86.46 1016.95,-79.5 1006.36,-79.96 1008.96,-86.46"/>
</a>
</g>
</g>
<!-- Node14 -->
<g id="Node000014" class="node">
<title>Node14</title>
<g id="a_Node000014"><a xlink:title=" ">
<polygon fill="#e0e0e0" stroke="#999999" points="1136,-79.5 1080,-79.5 1080,-60.5 1136,-60.5 1136,-79.5"/>
<text text-anchor="middle" x="1108" y="-67.5" font-family="Helvetica,sans-Serif" font-size="10.00">GL/glu.h</text>
</a>
</g>
</g>
<!-- Node2&#45;&gt;Node14 -->
<g id="edge13_Node000002_Node000014" class="edge">
<title>Node2&#45;&gt;Node14</title>
<g id="a_edge13_Node000002_Node000014"><a xlink:title=" ">
<path fill="none" stroke="#63b8ff" d="M908.35,-122.98C948.55,-115.4 1015.04,-101.75 1071,-85 1073.14,-84.36 1075.33,-83.66 1077.53,-82.92"/>
<polygon fill="#63b8ff" stroke="#63b8ff" points="1078.8,-86.18 1087.05,-79.52 1076.45,-79.58 1078.8,-86.18"/>
</a>
</g>
</g>
<!-- Node15 -->
<g id="Node000015" class="node">
<title>Node15</title>
<g id="a_Node000015"><a xlink:title=" ">
<polygon fill="#e0e0e0" stroke="#999999" points="1220,-79.5 1154,-79.5 1154,-60.5 1220,-60.5 1220,-79.5"/>
<text text-anchor="middle" x="1187" y="-67.5" font-family="Helvetica,sans-Serif" font-size="10.00">GL/glext.h</text>
</a>
</g>
</g>
<!-- Node2&#45;&gt;Node15 -->
<g id="edge14_Node000002_Node000015" class="edge">
<title>Node2&#45;&gt;Node15</title>
<g id="a_edge14_Node000002_Node000015"><a xlink:title=" ">
<path fill="none" stroke="#63b8ff" d="M908.14,-125.48C960.76,-119.21 1061.31,-105.63 1145,-85 1147.96,-84.27 1151.02,-83.43 1154.07,-82.53"/>
<polygon fill="#63b8ff" stroke="#63b8ff" points="1155.16,-85.86 1163.65,-79.52 1153.06,-79.18 1155.16,-85.86"/>
</a>
</g>
</g>
<!-- Node16 -->
<g id="Node000016" class="node">
<title>Node16</title>
<g id="a_Node000016"><a xlink:title=" ">
<polygon fill="#e0e0e0" stroke="#999999" points="1315.5,-79.5 1238.5,-79.5 1238.5,-60.5 1315.5,-60.5 1315.5,-79.5"/>
<text text-anchor="middle" x="1277" y="-67.5" font-family="Helvetica,sans-Serif" font-size="10.00">cglm/cglm.h</text>
</a>
</g>
</g>
<!-- Node2&#45;&gt;Node16 -->
<g id="edge15_Node000002_Node000016" class="edge">
<title>Node2&#45;&gt;Node16</title>
<g id="a_edge15_Node000002_Node000016"><a xlink:title=" ">
<path fill="none" stroke="#63b8ff" d="M908.03,-126.92C972.8,-121.87 1112.94,-109 1229,-85 1232.86,-84.2 1236.86,-83.25 1240.83,-82.22"/>
<polygon fill="#63b8ff" stroke="#63b8ff" points="1241.82,-85.57 1250.53,-79.54 1239.96,-78.82 1241.82,-85.57"/>
</a>
</g>
</g>
<!-- Node17 -->
<g id="Node000017" class="node">
<title>Node17</title>
<g id="a_Node000017"><a xlink:title=" ">
<polygon fill="#e0e0e0" stroke="#999999" points="1384.5,-79.5 1333.5,-79.5 1333.5,-60.5 1384.5,-60.5 1384.5,-79.5"/>
<text text-anchor="middle" x="1359" y="-67.5" font-family="Helvetica,sans-Serif" font-size="10.00">math.h</text>
</a>
</g>
</g>
<!-- Node2&#45;&gt;Node17 -->
<g id="edge16_Node000002_Node000017" class="edge">
<title>Node2&#45;&gt;Node17</title>
<g id="a_edge16_Node000002_Node000017"><a xlink:title=" ">
<path fill="none" stroke="#63b8ff" d="M908.06,-126.54C1008.04,-118.25 1283.97,-94.77 1324,-85 1326.31,-84.44 1328.66,-83.75 1331.01,-82.99"/>
<polygon fill="#63b8ff" stroke="#63b8ff" points="1332.23,-86.27 1340.43,-79.56 1329.84,-79.69 1332.23,-86.27"/>
</a>
</g>
</g>
<!-- Node18 -->
<g id="Node000018" class="node">
<title>Node18</title>
<g id="a_Node000018"><a xlink:href="stringio_8h.html" target="_top" xlink:title="Provides utility functions for string and file operations.">
<polygon fill="white" stroke="#666666" points="1477,-79.5 1403,-79.5 1403,-60.5 1477,-60.5 1477,-79.5"/>
<text text-anchor="middle" x="1440" y="-67.5" font-family="Helvetica,sans-Serif" font-size="10.00">io/stringio.h</text>
</a>
</g>
</g>
<!-- Node2&#45;&gt;Node18 -->
<g id="edge17_Node000002_Node000018" class="edge">
<title>Node2&#45;&gt;Node18</title>
<g id="a_edge17_Node000002_Node000018"><a xlink:title=" ">
<path fill="none" stroke="#63b8ff" d="M908.3,-126.83C1018.68,-118.66 1345.67,-93.97 1393,-85 1396.93,-84.25 1401.01,-83.31 1405.04,-82.27"/>
<polygon fill="#63b8ff" stroke="#63b8ff" points="1406.18,-85.58 1414.87,-79.52 1404.29,-78.84 1406.18,-85.58"/>
</a>
</g>
</g>
<!-- Node20 -->
<g id="Node000020" class="node">
<title>Node20</title>
<g id="a_Node000020"><a xlink:href="config_8h.html" target="_top" xlink:title=" ">
<polygon fill="white" stroke="#666666" points="135.5,-79.5 80.5,-79.5 80.5,-60.5 135.5,-60.5 135.5,-79.5"/>
<text text-anchor="middle" x="108" y="-67.5" font-family="Helvetica,sans-Serif" font-size="10.00">config.h</text>
</a>
</g>
</g>
<!-- Node2&#45;&gt;Node20 -->
<g id="edge19_Node000002_Node000020" class="edge">
<title>Node2&#45;&gt;Node20</title>
<g id="a_edge19_Node000002_Node000020"><a xlink:title=" ">
<path fill="none" stroke="#63b8ff" d="M835.86,-128.72C708.24,-125.75 279.14,-113.79 145,-85 142.32,-84.43 139.58,-83.69 136.86,-82.86"/>
<polygon fill="#63b8ff" stroke="#63b8ff" points="137.85,-79.5 127.25,-79.54 135.56,-86.11 137.85,-79.5"/>
</a>
</g>
</g>
<!-- Node19 -->
<g id="Node000019" class="node">
<title>Node19</title>
<g id="a_Node000019"><a xlink:title=" ">
<polygon fill="#e0e0e0" stroke="#999999" points="1466.5,-19 1413.5,-19 1413.5,0 1466.5,0 1466.5,-19"/>
<text text-anchor="middle" x="1440" y="-7" font-family="Helvetica,sans-Serif" font-size="10.00">string.h</text>
</a>
</g>
</g>
<!-- Node18&#45;&gt;Node19 -->
<g id="edge18_Node000018_Node000019" class="edge">
<title>Node18&#45;&gt;Node19</title>
<g id="a_edge18_Node000018_Node000019"><a xlink:title=" ">
<path fill="none" stroke="#63b8ff" d="M1440,-60.37C1440,-52.25 1440,-39.81 1440,-29.39"/>
<polygon fill="#63b8ff" stroke="#63b8ff" points="1443.5,-29.17 1440,-19.17 1436.5,-29.17 1443.5,-29.17"/>
</a>
</g>
</g>
<!-- Node21 -->
<g id="Node000021" class="node">
<title>Node21</title>
<g id="a_Node000021"><a xlink:href="term_8h.html" target="_top" xlink:title=" ">
<polygon fill="#fff0f0" stroke="red" points="145.5,-19 70.5,-19 70.5,0 145.5,0 145.5,-19"/>
<text text-anchor="middle" x="108" y="-7" font-family="Helvetica,sans-Serif" font-size="10.00">term/term.h</text>
</a>
</g>
</g>
<!-- Node20&#45;&gt;Node21 -->
<g id="edge20_Node000020_Node000021" class="edge">
<title>Node20&#45;&gt;Node21</title>
<g id="a_edge20_Node000020_Node000021"><a xlink:title=" ">
<path fill="none" stroke="#63b8ff" d="M108,-60.37C108,-52.25 108,-39.81 108,-29.39"/>
<polygon fill="#63b8ff" stroke="#63b8ff" points="111.5,-29.17 108,-19.17 104.5,-29.17 111.5,-29.17"/>
</a>
</g>
</g>
<!-- Node25&#45;&gt;Node26 -->
<g id="edge23_Node000025_Node000026" class="edge">
<title>Node25&#45;&gt;Node26</title>
<g id="a_edge23_Node000025_Node000026"><a xlink:title=" ">
<path fill="none" stroke="#63b8ff" d="M1524,-120.87C1524,-112.75 1524,-100.31 1524,-89.89"/>
<polygon fill="#63b8ff" stroke="#63b8ff" points="1527.5,-89.67 1524,-79.67 1520.5,-89.67 1527.5,-89.67"/>
</a>
</g>
</g>
<!-- Node27 -->
<g id="Node000027" class="node">
<title>Node27</title>
<g id="a_Node000027"><a xlink:href="model__loader_8h.html" target="_top" xlink:title=" ">
<polygon fill="#fff0f0" stroke="red" points="1693,-85 1571,-85 1571,-55 1693,-55 1693,-85"/>
<text text-anchor="start" x="1579" y="-73" font-family="Helvetica,sans-Serif" font-size="10.00">model_loaders/model</text>
<text text-anchor="middle" x="1632" y="-62" font-family="Helvetica,sans-Serif" font-size="10.00">_loader.h</text>
</a>
</g>
</g>
<!-- Node25&#45;&gt;Node27 -->
<g id="edge24_Node000025_Node000027" class="edge">
<title>Node25&#45;&gt;Node27</title>
<g id="a_edge24_Node000025_Node000027"><a xlink:title=" ">
<path fill="none" stroke="#63b8ff" d="M1539.94,-120.87C1554.93,-112.75 1577.89,-100.31 1597.13,-89.89"/>
<polygon fill="#63b8ff" stroke="#63b8ff" points="1598.82,-92.96 1605.94,-85.11 1595.48,-86.8 1598.82,-92.96"/>
</a>
</g>
</g>
<!-- Node31&#45;&gt;Node32 -->
<g id="edge26_Node000031_Node000032" class="edge">
<title>Node31&#45;&gt;Node32</title>
<g id="a_edge26_Node000031_Node000032"><a xlink:title=" ">
<path fill="none" stroke="#63b8ff" d="M1621.49,-175.75C1622.67,-168.8 1624.36,-158.85 1625.84,-150.13"/>
<polygon fill="#63b8ff" stroke="#63b8ff" points="1629.32,-150.53 1627.54,-140.09 1622.42,-149.36 1629.32,-150.53"/>
</a>
</g>
</g>
<!-- Node33&#45;&gt;Node26 -->
<g id="edge28_Node000033_Node000026" class="edge">
<title>Node33&#45;&gt;Node26</title>
<g id="a_edge28_Node000033_Node000026"><a xlink:title=" ">
<path fill="none" stroke="#63b8ff" d="M1340.02,-230.9C1340.54,-209.15 1345.05,-151.52 1377,-121 1413.89,-85.76 1437.83,-101.82 1486,-85 1487.84,-84.36 1489.73,-83.69 1491.64,-83.01"/>
<polygon fill="#63b8ff" stroke="#63b8ff" points="1492.93,-86.26 1501.14,-79.57 1490.54,-79.68 1492.93,-86.26"/>
</a>
</g>
</g>
<!-- Node33&#45;&gt;Node31 -->
<g id="edge39_Node000033_Node000031" class="edge">
<title>Node33&#45;&gt;Node31</title>
<g id="a_edge39_Node000033_Node000031"><a xlink:title=" ">
<path fill="none" stroke="#63b8ff" d="M1384.68,-231.04C1433.7,-221.76 1512.43,-206.86 1565.16,-196.88"/>
<polygon fill="#63b8ff" stroke="#63b8ff" points="1565.84,-200.31 1575.02,-195.01 1564.54,-193.44 1565.84,-200.31"/>
</a>
</g>
</g>
<!-- Node33&#45;&gt;Node34 -->
<g id="edge29_Node000033_Node000034" class="edge">
<title>Node33&#45;&gt;Node34</title>
<g id="a_edge29_Node000033_Node000034"><a xlink:title=" ">
<path fill="none" stroke="#63b8ff" d="M1300.15,-230.98C1257.17,-221.8 1188.63,-207.15 1142.04,-197.19"/>
<polygon fill="#63b8ff" stroke="#63b8ff" points="1142.67,-193.75 1132.16,-195.08 1141.21,-200.59 1142.67,-193.75"/>
</a>
</g>
</g>
<!-- Node33&#45;&gt;Node35 -->
<g id="edge33_Node000033_Node000035" class="edge">
<title>Node33&#45;&gt;Node35</title>
<g id="a_edge33_Node000033_Node000035"><a xlink:title=" ">
<path fill="none" stroke="#63b8ff" d="M1326.34,-230.98C1313.16,-222.77 1292.97,-210.18 1277.43,-200.49"/>
<polygon fill="#63b8ff" stroke="#63b8ff" points="1279.24,-197.49 1268.91,-195.17 1275.54,-203.43 1279.24,-197.49"/>
</a>
</g>
</g>
<!-- Node33&#45;&gt;Node36 -->
<g id="edge36_Node000033_Node000036" class="edge">
<title>Node33&#45;&gt;Node36</title>
<g id="a_edge36_Node000033_Node000036"><a xlink:title=" ">
<path fill="none" stroke="#63b8ff" d="M1352.21,-230.98C1363.78,-222.92 1381.38,-210.65 1395.16,-201.03"/>
<polygon fill="#63b8ff" stroke="#63b8ff" points="1397.37,-203.76 1403.57,-195.17 1393.36,-198.02 1397.37,-203.76"/>
</a>
</g>
</g>
<!-- Node34&#45;&gt;Node2 -->
<g id="edge30_Node000034_Node000002" class="edge">
<title>Node34&#45;&gt;Node2</title>
<g id="a_edge30_Node000034_Node000002"><a xlink:title=" ">
<path fill="none" stroke="#63b8ff" d="M1056.65,-175.98C1018.84,-166.87 958.74,-152.4 917.43,-142.45"/>
<polygon fill="#63b8ff" stroke="#63b8ff" points="918.17,-139.02 907.62,-140.08 916.53,-145.83 918.17,-139.02"/>
</a>
</g>
</g>
<!-- Node34&#45;&gt;Node24 -->
<g id="edge31_Node000034_Node000024" class="edge">
<title>Node34&#45;&gt;Node24</title>
<g id="a_edge31_Node000034_Node000024"><a xlink:title=" ">
<path fill="none" stroke="#63b8ff" d="M1105.01,-175.98C1117.46,-167.84 1136.46,-155.41 1151.21,-145.76"/>
<polygon fill="#63b8ff" stroke="#63b8ff" points="1153.3,-148.57 1159.75,-140.17 1149.46,-142.72 1153.3,-148.57"/>
</a>
</g>
</g>
<!-- Node34&#45;&gt;Node26 -->
<g id="edge32_Node000034_Node000026" class="edge">
<title>Node34&#45;&gt;Node26</title>
<g id="a_edge32_Node000034_Node000026"><a xlink:title=" ">
<path fill="none" stroke="#63b8ff" d="M1092.07,-175.88C1092.68,-161.89 1096.12,-134.48 1113,-121 1178.07,-69.04 1404.82,-103.55 1486,-85 1488.67,-84.39 1491.41,-83.64 1494.13,-82.81"/>
<polygon fill="#63b8ff" stroke="#63b8ff" points="1495.43,-86.06 1503.78,-79.54 1493.19,-79.43 1495.43,-86.06"/>
</a>
</g>
</g>
<!-- Node35&#45;&gt;Node24 -->
<g id="edge34_Node000035_Node000024" class="edge">
<title>Node35&#45;&gt;Node24</title>
<g id="a_edge34_Node000035_Node000024"><a xlink:title=" ">
<path fill="none" stroke="#63b8ff" d="M1241.83,-175.98C1229.23,-167.84 1210,-155.41 1195.06,-145.76"/>
<polygon fill="#63b8ff" stroke="#63b8ff" points="1196.71,-142.66 1186.41,-140.17 1192.91,-148.54 1196.71,-142.66"/>
</a>
</g>
</g>
<!-- Node35&#45;&gt;Node25 -->
<g id="edge35_Node000035_Node000025" class="edge">
<title>Node35&#45;&gt;Node25</title>
<g id="a_edge35_Node000035_Node000025"><a xlink:title=" ">
<path fill="none" stroke="#63b8ff" d="M1298.22,-175.98C1348.1,-166.16 1429.69,-150.08 1479.93,-140.18"/>
<polygon fill="#63b8ff" stroke="#63b8ff" points="1480.71,-143.6 1489.85,-138.23 1479.36,-136.73 1480.71,-143.6"/>
</a>
</g>
</g>
<!-- Node36&#45;&gt;Node32 -->
<g id="edge37_Node000036_Node000032" class="edge">
<title>Node36&#45;&gt;Node32</title>
<g id="a_edge37_Node000036_Node000032"><a xlink:title=" ">
<path fill="none" stroke="#63b8ff" d="M1450.22,-175.98C1486.76,-166.89 1544.78,-152.46 1584.76,-142.51"/>
<polygon fill="#63b8ff" stroke="#63b8ff" points="1585.65,-145.89 1594.51,-140.08 1583.96,-139.1 1585.65,-145.89"/>
</a>
</g>
</g>
<!-- Node37 -->
<g id="Node000037" class="node">
<title>Node37</title>
<g id="a_Node000037"><a xlink:href="signals_8h.html" target="_top" xlink:title="Signal and slot system for C projects.">
<polygon fill="white" stroke="#666666" points="1446,-140 1386,-140 1386,-121 1446,-121 1446,-140"/>
<text text-anchor="middle" x="1416" y="-128" font-family="Helvetica,sans-Serif" font-size="10.00">signals.h</text>
</a>
</g>
</g>
<!-- Node36&#45;&gt;Node37 -->
<g id="edge38_Node000036_Node000037" class="edge">
<title>Node36&#45;&gt;Node37</title>
<g id="a_edge38_Node000036_Node000037"><a xlink:title=" ">
<path fill="none" stroke="#63b8ff" d="M1416,-175.75C1416,-168.8 1416,-158.85 1416,-150.13"/>
<polygon fill="#63b8ff" stroke="#63b8ff" points="1419.5,-150.09 1416,-140.09 1412.5,-150.09 1419.5,-150.09"/>
</a>
</g>
</g>
<!-- Node38&#45;&gt;Node25 -->
<g id="edge41_Node000038_Node000025" class="edge">
<title>Node38&#45;&gt;Node25</title>
<g id="a_edge41_Node000038_Node000025"><a xlink:title=" ">
<path fill="none" stroke="#63b8ff" d="M1540.53,-230.66C1537.61,-213.17 1531.05,-173.8 1527.13,-150.27"/>
<polygon fill="#63b8ff" stroke="#63b8ff" points="1530.54,-149.45 1525.44,-140.16 1523.63,-150.6 1530.54,-149.45"/>
</a>
</g>
</g>
<!-- Node38&#45;&gt;Node31 -->
<g id="edge42_Node000038_Node000031" class="edge">
<title>Node38&#45;&gt;Node31</title>
<g id="a_edge42_Node000038_Node000031"><a xlink:title=" ">
<path fill="none" stroke="#63b8ff" d="M1554.53,-230.98C1566.4,-222.92 1584.46,-210.65 1598.61,-201.03"/>
<polygon fill="#63b8ff" stroke="#63b8ff" points="1600.94,-203.69 1607.24,-195.17 1597,-197.9 1600.94,-203.69"/>
</a>
</g>
</g>
<!-- Node45&#45;&gt;Node32 -->
<g id="edge53_Node000045_Node000032" class="edge">
<title>Node45&#45;&gt;Node32</title>
<g id="a_edge53_Node000045_Node000032"><a xlink:title=" ">
<path fill="none" stroke="#63b8ff" d="M1705.98,-230.97C1704.08,-218.06 1699.06,-193.23 1687,-176 1678.3,-163.57 1665.08,-153.05 1653.46,-145.36"/>
<polygon fill="#63b8ff" stroke="#63b8ff" points="1655.31,-142.39 1644.98,-140.05 1651.6,-148.32 1655.31,-142.39"/>
</a>
</g>
</g>
<!-- Node45&#45;&gt;Node40 -->
<g id="edge54_Node000045_Node000040" class="edge">
<title>Node45&#45;&gt;Node40</title>
<g id="a_edge54_Node000045_Node000040"><a xlink:title=" ">
<path fill="none" stroke="#63b8ff" d="M1719.37,-230.98C1731.09,-222.92 1748.92,-210.65 1762.89,-201.03"/>
<polygon fill="#63b8ff" stroke="#63b8ff" points="1765.15,-203.72 1771.4,-195.17 1761.18,-197.96 1765.15,-203.72"/>
</a>
</g>
</g>
<!-- Node51&#45;&gt;Node5 -->
<g id="edge63_Node000051_Node000005" class="edge">
<title>Node51&#45;&gt;Node5</title>
<g id="a_edge63_Node000051_Node000005"><a xlink:title=" ">
<path fill="none" stroke="#63b8ff" d="M192,-120.93C161.18,-112.3 112.63,-98.37 71,-85 68.89,-84.32 66.73,-83.61 64.55,-82.89"/>
<polygon fill="#63b8ff" stroke="#63b8ff" points="65.64,-79.56 55.05,-79.64 63.38,-86.18 65.64,-79.56"/>
</a>
</g>
</g>
<!-- Node53&#45;&gt;Node2 -->
<g id="edge68_Node000053_Node000002" class="edge">
<title>Node53&#45;&gt;Node2</title>
<g id="a_edge68_Node000053_Node000002"><a xlink:title=" ">
<path fill="none" stroke="#63b8ff" d="M1864.58,-230.74C1863.37,-216.56 1858.74,-188.87 1841,-176 1831.54,-169.14 1109.53,-140.7 918.13,-133.28"/>
<polygon fill="#63b8ff" stroke="#63b8ff" points="918.24,-129.78 908.12,-132.89 917.97,-136.78 918.24,-129.78"/>
</a>
</g>
</g>
<!-- Node54 -->
<g id="Node000054" class="node">
<title>Node54</title>
<g id="a_Node000054"><a xlink:href="classes__types_8h.html" target="_top" xlink:title=" ">
<polygon fill="white" stroke="#666666" points="2101,-195 2007,-195 2007,-176 2101,-176 2101,-195"/>
<text text-anchor="middle" x="2054" y="-183" font-family="Helvetica,sans-Serif" font-size="10.00">classes_types.h</text>
</a>
</g>
</g>
<!-- Node53&#45;&gt;Node54 -->
<g id="edge66_Node000053_Node000054" class="edge">
<title>Node53&#45;&gt;Node54</title>
<g id="a_edge66_Node000053_Node000054"><a xlink:title=" ">
<path fill="none" stroke="#63b8ff" d="M1895.37,-230.98C1927.37,-222.01 1977.96,-207.82 2013.38,-197.89"/>
<polygon fill="#63b8ff" stroke="#63b8ff" points="2014.71,-201.15 2023.4,-195.08 2012.82,-194.41 2014.71,-201.15"/>
</a>
</g>
</g>
<!-- Node55 -->
<g id="Node000055" class="node">
<title>Node55</title>
<g id="a_Node000055"><a xlink:title=" ">
<polygon fill="#e0e0e0" stroke="#999999" points="1988.5,-195 1889.5,-195 1889.5,-176 1988.5,-176 1988.5,-195"/>
<text text-anchor="middle" x="1939" y="-183" font-family="Helvetica,sans-Serif" font-size="10.00">import_classes.h</text>
</a>
</g>
</g>
<!-- Node53&#45;&gt;Node55 -->
<g id="edge67_Node000053_Node000055" class="edge">
<title>Node53&#45;&gt;Node55</title>
<g id="a_edge67_Node000053_Node000055"><a xlink:title=" ">
<path fill="none" stroke="#63b8ff" d="M1876.89,-230.98C1888.15,-222.92 1905.29,-210.65 1918.71,-201.03"/>
<polygon fill="#63b8ff" stroke="#63b8ff" points="1920.8,-203.84 1926.89,-195.17 1916.73,-198.15 1920.8,-203.84"/>
</a>
</g>
</g>
</g>
</svg>
