<?xml version="1.0" encoding="UTF-8" standalone="no"?>
<!DOCTYPE svg PUBLIC "-//W3C//DTD SVG 1.1//EN"
 "http://www.w3.org/Graphics/SVG/1.1/DTD/svg11.dtd">
<!-- Generated by graphviz version 2.43.0 (0)
 -->
<!-- Title: src/memory.h Pages: 1 -->
<svg width="2425pt" height="93pt"
 viewBox="0.00 0.00 2424.50 93.00" xmlns="http://www.w3.org/2000/svg" xmlns:xlink="http://www.w3.org/1999/xlink">
<g id="graph0" class="graph" transform="scale(1 1) rotate(0) translate(4 89)">
<title>src/memory.h</title>
<!-- Node1 -->
<g id="Node000001" class="node">
<title>Node1</title>
<g id="a_Node000001"><a xlink:title="Header file for memory management functions and structures.">
<polygon fill="#999999" stroke="#666666" points="1397.5,-85 1314.5,-85 1314.5,-66 1397.5,-66 1397.5,-85"/>
<text text-anchor="middle" x="1356" y="-73" font-family="Helvetica,sans-Serif" font-size="10.00">src/memory.h</text>
</a>
</g>
</g>
<!-- Node2 -->
<g id="Node000002" class="node">
<title>Node2</title>
<g id="a_Node000002"><a xlink:href="frame_8class_8c.html" target="_top" xlink:title="This file defines the implementation of frame&#45;related functionalities.">
<polygon fill="white" stroke="#666666" points="140,-30 0,-30 0,0 140,0 140,-30"/>
<text text-anchor="start" x="8" y="-18" font-family="Helvetica,sans-Serif" font-size="10.00">src/classes/nodes/frames</text>
<text text-anchor="middle" x="70" y="-7" font-family="Helvetica,sans-Serif" font-size="10.00">/frame.class.c</text>
</a>
</g>
</g>
<!-- Node1&#45;&gt;Node2 -->
<g id="edge1_Node000001_Node000002" class="edge">
<title>Node1&#45;&gt;Node2</title>
<g id="a_edge1_Node000001_Node000002"><a xlink:title=" ">
<path fill="none" stroke="#63b8ff" d="M1304.21,-73.55C1103.7,-69.71 378.17,-54.41 149,-30 146.09,-29.69 143.13,-29.34 140.14,-28.95"/>
<polygon fill="#63b8ff" stroke="#63b8ff" points="1304.4,-77.05 1314.47,-73.74 1304.54,-70.05 1304.4,-77.05"/>
</a>
</g>
</g>
<!-- Node3 -->
<g id="Node000003" class="node">
<title>Node3</title>
<g id="a_Node000003"><a xlink:href="model_8class_8c.html" target="_top" xlink:title="This file contains the implementation of the model class.">
<polygon fill="white" stroke="#666666" points="330,-24.5 158,-24.5 158,-5.5 330,-5.5 330,-24.5"/>
<text text-anchor="middle" x="244" y="-12.5" font-family="Helvetica,sans-Serif" font-size="10.00">src/classes/nodes/model.class.c</text>
</a>
</g>
</g>
<!-- Node1&#45;&gt;Node3 -->
<g id="edge2_Node000001_Node000003" class="edge">
<title>Node1&#45;&gt;Node3</title>
<g id="a_edge2_Node000001_Node000003"><a xlink:title=" ">
<path fill="none" stroke="#63b8ff" d="M1303.95,-74.11C1153.88,-72.56 707.53,-65.12 339,-30 324.73,-28.64 309.32,-26.61 295.16,-24.52"/>
<polygon fill="#63b8ff" stroke="#63b8ff" points="1304.2,-77.61 1314.24,-74.21 1304.27,-70.61 1304.2,-77.61"/>
</a>
</g>
</g>
<!-- Node4 -->
<g id="Node000004" class="node">
<title>Node4</title>
<g id="a_Node000004"><a xlink:href="skybox_8class_8c.html" target="_top" xlink:title="This file contains the implementation of the Skybox class.">
<polygon fill="white" stroke="#666666" points="524,-24.5 348,-24.5 348,-5.5 524,-5.5 524,-24.5"/>
<text text-anchor="middle" x="436" y="-12.5" font-family="Helvetica,sans-Serif" font-size="10.00">src/classes/nodes/skybox.class.c</text>
</a>
</g>
</g>
<!-- Node1&#45;&gt;Node4 -->
<g id="edge3_Node000001_Node000004" class="edge">
<title>Node1&#45;&gt;Node4</title>
<g id="a_edge3_Node000001_Node000004"><a xlink:title=" ">
<path fill="none" stroke="#63b8ff" d="M1304.3,-73.31C1174.38,-69.96 823.8,-58.79 533,-30 518.69,-28.58 503.26,-26.58 489.01,-24.52"/>
<polygon fill="#63b8ff" stroke="#63b8ff" points="1304.28,-76.81 1314.36,-73.56 1304.46,-69.81 1304.28,-76.81"/>
</a>
</g>
</g>
<!-- Node5 -->
<g id="Node000005" class="node">
<title>Node5</title>
<g id="a_Node000005"><a xlink:href="textured__mesh_8class_8c.html" target="_top" xlink:title="This file contains the implementation of the TexturedMesh class.">
<polygon fill="white" stroke="#666666" points="688,-30 542,-30 542,0 688,0 688,-30"/>
<text text-anchor="start" x="550" y="-18" font-family="Helvetica,sans-Serif" font-size="10.00">src/classes/nodes/textured</text>
<text text-anchor="middle" x="615" y="-7" font-family="Helvetica,sans-Serif" font-size="10.00">_mesh.class.c</text>
</a>
</g>
</g>
<!-- Node1&#45;&gt;Node5 -->
<g id="edge4_Node000001_Node000005" class="edge">
<title>Node1&#45;&gt;Node5</title>
<g id="a_edge4_Node000001_Node000005"><a xlink:title=" ">
<path fill="none" stroke="#63b8ff" d="M1303.93,-72.78C1192.35,-68.71 922.03,-56.74 697,-30 694.13,-29.66 691.21,-29.29 688.26,-28.89"/>
<polygon fill="#63b8ff" stroke="#63b8ff" points="1304.11,-76.29 1314.23,-73.15 1304.36,-69.3 1304.11,-76.29"/>
</a>
</g>
</g>
<!-- Node6 -->
<g id="Node000006" class="node">
<title>Node6</title>
<g id="a_Node000006"><a xlink:href="audio_8c.html" target="_top" xlink:title=" ">
<polygon fill="white" stroke="#666666" points="787.5,-24.5 706.5,-24.5 706.5,-5.5 787.5,-5.5 787.5,-24.5"/>
<text text-anchor="middle" x="747" y="-12.5" font-family="Helvetica,sans-Serif" font-size="10.00">src/io/audio.c</text>
</a>
</g>
</g>
<!-- Node1&#45;&gt;Node6 -->
<g id="edge5_Node000001_Node000006" class="edge">
<title>Node1&#45;&gt;Node6</title>
<g id="a_edge5_Node000001_Node000006"><a xlink:title=" ">
<path fill="none" stroke="#63b8ff" d="M1304.22,-73.72C1205.03,-71.48 981.68,-62.89 797,-30 789.37,-28.64 781.22,-26.61 773.77,-24.52"/>
<polygon fill="#63b8ff" stroke="#63b8ff" points="1304.2,-77.22 1314.27,-73.93 1304.35,-70.22 1304.2,-77.22"/>
</a>
</g>
</g>
<!-- Node7 -->
<g id="Node000007" class="node">
<title>Node7</title>
<g id="a_Node000007"><a xlink:href="gltexture__loader_8c.html" target="_top" xlink:title=" ">
<polygon fill="white" stroke="#666666" points="940,-24.5 806,-24.5 806,-5.5 940,-5.5 940,-24.5"/>
<text text-anchor="middle" x="873" y="-12.5" font-family="Helvetica,sans-Serif" font-size="10.00">src/io/gltexture_loader.c</text>
</a>
</g>
</g>
<!-- Node1&#45;&gt;Node7 -->
<g id="edge6_Node000001_Node000007" class="edge">
<title>Node1&#45;&gt;Node7</title>
<g id="a_edge6_Node000001_Node000007"><a xlink:title=" ">
<path fill="none" stroke="#63b8ff" d="M1304.29,-70.07C1226.84,-63.16 1076.21,-48.65 949,-30 938.38,-28.44 926.98,-26.49 916.31,-24.55"/>
<polygon fill="#63b8ff" stroke="#63b8ff" points="1304,-73.56 1314.27,-70.95 1304.62,-66.59 1304,-73.56"/>
</a>
</g>
</g>
<!-- Node8 -->
<g id="Node000008" class="node">
<title>Node8</title>
<g id="a_Node000008"><a xlink:href="fbx__loader_8c.html" target="_top" xlink:title=" ">
<polygon fill="white" stroke="#666666" points="1076,-30 958,-30 958,0 1076,0 1076,-30"/>
<text text-anchor="start" x="966" y="-18" font-family="Helvetica,sans-Serif" font-size="10.00">src/io/model_loaders</text>
<text text-anchor="middle" x="1017" y="-7" font-family="Helvetica,sans-Serif" font-size="10.00">/fbx_loader.c</text>
</a>
</g>
</g>
<!-- Node1&#45;&gt;Node8 -->
<g id="edge7_Node000001_Node000008" class="edge">
<title>Node1&#45;&gt;Node8</title>
<g id="a_edge7_Node000001_Node000008"><a xlink:title=" ">
<path fill="none" stroke="#63b8ff" d="M1304,-66.6C1249.36,-58.15 1160.98,-44.05 1085,-30 1082.16,-29.47 1079.25,-28.92 1076.31,-28.36"/>
<polygon fill="#63b8ff" stroke="#63b8ff" points="1303.71,-70.09 1314.13,-68.16 1304.78,-63.18 1303.71,-70.09"/>
</a>
</g>
</g>
<!-- Node9 -->
<g id="Node000009" class="node">
<title>Node9</title>
<g id="a_Node000009"><a xlink:href="model__loader_8c.html" target="_top" xlink:title=" ">
<polygon fill="white" stroke="#666666" points="1212,-30 1094,-30 1094,0 1212,0 1212,-30"/>
<text text-anchor="start" x="1102" y="-18" font-family="Helvetica,sans-Serif" font-size="10.00">src/io/model_loaders</text>
<text text-anchor="middle" x="1153" y="-7" font-family="Helvetica,sans-Serif" font-size="10.00">/model_loader.c</text>
</a>
</g>
</g>
<!-- Node1&#45;&gt;Node9 -->
<g id="edge8_Node000001_Node000009" class="edge">
<title>Node1&#45;&gt;Node9</title>
<g id="a_edge8_Node000001_Node000009"><a xlink:title=" ">
<path fill="none" stroke="#63b8ff" d="M1316.79,-63.2C1283.98,-53.75 1237.03,-40.22 1201.8,-30.06"/>
<polygon fill="#63b8ff" stroke="#63b8ff" points="1315.9,-66.59 1326.48,-65.99 1317.84,-59.86 1315.9,-66.59"/>
</a>
</g>
</g>
<!-- Node10 -->
<g id="Node000010" class="node">
<title>Node10</title>
<g id="a_Node000010"><a xlink:href="obj__loader_8c.html" target="_top" xlink:title=" ">
<polygon fill="white" stroke="#666666" points="1348,-30 1230,-30 1230,0 1348,0 1348,-30"/>
<text text-anchor="start" x="1238" y="-18" font-family="Helvetica,sans-Serif" font-size="10.00">src/io/model_loaders</text>
<text text-anchor="middle" x="1289" y="-7" font-family="Helvetica,sans-Serif" font-size="10.00">/obj_loader.c</text>
</a>
</g>
</g>
<!-- Node1&#45;&gt;Node10 -->
<g id="edge9_Node000001_Node000010" class="edge">
<title>Node1&#45;&gt;Node10</title>
<g id="a_edge9_Node000001_Node000010"><a xlink:title=" ">
<path fill="none" stroke="#63b8ff" d="M1338.52,-59.23C1328.2,-50.23 1315.24,-38.91 1305.17,-30.11"/>
<polygon fill="#63b8ff" stroke="#63b8ff" points="1336.28,-61.93 1346.11,-65.87 1340.88,-56.65 1336.28,-61.93"/>
</a>
</g>
</g>
<!-- Node11 -->
<g id="Node000011" class="node">
<title>Node11</title>
<g id="a_Node000011"><a xlink:href="node__loader_8c.html" target="_top" xlink:title=" ">
<polygon fill="white" stroke="#666666" points="1479.5,-24.5 1366.5,-24.5 1366.5,-5.5 1479.5,-5.5 1479.5,-24.5"/>
<text text-anchor="middle" x="1423" y="-12.5" font-family="Helvetica,sans-Serif" font-size="10.00">src/io/node_loader.c</text>
</a>
</g>
</g>
<!-- Node1&#45;&gt;Node11 -->
<g id="edge10_Node000001_Node000011" class="edge">
<title>Node1&#45;&gt;Node11</title>
<g id="a_edge10_Node000001_Node000011"><a xlink:title=" ">
<path fill="none" stroke="#63b8ff" d="M1373.5,-59.22C1386.1,-48.21 1402.67,-33.75 1413.07,-24.67"/>
<polygon fill="#63b8ff" stroke="#63b8ff" points="1371.12,-56.65 1365.89,-65.87 1375.72,-61.93 1371.12,-56.65"/>
</a>
</g>
</g>
<!-- Node12 -->
<g id="Node000012" class="node">
<title>Node12</title>
<g id="a_Node000012"><a xlink:href="shader_8c.html" target="_top" xlink:title=" ">
<polygon fill="white" stroke="#666666" points="1584,-24.5 1498,-24.5 1498,-5.5 1584,-5.5 1584,-24.5"/>
<text text-anchor="middle" x="1541" y="-12.5" font-family="Helvetica,sans-Serif" font-size="10.00">src/io/shader.c</text>
</a>
</g>
</g>
<!-- Node1&#45;&gt;Node12 -->
<g id="edge11_Node000001_Node000012" class="edge">
<title>Node1&#45;&gt;Node12</title>
<g id="a_edge11_Node000001_Node000012"><a xlink:title=" ">
<path fill="none" stroke="#63b8ff" d="M1392.48,-62.96C1428.27,-51.65 1481.99,-34.66 1514.07,-24.52"/>
<polygon fill="#63b8ff" stroke="#63b8ff" points="1391.38,-59.64 1382.9,-65.99 1393.49,-66.32 1391.38,-59.64"/>
</a>
</g>
</g>
<!-- Node13 -->
<g id="Node000013" class="node">
<title>Node13</title>
<g id="a_Node000013"><a xlink:href="main_8c.html" target="_top" xlink:title=" ">
<polygon fill="white" stroke="#666666" points="1669.5,-24.5 1602.5,-24.5 1602.5,-5.5 1669.5,-5.5 1669.5,-24.5"/>
<text text-anchor="middle" x="1636" y="-12.5" font-family="Helvetica,sans-Serif" font-size="10.00">src/main.c</text>
</a>
</g>
</g>
<!-- Node1&#45;&gt;Node13 -->
<g id="edge12_Node000001_Node000013" class="edge">
<title>Node1&#45;&gt;Node13</title>
<g id="a_edge12_Node000001_Node000013"><a xlink:title=" ">
<path fill="none" stroke="#63b8ff" d="M1407.79,-66.75C1456.09,-59.06 1529.95,-46.11 1593,-30 1599.09,-28.45 1605.57,-26.49 1611.6,-24.55"/>
<polygon fill="#63b8ff" stroke="#63b8ff" points="1407.22,-63.3 1397.88,-68.31 1408.31,-70.22 1407.22,-63.3"/>
</a>
</g>
</g>
<!-- Node14 -->
<g id="Node000014" class="node">
<title>Node14</title>
<g id="a_Node000014"><a xlink:href="memory_8c.html" target="_top" xlink:title=" ">
<polygon fill="white" stroke="#666666" points="1770,-24.5 1688,-24.5 1688,-5.5 1770,-5.5 1770,-24.5"/>
<text text-anchor="middle" x="1729" y="-12.5" font-family="Helvetica,sans-Serif" font-size="10.00">src/memory.c</text>
</a>
</g>
</g>
<!-- Node1&#45;&gt;Node14 -->
<g id="edge13_Node000001_Node000014" class="edge">
<title>Node1&#45;&gt;Node14</title>
<g id="a_edge13_Node000001_Node000014"><a xlink:title=" ">
<path fill="none" stroke="#63b8ff" d="M1407.86,-69.55C1471.97,-62.93 1584.24,-49.7 1679,-30 1686.24,-28.5 1693.97,-26.52 1701.13,-24.53"/>
<polygon fill="#63b8ff" stroke="#63b8ff" points="1407.2,-66.1 1397.61,-70.6 1407.91,-73.07 1407.2,-66.1"/>
</a>
</g>
</g>
<!-- Node15 -->
<g id="Node000015" class="node">
<title>Node15</title>
<g id="a_Node000015"><a xlink:href="collision_8c.html" target="_top" xlink:title=" ">
<polygon fill="white" stroke="#666666" points="1910,-24.5 1788,-24.5 1788,-5.5 1910,-5.5 1910,-24.5"/>
<text text-anchor="middle" x="1849" y="-12.5" font-family="Helvetica,sans-Serif" font-size="10.00">src/physics/collision.c</text>
</a>
</g>
</g>
<!-- Node1&#45;&gt;Node15 -->
<g id="edge14_Node000001_Node000015" class="edge">
<title>Node1&#45;&gt;Node15</title>
<g id="a_edge14_Node000001_Node000015"><a xlink:title=" ">
<path fill="none" stroke="#63b8ff" d="M1407.88,-70.6C1487.85,-64.24 1645.91,-50.27 1779,-30 1788.92,-28.49 1799.58,-26.53 1809.5,-24.56"/>
<polygon fill="#63b8ff" stroke="#63b8ff" points="1407.29,-67.13 1397.59,-71.41 1407.84,-74.11 1407.29,-67.13"/>
</a>
</g>
</g>
<!-- Node16 -->
<g id="Node000016" class="node">
<title>Node16</title>
<g id="a_Node000016"><a xlink:href="physics_8c.html" target="_top" xlink:title=" ">
<polygon fill="white" stroke="#666666" points="2047.5,-24.5 1928.5,-24.5 1928.5,-5.5 2047.5,-5.5 2047.5,-24.5"/>
<text text-anchor="middle" x="1988" y="-12.5" font-family="Helvetica,sans-Serif" font-size="10.00">src/physics/physics.c</text>
</a>
</g>
</g>
<!-- Node1&#45;&gt;Node16 -->
<g id="edge15_Node000001_Node000016" class="edge">
<title>Node1&#45;&gt;Node16</title>
<g id="a_edge15_Node000001_Node000016"><a xlink:title=" ">
<path fill="none" stroke="#63b8ff" d="M1407.58,-72.52C1506.95,-68.24 1731.68,-56.31 1919,-30 1929.17,-28.57 1940.09,-26.57 1950.18,-24.53"/>
<polygon fill="#63b8ff" stroke="#63b8ff" points="1407.35,-69.02 1397.51,-72.94 1407.65,-76.02 1407.35,-69.02"/>
</a>
</g>
</g>
<!-- Node17 -->
<g id="Node000017" class="node">
<title>Node17</title>
<g id="a_Node000017"><a xlink:href="raptiquax_8c.html" target="_top" xlink:title=" ">
<polygon fill="white" stroke="#666666" points="2154.5,-24.5 2065.5,-24.5 2065.5,-5.5 2154.5,-5.5 2154.5,-24.5"/>
<text text-anchor="middle" x="2110" y="-12.5" font-family="Helvetica,sans-Serif" font-size="10.00">src/raptiquax.c</text>
</a>
</g>
</g>
<!-- Node1&#45;&gt;Node17 -->
<g id="edge16_Node000001_Node000017" class="edge">
<title>Node1&#45;&gt;Node17</title>
<g id="a_edge16_Node000001_Node000017"><a xlink:title=" ">
<path fill="none" stroke="#63b8ff" d="M1407.88,-74.65C1524.63,-74.23 1816.59,-69 2057,-30 2065.17,-28.67 2073.91,-26.63 2081.89,-24.51"/>
<polygon fill="#63b8ff" stroke="#63b8ff" points="1407.79,-71.15 1397.8,-74.67 1407.81,-78.15 1407.79,-71.15"/>
</a>
</g>
</g>
<!-- Node18 -->
<g id="Node000018" class="node">
<title>Node18</title>
<g id="a_Node000018"><a xlink:href="camera_8c.html" target="_top" xlink:title=" ">
<polygon fill="white" stroke="#666666" points="2285.5,-24.5 2172.5,-24.5 2172.5,-5.5 2285.5,-5.5 2285.5,-24.5"/>
<text text-anchor="middle" x="2229" y="-12.5" font-family="Helvetica,sans-Serif" font-size="10.00">src/render/camera.c</text>
</a>
</g>
</g>
<!-- Node1&#45;&gt;Node18 -->
<g id="edge17_Node000001_Node000018" class="edge">
<title>Node1&#45;&gt;Node18</title>
<g id="a_edge17_Node000001_Node000018"><a xlink:title=" ">
<path fill="none" stroke="#63b8ff" d="M1408.2,-74.46C1537.11,-73.74 1880.61,-68.08 2164,-30 2173.84,-28.68 2184.4,-26.66 2194.09,-24.57"/>
<polygon fill="#63b8ff" stroke="#63b8ff" points="1407.83,-70.96 1397.85,-74.51 1407.86,-77.96 1407.83,-70.96"/>
</a>
</g>
</g>
<!-- Node19 -->
<g id="Node000019" class="node">
<title>Node19</title>
<g id="a_Node000019"><a xlink:href="lighting_8c.html" target="_top" xlink:title=" ">
<polygon fill="white" stroke="#666666" points="2416.5,-24.5 2303.5,-24.5 2303.5,-5.5 2416.5,-5.5 2416.5,-24.5"/>
<text text-anchor="middle" x="2360" y="-12.5" font-family="Helvetica,sans-Serif" font-size="10.00">src/render/lighting.c</text>
</a>
</g>
</g>
<!-- Node1&#45;&gt;Node19 -->
<g id="edge18_Node000001_Node000019" class="edge">
<title>Node1&#45;&gt;Node19</title>
<g id="a_edge18_Node000001_Node000019"><a xlink:title=" ">
<path fill="none" stroke="#63b8ff" d="M1408.07,-75.03C1550.63,-75.84 1959.11,-73.83 2295,-30 2304.96,-28.7 2315.66,-26.67 2325.44,-24.55"/>
<polygon fill="#63b8ff" stroke="#63b8ff" points="1407.89,-71.53 1397.87,-74.97 1407.84,-78.53 1407.89,-71.53"/>
</a>
</g>
</g>
</g>
</svg>
