<?xml version="1.0" encoding="UTF-8" standalone="no"?>
<!DOCTYPE svg PUBLIC "-//W3C//DTD SVG 1.1//EN"
 "http://www.w3.org/Graphics/SVG/1.1/DTD/svg11.dtd">
<!-- Generated by graphviz version 2.43.0 (0)
 -->
<!-- Title: src/io/model.c Pages: 1 -->
<svg width="1770pt" height="368pt"
 viewBox="0.00 0.00 1769.50 368.00" xmlns="http://www.w3.org/2000/svg" xmlns:xlink="http://www.w3.org/1999/xlink">
<g id="graph0" class="graph" transform="scale(1 1) rotate(0) translate(4 364)">
<title>src/io/model.c</title>
<!-- Node1 -->
<g id="Node000001" class="node">
<title>Node1</title>
<g id="a_Node000001"><a xlink:title=" ">
<polygon fill="#999999" stroke="#666666" points="886.5,-360 801.5,-360 801.5,-341 886.5,-341 886.5,-360"/>
<text text-anchor="middle" x="844" y="-348" font-family="Helvetica,sans-Serif" font-size="10.00">src/io/model.c</text>
</a>
</g>
</g>
<!-- Node2 -->
<g id="Node000002" class="node">
<title>Node2</title>
<g id="a_Node000002"><a xlink:href="raptiquax_8h.html" target="_top" xlink:title="This file contains type definitions for fixed&#45;width integer types and floating&#45;point types.">
<polygon fill="white" stroke="#666666" points="763.5,-244.5 682.5,-244.5 682.5,-225.5 763.5,-225.5 763.5,-244.5"/>
<text text-anchor="middle" x="723" y="-232.5" font-family="Helvetica,sans-Serif" font-size="10.00">../raptiquax.h</text>
</a>
</g>
</g>
<!-- Node1&#45;&gt;Node2 -->
<g id="edge1_Node000001_Node000002" class="edge">
<title>Node1&#45;&gt;Node2</title>
<g id="a_edge1_Node000001_Node000002"><a xlink:title=" ">
<path fill="none" stroke="#63b8ff" d="M804.14,-340.96C782.9,-334.46 757.94,-323.4 742,-305 729.94,-291.08 725.48,-270.15 723.85,-254.99"/>
<polygon fill="#63b8ff" stroke="#63b8ff" points="727.32,-254.45 723.09,-244.74 720.34,-254.97 727.32,-254.45"/>
</a>
</g>
</g>
<!-- Node24 -->
<g id="Node000024" class="node">
<title>Node24</title>
<g id="a_Node000024"><a xlink:href="math__util_8h.html" target="_top" xlink:title=" ">
<polygon fill="white" stroke="#666666" points="893,-244.5 783,-244.5 783,-225.5 893,-225.5 893,-244.5"/>
<text text-anchor="middle" x="838" y="-232.5" font-family="Helvetica,sans-Serif" font-size="10.00">../math/math_util.h</text>
</a>
</g>
</g>
<!-- Node1&#45;&gt;Node24 -->
<g id="edge23_Node000001_Node000024" class="edge">
<title>Node1&#45;&gt;Node24</title>
<g id="a_edge23_Node000001_Node000024"><a xlink:title=" ">
<path fill="none" stroke="#63b8ff" d="M850.62,-340.59C858.84,-328.43 871.18,-305.87 866,-286 862.91,-274.16 856.33,-262.15 850.32,-252.88"/>
<polygon fill="#63b8ff" stroke="#63b8ff" points="853.19,-250.88 844.65,-244.61 847.42,-254.84 853.19,-250.88"/>
</a>
</g>
</g>
<!-- Node25 -->
<g id="Node000025" class="node">
<title>Node25</title>
<g id="a_Node000025"><a xlink:href="model_8h.html" target="_top" xlink:title="Defines structures and functions for handling 3D models and their properties.">
<polygon fill="white" stroke="#666666" points="969,-305 913,-305 913,-286 969,-286 969,-305"/>
<text text-anchor="middle" x="941" y="-293" font-family="Helvetica,sans-Serif" font-size="10.00">model.h</text>
</a>
</g>
</g>
<!-- Node1&#45;&gt;Node25 -->
<g id="edge24_Node000001_Node000025" class="edge">
<title>Node1&#45;&gt;Node25</title>
<g id="a_edge24_Node000001_Node000025"><a xlink:title=" ">
<path fill="none" stroke="#63b8ff" d="M859.58,-340.98C874.77,-332.69 898.1,-319.94 915.9,-310.22"/>
<polygon fill="#63b8ff" stroke="#63b8ff" points="918.03,-313.04 925.13,-305.17 914.68,-306.89 918.03,-313.04"/>
</a>
</g>
</g>
<!-- Node31 -->
<g id="Node000031" class="node">
<title>Node31</title>
<g id="a_Node000031"><a xlink:href="camera_8h.html" target="_top" xlink:title=" ">
<polygon fill="white" stroke="#666666" points="857,-305 751,-305 751,-286 857,-286 857,-305"/>
<text text-anchor="middle" x="804" y="-293" font-family="Helvetica,sans-Serif" font-size="10.00">../render/camera.h</text>
</a>
</g>
</g>
<!-- Node1&#45;&gt;Node31 -->
<g id="edge30_Node000001_Node000031" class="edge">
<title>Node1&#45;&gt;Node31</title>
<g id="a_edge30_Node000001_Node000031"><a xlink:title=" ">
<path fill="none" stroke="#63b8ff" d="M837.39,-340.75C831.74,-333.26 823.46,-322.28 816.55,-313.13"/>
<polygon fill="#63b8ff" stroke="#63b8ff" points="819.3,-310.96 810.48,-305.09 813.71,-315.18 819.3,-310.96"/>
</a>
</g>
</g>
<!-- Node3 -->
<g id="Node000003" class="node">
<title>Node3</title>
<g id="a_Node000003"><a xlink:title=" ">
<polygon fill="#e0e0e0" stroke="#999999" points="713,-184 663,-184 663,-165 713,-165 713,-184"/>
<text text-anchor="middle" x="688" y="-172" font-family="Helvetica,sans-Serif" font-size="10.00">stdio.h</text>
</a>
</g>
</g>
<!-- Node2&#45;&gt;Node3 -->
<g id="edge2_Node000002_Node000003" class="edge">
<title>Node2&#45;&gt;Node3</title>
<g id="a_edge2_Node000002_Node000003"><a xlink:title=" ">
<path fill="none" stroke="#63b8ff" d="M717.84,-225.37C712.77,-216.9 704.9,-203.74 698.51,-193.07"/>
<polygon fill="#63b8ff" stroke="#63b8ff" points="701.32,-190.95 693.19,-184.17 695.32,-194.55 701.32,-190.95"/>
</a>
</g>
</g>
<!-- Node4 -->
<g id="Node000004" class="node">
<title>Node4</title>
<g id="a_Node000004"><a xlink:title=" ">
<polygon fill="#e0e0e0" stroke="#999999" points="784.5,-184 731.5,-184 731.5,-165 784.5,-165 784.5,-184"/>
<text text-anchor="middle" x="758" y="-172" font-family="Helvetica,sans-Serif" font-size="10.00">stdint.h</text>
</a>
</g>
</g>
<!-- Node2&#45;&gt;Node4 -->
<g id="edge3_Node000002_Node000004" class="edge">
<title>Node2&#45;&gt;Node4</title>
<g id="a_edge3_Node000002_Node000004"><a xlink:title=" ">
<path fill="none" stroke="#63b8ff" d="M728.16,-225.37C733.23,-216.9 741.1,-203.74 747.49,-193.07"/>
<polygon fill="#63b8ff" stroke="#63b8ff" points="750.68,-194.55 752.81,-184.17 744.68,-190.95 750.68,-194.55"/>
</a>
</g>
</g>
<!-- Node5 -->
<g id="Node000005" class="node">
<title>Node5</title>
<g id="a_Node000005"><a xlink:title=" ">
<polygon fill="#e0e0e0" stroke="#999999" points="865,-184 803,-184 803,-165 865,-165 865,-184"/>
<text text-anchor="middle" x="834" y="-172" font-family="Helvetica,sans-Serif" font-size="10.00">stdbool.h</text>
</a>
</g>
</g>
<!-- Node2&#45;&gt;Node5 -->
<g id="edge4_Node000002_Node000005" class="edge">
<title>Node2&#45;&gt;Node5</title>
<g id="a_edge4_Node000002_Node000005"><a xlink:title=" ">
<path fill="none" stroke="#63b8ff" d="M739.38,-225.37C757.58,-215.78 787.2,-200.17 808.45,-188.97"/>
<polygon fill="#63b8ff" stroke="#63b8ff" points="810.34,-191.93 817.55,-184.17 807.08,-185.73 810.34,-191.93"/>
</a>
</g>
</g>
<!-- Node6 -->
<g id="Node000006" class="node">
<title>Node6</title>
<g id="a_Node000006"><a xlink:title=" ">
<polygon fill="#e0e0e0" stroke="#999999" points="939,-184 883,-184 883,-165 939,-165 939,-184"/>
<text text-anchor="middle" x="911" y="-172" font-family="Helvetica,sans-Serif" font-size="10.00">stdarg.h</text>
</a>
</g>
</g>
<!-- Node2&#45;&gt;Node6 -->
<g id="edge5_Node000002_Node000006" class="edge">
<title>Node2&#45;&gt;Node6</title>
<g id="a_edge5_Node000002_Node000006"><a xlink:title=" ">
<path fill="none" stroke="#63b8ff" d="M750.34,-225.49C782.92,-215.36 837.51,-198.37 873.89,-187.05"/>
<polygon fill="#63b8ff" stroke="#63b8ff" points="875.12,-190.33 883.63,-184.02 873.04,-183.65 875.12,-190.33"/>
</a>
</g>
</g>
<!-- Node7 -->
<g id="Node000007" class="node">
<title>Node7</title>
<g id="a_Node000007"><a xlink:title=" ">
<polygon fill="#e0e0e0" stroke="#999999" points="1010.5,-184 957.5,-184 957.5,-165 1010.5,-165 1010.5,-184"/>
<text text-anchor="middle" x="984" y="-172" font-family="Helvetica,sans-Serif" font-size="10.00">limits.h</text>
</a>
</g>
</g>
<!-- Node2&#45;&gt;Node7 -->
<g id="edge6_Node000002_Node000007" class="edge">
<title>Node2&#45;&gt;Node7</title>
<g id="a_edge6_Node000002_Node000007"><a xlink:title=" ">
<path fill="none" stroke="#63b8ff" d="M752.85,-225.46C759.77,-223.58 767.13,-221.65 774,-220 847.78,-202.26 869.24,-201.14 947.46,-184.06"/>
<polygon fill="#63b8ff" stroke="#63b8ff" points="948.27,-187.46 957.28,-181.9 946.76,-180.63 948.27,-187.46"/>
</a>
</g>
</g>
<!-- Node8 -->
<g id="Node000008" class="node">
<title>Node8</title>
<g id="a_Node000008"><a xlink:title=" ">
<polygon fill="#e0e0e0" stroke="#999999" points="1101,-184 1029,-184 1029,-165 1101,-165 1101,-184"/>
<text text-anchor="middle" x="1065" y="-172" font-family="Helvetica,sans-Serif" font-size="10.00">SDL2/SDL.h</text>
</a>
</g>
</g>
<!-- Node2&#45;&gt;Node8 -->
<g id="edge7_Node000002_Node000008" class="edge">
<title>Node2&#45;&gt;Node8</title>
<g id="a_edge7_Node000002_Node000008"><a xlink:title=" ">
<path fill="none" stroke="#63b8ff" d="M751.71,-225.46C758.94,-223.49 766.72,-221.53 774,-220 881.71,-197.39 910.42,-202 1019,-184 1019.1,-183.98 1019.2,-183.97 1019.3,-183.95"/>
<polygon fill="#63b8ff" stroke="#63b8ff" points="1019.6,-187.45 1028.86,-182.31 1018.41,-180.55 1019.6,-187.45"/>
</a>
</g>
</g>
<!-- Node9 -->
<g id="Node000009" class="node">
<title>Node9</title>
<g id="a_Node000009"><a xlink:title=" ">
<polygon fill="#e0e0e0" stroke="#999999" points="1227,-184 1119,-184 1119,-165 1227,-165 1227,-184"/>
<text text-anchor="middle" x="1173" y="-172" font-family="Helvetica,sans-Serif" font-size="10.00">SDL2/SDL_image.h</text>
</a>
</g>
</g>
<!-- Node2&#45;&gt;Node9 -->
<g id="edge8_Node000002_Node000009" class="edge">
<title>Node2&#45;&gt;Node9</title>
<g id="a_edge8_Node000002_Node000009"><a xlink:title=" ">
<path fill="none" stroke="#63b8ff" d="M750.87,-225.48C758.33,-223.44 766.42,-221.44 774,-220 918.39,-192.63 959.16,-201.63 1108.71,-184.11"/>
<polygon fill="#63b8ff" stroke="#63b8ff" points="1109.2,-187.58 1118.72,-182.92 1108.37,-180.63 1109.2,-187.58"/>
</a>
</g>
</g>
<!-- Node10 -->
<g id="Node000010" class="node">
<title>Node10</title>
<g id="a_Node000010"><a xlink:title=" ">
<polygon fill="#e0e0e0" stroke="#999999" points="1355,-184 1245,-184 1245,-165 1355,-165 1355,-184"/>
<text text-anchor="middle" x="1300" y="-172" font-family="Helvetica,sans-Serif" font-size="10.00">SDL2/SDL_opengl.h</text>
</a>
</g>
</g>
<!-- Node2&#45;&gt;Node10 -->
<g id="edge9_Node000002_Node000010" class="edge">
<title>Node2&#45;&gt;Node10</title>
<g id="a_edge9_Node000002_Node000010"><a xlink:title=" ">
<path fill="none" stroke="#63b8ff" d="M750.31,-225.47C757.91,-223.38 766.22,-221.36 774,-220 973.62,-185.15 1029.39,-204.9 1234.66,-184.07"/>
<polygon fill="#63b8ff" stroke="#63b8ff" points="1235.28,-187.53 1244.86,-183.02 1234.56,-180.56 1235.28,-187.53"/>
</a>
</g>
</g>
<!-- Node11 -->
<g id="Node000011" class="node">
<title>Node11</title>
<g id="a_Node000011"><a xlink:title=" ">
<polygon fill="#e0e0e0" stroke="#999999" points="1477,-184 1373,-184 1373,-165 1477,-165 1477,-184"/>
<text text-anchor="middle" x="1425" y="-172" font-family="Helvetica,sans-Serif" font-size="10.00">SDL2/SDL_mixer.h</text>
</a>
</g>
</g>
<!-- Node2&#45;&gt;Node11 -->
<g id="edge10_Node000002_Node000011" class="edge">
<title>Node2&#45;&gt;Node11</title>
<g id="a_edge10_Node000002_Node000011"><a xlink:title=" ">
<path fill="none" stroke="#63b8ff" d="M750.03,-225.46C757.71,-223.34 766.12,-221.31 774,-220 1029.88,-177.54 1100.8,-209.32 1362.59,-184.05"/>
<polygon fill="#63b8ff" stroke="#63b8ff" points="1363.18,-187.51 1372.79,-183.05 1362.49,-180.54 1363.18,-187.51"/>
</a>
</g>
</g>
<!-- Node12 -->
<g id="Node000012" class="node">
<title>Node12</title>
<g id="a_Node000012"><a xlink:title=" ">
<polygon fill="#e0e0e0" stroke="#999999" points="88,-184 0,-184 0,-165 88,-165 88,-184"/>
<text text-anchor="middle" x="44" y="-172" font-family="Helvetica,sans-Serif" font-size="10.00">SDL2/SDL_ttf.h</text>
</a>
</g>
</g>
<!-- Node2&#45;&gt;Node12 -->
<g id="edge11_Node000002_Node000012" class="edge">
<title>Node2&#45;&gt;Node12</title>
<g id="a_edge11_Node000002_Node000012"><a xlink:title=" ">
<path fill="none" stroke="#63b8ff" d="M682.24,-231.87C583.74,-226.47 324.76,-210.85 98.29,-184.06"/>
<polygon fill="#63b8ff" stroke="#63b8ff" points="98.55,-180.57 88.21,-182.86 97.72,-187.52 98.55,-180.57"/>
</a>
</g>
</g>
<!-- Node13 -->
<g id="Node000013" class="node">
<title>Node13</title>
<g id="a_Node000013"><a xlink:title=" ">
<polygon fill="#e0e0e0" stroke="#999999" points="156,-184 106,-184 106,-165 156,-165 156,-184"/>
<text text-anchor="middle" x="131" y="-172" font-family="Helvetica,sans-Serif" font-size="10.00">GL/gl.h</text>
</a>
</g>
</g>
<!-- Node2&#45;&gt;Node13 -->
<g id="edge12_Node000002_Node000013" class="edge">
<title>Node2&#45;&gt;Node13</title>
<g id="a_edge12_Node000002_Node000013"><a xlink:title=" ">
<path fill="none" stroke="#63b8ff" d="M682.46,-232.53C591.61,-228.77 364.75,-216.81 166.19,-183.94"/>
<polygon fill="#63b8ff" stroke="#63b8ff" points="166.6,-180.46 156.16,-182.25 165.44,-187.36 166.6,-180.46"/>
</a>
</g>
</g>
<!-- Node14 -->
<g id="Node000014" class="node">
<title>Node14</title>
<g id="a_Node000014"><a xlink:title=" ">
<polygon fill="#e0e0e0" stroke="#999999" points="230,-184 174,-184 174,-165 230,-165 230,-184"/>
<text text-anchor="middle" x="202" y="-172" font-family="Helvetica,sans-Serif" font-size="10.00">GL/glu.h</text>
</a>
</g>
</g>
<!-- Node2&#45;&gt;Node14 -->
<g id="edge13_Node000002_Node000014" class="edge">
<title>Node2&#45;&gt;Node14</title>
<g id="a_edge13_Node000002_Node000014"><a xlink:title=" ">
<path fill="none" stroke="#63b8ff" d="M682.3,-231.49C600.41,-226.08 409.77,-211.64 240.31,-184.02"/>
<polygon fill="#63b8ff" stroke="#63b8ff" points="240.65,-180.53 230.21,-182.36 239.51,-187.44 240.65,-180.53"/>
</a>
</g>
</g>
<!-- Node15 -->
<g id="Node000015" class="node">
<title>Node15</title>
<g id="a_Node000015"><a xlink:title=" ">
<polygon fill="#e0e0e0" stroke="#999999" points="314,-184 248,-184 248,-165 314,-165 314,-184"/>
<text text-anchor="middle" x="281" y="-172" font-family="Helvetica,sans-Serif" font-size="10.00">GL/glext.h</text>
</a>
</g>
</g>
<!-- Node2&#45;&gt;Node15 -->
<g id="edge14_Node000002_Node000015" class="edge">
<title>Node2&#45;&gt;Node15</title>
<g id="a_edge14_Node000002_Node000015"><a xlink:title=" ">
<path fill="none" stroke="#63b8ff" d="M682.26,-229.93C611.53,-222.65 461.28,-206.19 324.66,-184.17"/>
<polygon fill="#63b8ff" stroke="#63b8ff" points="324.86,-180.65 314.43,-182.5 323.74,-187.56 324.86,-180.65"/>
</a>
</g>
</g>
<!-- Node16 -->
<g id="Node000016" class="node">
<title>Node16</title>
<g id="a_Node000016"><a xlink:title=" ">
<polygon fill="#e0e0e0" stroke="#999999" points="409.5,-184 332.5,-184 332.5,-165 409.5,-165 409.5,-184"/>
<text text-anchor="middle" x="371" y="-172" font-family="Helvetica,sans-Serif" font-size="10.00">cglm/cglm.h</text>
</a>
</g>
</g>
<!-- Node2&#45;&gt;Node16 -->
<g id="edge15_Node000002_Node000016" class="edge">
<title>Node2&#45;&gt;Node16</title>
<g id="a_edge15_Node000002_Node000016"><a xlink:title=" ">
<path fill="none" stroke="#63b8ff" d="M682.02,-227.5C625.32,-218.46 519.49,-201.41 419.67,-184.27"/>
<polygon fill="#63b8ff" stroke="#63b8ff" points="420.17,-180.8 409.72,-182.55 418.98,-187.7 420.17,-180.8"/>
</a>
</g>
</g>
<!-- Node17 -->
<g id="Node000017" class="node">
<title>Node17</title>
<g id="a_Node000017"><a xlink:title=" ">
<polygon fill="#e0e0e0" stroke="#999999" points="478.5,-184 427.5,-184 427.5,-165 478.5,-165 478.5,-184"/>
<text text-anchor="middle" x="453" y="-172" font-family="Helvetica,sans-Serif" font-size="10.00">math.h</text>
</a>
</g>
</g>
<!-- Node2&#45;&gt;Node17 -->
<g id="edge16_Node000002_Node000017" class="edge">
<title>Node2&#45;&gt;Node17</title>
<g id="a_edge16_Node000002_Node000017"><a xlink:title=" ">
<path fill="none" stroke="#63b8ff" d="M682.17,-225.68C637.25,-216.45 562.68,-200.88 488.57,-184.08"/>
<polygon fill="#63b8ff" stroke="#63b8ff" points="489.12,-180.61 478.59,-181.81 487.57,-187.44 489.12,-180.61"/>
</a>
</g>
</g>
<!-- Node18 -->
<g id="Node000018" class="node">
<title>Node18</title>
<g id="a_Node000018"><a xlink:href="stringio_8h.html" target="_top" xlink:title="Provides utility functions for string and file operations.">
<polygon fill="white" stroke="#666666" points="571,-184 497,-184 497,-165 571,-165 571,-184"/>
<text text-anchor="middle" x="534" y="-172" font-family="Helvetica,sans-Serif" font-size="10.00">io/stringio.h</text>
</a>
</g>
</g>
<!-- Node2&#45;&gt;Node18 -->
<g id="edge17_Node000002_Node000018" class="edge">
<title>Node2&#45;&gt;Node18</title>
<g id="a_edge17_Node000002_Node000018"><a xlink:title=" ">
<path fill="none" stroke="#63b8ff" d="M695.52,-225.49C662.76,-215.36 607.88,-198.37 571.31,-187.05"/>
<polygon fill="#63b8ff" stroke="#63b8ff" points="572.1,-183.63 561.52,-184.02 570.03,-190.32 572.1,-183.63"/>
</a>
</g>
</g>
<!-- Node20 -->
<g id="Node000020" class="node">
<title>Node20</title>
<g id="a_Node000020"><a xlink:href="config_8h.html" target="_top" xlink:title=" ">
<polygon fill="white" stroke="#666666" points="644.5,-184 589.5,-184 589.5,-165 644.5,-165 644.5,-184"/>
<text text-anchor="middle" x="617" y="-172" font-family="Helvetica,sans-Serif" font-size="10.00">config.h</text>
</a>
</g>
</g>
<!-- Node2&#45;&gt;Node20 -->
<g id="edge19_Node000002_Node000020" class="edge">
<title>Node2&#45;&gt;Node20</title>
<g id="a_edge19_Node000002_Node000020"><a xlink:title=" ">
<path fill="none" stroke="#63b8ff" d="M707.36,-225.37C690.06,-215.82 661.95,-200.31 641.67,-189.12"/>
<polygon fill="#63b8ff" stroke="#63b8ff" points="643.15,-185.93 632.7,-184.17 639.77,-192.06 643.15,-185.93"/>
</a>
</g>
</g>
<!-- Node19 -->
<g id="Node000019" class="node">
<title>Node19</title>
<g id="a_Node000019"><a xlink:title=" ">
<polygon fill="#e0e0e0" stroke="#999999" points="560.5,-129 507.5,-129 507.5,-110 560.5,-110 560.5,-129"/>
<text text-anchor="middle" x="534" y="-117" font-family="Helvetica,sans-Serif" font-size="10.00">string.h</text>
</a>
</g>
</g>
<!-- Node18&#45;&gt;Node19 -->
<g id="edge18_Node000018_Node000019" class="edge">
<title>Node18&#45;&gt;Node19</title>
<g id="a_edge18_Node000018_Node000019"><a xlink:title=" ">
<path fill="none" stroke="#63b8ff" d="M534,-164.75C534,-157.8 534,-147.85 534,-139.13"/>
<polygon fill="#63b8ff" stroke="#63b8ff" points="537.5,-139.09 534,-129.09 530.5,-139.09 537.5,-139.09"/>
</a>
</g>
</g>
<!-- Node21 -->
<g id="Node000021" class="node">
<title>Node21</title>
<g id="a_Node000021"><a xlink:href="term_8h.html" target="_top" xlink:title=" ">
<polygon fill="white" stroke="#666666" points="654.5,-129 579.5,-129 579.5,-110 654.5,-110 654.5,-129"/>
<text text-anchor="middle" x="617" y="-117" font-family="Helvetica,sans-Serif" font-size="10.00">term/term.h</text>
</a>
</g>
</g>
<!-- Node20&#45;&gt;Node21 -->
<g id="edge20_Node000020_Node000021" class="edge">
<title>Node20&#45;&gt;Node21</title>
<g id="a_edge20_Node000020_Node000021"><a xlink:title=" ">
<path fill="none" stroke="#63b8ff" d="M617,-164.75C617,-157.8 617,-147.85 617,-139.13"/>
<polygon fill="#63b8ff" stroke="#63b8ff" points="620.5,-139.09 617,-129.09 613.5,-139.09 620.5,-139.09"/>
</a>
</g>
</g>
<!-- Node22 -->
<g id="Node000022" class="node">
<title>Node22</title>
<g id="a_Node000022"><a xlink:href="enhanced__print_8h.html" target="_top" xlink:title=" ">
<polygon fill="white" stroke="#666666" points="667.5,-74 566.5,-74 566.5,-55 667.5,-55 667.5,-74"/>
<text text-anchor="middle" x="617" y="-62" font-family="Helvetica,sans-Serif" font-size="10.00">enhanced_print.h</text>
</a>
</g>
</g>
<!-- Node21&#45;&gt;Node22 -->
<g id="edge21_Node000021_Node000022" class="edge">
<title>Node21&#45;&gt;Node22</title>
<g id="a_edge21_Node000021_Node000022"><a xlink:title=" ">
<path fill="none" stroke="#63b8ff" d="M617,-109.75C617,-102.8 617,-92.85 617,-84.13"/>
<polygon fill="#63b8ff" stroke="#63b8ff" points="620.5,-84.09 617,-74.09 613.5,-84.09 620.5,-84.09"/>
</a>
</g>
</g>
<!-- Node23 -->
<g id="Node000023" class="node">
<title>Node23</title>
<g id="a_Node000023"><a xlink:href="color_8h.html" target="_top" xlink:title=" ">
<polygon fill="white" stroke="#666666" points="641.5,-19 592.5,-19 592.5,0 641.5,0 641.5,-19"/>
<text text-anchor="middle" x="617" y="-7" font-family="Helvetica,sans-Serif" font-size="10.00">color.h</text>
</a>
</g>
</g>
<!-- Node22&#45;&gt;Node23 -->
<g id="edge22_Node000022_Node000023" class="edge">
<title>Node22&#45;&gt;Node23</title>
<g id="a_edge22_Node000022_Node000023"><a xlink:title=" ">
<path fill="none" stroke="#63b8ff" d="M617,-54.75C617,-47.8 617,-37.85 617,-29.13"/>
<polygon fill="#63b8ff" stroke="#63b8ff" points="620.5,-29.09 617,-19.09 613.5,-29.09 620.5,-29.09"/>
</a>
</g>
</g>
<!-- Node26 -->
<g id="Node000026" class="node">
<title>Node26</title>
<g id="a_Node000026"><a xlink:href="shader_8h.html" target="_top" xlink:title=" ">
<polygon fill="white" stroke="#666666" points="969,-244.5 911,-244.5 911,-225.5 969,-225.5 969,-244.5"/>
<text text-anchor="middle" x="940" y="-232.5" font-family="Helvetica,sans-Serif" font-size="10.00">shader.h</text>
</a>
</g>
</g>
<!-- Node25&#45;&gt;Node26 -->
<g id="edge25_Node000025_Node000026" class="edge">
<title>Node25&#45;&gt;Node26</title>
<g id="a_edge25_Node000025_Node000026"><a xlink:title=" ">
<path fill="none" stroke="#63b8ff" d="M940.85,-285.87C940.71,-277.75 940.5,-265.31 940.32,-254.89"/>
<polygon fill="#63b8ff" stroke="#63b8ff" points="943.82,-254.61 940.15,-244.67 936.82,-254.73 943.82,-254.61"/>
</a>
</g>
</g>
<!-- Node27 -->
<g id="Node000027" class="node">
<title>Node27</title>
<g id="a_Node000027"><a xlink:href="model__loader_8h.html" target="_top" xlink:title=" ">
<polygon fill="white" stroke="#666666" points="1641,-250 1519,-250 1519,-220 1641,-220 1641,-250"/>
<text text-anchor="start" x="1527" y="-238" font-family="Helvetica,sans-Serif" font-size="10.00">model_loaders/model</text>
<text text-anchor="middle" x="1580" y="-227" font-family="Helvetica,sans-Serif" font-size="10.00">_loader.h</text>
</a>
</g>
</g>
<!-- Node25&#45;&gt;Node27 -->
<g id="edge26_Node000025_Node000027" class="edge">
<title>Node25&#45;&gt;Node27</title>
<g id="a_edge26_Node000025_Node000027"><a xlink:title=" ">
<path fill="none" stroke="#63b8ff" d="M969.28,-291.91C1063.54,-283.28 1368.89,-255.33 1508.8,-242.52"/>
<polygon fill="#63b8ff" stroke="#63b8ff" points="1509.34,-245.98 1518.98,-241.59 1508.71,-239.01 1509.34,-245.98"/>
</a>
</g>
</g>
<!-- Node28 -->
<g id="Node000028" class="node">
<title>Node28</title>
<g id="a_Node000028"><a xlink:href="obj__loader_8h.html" target="_top" xlink:title=" ">
<polygon fill="white" stroke="#666666" points="1571,-184 1495,-184 1495,-165 1571,-165 1571,-184"/>
<text text-anchor="middle" x="1533" y="-172" font-family="Helvetica,sans-Serif" font-size="10.00">obj_loader.h</text>
</a>
</g>
</g>
<!-- Node27&#45;&gt;Node28 -->
<g id="edge27_Node000027_Node000028" class="edge">
<title>Node27&#45;&gt;Node28</title>
<g id="a_edge27_Node000027_Node000028"><a xlink:title=" ">
<path fill="none" stroke="#63b8ff" d="M1568.62,-219.84C1561.94,-211.52 1553.45,-200.96 1546.44,-192.23"/>
<polygon fill="#63b8ff" stroke="#63b8ff" points="1549.03,-189.87 1540.04,-184.27 1543.58,-194.25 1549.03,-189.87"/>
</a>
</g>
</g>
<!-- Node29 -->
<g id="Node000029" class="node">
<title>Node29</title>
<g id="a_Node000029"><a xlink:href="mtl__loader_8h.html" target="_top" xlink:title=" ">
<polygon fill="white" stroke="#666666" points="1666.5,-184 1589.5,-184 1589.5,-165 1666.5,-165 1666.5,-184"/>
<text text-anchor="middle" x="1628" y="-172" font-family="Helvetica,sans-Serif" font-size="10.00">mtl_loader.h</text>
</a>
</g>
</g>
<!-- Node27&#45;&gt;Node29 -->
<g id="edge28_Node000027_Node000029" class="edge">
<title>Node27&#45;&gt;Node29</title>
<g id="a_edge28_Node000027_Node000029"><a xlink:title=" ">
<path fill="none" stroke="#63b8ff" d="M1591.62,-219.84C1598.44,-211.52 1607.11,-200.96 1614.27,-192.23"/>
<polygon fill="#63b8ff" stroke="#63b8ff" points="1617.17,-194.22 1620.81,-184.27 1611.76,-189.78 1617.17,-194.22"/>
</a>
</g>
</g>
<!-- Node30 -->
<g id="Node000030" class="node">
<title>Node30</title>
<g id="a_Node000030"><a xlink:href="fbx__loader_8h.html" target="_top" xlink:title=" ">
<polygon fill="white" stroke="#666666" points="1761.5,-184 1684.5,-184 1684.5,-165 1761.5,-165 1761.5,-184"/>
<text text-anchor="middle" x="1723" y="-172" font-family="Helvetica,sans-Serif" font-size="10.00">fbx_loader.h</text>
</a>
</g>
</g>
<!-- Node27&#45;&gt;Node30 -->
<g id="edge29_Node000027_Node000030" class="edge">
<title>Node27&#45;&gt;Node30</title>
<g id="a_edge29_Node000027_Node000030"><a xlink:title=" ">
<path fill="none" stroke="#63b8ff" d="M1614.25,-219.99C1638.11,-210.23 1669.65,-197.33 1692.61,-187.93"/>
<polygon fill="#63b8ff" stroke="#63b8ff" points="1693.95,-191.17 1701.88,-184.14 1691.3,-184.69 1693.95,-191.17"/>
</a>
</g>
</g>
<!-- Node31&#45;&gt;Node2 -->
<g id="edge31_Node000031_Node000002" class="edge">
<title>Node31&#45;&gt;Node2</title>
<g id="a_edge31_Node000031_Node000002"><a xlink:title=" ">
<path fill="none" stroke="#63b8ff" d="M792.05,-285.87C779.25,-276.62 758.7,-261.78 743.35,-250.69"/>
<polygon fill="#63b8ff" stroke="#63b8ff" points="745.16,-247.68 735,-244.67 741.06,-253.36 745.16,-247.68"/>
</a>
</g>
</g>
<!-- Node31&#45;&gt;Node24 -->
<g id="edge32_Node000031_Node000024" class="edge">
<title>Node31&#45;&gt;Node24</title>
<g id="a_edge32_Node000031_Node000024"><a xlink:title=" ">
<path fill="none" stroke="#63b8ff" d="M809.02,-285.87C813.94,-277.4 821.59,-264.24 827.79,-253.57"/>
<polygon fill="#63b8ff" stroke="#63b8ff" points="830.96,-255.07 832.96,-244.67 824.91,-251.55 830.96,-255.07"/>
</a>
</g>
</g>
<!-- Node31&#45;&gt;Node26 -->
<g id="edge33_Node000031_Node000026" class="edge">
<title>Node31&#45;&gt;Node26</title>
<g id="a_edge33_Node000031_Node000026"><a xlink:title=" ">
<path fill="none" stroke="#63b8ff" d="M823.78,-285.99C846.64,-276.16 884.49,-259.88 910.76,-248.58"/>
<polygon fill="#63b8ff" stroke="#63b8ff" points="912.4,-251.68 920.2,-244.52 909.63,-245.25 912.4,-251.68"/>
</a>
</g>
</g>
</g>
</svg>
