<?xml version="1.0" encoding="UTF-8" standalone="no"?>
<!DOCTYPE svg PUBLIC "-//W3C//DTD SVG 1.1//EN"
 "http://www.w3.org/Graphics/SVG/1.1/DTD/svg11.dtd">
<!-- Generated by graphviz version 2.43.0 (0)
 -->
<!-- Title: src/io/model_loaders/model_loader.c Pages: 1 -->
<svg width="1841pt" height="324pt"
 viewBox="0.00 0.00 1840.50 324.00" xmlns="http://www.w3.org/2000/svg" xmlns:xlink="http://www.w3.org/1999/xlink">
<g id="graph0" class="graph" transform="scale(1 1) rotate(0) translate(4 320)">
<title>src/io/model_loaders/model_loader.c</title>
<!-- Node1 -->
<g id="Node000001" class="node">
<title>Node1</title>
<g id="a_Node000001"><a xlink:title=" ">
<polygon fill="#999999" stroke="#666666" points="1636,-316 1518,-316 1518,-286 1636,-286 1636,-316"/>
<text text-anchor="start" x="1526" y="-304" font-family="Helvetica,sans-Serif" font-size="10.00">src/io/model_loaders</text>
<text text-anchor="middle" x="1577" y="-293" font-family="Helvetica,sans-Serif" font-size="10.00">/model_loader.c</text>
</a>
</g>
</g>
<!-- Node2 -->
<g id="Node000002" class="node">
<title>Node2</title>
<g id="a_Node000002"><a xlink:href="raptiquax_8h.html" target="_top" xlink:title="This file contains type definitions for fixed&#45;width integer types and floating&#45;point types.">
<polygon fill="white" stroke="#666666" points="899,-250 809,-250 809,-231 899,-231 899,-250"/>
<text text-anchor="middle" x="854" y="-238" font-family="Helvetica,sans-Serif" font-size="10.00">../../raptiquax.h</text>
</a>
</g>
</g>
<!-- Node1&#45;&gt;Node2 -->
<g id="edge1_Node000001_Node000002" class="edge">
<title>Node1&#45;&gt;Node2</title>
<g id="a_edge1_Node000001_Node000002"><a xlink:title=" ">
<path fill="none" stroke="#63b8ff" d="M1517.83,-295.21C1380.61,-284.11 1042.23,-256.73 909.09,-245.96"/>
<polygon fill="#63b8ff" stroke="#63b8ff" points="909.35,-242.47 899.11,-245.15 908.79,-249.44 909.35,-242.47"/>
</a>
</g>
</g>
<!-- Node24 -->
<g id="Node000024" class="node">
<title>Node24</title>
<g id="a_Node000024"><a xlink:href="math__util_8h.html" target="_top" xlink:title=" ">
<polygon fill="white" stroke="#666666" points="1518.5,-250 1399.5,-250 1399.5,-231 1518.5,-231 1518.5,-250"/>
<text text-anchor="middle" x="1459" y="-238" font-family="Helvetica,sans-Serif" font-size="10.00">../../math/math_util.h</text>
</a>
</g>
</g>
<!-- Node1&#45;&gt;Node24 -->
<g id="edge23_Node000001_Node000024" class="edge">
<title>Node1&#45;&gt;Node24</title>
<g id="a_edge23_Node000001_Node000024"><a xlink:title=" ">
<path fill="none" stroke="#63b8ff" d="M1548.74,-285.99C1529.58,-276.49 1504.42,-264.02 1485.61,-254.69"/>
<polygon fill="#63b8ff" stroke="#63b8ff" points="1486.94,-251.45 1476.43,-250.14 1483.83,-257.72 1486.94,-251.45"/>
</a>
</g>
</g>
<!-- Node25 -->
<g id="Node000025" class="node">
<title>Node25</title>
<g id="a_Node000025"><a xlink:href="model_8h.html" target="_top" xlink:title="Defines structures and functions for handling 3D models and their properties.">
<polygon fill="white" stroke="#666666" points="1640.5,-250 1575.5,-250 1575.5,-231 1640.5,-231 1640.5,-250"/>
<text text-anchor="middle" x="1608" y="-238" font-family="Helvetica,sans-Serif" font-size="10.00">../model.h</text>
</a>
</g>
</g>
<!-- Node1&#45;&gt;Node25 -->
<g id="edge24_Node000001_Node000025" class="edge">
<title>Node1&#45;&gt;Node25</title>
<g id="a_edge24_Node000001_Node000025"><a xlink:title=" ">
<path fill="none" stroke="#63b8ff" d="M1584.5,-285.84C1588.73,-277.87 1594.04,-267.84 1598.55,-259.33"/>
<polygon fill="#63b8ff" stroke="#63b8ff" points="1601.77,-260.74 1603.35,-250.27 1595.58,-257.46 1601.77,-260.74"/>
</a>
</g>
</g>
<!-- Node26 -->
<g id="Node000026" class="node">
<title>Node26</title>
<g id="a_Node000026"><a xlink:href="shader_8h.html" target="_top" xlink:title=" ">
<polygon fill="white" stroke="#666666" points="1553,-189.5 1495,-189.5 1495,-170.5 1553,-170.5 1553,-189.5"/>
<text text-anchor="middle" x="1524" y="-177.5" font-family="Helvetica,sans-Serif" font-size="10.00">shader.h</text>
</a>
</g>
</g>
<!-- Node1&#45;&gt;Node26 -->
<g id="edge30_Node000001_Node000026" class="edge">
<title>Node1&#45;&gt;Node26</title>
<g id="a_edge30_Node000001_Node000026"><a xlink:title=" ">
<path fill="none" stroke="#63b8ff" d="M1570.71,-285.88C1561.06,-264.22 1542.61,-222.78 1532.01,-198.99"/>
<polygon fill="#63b8ff" stroke="#63b8ff" points="1535.15,-197.42 1527.88,-189.71 1528.75,-200.27 1535.15,-197.42"/>
</a>
</g>
</g>
<!-- Node28 -->
<g id="Node000028" class="node">
<title>Node28</title>
<g id="a_Node000028"><a xlink:href="obj__loader_8h.html" target="_top" xlink:title=" ">
<polygon fill="white" stroke="#666666" points="1762,-129 1686,-129 1686,-110 1762,-110 1762,-129"/>
<text text-anchor="middle" x="1724" y="-117" font-family="Helvetica,sans-Serif" font-size="10.00">obj_loader.h</text>
</a>
</g>
</g>
<!-- Node1&#45;&gt;Node28 -->
<g id="edge31_Node000001_Node000028" class="edge">
<title>Node1&#45;&gt;Node28</title>
<g id="a_edge31_Node000001_Node000028"><a xlink:title=" ">
<path fill="none" stroke="#63b8ff" d="M1602.67,-285.9C1631.7,-268.51 1678.05,-236.15 1702,-195 1712.15,-177.55 1717.95,-155.04 1721.02,-139.35"/>
<polygon fill="#63b8ff" stroke="#63b8ff" points="1724.5,-139.76 1722.79,-129.3 1717.61,-138.54 1724.5,-139.76"/>
</a>
</g>
</g>
<!-- Node31 -->
<g id="Node000031" class="node">
<title>Node31</title>
<g id="a_Node000031"><a xlink:href="memory_8h.html" target="_top" xlink:title="Header file for memory management functions and structures.">
<polygon fill="white" stroke="#666666" points="1832.5,-250 1749.5,-250 1749.5,-231 1832.5,-231 1832.5,-250"/>
<text text-anchor="middle" x="1791" y="-238" font-family="Helvetica,sans-Serif" font-size="10.00">../../memory.h</text>
</a>
</g>
</g>
<!-- Node1&#45;&gt;Node31 -->
<g id="edge32_Node000001_Node000031" class="edge">
<title>Node1&#45;&gt;Node31</title>
<g id="a_edge32_Node000001_Node000031"><a xlink:title=" ">
<path fill="none" stroke="#63b8ff" d="M1628.26,-285.99C1665.51,-275.8 1715.27,-262.2 1749.92,-252.73"/>
<polygon fill="#63b8ff" stroke="#63b8ff" points="1750.99,-256.07 1759.71,-250.05 1749.14,-249.31 1750.99,-256.07"/>
</a>
</g>
</g>
<!-- Node3 -->
<g id="Node000003" class="node">
<title>Node3</title>
<g id="a_Node000003"><a xlink:title=" ">
<polygon fill="#e0e0e0" stroke="#999999" points="1325,-189.5 1275,-189.5 1275,-170.5 1325,-170.5 1325,-189.5"/>
<text text-anchor="middle" x="1300" y="-177.5" font-family="Helvetica,sans-Serif" font-size="10.00">stdio.h</text>
</a>
</g>
</g>
<!-- Node2&#45;&gt;Node3 -->
<g id="edge2_Node000002_Node000003" class="edge">
<title>Node2&#45;&gt;Node3</title>
<g id="a_edge2_Node000002_Node000003"><a xlink:title=" ">
<path fill="none" stroke="#63b8ff" d="M899.1,-238.62C975.49,-236.24 1134.77,-227.45 1265,-195 1267.3,-194.43 1269.66,-193.73 1272,-192.97"/>
<polygon fill="#63b8ff" stroke="#63b8ff" points="1273.23,-196.24 1281.42,-189.52 1270.83,-189.67 1273.23,-196.24"/>
</a>
</g>
</g>
<!-- Node4 -->
<g id="Node000004" class="node">
<title>Node4</title>
<g id="a_Node000004"><a xlink:title=" ">
<polygon fill="#e0e0e0" stroke="#999999" points="1396.5,-189.5 1343.5,-189.5 1343.5,-170.5 1396.5,-170.5 1396.5,-189.5"/>
<text text-anchor="middle" x="1370" y="-177.5" font-family="Helvetica,sans-Serif" font-size="10.00">stdint.h</text>
</a>
</g>
</g>
<!-- Node2&#45;&gt;Node4 -->
<g id="edge3_Node000002_Node000004" class="edge">
<title>Node2&#45;&gt;Node4</title>
<g id="a_edge3_Node000002_Node000004"><a xlink:title=" ">
<path fill="none" stroke="#63b8ff" d="M899.01,-239.47C984.8,-238.51 1177.2,-231.99 1334,-195 1336.37,-194.44 1338.79,-193.76 1341.2,-193"/>
<polygon fill="#63b8ff" stroke="#63b8ff" points="1342.63,-196.21 1350.88,-189.57 1340.29,-189.61 1342.63,-196.21"/>
</a>
</g>
</g>
<!-- Node5 -->
<g id="Node000005" class="node">
<title>Node5</title>
<g id="a_Node000005"><a xlink:title=" ">
<polygon fill="#e0e0e0" stroke="#999999" points="1477,-189.5 1415,-189.5 1415,-170.5 1477,-170.5 1477,-189.5"/>
<text text-anchor="middle" x="1446" y="-177.5" font-family="Helvetica,sans-Serif" font-size="10.00">stdbool.h</text>
</a>
</g>
</g>
<!-- Node2&#45;&gt;Node5 -->
<g id="edge4_Node000002_Node000005" class="edge">
<title>Node2&#45;&gt;Node5</title>
<g id="a_edge4_Node000002_Node000005"><a xlink:title=" ">
<path fill="none" stroke="#63b8ff" d="M899.17,-239.62C993.96,-239.06 1220.12,-233.4 1405,-195 1408.07,-194.36 1411.22,-193.56 1414.36,-192.67"/>
<polygon fill="#63b8ff" stroke="#63b8ff" points="1415.67,-195.93 1424.15,-189.58 1413.56,-189.25 1415.67,-195.93"/>
</a>
</g>
</g>
<!-- Node6 -->
<g id="Node000006" class="node">
<title>Node6</title>
<g id="a_Node000006"><a xlink:title=" ">
<polygon fill="#e0e0e0" stroke="#999999" points="56,-189.5 0,-189.5 0,-170.5 56,-170.5 56,-189.5"/>
<text text-anchor="middle" x="28" y="-177.5" font-family="Helvetica,sans-Serif" font-size="10.00">stdarg.h</text>
</a>
</g>
</g>
<!-- Node2&#45;&gt;Node6 -->
<g id="edge5_Node000002_Node000006" class="edge">
<title>Node2&#45;&gt;Node6</title>
<g id="a_edge5_Node000002_Node000006"><a xlink:title=" ">
<path fill="none" stroke="#63b8ff" d="M808.85,-238.76C663.47,-236.09 208.61,-225.46 65,-195 62.32,-194.43 59.58,-193.7 56.86,-192.87"/>
<polygon fill="#63b8ff" stroke="#63b8ff" points="57.85,-189.51 47.25,-189.55 55.56,-196.13 57.85,-189.51"/>
</a>
</g>
</g>
<!-- Node7 -->
<g id="Node000007" class="node">
<title>Node7</title>
<g id="a_Node000007"><a xlink:title=" ">
<polygon fill="#e0e0e0" stroke="#999999" points="127.5,-189.5 74.5,-189.5 74.5,-170.5 127.5,-170.5 127.5,-189.5"/>
<text text-anchor="middle" x="101" y="-177.5" font-family="Helvetica,sans-Serif" font-size="10.00">limits.h</text>
</a>
</g>
</g>
<!-- Node2&#45;&gt;Node7 -->
<g id="edge6_Node000002_Node000007" class="edge">
<title>Node2&#45;&gt;Node7</title>
<g id="a_edge6_Node000002_Node000007"><a xlink:title=" ">
<path fill="none" stroke="#63b8ff" d="M808.7,-238.51C672.14,-235.25 265.97,-223.36 137,-195 134.48,-194.45 131.9,-193.74 129.34,-192.94"/>
<polygon fill="#63b8ff" stroke="#63b8ff" points="130.31,-189.58 119.72,-189.54 127.98,-196.17 130.31,-189.58"/>
</a>
</g>
</g>
<!-- Node8 -->
<g id="Node000008" class="node">
<title>Node8</title>
<g id="a_Node000008"><a xlink:title=" ">
<polygon fill="#e0e0e0" stroke="#999999" points="218,-189.5 146,-189.5 146,-170.5 218,-170.5 218,-189.5"/>
<text text-anchor="middle" x="182" y="-177.5" font-family="Helvetica,sans-Serif" font-size="10.00">SDL2/SDL.h</text>
</a>
</g>
</g>
<!-- Node2&#45;&gt;Node8 -->
<g id="edge7_Node000002_Node000008" class="edge">
<title>Node2&#45;&gt;Node8</title>
<g id="a_edge7_Node000002_Node000008"><a xlink:title=" ">
<path fill="none" stroke="#63b8ff" d="M808.69,-239.84C704.84,-239.86 442.02,-235.51 227,-195 223.33,-194.31 219.53,-193.42 215.77,-192.42"/>
<polygon fill="#63b8ff" stroke="#63b8ff" points="216.61,-189.02 206.03,-189.6 214.66,-195.74 216.61,-189.02"/>
</a>
</g>
</g>
<!-- Node9 -->
<g id="Node000009" class="node">
<title>Node9</title>
<g id="a_Node000009"><a xlink:title=" ">
<polygon fill="#e0e0e0" stroke="#999999" points="344,-189.5 236,-189.5 236,-170.5 344,-170.5 344,-189.5"/>
<text text-anchor="middle" x="290" y="-177.5" font-family="Helvetica,sans-Serif" font-size="10.00">SDL2/SDL_image.h</text>
</a>
</g>
</g>
<!-- Node2&#45;&gt;Node9 -->
<g id="edge8_Node000002_Node000009" class="edge">
<title>Node2&#45;&gt;Node9</title>
<g id="a_edge8_Node000002_Node000009"><a xlink:title=" ">
<path fill="none" stroke="#63b8ff" d="M808.85,-237.46C720.76,-233.05 519.98,-220.86 353,-195 347.04,-194.08 340.8,-192.92 334.67,-191.68"/>
<polygon fill="#63b8ff" stroke="#63b8ff" points="335.02,-188.17 324.51,-189.52 333.56,-195.02 335.02,-188.17"/>
</a>
</g>
</g>
<!-- Node10 -->
<g id="Node000010" class="node">
<title>Node10</title>
<g id="a_Node000010"><a xlink:title=" ">
<polygon fill="#e0e0e0" stroke="#999999" points="472,-189.5 362,-189.5 362,-170.5 472,-170.5 472,-189.5"/>
<text text-anchor="middle" x="417" y="-177.5" font-family="Helvetica,sans-Serif" font-size="10.00">SDL2/SDL_opengl.h</text>
</a>
</g>
</g>
<!-- Node2&#45;&gt;Node10 -->
<g id="edge9_Node000002_Node000010" class="edge">
<title>Node2&#45;&gt;Node10</title>
<g id="a_edge9_Node000002_Node000010"><a xlink:title=" ">
<path fill="none" stroke="#63b8ff" d="M808.73,-235.52C738.34,-229.02 598.52,-214.82 481,-195 475.18,-194.02 469.09,-192.86 463.08,-191.64"/>
<polygon fill="#63b8ff" stroke="#63b8ff" points="463.6,-188.17 453.1,-189.53 462.16,-195.02 463.6,-188.17"/>
</a>
</g>
</g>
<!-- Node11 -->
<g id="Node000011" class="node">
<title>Node11</title>
<g id="a_Node000011"><a xlink:title=" ">
<polygon fill="#e0e0e0" stroke="#999999" points="594,-189.5 490,-189.5 490,-170.5 594,-170.5 594,-189.5"/>
<text text-anchor="middle" x="542" y="-177.5" font-family="Helvetica,sans-Serif" font-size="10.00">SDL2/SDL_mixer.h</text>
</a>
</g>
</g>
<!-- Node2&#45;&gt;Node11 -->
<g id="edge10_Node000002_Node000011" class="edge">
<title>Node2&#45;&gt;Node11</title>
<g id="a_edge10_Node000002_Node000011"><a xlink:title=" ">
<path fill="none" stroke="#63b8ff" d="M808.98,-232.22C758.65,-223.91 674.78,-209.59 603,-195 598,-193.98 592.79,-192.87 587.61,-191.73"/>
<polygon fill="#63b8ff" stroke="#63b8ff" points="588.26,-188.29 577.74,-189.52 586.73,-195.12 588.26,-188.29"/>
</a>
</g>
</g>
<!-- Node12 -->
<g id="Node000012" class="node">
<title>Node12</title>
<g id="a_Node000012"><a xlink:title=" ">
<polygon fill="#e0e0e0" stroke="#999999" points="700,-189.5 612,-189.5 612,-170.5 700,-170.5 700,-189.5"/>
<text text-anchor="middle" x="656" y="-177.5" font-family="Helvetica,sans-Serif" font-size="10.00">SDL2/SDL_ttf.h</text>
</a>
</g>
</g>
<!-- Node2&#45;&gt;Node12 -->
<g id="edge11_Node000002_Node000012" class="edge">
<title>Node2&#45;&gt;Node12</title>
<g id="a_edge11_Node000002_Node000012"><a xlink:title=" ">
<path fill="none" stroke="#63b8ff" d="M825.21,-230.99C790.75,-220.81 732.91,-203.72 694.6,-192.4"/>
<polygon fill="#63b8ff" stroke="#63b8ff" points="695.41,-188.99 684.83,-189.52 693.42,-195.71 695.41,-188.99"/>
</a>
</g>
</g>
<!-- Node13 -->
<g id="Node000013" class="node">
<title>Node13</title>
<g id="a_Node000013"><a xlink:title=" ">
<polygon fill="#e0e0e0" stroke="#999999" points="768,-189.5 718,-189.5 718,-170.5 768,-170.5 768,-189.5"/>
<text text-anchor="middle" x="743" y="-177.5" font-family="Helvetica,sans-Serif" font-size="10.00">GL/gl.h</text>
</a>
</g>
</g>
<!-- Node2&#45;&gt;Node13 -->
<g id="edge12_Node000002_Node000013" class="edge">
<title>Node2&#45;&gt;Node13</title>
<g id="a_edge12_Node000002_Node000013"><a xlink:title=" ">
<path fill="none" stroke="#63b8ff" d="M837.62,-230.87C819.42,-221.28 789.8,-205.67 768.55,-194.47"/>
<polygon fill="#63b8ff" stroke="#63b8ff" points="769.92,-191.23 759.45,-189.67 766.66,-197.43 769.92,-191.23"/>
</a>
</g>
</g>
<!-- Node14 -->
<g id="Node000014" class="node">
<title>Node14</title>
<g id="a_Node000014"><a xlink:title=" ">
<polygon fill="#e0e0e0" stroke="#999999" points="842,-189.5 786,-189.5 786,-170.5 842,-170.5 842,-189.5"/>
<text text-anchor="middle" x="814" y="-177.5" font-family="Helvetica,sans-Serif" font-size="10.00">GL/glu.h</text>
</a>
</g>
</g>
<!-- Node2&#45;&gt;Node14 -->
<g id="edge13_Node000002_Node000014" class="edge">
<title>Node2&#45;&gt;Node14</title>
<g id="a_edge13_Node000002_Node000014"><a xlink:title=" ">
<path fill="none" stroke="#63b8ff" d="M848.1,-230.87C842.25,-222.31 833.13,-208.97 825.79,-198.24"/>
<polygon fill="#63b8ff" stroke="#63b8ff" points="828.46,-195.95 819.93,-189.67 822.68,-199.9 828.46,-195.95"/>
</a>
</g>
</g>
<!-- Node15 -->
<g id="Node000015" class="node">
<title>Node15</title>
<g id="a_Node000015"><a xlink:title=" ">
<polygon fill="#e0e0e0" stroke="#999999" points="926,-189.5 860,-189.5 860,-170.5 926,-170.5 926,-189.5"/>
<text text-anchor="middle" x="893" y="-177.5" font-family="Helvetica,sans-Serif" font-size="10.00">GL/glext.h</text>
</a>
</g>
</g>
<!-- Node2&#45;&gt;Node15 -->
<g id="edge14_Node000002_Node000015" class="edge">
<title>Node2&#45;&gt;Node15</title>
<g id="a_edge14_Node000002_Node000015"><a xlink:title=" ">
<path fill="none" stroke="#63b8ff" d="M859.75,-230.87C865.46,-222.31 874.35,-208.97 881.51,-198.24"/>
<polygon fill="#63b8ff" stroke="#63b8ff" points="884.59,-199.93 887.22,-189.67 878.76,-196.05 884.59,-199.93"/>
</a>
</g>
</g>
<!-- Node16 -->
<g id="Node000016" class="node">
<title>Node16</title>
<g id="a_Node000016"><a xlink:title=" ">
<polygon fill="#e0e0e0" stroke="#999999" points="1021.5,-189.5 944.5,-189.5 944.5,-170.5 1021.5,-170.5 1021.5,-189.5"/>
<text text-anchor="middle" x="983" y="-177.5" font-family="Helvetica,sans-Serif" font-size="10.00">cglm/cglm.h</text>
</a>
</g>
</g>
<!-- Node2&#45;&gt;Node16 -->
<g id="edge15_Node000002_Node000016" class="edge">
<title>Node2&#45;&gt;Node16</title>
<g id="a_edge15_Node000002_Node000016"><a xlink:title=" ">
<path fill="none" stroke="#63b8ff" d="M872.76,-230.99C894.35,-221.2 930.03,-205.02 954.93,-193.73"/>
<polygon fill="#63b8ff" stroke="#63b8ff" points="956.56,-196.83 964.22,-189.52 953.67,-190.46 956.56,-196.83"/>
</a>
</g>
</g>
<!-- Node17 -->
<g id="Node000017" class="node">
<title>Node17</title>
<g id="a_Node000017"><a xlink:title=" ">
<polygon fill="#e0e0e0" stroke="#999999" points="1090.5,-189.5 1039.5,-189.5 1039.5,-170.5 1090.5,-170.5 1090.5,-189.5"/>
<text text-anchor="middle" x="1065" y="-177.5" font-family="Helvetica,sans-Serif" font-size="10.00">math.h</text>
</a>
</g>
</g>
<!-- Node2&#45;&gt;Node17 -->
<g id="edge16_Node000002_Node000017" class="edge">
<title>Node2&#45;&gt;Node17</title>
<g id="a_edge16_Node000002_Node000017"><a xlink:title=" ">
<path fill="none" stroke="#63b8ff" d="M893.92,-231C929.88,-222.97 983.99,-209.95 1030,-195 1031.67,-194.46 1033.37,-193.88 1035.08,-193.27"/>
<polygon fill="#63b8ff" stroke="#63b8ff" points="1036.68,-196.41 1044.81,-189.61 1034.22,-189.85 1036.68,-196.41"/>
</a>
</g>
</g>
<!-- Node18 -->
<g id="Node000018" class="node">
<title>Node18</title>
<g id="a_Node000018"><a xlink:href="stringio_8h.html" target="_top" xlink:title="Provides utility functions for string and file operations.">
<polygon fill="white" stroke="#666666" points="1183,-189.5 1109,-189.5 1109,-170.5 1183,-170.5 1183,-189.5"/>
<text text-anchor="middle" x="1146" y="-177.5" font-family="Helvetica,sans-Serif" font-size="10.00">io/stringio.h</text>
</a>
</g>
</g>
<!-- Node2&#45;&gt;Node18 -->
<g id="edge17_Node000002_Node000018" class="edge">
<title>Node2&#45;&gt;Node18</title>
<g id="a_edge17_Node000002_Node000018"><a xlink:title=" ">
<path fill="none" stroke="#63b8ff" d="M899.01,-232.84C948.39,-225.19 1029.83,-211.53 1099,-195 1102.42,-194.18 1105.95,-193.27 1109.48,-192.3"/>
<polygon fill="#63b8ff" stroke="#63b8ff" points="1110.64,-195.61 1119.29,-189.51 1108.72,-188.88 1110.64,-195.61"/>
</a>
</g>
</g>
<!-- Node20 -->
<g id="Node000020" class="node">
<title>Node20</title>
<g id="a_Node000020"><a xlink:href="config_8h.html" target="_top" xlink:title=" ">
<polygon fill="white" stroke="#666666" points="1256.5,-189.5 1201.5,-189.5 1201.5,-170.5 1256.5,-170.5 1256.5,-189.5"/>
<text text-anchor="middle" x="1229" y="-177.5" font-family="Helvetica,sans-Serif" font-size="10.00">config.h</text>
</a>
</g>
</g>
<!-- Node2&#45;&gt;Node20 -->
<g id="edge19_Node000002_Node000020" class="edge">
<title>Node2&#45;&gt;Node20</title>
<g id="a_edge19_Node000002_Node000020"><a xlink:title=" ">
<path fill="none" stroke="#63b8ff" d="M899.18,-236.87C964.59,-232.33 1089.11,-220.87 1192,-195 1194.45,-194.38 1196.96,-193.66 1199.46,-192.86"/>
<polygon fill="#63b8ff" stroke="#63b8ff" points="1200.63,-196.16 1208.91,-189.56 1198.32,-189.55 1200.63,-196.16"/>
</a>
</g>
</g>
<!-- Node19 -->
<g id="Node000019" class="node">
<title>Node19</title>
<g id="a_Node000019"><a xlink:title=" ">
<polygon fill="#e0e0e0" stroke="#999999" points="1172.5,-129 1119.5,-129 1119.5,-110 1172.5,-110 1172.5,-129"/>
<text text-anchor="middle" x="1146" y="-117" font-family="Helvetica,sans-Serif" font-size="10.00">string.h</text>
</a>
</g>
</g>
<!-- Node18&#45;&gt;Node19 -->
<g id="edge18_Node000018_Node000019" class="edge">
<title>Node18&#45;&gt;Node19</title>
<g id="a_edge18_Node000018_Node000019"><a xlink:title=" ">
<path fill="none" stroke="#63b8ff" d="M1146,-170.37C1146,-162.25 1146,-149.81 1146,-139.39"/>
<polygon fill="#63b8ff" stroke="#63b8ff" points="1149.5,-139.17 1146,-129.17 1142.5,-139.17 1149.5,-139.17"/>
</a>
</g>
</g>
<!-- Node21 -->
<g id="Node000021" class="node">
<title>Node21</title>
<g id="a_Node000021"><a xlink:href="term_8h.html" target="_top" xlink:title=" ">
<polygon fill="white" stroke="#666666" points="1266.5,-129 1191.5,-129 1191.5,-110 1266.5,-110 1266.5,-129"/>
<text text-anchor="middle" x="1229" y="-117" font-family="Helvetica,sans-Serif" font-size="10.00">term/term.h</text>
</a>
</g>
</g>
<!-- Node20&#45;&gt;Node21 -->
<g id="edge20_Node000020_Node000021" class="edge">
<title>Node20&#45;&gt;Node21</title>
<g id="a_edge20_Node000020_Node000021"><a xlink:title=" ">
<path fill="none" stroke="#63b8ff" d="M1229,-170.37C1229,-162.25 1229,-149.81 1229,-139.39"/>
<polygon fill="#63b8ff" stroke="#63b8ff" points="1232.5,-139.17 1229,-129.17 1225.5,-139.17 1232.5,-139.17"/>
</a>
</g>
</g>
<!-- Node22 -->
<g id="Node000022" class="node">
<title>Node22</title>
<g id="a_Node000022"><a xlink:href="enhanced__print_8h.html" target="_top" xlink:title=" ">
<polygon fill="white" stroke="#666666" points="1279.5,-74 1178.5,-74 1178.5,-55 1279.5,-55 1279.5,-74"/>
<text text-anchor="middle" x="1229" y="-62" font-family="Helvetica,sans-Serif" font-size="10.00">enhanced_print.h</text>
</a>
</g>
</g>
<!-- Node21&#45;&gt;Node22 -->
<g id="edge21_Node000021_Node000022" class="edge">
<title>Node21&#45;&gt;Node22</title>
<g id="a_edge21_Node000021_Node000022"><a xlink:title=" ">
<path fill="none" stroke="#63b8ff" d="M1229,-109.75C1229,-102.8 1229,-92.85 1229,-84.13"/>
<polygon fill="#63b8ff" stroke="#63b8ff" points="1232.5,-84.09 1229,-74.09 1225.5,-84.09 1232.5,-84.09"/>
</a>
</g>
</g>
<!-- Node23 -->
<g id="Node000023" class="node">
<title>Node23</title>
<g id="a_Node000023"><a xlink:href="color_8h.html" target="_top" xlink:title=" ">
<polygon fill="white" stroke="#666666" points="1253.5,-19 1204.5,-19 1204.5,0 1253.5,0 1253.5,-19"/>
<text text-anchor="middle" x="1229" y="-7" font-family="Helvetica,sans-Serif" font-size="10.00">color.h</text>
</a>
</g>
</g>
<!-- Node22&#45;&gt;Node23 -->
<g id="edge22_Node000022_Node000023" class="edge">
<title>Node22&#45;&gt;Node23</title>
<g id="a_edge22_Node000022_Node000023"><a xlink:title=" ">
<path fill="none" stroke="#63b8ff" d="M1229,-54.75C1229,-47.8 1229,-37.85 1229,-29.13"/>
<polygon fill="#63b8ff" stroke="#63b8ff" points="1232.5,-29.09 1229,-19.09 1225.5,-29.09 1232.5,-29.09"/>
</a>
</g>
</g>
<!-- Node25&#45;&gt;Node26 -->
<g id="edge25_Node000025_Node000026" class="edge">
<title>Node25&#45;&gt;Node26</title>
<g id="a_edge25_Node000025_Node000026"><a xlink:title=" ">
<path fill="none" stroke="#63b8ff" d="M1595.61,-230.87C1582.21,-221.54 1560.62,-206.51 1544.65,-195.38"/>
<polygon fill="#63b8ff" stroke="#63b8ff" points="1546.65,-192.51 1536.45,-189.67 1542.65,-198.25 1546.65,-192.51"/>
</a>
</g>
</g>
<!-- Node27 -->
<g id="Node000027" class="node">
<title>Node27</title>
<g id="a_Node000027"><a xlink:href="model__loader_8h.html" target="_top" xlink:title=" ">
<polygon fill="white" stroke="#666666" points="1693,-195 1571,-195 1571,-165 1693,-165 1693,-195"/>
<text text-anchor="start" x="1579" y="-183" font-family="Helvetica,sans-Serif" font-size="10.00">model_loaders/model</text>
<text text-anchor="middle" x="1632" y="-172" font-family="Helvetica,sans-Serif" font-size="10.00">_loader.h</text>
</a>
</g>
</g>
<!-- Node25&#45;&gt;Node27 -->
<g id="edge26_Node000025_Node000027" class="edge">
<title>Node25&#45;&gt;Node27</title>
<g id="a_edge26_Node000025_Node000027"><a xlink:title=" ">
<path fill="none" stroke="#63b8ff" d="M1611.54,-230.87C1614.41,-223.89 1618.58,-213.71 1622.41,-204.38"/>
<polygon fill="#63b8ff" stroke="#63b8ff" points="1625.65,-205.69 1626.21,-195.11 1619.18,-203.04 1625.65,-205.69"/>
</a>
</g>
</g>
<!-- Node27&#45;&gt;Node28 -->
<g id="edge27_Node000027_Node000028" class="edge">
<title>Node27&#45;&gt;Node28</title>
<g id="a_edge27_Node000027_Node000028"><a xlink:title=" ">
<path fill="none" stroke="#63b8ff" d="M1654.27,-164.84C1668.67,-155.68 1687.33,-143.82 1701.73,-134.66"/>
<polygon fill="#63b8ff" stroke="#63b8ff" points="1703.92,-137.41 1710.48,-129.09 1700.17,-131.51 1703.92,-137.41"/>
</a>
</g>
</g>
<!-- Node29 -->
<g id="Node000029" class="node">
<title>Node29</title>
<g id="a_Node000029"><a xlink:href="mtl__loader_8h.html" target="_top" xlink:title=" ">
<polygon fill="white" stroke="#666666" points="1572.5,-129 1495.5,-129 1495.5,-110 1572.5,-110 1572.5,-129"/>
<text text-anchor="middle" x="1534" y="-117" font-family="Helvetica,sans-Serif" font-size="10.00">mtl_loader.h</text>
</a>
</g>
</g>
<!-- Node27&#45;&gt;Node29 -->
<g id="edge28_Node000027_Node000029" class="edge">
<title>Node27&#45;&gt;Node29</title>
<g id="a_edge28_Node000027_Node000029"><a xlink:title=" ">
<path fill="none" stroke="#63b8ff" d="M1608.28,-164.84C1592.8,-155.6 1572.68,-143.59 1557.29,-134.4"/>
<polygon fill="#63b8ff" stroke="#63b8ff" points="1558.78,-131.21 1548.4,-129.09 1555.19,-137.23 1558.78,-131.21"/>
</a>
</g>
</g>
<!-- Node30 -->
<g id="Node000030" class="node">
<title>Node30</title>
<g id="a_Node000030"><a xlink:href="fbx__loader_8h.html" target="_top" xlink:title=" ">
<polygon fill="white" stroke="#666666" points="1667.5,-129 1590.5,-129 1590.5,-110 1667.5,-110 1667.5,-129"/>
<text text-anchor="middle" x="1629" y="-117" font-family="Helvetica,sans-Serif" font-size="10.00">fbx_loader.h</text>
</a>
</g>
</g>
<!-- Node27&#45;&gt;Node30 -->
<g id="edge29_Node000027_Node000030" class="edge">
<title>Node27&#45;&gt;Node30</title>
<g id="a_edge29_Node000027_Node000030"><a xlink:title=" ">
<path fill="none" stroke="#63b8ff" d="M1631.27,-164.84C1630.88,-157.21 1630.4,-147.7 1629.97,-139.45"/>
<polygon fill="#63b8ff" stroke="#63b8ff" points="1633.46,-139.07 1629.45,-129.27 1626.47,-139.43 1633.46,-139.07"/>
</a>
</g>
</g>
</g>
</svg>
