<?xml version="1.0" encoding="UTF-8" standalone="no"?>
<!DOCTYPE svg PUBLIC "-//W3C//DTD SVG 1.1//EN"
 "http://www.w3.org/Graphics/SVG/1.1/DTD/svg11.dtd">
<!-- Generated by graphviz version 2.43.0 (0)
 -->
<!-- Title: src/io/model_loaders/model_loader.h Pages: 1 -->
<svg width="7379pt" height="159pt"
 viewBox="0.00 0.00 7378.50 159.00" xmlns="http://www.w3.org/2000/svg" xmlns:xlink="http://www.w3.org/1999/xlink">
<g id="graph0" class="graph" transform="scale(1 1) rotate(0) translate(4 155)">
<title>src/io/model_loaders/model_loader.h</title>
<!-- Node1 -->
<g id="Node000001" class="node">
<title>Node1</title>
<g id="a_Node000001"><a xlink:title=" ">
<polygon fill="#999999" stroke="#666666" points="3908.5,-151 3790.5,-151 3790.5,-121 3908.5,-121 3908.5,-151"/>
<text text-anchor="start" x="3798.5" y="-139" font-family="Helvetica,sans-Serif" font-size="10.00">src/io/model_loaders</text>
<text text-anchor="middle" x="3849.5" y="-128" font-family="Helvetica,sans-Serif" font-size="10.00">/model_loader.h</text>
</a>
</g>
</g>
<!-- Node2 -->
<g id="Node000002" class="node">
<title>Node2</title>
<g id="a_Node000002"><a xlink:href="model_8h.html" target="_top" xlink:title="Defines structures and functions for handling 3D models and their properties.">
<polygon fill="#fff0f0" stroke="red" points="3892.5,-85 3806.5,-85 3806.5,-66 3892.5,-66 3892.5,-85"/>
<text text-anchor="middle" x="3849.5" y="-73" font-family="Helvetica,sans-Serif" font-size="10.00">src/io/model.h</text>
</a>
</g>
</g>
<!-- Node1&#45;&gt;Node2 -->
<g id="edge1_Node000001_Node000002" class="edge">
<title>Node1&#45;&gt;Node2</title>
<g id="a_edge1_Node000001_Node000002"><a xlink:title=" ">
<path fill="none" stroke="#63b8ff" d="M3849.5,-110.75C3849.5,-101.72 3849.5,-92.03 3849.5,-85.27"/>
<polygon fill="#63b8ff" stroke="#63b8ff" points="3846,-110.84 3849.5,-120.84 3853,-110.84 3846,-110.84"/>
</a>
</g>
</g>
<!-- Node3 -->
<g id="Node000003" class="node">
<title>Node3</title>
<g id="a_Node000003"><a xlink:href="node_8class_8c.html" target="_top" xlink:title="Implementation of the node class for the ProjetSDLOpenGLL2 project.">
<polygon fill="white" stroke="#666666" points="133,-24.5 0,-24.5 0,-5.5 133,-5.5 133,-24.5"/>
<text text-anchor="middle" x="66.5" y="-12.5" font-family="Helvetica,sans-Serif" font-size="10.00">src/classes/node.class.c</text>
</a>
</g>
</g>
<!-- Node2&#45;&gt;Node3 -->
<g id="edge2_Node000002_Node000003" class="edge">
<title>Node2&#45;&gt;Node3</title>
<g id="a_edge2_Node000002_Node000003"><a xlink:title=" ">
<path fill="none" stroke="#63b8ff" d="M3796.3,-74.41C3370.42,-73.61 521.68,-66.93 142.5,-30 130.48,-28.83 117.52,-26.75 105.77,-24.55"/>
<polygon fill="#63b8ff" stroke="#63b8ff" points="3796.48,-77.91 3806.48,-74.43 3796.49,-70.91 3796.48,-77.91"/>
</a>
</g>
</g>
<!-- Node4 -->
<g id="Node000004" class="node">
<title>Node4</title>
<g id="a_Node000004"><a xlink:href="camera_8class_8c.html" target="_top" xlink:title="This file contains the implementation of the Camera class.">
<polygon fill="white" stroke="#666666" points="329.5,-24.5 151.5,-24.5 151.5,-5.5 329.5,-5.5 329.5,-24.5"/>
<text text-anchor="middle" x="240.5" y="-12.5" font-family="Helvetica,sans-Serif" font-size="10.00">src/classes/nodes/camera.class.c</text>
</a>
</g>
</g>
<!-- Node2&#45;&gt;Node4 -->
<g id="edge3_Node000002_Node000004" class="edge">
<title>Node2&#45;&gt;Node4</title>
<g id="a_edge3_Node000002_Node000004"><a xlink:title=" ">
<path fill="none" stroke="#63b8ff" d="M3796.26,-74.24C3383.23,-72.18 697.41,-57.79 338.5,-30 323.08,-28.81 306.39,-26.72 291.23,-24.52"/>
<polygon fill="#63b8ff" stroke="#63b8ff" points="3796.41,-77.74 3806.42,-74.29 3796.44,-70.74 3796.41,-77.74"/>
</a>
</g>
</g>
<!-- Node5 -->
<g id="Node000005" class="node">
<title>Node5</title>
<g id="a_Node000005"><a xlink:href="box__cshape_8class_8c.html" target="_top" xlink:title="This source file defines the BoxCShape class and its associated methods.">
<polygon fill="white" stroke="#666666" points="493,-30 348,-30 348,0 493,0 493,-30"/>
<text text-anchor="start" x="356" y="-18" font-family="Helvetica,sans-Serif" font-size="10.00">src/classes/nodes/cshapes</text>
<text text-anchor="middle" x="420.5" y="-7" font-family="Helvetica,sans-Serif" font-size="10.00">/box_cshape.class.c</text>
</a>
</g>
</g>
<!-- Node2&#45;&gt;Node5 -->
<g id="edge4_Node000002_Node000005" class="edge">
<title>Node2&#45;&gt;Node5</title>
<g id="a_edge4_Node000002_Node000005"><a xlink:title=" ">
<path fill="none" stroke="#63b8ff" d="M3796.23,-74.3C3394.16,-72.73 842.61,-61.55 501.5,-30 498.8,-29.75 496.05,-29.46 493.29,-29.14"/>
<polygon fill="#63b8ff" stroke="#63b8ff" points="3796.4,-77.8 3806.42,-74.34 3796.43,-70.8 3796.4,-77.8"/>
</a>
</g>
</g>
<!-- Node6 -->
<g id="Node000006" class="node">
<title>Node6</title>
<g id="a_Node000006"><a xlink:href="capsule__cshape_8class_8c.html" target="_top" xlink:title="This file defines the implementation of the capsule shape class.">
<polygon fill="white" stroke="#666666" points="656,-30 511,-30 511,0 656,0 656,-30"/>
<text text-anchor="start" x="519" y="-18" font-family="Helvetica,sans-Serif" font-size="10.00">src/classes/nodes/cshapes</text>
<text text-anchor="middle" x="583.5" y="-7" font-family="Helvetica,sans-Serif" font-size="10.00">/capsule_cshape.class.c</text>
</a>
</g>
</g>
<!-- Node2&#45;&gt;Node6 -->
<g id="edge5_Node000002_Node000006" class="edge">
<title>Node2&#45;&gt;Node6</title>
<g id="a_edge5_Node000002_Node000006"><a xlink:title=" ">
<path fill="none" stroke="#63b8ff" d="M3796.1,-74.26C3404.94,-72.44 988.23,-60.05 664.5,-30 661.8,-29.75 659.05,-29.46 656.29,-29.14"/>
<polygon fill="#63b8ff" stroke="#63b8ff" points="3796.27,-77.76 3806.28,-74.31 3796.3,-70.76 3796.27,-77.76"/>
</a>
</g>
</g>
<!-- Node7 -->
<g id="Node000007" class="node">
<title>Node7</title>
<g id="a_Node000007"><a xlink:href="cshape_8class_8c.html" target="_top" xlink:title="This file defines the implementation of various CShape classes.">
<polygon fill="white" stroke="#666666" points="819,-30 674,-30 674,0 819,0 819,-30"/>
<text text-anchor="start" x="682" y="-18" font-family="Helvetica,sans-Serif" font-size="10.00">src/classes/nodes/cshapes</text>
<text text-anchor="middle" x="746.5" y="-7" font-family="Helvetica,sans-Serif" font-size="10.00">/cshape.class.c</text>
</a>
</g>
</g>
<!-- Node2&#45;&gt;Node7 -->
<g id="edge6_Node000002_Node000007" class="edge">
<title>Node2&#45;&gt;Node7</title>
<g id="a_edge6_Node000002_Node000007"><a xlink:title=" ">
<path fill="none" stroke="#63b8ff" d="M3796.18,-74.22C3416.91,-72.15 1133.93,-58.56 827.5,-30 824.8,-29.75 822.05,-29.46 819.29,-29.13"/>
<polygon fill="#63b8ff" stroke="#63b8ff" points="3796.31,-77.72 3806.33,-74.27 3796.35,-70.72 3796.31,-77.72"/>
</a>
</g>
</g>
<!-- Node8 -->
<g id="Node000008" class="node">
<title>Node8</title>
<g id="a_Node000008"><a xlink:href="mesh__cshape_8class_8c.html" target="_top" xlink:title="This file defines the implementation of mesh shapes for the project.">
<polygon fill="white" stroke="#666666" points="982,-30 837,-30 837,0 982,0 982,-30"/>
<text text-anchor="start" x="845" y="-18" font-family="Helvetica,sans-Serif" font-size="10.00">src/classes/nodes/cshapes</text>
<text text-anchor="middle" x="909.5" y="-7" font-family="Helvetica,sans-Serif" font-size="10.00">/mesh_cshape.class.c</text>
</a>
</g>
</g>
<!-- Node2&#45;&gt;Node8 -->
<g id="edge7_Node000002_Node000008" class="edge">
<title>Node2&#45;&gt;Node8</title>
<g id="a_edge7_Node000002_Node000008"><a xlink:title=" ">
<path fill="none" stroke="#63b8ff" d="M3796.19,-74.17C3428.93,-71.83 1279.64,-57.07 990.5,-30 987.8,-29.75 985.06,-29.45 982.29,-29.13"/>
<polygon fill="#63b8ff" stroke="#63b8ff" points="3796.27,-77.67 3806.29,-74.23 3796.31,-70.67 3796.27,-77.67"/>
</a>
</g>
</g>
<!-- Node9 -->
<g id="Node000009" class="node">
<title>Node9</title>
<g id="a_Node000009"><a xlink:href="plane__cshape_8class_8c.html" target="_top" xlink:title="This file defines the implementation of a plane shape class.">
<polygon fill="white" stroke="#666666" points="1145,-30 1000,-30 1000,0 1145,0 1145,-30"/>
<text text-anchor="start" x="1008" y="-18" font-family="Helvetica,sans-Serif" font-size="10.00">src/classes/nodes/cshapes</text>
<text text-anchor="middle" x="1072.5" y="-7" font-family="Helvetica,sans-Serif" font-size="10.00">/plane_cshape.class.c</text>
</a>
</g>
</g>
<!-- Node2&#45;&gt;Node9 -->
<g id="edge8_Node000002_Node000009" class="edge">
<title>Node2&#45;&gt;Node9</title>
<g id="a_edge8_Node000002_Node000009"><a xlink:title=" ">
<path fill="none" stroke="#63b8ff" d="M3795.98,-74.75C3464.99,-76.1 1693.51,-80.82 1153.5,-30 1150.8,-29.75 1148.06,-29.45 1145.29,-29.13"/>
<polygon fill="#63b8ff" stroke="#63b8ff" points="3796.26,-78.25 3806.25,-74.7 3796.23,-71.25 3796.26,-78.25"/>
</a>
</g>
</g>
<!-- Node10 -->
<g id="Node000010" class="node">
<title>Node10</title>
<g id="a_Node000010"><a xlink:href="ray__cshape_8class_8c.html" target="_top" xlink:title="This file defines the implementation of ray&#45;casting shapes.">
<polygon fill="white" stroke="#666666" points="1308,-30 1163,-30 1163,0 1308,0 1308,-30"/>
<text text-anchor="start" x="1171" y="-18" font-family="Helvetica,sans-Serif" font-size="10.00">src/classes/nodes/cshapes</text>
<text text-anchor="middle" x="1235.5" y="-7" font-family="Helvetica,sans-Serif" font-size="10.00">/ray_cshape.class.c</text>
</a>
</g>
</g>
<!-- Node2&#45;&gt;Node10 -->
<g id="edge9_Node000002_Node000010" class="edge">
<title>Node2&#45;&gt;Node10</title>
<g id="a_edge9_Node000002_Node000010"><a xlink:title=" ">
<path fill="none" stroke="#63b8ff" d="M3795.71,-74.68C3475.95,-75.58 1821.97,-77.84 1316.5,-30 1313.8,-29.74 1311.06,-29.45 1308.29,-29.12"/>
<polygon fill="#63b8ff" stroke="#63b8ff" points="3796.1,-78.18 3806.09,-74.65 3796.08,-71.18 3796.1,-78.18"/>
</a>
</g>
</g>
<!-- Node11 -->
<g id="Node000011" class="node">
<title>Node11</title>
<g id="a_Node000011"><a xlink:href="sphere__cshape_8class_8c.html" target="_top" xlink:title="This file contains the implementation of the SphereCShape class.">
<polygon fill="white" stroke="#666666" points="1471,-30 1326,-30 1326,0 1471,0 1471,-30"/>
<text text-anchor="start" x="1334" y="-18" font-family="Helvetica,sans-Serif" font-size="10.00">src/classes/nodes/cshapes</text>
<text text-anchor="middle" x="1398.5" y="-7" font-family="Helvetica,sans-Serif" font-size="10.00">/sphere_cshape.class.c</text>
</a>
</g>
</g>
<!-- Node2&#45;&gt;Node11 -->
<g id="edge10_Node000002_Node000011" class="edge">
<title>Node2&#45;&gt;Node11</title>
<g id="a_edge10_Node000002_Node000011"><a xlink:title=" ">
<path fill="none" stroke="#63b8ff" d="M3795.82,-74.59C3488.7,-74.93 1951.52,-74.38 1480.5,-30 1477.48,-29.72 1474.4,-29.38 1471.3,-29.01"/>
<polygon fill="#63b8ff" stroke="#63b8ff" points="3796.23,-78.09 3806.22,-74.58 3796.22,-71.09 3796.23,-78.09"/>
</a>
</g>
</g>
<!-- Node12 -->
<g id="Node000012" class="node">
<title>Node12</title>
<g id="a_Node000012"><a xlink:href="button_8class_8c.html" target="_top" xlink:title="This file defines the Button class and its associated methods.">
<polygon fill="white" stroke="#666666" points="1629.5,-30 1489.5,-30 1489.5,0 1629.5,0 1629.5,-30"/>
<text text-anchor="start" x="1497.5" y="-18" font-family="Helvetica,sans-Serif" font-size="10.00">src/classes/nodes/frames</text>
<text text-anchor="middle" x="1559.5" y="-7" font-family="Helvetica,sans-Serif" font-size="10.00">/button.class.c</text>
</a>
</g>
</g>
<!-- Node2&#45;&gt;Node12 -->
<g id="edge11_Node000002_Node000012" class="edge">
<title>Node2&#45;&gt;Node12</title>
<g id="a_edge11_Node000002_Node000012"><a xlink:title=" ">
<path fill="none" stroke="#63b8ff" d="M3795.68,-74.55C3500.55,-74.66 2076.09,-72.92 1638.5,-30 1635.59,-29.71 1632.62,-29.38 1629.63,-29.01"/>
<polygon fill="#63b8ff" stroke="#63b8ff" points="3796.1,-78.05 3806.1,-74.55 3796.1,-71.05 3796.1,-78.05"/>
</a>
</g>
</g>
<!-- Node13 -->
<g id="Node000013" class="node">
<title>Node13</title>
<g id="a_Node000013"><a xlink:href="checkbox_8class_8c.html" target="_top" xlink:title="Implementation of the Checkbox class for the GUI framework.">
<polygon fill="white" stroke="#666666" points="1787.5,-30 1647.5,-30 1647.5,0 1787.5,0 1787.5,-30"/>
<text text-anchor="start" x="1655.5" y="-18" font-family="Helvetica,sans-Serif" font-size="10.00">src/classes/nodes/frames</text>
<text text-anchor="middle" x="1717.5" y="-7" font-family="Helvetica,sans-Serif" font-size="10.00">/checkbox.class.c</text>
</a>
</g>
</g>
<!-- Node2&#45;&gt;Node13 -->
<g id="edge12_Node000002_Node000013" class="edge">
<title>Node2&#45;&gt;Node13</title>
<g id="a_edge12_Node000002_Node000013"><a xlink:title=" ">
<path fill="none" stroke="#63b8ff" d="M3795.96,-74.45C3514.21,-74.05 2201.07,-69.99 1796.5,-30 1793.59,-29.71 1790.62,-29.38 1787.63,-29.01"/>
<polygon fill="#63b8ff" stroke="#63b8ff" points="3796.31,-77.96 3806.31,-74.47 3796.32,-70.96 3796.31,-77.96"/>
</a>
</g>
</g>
<!-- Node14 -->
<g id="Node000014" class="node">
<title>Node14</title>
<g id="a_Node000014"><a xlink:href="control__frame_8class_8c.html" target="_top" xlink:title="This file defines the implementation of the control frame class.">
<polygon fill="white" stroke="#666666" points="1945.5,-30 1805.5,-30 1805.5,0 1945.5,0 1945.5,-30"/>
<text text-anchor="start" x="1813.5" y="-18" font-family="Helvetica,sans-Serif" font-size="10.00">src/classes/nodes/frames</text>
<text text-anchor="middle" x="1875.5" y="-7" font-family="Helvetica,sans-Serif" font-size="10.00">/control_frame.class.c</text>
</a>
</g>
</g>
<!-- Node2&#45;&gt;Node14 -->
<g id="edge13_Node000002_Node000014" class="edge">
<title>Node2&#45;&gt;Node14</title>
<g id="a_edge13_Node000002_Node000014"><a xlink:title=" ">
<path fill="none" stroke="#63b8ff" d="M3796.25,-74.34C3528.35,-73.39 2326.11,-67.07 1954.5,-30 1951.59,-29.71 1948.62,-29.37 1945.63,-29"/>
<polygon fill="#63b8ff" stroke="#63b8ff" points="3796.47,-77.84 3806.48,-74.38 3796.5,-70.84 3796.47,-77.84"/>
</a>
</g>
</g>
<!-- Node15 -->
<g id="Node000015" class="node">
<title>Node15</title>
<g id="a_Node000015"><a xlink:href="frame_8class_8c.html" target="_top" xlink:title="This file defines the implementation of frame&#45;related functionalities.">
<polygon fill="white" stroke="#666666" points="2103.5,-30 1963.5,-30 1963.5,0 2103.5,0 2103.5,-30"/>
<text text-anchor="start" x="1971.5" y="-18" font-family="Helvetica,sans-Serif" font-size="10.00">src/classes/nodes/frames</text>
<text text-anchor="middle" x="2033.5" y="-7" font-family="Helvetica,sans-Serif" font-size="10.00">/frame.class.c</text>
</a>
</g>
</g>
<!-- Node2&#45;&gt;Node15 -->
<g id="edge14_Node000002_Node000015" class="edge">
<title>Node2&#45;&gt;Node15</title>
<g id="a_edge14_Node000002_Node000015"><a xlink:title=" ">
<path fill="none" stroke="#63b8ff" d="M3796.23,-74.21C3542.08,-72.67 2451.09,-64.14 2112.5,-30 2109.59,-29.71 2106.63,-29.37 2103.64,-28.99"/>
<polygon fill="#63b8ff" stroke="#63b8ff" points="3796.29,-77.71 3806.32,-74.27 3796.34,-70.71 3796.29,-77.71"/>
</a>
</g>
</g>
<!-- Node16 -->
<g id="Node000016" class="node">
<title>Node16</title>
<g id="a_Node000016"><a xlink:href="image__frame_8class_8c.html" target="_top" xlink:title="This file contains the implementation of the ImageFrame class.">
<polygon fill="white" stroke="#666666" points="2261.5,-30 2121.5,-30 2121.5,0 2261.5,0 2261.5,-30"/>
<text text-anchor="start" x="2129.5" y="-18" font-family="Helvetica,sans-Serif" font-size="10.00">src/classes/nodes/frames</text>
<text text-anchor="middle" x="2191.5" y="-7" font-family="Helvetica,sans-Serif" font-size="10.00">/image_frame.class.c</text>
</a>
</g>
</g>
<!-- Node2&#45;&gt;Node16 -->
<g id="edge15_Node000002_Node000016" class="edge">
<title>Node2&#45;&gt;Node16</title>
<g id="a_edge15_Node000002_Node000016"><a xlink:title=" ">
<path fill="none" stroke="#63b8ff" d="M3796.12,-74.05C3556.2,-71.88 2576.12,-61.22 2270.5,-30 2267.59,-29.7 2264.63,-29.36 2261.64,-28.98"/>
<polygon fill="#63b8ff" stroke="#63b8ff" points="3796.29,-77.55 3806.32,-74.14 3796.35,-70.55 3796.29,-77.55"/>
</a>
</g>
</g>
<!-- Node17 -->
<g id="Node000017" class="node">
<title>Node17</title>
<g id="a_Node000017"><a xlink:href="input__area_8class_8c.html" target="_top" xlink:title="This file defines the InputArea class and its associated methods.">
<polygon fill="white" stroke="#666666" points="2419.5,-30 2279.5,-30 2279.5,0 2419.5,0 2419.5,-30"/>
<text text-anchor="start" x="2287.5" y="-18" font-family="Helvetica,sans-Serif" font-size="10.00">src/classes/nodes/frames</text>
<text text-anchor="middle" x="2349.5" y="-7" font-family="Helvetica,sans-Serif" font-size="10.00">/input_area.class.c</text>
</a>
</g>
</g>
<!-- Node2&#45;&gt;Node17 -->
<g id="edge16_Node000002_Node000017" class="edge">
<title>Node2&#45;&gt;Node17</title>
<g id="a_edge16_Node000002_Node000017"><a xlink:title=" ">
<path fill="none" stroke="#63b8ff" d="M3796.06,-73.86C3571.24,-71 2701.28,-58.29 2428.5,-30 2425.59,-29.7 2422.63,-29.35 2419.64,-28.97"/>
<polygon fill="#63b8ff" stroke="#63b8ff" points="3796.23,-77.36 3806.27,-73.99 3796.32,-70.36 3796.23,-77.36"/>
</a>
</g>
</g>
<!-- Node18 -->
<g id="Node000018" class="node">
<title>Node18</title>
<g id="a_Node000018"><a xlink:href="label_8class_8c.html" target="_top" xlink:title="This file defines the Label class and its associated functions.">
<polygon fill="white" stroke="#666666" points="2577.5,-30 2437.5,-30 2437.5,0 2577.5,0 2577.5,-30"/>
<text text-anchor="start" x="2445.5" y="-18" font-family="Helvetica,sans-Serif" font-size="10.00">src/classes/nodes/frames</text>
<text text-anchor="middle" x="2507.5" y="-7" font-family="Helvetica,sans-Serif" font-size="10.00">/label.class.c</text>
</a>
</g>
</g>
<!-- Node2&#45;&gt;Node18 -->
<g id="edge17_Node000002_Node000018" class="edge">
<title>Node2&#45;&gt;Node18</title>
<g id="a_edge17_Node000002_Node000018"><a xlink:title=" ">
<path fill="none" stroke="#63b8ff" d="M3796.29,-73.62C3587.86,-70.02 2826.68,-55.39 2586.5,-30 2583.59,-29.69 2580.63,-29.34 2577.64,-28.96"/>
<polygon fill="#63b8ff" stroke="#63b8ff" points="3796.3,-77.12 3806.36,-73.79 3796.42,-70.12 3796.3,-77.12"/>
</a>
</g>
</g>
<!-- Node19 -->
<g id="Node000019" class="node">
<title>Node19</title>
<g id="a_Node000019"><a xlink:href="radiobutton_8class_8c.html" target="_top" xlink:title="Implementation of the RadioButton class.">
<polygon fill="white" stroke="#666666" points="2735.5,-30 2595.5,-30 2595.5,0 2735.5,0 2735.5,-30"/>
<text text-anchor="start" x="2603.5" y="-18" font-family="Helvetica,sans-Serif" font-size="10.00">src/classes/nodes/frames</text>
<text text-anchor="middle" x="2665.5" y="-7" font-family="Helvetica,sans-Serif" font-size="10.00">/radiobutton.class.c</text>
</a>
</g>
</g>
<!-- Node2&#45;&gt;Node19 -->
<g id="edge18_Node000002_Node000019" class="edge">
<title>Node2&#45;&gt;Node19</title>
<g id="a_edge18_Node000002_Node000019"><a xlink:title=" ">
<path fill="none" stroke="#63b8ff" d="M3796.39,-74.9C3636.73,-75.56 3147.24,-73.59 2744.5,-30 2741.59,-29.69 2738.63,-29.33 2735.64,-28.94"/>
<polygon fill="#63b8ff" stroke="#63b8ff" points="3796.44,-78.4 3806.43,-74.85 3796.41,-71.4 3796.44,-78.4"/>
</a>
</g>
</g>
<!-- Node20 -->
<g id="Node000020" class="node">
<title>Node20</title>
<g id="a_Node000020"><a xlink:href="selectlist_8class_8c.html" target="_top" xlink:title="This file implements the functionality for a selectable list frame in the application.">
<polygon fill="white" stroke="#666666" points="2893.5,-30 2753.5,-30 2753.5,0 2893.5,0 2893.5,-30"/>
<text text-anchor="start" x="2761.5" y="-18" font-family="Helvetica,sans-Serif" font-size="10.00">src/classes/nodes/frames</text>
<text text-anchor="middle" x="2823.5" y="-7" font-family="Helvetica,sans-Serif" font-size="10.00">/selectlist.class.c</text>
</a>
</g>
</g>
<!-- Node2&#45;&gt;Node20 -->
<g id="edge19_Node000002_Node000020" class="edge">
<title>Node2&#45;&gt;Node20</title>
<g id="a_edge19_Node000002_Node000020"><a xlink:title=" ">
<path fill="none" stroke="#63b8ff" d="M3796.06,-74.39C3651.56,-73.57 3241.21,-67.81 2902.5,-30 2899.59,-29.68 2896.63,-29.31 2893.64,-28.91"/>
<polygon fill="#63b8ff" stroke="#63b8ff" points="3796.38,-77.89 3806.4,-74.44 3796.42,-70.89 3796.38,-77.89"/>
</a>
</g>
</g>
<!-- Node21 -->
<g id="Node000021" class="node">
<title>Node21</title>
<g id="a_Node000021"><a xlink:href="slider_8class_8c.html" target="_top" xlink:title=" ">
<polygon fill="white" stroke="#666666" points="3051.5,-30 2911.5,-30 2911.5,0 3051.5,0 3051.5,-30"/>
<text text-anchor="start" x="2919.5" y="-18" font-family="Helvetica,sans-Serif" font-size="10.00">src/classes/nodes/frames</text>
<text text-anchor="middle" x="2981.5" y="-7" font-family="Helvetica,sans-Serif" font-size="10.00">/slider.class.c</text>
</a>
</g>
</g>
<!-- Node2&#45;&gt;Node21 -->
<g id="edge20_Node000002_Node000021" class="edge">
<title>Node2&#45;&gt;Node21</title>
<g id="a_edge20_Node000002_Node000021"><a xlink:title=" ">
<path fill="none" stroke="#63b8ff" d="M3795.87,-73.67C3668.11,-71.23 3335.87,-62.05 3060.5,-30 3057.59,-29.66 3054.63,-29.28 3051.65,-28.88"/>
<polygon fill="#63b8ff" stroke="#63b8ff" points="3796.09,-77.18 3806.15,-73.87 3796.22,-70.18 3796.09,-77.18"/>
</a>
</g>
</g>
<!-- Node22 -->
<g id="Node000022" class="node">
<title>Node22</title>
<g id="a_Node000022"><a xlink:href="directional__light_8class_8c.html" target="_top" xlink:title="This file contains the implementation of the directional light class.">
<polygon fill="white" stroke="#666666" points="3203.5,-30 3069.5,-30 3069.5,0 3203.5,0 3203.5,-30"/>
<text text-anchor="start" x="3077.5" y="-18" font-family="Helvetica,sans-Serif" font-size="10.00">src/classes/nodes/lights</text>
<text text-anchor="middle" x="3136.5" y="-7" font-family="Helvetica,sans-Serif" font-size="10.00">/directional_light.class.c</text>
</a>
</g>
</g>
<!-- Node2&#45;&gt;Node22 -->
<g id="edge21_Node000002_Node000022" class="edge">
<title>Node2&#45;&gt;Node22</title>
<g id="a_edge21_Node000002_Node000022"><a xlink:title=" ">
<path fill="none" stroke="#63b8ff" d="M3796.33,-72.81C3686.76,-68.87 3427.99,-57.29 3212.5,-30 3209.57,-29.63 3206.59,-29.22 3203.57,-28.78"/>
<polygon fill="#63b8ff" stroke="#63b8ff" points="3796.35,-76.31 3806.47,-73.16 3796.6,-69.31 3796.35,-76.31"/>
</a>
</g>
</g>
<!-- Node23 -->
<g id="Node000023" class="node">
<title>Node23</title>
<g id="a_Node000023"><a xlink:href="light_8class_8c.html" target="_top" xlink:title="This file contains the implementation of the light class for the project.">
<polygon fill="white" stroke="#666666" points="3353.5,-30 3221.5,-30 3221.5,0 3353.5,0 3353.5,-30"/>
<text text-anchor="start" x="3229.5" y="-18" font-family="Helvetica,sans-Serif" font-size="10.00">src/classes/nodes/lights</text>
<text text-anchor="middle" x="3287.5" y="-7" font-family="Helvetica,sans-Serif" font-size="10.00">/light.class.c</text>
</a>
</g>
</g>
<!-- Node2&#45;&gt;Node23 -->
<g id="edge22_Node000002_Node000023" class="edge">
<title>Node2&#45;&gt;Node23</title>
<g id="a_edge22_Node000002_Node000023"><a xlink:title=" ">
<path fill="none" stroke="#63b8ff" d="M3796.15,-71.26C3706.35,-65.45 3519.43,-51.77 3362.5,-30 3359.61,-29.6 3356.67,-29.16 3353.7,-28.7"/>
<polygon fill="#63b8ff" stroke="#63b8ff" points="3796.15,-74.77 3806.35,-71.92 3796.59,-67.78 3796.15,-74.77"/>
</a>
</g>
</g>
<!-- Node24 -->
<g id="Node000024" class="node">
<title>Node24</title>
<g id="a_Node000024"><a xlink:href="point__light_8class_8c.html" target="_top" xlink:title="This file contains the implementation of the PointLight class.">
<polygon fill="white" stroke="#666666" points="3503.5,-30 3371.5,-30 3371.5,0 3503.5,0 3503.5,-30"/>
<text text-anchor="start" x="3379.5" y="-18" font-family="Helvetica,sans-Serif" font-size="10.00">src/classes/nodes/lights</text>
<text text-anchor="middle" x="3437.5" y="-7" font-family="Helvetica,sans-Serif" font-size="10.00">/point_light.class.c</text>
</a>
</g>
</g>
<!-- Node2&#45;&gt;Node24 -->
<g id="edge23_Node000002_Node000024" class="edge">
<title>Node2&#45;&gt;Node24</title>
<g id="a_edge23_Node000002_Node000024"><a xlink:title=" ">
<path fill="none" stroke="#63b8ff" d="M3796.06,-68.34C3729.5,-60.45 3612.35,-45.9 3512.5,-30 3509.62,-29.54 3506.69,-29.06 3503.72,-28.56"/>
<polygon fill="#63b8ff" stroke="#63b8ff" points="3795.96,-71.85 3806.3,-69.54 3796.78,-64.9 3795.96,-71.85"/>
</a>
</g>
</g>
<!-- Node25 -->
<g id="Node000025" class="node">
<title>Node25</title>
<g id="a_Node000025"><a xlink:href="spot__light_8class_8c.html" target="_top" xlink:title="This file contains the implementation of the SpotLight class.">
<polygon fill="white" stroke="#666666" points="3653.5,-30 3521.5,-30 3521.5,0 3653.5,0 3653.5,-30"/>
<text text-anchor="start" x="3529.5" y="-18" font-family="Helvetica,sans-Serif" font-size="10.00">src/classes/nodes/lights</text>
<text text-anchor="middle" x="3587.5" y="-7" font-family="Helvetica,sans-Serif" font-size="10.00">/spot_light.class.c</text>
</a>
</g>
</g>
<!-- Node2&#45;&gt;Node25 -->
<g id="edge24_Node000002_Node000025" class="edge">
<title>Node2&#45;&gt;Node25</title>
<g id="a_edge24_Node000002_Node000025"><a xlink:title=" ">
<path fill="none" stroke="#63b8ff" d="M3801.58,-63.8C3759.08,-54.31 3696.7,-40.38 3650.24,-30.01"/>
<polygon fill="#63b8ff" stroke="#63b8ff" points="3800.88,-67.23 3811.4,-65.99 3802.41,-60.4 3800.88,-67.23"/>
</a>
</g>
</g>
<!-- Node26 -->
<g id="Node000026" class="node">
<title>Node26</title>
<g id="a_Node000026"><a xlink:href="mesh_8class_8c.html" target="_top" xlink:title="This file defines the implementation of the Mesh class.">
<polygon fill="white" stroke="#666666" points="3839.5,-24.5 3671.5,-24.5 3671.5,-5.5 3839.5,-5.5 3839.5,-24.5"/>
<text text-anchor="middle" x="3755.5" y="-12.5" font-family="Helvetica,sans-Serif" font-size="10.00">src/classes/nodes/mesh.class.c</text>
</a>
</g>
</g>
<!-- Node2&#45;&gt;Node26 -->
<g id="edge25_Node000002_Node000026" class="edge">
<title>Node2&#45;&gt;Node26</title>
<g id="a_edge25_Node000002_Node000026"><a xlink:title=" ">
<path fill="none" stroke="#63b8ff" d="M3826.95,-60.47C3809.05,-49.32 3784.58,-34.1 3769.43,-24.67"/>
<polygon fill="#63b8ff" stroke="#63b8ff" points="3825.29,-63.56 3835.63,-65.87 3828.99,-57.61 3825.29,-63.56"/>
</a>
</g>
</g>
<!-- Node27 -->
<g id="Node000027" class="node">
<title>Node27</title>
<g id="a_Node000027"><a xlink:href="model_8class_8c.html" target="_top" xlink:title="This file contains the implementation of the model class.">
<polygon fill="white" stroke="#666666" points="4029.5,-24.5 3857.5,-24.5 3857.5,-5.5 4029.5,-5.5 4029.5,-24.5"/>
<text text-anchor="middle" x="3943.5" y="-12.5" font-family="Helvetica,sans-Serif" font-size="10.00">src/classes/nodes/model.class.c</text>
</a>
</g>
</g>
<!-- Node2&#45;&gt;Node27 -->
<g id="edge26_Node000002_Node000027" class="edge">
<title>Node2&#45;&gt;Node27</title>
<g id="a_edge26_Node000002_Node000027"><a xlink:title=" ">
<path fill="none" stroke="#63b8ff" d="M3872.05,-60.47C3889.95,-49.32 3914.42,-34.1 3929.57,-24.67"/>
<polygon fill="#63b8ff" stroke="#63b8ff" points="3870.01,-57.61 3863.37,-65.87 3873.71,-63.56 3870.01,-57.61"/>
</a>
</g>
</g>
<!-- Node28 -->
<g id="Node000028" class="node">
<title>Node28</title>
<g id="a_Node000028"><a xlink:href="area_8class_8c.html" target="_top" xlink:title="This file handles the physics area nodes in the project.">
<polygon fill="white" stroke="#666666" points="4189.5,-30 4047.5,-30 4047.5,0 4189.5,0 4189.5,-30"/>
<text text-anchor="start" x="4055.5" y="-18" font-family="Helvetica,sans-Serif" font-size="10.00">src/classes/nodes/physics</text>
<text text-anchor="middle" x="4118.5" y="-7" font-family="Helvetica,sans-Serif" font-size="10.00">/area.class.c</text>
</a>
</g>
</g>
<!-- Node2&#45;&gt;Node28 -->
<g id="edge27_Node000002_Node000028" class="edge">
<title>Node2&#45;&gt;Node28</title>
<g id="a_edge27_Node000002_Node000028"><a xlink:title=" ">
<path fill="none" stroke="#63b8ff" d="M3898.42,-63.86C3942.07,-54.37 4006.28,-40.41 4054.09,-30.01"/>
<polygon fill="#63b8ff" stroke="#63b8ff" points="3897.64,-60.45 3888.61,-65.99 3899.13,-67.29 3897.64,-60.45"/>
</a>
</g>
</g>
<!-- Node29 -->
<g id="Node000029" class="node">
<title>Node29</title>
<g id="a_Node000029"><a xlink:href="body_8class_8c.html" target="_top" xlink:title="This file defines the body class for the physics engine.">
<polygon fill="white" stroke="#666666" points="4349.5,-30 4207.5,-30 4207.5,0 4349.5,0 4349.5,-30"/>
<text text-anchor="start" x="4215.5" y="-18" font-family="Helvetica,sans-Serif" font-size="10.00">src/classes/nodes/physics</text>
<text text-anchor="middle" x="4278.5" y="-7" font-family="Helvetica,sans-Serif" font-size="10.00">/bodies/body.class.c</text>
</a>
</g>
</g>
<!-- Node2&#45;&gt;Node29 -->
<g id="edge28_Node000002_Node000029" class="edge">
<title>Node2&#45;&gt;Node29</title>
<g id="a_edge28_Node000002_Node000029"><a xlink:title=" ">
<path fill="none" stroke="#63b8ff" d="M3902.69,-68.5C3971.21,-60.58 4093.95,-45.81 4198.5,-30 4201.43,-29.56 4204.41,-29.09 4207.43,-28.61"/>
<polygon fill="#63b8ff" stroke="#63b8ff" points="3902.11,-65.04 3892.57,-69.66 3902.91,-71.99 3902.11,-65.04"/>
</a>
</g>
</g>
<!-- Node30 -->
<g id="Node000030" class="node">
<title>Node30</title>
<g id="a_Node000030"><a xlink:href="kinematic__body_8class_8c.html" target="_top" xlink:title="This file defines the implementation of kinematic bodies for the physics engine.">
<polygon fill="white" stroke="#666666" points="4535,-30 4368,-30 4368,0 4535,0 4535,-30"/>
<text text-anchor="start" x="4376" y="-18" font-family="Helvetica,sans-Serif" font-size="10.00">src/classes/nodes/physics</text>
<text text-anchor="middle" x="4451.5" y="-7" font-family="Helvetica,sans-Serif" font-size="10.00">/bodies/kinematic_body.class.c</text>
</a>
</g>
</g>
<!-- Node2&#45;&gt;Node30 -->
<g id="edge29_Node000002_Node000030" class="edge">
<title>Node2&#45;&gt;Node30</title>
<g id="a_edge29_Node000002_Node000030"><a xlink:title=" ">
<path fill="none" stroke="#63b8ff" d="M3902.82,-70.94C3995.61,-64.49 4192.73,-49.7 4358.5,-30 4361.58,-29.63 4364.72,-29.24 4367.88,-28.84"/>
<polygon fill="#63b8ff" stroke="#63b8ff" points="3902.57,-67.44 3892.83,-71.63 3903.05,-74.43 3902.57,-67.44"/>
</a>
</g>
</g>
<!-- Node31 -->
<g id="Node000031" class="node">
<title>Node31</title>
<g id="a_Node000031"><a xlink:href="rigid__body_8class_8c.html" target="_top" xlink:title="This source file defines the implementation of rigid body physics for the project.">
<polygon fill="white" stroke="#666666" points="4695.5,-30 4553.5,-30 4553.5,0 4695.5,0 4695.5,-30"/>
<text text-anchor="start" x="4561.5" y="-18" font-family="Helvetica,sans-Serif" font-size="10.00">src/classes/nodes/physics</text>
<text text-anchor="middle" x="4624.5" y="-7" font-family="Helvetica,sans-Serif" font-size="10.00">/bodies/rigid_body.class.c</text>
</a>
</g>
</g>
<!-- Node2&#45;&gt;Node31 -->
<g id="edge30_Node000002_Node000031" class="edge">
<title>Node2&#45;&gt;Node31</title>
<g id="a_edge30_Node000002_Node000031"><a xlink:title=" ">
<path fill="none" stroke="#63b8ff" d="M3902.85,-73.07C4019.56,-69.51 4306.18,-58.4 4544.5,-30 4547.44,-29.65 4550.44,-29.26 4553.46,-28.85"/>
<polygon fill="#63b8ff" stroke="#63b8ff" points="3902.65,-69.58 3892.76,-73.37 3902.86,-76.57 3902.65,-69.58"/>
</a>
</g>
</g>
<!-- Node32 -->
<g id="Node000032" class="node">
<title>Node32</title>
<g id="a_Node000032"><a xlink:href="static__body_8class_8c.html" target="_top" xlink:title="This file defines the implementation of static bodies in the physics engine.">
<polygon fill="white" stroke="#666666" points="4859.5,-30 4713.5,-30 4713.5,0 4859.5,0 4859.5,-30"/>
<text text-anchor="start" x="4721.5" y="-18" font-family="Helvetica,sans-Serif" font-size="10.00">src/classes/nodes/physics</text>
<text text-anchor="middle" x="4786.5" y="-7" font-family="Helvetica,sans-Serif" font-size="10.00">/bodies/static_body.class.c</text>
</a>
</g>
</g>
<!-- Node2&#45;&gt;Node32 -->
<g id="edge31_Node000002_Node000032" class="edge">
<title>Node2&#45;&gt;Node32</title>
<g id="a_edge31_Node000002_Node000032"><a xlink:title=" ">
<path fill="none" stroke="#63b8ff" d="M3902.85,-73.89C4037.62,-71.88 4402.5,-63.52 4704.5,-30 4707.37,-29.68 4710.29,-29.33 4713.24,-28.94"/>
<polygon fill="#63b8ff" stroke="#63b8ff" points="3902.74,-70.39 3892.8,-74.04 3902.84,-77.39 3902.74,-70.39"/>
</a>
</g>
</g>
<!-- Node33 -->
<g id="Node000033" class="node">
<title>Node33</title>
<g id="a_Node000033"><a xlink:href="physical__node_8class_8c.html" target="_top" xlink:title="This file contains the implementation of the PhysicalNode class.">
<polygon fill="white" stroke="#666666" points="5019.5,-30 4877.5,-30 4877.5,0 5019.5,0 5019.5,-30"/>
<text text-anchor="start" x="4885.5" y="-18" font-family="Helvetica,sans-Serif" font-size="10.00">src/classes/nodes/physics</text>
<text text-anchor="middle" x="4948.5" y="-7" font-family="Helvetica,sans-Serif" font-size="10.00">/physical_node.class.c</text>
</a>
</g>
</g>
<!-- Node2&#45;&gt;Node33 -->
<g id="edge32_Node000002_Node000033" class="edge">
<title>Node2&#45;&gt;Node33</title>
<g id="a_edge32_Node000002_Node000033"><a xlink:title=" ">
<path fill="none" stroke="#63b8ff" d="M3903.29,-74.6C4055.33,-74.36 4501.04,-70.01 4868.5,-30 4871.44,-29.68 4874.44,-29.32 4877.47,-28.92"/>
<polygon fill="#63b8ff" stroke="#63b8ff" points="3902.85,-71.1 3892.86,-74.61 3902.86,-78.1 3902.85,-71.1"/>
</a>
</g>
</g>
<!-- Node34 -->
<g id="Node000034" class="node">
<title>Node34</title>
<g id="a_Node000034"><a xlink:href="render__target_8class_8c.html" target="_top" xlink:title="Framebuffer class implementation.">
<polygon fill="white" stroke="#666666" points="5175,-30 5038,-30 5038,0 5175,0 5175,-30"/>
<text text-anchor="start" x="5046" y="-18" font-family="Helvetica,sans-Serif" font-size="10.00">src/classes/nodes/render</text>
<text text-anchor="middle" x="5106.5" y="-7" font-family="Helvetica,sans-Serif" font-size="10.00">_target.class.c</text>
</a>
</g>
</g>
<!-- Node2&#45;&gt;Node34 -->
<g id="edge33_Node000002_Node000034" class="edge">
<title>Node2&#45;&gt;Node34</title>
<g id="a_edge33_Node000002_Node000034"><a xlink:title=" ">
<path fill="none" stroke="#63b8ff" d="M3902.74,-73.48C4102.28,-69.51 4805.67,-54.08 5028.5,-30 5031.51,-29.67 5034.58,-29.3 5037.67,-28.89"/>
<polygon fill="#63b8ff" stroke="#63b8ff" points="3902.45,-69.99 3892.52,-73.68 3902.59,-76.98 3902.45,-69.99"/>
</a>
</g>
</g>
<!-- Node35 -->
<g id="Node000035" class="node">
<title>Node35</title>
<g id="a_Node000035"><a xlink:href="scene_8class_8c.html" target="_top" xlink:title="This file contains the implementation of the scene class.">
<polygon fill="white" stroke="#666666" points="5363.5,-24.5 5193.5,-24.5 5193.5,-5.5 5363.5,-5.5 5363.5,-24.5"/>
<text text-anchor="middle" x="5278.5" y="-12.5" font-family="Helvetica,sans-Serif" font-size="10.00">src/classes/nodes/scene.class.c</text>
</a>
</g>
</g>
<!-- Node2&#45;&gt;Node35 -->
<g id="edge34_Node000002_Node000035" class="edge">
<title>Node2&#45;&gt;Node35</title>
<g id="a_edge34_Node000002_Node000035"><a xlink:title=" ">
<path fill="none" stroke="#63b8ff" d="M3902.55,-74.91C4082.72,-75.84 4687.5,-75.14 5184.5,-30 5198.8,-28.7 5214.23,-26.67 5228.38,-24.55"/>
<polygon fill="#63b8ff" stroke="#63b8ff" points="3902.57,-71.41 3892.55,-74.85 3902.53,-78.41 3902.57,-71.41"/>
</a>
</g>
</g>
<!-- Node36 -->
<g id="Node000036" class="node">
<title>Node36</title>
<g id="a_Node000036"><a xlink:href="skybox_8class_8c.html" target="_top" xlink:title="This file contains the implementation of the Skybox class.">
<polygon fill="white" stroke="#666666" points="5557.5,-24.5 5381.5,-24.5 5381.5,-5.5 5557.5,-5.5 5557.5,-24.5"/>
<text text-anchor="middle" x="5469.5" y="-12.5" font-family="Helvetica,sans-Serif" font-size="10.00">src/classes/nodes/skybox.class.c</text>
</a>
</g>
</g>
<!-- Node2&#45;&gt;Node36 -->
<g id="edge35_Node000002_Node000036" class="edge">
<title>Node2&#45;&gt;Node36</title>
<g id="a_edge35_Node000002_Node000036"><a xlink:title=" ">
<path fill="none" stroke="#63b8ff" d="M3902.85,-73.76C4137.37,-70.38 5078.07,-55.46 5372.5,-30 5387.42,-28.71 5403.54,-26.65 5418.28,-24.51"/>
<polygon fill="#63b8ff" stroke="#63b8ff" points="3902.49,-70.26 3892.54,-73.91 3902.59,-77.26 3902.49,-70.26"/>
</a>
</g>
</g>
<!-- Node37 -->
<g id="Node000037" class="node">
<title>Node37</title>
<g id="a_Node000037"><a xlink:href="texture_8class_8c.html" target="_top" xlink:title="This file contains the implementation of texture&#45;related functionalities.">
<polygon fill="white" stroke="#666666" points="5751.5,-24.5 5575.5,-24.5 5575.5,-5.5 5751.5,-5.5 5751.5,-24.5"/>
<text text-anchor="middle" x="5663.5" y="-12.5" font-family="Helvetica,sans-Serif" font-size="10.00">src/classes/nodes/texture.class.c</text>
</a>
</g>
</g>
<!-- Node2&#45;&gt;Node37 -->
<g id="edge36_Node000002_Node000037" class="edge">
<title>Node2&#45;&gt;Node37</title>
<g id="a_edge36_Node000002_Node000037"><a xlink:title=" ">
<path fill="none" stroke="#63b8ff" d="M3902.92,-73.96C4155.5,-71.29 5231.66,-58.4 5566.5,-30 5581.5,-28.73 5597.73,-26.66 5612.53,-24.5"/>
<polygon fill="#63b8ff" stroke="#63b8ff" points="3902.51,-70.47 3892.55,-74.07 3902.59,-77.47 3902.51,-70.47"/>
</a>
</g>
</g>
<!-- Node38 -->
<g id="Node000038" class="node">
<title>Node38</title>
<g id="a_Node000038"><a xlink:href="textured__mesh_8class_8c.html" target="_top" xlink:title="This file contains the implementation of the TexturedMesh class.">
<polygon fill="white" stroke="#666666" points="5915.5,-30 5769.5,-30 5769.5,0 5915.5,0 5915.5,-30"/>
<text text-anchor="start" x="5777.5" y="-18" font-family="Helvetica,sans-Serif" font-size="10.00">src/classes/nodes/textured</text>
<text text-anchor="middle" x="5842.5" y="-7" font-family="Helvetica,sans-Serif" font-size="10.00">_mesh.class.c</text>
</a>
</g>
</g>
<!-- Node2&#45;&gt;Node38 -->
<g id="edge37_Node000002_Node000038" class="edge">
<title>Node2&#45;&gt;Node38</title>
<g id="a_edge37_Node000002_Node000038"><a xlink:title=" ">
<path fill="none" stroke="#63b8ff" d="M3903.19,-74.31C4173.34,-73.18 5385.63,-66.17 5760.5,-30 5763.38,-29.72 5766.3,-29.4 5769.25,-29.05"/>
<polygon fill="#63b8ff" stroke="#63b8ff" points="3902.86,-70.81 3892.88,-74.35 3902.89,-77.81 3902.86,-70.81"/>
</a>
</g>
</g>
<!-- Node39 -->
<g id="Node000039" class="node">
<title>Node39</title>
<g id="a_Node000039"><a xlink:href="gltexture__loader_8c.html" target="_top" xlink:title=" ">
<polygon fill="white" stroke="#666666" points="6067.5,-24.5 5933.5,-24.5 5933.5,-5.5 6067.5,-5.5 6067.5,-24.5"/>
<text text-anchor="middle" x="6000.5" y="-12.5" font-family="Helvetica,sans-Serif" font-size="10.00">src/io/gltexture_loader.c</text>
</a>
</g>
</g>
<!-- Node2&#45;&gt;Node39 -->
<g id="edge38_Node000002_Node000039" class="edge">
<title>Node2&#45;&gt;Node39</title>
<g id="a_edge38_Node000002_Node000039"><a xlink:title=" ">
<path fill="none" stroke="#63b8ff" d="M3902.74,-74.52C4185.66,-74.44 5515.31,-71.8 5924.5,-30 5936.38,-28.79 5949.18,-26.72 5960.84,-24.55"/>
<polygon fill="#63b8ff" stroke="#63b8ff" points="3902.73,-71.02 3892.73,-74.52 3902.73,-78.02 3902.73,-71.02"/>
</a>
</g>
</g>
<!-- Node40 -->
<g id="Node000040" class="node">
<title>Node40</title>
<g id="a_Node000040"><a xlink:href="input_8c.html" target="_top" xlink:title=" ">
<polygon fill="white" stroke="#666666" points="6165,-24.5 6086,-24.5 6086,-5.5 6165,-5.5 6165,-24.5"/>
<text text-anchor="middle" x="6125.5" y="-12.5" font-family="Helvetica,sans-Serif" font-size="10.00">src/io/input.c</text>
</a>
</g>
</g>
<!-- Node2&#45;&gt;Node40 -->
<g id="edge39_Node000002_Node000040" class="edge">
<title>Node2&#45;&gt;Node40</title>
<g id="a_edge39_Node000002_Node000040"><a xlink:title=" ">
<path fill="none" stroke="#63b8ff" d="M3903.25,-74.26C4221.82,-72.7 5855.77,-63.17 6076.5,-30 6084.37,-28.82 6092.77,-26.74 6100.34,-24.53"/>
<polygon fill="#63b8ff" stroke="#63b8ff" points="3902.89,-70.76 3892.91,-74.31 3902.93,-77.76 3902.89,-70.76"/>
</a>
</g>
</g>
<!-- Node41 -->
<g id="Node000041" class="node">
<title>Node41</title>
<g id="a_Node000041"><a xlink:href="model_8c.html" target="_top" xlink:title=" ">
<polygon fill="white" stroke="#666666" points="6268,-24.5 6183,-24.5 6183,-5.5 6268,-5.5 6268,-24.5"/>
<text text-anchor="middle" x="6225.5" y="-12.5" font-family="Helvetica,sans-Serif" font-size="10.00">src/io/model.c</text>
</a>
</g>
</g>
<!-- Node2&#45;&gt;Node41 -->
<g id="edge40_Node000002_Node000041" class="edge">
<title>Node2&#45;&gt;Node41</title>
<g id="a_edge40_Node000002_Node000041"><a xlink:title=" ">
<path fill="none" stroke="#63b8ff" d="M3903.01,-74.27C4229.16,-72.79 5943.26,-63.42 6174.5,-30 6182.68,-28.82 6191.41,-26.74 6199.29,-24.53"/>
<polygon fill="#63b8ff" stroke="#63b8ff" points="3902.87,-70.77 3892.88,-74.32 3902.9,-77.77 3902.87,-70.77"/>
</a>
</g>
</g>
<!-- Node42 -->
<g id="Node000042" class="node">
<title>Node42</title>
<g id="a_Node000042"><a xlink:href="fbx__loader_8c.html" target="_top" xlink:title=" ">
<polygon fill="white" stroke="#666666" points="6404.5,-30 6286.5,-30 6286.5,0 6404.5,0 6404.5,-30"/>
<text text-anchor="start" x="6294.5" y="-18" font-family="Helvetica,sans-Serif" font-size="10.00">src/io/model_loaders</text>
<text text-anchor="middle" x="6345.5" y="-7" font-family="Helvetica,sans-Serif" font-size="10.00">/fbx_loader.c</text>
</a>
</g>
</g>
<!-- Node2&#45;&gt;Node42 -->
<g id="edge41_Node000002_Node000042" class="edge">
<title>Node2&#45;&gt;Node42</title>
<g id="a_edge41_Node000002_Node000042"><a xlink:title=" ">
<path fill="none" stroke="#63b8ff" d="M3903.19,-74.11C4238.14,-71.61 6034.49,-57.01 6277.5,-30 6280.38,-29.68 6283.31,-29.3 6286.26,-28.87"/>
<polygon fill="#63b8ff" stroke="#63b8ff" points="3902.78,-70.61 3892.8,-74.19 3902.83,-77.61 3902.78,-70.61"/>
</a>
</g>
</g>
<!-- Node43 -->
<g id="Node000043" class="node">
<title>Node43</title>
<g id="a_Node000043"><a xlink:href="model__loader_8c.html" target="_top" xlink:title=" ">
<polygon fill="white" stroke="#666666" points="6540.5,-30 6422.5,-30 6422.5,0 6540.5,0 6540.5,-30"/>
<text text-anchor="start" x="6430.5" y="-18" font-family="Helvetica,sans-Serif" font-size="10.00">src/io/model_loaders</text>
<text text-anchor="middle" x="6481.5" y="-7" font-family="Helvetica,sans-Serif" font-size="10.00">/model_loader.c</text>
</a>
</g>
</g>
<!-- Node2&#45;&gt;Node43 -->
<g id="edge42_Node000002_Node000043" class="edge">
<title>Node2&#45;&gt;Node43</title>
<g id="a_edge42_Node000002_Node000043"><a xlink:title=" ">
<path fill="none" stroke="#63b8ff" d="M3902.89,-74.17C4247.9,-71.95 6156.06,-58.49 6413.5,-30 6416.38,-29.68 6419.31,-29.3 6422.27,-28.87"/>
<polygon fill="#63b8ff" stroke="#63b8ff" points="3902.65,-70.67 3892.68,-74.23 3902.7,-77.67 3902.65,-70.67"/>
</a>
</g>
</g>
<!-- Node44 -->
<g id="Node000044" class="node">
<title>Node44</title>
<g id="a_Node000044"><a xlink:href="mtl__loader_8c.html" target="_top" xlink:title=" ">
<polygon fill="white" stroke="#666666" points="6676.5,-30 6558.5,-30 6558.5,0 6676.5,0 6676.5,-30"/>
<text text-anchor="start" x="6566.5" y="-18" font-family="Helvetica,sans-Serif" font-size="10.00">src/io/model_loaders</text>
<text text-anchor="middle" x="6617.5" y="-7" font-family="Helvetica,sans-Serif" font-size="10.00">/mtl_loader.c</text>
</a>
</g>
</g>
<!-- Node2&#45;&gt;Node44 -->
<g id="edge43_Node000002_Node000044" class="edge">
<title>Node2&#45;&gt;Node44</title>
<g id="a_edge43_Node000002_Node000044"><a xlink:title=" ">
<path fill="none" stroke="#63b8ff" d="M3902.62,-74.22C4257.41,-72.28 6277.61,-59.96 6549.5,-30 6552.38,-29.68 6555.31,-29.3 6558.27,-28.87"/>
<polygon fill="#63b8ff" stroke="#63b8ff" points="3902.59,-70.72 3892.61,-74.28 3902.63,-77.72 3902.59,-70.72"/>
</a>
</g>
</g>
<!-- Node45 -->
<g id="Node000045" class="node">
<title>Node45</title>
<g id="a_Node000045"><a xlink:href="obj__loader_8c.html" target="_top" xlink:title=" ">
<polygon fill="white" stroke="#666666" points="6812.5,-30 6694.5,-30 6694.5,0 6812.5,0 6812.5,-30"/>
<text text-anchor="start" x="6702.5" y="-18" font-family="Helvetica,sans-Serif" font-size="10.00">src/io/model_loaders</text>
<text text-anchor="middle" x="6753.5" y="-7" font-family="Helvetica,sans-Serif" font-size="10.00">/obj_loader.c</text>
</a>
</g>
</g>
<!-- Node2&#45;&gt;Node45 -->
<g id="edge44_Node000002_Node000045" class="edge">
<title>Node2&#45;&gt;Node45</title>
<g id="a_edge44_Node000002_Node000045"><a xlink:title=" ">
<path fill="none" stroke="#63b8ff" d="M3902.68,-74.27C4267.9,-72.58 6399.23,-61.43 6685.5,-30 6688.38,-29.68 6691.31,-29.3 6694.27,-28.88"/>
<polygon fill="#63b8ff" stroke="#63b8ff" points="3902.62,-70.77 3892.64,-74.31 3902.65,-77.77 3902.62,-70.77"/>
</a>
</g>
</g>
<!-- Node46 -->
<g id="Node000046" class="node">
<title>Node46</title>
<g id="a_Node000046"><a xlink:href="node__loader_8c.html" target="_top" xlink:title=" ">
<polygon fill="white" stroke="#666666" points="6944,-24.5 6831,-24.5 6831,-5.5 6944,-5.5 6944,-24.5"/>
<text text-anchor="middle" x="6887.5" y="-12.5" font-family="Helvetica,sans-Serif" font-size="10.00">src/io/node_loader.c</text>
</a>
</g>
</g>
<!-- Node2&#45;&gt;Node46 -->
<g id="edge45_Node000002_Node000046" class="edge">
<title>Node2&#45;&gt;Node46</title>
<g id="a_edge45_Node000002_Node000046"><a xlink:title=" ">
<path fill="none" stroke="#63b8ff" d="M3902.55,-74.33C4277.4,-73.02 6520.88,-63.81 6821.5,-30 6831.98,-28.82 6843.24,-26.74 6853.45,-24.54"/>
<polygon fill="#63b8ff" stroke="#63b8ff" points="3902.5,-70.83 3892.51,-74.36 3902.52,-77.83 3902.5,-70.83"/>
</a>
</g>
</g>
<!-- Node47 -->
<g id="Node000047" class="node">
<title>Node47</title>
<g id="a_Node000047"><a xlink:href="scene__loader_8c.html" target="_top" xlink:title=" ">
<polygon fill="white" stroke="#666666" points="7080.5,-24.5 6962.5,-24.5 6962.5,-5.5 7080.5,-5.5 7080.5,-24.5"/>
<text text-anchor="middle" x="7021.5" y="-12.5" font-family="Helvetica,sans-Serif" font-size="10.00">src/io/scene_loader.c</text>
</a>
</g>
</g>
<!-- Node2&#45;&gt;Node47 -->
<g id="edge46_Node000002_Node000047" class="edge">
<title>Node2&#45;&gt;Node47</title>
<g id="a_edge46_Node000002_Node000047"><a xlink:title=" ">
<path fill="none" stroke="#63b8ff" d="M3902.77,-74.34C4287.8,-73.13 6638.84,-64.34 6953.5,-30 6964.28,-28.82 6975.89,-26.74 6986.41,-24.54"/>
<polygon fill="#63b8ff" stroke="#63b8ff" points="3902.72,-70.84 3892.73,-74.37 3902.74,-77.84 3902.72,-70.84"/>
</a>
</g>
</g>
<!-- Node48 -->
<g id="Node000048" class="node">
<title>Node48</title>
<g id="a_Node000048"><a xlink:href="shader_8c.html" target="_top" xlink:title=" ">
<polygon fill="white" stroke="#666666" points="7184.5,-24.5 7098.5,-24.5 7098.5,-5.5 7184.5,-5.5 7184.5,-24.5"/>
<text text-anchor="middle" x="7141.5" y="-12.5" font-family="Helvetica,sans-Serif" font-size="10.00">src/io/shader.c</text>
</a>
</g>
</g>
<!-- Node2&#45;&gt;Node48 -->
<g id="edge47_Node000002_Node000048" class="edge">
<title>Node2&#45;&gt;Node48</title>
<g id="a_edge47_Node000002_Node000048"><a xlink:title=" ">
<path fill="none" stroke="#63b8ff" d="M3902.92,-74.57C4298.14,-74.98 6761.66,-75.65 7089.5,-30 7097.83,-28.84 7106.74,-26.76 7114.77,-24.56"/>
<polygon fill="#63b8ff" stroke="#63b8ff" points="3902.64,-71.07 3892.63,-74.56 3902.63,-78.07 3902.64,-71.07"/>
</a>
</g>
</g>
<!-- Node49 -->
<g id="Node000049" class="node">
<title>Node49</title>
<g id="a_Node000049"><a xlink:href="main_8c.html" target="_top" xlink:title=" ">
<polygon fill="white" stroke="#666666" points="7270,-24.5 7203,-24.5 7203,-5.5 7270,-5.5 7270,-24.5"/>
<text text-anchor="middle" x="7236.5" y="-12.5" font-family="Helvetica,sans-Serif" font-size="10.00">src/main.c</text>
</a>
</g>
</g>
<!-- Node2&#45;&gt;Node49 -->
<g id="edge48_Node000002_Node000049" class="edge">
<title>Node2&#45;&gt;Node49</title>
<g id="a_edge48_Node000002_Node000049"><a xlink:title=" ">
<path fill="none" stroke="#63b8ff" d="M3902.98,-74.25C4318.87,-72.22 7024.32,-58 7193.5,-30 7200.47,-28.85 7207.86,-26.77 7214.5,-24.57"/>
<polygon fill="#63b8ff" stroke="#63b8ff" points="3902.72,-70.75 3892.74,-74.3 3902.76,-77.75 3902.72,-70.75"/>
</a>
</g>
</g>
<!-- Node50 -->
<g id="Node000050" class="node">
<title>Node50</title>
<g id="a_Node000050"><a xlink:href="memory_8c.html" target="_top" xlink:title=" ">
<polygon fill="white" stroke="#666666" points="7370.5,-24.5 7288.5,-24.5 7288.5,-5.5 7370.5,-5.5 7370.5,-24.5"/>
<text text-anchor="middle" x="7329.5" y="-12.5" font-family="Helvetica,sans-Serif" font-size="10.00">src/memory.c</text>
</a>
</g>
</g>
<!-- Node2&#45;&gt;Node50 -->
<g id="edge49_Node000002_Node000050" class="edge">
<title>Node2&#45;&gt;Node50</title>
<g id="a_edge49_Node000002_Node000050"><a xlink:title=" ">
<path fill="none" stroke="#63b8ff" d="M3902.84,-74.64C4310.91,-75.64 6931.77,-80.06 7279.5,-30 7287.53,-28.84 7296.09,-26.77 7303.82,-24.57"/>
<polygon fill="#63b8ff" stroke="#63b8ff" points="3902.79,-71.14 3892.79,-74.62 3902.78,-78.14 3902.79,-71.14"/>
</a>
</g>
</g>
</g>
</svg>
