<?xml version="1.0" encoding="UTF-8" standalone="no"?>
<!DOCTYPE svg PUBLIC "-//W3C//DTD SVG 1.1//EN"
 "http://www.w3.org/Graphics/SVG/1.1/DTD/svg11.dtd">
<!-- Generated by graphviz version 2.43.0 (0)
 -->
<!-- Title: src/io/model_loaders/model_loader.h Pages: 1 -->
<svg width="275pt" height="93pt"
 viewBox="0.00 0.00 274.50 93.00" xmlns="http://www.w3.org/2000/svg" xmlns:xlink="http://www.w3.org/1999/xlink">
<g id="graph0" class="graph" transform="scale(1 1) rotate(0) translate(4 89)">
<title>src/io/model_loaders/model_loader.h</title>
<!-- Node1 -->
<g id="Node000001" class="node">
<title>Node1</title>
<g id="a_Node000001"><a xlink:title=" ">
<polygon fill="#999999" stroke="#666666" points="192,-85 74,-85 74,-55 192,-55 192,-85"/>
<text text-anchor="start" x="82" y="-73" font-family="Helvetica,sans-Serif" font-size="10.00">src/io/model_loaders</text>
<text text-anchor="middle" x="133" y="-62" font-family="Helvetica,sans-Serif" font-size="10.00">/model_loader.h</text>
</a>
</g>
</g>
<!-- Node2 -->
<g id="Node000002" class="node">
<title>Node2</title>
<g id="a_Node000002"><a xlink:href="obj__loader_8h.html" target="_top" xlink:title=" ">
<polygon fill="white" stroke="#666666" points="76,-19 0,-19 0,0 76,0 76,-19"/>
<text text-anchor="middle" x="38" y="-7" font-family="Helvetica,sans-Serif" font-size="10.00">obj_loader.h</text>
</a>
</g>
</g>
<!-- Node1&#45;&gt;Node2 -->
<g id="edge1_Node000001_Node000002" class="edge">
<title>Node1&#45;&gt;Node2</title>
<g id="a_edge1_Node000001_Node000002"><a xlink:title=" ">
<path fill="none" stroke="#63b8ff" d="M110,-54.84C95,-45.6 75.5,-33.59 60.57,-24.4"/>
<polygon fill="#63b8ff" stroke="#63b8ff" points="62.31,-21.36 51.96,-19.09 58.64,-27.32 62.31,-21.36"/>
</a>
</g>
</g>
<!-- Node3 -->
<g id="Node000003" class="node">
<title>Node3</title>
<g id="a_Node000003"><a xlink:href="mtl__loader_8h.html" target="_top" xlink:title=" ">
<polygon fill="white" stroke="#666666" points="171.5,-19 94.5,-19 94.5,0 171.5,0 171.5,-19"/>
<text text-anchor="middle" x="133" y="-7" font-family="Helvetica,sans-Serif" font-size="10.00">mtl_loader.h</text>
</a>
</g>
</g>
<!-- Node1&#45;&gt;Node3 -->
<g id="edge2_Node000001_Node000003" class="edge">
<title>Node1&#45;&gt;Node3</title>
<g id="a_edge2_Node000001_Node000003"><a xlink:title=" ">
<path fill="none" stroke="#63b8ff" d="M133,-54.84C133,-47.21 133,-37.7 133,-29.45"/>
<polygon fill="#63b8ff" stroke="#63b8ff" points="136.5,-29.27 133,-19.27 129.5,-29.27 136.5,-29.27"/>
</a>
</g>
</g>
<!-- Node4 -->
<g id="Node000004" class="node">
<title>Node4</title>
<g id="a_Node000004"><a xlink:href="fbx__loader_8h.html" target="_top" xlink:title=" ">
<polygon fill="white" stroke="#666666" points="266.5,-19 189.5,-19 189.5,0 266.5,0 266.5,-19"/>
<text text-anchor="middle" x="228" y="-7" font-family="Helvetica,sans-Serif" font-size="10.00">fbx_loader.h</text>
</a>
</g>
</g>
<!-- Node1&#45;&gt;Node4 -->
<g id="edge3_Node000001_Node000004" class="edge">
<title>Node1&#45;&gt;Node4</title>
<g id="a_edge3_Node000001_Node000004"><a xlink:title=" ">
<path fill="none" stroke="#63b8ff" d="M156,-54.84C171,-45.6 190.5,-33.59 205.43,-24.4"/>
<polygon fill="#63b8ff" stroke="#63b8ff" points="207.36,-27.32 214.04,-19.09 203.69,-21.36 207.36,-27.32"/>
</a>
</g>
</g>
</g>
</svg>
