<?xml version="1.0" encoding="UTF-8" standalone="no"?>
<!DOCTYPE svg PUBLIC "-//W3C//DTD SVG 1.1//EN"
 "http://www.w3.org/Graphics/SVG/1.1/DTD/svg11.dtd">
<!-- Generated by graphviz version 2.43.0 (0)
 -->
<!-- Title: src/io/model_loaders/mtl_loader.h Pages: 1 -->
<svg width="7278pt" height="225pt"
 viewBox="0.00 0.00 7278.00 225.00" xmlns="http://www.w3.org/2000/svg" xmlns:xlink="http://www.w3.org/1999/xlink">
<g id="graph0" class="graph" transform="scale(1 1) rotate(0) translate(4 221)">
<title>src/io/model_loaders/mtl_loader.h</title>
<!-- Node1 -->
<g id="Node000001" class="node">
<title>Node1</title>
<g id="a_Node000001"><a xlink:title=" ">
<polygon fill="#999999" stroke="#666666" points="3814.5,-217 3696.5,-217 3696.5,-187 3814.5,-187 3814.5,-217"/>
<text text-anchor="start" x="3704.5" y="-205" font-family="Helvetica,sans-Serif" font-size="10.00">src/io/model_loaders</text>
<text text-anchor="middle" x="3755.5" y="-194" font-family="Helvetica,sans-Serif" font-size="10.00">/mtl_loader.h</text>
</a>
</g>
</g>
<!-- Node2 -->
<g id="Node000002" class="node">
<title>Node2</title>
<g id="a_Node000002"><a xlink:href="model__loader_8h.html" target="_top" xlink:title=" ">
<polygon fill="white" stroke="#666666" points="3814.5,-151 3696.5,-151 3696.5,-121 3814.5,-121 3814.5,-151"/>
<text text-anchor="start" x="3704.5" y="-139" font-family="Helvetica,sans-Serif" font-size="10.00">src/io/model_loaders</text>
<text text-anchor="middle" x="3755.5" y="-128" font-family="Helvetica,sans-Serif" font-size="10.00">/model_loader.h</text>
</a>
</g>
</g>
<!-- Node1&#45;&gt;Node2 -->
<g id="edge1_Node000001_Node000002" class="edge">
<title>Node1&#45;&gt;Node2</title>
<g id="a_edge1_Node000001_Node000002"><a xlink:title=" ">
<path fill="none" stroke="#63b8ff" d="M3755.5,-176.54C3755.5,-167.96 3755.5,-158.61 3755.5,-151.16"/>
<polygon fill="#63b8ff" stroke="#63b8ff" points="3752,-176.8 3755.5,-186.8 3759,-176.8 3752,-176.8"/>
</a>
</g>
</g>
<!-- Node3 -->
<g id="Node000003" class="node">
<title>Node3</title>
<g id="a_Node000003"><a xlink:href="model_8h.html" target="_top" xlink:title="Defines structures and functions for handling 3D models and their properties.">
<polygon fill="#fff0f0" stroke="red" points="3798.5,-85 3712.5,-85 3712.5,-66 3798.5,-66 3798.5,-85"/>
<text text-anchor="middle" x="3755.5" y="-73" font-family="Helvetica,sans-Serif" font-size="10.00">src/io/model.h</text>
</a>
</g>
</g>
<!-- Node2&#45;&gt;Node3 -->
<g id="edge2_Node000002_Node000003" class="edge">
<title>Node2&#45;&gt;Node3</title>
<g id="a_edge2_Node000002_Node000003"><a xlink:title=" ">
<path fill="none" stroke="#63b8ff" d="M3755.5,-110.75C3755.5,-101.72 3755.5,-92.03 3755.5,-85.27"/>
<polygon fill="#63b8ff" stroke="#63b8ff" points="3752,-110.84 3755.5,-120.84 3759,-110.84 3752,-110.84"/>
</a>
</g>
</g>
<!-- Node4 -->
<g id="Node000004" class="node">
<title>Node4</title>
<g id="a_Node000004"><a xlink:href="node_8class_8c.html" target="_top" xlink:title="Implementation of the node class for the ProjetSDLOpenGLL2 project.">
<polygon fill="white" stroke="#666666" points="133,-24.5 0,-24.5 0,-5.5 133,-5.5 133,-24.5"/>
<text text-anchor="middle" x="66.5" y="-12.5" font-family="Helvetica,sans-Serif" font-size="10.00">src/classes/node.class.c</text>
</a>
</g>
</g>
<!-- Node3&#45;&gt;Node4 -->
<g id="edge3_Node000003_Node000004" class="edge">
<title>Node3&#45;&gt;Node4</title>
<g id="a_edge3_Node000003_Node000004"><a xlink:title=" ">
<path fill="none" stroke="#63b8ff" d="M3702.34,-74.39C3282.76,-73.47 511.67,-66.01 142.5,-30 130.48,-28.83 117.52,-26.75 105.77,-24.55"/>
<polygon fill="#63b8ff" stroke="#63b8ff" points="3702.37,-77.89 3712.38,-74.41 3702.38,-70.89 3702.37,-77.89"/>
</a>
</g>
</g>
<!-- Node5 -->
<g id="Node000005" class="node">
<title>Node5</title>
<g id="a_Node000005"><a xlink:href="camera_8class_8c.html" target="_top" xlink:title="This file contains the implementation of the Camera class.">
<polygon fill="white" stroke="#666666" points="329.5,-24.5 151.5,-24.5 151.5,-5.5 329.5,-5.5 329.5,-24.5"/>
<text text-anchor="middle" x="240.5" y="-12.5" font-family="Helvetica,sans-Serif" font-size="10.00">src/classes/nodes/camera.class.c</text>
</a>
</g>
</g>
<!-- Node3&#45;&gt;Node5 -->
<g id="edge4_Node000003_Node000005" class="edge">
<title>Node3&#45;&gt;Node5</title>
<g id="a_edge4_Node000003_Node000005"><a xlink:title=" ">
<path fill="none" stroke="#63b8ff" d="M3702.41,-74.22C3296.23,-72.05 687.44,-57.08 338.5,-30 323.08,-28.8 306.39,-26.72 291.23,-24.52"/>
<polygon fill="#63b8ff" stroke="#63b8ff" points="3702.4,-77.72 3712.42,-74.28 3702.43,-70.72 3702.4,-77.72"/>
</a>
</g>
</g>
<!-- Node6 -->
<g id="Node000006" class="node">
<title>Node6</title>
<g id="a_Node000006"><a xlink:href="box__cshape_8class_8c.html" target="_top" xlink:title="This source file defines the BoxCShape class and its associated methods.">
<polygon fill="white" stroke="#666666" points="493,-30 348,-30 348,0 493,0 493,-30"/>
<text text-anchor="start" x="356" y="-18" font-family="Helvetica,sans-Serif" font-size="10.00">src/classes/nodes/cshapes</text>
<text text-anchor="middle" x="420.5" y="-7" font-family="Helvetica,sans-Serif" font-size="10.00">/box_cshape.class.c</text>
</a>
</g>
</g>
<!-- Node3&#45;&gt;Node6 -->
<g id="edge5_Node000003_Node000006" class="edge">
<title>Node3&#45;&gt;Node6</title>
<g id="a_edge5_Node000003_Node000006"><a xlink:title=" ">
<path fill="none" stroke="#63b8ff" d="M3702.49,-74.28C3307.73,-72.57 832.68,-60.69 501.5,-30 498.8,-29.75 496.05,-29.46 493.29,-29.14"/>
<polygon fill="#63b8ff" stroke="#63b8ff" points="3702.48,-77.78 3712.49,-74.32 3702.51,-70.78 3702.48,-77.78"/>
</a>
</g>
</g>
<!-- Node7 -->
<g id="Node000007" class="node">
<title>Node7</title>
<g id="a_Node000007"><a xlink:href="capsule__cshape_8class_8c.html" target="_top" xlink:title="This file defines the implementation of the capsule shape class.">
<polygon fill="white" stroke="#666666" points="656,-30 511,-30 511,0 656,0 656,-30"/>
<text text-anchor="start" x="519" y="-18" font-family="Helvetica,sans-Serif" font-size="10.00">src/classes/nodes/cshapes</text>
<text text-anchor="middle" x="583.5" y="-7" font-family="Helvetica,sans-Serif" font-size="10.00">/capsule_cshape.class.c</text>
</a>
</g>
</g>
<!-- Node3&#45;&gt;Node7 -->
<g id="edge6_Node000003_Node000007" class="edge">
<title>Node3&#45;&gt;Node7</title>
<g id="a_edge6_Node000003_Node000007"><a xlink:title=" ">
<path fill="none" stroke="#63b8ff" d="M3702.18,-74.24C3317.96,-72.28 978.27,-59.19 664.5,-30 661.8,-29.75 659.05,-29.46 656.29,-29.13"/>
<polygon fill="#63b8ff" stroke="#63b8ff" points="3702.44,-77.74 3712.46,-74.29 3702.48,-70.74 3702.44,-77.74"/>
</a>
</g>
</g>
<!-- Node8 -->
<g id="Node000008" class="node">
<title>Node8</title>
<g id="a_Node000008"><a xlink:href="cshape_8class_8c.html" target="_top" xlink:title="This file defines the implementation of various CShape classes.">
<polygon fill="white" stroke="#666666" points="819,-30 674,-30 674,0 819,0 819,-30"/>
<text text-anchor="start" x="682" y="-18" font-family="Helvetica,sans-Serif" font-size="10.00">src/classes/nodes/cshapes</text>
<text text-anchor="middle" x="746.5" y="-7" font-family="Helvetica,sans-Serif" font-size="10.00">/cshape.class.c</text>
</a>
</g>
</g>
<!-- Node3&#45;&gt;Node8 -->
<g id="edge7_Node000003_Node000008" class="edge">
<title>Node3&#45;&gt;Node8</title>
<g id="a_edge7_Node000003_Node000008"><a xlink:title=" ">
<path fill="none" stroke="#63b8ff" d="M3702.1,-74.19C3329.44,-71.97 1123.93,-57.7 827.5,-30 824.8,-29.75 822.06,-29.46 819.29,-29.13"/>
<polygon fill="#63b8ff" stroke="#63b8ff" points="3702.31,-77.69 3712.33,-74.25 3702.35,-70.69 3702.31,-77.69"/>
</a>
</g>
</g>
<!-- Node9 -->
<g id="Node000009" class="node">
<title>Node9</title>
<g id="a_Node000009"><a xlink:href="mesh__cshape_8class_8c.html" target="_top" xlink:title="This file defines the implementation of mesh shapes for the project.">
<polygon fill="white" stroke="#666666" points="982,-30 837,-30 837,0 982,0 982,-30"/>
<text text-anchor="start" x="845" y="-18" font-family="Helvetica,sans-Serif" font-size="10.00">src/classes/nodes/cshapes</text>
<text text-anchor="middle" x="909.5" y="-7" font-family="Helvetica,sans-Serif" font-size="10.00">/mesh_cshape.class.c</text>
</a>
</g>
</g>
<!-- Node3&#45;&gt;Node9 -->
<g id="edge8_Node000003_Node000009" class="edge">
<title>Node3&#45;&gt;Node9</title>
<g id="a_edge8_Node000003_Node000009"><a xlink:title=" ">
<path fill="none" stroke="#63b8ff" d="M3702.26,-74.14C3342.24,-71.64 1269.69,-56.21 990.5,-30 987.8,-29.75 985.06,-29.45 982.29,-29.13"/>
<polygon fill="#63b8ff" stroke="#63b8ff" points="3702.39,-77.64 3712.41,-74.21 3702.44,-70.64 3702.39,-77.64"/>
</a>
</g>
</g>
<!-- Node10 -->
<g id="Node000010" class="node">
<title>Node10</title>
<g id="a_Node000010"><a xlink:href="plane__cshape_8class_8c.html" target="_top" xlink:title="This file defines the implementation of a plane shape class.">
<polygon fill="white" stroke="#666666" points="1145,-30 1000,-30 1000,0 1145,0 1145,-30"/>
<text text-anchor="start" x="1008" y="-18" font-family="Helvetica,sans-Serif" font-size="10.00">src/classes/nodes/cshapes</text>
<text text-anchor="middle" x="1072.5" y="-7" font-family="Helvetica,sans-Serif" font-size="10.00">/plane_cshape.class.c</text>
</a>
</g>
</g>
<!-- Node3&#45;&gt;Node10 -->
<g id="edge9_Node000003_Node000010" class="edge">
<title>Node3&#45;&gt;Node10</title>
<g id="a_edge9_Node000003_Node000010"><a xlink:title=" ">
<path fill="none" stroke="#63b8ff" d="M3702.3,-74.71C3378.92,-75.8 1673.84,-79.12 1153.5,-30 1150.8,-29.75 1148.06,-29.45 1145.29,-29.12"/>
<polygon fill="#63b8ff" stroke="#63b8ff" points="3702.35,-78.21 3712.34,-74.67 3702.33,-71.21 3702.35,-78.21"/>
</a>
</g>
</g>
<!-- Node11 -->
<g id="Node000011" class="node">
<title>Node11</title>
<g id="a_Node000011"><a xlink:href="ray__cshape_8class_8c.html" target="_top" xlink:title="This file defines the implementation of ray&#45;casting shapes.">
<polygon fill="white" stroke="#666666" points="1308,-30 1163,-30 1163,0 1308,0 1308,-30"/>
<text text-anchor="start" x="1171" y="-18" font-family="Helvetica,sans-Serif" font-size="10.00">src/classes/nodes/cshapes</text>
<text text-anchor="middle" x="1235.5" y="-7" font-family="Helvetica,sans-Serif" font-size="10.00">/ray_cshape.class.c</text>
</a>
</g>
</g>
<!-- Node3&#45;&gt;Node11 -->
<g id="edge10_Node000003_Node000011" class="edge">
<title>Node3&#45;&gt;Node11</title>
<g id="a_edge10_Node000003_Node000011"><a xlink:title=" ">
<path fill="none" stroke="#63b8ff" d="M3702.21,-74.64C3390.7,-75.27 1802.42,-76.15 1316.5,-30 1313.8,-29.74 1311.06,-29.45 1308.29,-29.12"/>
<polygon fill="#63b8ff" stroke="#63b8ff" points="3702.34,-78.14 3712.33,-74.62 3702.32,-71.14 3702.34,-78.14"/>
</a>
</g>
</g>
<!-- Node12 -->
<g id="Node000012" class="node">
<title>Node12</title>
<g id="a_Node000012"><a xlink:href="sphere__cshape_8class_8c.html" target="_top" xlink:title="This file contains the implementation of the SphereCShape class.">
<polygon fill="white" stroke="#666666" points="1471,-30 1326,-30 1326,0 1471,0 1471,-30"/>
<text text-anchor="start" x="1334" y="-18" font-family="Helvetica,sans-Serif" font-size="10.00">src/classes/nodes/cshapes</text>
<text text-anchor="middle" x="1398.5" y="-7" font-family="Helvetica,sans-Serif" font-size="10.00">/sphere_cshape.class.c</text>
</a>
</g>
</g>
<!-- Node3&#45;&gt;Node12 -->
<g id="edge11_Node000003_Node000012" class="edge">
<title>Node3&#45;&gt;Node12</title>
<g id="a_edge11_Node000003_Node000012"><a xlink:title=" ">
<path fill="none" stroke="#63b8ff" d="M3702.03,-74.54C3402.68,-74.6 1931.85,-72.7 1480.5,-30 1477.48,-29.71 1474.4,-29.38 1471.3,-29.01"/>
<polygon fill="#63b8ff" stroke="#63b8ff" points="3702.18,-78.04 3712.18,-74.54 3702.18,-71.04 3702.18,-78.04"/>
</a>
</g>
</g>
<!-- Node13 -->
<g id="Node000013" class="node">
<title>Node13</title>
<g id="a_Node000013"><a xlink:href="button_8class_8c.html" target="_top" xlink:title="This file defines the Button class and its associated methods.">
<polygon fill="white" stroke="#666666" points="1629.5,-30 1489.5,-30 1489.5,0 1629.5,0 1629.5,-30"/>
<text text-anchor="start" x="1497.5" y="-18" font-family="Helvetica,sans-Serif" font-size="10.00">src/classes/nodes/frames</text>
<text text-anchor="middle" x="1559.5" y="-7" font-family="Helvetica,sans-Serif" font-size="10.00">/button.class.c</text>
</a>
</g>
</g>
<!-- Node3&#45;&gt;Node13 -->
<g id="edge12_Node000003_Node000013" class="edge">
<title>Node3&#45;&gt;Node13</title>
<g id="a_edge12_Node000003_Node000013"><a xlink:title=" ">
<path fill="none" stroke="#63b8ff" d="M3702.12,-74.5C3415.51,-74.3 2056.57,-71.19 1638.5,-30 1635.59,-29.71 1632.62,-29.38 1629.63,-29.01"/>
<polygon fill="#63b8ff" stroke="#63b8ff" points="3702.25,-78 3712.25,-74.5 3702.25,-71 3702.25,-78"/>
</a>
</g>
</g>
<!-- Node14 -->
<g id="Node000014" class="node">
<title>Node14</title>
<g id="a_Node000014"><a xlink:href="checkbox_8class_8c.html" target="_top" xlink:title="Implementation of the Checkbox class for the GUI framework.">
<polygon fill="white" stroke="#666666" points="1787.5,-30 1647.5,-30 1647.5,0 1787.5,0 1787.5,-30"/>
<text text-anchor="start" x="1655.5" y="-18" font-family="Helvetica,sans-Serif" font-size="10.00">src/classes/nodes/frames</text>
<text text-anchor="middle" x="1717.5" y="-7" font-family="Helvetica,sans-Serif" font-size="10.00">/checkbox.class.c</text>
</a>
</g>
</g>
<!-- Node3&#45;&gt;Node14 -->
<g id="edge13_Node000003_Node000014" class="edge">
<title>Node3&#45;&gt;Node14</title>
<g id="a_edge13_Node000003_Node000014"><a xlink:title=" ">
<path fill="none" stroke="#63b8ff" d="M3702.21,-74.39C3428.79,-73.66 2181.49,-68.26 1796.5,-30 1793.59,-29.71 1790.62,-29.37 1787.63,-29"/>
<polygon fill="#63b8ff" stroke="#63b8ff" points="3702.26,-77.89 3712.27,-74.42 3702.27,-70.89 3702.26,-77.89"/>
</a>
</g>
</g>
<!-- Node15 -->
<g id="Node000015" class="node">
<title>Node15</title>
<g id="a_Node000015"><a xlink:href="control__frame_8class_8c.html" target="_top" xlink:title="This file defines the implementation of the control frame class.">
<polygon fill="white" stroke="#666666" points="1945.5,-30 1805.5,-30 1805.5,0 1945.5,0 1945.5,-30"/>
<text text-anchor="start" x="1813.5" y="-18" font-family="Helvetica,sans-Serif" font-size="10.00">src/classes/nodes/frames</text>
<text text-anchor="middle" x="1875.5" y="-7" font-family="Helvetica,sans-Serif" font-size="10.00">/control_frame.class.c</text>
</a>
</g>
</g>
<!-- Node3&#45;&gt;Node15 -->
<g id="edge14_Node000003_Node000015" class="edge">
<title>Node3&#45;&gt;Node15</title>
<g id="a_edge14_Node000003_Node000015"><a xlink:title=" ">
<path fill="none" stroke="#63b8ff" d="M3701.99,-74.27C3441.71,-72.96 2306.34,-65.32 1954.5,-30 1951.59,-29.71 1948.62,-29.37 1945.63,-28.99"/>
<polygon fill="#63b8ff" stroke="#63b8ff" points="3702.28,-77.77 3712.3,-74.32 3702.32,-70.77 3702.28,-77.77"/>
</a>
</g>
</g>
<!-- Node16 -->
<g id="Node000016" class="node">
<title>Node16</title>
<g id="a_Node000016"><a xlink:href="frame_8class_8c.html" target="_top" xlink:title="This file defines the implementation of frame&#45;related functionalities.">
<polygon fill="white" stroke="#666666" points="2103.5,-30 1963.5,-30 1963.5,0 2103.5,0 2103.5,-30"/>
<text text-anchor="start" x="1971.5" y="-18" font-family="Helvetica,sans-Serif" font-size="10.00">src/classes/nodes/frames</text>
<text text-anchor="middle" x="2033.5" y="-7" font-family="Helvetica,sans-Serif" font-size="10.00">/frame.class.c</text>
</a>
</g>
</g>
<!-- Node3&#45;&gt;Node16 -->
<g id="edge15_Node000003_Node000016" class="edge">
<title>Node3&#45;&gt;Node16</title>
<g id="a_edge15_Node000003_Node000016"><a xlink:title=" ">
<path fill="none" stroke="#63b8ff" d="M3702.36,-74.12C3456.94,-72.21 2431.55,-62.41 2112.5,-30 2109.59,-29.7 2106.63,-29.36 2103.64,-28.99"/>
<polygon fill="#63b8ff" stroke="#63b8ff" points="3702.42,-77.62 3712.45,-74.2 3702.48,-70.62 3702.42,-77.62"/>
</a>
</g>
</g>
<!-- Node17 -->
<g id="Node000017" class="node">
<title>Node17</title>
<g id="a_Node000017"><a xlink:href="image__frame_8class_8c.html" target="_top" xlink:title="This file contains the implementation of the ImageFrame class.">
<polygon fill="white" stroke="#666666" points="2261.5,-30 2121.5,-30 2121.5,0 2261.5,0 2261.5,-30"/>
<text text-anchor="start" x="2129.5" y="-18" font-family="Helvetica,sans-Serif" font-size="10.00">src/classes/nodes/frames</text>
<text text-anchor="middle" x="2191.5" y="-7" font-family="Helvetica,sans-Serif" font-size="10.00">/image_frame.class.c</text>
</a>
</g>
</g>
<!-- Node3&#45;&gt;Node17 -->
<g id="edge16_Node000003_Node000017" class="edge">
<title>Node3&#45;&gt;Node17</title>
<g id="a_edge16_Node000003_Node000017"><a xlink:title=" ">
<path fill="none" stroke="#63b8ff" d="M3702.32,-73.94C3471.66,-71.37 2556.67,-59.49 2270.5,-30 2267.59,-29.7 2264.63,-29.36 2261.64,-28.97"/>
<polygon fill="#63b8ff" stroke="#63b8ff" points="3702.42,-77.45 3712.46,-74.06 3702.5,-70.45 3702.42,-77.45"/>
</a>
</g>
</g>
<!-- Node18 -->
<g id="Node000018" class="node">
<title>Node18</title>
<g id="a_Node000018"><a xlink:href="input__area_8class_8c.html" target="_top" xlink:title="This file defines the InputArea class and its associated methods.">
<polygon fill="white" stroke="#666666" points="2419.5,-30 2279.5,-30 2279.5,0 2419.5,0 2419.5,-30"/>
<text text-anchor="start" x="2287.5" y="-18" font-family="Helvetica,sans-Serif" font-size="10.00">src/classes/nodes/frames</text>
<text text-anchor="middle" x="2349.5" y="-7" font-family="Helvetica,sans-Serif" font-size="10.00">/input_area.class.c</text>
</a>
</g>
</g>
<!-- Node3&#45;&gt;Node18 -->
<g id="edge17_Node000003_Node000018" class="edge">
<title>Node3&#45;&gt;Node18</title>
<g id="a_edge17_Node000003_Node000018"><a xlink:title=" ">
<path fill="none" stroke="#63b8ff" d="M3702.09,-73.72C3486.76,-70.43 2681.83,-56.56 2428.5,-30 2425.59,-29.7 2422.63,-29.35 2419.64,-28.96"/>
<polygon fill="#63b8ff" stroke="#63b8ff" points="3702.14,-77.22 3712.19,-73.88 3702.25,-70.22 3702.14,-77.22"/>
</a>
</g>
</g>
<!-- Node19 -->
<g id="Node000019" class="node">
<title>Node19</title>
<g id="a_Node000019"><a xlink:href="label_8class_8c.html" target="_top" xlink:title="This file defines the Label class and its associated functions.">
<polygon fill="white" stroke="#666666" points="2577.5,-30 2437.5,-30 2437.5,0 2577.5,0 2577.5,-30"/>
<text text-anchor="start" x="2445.5" y="-18" font-family="Helvetica,sans-Serif" font-size="10.00">src/classes/nodes/frames</text>
<text text-anchor="middle" x="2507.5" y="-7" font-family="Helvetica,sans-Serif" font-size="10.00">/label.class.c</text>
</a>
</g>
</g>
<!-- Node3&#45;&gt;Node19 -->
<g id="edge18_Node000003_Node000019" class="edge">
<title>Node3&#45;&gt;Node19</title>
<g id="a_edge18_Node000003_Node000019"><a xlink:title=" ">
<path fill="none" stroke="#63b8ff" d="M3701.93,-75.07C3535.81,-76.28 3014.81,-75.88 2586.5,-30 2583.59,-29.69 2580.63,-29.33 2577.64,-28.95"/>
<polygon fill="#63b8ff" stroke="#63b8ff" points="3702.38,-78.57 3712.35,-74.99 3702.33,-71.57 3702.38,-78.57"/>
</a>
</g>
</g>
<!-- Node20 -->
<g id="Node000020" class="node">
<title>Node20</title>
<g id="a_Node000020"><a xlink:href="radiobutton_8class_8c.html" target="_top" xlink:title="Implementation of the RadioButton class.">
<polygon fill="white" stroke="#666666" points="2735.5,-30 2595.5,-30 2595.5,0 2735.5,0 2735.5,-30"/>
<text text-anchor="start" x="2603.5" y="-18" font-family="Helvetica,sans-Serif" font-size="10.00">src/classes/nodes/frames</text>
<text text-anchor="middle" x="2665.5" y="-7" font-family="Helvetica,sans-Serif" font-size="10.00">/radiobutton.class.c</text>
</a>
</g>
</g>
<!-- Node3&#45;&gt;Node20 -->
<g id="edge19_Node000003_Node000020" class="edge">
<title>Node3&#45;&gt;Node20</title>
<g id="a_edge19_Node000003_Node000020"><a xlink:title=" ">
<path fill="none" stroke="#63b8ff" d="M3702.13,-74.61C3551.27,-74.41 3109.03,-70.15 2744.5,-30 2741.59,-29.68 2738.63,-29.32 2735.64,-28.92"/>
<polygon fill="#63b8ff" stroke="#63b8ff" points="3702.48,-78.12 3712.48,-74.62 3702.48,-71.12 3702.48,-78.12"/>
</a>
</g>
</g>
<!-- Node21 -->
<g id="Node000021" class="node">
<title>Node21</title>
<g id="a_Node000021"><a xlink:href="selectlist_8class_8c.html" target="_top" xlink:title="This file implements the functionality for a selectable list frame in the application.">
<polygon fill="white" stroke="#666666" points="2893.5,-30 2753.5,-30 2753.5,0 2893.5,0 2893.5,-30"/>
<text text-anchor="start" x="2761.5" y="-18" font-family="Helvetica,sans-Serif" font-size="10.00">src/classes/nodes/frames</text>
<text text-anchor="middle" x="2823.5" y="-7" font-family="Helvetica,sans-Serif" font-size="10.00">/selectlist.class.c</text>
</a>
</g>
</g>
<!-- Node3&#45;&gt;Node21 -->
<g id="edge20_Node000003_Node000021" class="edge">
<title>Node3&#45;&gt;Node21</title>
<g id="a_edge20_Node000003_Node000021"><a xlink:title=" ">
<path fill="none" stroke="#63b8ff" d="M3702.26,-74C3567.78,-72.24 3203.68,-64.41 2902.5,-30 2899.59,-29.67 2896.63,-29.3 2893.65,-28.89"/>
<polygon fill="#63b8ff" stroke="#63b8ff" points="3702.25,-77.5 3712.3,-74.12 3702.34,-70.5 3702.25,-77.5"/>
</a>
</g>
</g>
<!-- Node22 -->
<g id="Node000022" class="node">
<title>Node22</title>
<g id="a_Node000022"><a xlink:href="slider_8class_8c.html" target="_top" xlink:title=" ">
<polygon fill="white" stroke="#666666" points="3051.5,-30 2911.5,-30 2911.5,0 3051.5,0 3051.5,-30"/>
<text text-anchor="start" x="2919.5" y="-18" font-family="Helvetica,sans-Serif" font-size="10.00">src/classes/nodes/frames</text>
<text text-anchor="middle" x="2981.5" y="-7" font-family="Helvetica,sans-Serif" font-size="10.00">/slider.class.c</text>
</a>
</g>
</g>
<!-- Node3&#45;&gt;Node22 -->
<g id="edge21_Node000003_Node000022" class="edge">
<title>Node3&#45;&gt;Node22</title>
<g id="a_edge21_Node000003_Node000022"><a xlink:title=" ">
<path fill="none" stroke="#63b8ff" d="M3702.14,-73.11C3585.42,-69.63 3298.79,-58.65 3060.5,-30 3057.6,-29.65 3054.64,-29.26 3051.65,-28.85"/>
<polygon fill="#63b8ff" stroke="#63b8ff" points="3702.14,-76.61 3712.24,-73.41 3702.35,-69.61 3702.14,-76.61"/>
</a>
</g>
</g>
<!-- Node23 -->
<g id="Node000023" class="node">
<title>Node23</title>
<g id="a_Node000023"><a xlink:href="directional__light_8class_8c.html" target="_top" xlink:title="This file contains the implementation of the directional light class.">
<polygon fill="white" stroke="#666666" points="3203.5,-30 3069.5,-30 3069.5,0 3203.5,0 3203.5,-30"/>
<text text-anchor="start" x="3077.5" y="-18" font-family="Helvetica,sans-Serif" font-size="10.00">src/classes/nodes/lights</text>
<text text-anchor="middle" x="3136.5" y="-7" font-family="Helvetica,sans-Serif" font-size="10.00">/directional_light.class.c</text>
</a>
</g>
</g>
<!-- Node3&#45;&gt;Node23 -->
<g id="edge22_Node000003_Node000023" class="edge">
<title>Node3&#45;&gt;Node23</title>
<g id="a_edge22_Node000003_Node000023"><a xlink:title=" ">
<path fill="none" stroke="#63b8ff" d="M3702.22,-71.91C3604.71,-66.78 3391.17,-53.72 3212.5,-30 3209.57,-29.61 3206.59,-29.19 3203.58,-28.73"/>
<polygon fill="#63b8ff" stroke="#63b8ff" points="3702.24,-75.42 3712.4,-72.44 3702.6,-68.43 3702.24,-75.42"/>
</a>
</g>
</g>
<!-- Node24 -->
<g id="Node000024" class="node">
<title>Node24</title>
<g id="a_Node000024"><a xlink:href="light_8class_8c.html" target="_top" xlink:title="This file contains the implementation of the light class for the project.">
<polygon fill="white" stroke="#666666" points="3353.5,-30 3221.5,-30 3221.5,0 3353.5,0 3353.5,-30"/>
<text text-anchor="start" x="3229.5" y="-18" font-family="Helvetica,sans-Serif" font-size="10.00">src/classes/nodes/lights</text>
<text text-anchor="middle" x="3287.5" y="-7" font-family="Helvetica,sans-Serif" font-size="10.00">/light.class.c</text>
</a>
</g>
</g>
<!-- Node3&#45;&gt;Node24 -->
<g id="edge23_Node000003_Node000024" class="edge">
<title>Node3&#45;&gt;Node24</title>
<g id="a_edge23_Node000003_Node000024"><a xlink:title=" ">
<path fill="none" stroke="#63b8ff" d="M3702.1,-69.68C3626.35,-62.56 3483.46,-48.11 3362.5,-30 3359.62,-29.57 3356.68,-29.11 3353.71,-28.63"/>
<polygon fill="#63b8ff" stroke="#63b8ff" points="3702.05,-73.19 3712.33,-70.63 3702.7,-66.22 3702.05,-73.19"/>
</a>
</g>
</g>
<!-- Node25 -->
<g id="Node000025" class="node">
<title>Node25</title>
<g id="a_Node000025"><a xlink:href="point__light_8class_8c.html" target="_top" xlink:title="This file contains the implementation of the PointLight class.">
<polygon fill="white" stroke="#666666" points="3503.5,-30 3371.5,-30 3371.5,0 3503.5,0 3503.5,-30"/>
<text text-anchor="start" x="3379.5" y="-18" font-family="Helvetica,sans-Serif" font-size="10.00">src/classes/nodes/lights</text>
<text text-anchor="middle" x="3437.5" y="-7" font-family="Helvetica,sans-Serif" font-size="10.00">/point_light.class.c</text>
</a>
</g>
</g>
<!-- Node3&#45;&gt;Node25 -->
<g id="edge24_Node000003_Node000025" class="edge">
<title>Node3&#45;&gt;Node25</title>
<g id="a_edge24_Node000003_Node000025"><a xlink:title=" ">
<path fill="none" stroke="#63b8ff" d="M3702.38,-64.83C3653.14,-55.85 3577.86,-42.08 3512.5,-30 3509.63,-29.47 3506.71,-28.93 3503.75,-28.38"/>
<polygon fill="#63b8ff" stroke="#63b8ff" points="3702.01,-68.32 3712.47,-66.67 3703.26,-61.43 3702.01,-68.32"/>
</a>
</g>
</g>
<!-- Node26 -->
<g id="Node000026" class="node">
<title>Node26</title>
<g id="a_Node000026"><a xlink:href="spot__light_8class_8c.html" target="_top" xlink:title="This file contains the implementation of the SpotLight class.">
<polygon fill="white" stroke="#666666" points="3653.5,-30 3521.5,-30 3521.5,0 3653.5,0 3653.5,-30"/>
<text text-anchor="start" x="3529.5" y="-18" font-family="Helvetica,sans-Serif" font-size="10.00">src/classes/nodes/lights</text>
<text text-anchor="middle" x="3587.5" y="-7" font-family="Helvetica,sans-Serif" font-size="10.00">/spot_light.class.c</text>
</a>
</g>
</g>
<!-- Node3&#45;&gt;Node26 -->
<g id="edge25_Node000003_Node000026" class="edge">
<title>Node3&#45;&gt;Node26</title>
<g id="a_edge25_Node000003_Node000026"><a xlink:title=" ">
<path fill="none" stroke="#63b8ff" d="M3721.28,-62.58C3694.23,-53.16 3656.42,-40 3627.89,-30.06"/>
<polygon fill="#63b8ff" stroke="#63b8ff" points="3720.48,-66.01 3731.07,-65.99 3722.78,-59.4 3720.48,-66.01"/>
</a>
</g>
</g>
<!-- Node27 -->
<g id="Node000027" class="node">
<title>Node27</title>
<g id="a_Node000027"><a xlink:href="mesh_8class_8c.html" target="_top" xlink:title="This file defines the implementation of the Mesh class.">
<polygon fill="white" stroke="#666666" points="3839.5,-24.5 3671.5,-24.5 3671.5,-5.5 3839.5,-5.5 3839.5,-24.5"/>
<text text-anchor="middle" x="3755.5" y="-12.5" font-family="Helvetica,sans-Serif" font-size="10.00">src/classes/nodes/mesh.class.c</text>
</a>
</g>
</g>
<!-- Node3&#45;&gt;Node27 -->
<g id="edge26_Node000003_Node000027" class="edge">
<title>Node3&#45;&gt;Node27</title>
<g id="a_edge26_Node000003_Node000027"><a xlink:title=" ">
<path fill="none" stroke="#63b8ff" d="M3755.5,-55.66C3755.5,-45.24 3755.5,-32.8 3755.5,-24.67"/>
<polygon fill="#63b8ff" stroke="#63b8ff" points="3752,-55.87 3755.5,-65.87 3759,-55.87 3752,-55.87"/>
</a>
</g>
</g>
<!-- Node28 -->
<g id="Node000028" class="node">
<title>Node28</title>
<g id="a_Node000028"><a xlink:href="model_8class_8c.html" target="_top" xlink:title="This file contains the implementation of the model class.">
<polygon fill="white" stroke="#666666" points="4029.5,-24.5 3857.5,-24.5 3857.5,-5.5 4029.5,-5.5 4029.5,-24.5"/>
<text text-anchor="middle" x="3943.5" y="-12.5" font-family="Helvetica,sans-Serif" font-size="10.00">src/classes/nodes/model.class.c</text>
</a>
</g>
</g>
<!-- Node3&#45;&gt;Node28 -->
<g id="edge27_Node000003_Node000028" class="edge">
<title>Node3&#45;&gt;Node28</title>
<g id="a_edge27_Node000003_Node000028"><a xlink:title=" ">
<path fill="none" stroke="#63b8ff" d="M3792.58,-62.96C3828.94,-51.65 3883.53,-34.66 3916.13,-24.52"/>
<polygon fill="#63b8ff" stroke="#63b8ff" points="3791.35,-59.68 3782.84,-65.99 3793.43,-66.36 3791.35,-59.68"/>
</a>
</g>
</g>
<!-- Node29 -->
<g id="Node000029" class="node">
<title>Node29</title>
<g id="a_Node000029"><a xlink:href="area_8class_8c.html" target="_top" xlink:title="This file handles the physics area nodes in the project.">
<polygon fill="white" stroke="#666666" points="4189.5,-30 4047.5,-30 4047.5,0 4189.5,0 4189.5,-30"/>
<text text-anchor="start" x="4055.5" y="-18" font-family="Helvetica,sans-Serif" font-size="10.00">src/classes/nodes/physics</text>
<text text-anchor="middle" x="4118.5" y="-7" font-family="Helvetica,sans-Serif" font-size="10.00">/area.class.c</text>
</a>
</g>
</g>
<!-- Node3&#45;&gt;Node29 -->
<g id="edge28_Node000003_Node000029" class="edge">
<title>Node3&#45;&gt;Node29</title>
<g id="a_edge28_Node000003_Node000029"><a xlink:title=" ">
<path fill="none" stroke="#63b8ff" d="M3808.89,-66.39C3865.82,-57.67 3958.59,-43.27 4038.5,-30 4041.42,-29.51 4044.4,-29.01 4047.41,-28.51"/>
<polygon fill="#63b8ff" stroke="#63b8ff" points="3808.04,-62.97 3798.69,-67.95 3809.1,-69.89 3808.04,-62.97"/>
</a>
</g>
</g>
<!-- Node30 -->
<g id="Node000030" class="node">
<title>Node30</title>
<g id="a_Node000030"><a xlink:href="body_8class_8c.html" target="_top" xlink:title="This file defines the body class for the physics engine.">
<polygon fill="white" stroke="#666666" points="4349.5,-30 4207.5,-30 4207.5,0 4349.5,0 4349.5,-30"/>
<text text-anchor="start" x="4215.5" y="-18" font-family="Helvetica,sans-Serif" font-size="10.00">src/classes/nodes/physics</text>
<text text-anchor="middle" x="4278.5" y="-7" font-family="Helvetica,sans-Serif" font-size="10.00">/bodies/body.class.c</text>
</a>
</g>
</g>
<!-- Node3&#45;&gt;Node30 -->
<g id="edge29_Node000003_Node000030" class="edge">
<title>Node3&#45;&gt;Node30</title>
<g id="a_edge29_Node000003_Node000030"><a xlink:title=" ">
<path fill="none" stroke="#63b8ff" d="M3808.68,-70.42C3892,-63.75 4058.28,-49.29 4198.5,-30 4201.43,-29.6 4204.42,-29.17 4207.44,-28.71"/>
<polygon fill="#63b8ff" stroke="#63b8ff" points="3808.39,-66.93 3798.7,-71.22 3808.95,-73.91 3808.39,-66.93"/>
</a>
</g>
</g>
<!-- Node31 -->
<g id="Node000031" class="node">
<title>Node31</title>
<g id="a_Node000031"><a xlink:href="kinematic__body_8class_8c.html" target="_top" xlink:title="This file defines the implementation of kinematic bodies for the physics engine.">
<polygon fill="white" stroke="#666666" points="4535,-30 4368,-30 4368,0 4535,0 4535,-30"/>
<text text-anchor="start" x="4376" y="-18" font-family="Helvetica,sans-Serif" font-size="10.00">src/classes/nodes/physics</text>
<text text-anchor="middle" x="4451.5" y="-7" font-family="Helvetica,sans-Serif" font-size="10.00">/bodies/kinematic_body.class.c</text>
</a>
</g>
</g>
<!-- Node3&#45;&gt;Node31 -->
<g id="edge30_Node000003_Node000031" class="edge">
<title>Node3&#45;&gt;Node31</title>
<g id="a_edge30_Node000003_Node000031"><a xlink:title=" ">
<path fill="none" stroke="#63b8ff" d="M3808.8,-71.93C3914.08,-66.54 4156.08,-52.67 4358.5,-30 4361.58,-29.65 4364.72,-29.28 4367.89,-28.89"/>
<polygon fill="#63b8ff" stroke="#63b8ff" points="3808.55,-68.43 3798.74,-72.44 3808.91,-75.42 3808.55,-68.43"/>
</a>
</g>
</g>
<!-- Node32 -->
<g id="Node000032" class="node">
<title>Node32</title>
<g id="a_Node000032"><a xlink:href="rigid__body_8class_8c.html" target="_top" xlink:title="This source file defines the implementation of rigid body physics for the project.">
<polygon fill="white" stroke="#666666" points="4695.5,-30 4553.5,-30 4553.5,0 4695.5,0 4695.5,-30"/>
<text text-anchor="start" x="4561.5" y="-18" font-family="Helvetica,sans-Serif" font-size="10.00">src/classes/nodes/physics</text>
<text text-anchor="middle" x="4624.5" y="-7" font-family="Helvetica,sans-Serif" font-size="10.00">/bodies/rigid_body.class.c</text>
</a>
</g>
</g>
<!-- Node3&#45;&gt;Node32 -->
<g id="edge31_Node000003_Node000032" class="edge">
<title>Node3&#45;&gt;Node32</title>
<g id="a_edge31_Node000003_Node000032"><a xlink:title=" ">
<path fill="none" stroke="#63b8ff" d="M3809.13,-73.64C3936.88,-71.1 4269.09,-61.75 4544.5,-30 4547.44,-29.66 4550.44,-29.28 4553.46,-28.88"/>
<polygon fill="#63b8ff" stroke="#63b8ff" points="3808.77,-70.14 3798.84,-73.83 3808.91,-77.14 3808.77,-70.14"/>
</a>
</g>
</g>
<!-- Node33 -->
<g id="Node000033" class="node">
<title>Node33</title>
<g id="a_Node000033"><a xlink:href="static__body_8class_8c.html" target="_top" xlink:title="This file defines the implementation of static bodies in the physics engine.">
<polygon fill="white" stroke="#666666" points="4859.5,-30 4713.5,-30 4713.5,0 4859.5,0 4859.5,-30"/>
<text text-anchor="start" x="4721.5" y="-18" font-family="Helvetica,sans-Serif" font-size="10.00">src/classes/nodes/physics</text>
<text text-anchor="middle" x="4786.5" y="-7" font-family="Helvetica,sans-Serif" font-size="10.00">/bodies/static_body.class.c</text>
</a>
</g>
</g>
<!-- Node3&#45;&gt;Node33 -->
<g id="edge32_Node000003_Node000033" class="edge">
<title>Node3&#45;&gt;Node33</title>
<g id="a_edge32_Node000003_Node000033"><a xlink:title=" ">
<path fill="none" stroke="#63b8ff" d="M3809.04,-74.28C3953.81,-73.18 4364.96,-66.81 4704.5,-30 4707.37,-29.69 4710.29,-29.34 4713.24,-28.96"/>
<polygon fill="#63b8ff" stroke="#63b8ff" points="3808.66,-70.78 3798.68,-74.35 3808.71,-77.78 3808.66,-70.78"/>
</a>
</g>
</g>
<!-- Node34 -->
<g id="Node000034" class="node">
<title>Node34</title>
<g id="a_Node000034"><a xlink:href="physical__node_8class_8c.html" target="_top" xlink:title="This file contains the implementation of the PhysicalNode class.">
<polygon fill="white" stroke="#666666" points="5019.5,-30 4877.5,-30 4877.5,0 5019.5,0 5019.5,-30"/>
<text text-anchor="start" x="4885.5" y="-18" font-family="Helvetica,sans-Serif" font-size="10.00">src/classes/nodes/physics</text>
<text text-anchor="middle" x="4948.5" y="-7" font-family="Helvetica,sans-Serif" font-size="10.00">/physical_node.class.c</text>
</a>
</g>
</g>
<!-- Node3&#45;&gt;Node34 -->
<g id="edge33_Node000003_Node000034" class="edge">
<title>Node3&#45;&gt;Node34</title>
<g id="a_edge33_Node000003_Node000034"><a xlink:title=" ">
<path fill="none" stroke="#63b8ff" d="M3808.71,-74.88C3969.23,-75.5 4462.56,-73.44 4868.5,-30 4871.44,-29.68 4874.44,-29.33 4877.47,-28.94"/>
<polygon fill="#63b8ff" stroke="#63b8ff" points="3808.64,-71.38 3798.62,-74.84 3808.61,-78.38 3808.64,-71.38"/>
</a>
</g>
</g>
<!-- Node35 -->
<g id="Node000035" class="node">
<title>Node35</title>
<g id="a_Node000035"><a xlink:href="render__target_8class_8c.html" target="_top" xlink:title="Framebuffer class implementation.">
<polygon fill="white" stroke="#666666" points="5175,-30 5038,-30 5038,0 5175,0 5175,-30"/>
<text text-anchor="start" x="5046" y="-18" font-family="Helvetica,sans-Serif" font-size="10.00">src/classes/nodes/render</text>
<text text-anchor="middle" x="5106.5" y="-7" font-family="Helvetica,sans-Serif" font-size="10.00">_target.class.c</text>
</a>
</g>
</g>
<!-- Node3&#45;&gt;Node35 -->
<g id="edge34_Node000003_Node000035" class="edge">
<title>Node3&#45;&gt;Node35</title>
<g id="a_edge34_Node000003_Node000035"><a xlink:title=" ">
<path fill="none" stroke="#63b8ff" d="M3808.79,-73.65C4018.37,-70.16 4786.31,-55.84 5028.5,-30 5031.51,-29.68 5034.58,-29.31 5037.67,-28.9"/>
<polygon fill="#63b8ff" stroke="#63b8ff" points="3808.6,-70.15 3798.65,-73.82 3808.71,-77.15 3808.6,-70.15"/>
</a>
</g>
</g>
<!-- Node36 -->
<g id="Node000036" class="node">
<title>Node36</title>
<g id="a_Node000036"><a xlink:href="scene_8class_8c.html" target="_top" xlink:title="This file contains the implementation of the scene class.">
<polygon fill="white" stroke="#666666" points="5363.5,-24.5 5193.5,-24.5 5193.5,-5.5 5363.5,-5.5 5363.5,-24.5"/>
<text text-anchor="middle" x="5278.5" y="-12.5" font-family="Helvetica,sans-Serif" font-size="10.00">src/classes/nodes/scene.class.c</text>
</a>
</g>
</g>
<!-- Node3&#45;&gt;Node36 -->
<g id="edge35_Node000003_Node000036" class="edge">
<title>Node3&#45;&gt;Node36</title>
<g id="a_edge35_Node000003_Node000036"><a xlink:title=" ">
<path fill="none" stroke="#63b8ff" d="M3808.85,-73.67C4034.26,-70.05 4909.66,-54.66 5184.5,-30 5198.8,-28.72 5214.23,-26.69 5228.38,-24.57"/>
<polygon fill="#63b8ff" stroke="#63b8ff" points="3808.55,-70.18 3798.61,-73.84 3808.66,-77.18 3808.55,-70.18"/>
</a>
</g>
</g>
<!-- Node37 -->
<g id="Node000037" class="node">
<title>Node37</title>
<g id="a_Node000037"><a xlink:href="skybox_8class_8c.html" target="_top" xlink:title="This file contains the implementation of the Skybox class.">
<polygon fill="white" stroke="#666666" points="5557.5,-24.5 5381.5,-24.5 5381.5,-5.5 5557.5,-5.5 5557.5,-24.5"/>
<text text-anchor="middle" x="5469.5" y="-12.5" font-family="Helvetica,sans-Serif" font-size="10.00">src/classes/nodes/skybox.class.c</text>
</a>
</g>
</g>
<!-- Node3&#45;&gt;Node37 -->
<g id="edge36_Node000003_Node000037" class="edge">
<title>Node3&#45;&gt;Node37</title>
<g id="a_edge36_Node000003_Node000037"><a xlink:title=" ">
<path fill="none" stroke="#63b8ff" d="M3808.94,-73.86C4052.43,-70.83 5058.53,-56.89 5372.5,-30 5387.42,-28.72 5403.54,-26.67 5418.28,-24.52"/>
<polygon fill="#63b8ff" stroke="#63b8ff" points="3808.54,-70.37 3798.59,-73.99 3808.63,-77.37 3808.54,-70.37"/>
</a>
</g>
</g>
<!-- Node38 -->
<g id="Node000038" class="node">
<title>Node38</title>
<g id="a_Node000038"><a xlink:href="texture_8class_8c.html" target="_top" xlink:title="This file contains the implementation of texture&#45;related functionalities.">
<polygon fill="white" stroke="#666666" points="5751.5,-24.5 5575.5,-24.5 5575.5,-5.5 5751.5,-5.5 5751.5,-24.5"/>
<text text-anchor="middle" x="5663.5" y="-12.5" font-family="Helvetica,sans-Serif" font-size="10.00">src/classes/nodes/texture.class.c</text>
</a>
</g>
</g>
<!-- Node3&#45;&gt;Node38 -->
<g id="edge37_Node000003_Node000038" class="edge">
<title>Node3&#45;&gt;Node38</title>
<g id="a_edge37_Node000003_Node000038"><a xlink:title=" ">
<path fill="none" stroke="#63b8ff" d="M3808.86,-74.05C4069.67,-71.69 5211.99,-59.83 5566.5,-30 5581.51,-28.74 5597.73,-26.67 5612.53,-24.52"/>
<polygon fill="#63b8ff" stroke="#63b8ff" points="3808.5,-70.55 3798.53,-74.14 3808.56,-77.55 3808.5,-70.55"/>
</a>
</g>
</g>
<!-- Node39 -->
<g id="Node000039" class="node">
<title>Node39</title>
<g id="a_Node000039"><a xlink:href="textured__mesh_8class_8c.html" target="_top" xlink:title="This file contains the implementation of the TexturedMesh class.">
<polygon fill="white" stroke="#666666" points="5915.5,-30 5769.5,-30 5769.5,0 5915.5,0 5915.5,-30"/>
<text text-anchor="start" x="5777.5" y="-18" font-family="Helvetica,sans-Serif" font-size="10.00">src/classes/nodes/textured</text>
<text text-anchor="middle" x="5842.5" y="-7" font-family="Helvetica,sans-Serif" font-size="10.00">_mesh.class.c</text>
</a>
</g>
</g>
<!-- Node3&#45;&gt;Node39 -->
<g id="edge38_Node000003_Node000039" class="edge">
<title>Node3&#45;&gt;Node39</title>
<g id="a_edge38_Node000003_Node000039"><a xlink:title=" ">
<path fill="none" stroke="#63b8ff" d="M3809.13,-74.38C4087.08,-73.57 5365.92,-67.86 5760.5,-30 5763.38,-29.72 5766.3,-29.41 5769.25,-29.05"/>
<polygon fill="#63b8ff" stroke="#63b8ff" points="3808.9,-70.88 3798.91,-74.41 3808.92,-77.88 3808.9,-70.88"/>
</a>
</g>
</g>
<!-- Node40 -->
<g id="Node000040" class="node">
<title>Node40</title>
<g id="a_Node000040"><a xlink:href="gltexture__loader_8c.html" target="_top" xlink:title=" ">
<polygon fill="white" stroke="#666666" points="6067.5,-24.5 5933.5,-24.5 5933.5,-5.5 6067.5,-5.5 6067.5,-24.5"/>
<text text-anchor="middle" x="6000.5" y="-12.5" font-family="Helvetica,sans-Serif" font-size="10.00">src/io/gltexture_loader.c</text>
</a>
</g>
</g>
<!-- Node3&#45;&gt;Node40 -->
<g id="edge39_Node000003_Node000040" class="edge">
<title>Node3&#45;&gt;Node40</title>
<g id="a_edge39_Node000003_Node000040"><a xlink:title=" ">
<path fill="none" stroke="#63b8ff" d="M3808.78,-74.58C4099.36,-74.81 5495.61,-73.61 5924.5,-30 5936.38,-28.79 5949.18,-26.73 5960.84,-24.56"/>
<polygon fill="#63b8ff" stroke="#63b8ff" points="3808.52,-71.08 3798.51,-74.57 3808.51,-78.08 3808.52,-71.08"/>
</a>
</g>
</g>
<!-- Node41 -->
<g id="Node000041" class="node">
<title>Node41</title>
<g id="a_Node000041"><a xlink:href="input_8c.html" target="_top" xlink:title=" ">
<polygon fill="white" stroke="#666666" points="6165,-24.5 6086,-24.5 6086,-5.5 6165,-5.5 6165,-24.5"/>
<text text-anchor="middle" x="6125.5" y="-12.5" font-family="Helvetica,sans-Serif" font-size="10.00">src/io/input.c</text>
</a>
</g>
</g>
<!-- Node3&#45;&gt;Node41 -->
<g id="edge40_Node000003_Node000041" class="edge">
<title>Node3&#45;&gt;Node41</title>
<g id="a_edge40_Node000003_Node000041"><a xlink:title=" ">
<path fill="none" stroke="#63b8ff" d="M3808.93,-74.3C4134.55,-73 5845.84,-64.56 6076.5,-30 6084.37,-28.82 6092.77,-26.74 6100.34,-24.54"/>
<polygon fill="#63b8ff" stroke="#63b8ff" points="3808.8,-70.81 3798.81,-74.34 3808.83,-77.81 3808.8,-70.81"/>
</a>
</g>
</g>
<!-- Node42 -->
<g id="Node000042" class="node">
<title>Node42</title>
<g id="a_Node000042"><a xlink:href="model_8c.html" target="_top" xlink:title=" ">
<polygon fill="white" stroke="#666666" points="6268,-24.5 6183,-24.5 6183,-5.5 6268,-5.5 6268,-24.5"/>
<text text-anchor="middle" x="6225.5" y="-12.5" font-family="Helvetica,sans-Serif" font-size="10.00">src/io/model.c</text>
</a>
</g>
</g>
<!-- Node3&#45;&gt;Node42 -->
<g id="edge41_Node000003_Node000042" class="edge">
<title>Node3&#45;&gt;Node42</title>
<g id="a_edge41_Node000003_Node000042"><a xlink:title=" ">
<path fill="none" stroke="#63b8ff" d="M3809.02,-74.32C4142.88,-73.06 5933.39,-64.75 6174.5,-30 6182.68,-28.82 6191.41,-26.74 6199.3,-24.54"/>
<polygon fill="#63b8ff" stroke="#63b8ff" points="3808.65,-70.82 3798.66,-74.35 3808.68,-77.82 3808.65,-70.82"/>
</a>
</g>
</g>
<!-- Node43 -->
<g id="Node000043" class="node">
<title>Node43</title>
<g id="a_Node000043"><a xlink:href="fbx__loader_8c.html" target="_top" xlink:title=" ">
<polygon fill="white" stroke="#666666" points="6404.5,-30 6286.5,-30 6286.5,0 6404.5,0 6404.5,-30"/>
<text text-anchor="start" x="6294.5" y="-18" font-family="Helvetica,sans-Serif" font-size="10.00">src/io/model_loaders</text>
<text text-anchor="middle" x="6345.5" y="-7" font-family="Helvetica,sans-Serif" font-size="10.00">/fbx_loader.c</text>
</a>
</g>
</g>
<!-- Node3&#45;&gt;Node43 -->
<g id="edge42_Node000003_Node000043" class="edge">
<title>Node3&#45;&gt;Node43</title>
<g id="a_edge42_Node000003_Node000043"><a xlink:title=" ">
<path fill="none" stroke="#63b8ff" d="M3808.83,-74.15C4150.37,-71.85 6024.48,-58.03 6277.5,-30 6280.38,-29.68 6283.31,-29.3 6286.26,-28.87"/>
<polygon fill="#63b8ff" stroke="#63b8ff" points="3808.69,-70.65 3798.72,-74.22 3808.74,-77.65 3808.69,-70.65"/>
</a>
</g>
</g>
<!-- Node44 -->
<g id="Node000044" class="node">
<title>Node44</title>
<g id="a_Node000044"><a xlink:href="model__loader_8c.html" target="_top" xlink:title=" ">
<polygon fill="white" stroke="#666666" points="6540.5,-30 6422.5,-30 6422.5,0 6540.5,0 6540.5,-30"/>
<text text-anchor="start" x="6430.5" y="-18" font-family="Helvetica,sans-Serif" font-size="10.00">src/io/model_loaders</text>
<text text-anchor="middle" x="6481.5" y="-7" font-family="Helvetica,sans-Serif" font-size="10.00">/model_loader.c</text>
</a>
</g>
</g>
<!-- Node3&#45;&gt;Node44 -->
<g id="edge43_Node000003_Node000044" class="edge">
<title>Node3&#45;&gt;Node44</title>
<g id="a_edge43_Node000003_Node000044"><a xlink:title=" ">
<path fill="none" stroke="#63b8ff" d="M3808.89,-74.2C4161.21,-72.18 6146.12,-59.5 6413.5,-30 6416.38,-29.68 6419.31,-29.3 6422.27,-28.87"/>
<polygon fill="#63b8ff" stroke="#63b8ff" points="3808.69,-70.71 3798.71,-74.26 3808.73,-77.71 3808.69,-70.71"/>
</a>
</g>
</g>
<!-- Node45 -->
<g id="Node000045" class="node">
<title>Node45</title>
<g id="a_Node000045"><a xlink:href="mtl__loader_8c.html" target="_top" xlink:title=" ">
<polygon fill="white" stroke="#666666" points="6676.5,-30 6558.5,-30 6558.5,0 6676.5,0 6676.5,-30"/>
<text text-anchor="start" x="6566.5" y="-18" font-family="Helvetica,sans-Serif" font-size="10.00">src/io/model_loaders</text>
<text text-anchor="middle" x="6617.5" y="-7" font-family="Helvetica,sans-Serif" font-size="10.00">/mtl_loader.c</text>
</a>
</g>
</g>
<!-- Node3&#45;&gt;Node45 -->
<g id="edge44_Node000003_Node000045" class="edge">
<title>Node3&#45;&gt;Node45</title>
<g id="a_edge44_Node000003_Node000045"><a xlink:title=" ">
<path fill="none" stroke="#63b8ff" d="M3808.73,-74.25C4170.96,-72.49 6267.69,-60.98 6549.5,-30 6552.38,-29.68 6555.31,-29.3 6558.27,-28.88"/>
<polygon fill="#63b8ff" stroke="#63b8ff" points="3808.51,-70.75 3798.52,-74.3 3808.54,-77.75 3808.51,-70.75"/>
</a>
</g>
</g>
<!-- Node46 -->
<g id="Node000046" class="node">
<title>Node46</title>
<g id="a_Node000046"><a xlink:href="obj__loader_8c.html" target="_top" xlink:title=" ">
<polygon fill="white" stroke="#666666" points="6812.5,-30 6694.5,-30 6694.5,0 6812.5,0 6812.5,-30"/>
<text text-anchor="start" x="6702.5" y="-18" font-family="Helvetica,sans-Serif" font-size="10.00">src/io/model_loaders</text>
<text text-anchor="middle" x="6753.5" y="-7" font-family="Helvetica,sans-Serif" font-size="10.00">/obj_loader.c</text>
</a>
</g>
</g>
<!-- Node3&#45;&gt;Node46 -->
<g id="edge45_Node000003_Node000046" class="edge">
<title>Node3&#45;&gt;Node46</title>
<g id="a_edge45_Node000003_Node000046"><a xlink:title=" ">
<path fill="none" stroke="#63b8ff" d="M3808.95,-74.29C4181.93,-72.77 6389.34,-62.44 6685.5,-30 6688.38,-29.68 6691.31,-29.31 6694.27,-28.88"/>
<polygon fill="#63b8ff" stroke="#63b8ff" points="3808.69,-70.79 3798.71,-74.33 3808.72,-77.79 3808.69,-70.79"/>
</a>
</g>
</g>
<!-- Node47 -->
<g id="Node000047" class="node">
<title>Node47</title>
<g id="a_Node000047"><a xlink:href="node__loader_8c.html" target="_top" xlink:title=" ">
<polygon fill="white" stroke="#666666" points="6944,-24.5 6831,-24.5 6831,-5.5 6944,-5.5 6944,-24.5"/>
<text text-anchor="middle" x="6887.5" y="-12.5" font-family="Helvetica,sans-Serif" font-size="10.00">src/io/node_loader.c</text>
</a>
</g>
</g>
<!-- Node3&#45;&gt;Node47 -->
<g id="edge46_Node000003_Node000047" class="edge">
<title>Node3&#45;&gt;Node47</title>
<g id="a_edge46_Node000003_Node000047"><a xlink:title=" ">
<path fill="none" stroke="#63b8ff" d="M3809,-74.35C4192.05,-73.2 6511.04,-64.84 6821.5,-30 6831.98,-28.82 6843.24,-26.74 6853.45,-24.54"/>
<polygon fill="#63b8ff" stroke="#63b8ff" points="3808.75,-70.85 3798.76,-74.38 3808.77,-77.85 3808.75,-70.85"/>
</a>
</g>
</g>
<!-- Node48 -->
<g id="Node000048" class="node">
<title>Node48</title>
<g id="a_Node000048"><a xlink:href="scene__loader_8c.html" target="_top" xlink:title=" ">
<polygon fill="white" stroke="#666666" points="7080.5,-24.5 6962.5,-24.5 6962.5,-5.5 7080.5,-5.5 7080.5,-24.5"/>
<text text-anchor="middle" x="7021.5" y="-12.5" font-family="Helvetica,sans-Serif" font-size="10.00">src/io/scene_loader.c</text>
</a>
</g>
</g>
<!-- Node3&#45;&gt;Node48 -->
<g id="edge47_Node000003_Node000048" class="edge">
<title>Node3&#45;&gt;Node48</title>
<g id="a_edge47_Node000003_Node000048"><a xlink:title=" ">
<path fill="none" stroke="#63b8ff" d="M3808.82,-74.37C4200.69,-73.31 6628.88,-65.35 6953.5,-30 6964.28,-28.83 6975.89,-26.75 6986.41,-24.54"/>
<polygon fill="#63b8ff" stroke="#63b8ff" points="3808.61,-70.87 3798.62,-74.39 3808.63,-77.87 3808.61,-70.87"/>
</a>
</g>
</g>
<!-- Node49 -->
<g id="Node000049" class="node">
<title>Node49</title>
<g id="a_Node000049"><a xlink:href="shader_8c.html" target="_top" xlink:title=" ">
<polygon fill="white" stroke="#666666" points="7184.5,-24.5 7098.5,-24.5 7098.5,-5.5 7184.5,-5.5 7184.5,-24.5"/>
<text text-anchor="middle" x="7141.5" y="-12.5" font-family="Helvetica,sans-Serif" font-size="10.00">src/io/shader.c</text>
</a>
</g>
</g>
<!-- Node3&#45;&gt;Node49 -->
<g id="edge48_Node000003_Node000049" class="edge">
<title>Node3&#45;&gt;Node49</title>
<g id="a_edge48_Node000003_Node000049"><a xlink:title=" ">
<path fill="none" stroke="#63b8ff" d="M3808.9,-74.59C4210.56,-75.17 6751.71,-76.97 7089.5,-30 7097.83,-28.84 7106.74,-26.77 7114.77,-24.56"/>
<polygon fill="#63b8ff" stroke="#63b8ff" points="3808.73,-71.09 3798.72,-74.58 3808.71,-78.09 3808.73,-71.09"/>
</a>
</g>
</g>
<!-- Node50 -->
<g id="Node000050" class="node">
<title>Node50</title>
<g id="a_Node000050"><a xlink:href="main_8c.html" target="_top" xlink:title=" ">
<polygon fill="white" stroke="#666666" points="7270,-24.5 7203,-24.5 7203,-5.5 7270,-5.5 7270,-24.5"/>
<text text-anchor="middle" x="7236.5" y="-12.5" font-family="Helvetica,sans-Serif" font-size="10.00">src/main.c</text>
</a>
</g>
</g>
<!-- Node3&#45;&gt;Node50 -->
<g id="edge49_Node000003_Node000050" class="edge">
<title>Node3&#45;&gt;Node50</title>
<g id="a_edge49_Node000003_Node000050"><a xlink:title=" ">
<path fill="none" stroke="#63b8ff" d="M3808.83,-74.27C4230.85,-72.37 7019.34,-58.79 7193.5,-30 7200.47,-28.85 7207.86,-26.77 7214.5,-24.57"/>
<polygon fill="#63b8ff" stroke="#63b8ff" points="3808.72,-70.77 3798.74,-74.31 3808.75,-77.77 3808.72,-70.77"/>
</a>
</g>
</g>
</g>
</svg>
