<?xml version="1.0" encoding="UTF-8" standalone="no"?>
<!DOCTYPE svg PUBLIC "-//W3C//DTD SVG 1.1//EN"
 "http://www.w3.org/Graphics/SVG/1.1/DTD/svg11.dtd">
<!-- Generated by graphviz version 2.43.0 (0)
 -->
<!-- Title: src/io/node_loader.c Pages: 1 -->
<svg width="2103pt" height="423pt"
 viewBox="0.00 0.00 2102.50 423.00" xmlns="http://www.w3.org/2000/svg" xmlns:xlink="http://www.w3.org/1999/xlink">
<g id="graph0" class="graph" transform="scale(1 1) rotate(0) translate(4 419)">
<title>src/io/node_loader.c</title>
<!-- Node1 -->
<g id="Node000001" class="node">
<title>Node1</title>
<g id="a_Node000001"><a xlink:title=" ">
<polygon fill="#999999" stroke="#666666" points="784.5,-415 671.5,-415 671.5,-396 784.5,-396 784.5,-415"/>
<text text-anchor="middle" x="728" y="-403" font-family="Helvetica,sans-Serif" font-size="10.00">src/io/node_loader.c</text>
</a>
</g>
</g>
<!-- Node2 -->
<g id="Node000002" class="node">
<title>Node2</title>
<g id="a_Node000002"><a xlink:href="raptiquax_8h.html" target="_top" xlink:title="This file contains type definitions for fixed&#45;width integer types and floating&#45;point types.">
<polygon fill="white" stroke="#666666" points="1411.5,-250 1330.5,-250 1330.5,-231 1411.5,-231 1411.5,-250"/>
<text text-anchor="middle" x="1371" y="-238" font-family="Helvetica,sans-Serif" font-size="10.00">../raptiquax.h</text>
</a>
</g>
</g>
<!-- Node1&#45;&gt;Node2 -->
<g id="edge1_Node000001_Node000002" class="edge">
<title>Node1&#45;&gt;Node2</title>
<g id="a_edge1_Node000001_Node000002"><a xlink:title=" ">
<path fill="none" stroke="#63b8ff" d="M784.77,-401.68C848.01,-397.32 952.7,-386.48 1039,-360 1057.43,-354.34 1060.17,-348.34 1078,-341 1167.28,-304.26 1275.6,-270.07 1332.23,-252.96"/>
<polygon fill="#63b8ff" stroke="#63b8ff" points="1333.29,-256.29 1341.86,-250.06 1331.27,-249.59 1333.29,-256.29"/>
</a>
</g>
</g>
<!-- Node24 -->
<g id="Node000024" class="node">
<title>Node24</title>
<g id="a_Node000024"><a xlink:href="math__util_8h.html" target="_top" xlink:title=" ">
<polygon fill="white" stroke="#666666" points="709,-250 599,-250 599,-231 709,-231 709,-250"/>
<text text-anchor="middle" x="654" y="-238" font-family="Helvetica,sans-Serif" font-size="10.00">../math/math_util.h</text>
</a>
</g>
</g>
<!-- Node1&#45;&gt;Node24 -->
<g id="edge23_Node000001_Node000024" class="edge">
<title>Node1&#45;&gt;Node24</title>
<g id="a_edge23_Node000001_Node000024"><a xlink:title=" ">
<path fill="none" stroke="#63b8ff" d="M713.31,-395.83C689.8,-380.88 645.03,-347.7 632,-305 627.17,-289.17 634.45,-271.39 641.9,-258.68"/>
<polygon fill="#63b8ff" stroke="#63b8ff" points="644.97,-260.37 647.43,-250.06 639.08,-256.58 644.97,-260.37"/>
</a>
</g>
</g>
<!-- Node25 -->
<g id="Node000025" class="node">
<title>Node25</title>
<g id="a_Node000025"><a xlink:href="model_8h.html" target="_top" xlink:title="Defines structures and functions for handling 3D models and their properties.">
<polygon fill="white" stroke="#666666" points="161,-250 105,-250 105,-231 161,-231 161,-250"/>
<text text-anchor="middle" x="133" y="-238" font-family="Helvetica,sans-Serif" font-size="10.00">model.h</text>
</a>
</g>
</g>
<!-- Node1&#45;&gt;Node25 -->
<g id="edge24_Node000001_Node000025" class="edge">
<title>Node1&#45;&gt;Node25</title>
<g id="a_edge24_Node000001_Node000025"><a xlink:title=" ">
<path fill="none" stroke="#63b8ff" d="M671.33,-405.02C518.23,-405.83 105.06,-403.91 64,-360 33.96,-327.87 83.22,-280.4 112.96,-256.46"/>
<polygon fill="#63b8ff" stroke="#63b8ff" points="115.38,-259.01 121.11,-250.1 111.07,-253.5 115.38,-259.01"/>
</a>
</g>
</g>
<!-- Node26 -->
<g id="Node000026" class="node">
<title>Node26</title>
<g id="a_Node000026"><a xlink:href="shader_8h.html" target="_top" xlink:title=" ">
<polygon fill="white" stroke="#666666" points="600,-189.5 542,-189.5 542,-170.5 600,-170.5 600,-189.5"/>
<text text-anchor="middle" x="571" y="-177.5" font-family="Helvetica,sans-Serif" font-size="10.00">shader.h</text>
</a>
</g>
</g>
<!-- Node1&#45;&gt;Node26 -->
<g id="edge50_Node000001_Node000026" class="edge">
<title>Node1&#45;&gt;Node26</title>
<g id="a_edge50_Node000001_Node000026"><a xlink:title=" ">
<path fill="none" stroke="#63b8ff" d="M721.3,-395.95C712.36,-383.44 698.7,-359.61 708,-341 719.93,-317.15 744.07,-328.85 756,-305 767.81,-281.37 740.6,-236.13 735,-231 692.08,-191.64 664.36,-213.08 609,-195 607.1,-194.38 605.14,-193.72 603.18,-193.04"/>
<polygon fill="#63b8ff" stroke="#63b8ff" points="604,-189.62 593.41,-189.57 601.66,-196.22 604,-189.62"/>
</a>
</g>
</g>
<!-- Node31 -->
<g id="Node000031" class="node">
<title>Node31</title>
<g id="a_Node000031"><a xlink:href="framebuffer_8h.html" target="_top" xlink:title=" ">
<polygon fill="white" stroke="#666666" points="301,-305 175,-305 175,-286 301,-286 301,-305"/>
<text text-anchor="middle" x="238" y="-293" font-family="Helvetica,sans-Serif" font-size="10.00">../render/framebuffer.h</text>
</a>
</g>
</g>
<!-- Node1&#45;&gt;Node31 -->
<g id="edge30_Node000001_Node000031" class="edge">
<title>Node1&#45;&gt;Node31</title>
<g id="a_edge30_Node000001_Node000031"><a xlink:title=" ">
<path fill="none" stroke="#63b8ff" d="M671.26,-397.13C616.36,-389.53 530.99,-376.49 458,-360 392.13,-345.12 316.8,-322.03 273.58,-308.17"/>
<polygon fill="#63b8ff" stroke="#63b8ff" points="274.41,-304.76 263.82,-305.03 272.26,-311.43 274.41,-304.76"/>
</a>
</g>
</g>
<!-- Node32 -->
<g id="Node000032" class="node">
<title>Node32</title>
<g id="a_Node000032"><a xlink:href="input_8h.html" target="_top" xlink:title=" ">
<polygon fill="white" stroke="#666666" points="273.5,-250 202.5,-250 202.5,-231 273.5,-231 273.5,-250"/>
<text text-anchor="middle" x="238" y="-238" font-family="Helvetica,sans-Serif" font-size="10.00">../io/input.h</text>
</a>
</g>
</g>
<!-- Node1&#45;&gt;Node32 -->
<g id="edge48_Node000001_Node000032" class="edge">
<title>Node1&#45;&gt;Node32</title>
<g id="a_edge48_Node000001_Node000032"><a xlink:title=" ">
<path fill="none" stroke="#63b8ff" d="M671.24,-403.63C541.03,-400.26 227.3,-383.95 166,-305 150.25,-284.72 179.54,-265.85 205.36,-254.04"/>
<polygon fill="#63b8ff" stroke="#63b8ff" points="206.85,-257.21 214.63,-250.01 204.06,-250.79 206.85,-257.21"/>
</a>
</g>
</g>
<!-- Node33 -->
<g id="Node000033" class="node">
<title>Node33</title>
<g id="a_Node000033"><a xlink:href="node_8h.html" target="_top" xlink:title=" ">
<polygon fill="white" stroke="#666666" points="565,-360 467,-360 467,-341 565,-341 565,-360"/>
<text text-anchor="middle" x="516" y="-348" font-family="Helvetica,sans-Serif" font-size="10.00">../storage/node.h</text>
</a>
</g>
</g>
<!-- Node1&#45;&gt;Node33 -->
<g id="edge32_Node000001_Node000033" class="edge">
<title>Node1&#45;&gt;Node33</title>
<g id="a_edge32_Node000001_Node000033"><a xlink:title=" ">
<path fill="none" stroke="#63b8ff" d="M693.94,-395.98C657.58,-386.89 599.83,-372.46 560.03,-362.51"/>
<polygon fill="#63b8ff" stroke="#63b8ff" points="560.88,-359.11 550.33,-360.08 559.18,-365.9 560.88,-359.11"/>
</a>
</g>
</g>
<!-- Node34 -->
<g id="Node000034" class="node">
<title>Node34</title>
<g id="a_Node000034"><a xlink:href="camera_8h.html" target="_top" xlink:title=" ">
<polygon fill="white" stroke="#666666" points="747,-305 641,-305 641,-286 747,-286 747,-305"/>
<text text-anchor="middle" x="694" y="-293" font-family="Helvetica,sans-Serif" font-size="10.00">../render/camera.h</text>
</a>
</g>
</g>
<!-- Node1&#45;&gt;Node34 -->
<g id="edge49_Node000001_Node000034" class="edge">
<title>Node1&#45;&gt;Node34</title>
<g id="a_edge49_Node000001_Node000034"><a xlink:title=" ">
<path fill="none" stroke="#63b8ff" d="M711.42,-395.87C698.83,-388.3 682.46,-376.01 675,-360 668.03,-345.04 674.83,-326.91 682.17,-313.86"/>
<polygon fill="#63b8ff" stroke="#63b8ff" points="685.36,-315.35 687.66,-305 679.41,-311.66 685.36,-315.35"/>
</a>
</g>
</g>
<!-- Node38 -->
<g id="Node000038" class="node">
<title>Node38</title>
<g id="a_Node000038"><a xlink:href="render_8h.html" target="_top" xlink:title=" ">
<polygon fill="white" stroke="#666666" points="817,-360 717,-360 717,-341 817,-341 817,-360"/>
<text text-anchor="middle" x="767" y="-348" font-family="Helvetica,sans-Serif" font-size="10.00">../render/render.h</text>
</a>
</g>
</g>
<!-- Node1&#45;&gt;Node38 -->
<g id="edge45_Node000001_Node000038" class="edge">
<title>Node1&#45;&gt;Node38</title>
<g id="a_edge45_Node000001_Node000038"><a xlink:title=" ">
<path fill="none" stroke="#63b8ff" d="M734.44,-395.75C739.89,-388.34 747.86,-377.5 754.56,-368.41"/>
<polygon fill="#63b8ff" stroke="#63b8ff" points="757.57,-370.22 760.68,-360.09 751.93,-366.07 757.57,-370.22"/>
</a>
</g>
</g>
<!-- Node39 -->
<g id="Node000039" class="node">
<title>Node39</title>
<g id="a_Node000039"><a xlink:href="lighting_8h.html" target="_top" xlink:title=" ">
<polygon fill="white" stroke="#666666" points="941,-360 835,-360 835,-341 941,-341 941,-360"/>
<text text-anchor="middle" x="888" y="-348" font-family="Helvetica,sans-Serif" font-size="10.00">../render/lighting.h</text>
</a>
</g>
</g>
<!-- Node1&#45;&gt;Node39 -->
<g id="edge46_Node000001_Node000039" class="edge">
<title>Node1&#45;&gt;Node39</title>
<g id="a_edge46_Node000001_Node000039"><a xlink:title=" ">
<path fill="none" stroke="#63b8ff" d="M753.71,-395.98C780.45,-387.13 822.53,-373.19 852.45,-363.28"/>
<polygon fill="#63b8ff" stroke="#63b8ff" points="853.7,-366.55 862.09,-360.08 851.5,-359.9 853.7,-366.55"/>
</a>
</g>
</g>
<!-- Node40 -->
<g id="Node000040" class="node">
<title>Node40</title>
<g id="a_Node000040"><a xlink:href="window_8h.html" target="_top" xlink:title=" ">
<polygon fill="white" stroke="#666666" points="1030.5,-360 959.5,-360 959.5,-341 1030.5,-341 1030.5,-360"/>
<text text-anchor="middle" x="995" y="-348" font-family="Helvetica,sans-Serif" font-size="10.00">../window.h</text>
</a>
</g>
</g>
<!-- Node1&#45;&gt;Node40 -->
<g id="edge47_Node000001_Node000040" class="edge">
<title>Node1&#45;&gt;Node40</title>
<g id="a_edge47_Node000001_Node000040"><a xlink:title=" ">
<path fill="none" stroke="#63b8ff" d="M770.9,-395.98C819.86,-386.27 899.6,-370.44 949.58,-360.52"/>
<polygon fill="#63b8ff" stroke="#63b8ff" points="950.34,-363.93 959.47,-358.55 948.98,-357.07 950.34,-363.93"/>
</a>
</g>
</g>
<!-- Node41 -->
<g id="Node000041" class="node">
<title>Node41</title>
<g id="a_Node000041"><a xlink:href="depth__map_8h.html" target="_top" xlink:title=" ">
<polygon fill="white" stroke="#666666" points="197,-360 73,-360 73,-341 197,-341 197,-360"/>
<text text-anchor="middle" x="135" y="-348" font-family="Helvetica,sans-Serif" font-size="10.00">../render/depth_map.h</text>
</a>
</g>
</g>
<!-- Node1&#45;&gt;Node41 -->
<g id="edge51_Node000001_Node000041" class="edge">
<title>Node1&#45;&gt;Node41</title>
<g id="a_edge51_Node000001_Node000041"><a xlink:title=" ">
<path fill="none" stroke="#63b8ff" d="M671.34,-400.1C576.17,-392.6 378.2,-376.54 211,-360 209.74,-359.87 208.46,-359.75 207.18,-359.62"/>
<polygon fill="#63b8ff" stroke="#63b8ff" points="207.51,-356.13 197.2,-358.59 206.79,-363.1 207.51,-356.13"/>
</a>
</g>
</g>
<!-- Node42 -->
<g id="Node000042" class="node">
<title>Node42</title>
<g id="a_Node000042"><a xlink:href="scene__loader_8h.html" target="_top" xlink:title=" ">
<polygon fill="white" stroke="#666666" points="1176.5,-360 1087.5,-360 1087.5,-341 1176.5,-341 1176.5,-360"/>
<text text-anchor="middle" x="1132" y="-348" font-family="Helvetica,sans-Serif" font-size="10.00">scene_loader.h</text>
</a>
</g>
</g>
<!-- Node1&#45;&gt;Node42 -->
<g id="edge54_Node000001_Node000042" class="edge">
<title>Node1&#45;&gt;Node42</title>
<g id="a_edge54_Node000001_Node000042"><a xlink:title=" ">
<path fill="none" stroke="#63b8ff" d="M784.51,-397.47C852.87,-388.91 971.43,-373.87 1073,-360 1074.3,-359.82 1075.61,-359.64 1076.94,-359.46"/>
<polygon fill="#63b8ff" stroke="#63b8ff" points="1077.81,-362.87 1087.23,-358.02 1076.84,-355.94 1077.81,-362.87"/>
</a>
</g>
</g>
<!-- Node43 -->
<g id="Node000043" class="node">
<title>Node43</title>
<g id="a_Node000043"><a xlink:href="memory_8h.html" target="_top" xlink:title="Header file for memory management functions and structures.">
<polygon fill="white" stroke="#666666" points="1269,-360 1195,-360 1195,-341 1269,-341 1269,-360"/>
<text text-anchor="middle" x="1232" y="-348" font-family="Helvetica,sans-Serif" font-size="10.00">../memory.h</text>
</a>
</g>
</g>
<!-- Node1&#45;&gt;Node43 -->
<g id="edge55_Node000001_Node000043" class="edge">
<title>Node1&#45;&gt;Node43</title>
<g id="a_edge55_Node000001_Node000043"><a xlink:title=" ">
<path fill="none" stroke="#63b8ff" d="M784.82,-400.47C869.55,-394.13 1034.22,-380.53 1184.94,-359.88"/>
<polygon fill="#63b8ff" stroke="#63b8ff" points="1185.42,-363.35 1194.84,-358.51 1184.46,-356.41 1185.42,-363.35"/>
</a>
</g>
</g>
<!-- Node44 -->
<g id="Node000044" class="node">
<title>Node44</title>
<g id="a_Node000044"><a xlink:href="buffer_8h.html" target="_top" xlink:title="Functions for initializing and freeing Game.buffers&#45;&gt;">
<polygon fill="white" stroke="#666666" points="1349,-360 1287,-360 1287,-341 1349,-341 1349,-360"/>
<text text-anchor="middle" x="1318" y="-348" font-family="Helvetica,sans-Serif" font-size="10.00">../buffer.h</text>
</a>
</g>
</g>
<!-- Node1&#45;&gt;Node44 -->
<g id="edge56_Node000001_Node000044" class="edge">
<title>Node1&#45;&gt;Node44</title>
<g id="a_edge56_Node000001_Node000044"><a xlink:title=" ">
<path fill="none" stroke="#63b8ff" d="M784.88,-402.31C883.25,-398 1091.59,-386.55 1276.71,-360"/>
<polygon fill="#63b8ff" stroke="#63b8ff" points="1277.23,-363.47 1286.63,-358.57 1276.23,-356.54 1277.23,-363.47"/>
</a>
</g>
</g>
<!-- Node45 -->
<g id="Node000045" class="node">
<title>Node45</title>
<g id="a_Node000045"><a xlink:href="classes_8h.html" target="_top" xlink:title=" ">
<polygon fill="white" stroke="#666666" points="1477,-360 1367,-360 1367,-341 1477,-341 1477,-360"/>
<text text-anchor="middle" x="1422" y="-348" font-family="Helvetica,sans-Serif" font-size="10.00">../classes/classes.h</text>
</a>
</g>
</g>
<!-- Node1&#45;&gt;Node45 -->
<g id="edge57_Node000001_Node000045" class="edge">
<title>Node1&#45;&gt;Node45</title>
<g id="a_edge57_Node000001_Node000045"><a xlink:title=" ">
<path fill="none" stroke="#63b8ff" d="M784.57,-401.67C893.33,-395.99 1139.33,-381.89 1356.86,-360.05"/>
<polygon fill="#63b8ff" stroke="#63b8ff" points="1357.27,-363.53 1366.87,-359.04 1356.57,-356.57 1357.27,-363.53"/>
</a>
</g>
</g>
<!-- Node3 -->
<g id="Node000003" class="node">
<title>Node3</title>
<g id="a_Node000003"><a xlink:title=" ">
<polygon fill="#e0e0e0" stroke="#999999" points="2023,-189.5 1973,-189.5 1973,-170.5 2023,-170.5 2023,-189.5"/>
<text text-anchor="middle" x="1998" y="-177.5" font-family="Helvetica,sans-Serif" font-size="10.00">stdio.h</text>
</a>
</g>
</g>
<!-- Node2&#45;&gt;Node3 -->
<g id="edge2_Node000002_Node000003" class="edge">
<title>Node2&#45;&gt;Node3</title>
<g id="a_edge2_Node000002_Node000003"><a xlink:title=" ">
<path fill="none" stroke="#63b8ff" d="M1411.76,-238.11C1527.84,-233.9 1858.65,-219.97 1964,-195 1966.22,-194.47 1968.48,-193.82 1970.74,-193.09"/>
<polygon fill="#63b8ff" stroke="#63b8ff" points="1972.21,-196.27 1980.35,-189.5 1969.76,-189.72 1972.21,-196.27"/>
</a>
</g>
</g>
<!-- Node4 -->
<g id="Node000004" class="node">
<title>Node4</title>
<g id="a_Node000004"><a xlink:title=" ">
<polygon fill="#e0e0e0" stroke="#999999" points="2094.5,-189.5 2041.5,-189.5 2041.5,-170.5 2094.5,-170.5 2094.5,-189.5"/>
<text text-anchor="middle" x="2068" y="-177.5" font-family="Helvetica,sans-Serif" font-size="10.00">stdint.h</text>
</a>
</g>
</g>
<!-- Node2&#45;&gt;Node4 -->
<g id="edge3_Node000002_Node000004" class="edge">
<title>Node2&#45;&gt;Node4</title>
<g id="a_edge3_Node000002_Node000004"><a xlink:title=" ">
<path fill="none" stroke="#63b8ff" d="M1411.88,-238.37C1536.9,-234.66 1912.86,-221.52 2032,-195 2034.52,-194.44 2037.1,-193.73 2039.66,-192.93"/>
<polygon fill="#63b8ff" stroke="#63b8ff" points="2041.02,-196.16 2049.28,-189.52 2038.68,-189.56 2041.02,-196.16"/>
</a>
</g>
</g>
<!-- Node5 -->
<g id="Node000005" class="node">
<title>Node5</title>
<g id="a_Node000005"><a xlink:title=" ">
<polygon fill="#e0e0e0" stroke="#999999" points="680,-189.5 618,-189.5 618,-170.5 680,-170.5 680,-189.5"/>
<text text-anchor="middle" x="649" y="-177.5" font-family="Helvetica,sans-Serif" font-size="10.00">stdbool.h</text>
</a>
</g>
</g>
<!-- Node2&#45;&gt;Node5 -->
<g id="edge4_Node000002_Node000005" class="edge">
<title>Node2&#45;&gt;Node5</title>
<g id="a_edge4_Node000002_Node000005"><a xlink:title=" ">
<path fill="none" stroke="#63b8ff" d="M1330.22,-238.29C1202.73,-234.28 812.83,-220.22 689,-195 685.93,-194.37 682.77,-193.57 679.64,-192.66"/>
<polygon fill="#63b8ff" stroke="#63b8ff" points="680.46,-189.25 669.87,-189.51 678.31,-195.91 680.46,-189.25"/>
</a>
</g>
</g>
<!-- Node6 -->
<g id="Node000006" class="node">
<title>Node6</title>
<g id="a_Node000006"><a xlink:title=" ">
<polygon fill="#e0e0e0" stroke="#999999" points="754,-189.5 698,-189.5 698,-170.5 754,-170.5 754,-189.5"/>
<text text-anchor="middle" x="726" y="-177.5" font-family="Helvetica,sans-Serif" font-size="10.00">stdarg.h</text>
</a>
</g>
</g>
<!-- Node2&#45;&gt;Node6 -->
<g id="edge5_Node000002_Node000006" class="edge">
<title>Node2&#45;&gt;Node6</title>
<g id="a_edge5_Node000002_Node000006"><a xlink:title=" ">
<path fill="none" stroke="#63b8ff" d="M1330.1,-238.04C1211.94,-233.59 871.64,-219 763,-195 760.48,-194.44 757.9,-193.75 755.33,-192.96"/>
<polygon fill="#63b8ff" stroke="#63b8ff" points="756.24,-189.58 745.65,-189.64 753.97,-196.2 756.24,-189.58"/>
</a>
</g>
</g>
<!-- Node7 -->
<g id="Node000007" class="node">
<title>Node7</title>
<g id="a_Node000007"><a xlink:title=" ">
<polygon fill="#e0e0e0" stroke="#999999" points="825.5,-189.5 772.5,-189.5 772.5,-170.5 825.5,-170.5 825.5,-189.5"/>
<text text-anchor="middle" x="799" y="-177.5" font-family="Helvetica,sans-Serif" font-size="10.00">limits.h</text>
</a>
</g>
</g>
<!-- Node2&#45;&gt;Node7 -->
<g id="edge6_Node000002_Node000007" class="edge">
<title>Node2&#45;&gt;Node7</title>
<g id="a_edge6_Node000002_Node000007"><a xlink:title=" ">
<path fill="none" stroke="#63b8ff" d="M1330.38,-240.08C1240.07,-240.51 1016.28,-236.85 835,-195 832.63,-194.45 830.21,-193.78 827.8,-193.03"/>
<polygon fill="#63b8ff" stroke="#63b8ff" points="828.7,-189.63 818.11,-189.61 826.37,-196.24 828.7,-189.63"/>
</a>
</g>
</g>
<!-- Node8 -->
<g id="Node000008" class="node">
<title>Node8</title>
<g id="a_Node000008"><a xlink:title=" ">
<polygon fill="#e0e0e0" stroke="#999999" points="916,-189.5 844,-189.5 844,-170.5 916,-170.5 916,-189.5"/>
<text text-anchor="middle" x="880" y="-177.5" font-family="Helvetica,sans-Serif" font-size="10.00">SDL2/SDL.h</text>
</a>
</g>
</g>
<!-- Node2&#45;&gt;Node8 -->
<g id="edge7_Node000002_Node000008" class="edge">
<title>Node2&#45;&gt;Node8</title>
<g id="a_edge7_Node000002_Node000008"><a xlink:title=" ">
<path fill="none" stroke="#63b8ff" d="M1330.31,-238.19C1251.4,-235.04 1072.36,-224.95 925,-195 921.53,-194.29 917.94,-193.43 914.38,-192.47"/>
<polygon fill="#63b8ff" stroke="#63b8ff" points="915.1,-189.04 904.52,-189.61 913.15,-195.76 915.1,-189.04"/>
</a>
</g>
</g>
<!-- Node9 -->
<g id="Node000009" class="node">
<title>Node9</title>
<g id="a_Node000009"><a xlink:title=" ">
<polygon fill="#e0e0e0" stroke="#999999" points="1042,-189.5 934,-189.5 934,-170.5 1042,-170.5 1042,-189.5"/>
<text text-anchor="middle" x="988" y="-177.5" font-family="Helvetica,sans-Serif" font-size="10.00">SDL2/SDL_image.h</text>
</a>
</g>
</g>
<!-- Node2&#45;&gt;Node9 -->
<g id="edge8_Node000002_Node000009" class="edge">
<title>Node2&#45;&gt;Node9</title>
<g id="a_edge8_Node000002_Node000009"><a xlink:title=" ">
<path fill="none" stroke="#63b8ff" d="M1330.42,-234.92C1269.51,-227.8 1150.91,-213.02 1051,-195 1045.56,-194.02 1039.87,-192.89 1034.23,-191.72"/>
<polygon fill="#63b8ff" stroke="#63b8ff" points="1034.72,-188.25 1024.21,-189.57 1033.26,-195.09 1034.72,-188.25"/>
</a>
</g>
</g>
<!-- Node10 -->
<g id="Node000010" class="node">
<title>Node10</title>
<g id="a_Node000010"><a xlink:title=" ">
<polygon fill="#e0e0e0" stroke="#999999" points="1170,-189.5 1060,-189.5 1060,-170.5 1170,-170.5 1170,-189.5"/>
<text text-anchor="middle" x="1115" y="-177.5" font-family="Helvetica,sans-Serif" font-size="10.00">SDL2/SDL_opengl.h</text>
</a>
</g>
</g>
<!-- Node2&#45;&gt;Node10 -->
<g id="edge9_Node000002_Node000010" class="edge">
<title>Node2&#45;&gt;Node10</title>
<g id="a_edge9_Node000002_Node000010"><a xlink:title=" ">
<path fill="none" stroke="#63b8ff" d="M1333.78,-230.99C1288.37,-220.62 1211.56,-203.07 1162.09,-191.76"/>
<polygon fill="#63b8ff" stroke="#63b8ff" points="1162.8,-188.33 1152.27,-189.52 1161.24,-195.16 1162.8,-188.33"/>
</a>
</g>
</g>
<!-- Node11 -->
<g id="Node000011" class="node">
<title>Node11</title>
<g id="a_Node000011"><a xlink:title=" ">
<polygon fill="#e0e0e0" stroke="#999999" points="1292,-189.5 1188,-189.5 1188,-170.5 1292,-170.5 1292,-189.5"/>
<text text-anchor="middle" x="1240" y="-177.5" font-family="Helvetica,sans-Serif" font-size="10.00">SDL2/SDL_mixer.h</text>
</a>
</g>
</g>
<!-- Node2&#45;&gt;Node11 -->
<g id="edge10_Node000002_Node000011" class="edge">
<title>Node2&#45;&gt;Node11</title>
<g id="a_edge10_Node000002_Node000011"><a xlink:title=" ">
<path fill="none" stroke="#63b8ff" d="M1351.95,-230.99C1330.03,-221.2 1293.79,-205.02 1268.5,-193.73"/>
<polygon fill="#63b8ff" stroke="#63b8ff" points="1269.63,-190.4 1259.07,-189.52 1266.78,-196.79 1269.63,-190.4"/>
</a>
</g>
</g>
<!-- Node12 -->
<g id="Node000012" class="node">
<title>Node12</title>
<g id="a_Node000012"><a xlink:title=" ">
<polygon fill="#e0e0e0" stroke="#999999" points="1398,-189.5 1310,-189.5 1310,-170.5 1398,-170.5 1398,-189.5"/>
<text text-anchor="middle" x="1354" y="-177.5" font-family="Helvetica,sans-Serif" font-size="10.00">SDL2/SDL_ttf.h</text>
</a>
</g>
</g>
<!-- Node2&#45;&gt;Node12 -->
<g id="edge11_Node000002_Node000012" class="edge">
<title>Node2&#45;&gt;Node12</title>
<g id="a_edge11_Node000002_Node000012"><a xlink:title=" ">
<path fill="none" stroke="#63b8ff" d="M1368.49,-230.87C1366.11,-222.66 1362.44,-210.04 1359.39,-199.55"/>
<polygon fill="#63b8ff" stroke="#63b8ff" points="1362.67,-198.29 1356.52,-189.67 1355.95,-200.25 1362.67,-198.29"/>
</a>
</g>
</g>
<!-- Node13 -->
<g id="Node000013" class="node">
<title>Node13</title>
<g id="a_Node000013"><a xlink:title=" ">
<polygon fill="#e0e0e0" stroke="#999999" points="1466,-189.5 1416,-189.5 1416,-170.5 1466,-170.5 1466,-189.5"/>
<text text-anchor="middle" x="1441" y="-177.5" font-family="Helvetica,sans-Serif" font-size="10.00">GL/gl.h</text>
</a>
</g>
</g>
<!-- Node2&#45;&gt;Node13 -->
<g id="edge12_Node000002_Node000013" class="edge">
<title>Node2&#45;&gt;Node13</title>
<g id="a_edge12_Node000002_Node000013"><a xlink:title=" ">
<path fill="none" stroke="#63b8ff" d="M1381.33,-230.87C1392.19,-221.8 1409.49,-207.34 1422.67,-196.32"/>
<polygon fill="#63b8ff" stroke="#63b8ff" points="1425.2,-198.77 1430.63,-189.67 1420.71,-193.39 1425.2,-198.77"/>
</a>
</g>
</g>
<!-- Node14 -->
<g id="Node000014" class="node">
<title>Node14</title>
<g id="a_Node000014"><a xlink:title=" ">
<polygon fill="#e0e0e0" stroke="#999999" points="1540,-189.5 1484,-189.5 1484,-170.5 1540,-170.5 1540,-189.5"/>
<text text-anchor="middle" x="1512" y="-177.5" font-family="Helvetica,sans-Serif" font-size="10.00">GL/glu.h</text>
</a>
</g>
</g>
<!-- Node2&#45;&gt;Node14 -->
<g id="edge13_Node000002_Node000014" class="edge">
<title>Node2&#45;&gt;Node14</title>
<g id="a_edge13_Node000002_Node000014"><a xlink:title=" ">
<path fill="none" stroke="#63b8ff" d="M1391.5,-230.99C1415.31,-221.12 1454.79,-204.73 1482.04,-193.43"/>
<polygon fill="#63b8ff" stroke="#63b8ff" points="1483.58,-196.58 1491.47,-189.52 1480.89,-190.12 1483.58,-196.58"/>
</a>
</g>
</g>
<!-- Node15 -->
<g id="Node000015" class="node">
<title>Node15</title>
<g id="a_Node000015"><a xlink:title=" ">
<polygon fill="#e0e0e0" stroke="#999999" points="1624,-189.5 1558,-189.5 1558,-170.5 1624,-170.5 1624,-189.5"/>
<text text-anchor="middle" x="1591" y="-177.5" font-family="Helvetica,sans-Serif" font-size="10.00">GL/glext.h</text>
</a>
</g>
</g>
<!-- Node2&#45;&gt;Node15 -->
<g id="edge14_Node000002_Node000015" class="edge">
<title>Node2&#45;&gt;Node15</title>
<g id="a_edge14_Node000002_Node000015"><a xlink:title=" ">
<path fill="none" stroke="#63b8ff" d="M1408.73,-230.96C1444.91,-222.55 1500.98,-208.98 1549,-195 1551.45,-194.29 1553.98,-193.52 1556.51,-192.73"/>
<polygon fill="#63b8ff" stroke="#63b8ff" points="1557.78,-196 1566.23,-189.61 1555.63,-189.34 1557.78,-196"/>
</a>
</g>
</g>
<!-- Node16 -->
<g id="Node000016" class="node">
<title>Node16</title>
<g id="a_Node000016"><a xlink:title=" ">
<polygon fill="#e0e0e0" stroke="#999999" points="1719.5,-189.5 1642.5,-189.5 1642.5,-170.5 1719.5,-170.5 1719.5,-189.5"/>
<text text-anchor="middle" x="1681" y="-177.5" font-family="Helvetica,sans-Serif" font-size="10.00">cglm/cglm.h</text>
</a>
</g>
</g>
<!-- Node2&#45;&gt;Node16 -->
<g id="edge15_Node000002_Node000016" class="edge">
<title>Node2&#45;&gt;Node16</title>
<g id="a_edge15_Node000002_Node000016"><a xlink:title=" ">
<path fill="none" stroke="#63b8ff" d="M1411.68,-234.08C1463.44,-226.84 1555.44,-212.84 1633,-195 1636.6,-194.17 1640.32,-193.24 1644.03,-192.25"/>
<polygon fill="#63b8ff" stroke="#63b8ff" points="1645.03,-195.6 1653.73,-189.55 1643.16,-188.86 1645.03,-195.6"/>
</a>
</g>
</g>
<!-- Node17 -->
<g id="Node000017" class="node">
<title>Node17</title>
<g id="a_Node000017"><a xlink:title=" ">
<polygon fill="#e0e0e0" stroke="#999999" points="1788.5,-189.5 1737.5,-189.5 1737.5,-170.5 1788.5,-170.5 1788.5,-189.5"/>
<text text-anchor="middle" x="1763" y="-177.5" font-family="Helvetica,sans-Serif" font-size="10.00">math.h</text>
</a>
</g>
</g>
<!-- Node2&#45;&gt;Node17 -->
<g id="edge16_Node000002_Node000017" class="edge">
<title>Node2&#45;&gt;Node17</title>
<g id="a_edge16_Node000002_Node000017"><a xlink:title=" ">
<path fill="none" stroke="#63b8ff" d="M1411.66,-237.97C1478.77,-234.67 1616.49,-224.59 1729,-195 1730.94,-194.49 1732.93,-193.89 1734.9,-193.24"/>
<polygon fill="#63b8ff" stroke="#63b8ff" points="1736.46,-196.39 1744.6,-189.62 1734.01,-189.83 1736.46,-196.39"/>
</a>
</g>
</g>
<!-- Node18 -->
<g id="Node000018" class="node">
<title>Node18</title>
<g id="a_Node000018"><a xlink:href="stringio_8h.html" target="_top" xlink:title="Provides utility functions for string and file operations.">
<polygon fill="white" stroke="#666666" points="1881,-189.5 1807,-189.5 1807,-170.5 1881,-170.5 1881,-189.5"/>
<text text-anchor="middle" x="1844" y="-177.5" font-family="Helvetica,sans-Serif" font-size="10.00">io/stringio.h</text>
</a>
</g>
</g>
<!-- Node2&#45;&gt;Node18 -->
<g id="edge17_Node000002_Node000018" class="edge">
<title>Node2&#45;&gt;Node18</title>
<g id="a_edge17_Node000002_Node000018"><a xlink:title=" ">
<path fill="none" stroke="#63b8ff" d="M1411.72,-237.85C1488.12,-234.19 1657.92,-223.34 1798,-195 1801.65,-194.26 1805.43,-193.35 1809.17,-192.36"/>
<polygon fill="#63b8ff" stroke="#63b8ff" points="1810.26,-195.69 1818.92,-189.58 1808.34,-188.96 1810.26,-195.69"/>
</a>
</g>
</g>
<!-- Node20 -->
<g id="Node000020" class="node">
<title>Node20</title>
<g id="a_Node000020"><a xlink:href="config_8h.html" target="_top" xlink:title=" ">
<polygon fill="white" stroke="#666666" points="1954.5,-189.5 1899.5,-189.5 1899.5,-170.5 1954.5,-170.5 1954.5,-189.5"/>
<text text-anchor="middle" x="1927" y="-177.5" font-family="Helvetica,sans-Serif" font-size="10.00">config.h</text>
</a>
</g>
</g>
<!-- Node2&#45;&gt;Node20 -->
<g id="edge19_Node000002_Node000020" class="edge">
<title>Node2&#45;&gt;Node20</title>
<g id="a_edge19_Node000002_Node000020"><a xlink:title=" ">
<path fill="none" stroke="#63b8ff" d="M1411.63,-239.8C1499.87,-239.63 1715.18,-234.76 1890,-195 1892.52,-194.43 1895.1,-193.72 1897.66,-192.93"/>
<polygon fill="#63b8ff" stroke="#63b8ff" points="1899.03,-196.16 1907.34,-189.59 1896.75,-189.54 1899.03,-196.16"/>
</a>
</g>
</g>
<!-- Node19 -->
<g id="Node000019" class="node">
<title>Node19</title>
<g id="a_Node000019"><a xlink:title=" ">
<polygon fill="#e0e0e0" stroke="#999999" points="1870.5,-129 1817.5,-129 1817.5,-110 1870.5,-110 1870.5,-129"/>
<text text-anchor="middle" x="1844" y="-117" font-family="Helvetica,sans-Serif" font-size="10.00">string.h</text>
</a>
</g>
</g>
<!-- Node18&#45;&gt;Node19 -->
<g id="edge18_Node000018_Node000019" class="edge">
<title>Node18&#45;&gt;Node19</title>
<g id="a_edge18_Node000018_Node000019"><a xlink:title=" ">
<path fill="none" stroke="#63b8ff" d="M1844,-170.37C1844,-162.25 1844,-149.81 1844,-139.39"/>
<polygon fill="#63b8ff" stroke="#63b8ff" points="1847.5,-139.17 1844,-129.17 1840.5,-139.17 1847.5,-139.17"/>
</a>
</g>
</g>
<!-- Node21 -->
<g id="Node000021" class="node">
<title>Node21</title>
<g id="a_Node000021"><a xlink:href="term_8h.html" target="_top" xlink:title=" ">
<polygon fill="white" stroke="#666666" points="1964.5,-129 1889.5,-129 1889.5,-110 1964.5,-110 1964.5,-129"/>
<text text-anchor="middle" x="1927" y="-117" font-family="Helvetica,sans-Serif" font-size="10.00">term/term.h</text>
</a>
</g>
</g>
<!-- Node20&#45;&gt;Node21 -->
<g id="edge20_Node000020_Node000021" class="edge">
<title>Node20&#45;&gt;Node21</title>
<g id="a_edge20_Node000020_Node000021"><a xlink:title=" ">
<path fill="none" stroke="#63b8ff" d="M1927,-170.37C1927,-162.25 1927,-149.81 1927,-139.39"/>
<polygon fill="#63b8ff" stroke="#63b8ff" points="1930.5,-139.17 1927,-129.17 1923.5,-139.17 1930.5,-139.17"/>
</a>
</g>
</g>
<!-- Node22 -->
<g id="Node000022" class="node">
<title>Node22</title>
<g id="a_Node000022"><a xlink:href="enhanced__print_8h.html" target="_top" xlink:title=" ">
<polygon fill="white" stroke="#666666" points="1977.5,-74 1876.5,-74 1876.5,-55 1977.5,-55 1977.5,-74"/>
<text text-anchor="middle" x="1927" y="-62" font-family="Helvetica,sans-Serif" font-size="10.00">enhanced_print.h</text>
</a>
</g>
</g>
<!-- Node21&#45;&gt;Node22 -->
<g id="edge21_Node000021_Node000022" class="edge">
<title>Node21&#45;&gt;Node22</title>
<g id="a_edge21_Node000021_Node000022"><a xlink:title=" ">
<path fill="none" stroke="#63b8ff" d="M1927,-109.75C1927,-102.8 1927,-92.85 1927,-84.13"/>
<polygon fill="#63b8ff" stroke="#63b8ff" points="1930.5,-84.09 1927,-74.09 1923.5,-84.09 1930.5,-84.09"/>
</a>
</g>
</g>
<!-- Node23 -->
<g id="Node000023" class="node">
<title>Node23</title>
<g id="a_Node000023"><a xlink:href="color_8h.html" target="_top" xlink:title=" ">
<polygon fill="white" stroke="#666666" points="1951.5,-19 1902.5,-19 1902.5,0 1951.5,0 1951.5,-19"/>
<text text-anchor="middle" x="1927" y="-7" font-family="Helvetica,sans-Serif" font-size="10.00">color.h</text>
</a>
</g>
</g>
<!-- Node22&#45;&gt;Node23 -->
<g id="edge22_Node000022_Node000023" class="edge">
<title>Node22&#45;&gt;Node23</title>
<g id="a_edge22_Node000022_Node000023"><a xlink:title=" ">
<path fill="none" stroke="#63b8ff" d="M1927,-54.75C1927,-47.8 1927,-37.85 1927,-29.13"/>
<polygon fill="#63b8ff" stroke="#63b8ff" points="1930.5,-29.09 1927,-19.09 1923.5,-29.09 1930.5,-29.09"/>
</a>
</g>
</g>
<!-- Node25&#45;&gt;Node26 -->
<g id="edge25_Node000025_Node000026" class="edge">
<title>Node25&#45;&gt;Node26</title>
<g id="a_edge25_Node000025_Node000026"><a xlink:title=" ">
<path fill="none" stroke="#63b8ff" d="M161.07,-235.47C171.14,-234.04 182.58,-232.43 193,-231 316.52,-214.08 462.88,-195 531.62,-186.09"/>
<polygon fill="#63b8ff" stroke="#63b8ff" points="532.11,-189.55 541.58,-184.8 531.21,-182.61 532.11,-189.55"/>
</a>
</g>
</g>
<!-- Node27 -->
<g id="Node000027" class="node">
<title>Node27</title>
<g id="a_Node000027"><a xlink:href="model__loader_8h.html" target="_top" xlink:title=" ">
<polygon fill="white" stroke="#666666" points="194,-195 72,-195 72,-165 194,-165 194,-195"/>
<text text-anchor="start" x="80" y="-183" font-family="Helvetica,sans-Serif" font-size="10.00">model_loaders/model</text>
<text text-anchor="middle" x="133" y="-172" font-family="Helvetica,sans-Serif" font-size="10.00">_loader.h</text>
</a>
</g>
</g>
<!-- Node25&#45;&gt;Node27 -->
<g id="edge26_Node000025_Node000027" class="edge">
<title>Node25&#45;&gt;Node27</title>
<g id="a_edge26_Node000025_Node000027"><a xlink:title=" ">
<path fill="none" stroke="#63b8ff" d="M133,-230.87C133,-224.11 133,-214.35 133,-205.26"/>
<polygon fill="#63b8ff" stroke="#63b8ff" points="136.5,-205.11 133,-195.11 129.5,-205.11 136.5,-205.11"/>
</a>
</g>
</g>
<!-- Node28 -->
<g id="Node000028" class="node">
<title>Node28</title>
<g id="a_Node000028"><a xlink:href="obj__loader_8h.html" target="_top" xlink:title=" ">
<polygon fill="white" stroke="#666666" points="76,-129 0,-129 0,-110 76,-110 76,-129"/>
<text text-anchor="middle" x="38" y="-117" font-family="Helvetica,sans-Serif" font-size="10.00">obj_loader.h</text>
</a>
</g>
</g>
<!-- Node27&#45;&gt;Node28 -->
<g id="edge27_Node000027_Node000028" class="edge">
<title>Node27&#45;&gt;Node28</title>
<g id="a_edge27_Node000027_Node000028"><a xlink:title=" ">
<path fill="none" stroke="#63b8ff" d="M110,-164.84C95,-155.6 75.5,-143.59 60.57,-134.4"/>
<polygon fill="#63b8ff" stroke="#63b8ff" points="62.31,-131.36 51.96,-129.09 58.64,-137.32 62.31,-131.36"/>
</a>
</g>
</g>
<!-- Node29 -->
<g id="Node000029" class="node">
<title>Node29</title>
<g id="a_Node000029"><a xlink:href="mtl__loader_8h.html" target="_top" xlink:title=" ">
<polygon fill="white" stroke="#666666" points="171.5,-129 94.5,-129 94.5,-110 171.5,-110 171.5,-129"/>
<text text-anchor="middle" x="133" y="-117" font-family="Helvetica,sans-Serif" font-size="10.00">mtl_loader.h</text>
</a>
</g>
</g>
<!-- Node27&#45;&gt;Node29 -->
<g id="edge28_Node000027_Node000029" class="edge">
<title>Node27&#45;&gt;Node29</title>
<g id="a_edge28_Node000027_Node000029"><a xlink:title=" ">
<path fill="none" stroke="#63b8ff" d="M133,-164.84C133,-157.21 133,-147.7 133,-139.45"/>
<polygon fill="#63b8ff" stroke="#63b8ff" points="136.5,-139.27 133,-129.27 129.5,-139.27 136.5,-139.27"/>
</a>
</g>
</g>
<!-- Node30 -->
<g id="Node000030" class="node">
<title>Node30</title>
<g id="a_Node000030"><a xlink:href="fbx__loader_8h.html" target="_top" xlink:title=" ">
<polygon fill="white" stroke="#666666" points="266.5,-129 189.5,-129 189.5,-110 266.5,-110 266.5,-129"/>
<text text-anchor="middle" x="228" y="-117" font-family="Helvetica,sans-Serif" font-size="10.00">fbx_loader.h</text>
</a>
</g>
</g>
<!-- Node27&#45;&gt;Node30 -->
<g id="edge29_Node000027_Node000030" class="edge">
<title>Node27&#45;&gt;Node30</title>
<g id="a_edge29_Node000027_Node000030"><a xlink:title=" ">
<path fill="none" stroke="#63b8ff" d="M156,-164.84C171,-155.6 190.5,-143.59 205.43,-134.4"/>
<polygon fill="#63b8ff" stroke="#63b8ff" points="207.36,-137.32 214.04,-129.09 203.69,-131.36 207.36,-137.32"/>
</a>
</g>
</g>
<!-- Node31&#45;&gt;Node32 -->
<g id="edge31_Node000031_Node000032" class="edge">
<title>Node31&#45;&gt;Node32</title>
<g id="a_edge31_Node000031_Node000032"><a xlink:title=" ">
<path fill="none" stroke="#63b8ff" d="M238,-285.75C238,-278.8 238,-268.85 238,-260.13"/>
<polygon fill="#63b8ff" stroke="#63b8ff" points="241.5,-260.09 238,-250.09 234.5,-260.09 241.5,-260.09"/>
</a>
</g>
</g>
<!-- Node33&#45;&gt;Node26 -->
<g id="edge33_Node000033_Node000026" class="edge">
<title>Node33&#45;&gt;Node26</title>
<g id="a_edge33_Node000033_Node000026"><a xlink:title=" ">
<path fill="none" stroke="#63b8ff" d="M526.84,-340.87C536.25,-332.71 549.39,-319.57 556,-305 571.71,-270.4 572.94,-225.06 572.15,-199.9"/>
<polygon fill="#63b8ff" stroke="#63b8ff" points="575.64,-199.42 571.68,-189.59 568.64,-199.74 575.64,-199.42"/>
</a>
</g>
</g>
<!-- Node33&#45;&gt;Node31 -->
<g id="edge44_Node000033_Node000031" class="edge">
<title>Node33&#45;&gt;Node31</title>
<g id="a_edge44_Node000033_Node000031"><a xlink:title=" ">
<path fill="none" stroke="#63b8ff" d="M471.33,-340.98C422.84,-331.74 345.35,-316.97 293.11,-307.01"/>
<polygon fill="#63b8ff" stroke="#63b8ff" points="293.49,-303.52 283.02,-305.08 292.18,-310.39 293.49,-303.52"/>
</a>
</g>
</g>
<!-- Node33&#45;&gt;Node34 -->
<g id="edge34_Node000033_Node000034" class="edge">
<title>Node33&#45;&gt;Node34</title>
<g id="a_edge34_Node000033_Node000034"><a xlink:title=" ">
<path fill="none" stroke="#63b8ff" d="M544.6,-340.98C574.61,-332.05 621.98,-317.94 655.32,-308.02"/>
<polygon fill="#63b8ff" stroke="#63b8ff" points="656.59,-311.29 665.18,-305.08 654.59,-304.58 656.59,-311.29"/>
</a>
</g>
</g>
<!-- Node35 -->
<g id="Node000035" class="node">
<title>Node35</title>
<g id="a_Node000035"><a xlink:href="bodies_8h.html" target="_top" xlink:title=" ">
<polygon fill="white" stroke="#666666" points="426.5,-305 319.5,-305 319.5,-286 426.5,-286 426.5,-305"/>
<text text-anchor="middle" x="373" y="-293" font-family="Helvetica,sans-Serif" font-size="10.00">../physics/bodies.h</text>
</a>
</g>
</g>
<!-- Node33&#45;&gt;Node35 -->
<g id="edge38_Node000033_Node000035" class="edge">
<title>Node33&#45;&gt;Node35</title>
<g id="a_edge38_Node000033_Node000035"><a xlink:title=" ">
<path fill="none" stroke="#63b8ff" d="M493.02,-340.98C469.5,-332.27 432.71,-318.63 406.06,-308.75"/>
<polygon fill="#63b8ff" stroke="#63b8ff" points="406.99,-305.36 396.39,-305.17 404.55,-311.93 406.99,-305.36"/>
</a>
</g>
</g>
<!-- Node36 -->
<g id="Node000036" class="node">
<title>Node36</title>
<g id="a_Node000036"><a xlink:href="scripts_8h.html" target="_top" xlink:title=" ">
<polygon fill="white" stroke="#666666" points="547,-305 445,-305 445,-286 547,-286 547,-305"/>
<text text-anchor="middle" x="496" y="-293" font-family="Helvetica,sans-Serif" font-size="10.00">../scripts/scripts.h</text>
</a>
</g>
</g>
<!-- Node33&#45;&gt;Node36 -->
<g id="edge41_Node000033_Node000036" class="edge">
<title>Node33&#45;&gt;Node36</title>
<g id="a_edge41_Node000033_Node000036"><a xlink:title=" ">
<path fill="none" stroke="#63b8ff" d="M512.7,-340.75C510.02,-333.65 506.15,-323.4 502.81,-314.56"/>
<polygon fill="#63b8ff" stroke="#63b8ff" points="506.05,-313.21 499.24,-305.09 499.5,-315.68 506.05,-313.21"/>
</a>
</g>
</g>
<!-- Node34&#45;&gt;Node2 -->
<g id="edge35_Node000034_Node000002" class="edge">
<title>Node34&#45;&gt;Node2</title>
<g id="a_edge35_Node000034_Node000002"><a xlink:title=" ">
<path fill="none" stroke="#63b8ff" d="M747.12,-290.34C874.46,-280.37 1195.77,-255.22 1320.45,-245.46"/>
<polygon fill="#63b8ff" stroke="#63b8ff" points="1320.79,-248.94 1330.49,-244.67 1320.25,-241.96 1320.79,-248.94"/>
</a>
</g>
</g>
<!-- Node34&#45;&gt;Node24 -->
<g id="edge36_Node000034_Node000024" class="edge">
<title>Node34&#45;&gt;Node24</title>
<g id="a_edge36_Node000034_Node000024"><a xlink:title=" ">
<path fill="none" stroke="#63b8ff" d="M687.39,-285.75C681.74,-278.26 673.46,-267.28 666.55,-258.13"/>
<polygon fill="#63b8ff" stroke="#63b8ff" points="669.3,-255.96 660.48,-250.09 663.71,-260.18 669.3,-255.96"/>
</a>
</g>
</g>
<!-- Node34&#45;&gt;Node26 -->
<g id="edge37_Node000034_Node000026" class="edge">
<title>Node34&#45;&gt;Node26</title>
<g id="a_edge37_Node000034_Node000026"><a xlink:title=" ">
<path fill="none" stroke="#63b8ff" d="M702.38,-285.58C713.51,-272.6 730.43,-248.19 718,-231 688.11,-189.65 657.17,-211.82 609,-195 607.16,-194.36 605.27,-193.69 603.36,-193.01"/>
<polygon fill="#63b8ff" stroke="#63b8ff" points="604.46,-189.68 593.86,-189.57 602.07,-196.26 604.46,-189.68"/>
</a>
</g>
</g>
<!-- Node35&#45;&gt;Node24 -->
<g id="edge39_Node000035_Node000024" class="edge">
<title>Node35&#45;&gt;Node24</title>
<g id="a_edge39_Node000035_Node000024"><a xlink:title=" ">
<path fill="none" stroke="#63b8ff" d="M418.15,-285.98C467.26,-276.72 545.82,-261.9 598.62,-251.94"/>
<polygon fill="#63b8ff" stroke="#63b8ff" points="599.32,-255.37 608.5,-250.08 598.02,-248.5 599.32,-255.37"/>
</a>
</g>
</g>
<!-- Node35&#45;&gt;Node25 -->
<g id="edge40_Node000035_Node000025" class="edge">
<title>Node35&#45;&gt;Node25</title>
<g id="a_edge40_Node000035_Node000025"><a xlink:title=" ">
<path fill="none" stroke="#63b8ff" d="M334.44,-285.98C289.57,-276.08 215.94,-259.82 171.22,-249.94"/>
<polygon fill="#63b8ff" stroke="#63b8ff" points="171.84,-246.49 161.32,-247.75 170.33,-253.33 171.84,-246.49"/>
</a>
</g>
</g>
<!-- Node36&#45;&gt;Node32 -->
<g id="edge42_Node000036_Node000032" class="edge">
<title>Node36&#45;&gt;Node32</title>
<g id="a_edge42_Node000036_Node000032"><a xlink:title=" ">
<path fill="none" stroke="#63b8ff" d="M454.55,-285.98C407.74,-276.37 331.81,-260.77 283.42,-250.83"/>
<polygon fill="#63b8ff" stroke="#63b8ff" points="284.04,-247.38 273.54,-248.8 282.63,-254.24 284.04,-247.38"/>
</a>
</g>
</g>
<!-- Node37 -->
<g id="Node000037" class="node">
<title>Node37</title>
<g id="a_Node000037"><a xlink:href="signals_8h.html" target="_top" xlink:title="Signal and slot system for C projects.">
<polygon fill="white" stroke="#666666" points="526,-250 466,-250 466,-231 526,-231 526,-250"/>
<text text-anchor="middle" x="496" y="-238" font-family="Helvetica,sans-Serif" font-size="10.00">signals.h</text>
</a>
</g>
</g>
<!-- Node36&#45;&gt;Node37 -->
<g id="edge43_Node000036_Node000037" class="edge">
<title>Node36&#45;&gt;Node37</title>
<g id="a_edge43_Node000036_Node000037"><a xlink:title=" ">
<path fill="none" stroke="#63b8ff" d="M496,-285.75C496,-278.8 496,-268.85 496,-260.13"/>
<polygon fill="#63b8ff" stroke="#63b8ff" points="499.5,-260.09 496,-250.09 492.5,-260.09 499.5,-260.09"/>
</a>
</g>
</g>
<!-- Node41&#45;&gt;Node25 -->
<g id="edge52_Node000041_Node000025" class="edge">
<title>Node41&#45;&gt;Node25</title>
<g id="a_edge52_Node000041_Node000025"><a xlink:title=" ">
<path fill="none" stroke="#63b8ff" d="M134.5,-340.97C134.01,-332.02 133.28,-317.53 133,-305 132.66,-289.98 132.68,-272.96 132.78,-260.32"/>
<polygon fill="#63b8ff" stroke="#63b8ff" points="136.28,-260.16 132.88,-250.13 129.28,-260.09 136.28,-260.16"/>
</a>
</g>
</g>
<!-- Node41&#45;&gt;Node31 -->
<g id="edge53_Node000041_Node000031" class="edge">
<title>Node41&#45;&gt;Node31</title>
<g id="a_edge53_Node000041_Node000031"><a xlink:title=" ">
<path fill="none" stroke="#63b8ff" d="M151.55,-340.98C167.89,-332.57 193.13,-319.59 212.13,-309.81"/>
<polygon fill="#63b8ff" stroke="#63b8ff" points="213.86,-312.86 221.15,-305.17 210.66,-306.63 213.86,-312.86"/>
</a>
</g>
</g>
<!-- Node45&#45;&gt;Node2 -->
<g id="edge60_Node000045_Node000002" class="edge">
<title>Node45&#45;&gt;Node2</title>
<g id="a_edge60_Node000045_Node000002"><a xlink:title=" ">
<path fill="none" stroke="#63b8ff" d="M1417.83,-340.66C1409.45,-322.93 1390.47,-282.73 1379.41,-259.32"/>
<polygon fill="#63b8ff" stroke="#63b8ff" points="1382.52,-257.71 1375.09,-250.16 1376.19,-260.7 1382.52,-257.71"/>
</a>
</g>
</g>
<!-- Node46 -->
<g id="Node000046" class="node">
<title>Node46</title>
<g id="a_Node000046"><a xlink:href="classes__types_8h.html" target="_top" xlink:title=" ">
<polygon fill="white" stroke="#666666" points="1527,-305 1433,-305 1433,-286 1527,-286 1527,-305"/>
<text text-anchor="middle" x="1480" y="-293" font-family="Helvetica,sans-Serif" font-size="10.00">classes_types.h</text>
</a>
</g>
</g>
<!-- Node45&#45;&gt;Node46 -->
<g id="edge58_Node000045_Node000046" class="edge">
<title>Node45&#45;&gt;Node46</title>
<g id="a_edge58_Node000045_Node000046"><a xlink:title=" ">
<path fill="none" stroke="#63b8ff" d="M1431.32,-340.98C1439.81,-333.23 1452.56,-321.58 1462.88,-312.14"/>
<polygon fill="#63b8ff" stroke="#63b8ff" points="1465.49,-314.5 1470.51,-305.17 1460.77,-309.33 1465.49,-314.5"/>
</a>
</g>
</g>
<!-- Node47 -->
<g id="Node000047" class="node">
<title>Node47</title>
<g id="a_Node000047"><a xlink:title=" ">
<polygon fill="#e0e0e0" stroke="#999999" points="1376.5,-305 1277.5,-305 1277.5,-286 1376.5,-286 1376.5,-305"/>
<text text-anchor="middle" x="1327" y="-293" font-family="Helvetica,sans-Serif" font-size="10.00">import_classes.h</text>
</a>
</g>
</g>
<!-- Node45&#45;&gt;Node47 -->
<g id="edge59_Node000045_Node000047" class="edge">
<title>Node45&#45;&gt;Node47</title>
<g id="a_edge59_Node000045_Node000047"><a xlink:title=" ">
<path fill="none" stroke="#63b8ff" d="M1406.74,-340.98C1391.87,-332.69 1369.02,-319.94 1351.58,-310.22"/>
<polygon fill="#63b8ff" stroke="#63b8ff" points="1352.98,-306.99 1342.54,-305.17 1349.57,-313.1 1352.98,-306.99"/>
</a>
</g>
</g>
</g>
</svg>
