<?xml version="1.0" encoding="UTF-8" standalone="no"?>
<!DOCTYPE svg PUBLIC "-//W3C//DTD SVG 1.1//EN"
 "http://www.w3.org/Graphics/SVG/1.1/DTD/svg11.dtd">
<!-- Generated by graphviz version 2.43.0 (0)
 -->
<!-- Title: src/storage/node.h Pages: 1 -->
<svg width="1722pt" height="368pt"
 viewBox="0.00 0.00 1722.00 368.00" xmlns="http://www.w3.org/2000/svg" xmlns:xlink="http://www.w3.org/1999/xlink">
<g id="graph0" class="graph" transform="scale(1 1) rotate(0) translate(4 364)">
<title>src/storage/node.h</title>
<!-- Node1 -->
<g id="Node000001" class="node">
<title>Node1</title>
<g id="a_Node000001"><a xlink:title=" ">
<polygon fill="#999999" stroke="#666666" points="533,-360 426,-360 426,-341 533,-341 533,-360"/>
<text text-anchor="middle" x="479.5" y="-348" font-family="Helvetica,sans-Serif" font-size="10.00">src/storage/node.h</text>
</a>
</g>
</g>
<!-- Node2 -->
<g id="Node000002" class="node">
<title>Node2</title>
<g id="a_Node000002"><a xlink:href="shader_8h.html" target="_top" xlink:title=" ">
<polygon fill="white" stroke="#666666" points="79,-189.5 0,-189.5 0,-170.5 79,-170.5 79,-189.5"/>
<text text-anchor="middle" x="39.5" y="-177.5" font-family="Helvetica,sans-Serif" font-size="10.00">../io/shader.h</text>
</a>
</g>
</g>
<!-- Node1&#45;&gt;Node2 -->
<g id="edge1_Node000001_Node000002" class="edge">
<title>Node1&#45;&gt;Node2</title>
<g id="a_edge1_Node000001_Node000002"><a xlink:title=" ">
<path fill="none" stroke="#63b8ff" d="M425.94,-344.13C350.88,-334.68 212.22,-310.02 110.5,-250 87.02,-236.14 65.38,-212.97 52.31,-197.34"/>
<polygon fill="#63b8ff" stroke="#63b8ff" points="55,-195.1 45.98,-189.54 49.56,-199.51 55,-195.1"/>
</a>
</g>
</g>
<!-- Node3 -->
<g id="Node000003" class="node">
<title>Node3</title>
<g id="a_Node000003"><a xlink:href="camera_8h.html" target="_top" xlink:title=" ">
<polygon fill="white" stroke="#666666" points="532.5,-305 426.5,-305 426.5,-286 532.5,-286 532.5,-305"/>
<text text-anchor="middle" x="479.5" y="-293" font-family="Helvetica,sans-Serif" font-size="10.00">../render/camera.h</text>
</a>
</g>
</g>
<!-- Node1&#45;&gt;Node3 -->
<g id="edge2_Node000001_Node000003" class="edge">
<title>Node1&#45;&gt;Node3</title>
<g id="a_edge2_Node000001_Node000003"><a xlink:title=" ">
<path fill="none" stroke="#63b8ff" d="M479.5,-340.75C479.5,-333.8 479.5,-323.85 479.5,-315.13"/>
<polygon fill="#63b8ff" stroke="#63b8ff" points="483,-315.09 479.5,-305.09 476,-315.09 483,-315.09"/>
</a>
</g>
</g>
<!-- Node27 -->
<g id="Node000027" class="node">
<title>Node27</title>
<g id="a_Node000027"><a xlink:href="bodies_8h.html" target="_top" xlink:title=" ">
<polygon fill="white" stroke="#666666" points="408,-305 301,-305 301,-286 408,-286 408,-305"/>
<text text-anchor="middle" x="354.5" y="-293" font-family="Helvetica,sans-Serif" font-size="10.00">../physics/bodies.h</text>
</a>
</g>
</g>
<!-- Node1&#45;&gt;Node27 -->
<g id="edge27_Node000001_Node000027" class="edge">
<title>Node1&#45;&gt;Node27</title>
<g id="a_edge27_Node000001_Node000027"><a xlink:title=" ">
<path fill="none" stroke="#63b8ff" d="M459.42,-340.98C439.13,-332.38 407.54,-318.99 384.33,-309.15"/>
<polygon fill="#63b8ff" stroke="#63b8ff" points="385.52,-305.85 374.95,-305.17 382.79,-312.3 385.52,-305.85"/>
</a>
</g>
</g>
<!-- Node33 -->
<g id="Node000033" class="node">
<title>Node33</title>
<g id="a_Node000033"><a xlink:href="scripts_8h.html" target="_top" xlink:title=" ">
<polygon fill="white" stroke="#666666" points="1089.5,-305 987.5,-305 987.5,-286 1089.5,-286 1089.5,-305"/>
<text text-anchor="middle" x="1038.5" y="-293" font-family="Helvetica,sans-Serif" font-size="10.00">../scripts/scripts.h</text>
</a>
</g>
</g>
<!-- Node1&#45;&gt;Node33 -->
<g id="edge35_Node000001_Node000033" class="edge">
<title>Node1&#45;&gt;Node33</title>
<g id="a_edge35_Node000001_Node000033"><a xlink:title=" ">
<path fill="none" stroke="#63b8ff" d="M533.1,-344.42C637.4,-334.53 867.07,-312.75 977.22,-302.31"/>
<polygon fill="#63b8ff" stroke="#63b8ff" points="977.87,-305.76 987.5,-301.34 977.21,-298.8 977.87,-305.76"/>
</a>
</g>
</g>
<!-- Node36 -->
<g id="Node000036" class="node">
<title>Node36</title>
<g id="a_Node000036"><a xlink:href="framebuffer_8h.html" target="_top" xlink:title=" ">
<polygon fill="white" stroke="#666666" points="779.5,-305 653.5,-305 653.5,-286 779.5,-286 779.5,-305"/>
<text text-anchor="middle" x="716.5" y="-293" font-family="Helvetica,sans-Serif" font-size="10.00">../render/framebuffer.h</text>
</a>
</g>
</g>
<!-- Node1&#45;&gt;Node36 -->
<g id="edge38_Node000001_Node000036" class="edge">
<title>Node1&#45;&gt;Node36</title>
<g id="a_edge38_Node000001_Node000036"><a xlink:title=" ">
<path fill="none" stroke="#63b8ff" d="M517.58,-340.98C558.49,-331.84 623.61,-317.27 668.12,-307.32"/>
<polygon fill="#63b8ff" stroke="#63b8ff" points="669.13,-310.68 678.12,-305.08 667.6,-303.85 669.13,-310.68"/>
</a>
</g>
</g>
<!-- Node3&#45;&gt;Node2 -->
<g id="edge26_Node000003_Node000002" class="edge">
<title>Node3&#45;&gt;Node2</title>
<g id="a_edge26_Node000003_Node000002"><a xlink:title=" ">
<path fill="none" stroke="#63b8ff" d="M475.45,-285.68C468.39,-271.42 452.35,-243.62 429.5,-231 362.79,-194.17 163.3,-209.52 88.5,-195 84.4,-194.2 80.14,-193.22 75.92,-192.16"/>
<polygon fill="#63b8ff" stroke="#63b8ff" points="76.82,-188.77 66.26,-189.55 75,-195.53 76.82,-188.77"/>
</a>
</g>
</g>
<!-- Node4 -->
<g id="Node000004" class="node">
<title>Node4</title>
<g id="a_Node000004"><a xlink:href="raptiquax_8h.html" target="_top" xlink:title="This file contains type definitions for fixed&#45;width integer types and floating&#45;point types.">
<polygon fill="white" stroke="#666666" points="985,-250 904,-250 904,-231 985,-231 985,-250"/>
<text text-anchor="middle" x="944.5" y="-238" font-family="Helvetica,sans-Serif" font-size="10.00">../raptiquax.h</text>
</a>
</g>
</g>
<!-- Node3&#45;&gt;Node4 -->
<g id="edge3_Node000003_Node000004" class="edge">
<title>Node3&#45;&gt;Node4</title>
<g id="a_edge3_Node000003_Node000004"><a xlink:title=" ">
<path fill="none" stroke="#63b8ff" d="M532.84,-288.42C623.25,-278.12 805.37,-257.36 893.9,-247.27"/>
<polygon fill="#63b8ff" stroke="#63b8ff" points="894.42,-250.73 903.96,-246.12 893.63,-243.78 894.42,-250.73"/>
</a>
</g>
</g>
<!-- Node26 -->
<g id="Node000026" class="node">
<title>Node26</title>
<g id="a_Node000026"><a xlink:href="math__util_8h.html" target="_top" xlink:title=" ">
<polygon fill="white" stroke="#666666" points="420.5,-250 310.5,-250 310.5,-231 420.5,-231 420.5,-250"/>
<text text-anchor="middle" x="365.5" y="-238" font-family="Helvetica,sans-Serif" font-size="10.00">../math/math_util.h</text>
</a>
</g>
</g>
<!-- Node3&#45;&gt;Node26 -->
<g id="edge25_Node000003_Node000026" class="edge">
<title>Node3&#45;&gt;Node26</title>
<g id="a_edge25_Node000003_Node000026"><a xlink:title=" ">
<path fill="none" stroke="#63b8ff" d="M461.18,-285.98C442.84,-277.46 414.39,-264.23 393.27,-254.41"/>
<polygon fill="#63b8ff" stroke="#63b8ff" points="394.69,-251.21 384.15,-250.17 391.74,-257.56 394.69,-251.21"/>
</a>
</g>
</g>
<!-- Node5 -->
<g id="Node000005" class="node">
<title>Node5</title>
<g id="a_Node000005"><a xlink:title=" ">
<polygon fill="#e0e0e0" stroke="#999999" points="1416.5,-189.5 1366.5,-189.5 1366.5,-170.5 1416.5,-170.5 1416.5,-189.5"/>
<text text-anchor="middle" x="1391.5" y="-177.5" font-family="Helvetica,sans-Serif" font-size="10.00">stdio.h</text>
</a>
</g>
</g>
<!-- Node4&#45;&gt;Node5 -->
<g id="edge4_Node000004_Node000005" class="edge">
<title>Node4&#45;&gt;Node5</title>
<g id="a_edge4_Node000004_Node000005"><a xlink:title=" ">
<path fill="none" stroke="#63b8ff" d="M985.12,-232.35C988.29,-231.87 991.45,-231.41 994.5,-231 1155.18,-209.4 1200.21,-234.28 1357.5,-195 1359.66,-194.46 1361.87,-193.81 1364.07,-193.08"/>
<polygon fill="#63b8ff" stroke="#63b8ff" points="1365.34,-196.34 1373.48,-189.56 1362.89,-189.78 1365.34,-196.34"/>
</a>
</g>
</g>
<!-- Node6 -->
<g id="Node000006" class="node">
<title>Node6</title>
<g id="a_Node000006"><a xlink:title=" ">
<polygon fill="#e0e0e0" stroke="#999999" points="1488,-189.5 1435,-189.5 1435,-170.5 1488,-170.5 1488,-189.5"/>
<text text-anchor="middle" x="1461.5" y="-177.5" font-family="Helvetica,sans-Serif" font-size="10.00">stdint.h</text>
</a>
</g>
</g>
<!-- Node4&#45;&gt;Node6 -->
<g id="edge5_Node000004_Node000006" class="edge">
<title>Node4&#45;&gt;Node6</title>
<g id="a_edge5_Node000004_Node000006"><a xlink:title=" ">
<path fill="none" stroke="#63b8ff" d="M985.12,-232.3C988.29,-231.83 991.44,-231.39 994.5,-231 1185.2,-206.87 1238.21,-238.28 1425.5,-195 1427.87,-194.45 1430.29,-193.78 1432.7,-193.03"/>
<polygon fill="#63b8ff" stroke="#63b8ff" points="1434.13,-196.23 1442.39,-189.6 1431.8,-189.63 1434.13,-196.23"/>
</a>
</g>
</g>
<!-- Node7 -->
<g id="Node000007" class="node">
<title>Node7</title>
<g id="a_Node000007"><a xlink:title=" ">
<polygon fill="#e0e0e0" stroke="#999999" points="1568.5,-189.5 1506.5,-189.5 1506.5,-170.5 1568.5,-170.5 1568.5,-189.5"/>
<text text-anchor="middle" x="1537.5" y="-177.5" font-family="Helvetica,sans-Serif" font-size="10.00">stdbool.h</text>
</a>
</g>
</g>
<!-- Node4&#45;&gt;Node7 -->
<g id="edge6_Node000004_Node000007" class="edge">
<title>Node4&#45;&gt;Node7</title>
<g id="a_edge6_Node000004_Node000007"><a xlink:title=" ">
<path fill="none" stroke="#63b8ff" d="M985.11,-232.26C988.28,-231.8 991.44,-231.37 994.5,-231 1217.02,-204.19 1278.02,-240.42 1497.5,-195 1500.5,-194.38 1503.58,-193.59 1506.64,-192.7"/>
<polygon fill="#63b8ff" stroke="#63b8ff" points="1507.76,-196.02 1516.21,-189.63 1505.62,-189.36 1507.76,-196.02"/>
</a>
</g>
</g>
<!-- Node8 -->
<g id="Node000008" class="node">
<title>Node8</title>
<g id="a_Node000008"><a xlink:title=" ">
<polygon fill="#e0e0e0" stroke="#999999" points="1642.5,-189.5 1586.5,-189.5 1586.5,-170.5 1642.5,-170.5 1642.5,-189.5"/>
<text text-anchor="middle" x="1614.5" y="-177.5" font-family="Helvetica,sans-Serif" font-size="10.00">stdarg.h</text>
</a>
</g>
</g>
<!-- Node4&#45;&gt;Node8 -->
<g id="edge7_Node000004_Node000008" class="edge">
<title>Node4&#45;&gt;Node8</title>
<g id="a_edge7_Node000004_Node000008"><a xlink:title=" ">
<path fill="none" stroke="#63b8ff" d="M985.11,-232.22C988.28,-231.77 991.44,-231.35 994.5,-231 1252.39,-201.2 1323.69,-249.55 1577.5,-195 1580.18,-194.42 1582.92,-193.69 1585.64,-192.86"/>
<polygon fill="#63b8ff" stroke="#63b8ff" points="1586.94,-196.11 1595.24,-189.53 1584.65,-189.49 1586.94,-196.11"/>
</a>
</g>
</g>
<!-- Node9 -->
<g id="Node000009" class="node">
<title>Node9</title>
<g id="a_Node000009"><a xlink:title=" ">
<polygon fill="#e0e0e0" stroke="#999999" points="1714,-189.5 1661,-189.5 1661,-170.5 1714,-170.5 1714,-189.5"/>
<text text-anchor="middle" x="1687.5" y="-177.5" font-family="Helvetica,sans-Serif" font-size="10.00">limits.h</text>
</a>
</g>
</g>
<!-- Node4&#45;&gt;Node9 -->
<g id="edge8_Node000004_Node000009" class="edge">
<title>Node4&#45;&gt;Node9</title>
<g id="a_edge8_Node000004_Node000009"><a xlink:title=" ">
<path fill="none" stroke="#63b8ff" d="M985.1,-232.2C988.28,-231.75 991.44,-231.34 994.5,-231 1285.12,-198.44 1365.66,-256.77 1651.5,-195 1654.02,-194.45 1656.6,-193.76 1659.16,-192.96"/>
<polygon fill="#63b8ff" stroke="#63b8ff" points="1660.53,-196.19 1668.79,-189.56 1658.19,-189.59 1660.53,-196.19"/>
</a>
</g>
</g>
<!-- Node10 -->
<g id="Node000010" class="node">
<title>Node10</title>
<g id="a_Node000010"><a xlink:title=" ">
<polygon fill="#e0e0e0" stroke="#999999" points="309.5,-189.5 237.5,-189.5 237.5,-170.5 309.5,-170.5 309.5,-189.5"/>
<text text-anchor="middle" x="273.5" y="-177.5" font-family="Helvetica,sans-Serif" font-size="10.00">SDL2/SDL.h</text>
</a>
</g>
</g>
<!-- Node4&#45;&gt;Node10 -->
<g id="edge9_Node000004_Node000010" class="edge">
<title>Node4&#45;&gt;Node10</title>
<g id="a_edge9_Node000004_Node000010"><a xlink:title=" ">
<path fill="none" stroke="#63b8ff" d="M903.81,-239.83C803.44,-239.96 536.39,-236.07 318.5,-195 314.83,-194.31 311.03,-193.42 307.27,-192.42"/>
<polygon fill="#63b8ff" stroke="#63b8ff" points="308.11,-189.02 297.53,-189.6 306.16,-195.74 308.11,-189.02"/>
</a>
</g>
</g>
<!-- Node11 -->
<g id="Node000011" class="node">
<title>Node11</title>
<g id="a_Node000011"><a xlink:title=" ">
<polygon fill="#e0e0e0" stroke="#999999" points="435.5,-189.5 327.5,-189.5 327.5,-170.5 435.5,-170.5 435.5,-189.5"/>
<text text-anchor="middle" x="381.5" y="-177.5" font-family="Helvetica,sans-Serif" font-size="10.00">SDL2/SDL_image.h</text>
</a>
</g>
</g>
<!-- Node4&#45;&gt;Node11 -->
<g id="edge10_Node000004_Node000011" class="edge">
<title>Node4&#45;&gt;Node11</title>
<g id="a_edge10_Node000004_Node000011"><a xlink:title=" ">
<path fill="none" stroke="#63b8ff" d="M903.78,-237.67C818.27,-233.44 613.94,-221.25 444.5,-195 438.54,-194.08 432.3,-192.92 426.17,-191.68"/>
<polygon fill="#63b8ff" stroke="#63b8ff" points="426.52,-188.17 416.01,-189.52 425.06,-195.02 426.52,-188.17"/>
</a>
</g>
</g>
<!-- Node12 -->
<g id="Node000012" class="node">
<title>Node12</title>
<g id="a_Node000012"><a xlink:title=" ">
<polygon fill="#e0e0e0" stroke="#999999" points="563.5,-189.5 453.5,-189.5 453.5,-170.5 563.5,-170.5 563.5,-189.5"/>
<text text-anchor="middle" x="508.5" y="-177.5" font-family="Helvetica,sans-Serif" font-size="10.00">SDL2/SDL_opengl.h</text>
</a>
</g>
</g>
<!-- Node4&#45;&gt;Node12 -->
<g id="edge11_Node000004_Node000012" class="edge">
<title>Node4&#45;&gt;Node12</title>
<g id="a_edge11_Node000004_Node000012"><a xlink:title=" ">
<path fill="none" stroke="#63b8ff" d="M903.86,-235.93C835.26,-229.62 692.28,-215.22 572.5,-195 566.68,-194.02 560.59,-192.86 554.58,-191.63"/>
<polygon fill="#63b8ff" stroke="#63b8ff" points="555.1,-188.17 544.6,-189.53 553.66,-195.02 555.1,-188.17"/>
</a>
</g>
</g>
<!-- Node13 -->
<g id="Node000013" class="node">
<title>Node13</title>
<g id="a_Node000013"><a xlink:title=" ">
<polygon fill="#e0e0e0" stroke="#999999" points="685.5,-189.5 581.5,-189.5 581.5,-170.5 685.5,-170.5 685.5,-189.5"/>
<text text-anchor="middle" x="633.5" y="-177.5" font-family="Helvetica,sans-Serif" font-size="10.00">SDL2/SDL_mixer.h</text>
</a>
</g>
</g>
<!-- Node4&#45;&gt;Node13 -->
<g id="edge12_Node000004_Node000013" class="edge">
<title>Node4&#45;&gt;Node13</title>
<g id="a_edge12_Node000004_Node000013"><a xlink:title=" ">
<path fill="none" stroke="#63b8ff" d="M903.68,-232.87C854.09,-224.67 767.94,-209.95 694.5,-195 689.5,-193.98 684.29,-192.87 679.11,-191.73"/>
<polygon fill="#63b8ff" stroke="#63b8ff" points="679.76,-188.29 669.24,-189.51 678.23,-195.12 679.76,-188.29"/>
</a>
</g>
</g>
<!-- Node14 -->
<g id="Node000014" class="node">
<title>Node14</title>
<g id="a_Node000014"><a xlink:title=" ">
<polygon fill="#e0e0e0" stroke="#999999" points="791.5,-189.5 703.5,-189.5 703.5,-170.5 791.5,-170.5 791.5,-189.5"/>
<text text-anchor="middle" x="747.5" y="-177.5" font-family="Helvetica,sans-Serif" font-size="10.00">SDL2/SDL_ttf.h</text>
</a>
</g>
</g>
<!-- Node4&#45;&gt;Node14 -->
<g id="edge13_Node000004_Node000014" class="edge">
<title>Node4&#45;&gt;Node14</title>
<g id="a_edge13_Node000004_Node000014"><a xlink:title=" ">
<path fill="none" stroke="#63b8ff" d="M915.85,-230.99C881.57,-220.81 824.02,-203.72 785.9,-192.4"/>
<polygon fill="#63b8ff" stroke="#63b8ff" points="786.76,-189.01 776.18,-189.52 784.77,-195.72 786.76,-189.01"/>
</a>
</g>
</g>
<!-- Node15 -->
<g id="Node000015" class="node">
<title>Node15</title>
<g id="a_Node000015"><a xlink:title=" ">
<polygon fill="#e0e0e0" stroke="#999999" points="859.5,-189.5 809.5,-189.5 809.5,-170.5 859.5,-170.5 859.5,-189.5"/>
<text text-anchor="middle" x="834.5" y="-177.5" font-family="Helvetica,sans-Serif" font-size="10.00">GL/gl.h</text>
</a>
</g>
</g>
<!-- Node4&#45;&gt;Node15 -->
<g id="edge14_Node000004_Node000015" class="edge">
<title>Node4&#45;&gt;Node15</title>
<g id="a_edge14_Node000004_Node000015"><a xlink:title=" ">
<path fill="none" stroke="#63b8ff" d="M928.27,-230.87C910.23,-221.28 880.88,-205.67 859.82,-194.47"/>
<polygon fill="#63b8ff" stroke="#63b8ff" points="861.27,-191.27 850.8,-189.67 857.98,-197.45 861.27,-191.27"/>
</a>
</g>
</g>
<!-- Node16 -->
<g id="Node000016" class="node">
<title>Node16</title>
<g id="a_Node000016"><a xlink:title=" ">
<polygon fill="#e0e0e0" stroke="#999999" points="933.5,-189.5 877.5,-189.5 877.5,-170.5 933.5,-170.5 933.5,-189.5"/>
<text text-anchor="middle" x="905.5" y="-177.5" font-family="Helvetica,sans-Serif" font-size="10.00">GL/glu.h</text>
</a>
</g>
</g>
<!-- Node4&#45;&gt;Node16 -->
<g id="edge15_Node000004_Node000016" class="edge">
<title>Node4&#45;&gt;Node16</title>
<g id="a_edge15_Node000004_Node000016"><a xlink:title=" ">
<path fill="none" stroke="#63b8ff" d="M938.75,-230.87C933.04,-222.31 924.15,-208.97 916.99,-198.24"/>
<polygon fill="#63b8ff" stroke="#63b8ff" points="919.74,-196.05 911.28,-189.67 913.91,-199.93 919.74,-196.05"/>
</a>
</g>
</g>
<!-- Node17 -->
<g id="Node000017" class="node">
<title>Node17</title>
<g id="a_Node000017"><a xlink:title=" ">
<polygon fill="#e0e0e0" stroke="#999999" points="1017.5,-189.5 951.5,-189.5 951.5,-170.5 1017.5,-170.5 1017.5,-189.5"/>
<text text-anchor="middle" x="984.5" y="-177.5" font-family="Helvetica,sans-Serif" font-size="10.00">GL/glext.h</text>
</a>
</g>
</g>
<!-- Node4&#45;&gt;Node17 -->
<g id="edge16_Node000004_Node000017" class="edge">
<title>Node4&#45;&gt;Node17</title>
<g id="a_edge16_Node000004_Node000017"><a xlink:title=" ">
<path fill="none" stroke="#63b8ff" d="M950.4,-230.87C956.25,-222.31 965.37,-208.97 972.71,-198.24"/>
<polygon fill="#63b8ff" stroke="#63b8ff" points="975.82,-199.9 978.57,-189.67 970.04,-195.95 975.82,-199.9"/>
</a>
</g>
</g>
<!-- Node18 -->
<g id="Node000018" class="node">
<title>Node18</title>
<g id="a_Node000018"><a xlink:title=" ">
<polygon fill="#e0e0e0" stroke="#999999" points="1113,-189.5 1036,-189.5 1036,-170.5 1113,-170.5 1113,-189.5"/>
<text text-anchor="middle" x="1074.5" y="-177.5" font-family="Helvetica,sans-Serif" font-size="10.00">cglm/cglm.h</text>
</a>
</g>
</g>
<!-- Node4&#45;&gt;Node18 -->
<g id="edge17_Node000004_Node000018" class="edge">
<title>Node4&#45;&gt;Node18</title>
<g id="a_edge17_Node000004_Node000018"><a xlink:title=" ">
<path fill="none" stroke="#63b8ff" d="M963.4,-230.99C985.16,-221.2 1021.12,-205.02 1046.21,-193.73"/>
<polygon fill="#63b8ff" stroke="#63b8ff" points="1047.89,-196.81 1055.57,-189.52 1045.02,-190.43 1047.89,-196.81"/>
</a>
</g>
</g>
<!-- Node19 -->
<g id="Node000019" class="node">
<title>Node19</title>
<g id="a_Node000019"><a xlink:title=" ">
<polygon fill="#e0e0e0" stroke="#999999" points="1182,-189.5 1131,-189.5 1131,-170.5 1182,-170.5 1182,-189.5"/>
<text text-anchor="middle" x="1156.5" y="-177.5" font-family="Helvetica,sans-Serif" font-size="10.00">math.h</text>
</a>
</g>
</g>
<!-- Node4&#45;&gt;Node19 -->
<g id="edge18_Node000004_Node000019" class="edge">
<title>Node4&#45;&gt;Node19</title>
<g id="a_edge18_Node000004_Node000019"><a xlink:title=" ">
<path fill="none" stroke="#63b8ff" d="M985.27,-231.08C1021.67,-223.15 1076.2,-210.23 1122.5,-195 1124.13,-194.47 1125.78,-193.89 1127.45,-193.29"/>
<polygon fill="#63b8ff" stroke="#63b8ff" points="1128.84,-196.5 1136.91,-189.64 1126.32,-189.97 1128.84,-196.5"/>
</a>
</g>
</g>
<!-- Node20 -->
<g id="Node000020" class="node">
<title>Node20</title>
<g id="a_Node000020"><a xlink:href="stringio_8h.html" target="_top" xlink:title="Provides utility functions for string and file operations.">
<polygon fill="white" stroke="#666666" points="1274.5,-189.5 1200.5,-189.5 1200.5,-170.5 1274.5,-170.5 1274.5,-189.5"/>
<text text-anchor="middle" x="1237.5" y="-177.5" font-family="Helvetica,sans-Serif" font-size="10.00">io/stringio.h</text>
</a>
</g>
</g>
<!-- Node4&#45;&gt;Node20 -->
<g id="edge19_Node000004_Node000020" class="edge">
<title>Node4&#45;&gt;Node20</title>
<g id="a_edge19_Node000004_Node000020"><a xlink:title=" ">
<path fill="none" stroke="#63b8ff" d="M985.12,-232.45C1050.01,-221.15 1171.78,-199.76 1191.5,-195 1194.85,-194.19 1198.31,-193.28 1201.76,-192.32"/>
<polygon fill="#63b8ff" stroke="#63b8ff" points="1202.75,-195.68 1211.37,-189.53 1200.79,-188.96 1202.75,-195.68"/>
</a>
</g>
</g>
<!-- Node22 -->
<g id="Node000022" class="node">
<title>Node22</title>
<g id="a_Node000022"><a xlink:href="config_8h.html" target="_top" xlink:title=" ">
<polygon fill="white" stroke="#666666" points="1348,-189.5 1293,-189.5 1293,-170.5 1348,-170.5 1348,-189.5"/>
<text text-anchor="middle" x="1320.5" y="-177.5" font-family="Helvetica,sans-Serif" font-size="10.00">config.h</text>
</a>
</g>
</g>
<!-- Node4&#45;&gt;Node22 -->
<g id="edge21_Node000004_Node000022" class="edge">
<title>Node4&#45;&gt;Node22</title>
<g id="a_edge21_Node000004_Node000022"><a xlink:title=" ">
<path fill="none" stroke="#63b8ff" d="M985.14,-232.44C988.3,-231.93 991.45,-231.45 994.5,-231 1122.56,-212.15 1157.86,-226.12 1283.5,-195 1285.95,-194.39 1288.46,-193.67 1290.96,-192.88"/>
<polygon fill="#63b8ff" stroke="#63b8ff" points="1292.13,-196.18 1300.42,-189.59 1289.83,-189.57 1292.13,-196.18"/>
</a>
</g>
</g>
<!-- Node21 -->
<g id="Node000021" class="node">
<title>Node21</title>
<g id="a_Node000021"><a xlink:title=" ">
<polygon fill="#e0e0e0" stroke="#999999" points="1264,-129 1211,-129 1211,-110 1264,-110 1264,-129"/>
<text text-anchor="middle" x="1237.5" y="-117" font-family="Helvetica,sans-Serif" font-size="10.00">string.h</text>
</a>
</g>
</g>
<!-- Node20&#45;&gt;Node21 -->
<g id="edge20_Node000020_Node000021" class="edge">
<title>Node20&#45;&gt;Node21</title>
<g id="a_edge20_Node000020_Node000021"><a xlink:title=" ">
<path fill="none" stroke="#63b8ff" d="M1237.5,-170.37C1237.5,-162.25 1237.5,-149.81 1237.5,-139.39"/>
<polygon fill="#63b8ff" stroke="#63b8ff" points="1241,-139.17 1237.5,-129.17 1234,-139.17 1241,-139.17"/>
</a>
</g>
</g>
<!-- Node23 -->
<g id="Node000023" class="node">
<title>Node23</title>
<g id="a_Node000023"><a xlink:href="term_8h.html" target="_top" xlink:title=" ">
<polygon fill="white" stroke="#666666" points="1358,-129 1283,-129 1283,-110 1358,-110 1358,-129"/>
<text text-anchor="middle" x="1320.5" y="-117" font-family="Helvetica,sans-Serif" font-size="10.00">term/term.h</text>
</a>
</g>
</g>
<!-- Node22&#45;&gt;Node23 -->
<g id="edge22_Node000022_Node000023" class="edge">
<title>Node22&#45;&gt;Node23</title>
<g id="a_edge22_Node000022_Node000023"><a xlink:title=" ">
<path fill="none" stroke="#63b8ff" d="M1320.5,-170.37C1320.5,-162.25 1320.5,-149.81 1320.5,-139.39"/>
<polygon fill="#63b8ff" stroke="#63b8ff" points="1324,-139.17 1320.5,-129.17 1317,-139.17 1324,-139.17"/>
</a>
</g>
</g>
<!-- Node24 -->
<g id="Node000024" class="node">
<title>Node24</title>
<g id="a_Node000024"><a xlink:href="enhanced__print_8h.html" target="_top" xlink:title=" ">
<polygon fill="white" stroke="#666666" points="1371,-74 1270,-74 1270,-55 1371,-55 1371,-74"/>
<text text-anchor="middle" x="1320.5" y="-62" font-family="Helvetica,sans-Serif" font-size="10.00">enhanced_print.h</text>
</a>
</g>
</g>
<!-- Node23&#45;&gt;Node24 -->
<g id="edge23_Node000023_Node000024" class="edge">
<title>Node23&#45;&gt;Node24</title>
<g id="a_edge23_Node000023_Node000024"><a xlink:title=" ">
<path fill="none" stroke="#63b8ff" d="M1320.5,-109.75C1320.5,-102.8 1320.5,-92.85 1320.5,-84.13"/>
<polygon fill="#63b8ff" stroke="#63b8ff" points="1324,-84.09 1320.5,-74.09 1317,-84.09 1324,-84.09"/>
</a>
</g>
</g>
<!-- Node25 -->
<g id="Node000025" class="node">
<title>Node25</title>
<g id="a_Node000025"><a xlink:href="color_8h.html" target="_top" xlink:title=" ">
<polygon fill="white" stroke="#666666" points="1345,-19 1296,-19 1296,0 1345,0 1345,-19"/>
<text text-anchor="middle" x="1320.5" y="-7" font-family="Helvetica,sans-Serif" font-size="10.00">color.h</text>
</a>
</g>
</g>
<!-- Node24&#45;&gt;Node25 -->
<g id="edge24_Node000024_Node000025" class="edge">
<title>Node24&#45;&gt;Node25</title>
<g id="a_edge24_Node000024_Node000025"><a xlink:title=" ">
<path fill="none" stroke="#63b8ff" d="M1320.5,-54.75C1320.5,-47.8 1320.5,-37.85 1320.5,-29.13"/>
<polygon fill="#63b8ff" stroke="#63b8ff" points="1324,-29.09 1320.5,-19.09 1317,-29.09 1324,-29.09"/>
</a>
</g>
</g>
<!-- Node27&#45;&gt;Node26 -->
<g id="edge28_Node000027_Node000026" class="edge">
<title>Node27&#45;&gt;Node26</title>
<g id="a_edge28_Node000027_Node000026"><a xlink:title=" ">
<path fill="none" stroke="#63b8ff" d="M356.32,-285.75C357.76,-278.8 359.82,-268.85 361.63,-260.13"/>
<polygon fill="#63b8ff" stroke="#63b8ff" points="365.11,-260.59 363.72,-250.09 358.26,-259.17 365.11,-260.59"/>
</a>
</g>
</g>
<!-- Node28 -->
<g id="Node000028" class="node">
<title>Node28</title>
<g id="a_Node000028"><a xlink:href="model_8h.html" target="_top" xlink:title="Defines structures and functions for handling 3D models and their properties.">
<polygon fill="white" stroke="#666666" points="197,-250 120,-250 120,-231 197,-231 197,-250"/>
<text text-anchor="middle" x="158.5" y="-238" font-family="Helvetica,sans-Serif" font-size="10.00">../io/model.h</text>
</a>
</g>
</g>
<!-- Node27&#45;&gt;Node28 -->
<g id="edge29_Node000027_Node000028" class="edge">
<title>Node27&#45;&gt;Node28</title>
<g id="a_edge29_Node000027_Node000028"><a xlink:title=" ">
<path fill="none" stroke="#63b8ff" d="M323.01,-285.98C289.68,-276.97 236.9,-262.7 200.15,-252.76"/>
<polygon fill="#63b8ff" stroke="#63b8ff" points="200.8,-249.31 190.24,-250.08 198.98,-256.07 200.8,-249.31"/>
</a>
</g>
</g>
<!-- Node28&#45;&gt;Node2 -->
<g id="edge30_Node000028_Node000002" class="edge">
<title>Node28&#45;&gt;Node2</title>
<g id="a_edge30_Node000028_Node000002"><a xlink:title=" ">
<path fill="none" stroke="#63b8ff" d="M141.2,-230.99C121.45,-221.29 88.95,-205.31 66.01,-194.03"/>
<polygon fill="#63b8ff" stroke="#63b8ff" points="67.34,-190.79 56.82,-189.52 64.25,-197.07 67.34,-190.79"/>
</a>
</g>
</g>
<!-- Node29 -->
<g id="Node000029" class="node">
<title>Node29</title>
<g id="a_Node000029"><a xlink:href="model__loader_8h.html" target="_top" xlink:title=" ">
<polygon fill="white" stroke="#666666" points="219.5,-195 97.5,-195 97.5,-165 219.5,-165 219.5,-195"/>
<text text-anchor="start" x="105.5" y="-183" font-family="Helvetica,sans-Serif" font-size="10.00">model_loaders/model</text>
<text text-anchor="middle" x="158.5" y="-172" font-family="Helvetica,sans-Serif" font-size="10.00">_loader.h</text>
</a>
</g>
</g>
<!-- Node28&#45;&gt;Node29 -->
<g id="edge31_Node000028_Node000029" class="edge">
<title>Node28&#45;&gt;Node29</title>
<g id="a_edge31_Node000028_Node000029"><a xlink:title=" ">
<path fill="none" stroke="#63b8ff" d="M158.5,-230.87C158.5,-224.11 158.5,-214.35 158.5,-205.26"/>
<polygon fill="#63b8ff" stroke="#63b8ff" points="162,-205.11 158.5,-195.11 155,-205.11 162,-205.11"/>
</a>
</g>
</g>
<!-- Node30 -->
<g id="Node000030" class="node">
<title>Node30</title>
<g id="a_Node000030"><a xlink:href="obj__loader_8h.html" target="_top" xlink:title=" ">
<polygon fill="white" stroke="#666666" points="291.5,-129 215.5,-129 215.5,-110 291.5,-110 291.5,-129"/>
<text text-anchor="middle" x="253.5" y="-117" font-family="Helvetica,sans-Serif" font-size="10.00">obj_loader.h</text>
</a>
</g>
</g>
<!-- Node29&#45;&gt;Node30 -->
<g id="edge32_Node000029_Node000030" class="edge">
<title>Node29&#45;&gt;Node30</title>
<g id="a_edge32_Node000029_Node000030"><a xlink:title=" ">
<path fill="none" stroke="#63b8ff" d="M181.5,-164.84C196.5,-155.6 216,-143.59 230.93,-134.4"/>
<polygon fill="#63b8ff" stroke="#63b8ff" points="232.86,-137.32 239.54,-129.09 229.19,-131.36 232.86,-137.32"/>
</a>
</g>
</g>
<!-- Node31 -->
<g id="Node000031" class="node">
<title>Node31</title>
<g id="a_Node000031"><a xlink:href="mtl__loader_8h.html" target="_top" xlink:title=" ">
<polygon fill="white" stroke="#666666" points="102,-129 25,-129 25,-110 102,-110 102,-129"/>
<text text-anchor="middle" x="63.5" y="-117" font-family="Helvetica,sans-Serif" font-size="10.00">mtl_loader.h</text>
</a>
</g>
</g>
<!-- Node29&#45;&gt;Node31 -->
<g id="edge33_Node000029_Node000031" class="edge">
<title>Node29&#45;&gt;Node31</title>
<g id="a_edge33_Node000029_Node000031"><a xlink:title=" ">
<path fill="none" stroke="#63b8ff" d="M135.5,-164.84C120.5,-155.6 101,-143.59 86.07,-134.4"/>
<polygon fill="#63b8ff" stroke="#63b8ff" points="87.81,-131.36 77.46,-129.09 84.14,-137.32 87.81,-131.36"/>
</a>
</g>
</g>
<!-- Node32 -->
<g id="Node000032" class="node">
<title>Node32</title>
<g id="a_Node000032"><a xlink:href="fbx__loader_8h.html" target="_top" xlink:title=" ">
<polygon fill="white" stroke="#666666" points="197,-129 120,-129 120,-110 197,-110 197,-129"/>
<text text-anchor="middle" x="158.5" y="-117" font-family="Helvetica,sans-Serif" font-size="10.00">fbx_loader.h</text>
</a>
</g>
</g>
<!-- Node29&#45;&gt;Node32 -->
<g id="edge34_Node000029_Node000032" class="edge">
<title>Node29&#45;&gt;Node32</title>
<g id="a_edge34_Node000029_Node000032"><a xlink:title=" ">
<path fill="none" stroke="#63b8ff" d="M158.5,-164.84C158.5,-157.21 158.5,-147.7 158.5,-139.45"/>
<polygon fill="#63b8ff" stroke="#63b8ff" points="162,-139.27 158.5,-129.27 155,-139.27 162,-139.27"/>
</a>
</g>
</g>
<!-- Node34 -->
<g id="Node000034" class="node">
<title>Node34</title>
<g id="a_Node000034"><a xlink:href="input_8h.html" target="_top" xlink:title=" ">
<polygon fill="white" stroke="#666666" points="1074,-250 1003,-250 1003,-231 1074,-231 1074,-250"/>
<text text-anchor="middle" x="1038.5" y="-238" font-family="Helvetica,sans-Serif" font-size="10.00">../io/input.h</text>
</a>
</g>
</g>
<!-- Node33&#45;&gt;Node34 -->
<g id="edge36_Node000033_Node000034" class="edge">
<title>Node33&#45;&gt;Node34</title>
<g id="a_edge36_Node000033_Node000034"><a xlink:title=" ">
<path fill="none" stroke="#63b8ff" d="M1038.5,-285.75C1038.5,-278.8 1038.5,-268.85 1038.5,-260.13"/>
<polygon fill="#63b8ff" stroke="#63b8ff" points="1042,-260.09 1038.5,-250.09 1035,-260.09 1042,-260.09"/>
</a>
</g>
</g>
<!-- Node35 -->
<g id="Node000035" class="node">
<title>Node35</title>
<g id="a_Node000035"><a xlink:href="signals_8h.html" target="_top" xlink:title="Signal and slot system for C projects.">
<polygon fill="white" stroke="#666666" points="1152.5,-250 1092.5,-250 1092.5,-231 1152.5,-231 1152.5,-250"/>
<text text-anchor="middle" x="1122.5" y="-238" font-family="Helvetica,sans-Serif" font-size="10.00">signals.h</text>
</a>
</g>
</g>
<!-- Node33&#45;&gt;Node35 -->
<g id="edge37_Node000033_Node000035" class="edge">
<title>Node33&#45;&gt;Node35</title>
<g id="a_edge37_Node000033_Node000035"><a xlink:title=" ">
<path fill="none" stroke="#63b8ff" d="M1052,-285.98C1064.9,-277.84 1084.6,-265.41 1099.9,-255.76"/>
<polygon fill="#63b8ff" stroke="#63b8ff" points="1102.17,-258.47 1108.76,-250.17 1098.43,-252.55 1102.17,-258.47"/>
</a>
</g>
</g>
<!-- Node36&#45;&gt;Node34 -->
<g id="edge39_Node000036_Node000034" class="edge">
<title>Node36&#45;&gt;Node34</title>
<g id="a_edge39_Node000036_Node000034"><a xlink:title=" ">
<path fill="none" stroke="#63b8ff" d="M773.03,-286C827.07,-277.74 911.09,-264.59 993,-250.22"/>
<polygon fill="#63b8ff" stroke="#63b8ff" points="993.74,-253.65 1002.98,-248.46 992.52,-246.75 993.74,-253.65"/>
</a>
</g>
</g>
</g>
</svg>
