<?xml version="1.0" encoding="UTF-8" standalone="no"?>
<!DOCTYPE svg PUBLIC "-//W3C//DTD SVG 1.1//EN"
 "http://www.w3.org/Graphics/SVG/1.1/DTD/svg11.dtd">
<!-- Generated by graphviz version 2.43.0 (0)
 -->
<!-- Title: src/io/model_loaders/obj_loader.h Pages: 1 -->
<svg width="7279pt" height="225pt"
 viewBox="0.00 0.00 7279.00 225.00" xmlns="http://www.w3.org/2000/svg" xmlns:xlink="http://www.w3.org/1999/xlink">
<g id="graph0" class="graph" transform="scale(1 1) rotate(0) translate(4 221)">
<title>src/io/model_loaders/obj_loader.h</title>
<!-- Node1 -->
<g id="Node000001" class="node">
<title>Node1</title>
<g id="a_Node000001"><a xlink:title=" ">
<polygon fill="#999999" stroke="#666666" points="3783,-217 3665,-217 3665,-187 3783,-187 3783,-217"/>
<text text-anchor="start" x="3673" y="-205" font-family="Helvetica,sans-Serif" font-size="10.00">src/io/model_loaders</text>
<text text-anchor="middle" x="3724" y="-194" font-family="Helvetica,sans-Serif" font-size="10.00">/obj_loader.h</text>
</a>
</g>
</g>
<!-- Node2 -->
<g id="Node000002" class="node">
<title>Node2</title>
<g id="a_Node000002"><a xlink:href="model__loader_8c.html" target="_top" xlink:title=" ">
<polygon fill="white" stroke="#666666" points="118,-30 0,-30 0,0 118,0 118,-30"/>
<text text-anchor="start" x="8" y="-18" font-family="Helvetica,sans-Serif" font-size="10.00">src/io/model_loaders</text>
<text text-anchor="middle" x="59" y="-7" font-family="Helvetica,sans-Serif" font-size="10.00">/model_loader.c</text>
</a>
</g>
</g>
<!-- Node1&#45;&gt;Node2 -->
<g id="edge1_Node000001_Node000002" class="edge">
<title>Node1&#45;&gt;Node2</title>
<g id="a_edge1_Node000001_Node000002"><a xlink:title=" ">
<path fill="none" stroke="#63b8ff" d="M3654.71,-199.18C3218.43,-187.5 846.89,-120.66 127,-30 124.13,-29.64 121.2,-29.22 118.25,-28.76"/>
<polygon fill="#63b8ff" stroke="#63b8ff" points="3654.86,-202.68 3664.95,-199.45 3655.05,-195.69 3654.86,-202.68"/>
</a>
</g>
</g>
<!-- Node3 -->
<g id="Node000003" class="node">
<title>Node3</title>
<g id="a_Node000003"><a xlink:href="model__loader_8h.html" target="_top" xlink:title=" ">
<polygon fill="white" stroke="#666666" points="3783,-151 3665,-151 3665,-121 3783,-121 3783,-151"/>
<text text-anchor="start" x="3673" y="-139" font-family="Helvetica,sans-Serif" font-size="10.00">src/io/model_loaders</text>
<text text-anchor="middle" x="3724" y="-128" font-family="Helvetica,sans-Serif" font-size="10.00">/model_loader.h</text>
</a>
</g>
</g>
<!-- Node1&#45;&gt;Node3 -->
<g id="edge2_Node000001_Node000003" class="edge">
<title>Node1&#45;&gt;Node3</title>
<g id="a_edge2_Node000001_Node000003"><a xlink:title=" ">
<path fill="none" stroke="#63b8ff" d="M3724,-176.54C3724,-167.96 3724,-158.61 3724,-151.16"/>
<polygon fill="#63b8ff" stroke="#63b8ff" points="3720.5,-176.8 3724,-186.8 3727.5,-176.8 3720.5,-176.8"/>
</a>
</g>
</g>
<!-- Node46 -->
<g id="Node000046" class="node">
<title>Node46</title>
<g id="a_Node000046"><a xlink:href="obj__loader_8c.html" target="_top" xlink:title=" ">
<polygon fill="white" stroke="#666666" points="7271,-30 7153,-30 7153,0 7271,0 7271,-30"/>
<text text-anchor="start" x="7161" y="-18" font-family="Helvetica,sans-Serif" font-size="10.00">src/io/model_loaders</text>
<text text-anchor="middle" x="7212" y="-7" font-family="Helvetica,sans-Serif" font-size="10.00">/obj_loader.c</text>
</a>
</g>
</g>
<!-- Node1&#45;&gt;Node46 -->
<g id="edge51_Node000001_Node000046" class="edge">
<title>Node1&#45;&gt;Node46</title>
<g id="a_edge51_Node000001_Node000046"><a xlink:title=" ">
<path fill="none" stroke="#63b8ff" d="M3793.25,-201.46C4148.79,-203.03 5804.13,-200.41 7144,-30 7146.87,-29.64 7149.8,-29.22 7152.75,-28.75"/>
<polygon fill="#63b8ff" stroke="#63b8ff" points="3793.13,-197.96 3783.12,-201.42 3793.1,-204.96 3793.13,-197.96"/>
</a>
</g>
</g>
<!-- Node4 -->
<g id="Node000004" class="node">
<title>Node4</title>
<g id="a_Node000004"><a xlink:href="model_8h.html" target="_top" xlink:title="Defines structures and functions for handling 3D models and their properties.">
<polygon fill="#fff0f0" stroke="red" points="3767,-85 3681,-85 3681,-66 3767,-66 3767,-85"/>
<text text-anchor="middle" x="3724" y="-73" font-family="Helvetica,sans-Serif" font-size="10.00">src/io/model.h</text>
</a>
</g>
</g>
<!-- Node3&#45;&gt;Node4 -->
<g id="edge3_Node000003_Node000004" class="edge">
<title>Node3&#45;&gt;Node4</title>
<g id="a_edge3_Node000003_Node000004"><a xlink:title=" ">
<path fill="none" stroke="#63b8ff" d="M3724,-110.75C3724,-101.72 3724,-92.03 3724,-85.27"/>
<polygon fill="#63b8ff" stroke="#63b8ff" points="3720.5,-110.84 3724,-120.84 3727.5,-110.84 3720.5,-110.84"/>
</a>
</g>
</g>
<!-- Node4&#45;&gt;Node2 -->
<g id="edge44_Node000004_Node000002" class="edge">
<title>Node4&#45;&gt;Node2</title>
<g id="a_edge44_Node000004_Node000002"><a xlink:title=" ">
<path fill="none" stroke="#63b8ff" d="M3670.95,-74.13C3239.03,-71.11 311,-49.9 127,-30 124.12,-29.69 121.19,-29.31 118.23,-28.89"/>
<polygon fill="#63b8ff" stroke="#63b8ff" points="3670.95,-77.63 3680.97,-74.2 3671,-70.63 3670.95,-77.63"/>
</a>
</g>
</g>
<!-- Node5 -->
<g id="Node000005" class="node">
<title>Node5</title>
<g id="a_Node000005"><a xlink:href="node_8class_8c.html" target="_top" xlink:title="Implementation of the node class for the ProjetSDLOpenGLL2 project.">
<polygon fill="white" stroke="#666666" points="269.5,-24.5 136.5,-24.5 136.5,-5.5 269.5,-5.5 269.5,-24.5"/>
<text text-anchor="middle" x="203" y="-12.5" font-family="Helvetica,sans-Serif" font-size="10.00">src/classes/node.class.c</text>
</a>
</g>
</g>
<!-- Node4&#45;&gt;Node5 -->
<g id="edge4_Node000004_Node000005" class="edge">
<title>Node4&#45;&gt;Node5</title>
<g id="a_edge4_Node000004_Node000005"><a xlink:title=" ">
<path fill="none" stroke="#63b8ff" d="M3670.78,-74.36C3262.25,-73.19 630.27,-64.37 279,-30 266.98,-28.82 254.02,-26.74 242.27,-24.54"/>
<polygon fill="#63b8ff" stroke="#63b8ff" points="3670.84,-77.86 3680.85,-74.39 3670.86,-70.86 3670.84,-77.86"/>
</a>
</g>
</g>
<!-- Node6 -->
<g id="Node000006" class="node">
<title>Node6</title>
<g id="a_Node000006"><a xlink:href="camera_8class_8c.html" target="_top" xlink:title="This file contains the implementation of the Camera class.">
<polygon fill="white" stroke="#666666" points="466,-24.5 288,-24.5 288,-5.5 466,-5.5 466,-24.5"/>
<text text-anchor="middle" x="377" y="-12.5" font-family="Helvetica,sans-Serif" font-size="10.00">src/classes/nodes/camera.class.c</text>
</a>
</g>
</g>
<!-- Node4&#45;&gt;Node6 -->
<g id="edge5_Node000004_Node000006" class="edge">
<title>Node4&#45;&gt;Node6</title>
<g id="a_edge5_Node000004_Node000006"><a xlink:title=" ">
<path fill="none" stroke="#63b8ff" d="M3670.76,-74.18C3275.68,-71.78 806,-55.8 475,-30 459.58,-28.8 442.89,-26.71 427.73,-24.51"/>
<polygon fill="#63b8ff" stroke="#63b8ff" points="3670.76,-77.68 3680.78,-74.24 3670.8,-70.68 3670.76,-77.68"/>
</a>
</g>
</g>
<!-- Node7 -->
<g id="Node000007" class="node">
<title>Node7</title>
<g id="a_Node000007"><a xlink:href="box__cshape_8class_8c.html" target="_top" xlink:title="This source file defines the BoxCShape class and its associated methods.">
<polygon fill="white" stroke="#666666" points="629.5,-30 484.5,-30 484.5,0 629.5,0 629.5,-30"/>
<text text-anchor="start" x="492.5" y="-18" font-family="Helvetica,sans-Serif" font-size="10.00">src/classes/nodes/cshapes</text>
<text text-anchor="middle" x="557" y="-7" font-family="Helvetica,sans-Serif" font-size="10.00">/box_cshape.class.c</text>
</a>
</g>
</g>
<!-- Node4&#45;&gt;Node7 -->
<g id="edge6_Node000004_Node000007" class="edge">
<title>Node4&#45;&gt;Node7</title>
<g id="a_edge6_Node000004_Node000007"><a xlink:title=" ">
<path fill="none" stroke="#63b8ff" d="M3670.75,-74.24C3287.09,-72.27 951.25,-59.15 638,-30 635.3,-29.75 632.55,-29.46 629.79,-29.13"/>
<polygon fill="#63b8ff" stroke="#63b8ff" points="3670.73,-77.74 3680.75,-74.29 3670.77,-70.74 3670.73,-77.74"/>
</a>
</g>
</g>
<!-- Node8 -->
<g id="Node000008" class="node">
<title>Node8</title>
<g id="a_Node000008"><a xlink:href="capsule__cshape_8class_8c.html" target="_top" xlink:title="This file defines the implementation of the capsule shape class.">
<polygon fill="white" stroke="#666666" points="792.5,-30 647.5,-30 647.5,0 792.5,0 792.5,-30"/>
<text text-anchor="start" x="655.5" y="-18" font-family="Helvetica,sans-Serif" font-size="10.00">src/classes/nodes/cshapes</text>
<text text-anchor="middle" x="720" y="-7" font-family="Helvetica,sans-Serif" font-size="10.00">/capsule_cshape.class.c</text>
</a>
</g>
</g>
<!-- Node4&#45;&gt;Node8 -->
<g id="edge7_Node000004_Node000008" class="edge">
<title>Node4&#45;&gt;Node8</title>
<g id="a_edge7_Node000004_Node000008"><a xlink:title=" ">
<path fill="none" stroke="#63b8ff" d="M3670.69,-74.19C3298.67,-71.96 1096.93,-57.66 801,-30 798.3,-29.75 795.56,-29.46 792.79,-29.13"/>
<polygon fill="#63b8ff" stroke="#63b8ff" points="3670.88,-77.69 3680.91,-74.25 3670.93,-70.69 3670.88,-77.69"/>
</a>
</g>
</g>
<!-- Node9 -->
<g id="Node000009" class="node">
<title>Node9</title>
<g id="a_Node000009"><a xlink:href="cshape_8class_8c.html" target="_top" xlink:title="This file defines the implementation of various CShape classes.">
<polygon fill="white" stroke="#666666" points="955.5,-30 810.5,-30 810.5,0 955.5,0 955.5,-30"/>
<text text-anchor="start" x="818.5" y="-18" font-family="Helvetica,sans-Serif" font-size="10.00">src/classes/nodes/cshapes</text>
<text text-anchor="middle" x="883" y="-7" font-family="Helvetica,sans-Serif" font-size="10.00">/cshape.class.c</text>
</a>
</g>
</g>
<!-- Node4&#45;&gt;Node9 -->
<g id="edge8_Node000004_Node000009" class="edge">
<title>Node4&#45;&gt;Node9</title>
<g id="a_edge8_Node000004_Node000009"><a xlink:title=" ">
<path fill="none" stroke="#63b8ff" d="M3670.86,-74.14C3311.49,-71.64 1242.68,-56.17 964,-30 961.3,-29.75 958.56,-29.45 955.79,-29.13"/>
<polygon fill="#63b8ff" stroke="#63b8ff" points="3670.96,-77.64 3680.99,-74.21 3671.01,-70.64 3670.96,-77.64"/>
</a>
</g>
</g>
<!-- Node10 -->
<g id="Node000010" class="node">
<title>Node10</title>
<g id="a_Node000010"><a xlink:href="mesh__cshape_8class_8c.html" target="_top" xlink:title="This file defines the implementation of mesh shapes for the project.">
<polygon fill="white" stroke="#666666" points="1118.5,-30 973.5,-30 973.5,0 1118.5,0 1118.5,-30"/>
<text text-anchor="start" x="981.5" y="-18" font-family="Helvetica,sans-Serif" font-size="10.00">src/classes/nodes/cshapes</text>
<text text-anchor="middle" x="1046" y="-7" font-family="Helvetica,sans-Serif" font-size="10.00">/mesh_cshape.class.c</text>
</a>
</g>
</g>
<!-- Node4&#45;&gt;Node10 -->
<g id="edge9_Node000004_Node000010" class="edge">
<title>Node4&#45;&gt;Node10</title>
<g id="a_edge9_Node000004_Node000010"><a xlink:title=" ">
<path fill="none" stroke="#63b8ff" d="M3670.9,-74.71C3348.15,-75.79 1646.34,-79.04 1127,-30 1124.3,-29.75 1121.56,-29.45 1118.79,-29.12"/>
<polygon fill="#63b8ff" stroke="#63b8ff" points="3670.93,-78.21 3680.92,-74.67 3670.91,-71.21 3670.93,-78.21"/>
</a>
</g>
</g>
<!-- Node11 -->
<g id="Node000011" class="node">
<title>Node11</title>
<g id="a_Node000011"><a xlink:href="plane__cshape_8class_8c.html" target="_top" xlink:title="This file defines the implementation of a plane shape class.">
<polygon fill="white" stroke="#666666" points="1281.5,-30 1136.5,-30 1136.5,0 1281.5,0 1281.5,-30"/>
<text text-anchor="start" x="1144.5" y="-18" font-family="Helvetica,sans-Serif" font-size="10.00">src/classes/nodes/cshapes</text>
<text text-anchor="middle" x="1209" y="-7" font-family="Helvetica,sans-Serif" font-size="10.00">/plane_cshape.class.c</text>
</a>
</g>
</g>
<!-- Node4&#45;&gt;Node11 -->
<g id="edge10_Node000004_Node000011" class="edge">
<title>Node4&#45;&gt;Node11</title>
<g id="a_edge10_Node000004_Node000011"><a xlink:title=" ">
<path fill="none" stroke="#63b8ff" d="M3670.82,-74.63C3359.95,-75.25 1774.92,-76.07 1290,-30 1287.3,-29.74 1284.56,-29.45 1281.79,-29.12"/>
<polygon fill="#63b8ff" stroke="#63b8ff" points="3670.93,-78.13 3680.92,-74.61 3670.91,-71.13 3670.93,-78.13"/>
</a>
</g>
</g>
<!-- Node12 -->
<g id="Node000012" class="node">
<title>Node12</title>
<g id="a_Node000012"><a xlink:href="ray__cshape_8class_8c.html" target="_top" xlink:title="This file defines the implementation of ray&#45;casting shapes.">
<polygon fill="white" stroke="#666666" points="1444.5,-30 1299.5,-30 1299.5,0 1444.5,0 1444.5,-30"/>
<text text-anchor="start" x="1307.5" y="-18" font-family="Helvetica,sans-Serif" font-size="10.00">src/classes/nodes/cshapes</text>
<text text-anchor="middle" x="1372" y="-7" font-family="Helvetica,sans-Serif" font-size="10.00">/ray_cshape.class.c</text>
</a>
</g>
</g>
<!-- Node4&#45;&gt;Node12 -->
<g id="edge11_Node000004_Node000012" class="edge">
<title>Node4&#45;&gt;Node12</title>
<g id="a_edge11_Node000004_Node000012"><a xlink:title=" ">
<path fill="none" stroke="#63b8ff" d="M3670.62,-74.55C3371.79,-74.69 1903.51,-73.1 1453,-30 1450.3,-29.74 1447.56,-29.44 1444.79,-29.12"/>
<polygon fill="#63b8ff" stroke="#63b8ff" points="3670.76,-78.05 3680.76,-74.55 3670.76,-71.05 3670.76,-78.05"/>
</a>
</g>
</g>
<!-- Node13 -->
<g id="Node000013" class="node">
<title>Node13</title>
<g id="a_Node000013"><a xlink:href="sphere__cshape_8class_8c.html" target="_top" xlink:title="This file contains the implementation of the SphereCShape class.">
<polygon fill="white" stroke="#666666" points="1607.5,-30 1462.5,-30 1462.5,0 1607.5,0 1607.5,-30"/>
<text text-anchor="start" x="1470.5" y="-18" font-family="Helvetica,sans-Serif" font-size="10.00">src/classes/nodes/cshapes</text>
<text text-anchor="middle" x="1535" y="-7" font-family="Helvetica,sans-Serif" font-size="10.00">/sphere_cshape.class.c</text>
</a>
</g>
</g>
<!-- Node4&#45;&gt;Node13 -->
<g id="edge12_Node000004_Node000013" class="edge">
<title>Node4&#45;&gt;Node13</title>
<g id="a_edge12_Node000004_Node000013"><a xlink:title=" ">
<path fill="none" stroke="#63b8ff" d="M3670.88,-74.44C3385.64,-73.98 2033.22,-69.71 1617,-30 1613.98,-29.71 1610.91,-29.38 1607.8,-29"/>
<polygon fill="#63b8ff" stroke="#63b8ff" points="3670.95,-77.94 3680.96,-74.46 3670.97,-70.94 3670.95,-77.94"/>
</a>
</g>
</g>
<!-- Node14 -->
<g id="Node000014" class="node">
<title>Node14</title>
<g id="a_Node000014"><a xlink:href="button_8class_8c.html" target="_top" xlink:title="This file defines the Button class and its associated methods.">
<polygon fill="white" stroke="#666666" points="1766,-30 1626,-30 1626,0 1766,0 1766,-30"/>
<text text-anchor="start" x="1634" y="-18" font-family="Helvetica,sans-Serif" font-size="10.00">src/classes/nodes/frames</text>
<text text-anchor="middle" x="1696" y="-7" font-family="Helvetica,sans-Serif" font-size="10.00">/button.class.c</text>
</a>
</g>
</g>
<!-- Node4&#45;&gt;Node14 -->
<g id="edge13_Node000004_Node000014" class="edge">
<title>Node4&#45;&gt;Node14</title>
<g id="a_edge13_Node000004_Node000014"><a xlink:title=" ">
<path fill="none" stroke="#63b8ff" d="M3670.98,-74.38C3398.96,-73.62 2158.02,-68.09 1775,-30 1772.09,-29.71 1769.12,-29.37 1766.13,-29"/>
<polygon fill="#63b8ff" stroke="#63b8ff" points="3670.98,-77.88 3680.99,-74.41 3671,-70.88 3670.98,-77.88"/>
</a>
</g>
</g>
<!-- Node15 -->
<g id="Node000015" class="node">
<title>Node15</title>
<g id="a_Node000015"><a xlink:href="checkbox_8class_8c.html" target="_top" xlink:title="Implementation of the Checkbox class for the GUI framework.">
<polygon fill="white" stroke="#666666" points="1924,-30 1784,-30 1784,0 1924,0 1924,-30"/>
<text text-anchor="start" x="1792" y="-18" font-family="Helvetica,sans-Serif" font-size="10.00">src/classes/nodes/frames</text>
<text text-anchor="middle" x="1854" y="-7" font-family="Helvetica,sans-Serif" font-size="10.00">/checkbox.class.c</text>
</a>
</g>
</g>
<!-- Node4&#45;&gt;Node15 -->
<g id="edge14_Node000004_Node000015" class="edge">
<title>Node4&#45;&gt;Node15</title>
<g id="a_edge14_Node000004_Node000015"><a xlink:title=" ">
<path fill="none" stroke="#63b8ff" d="M3670.36,-74.26C3410.72,-72.91 2282.7,-65.13 1933,-30 1930.09,-29.71 1927.13,-29.37 1924.13,-28.99"/>
<polygon fill="#63b8ff" stroke="#63b8ff" points="3670.63,-77.76 3680.65,-74.31 3670.67,-70.76 3670.63,-77.76"/>
</a>
</g>
</g>
<!-- Node16 -->
<g id="Node000016" class="node">
<title>Node16</title>
<g id="a_Node000016"><a xlink:href="control__frame_8class_8c.html" target="_top" xlink:title="This file defines the implementation of the control frame class.">
<polygon fill="white" stroke="#666666" points="2082,-30 1942,-30 1942,0 2082,0 2082,-30"/>
<text text-anchor="start" x="1950" y="-18" font-family="Helvetica,sans-Serif" font-size="10.00">src/classes/nodes/frames</text>
<text text-anchor="middle" x="2012" y="-7" font-family="Helvetica,sans-Serif" font-size="10.00">/control_frame.class.c</text>
</a>
</g>
</g>
<!-- Node4&#45;&gt;Node16 -->
<g id="edge15_Node000004_Node000016" class="edge">
<title>Node4&#45;&gt;Node16</title>
<g id="a_edge15_Node000004_Node000016"><a xlink:title=" ">
<path fill="none" stroke="#63b8ff" d="M3670.78,-74.11C3426.14,-72.16 2407.93,-62.22 2091,-30 2088.09,-29.7 2085.13,-29.36 2082.14,-28.98"/>
<polygon fill="#63b8ff" stroke="#63b8ff" points="3670.81,-77.61 3680.84,-74.19 3670.87,-70.61 3670.81,-77.61"/>
</a>
</g>
</g>
<!-- Node17 -->
<g id="Node000017" class="node">
<title>Node17</title>
<g id="a_Node000017"><a xlink:href="frame_8class_8c.html" target="_top" xlink:title="This file defines the implementation of frame&#45;related functionalities.">
<polygon fill="white" stroke="#666666" points="2240,-30 2100,-30 2100,0 2240,0 2240,-30"/>
<text text-anchor="start" x="2108" y="-18" font-family="Helvetica,sans-Serif" font-size="10.00">src/classes/nodes/frames</text>
<text text-anchor="middle" x="2170" y="-7" font-family="Helvetica,sans-Serif" font-size="10.00">/frame.class.c</text>
</a>
</g>
</g>
<!-- Node4&#45;&gt;Node17 -->
<g id="edge16_Node000004_Node000017" class="edge">
<title>Node4&#45;&gt;Node17</title>
<g id="a_edge16_Node000004_Node000017"><a xlink:title=" ">
<path fill="none" stroke="#63b8ff" d="M3670.8,-73.93C3441.07,-71.32 2533.08,-59.3 2249,-30 2246.09,-29.7 2243.13,-29.35 2240.14,-28.97"/>
<polygon fill="#63b8ff" stroke="#63b8ff" points="3670.86,-77.43 3680.9,-74.05 3670.94,-70.43 3670.86,-77.43"/>
</a>
</g>
</g>
<!-- Node18 -->
<g id="Node000018" class="node">
<title>Node18</title>
<g id="a_Node000018"><a xlink:href="image__frame_8class_8c.html" target="_top" xlink:title="This file contains the implementation of the ImageFrame class.">
<polygon fill="white" stroke="#666666" points="2398,-30 2258,-30 2258,0 2398,0 2398,-30"/>
<text text-anchor="start" x="2266" y="-18" font-family="Helvetica,sans-Serif" font-size="10.00">src/classes/nodes/frames</text>
<text text-anchor="middle" x="2328" y="-7" font-family="Helvetica,sans-Serif" font-size="10.00">/image_frame.class.c</text>
</a>
</g>
</g>
<!-- Node4&#45;&gt;Node18 -->
<g id="edge17_Node000004_Node000018" class="edge">
<title>Node4&#45;&gt;Node18</title>
<g id="a_edge17_Node000004_Node000018"><a xlink:title=" ">
<path fill="none" stroke="#63b8ff" d="M3670.64,-73.71C3456.4,-70.37 2658.28,-56.38 2407,-30 2404.09,-29.69 2401.13,-29.35 2398.14,-28.96"/>
<polygon fill="#63b8ff" stroke="#63b8ff" points="3670.63,-77.21 3680.69,-73.86 3670.74,-70.21 3670.63,-77.21"/>
</a>
</g>
</g>
<!-- Node19 -->
<g id="Node000019" class="node">
<title>Node19</title>
<g id="a_Node000019"><a xlink:href="input__area_8class_8c.html" target="_top" xlink:title="This file defines the InputArea class and its associated methods.">
<polygon fill="white" stroke="#666666" points="2556,-30 2416,-30 2416,0 2556,0 2556,-30"/>
<text text-anchor="start" x="2424" y="-18" font-family="Helvetica,sans-Serif" font-size="10.00">src/classes/nodes/frames</text>
<text text-anchor="middle" x="2486" y="-7" font-family="Helvetica,sans-Serif" font-size="10.00">/input_area.class.c</text>
</a>
</g>
</g>
<!-- Node4&#45;&gt;Node19 -->
<g id="edge18_Node000004_Node000019" class="edge">
<title>Node4&#45;&gt;Node19</title>
<g id="a_edge18_Node000004_Node000019"><a xlink:title=" ">
<path fill="none" stroke="#63b8ff" d="M3670.6,-75.04C3505.6,-76.17 2989.4,-75.54 2565,-30 2562.09,-29.69 2559.13,-29.33 2556.14,-28.94"/>
<polygon fill="#63b8ff" stroke="#63b8ff" points="3670.99,-78.54 3680.96,-74.97 3670.93,-71.54 3670.99,-78.54"/>
</a>
</g>
</g>
<!-- Node20 -->
<g id="Node000020" class="node">
<title>Node20</title>
<g id="a_Node000020"><a xlink:href="label_8class_8c.html" target="_top" xlink:title="This file defines the Label class and its associated functions.">
<polygon fill="white" stroke="#666666" points="2714,-30 2574,-30 2574,0 2714,0 2714,-30"/>
<text text-anchor="start" x="2582" y="-18" font-family="Helvetica,sans-Serif" font-size="10.00">src/classes/nodes/frames</text>
<text text-anchor="middle" x="2644" y="-7" font-family="Helvetica,sans-Serif" font-size="10.00">/label.class.c</text>
</a>
</g>
</g>
<!-- Node4&#45;&gt;Node20 -->
<g id="edge19_Node000004_Node000020" class="edge">
<title>Node4&#45;&gt;Node20</title>
<g id="a_edge19_Node000004_Node000020"><a xlink:title=" ">
<path fill="none" stroke="#63b8ff" d="M3670.63,-74.58C3520.76,-74.28 3083.5,-69.78 2723,-30 2720.09,-29.68 2717.13,-29.32 2714.14,-28.92"/>
<polygon fill="#63b8ff" stroke="#63b8ff" points="3670.91,-78.08 3680.92,-74.6 3670.92,-71.08 3670.91,-78.08"/>
</a>
</g>
</g>
<!-- Node21 -->
<g id="Node000021" class="node">
<title>Node21</title>
<g id="a_Node000021"><a xlink:href="radiobutton_8class_8c.html" target="_top" xlink:title="Implementation of the RadioButton class.">
<polygon fill="white" stroke="#666666" points="2872,-30 2732,-30 2732,0 2872,0 2872,-30"/>
<text text-anchor="start" x="2740" y="-18" font-family="Helvetica,sans-Serif" font-size="10.00">src/classes/nodes/frames</text>
<text text-anchor="middle" x="2802" y="-7" font-family="Helvetica,sans-Serif" font-size="10.00">/radiobutton.class.c</text>
</a>
</g>
</g>
<!-- Node4&#45;&gt;Node21 -->
<g id="edge20_Node000004_Node000021" class="edge">
<title>Node4&#45;&gt;Node21</title>
<g id="a_edge20_Node000004_Node000021"><a xlink:title=" ">
<path fill="none" stroke="#63b8ff" d="M3670.5,-73.95C3536.9,-72.08 3178,-64.03 2881,-30 2878.09,-29.67 2875.13,-29.29 2872.15,-28.89"/>
<polygon fill="#63b8ff" stroke="#63b8ff" points="3670.81,-77.45 3680.86,-74.09 3670.9,-70.45 3670.81,-77.45"/>
</a>
</g>
</g>
<!-- Node22 -->
<g id="Node000022" class="node">
<title>Node22</title>
<g id="a_Node000022"><a xlink:href="selectlist_8class_8c.html" target="_top" xlink:title="This file implements the functionality for a selectable list frame in the application.">
<polygon fill="white" stroke="#666666" points="3030,-30 2890,-30 2890,0 3030,0 3030,-30"/>
<text text-anchor="start" x="2898" y="-18" font-family="Helvetica,sans-Serif" font-size="10.00">src/classes/nodes/frames</text>
<text text-anchor="middle" x="2960" y="-7" font-family="Helvetica,sans-Serif" font-size="10.00">/selectlist.class.c</text>
</a>
</g>
</g>
<!-- Node4&#45;&gt;Node22 -->
<g id="edge21_Node000004_Node000022" class="edge">
<title>Node4&#45;&gt;Node22</title>
<g id="a_edge21_Node000004_Node000022"><a xlink:title=" ">
<path fill="none" stroke="#63b8ff" d="M3670.64,-73.04C3555.11,-69.44 3273.34,-58.29 3039,-30 3036.1,-29.65 3033.14,-29.26 3030.15,-28.85"/>
<polygon fill="#63b8ff" stroke="#63b8ff" points="3670.86,-76.55 3680.97,-73.36 3671.08,-69.55 3670.86,-76.55"/>
</a>
</g>
</g>
<!-- Node23 -->
<g id="Node000023" class="node">
<title>Node23</title>
<g id="a_Node000023"><a xlink:href="slider_8class_8c.html" target="_top" xlink:title=" ">
<polygon fill="white" stroke="#666666" points="3188,-30 3048,-30 3048,0 3188,0 3188,-30"/>
<text text-anchor="start" x="3056" y="-18" font-family="Helvetica,sans-Serif" font-size="10.00">src/classes/nodes/frames</text>
<text text-anchor="middle" x="3118" y="-7" font-family="Helvetica,sans-Serif" font-size="10.00">/slider.class.c</text>
</a>
</g>
</g>
<!-- Node4&#45;&gt;Node23 -->
<g id="edge22_Node000004_Node000023" class="edge">
<title>Node4&#45;&gt;Node23</title>
<g id="a_edge22_Node000004_Node000023"><a xlink:title=" ">
<path fill="none" stroke="#63b8ff" d="M3670.57,-71.6C3575.19,-66.07 3369.44,-52.51 3197,-30 3194.1,-29.62 3191.14,-29.21 3188.16,-28.78"/>
<polygon fill="#63b8ff" stroke="#63b8ff" points="3670.64,-75.11 3680.82,-72.19 3671.04,-68.12 3670.64,-75.11"/>
</a>
</g>
</g>
<!-- Node24 -->
<g id="Node000024" class="node">
<title>Node24</title>
<g id="a_Node000024"><a xlink:href="directional__light_8class_8c.html" target="_top" xlink:title="This file contains the implementation of the directional light class.">
<polygon fill="white" stroke="#666666" points="3340,-30 3206,-30 3206,0 3340,0 3340,-30"/>
<text text-anchor="start" x="3214" y="-18" font-family="Helvetica,sans-Serif" font-size="10.00">src/classes/nodes/lights</text>
<text text-anchor="middle" x="3273" y="-7" font-family="Helvetica,sans-Serif" font-size="10.00">/directional_light.class.c</text>
</a>
</g>
</g>
<!-- Node4&#45;&gt;Node24 -->
<g id="edge23_Node000004_Node000024" class="edge">
<title>Node4&#45;&gt;Node24</title>
<g id="a_edge23_Node000004_Node000024"><a xlink:title=" ">
<path fill="none" stroke="#63b8ff" d="M3670.56,-69.25C3597.69,-61.84 3463.15,-47.27 3349,-30 3346.08,-29.56 3343.1,-29.09 3340.1,-28.6"/>
<polygon fill="#63b8ff" stroke="#63b8ff" points="3670.55,-72.76 3680.86,-70.29 3671.26,-65.8 3670.55,-72.76"/>
</a>
</g>
</g>
<!-- Node25 -->
<g id="Node000025" class="node">
<title>Node25</title>
<g id="a_Node000025"><a xlink:href="light_8class_8c.html" target="_top" xlink:title="This file contains the implementation of the light class for the project.">
<polygon fill="white" stroke="#666666" points="3490,-30 3358,-30 3358,0 3490,0 3490,-30"/>
<text text-anchor="start" x="3366" y="-18" font-family="Helvetica,sans-Serif" font-size="10.00">src/classes/nodes/lights</text>
<text text-anchor="middle" x="3424" y="-7" font-family="Helvetica,sans-Serif" font-size="10.00">/light.class.c</text>
</a>
</g>
</g>
<!-- Node4&#45;&gt;Node25 -->
<g id="edge24_Node000004_Node000025" class="edge">
<title>Node4&#45;&gt;Node25</title>
<g id="a_edge24_Node000004_Node000025"><a xlink:title=" ">
<path fill="none" stroke="#63b8ff" d="M3670.66,-64.1C3620.26,-54.27 3544.51,-39.5 3490.26,-28.92"/>
<polygon fill="#63b8ff" stroke="#63b8ff" points="3670.21,-67.58 3680.7,-66.06 3671.55,-60.71 3670.21,-67.58"/>
</a>
</g>
</g>
<!-- Node26 -->
<g id="Node000026" class="node">
<title>Node26</title>
<g id="a_Node000026"><a xlink:href="point__light_8class_8c.html" target="_top" xlink:title="This file contains the implementation of the PointLight class.">
<polygon fill="white" stroke="#666666" points="3640,-30 3508,-30 3508,0 3640,0 3640,-30"/>
<text text-anchor="start" x="3516" y="-18" font-family="Helvetica,sans-Serif" font-size="10.00">src/classes/nodes/lights</text>
<text text-anchor="middle" x="3574" y="-7" font-family="Helvetica,sans-Serif" font-size="10.00">/point_light.class.c</text>
</a>
</g>
</g>
<!-- Node4&#45;&gt;Node26 -->
<g id="edge25_Node000004_Node000026" class="edge">
<title>Node4&#45;&gt;Node26</title>
<g id="a_edge25_Node000004_Node000026"><a xlink:title=" ">
<path fill="none" stroke="#63b8ff" d="M3692.8,-62.33C3668.7,-52.93 3635.31,-39.91 3610.06,-30.06"/>
<polygon fill="#63b8ff" stroke="#63b8ff" points="3691.6,-65.62 3702.19,-65.99 3694.14,-59.1 3691.6,-65.62"/>
</a>
</g>
</g>
<!-- Node27 -->
<g id="Node000027" class="node">
<title>Node27</title>
<g id="a_Node000027"><a xlink:href="spot__light_8class_8c.html" target="_top" xlink:title="This file contains the implementation of the SpotLight class.">
<polygon fill="white" stroke="#666666" points="3790,-30 3658,-30 3658,0 3790,0 3790,-30"/>
<text text-anchor="start" x="3666" y="-18" font-family="Helvetica,sans-Serif" font-size="10.00">src/classes/nodes/lights</text>
<text text-anchor="middle" x="3724" y="-7" font-family="Helvetica,sans-Serif" font-size="10.00">/spot_light.class.c</text>
</a>
</g>
</g>
<!-- Node4&#45;&gt;Node27 -->
<g id="edge26_Node000004_Node000027" class="edge">
<title>Node4&#45;&gt;Node27</title>
<g id="a_edge26_Node000004_Node000027"><a xlink:title=" ">
<path fill="none" stroke="#63b8ff" d="M3724,-55.65C3724,-47.36 3724,-37.78 3724,-30.11"/>
<polygon fill="#63b8ff" stroke="#63b8ff" points="3720.5,-55.87 3724,-65.87 3727.5,-55.87 3720.5,-55.87"/>
</a>
</g>
</g>
<!-- Node28 -->
<g id="Node000028" class="node">
<title>Node28</title>
<g id="a_Node000028"><a xlink:href="mesh_8class_8c.html" target="_top" xlink:title="This file defines the implementation of the Mesh class.">
<polygon fill="white" stroke="#666666" points="3976,-24.5 3808,-24.5 3808,-5.5 3976,-5.5 3976,-24.5"/>
<text text-anchor="middle" x="3892" y="-12.5" font-family="Helvetica,sans-Serif" font-size="10.00">src/classes/nodes/mesh.class.c</text>
</a>
</g>
</g>
<!-- Node4&#45;&gt;Node28 -->
<g id="edge27_Node000004_Node000028" class="edge">
<title>Node4&#45;&gt;Node28</title>
<g id="a_edge27_Node000004_Node000028"><a xlink:title=" ">
<path fill="none" stroke="#63b8ff" d="M3757.97,-62.67C3790.46,-51.36 3838.66,-34.57 3867.54,-24.52"/>
<polygon fill="#63b8ff" stroke="#63b8ff" points="3756.72,-59.4 3748.43,-65.99 3759.02,-66.01 3756.72,-59.4"/>
</a>
</g>
</g>
<!-- Node29 -->
<g id="Node000029" class="node">
<title>Node29</title>
<g id="a_Node000029"><a xlink:href="model_8class_8c.html" target="_top" xlink:title="This file contains the implementation of the model class.">
<polygon fill="white" stroke="#666666" points="4166,-24.5 3994,-24.5 3994,-5.5 4166,-5.5 4166,-24.5"/>
<text text-anchor="middle" x="4080" y="-12.5" font-family="Helvetica,sans-Serif" font-size="10.00">src/classes/nodes/model.class.c</text>
</a>
</g>
</g>
<!-- Node4&#45;&gt;Node29 -->
<g id="edge28_Node000004_Node000029" class="edge">
<title>Node4&#45;&gt;Node29</title>
<g id="a_edge28_Node000004_Node000029"><a xlink:title=" ">
<path fill="none" stroke="#63b8ff" d="M3777.33,-65.74C3845.03,-54.61 3961.06,-35.54 4028.08,-24.53"/>
<polygon fill="#63b8ff" stroke="#63b8ff" points="3776.6,-62.31 3767.3,-67.39 3777.73,-69.22 3776.6,-62.31"/>
</a>
</g>
</g>
<!-- Node30 -->
<g id="Node000030" class="node">
<title>Node30</title>
<g id="a_Node000030"><a xlink:href="area_8class_8c.html" target="_top" xlink:title="This file handles the physics area nodes in the project.">
<polygon fill="white" stroke="#666666" points="4326,-30 4184,-30 4184,0 4326,0 4326,-30"/>
<text text-anchor="start" x="4192" y="-18" font-family="Helvetica,sans-Serif" font-size="10.00">src/classes/nodes/physics</text>
<text text-anchor="middle" x="4255" y="-7" font-family="Helvetica,sans-Serif" font-size="10.00">/area.class.c</text>
</a>
</g>
</g>
<!-- Node4&#45;&gt;Node30 -->
<g id="edge29_Node000004_Node000030" class="edge">
<title>Node4&#45;&gt;Node30</title>
<g id="a_edge29_Node000004_Node000030"><a xlink:title=" ">
<path fill="none" stroke="#63b8ff" d="M3777.15,-70.55C3861.64,-63.99 4031.69,-49.58 4175,-30 4177.93,-29.6 4180.92,-29.17 4183.94,-28.72"/>
<polygon fill="#63b8ff" stroke="#63b8ff" points="3776.73,-67.07 3767.03,-71.33 3777.27,-74.05 3776.73,-67.07"/>
</a>
</g>
</g>
<!-- Node31 -->
<g id="Node000031" class="node">
<title>Node31</title>
<g id="a_Node000031"><a xlink:href="body_8class_8c.html" target="_top" xlink:title="This file defines the body class for the physics engine.">
<polygon fill="white" stroke="#666666" points="4486,-30 4344,-30 4344,0 4486,0 4486,-30"/>
<text text-anchor="start" x="4352" y="-18" font-family="Helvetica,sans-Serif" font-size="10.00">src/classes/nodes/physics</text>
<text text-anchor="middle" x="4415" y="-7" font-family="Helvetica,sans-Serif" font-size="10.00">/bodies/body.class.c</text>
</a>
</g>
</g>
<!-- Node4&#45;&gt;Node31 -->
<g id="edge30_Node000004_Node000031" class="edge">
<title>Node4&#45;&gt;Node31</title>
<g id="a_edge30_Node000004_Node000031"><a xlink:title=" ">
<path fill="none" stroke="#63b8ff" d="M3777.26,-72.42C3883.61,-67.88 4129.67,-55.38 4335,-30 4337.94,-29.64 4340.93,-29.24 4343.96,-28.81"/>
<polygon fill="#63b8ff" stroke="#63b8ff" points="3776.95,-68.93 3767.11,-72.85 3777.25,-75.93 3776.95,-68.93"/>
</a>
</g>
</g>
<!-- Node32 -->
<g id="Node000032" class="node">
<title>Node32</title>
<g id="a_Node000032"><a xlink:href="kinematic__body_8class_8c.html" target="_top" xlink:title="This file defines the implementation of kinematic bodies for the physics engine.">
<polygon fill="white" stroke="#666666" points="4671.5,-30 4504.5,-30 4504.5,0 4671.5,0 4671.5,-30"/>
<text text-anchor="start" x="4512.5" y="-18" font-family="Helvetica,sans-Serif" font-size="10.00">src/classes/nodes/physics</text>
<text text-anchor="middle" x="4588" y="-7" font-family="Helvetica,sans-Serif" font-size="10.00">/bodies/kinematic_body.class.c</text>
</a>
</g>
</g>
<!-- Node4&#45;&gt;Node32 -->
<g id="edge31_Node000004_Node000032" class="edge">
<title>Node4&#45;&gt;Node32</title>
<g id="a_edge31_Node000004_Node000032"><a xlink:title=" ">
<path fill="none" stroke="#63b8ff" d="M3777.26,-73.11C3902.65,-69.47 4226.17,-57.93 4495,-30 4498.09,-29.68 4501.23,-29.33 4504.39,-28.96"/>
<polygon fill="#63b8ff" stroke="#63b8ff" points="3777.06,-69.61 3767.16,-73.4 3777.26,-76.61 3777.06,-69.61"/>
</a>
</g>
</g>
<!-- Node33 -->
<g id="Node000033" class="node">
<title>Node33</title>
<g id="a_Node000033"><a xlink:href="rigid__body_8class_8c.html" target="_top" xlink:title="This source file defines the implementation of rigid body physics for the project.">
<polygon fill="white" stroke="#666666" points="4832,-30 4690,-30 4690,0 4832,0 4832,-30"/>
<text text-anchor="start" x="4698" y="-18" font-family="Helvetica,sans-Serif" font-size="10.00">src/classes/nodes/physics</text>
<text text-anchor="middle" x="4761" y="-7" font-family="Helvetica,sans-Serif" font-size="10.00">/bodies/rigid_body.class.c</text>
</a>
</g>
</g>
<!-- Node4&#45;&gt;Node33 -->
<g id="edge32_Node000004_Node000033" class="edge">
<title>Node4&#45;&gt;Node33</title>
<g id="a_edge32_Node000004_Node000033"><a xlink:title=" ">
<path fill="none" stroke="#63b8ff" d="M3777.49,-74.39C3923.04,-73.56 4338.27,-67.8 4681,-30 4683.94,-29.68 4686.94,-29.31 4689.97,-28.91"/>
<polygon fill="#63b8ff" stroke="#63b8ff" points="3777.06,-70.89 3767.07,-74.44 3777.09,-77.89 3777.06,-70.89"/>
</a>
</g>
</g>
<!-- Node34 -->
<g id="Node000034" class="node">
<title>Node34</title>
<g id="a_Node000034"><a xlink:href="static__body_8class_8c.html" target="_top" xlink:title="This file defines the implementation of static bodies in the physics engine.">
<polygon fill="white" stroke="#666666" points="4996,-30 4850,-30 4850,0 4996,0 4996,-30"/>
<text text-anchor="start" x="4858" y="-18" font-family="Helvetica,sans-Serif" font-size="10.00">src/classes/nodes/physics</text>
<text text-anchor="middle" x="4923" y="-7" font-family="Helvetica,sans-Serif" font-size="10.00">/bodies/static_body.class.c</text>
</a>
</g>
</g>
<!-- Node4&#45;&gt;Node34 -->
<g id="edge33_Node000004_Node000034" class="edge">
<title>Node4&#45;&gt;Node34</title>
<g id="a_edge33_Node000004_Node000034"><a xlink:title=" ">
<path fill="none" stroke="#63b8ff" d="M3777.11,-74.81C3937.89,-75.25 4433.27,-72.75 4841,-30 4843.87,-29.7 4846.8,-29.36 4849.75,-28.99"/>
<polygon fill="#63b8ff" stroke="#63b8ff" points="3777.02,-71.31 3767.01,-74.78 3777,-78.31 3777.02,-71.31"/>
</a>
</g>
</g>
<!-- Node35 -->
<g id="Node000035" class="node">
<title>Node35</title>
<g id="a_Node000035"><a xlink:href="physical__node_8class_8c.html" target="_top" xlink:title="This file contains the implementation of the PhysicalNode class.">
<polygon fill="white" stroke="#666666" points="5156,-30 5014,-30 5014,0 5156,0 5156,-30"/>
<text text-anchor="start" x="5022" y="-18" font-family="Helvetica,sans-Serif" font-size="10.00">src/classes/nodes/physics</text>
<text text-anchor="middle" x="5085" y="-7" font-family="Helvetica,sans-Serif" font-size="10.00">/physical_node.class.c</text>
</a>
</g>
</g>
<!-- Node4&#45;&gt;Node35 -->
<g id="edge34_Node000004_Node000035" class="edge">
<title>Node4&#45;&gt;Node35</title>
<g id="a_edge34_Node000004_Node000035"><a xlink:title=" ">
<path fill="none" stroke="#63b8ff" d="M3777.27,-73.63C3987.64,-70.06 4761.09,-55.45 5005,-30 5007.94,-29.69 5010.95,-29.34 5013.97,-28.96"/>
<polygon fill="#63b8ff" stroke="#63b8ff" points="3777.04,-70.14 3767.1,-73.81 3777.16,-77.14 3777.04,-70.14"/>
</a>
</g>
</g>
<!-- Node36 -->
<g id="Node000036" class="node">
<title>Node36</title>
<g id="a_Node000036"><a xlink:href="render__target_8class_8c.html" target="_top" xlink:title="Framebuffer class implementation.">
<polygon fill="white" stroke="#666666" points="5311.5,-30 5174.5,-30 5174.5,0 5311.5,0 5311.5,-30"/>
<text text-anchor="start" x="5182.5" y="-18" font-family="Helvetica,sans-Serif" font-size="10.00">src/classes/nodes/render</text>
<text text-anchor="middle" x="5243" y="-7" font-family="Helvetica,sans-Serif" font-size="10.00">_target.class.c</text>
</a>
</g>
</g>
<!-- Node4&#45;&gt;Node36 -->
<g id="edge35_Node000004_Node000036" class="edge">
<title>Node4&#45;&gt;Node36</title>
<g id="a_edge35_Node000004_Node000036"><a xlink:title=" ">
<path fill="none" stroke="#63b8ff" d="M3777.44,-73.9C4004.23,-71.19 4888.1,-58.97 5165,-30 5168.01,-29.69 5171.08,-29.32 5174.17,-28.92"/>
<polygon fill="#63b8ff" stroke="#63b8ff" points="3777.1,-70.4 3767.14,-74.02 3777.18,-77.4 3777.1,-70.4"/>
</a>
</g>
</g>
<!-- Node37 -->
<g id="Node000037" class="node">
<title>Node37</title>
<g id="a_Node000037"><a xlink:href="scene_8class_8c.html" target="_top" xlink:title="This file contains the implementation of the scene class.">
<polygon fill="white" stroke="#666666" points="5500,-24.5 5330,-24.5 5330,-5.5 5500,-5.5 5500,-24.5"/>
<text text-anchor="middle" x="5415" y="-12.5" font-family="Helvetica,sans-Serif" font-size="10.00">src/classes/nodes/scene.class.c</text>
</a>
</g>
</g>
<!-- Node4&#45;&gt;Node37 -->
<g id="edge36_Node000004_Node000037" class="edge">
<title>Node4&#45;&gt;Node37</title>
<g id="a_edge36_Node000004_Node000037"><a xlink:title=" ">
<path fill="none" stroke="#63b8ff" d="M3777.57,-73.87C4019.45,-70.9 5011.32,-57.28 5321,-30 5335.46,-28.73 5351.09,-26.67 5365.37,-24.53"/>
<polygon fill="#63b8ff" stroke="#63b8ff" points="3777.24,-70.38 3767.29,-74 3777.33,-77.38 3777.24,-70.38"/>
</a>
</g>
</g>
<!-- Node38 -->
<g id="Node000038" class="node">
<title>Node38</title>
<g id="a_Node000038"><a xlink:href="skybox_8class_8c.html" target="_top" xlink:title="This file contains the implementation of the Skybox class.">
<polygon fill="white" stroke="#666666" points="5694,-24.5 5518,-24.5 5518,-5.5 5694,-5.5 5694,-24.5"/>
<text text-anchor="middle" x="5606" y="-12.5" font-family="Helvetica,sans-Serif" font-size="10.00">src/classes/nodes/skybox.class.c</text>
</a>
</g>
</g>
<!-- Node4&#45;&gt;Node38 -->
<g id="edge37_Node000004_Node000038" class="edge">
<title>Node4&#45;&gt;Node38</title>
<g id="a_edge37_Node000004_Node000038"><a xlink:title=" ">
<path fill="none" stroke="#63b8ff" d="M3777.44,-74.02C4036.11,-71.58 5159.96,-59.44 5509,-30 5524,-28.73 5540.23,-26.67 5555.03,-24.51"/>
<polygon fill="#63b8ff" stroke="#63b8ff" points="3777.15,-70.52 3767.19,-74.12 3777.22,-77.52 3777.15,-70.52"/>
</a>
</g>
</g>
<!-- Node39 -->
<g id="Node000039" class="node">
<title>Node39</title>
<g id="a_Node000039"><a xlink:href="texture_8class_8c.html" target="_top" xlink:title="This file contains the implementation of texture&#45;related functionalities.">
<polygon fill="white" stroke="#666666" points="5888,-24.5 5712,-24.5 5712,-5.5 5888,-5.5 5888,-24.5"/>
<text text-anchor="middle" x="5800" y="-12.5" font-family="Helvetica,sans-Serif" font-size="10.00">src/classes/nodes/texture.class.c</text>
</a>
</g>
</g>
<!-- Node4&#45;&gt;Node39 -->
<g id="edge38_Node000004_Node000039" class="edge">
<title>Node4&#45;&gt;Node39</title>
<g id="a_edge38_Node000004_Node000039"><a xlink:title=" ">
<path fill="none" stroke="#63b8ff" d="M3777.37,-74.17C4052.55,-72.36 5313.3,-62.38 5703,-30 5718.01,-28.75 5734.23,-26.69 5749.04,-24.54"/>
<polygon fill="#63b8ff" stroke="#63b8ff" points="3777.22,-70.67 3767.25,-74.24 3777.27,-77.67 3777.22,-70.67"/>
</a>
</g>
</g>
<!-- Node40 -->
<g id="Node000040" class="node">
<title>Node40</title>
<g id="a_Node000040"><a xlink:href="textured__mesh_8class_8c.html" target="_top" xlink:title="This file contains the implementation of the TexturedMesh class.">
<polygon fill="white" stroke="#666666" points="6052,-30 5906,-30 5906,0 6052,0 6052,-30"/>
<text text-anchor="start" x="5914" y="-18" font-family="Helvetica,sans-Serif" font-size="10.00">src/classes/nodes/textured</text>
<text text-anchor="middle" x="5979" y="-7" font-family="Helvetica,sans-Serif" font-size="10.00">_mesh.class.c</text>
</a>
</g>
</g>
<!-- Node4&#45;&gt;Node40 -->
<g id="edge39_Node000004_Node000040" class="edge">
<title>Node4&#45;&gt;Node40</title>
<g id="a_edge39_Node000004_Node000040"><a xlink:title=" ">
<path fill="none" stroke="#63b8ff" d="M3777.36,-74.48C4068.43,-74.23 5467.04,-70.88 5897,-30 5899.88,-29.73 5902.8,-29.41 5905.75,-29.06"/>
<polygon fill="#63b8ff" stroke="#63b8ff" points="3777.08,-70.98 3767.08,-74.49 3777.09,-77.98 3777.08,-70.98"/>
</a>
</g>
</g>
<!-- Node41 -->
<g id="Node000041" class="node">
<title>Node41</title>
<g id="a_Node000041"><a xlink:href="gltexture__loader_8c.html" target="_top" xlink:title=" ">
<polygon fill="white" stroke="#666666" points="6204,-24.5 6070,-24.5 6070,-5.5 6204,-5.5 6204,-24.5"/>
<text text-anchor="middle" x="6137" y="-12.5" font-family="Helvetica,sans-Serif" font-size="10.00">src/io/gltexture_loader.c</text>
</a>
</g>
</g>
<!-- Node4&#45;&gt;Node41 -->
<g id="edge40_Node000004_Node000041" class="edge">
<title>Node4&#45;&gt;Node41</title>
<g id="a_edge40_Node000004_Node000041"><a xlink:title=" ">
<path fill="none" stroke="#63b8ff" d="M3777.45,-74.67C4081.62,-75.44 5596.89,-76.85 6061,-30 6072.88,-28.8 6085.69,-26.74 6097.34,-24.57"/>
<polygon fill="#63b8ff" stroke="#63b8ff" points="3777.16,-71.17 3767.15,-74.64 3777.14,-78.17 3777.16,-71.17"/>
</a>
</g>
</g>
<!-- Node42 -->
<g id="Node000042" class="node">
<title>Node42</title>
<g id="a_Node000042"><a xlink:href="input_8c.html" target="_top" xlink:title=" ">
<polygon fill="white" stroke="#666666" points="6301.5,-24.5 6222.5,-24.5 6222.5,-5.5 6301.5,-5.5 6301.5,-24.5"/>
<text text-anchor="middle" x="6262" y="-12.5" font-family="Helvetica,sans-Serif" font-size="10.00">src/io/input.c</text>
</a>
</g>
</g>
<!-- Node4&#45;&gt;Node42 -->
<g id="edge41_Node000004_Node000042" class="edge">
<title>Node4&#45;&gt;Node42</title>
<g id="a_edge41_Node000004_Node000042"><a xlink:title=" ">
<path fill="none" stroke="#63b8ff" d="M3777.48,-74.38C4116.87,-73.5 5964.71,-67.04 6213,-30 6220.88,-28.83 6229.27,-26.75 6236.84,-24.54"/>
<polygon fill="#63b8ff" stroke="#63b8ff" points="3777.41,-70.88 3767.42,-74.4 3777.43,-77.88 3777.41,-70.88"/>
</a>
</g>
</g>
<!-- Node43 -->
<g id="Node000043" class="node">
<title>Node43</title>
<g id="a_Node000043"><a xlink:href="model_8c.html" target="_top" xlink:title=" ">
<polygon fill="white" stroke="#666666" points="6404.5,-24.5 6319.5,-24.5 6319.5,-5.5 6404.5,-5.5 6404.5,-24.5"/>
<text text-anchor="middle" x="6362" y="-12.5" font-family="Helvetica,sans-Serif" font-size="10.00">src/io/model.c</text>
</a>
</g>
</g>
<!-- Node4&#45;&gt;Node43 -->
<g id="edge42_Node000004_Node000043" class="edge">
<title>Node4&#45;&gt;Node43</title>
<g id="a_edge42_Node000004_Node000043"><a xlink:title=" ">
<path fill="none" stroke="#63b8ff" d="M3777.09,-74.39C4123.17,-73.54 6052.11,-67.16 6311,-30 6319.18,-28.83 6327.91,-26.75 6335.8,-24.54"/>
<polygon fill="#63b8ff" stroke="#63b8ff" points="3777.07,-70.89 3767.08,-74.41 3777.09,-77.89 3777.07,-70.89"/>
</a>
</g>
</g>
<!-- Node44 -->
<g id="Node000044" class="node">
<title>Node44</title>
<g id="a_Node000044"><a xlink:href="fbx__loader_8c.html" target="_top" xlink:title=" ">
<polygon fill="white" stroke="#666666" points="6541,-30 6423,-30 6423,0 6541,0 6541,-30"/>
<text text-anchor="start" x="6431" y="-18" font-family="Helvetica,sans-Serif" font-size="10.00">src/io/model_loaders</text>
<text text-anchor="middle" x="6482" y="-7" font-family="Helvetica,sans-Serif" font-size="10.00">/fbx_loader.c</text>
</a>
</g>
</g>
<!-- Node4&#45;&gt;Node44 -->
<g id="edge43_Node000004_Node000044" class="edge">
<title>Node4&#45;&gt;Node44</title>
<g id="a_edge43_Node000004_Node000044"><a xlink:title=" ">
<path fill="none" stroke="#63b8ff" d="M3777.47,-74.22C4132.46,-72.25 6143.26,-59.85 6414,-30 6416.88,-29.68 6419.81,-29.3 6422.77,-28.87"/>
<polygon fill="#63b8ff" stroke="#63b8ff" points="3777.19,-70.72 3767.21,-74.27 3777.23,-77.72 3777.19,-70.72"/>
</a>
</g>
</g>
<!-- Node45 -->
<g id="Node000045" class="node">
<title>Node45</title>
<g id="a_Node000045"><a xlink:href="mtl__loader_8c.html" target="_top" xlink:title=" ">
<polygon fill="white" stroke="#666666" points="6677,-30 6559,-30 6559,0 6677,0 6677,-30"/>
<text text-anchor="start" x="6567" y="-18" font-family="Helvetica,sans-Serif" font-size="10.00">src/io/model_loaders</text>
<text text-anchor="middle" x="6618" y="-7" font-family="Helvetica,sans-Serif" font-size="10.00">/mtl_loader.c</text>
</a>
</g>
</g>
<!-- Node4&#45;&gt;Node45 -->
<g id="edge45_Node000004_Node000045" class="edge">
<title>Node4&#45;&gt;Node45</title>
<g id="a_edge45_Node000004_Node000045"><a xlink:title=" ">
<path fill="none" stroke="#63b8ff" d="M3777.28,-74.26C4142.04,-72.55 6264.82,-61.32 6550,-30 6552.88,-29.68 6555.81,-29.3 6558.77,-28.88"/>
<polygon fill="#63b8ff" stroke="#63b8ff" points="3777.23,-70.76 3767.25,-74.31 3777.27,-77.76 3777.23,-70.76"/>
</a>
</g>
</g>
<!-- Node4&#45;&gt;Node46 -->
<g id="edge46_Node000004_Node000046" class="edge">
<title>Node4&#45;&gt;Node46</title>
<g id="a_edge46_Node000004_Node000046"><a xlink:title=" ">
<path fill="none" stroke="#63b8ff" d="M3777.16,-74.42C4183.83,-73.72 6795.75,-67.77 7144,-30 7146.88,-29.69 7149.81,-29.31 7152.77,-28.89"/>
<polygon fill="#63b8ff" stroke="#63b8ff" points="3777.13,-70.92 3767.14,-74.44 3777.14,-77.92 3777.13,-70.92"/>
</a>
</g>
</g>
<!-- Node47 -->
<g id="Node000047" class="node">
<title>Node47</title>
<g id="a_Node000047"><a xlink:href="node__loader_8c.html" target="_top" xlink:title=" ">
<polygon fill="white" stroke="#666666" points="6808.5,-24.5 6695.5,-24.5 6695.5,-5.5 6808.5,-5.5 6808.5,-24.5"/>
<text text-anchor="middle" x="6752" y="-12.5" font-family="Helvetica,sans-Serif" font-size="10.00">src/io/node_loader.c</text>
</a>
</g>
</g>
<!-- Node4&#45;&gt;Node47 -->
<g id="edge47_Node000004_Node000047" class="edge">
<title>Node4&#45;&gt;Node47</title>
<g id="a_edge47_Node000004_Node000047"><a xlink:title=" ">
<path fill="none" stroke="#63b8ff" d="M3777.16,-74.32C4151.64,-73 6386.47,-63.69 6686,-30 6696.48,-28.82 6707.74,-26.74 6717.95,-24.54"/>
<polygon fill="#63b8ff" stroke="#63b8ff" points="3777.12,-70.82 3767.14,-74.36 3777.15,-77.82 3777.12,-70.82"/>
</a>
</g>
</g>
<!-- Node48 -->
<g id="Node000048" class="node">
<title>Node48</title>
<g id="a_Node000048"><a xlink:href="scene__loader_8c.html" target="_top" xlink:title=" ">
<polygon fill="white" stroke="#666666" points="6945,-24.5 6827,-24.5 6827,-5.5 6945,-5.5 6945,-24.5"/>
<text text-anchor="middle" x="6886" y="-12.5" font-family="Helvetica,sans-Serif" font-size="10.00">src/io/scene_loader.c</text>
</a>
</g>
</g>
<!-- Node4&#45;&gt;Node48 -->
<g id="edge48_Node000004_Node000048" class="edge">
<title>Node4&#45;&gt;Node48</title>
<g id="a_edge48_Node000004_Node000048"><a xlink:title=" ">
<path fill="none" stroke="#63b8ff" d="M3777.1,-74.34C4160.89,-73.11 6504.36,-64.23 6818,-30 6828.78,-28.82 6840.39,-26.74 6850.91,-24.54"/>
<polygon fill="#63b8ff" stroke="#63b8ff" points="3777.08,-70.84 3767.09,-74.37 3777.1,-77.84 3777.08,-70.84"/>
</a>
</g>
</g>
<!-- Node49 -->
<g id="Node000049" class="node">
<title>Node49</title>
<g id="a_Node000049"><a xlink:href="shader_8c.html" target="_top" xlink:title=" ">
<polygon fill="white" stroke="#666666" points="7049,-24.5 6963,-24.5 6963,-5.5 7049,-5.5 7049,-24.5"/>
<text text-anchor="middle" x="7006" y="-12.5" font-family="Helvetica,sans-Serif" font-size="10.00">src/io/shader.c</text>
</a>
</g>
</g>
<!-- Node4&#45;&gt;Node49 -->
<g id="edge49_Node000004_Node000049" class="edge">
<title>Node4&#45;&gt;Node49</title>
<g id="a_edge49_Node000004_Node000049"><a xlink:title=" ">
<path fill="none" stroke="#63b8ff" d="M3777.24,-74.14C4184.11,-71.38 6790.16,-52.82 6954,-30 6962.33,-28.84 6971.24,-26.76 6979.27,-24.56"/>
<polygon fill="#63b8ff" stroke="#63b8ff" points="3777.19,-70.64 3767.21,-74.21 3777.23,-77.64 3777.19,-70.64"/>
</a>
</g>
</g>
<!-- Node50 -->
<g id="Node000050" class="node">
<title>Node50</title>
<g id="a_Node000050"><a xlink:href="main_8c.html" target="_top" xlink:title=" ">
<polygon fill="white" stroke="#666666" points="7134.5,-24.5 7067.5,-24.5 7067.5,-5.5 7134.5,-5.5 7134.5,-24.5"/>
<text text-anchor="middle" x="7101" y="-12.5" font-family="Helvetica,sans-Serif" font-size="10.00">src/main.c</text>
</a>
</g>
</g>
<!-- Node4&#45;&gt;Node50 -->
<g id="edge50_Node000004_Node000050" class="edge">
<title>Node4&#45;&gt;Node50</title>
<g id="a_edge50_Node000004_Node000050"><a xlink:title=" ">
<path fill="none" stroke="#63b8ff" d="M3777.32,-74.25C4191.96,-72.21 6889.33,-57.92 7058,-30 7064.97,-28.85 7072.36,-26.77 7079,-24.57"/>
<polygon fill="#63b8ff" stroke="#63b8ff" points="3777.09,-70.75 3767.11,-74.3 3777.13,-77.75 3777.09,-70.75"/>
</a>
</g>
</g>
</g>
</svg>
