<?xml version="1.0" encoding="UTF-8" standalone="no"?>
<!DOCTYPE svg PUBLIC "-//W3C//DTD SVG 1.1//EN"
 "http://www.w3.org/Graphics/SVG/1.1/DTD/svg11.dtd">
<!-- Generated by graphviz version 2.43.0 (0)
 -->
<!-- Title: src/io/osio.c Pages: 1 -->
<svg width="449pt" height="192pt"
 viewBox="0.00 0.00 449.00 192.00" xmlns="http://www.w3.org/2000/svg" xmlns:xlink="http://www.w3.org/1999/xlink">
<g id="graph0" class="graph" transform="scale(1 1) rotate(0) translate(4 188)">
<title>src/io/osio.c</title>
<!-- Node1 -->
<g id="Node000001" class="node">
<title>Node1</title>
<g id="a_Node000001"><a xlink:title=" ">
<polygon fill="#999999" stroke="#666666" points="270,-184 196,-184 196,-165 270,-165 270,-184"/>
<text text-anchor="middle" x="233" y="-172" font-family="Helvetica,sans-Serif" font-size="10.00">src/io/osio.c</text>
</a>
</g>
</g>
<!-- Node2 -->
<g id="Node000002" class="node">
<title>Node2</title>
<g id="a_Node000002"><a xlink:title=" ">
<polygon fill="#e0e0e0" stroke="#999999" points="50,-129 0,-129 0,-110 50,-110 50,-129"/>
<text text-anchor="middle" x="25" y="-117" font-family="Helvetica,sans-Serif" font-size="10.00">stdio.h</text>
</a>
</g>
</g>
<!-- Node1&#45;&gt;Node2 -->
<g id="edge1_Node000001_Node000002" class="edge">
<title>Node1&#45;&gt;Node2</title>
<g id="a_edge1_Node000001_Node000002"><a xlink:title=" ">
<path fill="none" stroke="#63b8ff" d="M199.58,-164.98C161.31,-155.23 98.91,-139.33 59.99,-129.42"/>
<polygon fill="#63b8ff" stroke="#63b8ff" points="60.71,-125.99 50.16,-126.91 58.99,-132.77 60.71,-125.99"/>
</a>
</g>
</g>
<!-- Node3 -->
<g id="Node000003" class="node">
<title>Node3</title>
<g id="a_Node000003"><a xlink:href="stringio_8h.html" target="_top" xlink:title="Provides utility functions for string and file operations.">
<polygon fill="white" stroke="#666666" points="130,-129 68,-129 68,-110 130,-110 130,-129"/>
<text text-anchor="middle" x="99" y="-117" font-family="Helvetica,sans-Serif" font-size="10.00">stringio.h</text>
</a>
</g>
</g>
<!-- Node1&#45;&gt;Node3 -->
<g id="edge2_Node000001_Node000003" class="edge">
<title>Node1&#45;&gt;Node3</title>
<g id="a_edge2_Node000001_Node000003"><a xlink:title=" ">
<path fill="none" stroke="#63b8ff" d="M211.47,-164.98C189.53,-156.3 155.26,-142.75 130.31,-132.88"/>
<polygon fill="#63b8ff" stroke="#63b8ff" points="131.51,-129.59 120.92,-129.17 128.93,-136.1 131.51,-129.59"/>
</a>
</g>
</g>
<!-- Node5 -->
<g id="Node000005" class="node">
<title>Node5</title>
<g id="a_Node000005"><a xlink:href="term_8h.html" target="_top" xlink:title=" ">
<polygon fill="white" stroke="#666666" points="232,-129 148,-129 148,-110 232,-110 232,-129"/>
<text text-anchor="middle" x="190" y="-117" font-family="Helvetica,sans-Serif" font-size="10.00">../term/term.h</text>
</a>
</g>
</g>
<!-- Node1&#45;&gt;Node5 -->
<g id="edge4_Node000001_Node000005" class="edge">
<title>Node1&#45;&gt;Node5</title>
<g id="a_edge4_Node000001_Node000005"><a xlink:title=" ">
<path fill="none" stroke="#63b8ff" d="M225.9,-164.75C219.83,-157.26 210.91,-146.28 203.49,-137.13"/>
<polygon fill="#63b8ff" stroke="#63b8ff" points="205.99,-134.65 196.97,-129.09 200.55,-139.06 205.99,-134.65"/>
</a>
</g>
</g>
<!-- Node8 -->
<g id="Node000008" class="node">
<title>Node8</title>
<g id="a_Node000008"><a xlink:title=" ">
<polygon fill="#e0e0e0" stroke="#999999" points="302.5,-129 249.5,-129 249.5,-110 302.5,-110 302.5,-129"/>
<text text-anchor="middle" x="276" y="-117" font-family="Helvetica,sans-Serif" font-size="10.00">stdlib.h</text>
</a>
</g>
</g>
<!-- Node1&#45;&gt;Node8 -->
<g id="edge7_Node000001_Node000008" class="edge">
<title>Node1&#45;&gt;Node8</title>
<g id="a_edge7_Node000001_Node000008"><a xlink:title=" ">
<path fill="none" stroke="#63b8ff" d="M240.1,-164.75C246.17,-157.26 255.09,-146.28 262.51,-137.13"/>
<polygon fill="#63b8ff" stroke="#63b8ff" points="265.45,-139.06 269.03,-129.09 260.01,-134.65 265.45,-139.06"/>
</a>
</g>
</g>
<!-- Node9 -->
<g id="Node000009" class="node">
<title>Node9</title>
<g id="a_Node000009"><a xlink:title=" ">
<polygon fill="#e0e0e0" stroke="#999999" points="377,-129 321,-129 321,-110 377,-110 377,-129"/>
<text text-anchor="middle" x="349" y="-117" font-family="Helvetica,sans-Serif" font-size="10.00">unistd.h</text>
</a>
</g>
</g>
<!-- Node1&#45;&gt;Node9 -->
<g id="edge8_Node000001_Node000009" class="edge">
<title>Node1&#45;&gt;Node9</title>
<g id="a_edge8_Node000001_Node000009"><a xlink:title=" ">
<path fill="none" stroke="#63b8ff" d="M251.64,-164.98C270.3,-156.46 299.25,-143.23 320.74,-133.41"/>
<polygon fill="#63b8ff" stroke="#63b8ff" points="322.38,-136.51 330.02,-129.17 319.47,-130.14 322.38,-136.51"/>
</a>
</g>
</g>
<!-- Node10 -->
<g id="Node000010" class="node">
<title>Node10</title>
<g id="a_Node000010"><a xlink:href="osio_8h.html" target="_top" xlink:title="File operations and error handling for the project.">
<polygon fill="white" stroke="#666666" points="441,-129 395,-129 395,-110 441,-110 441,-129"/>
<text text-anchor="middle" x="418" y="-117" font-family="Helvetica,sans-Serif" font-size="10.00">osio.h</text>
</a>
</g>
</g>
<!-- Node1&#45;&gt;Node10 -->
<g id="edge9_Node000001_Node000010" class="edge">
<title>Node1&#45;&gt;Node10</title>
<g id="a_edge9_Node000001_Node000010"><a xlink:title=" ">
<path fill="none" stroke="#63b8ff" d="M262.72,-164.98C296.19,-155.4 350.41,-139.86 385.12,-129.92"/>
<polygon fill="#63b8ff" stroke="#63b8ff" points="386.14,-133.27 394.79,-127.15 384.21,-126.54 386.14,-133.27"/>
</a>
</g>
</g>
<!-- Node4 -->
<g id="Node000004" class="node">
<title>Node4</title>
<g id="a_Node000004"><a xlink:title=" ">
<polygon fill="#e0e0e0" stroke="#999999" points="123.5,-74 70.5,-74 70.5,-55 123.5,-55 123.5,-74"/>
<text text-anchor="middle" x="97" y="-62" font-family="Helvetica,sans-Serif" font-size="10.00">string.h</text>
</a>
</g>
</g>
<!-- Node3&#45;&gt;Node4 -->
<g id="edge3_Node000003_Node000004" class="edge">
<title>Node3&#45;&gt;Node4</title>
<g id="a_edge3_Node000003_Node000004"><a xlink:title=" ">
<path fill="none" stroke="#63b8ff" d="M98.67,-109.75C98.41,-102.8 98.03,-92.85 97.7,-84.13"/>
<polygon fill="#63b8ff" stroke="#63b8ff" points="101.2,-83.95 97.32,-74.09 94.2,-84.21 101.2,-83.95"/>
</a>
</g>
</g>
<!-- Node6 -->
<g id="Node000006" class="node">
<title>Node6</title>
<g id="a_Node000006"><a xlink:href="enhanced__print_8h.html" target="_top" xlink:title=" ">
<polygon fill="white" stroke="#666666" points="242.5,-74 141.5,-74 141.5,-55 242.5,-55 242.5,-74"/>
<text text-anchor="middle" x="192" y="-62" font-family="Helvetica,sans-Serif" font-size="10.00">enhanced_print.h</text>
</a>
</g>
</g>
<!-- Node5&#45;&gt;Node6 -->
<g id="edge5_Node000005_Node000006" class="edge">
<title>Node5&#45;&gt;Node6</title>
<g id="a_edge5_Node000005_Node000006"><a xlink:title=" ">
<path fill="none" stroke="#63b8ff" d="M190.33,-109.75C190.59,-102.8 190.97,-92.85 191.3,-84.13"/>
<polygon fill="#63b8ff" stroke="#63b8ff" points="194.8,-84.21 191.68,-74.09 187.8,-83.95 194.8,-84.21"/>
</a>
</g>
</g>
<!-- Node7 -->
<g id="Node000007" class="node">
<title>Node7</title>
<g id="a_Node000007"><a xlink:href="color_8h.html" target="_top" xlink:title=" ">
<polygon fill="white" stroke="#666666" points="216.5,-19 167.5,-19 167.5,0 216.5,0 216.5,-19"/>
<text text-anchor="middle" x="192" y="-7" font-family="Helvetica,sans-Serif" font-size="10.00">color.h</text>
</a>
</g>
</g>
<!-- Node6&#45;&gt;Node7 -->
<g id="edge6_Node000006_Node000007" class="edge">
<title>Node6&#45;&gt;Node7</title>
<g id="a_edge6_Node000006_Node000007"><a xlink:title=" ">
<path fill="none" stroke="#63b8ff" d="M192,-54.75C192,-47.8 192,-37.85 192,-29.13"/>
<polygon fill="#63b8ff" stroke="#63b8ff" points="195.5,-29.09 192,-19.09 188.5,-29.09 195.5,-29.09"/>
</a>
</g>
</g>
</g>
</svg>
