<?xml version="1.0" encoding="UTF-8" standalone="no"?>
<!DOCTYPE svg PUBLIC "-//W3C//DTD SVG 1.1//EN"
 "http://www.w3.org/Graphics/SVG/1.1/DTD/svg11.dtd">
<!-- Generated by graphviz version 2.43.0 (0)
 -->
<!-- Title: src/physics/physics.c Pages: 1 -->
<svg width="2253pt" height="423pt"
 viewBox="0.00 0.00 2253.00 423.00" xmlns="http://www.w3.org/2000/svg" xmlns:xlink="http://www.w3.org/1999/xlink">
<g id="graph0" class="graph" transform="scale(1 1) rotate(0) translate(4 419)">
<title>src/physics/physics.c</title>
<!-- Node1 -->
<g id="Node000001" class="node">
<title>Node1</title>
<g id="a_Node000001"><a xlink:title=" ">
<polygon fill="#999999" stroke="#666666" points="1628.5,-415 1509.5,-415 1509.5,-396 1628.5,-396 1628.5,-415"/>
<text text-anchor="middle" x="1569" y="-403" font-family="Helvetica,sans-Serif" font-size="10.00">src/physics/physics.c</text>
</a>
</g>
</g>
<!-- Node2 -->
<g id="Node000002" class="node">
<title>Node2</title>
<g id="a_Node000002"><a xlink:href="raptiquax_8h.html" target="_top" xlink:title="This file contains type definitions for fixed&#45;width integer types and floating&#45;point types.">
<polygon fill="white" stroke="#666666" points="991.5,-250 910.5,-250 910.5,-231 991.5,-231 991.5,-250"/>
<text text-anchor="middle" x="951" y="-238" font-family="Helvetica,sans-Serif" font-size="10.00">../raptiquax.h</text>
</a>
</g>
</g>
<!-- Node1&#45;&gt;Node2 -->
<g id="edge1_Node000001_Node000002" class="edge">
<title>Node1&#45;&gt;Node2</title>
<g id="a_edge1_Node000001_Node000002"><a xlink:title=" ">
<path fill="none" stroke="#63b8ff" d="M1509.31,-403.71C1413.71,-401.46 1220.78,-392.85 1061,-360 984.46,-344.26 939.81,-368.31 894,-305 880.69,-286.6 903.76,-267.46 924.42,-255.07"/>
<polygon fill="#63b8ff" stroke="#63b8ff" points="926.33,-258.01 933.3,-250.04 922.88,-251.92 926.33,-258.01"/>
</a>
</g>
</g>
<!-- Node24 -->
<g id="Node000024" class="node">
<title>Node24</title>
<g id="a_Node000024"><a xlink:href="math__util_8h.html" target="_top" xlink:title=" ">
<polygon fill="white" stroke="#666666" points="892,-250 782,-250 782,-231 892,-231 892,-250"/>
<text text-anchor="middle" x="837" y="-238" font-family="Helvetica,sans-Serif" font-size="10.00">../math/math_util.h</text>
</a>
</g>
</g>
<!-- Node1&#45;&gt;Node24 -->
<g id="edge23_Node000001_Node000024" class="edge">
<title>Node1&#45;&gt;Node24</title>
<g id="a_edge23_Node000001_Node000024"><a xlink:title=" ">
<path fill="none" stroke="#63b8ff" d="M1509.24,-403.01C1360.58,-398.94 982.46,-386.11 932,-360 889.01,-337.76 858.83,-286.49 845.19,-259.26"/>
<polygon fill="#63b8ff" stroke="#63b8ff" points="848.27,-257.6 840.78,-250.11 841.97,-260.63 848.27,-257.6"/>
</a>
</g>
</g>
<!-- Node25 -->
<g id="Node000025" class="node">
<title>Node25</title>
<g id="a_Node000025"><a xlink:href="model_8h.html" target="_top" xlink:title="Defines structures and functions for handling 3D models and their properties.">
<polygon fill="white" stroke="#666666" points="1562.5,-250 1485.5,-250 1485.5,-231 1562.5,-231 1562.5,-250"/>
<text text-anchor="middle" x="1524" y="-238" font-family="Helvetica,sans-Serif" font-size="10.00">../io/model.h</text>
</a>
</g>
</g>
<!-- Node1&#45;&gt;Node25 -->
<g id="edge24_Node000001_Node000025" class="edge">
<title>Node1&#45;&gt;Node25</title>
<g id="a_edge24_Node000001_Node000025"><a xlink:title=" ">
<path fill="none" stroke="#63b8ff" d="M1509.48,-401.42C1448.4,-396.86 1359.36,-385.86 1338,-360 1293.56,-306.18 1406.71,-268.93 1475.56,-251.93"/>
<polygon fill="#63b8ff" stroke="#63b8ff" points="1476.47,-255.31 1485.37,-249.57 1474.83,-248.51 1476.47,-255.31"/>
</a>
</g>
</g>
<!-- Node31 -->
<g id="Node000031" class="node">
<title>Node31</title>
<g id="a_Node000031"><a xlink:href="framebuffer_8h.html" target="_top" xlink:title=" ">
<polygon fill="white" stroke="#666666" points="1781,-305 1655,-305 1655,-286 1781,-286 1781,-305"/>
<text text-anchor="middle" x="1718" y="-293" font-family="Helvetica,sans-Serif" font-size="10.00">../render/framebuffer.h</text>
</a>
</g>
</g>
<!-- Node1&#45;&gt;Node31 -->
<g id="edge30_Node000001_Node000031" class="edge">
<title>Node1&#45;&gt;Node31</title>
<g id="a_edge30_Node000001_Node000031"><a xlink:title=" ">
<path fill="none" stroke="#63b8ff" d="M1628.62,-395.98C1652.97,-389.71 1679.66,-378.84 1698,-360 1709.7,-347.97 1714.57,-329.16 1716.58,-315.13"/>
<polygon fill="#63b8ff" stroke="#63b8ff" points="1720.07,-315.45 1717.66,-305.13 1713.11,-314.69 1720.07,-315.45"/>
</a>
</g>
</g>
<!-- Node33 -->
<g id="Node000033" class="node">
<title>Node33</title>
<g id="a_Node000033"><a xlink:href="node_8h.html" target="_top" xlink:title=" ">
<polygon fill="white" stroke="#666666" points="1270,-360 1172,-360 1172,-341 1270,-341 1270,-360"/>
<text text-anchor="middle" x="1221" y="-348" font-family="Helvetica,sans-Serif" font-size="10.00">../storage/node.h</text>
</a>
</g>
</g>
<!-- Node1&#45;&gt;Node33 -->
<g id="edge32_Node000001_Node000033" class="edge">
<title>Node1&#45;&gt;Node33</title>
<g id="a_edge32_Node000001_Node000033"><a xlink:title=" ">
<path fill="none" stroke="#63b8ff" d="M1513.09,-395.98C1449.26,-386.26 1345.28,-370.43 1280.13,-360.51"/>
<polygon fill="#63b8ff" stroke="#63b8ff" points="1280.44,-357.01 1270.02,-358.97 1279.38,-363.93 1280.44,-357.01"/>
</a>
</g>
</g>
<!-- Node34 -->
<g id="Node000034" class="node">
<title>Node34</title>
<g id="a_Node000034"><a xlink:href="camera_8h.html" target="_top" xlink:title=" ">
<polygon fill="white" stroke="#666666" points="1009,-305 903,-305 903,-286 1009,-286 1009,-305"/>
<text text-anchor="middle" x="956" y="-293" font-family="Helvetica,sans-Serif" font-size="10.00">../render/camera.h</text>
</a>
</g>
</g>
<!-- Node1&#45;&gt;Node34 -->
<g id="edge46_Node000001_Node000034" class="edge">
<title>Node1&#45;&gt;Node34</title>
<g id="a_edge46_Node000001_Node000034"><a xlink:title=" ">
<path fill="none" stroke="#63b8ff" d="M1509.23,-403.3C1423.54,-400.5 1261.29,-391.15 1127,-360 1075,-347.94 1017.34,-324.23 984.02,-309.44"/>
<polygon fill="#63b8ff" stroke="#63b8ff" points="985.05,-306.07 974.49,-305.16 982.18,-312.45 985.05,-306.07"/>
</a>
</g>
</g>
<!-- Node35 -->
<g id="Node000035" class="node">
<title>Node35</title>
<g id="a_Node000035"><a xlink:href="bodies_8h.html" target="_top" xlink:title=" ">
<polygon fill="white" stroke="#666666" points="1134.5,-305 1027.5,-305 1027.5,-286 1134.5,-286 1134.5,-305"/>
<text text-anchor="middle" x="1081" y="-293" font-family="Helvetica,sans-Serif" font-size="10.00">../physics/bodies.h</text>
</a>
</g>
</g>
<!-- Node1&#45;&gt;Node35 -->
<g id="edge61_Node000001_Node000035" class="edge">
<title>Node1&#45;&gt;Node35</title>
<g id="a_edge61_Node000001_Node000035"><a xlink:title=" ">
<path fill="none" stroke="#63b8ff" d="M1509.42,-401.94C1412.27,-397.1 1224.39,-384.81 1163,-360 1136.56,-349.31 1111.45,-327.54 1096.14,-312.49"/>
<polygon fill="#63b8ff" stroke="#63b8ff" points="1098.59,-309.99 1089.08,-305.33 1093.61,-314.91 1098.59,-309.99"/>
</a>
</g>
</g>
<!-- Node38 -->
<g id="Node000038" class="node">
<title>Node38</title>
<g id="a_Node000038"><a xlink:href="window_8h.html" target="_top" xlink:title=" ">
<polygon fill="white" stroke="#666666" points="1546.5,-360 1475.5,-360 1475.5,-341 1546.5,-341 1546.5,-360"/>
<text text-anchor="middle" x="1511" y="-348" font-family="Helvetica,sans-Serif" font-size="10.00">../window.h</text>
</a>
</g>
</g>
<!-- Node1&#45;&gt;Node38 -->
<g id="edge45_Node000001_Node000038" class="edge">
<title>Node1&#45;&gt;Node38</title>
<g id="a_edge45_Node000001_Node000038"><a xlink:title=" ">
<path fill="none" stroke="#63b8ff" d="M1559.68,-395.98C1551.19,-388.23 1538.44,-376.58 1528.12,-367.14"/>
<polygon fill="#63b8ff" stroke="#63b8ff" points="1530.23,-364.33 1520.49,-360.17 1525.51,-369.5 1530.23,-364.33"/>
</a>
</g>
</g>
<!-- Node39 -->
<g id="Node000039" class="node">
<title>Node39</title>
<g id="a_Node000039"><a xlink:href="depth__map_8h.html" target="_top" xlink:title=" ">
<polygon fill="white" stroke="#666666" points="1689,-360 1565,-360 1565,-341 1689,-341 1689,-360"/>
<text text-anchor="middle" x="1627" y="-348" font-family="Helvetica,sans-Serif" font-size="10.00">../render/depth_map.h</text>
</a>
</g>
</g>
<!-- Node1&#45;&gt;Node39 -->
<g id="edge47_Node000001_Node000039" class="edge">
<title>Node1&#45;&gt;Node39</title>
<g id="a_edge47_Node000001_Node000039"><a xlink:title=" ">
<path fill="none" stroke="#63b8ff" d="M1578.32,-395.98C1586.81,-388.23 1599.56,-376.58 1609.88,-367.14"/>
<polygon fill="#63b8ff" stroke="#63b8ff" points="1612.49,-369.5 1617.51,-360.17 1607.77,-364.33 1612.49,-369.5"/>
</a>
</g>
</g>
<!-- Node40 -->
<g id="Node000040" class="node">
<title>Node40</title>
<g id="a_Node000040"><a xlink:href="lighting_8h.html" target="_top" xlink:title=" ">
<polygon fill="white" stroke="#666666" points="1990,-305 1884,-305 1884,-286 1990,-286 1990,-305"/>
<text text-anchor="middle" x="1937" y="-293" font-family="Helvetica,sans-Serif" font-size="10.00">../render/lighting.h</text>
</a>
</g>
</g>
<!-- Node1&#45;&gt;Node40 -->
<g id="edge50_Node000001_Node000040" class="edge">
<title>Node1&#45;&gt;Node40</title>
<g id="a_edge50_Node000001_Node000040"><a xlink:title=" ">
<path fill="none" stroke="#63b8ff" d="M1628.73,-400.81C1706.55,-395.17 1837.67,-382.62 1880,-360 1899.94,-349.35 1916.36,-328.84 1926.37,-314"/>
<polygon fill="#63b8ff" stroke="#63b8ff" points="1929.54,-315.54 1932,-305.23 1923.65,-311.76 1929.54,-315.54"/>
</a>
</g>
</g>
<!-- Node41 -->
<g id="Node000041" class="node">
<title>Node41</title>
<g id="a_Node000041"><a xlink:href="gltexture__loader_8h.html" target="_top" xlink:title=" ">
<polygon fill="white" stroke="#666666" points="1871,-360 1745,-360 1745,-341 1871,-341 1871,-360"/>
<text text-anchor="middle" x="1808" y="-348" font-family="Helvetica,sans-Serif" font-size="10.00">../io/gltexture_loader.h</text>
</a>
</g>
</g>
<!-- Node1&#45;&gt;Node41 -->
<g id="edge51_Node000001_Node000041" class="edge">
<title>Node1&#45;&gt;Node41</title>
<g id="a_edge51_Node000001_Node000041"><a xlink:title=" ">
<path fill="none" stroke="#63b8ff" d="M1607.4,-395.98C1648.74,-386.82 1714.6,-372.21 1759.49,-362.26"/>
<polygon fill="#63b8ff" stroke="#63b8ff" points="1760.29,-365.66 1769.3,-360.08 1758.78,-358.83 1760.29,-365.66"/>
</a>
</g>
</g>
<!-- Node42 -->
<g id="Node000042" class="node">
<title>Node42</title>
<g id="a_Node000042"><a xlink:href="classes_8h.html" target="_top" xlink:title=" ">
<polygon fill="white" stroke="#666666" points="1457,-360 1347,-360 1347,-341 1457,-341 1457,-360"/>
<text text-anchor="middle" x="1402" y="-348" font-family="Helvetica,sans-Serif" font-size="10.00">../classes/classes.h</text>
</a>
</g>
</g>
<!-- Node1&#45;&gt;Node42 -->
<g id="edge52_Node000001_Node000042" class="edge">
<title>Node1&#45;&gt;Node42</title>
<g id="a_edge52_Node000001_Node000042"><a xlink:title=" ">
<path fill="none" stroke="#63b8ff" d="M1542.17,-395.98C1514.13,-387.09 1469.95,-373.07 1438.7,-363.15"/>
<polygon fill="#63b8ff" stroke="#63b8ff" points="1439.63,-359.77 1429.04,-360.08 1437.51,-366.44 1439.63,-359.77"/>
</a>
</g>
</g>
<!-- Node45 -->
<g id="Node000045" class="node">
<title>Node45</title>
<g id="a_Node000045"><a xlink:href="memory_8h.html" target="_top" xlink:title="Header file for memory management functions and structures.">
<polygon fill="white" stroke="#666666" points="2001,-360 1927,-360 1927,-341 2001,-341 2001,-360"/>
<text text-anchor="middle" x="1964" y="-348" font-family="Helvetica,sans-Serif" font-size="10.00">../memory.h</text>
</a>
</g>
</g>
<!-- Node1&#45;&gt;Node45 -->
<g id="edge56_Node000001_Node000045" class="edge">
<title>Node1&#45;&gt;Node45</title>
<g id="a_edge56_Node000001_Node000045"><a xlink:title=" ">
<path fill="none" stroke="#63b8ff" d="M1628.75,-397.44C1697.44,-389.17 1813.52,-374.72 1913,-360 1914.27,-359.81 1915.56,-359.62 1916.87,-359.42"/>
<polygon fill="#63b8ff" stroke="#63b8ff" points="1917.64,-362.84 1926.98,-357.83 1916.56,-355.93 1917.64,-362.84"/>
</a>
</g>
</g>
<!-- Node46 -->
<g id="Node000046" class="node">
<title>Node46</title>
<g id="a_Node000046"><a xlink:href="buffer_8h.html" target="_top" xlink:title="Functions for initializing and freeing Game.buffers&#45;&gt;">
<polygon fill="white" stroke="#666666" points="2081,-360 2019,-360 2019,-341 2081,-341 2081,-360"/>
<text text-anchor="middle" x="2050" y="-348" font-family="Helvetica,sans-Serif" font-size="10.00">../buffer.h</text>
</a>
</g>
</g>
<!-- Node1&#45;&gt;Node46 -->
<g id="edge57_Node000001_Node000046" class="edge">
<title>Node1&#45;&gt;Node46</title>
<g id="a_edge57_Node000001_Node000046"><a xlink:title=" ">
<path fill="none" stroke="#63b8ff" d="M1628.82,-400.54C1711.88,-394.58 1866.99,-381.79 2008.46,-360.08"/>
<polygon fill="#63b8ff" stroke="#63b8ff" points="2009.27,-363.5 2018.62,-358.51 2008.2,-356.58 2009.27,-363.5"/>
</a>
</g>
</g>
<!-- Node47 -->
<g id="Node000047" class="node">
<title>Node47</title>
<g id="a_Node000047"><a xlink:href="physics_8h.html" target="_top" xlink:title=" ">
<polygon fill="white" stroke="#666666" points="2161,-360 2099,-360 2099,-341 2161,-341 2161,-360"/>
<text text-anchor="middle" x="2130" y="-348" font-family="Helvetica,sans-Serif" font-size="10.00">physics.h</text>
</a>
</g>
</g>
<!-- Node1&#45;&gt;Node47 -->
<g id="edge58_Node000001_Node000047" class="edge">
<title>Node1&#45;&gt;Node47</title>
<g id="a_edge58_Node000001_Node000047"><a xlink:title=" ">
<path fill="none" stroke="#63b8ff" d="M1628.66,-401.82C1723.92,-397 1916.37,-385.11 2088.62,-360.03"/>
<polygon fill="#63b8ff" stroke="#63b8ff" points="2089.24,-363.47 2098.62,-358.55 2088.22,-356.55 2089.24,-363.47"/>
</a>
</g>
</g>
<!-- Node48 -->
<g id="Node000048" class="node">
<title>Node48</title>
<g id="a_Node000048"><a xlink:href="collision_8h.html" target="_top" xlink:title=" ">
<polygon fill="white" stroke="#666666" points="2245,-360 2179,-360 2179,-341 2245,-341 2245,-360"/>
<text text-anchor="middle" x="2212" y="-348" font-family="Helvetica,sans-Serif" font-size="10.00">collision.h</text>
</a>
</g>
</g>
<!-- Node1&#45;&gt;Node48 -->
<g id="edge62_Node000001_Node000048" class="edge">
<title>Node1&#45;&gt;Node48</title>
<g id="a_edge62_Node000001_Node000048"><a xlink:title=" ">
<path fill="none" stroke="#63b8ff" d="M1628.55,-402.57C1735.04,-398.59 1965.24,-387.51 2168.62,-360.02"/>
<polygon fill="#63b8ff" stroke="#63b8ff" points="2169.16,-363.48 2178.59,-358.66 2168.21,-356.54 2169.16,-363.48"/>
</a>
</g>
</g>
<!-- Node3 -->
<g id="Node000003" class="node">
<title>Node3</title>
<g id="a_Node000003"><a xlink:title=" ">
<polygon fill="#e0e0e0" stroke="#999999" points="1089,-189.5 1039,-189.5 1039,-170.5 1089,-170.5 1089,-189.5"/>
<text text-anchor="middle" x="1064" y="-177.5" font-family="Helvetica,sans-Serif" font-size="10.00">stdio.h</text>
</a>
</g>
</g>
<!-- Node2&#45;&gt;Node3 -->
<g id="edge2_Node000002_Node000003" class="edge">
<title>Node2&#45;&gt;Node3</title>
<g id="a_edge2_Node000002_Node000003"><a xlink:title=" ">
<path fill="none" stroke="#63b8ff" d="M967.67,-230.87C986.28,-221.23 1016.62,-205.53 1038.28,-194.31"/>
<polygon fill="#63b8ff" stroke="#63b8ff" points="1039.99,-197.37 1047.26,-189.67 1036.77,-191.16 1039.99,-197.37"/>
</a>
</g>
</g>
<!-- Node4 -->
<g id="Node000004" class="node">
<title>Node4</title>
<g id="a_Node000004"><a xlink:title=" ">
<polygon fill="#e0e0e0" stroke="#999999" points="1160.5,-189.5 1107.5,-189.5 1107.5,-170.5 1160.5,-170.5 1160.5,-189.5"/>
<text text-anchor="middle" x="1134" y="-177.5" font-family="Helvetica,sans-Serif" font-size="10.00">stdint.h</text>
</a>
</g>
</g>
<!-- Node2&#45;&gt;Node4 -->
<g id="edge3_Node000002_Node000004" class="edge">
<title>Node2&#45;&gt;Node4</title>
<g id="a_edge3_Node000002_Node000004"><a xlink:title=" ">
<path fill="none" stroke="#63b8ff" d="M981.63,-230.97C1011.51,-222.48 1058.18,-208.75 1098,-195 1099.66,-194.43 1101.35,-193.83 1103.05,-193.21"/>
<polygon fill="#63b8ff" stroke="#63b8ff" points="1104.64,-196.35 1112.78,-189.56 1102.19,-189.8 1104.64,-196.35"/>
</a>
</g>
</g>
<!-- Node5 -->
<g id="Node000005" class="node">
<title>Node5</title>
<g id="a_Node000005"><a xlink:title=" ">
<polygon fill="#e0e0e0" stroke="#999999" points="1241,-189.5 1179,-189.5 1179,-170.5 1241,-170.5 1241,-189.5"/>
<text text-anchor="middle" x="1210" y="-177.5" font-family="Helvetica,sans-Serif" font-size="10.00">stdbool.h</text>
</a>
</g>
</g>
<!-- Node2&#45;&gt;Node5 -->
<g id="edge4_Node000002_Node000005" class="edge">
<title>Node2&#45;&gt;Node5</title>
<g id="a_edge4_Node000002_Node000005"><a xlink:title=" ">
<path fill="none" stroke="#63b8ff" d="M991.54,-232.82C1035.59,-225.2 1107.87,-211.6 1169,-195 1171.63,-194.29 1174.34,-193.49 1177.05,-192.66"/>
<polygon fill="#63b8ff" stroke="#63b8ff" points="1178.31,-195.93 1186.74,-189.52 1176.15,-189.27 1178.31,-195.93"/>
</a>
</g>
</g>
<!-- Node6 -->
<g id="Node000006" class="node">
<title>Node6</title>
<g id="a_Node000006"><a xlink:title=" ">
<polygon fill="#e0e0e0" stroke="#999999" points="1315,-189.5 1259,-189.5 1259,-170.5 1315,-170.5 1315,-189.5"/>
<text text-anchor="middle" x="1287" y="-177.5" font-family="Helvetica,sans-Serif" font-size="10.00">stdarg.h</text>
</a>
</g>
</g>
<!-- Node2&#45;&gt;Node6 -->
<g id="edge5_Node000002_Node000006" class="edge">
<title>Node2&#45;&gt;Node6</title>
<g id="a_edge5_Node000002_Node000006"><a xlink:title=" ">
<path fill="none" stroke="#63b8ff" d="M991.69,-236.22C1049.74,-230.93 1159.34,-218.61 1250,-195 1252.3,-194.4 1254.65,-193.71 1257,-192.96"/>
<polygon fill="#63b8ff" stroke="#63b8ff" points="1258.22,-196.24 1266.51,-189.64 1255.92,-189.63 1258.22,-196.24"/>
</a>
</g>
</g>
<!-- Node7 -->
<g id="Node000007" class="node">
<title>Node7</title>
<g id="a_Node000007"><a xlink:title=" ">
<polygon fill="#e0e0e0" stroke="#999999" points="1386.5,-189.5 1333.5,-189.5 1333.5,-170.5 1386.5,-170.5 1386.5,-189.5"/>
<text text-anchor="middle" x="1360" y="-177.5" font-family="Helvetica,sans-Serif" font-size="10.00">limits.h</text>
</a>
</g>
</g>
<!-- Node2&#45;&gt;Node7 -->
<g id="edge6_Node000002_Node000007" class="edge">
<title>Node2&#45;&gt;Node7</title>
<g id="a_edge6_Node000002_Node000007"><a xlink:title=" ">
<path fill="none" stroke="#63b8ff" d="M991.69,-235.95C1074.87,-228.48 1261.76,-210.55 1324,-195 1326.31,-194.42 1328.66,-193.74 1331.01,-192.99"/>
<polygon fill="#63b8ff" stroke="#63b8ff" points="1332.24,-196.27 1340.49,-189.62 1329.89,-189.67 1332.24,-196.27"/>
</a>
</g>
</g>
<!-- Node8 -->
<g id="Node000008" class="node">
<title>Node8</title>
<g id="a_Node000008"><a xlink:title=" ">
<polygon fill="#e0e0e0" stroke="#999999" points="1477,-189.5 1405,-189.5 1405,-170.5 1477,-170.5 1477,-189.5"/>
<text text-anchor="middle" x="1441" y="-177.5" font-family="Helvetica,sans-Serif" font-size="10.00">SDL2/SDL.h</text>
</a>
</g>
</g>
<!-- Node2&#45;&gt;Node8 -->
<g id="edge7_Node000002_Node000008" class="edge">
<title>Node2&#45;&gt;Node8</title>
<g id="a_edge7_Node000002_Node000008"><a xlink:title=" ">
<path fill="none" stroke="#63b8ff" d="M991.69,-236.45C1086.19,-229.19 1318.28,-210.37 1395,-195 1398.65,-194.27 1402.43,-193.37 1406.18,-192.38"/>
<polygon fill="#63b8ff" stroke="#63b8ff" points="1407.26,-195.71 1415.92,-189.6 1405.34,-188.97 1407.26,-195.71"/>
</a>
</g>
</g>
<!-- Node9 -->
<g id="Node000009" class="node">
<title>Node9</title>
<g id="a_Node000009"><a xlink:title=" ">
<polygon fill="#e0e0e0" stroke="#999999" points="108,-189.5 0,-189.5 0,-170.5 108,-170.5 108,-189.5"/>
<text text-anchor="middle" x="54" y="-177.5" font-family="Helvetica,sans-Serif" font-size="10.00">SDL2/SDL_image.h</text>
</a>
</g>
</g>
<!-- Node2&#45;&gt;Node9 -->
<g id="edge8_Node000002_Node000009" class="edge">
<title>Node2&#45;&gt;Node9</title>
<g id="a_edge8_Node000002_Node000009"><a xlink:title=" ">
<path fill="none" stroke="#63b8ff" d="M910.4,-232.17C907.22,-231.73 904.06,-231.33 901,-231 554.19,-193.7 462.76,-241.01 117,-195 110.66,-194.16 104.01,-192.99 97.51,-191.69"/>
<polygon fill="#63b8ff" stroke="#63b8ff" points="97.99,-188.22 87.48,-189.57 96.54,-195.07 97.99,-188.22"/>
</a>
</g>
</g>
<!-- Node10 -->
<g id="Node000010" class="node">
<title>Node10</title>
<g id="a_Node000010"><a xlink:title=" ">
<polygon fill="#e0e0e0" stroke="#999999" points="236,-189.5 126,-189.5 126,-170.5 236,-170.5 236,-189.5"/>
<text text-anchor="middle" x="181" y="-177.5" font-family="Helvetica,sans-Serif" font-size="10.00">SDL2/SDL_opengl.h</text>
</a>
</g>
</g>
<!-- Node2&#45;&gt;Node10 -->
<g id="edge9_Node000002_Node000010" class="edge">
<title>Node2&#45;&gt;Node10</title>
<g id="a_edge9_Node000002_Node000010"><a xlink:title=" ">
<path fill="none" stroke="#63b8ff" d="M910.4,-232.2C907.22,-231.75 904.06,-231.34 901,-231 610.82,-198.48 534.33,-234.33 245,-195 238.57,-194.13 231.82,-192.94 225.22,-191.64"/>
<polygon fill="#63b8ff" stroke="#63b8ff" points="225.53,-188.13 215.03,-189.51 224.1,-194.98 225.53,-188.13"/>
</a>
</g>
</g>
<!-- Node11 -->
<g id="Node000011" class="node">
<title>Node11</title>
<g id="a_Node000011"><a xlink:title=" ">
<polygon fill="#e0e0e0" stroke="#999999" points="358,-189.5 254,-189.5 254,-170.5 358,-170.5 358,-189.5"/>
<text text-anchor="middle" x="306" y="-177.5" font-family="Helvetica,sans-Serif" font-size="10.00">SDL2/SDL_mixer.h</text>
</a>
</g>
</g>
<!-- Node2&#45;&gt;Node11 -->
<g id="edge10_Node000002_Node000011" class="edge">
<title>Node2&#45;&gt;Node11</title>
<g id="a_edge10_Node000002_Node000011"><a xlink:title=" ">
<path fill="none" stroke="#63b8ff" d="M910.39,-232.24C907.22,-231.78 904.06,-231.36 901,-231 664.78,-203.03 602.33,-229.71 367,-195 361.08,-194.13 354.88,-192.98 348.8,-191.72"/>
<polygon fill="#63b8ff" stroke="#63b8ff" points="349.26,-188.24 338.74,-189.52 347.76,-195.08 349.26,-188.24"/>
</a>
</g>
</g>
<!-- Node12 -->
<g id="Node000012" class="node">
<title>Node12</title>
<g id="a_Node000012"><a xlink:title=" ">
<polygon fill="#e0e0e0" stroke="#999999" points="464,-189.5 376,-189.5 376,-170.5 464,-170.5 464,-189.5"/>
<text text-anchor="middle" x="420" y="-177.5" font-family="Helvetica,sans-Serif" font-size="10.00">SDL2/SDL_ttf.h</text>
</a>
</g>
</g>
<!-- Node2&#45;&gt;Node12 -->
<g id="edge11_Node000002_Node000012" class="edge">
<title>Node2&#45;&gt;Node12</title>
<g id="a_edge11_Node000002_Node000012"><a xlink:title=" ">
<path fill="none" stroke="#63b8ff" d="M910.38,-232.3C907.21,-231.83 904.06,-231.39 901,-231 711.62,-206.98 661.11,-227.5 473,-195 468.27,-194.18 463.34,-193.14 458.48,-192"/>
<polygon fill="#63b8ff" stroke="#63b8ff" points="459.23,-188.58 448.68,-189.55 457.53,-195.37 459.23,-188.58"/>
</a>
</g>
</g>
<!-- Node13 -->
<g id="Node000013" class="node">
<title>Node13</title>
<g id="a_Node000013"><a xlink:title=" ">
<polygon fill="#e0e0e0" stroke="#999999" points="532,-189.5 482,-189.5 482,-170.5 532,-170.5 532,-189.5"/>
<text text-anchor="middle" x="507" y="-177.5" font-family="Helvetica,sans-Serif" font-size="10.00">GL/gl.h</text>
</a>
</g>
</g>
<!-- Node2&#45;&gt;Node13 -->
<g id="edge12_Node000002_Node000013" class="edge">
<title>Node2&#45;&gt;Node13</title>
<g id="a_edge12_Node000002_Node000013"><a xlink:title=" ">
<path fill="none" stroke="#63b8ff" d="M910.38,-232.35C907.21,-231.87 904.05,-231.41 901,-231 741.64,-209.51 696.99,-234.02 541,-195 538.84,-194.46 536.63,-193.8 534.43,-193.08"/>
<polygon fill="#63b8ff" stroke="#63b8ff" points="535.61,-189.78 525.02,-189.56 533.16,-196.34 535.61,-189.78"/>
</a>
</g>
</g>
<!-- Node14 -->
<g id="Node000014" class="node">
<title>Node14</title>
<g id="a_Node000014"><a xlink:title=" ">
<polygon fill="#e0e0e0" stroke="#999999" points="606,-189.5 550,-189.5 550,-170.5 606,-170.5 606,-189.5"/>
<text text-anchor="middle" x="578" y="-177.5" font-family="Helvetica,sans-Serif" font-size="10.00">GL/glu.h</text>
</a>
</g>
</g>
<!-- Node2&#45;&gt;Node14 -->
<g id="edge13_Node000002_Node000014" class="edge">
<title>Node2&#45;&gt;Node14</title>
<g id="a_edge13_Node000002_Node000014"><a xlink:title=" ">
<path fill="none" stroke="#63b8ff" d="M910.36,-232.44C907.2,-231.94 904.05,-231.45 901,-231 774.26,-212.26 739.34,-225.88 615,-195 612.55,-194.39 610.04,-193.67 607.54,-192.88"/>
<polygon fill="#63b8ff" stroke="#63b8ff" points="608.68,-189.57 598.08,-189.58 606.37,-196.18 608.68,-189.57"/>
</a>
</g>
</g>
<!-- Node15 -->
<g id="Node000015" class="node">
<title>Node15</title>
<g id="a_Node000015"><a xlink:title=" ">
<polygon fill="#e0e0e0" stroke="#999999" points="690,-189.5 624,-189.5 624,-170.5 690,-170.5 690,-189.5"/>
<text text-anchor="middle" x="657" y="-177.5" font-family="Helvetica,sans-Serif" font-size="10.00">GL/glext.h</text>
</a>
</g>
</g>
<!-- Node2&#45;&gt;Node15 -->
<g id="edge14_Node000002_Node000015" class="edge">
<title>Node2&#45;&gt;Node15</title>
<g id="a_edge14_Node000002_Node000015"><a xlink:title=" ">
<path fill="none" stroke="#63b8ff" d="M910.34,-232.48C841.68,-220.61 709.17,-197.58 699,-195 696.21,-194.29 693.33,-193.49 690.45,-192.64"/>
<polygon fill="#63b8ff" stroke="#63b8ff" points="691.4,-189.27 680.81,-189.61 689.3,-195.94 691.4,-189.27"/>
</a>
</g>
</g>
<!-- Node16 -->
<g id="Node000016" class="node">
<title>Node16</title>
<g id="a_Node000016"><a xlink:title=" ">
<polygon fill="#e0e0e0" stroke="#999999" points="785.5,-189.5 708.5,-189.5 708.5,-170.5 785.5,-170.5 785.5,-189.5"/>
<text text-anchor="middle" x="747" y="-177.5" font-family="Helvetica,sans-Serif" font-size="10.00">cglm/cglm.h</text>
</a>
</g>
</g>
<!-- Node2&#45;&gt;Node16 -->
<g id="edge15_Node000002_Node000016" class="edge">
<title>Node2&#45;&gt;Node16</title>
<g id="a_edge15_Node000002_Node000016"><a xlink:title=" ">
<path fill="none" stroke="#63b8ff" d="M920.28,-230.92C888.6,-222.05 837.8,-207.73 794,-195 791.07,-194.15 788.04,-193.26 784.99,-192.36"/>
<polygon fill="#63b8ff" stroke="#63b8ff" points="785.9,-188.98 775.32,-189.5 783.91,-195.69 785.9,-188.98"/>
</a>
</g>
</g>
<!-- Node17 -->
<g id="Node000017" class="node">
<title>Node17</title>
<g id="a_Node000017"><a xlink:title=" ">
<polygon fill="#e0e0e0" stroke="#999999" points="854.5,-189.5 803.5,-189.5 803.5,-170.5 854.5,-170.5 854.5,-189.5"/>
<text text-anchor="middle" x="829" y="-177.5" font-family="Helvetica,sans-Serif" font-size="10.00">math.h</text>
</a>
</g>
</g>
<!-- Node2&#45;&gt;Node17 -->
<g id="edge16_Node000002_Node000017" class="edge">
<title>Node2&#45;&gt;Node17</title>
<g id="a_edge16_Node000002_Node000017"><a xlink:title=" ">
<path fill="none" stroke="#63b8ff" d="M933.26,-230.99C912.93,-221.25 879.39,-205.16 855.86,-193.88"/>
<polygon fill="#63b8ff" stroke="#63b8ff" points="857.29,-190.68 846.76,-189.52 854.26,-197 857.29,-190.68"/>
</a>
</g>
</g>
<!-- Node18 -->
<g id="Node000018" class="node">
<title>Node18</title>
<g id="a_Node000018"><a xlink:href="stringio_8h.html" target="_top" xlink:title="Provides utility functions for string and file operations.">
<polygon fill="white" stroke="#666666" points="947,-189.5 873,-189.5 873,-170.5 947,-170.5 947,-189.5"/>
<text text-anchor="middle" x="910" y="-177.5" font-family="Helvetica,sans-Serif" font-size="10.00">io/stringio.h</text>
</a>
</g>
</g>
<!-- Node2&#45;&gt;Node18 -->
<g id="edge17_Node000002_Node000018" class="edge">
<title>Node2&#45;&gt;Node18</title>
<g id="a_edge17_Node000002_Node000018"><a xlink:title=" ">
<path fill="none" stroke="#63b8ff" d="M944.95,-230.87C938.89,-222.23 929.41,-208.7 921.86,-197.92"/>
<polygon fill="#63b8ff" stroke="#63b8ff" points="924.68,-195.85 916.07,-189.67 918.95,-199.87 924.68,-195.85"/>
</a>
</g>
</g>
<!-- Node20 -->
<g id="Node000020" class="node">
<title>Node20</title>
<g id="a_Node000020"><a xlink:href="config_8h.html" target="_top" xlink:title=" ">
<polygon fill="white" stroke="#666666" points="1020.5,-189.5 965.5,-189.5 965.5,-170.5 1020.5,-170.5 1020.5,-189.5"/>
<text text-anchor="middle" x="993" y="-177.5" font-family="Helvetica,sans-Serif" font-size="10.00">config.h</text>
</a>
</g>
</g>
<!-- Node2&#45;&gt;Node20 -->
<g id="edge19_Node000002_Node000020" class="edge">
<title>Node2&#45;&gt;Node20</title>
<g id="a_edge19_Node000002_Node000020"><a xlink:title=" ">
<path fill="none" stroke="#63b8ff" d="M957.2,-230.87C963.4,-222.23 973.11,-208.7 980.86,-197.92"/>
<polygon fill="#63b8ff" stroke="#63b8ff" points="983.79,-199.83 986.78,-189.67 978.1,-195.75 983.79,-199.83"/>
</a>
</g>
</g>
<!-- Node19 -->
<g id="Node000019" class="node">
<title>Node19</title>
<g id="a_Node000019"><a xlink:title=" ">
<polygon fill="#e0e0e0" stroke="#999999" points="936.5,-129 883.5,-129 883.5,-110 936.5,-110 936.5,-129"/>
<text text-anchor="middle" x="910" y="-117" font-family="Helvetica,sans-Serif" font-size="10.00">string.h</text>
</a>
</g>
</g>
<!-- Node18&#45;&gt;Node19 -->
<g id="edge18_Node000018_Node000019" class="edge">
<title>Node18&#45;&gt;Node19</title>
<g id="a_edge18_Node000018_Node000019"><a xlink:title=" ">
<path fill="none" stroke="#63b8ff" d="M910,-170.37C910,-162.25 910,-149.81 910,-139.39"/>
<polygon fill="#63b8ff" stroke="#63b8ff" points="913.5,-139.17 910,-129.17 906.5,-139.17 913.5,-139.17"/>
</a>
</g>
</g>
<!-- Node21 -->
<g id="Node000021" class="node">
<title>Node21</title>
<g id="a_Node000021"><a xlink:href="term_8h.html" target="_top" xlink:title=" ">
<polygon fill="white" stroke="#666666" points="1030.5,-129 955.5,-129 955.5,-110 1030.5,-110 1030.5,-129"/>
<text text-anchor="middle" x="993" y="-117" font-family="Helvetica,sans-Serif" font-size="10.00">term/term.h</text>
</a>
</g>
</g>
<!-- Node20&#45;&gt;Node21 -->
<g id="edge20_Node000020_Node000021" class="edge">
<title>Node20&#45;&gt;Node21</title>
<g id="a_edge20_Node000020_Node000021"><a xlink:title=" ">
<path fill="none" stroke="#63b8ff" d="M993,-170.37C993,-162.25 993,-149.81 993,-139.39"/>
<polygon fill="#63b8ff" stroke="#63b8ff" points="996.5,-139.17 993,-129.17 989.5,-139.17 996.5,-139.17"/>
</a>
</g>
</g>
<!-- Node22 -->
<g id="Node000022" class="node">
<title>Node22</title>
<g id="a_Node000022"><a xlink:href="enhanced__print_8h.html" target="_top" xlink:title=" ">
<polygon fill="white" stroke="#666666" points="1043.5,-74 942.5,-74 942.5,-55 1043.5,-55 1043.5,-74"/>
<text text-anchor="middle" x="993" y="-62" font-family="Helvetica,sans-Serif" font-size="10.00">enhanced_print.h</text>
</a>
</g>
</g>
<!-- Node21&#45;&gt;Node22 -->
<g id="edge21_Node000021_Node000022" class="edge">
<title>Node21&#45;&gt;Node22</title>
<g id="a_edge21_Node000021_Node000022"><a xlink:title=" ">
<path fill="none" stroke="#63b8ff" d="M993,-109.75C993,-102.8 993,-92.85 993,-84.13"/>
<polygon fill="#63b8ff" stroke="#63b8ff" points="996.5,-84.09 993,-74.09 989.5,-84.09 996.5,-84.09"/>
</a>
</g>
</g>
<!-- Node23 -->
<g id="Node000023" class="node">
<title>Node23</title>
<g id="a_Node000023"><a xlink:href="color_8h.html" target="_top" xlink:title=" ">
<polygon fill="white" stroke="#666666" points="1017.5,-19 968.5,-19 968.5,0 1017.5,0 1017.5,-19"/>
<text text-anchor="middle" x="993" y="-7" font-family="Helvetica,sans-Serif" font-size="10.00">color.h</text>
</a>
</g>
</g>
<!-- Node22&#45;&gt;Node23 -->
<g id="edge22_Node000022_Node000023" class="edge">
<title>Node22&#45;&gt;Node23</title>
<g id="a_edge22_Node000022_Node000023"><a xlink:title=" ">
<path fill="none" stroke="#63b8ff" d="M993,-54.75C993,-47.8 993,-37.85 993,-29.13"/>
<polygon fill="#63b8ff" stroke="#63b8ff" points="996.5,-29.09 993,-19.09 989.5,-29.09 996.5,-29.09"/>
</a>
</g>
</g>
<!-- Node26 -->
<g id="Node000026" class="node">
<title>Node26</title>
<g id="a_Node000026"><a xlink:href="shader_8h.html" target="_top" xlink:title=" ">
<polygon fill="white" stroke="#666666" points="1553,-189.5 1495,-189.5 1495,-170.5 1553,-170.5 1553,-189.5"/>
<text text-anchor="middle" x="1524" y="-177.5" font-family="Helvetica,sans-Serif" font-size="10.00">shader.h</text>
</a>
</g>
</g>
<!-- Node25&#45;&gt;Node26 -->
<g id="edge25_Node000025_Node000026" class="edge">
<title>Node25&#45;&gt;Node26</title>
<g id="a_edge25_Node000025_Node000026"><a xlink:title=" ">
<path fill="none" stroke="#63b8ff" d="M1524,-230.87C1524,-222.75 1524,-210.31 1524,-199.89"/>
<polygon fill="#63b8ff" stroke="#63b8ff" points="1527.5,-199.67 1524,-189.67 1520.5,-199.67 1527.5,-199.67"/>
</a>
</g>
</g>
<!-- Node27 -->
<g id="Node000027" class="node">
<title>Node27</title>
<g id="a_Node000027"><a xlink:href="model__loader_8h.html" target="_top" xlink:title=" ">
<polygon fill="white" stroke="#666666" points="1693,-195 1571,-195 1571,-165 1693,-165 1693,-195"/>
<text text-anchor="start" x="1579" y="-183" font-family="Helvetica,sans-Serif" font-size="10.00">model_loaders/model</text>
<text text-anchor="middle" x="1632" y="-172" font-family="Helvetica,sans-Serif" font-size="10.00">_loader.h</text>
</a>
</g>
</g>
<!-- Node25&#45;&gt;Node27 -->
<g id="edge26_Node000025_Node000027" class="edge">
<title>Node25&#45;&gt;Node27</title>
<g id="a_edge26_Node000025_Node000027"><a xlink:title=" ">
<path fill="none" stroke="#63b8ff" d="M1539.94,-230.87C1554.93,-222.75 1577.89,-210.31 1597.13,-199.89"/>
<polygon fill="#63b8ff" stroke="#63b8ff" points="1598.82,-202.96 1605.94,-195.11 1595.48,-196.8 1598.82,-202.96"/>
</a>
</g>
</g>
<!-- Node28 -->
<g id="Node000028" class="node">
<title>Node28</title>
<g id="a_Node000028"><a xlink:href="obj__loader_8h.html" target="_top" xlink:title=" ">
<polygon fill="white" stroke="#666666" points="1575,-129 1499,-129 1499,-110 1575,-110 1575,-129"/>
<text text-anchor="middle" x="1537" y="-117" font-family="Helvetica,sans-Serif" font-size="10.00">obj_loader.h</text>
</a>
</g>
</g>
<!-- Node27&#45;&gt;Node28 -->
<g id="edge27_Node000027_Node000028" class="edge">
<title>Node27&#45;&gt;Node28</title>
<g id="a_edge27_Node000027_Node000028"><a xlink:title=" ">
<path fill="none" stroke="#63b8ff" d="M1609,-164.84C1594,-155.6 1574.5,-143.59 1559.57,-134.4"/>
<polygon fill="#63b8ff" stroke="#63b8ff" points="1561.31,-131.36 1550.96,-129.09 1557.64,-137.32 1561.31,-131.36"/>
</a>
</g>
</g>
<!-- Node29 -->
<g id="Node000029" class="node">
<title>Node29</title>
<g id="a_Node000029"><a xlink:href="mtl__loader_8h.html" target="_top" xlink:title=" ">
<polygon fill="white" stroke="#666666" points="1670.5,-129 1593.5,-129 1593.5,-110 1670.5,-110 1670.5,-129"/>
<text text-anchor="middle" x="1632" y="-117" font-family="Helvetica,sans-Serif" font-size="10.00">mtl_loader.h</text>
</a>
</g>
</g>
<!-- Node27&#45;&gt;Node29 -->
<g id="edge28_Node000027_Node000029" class="edge">
<title>Node27&#45;&gt;Node29</title>
<g id="a_edge28_Node000027_Node000029"><a xlink:title=" ">
<path fill="none" stroke="#63b8ff" d="M1632,-164.84C1632,-157.21 1632,-147.7 1632,-139.45"/>
<polygon fill="#63b8ff" stroke="#63b8ff" points="1635.5,-139.27 1632,-129.27 1628.5,-139.27 1635.5,-139.27"/>
</a>
</g>
</g>
<!-- Node30 -->
<g id="Node000030" class="node">
<title>Node30</title>
<g id="a_Node000030"><a xlink:href="fbx__loader_8h.html" target="_top" xlink:title=" ">
<polygon fill="white" stroke="#666666" points="1765.5,-129 1688.5,-129 1688.5,-110 1765.5,-110 1765.5,-129"/>
<text text-anchor="middle" x="1727" y="-117" font-family="Helvetica,sans-Serif" font-size="10.00">fbx_loader.h</text>
</a>
</g>
</g>
<!-- Node27&#45;&gt;Node30 -->
<g id="edge29_Node000027_Node000030" class="edge">
<title>Node27&#45;&gt;Node30</title>
<g id="a_edge29_Node000027_Node000030"><a xlink:title=" ">
<path fill="none" stroke="#63b8ff" d="M1655,-164.84C1670,-155.6 1689.5,-143.59 1704.43,-134.4"/>
<polygon fill="#63b8ff" stroke="#63b8ff" points="1706.36,-137.32 1713.04,-129.09 1702.69,-131.36 1706.36,-137.32"/>
</a>
</g>
</g>
<!-- Node32 -->
<g id="Node000032" class="node">
<title>Node32</title>
<g id="a_Node000032"><a xlink:href="input_8h.html" target="_top" xlink:title=" ">
<polygon fill="white" stroke="#666666" points="1753.5,-250 1682.5,-250 1682.5,-231 1753.5,-231 1753.5,-250"/>
<text text-anchor="middle" x="1718" y="-238" font-family="Helvetica,sans-Serif" font-size="10.00">../io/input.h</text>
</a>
</g>
</g>
<!-- Node31&#45;&gt;Node32 -->
<g id="edge31_Node000031_Node000032" class="edge">
<title>Node31&#45;&gt;Node32</title>
<g id="a_edge31_Node000031_Node000032"><a xlink:title=" ">
<path fill="none" stroke="#63b8ff" d="M1718,-285.75C1718,-278.8 1718,-268.85 1718,-260.13"/>
<polygon fill="#63b8ff" stroke="#63b8ff" points="1721.5,-260.09 1718,-250.09 1714.5,-260.09 1721.5,-260.09"/>
</a>
</g>
</g>
<!-- Node33&#45;&gt;Node26 -->
<g id="edge33_Node000033_Node000026" class="edge">
<title>Node33&#45;&gt;Node26</title>
<g id="a_edge33_Node000033_Node000026"><a xlink:title=" ">
<path fill="none" stroke="#63b8ff" d="M1219.15,-340.78C1214.95,-318.24 1207.47,-257.89 1241,-231 1326.86,-162.14 1379.35,-222.17 1486,-195 1488.44,-194.38 1490.95,-193.65 1493.45,-192.87"/>
<polygon fill="#63b8ff" stroke="#63b8ff" points="1494.6,-196.18 1502.94,-189.64 1492.35,-189.55 1494.6,-196.18"/>
</a>
</g>
</g>
<!-- Node33&#45;&gt;Node31 -->
<g id="edge44_Node000033_Node000031" class="edge">
<title>Node33&#45;&gt;Node31</title>
<g id="a_edge44_Node000033_Node000031"><a xlink:title=" ">
<path fill="none" stroke="#63b8ff" d="M1270.01,-344.27C1357.71,-334.92 1541.86,-315.28 1644.65,-304.32"/>
<polygon fill="#63b8ff" stroke="#63b8ff" points="1645.07,-307.8 1654.65,-303.26 1644.33,-300.84 1645.07,-307.8"/>
</a>
</g>
</g>
<!-- Node33&#45;&gt;Node34 -->
<g id="edge34_Node000033_Node000034" class="edge">
<title>Node33&#45;&gt;Node34</title>
<g id="a_edge34_Node000033_Node000034"><a xlink:title=" ">
<path fill="none" stroke="#63b8ff" d="M1178.42,-340.98C1132.3,-331.76 1058.64,-317.03 1008.84,-307.07"/>
<polygon fill="#63b8ff" stroke="#63b8ff" points="1009.4,-303.61 998.91,-305.08 1008.03,-310.48 1009.4,-303.61"/>
</a>
</g>
</g>
<!-- Node33&#45;&gt;Node35 -->
<g id="edge38_Node000033_Node000035" class="edge">
<title>Node33&#45;&gt;Node35</title>
<g id="a_edge38_Node000033_Node000035"><a xlink:title=" ">
<path fill="none" stroke="#63b8ff" d="M1198.51,-340.98C1175.48,-332.27 1139.46,-318.63 1113.37,-308.75"/>
<polygon fill="#63b8ff" stroke="#63b8ff" points="1114.49,-305.44 1103.9,-305.17 1112.02,-311.98 1114.49,-305.44"/>
</a>
</g>
</g>
<!-- Node36 -->
<g id="Node000036" class="node">
<title>Node36</title>
<g id="a_Node000036"><a xlink:href="scripts_8h.html" target="_top" xlink:title=" ">
<polygon fill="white" stroke="#666666" points="1331,-305 1229,-305 1229,-286 1331,-286 1331,-305"/>
<text text-anchor="middle" x="1280" y="-293" font-family="Helvetica,sans-Serif" font-size="10.00">../scripts/scripts.h</text>
</a>
</g>
</g>
<!-- Node33&#45;&gt;Node36 -->
<g id="edge41_Node000033_Node000036" class="edge">
<title>Node33&#45;&gt;Node36</title>
<g id="a_edge41_Node000033_Node000036"><a xlink:title=" ">
<path fill="none" stroke="#63b8ff" d="M1230.48,-340.98C1239.2,-333.15 1252.34,-321.34 1262.9,-311.86"/>
<polygon fill="#63b8ff" stroke="#63b8ff" points="1265.25,-314.46 1270.35,-305.17 1260.57,-309.25 1265.25,-314.46"/>
</a>
</g>
</g>
<!-- Node34&#45;&gt;Node2 -->
<g id="edge35_Node000034_Node000002" class="edge">
<title>Node34&#45;&gt;Node2</title>
<g id="a_edge35_Node000034_Node000002"><a xlink:title=" ">
<path fill="none" stroke="#63b8ff" d="M955.17,-285.75C954.52,-278.8 953.58,-268.85 952.76,-260.13"/>
<polygon fill="#63b8ff" stroke="#63b8ff" points="956.23,-259.72 951.81,-250.09 949.27,-260.37 956.23,-259.72"/>
</a>
</g>
</g>
<!-- Node34&#45;&gt;Node24 -->
<g id="edge36_Node000034_Node000024" class="edge">
<title>Node34&#45;&gt;Node24</title>
<g id="a_edge36_Node000034_Node000024"><a xlink:title=" ">
<path fill="none" stroke="#63b8ff" d="M936.88,-285.98C917.65,-277.42 887.77,-264.11 865.69,-254.28"/>
<polygon fill="#63b8ff" stroke="#63b8ff" points="867.03,-251.04 856.47,-250.17 864.18,-257.44 867.03,-251.04"/>
</a>
</g>
</g>
<!-- Node34&#45;&gt;Node26 -->
<g id="edge37_Node000034_Node000026" class="edge">
<title>Node34&#45;&gt;Node26</title>
<g id="a_edge37_Node000034_Node000026"><a xlink:title=" ">
<path fill="none" stroke="#63b8ff" d="M982.03,-285.98C1024.49,-272.39 1111.5,-245.84 1187,-231 1318.34,-205.19 1355.87,-226.35 1486,-195 1488.51,-194.39 1491.09,-193.67 1493.65,-192.89"/>
<polygon fill="#63b8ff" stroke="#63b8ff" points="1495.02,-196.12 1503.36,-189.59 1492.77,-189.49 1495.02,-196.12"/>
</a>
</g>
</g>
<!-- Node35&#45;&gt;Node24 -->
<g id="edge39_Node000035_Node000024" class="edge">
<title>Node35&#45;&gt;Node24</title>
<g id="a_edge39_Node000035_Node000024"><a xlink:title=" ">
<path fill="none" stroke="#63b8ff" d="M1041.8,-285.98C999.59,-276.82 932.35,-262.21 886.52,-252.26"/>
<polygon fill="#63b8ff" stroke="#63b8ff" points="887.03,-248.78 876.51,-250.08 885.54,-255.63 887.03,-248.78"/>
</a>
</g>
</g>
<!-- Node35&#45;&gt;Node25 -->
<g id="edge40_Node000035_Node000025" class="edge">
<title>Node35&#45;&gt;Node25</title>
<g id="a_edge40_Node000035_Node000025"><a xlink:title=" ">
<path fill="none" stroke="#63b8ff" d="M1134.88,-288.05C1221.87,-277.65 1391.93,-257.3 1475.41,-247.31"/>
<polygon fill="#63b8ff" stroke="#63b8ff" points="1475.88,-250.78 1485.4,-246.12 1475.05,-243.83 1475.88,-250.78"/>
</a>
</g>
</g>
<!-- Node36&#45;&gt;Node32 -->
<g id="edge42_Node000036_Node000032" class="edge">
<title>Node36&#45;&gt;Node32</title>
<g id="a_edge42_Node000036_Node000032"><a xlink:title=" ">
<path fill="none" stroke="#63b8ff" d="M1331.1,-288.32C1417.23,-277.89 1589.95,-256.99 1672.3,-247.03"/>
<polygon fill="#63b8ff" stroke="#63b8ff" points="1672.85,-250.49 1682.36,-245.81 1672.01,-243.54 1672.85,-250.49"/>
</a>
</g>
</g>
<!-- Node37 -->
<g id="Node000037" class="node">
<title>Node37</title>
<g id="a_Node000037"><a xlink:href="signals_8h.html" target="_top" xlink:title="Signal and slot system for C projects.">
<polygon fill="white" stroke="#666666" points="1310,-250 1250,-250 1250,-231 1310,-231 1310,-250"/>
<text text-anchor="middle" x="1280" y="-238" font-family="Helvetica,sans-Serif" font-size="10.00">signals.h</text>
</a>
</g>
</g>
<!-- Node36&#45;&gt;Node37 -->
<g id="edge43_Node000036_Node000037" class="edge">
<title>Node36&#45;&gt;Node37</title>
<g id="a_edge43_Node000036_Node000037"><a xlink:title=" ">
<path fill="none" stroke="#63b8ff" d="M1280,-285.75C1280,-278.8 1280,-268.85 1280,-260.13"/>
<polygon fill="#63b8ff" stroke="#63b8ff" points="1283.5,-260.09 1280,-250.09 1276.5,-260.09 1283.5,-260.09"/>
</a>
</g>
</g>
<!-- Node39&#45;&gt;Node25 -->
<g id="edge48_Node000039_Node000025" class="edge">
<title>Node39&#45;&gt;Node25</title>
<g id="a_edge48_Node000039_Node000025"><a xlink:title=" ">
<path fill="none" stroke="#63b8ff" d="M1626.49,-340.71C1625.28,-327.45 1621.29,-302.19 1608,-286 1596.01,-271.39 1577.94,-260.95 1561.62,-253.86"/>
<polygon fill="#63b8ff" stroke="#63b8ff" points="1562.86,-250.59 1552.28,-250.08 1560.23,-257.08 1562.86,-250.59"/>
</a>
</g>
</g>
<!-- Node39&#45;&gt;Node31 -->
<g id="edge49_Node000039_Node000031" class="edge">
<title>Node39&#45;&gt;Node31</title>
<g id="a_edge49_Node000039_Node000031"><a xlink:title=" ">
<path fill="none" stroke="#63b8ff" d="M1641.62,-340.98C1655.86,-332.69 1677.75,-319.94 1694.45,-310.22"/>
<polygon fill="#63b8ff" stroke="#63b8ff" points="1696.23,-313.23 1703.11,-305.17 1692.71,-307.18 1696.23,-313.23"/>
</a>
</g>
</g>
<!-- Node42&#45;&gt;Node2 -->
<g id="edge55_Node000042_Node000002" class="edge">
<title>Node42&#45;&gt;Node2</title>
<g id="a_edge55_Node000042_Node000002"><a xlink:title=" ">
<path fill="none" stroke="#63b8ff" d="M1367.1,-340.99C1330.46,-332.05 1271.17,-317.57 1220,-305 1185.77,-296.59 1177.28,-294.2 1143,-286 1093.82,-274.23 1037.43,-261.22 998.55,-252.32"/>
<polygon fill="#63b8ff" stroke="#63b8ff" points="999.09,-248.86 988.56,-250.04 997.53,-255.68 999.09,-248.86"/>
</a>
</g>
</g>
<!-- Node43 -->
<g id="Node000043" class="node">
<title>Node43</title>
<g id="a_Node000043"><a xlink:href="classes__types_8h.html" target="_top" xlink:title=" ">
<polygon fill="white" stroke="#666666" points="1481,-305 1387,-305 1387,-286 1481,-286 1481,-305"/>
<text text-anchor="middle" x="1434" y="-293" font-family="Helvetica,sans-Serif" font-size="10.00">classes_types.h</text>
</a>
</g>
</g>
<!-- Node42&#45;&gt;Node43 -->
<g id="edge53_Node000042_Node000043" class="edge">
<title>Node42&#45;&gt;Node43</title>
<g id="a_edge53_Node000042_Node000043"><a xlink:title=" ">
<path fill="none" stroke="#63b8ff" d="M1407.28,-340.75C1411.71,-333.42 1418.16,-322.73 1423.62,-313.7"/>
<polygon fill="#63b8ff" stroke="#63b8ff" points="1426.64,-315.46 1428.81,-305.09 1420.65,-311.84 1426.64,-315.46"/>
</a>
</g>
</g>
<!-- Node44 -->
<g id="Node000044" class="node">
<title>Node44</title>
<g id="a_Node000044"><a xlink:title=" ">
<polygon fill="#e0e0e0" stroke="#999999" points="1598.5,-305 1499.5,-305 1499.5,-286 1598.5,-286 1598.5,-305"/>
<text text-anchor="middle" x="1549" y="-293" font-family="Helvetica,sans-Serif" font-size="10.00">import_classes.h</text>
</a>
</g>
</g>
<!-- Node42&#45;&gt;Node44 -->
<g id="edge54_Node000042_Node000044" class="edge">
<title>Node42&#45;&gt;Node44</title>
<g id="a_edge54_Node000042_Node000044"><a xlink:title=" ">
<path fill="none" stroke="#63b8ff" d="M1425.62,-340.98C1449.9,-332.23 1487.95,-318.51 1515.37,-308.62"/>
<polygon fill="#63b8ff" stroke="#63b8ff" points="1516.73,-311.85 1524.95,-305.17 1514.36,-305.27 1516.73,-311.85"/>
</a>
</g>
</g>
<!-- Node47&#45;&gt;Node32 -->
<g id="edge59_Node000047_Node000032" class="edge">
<title>Node47&#45;&gt;Node32</title>
<g id="a_edge59_Node000047_Node000032"><a xlink:title=" ">
<path fill="none" stroke="#63b8ff" d="M2115.65,-340.79C2092.16,-326.93 2043.61,-300.01 1999,-286 1918.48,-260.72 1820.27,-249.36 1763.85,-244.6"/>
<polygon fill="#63b8ff" stroke="#63b8ff" points="1764.06,-241.11 1753.81,-243.79 1763.5,-248.09 1764.06,-241.11"/>
</a>
</g>
</g>
<!-- Node47&#45;&gt;Node40 -->
<g id="edge60_Node000047_Node000040" class="edge">
<title>Node47&#45;&gt;Node40</title>
<g id="a_edge60_Node000047_Node000040"><a xlink:title=" ">
<path fill="none" stroke="#63b8ff" d="M2098.99,-340.98C2066.17,-331.97 2014.2,-317.7 1978.01,-307.76"/>
<polygon fill="#63b8ff" stroke="#63b8ff" points="1978.82,-304.36 1968.25,-305.08 1976.97,-311.11 1978.82,-304.36"/>
</a>
</g>
</g>
</g>
</svg>
