<?xml version="1.0" encoding="UTF-8" standalone="no"?>
<!DOCTYPE svg PUBLIC "-//W3C//DTD SVG 1.1//EN"
 "http://www.w3.org/Graphics/SVG/1.1/DTD/svg11.dtd">
<!-- Generated by graphviz version 2.43.0 (0)
 -->
<!-- Title: src/raptiquax.c Pages: 1 -->
<svg width="3008pt" height="313pt"
 viewBox="0.00 0.00 3008.00 313.00" xmlns="http://www.w3.org/2000/svg" xmlns:xlink="http://www.w3.org/1999/xlink">
<g id="graph0" class="graph" transform="scale(1 1) rotate(0) translate(4 309)">
<title>src/raptiquax.c</title>
<!-- Node1 -->
<g id="Node000001" class="node">
<title>Node1</title>
<g id="a_Node000001"><a xlink:title=" ">
<polygon fill="#999999" stroke="#666666" points="1877.5,-305 1788.5,-305 1788.5,-286 1877.5,-286 1877.5,-305"/>
<text text-anchor="middle" x="1833" y="-293" font-family="Helvetica,sans-Serif" font-size="10.00">src/raptiquax.c</text>
</a>
</g>
</g>
<!-- Node2 -->
<g id="Node000002" class="node">
<title>Node2</title>
<g id="a_Node000002"><a xlink:href="raptiquax_8h.html" target="_top" xlink:title="This file contains type definitions for fixed&#45;width integer types and floating&#45;point types.">
<polygon fill="white" stroke="#666666" points="908,-140 836,-140 836,-121 908,-121 908,-140"/>
<text text-anchor="middle" x="872" y="-128" font-family="Helvetica,sans-Serif" font-size="10.00">raptiquax.h</text>
</a>
</g>
</g>
<!-- Node1&#45;&gt;Node2 -->
<g id="edge1_Node000001_Node000002" class="edge">
<title>Node1&#45;&gt;Node2</title>
<g id="a_edge1_Node000001_Node000002"><a xlink:title=" ">
<path fill="none" stroke="#63b8ff" d="M1788.48,-293.82C1626.97,-291.14 1077.54,-279.88 1005,-250 951.82,-228.09 905.72,-175.48 884.47,-148.33"/>
<polygon fill="#63b8ff" stroke="#63b8ff" points="887.1,-146 878.25,-140.18 881.54,-150.25 887.1,-146"/>
</a>
</g>
</g>
<!-- Node24 -->
<g id="Node000024" class="node">
<title>Node24</title>
<g id="a_Node000024"><a xlink:href="math__util_8h.html" target="_top" xlink:title=" ">
<polygon fill="white" stroke="#666666" points="1231.5,-140 1130.5,-140 1130.5,-121 1231.5,-121 1231.5,-140"/>
<text text-anchor="middle" x="1181" y="-128" font-family="Helvetica,sans-Serif" font-size="10.00">math/math_util.h</text>
</a>
</g>
</g>
<!-- Node1&#45;&gt;Node24 -->
<g id="edge21_Node000001_Node000024" class="edge">
<title>Node1&#45;&gt;Node24</title>
<g id="a_edge21_Node000001_Node000024"><a xlink:title=" ">
<path fill="none" stroke="#63b8ff" d="M1788.1,-294.11C1672.63,-292.59 1367.87,-285.26 1274,-250 1235.64,-235.59 1223.51,-228.56 1200,-195 1190.61,-181.6 1185.79,-163.5 1183.36,-150.05"/>
<polygon fill="#63b8ff" stroke="#63b8ff" points="1186.8,-149.41 1181.83,-140.05 1179.88,-150.46 1186.8,-149.41"/>
</a>
</g>
</g>
<!-- Node25 -->
<g id="Node000025" class="node">
<title>Node25</title>
<g id="a_Node000025"><a xlink:href="model_8h.html" target="_top" xlink:title="Defines structures and functions for handling 3D models and their properties.">
<polygon fill="white" stroke="#666666" points="1558,-140 1490,-140 1490,-121 1558,-121 1558,-140"/>
<text text-anchor="middle" x="1524" y="-128" font-family="Helvetica,sans-Serif" font-size="10.00">io/model.h</text>
</a>
</g>
</g>
<!-- Node1&#45;&gt;Node25 -->
<g id="edge22_Node000001_Node000025" class="edge">
<title>Node1&#45;&gt;Node25</title>
<g id="a_edge22_Node000001_Node000025"><a xlink:title=" ">
<path fill="none" stroke="#63b8ff" d="M1788.29,-292.06C1698.46,-286.71 1502.89,-272.58 1483,-250 1469.55,-234.73 1497.61,-178.56 1513.73,-149.38"/>
<polygon fill="#63b8ff" stroke="#63b8ff" points="1516.99,-150.72 1518.84,-140.29 1510.89,-147.29 1516.99,-150.72"/>
</a>
</g>
</g>
<!-- Node26 -->
<g id="Node000026" class="node">
<title>Node26</title>
<g id="a_Node000026"><a xlink:href="shader_8h.html" target="_top" xlink:title=" ">
<polygon fill="white" stroke="#666666" points="1553,-79.5 1495,-79.5 1495,-60.5 1553,-60.5 1553,-79.5"/>
<text text-anchor="middle" x="1524" y="-67.5" font-family="Helvetica,sans-Serif" font-size="10.00">shader.h</text>
</a>
</g>
</g>
<!-- Node1&#45;&gt;Node26 -->
<g id="edge49_Node000001_Node000026" class="edge">
<title>Node1&#45;&gt;Node26</title>
<g id="a_edge49_Node000001_Node000026"><a xlink:title=" ">
<path fill="none" stroke="#63b8ff" d="M1788.29,-294.23C1654.49,-293.02 1258.96,-286.37 1136,-250 1088.11,-235.83 1063.24,-238.1 1038,-195 1012.2,-150.94 1081.83,-130.23 1104,-121 1261.44,-55.48 1319.71,-122.79 1486,-85 1488.67,-84.39 1491.41,-83.65 1494.13,-82.82"/>
<polygon fill="#63b8ff" stroke="#63b8ff" points="1495.43,-86.07 1503.78,-79.55 1493.19,-79.44 1495.43,-86.07"/>
</a>
</g>
</g>
<!-- Node31 -->
<g id="Node000031" class="node">
<title>Node31</title>
<g id="a_Node000031"><a xlink:href="input_8h.html" target="_top" xlink:title=" ">
<polygon fill="white" stroke="#666666" points="1702,-140 1640,-140 1640,-121 1702,-121 1702,-140"/>
<text text-anchor="middle" x="1671" y="-128" font-family="Helvetica,sans-Serif" font-size="10.00">io/input.h</text>
</a>
</g>
</g>
<!-- Node1&#45;&gt;Node31 -->
<g id="edge25_Node000001_Node000031" class="edge">
<title>Node1&#45;&gt;Node31</title>
<g id="a_edge25_Node000001_Node000031"><a xlink:title=" ">
<path fill="none" stroke="#63b8ff" d="M1853.01,-285.84C1873.27,-277.01 1905.44,-262.84 1933,-250 1950.48,-241.86 1953.87,-237.57 1972,-231 2034.84,-208.24 2076.79,-247.61 2118,-195 2123.21,-188.35 2123.67,-182.26 2118,-176 2091.05,-146.24 1818.22,-135.56 1712.52,-132.53"/>
<polygon fill="#63b8ff" stroke="#63b8ff" points="1712.33,-129.02 1702.24,-132.24 1712.14,-136.02 1712.33,-129.02"/>
</a>
</g>
</g>
<!-- Node32 -->
<g id="Node000032" class="node">
<title>Node32</title>
<g id="a_Node000032"><a xlink:href="framebuffer_8h.html" target="_top" xlink:title=" ">
<polygon fill="white" stroke="#666666" points="1686.5,-195 1569.5,-195 1569.5,-176 1686.5,-176 1686.5,-195"/>
<text text-anchor="middle" x="1628" y="-183" font-family="Helvetica,sans-Serif" font-size="10.00">render/framebuffer.h</text>
</a>
</g>
</g>
<!-- Node1&#45;&gt;Node32 -->
<g id="edge26_Node000001_Node000032" class="edge">
<title>Node1&#45;&gt;Node32</title>
<g id="a_edge26_Node000001_Node000032"><a xlink:title=" ">
<path fill="none" stroke="#63b8ff" d="M1788.13,-294.08C1748.77,-291.43 1692.18,-281.76 1655,-250 1641.77,-238.7 1634.87,-219.8 1631.36,-205.54"/>
<polygon fill="#63b8ff" stroke="#63b8ff" points="1634.7,-204.42 1629.23,-195.35 1627.85,-205.85 1634.7,-204.42"/>
</a>
</g>
</g>
<!-- Node33 -->
<g id="Node000033" class="node">
<title>Node33</title>
<g id="a_Node000033"><a xlink:href="node_8h.html" target="_top" xlink:title=" ">
<polygon fill="white" stroke="#666666" points="1392.5,-250 1303.5,-250 1303.5,-231 1392.5,-231 1392.5,-250"/>
<text text-anchor="middle" x="1348" y="-238" font-family="Helvetica,sans-Serif" font-size="10.00">storage/node.h</text>
</a>
</g>
</g>
<!-- Node1&#45;&gt;Node33 -->
<g id="edge28_Node000001_Node000033" class="edge">
<title>Node1&#45;&gt;Node33</title>
<g id="a_edge28_Node000001_Node000033"><a xlink:title=" ">
<path fill="none" stroke="#63b8ff" d="M1788.29,-290.22C1711.21,-282.73 1548.33,-266.5 1411,-250 1408.32,-249.68 1405.57,-249.34 1402.8,-248.99"/>
<polygon fill="#63b8ff" stroke="#63b8ff" points="1403.08,-245.5 1392.72,-247.7 1402.19,-252.44 1403.08,-245.5"/>
</a>
</g>
</g>
<!-- Node34 -->
<g id="Node000034" class="node">
<title>Node34</title>
<g id="a_Node000034"><a xlink:href="camera_8h.html" target="_top" xlink:title=" ">
<polygon fill="white" stroke="#666666" points="1153,-195 1047,-195 1047,-176 1153,-176 1153,-195"/>
<text text-anchor="middle" x="1100" y="-183" font-family="Helvetica,sans-Serif" font-size="10.00">../render/camera.h</text>
</a>
</g>
</g>
<!-- Node1&#45;&gt;Node34 -->
<g id="edge48_Node000001_Node000034" class="edge">
<title>Node1&#45;&gt;Node34</title>
<g id="a_edge48_Node000001_Node000034"><a xlink:title=" ">
<path fill="none" stroke="#63b8ff" d="M1788.22,-293.26C1648.04,-289.15 1223.59,-274.78 1167,-250 1143.93,-239.9 1123.93,-218.27 1111.93,-203.07"/>
<polygon fill="#63b8ff" stroke="#63b8ff" points="1114.65,-200.87 1105.83,-195 1109.07,-205.09 1114.65,-200.87"/>
</a>
</g>
</g>
<!-- Node35 -->
<g id="Node000035" class="node">
<title>Node35</title>
<g id="a_Node000035"><a xlink:href="bodies_8h.html" target="_top" xlink:title=" ">
<polygon fill="white" stroke="#666666" points="1316.5,-195 1209.5,-195 1209.5,-176 1316.5,-176 1316.5,-195"/>
<text text-anchor="middle" x="1263" y="-183" font-family="Helvetica,sans-Serif" font-size="10.00">../physics/bodies.h</text>
</a>
</g>
</g>
<!-- Node1&#45;&gt;Node35 -->
<g id="edge55_Node000001_Node000035" class="edge">
<title>Node1&#45;&gt;Node35</title>
<g id="a_edge55_Node000001_Node000035"><a xlink:title=" ">
<path fill="none" stroke="#63b8ff" d="M1788.39,-293.32C1666.53,-289.77 1334.41,-277.62 1294,-250 1278.99,-239.74 1270.97,-220.07 1266.87,-205.33"/>
<polygon fill="#63b8ff" stroke="#63b8ff" points="1270.19,-204.17 1264.46,-195.26 1263.39,-205.8 1270.19,-204.17"/>
</a>
</g>
</g>
<!-- Node36 -->
<g id="Node000036" class="node">
<title>Node36</title>
<g id="a_Node000036"><a xlink:href="scripts_8h.html" target="_top" xlink:title=" ">
<polygon fill="white" stroke="#666666" points="1475,-195 1373,-195 1373,-176 1475,-176 1475,-195"/>
<text text-anchor="middle" x="1424" y="-183" font-family="Helvetica,sans-Serif" font-size="10.00">../scripts/scripts.h</text>
</a>
</g>
</g>
<!-- Node1&#45;&gt;Node36 -->
<g id="edge56_Node000001_Node000036" class="edge">
<title>Node1&#45;&gt;Node36</title>
<g id="a_edge56_Node000001_Node000036"><a xlink:title=" ">
<path fill="none" stroke="#63b8ff" d="M1788.36,-294.85C1699.01,-294.67 1502.27,-289.64 1450,-250 1435.93,-239.33 1429.44,-219.73 1426.46,-205.12"/>
<polygon fill="#63b8ff" stroke="#63b8ff" points="1429.9,-204.44 1424.81,-195.14 1422.99,-205.58 1429.9,-204.44"/>
</a>
</g>
</g>
<!-- Node38 -->
<g id="Node000038" class="node">
<title>Node38</title>
<g id="a_Node000038"><a xlink:href="depth__map_8h.html" target="_top" xlink:title=" ">
<polygon fill="white" stroke="#666666" points="1607.5,-250 1492.5,-250 1492.5,-231 1607.5,-231 1607.5,-250"/>
<text text-anchor="middle" x="1550" y="-238" font-family="Helvetica,sans-Serif" font-size="10.00">render/depth_map.h</text>
</a>
</g>
</g>
<!-- Node1&#45;&gt;Node38 -->
<g id="edge41_Node000001_Node000038" class="edge">
<title>Node1&#45;&gt;Node38</title>
<g id="a_edge41_Node000001_Node000038"><a xlink:title=" ">
<path fill="none" stroke="#63b8ff" d="M1788.47,-286.16C1739.04,-276.9 1659.2,-261.95 1605.68,-251.93"/>
<polygon fill="#63b8ff" stroke="#63b8ff" points="1606.15,-248.45 1595.68,-250.05 1604.86,-255.34 1606.15,-248.45"/>
</a>
</g>
</g>
<!-- Node39 -->
<g id="Node000039" class="node">
<title>Node39</title>
<g id="a_Node000039"><a xlink:href="render_8h.html" target="_top" xlink:title=" ">
<polygon fill="white" stroke="#666666" points="2071.5,-250 1980.5,-250 1980.5,-231 2071.5,-231 2071.5,-250"/>
<text text-anchor="middle" x="2026" y="-238" font-family="Helvetica,sans-Serif" font-size="10.00">render/render.h</text>
</a>
</g>
</g>
<!-- Node1&#45;&gt;Node39 -->
<g id="edge44_Node000001_Node000039" class="edge">
<title>Node1&#45;&gt;Node39</title>
<g id="a_edge44_Node000001_Node000039"><a xlink:title=" ">
<path fill="none" stroke="#63b8ff" d="M1864.01,-285.98C1896.83,-276.97 1948.8,-262.7 1984.99,-252.76"/>
<polygon fill="#63b8ff" stroke="#63b8ff" points="1986.03,-256.11 1994.75,-250.08 1984.18,-249.36 1986.03,-256.11"/>
</a>
</g>
</g>
<!-- Node40 -->
<g id="Node000040" class="node">
<title>Node40</title>
<g id="a_Node000040"><a xlink:href="lighting_8h.html" target="_top" xlink:title=" ">
<polygon fill="white" stroke="#666666" points="1840.5,-195 1743.5,-195 1743.5,-176 1840.5,-176 1840.5,-195"/>
<text text-anchor="middle" x="1792" y="-183" font-family="Helvetica,sans-Serif" font-size="10.00">render/lighting.h</text>
</a>
</g>
</g>
<!-- Node1&#45;&gt;Node40 -->
<g id="edge45_Node000001_Node000040" class="edge">
<title>Node1&#45;&gt;Node40</title>
<g id="a_edge45_Node000001_Node000040"><a xlink:title=" ">
<path fill="none" stroke="#63b8ff" d="M1828.74,-285.75C1824.5,-276.86 1817.91,-262.63 1813,-250 1807.21,-235.1 1801.57,-217.86 1797.6,-205.11"/>
<polygon fill="#63b8ff" stroke="#63b8ff" points="1800.85,-203.77 1794.57,-195.23 1794.15,-205.81 1800.85,-203.77"/>
</a>
</g>
</g>
<!-- Node41 -->
<g id="Node000041" class="node">
<title>Node41</title>
<g id="a_Node000041"><a xlink:href="window_8h.html" target="_top" xlink:title=" ">
<polygon fill="white" stroke="#666666" points="2152,-250 2090,-250 2090,-231 2152,-231 2152,-250"/>
<text text-anchor="middle" x="2121" y="-238" font-family="Helvetica,sans-Serif" font-size="10.00">window.h</text>
</a>
</g>
</g>
<!-- Node1&#45;&gt;Node41 -->
<g id="edge46_Node000001_Node000041" class="edge">
<title>Node1&#45;&gt;Node41</title>
<g id="a_edge46_Node000001_Node000041"><a xlink:title=" ">
<path fill="none" stroke="#63b8ff" d="M1877.88,-286.89C1925.48,-278.72 2003.14,-265.11 2079.33,-250.28"/>
<polygon fill="#63b8ff" stroke="#63b8ff" points="2080.43,-253.63 2089.58,-248.28 2079.09,-246.76 2080.43,-253.63"/>
</a>
</g>
</g>
<!-- Node42 -->
<g id="Node000042" class="node">
<title>Node42</title>
<g id="a_Node000042"><a xlink:href="osio_8h.html" target="_top" xlink:title="File operations and error handling for the project.">
<polygon fill="white" stroke="#666666" points="2228,-250 2170,-250 2170,-231 2228,-231 2228,-250"/>
<text text-anchor="middle" x="2199" y="-238" font-family="Helvetica,sans-Serif" font-size="10.00">io/osio.h</text>
</a>
</g>
</g>
<!-- Node1&#45;&gt;Node42 -->
<g id="edge47_Node000001_Node000042" class="edge">
<title>Node1&#45;&gt;Node42</title>
<g id="a_edge47_Node000001_Node000042"><a xlink:title=" ">
<path fill="none" stroke="#63b8ff" d="M1877.75,-289.65C1939.15,-282.73 2053.15,-268.93 2159.64,-250.11"/>
<polygon fill="#63b8ff" stroke="#63b8ff" points="2160.36,-253.54 2169.59,-248.34 2159.13,-246.65 2160.36,-253.54"/>
</a>
</g>
</g>
<!-- Node43 -->
<g id="Node000043" class="node">
<title>Node43</title>
<g id="a_Node000043"><a xlink:href="scene__loader_8h.html" target="_top" xlink:title=" ">
<polygon fill="white" stroke="#666666" points="2347.5,-250 2246.5,-250 2246.5,-231 2347.5,-231 2347.5,-250"/>
<text text-anchor="middle" x="2297" y="-238" font-family="Helvetica,sans-Serif" font-size="10.00">io/scene_loader.h</text>
</a>
</g>
</g>
<!-- Node1&#45;&gt;Node43 -->
<g id="edge50_Node000001_Node000043" class="edge">
<title>Node1&#45;&gt;Node43</title>
<g id="a_edge50_Node000001_Node000043"><a xlink:title=" ">
<path fill="none" stroke="#63b8ff" d="M1877.59,-290.05C1950.28,-282.68 2099.11,-267.19 2236.02,-250.09"/>
<polygon fill="#63b8ff" stroke="#63b8ff" points="2236.79,-253.52 2246.28,-248.8 2235.92,-246.57 2236.79,-253.52"/>
</a>
</g>
</g>
<!-- Node44 -->
<g id="Node000044" class="node">
<title>Node44</title>
<g id="a_Node000044"><a xlink:href="node__loader_8h.html" target="_top" xlink:title=" ">
<polygon fill="white" stroke="#666666" points="2462.5,-250 2365.5,-250 2365.5,-231 2462.5,-231 2462.5,-250"/>
<text text-anchor="middle" x="2414" y="-238" font-family="Helvetica,sans-Serif" font-size="10.00">io/node_loader.h</text>
</a>
</g>
</g>
<!-- Node1&#45;&gt;Node44 -->
<g id="edge51_Node000001_Node000044" class="edge">
<title>Node1&#45;&gt;Node44</title>
<g id="a_edge51_Node000001_Node000044"><a xlink:title=" ">
<path fill="none" stroke="#63b8ff" d="M1877.61,-291.67C1966.52,-285.82 2172.33,-271.24 2355.14,-250.15"/>
<polygon fill="#63b8ff" stroke="#63b8ff" points="2355.68,-253.61 2365.21,-248.98 2354.87,-246.66 2355.68,-253.61"/>
</a>
</g>
</g>
<!-- Node45 -->
<g id="Node000045" class="node">
<title>Node45</title>
<g id="a_Node000045"><a xlink:href="physics_8h.html" target="_top" xlink:title=" ">
<polygon fill="white" stroke="#666666" points="1766,-250 1664,-250 1664,-231 1766,-231 1766,-250"/>
<text text-anchor="middle" x="1715" y="-238" font-family="Helvetica,sans-Serif" font-size="10.00">physics/physics.h</text>
</a>
</g>
</g>
<!-- Node1&#45;&gt;Node45 -->
<g id="edge52_Node000001_Node000045" class="edge">
<title>Node1&#45;&gt;Node45</title>
<g id="a_edge52_Node000001_Node000045"><a xlink:title=" ">
<path fill="none" stroke="#63b8ff" d="M1814.04,-285.98C1794.97,-277.42 1765.34,-264.11 1743.45,-254.28"/>
<polygon fill="#63b8ff" stroke="#63b8ff" points="1744.86,-251.07 1734.3,-250.17 1741.99,-257.46 1744.86,-251.07"/>
</a>
</g>
</g>
<!-- Node46 -->
<g id="Node000046" class="node">
<title>Node46</title>
<g id="a_Node000046"><a xlink:href="frame_8h.html" target="_top" xlink:title="GUI Frame and related structures for SDL and OpenGL project.">
<polygon fill="white" stroke="#666666" points="2553.5,-250 2480.5,-250 2480.5,-231 2553.5,-231 2553.5,-250"/>
<text text-anchor="middle" x="2517" y="-238" font-family="Helvetica,sans-Serif" font-size="10.00">gui/frame.h</text>
</a>
</g>
</g>
<!-- Node1&#45;&gt;Node46 -->
<g id="edge57_Node000001_Node000046" class="edge">
<title>Node1&#45;&gt;Node46</title>
<g id="a_edge57_Node000001_Node000046"><a xlink:title=" ">
<path fill="none" stroke="#63b8ff" d="M1877.72,-293.19C1980.62,-289.78 2242.22,-278.92 2470.08,-250.11"/>
<polygon fill="#63b8ff" stroke="#63b8ff" points="2470.74,-253.55 2480.22,-248.81 2469.86,-246.61 2470.74,-253.55"/>
</a>
</g>
</g>
<!-- Node47 -->
<g id="Node000047" class="node">
<title>Node47</title>
<g id="a_Node000047"><a xlink:href="settings_8h.html" target="_top" xlink:title=" ">
<polygon fill="white" stroke="#666666" points="2636.5,-250 2571.5,-250 2571.5,-231 2636.5,-231 2636.5,-250"/>
<text text-anchor="middle" x="2604" y="-238" font-family="Helvetica,sans-Serif" font-size="10.00">settings.h</text>
</a>
</g>
</g>
<!-- Node1&#45;&gt;Node47 -->
<g id="edge58_Node000001_Node000047" class="edge">
<title>Node1&#45;&gt;Node47</title>
<g id="a_edge58_Node000001_Node000047"><a xlink:title=" ">
<path fill="none" stroke="#63b8ff" d="M1877.65,-294C1990.64,-292.27 2297.08,-284.62 2561.23,-250.05"/>
<polygon fill="#63b8ff" stroke="#63b8ff" points="2561.95,-253.48 2571.4,-248.7 2561.03,-246.54 2561.95,-253.48"/>
</a>
</g>
</g>
<!-- Node48 -->
<g id="Node000048" class="node">
<title>Node48</title>
<g id="a_Node000048"><a xlink:href="memory_8h.html" target="_top" xlink:title="Header file for memory management functions and structures.">
<polygon fill="white" stroke="#666666" points="2719.5,-250 2654.5,-250 2654.5,-231 2719.5,-231 2719.5,-250"/>
<text text-anchor="middle" x="2687" y="-238" font-family="Helvetica,sans-Serif" font-size="10.00">memory.h</text>
</a>
</g>
</g>
<!-- Node1&#45;&gt;Node48 -->
<g id="edge59_Node000001_Node000048" class="edge">
<title>Node1&#45;&gt;Node48</title>
<g id="a_edge59_Node000001_Node000048"><a xlink:title=" ">
<path fill="none" stroke="#63b8ff" d="M1877.72,-294.4C1999.43,-293.62 2346.87,-288.07 2644.29,-250.03"/>
<polygon fill="#63b8ff" stroke="#63b8ff" points="2644.93,-253.47 2654.4,-248.72 2644.03,-246.53 2644.93,-253.47"/>
</a>
</g>
</g>
<!-- Node49 -->
<g id="Node000049" class="node">
<title>Node49</title>
<g id="a_Node000049"><a xlink:href="buffer_8h.html" target="_top" xlink:title="Functions for initializing and freeing Game.buffers&#45;&gt;">
<polygon fill="white" stroke="#666666" points="2790.5,-250 2737.5,-250 2737.5,-231 2790.5,-231 2790.5,-250"/>
<text text-anchor="middle" x="2764" y="-238" font-family="Helvetica,sans-Serif" font-size="10.00">buffer.h</text>
</a>
</g>
</g>
<!-- Node1&#45;&gt;Node49 -->
<g id="edge60_Node000001_Node000049" class="edge">
<title>Node1&#45;&gt;Node49</title>
<g id="a_edge60_Node000001_Node000049"><a xlink:title=" ">
<path fill="none" stroke="#63b8ff" d="M1877.68,-293.4C2031.94,-289.42 2542.43,-274.78 2727.22,-249.94"/>
<polygon fill="#63b8ff" stroke="#63b8ff" points="2727.93,-253.38 2737.35,-248.52 2726.96,-246.44 2727.93,-253.38"/>
</a>
</g>
</g>
<!-- Node50 -->
<g id="Node000050" class="node">
<title>Node50</title>
<g id="a_Node000050"><a xlink:href="queue_8h.html" target="_top" xlink:title="Queue data structure and related operations.">
<polygon fill="white" stroke="#666666" points="2903.5,-250 2808.5,-250 2808.5,-231 2903.5,-231 2903.5,-250"/>
<text text-anchor="middle" x="2856" y="-238" font-family="Helvetica,sans-Serif" font-size="10.00">storage/queue.h</text>
</a>
</g>
</g>
<!-- Node1&#45;&gt;Node50 -->
<g id="edge61_Node000001_Node000050" class="edge">
<title>Node1&#45;&gt;Node50</title>
<g id="a_edge61_Node000001_Node000050"><a xlink:title=" ">
<path fill="none" stroke="#63b8ff" d="M1877.94,-294.1C2014.69,-292.54 2437.9,-285.07 2798.28,-250.06"/>
<polygon fill="#63b8ff" stroke="#63b8ff" points="2798.77,-253.53 2808.38,-249.07 2798.09,-246.57 2798.77,-253.53"/>
</a>
</g>
</g>
<!-- Node51 -->
<g id="Node000051" class="node">
<title>Node51</title>
<g id="a_Node000051"><a xlink:href="hash_8h.html" target="_top" xlink:title=" ">
<polygon fill="white" stroke="#666666" points="267.5,-140 178.5,-140 178.5,-121 267.5,-121 267.5,-140"/>
<text text-anchor="middle" x="223" y="-128" font-family="Helvetica,sans-Serif" font-size="10.00">storage/hash.h</text>
</a>
</g>
</g>
<!-- Node1&#45;&gt;Node51 -->
<g id="edge62_Node000001_Node000051" class="edge">
<title>Node1&#45;&gt;Node51</title>
<g id="a_edge62_Node000001_Node000051"><a xlink:title=" ">
<path fill="none" stroke="#63b8ff" d="M1788.3,-293.88C1660.21,-291.73 1280.94,-282.84 968,-250 707.02,-222.61 398.19,-165.5 276.28,-141.98"/>
<polygon fill="#63b8ff" stroke="#63b8ff" points="276.93,-138.54 266.45,-140.07 275.6,-145.41 276.93,-138.54"/>
</a>
</g>
</g>
<!-- Node52 -->
<g id="Node000052" class="node">
<title>Node52</title>
<g id="a_Node000052"><a xlink:href="scene_8h.html" target="_top" xlink:title=" ">
<polygon fill="white" stroke="#666666" points="3000,-250 2922,-250 2922,-231 3000,-231 3000,-250"/>
<text text-anchor="middle" x="2961" y="-238" font-family="Helvetica,sans-Serif" font-size="10.00">utils/scene.h</text>
</a>
</g>
</g>
<!-- Node1&#45;&gt;Node52 -->
<g id="edge64_Node000001_Node000052" class="edge">
<title>Node1&#45;&gt;Node52</title>
<g id="a_edge64_Node000001_Node000052"><a xlink:title=" ">
<path fill="none" stroke="#63b8ff" d="M1877.65,-294.8C2024.37,-295.33 2504.99,-293.48 2911.57,-249.99"/>
<polygon fill="#63b8ff" stroke="#63b8ff" points="2912.2,-253.44 2921.77,-248.89 2911.45,-246.48 2912.2,-253.44"/>
</a>
</g>
</g>
<!-- Node53 -->
<g id="Node000053" class="node">
<title>Node53</title>
<g id="a_Node000053"><a xlink:href="classes_8h.html" target="_top" xlink:title=" ">
<polygon fill="white" stroke="#666666" points="1923.5,-250 1822.5,-250 1822.5,-231 1923.5,-231 1923.5,-250"/>
<text text-anchor="middle" x="1873" y="-238" font-family="Helvetica,sans-Serif" font-size="10.00">classes/classes.h</text>
</a>
</g>
</g>
<!-- Node1&#45;&gt;Node53 -->
<g id="edge65_Node000001_Node000053" class="edge">
<title>Node1&#45;&gt;Node53</title>
<g id="a_edge65_Node000001_Node000053"><a xlink:title=" ">
<path fill="none" stroke="#63b8ff" d="M1839.61,-285.75C1845.26,-278.26 1853.54,-267.28 1860.45,-258.13"/>
<polygon fill="#63b8ff" stroke="#63b8ff" points="1863.29,-260.18 1866.52,-250.09 1857.7,-255.96 1863.29,-260.18"/>
</a>
</g>
</g>
<!-- Node3 -->
<g id="Node000003" class="node">
<title>Node3</title>
<g id="a_Node000003"><a xlink:title=" ">
<polygon fill="#e0e0e0" stroke="#999999" points="204,-79.5 154,-79.5 154,-60.5 204,-60.5 204,-79.5"/>
<text text-anchor="middle" x="179" y="-67.5" font-family="Helvetica,sans-Serif" font-size="10.00">stdio.h</text>
</a>
</g>
</g>
<!-- Node2&#45;&gt;Node3 -->
<g id="edge2_Node000002_Node000003" class="edge">
<title>Node2&#45;&gt;Node3</title>
<g id="a_edge2_Node000002_Node000003"><a xlink:title=" ">
<path fill="none" stroke="#63b8ff" d="M835.94,-128.59C716.27,-125.35 333.05,-112.98 213,-85 210.78,-84.48 208.51,-83.84 206.26,-83.11"/>
<polygon fill="#63b8ff" stroke="#63b8ff" points="207.23,-79.73 196.64,-79.53 204.79,-86.29 207.23,-79.73"/>
</a>
</g>
</g>
<!-- Node4 -->
<g id="Node000004" class="node">
<title>Node4</title>
<g id="a_Node000004"><a xlink:title=" ">
<polygon fill="#e0e0e0" stroke="#999999" points="275.5,-79.5 222.5,-79.5 222.5,-60.5 275.5,-60.5 275.5,-79.5"/>
<text text-anchor="middle" x="249" y="-67.5" font-family="Helvetica,sans-Serif" font-size="10.00">stdint.h</text>
</a>
</g>
</g>
<!-- Node2&#45;&gt;Node4 -->
<g id="edge3_Node000002_Node000004" class="edge">
<title>Node2&#45;&gt;Node4</title>
<g id="a_edge3_Node000002_Node000004"><a xlink:title=" ">
<path fill="none" stroke="#63b8ff" d="M835.69,-128.15C724.66,-123.8 390.77,-109.02 285,-85 282.63,-84.46 280.2,-83.79 277.79,-83.05"/>
<polygon fill="#63b8ff" stroke="#63b8ff" points="278.7,-79.65 268.1,-79.63 276.37,-86.26 278.7,-79.65"/>
</a>
</g>
</g>
<!-- Node5 -->
<g id="Node000005" class="node">
<title>Node5</title>
<g id="a_Node000005"><a xlink:title=" ">
<polygon fill="#e0e0e0" stroke="#999999" points="62,-79.5 0,-79.5 0,-60.5 62,-60.5 62,-79.5"/>
<text text-anchor="middle" x="31" y="-67.5" font-family="Helvetica,sans-Serif" font-size="10.00">stdbool.h</text>
</a>
</g>
</g>
<!-- Node2&#45;&gt;Node5 -->
<g id="edge4_Node000002_Node000005" class="edge">
<title>Node2&#45;&gt;Node5</title>
<g id="a_edge4_Node000002_Node000005"><a xlink:title=" ">
<path fill="none" stroke="#63b8ff" d="M835.55,-128.83C699.34,-126.13 220.41,-114.68 71,-85 67.92,-84.39 64.76,-83.59 61.63,-82.69"/>
<polygon fill="#63b8ff" stroke="#63b8ff" points="62.46,-79.28 51.86,-79.54 60.31,-85.94 62.46,-79.28"/>
</a>
</g>
</g>
<!-- Node6 -->
<g id="Node000006" class="node">
<title>Node6</title>
<g id="a_Node000006"><a xlink:title=" ">
<polygon fill="#e0e0e0" stroke="#999999" points="350,-79.5 294,-79.5 294,-60.5 350,-60.5 350,-79.5"/>
<text text-anchor="middle" x="322" y="-67.5" font-family="Helvetica,sans-Serif" font-size="10.00">stdarg.h</text>
</a>
</g>
</g>
<!-- Node2&#45;&gt;Node6 -->
<g id="edge5_Node000002_Node000006" class="edge">
<title>Node2&#45;&gt;Node6</title>
<g id="a_edge5_Node000002_Node000006"><a xlink:title=" ">
<path fill="none" stroke="#63b8ff" d="M835.71,-129.75C751.07,-129.6 534.41,-124.99 359,-85 356.48,-84.43 353.9,-83.72 351.34,-82.93"/>
<polygon fill="#63b8ff" stroke="#63b8ff" points="352.25,-79.54 341.66,-79.58 349.97,-86.16 352.25,-79.54"/>
</a>
</g>
</g>
<!-- Node7 -->
<g id="Node000007" class="node">
<title>Node7</title>
<g id="a_Node000007"><a xlink:title=" ">
<polygon fill="#e0e0e0" stroke="#999999" points="421.5,-79.5 368.5,-79.5 368.5,-60.5 421.5,-60.5 421.5,-79.5"/>
<text text-anchor="middle" x="395" y="-67.5" font-family="Helvetica,sans-Serif" font-size="10.00">limits.h</text>
</a>
</g>
</g>
<!-- Node2&#45;&gt;Node7 -->
<g id="edge6_Node000002_Node000007" class="edge">
<title>Node2&#45;&gt;Node7</title>
<g id="a_edge6_Node000002_Node000007"><a xlink:title=" ">
<path fill="none" stroke="#63b8ff" d="M835.72,-129.13C759.63,-127.65 578.21,-120.36 431,-85 428.63,-84.43 426.22,-83.74 423.81,-82.98"/>
<polygon fill="#63b8ff" stroke="#63b8ff" points="424.72,-79.59 414.12,-79.54 422.37,-86.19 424.72,-79.59"/>
</a>
</g>
</g>
<!-- Node8 -->
<g id="Node000008" class="node">
<title>Node8</title>
<g id="a_Node000008"><a xlink:title=" ">
<polygon fill="#e0e0e0" stroke="#999999" points="512,-79.5 440,-79.5 440,-60.5 512,-60.5 512,-79.5"/>
<text text-anchor="middle" x="476" y="-67.5" font-family="Helvetica,sans-Serif" font-size="10.00">SDL2/SDL.h</text>
</a>
</g>
</g>
<!-- Node2&#45;&gt;Node8 -->
<g id="edge7_Node000002_Node000008" class="edge">
<title>Node2&#45;&gt;Node8</title>
<g id="a_edge7_Node000002_Node000008"><a xlink:title=" ">
<path fill="none" stroke="#63b8ff" d="M835.77,-127.01C771.7,-122.15 634.45,-109.64 521,-85 517.62,-84.27 514.13,-83.39 510.65,-82.45"/>
<polygon fill="#63b8ff" stroke="#63b8ff" points="511.6,-79.08 501.02,-79.64 509.64,-85.8 511.6,-79.08"/>
</a>
</g>
</g>
<!-- Node9 -->
<g id="Node000009" class="node">
<title>Node9</title>
<g id="a_Node000009"><a xlink:title=" ">
<polygon fill="#e0e0e0" stroke="#999999" points="638,-79.5 530,-79.5 530,-60.5 638,-60.5 638,-79.5"/>
<text text-anchor="middle" x="584" y="-67.5" font-family="Helvetica,sans-Serif" font-size="10.00">SDL2/SDL_image.h</text>
</a>
</g>
</g>
<!-- Node2&#45;&gt;Node9 -->
<g id="edge8_Node000002_Node000009" class="edge">
<title>Node2&#45;&gt;Node9</title>
<g id="a_edge8_Node000002_Node000009"><a xlink:title=" ">
<path fill="none" stroke="#63b8ff" d="M835.71,-122.59C791.19,-114.06 713.44,-98.95 647,-85 641.99,-83.95 636.76,-82.82 631.55,-81.69"/>
<polygon fill="#63b8ff" stroke="#63b8ff" points="632.13,-78.24 621.61,-79.51 630.63,-85.07 632.13,-78.24"/>
</a>
</g>
</g>
<!-- Node10 -->
<g id="Node000010" class="node">
<title>Node10</title>
<g id="a_Node000010"><a xlink:title=" ">
<polygon fill="#e0e0e0" stroke="#999999" points="766,-79.5 656,-79.5 656,-60.5 766,-60.5 766,-79.5"/>
<text text-anchor="middle" x="711" y="-67.5" font-family="Helvetica,sans-Serif" font-size="10.00">SDL2/SDL_opengl.h</text>
</a>
</g>
</g>
<!-- Node2&#45;&gt;Node10 -->
<g id="edge9_Node000002_Node000010" class="edge">
<title>Node2&#45;&gt;Node10</title>
<g id="a_edge9_Node000002_Node000010"><a xlink:title=" ">
<path fill="none" stroke="#63b8ff" d="M848.59,-120.99C821.05,-110.99 775.13,-94.3 743.99,-82.99"/>
<polygon fill="#63b8ff" stroke="#63b8ff" points="745.03,-79.64 734.44,-79.52 742.64,-86.22 745.03,-79.64"/>
</a>
</g>
</g>
<!-- Node11 -->
<g id="Node000011" class="node">
<title>Node11</title>
<g id="a_Node000011"><a xlink:title=" ">
<polygon fill="#e0e0e0" stroke="#999999" points="888,-79.5 784,-79.5 784,-60.5 888,-60.5 888,-79.5"/>
<text text-anchor="middle" x="836" y="-67.5" font-family="Helvetica,sans-Serif" font-size="10.00">SDL2/SDL_mixer.h</text>
</a>
</g>
</g>
<!-- Node2&#45;&gt;Node11 -->
<g id="edge10_Node000002_Node000011" class="edge">
<title>Node2&#45;&gt;Node11</title>
<g id="a_edge10_Node000002_Node000011"><a xlink:title=" ">
<path fill="none" stroke="#63b8ff" d="M866.69,-120.87C861.42,-112.31 853.21,-98.97 846.61,-88.24"/>
<polygon fill="#63b8ff" stroke="#63b8ff" points="849.56,-86.35 841.33,-79.67 843.59,-90.02 849.56,-86.35"/>
</a>
</g>
</g>
<!-- Node12 -->
<g id="Node000012" class="node">
<title>Node12</title>
<g id="a_Node000012"><a xlink:title=" ">
<polygon fill="#e0e0e0" stroke="#999999" points="994,-79.5 906,-79.5 906,-60.5 994,-60.5 994,-79.5"/>
<text text-anchor="middle" x="950" y="-67.5" font-family="Helvetica,sans-Serif" font-size="10.00">SDL2/SDL_ttf.h</text>
</a>
</g>
</g>
<!-- Node2&#45;&gt;Node12 -->
<g id="edge11_Node000002_Node000012" class="edge">
<title>Node2&#45;&gt;Node12</title>
<g id="a_edge11_Node000002_Node000012"><a xlink:title=" ">
<path fill="none" stroke="#63b8ff" d="M883.51,-120.87C895.84,-111.62 915.62,-96.78 930.41,-85.69"/>
<polygon fill="#63b8ff" stroke="#63b8ff" points="932.54,-88.47 938.44,-79.67 928.34,-82.87 932.54,-88.47"/>
</a>
</g>
</g>
<!-- Node13 -->
<g id="Node000013" class="node">
<title>Node13</title>
<g id="a_Node000013"><a xlink:title=" ">
<polygon fill="#e0e0e0" stroke="#999999" points="1062,-79.5 1012,-79.5 1012,-60.5 1062,-60.5 1062,-79.5"/>
<text text-anchor="middle" x="1037" y="-67.5" font-family="Helvetica,sans-Serif" font-size="10.00">GL/gl.h</text>
</a>
</g>
</g>
<!-- Node2&#45;&gt;Node13 -->
<g id="edge12_Node000002_Node000013" class="edge">
<title>Node2&#45;&gt;Node13</title>
<g id="a_edge12_Node000002_Node000013"><a xlink:title=" ">
<path fill="none" stroke="#63b8ff" d="M898.77,-120.95C925.37,-112.34 967.24,-98.42 1003,-85 1004.42,-84.47 1005.87,-83.91 1007.33,-83.35"/>
<polygon fill="#63b8ff" stroke="#63b8ff" points="1008.96,-86.46 1016.95,-79.5 1006.36,-79.96 1008.96,-86.46"/>
</a>
</g>
</g>
<!-- Node14 -->
<g id="Node000014" class="node">
<title>Node14</title>
<g id="a_Node000014"><a xlink:title=" ">
<polygon fill="#e0e0e0" stroke="#999999" points="1136,-79.5 1080,-79.5 1080,-60.5 1136,-60.5 1136,-79.5"/>
<text text-anchor="middle" x="1108" y="-67.5" font-family="Helvetica,sans-Serif" font-size="10.00">GL/glu.h</text>
</a>
</g>
</g>
<!-- Node2&#45;&gt;Node14 -->
<g id="edge13_Node000002_Node000014" class="edge">
<title>Node2&#45;&gt;Node14</title>
<g id="a_edge13_Node000002_Node000014"><a xlink:title=" ">
<path fill="none" stroke="#63b8ff" d="M908.35,-122.98C948.55,-115.4 1015.04,-101.75 1071,-85 1073.14,-84.36 1075.33,-83.66 1077.53,-82.92"/>
<polygon fill="#63b8ff" stroke="#63b8ff" points="1078.8,-86.18 1087.05,-79.52 1076.45,-79.58 1078.8,-86.18"/>
</a>
</g>
</g>
<!-- Node15 -->
<g id="Node000015" class="node">
<title>Node15</title>
<g id="a_Node000015"><a xlink:title=" ">
<polygon fill="#e0e0e0" stroke="#999999" points="1220,-79.5 1154,-79.5 1154,-60.5 1220,-60.5 1220,-79.5"/>
<text text-anchor="middle" x="1187" y="-67.5" font-family="Helvetica,sans-Serif" font-size="10.00">GL/glext.h</text>
</a>
</g>
</g>
<!-- Node2&#45;&gt;Node15 -->
<g id="edge14_Node000002_Node000015" class="edge">
<title>Node2&#45;&gt;Node15</title>
<g id="a_edge14_Node000002_Node000015"><a xlink:title=" ">
<path fill="none" stroke="#63b8ff" d="M908.14,-125.48C960.76,-119.21 1061.31,-105.63 1145,-85 1147.96,-84.27 1151.02,-83.43 1154.07,-82.53"/>
<polygon fill="#63b8ff" stroke="#63b8ff" points="1155.16,-85.86 1163.65,-79.52 1153.06,-79.18 1155.16,-85.86"/>
</a>
</g>
</g>
<!-- Node16 -->
<g id="Node000016" class="node">
<title>Node16</title>
<g id="a_Node000016"><a xlink:title=" ">
<polygon fill="#e0e0e0" stroke="#999999" points="1315.5,-79.5 1238.5,-79.5 1238.5,-60.5 1315.5,-60.5 1315.5,-79.5"/>
<text text-anchor="middle" x="1277" y="-67.5" font-family="Helvetica,sans-Serif" font-size="10.00">cglm/cglm.h</text>
</a>
</g>
</g>
<!-- Node2&#45;&gt;Node16 -->
<g id="edge15_Node000002_Node000016" class="edge">
<title>Node2&#45;&gt;Node16</title>
<g id="a_edge15_Node000002_Node000016"><a xlink:title=" ">
<path fill="none" stroke="#63b8ff" d="M908.03,-126.92C972.8,-121.87 1112.94,-109 1229,-85 1232.86,-84.2 1236.86,-83.25 1240.83,-82.22"/>
<polygon fill="#63b8ff" stroke="#63b8ff" points="1241.82,-85.57 1250.53,-79.54 1239.96,-78.82 1241.82,-85.57"/>
</a>
</g>
</g>
<!-- Node17 -->
<g id="Node000017" class="node">
<title>Node17</title>
<g id="a_Node000017"><a xlink:title=" ">
<polygon fill="#e0e0e0" stroke="#999999" points="1384.5,-79.5 1333.5,-79.5 1333.5,-60.5 1384.5,-60.5 1384.5,-79.5"/>
<text text-anchor="middle" x="1359" y="-67.5" font-family="Helvetica,sans-Serif" font-size="10.00">math.h</text>
</a>
</g>
</g>
<!-- Node2&#45;&gt;Node17 -->
<g id="edge16_Node000002_Node000017" class="edge">
<title>Node2&#45;&gt;Node17</title>
<g id="a_edge16_Node000002_Node000017"><a xlink:title=" ">
<path fill="none" stroke="#63b8ff" d="M908.3,-127.25C1001.09,-121.29 1245.19,-104.23 1324,-85 1326.31,-84.44 1328.66,-83.75 1331.01,-82.99"/>
<polygon fill="#63b8ff" stroke="#63b8ff" points="1332.23,-86.27 1340.43,-79.56 1329.84,-79.69 1332.23,-86.27"/>
</a>
</g>
</g>
<!-- Node18 -->
<g id="Node000018" class="node">
<title>Node18</title>
<g id="a_Node000018"><a xlink:href="stringio_8h.html" target="_top" xlink:title="Provides utility functions for string and file operations.">
<polygon fill="white" stroke="#666666" points="1477,-79.5 1403,-79.5 1403,-60.5 1477,-60.5 1477,-79.5"/>
<text text-anchor="middle" x="1440" y="-67.5" font-family="Helvetica,sans-Serif" font-size="10.00">io/stringio.h</text>
</a>
</g>
</g>
<!-- Node2&#45;&gt;Node18 -->
<g id="edge17_Node000002_Node000018" class="edge">
<title>Node2&#45;&gt;Node18</title>
<g id="a_edge17_Node000002_Node000018"><a xlink:title=" ">
<path fill="none" stroke="#63b8ff" d="M908.3,-126.83C1018.68,-118.66 1345.67,-93.97 1393,-85 1396.93,-84.25 1401.01,-83.31 1405.04,-82.27"/>
<polygon fill="#63b8ff" stroke="#63b8ff" points="1406.18,-85.58 1414.87,-79.52 1404.29,-78.84 1406.18,-85.58"/>
</a>
</g>
</g>
<!-- Node20 -->
<g id="Node000020" class="node">
<title>Node20</title>
<g id="a_Node000020"><a xlink:href="config_8h.html" target="_top" xlink:title=" ">
<polygon fill="white" stroke="#666666" points="135.5,-79.5 80.5,-79.5 80.5,-60.5 135.5,-60.5 135.5,-79.5"/>
<text text-anchor="middle" x="108" y="-67.5" font-family="Helvetica,sans-Serif" font-size="10.00">config.h</text>
</a>
</g>
</g>
<!-- Node2&#45;&gt;Node20 -->
<g id="edge19_Node000002_Node000020" class="edge">
<title>Node2&#45;&gt;Node20</title>
<g id="a_edge19_Node000002_Node000020"><a xlink:title=" ">
<path fill="none" stroke="#63b8ff" d="M835.86,-128.72C708.24,-125.75 279.14,-113.79 145,-85 142.32,-84.43 139.58,-83.69 136.86,-82.86"/>
<polygon fill="#63b8ff" stroke="#63b8ff" points="137.85,-79.5 127.25,-79.54 135.56,-86.11 137.85,-79.5"/>
</a>
</g>
</g>
<!-- Node19 -->
<g id="Node000019" class="node">
<title>Node19</title>
<g id="a_Node000019"><a xlink:title=" ">
<polygon fill="#e0e0e0" stroke="#999999" points="1466.5,-19 1413.5,-19 1413.5,0 1466.5,0 1466.5,-19"/>
<text text-anchor="middle" x="1440" y="-7" font-family="Helvetica,sans-Serif" font-size="10.00">string.h</text>
</a>
</g>
</g>
<!-- Node18&#45;&gt;Node19 -->
<g id="edge18_Node000018_Node000019" class="edge">
<title>Node18&#45;&gt;Node19</title>
<g id="a_edge18_Node000018_Node000019"><a xlink:title=" ">
<path fill="none" stroke="#63b8ff" d="M1440,-60.37C1440,-52.25 1440,-39.81 1440,-29.39"/>
<polygon fill="#63b8ff" stroke="#63b8ff" points="1443.5,-29.17 1440,-19.17 1436.5,-29.17 1443.5,-29.17"/>
</a>
</g>
</g>
<!-- Node21 -->
<g id="Node000021" class="node">
<title>Node21</title>
<g id="a_Node000021"><a xlink:href="term_8h.html" target="_top" xlink:title=" ">
<polygon fill="#fff0f0" stroke="red" points="145.5,-19 70.5,-19 70.5,0 145.5,0 145.5,-19"/>
<text text-anchor="middle" x="108" y="-7" font-family="Helvetica,sans-Serif" font-size="10.00">term/term.h</text>
</a>
</g>
</g>
<!-- Node20&#45;&gt;Node21 -->
<g id="edge20_Node000020_Node000021" class="edge">
<title>Node20&#45;&gt;Node21</title>
<g id="a_edge20_Node000020_Node000021"><a xlink:title=" ">
<path fill="none" stroke="#63b8ff" d="M108,-60.37C108,-52.25 108,-39.81 108,-29.39"/>
<polygon fill="#63b8ff" stroke="#63b8ff" points="111.5,-29.17 108,-19.17 104.5,-29.17 111.5,-29.17"/>
</a>
</g>
</g>
<!-- Node25&#45;&gt;Node26 -->
<g id="edge23_Node000025_Node000026" class="edge">
<title>Node25&#45;&gt;Node26</title>
<g id="a_edge23_Node000025_Node000026"><a xlink:title=" ">
<path fill="none" stroke="#63b8ff" d="M1524,-120.87C1524,-112.75 1524,-100.31 1524,-89.89"/>
<polygon fill="#63b8ff" stroke="#63b8ff" points="1527.5,-89.67 1524,-79.67 1520.5,-89.67 1527.5,-89.67"/>
</a>
</g>
</g>
<!-- Node27 -->
<g id="Node000027" class="node">
<title>Node27</title>
<g id="a_Node000027"><a xlink:href="model__loader_8h.html" target="_top" xlink:title=" ">
<polygon fill="#fff0f0" stroke="red" points="1693,-85 1571,-85 1571,-55 1693,-55 1693,-85"/>
<text text-anchor="start" x="1579" y="-73" font-family="Helvetica,sans-Serif" font-size="10.00">model_loaders/model</text>
<text text-anchor="middle" x="1632" y="-62" font-family="Helvetica,sans-Serif" font-size="10.00">_loader.h</text>
</a>
</g>
</g>
<!-- Node25&#45;&gt;Node27 -->
<g id="edge24_Node000025_Node000027" class="edge">
<title>Node25&#45;&gt;Node27</title>
<g id="a_edge24_Node000025_Node000027"><a xlink:title=" ">
<path fill="none" stroke="#63b8ff" d="M1539.94,-120.87C1554.93,-112.75 1577.89,-100.31 1597.13,-89.89"/>
<polygon fill="#63b8ff" stroke="#63b8ff" points="1598.82,-92.96 1605.94,-85.11 1595.48,-86.8 1598.82,-92.96"/>
</a>
</g>
</g>
<!-- Node32&#45;&gt;Node31 -->
<g id="edge27_Node000032_Node000031" class="edge">
<title>Node32&#45;&gt;Node31</title>
<g id="a_edge27_Node000032_Node000031"><a xlink:title=" ">
<path fill="none" stroke="#63b8ff" d="M1635.1,-175.75C1641.17,-168.26 1650.09,-157.28 1657.51,-148.13"/>
<polygon fill="#63b8ff" stroke="#63b8ff" points="1660.45,-150.06 1664.03,-140.09 1655.01,-145.65 1660.45,-150.06"/>
</a>
</g>
</g>
<!-- Node33&#45;&gt;Node26 -->
<g id="edge29_Node000033_Node000026" class="edge">
<title>Node33&#45;&gt;Node26</title>
<g id="a_edge29_Node000033_Node000026"><a xlink:title=" ">
<path fill="none" stroke="#63b8ff" d="M1348.06,-230.94C1348.69,-209.3 1353.41,-151.89 1385,-121 1419.07,-87.68 1441.2,-101.24 1486,-85 1487.64,-84.41 1489.31,-83.8 1491,-83.18"/>
<polygon fill="#63b8ff" stroke="#63b8ff" points="1492.52,-86.35 1500.7,-79.63 1490.11,-79.78 1492.52,-86.35"/>
</a>
</g>
</g>
<!-- Node33&#45;&gt;Node32 -->
<g id="edge40_Node000033_Node000032" class="edge">
<title>Node33&#45;&gt;Node32</title>
<g id="a_edge40_Node000033_Node000032"><a xlink:title=" ">
<path fill="none" stroke="#63b8ff" d="M1392.68,-231.04C1441.7,-221.76 1520.43,-206.86 1573.16,-196.88"/>
<polygon fill="#63b8ff" stroke="#63b8ff" points="1573.84,-200.31 1583.02,-195.01 1572.54,-193.44 1573.84,-200.31"/>
</a>
</g>
</g>
<!-- Node33&#45;&gt;Node34 -->
<g id="edge30_Node000033_Node000034" class="edge">
<title>Node33&#45;&gt;Node34</title>
<g id="a_edge30_Node000033_Node000034"><a xlink:title=" ">
<path fill="none" stroke="#63b8ff" d="M1308.15,-230.98C1265.17,-221.8 1196.63,-207.15 1150.04,-197.19"/>
<polygon fill="#63b8ff" stroke="#63b8ff" points="1150.67,-193.75 1140.16,-195.08 1149.21,-200.59 1150.67,-193.75"/>
</a>
</g>
</g>
<!-- Node33&#45;&gt;Node35 -->
<g id="edge34_Node000033_Node000035" class="edge">
<title>Node33&#45;&gt;Node35</title>
<g id="a_edge34_Node000033_Node000035"><a xlink:title=" ">
<path fill="none" stroke="#63b8ff" d="M1334.34,-230.98C1321.16,-222.77 1300.97,-210.18 1285.43,-200.49"/>
<polygon fill="#63b8ff" stroke="#63b8ff" points="1287.24,-197.49 1276.91,-195.17 1283.54,-203.43 1287.24,-197.49"/>
</a>
</g>
</g>
<!-- Node33&#45;&gt;Node36 -->
<g id="edge37_Node000033_Node000036" class="edge">
<title>Node33&#45;&gt;Node36</title>
<g id="a_edge37_Node000033_Node000036"><a xlink:title=" ">
<path fill="none" stroke="#63b8ff" d="M1360.21,-230.98C1371.78,-222.92 1389.38,-210.65 1403.16,-201.03"/>
<polygon fill="#63b8ff" stroke="#63b8ff" points="1405.37,-203.76 1411.57,-195.17 1401.36,-198.02 1405.37,-203.76"/>
</a>
</g>
</g>
<!-- Node34&#45;&gt;Node2 -->
<g id="edge31_Node000034_Node000002" class="edge">
<title>Node34&#45;&gt;Node2</title>
<g id="a_edge31_Node000034_Node000002"><a xlink:title=" ">
<path fill="none" stroke="#63b8ff" d="M1063.37,-175.98C1023.86,-166.8 960.89,-152.16 918.05,-142.21"/>
<polygon fill="#63b8ff" stroke="#63b8ff" points="918.7,-138.76 908.16,-139.91 917.11,-145.58 918.7,-138.76"/>
</a>
</g>
</g>
<!-- Node34&#45;&gt;Node24 -->
<g id="edge32_Node000034_Node000024" class="edge">
<title>Node34&#45;&gt;Node24</title>
<g id="a_edge32_Node000034_Node000024"><a xlink:title=" ">
<path fill="none" stroke="#63b8ff" d="M1113.01,-175.98C1125.46,-167.84 1144.46,-155.41 1159.21,-145.76"/>
<polygon fill="#63b8ff" stroke="#63b8ff" points="1161.3,-148.57 1167.75,-140.17 1157.46,-142.72 1161.3,-148.57"/>
</a>
</g>
</g>
<!-- Node34&#45;&gt;Node26 -->
<g id="edge33_Node000034_Node000026" class="edge">
<title>Node34&#45;&gt;Node26</title>
<g id="a_edge33_Node000034_Node000026"><a xlink:title=" ">
<path fill="none" stroke="#63b8ff" d="M1100.07,-175.88C1100.69,-161.9 1104.14,-134.49 1121,-121 1184.64,-70.08 1406.56,-103.24 1486,-85 1488.67,-84.39 1491.41,-83.64 1494.13,-82.8"/>
<polygon fill="#63b8ff" stroke="#63b8ff" points="1495.43,-86.06 1503.78,-79.53 1493.19,-79.43 1495.43,-86.06"/>
</a>
</g>
</g>
<!-- Node35&#45;&gt;Node24 -->
<g id="edge35_Node000035_Node000024" class="edge">
<title>Node35&#45;&gt;Node24</title>
<g id="a_edge35_Node000035_Node000024"><a xlink:title=" ">
<path fill="none" stroke="#63b8ff" d="M1249.83,-175.98C1237.23,-167.84 1218,-155.41 1203.06,-145.76"/>
<polygon fill="#63b8ff" stroke="#63b8ff" points="1204.71,-142.66 1194.41,-140.17 1200.91,-148.54 1204.71,-142.66"/>
</a>
</g>
</g>
<!-- Node35&#45;&gt;Node25 -->
<g id="edge36_Node000035_Node000025" class="edge">
<title>Node35&#45;&gt;Node25</title>
<g id="a_edge36_Node000035_Node000025"><a xlink:title=" ">
<path fill="none" stroke="#63b8ff" d="M1304.93,-175.98C1352.83,-166.26 1430.85,-150.42 1479.71,-140.49"/>
<polygon fill="#63b8ff" stroke="#63b8ff" points="1480.57,-143.89 1489.67,-138.47 1479.17,-137.03 1480.57,-143.89"/>
</a>
</g>
</g>
<!-- Node36&#45;&gt;Node31 -->
<g id="edge38_Node000036_Node000031" class="edge">
<title>Node36&#45;&gt;Node31</title>
<g id="a_edge38_Node000036_Node000031"><a xlink:title=" ">
<path fill="none" stroke="#63b8ff" d="M1463.68,-175.98C1509.2,-166.22 1583.47,-150.28 1629.67,-140.37"/>
<polygon fill="#63b8ff" stroke="#63b8ff" points="1630.6,-143.75 1639.64,-138.23 1629.13,-136.9 1630.6,-143.75"/>
</a>
</g>
</g>
<!-- Node37 -->
<g id="Node000037" class="node">
<title>Node37</title>
<g id="a_Node000037"><a xlink:href="signals_8h.html" target="_top" xlink:title="Signal and slot system for C projects.">
<polygon fill="white" stroke="#666666" points="1454,-140 1394,-140 1394,-121 1454,-121 1454,-140"/>
<text text-anchor="middle" x="1424" y="-128" font-family="Helvetica,sans-Serif" font-size="10.00">signals.h</text>
</a>
</g>
</g>
<!-- Node36&#45;&gt;Node37 -->
<g id="edge39_Node000036_Node000037" class="edge">
<title>Node36&#45;&gt;Node37</title>
<g id="a_edge39_Node000036_Node000037"><a xlink:title=" ">
<path fill="none" stroke="#63b8ff" d="M1424,-175.75C1424,-168.8 1424,-158.85 1424,-150.13"/>
<polygon fill="#63b8ff" stroke="#63b8ff" points="1427.5,-150.09 1424,-140.09 1420.5,-150.09 1427.5,-150.09"/>
</a>
</g>
</g>
<!-- Node38&#45;&gt;Node25 -->
<g id="edge42_Node000038_Node000025" class="edge">
<title>Node38&#45;&gt;Node25</title>
<g id="a_edge42_Node000038_Node000025"><a xlink:title=" ">
<path fill="none" stroke="#63b8ff" d="M1547.87,-230.66C1543.64,-213.09 1534.1,-173.45 1528.44,-149.95"/>
<polygon fill="#63b8ff" stroke="#63b8ff" points="1531.83,-149.06 1526.08,-140.16 1525.02,-150.7 1531.83,-149.06"/>
</a>
</g>
</g>
<!-- Node38&#45;&gt;Node32 -->
<g id="edge43_Node000038_Node000032" class="edge">
<title>Node38&#45;&gt;Node32</title>
<g id="a_edge43_Node000038_Node000032"><a xlink:title=" ">
<path fill="none" stroke="#63b8ff" d="M1562.53,-230.98C1574.4,-222.92 1592.46,-210.65 1606.61,-201.03"/>
<polygon fill="#63b8ff" stroke="#63b8ff" points="1608.94,-203.69 1615.24,-195.17 1605,-197.9 1608.94,-203.69"/>
</a>
</g>
</g>
<!-- Node45&#45;&gt;Node31 -->
<g id="edge53_Node000045_Node000031" class="edge">
<title>Node45&#45;&gt;Node31</title>
<g id="a_edge53_Node000045_Node000031"><a xlink:title=" ">
<path fill="none" stroke="#63b8ff" d="M1712.79,-230.69C1709.55,-218.25 1703.01,-194.95 1695,-176 1691.11,-166.8 1685.94,-156.99 1681.4,-148.93"/>
<polygon fill="#63b8ff" stroke="#63b8ff" points="1684.33,-147.02 1676.29,-140.12 1678.28,-150.53 1684.33,-147.02"/>
</a>
</g>
</g>
<!-- Node45&#45;&gt;Node40 -->
<g id="edge54_Node000045_Node000040" class="edge">
<title>Node45&#45;&gt;Node40</title>
<g id="a_edge54_Node000045_Node000040"><a xlink:title=" ">
<path fill="none" stroke="#63b8ff" d="M1727.37,-230.98C1739.09,-222.92 1756.92,-210.65 1770.89,-201.03"/>
<polygon fill="#63b8ff" stroke="#63b8ff" points="1773.15,-203.72 1779.4,-195.17 1769.18,-197.96 1773.15,-203.72"/>
</a>
</g>
</g>
<!-- Node51&#45;&gt;Node5 -->
<g id="edge63_Node000051_Node000005" class="edge">
<title>Node51&#45;&gt;Node5</title>
<g id="a_edge63_Node000051_Node000005"><a xlink:title=" ">
<path fill="none" stroke="#63b8ff" d="M192,-120.93C161.18,-112.3 112.63,-98.37 71,-85 68.89,-84.32 66.73,-83.61 64.55,-82.89"/>
<polygon fill="#63b8ff" stroke="#63b8ff" points="65.64,-79.56 55.05,-79.64 63.38,-86.18 65.64,-79.56"/>
</a>
</g>
</g>
<!-- Node53&#45;&gt;Node2 -->
<g id="edge68_Node000053_Node000002" class="edge">
<title>Node53&#45;&gt;Node2</title>
<g id="a_edge68_Node000053_Node000002"><a xlink:title=" ">
<path fill="none" stroke="#63b8ff" d="M1872.58,-230.74C1871.37,-216.56 1866.75,-188.87 1849,-176 1839.46,-169.08 1110.68,-140.66 918.19,-133.26"/>
<polygon fill="#63b8ff" stroke="#63b8ff" points="918.25,-129.76 908.12,-132.88 917.98,-136.76 918.25,-129.76"/>
</a>
</g>
</g>
<!-- Node54 -->
<g id="Node000054" class="node">
<title>Node54</title>
<g id="a_Node000054"><a xlink:href="classes__types_8h.html" target="_top" xlink:title=" ">
<polygon fill="white" stroke="#666666" points="2109,-195 2015,-195 2015,-176 2109,-176 2109,-195"/>
<text text-anchor="middle" x="2062" y="-183" font-family="Helvetica,sans-Serif" font-size="10.00">classes_types.h</text>
</a>
</g>
</g>
<!-- Node53&#45;&gt;Node54 -->
<g id="edge66_Node000053_Node000054" class="edge">
<title>Node53&#45;&gt;Node54</title>
<g id="a_edge66_Node000053_Node000054"><a xlink:title=" ">
<path fill="none" stroke="#63b8ff" d="M1903.37,-230.98C1935.37,-222.01 1985.96,-207.82 2021.38,-197.89"/>
<polygon fill="#63b8ff" stroke="#63b8ff" points="2022.71,-201.15 2031.4,-195.08 2020.82,-194.41 2022.71,-201.15"/>
</a>
</g>
</g>
<!-- Node55 -->
<g id="Node000055" class="node">
<title>Node55</title>
<g id="a_Node000055"><a xlink:title=" ">
<polygon fill="#e0e0e0" stroke="#999999" points="1996.5,-195 1897.5,-195 1897.5,-176 1996.5,-176 1996.5,-195"/>
<text text-anchor="middle" x="1947" y="-183" font-family="Helvetica,sans-Serif" font-size="10.00">import_classes.h</text>
</a>
</g>
</g>
<!-- Node53&#45;&gt;Node55 -->
<g id="edge67_Node000053_Node000055" class="edge">
<title>Node53&#45;&gt;Node55</title>
<g id="a_edge67_Node000053_Node000055"><a xlink:title=" ">
<path fill="none" stroke="#63b8ff" d="M1884.89,-230.98C1896.15,-222.92 1913.29,-210.65 1926.71,-201.03"/>
<polygon fill="#63b8ff" stroke="#63b8ff" points="1928.8,-203.84 1934.89,-195.17 1924.73,-198.15 1928.8,-203.84"/>
</a>
</g>
</g>
</g>
</svg>
