<?xml version="1.0" encoding="UTF-8" standalone="no"?>
<!DOCTYPE svg PUBLIC "-//W3C//DTD SVG 1.1//EN"
 "http://www.w3.org/Graphics/SVG/1.1/DTD/svg11.dtd">
<!-- Generated by graphviz version 2.43.0 (0)
 -->
<!-- Title: src/render/render.h Pages: 1 -->
<svg width="3257pt" height="93pt"
 viewBox="0.00 0.00 3256.50 93.00" xmlns="http://www.w3.org/2000/svg" xmlns:xlink="http://www.w3.org/1999/xlink">
<g id="graph0" class="graph" transform="scale(1 1) rotate(0) translate(4 89)">
<title>src/render/render.h</title>
<!-- Node1 -->
<g id="Node000001" class="node">
<title>Node1</title>
<g id="a_Node000001"><a xlink:title=" ">
<polygon fill="#999999" stroke="#666666" points="1912,-85 1804,-85 1804,-66 1912,-66 1912,-85"/>
<text text-anchor="middle" x="1858" y="-73" font-family="Helvetica,sans-Serif" font-size="10.00">src/render/render.h</text>
</a>
</g>
</g>
<!-- Node2 -->
<g id="Node000002" class="node">
<title>Node2</title>
<g id="a_Node000002"><a xlink:href="button_8class_8c.html" target="_top" xlink:title="This file defines the Button class and its associated methods.">
<polygon fill="white" stroke="#666666" points="140,-30 0,-30 0,0 140,0 140,-30"/>
<text text-anchor="start" x="8" y="-18" font-family="Helvetica,sans-Serif" font-size="10.00">src/classes/nodes/frames</text>
<text text-anchor="middle" x="70" y="-7" font-family="Helvetica,sans-Serif" font-size="10.00">/button.class.c</text>
</a>
</g>
</g>
<!-- Node1&#45;&gt;Node2 -->
<g id="edge1_Node000001_Node000002" class="edge">
<title>Node1&#45;&gt;Node2</title>
<g id="a_edge1_Node000001_Node000002"><a xlink:title=" ">
<path fill="none" stroke="#63b8ff" d="M1793.89,-74.11C1523.77,-72.29 477.17,-63.16 149,-30 146.09,-29.71 143.13,-29.37 140.14,-28.99"/>
<polygon fill="#63b8ff" stroke="#63b8ff" points="1793.9,-77.61 1803.93,-74.18 1793.95,-70.61 1793.9,-77.61"/>
</a>
</g>
</g>
<!-- Node3 -->
<g id="Node000003" class="node">
<title>Node3</title>
<g id="a_Node000003"><a xlink:href="checkbox_8class_8c.html" target="_top" xlink:title="Implementation of the Checkbox class for the GUI framework.">
<polygon fill="white" stroke="#666666" points="298,-30 158,-30 158,0 298,0 298,-30"/>
<text text-anchor="start" x="166" y="-18" font-family="Helvetica,sans-Serif" font-size="10.00">src/classes/nodes/frames</text>
<text text-anchor="middle" x="228" y="-7" font-family="Helvetica,sans-Serif" font-size="10.00">/checkbox.class.c</text>
</a>
</g>
</g>
<!-- Node1&#45;&gt;Node3 -->
<g id="edge2_Node000001_Node000003" class="edge">
<title>Node1&#45;&gt;Node3</title>
<g id="a_edge2_Node000001_Node000003"><a xlink:title=" ">
<path fill="none" stroke="#63b8ff" d="M1793.65,-73.91C1539.13,-71.4 602.37,-60.24 307,-30 304.09,-29.7 301.13,-29.36 298.14,-28.98"/>
<polygon fill="#63b8ff" stroke="#63b8ff" points="1793.8,-77.42 1803.83,-74.01 1793.87,-70.42 1793.8,-77.42"/>
</a>
</g>
</g>
<!-- Node4 -->
<g id="Node000004" class="node">
<title>Node4</title>
<g id="a_Node000004"><a xlink:href="control__frame_8class_8c.html" target="_top" xlink:title="This file defines the implementation of the control frame class.">
<polygon fill="white" stroke="#666666" points="456,-30 316,-30 316,0 456,0 456,-30"/>
<text text-anchor="start" x="324" y="-18" font-family="Helvetica,sans-Serif" font-size="10.00">src/classes/nodes/frames</text>
<text text-anchor="middle" x="386" y="-7" font-family="Helvetica,sans-Serif" font-size="10.00">/control_frame.class.c</text>
</a>
</g>
</g>
<!-- Node1&#45;&gt;Node4 -->
<g id="edge3_Node000001_Node000004" class="edge">
<title>Node1&#45;&gt;Node4</title>
<g id="a_edge3_Node000001_Node000004"><a xlink:title=" ">
<path fill="none" stroke="#63b8ff" d="M1793.61,-73.67C1555.89,-70.42 727.78,-57.34 465,-30 462.09,-29.7 459.13,-29.35 456.14,-28.97"/>
<polygon fill="#63b8ff" stroke="#63b8ff" points="1793.77,-77.17 1803.82,-73.81 1793.87,-70.17 1793.77,-77.17"/>
</a>
</g>
</g>
<!-- Node5 -->
<g id="Node000005" class="node">
<title>Node5</title>
<g id="a_Node000005"><a xlink:href="frame_8class_8c.html" target="_top" xlink:title="This file defines the implementation of frame&#45;related functionalities.">
<polygon fill="white" stroke="#666666" points="614,-30 474,-30 474,0 614,0 614,-30"/>
<text text-anchor="start" x="482" y="-18" font-family="Helvetica,sans-Serif" font-size="10.00">src/classes/nodes/frames</text>
<text text-anchor="middle" x="544" y="-7" font-family="Helvetica,sans-Serif" font-size="10.00">/frame.class.c</text>
</a>
</g>
</g>
<!-- Node1&#45;&gt;Node5 -->
<g id="edge4_Node000001_Node000005" class="edge">
<title>Node1&#45;&gt;Node5</title>
<g id="a_edge4_Node000001_Node000005"><a xlink:title=" ">
<path fill="none" stroke="#63b8ff" d="M1793.68,-73.37C1573.87,-69.31 853.36,-54.44 623,-30 620.09,-29.69 617.13,-29.34 614.14,-28.95"/>
<polygon fill="#63b8ff" stroke="#63b8ff" points="1793.71,-76.87 1803.77,-73.55 1793.83,-69.87 1793.71,-76.87"/>
</a>
</g>
</g>
<!-- Node6 -->
<g id="Node000006" class="node">
<title>Node6</title>
<g id="a_Node000006"><a xlink:href="image__frame_8class_8c.html" target="_top" xlink:title="This file contains the implementation of the ImageFrame class.">
<polygon fill="white" stroke="#666666" points="772,-30 632,-30 632,0 772,0 772,-30"/>
<text text-anchor="start" x="640" y="-18" font-family="Helvetica,sans-Serif" font-size="10.00">src/classes/nodes/frames</text>
<text text-anchor="middle" x="702" y="-7" font-family="Helvetica,sans-Serif" font-size="10.00">/image_frame.class.c</text>
</a>
</g>
</g>
<!-- Node1&#45;&gt;Node6 -->
<g id="edge5_Node000001_Node000006" class="edge">
<title>Node1&#45;&gt;Node6</title>
<g id="a_edge5_Node000001_Node000006"><a xlink:title=" ">
<path fill="none" stroke="#63b8ff" d="M1793.61,-74.84C1626.15,-75.08 1163.45,-71.6 781,-30 778.09,-29.68 775.13,-29.33 772.14,-28.93"/>
<polygon fill="#63b8ff" stroke="#63b8ff" points="1793.74,-78.34 1803.74,-74.82 1793.73,-71.34 1793.74,-78.34"/>
</a>
</g>
</g>
<!-- Node7 -->
<g id="Node000007" class="node">
<title>Node7</title>
<g id="a_Node000007"><a xlink:href="input__area_8class_8c.html" target="_top" xlink:title="This file defines the InputArea class and its associated methods.">
<polygon fill="white" stroke="#666666" points="930,-30 790,-30 790,0 930,0 930,-30"/>
<text text-anchor="start" x="798" y="-18" font-family="Helvetica,sans-Serif" font-size="10.00">src/classes/nodes/frames</text>
<text text-anchor="middle" x="860" y="-7" font-family="Helvetica,sans-Serif" font-size="10.00">/input_area.class.c</text>
</a>
</g>
</g>
<!-- Node1&#45;&gt;Node7 -->
<g id="edge6_Node000001_Node000007" class="edge">
<title>Node1&#45;&gt;Node7</title>
<g id="a_edge6_Node000001_Node000007"><a xlink:title=" ">
<path fill="none" stroke="#63b8ff" d="M1793.54,-74.19C1643.29,-72.85 1258.33,-65.88 939,-30 936.09,-29.67 933.13,-29.31 930.14,-28.91"/>
<polygon fill="#63b8ff" stroke="#63b8ff" points="1793.92,-77.69 1803.94,-74.28 1793.97,-70.69 1793.92,-77.69"/>
</a>
</g>
</g>
<!-- Node8 -->
<g id="Node000008" class="node">
<title>Node8</title>
<g id="a_Node000008"><a xlink:href="label_8class_8c.html" target="_top" xlink:title="This file defines the Label class and its associated functions.">
<polygon fill="white" stroke="#666666" points="1088,-30 948,-30 948,0 1088,0 1088,-30"/>
<text text-anchor="start" x="956" y="-18" font-family="Helvetica,sans-Serif" font-size="10.00">src/classes/nodes/frames</text>
<text text-anchor="middle" x="1018" y="-7" font-family="Helvetica,sans-Serif" font-size="10.00">/label.class.c</text>
</a>
</g>
</g>
<!-- Node1&#45;&gt;Node8 -->
<g id="edge7_Node000001_Node000008" class="edge">
<title>Node1&#45;&gt;Node8</title>
<g id="a_edge7_Node000001_Node000008"><a xlink:title=" ">
<path fill="none" stroke="#63b8ff" d="M1793.55,-73.27C1662.13,-70.21 1353.91,-60.17 1097,-30 1094.09,-29.66 1091.13,-29.28 1088.15,-28.87"/>
<polygon fill="#63b8ff" stroke="#63b8ff" points="1793.76,-76.78 1803.83,-73.51 1793.92,-69.78 1793.76,-76.78"/>
</a>
</g>
</g>
<!-- Node9 -->
<g id="Node000009" class="node">
<title>Node9</title>
<g id="a_Node000009"><a xlink:href="radiobutton_8class_8c.html" target="_top" xlink:title="Implementation of the RadioButton class.">
<polygon fill="white" stroke="#666666" points="1246,-30 1106,-30 1106,0 1246,0 1246,-30"/>
<text text-anchor="start" x="1114" y="-18" font-family="Helvetica,sans-Serif" font-size="10.00">src/classes/nodes/frames</text>
<text text-anchor="middle" x="1176" y="-7" font-family="Helvetica,sans-Serif" font-size="10.00">/radiobutton.class.c</text>
</a>
</g>
</g>
<!-- Node1&#45;&gt;Node9 -->
<g id="edge8_Node000001_Node000009" class="edge">
<title>Node1&#45;&gt;Node9</title>
<g id="a_edge8_Node000001_Node000009"><a xlink:title=" ">
<path fill="none" stroke="#63b8ff" d="M1793.45,-71.89C1682.87,-66.95 1450.25,-54.44 1255,-30 1252.1,-29.64 1249.14,-29.24 1246.16,-28.81"/>
<polygon fill="#63b8ff" stroke="#63b8ff" points="1793.62,-75.4 1803.76,-72.35 1793.93,-68.41 1793.62,-75.4"/>
</a>
</g>
</g>
<!-- Node10 -->
<g id="Node000010" class="node">
<title>Node10</title>
<g id="a_Node000010"><a xlink:href="selectlist_8class_8c.html" target="_top" xlink:title="This file implements the functionality for a selectable list frame in the application.">
<polygon fill="white" stroke="#666666" points="1404,-30 1264,-30 1264,0 1404,0 1404,-30"/>
<text text-anchor="start" x="1272" y="-18" font-family="Helvetica,sans-Serif" font-size="10.00">src/classes/nodes/frames</text>
<text text-anchor="middle" x="1334" y="-7" font-family="Helvetica,sans-Serif" font-size="10.00">/selectlist.class.c</text>
</a>
</g>
</g>
<!-- Node1&#45;&gt;Node10 -->
<g id="edge9_Node000001_Node000010" class="edge">
<title>Node1&#45;&gt;Node10</title>
<g id="a_edge9_Node000001_Node000010"><a xlink:title=" ">
<path fill="none" stroke="#63b8ff" d="M1793.52,-69.59C1706.79,-62.64 1547.88,-48.67 1413,-30 1410.1,-29.6 1407.15,-29.17 1404.17,-28.72"/>
<polygon fill="#63b8ff" stroke="#63b8ff" points="1793.48,-73.1 1803.73,-70.41 1794.04,-66.12 1793.48,-73.1"/>
</a>
</g>
</g>
<!-- Node11 -->
<g id="Node000011" class="node">
<title>Node11</title>
<g id="a_Node000011"><a xlink:href="slider_8class_8c.html" target="_top" xlink:title=" ">
<polygon fill="white" stroke="#666666" points="1562,-30 1422,-30 1422,0 1562,0 1562,-30"/>
<text text-anchor="start" x="1430" y="-18" font-family="Helvetica,sans-Serif" font-size="10.00">src/classes/nodes/frames</text>
<text text-anchor="middle" x="1492" y="-7" font-family="Helvetica,sans-Serif" font-size="10.00">/slider.class.c</text>
</a>
</g>
</g>
<!-- Node1&#45;&gt;Node11 -->
<g id="edge10_Node000001_Node000011" class="edge">
<title>Node1&#45;&gt;Node11</title>
<g id="a_edge10_Node000001_Node000011"><a xlink:title=" ">
<path fill="none" stroke="#63b8ff" d="M1793.84,-64.96C1735.63,-56.2 1647.48,-42.71 1571,-30 1568.11,-29.52 1565.17,-29.03 1562.2,-28.52"/>
<polygon fill="#63b8ff" stroke="#63b8ff" points="1793.58,-68.46 1803.99,-66.48 1794.62,-61.53 1793.58,-68.46"/>
</a>
</g>
</g>
<!-- Node12 -->
<g id="Node000012" class="node">
<title>Node12</title>
<g id="a_Node000012"><a xlink:href="model_8class_8c.html" target="_top" xlink:title="This file contains the implementation of the model class.">
<polygon fill="white" stroke="#666666" points="1752,-24.5 1580,-24.5 1580,-5.5 1752,-5.5 1752,-24.5"/>
<text text-anchor="middle" x="1666" y="-12.5" font-family="Helvetica,sans-Serif" font-size="10.00">src/classes/nodes/model.class.c</text>
</a>
</g>
</g>
<!-- Node1&#45;&gt;Node12 -->
<g id="edge11_Node000001_Node000012" class="edge">
<title>Node1&#45;&gt;Node12</title>
<g id="a_edge11_Node000001_Node000012"><a xlink:title=" ">
<path fill="none" stroke="#63b8ff" d="M1820.13,-62.96C1783,-51.65 1727.24,-34.66 1693.95,-24.52"/>
<polygon fill="#63b8ff" stroke="#63b8ff" points="1819.5,-66.43 1830.08,-65.99 1821.54,-59.73 1819.5,-66.43"/>
</a>
</g>
</g>
<!-- Node13 -->
<g id="Node000013" class="node">
<title>Node13</title>
<g id="a_Node000013"><a xlink:href="skybox_8class_8c.html" target="_top" xlink:title="This file contains the implementation of the Skybox class.">
<polygon fill="white" stroke="#666666" points="1946,-24.5 1770,-24.5 1770,-5.5 1946,-5.5 1946,-24.5"/>
<text text-anchor="middle" x="1858" y="-12.5" font-family="Helvetica,sans-Serif" font-size="10.00">src/classes/nodes/skybox.class.c</text>
</a>
</g>
</g>
<!-- Node1&#45;&gt;Node13 -->
<g id="edge12_Node000001_Node000013" class="edge">
<title>Node1&#45;&gt;Node13</title>
<g id="a_edge12_Node000001_Node000013"><a xlink:title=" ">
<path fill="none" stroke="#63b8ff" d="M1858,-55.66C1858,-45.24 1858,-32.8 1858,-24.67"/>
<polygon fill="#63b8ff" stroke="#63b8ff" points="1854.5,-55.87 1858,-65.87 1861.5,-55.87 1854.5,-55.87"/>
</a>
</g>
</g>
<!-- Node14 -->
<g id="Node000014" class="node">
<title>Node14</title>
<g id="a_Node000014"><a xlink:href="input_8c.html" target="_top" xlink:title=" ">
<polygon fill="white" stroke="#666666" points="2042.5,-24.5 1963.5,-24.5 1963.5,-5.5 2042.5,-5.5 2042.5,-24.5"/>
<text text-anchor="middle" x="2003" y="-12.5" font-family="Helvetica,sans-Serif" font-size="10.00">src/io/input.c</text>
</a>
</g>
</g>
<!-- Node1&#45;&gt;Node14 -->
<g id="edge13_Node000001_Node000014" class="edge">
<title>Node1&#45;&gt;Node14</title>
<g id="a_edge13_Node000001_Node000014"><a xlink:title=" ">
<path fill="none" stroke="#63b8ff" d="M1888.41,-62.23C1916.43,-50.92 1957.29,-34.44 1981.89,-24.52"/>
<polygon fill="#63b8ff" stroke="#63b8ff" points="1887.05,-59.01 1879.08,-65.99 1889.67,-65.5 1887.05,-59.01"/>
</a>
</g>
</g>
<!-- Node15 -->
<g id="Node000015" class="node">
<title>Node15</title>
<g id="a_Node000015"><a xlink:href="node__loader_8c.html" target="_top" xlink:title=" ">
<polygon fill="white" stroke="#666666" points="2173.5,-24.5 2060.5,-24.5 2060.5,-5.5 2173.5,-5.5 2173.5,-24.5"/>
<text text-anchor="middle" x="2117" y="-12.5" font-family="Helvetica,sans-Serif" font-size="10.00">src/io/node_loader.c</text>
</a>
</g>
</g>
<!-- Node1&#45;&gt;Node15 -->
<g id="edge14_Node000001_Node000015" class="edge">
<title>Node1&#45;&gt;Node15</title>
<g id="a_edge14_Node000001_Node000015"><a xlink:title=" ">
<path fill="none" stroke="#63b8ff" d="M1905.59,-63.75C1955.62,-52.45 2033.33,-34.9 2079.29,-24.52"/>
<polygon fill="#63b8ff" stroke="#63b8ff" points="1904.64,-60.38 1895.66,-65.99 1906.19,-67.2 1904.64,-60.38"/>
</a>
</g>
</g>
<!-- Node16 -->
<g id="Node000016" class="node">
<title>Node16</title>
<g id="a_Node000016"><a xlink:href="scene__loader_8c.html" target="_top" xlink:title=" ">
<polygon fill="white" stroke="#666666" points="2310,-24.5 2192,-24.5 2192,-5.5 2310,-5.5 2310,-24.5"/>
<text text-anchor="middle" x="2251" y="-12.5" font-family="Helvetica,sans-Serif" font-size="10.00">src/io/scene_loader.c</text>
</a>
</g>
</g>
<!-- Node1&#45;&gt;Node16 -->
<g id="edge15_Node000001_Node000016" class="edge">
<title>Node1&#45;&gt;Node16</title>
<g id="a_edge15_Node000001_Node000016"><a xlink:title=" ">
<path fill="none" stroke="#63b8ff" d="M1922.43,-66.97C1988.14,-58.99 2092.95,-45.42 2183,-30 2192.39,-28.39 2202.45,-26.44 2211.89,-24.52"/>
<polygon fill="#63b8ff" stroke="#63b8ff" points="1921.73,-63.53 1912.22,-68.2 1922.57,-70.48 1921.73,-63.53"/>
</a>
</g>
</g>
<!-- Node17 -->
<g id="Node000017" class="node">
<title>Node17</title>
<g id="a_Node000017"><a xlink:href="main_8c.html" target="_top" xlink:title=" ">
<polygon fill="white" stroke="#666666" points="2395.5,-24.5 2328.5,-24.5 2328.5,-5.5 2395.5,-5.5 2395.5,-24.5"/>
<text text-anchor="middle" x="2362" y="-12.5" font-family="Helvetica,sans-Serif" font-size="10.00">src/main.c</text>
</a>
</g>
</g>
<!-- Node1&#45;&gt;Node17 -->
<g id="edge16_Node000001_Node000017" class="edge">
<title>Node1&#45;&gt;Node17</title>
<g id="a_edge16_Node000001_Node000017"><a xlink:title=" ">
<path fill="none" stroke="#63b8ff" d="M1922.18,-72.72C2011.85,-69.24 2179.35,-59.11 2319,-30 2325.46,-28.65 2332.3,-26.68 2338.59,-24.64"/>
<polygon fill="#63b8ff" stroke="#63b8ff" points="1922.02,-69.23 1912.16,-73.1 1922.29,-76.22 1922.02,-69.23"/>
</a>
</g>
</g>
<!-- Node18 -->
<g id="Node000018" class="node">
<title>Node18</title>
<g id="a_Node000018"><a xlink:href="raptiquax_8c.html" target="_top" xlink:title=" ">
<polygon fill="white" stroke="#666666" points="2502.5,-24.5 2413.5,-24.5 2413.5,-5.5 2502.5,-5.5 2502.5,-24.5"/>
<text text-anchor="middle" x="2458" y="-12.5" font-family="Helvetica,sans-Serif" font-size="10.00">src/raptiquax.c</text>
</a>
</g>
</g>
<!-- Node1&#45;&gt;Node18 -->
<g id="edge17_Node000001_Node000018" class="edge">
<title>Node1&#45;&gt;Node18</title>
<g id="a_edge17_Node000001_Node000018"><a xlink:title=" ">
<path fill="none" stroke="#63b8ff" d="M1922.57,-72.94C2025.37,-69.64 2232.27,-59.6 2405,-30 2412.97,-28.63 2421.49,-26.63 2429.32,-24.57"/>
<polygon fill="#63b8ff" stroke="#63b8ff" points="1922.24,-69.45 1912.36,-73.26 1922.46,-76.45 1922.24,-69.45"/>
</a>
</g>
</g>
<!-- Node19 -->
<g id="Node000019" class="node">
<title>Node19</title>
<g id="a_Node000019"><a xlink:href="camera_8c.html" target="_top" xlink:title=" ">
<polygon fill="white" stroke="#666666" points="2633.5,-24.5 2520.5,-24.5 2520.5,-5.5 2633.5,-5.5 2633.5,-24.5"/>
<text text-anchor="middle" x="2577" y="-12.5" font-family="Helvetica,sans-Serif" font-size="10.00">src/render/camera.c</text>
</a>
</g>
</g>
<!-- Node1&#45;&gt;Node19 -->
<g id="edge18_Node000001_Node000019" class="edge">
<title>Node1&#45;&gt;Node19</title>
<g id="a_edge18_Node000001_Node000019"><a xlink:title=" ">
<path fill="none" stroke="#63b8ff" d="M1922.37,-73.19C2040,-70.13 2297.32,-60.26 2512,-30 2521.72,-28.63 2532.15,-26.63 2541.74,-24.56"/>
<polygon fill="#63b8ff" stroke="#63b8ff" points="1922.02,-69.7 1912.11,-73.45 1922.19,-76.7 1922.02,-69.7"/>
</a>
</g>
</g>
<!-- Node20 -->
<g id="Node000020" class="node">
<title>Node20</title>
<g id="a_Node000020"><a xlink:href="depth__map_8c.html" target="_top" xlink:title=" ">
<polygon fill="white" stroke="#666666" points="2782.5,-24.5 2651.5,-24.5 2651.5,-5.5 2782.5,-5.5 2782.5,-24.5"/>
<text text-anchor="middle" x="2717" y="-12.5" font-family="Helvetica,sans-Serif" font-size="10.00">src/render/depth_map.c</text>
</a>
</g>
</g>
<!-- Node1&#45;&gt;Node20 -->
<g id="edge19_Node000001_Node000020" class="edge">
<title>Node1&#45;&gt;Node20</title>
<g id="a_edge19_Node000001_Node000020"><a xlink:title=" ">
<path fill="none" stroke="#63b8ff" d="M1922.6,-73.68C2057.11,-71.36 2376.92,-62.57 2643,-30 2654.16,-28.63 2666.17,-26.61 2677.21,-24.51"/>
<polygon fill="#63b8ff" stroke="#63b8ff" points="1922.4,-70.19 1912.46,-73.85 1922.52,-77.18 1922.4,-70.19"/>
</a>
</g>
</g>
<!-- Node21 -->
<g id="Node000021" class="node">
<title>Node21</title>
<g id="a_Node000021"><a xlink:href="lighting_8c.html" target="_top" xlink:title=" ">
<polygon fill="white" stroke="#666666" points="2913.5,-24.5 2800.5,-24.5 2800.5,-5.5 2913.5,-5.5 2913.5,-24.5"/>
<text text-anchor="middle" x="2857" y="-12.5" font-family="Helvetica,sans-Serif" font-size="10.00">src/render/lighting.c</text>
</a>
</g>
</g>
<!-- Node1&#45;&gt;Node21 -->
<g id="edge20_Node000001_Node000021" class="edge">
<title>Node1&#45;&gt;Node21</title>
<g id="a_edge20_Node000001_Node000021"><a xlink:title=" ">
<path fill="none" stroke="#63b8ff" d="M1922.33,-75.07C2074.31,-75.62 2467.26,-72.41 2792,-30 2801.96,-28.7 2812.66,-26.67 2822.44,-24.55"/>
<polygon fill="#63b8ff" stroke="#63b8ff" points="1922.25,-71.57 1912.23,-75.02 1922.22,-78.57 1922.25,-71.57"/>
</a>
</g>
</g>
<!-- Node22 -->
<g id="Node000022" class="node">
<title>Node22</title>
<g id="a_Node000022"><a xlink:href="render_8c.html" target="_top" xlink:title=" ">
<polygon fill="white" stroke="#666666" points="3038.5,-24.5 2931.5,-24.5 2931.5,-5.5 3038.5,-5.5 3038.5,-24.5"/>
<text text-anchor="middle" x="2985" y="-12.5" font-family="Helvetica,sans-Serif" font-size="10.00">src/render/render.c</text>
</a>
</g>
</g>
<!-- Node1&#45;&gt;Node22 -->
<g id="edge21_Node000001_Node000022" class="edge">
<title>Node1&#45;&gt;Node22</title>
<g id="a_edge21_Node000001_Node000022"><a xlink:title=" ">
<path fill="none" stroke="#63b8ff" d="M1922.07,-73.34C2121.23,-69.49 2727.81,-55.9 2923,-30 2932.63,-28.72 2942.96,-26.67 2952.38,-24.52"/>
<polygon fill="#63b8ff" stroke="#63b8ff" points="1921.99,-69.84 1912.06,-73.53 1922.12,-76.84 1921.99,-69.84"/>
</a>
</g>
</g>
<!-- Node23 -->
<g id="Node000023" class="node">
<title>Node23</title>
<g id="a_Node000023"><a xlink:href="scene_8c.html" target="_top" xlink:title=" ">
<polygon fill="white" stroke="#666666" points="3151.5,-24.5 3056.5,-24.5 3056.5,-5.5 3151.5,-5.5 3151.5,-24.5"/>
<text text-anchor="middle" x="3104" y="-12.5" font-family="Helvetica,sans-Serif" font-size="10.00">src/utils/scene.c</text>
</a>
</g>
</g>
<!-- Node1&#45;&gt;Node23 -->
<g id="edge22_Node000001_Node000023" class="edge">
<title>Node1&#45;&gt;Node23</title>
<g id="a_edge22_Node000001_Node000023"><a xlink:title=" ">
<path fill="none" stroke="#63b8ff" d="M1922.19,-73.86C2136.72,-71.43 2827.73,-61.31 3048,-30 3056.73,-28.76 3066.08,-26.72 3074.58,-24.57"/>
<polygon fill="#63b8ff" stroke="#63b8ff" points="1921.99,-70.36 1912.03,-73.97 1922.07,-77.36 1921.99,-70.36"/>
</a>
</g>
</g>
<!-- Node24 -->
<g id="Node000024" class="node">
<title>Node24</title>
<g id="a_Node000024"><a xlink:href="window_8c.html" target="_top" xlink:title=" ">
<polygon fill="white" stroke="#666666" points="3248.5,-24.5 3169.5,-24.5 3169.5,-5.5 3248.5,-5.5 3248.5,-24.5"/>
<text text-anchor="middle" x="3209" y="-12.5" font-family="Helvetica,sans-Serif" font-size="10.00">src/window.c</text>
</a>
</g>
</g>
<!-- Node1&#45;&gt;Node24 -->
<g id="edge23_Node000001_Node000024" class="edge">
<title>Node1&#45;&gt;Node24</title>
<g id="a_edge23_Node000001_Node000024"><a xlink:title=" ">
<path fill="none" stroke="#63b8ff" d="M1922.11,-74.42C2149.73,-73.83 2918.33,-68.9 3161,-30 3168.54,-28.79 3176.57,-26.76 3183.86,-24.61"/>
<polygon fill="#63b8ff" stroke="#63b8ff" points="1922,-70.92 1912.01,-74.45 1922.01,-77.92 1922,-70.92"/>
</a>
</g>
</g>
</g>
</svg>
