<?xml version="1.0" encoding="UTF-8" standalone="no"?>
<!DOCTYPE svg PUBLIC "-//W3C//DTD SVG 1.1//EN"
 "http://www.w3.org/Graphics/SVG/1.1/DTD/svg11.dtd">
<!-- Generated by graphviz version 2.43.0 (0)
 -->
<!-- Title: src/render/render.c Pages: 1 -->
<svg width="1810pt" height="423pt"
 viewBox="0.00 0.00 1809.50 423.00" xmlns="http://www.w3.org/2000/svg" xmlns:xlink="http://www.w3.org/1999/xlink">
<g id="graph0" class="graph" transform="scale(1 1) rotate(0) translate(4 419)">
<title>src/render/render.c</title>
<!-- Node1 -->
<g id="Node000001" class="node">
<title>Node1</title>
<g id="a_Node000001"><a xlink:title=" ">
<polygon fill="#999999" stroke="#666666" points="696,-415 589,-415 589,-396 696,-396 696,-415"/>
<text text-anchor="middle" x="642.5" y="-403" font-family="Helvetica,sans-Serif" font-size="10.00">src/render/render.c</text>
</a>
</g>
</g>
<!-- Node2 -->
<g id="Node000002" class="node">
<title>Node2</title>
<g id="a_Node000002"><a xlink:href="raptiquax_8h.html" target="_top" xlink:title="This file contains type definitions for fixed&#45;width integer types and floating&#45;point types.">
<polygon fill="white" stroke="#666666" points="1114,-250 1033,-250 1033,-231 1114,-231 1114,-250"/>
<text text-anchor="middle" x="1073.5" y="-238" font-family="Helvetica,sans-Serif" font-size="10.00">../raptiquax.h</text>
</a>
</g>
</g>
<!-- Node1&#45;&gt;Node2 -->
<g id="edge1_Node000001_Node000002" class="edge">
<title>Node1&#45;&gt;Node2</title>
<g id="a_edge1_Node000001_Node000002"><a xlink:title=" ">
<path fill="none" stroke="#63b8ff" d="M637.51,-395.62C630.74,-382.25 620.85,-356.83 633.5,-341 681.82,-280.53 917.85,-254.12 1022.9,-245.23"/>
<polygon fill="#63b8ff" stroke="#63b8ff" points="1023.27,-248.71 1032.95,-244.39 1022.7,-241.73 1023.27,-248.71"/>
</a>
</g>
</g>
<!-- Node24 -->
<g id="Node000024" class="node">
<title>Node24</title>
<g id="a_Node000024"><a xlink:href="math__util_8h.html" target="_top" xlink:title=" ">
<polygon fill="white" stroke="#666666" points="628.5,-250 518.5,-250 518.5,-231 628.5,-231 628.5,-250"/>
<text text-anchor="middle" x="573.5" y="-238" font-family="Helvetica,sans-Serif" font-size="10.00">../math/math_util.h</text>
</a>
</g>
</g>
<!-- Node1&#45;&gt;Node24 -->
<g id="edge23_Node000001_Node000024" class="edge">
<title>Node1&#45;&gt;Node24</title>
<g id="a_edge23_Node000001_Node000024"><a xlink:title=" ">
<path fill="none" stroke="#63b8ff" d="M630.33,-395.82C609.96,-380.36 569.96,-345.85 557.5,-305 552.84,-289.73 558.11,-272.1 563.82,-259.3"/>
<polygon fill="#63b8ff" stroke="#63b8ff" points="567.02,-260.72 568.3,-250.2 560.74,-257.62 567.02,-260.72"/>
</a>
</g>
</g>
<!-- Node25 -->
<g id="Node000025" class="node">
<title>Node25</title>
<g id="a_Node000025"><a xlink:href="model_8h.html" target="_top" xlink:title="Defines structures and functions for handling 3D models and their properties.">
<polygon fill="white" stroke="#666666" points="172,-250 95,-250 95,-231 172,-231 172,-250"/>
<text text-anchor="middle" x="133.5" y="-238" font-family="Helvetica,sans-Serif" font-size="10.00">../io/model.h</text>
</a>
</g>
</g>
<!-- Node1&#45;&gt;Node25 -->
<g id="edge24_Node000001_Node000025" class="edge">
<title>Node1&#45;&gt;Node25</title>
<g id="a_edge24_Node000001_Node000025"><a xlink:title=" ">
<path fill="none" stroke="#63b8ff" d="M588.85,-403.4C465.43,-400.37 169.41,-390.01 136.5,-360 108.97,-334.89 118.88,-286.03 127.04,-259.57"/>
<polygon fill="#63b8ff" stroke="#63b8ff" points="130.38,-260.62 130.21,-250.03 123.74,-258.41 130.38,-260.62"/>
</a>
</g>
</g>
<!-- Node31 -->
<g id="Node000031" class="node">
<title>Node31</title>
<g id="a_Node000031"><a xlink:href="framebuffer_8h.html" target="_top" xlink:title=" ">
<polygon fill="white" stroke="#666666" points="227,-305 144,-305 144,-286 227,-286 227,-305"/>
<text text-anchor="middle" x="185.5" y="-293" font-family="Helvetica,sans-Serif" font-size="10.00">framebuffer.h</text>
</a>
</g>
</g>
<!-- Node1&#45;&gt;Node31 -->
<g id="edge30_Node000001_Node000031" class="edge">
<title>Node1&#45;&gt;Node31</title>
<g id="a_edge30_Node000001_Node000031"><a xlink:title=" ">
<path fill="none" stroke="#63b8ff" d="M588.97,-397.54C536.28,-390.17 453.74,-377.21 383.5,-360 324.44,-345.53 257.38,-322.61 218.41,-308.62"/>
<polygon fill="#63b8ff" stroke="#63b8ff" points="219.26,-305.21 208.67,-305.1 216.88,-311.79 219.26,-305.21"/>
</a>
</g>
</g>
<!-- Node33 -->
<g id="Node000033" class="node">
<title>Node33</title>
<g id="a_Node000033"><a xlink:href="node_8h.html" target="_top" xlink:title=" ">
<polygon fill="white" stroke="#666666" points="490.5,-360 392.5,-360 392.5,-341 490.5,-341 490.5,-360"/>
<text text-anchor="middle" x="441.5" y="-348" font-family="Helvetica,sans-Serif" font-size="10.00">../storage/node.h</text>
</a>
</g>
</g>
<!-- Node1&#45;&gt;Node33 -->
<g id="edge32_Node000001_Node000033" class="edge">
<title>Node1&#45;&gt;Node33</title>
<g id="a_edge32_Node000001_Node000033"><a xlink:title=" ">
<path fill="none" stroke="#63b8ff" d="M610.21,-395.98C575.88,-386.93 521.44,-372.58 483.73,-362.64"/>
<polygon fill="#63b8ff" stroke="#63b8ff" points="484.61,-359.25 474.05,-360.08 482.82,-366.02 484.61,-359.25"/>
</a>
</g>
</g>
<!-- Node34 -->
<g id="Node000034" class="node">
<title>Node34</title>
<g id="a_Node000034"><a xlink:href="camera_8h.html" target="_top" xlink:title=" ">
<polygon fill="white" stroke="#666666" points="672.5,-305 566.5,-305 566.5,-286 672.5,-286 672.5,-305"/>
<text text-anchor="middle" x="619.5" y="-293" font-family="Helvetica,sans-Serif" font-size="10.00">../render/camera.h</text>
</a>
</g>
</g>
<!-- Node1&#45;&gt;Node34 -->
<g id="edge50_Node000001_Node000034" class="edge">
<title>Node1&#45;&gt;Node34</title>
<g id="a_edge50_Node000001_Node000034"><a xlink:title=" ">
<path fill="none" stroke="#63b8ff" d="M630.29,-395.86C620.15,-387.88 606.46,-375.01 600.5,-360 594.47,-344.83 600.96,-326.98 607.94,-314.07"/>
<polygon fill="#63b8ff" stroke="#63b8ff" points="611.06,-315.67 613.18,-305.29 605.05,-312.09 611.06,-315.67"/>
</a>
</g>
</g>
<!-- Node38 -->
<g id="Node000038" class="node">
<title>Node38</title>
<g id="a_Node000038"><a xlink:href="depth__map_8h.html" target="_top" xlink:title=" ">
<polygon fill="white" stroke="#666666" points="225.5,-360 145.5,-360 145.5,-341 225.5,-341 225.5,-360"/>
<text text-anchor="middle" x="185.5" y="-348" font-family="Helvetica,sans-Serif" font-size="10.00">depth_map.h</text>
</a>
</g>
</g>
<!-- Node1&#45;&gt;Node38 -->
<g id="edge45_Node000001_Node000038" class="edge">
<title>Node1&#45;&gt;Node38</title>
<g id="a_edge45_Node000001_Node000038"><a xlink:title=" ">
<path fill="none" stroke="#63b8ff" d="M588.73,-398.26C499.63,-387.93 322.59,-367.4 235.82,-357.34"/>
<polygon fill="#63b8ff" stroke="#63b8ff" points="236.03,-353.84 225.69,-356.16 235.23,-360.79 236.03,-353.84"/>
</a>
</g>
</g>
<!-- Node39 -->
<g id="Node000039" class="node">
<title>Node39</title>
<g id="a_Node000039"><a xlink:href="render_8h.html" target="_top" xlink:title=" ">
<polygon fill="white" stroke="#666666" points="698.5,-360 642.5,-360 642.5,-341 698.5,-341 698.5,-360"/>
<text text-anchor="middle" x="670.5" y="-348" font-family="Helvetica,sans-Serif" font-size="10.00">render.h</text>
</a>
</g>
</g>
<!-- Node1&#45;&gt;Node39 -->
<g id="edge48_Node000001_Node000039" class="edge">
<title>Node1&#45;&gt;Node39</title>
<g id="a_edge48_Node000001_Node000039"><a xlink:title=" ">
<path fill="none" stroke="#63b8ff" d="M647.12,-395.75C650.96,-388.49 656.52,-377.95 661.26,-368.98"/>
<polygon fill="#63b8ff" stroke="#63b8ff" points="664.39,-370.57 665.96,-360.09 658.2,-367.3 664.39,-370.57"/>
</a>
</g>
</g>
<!-- Node40 -->
<g id="Node000040" class="node">
<title>Node40</title>
<g id="a_Node000040"><a xlink:href="window_8h.html" target="_top" xlink:title=" ">
<polygon fill="white" stroke="#666666" points="788,-360 717,-360 717,-341 788,-341 788,-360"/>
<text text-anchor="middle" x="752.5" y="-348" font-family="Helvetica,sans-Serif" font-size="10.00">../window.h</text>
</a>
</g>
</g>
<!-- Node1&#45;&gt;Node40 -->
<g id="edge49_Node000001_Node000040" class="edge">
<title>Node1&#45;&gt;Node40</title>
<g id="a_edge49_Node000001_Node000040"><a xlink:title=" ">
<path fill="none" stroke="#63b8ff" d="M660.17,-395.98C677.79,-387.5 705.08,-374.35 725.43,-364.54"/>
<polygon fill="#63b8ff" stroke="#63b8ff" points="727.02,-367.66 734.51,-360.17 723.98,-361.36 727.02,-367.66"/>
</a>
</g>
</g>
<!-- Node41 -->
<g id="Node000041" class="node">
<title>Node41</title>
<g id="a_Node000041"><a xlink:href="gltexture__loader_8h.html" target="_top" xlink:title=" ">
<polygon fill="white" stroke="#666666" points="932.5,-360 806.5,-360 806.5,-341 932.5,-341 932.5,-360"/>
<text text-anchor="middle" x="869.5" y="-348" font-family="Helvetica,sans-Serif" font-size="10.00">../io/gltexture_loader.h</text>
</a>
</g>
</g>
<!-- Node1&#45;&gt;Node41 -->
<g id="edge51_Node000001_Node000041" class="edge">
<title>Node1&#45;&gt;Node41</title>
<g id="a_edge51_Node000001_Node000041"><a xlink:title=" ">
<path fill="none" stroke="#63b8ff" d="M678.97,-395.98C718.07,-386.86 780.27,-372.33 822.89,-362.38"/>
<polygon fill="#63b8ff" stroke="#63b8ff" points="823.8,-365.76 832.74,-360.08 822.21,-358.95 823.8,-365.76"/>
</a>
</g>
</g>
<!-- Node42 -->
<g id="Node000042" class="node">
<title>Node42</title>
<g id="a_Node000042"><a xlink:href="lighting_8h.html" target="_top" xlink:title=" ">
<polygon fill="white" stroke="#666666" points="1012.5,-360 950.5,-360 950.5,-341 1012.5,-341 1012.5,-360"/>
<text text-anchor="middle" x="981.5" y="-348" font-family="Helvetica,sans-Serif" font-size="10.00">lighting.h</text>
</a>
</g>
</g>
<!-- Node1&#45;&gt;Node42 -->
<g id="edge52_Node000001_Node000042" class="edge">
<title>Node1&#45;&gt;Node42</title>
<g id="a_edge52_Node000001_Node000042"><a xlink:title=" ">
<path fill="none" stroke="#63b8ff" d="M696.13,-397.53C753.99,-389.79 849.05,-376.41 940.15,-360.15"/>
<polygon fill="#63b8ff" stroke="#63b8ff" points="940.87,-363.58 950.09,-358.37 939.63,-356.69 940.87,-363.58"/>
</a>
</g>
</g>
<!-- Node43 -->
<g id="Node000043" class="node">
<title>Node43</title>
<g id="a_Node000043"><a xlink:href="buffer_8h.html" target="_top" xlink:title="Functions for initializing and freeing Game.buffers&#45;&gt;">
<polygon fill="white" stroke="#666666" points="1092.5,-360 1030.5,-360 1030.5,-341 1092.5,-341 1092.5,-360"/>
<text text-anchor="middle" x="1061.5" y="-348" font-family="Helvetica,sans-Serif" font-size="10.00">../buffer.h</text>
</a>
</g>
</g>
<!-- Node1&#45;&gt;Node43 -->
<g id="edge53_Node000001_Node000043" class="edge">
<title>Node1&#45;&gt;Node43</title>
<g id="a_edge53_Node000001_Node000043"><a xlink:title=" ">
<path fill="none" stroke="#63b8ff" d="M696.07,-399.79C767.67,-393.13 898.71,-379.75 1019.91,-360.13"/>
<polygon fill="#63b8ff" stroke="#63b8ff" points="1020.81,-363.53 1030.11,-358.46 1019.67,-356.62 1020.81,-363.53"/>
</a>
</g>
</g>
<!-- Node44 -->
<g id="Node000044" class="node">
<title>Node44</title>
<g id="a_Node000044"><a xlink:href="classes_8h.html" target="_top" xlink:title=" ">
<polygon fill="white" stroke="#666666" points="1220.5,-360 1110.5,-360 1110.5,-341 1220.5,-341 1220.5,-360"/>
<text text-anchor="middle" x="1165.5" y="-348" font-family="Helvetica,sans-Serif" font-size="10.00">../classes/classes.h</text>
</a>
</g>
</g>
<!-- Node1&#45;&gt;Node44 -->
<g id="edge54_Node000001_Node000044" class="edge">
<title>Node1&#45;&gt;Node44</title>
<g id="a_edge54_Node000001_Node000044"><a xlink:title=" ">
<path fill="none" stroke="#63b8ff" d="M696.27,-399.91C780.21,-392.6 947.75,-377.48 1100.33,-360.1"/>
<polygon fill="#63b8ff" stroke="#63b8ff" points="1100.82,-363.56 1110.36,-358.95 1100.02,-356.61 1100.82,-363.56"/>
</a>
</g>
</g>
<!-- Node47 -->
<g id="Node000047" class="node">
<title>Node47</title>
<g id="a_Node000047"><a xlink:href="settings_8h.html" target="_top" xlink:title=" ">
<polygon fill="white" stroke="#666666" points="1312.5,-360 1238.5,-360 1238.5,-341 1312.5,-341 1312.5,-360"/>
<text text-anchor="middle" x="1275.5" y="-348" font-family="Helvetica,sans-Serif" font-size="10.00">../settings.h</text>
</a>
</g>
</g>
<!-- Node1&#45;&gt;Node47 -->
<g id="edge58_Node000001_Node000047" class="edge">
<title>Node1&#45;&gt;Node47</title>
<g id="a_edge58_Node000001_Node000047"><a xlink:title=" ">
<path fill="none" stroke="#63b8ff" d="M696.11,-402.36C797.87,-397.88 1026.15,-385.82 1228.19,-360.03"/>
<polygon fill="#63b8ff" stroke="#63b8ff" points="1228.93,-363.46 1238.4,-358.71 1228.03,-356.52 1228.93,-363.46"/>
</a>
</g>
</g>
<!-- Node3 -->
<g id="Node000003" class="node">
<title>Node3</title>
<g id="a_Node000003"><a xlink:title=" ">
<polygon fill="#e0e0e0" stroke="#999999" points="1413.5,-189.5 1363.5,-189.5 1363.5,-170.5 1413.5,-170.5 1413.5,-189.5"/>
<text text-anchor="middle" x="1388.5" y="-177.5" font-family="Helvetica,sans-Serif" font-size="10.00">stdio.h</text>
</a>
</g>
</g>
<!-- Node2&#45;&gt;Node3 -->
<g id="edge2_Node000002_Node000003" class="edge">
<title>Node2&#45;&gt;Node3</title>
<g id="a_edge2_Node000002_Node000003"><a xlink:title=" ">
<path fill="none" stroke="#63b8ff" d="M1114.15,-236.07C1169.38,-230.73 1270.81,-218.51 1354.5,-195 1356.44,-194.46 1358.41,-193.83 1360.38,-193.16"/>
<polygon fill="#63b8ff" stroke="#63b8ff" points="1361.95,-196.31 1370.07,-189.5 1359.48,-189.76 1361.95,-196.31"/>
</a>
</g>
</g>
<!-- Node4 -->
<g id="Node000004" class="node">
<title>Node4</title>
<g id="a_Node000004"><a xlink:title=" ">
<polygon fill="#e0e0e0" stroke="#999999" points="1485,-189.5 1432,-189.5 1432,-170.5 1485,-170.5 1485,-189.5"/>
<text text-anchor="middle" x="1458.5" y="-177.5" font-family="Helvetica,sans-Serif" font-size="10.00">stdint.h</text>
</a>
</g>
</g>
<!-- Node2&#45;&gt;Node4 -->
<g id="edge3_Node000002_Node000004" class="edge">
<title>Node2&#45;&gt;Node4</title>
<g id="a_edge3_Node000002_Node000004"><a xlink:title=" ">
<path fill="none" stroke="#63b8ff" d="M1114.14,-237.54C1179.85,-233.65 1313.13,-222.79 1422.5,-195 1424.8,-194.41 1427.16,-193.72 1429.51,-192.97"/>
<polygon fill="#63b8ff" stroke="#63b8ff" points="1430.73,-196.24 1438.98,-189.59 1428.38,-189.65 1430.73,-196.24"/>
</a>
</g>
</g>
<!-- Node5 -->
<g id="Node000005" class="node">
<title>Node5</title>
<g id="a_Node000005"><a xlink:title=" ">
<polygon fill="#e0e0e0" stroke="#999999" points="1565.5,-189.5 1503.5,-189.5 1503.5,-170.5 1565.5,-170.5 1565.5,-189.5"/>
<text text-anchor="middle" x="1534.5" y="-177.5" font-family="Helvetica,sans-Serif" font-size="10.00">stdbool.h</text>
</a>
</g>
</g>
<!-- Node2&#45;&gt;Node5 -->
<g id="edge4_Node000002_Node000005" class="edge">
<title>Node2&#45;&gt;Node5</title>
<g id="a_edge4_Node000002_Node000005"><a xlink:title=" ">
<path fill="none" stroke="#63b8ff" d="M1114.06,-238.32C1189.72,-235.45 1357.18,-225.85 1494.5,-195 1497.33,-194.36 1500.23,-193.59 1503.12,-192.74"/>
<polygon fill="#63b8ff" stroke="#63b8ff" points="1504.32,-196.04 1512.76,-189.63 1502.17,-189.37 1504.32,-196.04"/>
</a>
</g>
</g>
<!-- Node6 -->
<g id="Node000006" class="node">
<title>Node6</title>
<g id="a_Node000006"><a xlink:title=" ">
<polygon fill="#e0e0e0" stroke="#999999" points="1639.5,-189.5 1583.5,-189.5 1583.5,-170.5 1639.5,-170.5 1639.5,-189.5"/>
<text text-anchor="middle" x="1611.5" y="-177.5" font-family="Helvetica,sans-Serif" font-size="10.00">stdarg.h</text>
</a>
</g>
</g>
<!-- Node2&#45;&gt;Node6 -->
<g id="edge5_Node000002_Node000006" class="edge">
<title>Node2&#45;&gt;Node6</title>
<g id="a_edge5_Node000002_Node000006"><a xlink:title=" ">
<path fill="none" stroke="#63b8ff" d="M1114.02,-239.62C1200,-239.07 1406.61,-233.46 1574.5,-195 1577.02,-194.42 1579.6,-193.71 1582.16,-192.92"/>
<polygon fill="#63b8ff" stroke="#63b8ff" points="1583.53,-196.15 1591.84,-189.58 1581.24,-189.54 1583.53,-196.15"/>
</a>
</g>
</g>
<!-- Node7 -->
<g id="Node000007" class="node">
<title>Node7</title>
<g id="a_Node000007"><a xlink:title=" ">
<polygon fill="#e0e0e0" stroke="#999999" points="1711,-189.5 1658,-189.5 1658,-170.5 1711,-170.5 1711,-189.5"/>
<text text-anchor="middle" x="1684.5" y="-177.5" font-family="Helvetica,sans-Serif" font-size="10.00">limits.h</text>
</a>
</g>
</g>
<!-- Node2&#45;&gt;Node7 -->
<g id="edge6_Node000002_Node000007" class="edge">
<title>Node2&#45;&gt;Node7</title>
<g id="a_edge6_Node000002_Node000007"><a xlink:title=" ">
<path fill="none" stroke="#63b8ff" d="M1114.21,-237.9C1227.79,-233.2 1546.48,-218.25 1648.5,-195 1650.87,-194.46 1653.3,-193.79 1655.71,-193.04"/>
<polygon fill="#63b8ff" stroke="#63b8ff" points="1657.13,-196.25 1665.4,-189.63 1654.8,-189.65 1657.13,-196.25"/>
</a>
</g>
</g>
<!-- Node8 -->
<g id="Node000008" class="node">
<title>Node8</title>
<g id="a_Node000008"><a xlink:title=" ">
<polygon fill="#e0e0e0" stroke="#999999" points="1801.5,-189.5 1729.5,-189.5 1729.5,-170.5 1801.5,-170.5 1801.5,-189.5"/>
<text text-anchor="middle" x="1765.5" y="-177.5" font-family="Helvetica,sans-Serif" font-size="10.00">SDL2/SDL.h</text>
</a>
</g>
</g>
<!-- Node2&#45;&gt;Node8 -->
<g id="edge7_Node000002_Node000008" class="edge">
<title>Node2&#45;&gt;Node8</title>
<g id="a_edge7_Node000002_Node000008"><a xlink:title=" ">
<path fill="none" stroke="#63b8ff" d="M1114.04,-239.97C1216.58,-240.45 1494.18,-237.39 1720.5,-195 1724.17,-194.31 1727.97,-193.42 1731.73,-192.43"/>
<polygon fill="#63b8ff" stroke="#63b8ff" points="1732.84,-195.75 1741.47,-189.61 1730.89,-189.03 1732.84,-195.75"/>
</a>
</g>
</g>
<!-- Node9 -->
<g id="Node000009" class="node">
<title>Node9</title>
<g id="a_Node000009"><a xlink:title=" ">
<polygon fill="#e0e0e0" stroke="#999999" points="432.5,-189.5 324.5,-189.5 324.5,-170.5 432.5,-170.5 432.5,-189.5"/>
<text text-anchor="middle" x="378.5" y="-177.5" font-family="Helvetica,sans-Serif" font-size="10.00">SDL2/SDL_image.h</text>
</a>
</g>
</g>
<!-- Node2&#45;&gt;Node9 -->
<g id="edge8_Node000002_Node000009" class="edge">
<title>Node2&#45;&gt;Node9</title>
<g id="a_edge8_Node000002_Node000009"><a xlink:title=" ">
<path fill="none" stroke="#63b8ff" d="M1032.98,-238.73C932.37,-236.36 663.28,-227.27 441.5,-195 435.32,-194.1 428.83,-192.93 422.48,-191.64"/>
<polygon fill="#63b8ff" stroke="#63b8ff" points="423.17,-188.21 412.66,-189.56 421.72,-195.06 423.17,-188.21"/>
</a>
</g>
</g>
<!-- Node10 -->
<g id="Node000010" class="node">
<title>Node10</title>
<g id="a_Node000010"><a xlink:title=" ">
<polygon fill="#e0e0e0" stroke="#999999" points="560.5,-189.5 450.5,-189.5 450.5,-170.5 560.5,-170.5 560.5,-189.5"/>
<text text-anchor="middle" x="505.5" y="-177.5" font-family="Helvetica,sans-Serif" font-size="10.00">SDL2/SDL_opengl.h</text>
</a>
</g>
</g>
<!-- Node2&#45;&gt;Node10 -->
<g id="edge9_Node000002_Node000010" class="edge">
<title>Node2&#45;&gt;Node10</title>
<g id="a_edge9_Node000002_Node000010"><a xlink:title=" ">
<path fill="none" stroke="#63b8ff" d="M1032.79,-237.67C946.8,-233.41 740.56,-221.15 569.5,-195 563.3,-194.05 556.81,-192.86 550.43,-191.58"/>
<polygon fill="#63b8ff" stroke="#63b8ff" points="551.07,-188.14 540.56,-189.51 549.63,-194.99 551.07,-188.14"/>
</a>
</g>
</g>
<!-- Node11 -->
<g id="Node000011" class="node">
<title>Node11</title>
<g id="a_Node000011"><a xlink:title=" ">
<polygon fill="#e0e0e0" stroke="#999999" points="682.5,-189.5 578.5,-189.5 578.5,-170.5 682.5,-170.5 682.5,-189.5"/>
<text text-anchor="middle" x="630.5" y="-177.5" font-family="Helvetica,sans-Serif" font-size="10.00">SDL2/SDL_mixer.h</text>
</a>
</g>
</g>
<!-- Node2&#45;&gt;Node11 -->
<g id="edge10_Node000002_Node000011" class="edge">
<title>Node2&#45;&gt;Node11</title>
<g id="a_edge10_Node000002_Node000011"><a xlink:title=" ">
<path fill="none" stroke="#63b8ff" d="M1032.86,-236.24C962.84,-230.3 815.03,-216.31 691.5,-195 686.01,-194.05 680.28,-192.92 674.61,-191.73"/>
<polygon fill="#63b8ff" stroke="#63b8ff" points="675.08,-188.24 664.56,-189.51 673.58,-195.08 675.08,-188.24"/>
</a>
</g>
</g>
<!-- Node12 -->
<g id="Node000012" class="node">
<title>Node12</title>
<g id="a_Node000012"><a xlink:title=" ">
<polygon fill="#e0e0e0" stroke="#999999" points="788.5,-189.5 700.5,-189.5 700.5,-170.5 788.5,-170.5 788.5,-189.5"/>
<text text-anchor="middle" x="744.5" y="-177.5" font-family="Helvetica,sans-Serif" font-size="10.00">SDL2/SDL_ttf.h</text>
</a>
</g>
</g>
<!-- Node2&#45;&gt;Node12 -->
<g id="edge11_Node000002_Node000012" class="edge">
<title>Node2&#45;&gt;Node12</title>
<g id="a_edge11_Node000002_Node000012"><a xlink:title=" ">
<path fill="none" stroke="#63b8ff" d="M1032.58,-234.19C978.49,-226.87 880.35,-212.58 797.5,-195 793.31,-194.11 788.96,-193.1 784.62,-192.04"/>
<polygon fill="#63b8ff" stroke="#63b8ff" points="785.2,-188.58 774.65,-189.51 783.48,-195.36 785.2,-188.58"/>
</a>
</g>
</g>
<!-- Node13 -->
<g id="Node000013" class="node">
<title>Node13</title>
<g id="a_Node000013"><a xlink:title=" ">
<polygon fill="#e0e0e0" stroke="#999999" points="856.5,-189.5 806.5,-189.5 806.5,-170.5 856.5,-170.5 856.5,-189.5"/>
<text text-anchor="middle" x="831.5" y="-177.5" font-family="Helvetica,sans-Serif" font-size="10.00">GL/gl.h</text>
</a>
</g>
</g>
<!-- Node2&#45;&gt;Node13 -->
<g id="edge12_Node000002_Node000013" class="edge">
<title>Node2&#45;&gt;Node13</title>
<g id="a_edge12_Node000002_Node000013"><a xlink:title=" ">
<path fill="none" stroke="#63b8ff" d="M1032.68,-233.01C990.34,-225.75 922.46,-212.66 865.5,-195 863.82,-194.48 862.11,-193.91 860.4,-193.31"/>
<polygon fill="#63b8ff" stroke="#63b8ff" points="861.29,-189.9 850.7,-189.61 858.79,-196.44 861.29,-189.9"/>
</a>
</g>
</g>
<!-- Node14 -->
<g id="Node000014" class="node">
<title>Node14</title>
<g id="a_Node000014"><a xlink:title=" ">
<polygon fill="#e0e0e0" stroke="#999999" points="930.5,-189.5 874.5,-189.5 874.5,-170.5 930.5,-170.5 930.5,-189.5"/>
<text text-anchor="middle" x="902.5" y="-177.5" font-family="Helvetica,sans-Serif" font-size="10.00">GL/glu.h</text>
</a>
</g>
</g>
<!-- Node2&#45;&gt;Node14 -->
<g id="edge13_Node000002_Node000014" class="edge">
<title>Node2&#45;&gt;Node14</title>
<g id="a_edge13_Node000002_Node000014"><a xlink:title=" ">
<path fill="none" stroke="#63b8ff" d="M1046.69,-230.96C1019.56,-222.23 976.46,-208.12 939.5,-195 937.85,-194.42 936.17,-193.81 934.47,-193.19"/>
<polygon fill="#63b8ff" stroke="#63b8ff" points="935.34,-189.78 924.75,-189.59 932.91,-196.35 935.34,-189.78"/>
</a>
</g>
</g>
<!-- Node15 -->
<g id="Node000015" class="node">
<title>Node15</title>
<g id="a_Node000015"><a xlink:title=" ">
<polygon fill="#e0e0e0" stroke="#999999" points="1014.5,-189.5 948.5,-189.5 948.5,-170.5 1014.5,-170.5 1014.5,-189.5"/>
<text text-anchor="middle" x="981.5" y="-177.5" font-family="Helvetica,sans-Serif" font-size="10.00">GL/glext.h</text>
</a>
</g>
</g>
<!-- Node2&#45;&gt;Node15 -->
<g id="edge14_Node000002_Node000015" class="edge">
<title>Node2&#45;&gt;Node15</title>
<g id="a_edge14_Node000002_Node000015"><a xlink:title=" ">
<path fill="none" stroke="#63b8ff" d="M1059.93,-230.87C1045.11,-221.45 1021.17,-206.23 1003.64,-195.08"/>
<polygon fill="#63b8ff" stroke="#63b8ff" points="1005.45,-192.08 995.13,-189.67 1001.69,-197.99 1005.45,-192.08"/>
</a>
</g>
</g>
<!-- Node16 -->
<g id="Node000016" class="node">
<title>Node16</title>
<g id="a_Node000016"><a xlink:title=" ">
<polygon fill="#e0e0e0" stroke="#999999" points="1110,-189.5 1033,-189.5 1033,-170.5 1110,-170.5 1110,-189.5"/>
<text text-anchor="middle" x="1071.5" y="-177.5" font-family="Helvetica,sans-Serif" font-size="10.00">cglm/cglm.h</text>
</a>
</g>
</g>
<!-- Node2&#45;&gt;Node16 -->
<g id="edge15_Node000002_Node000016" class="edge">
<title>Node2&#45;&gt;Node16</title>
<g id="a_edge15_Node000002_Node000016"><a xlink:title=" ">
<path fill="none" stroke="#63b8ff" d="M1073.2,-230.87C1072.93,-222.75 1072.5,-210.31 1072.15,-199.89"/>
<polygon fill="#63b8ff" stroke="#63b8ff" points="1075.64,-199.54 1071.8,-189.67 1068.64,-199.78 1075.64,-199.54"/>
</a>
</g>
</g>
<!-- Node17 -->
<g id="Node000017" class="node">
<title>Node17</title>
<g id="a_Node000017"><a xlink:title=" ">
<polygon fill="#e0e0e0" stroke="#999999" points="1179,-189.5 1128,-189.5 1128,-170.5 1179,-170.5 1179,-189.5"/>
<text text-anchor="middle" x="1153.5" y="-177.5" font-family="Helvetica,sans-Serif" font-size="10.00">math.h</text>
</a>
</g>
</g>
<!-- Node2&#45;&gt;Node17 -->
<g id="edge16_Node000002_Node000017" class="edge">
<title>Node2&#45;&gt;Node17</title>
<g id="a_edge16_Node000002_Node000017"><a xlink:title=" ">
<path fill="none" stroke="#63b8ff" d="M1085.3,-230.87C1097.95,-221.62 1118.24,-206.78 1133.41,-195.69"/>
<polygon fill="#63b8ff" stroke="#63b8ff" points="1135.64,-198.4 1141.65,-189.67 1131.51,-192.74 1135.64,-198.4"/>
</a>
</g>
</g>
<!-- Node18 -->
<g id="Node000018" class="node">
<title>Node18</title>
<g id="a_Node000018"><a xlink:href="stringio_8h.html" target="_top" xlink:title="Provides utility functions for string and file operations.">
<polygon fill="white" stroke="#666666" points="1271.5,-189.5 1197.5,-189.5 1197.5,-170.5 1271.5,-170.5 1271.5,-189.5"/>
<text text-anchor="middle" x="1234.5" y="-177.5" font-family="Helvetica,sans-Serif" font-size="10.00">io/stringio.h</text>
</a>
</g>
</g>
<!-- Node2&#45;&gt;Node18 -->
<g id="edge17_Node000002_Node000018" class="edge">
<title>Node2&#45;&gt;Node18</title>
<g id="a_edge17_Node000002_Node000018"><a xlink:title=" ">
<path fill="none" stroke="#63b8ff" d="M1096.91,-230.99C1124.45,-220.99 1170.37,-204.3 1201.51,-192.99"/>
<polygon fill="#63b8ff" stroke="#63b8ff" points="1202.86,-196.22 1211.06,-189.52 1200.47,-189.64 1202.86,-196.22"/>
</a>
</g>
</g>
<!-- Node20 -->
<g id="Node000020" class="node">
<title>Node20</title>
<g id="a_Node000020"><a xlink:href="config_8h.html" target="_top" xlink:title=" ">
<polygon fill="white" stroke="#666666" points="1345,-189.5 1290,-189.5 1290,-170.5 1345,-170.5 1345,-189.5"/>
<text text-anchor="middle" x="1317.5" y="-177.5" font-family="Helvetica,sans-Serif" font-size="10.00">config.h</text>
</a>
</g>
</g>
<!-- Node2&#45;&gt;Node20 -->
<g id="edge19_Node000002_Node000020" class="edge">
<title>Node2&#45;&gt;Node20</title>
<g id="a_edge19_Node000002_Node000020"><a xlink:title=" ">
<path fill="none" stroke="#63b8ff" d="M1114.02,-232.65C1156.08,-225.11 1223.56,-211.79 1280.5,-195 1282.64,-194.37 1284.83,-193.67 1287.03,-192.94"/>
<polygon fill="#63b8ff" stroke="#63b8ff" points="1288.31,-196.2 1296.55,-189.55 1285.96,-189.6 1288.31,-196.2"/>
</a>
</g>
</g>
<!-- Node19 -->
<g id="Node000019" class="node">
<title>Node19</title>
<g id="a_Node000019"><a xlink:title=" ">
<polygon fill="#e0e0e0" stroke="#999999" points="1261,-129 1208,-129 1208,-110 1261,-110 1261,-129"/>
<text text-anchor="middle" x="1234.5" y="-117" font-family="Helvetica,sans-Serif" font-size="10.00">string.h</text>
</a>
</g>
</g>
<!-- Node18&#45;&gt;Node19 -->
<g id="edge18_Node000018_Node000019" class="edge">
<title>Node18&#45;&gt;Node19</title>
<g id="a_edge18_Node000018_Node000019"><a xlink:title=" ">
<path fill="none" stroke="#63b8ff" d="M1234.5,-170.37C1234.5,-162.25 1234.5,-149.81 1234.5,-139.39"/>
<polygon fill="#63b8ff" stroke="#63b8ff" points="1238,-139.17 1234.5,-129.17 1231,-139.17 1238,-139.17"/>
</a>
</g>
</g>
<!-- Node21 -->
<g id="Node000021" class="node">
<title>Node21</title>
<g id="a_Node000021"><a xlink:href="term_8h.html" target="_top" xlink:title=" ">
<polygon fill="white" stroke="#666666" points="1355,-129 1280,-129 1280,-110 1355,-110 1355,-129"/>
<text text-anchor="middle" x="1317.5" y="-117" font-family="Helvetica,sans-Serif" font-size="10.00">term/term.h</text>
</a>
</g>
</g>
<!-- Node20&#45;&gt;Node21 -->
<g id="edge20_Node000020_Node000021" class="edge">
<title>Node20&#45;&gt;Node21</title>
<g id="a_edge20_Node000020_Node000021"><a xlink:title=" ">
<path fill="none" stroke="#63b8ff" d="M1317.5,-170.37C1317.5,-162.25 1317.5,-149.81 1317.5,-139.39"/>
<polygon fill="#63b8ff" stroke="#63b8ff" points="1321,-139.17 1317.5,-129.17 1314,-139.17 1321,-139.17"/>
</a>
</g>
</g>
<!-- Node22 -->
<g id="Node000022" class="node">
<title>Node22</title>
<g id="a_Node000022"><a xlink:href="enhanced__print_8h.html" target="_top" xlink:title=" ">
<polygon fill="white" stroke="#666666" points="1368,-74 1267,-74 1267,-55 1368,-55 1368,-74"/>
<text text-anchor="middle" x="1317.5" y="-62" font-family="Helvetica,sans-Serif" font-size="10.00">enhanced_print.h</text>
</a>
</g>
</g>
<!-- Node21&#45;&gt;Node22 -->
<g id="edge21_Node000021_Node000022" class="edge">
<title>Node21&#45;&gt;Node22</title>
<g id="a_edge21_Node000021_Node000022"><a xlink:title=" ">
<path fill="none" stroke="#63b8ff" d="M1317.5,-109.75C1317.5,-102.8 1317.5,-92.85 1317.5,-84.13"/>
<polygon fill="#63b8ff" stroke="#63b8ff" points="1321,-84.09 1317.5,-74.09 1314,-84.09 1321,-84.09"/>
</a>
</g>
</g>
<!-- Node23 -->
<g id="Node000023" class="node">
<title>Node23</title>
<g id="a_Node000023"><a xlink:href="color_8h.html" target="_top" xlink:title=" ">
<polygon fill="white" stroke="#666666" points="1342,-19 1293,-19 1293,0 1342,0 1342,-19"/>
<text text-anchor="middle" x="1317.5" y="-7" font-family="Helvetica,sans-Serif" font-size="10.00">color.h</text>
</a>
</g>
</g>
<!-- Node22&#45;&gt;Node23 -->
<g id="edge22_Node000022_Node000023" class="edge">
<title>Node22&#45;&gt;Node23</title>
<g id="a_edge22_Node000022_Node000023"><a xlink:title=" ">
<path fill="none" stroke="#63b8ff" d="M1317.5,-54.75C1317.5,-47.8 1317.5,-37.85 1317.5,-29.13"/>
<polygon fill="#63b8ff" stroke="#63b8ff" points="1321,-29.09 1317.5,-19.09 1314,-29.09 1321,-29.09"/>
</a>
</g>
</g>
<!-- Node26 -->
<g id="Node000026" class="node">
<title>Node26</title>
<g id="a_Node000026"><a xlink:href="shader_8h.html" target="_top" xlink:title=" ">
<polygon fill="white" stroke="#666666" points="306.5,-189.5 248.5,-189.5 248.5,-170.5 306.5,-170.5 306.5,-189.5"/>
<text text-anchor="middle" x="277.5" y="-177.5" font-family="Helvetica,sans-Serif" font-size="10.00">shader.h</text>
</a>
</g>
</g>
<!-- Node25&#45;&gt;Node26 -->
<g id="edge25_Node000025_Node000026" class="edge">
<title>Node25&#45;&gt;Node26</title>
<g id="a_edge25_Node000025_Node000026"><a xlink:title=" ">
<path fill="none" stroke="#63b8ff" d="M154.44,-230.99C178.86,-221.07 219.43,-204.59 247.27,-193.28"/>
<polygon fill="#63b8ff" stroke="#63b8ff" points="248.59,-196.52 256.54,-189.52 245.95,-190.04 248.59,-196.52"/>
</a>
</g>
</g>
<!-- Node27 -->
<g id="Node000027" class="node">
<title>Node27</title>
<g id="a_Node000027"><a xlink:href="model__loader_8h.html" target="_top" xlink:title=" ">
<polygon fill="white" stroke="#666666" points="194.5,-195 72.5,-195 72.5,-165 194.5,-165 194.5,-195"/>
<text text-anchor="start" x="80.5" y="-183" font-family="Helvetica,sans-Serif" font-size="10.00">model_loaders/model</text>
<text text-anchor="middle" x="133.5" y="-172" font-family="Helvetica,sans-Serif" font-size="10.00">_loader.h</text>
</a>
</g>
</g>
<!-- Node25&#45;&gt;Node27 -->
<g id="edge26_Node000025_Node000027" class="edge">
<title>Node25&#45;&gt;Node27</title>
<g id="a_edge26_Node000025_Node000027"><a xlink:title=" ">
<path fill="none" stroke="#63b8ff" d="M133.5,-230.87C133.5,-224.11 133.5,-214.35 133.5,-205.26"/>
<polygon fill="#63b8ff" stroke="#63b8ff" points="137,-205.11 133.5,-195.11 130,-205.11 137,-205.11"/>
</a>
</g>
</g>
<!-- Node28 -->
<g id="Node000028" class="node">
<title>Node28</title>
<g id="a_Node000028"><a xlink:href="obj__loader_8h.html" target="_top" xlink:title=" ">
<polygon fill="white" stroke="#666666" points="266.5,-129 190.5,-129 190.5,-110 266.5,-110 266.5,-129"/>
<text text-anchor="middle" x="228.5" y="-117" font-family="Helvetica,sans-Serif" font-size="10.00">obj_loader.h</text>
</a>
</g>
</g>
<!-- Node27&#45;&gt;Node28 -->
<g id="edge27_Node000027_Node000028" class="edge">
<title>Node27&#45;&gt;Node28</title>
<g id="a_edge27_Node000027_Node000028"><a xlink:title=" ">
<path fill="none" stroke="#63b8ff" d="M156.5,-164.84C171.5,-155.6 191,-143.59 205.93,-134.4"/>
<polygon fill="#63b8ff" stroke="#63b8ff" points="207.86,-137.32 214.54,-129.09 204.19,-131.36 207.86,-137.32"/>
</a>
</g>
</g>
<!-- Node29 -->
<g id="Node000029" class="node">
<title>Node29</title>
<g id="a_Node000029"><a xlink:href="mtl__loader_8h.html" target="_top" xlink:title=" ">
<polygon fill="white" stroke="#666666" points="77,-129 0,-129 0,-110 77,-110 77,-129"/>
<text text-anchor="middle" x="38.5" y="-117" font-family="Helvetica,sans-Serif" font-size="10.00">mtl_loader.h</text>
</a>
</g>
</g>
<!-- Node27&#45;&gt;Node29 -->
<g id="edge28_Node000027_Node000029" class="edge">
<title>Node27&#45;&gt;Node29</title>
<g id="a_edge28_Node000027_Node000029"><a xlink:title=" ">
<path fill="none" stroke="#63b8ff" d="M110.5,-164.84C95.5,-155.6 76,-143.59 61.07,-134.4"/>
<polygon fill="#63b8ff" stroke="#63b8ff" points="62.81,-131.36 52.46,-129.09 59.14,-137.32 62.81,-131.36"/>
</a>
</g>
</g>
<!-- Node30 -->
<g id="Node000030" class="node">
<title>Node30</title>
<g id="a_Node000030"><a xlink:href="fbx__loader_8h.html" target="_top" xlink:title=" ">
<polygon fill="white" stroke="#666666" points="172,-129 95,-129 95,-110 172,-110 172,-129"/>
<text text-anchor="middle" x="133.5" y="-117" font-family="Helvetica,sans-Serif" font-size="10.00">fbx_loader.h</text>
</a>
</g>
</g>
<!-- Node27&#45;&gt;Node30 -->
<g id="edge29_Node000027_Node000030" class="edge">
<title>Node27&#45;&gt;Node30</title>
<g id="a_edge29_Node000027_Node000030"><a xlink:title=" ">
<path fill="none" stroke="#63b8ff" d="M133.5,-164.84C133.5,-157.21 133.5,-147.7 133.5,-139.45"/>
<polygon fill="#63b8ff" stroke="#63b8ff" points="137,-139.27 133.5,-129.27 130,-139.27 137,-139.27"/>
</a>
</g>
</g>
<!-- Node32 -->
<g id="Node000032" class="node">
<title>Node32</title>
<g id="a_Node000032"><a xlink:href="input_8h.html" target="_top" xlink:title=" ">
<polygon fill="white" stroke="#666666" points="326,-250 255,-250 255,-231 326,-231 326,-250"/>
<text text-anchor="middle" x="290.5" y="-238" font-family="Helvetica,sans-Serif" font-size="10.00">../io/input.h</text>
</a>
</g>
</g>
<!-- Node31&#45;&gt;Node32 -->
<g id="edge31_Node000031_Node000032" class="edge">
<title>Node31&#45;&gt;Node32</title>
<g id="a_edge31_Node000031_Node000032"><a xlink:title=" ">
<path fill="none" stroke="#63b8ff" d="M202.37,-285.98C219.11,-277.54 245,-264.47 264.39,-254.68"/>
<polygon fill="#63b8ff" stroke="#63b8ff" points="265.97,-257.8 273.32,-250.17 262.82,-251.55 265.97,-257.8"/>
</a>
</g>
</g>
<!-- Node33&#45;&gt;Node26 -->
<g id="edge33_Node000033_Node000026" class="edge">
<title>Node33&#45;&gt;Node26</title>
<g id="a_edge33_Node000033_Node000026"><a xlink:title=" ">
<path fill="none" stroke="#63b8ff" d="M453.14,-340.73C462.81,-332.67 475.85,-319.74 481.5,-305 493.74,-273.08 486.1,-253.66 460.5,-231 410.79,-186.98 378.97,-214.51 315.5,-195 313.37,-194.35 311.19,-193.64 308.99,-192.9"/>
<polygon fill="#63b8ff" stroke="#63b8ff" points="310.06,-189.57 299.46,-189.56 307.74,-196.17 310.06,-189.57"/>
</a>
</g>
</g>
<!-- Node33&#45;&gt;Node31 -->
<g id="edge44_Node000033_Node000031" class="edge">
<title>Node33&#45;&gt;Node31</title>
<g id="a_edge44_Node000033_Node000031"><a xlink:title=" ">
<path fill="none" stroke="#63b8ff" d="M400.37,-340.98C355.9,-331.78 284.95,-317.09 236.85,-307.13"/>
<polygon fill="#63b8ff" stroke="#63b8ff" points="237.46,-303.68 226.95,-305.08 236.04,-310.54 237.46,-303.68"/>
</a>
</g>
</g>
<!-- Node33&#45;&gt;Node34 -->
<g id="edge34_Node000033_Node000034" class="edge">
<title>Node33&#45;&gt;Node34</title>
<g id="a_edge34_Node000033_Node000034"><a xlink:title=" ">
<path fill="none" stroke="#63b8ff" d="M470.1,-340.98C500.11,-332.05 547.48,-317.94 580.82,-308.02"/>
<polygon fill="#63b8ff" stroke="#63b8ff" points="582.09,-311.29 590.68,-305.08 580.09,-304.58 582.09,-311.29"/>
</a>
</g>
</g>
<!-- Node35 -->
<g id="Node000035" class="node">
<title>Node35</title>
<g id="a_Node000035"><a xlink:href="bodies_8h.html" target="_top" xlink:title=" ">
<polygon fill="white" stroke="#666666" points="352,-305 245,-305 245,-286 352,-286 352,-305"/>
<text text-anchor="middle" x="298.5" y="-293" font-family="Helvetica,sans-Serif" font-size="10.00">../physics/bodies.h</text>
</a>
</g>
</g>
<!-- Node33&#45;&gt;Node35 -->
<g id="edge38_Node000033_Node000035" class="edge">
<title>Node33&#45;&gt;Node35</title>
<g id="a_edge38_Node000033_Node000035"><a xlink:title=" ">
<path fill="none" stroke="#63b8ff" d="M418.52,-340.98C395,-332.27 358.21,-318.63 331.56,-308.75"/>
<polygon fill="#63b8ff" stroke="#63b8ff" points="332.49,-305.36 321.89,-305.17 330.05,-311.93 332.49,-305.36"/>
</a>
</g>
</g>
<!-- Node36 -->
<g id="Node000036" class="node">
<title>Node36</title>
<g id="a_Node000036"><a xlink:href="scripts_8h.html" target="_top" xlink:title=" ">
<polygon fill="white" stroke="#666666" points="472.5,-305 370.5,-305 370.5,-286 472.5,-286 472.5,-305"/>
<text text-anchor="middle" x="421.5" y="-293" font-family="Helvetica,sans-Serif" font-size="10.00">../scripts/scripts.h</text>
</a>
</g>
</g>
<!-- Node33&#45;&gt;Node36 -->
<g id="edge41_Node000033_Node000036" class="edge">
<title>Node33&#45;&gt;Node36</title>
<g id="a_edge41_Node000033_Node000036"><a xlink:title=" ">
<path fill="none" stroke="#63b8ff" d="M438.2,-340.75C435.52,-333.65 431.65,-323.4 428.31,-314.56"/>
<polygon fill="#63b8ff" stroke="#63b8ff" points="431.55,-313.21 424.74,-305.09 425,-315.68 431.55,-313.21"/>
</a>
</g>
</g>
<!-- Node34&#45;&gt;Node2 -->
<g id="edge35_Node000034_Node000002" class="edge">
<title>Node34&#45;&gt;Node2</title>
<g id="a_edge35_Node000034_Node000002"><a xlink:title=" ">
<path fill="none" stroke="#63b8ff" d="M672.52,-287.72C677.25,-287.13 681.96,-286.55 686.5,-286 807.06,-271.42 948.88,-255.4 1022.83,-247.13"/>
<polygon fill="#63b8ff" stroke="#63b8ff" points="1023.26,-250.61 1032.81,-246.02 1022.48,-243.65 1023.26,-250.61"/>
</a>
</g>
</g>
<!-- Node34&#45;&gt;Node24 -->
<g id="edge36_Node000034_Node000024" class="edge">
<title>Node34&#45;&gt;Node24</title>
<g id="a_edge36_Node000034_Node000024"><a xlink:title=" ">
<path fill="none" stroke="#63b8ff" d="M611.9,-285.75C605.34,-278.18 595.68,-267.05 587.69,-257.84"/>
<polygon fill="#63b8ff" stroke="#63b8ff" points="590.15,-255.35 580.95,-250.09 584.87,-259.94 590.15,-255.35"/>
</a>
</g>
</g>
<!-- Node34&#45;&gt;Node26 -->
<g id="edge37_Node000034_Node000026" class="edge">
<title>Node34&#45;&gt;Node26</title>
<g id="a_edge37_Node000034_Node000026"><a xlink:title=" ">
<path fill="none" stroke="#63b8ff" d="M626.31,-285.99C636.11,-272.64 651.56,-246.72 637.5,-231 589.5,-177.33 385.57,-211.57 315.5,-195 312.99,-194.41 310.41,-193.69 307.84,-192.91"/>
<polygon fill="#63b8ff" stroke="#63b8ff" points="308.72,-189.51 298.13,-189.63 306.48,-196.14 308.72,-189.51"/>
</a>
</g>
</g>
<!-- Node35&#45;&gt;Node24 -->
<g id="edge39_Node000035_Node000024" class="edge">
<title>Node35&#45;&gt;Node24</title>
<g id="a_edge39_Node000035_Node000024"><a xlink:title=" ">
<path fill="none" stroke="#63b8ff" d="M342.68,-285.98C390.65,-276.74 467.31,-261.97 518.98,-252.01"/>
<polygon fill="#63b8ff" stroke="#63b8ff" points="519.81,-255.41 528.97,-250.08 518.49,-248.54 519.81,-255.41"/>
</a>
</g>
</g>
<!-- Node35&#45;&gt;Node25 -->
<g id="edge40_Node000035_Node000025" class="edge">
<title>Node35&#45;&gt;Node25</title>
<g id="a_edge40_Node000035_Node000025"><a xlink:title=" ">
<path fill="none" stroke="#63b8ff" d="M271.99,-285.98C244.29,-277.09 200.64,-263.07 169.76,-253.15"/>
<polygon fill="#63b8ff" stroke="#63b8ff" points="170.81,-249.81 160.22,-250.08 168.67,-256.47 170.81,-249.81"/>
</a>
</g>
</g>
<!-- Node36&#45;&gt;Node32 -->
<g id="edge42_Node000036_Node000032" class="edge">
<title>Node36&#45;&gt;Node32</title>
<g id="a_edge42_Node000036_Node000032"><a xlink:title=" ">
<path fill="none" stroke="#63b8ff" d="M400.45,-285.98C379.09,-277.34 345.8,-263.87 321.44,-254.02"/>
<polygon fill="#63b8ff" stroke="#63b8ff" points="322.51,-250.68 311.93,-250.17 319.89,-257.17 322.51,-250.68"/>
</a>
</g>
</g>
<!-- Node37 -->
<g id="Node000037" class="node">
<title>Node37</title>
<g id="a_Node000037"><a xlink:href="signals_8h.html" target="_top" xlink:title="Signal and slot system for C projects.">
<polygon fill="white" stroke="#666666" points="451.5,-250 391.5,-250 391.5,-231 451.5,-231 451.5,-250"/>
<text text-anchor="middle" x="421.5" y="-238" font-family="Helvetica,sans-Serif" font-size="10.00">signals.h</text>
</a>
</g>
</g>
<!-- Node36&#45;&gt;Node37 -->
<g id="edge43_Node000036_Node000037" class="edge">
<title>Node36&#45;&gt;Node37</title>
<g id="a_edge43_Node000036_Node000037"><a xlink:title=" ">
<path fill="none" stroke="#63b8ff" d="M421.5,-285.75C421.5,-278.8 421.5,-268.85 421.5,-260.13"/>
<polygon fill="#63b8ff" stroke="#63b8ff" points="425,-260.09 421.5,-250.09 418,-260.09 425,-260.09"/>
</a>
</g>
</g>
<!-- Node38&#45;&gt;Node25 -->
<g id="edge46_Node000038_Node000025" class="edge">
<title>Node38&#45;&gt;Node25</title>
<g id="a_edge46_Node000038_Node000025"><a xlink:title=" ">
<path fill="none" stroke="#63b8ff" d="M169.84,-340.85C157.72,-333.18 141.82,-320.77 134.5,-305 128.04,-291.08 128.31,-273.52 129.9,-260.39"/>
<polygon fill="#63b8ff" stroke="#63b8ff" points="133.41,-260.63 131.5,-250.21 126.49,-259.54 133.41,-260.63"/>
</a>
</g>
</g>
<!-- Node38&#45;&gt;Node31 -->
<g id="edge47_Node000038_Node000031" class="edge">
<title>Node38&#45;&gt;Node31</title>
<g id="a_edge47_Node000038_Node000031"><a xlink:title=" ">
<path fill="none" stroke="#63b8ff" d="M185.5,-340.75C185.5,-333.8 185.5,-323.85 185.5,-315.13"/>
<polygon fill="#63b8ff" stroke="#63b8ff" points="189,-315.09 185.5,-305.09 182,-315.09 189,-315.09"/>
</a>
</g>
</g>
<!-- Node44&#45;&gt;Node2 -->
<g id="edge57_Node000044_Node000002" class="edge">
<title>Node44&#45;&gt;Node2</title>
<g id="a_edge57_Node000044_Node000002"><a xlink:title=" ">
<path fill="none" stroke="#63b8ff" d="M1150.69,-340.97C1137.77,-332.96 1119.17,-319.99 1106.5,-305 1094.98,-291.38 1086,-273.05 1080.34,-259.59"/>
<polygon fill="#63b8ff" stroke="#63b8ff" points="1083.47,-258.01 1076.52,-250.02 1076.97,-260.61 1083.47,-258.01"/>
</a>
</g>
</g>
<!-- Node45 -->
<g id="Node000045" class="node">
<title>Node45</title>
<g id="a_Node000045"><a xlink:href="classes__types_8h.html" target="_top" xlink:title=" ">
<polygon fill="white" stroke="#666666" points="1209.5,-305 1115.5,-305 1115.5,-286 1209.5,-286 1209.5,-305"/>
<text text-anchor="middle" x="1162.5" y="-293" font-family="Helvetica,sans-Serif" font-size="10.00">classes_types.h</text>
</a>
</g>
</g>
<!-- Node44&#45;&gt;Node45 -->
<g id="edge55_Node000044_Node000045" class="edge">
<title>Node44&#45;&gt;Node45</title>
<g id="a_edge55_Node000044_Node000045"><a xlink:title=" ">
<path fill="none" stroke="#63b8ff" d="M1165,-340.75C1164.61,-333.8 1164.05,-323.85 1163.55,-315.13"/>
<polygon fill="#63b8ff" stroke="#63b8ff" points="1167.05,-314.88 1162.99,-305.09 1160.06,-315.27 1167.05,-314.88"/>
</a>
</g>
</g>
<!-- Node46 -->
<g id="Node000046" class="node">
<title>Node46</title>
<g id="a_Node000046"><a xlink:title=" ">
<polygon fill="#e0e0e0" stroke="#999999" points="1327,-305 1228,-305 1228,-286 1327,-286 1327,-305"/>
<text text-anchor="middle" x="1277.5" y="-293" font-family="Helvetica,sans-Serif" font-size="10.00">import_classes.h</text>
</a>
</g>
</g>
<!-- Node44&#45;&gt;Node46 -->
<g id="edge56_Node000044_Node000046" class="edge">
<title>Node44&#45;&gt;Node46</title>
<g id="a_edge56_Node000044_Node000046"><a xlink:title=" ">
<path fill="none" stroke="#63b8ff" d="M1183.49,-340.98C1201.43,-332.5 1229.22,-319.35 1249.93,-309.54"/>
<polygon fill="#63b8ff" stroke="#63b8ff" points="1251.64,-312.61 1259.18,-305.17 1248.64,-306.28 1251.64,-312.61"/>
</a>
</g>
</g>
</g>
</svg>
