<?xml version="1.0" encoding="UTF-8" standalone="no"?>
<!DOCTYPE svg PUBLIC "-//W3C//DTD SVG 1.1//EN"
 "http://www.w3.org/Graphics/SVG/1.1/DTD/svg11.dtd">
<!-- Generated by graphviz version 2.43.0 (0)
 -->
<!-- Title: src/io/scene_loader.c Pages: 1 -->
<svg width="1882pt" height="423pt"
 viewBox="0.00 0.00 1881.50 423.00" xmlns="http://www.w3.org/2000/svg" xmlns:xlink="http://www.w3.org/1999/xlink">
<g id="graph0" class="graph" transform="scale(1 1) rotate(0) translate(4 419)">
<title>src/io/scene_loader.c</title>
<!-- Node1 -->
<g id="Node000001" class="node">
<title>Node1</title>
<g id="a_Node000001"><a xlink:title=" ">
<polygon fill="#999999" stroke="#666666" points="771.5,-415 653.5,-415 653.5,-396 771.5,-396 771.5,-415"/>
<text text-anchor="middle" x="712.5" y="-403" font-family="Helvetica,sans-Serif" font-size="10.00">src/io/scene_loader.c</text>
</a>
</g>
</g>
<!-- Node2 -->
<g id="Node000002" class="node">
<title>Node2</title>
<g id="a_Node000002"><a xlink:href="raptiquax_8h.html" target="_top" xlink:title="This file contains type definitions for fixed&#45;width integer types and floating&#45;point types.">
<polygon fill="white" stroke="#666666" points="1216,-250 1135,-250 1135,-231 1216,-231 1216,-250"/>
<text text-anchor="middle" x="1175.5" y="-238" font-family="Helvetica,sans-Serif" font-size="10.00">../raptiquax.h</text>
</a>
</g>
</g>
<!-- Node1&#45;&gt;Node2 -->
<g id="edge1_Node000001_Node000002" class="edge">
<title>Node1&#45;&gt;Node2</title>
<g id="a_edge1_Node000001_Node000002"><a xlink:title=" ">
<path fill="none" stroke="#63b8ff" d="M771.54,-399.41C842.61,-392.57 957.19,-379.02 995.5,-360 1038.01,-338.9 1032.97,-312.28 1072.5,-286 1093.13,-272.28 1118.69,-261.21 1139.18,-253.54"/>
<polygon fill="#63b8ff" stroke="#63b8ff" points="1140.59,-256.76 1148.79,-250.06 1138.2,-250.18 1140.59,-256.76"/>
</a>
</g>
</g>
<!-- Node24 -->
<g id="Node000024" class="node">
<title>Node24</title>
<g id="a_Node000024"><a xlink:href="math__util_8h.html" target="_top" xlink:title=" ">
<polygon fill="white" stroke="#666666" points="321.5,-250 211.5,-250 211.5,-231 321.5,-231 321.5,-250"/>
<text text-anchor="middle" x="266.5" y="-238" font-family="Helvetica,sans-Serif" font-size="10.00">../math/math_util.h</text>
</a>
</g>
</g>
<!-- Node1&#45;&gt;Node24 -->
<g id="edge23_Node000001_Node000024" class="edge">
<title>Node1&#45;&gt;Node24</title>
<g id="a_edge23_Node000001_Node000024"><a xlink:title=" ">
<path fill="none" stroke="#63b8ff" d="M653.39,-401.98C588.76,-397.9 482.74,-387.31 395.5,-360 343.72,-343.79 321.64,-346.35 286.5,-305 275.86,-292.48 270.87,-274.28 268.53,-260.57"/>
<polygon fill="#63b8ff" stroke="#63b8ff" points="271.96,-259.76 267.13,-250.33 265.02,-260.71 271.96,-259.76"/>
</a>
</g>
</g>
<!-- Node25 -->
<g id="Node000025" class="node">
<title>Node25</title>
<g id="a_Node000025"><a xlink:href="model_8h.html" target="_top" xlink:title="Defines structures and functions for handling 3D models and their properties.">
<polygon fill="white" stroke="#666666" points="161.5,-250 105.5,-250 105.5,-231 161.5,-231 161.5,-250"/>
<text text-anchor="middle" x="133.5" y="-238" font-family="Helvetica,sans-Serif" font-size="10.00">model.h</text>
</a>
</g>
</g>
<!-- Node1&#45;&gt;Node25 -->
<g id="edge24_Node000001_Node000025" class="edge">
<title>Node1&#45;&gt;Node25</title>
<g id="a_edge24_Node000001_Node000025"><a xlink:title=" ">
<path fill="none" stroke="#63b8ff" d="M653.47,-402.54C518.85,-397.67 197.37,-383.7 154.5,-360 127.82,-345.25 123.1,-333.94 113.5,-305 108.34,-289.44 115.04,-271.63 122.04,-258.84"/>
<polygon fill="#63b8ff" stroke="#63b8ff" points="125.1,-260.53 127.26,-250.15 119.1,-256.92 125.1,-260.53"/>
</a>
</g>
</g>
<!-- Node26 -->
<g id="Node000026" class="node">
<title>Node26</title>
<g id="a_Node000026"><a xlink:href="shader_8h.html" target="_top" xlink:title=" ">
<polygon fill="white" stroke="#666666" points="378.5,-189.5 320.5,-189.5 320.5,-170.5 378.5,-170.5 378.5,-189.5"/>
<text text-anchor="middle" x="349.5" y="-177.5" font-family="Helvetica,sans-Serif" font-size="10.00">shader.h</text>
</a>
</g>
</g>
<!-- Node1&#45;&gt;Node26 -->
<g id="edge51_Node000001_Node000026" class="edge">
<title>Node1&#45;&gt;Node26</title>
<g id="a_edge51_Node000001_Node000026"><a xlink:title=" ">
<path fill="none" stroke="#63b8ff" d="M719.13,-395.88C725.26,-387.32 733.96,-373.54 737.5,-360 739.64,-351.83 738.03,-349.43 737.5,-341 734.07,-286.84 732.19,-256.9 684.5,-231 567.65,-167.55 516.76,-226.19 387.5,-195 384.99,-194.39 382.41,-193.67 379.85,-192.88"/>
<polygon fill="#63b8ff" stroke="#63b8ff" points="380.73,-189.49 370.14,-189.59 378.48,-196.12 380.73,-189.49"/>
</a>
</g>
</g>
<!-- Node31 -->
<g id="Node000031" class="node">
<title>Node31</title>
<g id="a_Node000031"><a xlink:href="framebuffer_8h.html" target="_top" xlink:title=" ">
<polygon fill="white" stroke="#666666" points="703.5,-305 577.5,-305 577.5,-286 703.5,-286 703.5,-305"/>
<text text-anchor="middle" x="640.5" y="-293" font-family="Helvetica,sans-Serif" font-size="10.00">../render/framebuffer.h</text>
</a>
</g>
</g>
<!-- Node1&#45;&gt;Node31 -->
<g id="edge30_Node000001_Node000031" class="edge">
<title>Node1&#45;&gt;Node31</title>
<g id="a_edge30_Node000001_Node000031"><a xlink:title=" ">
<path fill="none" stroke="#63b8ff" d="M707.64,-395.68C700.69,-383.23 687.33,-359.93 674.5,-341 668.09,-331.54 660.4,-321.39 653.96,-313.18"/>
<polygon fill="#63b8ff" stroke="#63b8ff" points="656.54,-310.8 647.57,-305.15 651.06,-315.15 656.54,-310.8"/>
</a>
</g>
</g>
<!-- Node32 -->
<g id="Node000032" class="node">
<title>Node32</title>
<g id="a_Node000032"><a xlink:href="input_8h.html" target="_top" xlink:title=" ">
<polygon fill="white" stroke="#666666" points="676,-250 605,-250 605,-231 676,-231 676,-250"/>
<text text-anchor="middle" x="640.5" y="-238" font-family="Helvetica,sans-Serif" font-size="10.00">../io/input.h</text>
</a>
</g>
</g>
<!-- Node1&#45;&gt;Node32 -->
<g id="edge49_Node000001_Node000032" class="edge">
<title>Node1&#45;&gt;Node32</title>
<g id="a_edge49_Node000001_Node000032"><a xlink:title=" ">
<path fill="none" stroke="#63b8ff" d="M715.2,-395.75C721.04,-375.09 732.74,-322.3 712.5,-286 704.46,-271.58 689.6,-261.24 675.46,-254.18"/>
<polygon fill="#63b8ff" stroke="#63b8ff" points="676.9,-250.99 666.35,-250.01 673.99,-257.36 676.9,-250.99"/>
</a>
</g>
</g>
<!-- Node33 -->
<g id="Node000033" class="node">
<title>Node33</title>
<g id="a_Node000033"><a xlink:href="lighting_8h.html" target="_top" xlink:title=" ">
<polygon fill="white" stroke="#666666" points="665.5,-360 559.5,-360 559.5,-341 665.5,-341 665.5,-360"/>
<text text-anchor="middle" x="612.5" y="-348" font-family="Helvetica,sans-Serif" font-size="10.00">../render/lighting.h</text>
</a>
</g>
</g>
<!-- Node1&#45;&gt;Node33 -->
<g id="edge32_Node000001_Node000033" class="edge">
<title>Node1&#45;&gt;Node33</title>
<g id="a_edge32_Node000001_Node000033"><a xlink:title=" ">
<path fill="none" stroke="#63b8ff" d="M696.43,-395.98C680.64,-387.61 656.28,-374.7 637.87,-364.95"/>
<polygon fill="#63b8ff" stroke="#63b8ff" points="639.33,-361.76 628.86,-360.17 636.06,-367.95 639.33,-361.76"/>
</a>
</g>
</g>
<!-- Node34 -->
<g id="Node000034" class="node">
<title>Node34</title>
<g id="a_Node000034"><a xlink:href="bodies_8h.html" target="_top" xlink:title=" ">
<polygon fill="white" stroke="#666666" points="239,-305 132,-305 132,-286 239,-286 239,-305"/>
<text text-anchor="middle" x="185.5" y="-293" font-family="Helvetica,sans-Serif" font-size="10.00">../physics/bodies.h</text>
</a>
</g>
</g>
<!-- Node1&#45;&gt;Node34 -->
<g id="edge33_Node000001_Node000034" class="edge">
<title>Node1&#45;&gt;Node34</title>
<g id="a_edge33_Node000001_Node000034"><a xlink:title=" ">
<path fill="none" stroke="#63b8ff" d="M653.39,-404.13C518.33,-402.66 196.2,-395.46 163.5,-360 151.69,-347.2 161.14,-327.73 171.07,-313.73"/>
<polygon fill="#63b8ff" stroke="#63b8ff" points="174.12,-315.5 177.44,-305.44 168.57,-311.23 174.12,-315.5"/>
</a>
</g>
</g>
<!-- Node35 -->
<g id="Node000035" class="node">
<title>Node35</title>
<g id="a_Node000035"><a xlink:href="node_8h.html" target="_top" xlink:title=" ">
<polygon fill="white" stroke="#666666" points="538.5,-360 440.5,-360 440.5,-341 538.5,-341 538.5,-360"/>
<text text-anchor="middle" x="489.5" y="-348" font-family="Helvetica,sans-Serif" font-size="10.00">../storage/node.h</text>
</a>
</g>
</g>
<!-- Node1&#45;&gt;Node35 -->
<g id="edge36_Node000001_Node000035" class="edge">
<title>Node1&#45;&gt;Node35</title>
<g id="a_edge36_Node000001_Node000035"><a xlink:title=" ">
<path fill="none" stroke="#63b8ff" d="M676.67,-395.98C638.34,-386.87 577.42,-372.4 535.55,-362.45"/>
<polygon fill="#63b8ff" stroke="#63b8ff" points="536.15,-358.99 525.61,-360.08 534.53,-365.8 536.15,-358.99"/>
</a>
</g>
</g>
<!-- Node36 -->
<g id="Node000036" class="node">
<title>Node36</title>
<g id="a_Node000036"><a xlink:href="camera_8h.html" target="_top" xlink:title=" ">
<polygon fill="white" stroke="#666666" points="401.5,-305 295.5,-305 295.5,-286 401.5,-286 401.5,-305"/>
<text text-anchor="middle" x="348.5" y="-293" font-family="Helvetica,sans-Serif" font-size="10.00">../render/camera.h</text>
</a>
</g>
</g>
<!-- Node1&#45;&gt;Node36 -->
<g id="edge50_Node000001_Node000036" class="edge">
<title>Node1&#45;&gt;Node36</title>
<g id="a_edge50_Node000001_Node000036"><a xlink:title=" ">
<path fill="none" stroke="#63b8ff" d="M653.41,-403.52C594.88,-400.65 503.79,-391 431.5,-360 405.09,-348.68 379.59,-327.06 363.98,-312.22"/>
<polygon fill="#63b8ff" stroke="#63b8ff" points="366.36,-309.65 356.77,-305.16 361.47,-314.66 366.36,-309.65"/>
</a>
</g>
</g>
<!-- Node39 -->
<g id="Node000039" class="node">
<title>Node39</title>
<g id="a_Node000039"><a xlink:href="render_8h.html" target="_top" xlink:title=" ">
<polygon fill="white" stroke="#666666" points="897.5,-360 797.5,-360 797.5,-341 897.5,-341 897.5,-360"/>
<text text-anchor="middle" x="847.5" y="-348" font-family="Helvetica,sans-Serif" font-size="10.00">../render/render.h</text>
</a>
</g>
</g>
<!-- Node1&#45;&gt;Node39 -->
<g id="edge47_Node000001_Node000039" class="edge">
<title>Node1&#45;&gt;Node39</title>
<g id="a_edge47_Node000001_Node000039"><a xlink:title=" ">
<path fill="none" stroke="#63b8ff" d="M734.19,-395.98C756.3,-387.3 790.82,-373.75 815.95,-363.88"/>
<polygon fill="#63b8ff" stroke="#63b8ff" points="817.39,-367.08 825.42,-360.17 814.83,-360.57 817.39,-367.08"/>
</a>
</g>
</g>
<!-- Node40 -->
<g id="Node000040" class="node">
<title>Node40</title>
<g id="a_Node000040"><a xlink:href="window_8h.html" target="_top" xlink:title=" ">
<polygon fill="white" stroke="#666666" points="987,-360 916,-360 916,-341 987,-341 987,-360"/>
<text text-anchor="middle" x="951.5" y="-348" font-family="Helvetica,sans-Serif" font-size="10.00">../window.h</text>
</a>
</g>
</g>
<!-- Node1&#45;&gt;Node40 -->
<g id="edge48_Node000001_Node000040" class="edge">
<title>Node1&#45;&gt;Node40</title>
<g id="a_edge48_Node000001_Node000040"><a xlink:title=" ">
<path fill="none" stroke="#63b8ff" d="M750.9,-395.98C793.22,-386.6 861.24,-371.52 906.15,-361.56"/>
<polygon fill="#63b8ff" stroke="#63b8ff" points="906.92,-364.97 915.93,-359.39 905.41,-358.14 906.92,-364.97"/>
</a>
</g>
</g>
<!-- Node41 -->
<g id="Node000041" class="node">
<title>Node41</title>
<g id="a_Node000041"><a xlink:href="depth__map_8h.html" target="_top" xlink:title=" ">
<polygon fill="white" stroke="#666666" points="296.5,-360 172.5,-360 172.5,-341 296.5,-341 296.5,-360"/>
<text text-anchor="middle" x="234.5" y="-348" font-family="Helvetica,sans-Serif" font-size="10.00">../render/depth_map.h</text>
</a>
</g>
</g>
<!-- Node1&#45;&gt;Node41 -->
<g id="edge52_Node000001_Node000041" class="edge">
<title>Node1&#45;&gt;Node41</title>
<g id="a_edge52_Node000001_Node000041"><a xlink:title=" ">
<path fill="none" stroke="#63b8ff" d="M653.24,-397.96C574.82,-389.3 432.28,-373.55 310.5,-360 309.24,-359.86 307.96,-359.72 306.68,-359.57"/>
<polygon fill="#63b8ff" stroke="#63b8ff" points="307.04,-356.09 296.71,-358.46 306.26,-363.05 307.04,-356.09"/>
</a>
</g>
</g>
<!-- Node42 -->
<g id="Node000042" class="node">
<title>Node42</title>
<g id="a_Node000042"><a xlink:href="node__loader_8h.html" target="_top" xlink:title=" ">
<polygon fill="white" stroke="#666666" points="1129,-360 1044,-360 1044,-341 1129,-341 1129,-360"/>
<text text-anchor="middle" x="1086.5" y="-348" font-family="Helvetica,sans-Serif" font-size="10.00">node_loader.h</text>
</a>
</g>
</g>
<!-- Node1&#45;&gt;Node42 -->
<g id="edge55_Node000001_Node000042" class="edge">
<title>Node1&#45;&gt;Node42</title>
<g id="a_edge55_Node000001_Node000042"><a xlink:title=" ">
<path fill="none" stroke="#63b8ff" d="M771.53,-396.37C835.21,-387.56 939.57,-373.02 1029.5,-360 1030.95,-359.79 1032.43,-359.58 1033.92,-359.36"/>
<polygon fill="#63b8ff" stroke="#63b8ff" points="1034.48,-362.81 1043.86,-357.9 1033.46,-355.89 1034.48,-362.81"/>
</a>
</g>
</g>
<!-- Node43 -->
<g id="Node000043" class="node">
<title>Node43</title>
<g id="a_Node000043"><a xlink:href="buffer_8h.html" target="_top" xlink:title="Functions for initializing and freeing Game.buffers&#45;&gt;">
<polygon fill="white" stroke="#666666" points="1209.5,-360 1147.5,-360 1147.5,-341 1209.5,-341 1209.5,-360"/>
<text text-anchor="middle" x="1178.5" y="-348" font-family="Helvetica,sans-Serif" font-size="10.00">../buffer.h</text>
</a>
</g>
</g>
<!-- Node1&#45;&gt;Node43 -->
<g id="edge56_Node000001_Node000043" class="edge">
<title>Node1&#45;&gt;Node43</title>
<g id="a_edge56_Node000001_Node000043"><a xlink:title=" ">
<path fill="none" stroke="#63b8ff" d="M771.68,-400.3C852.17,-394.14 1000.83,-381.22 1136.92,-360.1"/>
<polygon fill="#63b8ff" stroke="#63b8ff" points="1137.78,-363.51 1147.12,-358.5 1136.69,-356.59 1137.78,-363.51"/>
</a>
</g>
</g>
<!-- Node44 -->
<g id="Node000044" class="node">
<title>Node44</title>
<g id="a_Node000044"><a xlink:href="classes_8h.html" target="_top" xlink:title=" ">
<polygon fill="white" stroke="#666666" points="1337.5,-360 1227.5,-360 1227.5,-341 1337.5,-341 1337.5,-360"/>
<text text-anchor="middle" x="1282.5" y="-348" font-family="Helvetica,sans-Serif" font-size="10.00">../classes/classes.h</text>
</a>
</g>
</g>
<!-- Node1&#45;&gt;Node44 -->
<g id="edge57_Node000001_Node000044" class="edge">
<title>Node1&#45;&gt;Node44</title>
<g id="a_edge57_Node000001_Node000044"><a xlink:title=" ">
<path fill="none" stroke="#63b8ff" d="M771.79,-400.14C864.53,-393.14 1049.8,-378.38 1217.37,-360.08"/>
<polygon fill="#63b8ff" stroke="#63b8ff" points="1217.8,-363.55 1227.36,-358.98 1217.04,-356.59 1217.8,-363.55"/>
</a>
</g>
</g>
<!-- Node3 -->
<g id="Node000003" class="node">
<title>Node3</title>
<g id="a_Node000003"><a xlink:title=" ">
<polygon fill="#e0e0e0" stroke="#999999" points="1647.5,-189.5 1597.5,-189.5 1597.5,-170.5 1647.5,-170.5 1647.5,-189.5"/>
<text text-anchor="middle" x="1622.5" y="-177.5" font-family="Helvetica,sans-Serif" font-size="10.00">stdio.h</text>
</a>
</g>
</g>
<!-- Node2&#45;&gt;Node3 -->
<g id="edge2_Node000002_Node000003" class="edge">
<title>Node2&#45;&gt;Node3</title>
<g id="a_edge2_Node000002_Node000003"><a xlink:title=" ">
<path fill="none" stroke="#63b8ff" d="M1216.04,-238.91C1290.81,-237.01 1455,-228.94 1588.5,-195 1590.66,-194.45 1592.87,-193.79 1595.06,-193.06"/>
<polygon fill="#63b8ff" stroke="#63b8ff" points="1596.34,-196.32 1604.47,-189.53 1593.88,-189.77 1596.34,-196.32"/>
</a>
</g>
</g>
<!-- Node4 -->
<g id="Node000004" class="node">
<title>Node4</title>
<g id="a_Node000004"><a xlink:title=" ">
<polygon fill="#e0e0e0" stroke="#999999" points="1719,-189.5 1666,-189.5 1666,-170.5 1719,-170.5 1719,-189.5"/>
<text text-anchor="middle" x="1692.5" y="-177.5" font-family="Helvetica,sans-Serif" font-size="10.00">stdint.h</text>
</a>
</g>
</g>
<!-- Node2&#45;&gt;Node4 -->
<g id="edge3_Node000002_Node000004" class="edge">
<title>Node2&#45;&gt;Node4</title>
<g id="a_edge3_Node000002_Node000004"><a xlink:title=" ">
<path fill="none" stroke="#63b8ff" d="M1216.02,-239.53C1299.55,-238.77 1496.52,-232.72 1656.5,-195 1658.87,-194.44 1661.29,-193.76 1663.7,-193"/>
<polygon fill="#63b8ff" stroke="#63b8ff" points="1665.13,-196.21 1673.38,-189.57 1662.79,-189.61 1665.13,-196.21"/>
</a>
</g>
</g>
<!-- Node5 -->
<g id="Node000005" class="node">
<title>Node5</title>
<g id="a_Node000005"><a xlink:title=" ">
<polygon fill="#e0e0e0" stroke="#999999" points="1799.5,-189.5 1737.5,-189.5 1737.5,-170.5 1799.5,-170.5 1799.5,-189.5"/>
<text text-anchor="middle" x="1768.5" y="-177.5" font-family="Helvetica,sans-Serif" font-size="10.00">stdbool.h</text>
</a>
</g>
</g>
<!-- Node2&#45;&gt;Node5 -->
<g id="edge4_Node000002_Node000005" class="edge">
<title>Node2&#45;&gt;Node5</title>
<g id="a_edge4_Node000002_Node000005"><a xlink:title=" ">
<path fill="none" stroke="#63b8ff" d="M1216.25,-239.77C1308.52,-239.6 1540.04,-234.87 1728.5,-195 1731.5,-194.37 1734.58,-193.57 1737.64,-192.67"/>
<polygon fill="#63b8ff" stroke="#63b8ff" points="1738.76,-195.99 1747.2,-189.59 1736.61,-189.33 1738.76,-195.99"/>
</a>
</g>
</g>
<!-- Node6 -->
<g id="Node000006" class="node">
<title>Node6</title>
<g id="a_Node000006"><a xlink:title=" ">
<polygon fill="#e0e0e0" stroke="#999999" points="1873.5,-189.5 1817.5,-189.5 1817.5,-170.5 1873.5,-170.5 1873.5,-189.5"/>
<text text-anchor="middle" x="1845.5" y="-177.5" font-family="Helvetica,sans-Serif" font-size="10.00">stdarg.h</text>
</a>
</g>
</g>
<!-- Node2&#45;&gt;Node6 -->
<g id="edge5_Node000002_Node000006" class="edge">
<title>Node2&#45;&gt;Node6</title>
<g id="a_edge5_Node000002_Node000006"><a xlink:title=" ">
<path fill="none" stroke="#63b8ff" d="M1216.35,-238.18C1337.72,-234.02 1694.84,-219.93 1808.5,-195 1811.18,-194.41 1813.91,-193.67 1816.63,-192.83"/>
<polygon fill="#63b8ff" stroke="#63b8ff" points="1817.94,-196.08 1826.24,-189.5 1815.64,-189.47 1817.94,-196.08"/>
</a>
</g>
</g>
<!-- Node7 -->
<g id="Node000007" class="node">
<title>Node7</title>
<g id="a_Node000007"><a xlink:title=" ">
<polygon fill="#e0e0e0" stroke="#999999" points="450,-189.5 397,-189.5 397,-170.5 450,-170.5 450,-189.5"/>
<text text-anchor="middle" x="423.5" y="-177.5" font-family="Helvetica,sans-Serif" font-size="10.00">limits.h</text>
</a>
</g>
</g>
<!-- Node2&#45;&gt;Node7 -->
<g id="edge6_Node000002_Node000007" class="edge">
<title>Node2&#45;&gt;Node7</title>
<g id="a_edge6_Node000002_Node000007"><a xlink:title=" ">
<path fill="none" stroke="#63b8ff" d="M1134.98,-238.62C1003.51,-235.52 589.81,-223.66 459.5,-195 456.98,-194.45 454.4,-193.74 451.84,-192.94"/>
<polygon fill="#63b8ff" stroke="#63b8ff" points="452.81,-189.57 442.22,-189.54 450.48,-196.17 452.81,-189.57"/>
</a>
</g>
</g>
<!-- Node8 -->
<g id="Node000008" class="node">
<title>Node8</title>
<g id="a_Node000008"><a xlink:title=" ">
<polygon fill="#e0e0e0" stroke="#999999" points="540.5,-189.5 468.5,-189.5 468.5,-170.5 540.5,-170.5 540.5,-189.5"/>
<text text-anchor="middle" x="504.5" y="-177.5" font-family="Helvetica,sans-Serif" font-size="10.00">SDL2/SDL.h</text>
</a>
</g>
</g>
<!-- Node2&#45;&gt;Node8 -->
<g id="edge7_Node000002_Node000008" class="edge">
<title>Node2&#45;&gt;Node8</title>
<g id="a_edge7_Node000002_Node000008"><a xlink:title=" ">
<path fill="none" stroke="#63b8ff" d="M1134.81,-239.83C1034.44,-239.96 767.39,-236.07 549.5,-195 545.83,-194.31 542.03,-193.42 538.27,-192.42"/>
<polygon fill="#63b8ff" stroke="#63b8ff" points="539.11,-189.02 528.53,-189.6 537.16,-195.74 539.11,-189.02"/>
</a>
</g>
</g>
<!-- Node9 -->
<g id="Node000009" class="node">
<title>Node9</title>
<g id="a_Node000009"><a xlink:title=" ">
<polygon fill="#e0e0e0" stroke="#999999" points="666.5,-189.5 558.5,-189.5 558.5,-170.5 666.5,-170.5 666.5,-189.5"/>
<text text-anchor="middle" x="612.5" y="-177.5" font-family="Helvetica,sans-Serif" font-size="10.00">SDL2/SDL_image.h</text>
</a>
</g>
</g>
<!-- Node2&#45;&gt;Node9 -->
<g id="edge8_Node000002_Node000009" class="edge">
<title>Node2&#45;&gt;Node9</title>
<g id="a_edge8_Node000002_Node000009"><a xlink:title=" ">
<path fill="none" stroke="#63b8ff" d="M1134.78,-237.67C1049.27,-233.44 844.94,-221.25 675.5,-195 669.54,-194.08 663.3,-192.92 657.17,-191.68"/>
<polygon fill="#63b8ff" stroke="#63b8ff" points="657.52,-188.17 647.01,-189.52 656.06,-195.02 657.52,-188.17"/>
</a>
</g>
</g>
<!-- Node10 -->
<g id="Node000010" class="node">
<title>Node10</title>
<g id="a_Node000010"><a xlink:title=" ">
<polygon fill="#e0e0e0" stroke="#999999" points="794.5,-189.5 684.5,-189.5 684.5,-170.5 794.5,-170.5 794.5,-189.5"/>
<text text-anchor="middle" x="739.5" y="-177.5" font-family="Helvetica,sans-Serif" font-size="10.00">SDL2/SDL_opengl.h</text>
</a>
</g>
</g>
<!-- Node2&#45;&gt;Node10 -->
<g id="edge9_Node000002_Node000010" class="edge">
<title>Node2&#45;&gt;Node10</title>
<g id="a_edge9_Node000002_Node000010"><a xlink:title=" ">
<path fill="none" stroke="#63b8ff" d="M1134.86,-235.93C1066.26,-229.62 923.28,-215.22 803.5,-195 797.68,-194.02 791.59,-192.86 785.58,-191.63"/>
<polygon fill="#63b8ff" stroke="#63b8ff" points="786.1,-188.17 775.6,-189.53 784.66,-195.02 786.1,-188.17"/>
</a>
</g>
</g>
<!-- Node11 -->
<g id="Node000011" class="node">
<title>Node11</title>
<g id="a_Node000011"><a xlink:title=" ">
<polygon fill="#e0e0e0" stroke="#999999" points="916.5,-189.5 812.5,-189.5 812.5,-170.5 916.5,-170.5 916.5,-189.5"/>
<text text-anchor="middle" x="864.5" y="-177.5" font-family="Helvetica,sans-Serif" font-size="10.00">SDL2/SDL_mixer.h</text>
</a>
</g>
</g>
<!-- Node2&#45;&gt;Node11 -->
<g id="edge10_Node000002_Node000011" class="edge">
<title>Node2&#45;&gt;Node11</title>
<g id="a_edge10_Node000002_Node000011"><a xlink:title=" ">
<path fill="none" stroke="#63b8ff" d="M1134.68,-232.87C1085.09,-224.67 998.94,-209.95 925.5,-195 920.5,-193.98 915.29,-192.87 910.11,-191.73"/>
<polygon fill="#63b8ff" stroke="#63b8ff" points="910.76,-188.29 900.24,-189.51 909.23,-195.12 910.76,-188.29"/>
</a>
</g>
</g>
<!-- Node12 -->
<g id="Node000012" class="node">
<title>Node12</title>
<g id="a_Node000012"><a xlink:title=" ">
<polygon fill="#e0e0e0" stroke="#999999" points="1022.5,-189.5 934.5,-189.5 934.5,-170.5 1022.5,-170.5 1022.5,-189.5"/>
<text text-anchor="middle" x="978.5" y="-177.5" font-family="Helvetica,sans-Serif" font-size="10.00">SDL2/SDL_ttf.h</text>
</a>
</g>
</g>
<!-- Node2&#45;&gt;Node12 -->
<g id="edge11_Node000002_Node000012" class="edge">
<title>Node2&#45;&gt;Node12</title>
<g id="a_edge11_Node000002_Node000012"><a xlink:title=" ">
<path fill="none" stroke="#63b8ff" d="M1146.85,-230.99C1112.57,-220.81 1055.02,-203.72 1016.9,-192.4"/>
<polygon fill="#63b8ff" stroke="#63b8ff" points="1017.76,-189.01 1007.18,-189.52 1015.77,-195.72 1017.76,-189.01"/>
</a>
</g>
</g>
<!-- Node13 -->
<g id="Node000013" class="node">
<title>Node13</title>
<g id="a_Node000013"><a xlink:title=" ">
<polygon fill="#e0e0e0" stroke="#999999" points="1090.5,-189.5 1040.5,-189.5 1040.5,-170.5 1090.5,-170.5 1090.5,-189.5"/>
<text text-anchor="middle" x="1065.5" y="-177.5" font-family="Helvetica,sans-Serif" font-size="10.00">GL/gl.h</text>
</a>
</g>
</g>
<!-- Node2&#45;&gt;Node13 -->
<g id="edge12_Node000002_Node000013" class="edge">
<title>Node2&#45;&gt;Node13</title>
<g id="a_edge12_Node000002_Node000013"><a xlink:title=" ">
<path fill="none" stroke="#63b8ff" d="M1159.27,-230.87C1141.23,-221.28 1111.88,-205.67 1090.82,-194.47"/>
<polygon fill="#63b8ff" stroke="#63b8ff" points="1092.27,-191.27 1081.8,-189.67 1088.98,-197.45 1092.27,-191.27"/>
</a>
</g>
</g>
<!-- Node14 -->
<g id="Node000014" class="node">
<title>Node14</title>
<g id="a_Node000014"><a xlink:title=" ">
<polygon fill="#e0e0e0" stroke="#999999" points="1164.5,-189.5 1108.5,-189.5 1108.5,-170.5 1164.5,-170.5 1164.5,-189.5"/>
<text text-anchor="middle" x="1136.5" y="-177.5" font-family="Helvetica,sans-Serif" font-size="10.00">GL/glu.h</text>
</a>
</g>
</g>
<!-- Node2&#45;&gt;Node14 -->
<g id="edge13_Node000002_Node000014" class="edge">
<title>Node2&#45;&gt;Node14</title>
<g id="a_edge13_Node000002_Node000014"><a xlink:title=" ">
<path fill="none" stroke="#63b8ff" d="M1169.75,-230.87C1164.04,-222.31 1155.15,-208.97 1147.99,-198.24"/>
<polygon fill="#63b8ff" stroke="#63b8ff" points="1150.74,-196.05 1142.28,-189.67 1144.91,-199.93 1150.74,-196.05"/>
</a>
</g>
</g>
<!-- Node15 -->
<g id="Node000015" class="node">
<title>Node15</title>
<g id="a_Node000015"><a xlink:title=" ">
<polygon fill="#e0e0e0" stroke="#999999" points="1248.5,-189.5 1182.5,-189.5 1182.5,-170.5 1248.5,-170.5 1248.5,-189.5"/>
<text text-anchor="middle" x="1215.5" y="-177.5" font-family="Helvetica,sans-Serif" font-size="10.00">GL/glext.h</text>
</a>
</g>
</g>
<!-- Node2&#45;&gt;Node15 -->
<g id="edge14_Node000002_Node000015" class="edge">
<title>Node2&#45;&gt;Node15</title>
<g id="a_edge14_Node000002_Node000015"><a xlink:title=" ">
<path fill="none" stroke="#63b8ff" d="M1181.4,-230.87C1187.25,-222.31 1196.37,-208.97 1203.71,-198.24"/>
<polygon fill="#63b8ff" stroke="#63b8ff" points="1206.82,-199.9 1209.57,-189.67 1201.04,-195.95 1206.82,-199.9"/>
</a>
</g>
</g>
<!-- Node16 -->
<g id="Node000016" class="node">
<title>Node16</title>
<g id="a_Node000016"><a xlink:title=" ">
<polygon fill="#e0e0e0" stroke="#999999" points="1344,-189.5 1267,-189.5 1267,-170.5 1344,-170.5 1344,-189.5"/>
<text text-anchor="middle" x="1305.5" y="-177.5" font-family="Helvetica,sans-Serif" font-size="10.00">cglm/cglm.h</text>
</a>
</g>
</g>
<!-- Node2&#45;&gt;Node16 -->
<g id="edge15_Node000002_Node000016" class="edge">
<title>Node2&#45;&gt;Node16</title>
<g id="a_edge15_Node000002_Node000016"><a xlink:title=" ">
<path fill="none" stroke="#63b8ff" d="M1194.4,-230.99C1216.16,-221.2 1252.12,-205.02 1277.21,-193.73"/>
<polygon fill="#63b8ff" stroke="#63b8ff" points="1278.89,-196.81 1286.57,-189.52 1276.02,-190.43 1278.89,-196.81"/>
</a>
</g>
</g>
<!-- Node17 -->
<g id="Node000017" class="node">
<title>Node17</title>
<g id="a_Node000017"><a xlink:title=" ">
<polygon fill="#e0e0e0" stroke="#999999" points="1413,-189.5 1362,-189.5 1362,-170.5 1413,-170.5 1413,-189.5"/>
<text text-anchor="middle" x="1387.5" y="-177.5" font-family="Helvetica,sans-Serif" font-size="10.00">math.h</text>
</a>
</g>
</g>
<!-- Node2&#45;&gt;Node17 -->
<g id="edge16_Node000002_Node000017" class="edge">
<title>Node2&#45;&gt;Node17</title>
<g id="a_edge16_Node000002_Node000017"><a xlink:title=" ">
<path fill="none" stroke="#63b8ff" d="M1216.27,-231.08C1252.67,-223.15 1307.2,-210.23 1353.5,-195 1355.13,-194.47 1356.78,-193.89 1358.45,-193.29"/>
<polygon fill="#63b8ff" stroke="#63b8ff" points="1359.84,-196.5 1367.91,-189.64 1357.32,-189.97 1359.84,-196.5"/>
</a>
</g>
</g>
<!-- Node18 -->
<g id="Node000018" class="node">
<title>Node18</title>
<g id="a_Node000018"><a xlink:href="stringio_8h.html" target="_top" xlink:title="Provides utility functions for string and file operations.">
<polygon fill="white" stroke="#666666" points="1505.5,-189.5 1431.5,-189.5 1431.5,-170.5 1505.5,-170.5 1505.5,-189.5"/>
<text text-anchor="middle" x="1468.5" y="-177.5" font-family="Helvetica,sans-Serif" font-size="10.00">io/stringio.h</text>
</a>
</g>
</g>
<!-- Node2&#45;&gt;Node18 -->
<g id="edge17_Node000002_Node000018" class="edge">
<title>Node2&#45;&gt;Node18</title>
<g id="a_edge17_Node000002_Node000018"><a xlink:title=" ">
<path fill="none" stroke="#63b8ff" d="M1216.02,-233.69C1265.2,-226.3 1350.49,-212.38 1422.5,-195 1425.85,-194.19 1429.31,-193.28 1432.76,-192.32"/>
<polygon fill="#63b8ff" stroke="#63b8ff" points="1433.75,-195.68 1442.37,-189.53 1431.79,-188.96 1433.75,-195.68"/>
</a>
</g>
</g>
<!-- Node20 -->
<g id="Node000020" class="node">
<title>Node20</title>
<g id="a_Node000020"><a xlink:href="config_8h.html" target="_top" xlink:title=" ">
<polygon fill="white" stroke="#666666" points="1579,-189.5 1524,-189.5 1524,-170.5 1579,-170.5 1579,-189.5"/>
<text text-anchor="middle" x="1551.5" y="-177.5" font-family="Helvetica,sans-Serif" font-size="10.00">config.h</text>
</a>
</g>
</g>
<!-- Node2&#45;&gt;Node20 -->
<g id="edge19_Node000002_Node000020" class="edge">
<title>Node2&#45;&gt;Node20</title>
<g id="a_edge19_Node000002_Node000020"><a xlink:title=" ">
<path fill="none" stroke="#63b8ff" d="M1216.25,-237.2C1280.49,-232.9 1408.86,-221.54 1514.5,-195 1516.95,-194.39 1519.46,-193.66 1521.96,-192.86"/>
<polygon fill="#63b8ff" stroke="#63b8ff" points="1523.13,-196.16 1531.41,-189.56 1520.82,-189.55 1523.13,-196.16"/>
</a>
</g>
</g>
<!-- Node19 -->
<g id="Node000019" class="node">
<title>Node19</title>
<g id="a_Node000019"><a xlink:title=" ">
<polygon fill="#e0e0e0" stroke="#999999" points="1495,-129 1442,-129 1442,-110 1495,-110 1495,-129"/>
<text text-anchor="middle" x="1468.5" y="-117" font-family="Helvetica,sans-Serif" font-size="10.00">string.h</text>
</a>
</g>
</g>
<!-- Node18&#45;&gt;Node19 -->
<g id="edge18_Node000018_Node000019" class="edge">
<title>Node18&#45;&gt;Node19</title>
<g id="a_edge18_Node000018_Node000019"><a xlink:title=" ">
<path fill="none" stroke="#63b8ff" d="M1468.5,-170.37C1468.5,-162.25 1468.5,-149.81 1468.5,-139.39"/>
<polygon fill="#63b8ff" stroke="#63b8ff" points="1472,-139.17 1468.5,-129.17 1465,-139.17 1472,-139.17"/>
</a>
</g>
</g>
<!-- Node21 -->
<g id="Node000021" class="node">
<title>Node21</title>
<g id="a_Node000021"><a xlink:href="term_8h.html" target="_top" xlink:title=" ">
<polygon fill="white" stroke="#666666" points="1589,-129 1514,-129 1514,-110 1589,-110 1589,-129"/>
<text text-anchor="middle" x="1551.5" y="-117" font-family="Helvetica,sans-Serif" font-size="10.00">term/term.h</text>
</a>
</g>
</g>
<!-- Node20&#45;&gt;Node21 -->
<g id="edge20_Node000020_Node000021" class="edge">
<title>Node20&#45;&gt;Node21</title>
<g id="a_edge20_Node000020_Node000021"><a xlink:title=" ">
<path fill="none" stroke="#63b8ff" d="M1551.5,-170.37C1551.5,-162.25 1551.5,-149.81 1551.5,-139.39"/>
<polygon fill="#63b8ff" stroke="#63b8ff" points="1555,-139.17 1551.5,-129.17 1548,-139.17 1555,-139.17"/>
</a>
</g>
</g>
<!-- Node22 -->
<g id="Node000022" class="node">
<title>Node22</title>
<g id="a_Node000022"><a xlink:href="enhanced__print_8h.html" target="_top" xlink:title=" ">
<polygon fill="white" stroke="#666666" points="1602,-74 1501,-74 1501,-55 1602,-55 1602,-74"/>
<text text-anchor="middle" x="1551.5" y="-62" font-family="Helvetica,sans-Serif" font-size="10.00">enhanced_print.h</text>
</a>
</g>
</g>
<!-- Node21&#45;&gt;Node22 -->
<g id="edge21_Node000021_Node000022" class="edge">
<title>Node21&#45;&gt;Node22</title>
<g id="a_edge21_Node000021_Node000022"><a xlink:title=" ">
<path fill="none" stroke="#63b8ff" d="M1551.5,-109.75C1551.5,-102.8 1551.5,-92.85 1551.5,-84.13"/>
<polygon fill="#63b8ff" stroke="#63b8ff" points="1555,-84.09 1551.5,-74.09 1548,-84.09 1555,-84.09"/>
</a>
</g>
</g>
<!-- Node23 -->
<g id="Node000023" class="node">
<title>Node23</title>
<g id="a_Node000023"><a xlink:href="color_8h.html" target="_top" xlink:title=" ">
<polygon fill="white" stroke="#666666" points="1576,-19 1527,-19 1527,0 1576,0 1576,-19"/>
<text text-anchor="middle" x="1551.5" y="-7" font-family="Helvetica,sans-Serif" font-size="10.00">color.h</text>
</a>
</g>
</g>
<!-- Node22&#45;&gt;Node23 -->
<g id="edge22_Node000022_Node000023" class="edge">
<title>Node22&#45;&gt;Node23</title>
<g id="a_edge22_Node000022_Node000023"><a xlink:title=" ">
<path fill="none" stroke="#63b8ff" d="M1551.5,-54.75C1551.5,-47.8 1551.5,-37.85 1551.5,-29.13"/>
<polygon fill="#63b8ff" stroke="#63b8ff" points="1555,-29.09 1551.5,-19.09 1548,-29.09 1555,-29.09"/>
</a>
</g>
</g>
<!-- Node25&#45;&gt;Node26 -->
<g id="edge25_Node000025_Node000026" class="edge">
<title>Node25&#45;&gt;Node26</title>
<g id="a_edge25_Node000025_Node000026"><a xlink:title=" ">
<path fill="none" stroke="#63b8ff" d="M161.74,-231.85C199.74,-221.56 267.53,-203.2 310.41,-191.59"/>
<polygon fill="#63b8ff" stroke="#63b8ff" points="311.48,-194.92 320.22,-188.93 309.65,-188.17 311.48,-194.92"/>
</a>
</g>
</g>
<!-- Node27 -->
<g id="Node000027" class="node">
<title>Node27</title>
<g id="a_Node000027"><a xlink:href="model__loader_8h.html" target="_top" xlink:title=" ">
<polygon fill="white" stroke="#666666" points="194.5,-195 72.5,-195 72.5,-165 194.5,-165 194.5,-195"/>
<text text-anchor="start" x="80.5" y="-183" font-family="Helvetica,sans-Serif" font-size="10.00">model_loaders/model</text>
<text text-anchor="middle" x="133.5" y="-172" font-family="Helvetica,sans-Serif" font-size="10.00">_loader.h</text>
</a>
</g>
</g>
<!-- Node25&#45;&gt;Node27 -->
<g id="edge26_Node000025_Node000027" class="edge">
<title>Node25&#45;&gt;Node27</title>
<g id="a_edge26_Node000025_Node000027"><a xlink:title=" ">
<path fill="none" stroke="#63b8ff" d="M133.5,-230.87C133.5,-224.11 133.5,-214.35 133.5,-205.26"/>
<polygon fill="#63b8ff" stroke="#63b8ff" points="137,-205.11 133.5,-195.11 130,-205.11 137,-205.11"/>
</a>
</g>
</g>
<!-- Node28 -->
<g id="Node000028" class="node">
<title>Node28</title>
<g id="a_Node000028"><a xlink:href="obj__loader_8h.html" target="_top" xlink:title=" ">
<polygon fill="white" stroke="#666666" points="171.5,-129 95.5,-129 95.5,-110 171.5,-110 171.5,-129"/>
<text text-anchor="middle" x="133.5" y="-117" font-family="Helvetica,sans-Serif" font-size="10.00">obj_loader.h</text>
</a>
</g>
</g>
<!-- Node27&#45;&gt;Node28 -->
<g id="edge27_Node000027_Node000028" class="edge">
<title>Node27&#45;&gt;Node28</title>
<g id="a_edge27_Node000027_Node000028"><a xlink:title=" ">
<path fill="none" stroke="#63b8ff" d="M133.5,-164.84C133.5,-157.21 133.5,-147.7 133.5,-139.45"/>
<polygon fill="#63b8ff" stroke="#63b8ff" points="137,-139.27 133.5,-129.27 130,-139.27 137,-139.27"/>
</a>
</g>
</g>
<!-- Node29 -->
<g id="Node000029" class="node">
<title>Node29</title>
<g id="a_Node000029"><a xlink:href="mtl__loader_8h.html" target="_top" xlink:title=" ">
<polygon fill="white" stroke="#666666" points="267,-129 190,-129 190,-110 267,-110 267,-129"/>
<text text-anchor="middle" x="228.5" y="-117" font-family="Helvetica,sans-Serif" font-size="10.00">mtl_loader.h</text>
</a>
</g>
</g>
<!-- Node27&#45;&gt;Node29 -->
<g id="edge28_Node000027_Node000029" class="edge">
<title>Node27&#45;&gt;Node29</title>
<g id="a_edge28_Node000027_Node000029"><a xlink:title=" ">
<path fill="none" stroke="#63b8ff" d="M156.5,-164.84C171.5,-155.6 191,-143.59 205.93,-134.4"/>
<polygon fill="#63b8ff" stroke="#63b8ff" points="207.86,-137.32 214.54,-129.09 204.19,-131.36 207.86,-137.32"/>
</a>
</g>
</g>
<!-- Node30 -->
<g id="Node000030" class="node">
<title>Node30</title>
<g id="a_Node000030"><a xlink:href="fbx__loader_8h.html" target="_top" xlink:title=" ">
<polygon fill="white" stroke="#666666" points="77,-129 0,-129 0,-110 77,-110 77,-129"/>
<text text-anchor="middle" x="38.5" y="-117" font-family="Helvetica,sans-Serif" font-size="10.00">fbx_loader.h</text>
</a>
</g>
</g>
<!-- Node27&#45;&gt;Node30 -->
<g id="edge29_Node000027_Node000030" class="edge">
<title>Node27&#45;&gt;Node30</title>
<g id="a_edge29_Node000027_Node000030"><a xlink:title=" ">
<path fill="none" stroke="#63b8ff" d="M110.5,-164.84C95.5,-155.6 76,-143.59 61.07,-134.4"/>
<polygon fill="#63b8ff" stroke="#63b8ff" points="62.81,-131.36 52.46,-129.09 59.14,-137.32 62.81,-131.36"/>
</a>
</g>
</g>
<!-- Node31&#45;&gt;Node32 -->
<g id="edge31_Node000031_Node000032" class="edge">
<title>Node31&#45;&gt;Node32</title>
<g id="a_edge31_Node000031_Node000032"><a xlink:title=" ">
<path fill="none" stroke="#63b8ff" d="M640.5,-285.75C640.5,-278.8 640.5,-268.85 640.5,-260.13"/>
<polygon fill="#63b8ff" stroke="#63b8ff" points="644,-260.09 640.5,-250.09 637,-260.09 644,-260.09"/>
</a>
</g>
</g>
<!-- Node34&#45;&gt;Node24 -->
<g id="edge34_Node000034_Node000024" class="edge">
<title>Node34&#45;&gt;Node24</title>
<g id="a_edge34_Node000034_Node000024"><a xlink:title=" ">
<path fill="none" stroke="#63b8ff" d="M198.51,-285.98C210.96,-277.84 229.96,-265.41 244.71,-255.76"/>
<polygon fill="#63b8ff" stroke="#63b8ff" points="246.8,-258.57 253.25,-250.17 242.96,-252.72 246.8,-258.57"/>
</a>
</g>
</g>
<!-- Node34&#45;&gt;Node25 -->
<g id="edge35_Node000034_Node000025" class="edge">
<title>Node34&#45;&gt;Node25</title>
<g id="a_edge35_Node000034_Node000025"><a xlink:title=" ">
<path fill="none" stroke="#63b8ff" d="M176.91,-285.75C169.34,-278.03 158.12,-266.6 148.99,-257.28"/>
<polygon fill="#63b8ff" stroke="#63b8ff" points="151.43,-254.78 141.93,-250.09 146.43,-259.68 151.43,-254.78"/>
</a>
</g>
</g>
<!-- Node35&#45;&gt;Node26 -->
<g id="edge37_Node000035_Node000026" class="edge">
<title>Node35&#45;&gt;Node26</title>
<g id="a_edge37_Node000035_Node000026"><a xlink:title=" ">
<path fill="none" stroke="#63b8ff" d="M481.14,-340.8C472.72,-331.95 459.44,-317.76 448.5,-305 416.37,-267.55 380.74,-221.8 362.23,-197.7"/>
<polygon fill="#63b8ff" stroke="#63b8ff" points="364.88,-195.4 356.02,-189.59 359.32,-199.66 364.88,-195.4"/>
</a>
</g>
</g>
<!-- Node35&#45;&gt;Node31 -->
<g id="edge46_Node000035_Node000031" class="edge">
<title>Node35&#45;&gt;Node31</title>
<g id="a_edge46_Node000035_Node000031"><a xlink:title=" ">
<path fill="none" stroke="#63b8ff" d="M513.76,-340.98C538.82,-332.19 578.13,-318.39 606.33,-308.49"/>
<polygon fill="#63b8ff" stroke="#63b8ff" points="607.52,-311.78 615.8,-305.17 605.2,-305.18 607.52,-311.78"/>
</a>
</g>
</g>
<!-- Node35&#45;&gt;Node34 -->
<g id="edge42_Node000035_Node000034" class="edge">
<title>Node35&#45;&gt;Node34</title>
<g id="a_edge42_Node000035_Node000034"><a xlink:title=" ">
<path fill="none" stroke="#63b8ff" d="M440.66,-340.98C387.22,-331.67 301.58,-316.74 244.44,-306.78"/>
<polygon fill="#63b8ff" stroke="#63b8ff" points="244.93,-303.31 234.47,-305.04 243.72,-310.2 244.93,-303.31"/>
</a>
</g>
</g>
<!-- Node35&#45;&gt;Node36 -->
<g id="edge38_Node000035_Node000036" class="edge">
<title>Node35&#45;&gt;Node36</title>
<g id="a_edge38_Node000035_Node000036"><a xlink:title=" ">
<path fill="none" stroke="#63b8ff" d="M466.85,-340.98C443.65,-332.27 407.38,-318.63 381.1,-308.75"/>
<polygon fill="#63b8ff" stroke="#63b8ff" points="382.16,-305.41 371.57,-305.17 379.7,-311.97 382.16,-305.41"/>
</a>
</g>
</g>
<!-- Node37 -->
<g id="Node000037" class="node">
<title>Node37</title>
<g id="a_Node000037"><a xlink:href="scripts_8h.html" target="_top" xlink:title=" ">
<polygon fill="white" stroke="#666666" points="559.5,-305 457.5,-305 457.5,-286 559.5,-286 559.5,-305"/>
<text text-anchor="middle" x="508.5" y="-293" font-family="Helvetica,sans-Serif" font-size="10.00">../scripts/scripts.h</text>
</a>
</g>
</g>
<!-- Node35&#45;&gt;Node37 -->
<g id="edge43_Node000035_Node000037" class="edge">
<title>Node35&#45;&gt;Node37</title>
<g id="a_edge43_Node000035_Node000037"><a xlink:title=" ">
<path fill="none" stroke="#63b8ff" d="M492.64,-340.75C495.18,-333.65 498.86,-323.4 502.03,-314.56"/>
<polygon fill="#63b8ff" stroke="#63b8ff" points="505.34,-315.68 505.42,-305.09 498.75,-313.32 505.34,-315.68"/>
</a>
</g>
</g>
<!-- Node36&#45;&gt;Node2 -->
<g id="edge39_Node000036_Node000002" class="edge">
<title>Node36&#45;&gt;Node2</title>
<g id="a_edge39_Node000036_Node000002"><a xlink:title=" ">
<path fill="none" stroke="#63b8ff" d="M401.68,-289.74C416.8,-288.46 433.29,-287.11 448.5,-286 702.22,-267.45 1006.13,-250.58 1124.67,-244.2"/>
<polygon fill="#63b8ff" stroke="#63b8ff" points="1125.09,-247.68 1134.89,-243.65 1124.71,-240.69 1125.09,-247.68"/>
</a>
</g>
</g>
<!-- Node36&#45;&gt;Node24 -->
<g id="edge40_Node000036_Node000024" class="edge">
<title>Node36&#45;&gt;Node24</title>
<g id="a_edge40_Node000036_Node000024"><a xlink:title=" ">
<path fill="none" stroke="#63b8ff" d="M335.33,-285.98C322.73,-277.84 303.5,-265.41 288.56,-255.76"/>
<polygon fill="#63b8ff" stroke="#63b8ff" points="290.21,-252.66 279.91,-250.17 286.41,-258.54 290.21,-252.66"/>
</a>
</g>
</g>
<!-- Node36&#45;&gt;Node26 -->
<g id="edge41_Node000036_Node000026" class="edge">
<title>Node36&#45;&gt;Node26</title>
<g id="a_edge41_Node000036_Node000026"><a xlink:title=" ">
<path fill="none" stroke="#63b8ff" d="M348.58,-285.97C348.74,-267.73 349.12,-224.57 349.34,-199.64"/>
<polygon fill="#63b8ff" stroke="#63b8ff" points="352.84,-199.66 349.42,-189.63 345.84,-199.6 352.84,-199.66"/>
</a>
</g>
</g>
<!-- Node37&#45;&gt;Node32 -->
<g id="edge44_Node000037_Node000032" class="edge">
<title>Node37&#45;&gt;Node32</title>
<g id="a_edge44_Node000037_Node000032"><a xlink:title=" ">
<path fill="none" stroke="#63b8ff" d="M529.71,-285.98C551.23,-277.34 584.78,-263.87 609.33,-254.02"/>
<polygon fill="#63b8ff" stroke="#63b8ff" points="610.93,-257.14 618.91,-250.17 608.32,-250.65 610.93,-257.14"/>
</a>
</g>
</g>
<!-- Node38 -->
<g id="Node000038" class="node">
<title>Node38</title>
<g id="a_Node000038"><a xlink:href="signals_8h.html" target="_top" xlink:title="Signal and slot system for C projects.">
<polygon fill="white" stroke="#666666" points="538.5,-250 478.5,-250 478.5,-231 538.5,-231 538.5,-250"/>
<text text-anchor="middle" x="508.5" y="-238" font-family="Helvetica,sans-Serif" font-size="10.00">signals.h</text>
</a>
</g>
</g>
<!-- Node37&#45;&gt;Node38 -->
<g id="edge45_Node000037_Node000038" class="edge">
<title>Node37&#45;&gt;Node38</title>
<g id="a_edge45_Node000037_Node000038"><a xlink:title=" ">
<path fill="none" stroke="#63b8ff" d="M508.5,-285.75C508.5,-278.8 508.5,-268.85 508.5,-260.13"/>
<polygon fill="#63b8ff" stroke="#63b8ff" points="512,-260.09 508.5,-250.09 505,-260.09 512,-260.09"/>
</a>
</g>
</g>
<!-- Node41&#45;&gt;Node25 -->
<g id="edge53_Node000041_Node000025" class="edge">
<title>Node41&#45;&gt;Node25</title>
<g id="a_edge53_Node000041_Node000025"><a xlink:title=" ">
<path fill="none" stroke="#63b8ff" d="M178.79,-341C157.51,-334.74 135.31,-323.87 122.5,-305 113.39,-291.57 118.13,-272.98 123.95,-259.38"/>
<polygon fill="#63b8ff" stroke="#63b8ff" points="127.23,-260.66 128.41,-250.13 120.92,-257.62 127.23,-260.66"/>
</a>
</g>
</g>
<!-- Node41&#45;&gt;Node31 -->
<g id="edge54_Node000041_Node000031" class="edge">
<title>Node41&#45;&gt;Node31</title>
<g id="a_edge54_Node000041_Node000031"><a xlink:title=" ">
<path fill="none" stroke="#63b8ff" d="M296.6,-341.39C369.42,-331.89 489.95,-316.15 567.26,-306.06"/>
<polygon fill="#63b8ff" stroke="#63b8ff" points="567.94,-309.5 577.4,-304.74 567.03,-302.56 567.94,-309.5"/>
</a>
</g>
</g>
<!-- Node44&#45;&gt;Node2 -->
<g id="edge60_Node000044_Node000002" class="edge">
<title>Node44&#45;&gt;Node2</title>
<g id="a_edge60_Node000044_Node000002"><a xlink:title=" ">
<path fill="none" stroke="#63b8ff" d="M1289.6,-340.95C1299.43,-328.01 1314.67,-303.16 1302.5,-286 1285.3,-261.75 1253.82,-250.61 1226.51,-245.55"/>
<polygon fill="#63b8ff" stroke="#63b8ff" points="1226.72,-242.03 1216.29,-243.88 1225.6,-248.94 1226.72,-242.03"/>
</a>
</g>
</g>
<!-- Node45 -->
<g id="Node000045" class="node">
<title>Node45</title>
<g id="a_Node000045"><a xlink:href="classes__types_8h.html" target="_top" xlink:title=" ">
<polygon fill="white" stroke="#666666" points="1175.5,-305 1081.5,-305 1081.5,-286 1175.5,-286 1175.5,-305"/>
<text text-anchor="middle" x="1128.5" y="-293" font-family="Helvetica,sans-Serif" font-size="10.00">classes_types.h</text>
</a>
</g>
</g>
<!-- Node44&#45;&gt;Node45 -->
<g id="edge58_Node000044_Node000045" class="edge">
<title>Node44&#45;&gt;Node45</title>
<g id="a_edge58_Node000044_Node000045"><a xlink:title=" ">
<path fill="none" stroke="#63b8ff" d="M1257.76,-340.98C1232.13,-332.16 1191.87,-318.31 1163.09,-308.41"/>
<polygon fill="#63b8ff" stroke="#63b8ff" points="1164.03,-305.03 1153.44,-305.08 1161.75,-311.65 1164.03,-305.03"/>
</a>
</g>
</g>
<!-- Node46 -->
<g id="Node000046" class="node">
<title>Node46</title>
<g id="a_Node000046"><a xlink:title=" ">
<polygon fill="#e0e0e0" stroke="#999999" points="1293,-305 1194,-305 1194,-286 1293,-286 1293,-305"/>
<text text-anchor="middle" x="1243.5" y="-293" font-family="Helvetica,sans-Serif" font-size="10.00">import_classes.h</text>
</a>
</g>
</g>
<!-- Node44&#45;&gt;Node46 -->
<g id="edge59_Node000044_Node000046" class="edge">
<title>Node44&#45;&gt;Node46</title>
<g id="a_edge59_Node000044_Node000046"><a xlink:title=" ">
<path fill="none" stroke="#63b8ff" d="M1276.06,-340.75C1270.61,-333.34 1262.64,-322.5 1255.94,-313.41"/>
<polygon fill="#63b8ff" stroke="#63b8ff" points="1258.57,-311.07 1249.82,-305.09 1252.93,-315.22 1258.57,-311.07"/>
</a>
</g>
</g>
</g>
</svg>
