<?xml version="1.0" encoding="UTF-8" standalone="no"?>
<!DOCTYPE svg PUBLIC "-//W3C//DTD SVG 1.1//EN"
 "http://www.w3.org/Graphics/SVG/1.1/DTD/svg11.dtd">
<!-- Generated by graphviz version 2.43.0 (0)
 -->
<!-- Title: src/io/scene_loader.h Pages: 1 -->
<svg width="1605pt" height="93pt"
 viewBox="0.00 0.00 1604.50 93.00" xmlns="http://www.w3.org/2000/svg" xmlns:xlink="http://www.w3.org/1999/xlink">
<g id="graph0" class="graph" transform="scale(1 1) rotate(0) translate(4 89)">
<title>src/io/scene_loader.h</title>
<!-- Node1 -->
<g id="Node000001" class="node">
<title>Node1</title>
<g id="a_Node000001"><a xlink:title=" ">
<polygon fill="#999999" stroke="#666666" points="960.5,-85 841.5,-85 841.5,-66 960.5,-66 960.5,-85"/>
<text text-anchor="middle" x="901" y="-73" font-family="Helvetica,sans-Serif" font-size="10.00">src/io/scene_loader.h</text>
</a>
</g>
</g>
<!-- Node2 -->
<g id="Node000002" class="node">
<title>Node2</title>
<g id="a_Node000002"><a xlink:href="area_8class_8c.html" target="_top" xlink:title="This file handles the physics area nodes in the project.">
<polygon fill="white" stroke="#666666" points="142,-30 0,-30 0,0 142,0 142,-30"/>
<text text-anchor="start" x="8" y="-18" font-family="Helvetica,sans-Serif" font-size="10.00">src/classes/nodes/physics</text>
<text text-anchor="middle" x="71" y="-7" font-family="Helvetica,sans-Serif" font-size="10.00">/area.class.c</text>
</a>
</g>
</g>
<!-- Node1&#45;&gt;Node2 -->
<g id="edge1_Node000001_Node000002" class="edge">
<title>Node1&#45;&gt;Node2</title>
<g id="a_edge1_Node000001_Node000002"><a xlink:title=" ">
<path fill="none" stroke="#63b8ff" d="M831.46,-73.02C698.75,-69.61 400.38,-59.12 151,-30 148.06,-29.66 145.06,-29.28 142.04,-28.86"/>
<polygon fill="#63b8ff" stroke="#63b8ff" points="831.41,-76.52 841.49,-73.27 831.58,-69.52 831.41,-76.52"/>
</a>
</g>
</g>
<!-- Node3 -->
<g id="Node000003" class="node">
<title>Node3</title>
<g id="a_Node000003"><a xlink:href="body_8class_8c.html" target="_top" xlink:title="This file defines the body class for the physics engine.">
<polygon fill="white" stroke="#666666" points="302,-30 160,-30 160,0 302,0 302,-30"/>
<text text-anchor="start" x="168" y="-18" font-family="Helvetica,sans-Serif" font-size="10.00">src/classes/nodes/physics</text>
<text text-anchor="middle" x="231" y="-7" font-family="Helvetica,sans-Serif" font-size="10.00">/bodies/body.class.c</text>
</a>
</g>
</g>
<!-- Node1&#45;&gt;Node3 -->
<g id="edge2_Node000001_Node000003" class="edge">
<title>Node1&#45;&gt;Node3</title>
<g id="a_edge2_Node000001_Node000003"><a xlink:title=" ">
<path fill="none" stroke="#63b8ff" d="M831.32,-71.46C720.72,-66.13 498.31,-53.4 311,-30 308.06,-29.63 305.07,-29.23 302.05,-28.81"/>
<polygon fill="#63b8ff" stroke="#63b8ff" points="831.19,-74.96 841.35,-71.94 831.53,-67.96 831.19,-74.96"/>
</a>
</g>
</g>
<!-- Node4 -->
<g id="Node000004" class="node">
<title>Node4</title>
<g id="a_Node000004"><a xlink:href="kinematic__body_8class_8c.html" target="_top" xlink:title="This file defines the implementation of kinematic bodies for the physics engine.">
<polygon fill="white" stroke="#666666" points="487.5,-30 320.5,-30 320.5,0 487.5,0 487.5,-30"/>
<text text-anchor="start" x="328.5" y="-18" font-family="Helvetica,sans-Serif" font-size="10.00">src/classes/nodes/physics</text>
<text text-anchor="middle" x="404" y="-7" font-family="Helvetica,sans-Serif" font-size="10.00">/bodies/kinematic_body.class.c</text>
</a>
</g>
</g>
<!-- Node1&#45;&gt;Node4 -->
<g id="edge3_Node000001_Node000004" class="edge">
<title>Node1&#45;&gt;Node4</title>
<g id="a_edge3_Node000001_Node000004"><a xlink:title=" ">
<path fill="none" stroke="#63b8ff" d="M831.33,-67.67C750.73,-59.58 614.09,-45.26 497,-30 493.92,-29.6 490.79,-29.18 487.63,-28.75"/>
<polygon fill="#63b8ff" stroke="#63b8ff" points="831.06,-71.16 841.36,-68.68 831.76,-64.2 831.06,-71.16"/>
</a>
</g>
</g>
<!-- Node5 -->
<g id="Node000005" class="node">
<title>Node5</title>
<g id="a_Node000005"><a xlink:href="rigid__body_8class_8c.html" target="_top" xlink:title="This source file defines the implementation of rigid body physics for the project.">
<polygon fill="white" stroke="#666666" points="648,-30 506,-30 506,0 648,0 648,-30"/>
<text text-anchor="start" x="514" y="-18" font-family="Helvetica,sans-Serif" font-size="10.00">src/classes/nodes/physics</text>
<text text-anchor="middle" x="577" y="-7" font-family="Helvetica,sans-Serif" font-size="10.00">/bodies/rigid_body.class.c</text>
</a>
</g>
</g>
<!-- Node1&#45;&gt;Node5 -->
<g id="edge4_Node000001_Node000005" class="edge">
<title>Node1&#45;&gt;Node5</title>
<g id="a_edge4_Node000001_Node000005"><a xlink:title=" ">
<path fill="none" stroke="#63b8ff" d="M844.04,-64.21C789.47,-54.36 706.95,-39.46 648.1,-28.84"/>
<polygon fill="#63b8ff" stroke="#63b8ff" points="843.42,-67.66 853.89,-65.99 844.67,-60.77 843.42,-67.66"/>
</a>
</g>
</g>
<!-- Node6 -->
<g id="Node000006" class="node">
<title>Node6</title>
<g id="a_Node000006"><a xlink:href="static__body_8class_8c.html" target="_top" xlink:title="This file defines the implementation of static bodies in the physics engine.">
<polygon fill="white" stroke="#666666" points="812,-30 666,-30 666,0 812,0 812,-30"/>
<text text-anchor="start" x="674" y="-18" font-family="Helvetica,sans-Serif" font-size="10.00">src/classes/nodes/physics</text>
<text text-anchor="middle" x="739" y="-7" font-family="Helvetica,sans-Serif" font-size="10.00">/bodies/static_body.class.c</text>
</a>
</g>
</g>
<!-- Node1&#45;&gt;Node6 -->
<g id="edge5_Node000001_Node000006" class="edge">
<title>Node1&#45;&gt;Node6</title>
<g id="a_edge5_Node000001_Node000006"><a xlink:title=" ">
<path fill="none" stroke="#63b8ff" d="M868,-62.58C841.92,-53.16 805.46,-40 777.95,-30.06"/>
<polygon fill="#63b8ff" stroke="#63b8ff" points="866.85,-65.89 877.44,-65.99 869.23,-59.31 866.85,-65.89"/>
</a>
</g>
</g>
<!-- Node7 -->
<g id="Node000007" class="node">
<title>Node7</title>
<g id="a_Node000007"><a xlink:href="physical__node_8class_8c.html" target="_top" xlink:title="This file contains the implementation of the PhysicalNode class.">
<polygon fill="white" stroke="#666666" points="972,-30 830,-30 830,0 972,0 972,-30"/>
<text text-anchor="start" x="838" y="-18" font-family="Helvetica,sans-Serif" font-size="10.00">src/classes/nodes/physics</text>
<text text-anchor="middle" x="901" y="-7" font-family="Helvetica,sans-Serif" font-size="10.00">/physical_node.class.c</text>
</a>
</g>
</g>
<!-- Node1&#45;&gt;Node7 -->
<g id="edge6_Node000001_Node000007" class="edge">
<title>Node1&#45;&gt;Node7</title>
<g id="a_edge6_Node000001_Node000007"><a xlink:title=" ">
<path fill="none" stroke="#63b8ff" d="M901,-55.65C901,-47.36 901,-37.78 901,-30.11"/>
<polygon fill="#63b8ff" stroke="#63b8ff" points="897.5,-55.87 901,-65.87 904.5,-55.87 897.5,-55.87"/>
</a>
</g>
</g>
<!-- Node8 -->
<g id="Node000008" class="node">
<title>Node8</title>
<g id="a_Node000008"><a xlink:href="scene_8class_8c.html" target="_top" xlink:title="This file contains the implementation of the scene class.">
<polygon fill="white" stroke="#666666" points="1160,-24.5 990,-24.5 990,-5.5 1160,-5.5 1160,-24.5"/>
<text text-anchor="middle" x="1075" y="-12.5" font-family="Helvetica,sans-Serif" font-size="10.00">src/classes/nodes/scene.class.c</text>
</a>
</g>
</g>
<!-- Node1&#45;&gt;Node8 -->
<g id="edge7_Node000001_Node000008" class="edge">
<title>Node1&#45;&gt;Node8</title>
<g id="a_edge7_Node000001_Node000008"><a xlink:title=" ">
<path fill="none" stroke="#63b8ff" d="M936.18,-62.67C969.83,-51.36 1019.76,-34.57 1049.67,-24.52"/>
<polygon fill="#63b8ff" stroke="#63b8ff" points="934.66,-59.49 926.3,-65.99 936.9,-66.12 934.66,-59.49"/>
</a>
</g>
</g>
<!-- Node9 -->
<g id="Node000009" class="node">
<title>Node9</title>
<g id="a_Node000009"><a xlink:href="node__loader_8c.html" target="_top" xlink:title=" ">
<polygon fill="white" stroke="#666666" points="1291.5,-24.5 1178.5,-24.5 1178.5,-5.5 1291.5,-5.5 1291.5,-24.5"/>
<text text-anchor="middle" x="1235" y="-12.5" font-family="Helvetica,sans-Serif" font-size="10.00">src/io/node_loader.c</text>
</a>
</g>
</g>
<!-- Node1&#45;&gt;Node9 -->
<g id="edge8_Node000001_Node000009" class="edge">
<title>Node1&#45;&gt;Node9</title>
<g id="a_edge8_Node000001_Node000009"><a xlink:title=" ">
<path fill="none" stroke="#63b8ff" d="M967.01,-64.38C1021.34,-55.84 1100.32,-42.98 1169,-30 1177.86,-28.33 1187.36,-26.39 1196.32,-24.51"/>
<polygon fill="#63b8ff" stroke="#63b8ff" points="966.16,-60.97 956.82,-65.97 967.24,-67.88 966.16,-60.97"/>
</a>
</g>
</g>
<!-- Node10 -->
<g id="Node000010" class="node">
<title>Node10</title>
<g id="a_Node000010"><a xlink:href="main_8c.html" target="_top" xlink:title=" ">
<polygon fill="white" stroke="#666666" points="1376.5,-24.5 1309.5,-24.5 1309.5,-5.5 1376.5,-5.5 1376.5,-24.5"/>
<text text-anchor="middle" x="1343" y="-12.5" font-family="Helvetica,sans-Serif" font-size="10.00">src/main.c</text>
</a>
</g>
</g>
<!-- Node1&#45;&gt;Node10 -->
<g id="edge9_Node000001_Node000010" class="edge">
<title>Node1&#45;&gt;Node10</title>
<g id="a_edge9_Node000001_Node000010"><a xlink:title=" ">
<path fill="none" stroke="#63b8ff" d="M970.6,-71.21C1050.98,-66.39 1186.8,-55.09 1301,-30 1307.31,-28.61 1314,-26.63 1320.14,-24.59"/>
<polygon fill="#63b8ff" stroke="#63b8ff" points="970.38,-67.72 960.6,-71.8 970.79,-74.71 970.38,-67.72"/>
</a>
</g>
</g>
<!-- Node11 -->
<g id="Node000011" class="node">
<title>Node11</title>
<g id="a_Node000011"><a xlink:href="raptiquax_8c.html" target="_top" xlink:title=" ">
<polygon fill="white" stroke="#666666" points="1483.5,-24.5 1394.5,-24.5 1394.5,-5.5 1483.5,-5.5 1483.5,-24.5"/>
<text text-anchor="middle" x="1439" y="-12.5" font-family="Helvetica,sans-Serif" font-size="10.00">src/raptiquax.c</text>
</a>
</g>
</g>
<!-- Node1&#45;&gt;Node11 -->
<g id="edge10_Node000001_Node000011" class="edge">
<title>Node1&#45;&gt;Node11</title>
<g id="a_edge10_Node000001_Node000011"><a xlink:title=" ">
<path fill="none" stroke="#63b8ff" d="M970.81,-71.75C1065.48,-67.2 1239.58,-55.87 1386,-30 1393.97,-28.59 1402.49,-26.58 1410.31,-24.51"/>
<polygon fill="#63b8ff" stroke="#63b8ff" points="970.6,-68.26 960.78,-72.22 970.93,-75.25 970.6,-68.26"/>
</a>
</g>
</g>
<!-- Node12 -->
<g id="Node000012" class="node">
<title>Node12</title>
<g id="a_Node000012"><a xlink:href="scene_8c.html" target="_top" xlink:title=" ">
<polygon fill="white" stroke="#666666" points="1596.5,-24.5 1501.5,-24.5 1501.5,-5.5 1596.5,-5.5 1596.5,-24.5"/>
<text text-anchor="middle" x="1549" y="-12.5" font-family="Helvetica,sans-Serif" font-size="10.00">src/utils/scene.c</text>
</a>
</g>
</g>
<!-- Node1&#45;&gt;Node12 -->
<g id="edge11_Node000001_Node000012" class="edge">
<title>Node1&#45;&gt;Node12</title>
<g id="a_edge11_Node000001_Node000012"><a xlink:title=" ">
<path fill="none" stroke="#63b8ff" d="M970.7,-73.09C1081.85,-69.98 1305.77,-60.22 1493,-30 1501.51,-28.63 1510.62,-26.6 1518.97,-24.51"/>
<polygon fill="#63b8ff" stroke="#63b8ff" points="970.53,-69.59 960.63,-73.36 970.72,-76.59 970.53,-69.59"/>
</a>
</g>
</g>
</g>
</svg>
