<?xml version="1.0" encoding="UTF-8" standalone="no"?>
<!DOCTYPE svg PUBLIC "-//W3C//DTD SVG 1.1//EN"
 "http://www.w3.org/Graphics/SVG/1.1/DTD/svg11.dtd">
<!-- Generated by graphviz version 2.43.0 (0)
 -->
<!-- Title: src/classes/nodes/scene.class.c Pages: 1 -->
<svg width="1819pt" height="423pt"
 viewBox="0.00 0.00 1819.00 423.00" xmlns="http://www.w3.org/2000/svg" xmlns:xlink="http://www.w3.org/1999/xlink">
<g id="graph0" class="graph" transform="scale(1 1) rotate(0) translate(4 419)">
<title>src/classes/nodes/scene.class.c</title>
<!-- Node1 -->
<g id="Node000001" class="node">
<title>Node1</title>
<g id="a_Node000001"><a xlink:title="This file contains the implementation of the scene class.">
<polygon fill="#999999" stroke="#666666" points="1483.5,-415 1313.5,-415 1313.5,-396 1483.5,-396 1483.5,-415"/>
<text text-anchor="middle" x="1398.5" y="-403" font-family="Helvetica,sans-Serif" font-size="10.00">src/classes/nodes/scene.class.c</text>
</a>
</g>
</g>
<!-- Node2 -->
<g id="Node000002" class="node">
<title>Node2</title>
<g id="a_Node000002"><a xlink:href="raptiquax_8h.html" target="_top" xlink:title="This file contains type definitions for fixed&#45;width integer types and floating&#45;point types.">
<polygon fill="white" stroke="#666666" points="899.5,-250 827.5,-250 827.5,-231 899.5,-231 899.5,-250"/>
<text text-anchor="middle" x="863.5" y="-238" font-family="Helvetica,sans-Serif" font-size="10.00">raptiquax.h</text>
</a>
</g>
</g>
<!-- Node1&#45;&gt;Node2 -->
<g id="edge1_Node000001_Node000002" class="edge">
<title>Node1&#45;&gt;Node2</title>
<g id="a_edge1_Node000001_Node000002"><a xlink:title=" ">
<path fill="none" stroke="#63b8ff" d="M1313.24,-404.33C1163,-401.9 861.57,-386.7 804.5,-305 791.31,-286.11 815,-267.1 836.18,-254.87"/>
<polygon fill="#63b8ff" stroke="#63b8ff" points="837.89,-257.93 844.99,-250.06 834.53,-251.78 837.89,-257.93"/>
</a>
</g>
</g>
<!-- Node24 -->
<g id="Node000024" class="node">
<title>Node24</title>
<g id="a_Node000024"><a xlink:href="classes_8h.html" target="_top" xlink:title=" ">
<polygon fill="white" stroke="#666666" points="1065,-360 964,-360 964,-341 1065,-341 1065,-360"/>
<text text-anchor="middle" x="1014.5" y="-348" font-family="Helvetica,sans-Serif" font-size="10.00">classes/classes.h</text>
</a>
</g>
</g>
<!-- Node1&#45;&gt;Node24 -->
<g id="edge23_Node000001_Node000024" class="edge">
<title>Node1&#45;&gt;Node24</title>
<g id="a_edge23_Node000001_Node000024"><a xlink:title=" ">
<path fill="none" stroke="#63b8ff" d="M1336.8,-395.98C1264.87,-386.06 1146.72,-369.75 1075.21,-359.88"/>
<polygon fill="#63b8ff" stroke="#63b8ff" points="1075.39,-356.37 1065.01,-358.47 1074.44,-363.31 1075.39,-356.37"/>
</a>
</g>
</g>
<!-- Node27 -->
<g id="Node000027" class="node">
<title>Node27</title>
<g id="a_Node000027"><a xlink:href="math__util_8h.html" target="_top" xlink:title=" ">
<polygon fill="white" stroke="#666666" points="1610,-250 1509,-250 1509,-231 1610,-231 1610,-250"/>
<text text-anchor="middle" x="1559.5" y="-238" font-family="Helvetica,sans-Serif" font-size="10.00">math/math_util.h</text>
</a>
</g>
</g>
<!-- Node1&#45;&gt;Node27 -->
<g id="edge27_Node000001_Node000027" class="edge">
<title>Node1&#45;&gt;Node27</title>
<g id="a_edge27_Node000001_Node000027"><a xlink:title=" ">
<path fill="none" stroke="#63b8ff" d="M1460.1,-395.95C1513.48,-384.93 1587.61,-360.12 1623.5,-305 1636.49,-285.06 1611.47,-266.4 1589.01,-254.54"/>
<polygon fill="#63b8ff" stroke="#63b8ff" points="1590.49,-251.37 1579.98,-250.04 1587.37,-257.63 1590.49,-251.37"/>
</a>
</g>
</g>
<!-- Node28 -->
<g id="Node000028" class="node">
<title>Node28</title>
<g id="a_Node000028"><a xlink:href="model_8h.html" target="_top" xlink:title="Defines structures and functions for handling 3D models and their properties.">
<polygon fill="white" stroke="#666666" points="1696.5,-250 1628.5,-250 1628.5,-231 1696.5,-231 1696.5,-250"/>
<text text-anchor="middle" x="1662.5" y="-238" font-family="Helvetica,sans-Serif" font-size="10.00">io/model.h</text>
</a>
</g>
</g>
<!-- Node1&#45;&gt;Node28 -->
<g id="edge28_Node000001_Node000028" class="edge">
<title>Node1&#45;&gt;Node28</title>
<g id="a_edge28_Node000001_Node000028"><a xlink:title=" ">
<path fill="none" stroke="#63b8ff" d="M1483.56,-396.56C1518.86,-390.4 1559.06,-379.44 1591.5,-360 1619.33,-343.32 1623.03,-332.95 1639.5,-305 1647.87,-290.79 1653.99,-273.03 1657.8,-259.91"/>
<polygon fill="#63b8ff" stroke="#63b8ff" points="1661.2,-260.73 1660.46,-250.16 1654.45,-258.89 1661.2,-260.73"/>
</a>
</g>
</g>
<!-- Node34 -->
<g id="Node000034" class="node">
<title>Node34</title>
<g id="a_Node000034"><a xlink:href="node_8h.html" target="_top" xlink:title=" ">
<polygon fill="white" stroke="#666666" points="1443,-360 1354,-360 1354,-341 1443,-341 1443,-360"/>
<text text-anchor="middle" x="1398.5" y="-348" font-family="Helvetica,sans-Serif" font-size="10.00">storage/node.h</text>
</a>
</g>
</g>
<!-- Node1&#45;&gt;Node34 -->
<g id="edge34_Node000001_Node000034" class="edge">
<title>Node1&#45;&gt;Node34</title>
<g id="a_edge34_Node000001_Node000034"><a xlink:title=" ">
<path fill="none" stroke="#63b8ff" d="M1398.5,-395.75C1398.5,-388.8 1398.5,-378.85 1398.5,-370.13"/>
<polygon fill="#63b8ff" stroke="#63b8ff" points="1402,-370.09 1398.5,-360.09 1395,-370.09 1402,-370.09"/>
</a>
</g>
</g>
<!-- Node40 -->
<g id="Node000040" class="node">
<title>Node40</title>
<g id="a_Node000040"><a xlink:href="framebuffer_8h.html" target="_top" xlink:title=" ">
<polygon fill="white" stroke="#666666" points="1207.5,-305 1081.5,-305 1081.5,-286 1207.5,-286 1207.5,-305"/>
<text text-anchor="middle" x="1144.5" y="-293" font-family="Helvetica,sans-Serif" font-size="10.00">../render/framebuffer.h</text>
</a>
</g>
</g>
<!-- Node1&#45;&gt;Node40 -->
<g id="edge49_Node000001_Node000040" class="edge">
<title>Node1&#45;&gt;Node40</title>
<g id="a_edge49_Node000001_Node000040"><a xlink:title=" ">
<path fill="none" stroke="#63b8ff" d="M1378.14,-395.84C1333.35,-376.8 1226.11,-331.2 1173.96,-309.03"/>
<polygon fill="#63b8ff" stroke="#63b8ff" points="1175.17,-305.74 1164.6,-305.05 1172.43,-312.18 1175.17,-305.74"/>
</a>
</g>
</g>
<!-- Node41 -->
<g id="Node000041" class="node">
<title>Node41</title>
<g id="a_Node000041"><a xlink:href="scene__loader_8h.html" target="_top" xlink:title=" ">
<polygon fill="white" stroke="#666666" points="1811,-360 1710,-360 1710,-341 1811,-341 1811,-360"/>
<text text-anchor="middle" x="1760.5" y="-348" font-family="Helvetica,sans-Serif" font-size="10.00">io/scene_loader.h</text>
</a>
</g>
</g>
<!-- Node1&#45;&gt;Node41 -->
<g id="edge48_Node000001_Node000041" class="edge">
<title>Node1&#45;&gt;Node41</title>
<g id="a_edge48_Node000001_Node000041"><a xlink:title=" ">
<path fill="none" stroke="#63b8ff" d="M1456.66,-395.98C1523.29,-386.23 1631.97,-370.32 1699.69,-360.4"/>
<polygon fill="#63b8ff" stroke="#63b8ff" points="1700.4,-363.84 1709.79,-358.92 1699.39,-356.91 1700.4,-363.84"/>
</a>
</g>
</g>
<!-- Node3 -->
<g id="Node000003" class="node">
<title>Node3</title>
<g id="a_Node000003"><a xlink:title=" ">
<polygon fill="#e0e0e0" stroke="#999999" points="1250.5,-189.5 1200.5,-189.5 1200.5,-170.5 1250.5,-170.5 1250.5,-189.5"/>
<text text-anchor="middle" x="1225.5" y="-177.5" font-family="Helvetica,sans-Serif" font-size="10.00">stdio.h</text>
</a>
</g>
</g>
<!-- Node2&#45;&gt;Node3 -->
<g id="edge2_Node000002_Node000003" class="edge">
<title>Node2&#45;&gt;Node3</title>
<g id="a_edge2_Node000002_Node000003"><a xlink:title=" ">
<path fill="none" stroke="#63b8ff" d="M899.87,-237.47C960.85,-233.41 1087.18,-222.25 1190.5,-195 1192.66,-194.43 1194.87,-193.76 1197.07,-193.04"/>
<polygon fill="#63b8ff" stroke="#63b8ff" points="1198.35,-196.3 1206.53,-189.57 1195.94,-189.72 1198.35,-196.3"/>
</a>
</g>
</g>
<!-- Node4 -->
<g id="Node000004" class="node">
<title>Node4</title>
<g id="a_Node000004"><a xlink:title=" ">
<polygon fill="#e0e0e0" stroke="#999999" points="1322,-189.5 1269,-189.5 1269,-170.5 1322,-170.5 1322,-189.5"/>
<text text-anchor="middle" x="1295.5" y="-177.5" font-family="Helvetica,sans-Serif" font-size="10.00">stdint.h</text>
</a>
</g>
</g>
<!-- Node2&#45;&gt;Node4 -->
<g id="edge3_Node000002_Node000004" class="edge">
<title>Node2&#45;&gt;Node4</title>
<g id="a_edge3_Node000002_Node000004"><a xlink:title=" ">
<path fill="none" stroke="#63b8ff" d="M899.54,-238.56C969.79,-236.05 1129.51,-227 1259.5,-195 1261.81,-194.43 1264.17,-193.75 1266.52,-193"/>
<polygon fill="#63b8ff" stroke="#63b8ff" points="1267.74,-196.29 1275.99,-189.64 1265.4,-189.69 1267.74,-196.29"/>
</a>
</g>
</g>
<!-- Node5 -->
<g id="Node000005" class="node">
<title>Node5</title>
<g id="a_Node000005"><a xlink:title=" ">
<polygon fill="#e0e0e0" stroke="#999999" points="1402.5,-189.5 1340.5,-189.5 1340.5,-170.5 1402.5,-170.5 1402.5,-189.5"/>
<text text-anchor="middle" x="1371.5" y="-177.5" font-family="Helvetica,sans-Serif" font-size="10.00">stdbool.h</text>
</a>
</g>
</g>
<!-- Node2&#45;&gt;Node5 -->
<g id="edge4_Node000002_Node000005" class="edge">
<title>Node2&#45;&gt;Node5</title>
<g id="a_edge4_Node000002_Node000005"><a xlink:title=" ">
<path fill="none" stroke="#63b8ff" d="M899.68,-238.92C978.73,-237.04 1172.45,-229.02 1330.5,-195 1333.56,-194.34 1336.71,-193.53 1339.85,-192.62"/>
<polygon fill="#63b8ff" stroke="#63b8ff" points="1341.16,-195.88 1349.64,-189.52 1339.05,-189.2 1341.16,-195.88"/>
</a>
</g>
</g>
<!-- Node6 -->
<g id="Node000006" class="node">
<title>Node6</title>
<g id="a_Node000006"><a xlink:title=" ">
<polygon fill="#e0e0e0" stroke="#999999" points="1476.5,-189.5 1420.5,-189.5 1420.5,-170.5 1476.5,-170.5 1476.5,-189.5"/>
<text text-anchor="middle" x="1448.5" y="-177.5" font-family="Helvetica,sans-Serif" font-size="10.00">stdarg.h</text>
</a>
</g>
</g>
<!-- Node2&#45;&gt;Node6 -->
<g id="edge5_Node000002_Node000006" class="edge">
<title>Node2&#45;&gt;Node6</title>
<g id="a_edge5_Node000002_Node000006"><a xlink:title=" ">
<path fill="none" stroke="#63b8ff" d="M899.61,-237.89C1005.42,-232.97 1313.37,-217.09 1411.5,-195 1414.02,-194.43 1416.6,-193.73 1419.17,-192.94"/>
<polygon fill="#63b8ff" stroke="#63b8ff" points="1420.53,-196.17 1428.84,-189.61 1418.25,-189.56 1420.53,-196.17"/>
</a>
</g>
</g>
<!-- Node7 -->
<g id="Node000007" class="node">
<title>Node7</title>
<g id="a_Node000007"><a xlink:title=" ">
<polygon fill="#e0e0e0" stroke="#999999" points="53,-189.5 0,-189.5 0,-170.5 53,-170.5 53,-189.5"/>
<text text-anchor="middle" x="26.5" y="-177.5" font-family="Helvetica,sans-Serif" font-size="10.00">limits.h</text>
</a>
</g>
</g>
<!-- Node2&#45;&gt;Node7 -->
<g id="edge6_Node000002_Node000007" class="edge">
<title>Node2&#45;&gt;Node7</title>
<g id="a_edge6_Node000002_Node000007"><a xlink:title=" ">
<path fill="none" stroke="#63b8ff" d="M827.48,-239C691.78,-236.89 211.56,-227.27 62.5,-195 59.98,-194.45 57.4,-193.76 54.84,-192.96"/>
<polygon fill="#63b8ff" stroke="#63b8ff" points="55.81,-189.59 45.21,-189.56 53.47,-196.19 55.81,-189.59"/>
</a>
</g>
</g>
<!-- Node8 -->
<g id="Node000008" class="node">
<title>Node8</title>
<g id="a_Node000008"><a xlink:title=" ">
<polygon fill="#e0e0e0" stroke="#999999" points="143.5,-189.5 71.5,-189.5 71.5,-170.5 143.5,-170.5 143.5,-189.5"/>
<text text-anchor="middle" x="107.5" y="-177.5" font-family="Helvetica,sans-Serif" font-size="10.00">SDL2/SDL.h</text>
</a>
</g>
</g>
<!-- Node2&#45;&gt;Node8 -->
<g id="edge7_Node000002_Node000008" class="edge">
<title>Node2&#45;&gt;Node8</title>
<g id="a_edge7_Node000002_Node000008"><a xlink:title=" ">
<path fill="none" stroke="#63b8ff" d="M827.35,-238.38C701.65,-234.31 284.17,-219.24 152.5,-195 148.82,-194.32 145.03,-193.44 141.27,-192.45"/>
<polygon fill="#63b8ff" stroke="#63b8ff" points="142.1,-189.05 131.52,-189.64 140.16,-195.77 142.1,-189.05"/>
</a>
</g>
</g>
<!-- Node9 -->
<g id="Node000009" class="node">
<title>Node9</title>
<g id="a_Node000009"><a xlink:title=" ">
<polygon fill="#e0e0e0" stroke="#999999" points="269.5,-189.5 161.5,-189.5 161.5,-170.5 269.5,-170.5 269.5,-189.5"/>
<text text-anchor="middle" x="215.5" y="-177.5" font-family="Helvetica,sans-Serif" font-size="10.00">SDL2/SDL_image.h</text>
</a>
</g>
</g>
<!-- Node2&#45;&gt;Node9 -->
<g id="edge8_Node000002_Node000009" class="edge">
<title>Node2&#45;&gt;Node9</title>
<g id="a_edge8_Node000002_Node000009"><a xlink:title=" ">
<path fill="none" stroke="#63b8ff" d="M827.35,-238.54C735.31,-235.72 484.79,-225.61 278.5,-195 272.32,-194.08 265.84,-192.9 259.49,-191.61"/>
<polygon fill="#63b8ff" stroke="#63b8ff" points="260.18,-188.18 249.67,-189.52 258.72,-195.03 260.18,-188.18"/>
</a>
</g>
</g>
<!-- Node10 -->
<g id="Node000010" class="node">
<title>Node10</title>
<g id="a_Node000010"><a xlink:title=" ">
<polygon fill="#e0e0e0" stroke="#999999" points="397.5,-189.5 287.5,-189.5 287.5,-170.5 397.5,-170.5 397.5,-189.5"/>
<text text-anchor="middle" x="342.5" y="-177.5" font-family="Helvetica,sans-Serif" font-size="10.00">SDL2/SDL_opengl.h</text>
</a>
</g>
</g>
<!-- Node2&#45;&gt;Node10 -->
<g id="edge9_Node000002_Node000010" class="edge">
<title>Node2&#45;&gt;Node10</title>
<g id="a_edge9_Node000002_Node000010"><a xlink:title=" ">
<path fill="none" stroke="#63b8ff" d="M827.47,-237.45C750.05,-232.71 562.22,-219.52 406.5,-195 400.53,-194.06 394.27,-192.91 388.11,-191.67"/>
<polygon fill="#63b8ff" stroke="#63b8ff" points="388.41,-188.15 377.9,-189.53 386.97,-195 388.41,-188.15"/>
</a>
</g>
</g>
<!-- Node11 -->
<g id="Node000011" class="node">
<title>Node11</title>
<g id="a_Node000011"><a xlink:title=" ">
<polygon fill="#e0e0e0" stroke="#999999" points="519.5,-189.5 415.5,-189.5 415.5,-170.5 519.5,-170.5 519.5,-189.5"/>
<text text-anchor="middle" x="467.5" y="-177.5" font-family="Helvetica,sans-Serif" font-size="10.00">SDL2/SDL_mixer.h</text>
</a>
</g>
</g>
<!-- Node2&#45;&gt;Node11 -->
<g id="edge10_Node000002_Node000011" class="edge">
<title>Node2&#45;&gt;Node11</title>
<g id="a_edge10_Node000002_Node000011"><a xlink:title=" ">
<path fill="none" stroke="#63b8ff" d="M827.14,-235.8C765.45,-229.26 636.46,-214.52 528.5,-195 523.15,-194.03 517.57,-192.91 512.04,-191.73"/>
<polygon fill="#63b8ff" stroke="#63b8ff" points="512.74,-188.3 502.22,-189.56 511.23,-195.13 512.74,-188.3"/>
</a>
</g>
</g>
<!-- Node12 -->
<g id="Node000012" class="node">
<title>Node12</title>
<g id="a_Node000012"><a xlink:title=" ">
<polygon fill="#e0e0e0" stroke="#999999" points="625.5,-189.5 537.5,-189.5 537.5,-170.5 625.5,-170.5 625.5,-189.5"/>
<text text-anchor="middle" x="581.5" y="-177.5" font-family="Helvetica,sans-Serif" font-size="10.00">SDL2/SDL_ttf.h</text>
</a>
</g>
</g>
<!-- Node2&#45;&gt;Node12 -->
<g id="edge11_Node000002_Node000012" class="edge">
<title>Node2&#45;&gt;Node12</title>
<g id="a_edge11_Node000002_Node000012"><a xlink:title=" ">
<path fill="none" stroke="#63b8ff" d="M827.25,-233.22C781.97,-225.21 702.21,-210.5 634.5,-195 630.59,-194.11 626.54,-193.13 622.49,-192.12"/>
<polygon fill="#63b8ff" stroke="#63b8ff" points="623.08,-188.65 612.52,-189.56 621.34,-195.43 623.08,-188.65"/>
</a>
</g>
</g>
<!-- Node13 -->
<g id="Node000013" class="node">
<title>Node13</title>
<g id="a_Node000013"><a xlink:title=" ">
<polygon fill="#e0e0e0" stroke="#999999" points="693.5,-189.5 643.5,-189.5 643.5,-170.5 693.5,-170.5 693.5,-189.5"/>
<text text-anchor="middle" x="668.5" y="-177.5" font-family="Helvetica,sans-Serif" font-size="10.00">GL/gl.h</text>
</a>
</g>
</g>
<!-- Node2&#45;&gt;Node13 -->
<g id="edge12_Node000002_Node000013" class="edge">
<title>Node2&#45;&gt;Node13</title>
<g id="a_edge12_Node000002_Node000013"><a xlink:title=" ">
<path fill="none" stroke="#63b8ff" d="M827.95,-230.99C795.07,-222.81 745.02,-209.57 702.5,-195 700.88,-194.45 699.23,-193.85 697.57,-193.24"/>
<polygon fill="#63b8ff" stroke="#63b8ff" points="698.71,-189.93 688.12,-189.55 696.17,-196.45 698.71,-189.93"/>
</a>
</g>
</g>
<!-- Node14 -->
<g id="Node000014" class="node">
<title>Node14</title>
<g id="a_Node000014"><a xlink:title=" ">
<polygon fill="#e0e0e0" stroke="#999999" points="767.5,-189.5 711.5,-189.5 711.5,-170.5 767.5,-170.5 767.5,-189.5"/>
<text text-anchor="middle" x="739.5" y="-177.5" font-family="Helvetica,sans-Serif" font-size="10.00">GL/glu.h</text>
</a>
</g>
</g>
<!-- Node2&#45;&gt;Node14 -->
<g id="edge13_Node000002_Node000014" class="edge">
<title>Node2&#45;&gt;Node14</title>
<g id="a_edge13_Node000002_Node000014"><a xlink:title=" ">
<path fill="none" stroke="#63b8ff" d="M845.47,-230.99C824.81,-221.25 790.72,-205.16 766.8,-193.88"/>
<polygon fill="#63b8ff" stroke="#63b8ff" points="768.09,-190.62 757.55,-189.52 765.1,-196.95 768.09,-190.62"/>
</a>
</g>
</g>
<!-- Node15 -->
<g id="Node000015" class="node">
<title>Node15</title>
<g id="a_Node000015"><a xlink:title=" ">
<polygon fill="#e0e0e0" stroke="#999999" points="851.5,-189.5 785.5,-189.5 785.5,-170.5 851.5,-170.5 851.5,-189.5"/>
<text text-anchor="middle" x="818.5" y="-177.5" font-family="Helvetica,sans-Serif" font-size="10.00">GL/glext.h</text>
</a>
</g>
</g>
<!-- Node2&#45;&gt;Node15 -->
<g id="edge14_Node000002_Node000015" class="edge">
<title>Node2&#45;&gt;Node15</title>
<g id="a_edge14_Node000002_Node000015"><a xlink:title=" ">
<path fill="none" stroke="#63b8ff" d="M856.86,-230.87C850.21,-222.23 839.81,-208.7 831.51,-197.92"/>
<polygon fill="#63b8ff" stroke="#63b8ff" points="834.04,-195.46 825.17,-189.67 828.49,-199.73 834.04,-195.46"/>
</a>
</g>
</g>
<!-- Node16 -->
<g id="Node000016" class="node">
<title>Node16</title>
<g id="a_Node000016"><a xlink:title=" ">
<polygon fill="#e0e0e0" stroke="#999999" points="947,-189.5 870,-189.5 870,-170.5 947,-170.5 947,-189.5"/>
<text text-anchor="middle" x="908.5" y="-177.5" font-family="Helvetica,sans-Serif" font-size="10.00">cglm/cglm.h</text>
</a>
</g>
</g>
<!-- Node2&#45;&gt;Node16 -->
<g id="edge15_Node000002_Node000016" class="edge">
<title>Node2&#45;&gt;Node16</title>
<g id="a_edge15_Node000002_Node000016"><a xlink:title=" ">
<path fill="none" stroke="#63b8ff" d="M870.14,-230.87C876.79,-222.23 887.19,-208.7 895.49,-197.92"/>
<polygon fill="#63b8ff" stroke="#63b8ff" points="898.51,-199.73 901.83,-189.67 892.96,-195.46 898.51,-199.73"/>
</a>
</g>
</g>
<!-- Node17 -->
<g id="Node000017" class="node">
<title>Node17</title>
<g id="a_Node000017"><a xlink:title=" ">
<polygon fill="#e0e0e0" stroke="#999999" points="1016,-189.5 965,-189.5 965,-170.5 1016,-170.5 1016,-189.5"/>
<text text-anchor="middle" x="990.5" y="-177.5" font-family="Helvetica,sans-Serif" font-size="10.00">math.h</text>
</a>
</g>
</g>
<!-- Node2&#45;&gt;Node17 -->
<g id="edge16_Node000002_Node000017" class="edge">
<title>Node2&#45;&gt;Node17</title>
<g id="a_edge16_Node000002_Node000017"><a xlink:title=" ">
<path fill="none" stroke="#63b8ff" d="M881.97,-230.99C903.22,-221.2 938.35,-205.02 962.87,-193.73"/>
<polygon fill="#63b8ff" stroke="#63b8ff" points="964.39,-196.88 972.01,-189.52 961.46,-190.52 964.39,-196.88"/>
</a>
</g>
</g>
<!-- Node18 -->
<g id="Node000018" class="node">
<title>Node18</title>
<g id="a_Node000018"><a xlink:href="stringio_8h.html" target="_top" xlink:title="Provides utility functions for string and file operations.">
<polygon fill="white" stroke="#666666" points="1108.5,-189.5 1034.5,-189.5 1034.5,-170.5 1108.5,-170.5 1108.5,-189.5"/>
<text text-anchor="middle" x="1071.5" y="-177.5" font-family="Helvetica,sans-Serif" font-size="10.00">io/stringio.h</text>
</a>
</g>
</g>
<!-- Node2&#45;&gt;Node18 -->
<g id="edge17_Node000002_Node000018" class="edge">
<title>Node2&#45;&gt;Node18</title>
<g id="a_edge17_Node000002_Node000018"><a xlink:title=" ">
<path fill="none" stroke="#63b8ff" d="M895.02,-230.99C927.51,-222.16 979.62,-207.88 1024.5,-195 1027.43,-194.16 1030.47,-193.28 1033.51,-192.38"/>
<polygon fill="#63b8ff" stroke="#63b8ff" points="1034.59,-195.72 1043.19,-189.53 1032.61,-189 1034.59,-195.72"/>
</a>
</g>
</g>
<!-- Node20 -->
<g id="Node000020" class="node">
<title>Node20</title>
<g id="a_Node000020"><a xlink:href="config_8h.html" target="_top" xlink:title=" ">
<polygon fill="white" stroke="#666666" points="1182,-189.5 1127,-189.5 1127,-170.5 1182,-170.5 1182,-189.5"/>
<text text-anchor="middle" x="1154.5" y="-177.5" font-family="Helvetica,sans-Serif" font-size="10.00">config.h</text>
</a>
</g>
</g>
<!-- Node2&#45;&gt;Node20 -->
<g id="edge19_Node000002_Node000020" class="edge">
<title>Node2&#45;&gt;Node20</title>
<g id="a_edge19_Node000002_Node000020"><a xlink:title=" ">
<path fill="none" stroke="#63b8ff" d="M899.73,-235.34C949.43,-229.13 1041.29,-215.89 1117.5,-195 1119.79,-194.37 1122.14,-193.66 1124.49,-192.89"/>
<polygon fill="#63b8ff" stroke="#63b8ff" points="1125.71,-196.17 1133.98,-189.55 1123.39,-189.57 1125.71,-196.17"/>
</a>
</g>
</g>
<!-- Node19 -->
<g id="Node000019" class="node">
<title>Node19</title>
<g id="a_Node000019"><a xlink:title=" ">
<polygon fill="#e0e0e0" stroke="#999999" points="1098,-129 1045,-129 1045,-110 1098,-110 1098,-129"/>
<text text-anchor="middle" x="1071.5" y="-117" font-family="Helvetica,sans-Serif" font-size="10.00">string.h</text>
</a>
</g>
</g>
<!-- Node18&#45;&gt;Node19 -->
<g id="edge18_Node000018_Node000019" class="edge">
<title>Node18&#45;&gt;Node19</title>
<g id="a_edge18_Node000018_Node000019"><a xlink:title=" ">
<path fill="none" stroke="#63b8ff" d="M1071.5,-170.37C1071.5,-162.25 1071.5,-149.81 1071.5,-139.39"/>
<polygon fill="#63b8ff" stroke="#63b8ff" points="1075,-139.17 1071.5,-129.17 1068,-139.17 1075,-139.17"/>
</a>
</g>
</g>
<!-- Node21 -->
<g id="Node000021" class="node">
<title>Node21</title>
<g id="a_Node000021"><a xlink:href="term_8h.html" target="_top" xlink:title=" ">
<polygon fill="white" stroke="#666666" points="1192,-129 1117,-129 1117,-110 1192,-110 1192,-129"/>
<text text-anchor="middle" x="1154.5" y="-117" font-family="Helvetica,sans-Serif" font-size="10.00">term/term.h</text>
</a>
</g>
</g>
<!-- Node20&#45;&gt;Node21 -->
<g id="edge20_Node000020_Node000021" class="edge">
<title>Node20&#45;&gt;Node21</title>
<g id="a_edge20_Node000020_Node000021"><a xlink:title=" ">
<path fill="none" stroke="#63b8ff" d="M1154.5,-170.37C1154.5,-162.25 1154.5,-149.81 1154.5,-139.39"/>
<polygon fill="#63b8ff" stroke="#63b8ff" points="1158,-139.17 1154.5,-129.17 1151,-139.17 1158,-139.17"/>
</a>
</g>
</g>
<!-- Node22 -->
<g id="Node000022" class="node">
<title>Node22</title>
<g id="a_Node000022"><a xlink:href="enhanced__print_8h.html" target="_top" xlink:title=" ">
<polygon fill="white" stroke="#666666" points="1205,-74 1104,-74 1104,-55 1205,-55 1205,-74"/>
<text text-anchor="middle" x="1154.5" y="-62" font-family="Helvetica,sans-Serif" font-size="10.00">enhanced_print.h</text>
</a>
</g>
</g>
<!-- Node21&#45;&gt;Node22 -->
<g id="edge21_Node000021_Node000022" class="edge">
<title>Node21&#45;&gt;Node22</title>
<g id="a_edge21_Node000021_Node000022"><a xlink:title=" ">
<path fill="none" stroke="#63b8ff" d="M1154.5,-109.75C1154.5,-102.8 1154.5,-92.85 1154.5,-84.13"/>
<polygon fill="#63b8ff" stroke="#63b8ff" points="1158,-84.09 1154.5,-74.09 1151,-84.09 1158,-84.09"/>
</a>
</g>
</g>
<!-- Node23 -->
<g id="Node000023" class="node">
<title>Node23</title>
<g id="a_Node000023"><a xlink:href="color_8h.html" target="_top" xlink:title=" ">
<polygon fill="white" stroke="#666666" points="1179,-19 1130,-19 1130,0 1179,0 1179,-19"/>
<text text-anchor="middle" x="1154.5" y="-7" font-family="Helvetica,sans-Serif" font-size="10.00">color.h</text>
</a>
</g>
</g>
<!-- Node22&#45;&gt;Node23 -->
<g id="edge22_Node000022_Node000023" class="edge">
<title>Node22&#45;&gt;Node23</title>
<g id="a_edge22_Node000022_Node000023"><a xlink:title=" ">
<path fill="none" stroke="#63b8ff" d="M1154.5,-54.75C1154.5,-47.8 1154.5,-37.85 1154.5,-29.13"/>
<polygon fill="#63b8ff" stroke="#63b8ff" points="1158,-29.09 1154.5,-19.09 1151,-29.09 1158,-29.09"/>
</a>
</g>
</g>
<!-- Node24&#45;&gt;Node2 -->
<g id="edge26_Node000024_Node000002" class="edge">
<title>Node24&#45;&gt;Node2</title>
<g id="a_edge26_Node000024_Node000002"><a xlink:title=" ">
<path fill="none" stroke="#63b8ff" d="M1021.55,-340.81C1031.3,-327.68 1046.3,-302.58 1033.5,-286 1018.45,-266.51 954.79,-253.9 909.8,-247.25"/>
<polygon fill="#63b8ff" stroke="#63b8ff" points="910.05,-243.75 899.66,-245.81 909.07,-250.68 910.05,-243.75"/>
</a>
</g>
</g>
<!-- Node25 -->
<g id="Node000025" class="node">
<title>Node25</title>
<g id="a_Node000025"><a xlink:href="classes__types_8h.html" target="_top" xlink:title=" ">
<polygon fill="white" stroke="#666666" points="907.5,-305 813.5,-305 813.5,-286 907.5,-286 907.5,-305"/>
<text text-anchor="middle" x="860.5" y="-293" font-family="Helvetica,sans-Serif" font-size="10.00">classes_types.h</text>
</a>
</g>
</g>
<!-- Node24&#45;&gt;Node25 -->
<g id="edge24_Node000024_Node000025" class="edge">
<title>Node24&#45;&gt;Node25</title>
<g id="a_edge24_Node000024_Node000025"><a xlink:title=" ">
<path fill="none" stroke="#63b8ff" d="M989.76,-340.98C964.13,-332.16 923.87,-318.31 895.09,-308.41"/>
<polygon fill="#63b8ff" stroke="#63b8ff" points="896.03,-305.03 885.44,-305.08 893.75,-311.65 896.03,-305.03"/>
</a>
</g>
</g>
<!-- Node26 -->
<g id="Node000026" class="node">
<title>Node26</title>
<g id="a_Node000026"><a xlink:title=" ">
<polygon fill="#e0e0e0" stroke="#999999" points="1025,-305 926,-305 926,-286 1025,-286 1025,-305"/>
<text text-anchor="middle" x="975.5" y="-293" font-family="Helvetica,sans-Serif" font-size="10.00">import_classes.h</text>
</a>
</g>
</g>
<!-- Node24&#45;&gt;Node26 -->
<g id="edge25_Node000024_Node000026" class="edge">
<title>Node24&#45;&gt;Node26</title>
<g id="a_edge25_Node000024_Node000026"><a xlink:title=" ">
<path fill="none" stroke="#63b8ff" d="M1008.06,-340.75C1002.61,-333.34 994.64,-322.5 987.94,-313.41"/>
<polygon fill="#63b8ff" stroke="#63b8ff" points="990.57,-311.07 981.82,-305.09 984.93,-315.22 990.57,-311.07"/>
</a>
</g>
</g>
<!-- Node29 -->
<g id="Node000029" class="node">
<title>Node29</title>
<g id="a_Node000029"><a xlink:href="shader_8h.html" target="_top" xlink:title=" ">
<polygon fill="white" stroke="#666666" points="1552.5,-189.5 1494.5,-189.5 1494.5,-170.5 1552.5,-170.5 1552.5,-189.5"/>
<text text-anchor="middle" x="1523.5" y="-177.5" font-family="Helvetica,sans-Serif" font-size="10.00">shader.h</text>
</a>
</g>
</g>
<!-- Node28&#45;&gt;Node29 -->
<g id="edge29_Node000028_Node000029" class="edge">
<title>Node28&#45;&gt;Node29</title>
<g id="a_edge29_Node000028_Node000029"><a xlink:title=" ">
<path fill="none" stroke="#63b8ff" d="M1642.29,-230.99C1618.82,-221.12 1579.89,-204.73 1553.04,-193.43"/>
<polygon fill="#63b8ff" stroke="#63b8ff" points="1554.31,-190.17 1543.74,-189.52 1551.6,-196.62 1554.31,-190.17"/>
</a>
</g>
</g>
<!-- Node30 -->
<g id="Node000030" class="node">
<title>Node30</title>
<g id="a_Node000030"><a xlink:href="model__loader_8h.html" target="_top" xlink:title=" ">
<polygon fill="white" stroke="#666666" points="1723.5,-195 1601.5,-195 1601.5,-165 1723.5,-165 1723.5,-195"/>
<text text-anchor="start" x="1609.5" y="-183" font-family="Helvetica,sans-Serif" font-size="10.00">model_loaders/model</text>
<text text-anchor="middle" x="1662.5" y="-172" font-family="Helvetica,sans-Serif" font-size="10.00">_loader.h</text>
</a>
</g>
</g>
<!-- Node28&#45;&gt;Node30 -->
<g id="edge30_Node000028_Node000030" class="edge">
<title>Node28&#45;&gt;Node30</title>
<g id="a_edge30_Node000028_Node000030"><a xlink:title=" ">
<path fill="none" stroke="#63b8ff" d="M1662.5,-230.87C1662.5,-224.11 1662.5,-214.35 1662.5,-205.26"/>
<polygon fill="#63b8ff" stroke="#63b8ff" points="1666,-205.11 1662.5,-195.11 1659,-205.11 1666,-205.11"/>
</a>
</g>
</g>
<!-- Node31 -->
<g id="Node000031" class="node">
<title>Node31</title>
<g id="a_Node000031"><a xlink:href="obj__loader_8h.html" target="_top" xlink:title=" ">
<polygon fill="white" stroke="#666666" points="1795.5,-129 1719.5,-129 1719.5,-110 1795.5,-110 1795.5,-129"/>
<text text-anchor="middle" x="1757.5" y="-117" font-family="Helvetica,sans-Serif" font-size="10.00">obj_loader.h</text>
</a>
</g>
</g>
<!-- Node30&#45;&gt;Node31 -->
<g id="edge31_Node000030_Node000031" class="edge">
<title>Node30&#45;&gt;Node31</title>
<g id="a_edge31_Node000030_Node000031"><a xlink:title=" ">
<path fill="none" stroke="#63b8ff" d="M1685.5,-164.84C1700.5,-155.6 1720,-143.59 1734.93,-134.4"/>
<polygon fill="#63b8ff" stroke="#63b8ff" points="1736.86,-137.32 1743.54,-129.09 1733.19,-131.36 1736.86,-137.32"/>
</a>
</g>
</g>
<!-- Node32 -->
<g id="Node000032" class="node">
<title>Node32</title>
<g id="a_Node000032"><a xlink:href="mtl__loader_8h.html" target="_top" xlink:title=" ">
<polygon fill="white" stroke="#666666" points="1606,-129 1529,-129 1529,-110 1606,-110 1606,-129"/>
<text text-anchor="middle" x="1567.5" y="-117" font-family="Helvetica,sans-Serif" font-size="10.00">mtl_loader.h</text>
</a>
</g>
</g>
<!-- Node30&#45;&gt;Node32 -->
<g id="edge32_Node000030_Node000032" class="edge">
<title>Node30&#45;&gt;Node32</title>
<g id="a_edge32_Node000030_Node000032"><a xlink:title=" ">
<path fill="none" stroke="#63b8ff" d="M1639.5,-164.84C1624.5,-155.6 1605,-143.59 1590.07,-134.4"/>
<polygon fill="#63b8ff" stroke="#63b8ff" points="1591.81,-131.36 1581.46,-129.09 1588.14,-137.32 1591.81,-131.36"/>
</a>
</g>
</g>
<!-- Node33 -->
<g id="Node000033" class="node">
<title>Node33</title>
<g id="a_Node000033"><a xlink:href="fbx__loader_8h.html" target="_top" xlink:title=" ">
<polygon fill="white" stroke="#666666" points="1701,-129 1624,-129 1624,-110 1701,-110 1701,-129"/>
<text text-anchor="middle" x="1662.5" y="-117" font-family="Helvetica,sans-Serif" font-size="10.00">fbx_loader.h</text>
</a>
</g>
</g>
<!-- Node30&#45;&gt;Node33 -->
<g id="edge33_Node000030_Node000033" class="edge">
<title>Node30&#45;&gt;Node33</title>
<g id="a_edge33_Node000030_Node000033"><a xlink:title=" ">
<path fill="none" stroke="#63b8ff" d="M1662.5,-164.84C1662.5,-157.21 1662.5,-147.7 1662.5,-139.45"/>
<polygon fill="#63b8ff" stroke="#63b8ff" points="1666,-139.27 1662.5,-129.27 1659,-139.27 1666,-139.27"/>
</a>
</g>
</g>
<!-- Node34&#45;&gt;Node29 -->
<g id="edge35_Node000034_Node000029" class="edge">
<title>Node34&#45;&gt;Node29</title>
<g id="a_edge35_Node000034_Node000029"><a xlink:title=" ">
<path fill="none" stroke="#63b8ff" d="M1414.66,-340.85C1428.24,-332.94 1447.47,-320.18 1460.5,-305 1468.02,-296.24 1499.48,-231.33 1514.9,-199.08"/>
<polygon fill="#63b8ff" stroke="#63b8ff" points="1518.15,-200.4 1519.3,-189.87 1511.83,-197.39 1518.15,-200.4"/>
</a>
</g>
</g>
<!-- Node35 -->
<g id="Node000035" class="node">
<title>Node35</title>
<g id="a_Node000035"><a xlink:href="camera_8h.html" target="_top" xlink:title=" ">
<polygon fill="white" stroke="#666666" points="1451.5,-305 1345.5,-305 1345.5,-286 1451.5,-286 1451.5,-305"/>
<text text-anchor="middle" x="1398.5" y="-293" font-family="Helvetica,sans-Serif" font-size="10.00">../render/camera.h</text>
</a>
</g>
</g>
<!-- Node34&#45;&gt;Node35 -->
<g id="edge36_Node000034_Node000035" class="edge">
<title>Node34&#45;&gt;Node35</title>
<g id="a_edge36_Node000034_Node000035"><a xlink:title=" ">
<path fill="none" stroke="#63b8ff" d="M1398.5,-340.75C1398.5,-333.8 1398.5,-323.85 1398.5,-315.13"/>
<polygon fill="#63b8ff" stroke="#63b8ff" points="1402,-315.09 1398.5,-305.09 1395,-315.09 1402,-315.09"/>
</a>
</g>
</g>
<!-- Node36 -->
<g id="Node000036" class="node">
<title>Node36</title>
<g id="a_Node000036"><a xlink:href="bodies_8h.html" target="_top" xlink:title=" ">
<polygon fill="white" stroke="#666666" points="1615,-305 1508,-305 1508,-286 1615,-286 1615,-305"/>
<text text-anchor="middle" x="1561.5" y="-293" font-family="Helvetica,sans-Serif" font-size="10.00">../physics/bodies.h</text>
</a>
</g>
</g>
<!-- Node34&#45;&gt;Node36 -->
<g id="edge40_Node000034_Node000036" class="edge">
<title>Node34&#45;&gt;Node36</title>
<g id="a_edge40_Node000034_Node000036"><a xlink:title=" ">
<path fill="none" stroke="#63b8ff" d="M1424.69,-340.98C1451.94,-332.13 1494.8,-318.19 1525.28,-308.28"/>
<polygon fill="#63b8ff" stroke="#63b8ff" points="1526.68,-311.5 1535.11,-305.08 1524.51,-304.85 1526.68,-311.5"/>
</a>
</g>
</g>
<!-- Node37 -->
<g id="Node000037" class="node">
<title>Node37</title>
<g id="a_Node000037"><a xlink:href="scripts_8h.html" target="_top" xlink:title=" ">
<polygon fill="white" stroke="#666666" points="1327.5,-305 1225.5,-305 1225.5,-286 1327.5,-286 1327.5,-305"/>
<text text-anchor="middle" x="1276.5" y="-293" font-family="Helvetica,sans-Serif" font-size="10.00">../scripts/scripts.h</text>
</a>
</g>
</g>
<!-- Node34&#45;&gt;Node37 -->
<g id="edge43_Node000034_Node000037" class="edge">
<title>Node34&#45;&gt;Node37</title>
<g id="a_edge43_Node000034_Node000037"><a xlink:title=" ">
<path fill="none" stroke="#63b8ff" d="M1378.9,-340.98C1359.18,-332.42 1328.55,-319.11 1305.92,-309.28"/>
<polygon fill="#63b8ff" stroke="#63b8ff" points="1307.02,-305.94 1296.46,-305.17 1304.24,-312.37 1307.02,-305.94"/>
</a>
</g>
</g>
<!-- Node34&#45;&gt;Node40 -->
<g id="edge46_Node000034_Node000040" class="edge">
<title>Node34&#45;&gt;Node40</title>
<g id="a_edge46_Node000034_Node000040"><a xlink:title=" ">
<path fill="none" stroke="#63b8ff" d="M1357.69,-340.98C1313.57,-331.78 1243.17,-317.09 1195.45,-307.13"/>
<polygon fill="#63b8ff" stroke="#63b8ff" points="1196.13,-303.7 1185.63,-305.08 1194.7,-310.55 1196.13,-303.7"/>
</a>
</g>
</g>
<!-- Node35&#45;&gt;Node2 -->
<g id="edge37_Node000035_Node000002" class="edge">
<title>Node35&#45;&gt;Node2</title>
<g id="a_edge37_Node000035_Node000002"><a xlink:title=" ">
<path fill="none" stroke="#63b8ff" d="M1345.42,-287.07C1342.4,-286.7 1339.41,-286.34 1336.5,-286 1180.37,-267.96 994.6,-252.12 909.82,-245.2"/>
<polygon fill="#63b8ff" stroke="#63b8ff" points="910,-241.7 899.75,-244.38 909.44,-248.68 910,-241.7"/>
</a>
</g>
</g>
<!-- Node35&#45;&gt;Node27 -->
<g id="edge38_Node000035_Node000027" class="edge">
<title>Node35&#45;&gt;Node27</title>
<g id="a_edge38_Node000035_Node000027"><a xlink:title=" ">
<path fill="none" stroke="#63b8ff" d="M1424.37,-285.98C1451.28,-277.13 1493.62,-263.19 1523.73,-253.28"/>
<polygon fill="#63b8ff" stroke="#63b8ff" points="1525.03,-256.53 1533.43,-250.08 1522.84,-249.88 1525.03,-256.53"/>
</a>
</g>
</g>
<!-- Node35&#45;&gt;Node29 -->
<g id="edge39_Node000035_Node000029" class="edge">
<title>Node35&#45;&gt;Node29</title>
<g id="a_edge39_Node000035_Node000029"><a xlink:title=" ">
<path fill="none" stroke="#63b8ff" d="M1407.48,-285.74C1420.21,-273.36 1444.34,-250.13 1465.5,-231 1478.67,-219.09 1493.89,-206 1505.43,-196.2"/>
<polygon fill="#63b8ff" stroke="#63b8ff" points="1507.73,-198.84 1513.1,-189.71 1503.21,-193.49 1507.73,-198.84"/>
</a>
</g>
</g>
<!-- Node36&#45;&gt;Node27 -->
<g id="edge41_Node000036_Node000027" class="edge">
<title>Node36&#45;&gt;Node27</title>
<g id="a_edge41_Node000036_Node000027"><a xlink:title=" ">
<path fill="none" stroke="#63b8ff" d="M1561.17,-285.75C1560.91,-278.8 1560.53,-268.85 1560.2,-260.13"/>
<polygon fill="#63b8ff" stroke="#63b8ff" points="1563.7,-259.95 1559.82,-250.09 1556.7,-260.21 1563.7,-259.95"/>
</a>
</g>
</g>
<!-- Node36&#45;&gt;Node28 -->
<g id="edge42_Node000036_Node000028" class="edge">
<title>Node36&#45;&gt;Node28</title>
<g id="a_edge42_Node000036_Node000028"><a xlink:title=" ">
<path fill="none" stroke="#63b8ff" d="M1577.73,-285.98C1593.68,-277.61 1618.28,-264.7 1636.88,-254.95"/>
<polygon fill="#63b8ff" stroke="#63b8ff" points="1638.75,-257.92 1645.98,-250.17 1635.5,-251.72 1638.75,-257.92"/>
</a>
</g>
</g>
<!-- Node38 -->
<g id="Node000038" class="node">
<title>Node38</title>
<g id="a_Node000038"><a xlink:href="input_8h.html" target="_top" xlink:title=" ">
<polygon fill="white" stroke="#666666" points="1204,-250 1133,-250 1133,-231 1204,-231 1204,-250"/>
<text text-anchor="middle" x="1168.5" y="-238" font-family="Helvetica,sans-Serif" font-size="10.00">../io/input.h</text>
</a>
</g>
</g>
<!-- Node37&#45;&gt;Node38 -->
<g id="edge44_Node000037_Node000038" class="edge">
<title>Node37&#45;&gt;Node38</title>
<g id="a_edge44_Node000037_Node000038"><a xlink:title=" ">
<path fill="none" stroke="#63b8ff" d="M1259.15,-285.98C1241.93,-277.54 1215.3,-264.47 1195.35,-254.68"/>
<polygon fill="#63b8ff" stroke="#63b8ff" points="1196.69,-251.43 1186.17,-250.17 1193.6,-257.72 1196.69,-251.43"/>
</a>
</g>
</g>
<!-- Node39 -->
<g id="Node000039" class="node">
<title>Node39</title>
<g id="a_Node000039"><a xlink:href="signals_8h.html" target="_top" xlink:title="Signal and slot system for C projects.">
<polygon fill="white" stroke="#666666" points="1306.5,-250 1246.5,-250 1246.5,-231 1306.5,-231 1306.5,-250"/>
<text text-anchor="middle" x="1276.5" y="-238" font-family="Helvetica,sans-Serif" font-size="10.00">signals.h</text>
</a>
</g>
</g>
<!-- Node37&#45;&gt;Node39 -->
<g id="edge45_Node000037_Node000039" class="edge">
<title>Node37&#45;&gt;Node39</title>
<g id="a_edge45_Node000037_Node000039"><a xlink:title=" ">
<path fill="none" stroke="#63b8ff" d="M1276.5,-285.75C1276.5,-278.8 1276.5,-268.85 1276.5,-260.13"/>
<polygon fill="#63b8ff" stroke="#63b8ff" points="1280,-260.09 1276.5,-250.09 1273,-260.09 1280,-260.09"/>
</a>
</g>
</g>
<!-- Node40&#45;&gt;Node38 -->
<g id="edge47_Node000040_Node000038" class="edge">
<title>Node40&#45;&gt;Node38</title>
<g id="a_edge47_Node000040_Node000038"><a xlink:title=" ">
<path fill="none" stroke="#63b8ff" d="M1148.46,-285.75C1151.71,-278.57 1156.42,-268.18 1160.45,-259.27"/>
<polygon fill="#63b8ff" stroke="#63b8ff" points="1163.67,-260.64 1164.61,-250.09 1157.3,-257.75 1163.67,-260.64"/>
</a>
</g>
</g>
</g>
</svg>
