<?xml version="1.0" encoding="UTF-8" standalone="no"?>
<!DOCTYPE svg PUBLIC "-//W3C//DTD SVG 1.1//EN"
 "http://www.w3.org/Graphics/SVG/1.1/DTD/svg11.dtd">
<!-- Generated by graphviz version 2.43.0 (0)
 -->
<!-- Title: src/utils/scene.c Pages: 1 -->
<svg width="1773pt" height="423pt"
 viewBox="0.00 0.00 1772.50 423.00" xmlns="http://www.w3.org/2000/svg" xmlns:xlink="http://www.w3.org/1999/xlink">
<g id="graph0" class="graph" transform="scale(1 1) rotate(0) translate(4 419)">
<title>src/utils/scene.c</title>
<!-- Node1 -->
<g id="Node000001" class="node">
<title>Node1</title>
<g id="a_Node000001"><a xlink:title=" ">
<polygon fill="#999999" stroke="#666666" points="704.5,-415 609.5,-415 609.5,-396 704.5,-396 704.5,-415"/>
<text text-anchor="middle" x="657" y="-403" font-family="Helvetica,sans-Serif" font-size="10.00">src/utils/scene.c</text>
</a>
</g>
</g>
<!-- Node2 -->
<g id="Node000002" class="node">
<title>Node2</title>
<g id="a_Node000002"><a xlink:href="raptiquax_8h.html" target="_top" xlink:title="This file contains type definitions for fixed&#45;width integer types and floating&#45;point types.">
<polygon fill="white" stroke="#666666" points="1064.5,-250 983.5,-250 983.5,-231 1064.5,-231 1064.5,-250"/>
<text text-anchor="middle" x="1024" y="-238" font-family="Helvetica,sans-Serif" font-size="10.00">../raptiquax.h</text>
</a>
</g>
</g>
<!-- Node1&#45;&gt;Node2 -->
<g id="edge1_Node000001_Node000002" class="edge">
<title>Node1&#45;&gt;Node2</title>
<g id="a_edge1_Node000001_Node000002"><a xlink:title=" ">
<path fill="none" stroke="#63b8ff" d="M704.83,-405.18C790.07,-405.32 963.22,-400.47 1005,-360 1031.72,-334.11 1030.41,-286.68 1027.17,-260.36"/>
<polygon fill="#63b8ff" stroke="#63b8ff" points="1030.6,-259.59 1025.69,-250.2 1023.67,-260.6 1030.6,-259.59"/>
</a>
</g>
</g>
<!-- Node24 -->
<g id="Node000024" class="node">
<title>Node24</title>
<g id="a_Node000024"><a xlink:href="math__util_8h.html" target="_top" xlink:title=" ">
<polygon fill="white" stroke="#666666" points="303,-250 193,-250 193,-231 303,-231 303,-250"/>
<text text-anchor="middle" x="248" y="-238" font-family="Helvetica,sans-Serif" font-size="10.00">../math/math_util.h</text>
</a>
</g>
</g>
<!-- Node1&#45;&gt;Node24 -->
<g id="edge23_Node000001_Node000024" class="edge">
<title>Node1&#45;&gt;Node24</title>
<g id="a_edge23_Node000001_Node000024"><a xlink:title=" ">
<path fill="none" stroke="#63b8ff" d="M609.37,-401.98C500.09,-395.09 236.77,-371.76 185,-305 170.36,-286.12 196.06,-267.01 218.9,-254.75"/>
<polygon fill="#63b8ff" stroke="#63b8ff" points="220.74,-257.75 228.07,-250.1 217.57,-251.51 220.74,-257.75"/>
</a>
</g>
</g>
<!-- Node25 -->
<g id="Node000025" class="node">
<title>Node25</title>
<g id="a_Node000025"><a xlink:href="model_8h.html" target="_top" xlink:title="Defines structures and functions for handling 3D models and their properties.">
<polygon fill="white" stroke="#666666" points="172.5,-250 95.5,-250 95.5,-231 172.5,-231 172.5,-250"/>
<text text-anchor="middle" x="134" y="-238" font-family="Helvetica,sans-Serif" font-size="10.00">../io/model.h</text>
</a>
</g>
</g>
<!-- Node1&#45;&gt;Node25 -->
<g id="edge24_Node000001_Node000025" class="edge">
<title>Node1&#45;&gt;Node25</title>
<g id="a_edge24_Node000001_Node000025"><a xlink:title=" ">
<path fill="none" stroke="#63b8ff" d="M609.33,-402.89C514.8,-399.13 307.11,-387.88 242,-360 194.6,-339.7 159.25,-286.73 143.33,-259"/>
<polygon fill="#63b8ff" stroke="#63b8ff" points="146.26,-257.08 138.35,-250.03 140.14,-260.48 146.26,-257.08"/>
</a>
</g>
</g>
<!-- Node31 -->
<g id="Node000031" class="node">
<title>Node31</title>
<g id="a_Node000031"><a xlink:href="framebuffer_8h.html" target="_top" xlink:title=" ">
<polygon fill="white" stroke="#666666" points="608,-305 482,-305 482,-286 608,-286 608,-305"/>
<text text-anchor="middle" x="545" y="-293" font-family="Helvetica,sans-Serif" font-size="10.00">../render/framebuffer.h</text>
</a>
</g>
</g>
<!-- Node1&#45;&gt;Node31 -->
<g id="edge30_Node000001_Node000031" class="edge">
<title>Node1&#45;&gt;Node31</title>
<g id="a_edge30_Node000001_Node000031"><a xlink:title=" ">
<path fill="none" stroke="#63b8ff" d="M647.83,-395.66C628.87,-377.38 585.11,-335.18 561.25,-312.17"/>
<polygon fill="#63b8ff" stroke="#63b8ff" points="563.61,-309.58 553.98,-305.16 558.75,-314.62 563.61,-309.58"/>
</a>
</g>
</g>
<!-- Node33 -->
<g id="Node000033" class="node">
<title>Node33</title>
<g id="a_Node000033"><a xlink:href="node_8h.html" target="_top" xlink:title=" ">
<polygon fill="white" stroke="#666666" points="531,-360 433,-360 433,-341 531,-341 531,-360"/>
<text text-anchor="middle" x="482" y="-348" font-family="Helvetica,sans-Serif" font-size="10.00">../storage/node.h</text>
</a>
</g>
</g>
<!-- Node1&#45;&gt;Node33 -->
<g id="edge32_Node000001_Node000033" class="edge">
<title>Node1&#45;&gt;Node33</title>
<g id="a_edge32_Node000001_Node000033"><a xlink:title=" ">
<path fill="none" stroke="#63b8ff" d="M628.88,-395.98C599.38,-387.05 552.81,-372.94 520.03,-363.02"/>
<polygon fill="#63b8ff" stroke="#63b8ff" points="520.92,-359.63 510.34,-360.08 518.89,-366.33 520.92,-359.63"/>
</a>
</g>
</g>
<!-- Node34 -->
<g id="Node000034" class="node">
<title>Node34</title>
<g id="a_Node000034"><a xlink:href="camera_8h.html" target="_top" xlink:title=" ">
<polygon fill="white" stroke="#666666" points="426,-305 320,-305 320,-286 426,-286 426,-305"/>
<text text-anchor="middle" x="373" y="-293" font-family="Helvetica,sans-Serif" font-size="10.00">../render/camera.h</text>
</a>
</g>
</g>
<!-- Node1&#45;&gt;Node34 -->
<g id="edge53_Node000001_Node000034" class="edge">
<title>Node1&#45;&gt;Node34</title>
<g id="a_edge53_Node000001_Node000034"><a xlink:title=" ">
<path fill="none" stroke="#63b8ff" d="M609.41,-404.83C559.77,-403.12 481.35,-394.49 424,-360 405.69,-348.99 391.22,-328.85 382.44,-314.19"/>
<polygon fill="#63b8ff" stroke="#63b8ff" points="385.27,-312.08 377.3,-305.11 379.18,-315.53 385.27,-312.08"/>
</a>
</g>
</g>
<!-- Node36 -->
<g id="Node000036" class="node">
<title>Node36</title>
<g id="a_Node000036"><a xlink:href="scripts_8h.html" target="_top" xlink:title=" ">
<polygon fill="white" stroke="#666666" points="728,-305 626,-305 626,-286 728,-286 728,-305"/>
<text text-anchor="middle" x="677" y="-293" font-family="Helvetica,sans-Serif" font-size="10.00">../scripts/scripts.h</text>
</a>
</g>
</g>
<!-- Node1&#45;&gt;Node36 -->
<g id="edge52_Node000001_Node000036" class="edge">
<title>Node1&#45;&gt;Node36</title>
<g id="a_edge52_Node000001_Node000036"><a xlink:title=" ">
<path fill="none" stroke="#63b8ff" d="M649.98,-395.78C640.96,-383.46 627.33,-360.3 635,-341 639.52,-329.63 648.47,-319.48 656.96,-311.76"/>
<polygon fill="#63b8ff" stroke="#63b8ff" points="659.41,-314.27 664.79,-305.14 654.89,-308.92 659.41,-314.27"/>
</a>
</g>
</g>
<!-- Node38 -->
<g id="Node000038" class="node">
<title>Node38</title>
<g id="a_Node000038"><a xlink:href="render_8h.html" target="_top" xlink:title=" ">
<polygon fill="white" stroke="#666666" points="872,-360 772,-360 772,-341 872,-341 872,-360"/>
<text text-anchor="middle" x="822" y="-348" font-family="Helvetica,sans-Serif" font-size="10.00">../render/render.h</text>
</a>
</g>
</g>
<!-- Node1&#45;&gt;Node38 -->
<g id="edge45_Node000001_Node000038" class="edge">
<title>Node1&#45;&gt;Node38</title>
<g id="a_edge45_Node000001_Node000038"><a xlink:title=" ">
<path fill="none" stroke="#63b8ff" d="M683.51,-395.98C711.21,-387.09 754.86,-373.07 785.74,-363.15"/>
<polygon fill="#63b8ff" stroke="#63b8ff" points="786.83,-366.47 795.28,-360.08 784.69,-359.81 786.83,-366.47"/>
</a>
</g>
</g>
<!-- Node39 -->
<g id="Node000039" class="node">
<title>Node39</title>
<g id="a_Node000039"><a xlink:href="lighting_8h.html" target="_top" xlink:title=" ">
<polygon fill="white" stroke="#666666" points="996,-360 890,-360 890,-341 996,-341 996,-360"/>
<text text-anchor="middle" x="943" y="-348" font-family="Helvetica,sans-Serif" font-size="10.00">../render/lighting.h</text>
</a>
</g>
</g>
<!-- Node1&#45;&gt;Node39 -->
<g id="edge46_Node000001_Node000039" class="edge">
<title>Node1&#45;&gt;Node39</title>
<g id="a_edge46_Node000001_Node000039"><a xlink:title=" ">
<path fill="none" stroke="#63b8ff" d="M702.95,-395.98C752.94,-386.72 832.89,-371.9 886.64,-361.94"/>
<polygon fill="#63b8ff" stroke="#63b8ff" points="887.49,-365.35 896.69,-360.08 886.22,-358.46 887.49,-365.35"/>
</a>
</g>
</g>
<!-- Node40 -->
<g id="Node000040" class="node">
<title>Node40</title>
<g id="a_Node000040"><a xlink:href="classes_8h.html" target="_top" xlink:title=" ">
<polygon fill="white" stroke="#666666" points="754,-360 644,-360 644,-341 754,-341 754,-360"/>
<text text-anchor="middle" x="699" y="-348" font-family="Helvetica,sans-Serif" font-size="10.00">../classes/classes.h</text>
</a>
</g>
</g>
<!-- Node1&#45;&gt;Node40 -->
<g id="edge47_Node000001_Node000040" class="edge">
<title>Node1&#45;&gt;Node40</title>
<g id="a_edge47_Node000001_Node000040"><a xlink:title=" ">
<path fill="none" stroke="#63b8ff" d="M663.94,-395.75C669.87,-388.26 678.57,-377.28 685.82,-368.13"/>
<polygon fill="#63b8ff" stroke="#63b8ff" points="688.73,-370.1 692.19,-360.09 683.24,-365.75 688.73,-370.1"/>
</a>
</g>
</g>
<!-- Node43 -->
<g id="Node000043" class="node">
<title>Node43</title>
<g id="a_Node000043"><a xlink:href="scene__loader_8h.html" target="_top" xlink:title=" ">
<polygon fill="white" stroke="#666666" points="1162,-360 1052,-360 1052,-341 1162,-341 1162,-360"/>
<text text-anchor="middle" x="1107" y="-348" font-family="Helvetica,sans-Serif" font-size="10.00">../io/scene_loader.h</text>
</a>
</g>
</g>
<!-- Node1&#45;&gt;Node43 -->
<g id="edge51_Node000001_Node000043" class="edge">
<title>Node1&#45;&gt;Node43</title>
<g id="a_edge51_Node000001_Node000043"><a xlink:title=" ">
<path fill="none" stroke="#63b8ff" d="M704.53,-399.05C776.64,-390.75 917.99,-374.4 1038,-360 1039.11,-359.87 1040.23,-359.73 1041.35,-359.6"/>
<polygon fill="#63b8ff" stroke="#63b8ff" points="1042.14,-363.03 1051.64,-358.35 1041.29,-356.08 1042.14,-363.03"/>
</a>
</g>
</g>
<!-- Node44 -->
<g id="Node000044" class="node">
<title>Node44</title>
<g id="a_Node000044"><a xlink:href="queue_8h.html" target="_top" xlink:title="Queue data structure and related operations.">
<polygon fill="white" stroke="#666666" points="1284,-360 1180,-360 1180,-341 1284,-341 1284,-360"/>
<text text-anchor="middle" x="1232" y="-348" font-family="Helvetica,sans-Serif" font-size="10.00">../storage/queue.h</text>
</a>
</g>
</g>
<!-- Node1&#45;&gt;Node44 -->
<g id="edge54_Node000001_Node000044" class="edge">
<title>Node1&#45;&gt;Node44</title>
<g id="a_edge54_Node000001_Node000044"><a xlink:title=" ">
<path fill="none" stroke="#63b8ff" d="M704.56,-401.21C793.68,-394.88 992.12,-379.91 1169.73,-360.09"/>
<polygon fill="#63b8ff" stroke="#63b8ff" points="1170.23,-363.55 1179.78,-358.96 1169.45,-356.6 1170.23,-363.55"/>
</a>
</g>
</g>
<!-- Node3 -->
<g id="Node000003" class="node">
<title>Node3</title>
<g id="a_Node000003"><a xlink:title=" ">
<polygon fill="#e0e0e0" stroke="#999999" points="1693,-189.5 1643,-189.5 1643,-170.5 1693,-170.5 1693,-189.5"/>
<text text-anchor="middle" x="1668" y="-177.5" font-family="Helvetica,sans-Serif" font-size="10.00">stdio.h</text>
</a>
</g>
</g>
<!-- Node2&#45;&gt;Node3 -->
<g id="edge2_Node000002_Node000003" class="edge">
<title>Node2&#45;&gt;Node3</title>
<g id="a_edge2_Node000002_Node000003"><a xlink:title=" ">
<path fill="none" stroke="#63b8ff" d="M1064.65,-238.21C1182.9,-234.21 1525.23,-220.67 1634,-195 1636.22,-194.48 1638.48,-193.83 1640.74,-193.09"/>
<polygon fill="#63b8ff" stroke="#63b8ff" points="1642.21,-196.28 1650.35,-189.51 1639.76,-189.72 1642.21,-196.28"/>
</a>
</g>
</g>
<!-- Node4 -->
<g id="Node000004" class="node">
<title>Node4</title>
<g id="a_Node000004"><a xlink:title=" ">
<polygon fill="#e0e0e0" stroke="#999999" points="1764.5,-189.5 1711.5,-189.5 1711.5,-170.5 1764.5,-170.5 1764.5,-189.5"/>
<text text-anchor="middle" x="1738" y="-177.5" font-family="Helvetica,sans-Serif" font-size="10.00">stdint.h</text>
</a>
</g>
</g>
<!-- Node2&#45;&gt;Node4 -->
<g id="edge3_Node000002_Node000004" class="edge">
<title>Node2&#45;&gt;Node4</title>
<g id="a_edge3_Node000002_Node000004"><a xlink:title=" ">
<path fill="none" stroke="#63b8ff" d="M1064.58,-238.46C1191.43,-234.94 1579.35,-222.2 1702,-195 1704.52,-194.44 1707.1,-193.73 1709.66,-192.93"/>
<polygon fill="#63b8ff" stroke="#63b8ff" points="1711.02,-196.16 1719.28,-189.52 1708.69,-189.57 1711.02,-196.16"/>
</a>
</g>
</g>
<!-- Node5 -->
<g id="Node000005" class="node">
<title>Node5</title>
<g id="a_Node000005"><a xlink:title=" ">
<polygon fill="#e0e0e0" stroke="#999999" points="350,-189.5 288,-189.5 288,-170.5 350,-170.5 350,-189.5"/>
<text text-anchor="middle" x="319" y="-177.5" font-family="Helvetica,sans-Serif" font-size="10.00">stdbool.h</text>
</a>
</g>
</g>
<!-- Node2&#45;&gt;Node5 -->
<g id="edge4_Node000002_Node000005" class="edge">
<title>Node2&#45;&gt;Node5</title>
<g id="a_edge4_Node000002_Node000005"><a xlink:title=" ">
<path fill="none" stroke="#63b8ff" d="M983.36,-238.22C858.14,-234.03 479.45,-219.64 359,-195 356,-194.39 352.91,-193.6 349.85,-192.72"/>
<polygon fill="#63b8ff" stroke="#63b8ff" points="350.88,-189.37 340.29,-189.64 348.74,-196.04 350.88,-189.37"/>
</a>
</g>
</g>
<!-- Node6 -->
<g id="Node000006" class="node">
<title>Node6</title>
<g id="a_Node000006"><a xlink:title=" ">
<polygon fill="#e0e0e0" stroke="#999999" points="424,-189.5 368,-189.5 368,-170.5 424,-170.5 424,-189.5"/>
<text text-anchor="middle" x="396" y="-177.5" font-family="Helvetica,sans-Serif" font-size="10.00">stdarg.h</text>
</a>
</g>
</g>
<!-- Node2&#45;&gt;Node6 -->
<g id="edge5_Node000002_Node000006" class="edge">
<title>Node2&#45;&gt;Node6</title>
<g id="a_edge5_Node000002_Node000006"><a xlink:title=" ">
<path fill="none" stroke="#63b8ff" d="M983.42,-237.96C867.81,-233.32 538.35,-218.39 433,-195 430.48,-194.44 427.9,-193.74 425.33,-192.96"/>
<polygon fill="#63b8ff" stroke="#63b8ff" points="426.25,-189.57 415.65,-189.63 423.97,-196.19 426.25,-189.57"/>
</a>
</g>
</g>
<!-- Node7 -->
<g id="Node000007" class="node">
<title>Node7</title>
<g id="a_Node000007"><a xlink:title=" ">
<polygon fill="#e0e0e0" stroke="#999999" points="495.5,-189.5 442.5,-189.5 442.5,-170.5 495.5,-170.5 495.5,-189.5"/>
<text text-anchor="middle" x="469" y="-177.5" font-family="Helvetica,sans-Serif" font-size="10.00">limits.h</text>
</a>
</g>
</g>
<!-- Node2&#45;&gt;Node7 -->
<g id="edge6_Node000002_Node000007" class="edge">
<title>Node2&#45;&gt;Node7</title>
<g id="a_edge6_Node000002_Node000007"><a xlink:title=" ">
<path fill="none" stroke="#63b8ff" d="M983.34,-239.92C895.05,-239.99 679.64,-235.56 505,-195 502.63,-194.45 500.21,-193.77 497.8,-193.02"/>
<polygon fill="#63b8ff" stroke="#63b8ff" points="498.7,-189.63 488.11,-189.6 496.37,-196.23 498.7,-189.63"/>
</a>
</g>
</g>
<!-- Node8 -->
<g id="Node000008" class="node">
<title>Node8</title>
<g id="a_Node000008"><a xlink:title=" ">
<polygon fill="#e0e0e0" stroke="#999999" points="586,-189.5 514,-189.5 514,-170.5 586,-170.5 586,-189.5"/>
<text text-anchor="middle" x="550" y="-177.5" font-family="Helvetica,sans-Serif" font-size="10.00">SDL2/SDL.h</text>
</a>
</g>
</g>
<!-- Node2&#45;&gt;Node8 -->
<g id="edge7_Node000002_Node000008" class="edge">
<title>Node2&#45;&gt;Node8</title>
<g id="a_edge7_Node000002_Node000008"><a xlink:title=" ">
<path fill="none" stroke="#63b8ff" d="M983.37,-237.97C906.73,-234.49 735.83,-223.91 595,-195 591.53,-194.29 587.94,-193.42 584.38,-192.46"/>
<polygon fill="#63b8ff" stroke="#63b8ff" points="585.11,-189.02 574.53,-189.6 583.15,-195.75 585.11,-189.02"/>
</a>
</g>
</g>
<!-- Node9 -->
<g id="Node000009" class="node">
<title>Node9</title>
<g id="a_Node000009"><a xlink:title=" ">
<polygon fill="#e0e0e0" stroke="#999999" points="712,-189.5 604,-189.5 604,-170.5 712,-170.5 712,-189.5"/>
<text text-anchor="middle" x="658" y="-177.5" font-family="Helvetica,sans-Serif" font-size="10.00">SDL2/SDL_image.h</text>
</a>
</g>
</g>
<!-- Node2&#45;&gt;Node9 -->
<g id="edge8_Node000002_Node000009" class="edge">
<title>Node2&#45;&gt;Node9</title>
<g id="a_edge8_Node000002_Node000009"><a xlink:title=" ">
<path fill="none" stroke="#63b8ff" d="M983.17,-234.46C924.82,-227.05 814.33,-212.2 721,-195 715.56,-194 709.87,-192.86 704.24,-191.68"/>
<polygon fill="#63b8ff" stroke="#63b8ff" points="704.73,-188.2 694.22,-189.52 703.26,-195.05 704.73,-188.2"/>
</a>
</g>
</g>
<!-- Node10 -->
<g id="Node000010" class="node">
<title>Node10</title>
<g id="a_Node000010"><a xlink:title=" ">
<polygon fill="#e0e0e0" stroke="#999999" points="840,-189.5 730,-189.5 730,-170.5 840,-170.5 840,-189.5"/>
<text text-anchor="middle" x="785" y="-177.5" font-family="Helvetica,sans-Serif" font-size="10.00">SDL2/SDL_opengl.h</text>
</a>
</g>
</g>
<!-- Node2&#45;&gt;Node10 -->
<g id="edge9_Node000002_Node000010" class="edge">
<title>Node2&#45;&gt;Node10</title>
<g id="a_edge9_Node000002_Node000010"><a xlink:title=" ">
<path fill="none" stroke="#63b8ff" d="M989.25,-230.99C947.03,-220.66 875.75,-203.21 829.54,-191.9"/>
<polygon fill="#63b8ff" stroke="#63b8ff" points="830.34,-188.49 819.79,-189.52 828.68,-195.29 830.34,-188.49"/>
</a>
</g>
</g>
<!-- Node11 -->
<g id="Node000011" class="node">
<title>Node11</title>
<g id="a_Node000011"><a xlink:title=" ">
<polygon fill="#e0e0e0" stroke="#999999" points="962,-189.5 858,-189.5 858,-170.5 962,-170.5 962,-189.5"/>
<text text-anchor="middle" x="910" y="-177.5" font-family="Helvetica,sans-Serif" font-size="10.00">SDL2/SDL_mixer.h</text>
</a>
</g>
</g>
<!-- Node2&#45;&gt;Node11 -->
<g id="edge10_Node000002_Node000011" class="edge">
<title>Node2&#45;&gt;Node11</title>
<g id="a_edge10_Node000002_Node000011"><a xlink:title=" ">
<path fill="none" stroke="#63b8ff" d="M1007.18,-230.87C988.4,-221.23 957.8,-205.53 935.95,-194.31"/>
<polygon fill="#63b8ff" stroke="#63b8ff" points="937.39,-191.12 926.89,-189.67 934.19,-197.35 937.39,-191.12"/>
</a>
</g>
</g>
<!-- Node12 -->
<g id="Node000012" class="node">
<title>Node12</title>
<g id="a_Node000012"><a xlink:title=" ">
<polygon fill="#e0e0e0" stroke="#999999" points="1068,-189.5 980,-189.5 980,-170.5 1068,-170.5 1068,-189.5"/>
<text text-anchor="middle" x="1024" y="-177.5" font-family="Helvetica,sans-Serif" font-size="10.00">SDL2/SDL_ttf.h</text>
</a>
</g>
</g>
<!-- Node2&#45;&gt;Node12 -->
<g id="edge11_Node000002_Node000012" class="edge">
<title>Node2&#45;&gt;Node12</title>
<g id="a_edge11_Node000002_Node000012"><a xlink:title=" ">
<path fill="none" stroke="#63b8ff" d="M1024,-230.87C1024,-222.75 1024,-210.31 1024,-199.89"/>
<polygon fill="#63b8ff" stroke="#63b8ff" points="1027.5,-199.67 1024,-189.67 1020.5,-199.67 1027.5,-199.67"/>
</a>
</g>
</g>
<!-- Node13 -->
<g id="Node000013" class="node">
<title>Node13</title>
<g id="a_Node000013"><a xlink:title=" ">
<polygon fill="#e0e0e0" stroke="#999999" points="1136,-189.5 1086,-189.5 1086,-170.5 1136,-170.5 1136,-189.5"/>
<text text-anchor="middle" x="1111" y="-177.5" font-family="Helvetica,sans-Serif" font-size="10.00">GL/gl.h</text>
</a>
</g>
</g>
<!-- Node2&#45;&gt;Node13 -->
<g id="edge12_Node000002_Node000013" class="edge">
<title>Node2&#45;&gt;Node13</title>
<g id="a_edge12_Node000002_Node000013"><a xlink:title=" ">
<path fill="none" stroke="#63b8ff" d="M1036.84,-230.87C1050.72,-221.54 1073.07,-206.51 1089.61,-195.38"/>
<polygon fill="#63b8ff" stroke="#63b8ff" points="1091.76,-198.15 1098.11,-189.67 1087.86,-192.34 1091.76,-198.15"/>
</a>
</g>
</g>
<!-- Node14 -->
<g id="Node000014" class="node">
<title>Node14</title>
<g id="a_Node000014"><a xlink:title=" ">
<polygon fill="#e0e0e0" stroke="#999999" points="1210,-189.5 1154,-189.5 1154,-170.5 1210,-170.5 1210,-189.5"/>
<text text-anchor="middle" x="1182" y="-177.5" font-family="Helvetica,sans-Serif" font-size="10.00">GL/glu.h</text>
</a>
</g>
</g>
<!-- Node2&#45;&gt;Node14 -->
<g id="edge13_Node000002_Node000014" class="edge">
<title>Node2&#45;&gt;Node14</title>
<g id="a_edge13_Node000002_Node000014"><a xlink:title=" ">
<path fill="none" stroke="#63b8ff" d="M1047.67,-230.87C1072.08,-221.95 1111.24,-207.6 1145,-195 1146.59,-194.41 1148.22,-193.8 1149.87,-193.18"/>
<polygon fill="#63b8ff" stroke="#63b8ff" points="1151.19,-196.42 1159.31,-189.62 1148.72,-189.87 1151.19,-196.42"/>
</a>
</g>
</g>
<!-- Node15 -->
<g id="Node000015" class="node">
<title>Node15</title>
<g id="a_Node000015"><a xlink:title=" ">
<polygon fill="#e0e0e0" stroke="#999999" points="1294,-189.5 1228,-189.5 1228,-170.5 1294,-170.5 1294,-189.5"/>
<text text-anchor="middle" x="1261" y="-177.5" font-family="Helvetica,sans-Serif" font-size="10.00">GL/glext.h</text>
</a>
</g>
</g>
<!-- Node2&#45;&gt;Node15 -->
<g id="edge14_Node000002_Node000015" class="edge">
<title>Node2&#45;&gt;Node15</title>
<g id="a_edge14_Node000002_Node000015"><a xlink:title=" ">
<path fill="none" stroke="#63b8ff" d="M1064.62,-231.43C1104.27,-223.28 1166.17,-209.8 1219,-195 1221.62,-194.27 1224.31,-193.47 1227.01,-192.64"/>
<polygon fill="#63b8ff" stroke="#63b8ff" points="1228.23,-195.92 1236.69,-189.55 1226.1,-189.26 1228.23,-195.92"/>
</a>
</g>
</g>
<!-- Node16 -->
<g id="Node000016" class="node">
<title>Node16</title>
<g id="a_Node000016"><a xlink:title=" ">
<polygon fill="#e0e0e0" stroke="#999999" points="1389.5,-189.5 1312.5,-189.5 1312.5,-170.5 1389.5,-170.5 1389.5,-189.5"/>
<text text-anchor="middle" x="1351" y="-177.5" font-family="Helvetica,sans-Serif" font-size="10.00">cglm/cglm.h</text>
</a>
</g>
</g>
<!-- Node2&#45;&gt;Node16 -->
<g id="edge15_Node000002_Node000016" class="edge">
<title>Node2&#45;&gt;Node16</title>
<g id="a_edge15_Node000002_Node000016"><a xlink:title=" ">
<path fill="none" stroke="#63b8ff" d="M1064.97,-234.6C1119.63,-227.7 1219.25,-213.81 1303,-195 1306.64,-194.18 1310.42,-193.24 1314.18,-192.25"/>
<polygon fill="#63b8ff" stroke="#63b8ff" points="1315.29,-195.57 1323.99,-189.52 1313.42,-188.82 1315.29,-195.57"/>
</a>
</g>
</g>
<!-- Node17 -->
<g id="Node000017" class="node">
<title>Node17</title>
<g id="a_Node000017"><a xlink:title=" ">
<polygon fill="#e0e0e0" stroke="#999999" points="1458.5,-189.5 1407.5,-189.5 1407.5,-170.5 1458.5,-170.5 1458.5,-189.5"/>
<text text-anchor="middle" x="1433" y="-177.5" font-family="Helvetica,sans-Serif" font-size="10.00">math.h</text>
</a>
</g>
</g>
<!-- Node2&#45;&gt;Node17 -->
<g id="edge16_Node000002_Node000017" class="edge">
<title>Node2&#45;&gt;Node17</title>
<g id="a_edge16_Node000002_Node000017"><a xlink:title=" ">
<path fill="none" stroke="#63b8ff" d="M1064.62,-238.29C1134.17,-235.42 1280.03,-225.93 1399,-195 1400.95,-194.49 1402.93,-193.9 1404.91,-193.25"/>
<polygon fill="#63b8ff" stroke="#63b8ff" points="1406.46,-196.41 1414.61,-189.64 1404.01,-189.85 1406.46,-196.41"/>
</a>
</g>
</g>
<!-- Node18 -->
<g id="Node000018" class="node">
<title>Node18</title>
<g id="a_Node000018"><a xlink:href="stringio_8h.html" target="_top" xlink:title="Provides utility functions for string and file operations.">
<polygon fill="white" stroke="#666666" points="1551,-189.5 1477,-189.5 1477,-170.5 1551,-170.5 1551,-189.5"/>
<text text-anchor="middle" x="1514" y="-177.5" font-family="Helvetica,sans-Serif" font-size="10.00">io/stringio.h</text>
</a>
</g>
</g>
<!-- Node2&#45;&gt;Node18 -->
<g id="edge17_Node000002_Node000018" class="edge">
<title>Node2&#45;&gt;Node18</title>
<g id="a_edge17_Node000002_Node000018"><a xlink:title=" ">
<path fill="none" stroke="#63b8ff" d="M1064.8,-238.08C1143.48,-234.74 1321.4,-224.36 1468,-195 1471.65,-194.27 1475.43,-193.37 1479.18,-192.38"/>
<polygon fill="#63b8ff" stroke="#63b8ff" points="1480.26,-195.71 1488.92,-189.6 1478.34,-188.97 1480.26,-195.71"/>
</a>
</g>
</g>
<!-- Node20 -->
<g id="Node000020" class="node">
<title>Node20</title>
<g id="a_Node000020"><a xlink:href="config_8h.html" target="_top" xlink:title=" ">
<polygon fill="white" stroke="#666666" points="1624.5,-189.5 1569.5,-189.5 1569.5,-170.5 1624.5,-170.5 1624.5,-189.5"/>
<text text-anchor="middle" x="1597" y="-177.5" font-family="Helvetica,sans-Serif" font-size="10.00">config.h</text>
</a>
</g>
</g>
<!-- Node2&#45;&gt;Node20 -->
<g id="edge19_Node000002_Node000020" class="edge">
<title>Node2&#45;&gt;Node20</title>
<g id="a_edge19_Node000002_Node000020"><a xlink:title=" ">
<path fill="none" stroke="#63b8ff" d="M1064.59,-239.96C1154.84,-240.14 1378.53,-236.02 1560,-195 1562.52,-194.43 1565.1,-193.73 1567.67,-192.94"/>
<polygon fill="#63b8ff" stroke="#63b8ff" points="1569.03,-196.17 1577.34,-189.6 1566.75,-189.55 1569.03,-196.17"/>
</a>
</g>
</g>
<!-- Node19 -->
<g id="Node000019" class="node">
<title>Node19</title>
<g id="a_Node000019"><a xlink:title=" ">
<polygon fill="#e0e0e0" stroke="#999999" points="1540.5,-129 1487.5,-129 1487.5,-110 1540.5,-110 1540.5,-129"/>
<text text-anchor="middle" x="1514" y="-117" font-family="Helvetica,sans-Serif" font-size="10.00">string.h</text>
</a>
</g>
</g>
<!-- Node18&#45;&gt;Node19 -->
<g id="edge18_Node000018_Node000019" class="edge">
<title>Node18&#45;&gt;Node19</title>
<g id="a_edge18_Node000018_Node000019"><a xlink:title=" ">
<path fill="none" stroke="#63b8ff" d="M1514,-170.37C1514,-162.25 1514,-149.81 1514,-139.39"/>
<polygon fill="#63b8ff" stroke="#63b8ff" points="1517.5,-139.17 1514,-129.17 1510.5,-139.17 1517.5,-139.17"/>
</a>
</g>
</g>
<!-- Node21 -->
<g id="Node000021" class="node">
<title>Node21</title>
<g id="a_Node000021"><a xlink:href="term_8h.html" target="_top" xlink:title=" ">
<polygon fill="white" stroke="#666666" points="1634.5,-129 1559.5,-129 1559.5,-110 1634.5,-110 1634.5,-129"/>
<text text-anchor="middle" x="1597" y="-117" font-family="Helvetica,sans-Serif" font-size="10.00">term/term.h</text>
</a>
</g>
</g>
<!-- Node20&#45;&gt;Node21 -->
<g id="edge20_Node000020_Node000021" class="edge">
<title>Node20&#45;&gt;Node21</title>
<g id="a_edge20_Node000020_Node000021"><a xlink:title=" ">
<path fill="none" stroke="#63b8ff" d="M1597,-170.37C1597,-162.25 1597,-149.81 1597,-139.39"/>
<polygon fill="#63b8ff" stroke="#63b8ff" points="1600.5,-139.17 1597,-129.17 1593.5,-139.17 1600.5,-139.17"/>
</a>
</g>
</g>
<!-- Node22 -->
<g id="Node000022" class="node">
<title>Node22</title>
<g id="a_Node000022"><a xlink:href="enhanced__print_8h.html" target="_top" xlink:title=" ">
<polygon fill="white" stroke="#666666" points="1647.5,-74 1546.5,-74 1546.5,-55 1647.5,-55 1647.5,-74"/>
<text text-anchor="middle" x="1597" y="-62" font-family="Helvetica,sans-Serif" font-size="10.00">enhanced_print.h</text>
</a>
</g>
</g>
<!-- Node21&#45;&gt;Node22 -->
<g id="edge21_Node000021_Node000022" class="edge">
<title>Node21&#45;&gt;Node22</title>
<g id="a_edge21_Node000021_Node000022"><a xlink:title=" ">
<path fill="none" stroke="#63b8ff" d="M1597,-109.75C1597,-102.8 1597,-92.85 1597,-84.13"/>
<polygon fill="#63b8ff" stroke="#63b8ff" points="1600.5,-84.09 1597,-74.09 1593.5,-84.09 1600.5,-84.09"/>
</a>
</g>
</g>
<!-- Node23 -->
<g id="Node000023" class="node">
<title>Node23</title>
<g id="a_Node000023"><a xlink:href="color_8h.html" target="_top" xlink:title=" ">
<polygon fill="white" stroke="#666666" points="1621.5,-19 1572.5,-19 1572.5,0 1621.5,0 1621.5,-19"/>
<text text-anchor="middle" x="1597" y="-7" font-family="Helvetica,sans-Serif" font-size="10.00">color.h</text>
</a>
</g>
</g>
<!-- Node22&#45;&gt;Node23 -->
<g id="edge22_Node000022_Node000023" class="edge">
<title>Node22&#45;&gt;Node23</title>
<g id="a_edge22_Node000022_Node000023"><a xlink:title=" ">
<path fill="none" stroke="#63b8ff" d="M1597,-54.75C1597,-47.8 1597,-37.85 1597,-29.13"/>
<polygon fill="#63b8ff" stroke="#63b8ff" points="1600.5,-29.09 1597,-19.09 1593.5,-29.09 1600.5,-29.09"/>
</a>
</g>
</g>
<!-- Node26 -->
<g id="Node000026" class="node">
<title>Node26</title>
<g id="a_Node000026"><a xlink:href="shader_8h.html" target="_top" xlink:title=" ">
<polygon fill="white" stroke="#666666" points="270,-189.5 212,-189.5 212,-170.5 270,-170.5 270,-189.5"/>
<text text-anchor="middle" x="241" y="-177.5" font-family="Helvetica,sans-Serif" font-size="10.00">shader.h</text>
</a>
</g>
</g>
<!-- Node25&#45;&gt;Node26 -->
<g id="edge25_Node000025_Node000026" class="edge">
<title>Node25&#45;&gt;Node26</title>
<g id="a_edge25_Node000025_Node000026"><a xlink:title=" ">
<path fill="none" stroke="#63b8ff" d="M149.79,-230.87C167.33,-221.28 195.88,-205.67 216.37,-194.47"/>
<polygon fill="#63b8ff" stroke="#63b8ff" points="218.05,-197.54 225.15,-189.67 214.69,-191.39 218.05,-197.54"/>
</a>
</g>
</g>
<!-- Node27 -->
<g id="Node000027" class="node">
<title>Node27</title>
<g id="a_Node000027"><a xlink:href="model__loader_8h.html" target="_top" xlink:title=" ">
<polygon fill="white" stroke="#666666" points="194,-195 72,-195 72,-165 194,-165 194,-195"/>
<text text-anchor="start" x="80" y="-183" font-family="Helvetica,sans-Serif" font-size="10.00">model_loaders/model</text>
<text text-anchor="middle" x="133" y="-172" font-family="Helvetica,sans-Serif" font-size="10.00">_loader.h</text>
</a>
</g>
</g>
<!-- Node25&#45;&gt;Node27 -->
<g id="edge26_Node000025_Node000027" class="edge">
<title>Node25&#45;&gt;Node27</title>
<g id="a_edge26_Node000025_Node000027"><a xlink:title=" ">
<path fill="none" stroke="#63b8ff" d="M133.85,-230.87C133.74,-224.11 133.57,-214.35 133.41,-205.26"/>
<polygon fill="#63b8ff" stroke="#63b8ff" points="136.91,-205.05 133.24,-195.11 129.91,-205.17 136.91,-205.05"/>
</a>
</g>
</g>
<!-- Node28 -->
<g id="Node000028" class="node">
<title>Node28</title>
<g id="a_Node000028"><a xlink:href="obj__loader_8h.html" target="_top" xlink:title=" ">
<polygon fill="white" stroke="#666666" points="76,-129 0,-129 0,-110 76,-110 76,-129"/>
<text text-anchor="middle" x="38" y="-117" font-family="Helvetica,sans-Serif" font-size="10.00">obj_loader.h</text>
</a>
</g>
</g>
<!-- Node27&#45;&gt;Node28 -->
<g id="edge27_Node000027_Node000028" class="edge">
<title>Node27&#45;&gt;Node28</title>
<g id="a_edge27_Node000027_Node000028"><a xlink:title=" ">
<path fill="none" stroke="#63b8ff" d="M110,-164.84C95,-155.6 75.5,-143.59 60.57,-134.4"/>
<polygon fill="#63b8ff" stroke="#63b8ff" points="62.31,-131.36 51.96,-129.09 58.64,-137.32 62.31,-131.36"/>
</a>
</g>
</g>
<!-- Node29 -->
<g id="Node000029" class="node">
<title>Node29</title>
<g id="a_Node000029"><a xlink:href="mtl__loader_8h.html" target="_top" xlink:title=" ">
<polygon fill="white" stroke="#666666" points="171.5,-129 94.5,-129 94.5,-110 171.5,-110 171.5,-129"/>
<text text-anchor="middle" x="133" y="-117" font-family="Helvetica,sans-Serif" font-size="10.00">mtl_loader.h</text>
</a>
</g>
</g>
<!-- Node27&#45;&gt;Node29 -->
<g id="edge28_Node000027_Node000029" class="edge">
<title>Node27&#45;&gt;Node29</title>
<g id="a_edge28_Node000027_Node000029"><a xlink:title=" ">
<path fill="none" stroke="#63b8ff" d="M133,-164.84C133,-157.21 133,-147.7 133,-139.45"/>
<polygon fill="#63b8ff" stroke="#63b8ff" points="136.5,-139.27 133,-129.27 129.5,-139.27 136.5,-139.27"/>
</a>
</g>
</g>
<!-- Node30 -->
<g id="Node000030" class="node">
<title>Node30</title>
<g id="a_Node000030"><a xlink:href="fbx__loader_8h.html" target="_top" xlink:title=" ">
<polygon fill="white" stroke="#666666" points="266.5,-129 189.5,-129 189.5,-110 266.5,-110 266.5,-129"/>
<text text-anchor="middle" x="228" y="-117" font-family="Helvetica,sans-Serif" font-size="10.00">fbx_loader.h</text>
</a>
</g>
</g>
<!-- Node27&#45;&gt;Node30 -->
<g id="edge29_Node000027_Node000030" class="edge">
<title>Node27&#45;&gt;Node30</title>
<g id="a_edge29_Node000027_Node000030"><a xlink:title=" ">
<path fill="none" stroke="#63b8ff" d="M156,-164.84C171,-155.6 190.5,-143.59 205.43,-134.4"/>
<polygon fill="#63b8ff" stroke="#63b8ff" points="207.36,-137.32 214.04,-129.09 203.69,-131.36 207.36,-137.32"/>
</a>
</g>
</g>
<!-- Node32 -->
<g id="Node000032" class="node">
<title>Node32</title>
<g id="a_Node000032"><a xlink:href="input_8h.html" target="_top" xlink:title=" ">
<polygon fill="white" stroke="#666666" points="604.5,-250 533.5,-250 533.5,-231 604.5,-231 604.5,-250"/>
<text text-anchor="middle" x="569" y="-238" font-family="Helvetica,sans-Serif" font-size="10.00">../io/input.h</text>
</a>
</g>
</g>
<!-- Node31&#45;&gt;Node32 -->
<g id="edge31_Node000031_Node000032" class="edge">
<title>Node31&#45;&gt;Node32</title>
<g id="a_edge31_Node000031_Node000032"><a xlink:title=" ">
<path fill="none" stroke="#63b8ff" d="M548.96,-285.75C552.21,-278.57 556.92,-268.18 560.95,-259.27"/>
<polygon fill="#63b8ff" stroke="#63b8ff" points="564.17,-260.64 565.11,-250.09 557.8,-257.75 564.17,-260.64"/>
</a>
</g>
</g>
<!-- Node33&#45;&gt;Node26 -->
<g id="edge33_Node000033_Node000026" class="edge">
<title>Node33&#45;&gt;Node26</title>
<g id="a_edge33_Node000033_Node000026"><a xlink:title=" ">
<path fill="none" stroke="#63b8ff" d="M477.19,-340.78C469.6,-327.61 453.76,-302.47 435,-286 385.41,-242.47 314.7,-209.97 273.75,-193.38"/>
<polygon fill="#63b8ff" stroke="#63b8ff" points="274.85,-190.04 264.26,-189.6 272.26,-196.55 274.85,-190.04"/>
</a>
</g>
</g>
<!-- Node33&#45;&gt;Node31 -->
<g id="edge44_Node000033_Node000031" class="edge">
<title>Node33&#45;&gt;Node31</title>
<g id="a_edge44_Node000033_Node000031"><a xlink:title=" ">
<path fill="none" stroke="#63b8ff" d="M492.12,-340.98C501.44,-333.15 515.47,-321.34 526.74,-311.86"/>
<polygon fill="#63b8ff" stroke="#63b8ff" points="529.29,-314.29 534.69,-305.17 524.79,-308.93 529.29,-314.29"/>
</a>
</g>
</g>
<!-- Node33&#45;&gt;Node34 -->
<g id="edge34_Node000033_Node000034" class="edge">
<title>Node33&#45;&gt;Node34</title>
<g id="a_edge34_Node000033_Node000034"><a xlink:title=" ">
<path fill="none" stroke="#63b8ff" d="M464.49,-340.98C447.03,-332.5 419.99,-319.35 399.83,-309.54"/>
<polygon fill="#63b8ff" stroke="#63b8ff" points="401.36,-306.4 390.83,-305.17 398.29,-312.69 401.36,-306.4"/>
</a>
</g>
</g>
<!-- Node35 -->
<g id="Node000035" class="node">
<title>Node35</title>
<g id="a_Node000035"><a xlink:href="bodies_8h.html" target="_top" xlink:title=" ">
<polygon fill="white" stroke="#666666" points="301.5,-305 194.5,-305 194.5,-286 301.5,-286 301.5,-305"/>
<text text-anchor="middle" x="248" y="-293" font-family="Helvetica,sans-Serif" font-size="10.00">../physics/bodies.h</text>
</a>
</g>
</g>
<!-- Node33&#45;&gt;Node35 -->
<g id="edge38_Node000033_Node000035" class="edge">
<title>Node33&#45;&gt;Node35</title>
<g id="a_edge38_Node000033_Node000035"><a xlink:title=" ">
<path fill="none" stroke="#63b8ff" d="M444.4,-340.98C404.01,-331.84 339.72,-317.27 295.77,-307.32"/>
<polygon fill="#63b8ff" stroke="#63b8ff" points="296.42,-303.88 285.89,-305.08 294.87,-310.7 296.42,-303.88"/>
</a>
</g>
</g>
<!-- Node33&#45;&gt;Node36 -->
<g id="edge41_Node000033_Node000036" class="edge">
<title>Node33&#45;&gt;Node36</title>
<g id="a_edge41_Node000033_Node000036"><a xlink:title=" ">
<path fill="none" stroke="#63b8ff" d="M513.33,-340.98C546.49,-331.97 599,-317.7 635.56,-307.76"/>
<polygon fill="#63b8ff" stroke="#63b8ff" points="636.69,-311.08 645.42,-305.08 634.86,-304.33 636.69,-311.08"/>
</a>
</g>
</g>
<!-- Node34&#45;&gt;Node2 -->
<g id="edge35_Node000034_Node000002" class="edge">
<title>Node34&#45;&gt;Node2</title>
<g id="a_edge35_Node000034_Node000002"><a xlink:title=" ">
<path fill="none" stroke="#63b8ff" d="M426.19,-289.94C441.32,-288.65 457.81,-287.26 473,-286 657.1,-270.74 875.86,-253.27 973.08,-245.54"/>
<polygon fill="#63b8ff" stroke="#63b8ff" points="973.52,-249.02 983.21,-244.74 972.97,-242.04 973.52,-249.02"/>
</a>
</g>
</g>
<!-- Node34&#45;&gt;Node24 -->
<g id="edge36_Node000034_Node000024" class="edge">
<title>Node34&#45;&gt;Node24</title>
<g id="a_edge36_Node000034_Node000024"><a xlink:title=" ">
<path fill="none" stroke="#63b8ff" d="M352.92,-285.98C332.63,-277.38 301.04,-263.99 277.83,-254.15"/>
<polygon fill="#63b8ff" stroke="#63b8ff" points="279.02,-250.85 268.45,-250.17 276.29,-257.3 279.02,-250.85"/>
</a>
</g>
</g>
<!-- Node34&#45;&gt;Node26 -->
<g id="edge37_Node000034_Node000026" class="edge">
<title>Node34&#45;&gt;Node26</title>
<g id="a_edge37_Node000034_Node000026"><a xlink:title=" ">
<path fill="none" stroke="#63b8ff" d="M365.58,-285.77C354.55,-273.04 332.88,-248.93 312,-231 296.71,-217.87 278.02,-204.81 263.66,-195.34"/>
<polygon fill="#63b8ff" stroke="#63b8ff" points="265.21,-192.18 254.92,-189.66 261.4,-198.05 265.21,-192.18"/>
</a>
</g>
</g>
<!-- Node35&#45;&gt;Node24 -->
<g id="edge39_Node000035_Node000024" class="edge">
<title>Node35&#45;&gt;Node24</title>
<g id="a_edge39_Node000035_Node000024"><a xlink:title=" ">
<path fill="none" stroke="#63b8ff" d="M248,-285.75C248,-278.8 248,-268.85 248,-260.13"/>
<polygon fill="#63b8ff" stroke="#63b8ff" points="251.5,-260.09 248,-250.09 244.5,-260.09 251.5,-260.09"/>
</a>
</g>
</g>
<!-- Node35&#45;&gt;Node25 -->
<g id="edge40_Node000035_Node000025" class="edge">
<title>Node35&#45;&gt;Node25</title>
<g id="a_edge40_Node000035_Node000025"><a xlink:title=" ">
<path fill="none" stroke="#63b8ff" d="M229.68,-285.98C211.34,-277.46 182.89,-264.23 161.77,-254.41"/>
<polygon fill="#63b8ff" stroke="#63b8ff" points="163.19,-251.21 152.65,-250.17 160.24,-257.56 163.19,-251.21"/>
</a>
</g>
</g>
<!-- Node36&#45;&gt;Node32 -->
<g id="edge42_Node000036_Node000032" class="edge">
<title>Node36&#45;&gt;Node32</title>
<g id="a_edge42_Node000036_Node000032"><a xlink:title=" ">
<path fill="none" stroke="#63b8ff" d="M659.65,-285.98C642.43,-277.54 615.8,-264.47 595.85,-254.68"/>
<polygon fill="#63b8ff" stroke="#63b8ff" points="597.19,-251.43 586.67,-250.17 594.1,-257.72 597.19,-251.43"/>
</a>
</g>
</g>
<!-- Node37 -->
<g id="Node000037" class="node">
<title>Node37</title>
<g id="a_Node000037"><a xlink:href="signals_8h.html" target="_top" xlink:title="Signal and slot system for C projects.">
<polygon fill="white" stroke="#666666" points="707,-250 647,-250 647,-231 707,-231 707,-250"/>
<text text-anchor="middle" x="677" y="-238" font-family="Helvetica,sans-Serif" font-size="10.00">signals.h</text>
</a>
</g>
</g>
<!-- Node36&#45;&gt;Node37 -->
<g id="edge43_Node000036_Node000037" class="edge">
<title>Node36&#45;&gt;Node37</title>
<g id="a_edge43_Node000036_Node000037"><a xlink:title=" ">
<path fill="none" stroke="#63b8ff" d="M677,-285.75C677,-278.8 677,-268.85 677,-260.13"/>
<polygon fill="#63b8ff" stroke="#63b8ff" points="680.5,-260.09 677,-250.09 673.5,-260.09 680.5,-260.09"/>
</a>
</g>
</g>
<!-- Node40&#45;&gt;Node2 -->
<g id="edge50_Node000040_Node000002" class="edge">
<title>Node40&#45;&gt;Node2</title>
<g id="a_edge50_Node000040_Node000002"><a xlink:title=" ">
<path fill="none" stroke="#63b8ff" d="M706.56,-340.89C719.36,-326.93 746.75,-299.54 776,-286 839.88,-256.43 921.44,-246.45 973.21,-243.12"/>
<polygon fill="#63b8ff" stroke="#63b8ff" points="973.69,-246.6 983.47,-242.52 973.29,-239.61 973.69,-246.6"/>
</a>
</g>
</g>
<!-- Node41 -->
<g id="Node000041" class="node">
<title>Node41</title>
<g id="a_Node000041"><a xlink:href="classes__types_8h.html" target="_top" xlink:title=" ">
<polygon fill="white" stroke="#666666" points="996,-305 902,-305 902,-286 996,-286 996,-305"/>
<text text-anchor="middle" x="949" y="-293" font-family="Helvetica,sans-Serif" font-size="10.00">classes_types.h</text>
</a>
</g>
</g>
<!-- Node40&#45;&gt;Node41 -->
<g id="edge48_Node000040_Node000041" class="edge">
<title>Node40&#45;&gt;Node41</title>
<g id="a_edge48_Node000040_Node000041"><a xlink:title=" ">
<path fill="none" stroke="#63b8ff" d="M739.17,-340.98C782.5,-331.8 851.59,-317.15 898.56,-307.19"/>
<polygon fill="#63b8ff" stroke="#63b8ff" points="899.46,-310.58 908.52,-305.08 898.01,-303.73 899.46,-310.58"/>
</a>
</g>
</g>
<!-- Node42 -->
<g id="Node000042" class="node">
<title>Node42</title>
<g id="a_Node000042"><a xlink:title=" ">
<polygon fill="#e0e0e0" stroke="#999999" points="883.5,-305 784.5,-305 784.5,-286 883.5,-286 883.5,-305"/>
<text text-anchor="middle" x="834" y="-293" font-family="Helvetica,sans-Serif" font-size="10.00">import_classes.h</text>
</a>
</g>
</g>
<!-- Node40&#45;&gt;Node42 -->
<g id="edge49_Node000040_Node000042" class="edge">
<title>Node40&#45;&gt;Node42</title>
<g id="a_edge49_Node000040_Node000042"><a xlink:title=" ">
<path fill="none" stroke="#63b8ff" d="M720.69,-340.98C742.8,-332.3 777.32,-318.75 802.45,-308.88"/>
<polygon fill="#63b8ff" stroke="#63b8ff" points="803.89,-312.08 811.92,-305.17 801.33,-305.57 803.89,-312.08"/>
</a>
</g>
</g>
</g>
</svg>
