<?xml version="1.0" encoding="UTF-8" standalone="no"?>
<!DOCTYPE svg PUBLIC "-//W3C//DTD SVG 1.1//EN"
 "http://www.w3.org/Graphics/SVG/1.1/DTD/svg11.dtd">
<!-- Generated by graphviz version 2.43.0 (0)
 -->
<!-- Title: src/scripts/scripts.h Pages: 1 -->
<svg width="7423pt" height="148pt"
 viewBox="0.00 0.00 7423.00 148.00" xmlns="http://www.w3.org/2000/svg" xmlns:xlink="http://www.w3.org/1999/xlink">
<g id="graph0" class="graph" transform="scale(1 1) rotate(0) translate(4 144)">
<title>src/scripts/scripts.h</title>
<!-- Node1 -->
<g id="Node000001" class="node">
<title>Node1</title>
<g id="a_Node000001"><a xlink:title=" ">
<polygon fill="#999999" stroke="#666666" points="305.5,-140 195.5,-140 195.5,-121 305.5,-121 305.5,-140"/>
<text text-anchor="middle" x="250.5" y="-128" font-family="Helvetica,sans-Serif" font-size="10.00">src/scripts/scripts.h</text>
</a>
</g>
</g>
<!-- Node2 -->
<g id="Node000002" class="node">
<title>Node2</title>
<g id="a_Node000002"><a xlink:href="main_8c.html" target="_top" xlink:title=" ">
<polygon fill="white" stroke="#666666" points="67,-24.5 0,-24.5 0,-5.5 67,-5.5 67,-24.5"/>
<text text-anchor="middle" x="33.5" y="-12.5" font-family="Helvetica,sans-Serif" font-size="10.00">src/main.c</text>
</a>
</g>
</g>
<!-- Node1&#45;&gt;Node2 -->
<g id="edge1_Node000001_Node000002" class="edge">
<title>Node1&#45;&gt;Node2</title>
<g id="a_edge1_Node000001_Node000002"><a xlink:title=" ">
<path fill="none" stroke="#63b8ff" d="M225.09,-116.21C180.11,-92.68 87.65,-44.32 50,-24.63"/>
<polygon fill="#63b8ff" stroke="#63b8ff" points="223.71,-119.44 234.19,-120.97 226.95,-113.23 223.71,-119.44"/>
</a>
</g>
</g>
<!-- Node3 -->
<g id="Node000003" class="node">
<title>Node3</title>
<g id="a_Node000003"><a xlink:href="raptiquax_8c.html" target="_top" xlink:title=" ">
<polygon fill="white" stroke="#666666" points="174,-24.5 85,-24.5 85,-5.5 174,-5.5 174,-24.5"/>
<text text-anchor="middle" x="129.5" y="-12.5" font-family="Helvetica,sans-Serif" font-size="10.00">src/raptiquax.c</text>
</a>
</g>
</g>
<!-- Node1&#45;&gt;Node3 -->
<g id="edge2_Node000001_Node000003" class="edge">
<title>Node1&#45;&gt;Node3</title>
<g id="a_edge2_Node000001_Node000003"><a xlink:title=" ">
<path fill="none" stroke="#63b8ff" d="M233.89,-113.92C208.04,-89.67 159.03,-43.7 138.7,-24.63"/>
<polygon fill="#63b8ff" stroke="#63b8ff" points="231.72,-116.68 241.41,-120.97 236.51,-111.57 231.72,-116.68"/>
</a>
</g>
</g>
<!-- Node4 -->
<g id="Node000004" class="node">
<title>Node4</title>
<g id="a_Node000004"><a xlink:href="chessboard_8h.html" target="_top" xlink:title=" ">
<polygon fill="white" stroke="#666666" points="309,-30 192,-30 192,0 309,0 309,-30"/>
<text text-anchor="start" x="200" y="-18" font-family="Helvetica,sans-Serif" font-size="10.00">src/scripts/fps_chess</text>
<text text-anchor="middle" x="250.5" y="-7" font-family="Helvetica,sans-Serif" font-size="10.00">/chessboard.h</text>
</a>
</g>
</g>
<!-- Node1&#45;&gt;Node4 -->
<g id="edge3_Node000001_Node000004" class="edge">
<title>Node1&#45;&gt;Node4</title>
<g id="a_edge3_Node000001_Node000004"><a xlink:title=" ">
<path fill="none" stroke="#63b8ff" d="M250.5,-110.96C250.5,-88.34 250.5,-50.61 250.5,-30.18"/>
<polygon fill="#63b8ff" stroke="#63b8ff" points="247,-110.97 250.5,-120.97 254,-110.97 247,-110.97"/>
</a>
</g>
</g>
<!-- Node5 -->
<g id="Node000005" class="node">
<title>Node5</title>
<g id="a_Node000005"><a xlink:href="node_8h.html" target="_top" xlink:title=" ">
<polygon fill="#fff0f0" stroke="red" points="3696,-85 3589,-85 3589,-66 3696,-66 3696,-85"/>
<text text-anchor="middle" x="3642.5" y="-73" font-family="Helvetica,sans-Serif" font-size="10.00">src/storage/node.h</text>
</a>
</g>
</g>
<!-- Node1&#45;&gt;Node5 -->
<g id="edge4_Node000001_Node000005" class="edge">
<title>Node1&#45;&gt;Node5</title>
<g id="a_edge4_Node000001_Node000005"><a xlink:title=" ">
<path fill="none" stroke="#63b8ff" d="M315.63,-128.48C747.61,-121.73 3194.48,-83.5 3588.84,-77.34"/>
<polygon fill="#63b8ff" stroke="#63b8ff" points="315.44,-124.98 305.5,-128.64 315.55,-131.98 315.44,-124.98"/>
</a>
</g>
</g>
<!-- Node52 -->
<g id="Node000052" class="node">
<title>Node52</title>
<g id="a_Node000052"><a xlink:href="scene_8c.html" target="_top" xlink:title=" ">
<polygon fill="white" stroke="#666666" points="7415,-24.5 7320,-24.5 7320,-5.5 7415,-5.5 7415,-24.5"/>
<text text-anchor="middle" x="7367.5" y="-12.5" font-family="Helvetica,sans-Serif" font-size="10.00">src/utils/scene.c</text>
</a>
</g>
</g>
<!-- Node1&#45;&gt;Node52 -->
<g id="edge53_Node000001_Node000052" class="edge">
<title>Node1&#45;&gt;Node52</title>
<g id="a_edge53_Node000001_Node000052"><a xlink:title=" ">
<path fill="none" stroke="#63b8ff" d="M316.33,-129.49C987.5,-129.22 6579.28,-124.15 7310.5,-30 7319.6,-28.83 7329.34,-26.75 7338.16,-24.55"/>
<polygon fill="#63b8ff" stroke="#63b8ff" points="315.89,-125.99 305.89,-129.49 315.89,-132.99 315.89,-125.99"/>
</a>
</g>
</g>
<!-- Node5&#45;&gt;Node2 -->
<g id="edge44_Node000005_Node000002" class="edge">
<title>Node5&#45;&gt;Node2</title>
<g id="a_edge44_Node000005_Node000002"><a xlink:title=" ">
<path fill="none" stroke="#63b8ff" d="M3578.54,-74.26C3112.72,-72.47 254.95,-60.27 75.5,-30 68.68,-28.85 61.46,-26.78 54.97,-24.57"/>
<polygon fill="#63b8ff" stroke="#63b8ff" points="3578.76,-77.76 3588.78,-74.3 3578.79,-70.76 3578.76,-77.76"/>
</a>
</g>
</g>
<!-- Node5&#45;&gt;Node3 -->
<g id="edge48_Node000005_Node000003" class="edge">
<title>Node5&#45;&gt;Node3</title>
<g id="a_edge48_Node000005_Node000003"><a xlink:title=" ">
<path fill="none" stroke="#63b8ff" d="M3578.84,-74.62C3136.69,-75.34 530.94,-77.53 182.5,-30 174.01,-28.84 164.94,-26.77 156.75,-24.57"/>
<polygon fill="#63b8ff" stroke="#63b8ff" points="3578.88,-78.12 3588.88,-74.6 3578.87,-71.12 3578.88,-78.12"/>
</a>
</g>
</g>
<!-- Node5&#45;&gt;Node4 -->
<g id="edge51_Node000005_Node000004" class="edge">
<title>Node5&#45;&gt;Node4</title>
<g id="a_edge51_Node000005_Node000004"><a xlink:title=" ">
<path fill="none" stroke="#63b8ff" d="M3578.66,-74.37C3146.27,-73.43 653.67,-66.41 318.5,-30 315.5,-29.67 312.45,-29.28 309.36,-28.83"/>
<polygon fill="#63b8ff" stroke="#63b8ff" points="3578.78,-77.87 3588.79,-74.4 3578.79,-70.87 3578.78,-77.87"/>
</a>
</g>
</g>
<!-- Node6 -->
<g id="Node000006" class="node">
<title>Node6</title>
<g id="a_Node000006"><a xlink:href="node_8class_8c.html" target="_top" xlink:title="Implementation of the node class for the ProjetSDLOpenGLL2 project.">
<polygon fill="white" stroke="#666666" points="5489,-24.5 5356,-24.5 5356,-5.5 5489,-5.5 5489,-24.5"/>
<text text-anchor="middle" x="5422.5" y="-12.5" font-family="Helvetica,sans-Serif" font-size="10.00">src/classes/node.class.c</text>
</a>
</g>
</g>
<!-- Node5&#45;&gt;Node6 -->
<g id="edge5_Node000005_Node000006" class="edge">
<title>Node5&#45;&gt;Node6</title>
<g id="a_edge5_Node000005_Node000006"><a xlink:title=" ">
<path fill="none" stroke="#63b8ff" d="M3706.38,-74.17C3975.65,-72.56 5019.38,-64.19 5346.5,-30 5358.38,-28.76 5371.18,-26.69 5382.83,-24.52"/>
<polygon fill="#63b8ff" stroke="#63b8ff" points="3705.98,-70.67 3696,-74.23 3706.02,-77.67 3705.98,-70.67"/>
</a>
</g>
</g>
<!-- Node7 -->
<g id="Node000007" class="node">
<title>Node7</title>
<g id="a_Node000007"><a xlink:href="camera_8class_8c.html" target="_top" xlink:title="This file contains the implementation of the Camera class.">
<polygon fill="white" stroke="#666666" points="5685.5,-24.5 5507.5,-24.5 5507.5,-5.5 5685.5,-5.5 5685.5,-24.5"/>
<text text-anchor="middle" x="5596.5" y="-12.5" font-family="Helvetica,sans-Serif" font-size="10.00">src/classes/nodes/camera.class.c</text>
</a>
</g>
</g>
<!-- Node5&#45;&gt;Node7 -->
<g id="edge6_Node000005_Node000007" class="edge">
<title>Node5&#45;&gt;Node7</title>
<g id="a_edge6_Node000005_Node000007"><a xlink:title=" ">
<path fill="none" stroke="#63b8ff" d="M3706.39,-73.98C3990.28,-71.52 5139.17,-59.87 5498.5,-30 5513.66,-28.74 5530.05,-26.68 5545.01,-24.52"/>
<polygon fill="#63b8ff" stroke="#63b8ff" points="3706.24,-70.48 3696.27,-74.07 3706.3,-77.48 3706.24,-70.48"/>
</a>
</g>
</g>
<!-- Node8 -->
<g id="Node000008" class="node">
<title>Node8</title>
<g id="a_Node000008"><a xlink:href="box__cshape_8class_8c.html" target="_top" xlink:title="This source file defines the BoxCShape class and its associated methods.">
<polygon fill="white" stroke="#666666" points="5849,-30 5704,-30 5704,0 5849,0 5849,-30"/>
<text text-anchor="start" x="5712" y="-18" font-family="Helvetica,sans-Serif" font-size="10.00">src/classes/nodes/cshapes</text>
<text text-anchor="middle" x="5776.5" y="-7" font-family="Helvetica,sans-Serif" font-size="10.00">/box_cshape.class.c</text>
</a>
</g>
</g>
<!-- Node5&#45;&gt;Node8 -->
<g id="edge7_Node000005_Node000008" class="edge">
<title>Node5&#45;&gt;Node8</title>
<g id="a_edge7_Node000005_Node000008"><a xlink:title=" ">
<path fill="none" stroke="#63b8ff" d="M3706.6,-74.38C4008.99,-73.64 5294.87,-68.24 5694.5,-30 5697.52,-29.71 5700.59,-29.38 5703.7,-29"/>
<polygon fill="#63b8ff" stroke="#63b8ff" points="3706.25,-70.88 3696.26,-74.41 3706.27,-77.88 3706.25,-70.88"/>
</a>
</g>
</g>
<!-- Node9 -->
<g id="Node000009" class="node">
<title>Node9</title>
<g id="a_Node000009"><a xlink:href="capsule__cshape_8class_8c.html" target="_top" xlink:title="This file defines the implementation of the capsule shape class.">
<polygon fill="white" stroke="#666666" points="6012,-30 5867,-30 5867,0 6012,0 6012,-30"/>
<text text-anchor="start" x="5875" y="-18" font-family="Helvetica,sans-Serif" font-size="10.00">src/classes/nodes/cshapes</text>
<text text-anchor="middle" x="5939.5" y="-7" font-family="Helvetica,sans-Serif" font-size="10.00">/capsule_cshape.class.c</text>
</a>
</g>
</g>
<!-- Node5&#45;&gt;Node9 -->
<g id="edge8_Node000005_Node000009" class="edge">
<title>Node5&#45;&gt;Node9</title>
<g id="a_edge8_Node000005_Node000009"><a xlink:title=" ">
<path fill="none" stroke="#63b8ff" d="M3706.5,-74.52C4023.18,-74.42 5424.61,-71.61 5858.5,-30 5861.2,-29.74 5863.94,-29.44 5866.71,-29.11"/>
<polygon fill="#63b8ff" stroke="#63b8ff" points="3706.13,-71.02 3696.13,-74.52 3706.13,-78.02 3706.13,-71.02"/>
</a>
</g>
</g>
<!-- Node10 -->
<g id="Node000010" class="node">
<title>Node10</title>
<g id="a_Node000010"><a xlink:href="cshape_8class_8c.html" target="_top" xlink:title="This file defines the implementation of various CShape classes.">
<polygon fill="white" stroke="#666666" points="6175,-30 6030,-30 6030,0 6175,0 6175,-30"/>
<text text-anchor="start" x="6038" y="-18" font-family="Helvetica,sans-Serif" font-size="10.00">src/classes/nodes/cshapes</text>
<text text-anchor="middle" x="6102.5" y="-7" font-family="Helvetica,sans-Serif" font-size="10.00">/cshape.class.c</text>
</a>
</g>
</g>
<!-- Node5&#45;&gt;Node10 -->
<g id="edge9_Node000005_Node000010" class="edge">
<title>Node5&#45;&gt;Node10</title>
<g id="a_edge9_Node000005_Node000010"><a xlink:title=" ">
<path fill="none" stroke="#63b8ff" d="M3706.87,-74.62C4038.17,-75.06 5553.66,-74.54 6021.5,-30 6024.2,-29.74 6026.94,-29.45 6029.71,-29.12"/>
<polygon fill="#63b8ff" stroke="#63b8ff" points="3706.5,-71.12 3696.5,-74.61 3706.49,-78.12 3706.5,-71.12"/>
</a>
</g>
</g>
<!-- Node11 -->
<g id="Node000011" class="node">
<title>Node11</title>
<g id="a_Node000011"><a xlink:href="mesh__cshape_8class_8c.html" target="_top" xlink:title="This file defines the implementation of mesh shapes for the project.">
<polygon fill="white" stroke="#666666" points="6338,-30 6193,-30 6193,0 6338,0 6338,-30"/>
<text text-anchor="start" x="6201" y="-18" font-family="Helvetica,sans-Serif" font-size="10.00">src/classes/nodes/cshapes</text>
<text text-anchor="middle" x="6265.5" y="-7" font-family="Helvetica,sans-Serif" font-size="10.00">/mesh_cshape.class.c</text>
</a>
</g>
</g>
<!-- Node5&#45;&gt;Node11 -->
<g id="edge10_Node000005_Node000011" class="edge">
<title>Node5&#45;&gt;Node11</title>
<g id="a_edge10_Node000005_Node000011"><a xlink:title=" ">
<path fill="none" stroke="#63b8ff" d="M3706.25,-74.71C4049.64,-75.66 5682.18,-77.52 6184.5,-30 6187.2,-29.74 6189.94,-29.45 6192.71,-29.12"/>
<polygon fill="#63b8ff" stroke="#63b8ff" points="3706.24,-71.21 3696.23,-74.68 3706.22,-78.21 3706.24,-71.21"/>
</a>
</g>
</g>
<!-- Node12 -->
<g id="Node000012" class="node">
<title>Node12</title>
<g id="a_Node000012"><a xlink:href="plane__cshape_8class_8c.html" target="_top" xlink:title="This file defines the implementation of a plane shape class.">
<polygon fill="white" stroke="#666666" points="6501,-30 6356,-30 6356,0 6501,0 6501,-30"/>
<text text-anchor="start" x="6364" y="-18" font-family="Helvetica,sans-Serif" font-size="10.00">src/classes/nodes/cshapes</text>
<text text-anchor="middle" x="6428.5" y="-7" font-family="Helvetica,sans-Serif" font-size="10.00">/plane_cshape.class.c</text>
</a>
</g>
</g>
<!-- Node5&#45;&gt;Node12 -->
<g id="edge11_Node000005_Node000012" class="edge">
<title>Node5&#45;&gt;Node12</title>
<g id="a_edge11_Node000005_Node000012"><a xlink:title=" ">
<path fill="none" stroke="#63b8ff" d="M3706.1,-74.04C4088.76,-71.22 6077.21,-55.43 6347.5,-30 6350.2,-29.75 6352.94,-29.45 6355.71,-29.13"/>
<polygon fill="#63b8ff" stroke="#63b8ff" points="3706.02,-70.54 3696.04,-74.12 3706.07,-77.54 3706.02,-70.54"/>
</a>
</g>
</g>
<!-- Node13 -->
<g id="Node000013" class="node">
<title>Node13</title>
<g id="a_Node000013"><a xlink:href="ray__cshape_8class_8c.html" target="_top" xlink:title="This file defines the implementation of ray&#45;casting shapes.">
<polygon fill="white" stroke="#666666" points="6664,-30 6519,-30 6519,0 6664,0 6664,-30"/>
<text text-anchor="start" x="6527" y="-18" font-family="Helvetica,sans-Serif" font-size="10.00">src/classes/nodes/cshapes</text>
<text text-anchor="middle" x="6591.5" y="-7" font-family="Helvetica,sans-Serif" font-size="10.00">/ray_cshape.class.c</text>
</a>
</g>
</g>
<!-- Node5&#45;&gt;Node13 -->
<g id="edge12_Node000005_Node000013" class="edge">
<title>Node5&#45;&gt;Node13</title>
<g id="a_edge12_Node000005_Node000013"><a xlink:title=" ">
<path fill="none" stroke="#63b8ff" d="M3706.42,-74.11C4103.29,-71.58 6223.08,-56.9 6510.5,-30 6513.2,-29.75 6515.94,-29.45 6518.71,-29.13"/>
<polygon fill="#63b8ff" stroke="#63b8ff" points="3706.25,-70.61 3696.27,-74.17 3706.29,-77.61 3706.25,-70.61"/>
</a>
</g>
</g>
<!-- Node14 -->
<g id="Node000014" class="node">
<title>Node14</title>
<g id="a_Node000014"><a xlink:href="sphere__cshape_8class_8c.html" target="_top" xlink:title="This file contains the implementation of the SphereCShape class.">
<polygon fill="white" stroke="#666666" points="6827,-30 6682,-30 6682,0 6827,0 6827,-30"/>
<text text-anchor="start" x="6690" y="-18" font-family="Helvetica,sans-Serif" font-size="10.00">src/classes/nodes/cshapes</text>
<text text-anchor="middle" x="6754.5" y="-7" font-family="Helvetica,sans-Serif" font-size="10.00">/sphere_cshape.class.c</text>
</a>
</g>
</g>
<!-- Node5&#45;&gt;Node14 -->
<g id="edge13_Node000005_Node000014" class="edge">
<title>Node5&#45;&gt;Node14</title>
<g id="a_edge13_Node000005_Node000014"><a xlink:title=" ">
<path fill="none" stroke="#63b8ff" d="M3706.43,-74.16C4116.39,-71.92 6368.85,-58.39 6673.5,-30 6676.2,-29.75 6678.95,-29.46 6681.71,-29.13"/>
<polygon fill="#63b8ff" stroke="#63b8ff" points="3706.22,-70.66 3696.24,-74.22 3706.26,-77.66 3706.22,-70.66"/>
</a>
</g>
</g>
<!-- Node15 -->
<g id="Node000015" class="node">
<title>Node15</title>
<g id="a_Node000015"><a xlink:href="button_8class_8c.html" target="_top" xlink:title="This file defines the Button class and its associated methods.">
<polygon fill="white" stroke="#666666" points="6985.5,-30 6845.5,-30 6845.5,0 6985.5,0 6985.5,-30"/>
<text text-anchor="start" x="6853.5" y="-18" font-family="Helvetica,sans-Serif" font-size="10.00">src/classes/nodes/frames</text>
<text text-anchor="middle" x="6915.5" y="-7" font-family="Helvetica,sans-Serif" font-size="10.00">/button.class.c</text>
</a>
</g>
</g>
<!-- Node5&#45;&gt;Node15 -->
<g id="edge14_Node000005_Node000015" class="edge">
<title>Node5&#45;&gt;Node15</title>
<g id="a_edge14_Node000005_Node000015"><a xlink:title=" ">
<path fill="none" stroke="#63b8ff" d="M3706.48,-74.23C4129.31,-72.37 6514.67,-60.56 6836.5,-30 6839.41,-29.72 6842.38,-29.4 6845.37,-29.03"/>
<polygon fill="#63b8ff" stroke="#63b8ff" points="3706.26,-70.73 3696.28,-74.28 3706.29,-77.73 3706.26,-70.73"/>
</a>
</g>
</g>
<!-- Node16 -->
<g id="Node000016" class="node">
<title>Node16</title>
<g id="a_Node000016"><a xlink:href="checkbox_8class_8c.html" target="_top" xlink:title="Implementation of the Checkbox class for the GUI framework.">
<polygon fill="white" stroke="#666666" points="7143.5,-30 7003.5,-30 7003.5,0 7143.5,0 7143.5,-30"/>
<text text-anchor="start" x="7011.5" y="-18" font-family="Helvetica,sans-Serif" font-size="10.00">src/classes/nodes/frames</text>
<text text-anchor="middle" x="7073.5" y="-7" font-family="Helvetica,sans-Serif" font-size="10.00">/checkbox.class.c</text>
</a>
</g>
</g>
<!-- Node5&#45;&gt;Node16 -->
<g id="edge15_Node000005_Node000016" class="edge">
<title>Node5&#45;&gt;Node16</title>
<g id="a_edge15_Node000005_Node000016"><a xlink:title=" ">
<path fill="none" stroke="#63b8ff" d="M3706.17,-74.28C4140.16,-72.67 6655.85,-62.04 6994.5,-30 6997.41,-29.72 7000.38,-29.4 7003.37,-29.04"/>
<polygon fill="#63b8ff" stroke="#63b8ff" points="3706,-70.78 3696.01,-74.31 3706.03,-77.78 3706,-70.78"/>
</a>
</g>
</g>
<!-- Node17 -->
<g id="Node000017" class="node">
<title>Node17</title>
<g id="a_Node000017"><a xlink:href="control__frame_8class_8c.html" target="_top" xlink:title="This file defines the implementation of the control frame class.">
<polygon fill="white" stroke="#666666" points="7301.5,-30 7161.5,-30 7161.5,0 7301.5,0 7301.5,-30"/>
<text text-anchor="start" x="7169.5" y="-18" font-family="Helvetica,sans-Serif" font-size="10.00">src/classes/nodes/frames</text>
<text text-anchor="middle" x="7231.5" y="-7" font-family="Helvetica,sans-Serif" font-size="10.00">/control_frame.class.c</text>
</a>
</g>
</g>
<!-- Node5&#45;&gt;Node17 -->
<g id="edge16_Node000005_Node000017" class="edge">
<title>Node5&#45;&gt;Node17</title>
<g id="a_edge16_Node000005_Node000017"><a xlink:title=" ">
<path fill="none" stroke="#63b8ff" d="M3706.34,-74.32C4152.53,-72.96 6797.14,-63.52 7152.5,-30 7155.41,-29.73 7158.38,-29.4 7161.37,-29.04"/>
<polygon fill="#63b8ff" stroke="#63b8ff" points="3706.2,-70.82 3696.21,-74.35 3706.22,-77.82 3706.2,-70.82"/>
</a>
</g>
</g>
<!-- Node18 -->
<g id="Node000018" class="node">
<title>Node18</title>
<g id="a_Node000018"><a xlink:href="frame_8class_8c.html" target="_top" xlink:title="This file defines the implementation of frame&#45;related functionalities.">
<polygon fill="white" stroke="#666666" points="467.5,-30 327.5,-30 327.5,0 467.5,0 467.5,-30"/>
<text text-anchor="start" x="335.5" y="-18" font-family="Helvetica,sans-Serif" font-size="10.00">src/classes/nodes/frames</text>
<text text-anchor="middle" x="397.5" y="-7" font-family="Helvetica,sans-Serif" font-size="10.00">/frame.class.c</text>
</a>
</g>
</g>
<!-- Node5&#45;&gt;Node18 -->
<g id="edge17_Node000005_Node000018" class="edge">
<title>Node5&#45;&gt;Node18</title>
<g id="a_edge17_Node000005_Node000018"><a xlink:title=" ">
<path fill="none" stroke="#63b8ff" d="M3578.75,-74.22C3158.7,-72.32 795.42,-60.3 476.5,-30 473.59,-29.72 470.62,-29.4 467.63,-29.03"/>
<polygon fill="#63b8ff" stroke="#63b8ff" points="3578.87,-77.72 3588.88,-74.27 3578.9,-70.72 3578.87,-77.72"/>
</a>
</g>
</g>
<!-- Node19 -->
<g id="Node000019" class="node">
<title>Node19</title>
<g id="a_Node000019"><a xlink:href="image__frame_8class_8c.html" target="_top" xlink:title="This file contains the implementation of the ImageFrame class.">
<polygon fill="white" stroke="#666666" points="625.5,-30 485.5,-30 485.5,0 625.5,0 625.5,-30"/>
<text text-anchor="start" x="493.5" y="-18" font-family="Helvetica,sans-Serif" font-size="10.00">src/classes/nodes/frames</text>
<text text-anchor="middle" x="555.5" y="-7" font-family="Helvetica,sans-Serif" font-size="10.00">/image_frame.class.c</text>
</a>
</g>
</g>
<!-- Node5&#45;&gt;Node19 -->
<g id="edge18_Node000005_Node000019" class="edge">
<title>Node5&#45;&gt;Node19</title>
<g id="a_edge18_Node000005_Node000019"><a xlink:title=" ">
<path fill="none" stroke="#63b8ff" d="M3578.73,-74.17C3171.01,-72 936.7,-58.82 634.5,-30 631.59,-29.72 628.62,-29.4 625.63,-29.03"/>
<polygon fill="#63b8ff" stroke="#63b8ff" points="3578.85,-77.67 3588.86,-74.23 3578.88,-70.67 3578.85,-77.67"/>
</a>
</g>
</g>
<!-- Node20 -->
<g id="Node000020" class="node">
<title>Node20</title>
<g id="a_Node000020"><a xlink:href="input__area_8class_8c.html" target="_top" xlink:title="This file defines the InputArea class and its associated methods.">
<polygon fill="white" stroke="#666666" points="783.5,-30 643.5,-30 643.5,0 783.5,0 783.5,-30"/>
<text text-anchor="start" x="651.5" y="-18" font-family="Helvetica,sans-Serif" font-size="10.00">src/classes/nodes/frames</text>
<text text-anchor="middle" x="713.5" y="-7" font-family="Helvetica,sans-Serif" font-size="10.00">/input_area.class.c</text>
</a>
</g>
</g>
<!-- Node5&#45;&gt;Node20 -->
<g id="edge19_Node000005_Node000020" class="edge">
<title>Node5&#45;&gt;Node20</title>
<g id="a_edge19_Node000005_Node000020"><a xlink:title=" ">
<path fill="none" stroke="#63b8ff" d="M3578.66,-74.12C3183.46,-71.66 1077.98,-57.35 792.5,-30 789.59,-29.72 786.62,-29.39 783.63,-29.03"/>
<polygon fill="#63b8ff" stroke="#63b8ff" points="3578.75,-77.62 3588.77,-74.18 3578.79,-70.62 3578.75,-77.62"/>
</a>
</g>
</g>
<!-- Node21 -->
<g id="Node000021" class="node">
<title>Node21</title>
<g id="a_Node000021"><a xlink:href="label_8class_8c.html" target="_top" xlink:title="This file defines the Label class and its associated functions.">
<polygon fill="white" stroke="#666666" points="941.5,-30 801.5,-30 801.5,0 941.5,0 941.5,-30"/>
<text text-anchor="start" x="809.5" y="-18" font-family="Helvetica,sans-Serif" font-size="10.00">src/classes/nodes/frames</text>
<text text-anchor="middle" x="871.5" y="-7" font-family="Helvetica,sans-Serif" font-size="10.00">/label.class.c</text>
</a>
</g>
</g>
<!-- Node5&#45;&gt;Node21 -->
<g id="edge20_Node000005_Node000021" class="edge">
<title>Node5&#45;&gt;Node21</title>
<g id="a_edge20_Node000005_Node000021"><a xlink:title=" ">
<path fill="none" stroke="#63b8ff" d="M3578.89,-74.05C3197.32,-71.3 1219.36,-55.88 950.5,-30 947.59,-29.72 944.62,-29.39 941.63,-29.02"/>
<polygon fill="#63b8ff" stroke="#63b8ff" points="3578.9,-77.55 3588.93,-74.13 3578.95,-70.56 3578.9,-77.55"/>
</a>
</g>
</g>
<!-- Node22 -->
<g id="Node000022" class="node">
<title>Node22</title>
<g id="a_Node000022"><a xlink:href="radiobutton_8class_8c.html" target="_top" xlink:title="Implementation of the RadioButton class.">
<polygon fill="white" stroke="#666666" points="1099.5,-30 959.5,-30 959.5,0 1099.5,0 1099.5,-30"/>
<text text-anchor="start" x="967.5" y="-18" font-family="Helvetica,sans-Serif" font-size="10.00">src/classes/nodes/frames</text>
<text text-anchor="middle" x="1029.5" y="-7" font-family="Helvetica,sans-Serif" font-size="10.00">/radiobutton.class.c</text>
</a>
</g>
</g>
<!-- Node5&#45;&gt;Node22 -->
<g id="edge21_Node000005_Node000022" class="edge">
<title>Node5&#45;&gt;Node22</title>
<g id="a_edge21_Node000005_Node000022"><a xlink:title=" ">
<path fill="none" stroke="#63b8ff" d="M3578.69,-74.75C3235.82,-75.85 1609.01,-78.44 1108.5,-30 1105.59,-29.72 1102.62,-29.39 1099.63,-29.02"/>
<polygon fill="#63b8ff" stroke="#63b8ff" points="3578.95,-78.24 3588.93,-74.71 3578.92,-71.24 3578.95,-78.24"/>
</a>
</g>
</g>
<!-- Node23 -->
<g id="Node000023" class="node">
<title>Node23</title>
<g id="a_Node000023"><a xlink:href="selectlist_8class_8c.html" target="_top" xlink:title="This file implements the functionality for a selectable list frame in the application.">
<polygon fill="white" stroke="#666666" points="1257.5,-30 1117.5,-30 1117.5,0 1257.5,0 1257.5,-30"/>
<text text-anchor="start" x="1125.5" y="-18" font-family="Helvetica,sans-Serif" font-size="10.00">src/classes/nodes/frames</text>
<text text-anchor="middle" x="1187.5" y="-7" font-family="Helvetica,sans-Serif" font-size="10.00">/selectlist.class.c</text>
</a>
</g>
</g>
<!-- Node5&#45;&gt;Node23 -->
<g id="edge22_Node000005_Node000023" class="edge">
<title>Node5&#45;&gt;Node23</title>
<g id="a_edge22_Node000005_Node000023"><a xlink:title=" ">
<path fill="none" stroke="#63b8ff" d="M3578.21,-74.66C3247.31,-75.27 1733.65,-75.48 1266.5,-30 1263.59,-29.72 1260.62,-29.39 1257.63,-29.02"/>
<polygon fill="#63b8ff" stroke="#63b8ff" points="3578.57,-78.16 3588.57,-74.64 3578.56,-71.16 3578.57,-78.16"/>
</a>
</g>
</g>
<!-- Node24 -->
<g id="Node000024" class="node">
<title>Node24</title>
<g id="a_Node000024"><a xlink:href="slider_8class_8c.html" target="_top" xlink:title=" ">
<polygon fill="white" stroke="#666666" points="1415.5,-30 1275.5,-30 1275.5,0 1415.5,0 1415.5,-30"/>
<text text-anchor="start" x="1283.5" y="-18" font-family="Helvetica,sans-Serif" font-size="10.00">src/classes/nodes/frames</text>
<text text-anchor="middle" x="1345.5" y="-7" font-family="Helvetica,sans-Serif" font-size="10.00">/slider.class.c</text>
</a>
</g>
</g>
<!-- Node5&#45;&gt;Node24 -->
<g id="edge23_Node000005_Node000024" class="edge">
<title>Node5&#45;&gt;Node24</title>
<g id="a_edge23_Node000005_Node000024"><a xlink:title=" ">
<path fill="none" stroke="#63b8ff" d="M3578.44,-74.56C3261.46,-74.64 1858.7,-72.57 1424.5,-30 1421.59,-29.71 1418.62,-29.38 1415.63,-29.01"/>
<polygon fill="#63b8ff" stroke="#63b8ff" points="3578.82,-78.06 3588.82,-74.56 3578.82,-71.06 3578.82,-78.06"/>
</a>
</g>
</g>
<!-- Node25 -->
<g id="Node000025" class="node">
<title>Node25</title>
<g id="a_Node000025"><a xlink:href="directional__light_8class_8c.html" target="_top" xlink:title="This file contains the implementation of the directional light class.">
<polygon fill="white" stroke="#666666" points="1567.5,-30 1433.5,-30 1433.5,0 1567.5,0 1567.5,-30"/>
<text text-anchor="start" x="1441.5" y="-18" font-family="Helvetica,sans-Serif" font-size="10.00">src/classes/nodes/lights</text>
<text text-anchor="middle" x="1500.5" y="-7" font-family="Helvetica,sans-Serif" font-size="10.00">/directional_light.class.c</text>
</a>
</g>
</g>
<!-- Node5&#45;&gt;Node25 -->
<g id="edge24_Node000005_Node000025" class="edge">
<title>Node5&#45;&gt;Node25</title>
<g id="a_edge24_Node000005_Node000025"><a xlink:title=" ">
<path fill="none" stroke="#63b8ff" d="M3578.45,-74.51C3274.87,-74.33 1978.82,-71.12 1576.5,-30 1573.56,-29.7 1570.57,-29.35 1567.55,-28.96"/>
<polygon fill="#63b8ff" stroke="#63b8ff" points="3578.83,-78.01 3588.83,-74.51 3578.83,-71.01 3578.83,-78.01"/>
</a>
</g>
</g>
<!-- Node26 -->
<g id="Node000026" class="node">
<title>Node26</title>
<g id="a_Node000026"><a xlink:href="light_8class_8c.html" target="_top" xlink:title="This file contains the implementation of the light class for the project.">
<polygon fill="white" stroke="#666666" points="1717.5,-30 1585.5,-30 1585.5,0 1717.5,0 1717.5,-30"/>
<text text-anchor="start" x="1593.5" y="-18" font-family="Helvetica,sans-Serif" font-size="10.00">src/classes/nodes/lights</text>
<text text-anchor="middle" x="1651.5" y="-7" font-family="Helvetica,sans-Serif" font-size="10.00">/light.class.c</text>
</a>
</g>
</g>
<!-- Node5&#45;&gt;Node26 -->
<g id="edge25_Node000005_Node000026" class="edge">
<title>Node5&#45;&gt;Node26</title>
<g id="a_edge25_Node000005_Node000026"><a xlink:title=" ">
<path fill="none" stroke="#63b8ff" d="M3578.44,-74.4C3288.53,-73.74 2097.53,-68.68 1726.5,-30 1723.6,-29.7 1720.65,-29.34 1717.67,-28.95"/>
<polygon fill="#63b8ff" stroke="#63b8ff" points="3578.76,-77.9 3588.77,-74.42 3578.78,-70.9 3578.76,-77.9"/>
</a>
</g>
</g>
<!-- Node27 -->
<g id="Node000027" class="node">
<title>Node27</title>
<g id="a_Node000027"><a xlink:href="point__light_8class_8c.html" target="_top" xlink:title="This file contains the implementation of the PointLight class.">
<polygon fill="white" stroke="#666666" points="1867.5,-30 1735.5,-30 1735.5,0 1867.5,0 1867.5,-30"/>
<text text-anchor="start" x="1743.5" y="-18" font-family="Helvetica,sans-Serif" font-size="10.00">src/classes/nodes/lights</text>
<text text-anchor="middle" x="1801.5" y="-7" font-family="Helvetica,sans-Serif" font-size="10.00">/point_light.class.c</text>
</a>
</g>
</g>
<!-- Node5&#45;&gt;Node27 -->
<g id="edge26_Node000005_Node000027" class="edge">
<title>Node5&#45;&gt;Node27</title>
<g id="a_edge26_Node000005_Node000027"><a xlink:title=" ">
<path fill="none" stroke="#63b8ff" d="M3578.55,-74.25C3303.1,-72.99 2216.41,-65.78 1876.5,-30 1873.6,-29.69 1870.65,-29.34 1867.67,-28.94"/>
<polygon fill="#63b8ff" stroke="#63b8ff" points="3578.76,-77.76 3588.77,-74.3 3578.79,-70.76 3578.76,-77.76"/>
</a>
</g>
</g>
<!-- Node28 -->
<g id="Node000028" class="node">
<title>Node28</title>
<g id="a_Node000028"><a xlink:href="spot__light_8class_8c.html" target="_top" xlink:title="This file contains the implementation of the SpotLight class.">
<polygon fill="white" stroke="#666666" points="2017.5,-30 1885.5,-30 1885.5,0 2017.5,0 2017.5,-30"/>
<text text-anchor="start" x="1893.5" y="-18" font-family="Helvetica,sans-Serif" font-size="10.00">src/classes/nodes/lights</text>
<text text-anchor="middle" x="1951.5" y="-7" font-family="Helvetica,sans-Serif" font-size="10.00">/spot_light.class.c</text>
</a>
</g>
</g>
<!-- Node5&#45;&gt;Node28 -->
<g id="edge27_Node000005_Node000028" class="edge">
<title>Node5&#45;&gt;Node28</title>
<g id="a_edge27_Node000005_Node000028"><a xlink:title=" ">
<path fill="none" stroke="#63b8ff" d="M3578.91,-74.08C3318.86,-72.17 2335.47,-62.89 2026.5,-30 2023.6,-29.69 2020.65,-29.33 2017.67,-28.93"/>
<polygon fill="#63b8ff" stroke="#63b8ff" points="3578.92,-77.58 3588.94,-74.16 3578.97,-70.58 3578.92,-77.58"/>
</a>
</g>
</g>
<!-- Node29 -->
<g id="Node000029" class="node">
<title>Node29</title>
<g id="a_Node000029"><a xlink:href="mesh_8class_8c.html" target="_top" xlink:title="This file defines the implementation of the Mesh class.">
<polygon fill="white" stroke="#666666" points="2203.5,-24.5 2035.5,-24.5 2035.5,-5.5 2203.5,-5.5 2203.5,-24.5"/>
<text text-anchor="middle" x="2119.5" y="-12.5" font-family="Helvetica,sans-Serif" font-size="10.00">src/classes/nodes/mesh.class.c</text>
</a>
</g>
</g>
<!-- Node5&#45;&gt;Node29 -->
<g id="edge28_Node000005_Node000029" class="edge">
<title>Node5&#45;&gt;Node29</title>
<g id="a_edge28_Node000005_Node000029"><a xlink:title=" ">
<path fill="none" stroke="#63b8ff" d="M3578.48,-73.52C3337.27,-69.65 2483.37,-54.52 2212.5,-30 2198.19,-28.7 2182.73,-26.65 2168.6,-24.5"/>
<polygon fill="#63b8ff" stroke="#63b8ff" points="3578.77,-77.02 3588.82,-73.68 3578.88,-70.02 3578.77,-77.02"/>
</a>
</g>
</g>
<!-- Node30 -->
<g id="Node000030" class="node">
<title>Node30</title>
<g id="a_Node000030"><a xlink:href="model_8class_8c.html" target="_top" xlink:title="This file contains the implementation of the model class.">
<polygon fill="white" stroke="#666666" points="2393.5,-24.5 2221.5,-24.5 2221.5,-5.5 2393.5,-5.5 2393.5,-24.5"/>
<text text-anchor="middle" x="2307.5" y="-12.5" font-family="Helvetica,sans-Serif" font-size="10.00">src/classes/nodes/model.class.c</text>
</a>
</g>
</g>
<!-- Node5&#45;&gt;Node30 -->
<g id="edge29_Node000005_Node000030" class="edge">
<title>Node5&#45;&gt;Node30</title>
<g id="a_edge29_Node000005_Node000030"><a xlink:title=" ">
<path fill="none" stroke="#63b8ff" d="M3578.62,-74.69C3395.23,-74.71 2851.52,-71.02 2402.5,-30 2388.06,-28.68 2372.46,-26.64 2358.16,-24.52"/>
<polygon fill="#63b8ff" stroke="#63b8ff" points="3578.89,-78.19 3588.89,-74.69 3578.88,-71.19 3578.89,-78.19"/>
</a>
</g>
</g>
<!-- Node31 -->
<g id="Node000031" class="node">
<title>Node31</title>
<g id="a_Node000031"><a xlink:href="area_8class_8c.html" target="_top" xlink:title="This file handles the physics area nodes in the project.">
<polygon fill="white" stroke="#666666" points="2553.5,-30 2411.5,-30 2411.5,0 2553.5,0 2553.5,-30"/>
<text text-anchor="start" x="2419.5" y="-18" font-family="Helvetica,sans-Serif" font-size="10.00">src/classes/nodes/physics</text>
<text text-anchor="middle" x="2482.5" y="-7" font-family="Helvetica,sans-Serif" font-size="10.00">/area.class.c</text>
</a>
</g>
</g>
<!-- Node5&#45;&gt;Node31 -->
<g id="edge30_Node000005_Node000031" class="edge">
<title>Node5&#45;&gt;Node31</title>
<g id="a_edge30_Node000005_Node000031"><a xlink:title=" ">
<path fill="none" stroke="#63b8ff" d="M3578.83,-74.8C3411.68,-74.97 2946.74,-71.35 2562.5,-30 2559.56,-29.68 2556.56,-29.32 2553.53,-28.93"/>
<polygon fill="#63b8ff" stroke="#63b8ff" points="3578.94,-78.3 3588.94,-74.79 3578.93,-71.3 3578.94,-78.3"/>
</a>
</g>
</g>
<!-- Node32 -->
<g id="Node000032" class="node">
<title>Node32</title>
<g id="a_Node000032"><a xlink:href="body_8class_8c.html" target="_top" xlink:title="This file defines the body class for the physics engine.">
<polygon fill="white" stroke="#666666" points="2713.5,-30 2571.5,-30 2571.5,0 2713.5,0 2713.5,-30"/>
<text text-anchor="start" x="2579.5" y="-18" font-family="Helvetica,sans-Serif" font-size="10.00">src/classes/nodes/physics</text>
<text text-anchor="middle" x="2642.5" y="-7" font-family="Helvetica,sans-Serif" font-size="10.00">/bodies/body.class.c</text>
</a>
</g>
</g>
<!-- Node5&#45;&gt;Node32 -->
<g id="edge31_Node000005_Node000032" class="edge">
<title>Node5&#45;&gt;Node32</title>
<g id="a_edge31_Node000005_Node000032"><a xlink:title=" ">
<path fill="none" stroke="#63b8ff" d="M3578.52,-74.15C3428.51,-72.73 3042.61,-65.61 2722.5,-30 2719.56,-29.67 2716.56,-29.3 2713.53,-28.91"/>
<polygon fill="#63b8ff" stroke="#63b8ff" points="3578.88,-77.65 3588.91,-74.24 3578.94,-70.65 3578.88,-77.65"/>
</a>
</g>
</g>
<!-- Node33 -->
<g id="Node000033" class="node">
<title>Node33</title>
<g id="a_Node000033"><a xlink:href="kinematic__body_8class_8c.html" target="_top" xlink:title="This file defines the implementation of kinematic bodies for the physics engine.">
<polygon fill="white" stroke="#666666" points="2899,-30 2732,-30 2732,0 2899,0 2899,-30"/>
<text text-anchor="start" x="2740" y="-18" font-family="Helvetica,sans-Serif" font-size="10.00">src/classes/nodes/physics</text>
<text text-anchor="middle" x="2815.5" y="-7" font-family="Helvetica,sans-Serif" font-size="10.00">/bodies/kinematic_body.class.c</text>
</a>
</g>
</g>
<!-- Node5&#45;&gt;Node33 -->
<g id="edge32_Node000005_Node000033" class="edge">
<title>Node5&#45;&gt;Node33</title>
<g id="a_edge32_Node000005_Node000033"><a xlink:title=" ">
<path fill="none" stroke="#63b8ff" d="M3578.59,-72.54C3450.94,-68.19 3155.48,-56.02 2908.5,-30 2905.41,-29.67 2902.28,-29.32 2899.11,-28.94"/>
<polygon fill="#63b8ff" stroke="#63b8ff" points="3578.84,-76.05 3588.95,-72.88 3579.07,-69.05 3578.84,-76.05"/>
</a>
</g>
</g>
<!-- Node34 -->
<g id="Node000034" class="node">
<title>Node34</title>
<g id="a_Node000034"><a xlink:href="rigid__body_8class_8c.html" target="_top" xlink:title="This source file defines the implementation of rigid body physics for the project.">
<polygon fill="white" stroke="#666666" points="3059.5,-30 2917.5,-30 2917.5,0 3059.5,0 3059.5,-30"/>
<text text-anchor="start" x="2925.5" y="-18" font-family="Helvetica,sans-Serif" font-size="10.00">src/classes/nodes/physics</text>
<text text-anchor="middle" x="2988.5" y="-7" font-family="Helvetica,sans-Serif" font-size="10.00">/bodies/rigid_body.class.c</text>
</a>
</g>
</g>
<!-- Node5&#45;&gt;Node34 -->
<g id="edge33_Node000005_Node000034" class="edge">
<title>Node5&#45;&gt;Node34</title>
<g id="a_edge33_Node000005_Node000034"><a xlink:title=" ">
<path fill="none" stroke="#63b8ff" d="M3578.69,-71.55C3472.51,-66.21 3253.01,-53.24 3068.5,-30 3065.56,-29.63 3062.57,-29.23 3059.55,-28.8"/>
<polygon fill="#63b8ff" stroke="#63b8ff" points="3578.75,-75.06 3588.91,-72.06 3579.1,-68.07 3578.75,-75.06"/>
</a>
</g>
</g>
<!-- Node35 -->
<g id="Node000035" class="node">
<title>Node35</title>
<g id="a_Node000035"><a xlink:href="static__body_8class_8c.html" target="_top" xlink:title="This file defines the implementation of static bodies in the physics engine.">
<polygon fill="white" stroke="#666666" points="3223.5,-30 3077.5,-30 3077.5,0 3223.5,0 3223.5,-30"/>
<text text-anchor="start" x="3085.5" y="-18" font-family="Helvetica,sans-Serif" font-size="10.00">src/classes/nodes/physics</text>
<text text-anchor="middle" x="3150.5" y="-7" font-family="Helvetica,sans-Serif" font-size="10.00">/bodies/static_body.class.c</text>
</a>
</g>
</g>
<!-- Node5&#45;&gt;Node35 -->
<g id="edge34_Node000005_Node000035" class="edge">
<title>Node5&#45;&gt;Node35</title>
<g id="a_edge34_Node000005_Node000035"><a xlink:title=" ">
<path fill="none" stroke="#63b8ff" d="M3578.97,-68.82C3498.25,-61.32 3354.74,-47.05 3232.5,-30 3229.64,-29.6 3226.73,-29.18 3223.78,-28.74"/>
<polygon fill="#63b8ff" stroke="#63b8ff" points="3578.69,-72.31 3588.97,-69.74 3579.34,-65.34 3578.69,-72.31"/>
</a>
</g>
</g>
<!-- Node36 -->
<g id="Node000036" class="node">
<title>Node36</title>
<g id="a_Node000036"><a xlink:href="physical__node_8class_8c.html" target="_top" xlink:title="This file contains the implementation of the PhysicalNode class.">
<polygon fill="white" stroke="#666666" points="3383.5,-30 3241.5,-30 3241.5,0 3383.5,0 3383.5,-30"/>
<text text-anchor="start" x="3249.5" y="-18" font-family="Helvetica,sans-Serif" font-size="10.00">src/classes/nodes/physics</text>
<text text-anchor="middle" x="3312.5" y="-7" font-family="Helvetica,sans-Serif" font-size="10.00">/physical_node.class.c</text>
</a>
</g>
</g>
<!-- Node5&#45;&gt;Node36 -->
<g id="edge35_Node000005_Node000036" class="edge">
<title>Node5&#45;&gt;Node36</title>
<g id="a_edge35_Node000005_Node000036"><a xlink:title=" ">
<path fill="none" stroke="#63b8ff" d="M3584.41,-64.2C3528.45,-54.28 3443.67,-39.25 3383.68,-28.62"/>
<polygon fill="#63b8ff" stroke="#63b8ff" points="3584.06,-67.69 3594.52,-65.99 3585.28,-60.8 3584.06,-67.69"/>
</a>
</g>
</g>
<!-- Node37 -->
<g id="Node000037" class="node">
<title>Node37</title>
<g id="a_Node000037"><a xlink:href="render__target_8class_8c.html" target="_top" xlink:title="Framebuffer class implementation.">
<polygon fill="white" stroke="#666666" points="3539,-30 3402,-30 3402,0 3539,0 3539,-30"/>
<text text-anchor="start" x="3410" y="-18" font-family="Helvetica,sans-Serif" font-size="10.00">src/classes/nodes/render</text>
<text text-anchor="middle" x="3470.5" y="-7" font-family="Helvetica,sans-Serif" font-size="10.00">_target.class.c</text>
</a>
</g>
</g>
<!-- Node5&#45;&gt;Node37 -->
<g id="edge36_Node000005_Node000037" class="edge">
<title>Node5&#45;&gt;Node37</title>
<g id="a_edge36_Node000005_Node000037"><a xlink:title=" ">
<path fill="none" stroke="#63b8ff" d="M3607.83,-62.71C3580.11,-53.28 3541.19,-40.04 3511.85,-30.06"/>
<polygon fill="#63b8ff" stroke="#63b8ff" points="3606.9,-66.09 3617.49,-65.99 3609.15,-59.46 3606.9,-66.09"/>
</a>
</g>
</g>
<!-- Node38 -->
<g id="Node000038" class="node">
<title>Node38</title>
<g id="a_Node000038"><a xlink:href="scene_8class_8c.html" target="_top" xlink:title="This file contains the implementation of the scene class.">
<polygon fill="white" stroke="#666666" points="3727.5,-24.5 3557.5,-24.5 3557.5,-5.5 3727.5,-5.5 3727.5,-24.5"/>
<text text-anchor="middle" x="3642.5" y="-12.5" font-family="Helvetica,sans-Serif" font-size="10.00">src/classes/nodes/scene.class.c</text>
</a>
</g>
</g>
<!-- Node5&#45;&gt;Node38 -->
<g id="edge37_Node000005_Node000038" class="edge">
<title>Node5&#45;&gt;Node38</title>
<g id="a_edge37_Node000005_Node000038"><a xlink:title=" ">
<path fill="none" stroke="#63b8ff" d="M3642.5,-55.66C3642.5,-45.24 3642.5,-32.8 3642.5,-24.67"/>
<polygon fill="#63b8ff" stroke="#63b8ff" points="3639,-55.87 3642.5,-65.87 3646,-55.87 3639,-55.87"/>
</a>
</g>
</g>
<!-- Node39 -->
<g id="Node000039" class="node">
<title>Node39</title>
<g id="a_Node000039"><a xlink:href="skybox_8class_8c.html" target="_top" xlink:title="This file contains the implementation of the Skybox class.">
<polygon fill="white" stroke="#666666" points="3921.5,-24.5 3745.5,-24.5 3745.5,-5.5 3921.5,-5.5 3921.5,-24.5"/>
<text text-anchor="middle" x="3833.5" y="-12.5" font-family="Helvetica,sans-Serif" font-size="10.00">src/classes/nodes/skybox.class.c</text>
</a>
</g>
</g>
<!-- Node5&#45;&gt;Node39 -->
<g id="edge38_Node000005_Node000039" class="edge">
<title>Node5&#45;&gt;Node39</title>
<g id="a_edge38_Node000005_Node000039"><a xlink:title=" ">
<path fill="none" stroke="#63b8ff" d="M3680.17,-62.96C3717.11,-51.65 3772.58,-34.66 3805.69,-24.52"/>
<polygon fill="#63b8ff" stroke="#63b8ff" points="3678.81,-59.72 3670.27,-65.99 3680.86,-66.41 3678.81,-59.72"/>
</a>
</g>
</g>
<!-- Node40 -->
<g id="Node000040" class="node">
<title>Node40</title>
<g id="a_Node000040"><a xlink:href="texture_8class_8c.html" target="_top" xlink:title="This file contains the implementation of texture&#45;related functionalities.">
<polygon fill="white" stroke="#666666" points="4115.5,-24.5 3939.5,-24.5 3939.5,-5.5 4115.5,-5.5 4115.5,-24.5"/>
<text text-anchor="middle" x="4027.5" y="-12.5" font-family="Helvetica,sans-Serif" font-size="10.00">src/classes/nodes/texture.class.c</text>
</a>
</g>
</g>
<!-- Node5&#45;&gt;Node40 -->
<g id="edge39_Node000005_Node000040" class="edge">
<title>Node5&#45;&gt;Node40</title>
<g id="a_edge39_Node000005_Node000040"><a xlink:title=" ">
<path fill="none" stroke="#63b8ff" d="M3706.14,-64.83C3780.02,-53.6 3900.74,-35.26 3971.3,-24.54"/>
<polygon fill="#63b8ff" stroke="#63b8ff" points="3705.39,-61.4 3696.03,-66.37 3706.44,-68.32 3705.39,-61.4"/>
</a>
</g>
</g>
<!-- Node41 -->
<g id="Node000041" class="node">
<title>Node41</title>
<g id="a_Node000041"><a xlink:href="textured__mesh_8class_8c.html" target="_top" xlink:title="This file contains the implementation of the TexturedMesh class.">
<polygon fill="white" stroke="#666666" points="4279.5,-30 4133.5,-30 4133.5,0 4279.5,0 4279.5,-30"/>
<text text-anchor="start" x="4141.5" y="-18" font-family="Helvetica,sans-Serif" font-size="10.00">src/classes/nodes/textured</text>
<text text-anchor="middle" x="4206.5" y="-7" font-family="Helvetica,sans-Serif" font-size="10.00">_mesh.class.c</text>
</a>
</g>
</g>
<!-- Node5&#45;&gt;Node41 -->
<g id="edge40_Node000005_Node000041" class="edge">
<title>Node5&#45;&gt;Node41</title>
<g id="a_edge40_Node000005_Node000041"><a xlink:title=" ">
<path fill="none" stroke="#63b8ff" d="M3706.18,-70.19C3798.58,-63.58 3975.12,-49.62 4124.5,-30 4127.36,-29.62 4130.28,-29.22 4133.22,-28.8"/>
<polygon fill="#63b8ff" stroke="#63b8ff" points="3705.87,-66.7 3696.14,-70.9 3706.37,-73.69 3705.87,-66.7"/>
</a>
</g>
</g>
<!-- Node42 -->
<g id="Node000042" class="node">
<title>Node42</title>
<g id="a_Node000042"><a xlink:href="input_8c.html" target="_top" xlink:title=" ">
<polygon fill="white" stroke="#666666" points="4377,-24.5 4298,-24.5 4298,-5.5 4377,-5.5 4377,-24.5"/>
<text text-anchor="middle" x="4337.5" y="-12.5" font-family="Helvetica,sans-Serif" font-size="10.00">src/io/input.c</text>
</a>
</g>
</g>
<!-- Node5&#45;&gt;Node42 -->
<g id="edge41_Node000005_Node000042" class="edge">
<title>Node5&#45;&gt;Node42</title>
<g id="a_edge41_Node000005_Node000042"><a xlink:title=" ">
<path fill="none" stroke="#63b8ff" d="M3706.3,-74.51C3822.84,-73.56 4077.56,-66.98 4288.5,-30 4296.08,-28.67 4304.17,-26.63 4311.54,-24.51"/>
<polygon fill="#63b8ff" stroke="#63b8ff" points="3706.11,-71.01 3696.13,-74.58 3706.16,-78.01 3706.11,-71.01"/>
</a>
</g>
</g>
<!-- Node43 -->
<g id="Node000043" class="node">
<title>Node43</title>
<g id="a_Node000043"><a xlink:href="node__loader_8c.html" target="_top" xlink:title=" ">
<polygon fill="white" stroke="#666666" points="4508,-24.5 4395,-24.5 4395,-5.5 4508,-5.5 4508,-24.5"/>
<text text-anchor="middle" x="4451.5" y="-12.5" font-family="Helvetica,sans-Serif" font-size="10.00">src/io/node_loader.c</text>
</a>
</g>
</g>
<!-- Node5&#45;&gt;Node43 -->
<g id="edge42_Node000005_Node000043" class="edge">
<title>Node5&#45;&gt;Node43</title>
<g id="a_edge42_Node000005_Node000043"><a xlink:title=" ">
<path fill="none" stroke="#63b8ff" d="M3706.48,-73.88C3835.49,-71.91 4135.82,-63.77 4385.5,-30 4395.48,-28.65 4406.21,-26.63 4416.05,-24.54"/>
<polygon fill="#63b8ff" stroke="#63b8ff" points="3706.33,-70.38 3696.38,-74.02 3706.43,-77.38 3706.33,-70.38"/>
</a>
</g>
</g>
<!-- Node44 -->
<g id="Node000044" class="node">
<title>Node44</title>
<g id="a_Node000044"><a xlink:href="scene__loader_8c.html" target="_top" xlink:title=" ">
<polygon fill="white" stroke="#666666" points="4644.5,-24.5 4526.5,-24.5 4526.5,-5.5 4644.5,-5.5 4644.5,-24.5"/>
<text text-anchor="middle" x="4585.5" y="-12.5" font-family="Helvetica,sans-Serif" font-size="10.00">src/io/scene_loader.c</text>
</a>
</g>
</g>
<!-- Node5&#45;&gt;Node44 -->
<g id="edge43_Node000005_Node000044" class="edge">
<title>Node5&#45;&gt;Node44</title>
<g id="a_edge43_Node000005_Node000044"><a xlink:title=" ">
<path fill="none" stroke="#63b8ff" d="M3706.23,-74.51C3850.89,-73.81 4214.92,-68.06 4516.5,-30 4527.05,-28.67 4538.4,-26.63 4548.78,-24.51"/>
<polygon fill="#63b8ff" stroke="#63b8ff" points="3706.19,-71.01 3696.2,-74.55 3706.21,-78.01 3706.19,-71.01"/>
</a>
</g>
</g>
<!-- Node45 -->
<g id="Node000045" class="node">
<title>Node45</title>
<g id="a_Node000045"><a xlink:href="collision_8c.html" target="_top" xlink:title=" ">
<polygon fill="white" stroke="#666666" points="4784.5,-24.5 4662.5,-24.5 4662.5,-5.5 4784.5,-5.5 4784.5,-24.5"/>
<text text-anchor="middle" x="4723.5" y="-12.5" font-family="Helvetica,sans-Serif" font-size="10.00">src/physics/collision.c</text>
</a>
</g>
</g>
<!-- Node5&#45;&gt;Node45 -->
<g id="edge45_Node000005_Node000045" class="edge">
<title>Node5&#45;&gt;Node45</title>
<g id="a_edge45_Node000005_Node000045"><a xlink:title=" ">
<path fill="none" stroke="#63b8ff" d="M3706.32,-75.08C3866.36,-75.79 4297.45,-73.18 4653.5,-30 4664.2,-28.7 4675.72,-26.67 4686.25,-24.55"/>
<polygon fill="#63b8ff" stroke="#63b8ff" points="3706.19,-71.58 3696.17,-75.03 3706.15,-78.58 3706.19,-71.58"/>
</a>
</g>
</g>
<!-- Node46 -->
<g id="Node000046" class="node">
<title>Node46</title>
<g id="a_Node000046"><a xlink:href="collision__util_8c.html" target="_top" xlink:title=" ">
<polygon fill="white" stroke="#666666" points="4916.5,-30 4802.5,-30 4802.5,0 4916.5,0 4916.5,-30"/>
<text text-anchor="start" x="4810.5" y="-18" font-family="Helvetica,sans-Serif" font-size="10.00">src/physics/collision</text>
<text text-anchor="middle" x="4859.5" y="-7" font-family="Helvetica,sans-Serif" font-size="10.00">_util.c</text>
</a>
</g>
</g>
<!-- Node5&#45;&gt;Node46 -->
<g id="edge46_Node000005_Node000046" class="edge">
<title>Node5&#45;&gt;Node46</title>
<g id="a_edge46_Node000005_Node000046"><a xlink:title=" ">
<path fill="none" stroke="#63b8ff" d="M3706.29,-73.47C3915.64,-69.85 4580.54,-56.51 4793.5,-30 4796.41,-29.64 4799.37,-29.21 4802.36,-28.74"/>
<polygon fill="#63b8ff" stroke="#63b8ff" points="3706.02,-69.97 3696.08,-73.64 3706.14,-76.97 3706.02,-69.97"/>
</a>
</g>
</g>
<!-- Node47 -->
<g id="Node000047" class="node">
<title>Node47</title>
<g id="a_Node000047"><a xlink:href="physics_8c.html" target="_top" xlink:title=" ">
<polygon fill="white" stroke="#666666" points="5054,-24.5 4935,-24.5 4935,-5.5 5054,-5.5 5054,-24.5"/>
<text text-anchor="middle" x="4994.5" y="-12.5" font-family="Helvetica,sans-Serif" font-size="10.00">src/physics/physics.c</text>
</a>
</g>
</g>
<!-- Node5&#45;&gt;Node47 -->
<g id="edge47_Node000005_Node000047" class="edge">
<title>Node5&#45;&gt;Node47</title>
<g id="a_edge47_Node000005_Node000047"><a xlink:title=" ">
<path fill="none" stroke="#63b8ff" d="M3706.63,-73.68C3931.8,-70.58 4685.56,-58.31 4925.5,-30 4936.18,-28.74 4947.67,-26.69 4958.16,-24.55"/>
<polygon fill="#63b8ff" stroke="#63b8ff" points="3706.26,-70.19 3696.31,-73.82 3706.36,-77.18 3706.26,-70.19"/>
</a>
</g>
</g>
<!-- Node48 -->
<g id="Node000048" class="node">
<title>Node48</title>
<g id="a_Node000048"><a xlink:href="camera_8c.html" target="_top" xlink:title=" ">
<polygon fill="white" stroke="#666666" points="5185,-24.5 5072,-24.5 5072,-5.5 5185,-5.5 5185,-24.5"/>
<text text-anchor="middle" x="5128.5" y="-12.5" font-family="Helvetica,sans-Serif" font-size="10.00">src/render/camera.c</text>
</a>
</g>
</g>
<!-- Node5&#45;&gt;Node48 -->
<g id="edge49_Node000005_Node000048" class="edge">
<title>Node5&#45;&gt;Node48</title>
<g id="a_edge49_Node000005_Node000048"><a xlink:title=" ">
<path fill="none" stroke="#63b8ff" d="M3706.53,-74.01C3946.8,-71.91 4794.53,-62.36 5062.5,-30 5072.85,-28.75 5083.98,-26.68 5094.1,-24.5"/>
<polygon fill="#63b8ff" stroke="#63b8ff" points="3706.2,-70.51 3696.23,-74.09 3706.26,-77.51 3706.2,-70.51"/>
</a>
</g>
</g>
<!-- Node49 -->
<g id="Node000049" class="node">
<title>Node49</title>
<g id="a_Node000049"><a xlink:href="framebuffer_8c.html" target="_top" xlink:title=" ">
<polygon fill="white" stroke="#666666" points="5337.5,-24.5 5203.5,-24.5 5203.5,-5.5 5337.5,-5.5 5337.5,-24.5"/>
<text text-anchor="middle" x="5270.5" y="-12.5" font-family="Helvetica,sans-Serif" font-size="10.00">src/render/framebuffer.c</text>
</a>
</g>
</g>
<!-- Node5&#45;&gt;Node49 -->
<g id="edge50_Node000005_Node000049" class="edge">
<title>Node5&#45;&gt;Node49</title>
<g id="a_edge50_Node000005_Node000049"><a xlink:title=" ">
<path fill="none" stroke="#63b8ff" d="M3706.43,-73.96C3960.34,-71.59 4898.03,-60.92 5193.5,-30 5205.39,-28.76 5218.21,-26.71 5229.9,-24.57"/>
<polygon fill="#63b8ff" stroke="#63b8ff" points="3706.24,-70.46 3696.27,-74.05 3706.3,-77.46 3706.24,-70.46"/>
</a>
</g>
</g>
<!-- Node5&#45;&gt;Node52 -->
<g id="edge52_Node000005_Node000052" class="edge">
<title>Node5&#45;&gt;Node52</title>
<g id="a_edge52_Node000005_Node000052"><a xlink:title=" ">
<path fill="none" stroke="#63b8ff" d="M3706.39,-74.14C4179.44,-71.43 7124.61,-53.64 7310.5,-30 7319.6,-28.84 7329.34,-26.77 7338.16,-24.57"/>
<polygon fill="#63b8ff" stroke="#63b8ff" points="3706.31,-70.64 3696.33,-74.2 3706.35,-77.64 3706.31,-70.64"/>
</a>
</g>
</g>
</g>
</svg>
