<?xml version="1.0" encoding="UTF-8" standalone="no"?>
<!DOCTYPE svg PUBLIC "-//W3C//DTD SVG 1.1//EN"
 "http://www.w3.org/Graphics/SVG/1.1/DTD/svg11.dtd">
<!-- Generated by graphviz version 2.43.0 (0)
 -->
<!-- Title: src/settings.c Pages: 1 -->
<svg width="1838pt" height="313pt"
 viewBox="0.00 0.00 1838.00 313.00" xmlns="http://www.w3.org/2000/svg" xmlns:xlink="http://www.w3.org/1999/xlink">
<g id="graph0" class="graph" transform="scale(1 1) rotate(0) translate(4 309)">
<title>src/settings.c</title>
<!-- Node1 -->
<g id="Node000001" class="node">
<title>Node1</title>
<g id="a_Node000001"><a xlink:title=" ">
<polygon fill="#999999" stroke="#666666" points="1568.5,-305 1487.5,-305 1487.5,-286 1568.5,-286 1568.5,-305"/>
<text text-anchor="middle" x="1528" y="-293" font-family="Helvetica,sans-Serif" font-size="10.00">src/settings.c</text>
</a>
</g>
</g>
<!-- Node2 -->
<g id="Node000002" class="node">
<title>Node2</title>
<g id="a_Node000002"><a xlink:href="raptiquax_8h.html" target="_top" xlink:title="This file contains type definitions for fixed&#45;width integer types and floating&#45;point types.">
<polygon fill="white" stroke="#666666" points="855,-250 783,-250 783,-231 855,-231 855,-250"/>
<text text-anchor="middle" x="819" y="-238" font-family="Helvetica,sans-Serif" font-size="10.00">raptiquax.h</text>
</a>
</g>
</g>
<!-- Node1&#45;&gt;Node2 -->
<g id="edge1_Node000001_Node000002" class="edge">
<title>Node1&#45;&gt;Node2</title>
<g id="a_edge1_Node000001_Node000002"><a xlink:title=" ">
<path fill="none" stroke="#63b8ff" d="M1487.33,-291.46C1364.15,-282.25 995.55,-254.7 865.25,-244.96"/>
<polygon fill="#63b8ff" stroke="#63b8ff" points="865.43,-241.46 855.2,-244.21 864.91,-248.44 865.43,-241.46"/>
</a>
</g>
</g>
<!-- Node24 -->
<g id="Node000024" class="node">
<title>Node24</title>
<g id="a_Node000024"><a xlink:href="settings_8h.html" target="_top" xlink:title=" ">
<polygon fill="white" stroke="#666666" points="1408.5,-250 1343.5,-250 1343.5,-231 1408.5,-231 1408.5,-250"/>
<text text-anchor="middle" x="1376" y="-238" font-family="Helvetica,sans-Serif" font-size="10.00">settings.h</text>
</a>
</g>
</g>
<!-- Node1&#45;&gt;Node24 -->
<g id="edge23_Node000001_Node000024" class="edge">
<title>Node1&#45;&gt;Node24</title>
<g id="a_edge23_Node000001_Node000024"><a xlink:title=" ">
<path fill="none" stroke="#63b8ff" d="M1503.58,-285.98C1478.28,-277.16 1438.55,-263.31 1410.14,-253.41"/>
<polygon fill="#63b8ff" stroke="#63b8ff" points="1411.21,-250.07 1400.61,-250.08 1408.9,-256.68 1411.21,-250.07"/>
</a>
</g>
</g>
<!-- Node25 -->
<g id="Node000025" class="node">
<title>Node25</title>
<g id="a_Node000025"><a xlink:href="math__util_8h.html" target="_top" xlink:title=" ">
<polygon fill="white" stroke="#666666" points="1527.5,-250 1426.5,-250 1426.5,-231 1527.5,-231 1527.5,-250"/>
<text text-anchor="middle" x="1477" y="-238" font-family="Helvetica,sans-Serif" font-size="10.00">math/math_util.h</text>
</a>
</g>
</g>
<!-- Node1&#45;&gt;Node25 -->
<g id="edge24_Node000001_Node000025" class="edge">
<title>Node1&#45;&gt;Node25</title>
<g id="a_edge24_Node000001_Node000025"><a xlink:title=" ">
<path fill="none" stroke="#63b8ff" d="M1519.58,-285.75C1512.23,-278.11 1501.37,-266.82 1492.46,-257.56"/>
<polygon fill="#63b8ff" stroke="#63b8ff" points="1494.72,-254.87 1485.26,-250.09 1489.68,-259.72 1494.72,-254.87"/>
</a>
</g>
</g>
<!-- Node26 -->
<g id="Node000026" class="node">
<title>Node26</title>
<g id="a_Node000026"><a xlink:href="model_8h.html" target="_top" xlink:title="Defines structures and functions for handling 3D models and their properties.">
<polygon fill="white" stroke="#666666" points="1614,-250 1546,-250 1546,-231 1614,-231 1614,-250"/>
<text text-anchor="middle" x="1580" y="-238" font-family="Helvetica,sans-Serif" font-size="10.00">io/model.h</text>
</a>
</g>
</g>
<!-- Node1&#45;&gt;Node26 -->
<g id="edge25_Node000001_Node000026" class="edge">
<title>Node1&#45;&gt;Node26</title>
<g id="a_edge25_Node000001_Node000026"><a xlink:title=" ">
<path fill="none" stroke="#63b8ff" d="M1536.59,-285.75C1544.16,-278.03 1555.38,-266.6 1564.51,-257.28"/>
<polygon fill="#63b8ff" stroke="#63b8ff" points="1567.07,-259.68 1571.57,-250.09 1562.07,-254.78 1567.07,-259.68"/>
</a>
</g>
</g>
<!-- Node32 -->
<g id="Node000032" class="node">
<title>Node32</title>
<g id="a_Node000032"><a xlink:href="framebuffer_8h.html" target="_top" xlink:title=" ">
<polygon fill="white" stroke="#666666" points="1749.5,-250 1632.5,-250 1632.5,-231 1749.5,-231 1749.5,-250"/>
<text text-anchor="middle" x="1691" y="-238" font-family="Helvetica,sans-Serif" font-size="10.00">render/framebuffer.h</text>
</a>
</g>
</g>
<!-- Node1&#45;&gt;Node32 -->
<g id="edge31_Node000001_Node000032" class="edge">
<title>Node1&#45;&gt;Node32</title>
<g id="a_edge31_Node000001_Node000032"><a xlink:title=" ">
<path fill="none" stroke="#63b8ff" d="M1554.19,-285.98C1581.44,-277.13 1624.3,-263.19 1654.78,-253.28"/>
<polygon fill="#63b8ff" stroke="#63b8ff" points="1656.18,-256.5 1664.61,-250.08 1654.01,-249.85 1656.18,-256.5"/>
</a>
</g>
</g>
<!-- Node34 -->
<g id="Node000034" class="node">
<title>Node34</title>
<g id="a_Node000034"><a xlink:href="window_8h.html" target="_top" xlink:title=" ">
<polygon fill="white" stroke="#666666" points="1830,-250 1768,-250 1768,-231 1830,-231 1830,-250"/>
<text text-anchor="middle" x="1799" y="-238" font-family="Helvetica,sans-Serif" font-size="10.00">window.h</text>
</a>
</g>
</g>
<!-- Node1&#45;&gt;Node34 -->
<g id="edge33_Node000001_Node000034" class="edge">
<title>Node1&#45;&gt;Node34</title>
<g id="a_edge33_Node000001_Node000034"><a xlink:title=" ">
<path fill="none" stroke="#63b8ff" d="M1568.75,-286.79C1612.68,-278.43 1684.94,-264.58 1757.44,-250.09"/>
<polygon fill="#63b8ff" stroke="#63b8ff" points="1758.55,-253.44 1767.67,-248.04 1757.18,-246.57 1758.55,-253.44"/>
</a>
</g>
</g>
<!-- Node3 -->
<g id="Node000003" class="node">
<title>Node3</title>
<g id="a_Node000003"><a xlink:title=" ">
<polygon fill="#e0e0e0" stroke="#999999" points="50,-189.5 0,-189.5 0,-170.5 50,-170.5 50,-189.5"/>
<text text-anchor="middle" x="25" y="-177.5" font-family="Helvetica,sans-Serif" font-size="10.00">stdio.h</text>
</a>
</g>
</g>
<!-- Node2&#45;&gt;Node3 -->
<g id="edge2_Node000002_Node000003" class="edge">
<title>Node2&#45;&gt;Node3</title>
<g id="a_edge2_Node000002_Node000003"><a xlink:title=" ">
<path fill="none" stroke="#63b8ff" d="M782.57,-238.96C650.78,-236.77 199.29,-227.04 59,-195 56.78,-194.49 54.51,-193.85 52.26,-193.13"/>
<polygon fill="#63b8ff" stroke="#63b8ff" points="53.23,-189.76 42.63,-189.56 50.79,-196.32 53.23,-189.76"/>
</a>
</g>
</g>
<!-- Node4 -->
<g id="Node000004" class="node">
<title>Node4</title>
<g id="a_Node000004"><a xlink:title=" ">
<polygon fill="#e0e0e0" stroke="#999999" points="121.5,-189.5 68.5,-189.5 68.5,-170.5 121.5,-170.5 121.5,-189.5"/>
<text text-anchor="middle" x="95" y="-177.5" font-family="Helvetica,sans-Serif" font-size="10.00">stdint.h</text>
</a>
</g>
</g>
<!-- Node2&#45;&gt;Node4 -->
<g id="edge3_Node000002_Node000004" class="edge">
<title>Node2&#45;&gt;Node4</title>
<g id="a_edge3_Node000002_Node000004"><a xlink:title=" ">
<path fill="none" stroke="#63b8ff" d="M782.68,-238.61C659.31,-235.38 257.07,-222.89 131,-195 128.48,-194.44 125.9,-193.74 123.34,-192.94"/>
<polygon fill="#63b8ff" stroke="#63b8ff" points="124.31,-189.57 113.72,-189.53 121.98,-196.17 124.31,-189.57"/>
</a>
</g>
</g>
<!-- Node5 -->
<g id="Node000005" class="node">
<title>Node5</title>
<g id="a_Node000005"><a xlink:title=" ">
<polygon fill="#e0e0e0" stroke="#999999" points="202,-189.5 140,-189.5 140,-170.5 202,-170.5 202,-189.5"/>
<text text-anchor="middle" x="171" y="-177.5" font-family="Helvetica,sans-Serif" font-size="10.00">stdbool.h</text>
</a>
</g>
</g>
<!-- Node2&#45;&gt;Node5 -->
<g id="edge4_Node000002_Node000005" class="edge">
<title>Node2&#45;&gt;Node5</title>
<g id="a_edge4_Node000002_Node000005"><a xlink:title=" ">
<path fill="none" stroke="#63b8ff" d="M782.91,-240.15C688.08,-241.14 424.47,-239.35 211,-195 208,-194.38 204.92,-193.59 201.86,-192.7"/>
<polygon fill="#63b8ff" stroke="#63b8ff" points="202.89,-189.35 192.29,-189.62 200.74,-196.02 202.89,-189.35"/>
</a>
</g>
</g>
<!-- Node6 -->
<g id="Node000006" class="node">
<title>Node6</title>
<g id="a_Node000006"><a xlink:title=" ">
<polygon fill="#e0e0e0" stroke="#999999" points="276,-189.5 220,-189.5 220,-170.5 276,-170.5 276,-189.5"/>
<text text-anchor="middle" x="248" y="-177.5" font-family="Helvetica,sans-Serif" font-size="10.00">stdarg.h</text>
</a>
</g>
</g>
<!-- Node2&#45;&gt;Node6 -->
<g id="edge5_Node000002_Node000006" class="edge">
<title>Node2&#45;&gt;Node6</title>
<g id="a_edge5_Node000002_Node000006"><a xlink:title=" ">
<path fill="none" stroke="#63b8ff" d="M782.86,-239.93C695.93,-240.21 468.74,-236.56 285,-195 282.48,-194.43 279.9,-193.73 277.34,-192.94"/>
<polygon fill="#63b8ff" stroke="#63b8ff" points="278.25,-189.55 267.66,-189.6 275.97,-196.17 278.25,-189.55"/>
</a>
</g>
</g>
<!-- Node7 -->
<g id="Node000007" class="node">
<title>Node7</title>
<g id="a_Node000007"><a xlink:title=" ">
<polygon fill="#e0e0e0" stroke="#999999" points="347.5,-189.5 294.5,-189.5 294.5,-170.5 347.5,-170.5 347.5,-189.5"/>
<text text-anchor="middle" x="321" y="-177.5" font-family="Helvetica,sans-Serif" font-size="10.00">limits.h</text>
</a>
</g>
</g>
<!-- Node2&#45;&gt;Node7 -->
<g id="edge6_Node000002_Node000007" class="edge">
<title>Node2&#45;&gt;Node7</title>
<g id="a_edge6_Node000002_Node000007"><a xlink:title=" ">
<path fill="none" stroke="#63b8ff" d="M782.8,-239.37C704.19,-238.36 512.42,-231.96 357,-195 354.63,-194.44 352.21,-193.75 349.8,-192.99"/>
<polygon fill="#63b8ff" stroke="#63b8ff" points="350.71,-189.6 340.12,-189.56 348.37,-196.2 350.71,-189.6"/>
</a>
</g>
</g>
<!-- Node8 -->
<g id="Node000008" class="node">
<title>Node8</title>
<g id="a_Node000008"><a xlink:title=" ">
<polygon fill="#e0e0e0" stroke="#999999" points="438,-189.5 366,-189.5 366,-170.5 438,-170.5 438,-189.5"/>
<text text-anchor="middle" x="402" y="-177.5" font-family="Helvetica,sans-Serif" font-size="10.00">SDL2/SDL.h</text>
</a>
</g>
</g>
<!-- Node2&#45;&gt;Node8 -->
<g id="edge7_Node000002_Node000008" class="edge">
<title>Node2&#45;&gt;Node8</title>
<g id="a_edge7_Node000002_Node000008"><a xlink:title=" ">
<path fill="none" stroke="#63b8ff" d="M782.99,-237.38C716.16,-232.97 568.65,-220.97 447,-195 443.53,-194.26 439.95,-193.37 436.4,-192.4"/>
<polygon fill="#63b8ff" stroke="#63b8ff" points="437.12,-188.97 426.54,-189.52 435.16,-195.69 437.12,-188.97"/>
</a>
</g>
</g>
<!-- Node9 -->
<g id="Node000009" class="node">
<title>Node9</title>
<g id="a_Node000009"><a xlink:title=" ">
<polygon fill="#e0e0e0" stroke="#999999" points="564,-189.5 456,-189.5 456,-170.5 564,-170.5 564,-189.5"/>
<text text-anchor="middle" x="510" y="-177.5" font-family="Helvetica,sans-Serif" font-size="10.00">SDL2/SDL_image.h</text>
</a>
</g>
</g>
<!-- Node2&#45;&gt;Node9 -->
<g id="edge8_Node000002_Node000009" class="edge">
<title>Node2&#45;&gt;Node9</title>
<g id="a_edge8_Node000002_Node000009"><a xlink:title=" ">
<path fill="none" stroke="#63b8ff" d="M782.65,-233.39C734.57,-225.2 647.24,-209.96 573,-195 567.91,-193.98 562.61,-192.86 557.32,-191.73"/>
<polygon fill="#63b8ff" stroke="#63b8ff" points="557.77,-188.24 547.26,-189.54 556.28,-195.08 557.77,-188.24"/>
</a>
</g>
</g>
<!-- Node10 -->
<g id="Node000010" class="node">
<title>Node10</title>
<g id="a_Node000010"><a xlink:title=" ">
<polygon fill="#e0e0e0" stroke="#999999" points="692,-189.5 582,-189.5 582,-170.5 692,-170.5 692,-189.5"/>
<text text-anchor="middle" x="637" y="-177.5" font-family="Helvetica,sans-Serif" font-size="10.00">SDL2/SDL_opengl.h</text>
</a>
</g>
</g>
<!-- Node2&#45;&gt;Node10 -->
<g id="edge9_Node000002_Node000010" class="edge">
<title>Node2&#45;&gt;Node10</title>
<g id="a_edge9_Node000002_Node000010"><a xlink:title=" ">
<path fill="none" stroke="#63b8ff" d="M792.54,-230.99C761.13,-220.9 708.6,-204.01 673.38,-192.69"/>
<polygon fill="#63b8ff" stroke="#63b8ff" points="674.09,-189.24 663.5,-189.52 671.95,-195.91 674.09,-189.24"/>
</a>
</g>
</g>
<!-- Node11 -->
<g id="Node000011" class="node">
<title>Node11</title>
<g id="a_Node000011"><a xlink:title=" ">
<polygon fill="#e0e0e0" stroke="#999999" points="814,-189.5 710,-189.5 710,-170.5 814,-170.5 814,-189.5"/>
<text text-anchor="middle" x="762" y="-177.5" font-family="Helvetica,sans-Serif" font-size="10.00">SDL2/SDL_mixer.h</text>
</a>
</g>
</g>
<!-- Node2&#45;&gt;Node11 -->
<g id="edge10_Node000002_Node000011" class="edge">
<title>Node2&#45;&gt;Node11</title>
<g id="a_edge10_Node000002_Node000011"><a xlink:title=" ">
<path fill="none" stroke="#63b8ff" d="M810.59,-230.87C801.92,-221.97 788.2,-207.89 777.54,-196.95"/>
<polygon fill="#63b8ff" stroke="#63b8ff" points="779.93,-194.39 770.45,-189.67 774.92,-199.27 779.93,-194.39"/>
</a>
</g>
</g>
<!-- Node12 -->
<g id="Node000012" class="node">
<title>Node12</title>
<g id="a_Node000012"><a xlink:title=" ">
<polygon fill="#e0e0e0" stroke="#999999" points="920,-189.5 832,-189.5 832,-170.5 920,-170.5 920,-189.5"/>
<text text-anchor="middle" x="876" y="-177.5" font-family="Helvetica,sans-Serif" font-size="10.00">SDL2/SDL_ttf.h</text>
</a>
</g>
</g>
<!-- Node2&#45;&gt;Node12 -->
<g id="edge11_Node000002_Node000012" class="edge">
<title>Node2&#45;&gt;Node12</title>
<g id="a_edge11_Node000002_Node000012"><a xlink:title=" ">
<path fill="none" stroke="#63b8ff" d="M827.41,-230.87C836.08,-221.97 849.8,-207.89 860.46,-196.95"/>
<polygon fill="#63b8ff" stroke="#63b8ff" points="863.08,-199.27 867.55,-189.67 858.07,-194.39 863.08,-199.27"/>
</a>
</g>
</g>
<!-- Node13 -->
<g id="Node000013" class="node">
<title>Node13</title>
<g id="a_Node000013"><a xlink:title=" ">
<polygon fill="#e0e0e0" stroke="#999999" points="988,-189.5 938,-189.5 938,-170.5 988,-170.5 988,-189.5"/>
<text text-anchor="middle" x="963" y="-177.5" font-family="Helvetica,sans-Serif" font-size="10.00">GL/gl.h</text>
</a>
</g>
</g>
<!-- Node2&#45;&gt;Node13 -->
<g id="edge12_Node000002_Node000013" class="edge">
<title>Node2&#45;&gt;Node13</title>
<g id="a_edge12_Node000002_Node000013"><a xlink:title=" ">
<path fill="none" stroke="#63b8ff" d="M840.52,-230.84C862.7,-221.9 898.29,-207.53 929,-195 930.2,-194.51 931.42,-194.01 932.65,-193.51"/>
<polygon fill="#63b8ff" stroke="#63b8ff" points="934.23,-196.64 942.15,-189.61 931.57,-190.17 934.23,-196.64"/>
</a>
</g>
</g>
<!-- Node14 -->
<g id="Node000014" class="node">
<title>Node14</title>
<g id="a_Node000014"><a xlink:title=" ">
<polygon fill="#e0e0e0" stroke="#999999" points="1062,-189.5 1006,-189.5 1006,-170.5 1062,-170.5 1062,-189.5"/>
<text text-anchor="middle" x="1034" y="-177.5" font-family="Helvetica,sans-Serif" font-size="10.00">GL/glu.h</text>
</a>
</g>
</g>
<!-- Node2&#45;&gt;Node14 -->
<g id="edge13_Node000002_Node000014" class="edge">
<title>Node2&#45;&gt;Node14</title>
<g id="a_edge13_Node000002_Node000014"><a xlink:title=" ">
<path fill="none" stroke="#63b8ff" d="M855.14,-231.77C891.35,-223.72 948.51,-210.18 997,-195 998.92,-194.4 1000.88,-193.75 1002.85,-193.08"/>
<polygon fill="#63b8ff" stroke="#63b8ff" points="1004.4,-196.24 1012.63,-189.57 1002.03,-189.66 1004.4,-196.24"/>
</a>
</g>
</g>
<!-- Node15 -->
<g id="Node000015" class="node">
<title>Node15</title>
<g id="a_Node000015"><a xlink:title=" ">
<polygon fill="#e0e0e0" stroke="#999999" points="1146,-189.5 1080,-189.5 1080,-170.5 1146,-170.5 1146,-189.5"/>
<text text-anchor="middle" x="1113" y="-177.5" font-family="Helvetica,sans-Serif" font-size="10.00">GL/glext.h</text>
</a>
</g>
</g>
<!-- Node2&#45;&gt;Node15 -->
<g id="edge14_Node000002_Node000015" class="edge">
<title>Node2&#45;&gt;Node15</title>
<g id="a_edge14_Node000002_Node000015"><a xlink:title=" ">
<path fill="none" stroke="#63b8ff" d="M855.24,-234.81C904.52,-228.04 995.21,-214.21 1071,-195 1073.79,-194.29 1076.67,-193.49 1079.55,-192.64"/>
<polygon fill="#63b8ff" stroke="#63b8ff" points="1080.7,-195.94 1089.19,-189.61 1078.6,-189.27 1080.7,-195.94"/>
</a>
</g>
</g>
<!-- Node16 -->
<g id="Node000016" class="node">
<title>Node16</title>
<g id="a_Node000016"><a xlink:title=" ">
<polygon fill="#e0e0e0" stroke="#999999" points="1241.5,-189.5 1164.5,-189.5 1164.5,-170.5 1241.5,-170.5 1241.5,-189.5"/>
<text text-anchor="middle" x="1203" y="-177.5" font-family="Helvetica,sans-Serif" font-size="10.00">cglm/cglm.h</text>
</a>
</g>
</g>
<!-- Node2&#45;&gt;Node16 -->
<g id="edge15_Node000002_Node000016" class="edge">
<title>Node2&#45;&gt;Node16</title>
<g id="a_edge15_Node000002_Node000016"><a xlink:title=" ">
<path fill="none" stroke="#63b8ff" d="M855.11,-236.53C916.98,-231.05 1047.04,-217.75 1155,-195 1158.86,-194.19 1162.85,-193.22 1166.82,-192.19"/>
<polygon fill="#63b8ff" stroke="#63b8ff" points="1167.82,-195.54 1176.52,-189.5 1165.95,-188.79 1167.82,-195.54"/>
</a>
</g>
</g>
<!-- Node17 -->
<g id="Node000017" class="node">
<title>Node17</title>
<g id="a_Node000017"><a xlink:title=" ">
<polygon fill="#e0e0e0" stroke="#999999" points="1310.5,-189.5 1259.5,-189.5 1259.5,-170.5 1310.5,-170.5 1310.5,-189.5"/>
<text text-anchor="middle" x="1285" y="-177.5" font-family="Helvetica,sans-Serif" font-size="10.00">math.h</text>
</a>
</g>
</g>
<!-- Node2&#45;&gt;Node17 -->
<g id="edge16_Node000002_Node000017" class="edge">
<title>Node2&#45;&gt;Node17</title>
<g id="a_edge16_Node000002_Node000017"><a xlink:title=" ">
<path fill="none" stroke="#63b8ff" d="M855.05,-239.13C929.8,-237.65 1106.66,-230.33 1250,-195 1252.31,-194.43 1254.66,-193.74 1257,-192.98"/>
<polygon fill="#63b8ff" stroke="#63b8ff" points="1258.23,-196.26 1266.43,-189.54 1255.83,-189.68 1258.23,-196.26"/>
</a>
</g>
</g>
<!-- Node18 -->
<g id="Node000018" class="node">
<title>Node18</title>
<g id="a_Node000018"><a xlink:href="stringio_8h.html" target="_top" xlink:title="Provides utility functions for string and file operations.">
<polygon fill="white" stroke="#666666" points="1403,-189.5 1329,-189.5 1329,-170.5 1403,-170.5 1403,-189.5"/>
<text text-anchor="middle" x="1366" y="-177.5" font-family="Helvetica,sans-Serif" font-size="10.00">io/stringio.h</text>
</a>
</g>
</g>
<!-- Node2&#45;&gt;Node18 -->
<g id="edge17_Node000002_Node000018" class="edge">
<title>Node2&#45;&gt;Node18</title>
<g id="a_edge17_Node000002_Node000018"><a xlink:title=" ">
<path fill="none" stroke="#63b8ff" d="M855.11,-238.76C937.88,-236.54 1147.38,-227.85 1319,-195 1322.93,-194.25 1327.01,-193.3 1331.04,-192.25"/>
<polygon fill="#63b8ff" stroke="#63b8ff" points="1332.18,-195.57 1340.86,-189.5 1330.29,-188.83 1332.18,-195.57"/>
</a>
</g>
</g>
<!-- Node20 -->
<g id="Node000020" class="node">
<title>Node20</title>
<g id="a_Node000020"><a xlink:href="config_8h.html" target="_top" xlink:title=" ">
<polygon fill="white" stroke="#666666" points="1476.5,-189.5 1421.5,-189.5 1421.5,-170.5 1476.5,-170.5 1476.5,-189.5"/>
<text text-anchor="middle" x="1449" y="-177.5" font-family="Helvetica,sans-Serif" font-size="10.00">config.h</text>
</a>
</g>
</g>
<!-- Node2&#45;&gt;Node20 -->
<g id="edge19_Node000002_Node000020" class="edge">
<title>Node2&#45;&gt;Node20</title>
<g id="a_edge19_Node000002_Node000020"><a xlink:title=" ">
<path fill="none" stroke="#63b8ff" d="M855.27,-238.14C967.01,-233.74 1304.91,-218.76 1412,-195 1414.52,-194.44 1417.1,-193.74 1419.67,-192.96"/>
<polygon fill="#63b8ff" stroke="#63b8ff" points="1421.03,-196.19 1429.35,-189.63 1418.76,-189.57 1421.03,-196.19"/>
</a>
</g>
</g>
<!-- Node19 -->
<g id="Node000019" class="node">
<title>Node19</title>
<g id="a_Node000019"><a xlink:title=" ">
<polygon fill="#e0e0e0" stroke="#999999" points="1392.5,-129 1339.5,-129 1339.5,-110 1392.5,-110 1392.5,-129"/>
<text text-anchor="middle" x="1366" y="-117" font-family="Helvetica,sans-Serif" font-size="10.00">string.h</text>
</a>
</g>
</g>
<!-- Node18&#45;&gt;Node19 -->
<g id="edge18_Node000018_Node000019" class="edge">
<title>Node18&#45;&gt;Node19</title>
<g id="a_edge18_Node000018_Node000019"><a xlink:title=" ">
<path fill="none" stroke="#63b8ff" d="M1366,-170.37C1366,-162.25 1366,-149.81 1366,-139.39"/>
<polygon fill="#63b8ff" stroke="#63b8ff" points="1369.5,-139.17 1366,-129.17 1362.5,-139.17 1369.5,-139.17"/>
</a>
</g>
</g>
<!-- Node21 -->
<g id="Node000021" class="node">
<title>Node21</title>
<g id="a_Node000021"><a xlink:href="term_8h.html" target="_top" xlink:title=" ">
<polygon fill="white" stroke="#666666" points="1485.5,-129 1410.5,-129 1410.5,-110 1485.5,-110 1485.5,-129"/>
<text text-anchor="middle" x="1448" y="-117" font-family="Helvetica,sans-Serif" font-size="10.00">term/term.h</text>
</a>
</g>
</g>
<!-- Node20&#45;&gt;Node21 -->
<g id="edge20_Node000020_Node000021" class="edge">
<title>Node20&#45;&gt;Node21</title>
<g id="a_edge20_Node000020_Node000021"><a xlink:title=" ">
<path fill="none" stroke="#63b8ff" d="M1448.85,-170.37C1448.71,-162.25 1448.5,-149.81 1448.32,-139.39"/>
<polygon fill="#63b8ff" stroke="#63b8ff" points="1451.82,-139.11 1448.15,-129.17 1444.82,-139.23 1451.82,-139.11"/>
</a>
</g>
</g>
<!-- Node22 -->
<g id="Node000022" class="node">
<title>Node22</title>
<g id="a_Node000022"><a xlink:href="enhanced__print_8h.html" target="_top" xlink:title=" ">
<polygon fill="white" stroke="#666666" points="1498.5,-74 1397.5,-74 1397.5,-55 1498.5,-55 1498.5,-74"/>
<text text-anchor="middle" x="1448" y="-62" font-family="Helvetica,sans-Serif" font-size="10.00">enhanced_print.h</text>
</a>
</g>
</g>
<!-- Node21&#45;&gt;Node22 -->
<g id="edge21_Node000021_Node000022" class="edge">
<title>Node21&#45;&gt;Node22</title>
<g id="a_edge21_Node000021_Node000022"><a xlink:title=" ">
<path fill="none" stroke="#63b8ff" d="M1448,-109.75C1448,-102.8 1448,-92.85 1448,-84.13"/>
<polygon fill="#63b8ff" stroke="#63b8ff" points="1451.5,-84.09 1448,-74.09 1444.5,-84.09 1451.5,-84.09"/>
</a>
</g>
</g>
<!-- Node23 -->
<g id="Node000023" class="node">
<title>Node23</title>
<g id="a_Node000023"><a xlink:href="color_8h.html" target="_top" xlink:title=" ">
<polygon fill="white" stroke="#666666" points="1472.5,-19 1423.5,-19 1423.5,0 1472.5,0 1472.5,-19"/>
<text text-anchor="middle" x="1448" y="-7" font-family="Helvetica,sans-Serif" font-size="10.00">color.h</text>
</a>
</g>
</g>
<!-- Node22&#45;&gt;Node23 -->
<g id="edge22_Node000022_Node000023" class="edge">
<title>Node22&#45;&gt;Node23</title>
<g id="a_edge22_Node000022_Node000023"><a xlink:title=" ">
<path fill="none" stroke="#63b8ff" d="M1448,-54.75C1448,-47.8 1448,-37.85 1448,-29.13"/>
<polygon fill="#63b8ff" stroke="#63b8ff" points="1451.5,-29.09 1448,-19.09 1444.5,-29.09 1451.5,-29.09"/>
</a>
</g>
</g>
<!-- Node27 -->
<g id="Node000027" class="node">
<title>Node27</title>
<g id="a_Node000027"><a xlink:href="shader_8h.html" target="_top" xlink:title=" ">
<polygon fill="white" stroke="#666666" points="1555,-189.5 1497,-189.5 1497,-170.5 1555,-170.5 1555,-189.5"/>
<text text-anchor="middle" x="1526" y="-177.5" font-family="Helvetica,sans-Serif" font-size="10.00">shader.h</text>
</a>
</g>
</g>
<!-- Node26&#45;&gt;Node27 -->
<g id="edge26_Node000026_Node000027" class="edge">
<title>Node26&#45;&gt;Node27</title>
<g id="a_edge26_Node000026_Node000027"><a xlink:title=" ">
<path fill="none" stroke="#63b8ff" d="M1572.03,-230.87C1563.9,-222.05 1551.07,-208.16 1541.02,-197.27"/>
<polygon fill="#63b8ff" stroke="#63b8ff" points="1543.36,-194.64 1534,-189.67 1538.21,-199.39 1543.36,-194.64"/>
</a>
</g>
</g>
<!-- Node28 -->
<g id="Node000028" class="node">
<title>Node28</title>
<g id="a_Node000028"><a xlink:href="model__loader_8h.html" target="_top" xlink:title=" ">
<polygon fill="white" stroke="#666666" points="1695,-195 1573,-195 1573,-165 1695,-165 1695,-195"/>
<text text-anchor="start" x="1581" y="-183" font-family="Helvetica,sans-Serif" font-size="10.00">model_loaders/model</text>
<text text-anchor="middle" x="1634" y="-172" font-family="Helvetica,sans-Serif" font-size="10.00">_loader.h</text>
</a>
</g>
</g>
<!-- Node26&#45;&gt;Node28 -->
<g id="edge27_Node000026_Node000028" class="edge">
<title>Node26&#45;&gt;Node28</title>
<g id="a_edge27_Node000026_Node000028"><a xlink:title=" ">
<path fill="none" stroke="#63b8ff" d="M1587.97,-230.87C1594.82,-223.44 1605,-212.42 1614.05,-202.62"/>
<polygon fill="#63b8ff" stroke="#63b8ff" points="1616.76,-204.84 1620.97,-195.11 1611.62,-200.09 1616.76,-204.84"/>
</a>
</g>
</g>
<!-- Node29 -->
<g id="Node000029" class="node">
<title>Node29</title>
<g id="a_Node000029"><a xlink:href="obj__loader_8h.html" target="_top" xlink:title=" ">
<polygon fill="white" stroke="#666666" points="1580,-129 1504,-129 1504,-110 1580,-110 1580,-129"/>
<text text-anchor="middle" x="1542" y="-117" font-family="Helvetica,sans-Serif" font-size="10.00">obj_loader.h</text>
</a>
</g>
</g>
<!-- Node28&#45;&gt;Node29 -->
<g id="edge28_Node000028_Node000029" class="edge">
<title>Node28&#45;&gt;Node29</title>
<g id="a_edge28_Node000028_Node000029"><a xlink:title=" ">
<path fill="none" stroke="#63b8ff" d="M1611.73,-164.84C1597.33,-155.68 1578.67,-143.82 1564.27,-134.66"/>
<polygon fill="#63b8ff" stroke="#63b8ff" points="1565.83,-131.51 1555.52,-129.09 1562.08,-137.41 1565.83,-131.51"/>
</a>
</g>
</g>
<!-- Node30 -->
<g id="Node000030" class="node">
<title>Node30</title>
<g id="a_Node000030"><a xlink:href="mtl__loader_8h.html" target="_top" xlink:title=" ">
<polygon fill="white" stroke="#666666" points="1675.5,-129 1598.5,-129 1598.5,-110 1675.5,-110 1675.5,-129"/>
<text text-anchor="middle" x="1637" y="-117" font-family="Helvetica,sans-Serif" font-size="10.00">mtl_loader.h</text>
</a>
</g>
</g>
<!-- Node28&#45;&gt;Node30 -->
<g id="edge29_Node000028_Node000030" class="edge">
<title>Node28&#45;&gt;Node30</title>
<g id="a_edge29_Node000028_Node000030"><a xlink:title=" ">
<path fill="none" stroke="#63b8ff" d="M1634.73,-164.84C1635.12,-157.21 1635.6,-147.7 1636.03,-139.45"/>
<polygon fill="#63b8ff" stroke="#63b8ff" points="1639.53,-139.43 1636.55,-129.27 1632.54,-139.07 1639.53,-139.43"/>
</a>
</g>
</g>
<!-- Node31 -->
<g id="Node000031" class="node">
<title>Node31</title>
<g id="a_Node000031"><a xlink:href="fbx__loader_8h.html" target="_top" xlink:title=" ">
<polygon fill="white" stroke="#666666" points="1770.5,-129 1693.5,-129 1693.5,-110 1770.5,-110 1770.5,-129"/>
<text text-anchor="middle" x="1732" y="-117" font-family="Helvetica,sans-Serif" font-size="10.00">fbx_loader.h</text>
</a>
</g>
</g>
<!-- Node28&#45;&gt;Node31 -->
<g id="edge30_Node000028_Node000031" class="edge">
<title>Node28&#45;&gt;Node31</title>
<g id="a_edge30_Node000028_Node000031"><a xlink:title=" ">
<path fill="none" stroke="#63b8ff" d="M1657.72,-164.84C1673.2,-155.6 1693.32,-143.59 1708.71,-134.4"/>
<polygon fill="#63b8ff" stroke="#63b8ff" points="1710.81,-137.23 1717.6,-129.09 1707.22,-131.21 1710.81,-137.23"/>
</a>
</g>
</g>
<!-- Node33 -->
<g id="Node000033" class="node">
<title>Node33</title>
<g id="a_Node000033"><a xlink:href="input_8h.html" target="_top" xlink:title=" ">
<polygon fill="white" stroke="#666666" points="1784.5,-189.5 1713.5,-189.5 1713.5,-170.5 1784.5,-170.5 1784.5,-189.5"/>
<text text-anchor="middle" x="1749" y="-177.5" font-family="Helvetica,sans-Serif" font-size="10.00">../io/input.h</text>
</a>
</g>
</g>
<!-- Node32&#45;&gt;Node33 -->
<g id="edge32_Node000032_Node000033" class="edge">
<title>Node32&#45;&gt;Node33</title>
<g id="a_edge32_Node000032_Node000033"><a xlink:title=" ">
<path fill="none" stroke="#63b8ff" d="M1699.56,-230.87C1708.38,-221.97 1722.34,-207.89 1733.18,-196.95"/>
<polygon fill="#63b8ff" stroke="#63b8ff" points="1735.85,-199.23 1740.41,-189.67 1730.88,-194.3 1735.85,-199.23"/>
</a>
</g>
</g>
</g>
</svg>
