<?xml version="1.0" encoding="UTF-8" standalone="no"?>
<!DOCTYPE svg PUBLIC "-//W3C//DTD SVG 1.1//EN"
 "http://www.w3.org/Graphics/SVG/1.1/DTD/svg11.dtd">
<!-- Generated by graphviz version 2.43.0 (0)
 -->
<!-- Title: src/io/shader.c Pages: 1 -->
<svg width="1779pt" height="313pt"
 viewBox="0.00 0.00 1778.50 313.00" xmlns="http://www.w3.org/2000/svg" xmlns:xlink="http://www.w3.org/1999/xlink">
<g id="graph0" class="graph" transform="scale(1 1) rotate(0) translate(4 309)">
<title>src/io/shader.c</title>
<!-- Node1 -->
<g id="Node000001" class="node">
<title>Node1</title>
<g id="a_Node000001"><a xlink:title=" ">
<polygon fill="#999999" stroke="#666666" points="1541,-305 1455,-305 1455,-286 1541,-286 1541,-305"/>
<text text-anchor="middle" x="1498" y="-293" font-family="Helvetica,sans-Serif" font-size="10.00">src/io/shader.c</text>
</a>
</g>
</g>
<!-- Node2 -->
<g id="Node000002" class="node">
<title>Node2</title>
<g id="a_Node000002"><a xlink:href="raptiquax_8h.html" target="_top" xlink:title="This file contains type definitions for fixed&#45;width integer types and floating&#45;point types.">
<polygon fill="white" stroke="#666666" points="859.5,-250 778.5,-250 778.5,-231 859.5,-231 859.5,-250"/>
<text text-anchor="middle" x="819" y="-238" font-family="Helvetica,sans-Serif" font-size="10.00">../raptiquax.h</text>
</a>
</g>
</g>
<!-- Node1&#45;&gt;Node2 -->
<g id="edge1_Node000001_Node000002" class="edge">
<title>Node1&#45;&gt;Node2</title>
<g id="a_edge1_Node000001_Node000002"><a xlink:title=" ">
<path fill="none" stroke="#63b8ff" d="M1454.75,-291.12C1334.85,-281.77 998.6,-255.52 869.95,-245.48"/>
<polygon fill="#63b8ff" stroke="#63b8ff" points="869.84,-241.96 859.6,-244.67 869.3,-248.94 869.84,-241.96"/>
</a>
</g>
</g>
<!-- Node24 -->
<g id="Node000024" class="node">
<title>Node24</title>
<g id="a_Node000024"><a xlink:href="math__util_8h.html" target="_top" xlink:title=" ">
<polygon fill="white" stroke="#666666" points="1470,-250 1360,-250 1360,-231 1470,-231 1470,-250"/>
<text text-anchor="middle" x="1415" y="-238" font-family="Helvetica,sans-Serif" font-size="10.00">../math/math_util.h</text>
</a>
</g>
</g>
<!-- Node1&#45;&gt;Node24 -->
<g id="edge23_Node000001_Node000024" class="edge">
<title>Node1&#45;&gt;Node24</title>
<g id="a_edge23_Node000001_Node000024"><a xlink:title=" ">
<path fill="none" stroke="#63b8ff" d="M1484.66,-285.98C1471.91,-277.84 1452.45,-265.41 1437.33,-255.76"/>
<polygon fill="#63b8ff" stroke="#63b8ff" points="1438.89,-252.6 1428.58,-250.17 1435.12,-258.5 1438.89,-252.6"/>
</a>
</g>
</g>
<!-- Node25 -->
<g id="Node000025" class="node">
<title>Node25</title>
<g id="a_Node000025"><a xlink:href="shader_8h.html" target="_top" xlink:title=" ">
<polygon fill="white" stroke="#666666" points="1555,-189.5 1497,-189.5 1497,-170.5 1555,-170.5 1555,-189.5"/>
<text text-anchor="middle" x="1526" y="-177.5" font-family="Helvetica,sans-Serif" font-size="10.00">shader.h</text>
</a>
</g>
</g>
<!-- Node1&#45;&gt;Node25 -->
<g id="edge24_Node000001_Node000025" class="edge">
<title>Node1&#45;&gt;Node25</title>
<g id="a_edge24_Node000001_Node000025"><a xlink:title=" ">
<path fill="none" stroke="#63b8ff" d="M1500.1,-285.97C1504.6,-267.73 1515.25,-224.57 1521.4,-199.64"/>
<polygon fill="#63b8ff" stroke="#63b8ff" points="1524.87,-200.18 1523.87,-189.63 1518.08,-198.5 1524.87,-200.18"/>
</a>
</g>
</g>
<!-- Node26 -->
<g id="Node000026" class="node">
<title>Node26</title>
<g id="a_Node000026"><a xlink:href="model_8h.html" target="_top" xlink:title="Defines structures and functions for handling 3D models and their properties.">
<polygon fill="white" stroke="#666666" points="1582,-250 1526,-250 1526,-231 1582,-231 1582,-250"/>
<text text-anchor="middle" x="1554" y="-238" font-family="Helvetica,sans-Serif" font-size="10.00">model.h</text>
</a>
</g>
</g>
<!-- Node1&#45;&gt;Node26 -->
<g id="edge25_Node000001_Node000026" class="edge">
<title>Node1&#45;&gt;Node26</title>
<g id="a_edge25_Node000001_Node000026"><a xlink:title=" ">
<path fill="none" stroke="#63b8ff" d="M1507,-285.98C1515.19,-278.23 1527.51,-266.58 1537.47,-257.14"/>
<polygon fill="#63b8ff" stroke="#63b8ff" points="1539.98,-259.59 1544.84,-250.17 1535.17,-254.5 1539.98,-259.59"/>
</a>
</g>
</g>
<!-- Node31 -->
<g id="Node000031" class="node">
<title>Node31</title>
<g id="a_Node000031"><a xlink:href="memory_8h.html" target="_top" xlink:title="Header file for memory management functions and structures.">
<polygon fill="white" stroke="#666666" points="1674,-250 1600,-250 1600,-231 1674,-231 1674,-250"/>
<text text-anchor="middle" x="1637" y="-238" font-family="Helvetica,sans-Serif" font-size="10.00">../memory.h</text>
</a>
</g>
</g>
<!-- Node1&#45;&gt;Node31 -->
<g id="edge31_Node000001_Node000031" class="edge">
<title>Node1&#45;&gt;Node31</title>
<g id="a_edge31_Node000001_Node000031"><a xlink:title=" ">
<path fill="none" stroke="#63b8ff" d="M1520.33,-285.98C1543.2,-277.27 1578.96,-263.63 1604.86,-253.75"/>
<polygon fill="#63b8ff" stroke="#63b8ff" points="1606.16,-257 1614.26,-250.17 1603.67,-250.46 1606.16,-257"/>
</a>
</g>
</g>
<!-- Node3 -->
<g id="Node000003" class="node">
<title>Node3</title>
<g id="a_Node000003"><a xlink:title=" ">
<polygon fill="#e0e0e0" stroke="#999999" points="50,-189.5 0,-189.5 0,-170.5 50,-170.5 50,-189.5"/>
<text text-anchor="middle" x="25" y="-177.5" font-family="Helvetica,sans-Serif" font-size="10.00">stdio.h</text>
</a>
</g>
</g>
<!-- Node2&#45;&gt;Node3 -->
<g id="edge2_Node000002_Node000003" class="edge">
<title>Node2&#45;&gt;Node3</title>
<g id="a_edge2_Node000002_Node000003"><a xlink:title=" ">
<path fill="none" stroke="#63b8ff" d="M778.38,-238.89C641.48,-236.57 197.84,-226.71 59,-195 56.78,-194.49 54.51,-193.85 52.26,-193.13"/>
<polygon fill="#63b8ff" stroke="#63b8ff" points="53.23,-189.76 42.63,-189.56 50.79,-196.32 53.23,-189.76"/>
</a>
</g>
</g>
<!-- Node4 -->
<g id="Node000004" class="node">
<title>Node4</title>
<g id="a_Node000004"><a xlink:title=" ">
<polygon fill="#e0e0e0" stroke="#999999" points="121.5,-189.5 68.5,-189.5 68.5,-170.5 121.5,-170.5 121.5,-189.5"/>
<text text-anchor="middle" x="95" y="-177.5" font-family="Helvetica,sans-Serif" font-size="10.00">stdint.h</text>
</a>
</g>
</g>
<!-- Node2&#45;&gt;Node4 -->
<g id="edge3_Node000002_Node000004" class="edge">
<title>Node2&#45;&gt;Node4</title>
<g id="a_edge3_Node000002_Node000004"><a xlink:title=" ">
<path fill="none" stroke="#63b8ff" d="M778.28,-238.5C650.02,-235.09 255.61,-222.57 131,-195 128.48,-194.44 125.9,-193.74 123.34,-192.94"/>
<polygon fill="#63b8ff" stroke="#63b8ff" points="124.31,-189.57 113.72,-189.53 121.98,-196.17 124.31,-189.57"/>
</a>
</g>
</g>
<!-- Node5 -->
<g id="Node000005" class="node">
<title>Node5</title>
<g id="a_Node000005"><a xlink:title=" ">
<polygon fill="#e0e0e0" stroke="#999999" points="202,-189.5 140,-189.5 140,-170.5 202,-170.5 202,-189.5"/>
<text text-anchor="middle" x="171" y="-177.5" font-family="Helvetica,sans-Serif" font-size="10.00">stdbool.h</text>
</a>
</g>
</g>
<!-- Node2&#45;&gt;Node5 -->
<g id="edge4_Node000002_Node000005" class="edge">
<title>Node2&#45;&gt;Node5</title>
<g id="a_edge4_Node000002_Node000005"><a xlink:title=" ">
<path fill="none" stroke="#63b8ff" d="M778.3,-240.19C679.77,-241.07 421.1,-238.65 211,-195 208,-194.38 204.92,-193.59 201.86,-192.7"/>
<polygon fill="#63b8ff" stroke="#63b8ff" points="202.89,-189.35 192.29,-189.62 200.74,-196.02 202.89,-189.35"/>
</a>
</g>
</g>
<!-- Node6 -->
<g id="Node000006" class="node">
<title>Node6</title>
<g id="a_Node000006"><a xlink:title=" ">
<polygon fill="#e0e0e0" stroke="#999999" points="276,-189.5 220,-189.5 220,-170.5 276,-170.5 276,-189.5"/>
<text text-anchor="middle" x="248" y="-177.5" font-family="Helvetica,sans-Serif" font-size="10.00">stdarg.h</text>
</a>
</g>
</g>
<!-- Node2&#45;&gt;Node6 -->
<g id="edge5_Node000002_Node000006" class="edge">
<title>Node2&#45;&gt;Node6</title>
<g id="a_edge5_Node000002_Node000006"><a xlink:title=" ">
<path fill="none" stroke="#63b8ff" d="M778.22,-239.94C688.09,-240.08 465.57,-235.84 285,-195 282.48,-194.43 279.9,-193.73 277.34,-192.94"/>
<polygon fill="#63b8ff" stroke="#63b8ff" points="278.25,-189.55 267.66,-189.6 275.97,-196.17 278.25,-189.55"/>
</a>
</g>
</g>
<!-- Node7 -->
<g id="Node000007" class="node">
<title>Node7</title>
<g id="a_Node000007"><a xlink:title=" ">
<polygon fill="#e0e0e0" stroke="#999999" points="347.5,-189.5 294.5,-189.5 294.5,-170.5 347.5,-170.5 347.5,-189.5"/>
<text text-anchor="middle" x="321" y="-177.5" font-family="Helvetica,sans-Serif" font-size="10.00">limits.h</text>
</a>
</g>
</g>
<!-- Node2&#45;&gt;Node7 -->
<g id="edge6_Node000002_Node000007" class="edge">
<title>Node2&#45;&gt;Node7</title>
<g id="a_edge6_Node000002_Node000007"><a xlink:title=" ">
<path fill="none" stroke="#63b8ff" d="M778.22,-239.31C696.95,-238.11 509.48,-231.26 357,-195 354.63,-194.44 352.21,-193.75 349.8,-192.99"/>
<polygon fill="#63b8ff" stroke="#63b8ff" points="350.71,-189.6 340.12,-189.56 348.37,-196.2 350.71,-189.6"/>
</a>
</g>
</g>
<!-- Node8 -->
<g id="Node000008" class="node">
<title>Node8</title>
<g id="a_Node000008"><a xlink:title=" ">
<polygon fill="#e0e0e0" stroke="#999999" points="438,-189.5 366,-189.5 366,-170.5 438,-170.5 438,-189.5"/>
<text text-anchor="middle" x="402" y="-177.5" font-family="Helvetica,sans-Serif" font-size="10.00">SDL2/SDL.h</text>
</a>
</g>
</g>
<!-- Node2&#45;&gt;Node8 -->
<g id="edge7_Node000002_Node000008" class="edge">
<title>Node2&#45;&gt;Node8</title>
<g id="a_edge7_Node000002_Node000008"><a xlink:title=" ">
<path fill="none" stroke="#63b8ff" d="M778.42,-237.08C709.62,-232.43 565.95,-220.4 447,-195 443.53,-194.26 439.95,-193.37 436.4,-192.4"/>
<polygon fill="#63b8ff" stroke="#63b8ff" points="437.12,-188.97 426.54,-189.52 435.16,-195.69 437.12,-188.97"/>
</a>
</g>
</g>
<!-- Node9 -->
<g id="Node000009" class="node">
<title>Node9</title>
<g id="a_Node000009"><a xlink:title=" ">
<polygon fill="#e0e0e0" stroke="#999999" points="564,-189.5 456,-189.5 456,-170.5 564,-170.5 564,-189.5"/>
<text text-anchor="middle" x="510" y="-177.5" font-family="Helvetica,sans-Serif" font-size="10.00">SDL2/SDL_image.h</text>
</a>
</g>
</g>
<!-- Node2&#45;&gt;Node9 -->
<g id="edge8_Node000002_Node000009" class="edge">
<title>Node2&#45;&gt;Node9</title>
<g id="a_edge8_Node000002_Node000009"><a xlink:title=" ">
<path fill="none" stroke="#63b8ff" d="M778.42,-232.67C729.58,-224.33 645.12,-209.53 573,-195 567.91,-193.98 562.61,-192.86 557.32,-191.73"/>
<polygon fill="#63b8ff" stroke="#63b8ff" points="557.77,-188.24 547.26,-189.54 556.28,-195.08 557.77,-188.24"/>
</a>
</g>
</g>
<!-- Node10 -->
<g id="Node000010" class="node">
<title>Node10</title>
<g id="a_Node000010"><a xlink:title=" ">
<polygon fill="#e0e0e0" stroke="#999999" points="692,-189.5 582,-189.5 582,-170.5 692,-170.5 692,-189.5"/>
<text text-anchor="middle" x="637" y="-177.5" font-family="Helvetica,sans-Serif" font-size="10.00">SDL2/SDL_opengl.h</text>
</a>
</g>
</g>
<!-- Node2&#45;&gt;Node10 -->
<g id="edge9_Node000002_Node000010" class="edge">
<title>Node2&#45;&gt;Node10</title>
<g id="a_edge9_Node000002_Node000010"><a xlink:title=" ">
<path fill="none" stroke="#63b8ff" d="M792.54,-230.99C761.13,-220.9 708.6,-204.01 673.38,-192.69"/>
<polygon fill="#63b8ff" stroke="#63b8ff" points="674.09,-189.24 663.5,-189.52 671.95,-195.91 674.09,-189.24"/>
</a>
</g>
</g>
<!-- Node11 -->
<g id="Node000011" class="node">
<title>Node11</title>
<g id="a_Node000011"><a xlink:title=" ">
<polygon fill="#e0e0e0" stroke="#999999" points="814,-189.5 710,-189.5 710,-170.5 814,-170.5 814,-189.5"/>
<text text-anchor="middle" x="762" y="-177.5" font-family="Helvetica,sans-Serif" font-size="10.00">SDL2/SDL_mixer.h</text>
</a>
</g>
</g>
<!-- Node2&#45;&gt;Node11 -->
<g id="edge10_Node000002_Node000011" class="edge">
<title>Node2&#45;&gt;Node11</title>
<g id="a_edge10_Node000002_Node000011"><a xlink:title=" ">
<path fill="none" stroke="#63b8ff" d="M810.59,-230.87C801.92,-221.97 788.2,-207.89 777.54,-196.95"/>
<polygon fill="#63b8ff" stroke="#63b8ff" points="779.93,-194.39 770.45,-189.67 774.92,-199.27 779.93,-194.39"/>
</a>
</g>
</g>
<!-- Node12 -->
<g id="Node000012" class="node">
<title>Node12</title>
<g id="a_Node000012"><a xlink:title=" ">
<polygon fill="#e0e0e0" stroke="#999999" points="920,-189.5 832,-189.5 832,-170.5 920,-170.5 920,-189.5"/>
<text text-anchor="middle" x="876" y="-177.5" font-family="Helvetica,sans-Serif" font-size="10.00">SDL2/SDL_ttf.h</text>
</a>
</g>
</g>
<!-- Node2&#45;&gt;Node12 -->
<g id="edge11_Node000002_Node000012" class="edge">
<title>Node2&#45;&gt;Node12</title>
<g id="a_edge11_Node000002_Node000012"><a xlink:title=" ">
<path fill="none" stroke="#63b8ff" d="M827.41,-230.87C836.08,-221.97 849.8,-207.89 860.46,-196.95"/>
<polygon fill="#63b8ff" stroke="#63b8ff" points="863.08,-199.27 867.55,-189.67 858.07,-194.39 863.08,-199.27"/>
</a>
</g>
</g>
<!-- Node13 -->
<g id="Node000013" class="node">
<title>Node13</title>
<g id="a_Node000013"><a xlink:title=" ">
<polygon fill="#e0e0e0" stroke="#999999" points="988,-189.5 938,-189.5 938,-170.5 988,-170.5 988,-189.5"/>
<text text-anchor="middle" x="963" y="-177.5" font-family="Helvetica,sans-Serif" font-size="10.00">GL/gl.h</text>
</a>
</g>
</g>
<!-- Node2&#45;&gt;Node13 -->
<g id="edge12_Node000002_Node000013" class="edge">
<title>Node2&#45;&gt;Node13</title>
<g id="a_edge12_Node000002_Node000013"><a xlink:title=" ">
<path fill="none" stroke="#63b8ff" d="M840.52,-230.84C862.7,-221.9 898.29,-207.53 929,-195 930.2,-194.51 931.42,-194.01 932.65,-193.51"/>
<polygon fill="#63b8ff" stroke="#63b8ff" points="934.23,-196.64 942.15,-189.61 931.57,-190.17 934.23,-196.64"/>
</a>
</g>
</g>
<!-- Node14 -->
<g id="Node000014" class="node">
<title>Node14</title>
<g id="a_Node000014"><a xlink:title=" ">
<polygon fill="#e0e0e0" stroke="#999999" points="1062,-189.5 1006,-189.5 1006,-170.5 1062,-170.5 1062,-189.5"/>
<text text-anchor="middle" x="1034" y="-177.5" font-family="Helvetica,sans-Serif" font-size="10.00">GL/glu.h</text>
</a>
</g>
</g>
<!-- Node2&#45;&gt;Node14 -->
<g id="edge13_Node000002_Node000014" class="edge">
<title>Node2&#45;&gt;Node14</title>
<g id="a_edge13_Node000002_Node000014"><a xlink:title=" ">
<path fill="none" stroke="#63b8ff" d="M858.61,-230.99C894.92,-222.87 950.03,-209.7 997,-195 998.92,-194.4 1000.88,-193.75 1002.85,-193.08"/>
<polygon fill="#63b8ff" stroke="#63b8ff" points="1004.4,-196.24 1012.63,-189.57 1002.03,-189.66 1004.4,-196.24"/>
</a>
</g>
</g>
<!-- Node15 -->
<g id="Node000015" class="node">
<title>Node15</title>
<g id="a_Node000015"><a xlink:title=" ">
<polygon fill="#e0e0e0" stroke="#999999" points="1146,-189.5 1080,-189.5 1080,-170.5 1146,-170.5 1146,-189.5"/>
<text text-anchor="middle" x="1113" y="-177.5" font-family="Helvetica,sans-Serif" font-size="10.00">GL/glext.h</text>
</a>
</g>
</g>
<!-- Node2&#45;&gt;Node15 -->
<g id="edge14_Node000002_Node000015" class="edge">
<title>Node2&#45;&gt;Node15</title>
<g id="a_edge14_Node000002_Node000015"><a xlink:title=" ">
<path fill="none" stroke="#63b8ff" d="M859.54,-234.21C909.66,-227.25 997.36,-213.67 1071,-195 1073.79,-194.29 1076.67,-193.49 1079.55,-192.64"/>
<polygon fill="#63b8ff" stroke="#63b8ff" points="1080.7,-195.94 1089.19,-189.61 1078.6,-189.27 1080.7,-195.94"/>
</a>
</g>
</g>
<!-- Node16 -->
<g id="Node000016" class="node">
<title>Node16</title>
<g id="a_Node000016"><a xlink:title=" ">
<polygon fill="#e0e0e0" stroke="#999999" points="1241.5,-189.5 1164.5,-189.5 1164.5,-170.5 1241.5,-170.5 1241.5,-189.5"/>
<text text-anchor="middle" x="1203" y="-177.5" font-family="Helvetica,sans-Serif" font-size="10.00">cglm/cglm.h</text>
</a>
</g>
</g>
<!-- Node2&#45;&gt;Node16 -->
<g id="edge15_Node000002_Node000016" class="edge">
<title>Node2&#45;&gt;Node16</title>
<g id="a_edge15_Node000002_Node000016"><a xlink:title=" ">
<path fill="none" stroke="#63b8ff" d="M859.68,-236.13C923.21,-230.41 1049.63,-217.21 1155,-195 1158.86,-194.19 1162.85,-193.22 1166.82,-192.19"/>
<polygon fill="#63b8ff" stroke="#63b8ff" points="1167.82,-195.54 1176.52,-189.5 1165.95,-188.79 1167.82,-195.54"/>
</a>
</g>
</g>
<!-- Node17 -->
<g id="Node000017" class="node">
<title>Node17</title>
<g id="a_Node000017"><a xlink:title=" ">
<polygon fill="#e0e0e0" stroke="#999999" points="1310.5,-189.5 1259.5,-189.5 1259.5,-170.5 1310.5,-170.5 1310.5,-189.5"/>
<text text-anchor="middle" x="1285" y="-177.5" font-family="Helvetica,sans-Serif" font-size="10.00">math.h</text>
</a>
</g>
</g>
<!-- Node2&#45;&gt;Node17 -->
<g id="edge16_Node000002_Node000017" class="edge">
<title>Node2&#45;&gt;Node17</title>
<g id="a_edge16_Node000002_Node000017"><a xlink:title=" ">
<path fill="none" stroke="#63b8ff" d="M859.75,-239.04C937,-237.34 1109.59,-229.61 1250,-195 1252.31,-194.43 1254.66,-193.74 1257,-192.98"/>
<polygon fill="#63b8ff" stroke="#63b8ff" points="1258.23,-196.26 1266.43,-189.54 1255.83,-189.68 1258.23,-196.26"/>
</a>
</g>
</g>
<!-- Node18 -->
<g id="Node000018" class="node">
<title>Node18</title>
<g id="a_Node000018"><a xlink:href="stringio_8h.html" target="_top" xlink:title="Provides utility functions for string and file operations.">
<polygon fill="white" stroke="#666666" points="1403,-189.5 1329,-189.5 1329,-170.5 1403,-170.5 1403,-189.5"/>
<text text-anchor="middle" x="1366" y="-177.5" font-family="Helvetica,sans-Serif" font-size="10.00">io/stringio.h</text>
</a>
</g>
</g>
<!-- Node2&#45;&gt;Node18 -->
<g id="edge17_Node000002_Node000018" class="edge">
<title>Node2&#45;&gt;Node18</title>
<g id="a_edge17_Node000002_Node000018"><a xlink:title=" ">
<path fill="none" stroke="#63b8ff" d="M859.56,-238.64C945.19,-236.23 1150.38,-227.28 1319,-195 1322.93,-194.25 1327.01,-193.3 1331.04,-192.25"/>
<polygon fill="#63b8ff" stroke="#63b8ff" points="1332.18,-195.57 1340.86,-189.5 1330.29,-188.83 1332.18,-195.57"/>
</a>
</g>
</g>
<!-- Node20 -->
<g id="Node000020" class="node">
<title>Node20</title>
<g id="a_Node000020"><a xlink:href="config_8h.html" target="_top" xlink:title=" ">
<polygon fill="white" stroke="#666666" points="1476.5,-189.5 1421.5,-189.5 1421.5,-170.5 1476.5,-170.5 1476.5,-189.5"/>
<text text-anchor="middle" x="1449" y="-177.5" font-family="Helvetica,sans-Serif" font-size="10.00">config.h</text>
</a>
</g>
</g>
<!-- Node2&#45;&gt;Node20 -->
<g id="edge19_Node000002_Node000020" class="edge">
<title>Node2&#45;&gt;Node20</title>
<g id="a_edge19_Node000002_Node000020"><a xlink:title=" ">
<path fill="none" stroke="#63b8ff" d="M859.72,-237.96C975.72,-233.35 1306.3,-218.45 1412,-195 1414.52,-194.44 1417.1,-193.74 1419.67,-192.96"/>
<polygon fill="#63b8ff" stroke="#63b8ff" points="1421.03,-196.19 1429.35,-189.63 1418.76,-189.57 1421.03,-196.19"/>
</a>
</g>
</g>
<!-- Node19 -->
<g id="Node000019" class="node">
<title>Node19</title>
<g id="a_Node000019"><a xlink:title=" ">
<polygon fill="#e0e0e0" stroke="#999999" points="1392.5,-129 1339.5,-129 1339.5,-110 1392.5,-110 1392.5,-129"/>
<text text-anchor="middle" x="1366" y="-117" font-family="Helvetica,sans-Serif" font-size="10.00">string.h</text>
</a>
</g>
</g>
<!-- Node18&#45;&gt;Node19 -->
<g id="edge18_Node000018_Node000019" class="edge">
<title>Node18&#45;&gt;Node19</title>
<g id="a_edge18_Node000018_Node000019"><a xlink:title=" ">
<path fill="none" stroke="#63b8ff" d="M1366,-170.37C1366,-162.25 1366,-149.81 1366,-139.39"/>
<polygon fill="#63b8ff" stroke="#63b8ff" points="1369.5,-139.17 1366,-129.17 1362.5,-139.17 1369.5,-139.17"/>
</a>
</g>
</g>
<!-- Node21 -->
<g id="Node000021" class="node">
<title>Node21</title>
<g id="a_Node000021"><a xlink:href="term_8h.html" target="_top" xlink:title=" ">
<polygon fill="white" stroke="#666666" points="1485.5,-129 1410.5,-129 1410.5,-110 1485.5,-110 1485.5,-129"/>
<text text-anchor="middle" x="1448" y="-117" font-family="Helvetica,sans-Serif" font-size="10.00">term/term.h</text>
</a>
</g>
</g>
<!-- Node20&#45;&gt;Node21 -->
<g id="edge20_Node000020_Node000021" class="edge">
<title>Node20&#45;&gt;Node21</title>
<g id="a_edge20_Node000020_Node000021"><a xlink:title=" ">
<path fill="none" stroke="#63b8ff" d="M1448.85,-170.37C1448.71,-162.25 1448.5,-149.81 1448.32,-139.39"/>
<polygon fill="#63b8ff" stroke="#63b8ff" points="1451.82,-139.11 1448.15,-129.17 1444.82,-139.23 1451.82,-139.11"/>
</a>
</g>
</g>
<!-- Node22 -->
<g id="Node000022" class="node">
<title>Node22</title>
<g id="a_Node000022"><a xlink:href="enhanced__print_8h.html" target="_top" xlink:title=" ">
<polygon fill="white" stroke="#666666" points="1498.5,-74 1397.5,-74 1397.5,-55 1498.5,-55 1498.5,-74"/>
<text text-anchor="middle" x="1448" y="-62" font-family="Helvetica,sans-Serif" font-size="10.00">enhanced_print.h</text>
</a>
</g>
</g>
<!-- Node21&#45;&gt;Node22 -->
<g id="edge21_Node000021_Node000022" class="edge">
<title>Node21&#45;&gt;Node22</title>
<g id="a_edge21_Node000021_Node000022"><a xlink:title=" ">
<path fill="none" stroke="#63b8ff" d="M1448,-109.75C1448,-102.8 1448,-92.85 1448,-84.13"/>
<polygon fill="#63b8ff" stroke="#63b8ff" points="1451.5,-84.09 1448,-74.09 1444.5,-84.09 1451.5,-84.09"/>
</a>
</g>
</g>
<!-- Node23 -->
<g id="Node000023" class="node">
<title>Node23</title>
<g id="a_Node000023"><a xlink:href="color_8h.html" target="_top" xlink:title=" ">
<polygon fill="white" stroke="#666666" points="1472.5,-19 1423.5,-19 1423.5,0 1472.5,0 1472.5,-19"/>
<text text-anchor="middle" x="1448" y="-7" font-family="Helvetica,sans-Serif" font-size="10.00">color.h</text>
</a>
</g>
</g>
<!-- Node22&#45;&gt;Node23 -->
<g id="edge22_Node000022_Node000023" class="edge">
<title>Node22&#45;&gt;Node23</title>
<g id="a_edge22_Node000022_Node000023"><a xlink:title=" ">
<path fill="none" stroke="#63b8ff" d="M1448,-54.75C1448,-47.8 1448,-37.85 1448,-29.13"/>
<polygon fill="#63b8ff" stroke="#63b8ff" points="1451.5,-29.09 1448,-19.09 1444.5,-29.09 1451.5,-29.09"/>
</a>
</g>
</g>
<!-- Node26&#45;&gt;Node25 -->
<g id="edge26_Node000026_Node000025" class="edge">
<title>Node26&#45;&gt;Node25</title>
<g id="a_edge26_Node000026_Node000025"><a xlink:title=" ">
<path fill="none" stroke="#63b8ff" d="M1549.87,-230.87C1545.86,-222.49 1539.65,-209.51 1534.56,-198.89"/>
<polygon fill="#63b8ff" stroke="#63b8ff" points="1537.62,-197.18 1530.15,-189.67 1531.31,-200.2 1537.62,-197.18"/>
</a>
</g>
</g>
<!-- Node27 -->
<g id="Node000027" class="node">
<title>Node27</title>
<g id="a_Node000027"><a xlink:href="model__loader_8h.html" target="_top" xlink:title=" ">
<polygon fill="white" stroke="#666666" points="1697,-195 1575,-195 1575,-165 1697,-165 1697,-195"/>
<text text-anchor="start" x="1583" y="-183" font-family="Helvetica,sans-Serif" font-size="10.00">model_loaders/model</text>
<text text-anchor="middle" x="1636" y="-172" font-family="Helvetica,sans-Serif" font-size="10.00">_loader.h</text>
</a>
</g>
</g>
<!-- Node26&#45;&gt;Node27 -->
<g id="edge27_Node000026_Node000027" class="edge">
<title>Node26&#45;&gt;Node27</title>
<g id="a_edge27_Node000026_Node000027"><a xlink:title=" ">
<path fill="none" stroke="#63b8ff" d="M1566.1,-230.87C1577.02,-223.08 1593.51,-211.32 1607.72,-201.17"/>
<polygon fill="#63b8ff" stroke="#63b8ff" points="1610.11,-203.77 1616.22,-195.11 1606.04,-198.07 1610.11,-203.77"/>
</a>
</g>
</g>
<!-- Node28 -->
<g id="Node000028" class="node">
<title>Node28</title>
<g id="a_Node000028"><a xlink:href="obj__loader_8h.html" target="_top" xlink:title=" ">
<polygon fill="white" stroke="#666666" points="1580,-129 1504,-129 1504,-110 1580,-110 1580,-129"/>
<text text-anchor="middle" x="1542" y="-117" font-family="Helvetica,sans-Serif" font-size="10.00">obj_loader.h</text>
</a>
</g>
</g>
<!-- Node27&#45;&gt;Node28 -->
<g id="edge28_Node000027_Node000028" class="edge">
<title>Node27&#45;&gt;Node28</title>
<g id="a_edge28_Node000027_Node000028"><a xlink:title=" ">
<path fill="none" stroke="#63b8ff" d="M1613.25,-164.84C1598.4,-155.6 1579.1,-143.59 1564.34,-134.4"/>
<polygon fill="#63b8ff" stroke="#63b8ff" points="1566.15,-131.41 1555.81,-129.09 1562.45,-137.35 1566.15,-131.41"/>
</a>
</g>
</g>
<!-- Node29 -->
<g id="Node000029" class="node">
<title>Node29</title>
<g id="a_Node000029"><a xlink:href="mtl__loader_8h.html" target="_top" xlink:title=" ">
<polygon fill="white" stroke="#666666" points="1675.5,-129 1598.5,-129 1598.5,-110 1675.5,-110 1675.5,-129"/>
<text text-anchor="middle" x="1637" y="-117" font-family="Helvetica,sans-Serif" font-size="10.00">mtl_loader.h</text>
</a>
</g>
</g>
<!-- Node27&#45;&gt;Node29 -->
<g id="edge29_Node000027_Node000029" class="edge">
<title>Node27&#45;&gt;Node29</title>
<g id="a_edge29_Node000027_Node000029"><a xlink:title=" ">
<path fill="none" stroke="#63b8ff" d="M1636.24,-164.84C1636.37,-157.21 1636.53,-147.7 1636.68,-139.45"/>
<polygon fill="#63b8ff" stroke="#63b8ff" points="1640.18,-139.32 1636.85,-129.27 1633.18,-139.2 1640.18,-139.32"/>
</a>
</g>
</g>
<!-- Node30 -->
<g id="Node000030" class="node">
<title>Node30</title>
<g id="a_Node000030"><a xlink:href="fbx__loader_8h.html" target="_top" xlink:title=" ">
<polygon fill="white" stroke="#666666" points="1770.5,-129 1693.5,-129 1693.5,-110 1770.5,-110 1770.5,-129"/>
<text text-anchor="middle" x="1732" y="-117" font-family="Helvetica,sans-Serif" font-size="10.00">fbx_loader.h</text>
</a>
</g>
</g>
<!-- Node27&#45;&gt;Node30 -->
<g id="edge30_Node000027_Node000030" class="edge">
<title>Node27&#45;&gt;Node30</title>
<g id="a_edge30_Node000027_Node000030"><a xlink:title=" ">
<path fill="none" stroke="#63b8ff" d="M1659.24,-164.84C1674.4,-155.6 1694.11,-143.59 1709.19,-134.4"/>
<polygon fill="#63b8ff" stroke="#63b8ff" points="1711.18,-137.29 1717.9,-129.09 1707.54,-131.31 1711.18,-137.29"/>
</a>
</g>
</g>
</g>
</svg>
