<?xml version="1.0" encoding="UTF-8" standalone="no"?>
<!DOCTYPE svg PUBLIC "-//W3C//DTD SVG 1.1//EN"
 "http://www.w3.org/Graphics/SVG/1.1/DTD/svg11.dtd">
<!-- Generated by graphviz version 2.43.0 (0)
 -->
<!-- Title: src/scripts/signals.h Pages: 1 -->
<svg width="7270pt" height="203pt"
 viewBox="0.00 0.00 7270.00 203.00" xmlns="http://www.w3.org/2000/svg" xmlns:xlink="http://www.w3.org/1999/xlink">
<g id="graph0" class="graph" transform="scale(1 1) rotate(0) translate(4 199)">
<title>src/scripts/signals.h</title>
<!-- Node1 -->
<g id="Node000001" class="node">
<title>Node1</title>
<g id="a_Node000001"><a xlink:title="Signal and slot system for C projects.">
<polygon fill="#999999" stroke="#666666" points="307,-195 194,-195 194,-176 307,-176 307,-195"/>
<text text-anchor="middle" x="250.5" y="-183" font-family="Helvetica,sans-Serif" font-size="10.00">src/scripts/signals.h</text>
</a>
</g>
</g>
<!-- Node2 -->
<g id="Node000002" class="node">
<title>Node2</title>
<g id="a_Node000002"><a xlink:href="scripts_8h.html" target="_top" xlink:title=" ">
<polygon fill="white" stroke="#666666" points="305.5,-140 195.5,-140 195.5,-121 305.5,-121 305.5,-140"/>
<text text-anchor="middle" x="250.5" y="-128" font-family="Helvetica,sans-Serif" font-size="10.00">src/scripts/scripts.h</text>
</a>
</g>
</g>
<!-- Node1&#45;&gt;Node2 -->
<g id="edge1_Node000001_Node000002" class="edge">
<title>Node1&#45;&gt;Node2</title>
<g id="a_edge1_Node000001_Node000002"><a xlink:title=" ">
<path fill="none" stroke="#63b8ff" d="M250.5,-165.66C250.5,-156.93 250.5,-146.99 250.5,-140.09"/>
<polygon fill="#63b8ff" stroke="#63b8ff" points="247,-165.75 250.5,-175.75 254,-165.75 247,-165.75"/>
</a>
</g>
</g>
<!-- Node3 -->
<g id="Node000003" class="node">
<title>Node3</title>
<g id="a_Node000003"><a xlink:href="main_8c.html" target="_top" xlink:title=" ">
<polygon fill="white" stroke="#666666" points="67,-24.5 0,-24.5 0,-5.5 67,-5.5 67,-24.5"/>
<text text-anchor="middle" x="33.5" y="-12.5" font-family="Helvetica,sans-Serif" font-size="10.00">src/main.c</text>
</a>
</g>
</g>
<!-- Node2&#45;&gt;Node3 -->
<g id="edge2_Node000002_Node000003" class="edge">
<title>Node2&#45;&gt;Node3</title>
<g id="a_edge2_Node000002_Node000003"><a xlink:title=" ">
<path fill="none" stroke="#63b8ff" d="M225.09,-116.21C180.11,-92.68 87.65,-44.32 50,-24.63"/>
<polygon fill="#63b8ff" stroke="#63b8ff" points="223.71,-119.44 234.19,-120.97 226.95,-113.23 223.71,-119.44"/>
</a>
</g>
</g>
<!-- Node4 -->
<g id="Node000004" class="node">
<title>Node4</title>
<g id="a_Node000004"><a xlink:href="raptiquax_8c.html" target="_top" xlink:title=" ">
<polygon fill="white" stroke="#666666" points="174,-24.5 85,-24.5 85,-5.5 174,-5.5 174,-24.5"/>
<text text-anchor="middle" x="129.5" y="-12.5" font-family="Helvetica,sans-Serif" font-size="10.00">src/raptiquax.c</text>
</a>
</g>
</g>
<!-- Node2&#45;&gt;Node4 -->
<g id="edge3_Node000002_Node000004" class="edge">
<title>Node2&#45;&gt;Node4</title>
<g id="a_edge3_Node000002_Node000004"><a xlink:title=" ">
<path fill="none" stroke="#63b8ff" d="M233.89,-113.92C208.04,-89.67 159.03,-43.7 138.7,-24.63"/>
<polygon fill="#63b8ff" stroke="#63b8ff" points="231.72,-116.68 241.41,-120.97 236.51,-111.57 231.72,-116.68"/>
</a>
</g>
</g>
<!-- Node5 -->
<g id="Node000005" class="node">
<title>Node5</title>
<g id="a_Node000005"><a xlink:href="chessboard_8h.html" target="_top" xlink:title=" ">
<polygon fill="white" stroke="#666666" points="309,-30 192,-30 192,0 309,0 309,-30"/>
<text text-anchor="start" x="200" y="-18" font-family="Helvetica,sans-Serif" font-size="10.00">src/scripts/fps_chess</text>
<text text-anchor="middle" x="250.5" y="-7" font-family="Helvetica,sans-Serif" font-size="10.00">/chessboard.h</text>
</a>
</g>
</g>
<!-- Node2&#45;&gt;Node5 -->
<g id="edge4_Node000002_Node000005" class="edge">
<title>Node2&#45;&gt;Node5</title>
<g id="a_edge4_Node000002_Node000005"><a xlink:title=" ">
<path fill="none" stroke="#63b8ff" d="M250.5,-110.96C250.5,-88.34 250.5,-50.61 250.5,-30.18"/>
<polygon fill="#63b8ff" stroke="#63b8ff" points="247,-110.97 250.5,-120.97 254,-110.97 247,-110.97"/>
</a>
</g>
</g>
<!-- Node6 -->
<g id="Node000006" class="node">
<title>Node6</title>
<g id="a_Node000006"><a xlink:href="node_8h.html" target="_top" xlink:title=" ">
<polygon fill="#fff0f0" stroke="red" points="3610,-85 3503,-85 3503,-66 3610,-66 3610,-85"/>
<text text-anchor="middle" x="3556.5" y="-73" font-family="Helvetica,sans-Serif" font-size="10.00">src/storage/node.h</text>
</a>
</g>
</g>
<!-- Node2&#45;&gt;Node6 -->
<g id="edge5_Node000002_Node000006" class="edge">
<title>Node2&#45;&gt;Node6</title>
<g id="a_edge5_Node000002_Node000006"><a xlink:title=" ">
<path fill="none" stroke="#63b8ff" d="M316.1,-128.45C742.46,-121.61 3114.67,-83.58 3502.79,-77.36"/>
<polygon fill="#63b8ff" stroke="#63b8ff" points="315.75,-124.95 305.81,-128.61 315.86,-131.95 315.75,-124.95"/>
</a>
</g>
</g>
<!-- Node53 -->
<g id="Node000053" class="node">
<title>Node53</title>
<g id="a_Node000053"><a xlink:href="scene_8c.html" target="_top" xlink:title=" ">
<polygon fill="white" stroke="#666666" points="7262,-24.5 7167,-24.5 7167,-5.5 7262,-5.5 7262,-24.5"/>
<text text-anchor="middle" x="7214.5" y="-12.5" font-family="Helvetica,sans-Serif" font-size="10.00">src/utils/scene.c</text>
</a>
</g>
</g>
<!-- Node2&#45;&gt;Node53 -->
<g id="edge53_Node000002_Node000053" class="edge">
<title>Node2&#45;&gt;Node53</title>
<g id="a_edge53_Node000002_Node000053"><a xlink:title=" ">
<path fill="none" stroke="#63b8ff" d="M315.77,-128.69C658.69,-124.45 2286.73,-104.15 3618.5,-85 5191.42,-62.39 5597.33,-231.11 7157.5,-30 7166.6,-28.83 7176.34,-26.75 7185.15,-24.55"/>
<polygon fill="#63b8ff" stroke="#63b8ff" points="315.48,-125.2 305.53,-128.82 315.57,-132.2 315.48,-125.2"/>
</a>
</g>
</g>
<!-- Node6&#45;&gt;Node3 -->
<g id="edge45_Node000006_Node000003" class="edge">
<title>Node6&#45;&gt;Node3</title>
<g id="a_edge45_Node000006_Node000003"><a xlink:title=" ">
<path fill="none" stroke="#63b8ff" d="M3492.64,-74.24C3033.61,-72.33 250.44,-59.54 75.5,-30 68.68,-28.85 61.46,-26.78 54.97,-24.57"/>
<polygon fill="#63b8ff" stroke="#63b8ff" points="3492.72,-77.74 3502.73,-74.29 3492.74,-70.74 3492.72,-77.74"/>
</a>
</g>
</g>
<!-- Node6&#45;&gt;Node4 -->
<g id="edge49_Node000006_Node000004" class="edge">
<title>Node6&#45;&gt;Node4</title>
<g id="a_edge49_Node000006_Node000004"><a xlink:title=" ">
<path fill="none" stroke="#63b8ff" d="M3492.72,-74.6C3056.63,-75.15 521.83,-76.34 182.5,-30 174.01,-28.84 164.94,-26.77 156.75,-24.56"/>
<polygon fill="#63b8ff" stroke="#63b8ff" points="3492.93,-78.1 3502.93,-74.59 3492.92,-71.1 3492.93,-78.1"/>
</a>
</g>
</g>
<!-- Node6&#45;&gt;Node5 -->
<g id="edge51_Node000006_Node000005" class="edge">
<title>Node6&#45;&gt;Node5</title>
<g id="a_edge51_Node000006_Node000005"><a xlink:title=" ">
<path fill="none" stroke="#63b8ff" d="M3492.65,-74.35C3066.76,-73.25 644.56,-65.48 318.5,-30 315.5,-29.67 312.45,-29.28 309.36,-28.83"/>
<polygon fill="#63b8ff" stroke="#63b8ff" points="3492.91,-77.85 3502.92,-74.38 3492.93,-70.85 3492.91,-77.85"/>
</a>
</g>
</g>
<!-- Node7 -->
<g id="Node000007" class="node">
<title>Node7</title>
<g id="a_Node000007"><a xlink:href="node_8class_8c.html" target="_top" xlink:title="Implementation of the node class for the ProjetSDLOpenGLL2 project.">
<polygon fill="white" stroke="#666666" points="5336,-24.5 5203,-24.5 5203,-5.5 5336,-5.5 5336,-24.5"/>
<text text-anchor="middle" x="5269.5" y="-12.5" font-family="Helvetica,sans-Serif" font-size="10.00">src/classes/node.class.c</text>
</a>
</g>
</g>
<!-- Node6&#45;&gt;Node7 -->
<g id="edge6_Node000006_Node000007" class="edge">
<title>Node6&#45;&gt;Node7</title>
<g id="a_edge6_Node000006_Node000007"><a xlink:title=" ">
<path fill="none" stroke="#63b8ff" d="M3620.47,-74.09C3883.23,-72.18 4880.3,-62.9 5193.5,-30 5205.38,-28.75 5218.18,-26.68 5229.83,-24.51"/>
<polygon fill="#63b8ff" stroke="#63b8ff" points="3620.31,-70.59 3610.34,-74.16 3620.36,-77.59 3620.31,-70.59"/>
</a>
</g>
</g>
<!-- Node8 -->
<g id="Node000008" class="node">
<title>Node8</title>
<g id="a_Node000008"><a xlink:href="camera_8class_8c.html" target="_top" xlink:title="This file contains the implementation of the Camera class.">
<polygon fill="white" stroke="#666666" points="5532.5,-24.5 5354.5,-24.5 5354.5,-5.5 5532.5,-5.5 5532.5,-24.5"/>
<text text-anchor="middle" x="5443.5" y="-12.5" font-family="Helvetica,sans-Serif" font-size="10.00">src/classes/nodes/camera.class.c</text>
</a>
</g>
</g>
<!-- Node6&#45;&gt;Node8 -->
<g id="edge7_Node000006_Node000008" class="edge">
<title>Node6&#45;&gt;Node8</title>
<g id="a_edge7_Node000006_Node000008"><a xlink:title=" ">
<path fill="none" stroke="#63b8ff" d="M3620.32,-73.92C3897.71,-71.22 5000.09,-58.87 5345.5,-30 5360.66,-28.73 5377.05,-26.67 5392.01,-24.51"/>
<polygon fill="#63b8ff" stroke="#63b8ff" points="3620,-70.42 3610.03,-74.01 3620.07,-77.42 3620,-70.42"/>
</a>
</g>
</g>
<!-- Node9 -->
<g id="Node000009" class="node">
<title>Node9</title>
<g id="a_Node000009"><a xlink:href="box__cshape_8class_8c.html" target="_top" xlink:title="This source file defines the BoxCShape class and its associated methods.">
<polygon fill="white" stroke="#666666" points="5696,-30 5551,-30 5551,0 5696,0 5696,-30"/>
<text text-anchor="start" x="5559" y="-18" font-family="Helvetica,sans-Serif" font-size="10.00">src/classes/nodes/cshapes</text>
<text text-anchor="middle" x="5623.5" y="-7" font-family="Helvetica,sans-Serif" font-size="10.00">/box_cshape.class.c</text>
</a>
</g>
</g>
<!-- Node6&#45;&gt;Node9 -->
<g id="edge8_Node000006_Node000009" class="edge">
<title>Node6&#45;&gt;Node9</title>
<g id="a_edge8_Node000006_Node000009"><a xlink:title=" ">
<path fill="none" stroke="#63b8ff" d="M3620.45,-74.33C3916.48,-73.35 5155.77,-67.05 5541.5,-30 5544.52,-29.71 5547.59,-29.37 5550.7,-29"/>
<polygon fill="#63b8ff" stroke="#63b8ff" points="3620.3,-70.83 3610.32,-74.36 3620.33,-77.83 3620.3,-70.83"/>
</a>
</g>
</g>
<!-- Node10 -->
<g id="Node000010" class="node">
<title>Node10</title>
<g id="a_Node000010"><a xlink:href="capsule__cshape_8class_8c.html" target="_top" xlink:title="This file defines the implementation of the capsule shape class.">
<polygon fill="white" stroke="#666666" points="5859,-30 5714,-30 5714,0 5859,0 5859,-30"/>
<text text-anchor="start" x="5722" y="-18" font-family="Helvetica,sans-Serif" font-size="10.00">src/classes/nodes/cshapes</text>
<text text-anchor="middle" x="5786.5" y="-7" font-family="Helvetica,sans-Serif" font-size="10.00">/capsule_cshape.class.c</text>
</a>
</g>
</g>
<!-- Node6&#45;&gt;Node10 -->
<g id="edge9_Node000006_Node000010" class="edge">
<title>Node6&#45;&gt;Node10</title>
<g id="a_edge9_Node000006_Node000010"><a xlink:title=" ">
<path fill="none" stroke="#63b8ff" d="M3620.59,-74.47C3931.59,-74.15 5285.65,-70.4 5705.5,-30 5708.2,-29.74 5710.94,-29.44 5713.71,-29.11"/>
<polygon fill="#63b8ff" stroke="#63b8ff" points="3620.39,-70.97 3610.4,-74.48 3620.4,-77.97 3620.39,-70.97"/>
</a>
</g>
</g>
<!-- Node11 -->
<g id="Node000011" class="node">
<title>Node11</title>
<g id="a_Node000011"><a xlink:href="cshape_8class_8c.html" target="_top" xlink:title="This file defines the implementation of various CShape classes.">
<polygon fill="white" stroke="#666666" points="6022,-30 5877,-30 5877,0 6022,0 6022,-30"/>
<text text-anchor="start" x="5885" y="-18" font-family="Helvetica,sans-Serif" font-size="10.00">src/classes/nodes/cshapes</text>
<text text-anchor="middle" x="5949.5" y="-7" font-family="Helvetica,sans-Serif" font-size="10.00">/cshape.class.c</text>
</a>
</g>
</g>
<!-- Node6&#45;&gt;Node11 -->
<g id="edge10_Node000006_Node000011" class="edge">
<title>Node6&#45;&gt;Node11</title>
<g id="a_edge10_Node000006_Node000011"><a xlink:title=" ">
<path fill="none" stroke="#63b8ff" d="M3620.64,-74.58C3945.83,-74.8 5414.59,-73.34 5868.5,-30 5871.2,-29.74 5873.94,-29.45 5876.71,-29.12"/>
<polygon fill="#63b8ff" stroke="#63b8ff" points="3620.46,-71.08 3610.45,-74.58 3620.45,-78.08 3620.46,-71.08"/>
</a>
</g>
</g>
<!-- Node12 -->
<g id="Node000012" class="node">
<title>Node12</title>
<g id="a_Node000012"><a xlink:href="mesh__cshape_8class_8c.html" target="_top" xlink:title="This file defines the implementation of mesh shapes for the project.">
<polygon fill="white" stroke="#666666" points="6185,-30 6040,-30 6040,0 6185,0 6185,-30"/>
<text text-anchor="start" x="6048" y="-18" font-family="Helvetica,sans-Serif" font-size="10.00">src/classes/nodes/cshapes</text>
<text text-anchor="middle" x="6112.5" y="-7" font-family="Helvetica,sans-Serif" font-size="10.00">/mesh_cshape.class.c</text>
</a>
</g>
</g>
<!-- Node6&#45;&gt;Node12 -->
<g id="edge11_Node000006_Node000012" class="edge">
<title>Node6&#45;&gt;Node12</title>
<g id="a_edge11_Node000006_Node000012"><a xlink:title=" ">
<path fill="none" stroke="#63b8ff" d="M3620.18,-74.68C3957.99,-75.42 5543.21,-76.31 6031.5,-30 6034.2,-29.74 6036.94,-29.45 6039.71,-29.12"/>
<polygon fill="#63b8ff" stroke="#63b8ff" points="3620.1,-71.18 3610.09,-74.65 3620.08,-78.18 3620.1,-71.18"/>
</a>
</g>
</g>
<!-- Node13 -->
<g id="Node000013" class="node">
<title>Node13</title>
<g id="a_Node000013"><a xlink:href="plane__cshape_8class_8c.html" target="_top" xlink:title="This file defines the implementation of a plane shape class.">
<polygon fill="white" stroke="#666666" points="6348,-30 6203,-30 6203,0 6348,0 6348,-30"/>
<text text-anchor="start" x="6211" y="-18" font-family="Helvetica,sans-Serif" font-size="10.00">src/classes/nodes/cshapes</text>
<text text-anchor="middle" x="6275.5" y="-7" font-family="Helvetica,sans-Serif" font-size="10.00">/plane_cshape.class.c</text>
</a>
</g>
</g>
<!-- Node6&#45;&gt;Node13 -->
<g id="edge12_Node000006_Node000013" class="edge">
<title>Node6&#45;&gt;Node13</title>
<g id="a_edge12_Node000006_Node000013"><a xlink:title=" ">
<path fill="none" stroke="#63b8ff" d="M3620.36,-74.76C3971.67,-75.99 5672.07,-79.26 6194.5,-30 6197.2,-29.75 6199.94,-29.45 6202.71,-29.13"/>
<polygon fill="#63b8ff" stroke="#63b8ff" points="3620.13,-71.26 3610.12,-74.72 3620.11,-78.26 3620.13,-71.26"/>
</a>
</g>
</g>
<!-- Node14 -->
<g id="Node000014" class="node">
<title>Node14</title>
<g id="a_Node000014"><a xlink:href="ray__cshape_8class_8c.html" target="_top" xlink:title="This file defines the implementation of ray&#45;casting shapes.">
<polygon fill="white" stroke="#666666" points="6511,-30 6366,-30 6366,0 6511,0 6511,-30"/>
<text text-anchor="start" x="6374" y="-18" font-family="Helvetica,sans-Serif" font-size="10.00">src/classes/nodes/cshapes</text>
<text text-anchor="middle" x="6438.5" y="-7" font-family="Helvetica,sans-Serif" font-size="10.00">/ray_cshape.class.c</text>
</a>
</g>
</g>
<!-- Node6&#45;&gt;Node14 -->
<g id="edge13_Node000006_Node000014" class="edge">
<title>Node6&#45;&gt;Node14</title>
<g id="a_edge13_Node000006_Node000014"><a xlink:title=" ">
<path fill="none" stroke="#63b8ff" d="M3620.46,-74.08C4011.97,-71.43 6077.16,-56.29 6357.5,-30 6360.2,-29.75 6362.94,-29.45 6365.71,-29.13"/>
<polygon fill="#63b8ff" stroke="#63b8ff" points="3620.15,-70.58 3610.18,-74.15 3620.2,-77.58 3620.15,-70.58"/>
</a>
</g>
</g>
<!-- Node15 -->
<g id="Node000015" class="node">
<title>Node15</title>
<g id="a_Node000015"><a xlink:href="sphere__cshape_8class_8c.html" target="_top" xlink:title="This file contains the implementation of the SphereCShape class.">
<polygon fill="white" stroke="#666666" points="6674,-30 6529,-30 6529,0 6674,0 6674,-30"/>
<text text-anchor="start" x="6537" y="-18" font-family="Helvetica,sans-Serif" font-size="10.00">src/classes/nodes/cshapes</text>
<text text-anchor="middle" x="6601.5" y="-7" font-family="Helvetica,sans-Serif" font-size="10.00">/sphere_cshape.class.c</text>
</a>
</g>
</g>
<!-- Node6&#45;&gt;Node15 -->
<g id="edge14_Node000006_Node000015" class="edge">
<title>Node6&#45;&gt;Node15</title>
<g id="a_edge14_Node000006_Node000015"><a xlink:title=" ">
<path fill="none" stroke="#63b8ff" d="M3620.3,-74.14C4024.6,-71.79 6222.9,-57.78 6520.5,-30 6523.2,-29.75 6525.94,-29.46 6528.71,-29.13"/>
<polygon fill="#63b8ff" stroke="#63b8ff" points="3620.23,-70.64 3610.25,-74.2 3620.27,-77.64 3620.23,-70.64"/>
</a>
</g>
</g>
<!-- Node16 -->
<g id="Node000016" class="node">
<title>Node16</title>
<g id="a_Node000016"><a xlink:href="button_8class_8c.html" target="_top" xlink:title="This file defines the Button class and its associated methods.">
<polygon fill="white" stroke="#666666" points="6832.5,-30 6692.5,-30 6692.5,0 6832.5,0 6832.5,-30"/>
<text text-anchor="start" x="6700.5" y="-18" font-family="Helvetica,sans-Serif" font-size="10.00">src/classes/nodes/frames</text>
<text text-anchor="middle" x="6762.5" y="-7" font-family="Helvetica,sans-Serif" font-size="10.00">/button.class.c</text>
</a>
</g>
</g>
<!-- Node6&#45;&gt;Node16 -->
<g id="edge15_Node000006_Node000016" class="edge">
<title>Node6&#45;&gt;Node16</title>
<g id="a_edge15_Node000006_Node000016"><a xlink:title=" ">
<path fill="none" stroke="#63b8ff" d="M3620.13,-74.21C4036.82,-72.24 6368.68,-59.94 6683.5,-30 6686.41,-29.72 6689.38,-29.4 6692.37,-29.03"/>
<polygon fill="#63b8ff" stroke="#63b8ff" points="3620.06,-70.71 3610.07,-74.26 3620.09,-77.71 3620.06,-70.71"/>
</a>
</g>
</g>
<!-- Node17 -->
<g id="Node000017" class="node">
<title>Node17</title>
<g id="a_Node000017"><a xlink:href="checkbox_8class_8c.html" target="_top" xlink:title="Implementation of the Checkbox class for the GUI framework.">
<polygon fill="white" stroke="#666666" points="6990.5,-30 6850.5,-30 6850.5,0 6990.5,0 6990.5,-30"/>
<text text-anchor="start" x="6858.5" y="-18" font-family="Helvetica,sans-Serif" font-size="10.00">src/classes/nodes/frames</text>
<text text-anchor="middle" x="6920.5" y="-7" font-family="Helvetica,sans-Serif" font-size="10.00">/checkbox.class.c</text>
</a>
</g>
</g>
<!-- Node6&#45;&gt;Node17 -->
<g id="edge16_Node000006_Node000017" class="edge">
<title>Node6&#45;&gt;Node17</title>
<g id="a_edge16_Node000006_Node000017"><a xlink:title=" ">
<path fill="none" stroke="#63b8ff" d="M3620.26,-74.26C4049.44,-72.55 6509.98,-61.41 6841.5,-30 6844.41,-29.72 6847.38,-29.4 6850.37,-29.04"/>
<polygon fill="#63b8ff" stroke="#63b8ff" points="3620.19,-70.76 3610.21,-74.3 3620.22,-77.76 3620.19,-70.76"/>
</a>
</g>
</g>
<!-- Node18 -->
<g id="Node000018" class="node">
<title>Node18</title>
<g id="a_Node000018"><a xlink:href="control__frame_8class_8c.html" target="_top" xlink:title="This file defines the implementation of the control frame class.">
<polygon fill="white" stroke="#666666" points="7148.5,-30 7008.5,-30 7008.5,0 7148.5,0 7148.5,-30"/>
<text text-anchor="start" x="7016.5" y="-18" font-family="Helvetica,sans-Serif" font-size="10.00">src/classes/nodes/frames</text>
<text text-anchor="middle" x="7078.5" y="-7" font-family="Helvetica,sans-Serif" font-size="10.00">/control_frame.class.c</text>
</a>
</g>
</g>
<!-- Node6&#45;&gt;Node18 -->
<g id="edge17_Node000006_Node000018" class="edge">
<title>Node6&#45;&gt;Node18</title>
<g id="a_edge17_Node000006_Node000018"><a xlink:title=" ">
<path fill="none" stroke="#63b8ff" d="M3620.16,-74.3C4060.91,-72.84 6651.2,-62.89 6999.5,-30 7002.41,-29.72 7005.38,-29.4 7008.37,-29.04"/>
<polygon fill="#63b8ff" stroke="#63b8ff" points="3620.14,-70.8 3610.16,-74.33 3620.17,-77.8 3620.14,-70.8"/>
</a>
</g>
</g>
<!-- Node19 -->
<g id="Node000019" class="node">
<title>Node19</title>
<g id="a_Node000019"><a xlink:href="frame_8class_8c.html" target="_top" xlink:title="This file defines the implementation of frame&#45;related functionalities.">
<polygon fill="white" stroke="#666666" points="467.5,-30 327.5,-30 327.5,0 467.5,0 467.5,-30"/>
<text text-anchor="start" x="335.5" y="-18" font-family="Helvetica,sans-Serif" font-size="10.00">src/classes/nodes/frames</text>
<text text-anchor="middle" x="397.5" y="-7" font-family="Helvetica,sans-Serif" font-size="10.00">/frame.class.c</text>
</a>
</g>
</g>
<!-- Node6&#45;&gt;Node19 -->
<g id="edge18_Node000006_Node000019" class="edge">
<title>Node6&#45;&gt;Node19</title>
<g id="a_edge18_Node000006_Node000019"><a xlink:title=" ">
<path fill="none" stroke="#63b8ff" d="M3492.53,-74.2C3078.6,-72.14 786.27,-59.49 476.5,-30 473.59,-29.72 470.62,-29.4 467.63,-29.03"/>
<polygon fill="#63b8ff" stroke="#63b8ff" points="3492.8,-77.7 3502.82,-74.25 3492.83,-70.7 3492.8,-77.7"/>
</a>
</g>
</g>
<!-- Node20 -->
<g id="Node000020" class="node">
<title>Node20</title>
<g id="a_Node000020"><a xlink:href="image__frame_8class_8c.html" target="_top" xlink:title="This file contains the implementation of the ImageFrame class.">
<polygon fill="white" stroke="#666666" points="625.5,-30 485.5,-30 485.5,0 625.5,0 625.5,-30"/>
<text text-anchor="start" x="493.5" y="-18" font-family="Helvetica,sans-Serif" font-size="10.00">src/classes/nodes/frames</text>
<text text-anchor="middle" x="555.5" y="-7" font-family="Helvetica,sans-Serif" font-size="10.00">/image_frame.class.c</text>
</a>
</g>
</g>
<!-- Node6&#45;&gt;Node20 -->
<g id="edge19_Node000006_Node000020" class="edge">
<title>Node6&#45;&gt;Node20</title>
<g id="a_edge19_Node000006_Node000020"><a xlink:title=" ">
<path fill="none" stroke="#63b8ff" d="M3492.67,-74.14C3091.64,-71.81 927.59,-58.02 634.5,-30 631.59,-29.72 628.62,-29.39 625.63,-29.03"/>
<polygon fill="#63b8ff" stroke="#63b8ff" points="3492.89,-77.64 3502.91,-74.2 3492.94,-70.64 3492.89,-77.64"/>
</a>
</g>
</g>
<!-- Node21 -->
<g id="Node000021" class="node">
<title>Node21</title>
<g id="a_Node000021"><a xlink:href="input__area_8class_8c.html" target="_top" xlink:title="This file defines the InputArea class and its associated methods.">
<polygon fill="white" stroke="#666666" points="783.5,-30 643.5,-30 643.5,0 783.5,0 783.5,-30"/>
<text text-anchor="start" x="651.5" y="-18" font-family="Helvetica,sans-Serif" font-size="10.00">src/classes/nodes/frames</text>
<text text-anchor="middle" x="713.5" y="-7" font-family="Helvetica,sans-Serif" font-size="10.00">/input_area.class.c</text>
</a>
</g>
</g>
<!-- Node6&#45;&gt;Node21 -->
<g id="edge20_Node000006_Node000021" class="edge">
<title>Node6&#45;&gt;Node21</title>
<g id="a_edge20_Node000006_Node000021"><a xlink:title=" ">
<path fill="none" stroke="#63b8ff" d="M3492.76,-74.08C3104.86,-71.47 1068.93,-56.55 792.5,-30 789.59,-29.72 786.62,-29.39 783.63,-29.03"/>
<polygon fill="#63b8ff" stroke="#63b8ff" points="3492.93,-77.58 3502.95,-74.15 3492.98,-70.58 3492.93,-77.58"/>
</a>
</g>
</g>
<!-- Node22 -->
<g id="Node000022" class="node">
<title>Node22</title>
<g id="a_Node000022"><a xlink:href="label_8class_8c.html" target="_top" xlink:title="This file defines the Label class and its associated functions.">
<polygon fill="white" stroke="#666666" points="941.5,-30 801.5,-30 801.5,0 941.5,0 941.5,-30"/>
<text text-anchor="start" x="809.5" y="-18" font-family="Helvetica,sans-Serif" font-size="10.00">src/classes/nodes/frames</text>
<text text-anchor="middle" x="871.5" y="-7" font-family="Helvetica,sans-Serif" font-size="10.00">/label.class.c</text>
</a>
</g>
</g>
<!-- Node6&#45;&gt;Node22 -->
<g id="edge21_Node000006_Node000022" class="edge">
<title>Node6&#45;&gt;Node22</title>
<g id="a_edge21_Node000006_Node000022"><a xlink:title=" ">
<path fill="none" stroke="#63b8ff" d="M3492.56,-74.78C3143.62,-76.11 1466.07,-79.77 950.5,-30 947.59,-29.72 944.62,-29.39 941.63,-29.02"/>
<polygon fill="#63b8ff" stroke="#63b8ff" points="3492.75,-78.28 3502.74,-74.74 3492.72,-71.28 3492.75,-78.28"/>
</a>
</g>
</g>
<!-- Node23 -->
<g id="Node000023" class="node">
<title>Node23</title>
<g id="a_Node000023"><a xlink:href="radiobutton_8class_8c.html" target="_top" xlink:title="Implementation of the RadioButton class.">
<polygon fill="white" stroke="#666666" points="1099.5,-30 959.5,-30 959.5,0 1099.5,0 1099.5,-30"/>
<text text-anchor="start" x="967.5" y="-18" font-family="Helvetica,sans-Serif" font-size="10.00">src/classes/nodes/frames</text>
<text text-anchor="middle" x="1029.5" y="-7" font-family="Helvetica,sans-Serif" font-size="10.00">/radiobutton.class.c</text>
</a>
</g>
</g>
<!-- Node6&#45;&gt;Node23 -->
<g id="edge22_Node000006_Node000023" class="edge">
<title>Node6&#45;&gt;Node23</title>
<g id="a_edge22_Node000006_Node000023"><a xlink:title=" ">
<path fill="none" stroke="#63b8ff" d="M3492.96,-74.7C3157.66,-75.54 1591.1,-76.85 1108.5,-30 1105.59,-29.72 1102.62,-29.39 1099.63,-29.02"/>
<polygon fill="#63b8ff" stroke="#63b8ff" points="3492.99,-78.2 3502.99,-74.67 3492.98,-71.2 3492.99,-78.2"/>
</a>
</g>
</g>
<!-- Node24 -->
<g id="Node000024" class="node">
<title>Node24</title>
<g id="a_Node000024"><a xlink:href="selectlist_8class_8c.html" target="_top" xlink:title="This file implements the functionality for a selectable list frame in the application.">
<polygon fill="white" stroke="#666666" points="1257.5,-30 1117.5,-30 1117.5,0 1257.5,0 1257.5,-30"/>
<text text-anchor="start" x="1125.5" y="-18" font-family="Helvetica,sans-Serif" font-size="10.00">src/classes/nodes/frames</text>
<text text-anchor="middle" x="1187.5" y="-7" font-family="Helvetica,sans-Serif" font-size="10.00">/selectlist.class.c</text>
</a>
</g>
</g>
<!-- Node6&#45;&gt;Node24 -->
<g id="edge23_Node000006_Node000024" class="edge">
<title>Node6&#45;&gt;Node24</title>
<g id="a_edge23_Node000006_Node000024"><a xlink:title=" ">
<path fill="none" stroke="#63b8ff" d="M3492.44,-74.61C3169.27,-74.93 1715.76,-73.9 1266.5,-30 1263.59,-29.72 1260.62,-29.38 1257.63,-29.01"/>
<polygon fill="#63b8ff" stroke="#63b8ff" points="3492.57,-78.11 3502.56,-74.59 3492.56,-71.11 3492.57,-78.11"/>
</a>
</g>
</g>
<!-- Node25 -->
<g id="Node000025" class="node">
<title>Node25</title>
<g id="a_Node000025"><a xlink:href="slider_8class_8c.html" target="_top" xlink:title=" ">
<polygon fill="white" stroke="#666666" points="1415.5,-30 1275.5,-30 1275.5,0 1415.5,0 1415.5,-30"/>
<text text-anchor="start" x="1283.5" y="-18" font-family="Helvetica,sans-Serif" font-size="10.00">src/classes/nodes/frames</text>
<text text-anchor="middle" x="1345.5" y="-7" font-family="Helvetica,sans-Serif" font-size="10.00">/slider.class.c</text>
</a>
</g>
</g>
<!-- Node6&#45;&gt;Node25 -->
<g id="edge24_Node000006_Node000025" class="edge">
<title>Node6&#45;&gt;Node25</title>
<g id="a_edge24_Node000006_Node000025"><a xlink:title=" ">
<path fill="none" stroke="#63b8ff" d="M3492.41,-74.5C3182.88,-74.29 1840.71,-70.98 1424.5,-30 1421.59,-29.71 1418.62,-29.38 1415.63,-29.01"/>
<polygon fill="#63b8ff" stroke="#63b8ff" points="3492.55,-78 3502.55,-74.5 3492.55,-71 3492.55,-78"/>
</a>
</g>
</g>
<!-- Node26 -->
<g id="Node000026" class="node">
<title>Node26</title>
<g id="a_Node000026"><a xlink:href="directional__light_8class_8c.html" target="_top" xlink:title="This file contains the implementation of the directional light class.">
<polygon fill="white" stroke="#666666" points="1567.5,-30 1433.5,-30 1433.5,0 1567.5,0 1567.5,-30"/>
<text text-anchor="start" x="1441.5" y="-18" font-family="Helvetica,sans-Serif" font-size="10.00">src/classes/nodes/lights</text>
<text text-anchor="middle" x="1500.5" y="-7" font-family="Helvetica,sans-Serif" font-size="10.00">/directional_light.class.c</text>
</a>
</g>
</g>
<!-- Node6&#45;&gt;Node26 -->
<g id="edge25_Node000006_Node000026" class="edge">
<title>Node6&#45;&gt;Node26</title>
<g id="a_edge25_Node000006_Node000026"><a xlink:title=" ">
<path fill="none" stroke="#63b8ff" d="M3492.7,-74.44C3197.37,-73.94 1961.01,-69.48 1576.5,-30 1573.56,-29.7 1570.57,-29.35 1567.55,-28.95"/>
<polygon fill="#63b8ff" stroke="#63b8ff" points="3492.8,-77.94 3502.81,-74.45 3492.82,-70.94 3492.8,-77.94"/>
</a>
</g>
</g>
<!-- Node27 -->
<g id="Node000027" class="node">
<title>Node27</title>
<g id="a_Node000027"><a xlink:href="light_8class_8c.html" target="_top" xlink:title="This file contains the implementation of the light class for the project.">
<polygon fill="white" stroke="#666666" points="1717.5,-30 1585.5,-30 1585.5,0 1717.5,0 1717.5,-30"/>
<text text-anchor="start" x="1593.5" y="-18" font-family="Helvetica,sans-Serif" font-size="10.00">src/classes/nodes/lights</text>
<text text-anchor="middle" x="1651.5" y="-7" font-family="Helvetica,sans-Serif" font-size="10.00">/light.class.c</text>
</a>
</g>
</g>
<!-- Node6&#45;&gt;Node27 -->
<g id="edge26_Node000006_Node000027" class="edge">
<title>Node6&#45;&gt;Node27</title>
<g id="a_edge26_Node000006_Node000027"><a xlink:title=" ">
<path fill="none" stroke="#63b8ff" d="M3492.54,-74.32C3210.91,-73.32 2079.69,-67.02 1726.5,-30 1723.6,-29.7 1720.65,-29.34 1717.67,-28.95"/>
<polygon fill="#63b8ff" stroke="#63b8ff" points="3492.58,-77.82 3502.59,-74.36 3492.6,-70.82 3492.58,-77.82"/>
</a>
</g>
</g>
<!-- Node28 -->
<g id="Node000028" class="node">
<title>Node28</title>
<g id="a_Node000028"><a xlink:href="point__light_8class_8c.html" target="_top" xlink:title="This file contains the implementation of the PointLight class.">
<polygon fill="white" stroke="#666666" points="1867.5,-30 1735.5,-30 1735.5,0 1867.5,0 1867.5,-30"/>
<text text-anchor="start" x="1743.5" y="-18" font-family="Helvetica,sans-Serif" font-size="10.00">src/classes/nodes/lights</text>
<text text-anchor="middle" x="1801.5" y="-7" font-family="Helvetica,sans-Serif" font-size="10.00">/point_light.class.c</text>
</a>
</g>
</g>
<!-- Node6&#45;&gt;Node28 -->
<g id="edge27_Node000006_Node000028" class="edge">
<title>Node6&#45;&gt;Node28</title>
<g id="a_edge27_Node000006_Node000028"><a xlink:title=" ">
<path fill="none" stroke="#63b8ff" d="M3492.63,-74.16C3225.74,-72.53 2198.61,-64.11 1876.5,-30 1873.6,-29.69 1870.65,-29.34 1867.67,-28.94"/>
<polygon fill="#63b8ff" stroke="#63b8ff" points="3492.9,-77.66 3502.92,-74.22 3492.94,-70.66 3492.9,-77.66"/>
</a>
</g>
</g>
<!-- Node29 -->
<g id="Node000029" class="node">
<title>Node29</title>
<g id="a_Node000029"><a xlink:href="spot__light_8class_8c.html" target="_top" xlink:title="This file contains the implementation of the SpotLight class.">
<polygon fill="white" stroke="#666666" points="2017.5,-30 1885.5,-30 1885.5,0 2017.5,0 2017.5,-30"/>
<text text-anchor="start" x="1893.5" y="-18" font-family="Helvetica,sans-Serif" font-size="10.00">src/classes/nodes/lights</text>
<text text-anchor="middle" x="1951.5" y="-7" font-family="Helvetica,sans-Serif" font-size="10.00">/spot_light.class.c</text>
</a>
</g>
</g>
<!-- Node6&#45;&gt;Node29 -->
<g id="edge28_Node000006_Node000029" class="edge">
<title>Node6&#45;&gt;Node29</title>
<g id="a_edge28_Node000006_Node000029"><a xlink:title=" ">
<path fill="none" stroke="#63b8ff" d="M3492.59,-73.97C3240.88,-71.66 2317.57,-61.21 2026.5,-30 2023.6,-29.69 2020.65,-29.33 2017.67,-28.93"/>
<polygon fill="#63b8ff" stroke="#63b8ff" points="3492.63,-77.47 3502.66,-74.06 3492.7,-70.47 3492.63,-77.47"/>
</a>
</g>
</g>
<!-- Node30 -->
<g id="Node000030" class="node">
<title>Node30</title>
<g id="a_Node000030"><a xlink:href="mesh_8class_8c.html" target="_top" xlink:title="This file defines the implementation of the Mesh class.">
<polygon fill="white" stroke="#666666" points="2203.5,-24.5 2035.5,-24.5 2035.5,-5.5 2203.5,-5.5 2203.5,-24.5"/>
<text text-anchor="middle" x="2119.5" y="-12.5" font-family="Helvetica,sans-Serif" font-size="10.00">src/classes/nodes/mesh.class.c</text>
</a>
</g>
</g>
<!-- Node6&#45;&gt;Node30 -->
<g id="edge29_Node000006_Node000030" class="edge">
<title>Node6&#45;&gt;Node30</title>
<g id="a_edge29_Node000006_Node000030"><a xlink:title=" ">
<path fill="none" stroke="#63b8ff" d="M3492.64,-75.02C3299.33,-76.01 2703.61,-74.94 2212.5,-30 2198.35,-28.71 2183.08,-26.67 2169.08,-24.56"/>
<polygon fill="#63b8ff" stroke="#63b8ff" points="3492.92,-78.51 3502.9,-74.96 3492.88,-71.51 3492.92,-78.51"/>
</a>
</g>
</g>
<!-- Node31 -->
<g id="Node000031" class="node">
<title>Node31</title>
<g id="a_Node000031"><a xlink:href="model_8class_8c.html" target="_top" xlink:title="This file contains the implementation of the model class.">
<polygon fill="white" stroke="#666666" points="2393.5,-24.5 2221.5,-24.5 2221.5,-5.5 2393.5,-5.5 2393.5,-24.5"/>
<text text-anchor="middle" x="2307.5" y="-12.5" font-family="Helvetica,sans-Serif" font-size="10.00">src/classes/nodes/model.class.c</text>
</a>
</g>
</g>
<!-- Node6&#45;&gt;Node31 -->
<g id="edge30_Node000006_Node000031" class="edge">
<title>Node6&#45;&gt;Node31</title>
<g id="a_edge30_Node000006_Node000031"><a xlink:title=" ">
<path fill="none" stroke="#63b8ff" d="M3492.83,-74.45C3318.18,-73.79 2816.98,-68.42 2402.5,-30 2388.22,-28.68 2372.82,-26.66 2358.65,-24.57"/>
<polygon fill="#63b8ff" stroke="#63b8ff" points="3492.86,-77.95 3502.87,-74.48 3492.89,-70.95 3492.86,-77.95"/>
</a>
</g>
</g>
<!-- Node32 -->
<g id="Node000032" class="node">
<title>Node32</title>
<g id="a_Node000032"><a xlink:href="area_8class_8c.html" target="_top" xlink:title="This file handles the physics area nodes in the project.">
<polygon fill="white" stroke="#666666" points="2553.5,-30 2411.5,-30 2411.5,0 2553.5,0 2553.5,-30"/>
<text text-anchor="start" x="2419.5" y="-18" font-family="Helvetica,sans-Serif" font-size="10.00">src/classes/nodes/physics</text>
<text text-anchor="middle" x="2482.5" y="-7" font-family="Helvetica,sans-Serif" font-size="10.00">/area.class.c</text>
</a>
</g>
</g>
<!-- Node6&#45;&gt;Node32 -->
<g id="edge31_Node000006_Node000032" class="edge">
<title>Node6&#45;&gt;Node32</title>
<g id="a_edge31_Node000006_Node000032"><a xlink:title=" ">
<path fill="none" stroke="#63b8ff" d="M3492.96,-74.48C3335.08,-73.82 2912.42,-68.29 2562.5,-30 2559.56,-29.68 2556.56,-29.31 2553.53,-28.92"/>
<polygon fill="#63b8ff" stroke="#63b8ff" points="3492.97,-77.98 3502.98,-74.52 3492.99,-70.98 3492.97,-77.98"/>
</a>
</g>
</g>
<!-- Node33 -->
<g id="Node000033" class="node">
<title>Node33</title>
<g id="a_Node000033"><a xlink:href="body_8class_8c.html" target="_top" xlink:title="This file defines the body class for the physics engine.">
<polygon fill="white" stroke="#666666" points="2713.5,-30 2571.5,-30 2571.5,0 2713.5,0 2713.5,-30"/>
<text text-anchor="start" x="2579.5" y="-18" font-family="Helvetica,sans-Serif" font-size="10.00">src/classes/nodes/physics</text>
<text text-anchor="middle" x="2642.5" y="-7" font-family="Helvetica,sans-Serif" font-size="10.00">/bodies/body.class.c</text>
</a>
</g>
</g>
<!-- Node6&#45;&gt;Node33 -->
<g id="edge32_Node000006_Node000033" class="edge">
<title>Node6&#45;&gt;Node33</title>
<g id="a_edge32_Node000006_Node000033"><a xlink:title=" ">
<path fill="none" stroke="#63b8ff" d="M3492.53,-73.7C3352.5,-71.37 3008.52,-62.54 2722.5,-30 2719.56,-29.67 2716.56,-29.29 2713.54,-28.89"/>
<polygon fill="#63b8ff" stroke="#63b8ff" points="3492.6,-77.2 3502.65,-73.86 3492.71,-70.2 3492.6,-77.2"/>
</a>
</g>
</g>
<!-- Node34 -->
<g id="Node000034" class="node">
<title>Node34</title>
<g id="a_Node000034"><a xlink:href="kinematic__body_8class_8c.html" target="_top" xlink:title="This file defines the implementation of kinematic bodies for the physics engine.">
<polygon fill="white" stroke="#666666" points="2899,-30 2732,-30 2732,0 2899,0 2899,-30"/>
<text text-anchor="start" x="2740" y="-18" font-family="Helvetica,sans-Serif" font-size="10.00">src/classes/nodes/physics</text>
<text text-anchor="middle" x="2815.5" y="-7" font-family="Helvetica,sans-Serif" font-size="10.00">/bodies/kinematic_body.class.c</text>
</a>
</g>
</g>
<!-- Node6&#45;&gt;Node34 -->
<g id="edge33_Node000006_Node000034" class="edge">
<title>Node6&#45;&gt;Node34</title>
<g id="a_edge33_Node000006_Node000034"><a xlink:title=" ">
<path fill="none" stroke="#63b8ff" d="M3492.44,-71.82C3375.95,-66.57 3121.77,-53.34 2908.5,-30 2905.42,-29.66 2902.28,-29.3 2899.11,-28.91"/>
<polygon fill="#63b8ff" stroke="#63b8ff" points="3492.46,-75.32 3502.61,-72.27 3492.77,-68.33 3492.46,-75.32"/>
</a>
</g>
</g>
<!-- Node35 -->
<g id="Node000035" class="node">
<title>Node35</title>
<g id="a_Node000035"><a xlink:href="rigid__body_8class_8c.html" target="_top" xlink:title="This source file defines the implementation of rigid body physics for the project.">
<polygon fill="white" stroke="#666666" points="3059.5,-30 2917.5,-30 2917.5,0 3059.5,0 3059.5,-30"/>
<text text-anchor="start" x="2925.5" y="-18" font-family="Helvetica,sans-Serif" font-size="10.00">src/classes/nodes/physics</text>
<text text-anchor="middle" x="2988.5" y="-7" font-family="Helvetica,sans-Serif" font-size="10.00">/bodies/rigid_body.class.c</text>
</a>
</g>
</g>
<!-- Node6&#45;&gt;Node35 -->
<g id="edge34_Node000006_Node000035" class="edge">
<title>Node6&#45;&gt;Node35</title>
<g id="a_edge34_Node000006_Node000035"><a xlink:title=" ">
<path fill="none" stroke="#63b8ff" d="M3492.77,-70.37C3399.41,-63.94 3220.1,-50.14 3068.5,-30 3065.56,-29.61 3062.57,-29.19 3059.55,-28.75"/>
<polygon fill="#63b8ff" stroke="#63b8ff" points="3492.69,-73.87 3502.9,-71.06 3493.17,-66.89 3492.69,-73.87"/>
</a>
</g>
</g>
<!-- Node36 -->
<g id="Node000036" class="node">
<title>Node36</title>
<g id="a_Node000036"><a xlink:href="static__body_8class_8c.html" target="_top" xlink:title="This file defines the implementation of static bodies in the physics engine.">
<polygon fill="white" stroke="#666666" points="3223.5,-30 3077.5,-30 3077.5,0 3223.5,0 3223.5,-30"/>
<text text-anchor="start" x="3085.5" y="-18" font-family="Helvetica,sans-Serif" font-size="10.00">src/classes/nodes/physics</text>
<text text-anchor="middle" x="3150.5" y="-7" font-family="Helvetica,sans-Serif" font-size="10.00">/bodies/static_body.class.c</text>
</a>
</g>
</g>
<!-- Node6&#45;&gt;Node36 -->
<g id="edge35_Node000006_Node000036" class="edge">
<title>Node6&#45;&gt;Node36</title>
<g id="a_edge35_Node000006_Node000036"><a xlink:title=" ">
<path fill="none" stroke="#63b8ff" d="M3492.67,-66.36C3427.26,-57.87 3322.65,-43.88 3232.5,-30 3229.65,-29.56 3226.74,-29.1 3223.8,-28.64"/>
<polygon fill="#63b8ff" stroke="#63b8ff" points="3492.45,-69.86 3502.82,-67.67 3493.35,-62.92 3492.45,-69.86"/>
</a>
</g>
</g>
<!-- Node37 -->
<g id="Node000037" class="node">
<title>Node37</title>
<g id="a_Node000037"><a xlink:href="physical__node_8class_8c.html" target="_top" xlink:title="This file contains the implementation of the PhysicalNode class.">
<polygon fill="white" stroke="#666666" points="3383.5,-30 3241.5,-30 3241.5,0 3383.5,0 3383.5,-30"/>
<text text-anchor="start" x="3249.5" y="-18" font-family="Helvetica,sans-Serif" font-size="10.00">src/classes/nodes/physics</text>
<text text-anchor="middle" x="3312.5" y="-7" font-family="Helvetica,sans-Serif" font-size="10.00">/physical_node.class.c</text>
</a>
</g>
</g>
<!-- Node6&#45;&gt;Node37 -->
<g id="edge36_Node000006_Node000037" class="edge">
<title>Node6&#45;&gt;Node37</title>
<g id="a_edge36_Node000006_Node000037"><a xlink:title=" ">
<path fill="none" stroke="#63b8ff" d="M3511.14,-63.62C3471.64,-54.16 3414.14,-40.37 3371.16,-30.06"/>
<polygon fill="#63b8ff" stroke="#63b8ff" points="3510.48,-67.07 3521.02,-65.99 3512.11,-60.26 3510.48,-67.07"/>
</a>
</g>
</g>
<!-- Node38 -->
<g id="Node000038" class="node">
<title>Node38</title>
<g id="a_Node000038"><a xlink:href="render__target_8class_8c.html" target="_top" xlink:title="Framebuffer class implementation.">
<polygon fill="white" stroke="#666666" points="3539,-30 3402,-30 3402,0 3539,0 3539,-30"/>
<text text-anchor="start" x="3410" y="-18" font-family="Helvetica,sans-Serif" font-size="10.00">src/classes/nodes/render</text>
<text text-anchor="middle" x="3470.5" y="-7" font-family="Helvetica,sans-Serif" font-size="10.00">_target.class.c</text>
</a>
</g>
</g>
<!-- Node6&#45;&gt;Node38 -->
<g id="edge37_Node000006_Node000038" class="edge">
<title>Node6&#45;&gt;Node38</title>
<g id="a_edge37_Node000006_Node000038"><a xlink:title=" ">
<path fill="none" stroke="#63b8ff" d="M3535.23,-60.03C3521.81,-50.9 3504.57,-39.17 3491.25,-30.11"/>
<polygon fill="#63b8ff" stroke="#63b8ff" points="3533.57,-63.14 3543.81,-65.87 3537.51,-57.35 3533.57,-63.14"/>
</a>
</g>
</g>
<!-- Node39 -->
<g id="Node000039" class="node">
<title>Node39</title>
<g id="a_Node000039"><a xlink:href="scene_8class_8c.html" target="_top" xlink:title="This file contains the implementation of the scene class.">
<polygon fill="white" stroke="#666666" points="3727.5,-24.5 3557.5,-24.5 3557.5,-5.5 3727.5,-5.5 3727.5,-24.5"/>
<text text-anchor="middle" x="3642.5" y="-12.5" font-family="Helvetica,sans-Serif" font-size="10.00">src/classes/nodes/scene.class.c</text>
</a>
</g>
</g>
<!-- Node6&#45;&gt;Node39 -->
<g id="edge38_Node000006_Node000039" class="edge">
<title>Node6&#45;&gt;Node39</title>
<g id="a_edge38_Node000006_Node000039"><a xlink:title=" ">
<path fill="none" stroke="#63b8ff" d="M3577.58,-60.16C3593.92,-49.05 3616.02,-34.01 3629.76,-24.67"/>
<polygon fill="#63b8ff" stroke="#63b8ff" points="3575.49,-57.35 3569.19,-65.87 3579.43,-63.14 3575.49,-57.35"/>
</a>
</g>
</g>
<!-- Node40 -->
<g id="Node000040" class="node">
<title>Node40</title>
<g id="a_Node000040"><a xlink:href="skybox_8class_8c.html" target="_top" xlink:title="This file contains the implementation of the Skybox class.">
<polygon fill="white" stroke="#666666" points="3921.5,-24.5 3745.5,-24.5 3745.5,-5.5 3921.5,-5.5 3921.5,-24.5"/>
<text text-anchor="middle" x="3833.5" y="-12.5" font-family="Helvetica,sans-Serif" font-size="10.00">src/classes/nodes/skybox.class.c</text>
</a>
</g>
</g>
<!-- Node6&#45;&gt;Node40 -->
<g id="edge39_Node000006_Node000040" class="edge">
<title>Node6&#45;&gt;Node40</title>
<g id="a_edge39_Node000006_Node000040"><a xlink:title=" ">
<path fill="none" stroke="#63b8ff" d="M3606.73,-63.89C3660.21,-52.6 3743.81,-34.94 3793.17,-24.52"/>
<polygon fill="#63b8ff" stroke="#63b8ff" points="3605.84,-60.5 3596.78,-65.99 3607.29,-67.35 3605.84,-60.5"/>
</a>
</g>
</g>
<!-- Node41 -->
<g id="Node000041" class="node">
<title>Node41</title>
<g id="a_Node000041"><a xlink:href="texture_8class_8c.html" target="_top" xlink:title="This file contains the implementation of texture&#45;related functionalities.">
<polygon fill="white" stroke="#666666" points="4115.5,-24.5 3939.5,-24.5 3939.5,-5.5 4115.5,-5.5 4115.5,-24.5"/>
<text text-anchor="middle" x="4027.5" y="-12.5" font-family="Helvetica,sans-Serif" font-size="10.00">src/classes/nodes/texture.class.c</text>
</a>
</g>
</g>
<!-- Node6&#45;&gt;Node41 -->
<g id="edge40_Node000006_Node000041" class="edge">
<title>Node6&#45;&gt;Node41</title>
<g id="a_edge40_Node000006_Node000041"><a xlink:title=" ">
<path fill="none" stroke="#63b8ff" d="M3620.28,-67.4C3694.77,-59 3821.68,-44.32 3930.5,-30 3943.32,-28.31 3957.08,-26.39 3970.09,-24.53"/>
<polygon fill="#63b8ff" stroke="#63b8ff" points="3619.67,-63.95 3610.13,-68.54 3620.45,-70.9 3619.67,-63.95"/>
</a>
</g>
</g>
<!-- Node42 -->
<g id="Node000042" class="node">
<title>Node42</title>
<g id="a_Node000042"><a xlink:href="textured__mesh_8class_8c.html" target="_top" xlink:title="This file contains the implementation of the TexturedMesh class.">
<polygon fill="white" stroke="#666666" points="4279.5,-30 4133.5,-30 4133.5,0 4279.5,0 4279.5,-30"/>
<text text-anchor="start" x="4141.5" y="-18" font-family="Helvetica,sans-Serif" font-size="10.00">src/classes/nodes/textured</text>
<text text-anchor="middle" x="4206.5" y="-7" font-family="Helvetica,sans-Serif" font-size="10.00">_mesh.class.c</text>
</a>
</g>
</g>
<!-- Node6&#45;&gt;Node42 -->
<g id="edge41_Node000006_Node000042" class="edge">
<title>Node6&#45;&gt;Node42</title>
<g id="a_edge41_Node000006_Node000042"><a xlink:title=" ">
<path fill="none" stroke="#63b8ff" d="M3620.46,-71.39C3725.81,-65.84 3942.35,-52.64 4124.5,-30 4127.37,-29.64 4130.29,-29.26 4133.23,-28.85"/>
<polygon fill="#63b8ff" stroke="#63b8ff" points="3620.11,-67.9 3610.31,-71.92 3620.48,-74.89 3620.11,-67.9"/>
</a>
</g>
</g>
<!-- Node43 -->
<g id="Node000043" class="node">
<title>Node43</title>
<g id="a_Node000043"><a xlink:href="input_8c.html" target="_top" xlink:title=" ">
<polygon fill="white" stroke="#666666" points="4377,-24.5 4298,-24.5 4298,-5.5 4377,-5.5 4377,-24.5"/>
<text text-anchor="middle" x="4337.5" y="-12.5" font-family="Helvetica,sans-Serif" font-size="10.00">src/io/input.c</text>
</a>
</g>
</g>
<!-- Node6&#45;&gt;Node43 -->
<g id="edge42_Node000006_Node000043" class="edge">
<title>Node6&#45;&gt;Node43</title>
<g id="a_edge42_Node000006_Node000043"><a xlink:title=" ">
<path fill="none" stroke="#63b8ff" d="M3620.23,-75.26C3747.99,-75.77 4044.13,-71.82 4288.5,-30 4296.09,-28.7 4304.18,-26.67 4311.55,-24.55"/>
<polygon fill="#63b8ff" stroke="#63b8ff" points="3620.24,-71.76 3610.23,-75.21 3620.21,-78.76 3620.24,-71.76"/>
</a>
</g>
</g>
<!-- Node44 -->
<g id="Node000044" class="node">
<title>Node44</title>
<g id="a_Node000044"><a xlink:href="node__loader_8c.html" target="_top" xlink:title=" ">
<polygon fill="white" stroke="#666666" points="4508,-24.5 4395,-24.5 4395,-5.5 4508,-5.5 4508,-24.5"/>
<text text-anchor="middle" x="4451.5" y="-12.5" font-family="Helvetica,sans-Serif" font-size="10.00">src/io/node_loader.c</text>
</a>
</g>
</g>
<!-- Node6&#45;&gt;Node44 -->
<g id="edge43_Node000006_Node000044" class="edge">
<title>Node6&#45;&gt;Node44</title>
<g id="a_edge43_Node000006_Node000044"><a xlink:title=" ">
<path fill="none" stroke="#63b8ff" d="M3620.19,-74.44C3759.56,-73.59 4101.82,-67.47 4385.5,-30 4395.6,-28.67 4406.46,-26.62 4416.4,-24.5"/>
<polygon fill="#63b8ff" stroke="#63b8ff" points="3620.09,-70.94 3610.11,-74.5 3620.13,-77.94 3620.09,-70.94"/>
</a>
</g>
</g>
<!-- Node45 -->
<g id="Node000045" class="node">
<title>Node45</title>
<g id="a_Node000045"><a xlink:href="scene__loader_8c.html" target="_top" xlink:title=" ">
<polygon fill="white" stroke="#666666" points="4644.5,-24.5 4526.5,-24.5 4526.5,-5.5 4644.5,-5.5 4644.5,-24.5"/>
<text text-anchor="middle" x="4585.5" y="-12.5" font-family="Helvetica,sans-Serif" font-size="10.00">src/io/scene_loader.c</text>
</a>
</g>
</g>
<!-- Node6&#45;&gt;Node45 -->
<g id="edge44_Node000006_Node000045" class="edge">
<title>Node6&#45;&gt;Node45</title>
<g id="a_edge44_Node000006_Node000045"><a xlink:title=" ">
<path fill="none" stroke="#63b8ff" d="M3620.33,-74.92C3774.81,-75.21 4180.84,-71.58 4516.5,-30 4527.05,-28.69 4538.4,-26.66 4548.79,-24.54"/>
<polygon fill="#63b8ff" stroke="#63b8ff" points="3620.09,-71.42 3610.08,-74.9 3620.07,-78.42 3620.09,-71.42"/>
</a>
</g>
</g>
<!-- Node46 -->
<g id="Node000046" class="node">
<title>Node46</title>
<g id="a_Node000046"><a xlink:href="collision_8c.html" target="_top" xlink:title=" ">
<polygon fill="white" stroke="#666666" points="4784.5,-24.5 4662.5,-24.5 4662.5,-5.5 4784.5,-5.5 4784.5,-24.5"/>
<text text-anchor="middle" x="4723.5" y="-12.5" font-family="Helvetica,sans-Serif" font-size="10.00">src/physics/collision.c</text>
</a>
</g>
</g>
<!-- Node6&#45;&gt;Node46 -->
<g id="edge46_Node000006_Node000046" class="edge">
<title>Node6&#45;&gt;Node46</title>
<g id="a_edge46_Node000006_Node000046"><a xlink:title=" ">
<path fill="none" stroke="#63b8ff" d="M3620.35,-73.23C3823.2,-68.97 4451.43,-54.15 4653.5,-30 4664.33,-28.71 4675.98,-26.65 4686.62,-24.5"/>
<polygon fill="#63b8ff" stroke="#63b8ff" points="3620.09,-69.73 3610.16,-73.44 3620.23,-76.73 3620.09,-69.73"/>
</a>
</g>
</g>
<!-- Node47 -->
<g id="Node000047" class="node">
<title>Node47</title>
<g id="a_Node000047"><a xlink:href="collision__util_8c.html" target="_top" xlink:title=" ">
<polygon fill="white" stroke="#666666" points="4916.5,-30 4802.5,-30 4802.5,0 4916.5,0 4916.5,-30"/>
<text text-anchor="start" x="4810.5" y="-18" font-family="Helvetica,sans-Serif" font-size="10.00">src/physics/collision</text>
<text text-anchor="middle" x="4859.5" y="-7" font-family="Helvetica,sans-Serif" font-size="10.00">_util.c</text>
</a>
</g>
</g>
<!-- Node6&#45;&gt;Node47 -->
<g id="edge47_Node000006_Node000047" class="edge">
<title>Node6&#45;&gt;Node47</title>
<g id="a_edge47_Node000006_Node000047"><a xlink:title=" ">
<path fill="none" stroke="#63b8ff" d="M3620.2,-73.67C3839.58,-70.56 4562.95,-58.38 4793.5,-30 4796.41,-29.64 4799.37,-29.22 4802.36,-28.75"/>
<polygon fill="#63b8ff" stroke="#63b8ff" points="3620.09,-70.17 3610.14,-73.81 3620.19,-77.17 3620.09,-70.17"/>
</a>
</g>
</g>
<!-- Node48 -->
<g id="Node000048" class="node">
<title>Node48</title>
<g id="a_Node000048"><a xlink:href="physics_8c.html" target="_top" xlink:title=" ">
<polygon fill="white" stroke="#666666" points="5054,-24.5 4935,-24.5 4935,-5.5 5054,-5.5 5054,-24.5"/>
<text text-anchor="middle" x="4994.5" y="-12.5" font-family="Helvetica,sans-Serif" font-size="10.00">src/physics/physics.c</text>
</a>
</g>
</g>
<!-- Node6&#45;&gt;Node48 -->
<g id="edge48_Node000006_Node000048" class="edge">
<title>Node6&#45;&gt;Node48</title>
<g id="a_edge48_Node000006_Node000048"><a xlink:title=" ">
<path fill="none" stroke="#63b8ff" d="M3620.2,-73.85C3854.43,-71.23 4667.75,-60.12 4925.5,-30 4936.18,-28.75 4947.68,-26.71 4958.16,-24.56"/>
<polygon fill="#63b8ff" stroke="#63b8ff" points="3620.1,-70.35 3610.14,-73.96 3620.17,-77.35 3620.1,-70.35"/>
</a>
</g>
</g>
<!-- Node49 -->
<g id="Node000049" class="node">
<title>Node49</title>
<g id="a_Node000049"><a xlink:href="camera_8c.html" target="_top" xlink:title=" ">
<polygon fill="white" stroke="#666666" points="5185,-24.5 5072,-24.5 5072,-5.5 5185,-5.5 5185,-24.5"/>
<text text-anchor="middle" x="5128.5" y="-12.5" font-family="Helvetica,sans-Serif" font-size="10.00">src/render/camera.c</text>
</a>
</g>
</g>
<!-- Node6&#45;&gt;Node49 -->
<g id="edge50_Node000006_Node000049" class="edge">
<title>Node6&#45;&gt;Node49</title>
<g id="a_edge50_Node000006_Node000049"><a xlink:title=" ">
<path fill="none" stroke="#63b8ff" d="M3620.64,-74.14C3870.22,-72.49 4776.86,-64.23 5062.5,-30 5072.85,-28.76 5083.98,-26.69 5094.1,-24.52"/>
<polygon fill="#63b8ff" stroke="#63b8ff" points="3620.27,-70.64 3610.29,-74.2 3620.32,-77.64 3620.27,-70.64"/>
</a>
</g>
</g>
<!-- Node6&#45;&gt;Node53 -->
<g id="edge52_Node000006_Node000053" class="edge">
<title>Node6&#45;&gt;Node53</title>
<g id="a_edge52_Node000006_Node000053"><a xlink:title=" ">
<path fill="none" stroke="#63b8ff" d="M3620.3,-74.13C4088.1,-71.33 6975.15,-53.21 7157.5,-30 7166.6,-28.84 7176.34,-26.77 7185.16,-24.56"/>
<polygon fill="#63b8ff" stroke="#63b8ff" points="3620.01,-70.63 3610.03,-74.19 3620.05,-77.63 3620.01,-70.63"/>
</a>
</g>
</g>
</g>
</svg>
