<?xml version="1.0" encoding="UTF-8" standalone="no"?>
<!DOCTYPE svg PUBLIC "-//W3C//DTD SVG 1.1//EN"
 "http://www.w3.org/Graphics/SVG/1.1/DTD/svg11.dtd">
<!-- Generated by graphviz version 2.43.0 (0)
 -->
<!-- Title: src/classes/nodes/frames/slider.class.c Pages: 1 -->
<svg width="2297pt" height="434pt"
 viewBox="0.00 0.00 2296.50 434.00" xmlns="http://www.w3.org/2000/svg" xmlns:xlink="http://www.w3.org/1999/xlink">
<g id="graph0" class="graph" transform="scale(1 1) rotate(0) translate(4 430)">
<title>src/classes/nodes/frames/slider.class.c</title>
<!-- Node1 -->
<g id="Node000001" class="node">
<title>Node1</title>
<g id="a_Node000001"><a xlink:title=" ">
<polygon fill="#999999" stroke="#666666" points="1917,-426 1777,-426 1777,-396 1917,-396 1917,-426"/>
<text text-anchor="start" x="1785" y="-414" font-family="Helvetica,sans-Serif" font-size="10.00">src/classes/nodes/frames</text>
<text text-anchor="middle" x="1847" y="-403" font-family="Helvetica,sans-Serif" font-size="10.00">/slider.class.c</text>
</a>
</g>
</g>
<!-- Node2 -->
<g id="Node000002" class="node">
<title>Node2</title>
<g id="a_Node000002"><a xlink:href="raptiquax_8h.html" target="_top" xlink:title="This file contains type definitions for fixed&#45;width integer types and floating&#45;point types.">
<polygon fill="white" stroke="#666666" points="969,-250 897,-250 897,-231 969,-231 969,-250"/>
<text text-anchor="middle" x="933" y="-238" font-family="Helvetica,sans-Serif" font-size="10.00">raptiquax.h</text>
</a>
</g>
</g>
<!-- Node1&#45;&gt;Node2 -->
<g id="edge1_Node000001_Node000002" class="edge">
<title>Node1&#45;&gt;Node2</title>
<g id="a_edge1_Node000001_Node000002"><a xlink:title=" ">
<path fill="none" stroke="#63b8ff" d="M1776.71,-409.79C1687.51,-407.81 1529.78,-398.48 1401,-360 1331.3,-339.17 1324.43,-307.72 1255,-286 1159.85,-256.23 1042.68,-246.36 979.19,-243.1"/>
<polygon fill="#63b8ff" stroke="#63b8ff" points="979.26,-239.59 969.1,-242.61 978.92,-246.59 979.26,-239.59"/>
</a>
</g>
</g>
<!-- Node24 -->
<g id="Node000024" class="node">
<title>Node24</title>
<g id="a_Node000024"><a xlink:href="classes_8h.html" target="_top" xlink:title=" ">
<polygon fill="white" stroke="#666666" points="1201.5,-360 1100.5,-360 1100.5,-341 1201.5,-341 1201.5,-360"/>
<text text-anchor="middle" x="1151" y="-348" font-family="Helvetica,sans-Serif" font-size="10.00">classes/classes.h</text>
</a>
</g>
</g>
<!-- Node1&#45;&gt;Node24 -->
<g id="edge23_Node000001_Node000024" class="edge">
<title>Node1&#45;&gt;Node24</title>
<g id="a_edge23_Node000001_Node000024"><a xlink:title=" ">
<path fill="none" stroke="#63b8ff" d="M1776.76,-404.1C1640.15,-392.61 1340.82,-367.45 1211.97,-356.62"/>
<polygon fill="#63b8ff" stroke="#63b8ff" points="1212.14,-353.13 1201.89,-355.78 1211.56,-360.1 1212.14,-353.13"/>
</a>
</g>
</g>
<!-- Node27 -->
<g id="Node000027" class="node">
<title>Node27</title>
<g id="a_Node000027"><a xlink:href="math__util_8h.html" target="_top" xlink:title=" ">
<polygon fill="white" stroke="#666666" points="1590.5,-250 1489.5,-250 1489.5,-231 1590.5,-231 1590.5,-250"/>
<text text-anchor="middle" x="1540" y="-238" font-family="Helvetica,sans-Serif" font-size="10.00">math/math_util.h</text>
</a>
</g>
</g>
<!-- Node1&#45;&gt;Node27 -->
<g id="edge27_Node000001_Node000027" class="edge">
<title>Node1&#45;&gt;Node27</title>
<g id="a_edge27_Node000001_Node000027"><a xlink:title=" ">
<path fill="none" stroke="#63b8ff" d="M1776.87,-404.36C1660.79,-393.41 1436.72,-364.9 1389,-305 1383.74,-298.4 1383.94,-292.76 1389,-286 1400.15,-271.1 1442.17,-259.45 1479.06,-251.82"/>
<polygon fill="#63b8ff" stroke="#63b8ff" points="1480.18,-255.17 1489.3,-249.78 1478.81,-248.3 1480.18,-255.17"/>
</a>
</g>
</g>
<!-- Node28 -->
<g id="Node000028" class="node">
<title>Node28</title>
<g id="a_Node000028"><a xlink:href="model_8h.html" target="_top" xlink:title="Defines structures and functions for handling 3D models and their properties.">
<polygon fill="white" stroke="#666666" points="1471,-250 1403,-250 1403,-231 1471,-231 1471,-250"/>
<text text-anchor="middle" x="1437" y="-238" font-family="Helvetica,sans-Serif" font-size="10.00">io/model.h</text>
</a>
</g>
</g>
<!-- Node1&#45;&gt;Node28 -->
<g id="edge28_Node000001_Node000028" class="edge">
<title>Node1&#45;&gt;Node28</title>
<g id="a_edge28_Node000001_Node000028"><a xlink:title=" ">
<path fill="none" stroke="#63b8ff" d="M1776.65,-406.32C1677.15,-400.27 1500.96,-386.19 1443,-360 1403.9,-342.33 1362.35,-324.64 1381,-286 1387.22,-273.12 1399.18,-262.82 1410.46,-255.38"/>
<polygon fill="#63b8ff" stroke="#63b8ff" points="1412.51,-258.23 1419.23,-250.04 1408.87,-252.25 1412.51,-258.23"/>
</a>
</g>
</g>
<!-- Node29 -->
<g id="Node000029" class="node">
<title>Node29</title>
<g id="a_Node000029"><a xlink:href="shader_8h.html" target="_top" xlink:title=" ">
<polygon fill="white" stroke="#666666" points="1693,-189.5 1635,-189.5 1635,-170.5 1693,-170.5 1693,-189.5"/>
<text text-anchor="middle" x="1664" y="-177.5" font-family="Helvetica,sans-Serif" font-size="10.00">shader.h</text>
</a>
</g>
</g>
<!-- Node1&#45;&gt;Node29 -->
<g id="edge48_Node000001_Node000029" class="edge">
<title>Node1&#45;&gt;Node29</title>
<g id="a_edge48_Node000001_Node000029"><a xlink:title=" ">
<path fill="none" stroke="#63b8ff" d="M1875.5,-395.89C1912.71,-375.28 1971.28,-334.14 1955,-286 1945.15,-256.86 1939.08,-247.3 1913,-231 1847.58,-190.13 1755.29,-181.77 1703.4,-180.57"/>
<polygon fill="#63b8ff" stroke="#63b8ff" points="1703.33,-177.07 1693.28,-180.42 1703.22,-184.07 1703.33,-177.07"/>
</a>
</g>
</g>
<!-- Node34 -->
<g id="Node000034" class="node">
<title>Node34</title>
<g id="a_Node000034"><a xlink:href="node_8h.html" target="_top" xlink:title=" ">
<polygon fill="white" stroke="#666666" points="1740.5,-360 1651.5,-360 1651.5,-341 1740.5,-341 1740.5,-360"/>
<text text-anchor="middle" x="1696" y="-348" font-family="Helvetica,sans-Serif" font-size="10.00">storage/node.h</text>
</a>
</g>
</g>
<!-- Node1&#45;&gt;Node34 -->
<g id="edge34_Node000001_Node000034" class="edge">
<title>Node1&#45;&gt;Node34</title>
<g id="a_edge34_Node000001_Node000034"><a xlink:title=" ">
<path fill="none" stroke="#63b8ff" d="M1810.83,-395.99C1785.53,-386.18 1752.04,-373.21 1727.76,-363.81"/>
<polygon fill="#63b8ff" stroke="#63b8ff" points="1728.89,-360.49 1718.3,-360.14 1726.36,-367.02 1728.89,-360.49"/>
</a>
</g>
</g>
<!-- Node38 -->
<g id="Node000038" class="node">
<title>Node38</title>
<g id="a_Node000038"><a xlink:href="input_8h.html" target="_top" xlink:title=" ">
<polygon fill="white" stroke="#666666" points="1903.5,-250 1832.5,-250 1832.5,-231 1903.5,-231 1903.5,-250"/>
<text text-anchor="middle" x="1868" y="-238" font-family="Helvetica,sans-Serif" font-size="10.00">../io/input.h</text>
</a>
</g>
</g>
<!-- Node1&#45;&gt;Node38 -->
<g id="edge52_Node000001_Node000038" class="edge">
<title>Node1&#45;&gt;Node38</title>
<g id="a_edge52_Node000001_Node000038"><a xlink:title=" ">
<path fill="none" stroke="#63b8ff" d="M1866.07,-395.84C1888.7,-377.7 1925.24,-343.94 1940,-305 1942.99,-297.1 1944.11,-293.38 1940,-286 1931.96,-271.58 1917.1,-261.24 1902.96,-254.18"/>
<polygon fill="#63b8ff" stroke="#63b8ff" points="1904.4,-250.99 1893.85,-250.01 1901.49,-257.36 1904.4,-250.99"/>
</a>
</g>
</g>
<!-- Node41 -->
<g id="Node000041" class="node">
<title>Node41</title>
<g id="a_Node000041"><a xlink:href="render_8h.html" target="_top" xlink:title=" ">
<polygon fill="white" stroke="#666666" points="2116.5,-360 2025.5,-360 2025.5,-341 2116.5,-341 2116.5,-360"/>
<text text-anchor="middle" x="2071" y="-348" font-family="Helvetica,sans-Serif" font-size="10.00">render/render.h</text>
</a>
</g>
</g>
<!-- Node1&#45;&gt;Node41 -->
<g id="edge49_Node000001_Node000041" class="edge">
<title>Node1&#45;&gt;Node41</title>
<g id="a_edge49_Node000001_Node000041"><a xlink:title=" ">
<path fill="none" stroke="#63b8ff" d="M1900.65,-395.99C1939.81,-385.76 1992.18,-372.09 2028.46,-362.61"/>
<polygon fill="#63b8ff" stroke="#63b8ff" points="2029.46,-365.97 2038.25,-360.05 2027.69,-359.19 2029.46,-365.97"/>
</a>
</g>
</g>
<!-- Node42 -->
<g id="Node000042" class="node">
<title>Node42</title>
<g id="a_Node000042"><a xlink:href="window_8h.html" target="_top" xlink:title=" ">
<polygon fill="white" stroke="#666666" points="2197,-360 2135,-360 2135,-341 2197,-341 2197,-360"/>
<text text-anchor="middle" x="2166" y="-348" font-family="Helvetica,sans-Serif" font-size="10.00">window.h</text>
</a>
</g>
</g>
<!-- Node1&#45;&gt;Node42 -->
<g id="edge50_Node000001_Node000042" class="edge">
<title>Node1&#45;&gt;Node42</title>
<g id="a_edge50_Node000001_Node000042"><a xlink:title=" ">
<path fill="none" stroke="#63b8ff" d="M1917.06,-398.09C1971.13,-388.74 2048.06,-375.13 2124.31,-360.28"/>
<polygon fill="#63b8ff" stroke="#63b8ff" points="2125.43,-363.63 2134.58,-358.28 2124.09,-356.76 2125.43,-363.63"/>
</a>
</g>
</g>
<!-- Node43 -->
<g id="Node000043" class="node">
<title>Node43</title>
<g id="a_Node000043"><a xlink:href="frame_8h.html" target="_top" xlink:title="GUI Frame and related structures for SDL and OpenGL project.">
<polygon fill="white" stroke="#666666" points="2288.5,-360 2215.5,-360 2215.5,-341 2288.5,-341 2288.5,-360"/>
<text text-anchor="middle" x="2252" y="-348" font-family="Helvetica,sans-Serif" font-size="10.00">gui/frame.h</text>
</a>
</g>
</g>
<!-- Node1&#45;&gt;Node43 -->
<g id="edge51_Node000001_Node000043" class="edge">
<title>Node1&#45;&gt;Node43</title>
<g id="a_edge51_Node000001_Node000043"><a xlink:title=" ">
<path fill="none" stroke="#63b8ff" d="M1917.3,-401.15C1987.59,-392.08 2098.99,-377.14 2205.42,-360.03"/>
<polygon fill="#63b8ff" stroke="#63b8ff" points="2206.05,-363.47 2215.37,-358.42 2204.94,-356.56 2206.05,-363.47"/>
</a>
</g>
</g>
<!-- Node3 -->
<g id="Node000003" class="node">
<title>Node3</title>
<g id="a_Node000003"><a xlink:title=" ">
<polygon fill="#e0e0e0" stroke="#999999" points="1405,-189.5 1355,-189.5 1355,-170.5 1405,-170.5 1405,-189.5"/>
<text text-anchor="middle" x="1380" y="-177.5" font-family="Helvetica,sans-Serif" font-size="10.00">stdio.h</text>
</a>
</g>
</g>
<!-- Node2&#45;&gt;Node3 -->
<g id="edge2_Node000002_Node000003" class="edge">
<title>Node2&#45;&gt;Node3</title>
<g id="a_edge2_Node000002_Node000003"><a xlink:title=" ">
<path fill="none" stroke="#63b8ff" d="M969.24,-239.02C1041.85,-237.31 1209.88,-229.61 1346,-195 1348.16,-194.45 1350.37,-193.79 1352.56,-193.06"/>
<polygon fill="#63b8ff" stroke="#63b8ff" points="1353.84,-196.32 1361.97,-189.53 1351.38,-189.77 1353.84,-196.32"/>
</a>
</g>
</g>
<!-- Node4 -->
<g id="Node000004" class="node">
<title>Node4</title>
<g id="a_Node000004"><a xlink:title=" ">
<polygon fill="#e0e0e0" stroke="#999999" points="1476.5,-189.5 1423.5,-189.5 1423.5,-170.5 1476.5,-170.5 1476.5,-189.5"/>
<text text-anchor="middle" x="1450" y="-177.5" font-family="Helvetica,sans-Serif" font-size="10.00">stdint.h</text>
</a>
</g>
</g>
<!-- Node2&#45;&gt;Node4 -->
<g id="edge3_Node000002_Node000004" class="edge">
<title>Node2&#45;&gt;Node4</title>
<g id="a_edge3_Node000002_Node000004"><a xlink:title=" ">
<path fill="none" stroke="#63b8ff" d="M969.15,-239.57C1050.01,-238.97 1251.16,-233.4 1414,-195 1416.37,-194.44 1418.79,-193.76 1421.2,-193"/>
<polygon fill="#63b8ff" stroke="#63b8ff" points="1422.63,-196.21 1430.88,-189.57 1420.29,-189.61 1422.63,-196.21"/>
</a>
</g>
</g>
<!-- Node5 -->
<g id="Node000005" class="node">
<title>Node5</title>
<g id="a_Node000005"><a xlink:title=" ">
<polygon fill="#e0e0e0" stroke="#999999" points="62,-189.5 0,-189.5 0,-170.5 62,-170.5 62,-189.5"/>
<text text-anchor="middle" x="31" y="-177.5" font-family="Helvetica,sans-Serif" font-size="10.00">stdbool.h</text>
</a>
</g>
</g>
<!-- Node2&#45;&gt;Node5 -->
<g id="edge4_Node000002_Node000005" class="edge">
<title>Node2&#45;&gt;Node5</title>
<g id="a_edge4_Node000002_Node000005"><a xlink:title=" ">
<path fill="none" stroke="#63b8ff" d="M896.74,-239C754.28,-236.83 232.92,-226.83 71,-195 67.92,-194.4 64.76,-193.6 61.63,-192.7"/>
<polygon fill="#63b8ff" stroke="#63b8ff" points="62.45,-189.29 51.86,-189.56 60.31,-195.96 62.45,-189.29"/>
</a>
</g>
</g>
<!-- Node6 -->
<g id="Node000006" class="node">
<title>Node6</title>
<g id="a_Node000006"><a xlink:title=" ">
<polygon fill="#e0e0e0" stroke="#999999" points="136,-189.5 80,-189.5 80,-170.5 136,-170.5 136,-189.5"/>
<text text-anchor="middle" x="108" y="-177.5" font-family="Helvetica,sans-Serif" font-size="10.00">stdarg.h</text>
</a>
</g>
</g>
<!-- Node2&#45;&gt;Node6 -->
<g id="edge5_Node000002_Node000006" class="edge">
<title>Node2&#45;&gt;Node6</title>
<g id="a_edge5_Node000002_Node000006"><a xlink:title=" ">
<path fill="none" stroke="#63b8ff" d="M896.65,-238.92C761.95,-236.52 291.44,-226.07 145,-195 142.32,-194.43 139.58,-193.7 136.86,-192.87"/>
<polygon fill="#63b8ff" stroke="#63b8ff" points="137.85,-189.51 127.25,-189.55 135.56,-196.13 137.85,-189.51"/>
</a>
</g>
</g>
<!-- Node7 -->
<g id="Node000007" class="node">
<title>Node7</title>
<g id="a_Node000007"><a xlink:title=" ">
<polygon fill="#e0e0e0" stroke="#999999" points="207.5,-189.5 154.5,-189.5 154.5,-170.5 207.5,-170.5 207.5,-189.5"/>
<text text-anchor="middle" x="181" y="-177.5" font-family="Helvetica,sans-Serif" font-size="10.00">limits.h</text>
</a>
</g>
</g>
<!-- Node2&#45;&gt;Node7 -->
<g id="edge6_Node000002_Node000007" class="edge">
<title>Node2&#45;&gt;Node7</title>
<g id="a_edge6_Node000002_Node000007"><a xlink:title=" ">
<path fill="none" stroke="#63b8ff" d="M896.96,-238.73C770.7,-235.79 348.83,-223.99 217,-195 214.48,-194.45 211.9,-193.74 209.34,-192.94"/>
<polygon fill="#63b8ff" stroke="#63b8ff" points="210.31,-189.57 199.72,-189.54 207.98,-196.17 210.31,-189.57"/>
</a>
</g>
</g>
<!-- Node8 -->
<g id="Node000008" class="node">
<title>Node8</title>
<g id="a_Node000008"><a xlink:title=" ">
<polygon fill="#e0e0e0" stroke="#999999" points="298,-189.5 226,-189.5 226,-170.5 298,-170.5 298,-189.5"/>
<text text-anchor="middle" x="262" y="-177.5" font-family="Helvetica,sans-Serif" font-size="10.00">SDL2/SDL.h</text>
</a>
</g>
</g>
<!-- Node2&#45;&gt;Node8 -->
<g id="edge7_Node000002_Node000008" class="edge">
<title>Node2&#45;&gt;Node8</title>
<g id="a_edge7_Node000002_Node000008"><a xlink:title=" ">
<path fill="none" stroke="#63b8ff" d="M896.99,-239.83C800.48,-240.08 528.37,-236.72 307,-195 303.33,-194.31 299.53,-193.42 295.77,-192.42"/>
<polygon fill="#63b8ff" stroke="#63b8ff" points="296.61,-189.02 286.03,-189.6 294.66,-195.74 296.61,-189.02"/>
</a>
</g>
</g>
<!-- Node9 -->
<g id="Node000009" class="node">
<title>Node9</title>
<g id="a_Node000009"><a xlink:title=" ">
<polygon fill="#e0e0e0" stroke="#999999" points="424,-189.5 316,-189.5 316,-170.5 424,-170.5 424,-189.5"/>
<text text-anchor="middle" x="370" y="-177.5" font-family="Helvetica,sans-Serif" font-size="10.00">SDL2/SDL_image.h</text>
</a>
</g>
</g>
<!-- Node2&#45;&gt;Node9 -->
<g id="edge8_Node000002_Node000009" class="edge">
<title>Node2&#45;&gt;Node9</title>
<g id="a_edge8_Node000002_Node000009"><a xlink:title=" ">
<path fill="none" stroke="#63b8ff" d="M896.73,-237.89C814.05,-233.87 605.46,-221.72 433,-195 427.04,-194.08 420.8,-192.92 414.67,-191.68"/>
<polygon fill="#63b8ff" stroke="#63b8ff" points="415.02,-188.17 404.51,-189.52 413.56,-195.02 415.02,-188.17"/>
</a>
</g>
</g>
<!-- Node10 -->
<g id="Node000010" class="node">
<title>Node10</title>
<g id="a_Node000010"><a xlink:title=" ">
<polygon fill="#e0e0e0" stroke="#999999" points="552,-189.5 442,-189.5 442,-170.5 552,-170.5 552,-189.5"/>
<text text-anchor="middle" x="497" y="-177.5" font-family="Helvetica,sans-Serif" font-size="10.00">SDL2/SDL_opengl.h</text>
</a>
</g>
</g>
<!-- Node2&#45;&gt;Node10 -->
<g id="edge9_Node000002_Node000010" class="edge">
<title>Node2&#45;&gt;Node10</title>
<g id="a_edge9_Node000002_Node000010"><a xlink:title=" ">
<path fill="none" stroke="#63b8ff" d="M896.92,-236.35C830.28,-230.27 683.5,-215.68 561,-195 555.18,-194.02 549.09,-192.86 543.08,-191.63"/>
<polygon fill="#63b8ff" stroke="#63b8ff" points="543.6,-188.17 533.1,-189.53 542.16,-195.02 543.6,-188.17"/>
</a>
</g>
</g>
<!-- Node11 -->
<g id="Node000011" class="node">
<title>Node11</title>
<g id="a_Node000011"><a xlink:title=" ">
<polygon fill="#e0e0e0" stroke="#999999" points="674,-189.5 570,-189.5 570,-170.5 674,-170.5 674,-189.5"/>
<text text-anchor="middle" x="622" y="-177.5" font-family="Helvetica,sans-Serif" font-size="10.00">SDL2/SDL_mixer.h</text>
</a>
</g>
</g>
<!-- Node2&#45;&gt;Node11 -->
<g id="edge10_Node000002_Node000011" class="edge">
<title>Node2&#45;&gt;Node11</title>
<g id="a_edge10_Node000002_Node000011"><a xlink:title=" ">
<path fill="none" stroke="#63b8ff" d="M896.88,-233.65C848.17,-225.62 758.81,-210.44 683,-195 678,-193.98 672.79,-192.87 667.61,-191.73"/>
<polygon fill="#63b8ff" stroke="#63b8ff" points="668.26,-188.29 657.74,-189.51 666.73,-195.12 668.26,-188.29"/>
</a>
</g>
</g>
<!-- Node12 -->
<g id="Node000012" class="node">
<title>Node12</title>
<g id="a_Node000012"><a xlink:title=" ">
<polygon fill="#e0e0e0" stroke="#999999" points="780,-189.5 692,-189.5 692,-170.5 780,-170.5 780,-189.5"/>
<text text-anchor="middle" x="736" y="-177.5" font-family="Helvetica,sans-Serif" font-size="10.00">SDL2/SDL_ttf.h</text>
</a>
</g>
</g>
<!-- Node2&#45;&gt;Node12 -->
<g id="edge11_Node000002_Node000012" class="edge">
<title>Node2&#45;&gt;Node12</title>
<g id="a_edge11_Node000002_Node000012"><a xlink:title=" ">
<path fill="none" stroke="#63b8ff" d="M904.35,-230.99C870.07,-220.81 812.52,-203.72 774.4,-192.4"/>
<polygon fill="#63b8ff" stroke="#63b8ff" points="775.26,-189.01 764.68,-189.52 773.27,-195.72 775.26,-189.01"/>
</a>
</g>
</g>
<!-- Node13 -->
<g id="Node000013" class="node">
<title>Node13</title>
<g id="a_Node000013"><a xlink:title=" ">
<polygon fill="#e0e0e0" stroke="#999999" points="848,-189.5 798,-189.5 798,-170.5 848,-170.5 848,-189.5"/>
<text text-anchor="middle" x="823" y="-177.5" font-family="Helvetica,sans-Serif" font-size="10.00">GL/gl.h</text>
</a>
</g>
</g>
<!-- Node2&#45;&gt;Node13 -->
<g id="edge12_Node000002_Node000013" class="edge">
<title>Node2&#45;&gt;Node13</title>
<g id="a_edge12_Node000002_Node000013"><a xlink:title=" ">
<path fill="none" stroke="#63b8ff" d="M916.77,-230.87C898.73,-221.28 869.38,-205.67 848.32,-194.47"/>
<polygon fill="#63b8ff" stroke="#63b8ff" points="849.77,-191.27 839.3,-189.67 846.48,-197.45 849.77,-191.27"/>
</a>
</g>
</g>
<!-- Node14 -->
<g id="Node000014" class="node">
<title>Node14</title>
<g id="a_Node000014"><a xlink:title=" ">
<polygon fill="#e0e0e0" stroke="#999999" points="922,-189.5 866,-189.5 866,-170.5 922,-170.5 922,-189.5"/>
<text text-anchor="middle" x="894" y="-177.5" font-family="Helvetica,sans-Serif" font-size="10.00">GL/glu.h</text>
</a>
</g>
</g>
<!-- Node2&#45;&gt;Node14 -->
<g id="edge13_Node000002_Node000014" class="edge">
<title>Node2&#45;&gt;Node14</title>
<g id="a_edge13_Node000002_Node000014"><a xlink:title=" ">
<path fill="none" stroke="#63b8ff" d="M927.25,-230.87C921.54,-222.31 912.65,-208.97 905.49,-198.24"/>
<polygon fill="#63b8ff" stroke="#63b8ff" points="908.24,-196.05 899.78,-189.67 902.41,-199.93 908.24,-196.05"/>
</a>
</g>
</g>
<!-- Node15 -->
<g id="Node000015" class="node">
<title>Node15</title>
<g id="a_Node000015"><a xlink:title=" ">
<polygon fill="#e0e0e0" stroke="#999999" points="1006,-189.5 940,-189.5 940,-170.5 1006,-170.5 1006,-189.5"/>
<text text-anchor="middle" x="973" y="-177.5" font-family="Helvetica,sans-Serif" font-size="10.00">GL/glext.h</text>
</a>
</g>
</g>
<!-- Node2&#45;&gt;Node15 -->
<g id="edge14_Node000002_Node000015" class="edge">
<title>Node2&#45;&gt;Node15</title>
<g id="a_edge14_Node000002_Node000015"><a xlink:title=" ">
<path fill="none" stroke="#63b8ff" d="M938.9,-230.87C944.75,-222.31 953.87,-208.97 961.21,-198.24"/>
<polygon fill="#63b8ff" stroke="#63b8ff" points="964.32,-199.9 967.07,-189.67 958.54,-195.95 964.32,-199.9"/>
</a>
</g>
</g>
<!-- Node16 -->
<g id="Node000016" class="node">
<title>Node16</title>
<g id="a_Node000016"><a xlink:title=" ">
<polygon fill="#e0e0e0" stroke="#999999" points="1101.5,-189.5 1024.5,-189.5 1024.5,-170.5 1101.5,-170.5 1101.5,-189.5"/>
<text text-anchor="middle" x="1063" y="-177.5" font-family="Helvetica,sans-Serif" font-size="10.00">cglm/cglm.h</text>
</a>
</g>
</g>
<!-- Node2&#45;&gt;Node16 -->
<g id="edge15_Node000002_Node000016" class="edge">
<title>Node2&#45;&gt;Node16</title>
<g id="a_edge15_Node000002_Node000016"><a xlink:title=" ">
<path fill="none" stroke="#63b8ff" d="M951.9,-230.99C973.66,-221.2 1009.62,-205.02 1034.71,-193.73"/>
<polygon fill="#63b8ff" stroke="#63b8ff" points="1036.39,-196.81 1044.07,-189.52 1033.52,-190.43 1036.39,-196.81"/>
</a>
</g>
</g>
<!-- Node17 -->
<g id="Node000017" class="node">
<title>Node17</title>
<g id="a_Node000017"><a xlink:title=" ">
<polygon fill="#e0e0e0" stroke="#999999" points="1170.5,-189.5 1119.5,-189.5 1119.5,-170.5 1170.5,-170.5 1170.5,-189.5"/>
<text text-anchor="middle" x="1145" y="-177.5" font-family="Helvetica,sans-Serif" font-size="10.00">math.h</text>
</a>
</g>
</g>
<!-- Node2&#45;&gt;Node17 -->
<g id="edge16_Node000002_Node000017" class="edge">
<title>Node2&#45;&gt;Node17</title>
<g id="a_edge16_Node000002_Node000017"><a xlink:title=" ">
<path fill="none" stroke="#63b8ff" d="M969.34,-231.86C1005.4,-223.94 1062.07,-210.53 1110,-195 1111.67,-194.46 1113.37,-193.88 1115.09,-193.27"/>
<polygon fill="#63b8ff" stroke="#63b8ff" points="1116.68,-196.41 1124.81,-189.61 1114.22,-189.86 1116.68,-196.41"/>
</a>
</g>
</g>
<!-- Node18 -->
<g id="Node000018" class="node">
<title>Node18</title>
<g id="a_Node000018"><a xlink:href="stringio_8h.html" target="_top" xlink:title="Provides utility functions for string and file operations.">
<polygon fill="white" stroke="#666666" points="1263,-189.5 1189,-189.5 1189,-170.5 1263,-170.5 1263,-189.5"/>
<text text-anchor="middle" x="1226" y="-177.5" font-family="Helvetica,sans-Serif" font-size="10.00">io/stringio.h</text>
</a>
</g>
</g>
<!-- Node2&#45;&gt;Node18 -->
<g id="edge17_Node000002_Node000018" class="edge">
<title>Node2&#45;&gt;Node18</title>
<g id="a_edge17_Node000002_Node000018"><a xlink:title=" ">
<path fill="none" stroke="#63b8ff" d="M969.11,-234.25C1017.29,-226.95 1105.12,-212.63 1179,-195 1182.42,-194.18 1185.95,-193.27 1189.48,-192.31"/>
<polygon fill="#63b8ff" stroke="#63b8ff" points="1190.64,-195.62 1199.3,-189.51 1188.72,-188.88 1190.64,-195.62"/>
</a>
</g>
</g>
<!-- Node20 -->
<g id="Node000020" class="node">
<title>Node20</title>
<g id="a_Node000020"><a xlink:href="config_8h.html" target="_top" xlink:title=" ">
<polygon fill="white" stroke="#666666" points="1336.5,-189.5 1281.5,-189.5 1281.5,-170.5 1336.5,-170.5 1336.5,-189.5"/>
<text text-anchor="middle" x="1309" y="-177.5" font-family="Helvetica,sans-Serif" font-size="10.00">config.h</text>
</a>
</g>
</g>
<!-- Node2&#45;&gt;Node20 -->
<g id="edge19_Node000002_Node000020" class="edge">
<title>Node2&#45;&gt;Node20</title>
<g id="a_edge19_Node000002_Node000020"><a xlink:title=" ">
<path fill="none" stroke="#63b8ff" d="M969.14,-237.5C1031.68,-233.44 1163.77,-222.19 1272,-195 1274.45,-194.39 1276.96,-193.66 1279.46,-192.86"/>
<polygon fill="#63b8ff" stroke="#63b8ff" points="1280.63,-196.16 1288.91,-189.56 1278.32,-189.55 1280.63,-196.16"/>
</a>
</g>
</g>
<!-- Node19 -->
<g id="Node000019" class="node">
<title>Node19</title>
<g id="a_Node000019"><a xlink:title=" ">
<polygon fill="#e0e0e0" stroke="#999999" points="1252.5,-129 1199.5,-129 1199.5,-110 1252.5,-110 1252.5,-129"/>
<text text-anchor="middle" x="1226" y="-117" font-family="Helvetica,sans-Serif" font-size="10.00">string.h</text>
</a>
</g>
</g>
<!-- Node18&#45;&gt;Node19 -->
<g id="edge18_Node000018_Node000019" class="edge">
<title>Node18&#45;&gt;Node19</title>
<g id="a_edge18_Node000018_Node000019"><a xlink:title=" ">
<path fill="none" stroke="#63b8ff" d="M1226,-170.37C1226,-162.25 1226,-149.81 1226,-139.39"/>
<polygon fill="#63b8ff" stroke="#63b8ff" points="1229.5,-139.17 1226,-129.17 1222.5,-139.17 1229.5,-139.17"/>
</a>
</g>
</g>
<!-- Node21 -->
<g id="Node000021" class="node">
<title>Node21</title>
<g id="a_Node000021"><a xlink:href="term_8h.html" target="_top" xlink:title=" ">
<polygon fill="white" stroke="#666666" points="1346.5,-129 1271.5,-129 1271.5,-110 1346.5,-110 1346.5,-129"/>
<text text-anchor="middle" x="1309" y="-117" font-family="Helvetica,sans-Serif" font-size="10.00">term/term.h</text>
</a>
</g>
</g>
<!-- Node20&#45;&gt;Node21 -->
<g id="edge20_Node000020_Node000021" class="edge">
<title>Node20&#45;&gt;Node21</title>
<g id="a_edge20_Node000020_Node000021"><a xlink:title=" ">
<path fill="none" stroke="#63b8ff" d="M1309,-170.37C1309,-162.25 1309,-149.81 1309,-139.39"/>
<polygon fill="#63b8ff" stroke="#63b8ff" points="1312.5,-139.17 1309,-129.17 1305.5,-139.17 1312.5,-139.17"/>
</a>
</g>
</g>
<!-- Node22 -->
<g id="Node000022" class="node">
<title>Node22</title>
<g id="a_Node000022"><a xlink:href="enhanced__print_8h.html" target="_top" xlink:title=" ">
<polygon fill="white" stroke="#666666" points="1359.5,-74 1258.5,-74 1258.5,-55 1359.5,-55 1359.5,-74"/>
<text text-anchor="middle" x="1309" y="-62" font-family="Helvetica,sans-Serif" font-size="10.00">enhanced_print.h</text>
</a>
</g>
</g>
<!-- Node21&#45;&gt;Node22 -->
<g id="edge21_Node000021_Node000022" class="edge">
<title>Node21&#45;&gt;Node22</title>
<g id="a_edge21_Node000021_Node000022"><a xlink:title=" ">
<path fill="none" stroke="#63b8ff" d="M1309,-109.75C1309,-102.8 1309,-92.85 1309,-84.13"/>
<polygon fill="#63b8ff" stroke="#63b8ff" points="1312.5,-84.09 1309,-74.09 1305.5,-84.09 1312.5,-84.09"/>
</a>
</g>
</g>
<!-- Node23 -->
<g id="Node000023" class="node">
<title>Node23</title>
<g id="a_Node000023"><a xlink:href="color_8h.html" target="_top" xlink:title=" ">
<polygon fill="white" stroke="#666666" points="1333.5,-19 1284.5,-19 1284.5,0 1333.5,0 1333.5,-19"/>
<text text-anchor="middle" x="1309" y="-7" font-family="Helvetica,sans-Serif" font-size="10.00">color.h</text>
</a>
</g>
</g>
<!-- Node22&#45;&gt;Node23 -->
<g id="edge22_Node000022_Node000023" class="edge">
<title>Node22&#45;&gt;Node23</title>
<g id="a_edge22_Node000022_Node000023"><a xlink:title=" ">
<path fill="none" stroke="#63b8ff" d="M1309,-54.75C1309,-47.8 1309,-37.85 1309,-29.13"/>
<polygon fill="#63b8ff" stroke="#63b8ff" points="1312.5,-29.09 1309,-19.09 1305.5,-29.09 1312.5,-29.09"/>
</a>
</g>
</g>
<!-- Node24&#45;&gt;Node2 -->
<g id="edge26_Node000024_Node000002" class="edge">
<title>Node24&#45;&gt;Node2</title>
<g id="a_edge26_Node000024_Node000002"><a xlink:title=" ">
<path fill="none" stroke="#63b8ff" d="M1120.3,-340.99C1094.42,-333.25 1056.8,-320.67 1026,-305 998.6,-291.06 969.76,-270.28 951.6,-256.33"/>
<polygon fill="#63b8ff" stroke="#63b8ff" points="953.63,-253.48 943.59,-250.09 949.33,-259 953.63,-253.48"/>
</a>
</g>
</g>
<!-- Node25 -->
<g id="Node000025" class="node">
<title>Node25</title>
<g id="a_Node000025"><a xlink:href="classes__types_8h.html" target="_top" xlink:title=" ">
<polygon fill="white" stroke="#666666" points="1129,-305 1035,-305 1035,-286 1129,-286 1129,-305"/>
<text text-anchor="middle" x="1082" y="-293" font-family="Helvetica,sans-Serif" font-size="10.00">classes_types.h</text>
</a>
</g>
</g>
<!-- Node24&#45;&gt;Node25 -->
<g id="edge24_Node000024_Node000025" class="edge">
<title>Node24&#45;&gt;Node25</title>
<g id="a_edge24_Node000024_Node000025"><a xlink:title=" ">
<path fill="none" stroke="#63b8ff" d="M1139.91,-340.98C1129.51,-333 1113.74,-320.88 1101.28,-311.31"/>
<polygon fill="#63b8ff" stroke="#63b8ff" points="1103.35,-308.49 1093.29,-305.17 1099.09,-314.04 1103.35,-308.49"/>
</a>
</g>
</g>
<!-- Node26 -->
<g id="Node000026" class="node">
<title>Node26</title>
<g id="a_Node000026"><a xlink:title=" ">
<polygon fill="#e0e0e0" stroke="#999999" points="1246.5,-305 1147.5,-305 1147.5,-286 1246.5,-286 1246.5,-305"/>
<text text-anchor="middle" x="1197" y="-293" font-family="Helvetica,sans-Serif" font-size="10.00">import_classes.h</text>
</a>
</g>
</g>
<!-- Node24&#45;&gt;Node26 -->
<g id="edge25_Node000024_Node000026" class="edge">
<title>Node24&#45;&gt;Node26</title>
<g id="a_edge25_Node000024_Node000026"><a xlink:title=" ">
<path fill="none" stroke="#63b8ff" d="M1158.6,-340.75C1165.16,-333.18 1174.82,-322.05 1182.81,-312.84"/>
<polygon fill="#63b8ff" stroke="#63b8ff" points="1185.63,-314.94 1189.55,-305.09 1180.35,-310.35 1185.63,-314.94"/>
</a>
</g>
</g>
<!-- Node28&#45;&gt;Node29 -->
<g id="edge29_Node000028_Node000029" class="edge">
<title>Node28&#45;&gt;Node29</title>
<g id="a_edge29_Node000028_Node000029"><a xlink:title=" ">
<path fill="none" stroke="#63b8ff" d="M1471.13,-232.77C1509.23,-224.96 1572.57,-211.07 1626,-195 1628.13,-194.36 1630.32,-193.66 1632.52,-192.93"/>
<polygon fill="#63b8ff" stroke="#63b8ff" points="1633.76,-196.2 1642.05,-189.6 1631.46,-189.6 1633.76,-196.2"/>
</a>
</g>
</g>
<!-- Node30 -->
<g id="Node000030" class="node">
<title>Node30</title>
<g id="a_Node000030"><a xlink:href="model__loader_8h.html" target="_top" xlink:title=" ">
<polygon fill="white" stroke="#666666" points="1617,-195 1495,-195 1495,-165 1617,-165 1617,-195"/>
<text text-anchor="start" x="1503" y="-183" font-family="Helvetica,sans-Serif" font-size="10.00">model_loaders/model</text>
<text text-anchor="middle" x="1556" y="-172" font-family="Helvetica,sans-Serif" font-size="10.00">_loader.h</text>
</a>
</g>
</g>
<!-- Node28&#45;&gt;Node30 -->
<g id="edge30_Node000028_Node000030" class="edge">
<title>Node28&#45;&gt;Node30</title>
<g id="a_edge30_Node000028_Node000030"><a xlink:title=" ">
<path fill="none" stroke="#63b8ff" d="M1454.3,-230.99C1470.92,-222.82 1496.6,-210.2 1517.99,-199.69"/>
<polygon fill="#63b8ff" stroke="#63b8ff" points="1519.73,-202.73 1527.16,-195.18 1516.64,-196.45 1519.73,-202.73"/>
</a>
</g>
</g>
<!-- Node31 -->
<g id="Node000031" class="node">
<title>Node31</title>
<g id="a_Node000031"><a xlink:href="obj__loader_8h.html" target="_top" xlink:title=" ">
<polygon fill="white" stroke="#666666" points="1594,-129 1518,-129 1518,-110 1594,-110 1594,-129"/>
<text text-anchor="middle" x="1556" y="-117" font-family="Helvetica,sans-Serif" font-size="10.00">obj_loader.h</text>
</a>
</g>
</g>
<!-- Node30&#45;&gt;Node31 -->
<g id="edge31_Node000030_Node000031" class="edge">
<title>Node30&#45;&gt;Node31</title>
<g id="a_edge31_Node000030_Node000031"><a xlink:title=" ">
<path fill="none" stroke="#63b8ff" d="M1556,-164.84C1556,-157.21 1556,-147.7 1556,-139.45"/>
<polygon fill="#63b8ff" stroke="#63b8ff" points="1559.5,-139.27 1556,-129.27 1552.5,-139.27 1559.5,-139.27"/>
</a>
</g>
</g>
<!-- Node32 -->
<g id="Node000032" class="node">
<title>Node32</title>
<g id="a_Node000032"><a xlink:href="mtl__loader_8h.html" target="_top" xlink:title=" ">
<polygon fill="white" stroke="#666666" points="1689.5,-129 1612.5,-129 1612.5,-110 1689.5,-110 1689.5,-129"/>
<text text-anchor="middle" x="1651" y="-117" font-family="Helvetica,sans-Serif" font-size="10.00">mtl_loader.h</text>
</a>
</g>
</g>
<!-- Node30&#45;&gt;Node32 -->
<g id="edge32_Node000030_Node000032" class="edge">
<title>Node30&#45;&gt;Node32</title>
<g id="a_edge32_Node000030_Node000032"><a xlink:title=" ">
<path fill="none" stroke="#63b8ff" d="M1579,-164.84C1594,-155.6 1613.5,-143.59 1628.43,-134.4"/>
<polygon fill="#63b8ff" stroke="#63b8ff" points="1630.36,-137.32 1637.04,-129.09 1626.69,-131.36 1630.36,-137.32"/>
</a>
</g>
</g>
<!-- Node33 -->
<g id="Node000033" class="node">
<title>Node33</title>
<g id="a_Node000033"><a xlink:href="fbx__loader_8h.html" target="_top" xlink:title=" ">
<polygon fill="white" stroke="#666666" points="1499.5,-129 1422.5,-129 1422.5,-110 1499.5,-110 1499.5,-129"/>
<text text-anchor="middle" x="1461" y="-117" font-family="Helvetica,sans-Serif" font-size="10.00">fbx_loader.h</text>
</a>
</g>
</g>
<!-- Node30&#45;&gt;Node33 -->
<g id="edge33_Node000030_Node000033" class="edge">
<title>Node30&#45;&gt;Node33</title>
<g id="a_edge33_Node000030_Node000033"><a xlink:title=" ">
<path fill="none" stroke="#63b8ff" d="M1533,-164.84C1518,-155.6 1498.5,-143.59 1483.57,-134.4"/>
<polygon fill="#63b8ff" stroke="#63b8ff" points="1485.31,-131.36 1474.96,-129.09 1481.64,-137.32 1485.31,-131.36"/>
</a>
</g>
</g>
<!-- Node34&#45;&gt;Node29 -->
<g id="edge35_Node000034_Node000029" class="edge">
<title>Node34&#45;&gt;Node29</title>
<g id="a_edge35_Node000034_Node000029"><a xlink:title=" ">
<path fill="none" stroke="#63b8ff" d="M1691.14,-340.95C1686.42,-332.21 1679.48,-318.1 1676,-305 1666.32,-268.55 1664.26,-224.22 1663.93,-199.66"/>
<polygon fill="#63b8ff" stroke="#63b8ff" points="1667.43,-199.57 1663.88,-189.59 1660.43,-199.61 1667.43,-199.57"/>
</a>
</g>
</g>
<!-- Node35 -->
<g id="Node000035" class="node">
<title>Node35</title>
<g id="a_Node000035"><a xlink:href="camera_8h.html" target="_top" xlink:title=" ">
<polygon fill="white" stroke="#666666" points="1629,-305 1523,-305 1523,-286 1629,-286 1629,-305"/>
<text text-anchor="middle" x="1576" y="-293" font-family="Helvetica,sans-Serif" font-size="10.00">../render/camera.h</text>
</a>
</g>
</g>
<!-- Node34&#45;&gt;Node35 -->
<g id="edge36_Node000034_Node000035" class="edge">
<title>Node34&#45;&gt;Node35</title>
<g id="a_edge36_Node000034_Node000035"><a xlink:title=" ">
<path fill="none" stroke="#63b8ff" d="M1676.72,-340.98C1657.33,-332.42 1627.19,-319.11 1604.93,-309.28"/>
<polygon fill="#63b8ff" stroke="#63b8ff" points="1606.19,-306.01 1595.63,-305.17 1603.36,-312.41 1606.19,-306.01"/>
</a>
</g>
</g>
<!-- Node36 -->
<g id="Node000036" class="node">
<title>Node36</title>
<g id="a_Node000036"><a xlink:href="bodies_8h.html" target="_top" xlink:title=" ">
<polygon fill="white" stroke="#666666" points="1504.5,-305 1397.5,-305 1397.5,-286 1504.5,-286 1504.5,-305"/>
<text text-anchor="middle" x="1451" y="-293" font-family="Helvetica,sans-Serif" font-size="10.00">../physics/bodies.h</text>
</a>
</g>
</g>
<!-- Node34&#45;&gt;Node36 -->
<g id="edge40_Node000034_Node000036" class="edge">
<title>Node34&#45;&gt;Node36</title>
<g id="a_edge40_Node000034_Node000036"><a xlink:title=" ">
<path fill="none" stroke="#63b8ff" d="M1656.64,-340.98C1614.26,-331.82 1546.74,-317.21 1500.72,-307.26"/>
<polygon fill="#63b8ff" stroke="#63b8ff" points="1501.19,-303.78 1490.67,-305.08 1499.71,-310.62 1501.19,-303.78"/>
</a>
</g>
</g>
<!-- Node37 -->
<g id="Node000037" class="node">
<title>Node37</title>
<g id="a_Node000037"><a xlink:href="scripts_8h.html" target="_top" xlink:title=" ">
<polygon fill="white" stroke="#666666" points="1787,-305 1685,-305 1685,-286 1787,-286 1787,-305"/>
<text text-anchor="middle" x="1736" y="-293" font-family="Helvetica,sans-Serif" font-size="10.00">../scripts/scripts.h</text>
</a>
</g>
</g>
<!-- Node34&#45;&gt;Node37 -->
<g id="edge43_Node000034_Node000037" class="edge">
<title>Node34&#45;&gt;Node37</title>
<g id="a_edge43_Node000034_Node000037"><a xlink:title=" ">
<path fill="none" stroke="#63b8ff" d="M1702.61,-340.75C1708.26,-333.26 1716.54,-322.28 1723.45,-313.13"/>
<polygon fill="#63b8ff" stroke="#63b8ff" points="1726.29,-315.18 1729.52,-305.09 1720.7,-310.96 1726.29,-315.18"/>
</a>
</g>
</g>
<!-- Node40 -->
<g id="Node000040" class="node">
<title>Node40</title>
<g id="a_Node000040"><a xlink:href="framebuffer_8h.html" target="_top" xlink:title=" ">
<polygon fill="white" stroke="#666666" points="1931,-305 1805,-305 1805,-286 1931,-286 1931,-305"/>
<text text-anchor="middle" x="1868" y="-293" font-family="Helvetica,sans-Serif" font-size="10.00">../render/framebuffer.h</text>
</a>
</g>
</g>
<!-- Node34&#45;&gt;Node40 -->
<g id="edge46_Node000034_Node000040" class="edge">
<title>Node34&#45;&gt;Node40</title>
<g id="a_edge46_Node000034_Node000040"><a xlink:title=" ">
<path fill="none" stroke="#63b8ff" d="M1723.63,-340.98C1752.51,-332.09 1798.01,-318.07 1830.2,-308.15"/>
<polygon fill="#63b8ff" stroke="#63b8ff" points="1831.62,-311.37 1840.15,-305.08 1829.56,-304.68 1831.62,-311.37"/>
</a>
</g>
</g>
<!-- Node35&#45;&gt;Node2 -->
<g id="edge37_Node000035_Node000002" class="edge">
<title>Node35&#45;&gt;Node2</title>
<g id="a_edge37_Node000035_Node000002"><a xlink:title=" ">
<path fill="none" stroke="#63b8ff" d="M1522.93,-287.01C1519.91,-286.65 1516.92,-286.31 1514,-286 1315.52,-264.81 1077.85,-249.85 979.31,-244.1"/>
<polygon fill="#63b8ff" stroke="#63b8ff" points="979.29,-240.6 969.1,-243.51 978.88,-247.58 979.29,-240.6"/>
</a>
</g>
</g>
<!-- Node35&#45;&gt;Node27 -->
<g id="edge38_Node000035_Node000027" class="edge">
<title>Node35&#45;&gt;Node27</title>
<g id="a_edge38_Node000035_Node000027"><a xlink:title=" ">
<path fill="none" stroke="#63b8ff" d="M1570.06,-285.75C1565.02,-278.34 1557.66,-267.5 1551.49,-258.41"/>
<polygon fill="#63b8ff" stroke="#63b8ff" points="1554.35,-256.39 1545.83,-250.09 1548.56,-260.33 1554.35,-256.39"/>
</a>
</g>
</g>
<!-- Node35&#45;&gt;Node29 -->
<g id="edge39_Node000035_Node000029" class="edge">
<title>Node35&#45;&gt;Node29</title>
<g id="a_edge39_Node000035_Node000029"><a xlink:title=" ">
<path fill="none" stroke="#63b8ff" d="M1582.61,-285.97C1597.14,-267.24 1632.04,-222.22 1651.08,-197.66"/>
<polygon fill="#63b8ff" stroke="#63b8ff" points="1653.95,-199.68 1657.31,-189.63 1648.42,-195.39 1653.95,-199.68"/>
</a>
</g>
</g>
<!-- Node36&#45;&gt;Node27 -->
<g id="edge41_Node000036_Node000027" class="edge">
<title>Node36&#45;&gt;Node27</title>
<g id="a_edge41_Node000036_Node000027"><a xlink:title=" ">
<path fill="none" stroke="#63b8ff" d="M1465.3,-285.98C1479.1,-277.77 1500.24,-265.18 1516.51,-255.49"/>
<polygon fill="#63b8ff" stroke="#63b8ff" points="1518.64,-258.29 1525.44,-250.17 1515.06,-252.28 1518.64,-258.29"/>
</a>
</g>
</g>
<!-- Node36&#45;&gt;Node28 -->
<g id="edge42_Node000036_Node000028" class="edge">
<title>Node36&#45;&gt;Node28</title>
<g id="a_edge42_Node000036_Node000028"><a xlink:title=" ">
<path fill="none" stroke="#63b8ff" d="M1448.69,-285.75C1446.83,-278.72 1444.16,-268.62 1441.85,-259.84"/>
<polygon fill="#63b8ff" stroke="#63b8ff" points="1445.21,-258.86 1439.27,-250.09 1438.44,-260.65 1445.21,-258.86"/>
</a>
</g>
</g>
<!-- Node37&#45;&gt;Node38 -->
<g id="edge44_Node000037_Node000038" class="edge">
<title>Node37&#45;&gt;Node38</title>
<g id="a_edge44_Node000037_Node000038"><a xlink:title=" ">
<path fill="none" stroke="#63b8ff" d="M1757.21,-285.98C1778.73,-277.34 1812.28,-263.87 1836.83,-254.02"/>
<polygon fill="#63b8ff" stroke="#63b8ff" points="1838.43,-257.14 1846.41,-250.17 1835.82,-250.65 1838.43,-257.14"/>
</a>
</g>
</g>
<!-- Node39 -->
<g id="Node000039" class="node">
<title>Node39</title>
<g id="a_Node000039"><a xlink:href="signals_8h.html" target="_top" xlink:title="Signal and slot system for C projects.">
<polygon fill="white" stroke="#666666" points="1766,-250 1706,-250 1706,-231 1766,-231 1766,-250"/>
<text text-anchor="middle" x="1736" y="-238" font-family="Helvetica,sans-Serif" font-size="10.00">signals.h</text>
</a>
</g>
</g>
<!-- Node37&#45;&gt;Node39 -->
<g id="edge45_Node000037_Node000039" class="edge">
<title>Node37&#45;&gt;Node39</title>
<g id="a_edge45_Node000037_Node000039"><a xlink:title=" ">
<path fill="none" stroke="#63b8ff" d="M1736,-285.75C1736,-278.8 1736,-268.85 1736,-260.13"/>
<polygon fill="#63b8ff" stroke="#63b8ff" points="1739.5,-260.09 1736,-250.09 1732.5,-260.09 1739.5,-260.09"/>
</a>
</g>
</g>
<!-- Node40&#45;&gt;Node38 -->
<g id="edge47_Node000040_Node000038" class="edge">
<title>Node40&#45;&gt;Node38</title>
<g id="a_edge47_Node000040_Node000038"><a xlink:title=" ">
<path fill="none" stroke="#63b8ff" d="M1868,-285.75C1868,-278.8 1868,-268.85 1868,-260.13"/>
<polygon fill="#63b8ff" stroke="#63b8ff" points="1871.5,-260.09 1868,-250.09 1864.5,-260.09 1871.5,-260.09"/>
</a>
</g>
</g>
</g>
</svg>
