<?xml version="1.0" encoding="UTF-8" standalone="no"?>
<!DOCTYPE svg PUBLIC "-//W3C//DTD SVG 1.1//EN"
 "http://www.w3.org/Graphics/SVG/1.1/DTD/svg11.dtd">
<!-- Generated by graphviz version 2.43.0 (0)
 -->
<!-- Title: src/classes/nodes/cshapes/sphere_cshape.class.c Pages: 1 -->
<svg width="1800pt" height="434pt"
 viewBox="0.00 0.00 1799.50 434.00" xmlns="http://www.w3.org/2000/svg" xmlns:xlink="http://www.w3.org/1999/xlink">
<g id="graph0" class="graph" transform="scale(1 1) rotate(0) translate(4 430)">
<title>src/classes/nodes/cshapes/sphere_cshape.class.c</title>
<!-- Node1 -->
<g id="Node000001" class="node">
<title>Node1</title>
<g id="a_Node000001"><a xlink:title="This file contains the implementation of the SphereCShape class.">
<polygon fill="#999999" stroke="#666666" points="1437.5,-426 1292.5,-426 1292.5,-396 1437.5,-396 1437.5,-426"/>
<text text-anchor="start" x="1300.5" y="-414" font-family="Helvetica,sans-Serif" font-size="10.00">src/classes/nodes/cshapes</text>
<text text-anchor="middle" x="1365" y="-403" font-family="Helvetica,sans-Serif" font-size="10.00">/sphere_cshape.class.c</text>
</a>
</g>
</g>
<!-- Node2 -->
<g id="Node000002" class="node">
<title>Node2</title>
<g id="a_Node000002"><a xlink:href="raptiquax_8h.html" target="_top" xlink:title="This file contains type definitions for fixed&#45;width integer types and floating&#45;point types.">
<polygon fill="white" stroke="#666666" points="930,-250 858,-250 858,-231 930,-231 930,-250"/>
<text text-anchor="middle" x="894" y="-238" font-family="Helvetica,sans-Serif" font-size="10.00">raptiquax.h</text>
</a>
</g>
</g>
<!-- Node1&#45;&gt;Node2 -->
<g id="edge1_Node000001_Node000002" class="edge">
<title>Node1&#45;&gt;Node2</title>
<g id="a_edge1_Node000001_Node000002"><a xlink:title=" ">
<path fill="none" stroke="#63b8ff" d="M1340.76,-395.86C1287.59,-364.93 1163.79,-293.43 1143,-286 1074.71,-261.6 990.92,-250.17 940.04,-245.12"/>
<polygon fill="#63b8ff" stroke="#63b8ff" points="940.29,-241.63 930.01,-244.16 939.63,-248.6 940.29,-241.63"/>
</a>
</g>
</g>
<!-- Node24 -->
<g id="Node000024" class="node">
<title>Node24</title>
<g id="a_Node000024"><a xlink:href="classes_8h.html" target="_top" xlink:title=" ">
<polygon fill="white" stroke="#666666" points="1078.5,-360 977.5,-360 977.5,-341 1078.5,-341 1078.5,-360"/>
<text text-anchor="middle" x="1028" y="-348" font-family="Helvetica,sans-Serif" font-size="10.00">classes/classes.h</text>
</a>
</g>
</g>
<!-- Node1&#45;&gt;Node24 -->
<g id="edge23_Node000001_Node000024" class="edge">
<title>Node1&#45;&gt;Node24</title>
<g id="a_edge23_Node000001_Node000024"><a xlink:title=" ">
<path fill="none" stroke="#63b8ff" d="M1292.29,-397.38C1230.96,-386.73 1144.27,-371.68 1087.13,-361.76"/>
<polygon fill="#63b8ff" stroke="#63b8ff" points="1087.62,-358.3 1077.17,-360.04 1086.43,-365.19 1087.62,-358.3"/>
</a>
</g>
</g>
<!-- Node27 -->
<g id="Node000027" class="node">
<title>Node27</title>
<g id="a_Node000027"><a xlink:href="math__util_8h.html" target="_top" xlink:title=" ">
<polygon fill="white" stroke="#666666" points="1374.5,-250 1273.5,-250 1273.5,-231 1374.5,-231 1374.5,-250"/>
<text text-anchor="middle" x="1324" y="-238" font-family="Helvetica,sans-Serif" font-size="10.00">math/math_util.h</text>
</a>
</g>
</g>
<!-- Node1&#45;&gt;Node27 -->
<g id="edge27_Node000001_Node000027" class="edge">
<title>Node1&#45;&gt;Node27</title>
<g id="a_edge27_Node000001_Node000027"><a xlink:title=" ">
<path fill="none" stroke="#63b8ff" d="M1361.57,-395.92C1354.21,-365.65 1336.86,-294.35 1328.57,-260.27"/>
<polygon fill="#63b8ff" stroke="#63b8ff" points="1331.9,-259.14 1326.13,-250.25 1325.09,-260.8 1331.9,-259.14"/>
</a>
</g>
</g>
<!-- Node28 -->
<g id="Node000028" class="node">
<title>Node28</title>
<g id="a_Node000028"><a xlink:href="model_8h.html" target="_top" xlink:title="Defines structures and functions for handling 3D models and their properties.">
<polygon fill="white" stroke="#666666" points="1584,-250 1516,-250 1516,-231 1584,-231 1584,-250"/>
<text text-anchor="middle" x="1550" y="-238" font-family="Helvetica,sans-Serif" font-size="10.00">io/model.h</text>
</a>
</g>
</g>
<!-- Node1&#45;&gt;Node28 -->
<g id="edge28_Node000001_Node000028" class="edge">
<title>Node1&#45;&gt;Node28</title>
<g id="a_edge28_Node000001_Node000028"><a xlink:title=" ">
<path fill="none" stroke="#63b8ff" d="M1416.86,-395.94C1438.81,-388.07 1463.51,-376.44 1482,-360 1513.64,-331.86 1534.22,-285.35 1543.78,-259.77"/>
<polygon fill="#63b8ff" stroke="#63b8ff" points="1547.13,-260.8 1547.2,-250.2 1540.54,-258.44 1547.13,-260.8"/>
</a>
</g>
</g>
<!-- Node34 -->
<g id="Node000034" class="node">
<title>Node34</title>
<g id="a_Node000034"><a xlink:href="framebuffer_8h.html" target="_top" xlink:title=" ">
<polygon fill="white" stroke="#666666" points="1791.5,-305 1674.5,-305 1674.5,-286 1791.5,-286 1791.5,-305"/>
<text text-anchor="middle" x="1733" y="-293" font-family="Helvetica,sans-Serif" font-size="10.00">render/framebuffer.h</text>
</a>
</g>
</g>
<!-- Node1&#45;&gt;Node34 -->
<g id="edge34_Node000001_Node000034" class="edge">
<title>Node1&#45;&gt;Node34</title>
<g id="a_edge34_Node000001_Node000034"><a xlink:title=" ">
<path fill="none" stroke="#63b8ff" d="M1416.08,-395.98C1451.07,-386.24 1498.47,-372.76 1540,-360 1595.71,-342.88 1659.91,-321.41 1698.43,-308.33"/>
<polygon fill="#63b8ff" stroke="#63b8ff" points="1699.78,-311.57 1708.12,-305.04 1697.52,-304.94 1699.78,-311.57"/>
</a>
</g>
</g>
<!-- Node36 -->
<g id="Node000036" class="node">
<title>Node36</title>
<g id="a_Node000036"><a xlink:href="node_8h.html" target="_top" xlink:title=" ">
<polygon fill="white" stroke="#666666" points="1473.5,-360 1384.5,-360 1384.5,-341 1473.5,-341 1473.5,-360"/>
<text text-anchor="middle" x="1429" y="-348" font-family="Helvetica,sans-Serif" font-size="10.00">storage/node.h</text>
</a>
</g>
</g>
<!-- Node1&#45;&gt;Node36 -->
<g id="edge36_Node000001_Node000036" class="edge">
<title>Node1&#45;&gt;Node36</title>
<g id="a_edge36_Node000001_Node000036"><a xlink:title=" ">
<path fill="none" stroke="#63b8ff" d="M1380.49,-395.84C1389.97,-387.17 1402.11,-376.08 1411.88,-367.15"/>
<polygon fill="#63b8ff" stroke="#63b8ff" points="1414.39,-369.6 1419.41,-360.27 1409.67,-364.43 1414.39,-369.6"/>
</a>
</g>
</g>
<!-- Node3 -->
<g id="Node000003" class="node">
<title>Node3</title>
<g id="a_Node000003"><a xlink:title=" ">
<polygon fill="#e0e0e0" stroke="#999999" points="1405,-189.5 1355,-189.5 1355,-170.5 1405,-170.5 1405,-189.5"/>
<text text-anchor="middle" x="1380" y="-177.5" font-family="Helvetica,sans-Serif" font-size="10.00">stdio.h</text>
</a>
</g>
</g>
<!-- Node2&#45;&gt;Node3 -->
<g id="edge2_Node000002_Node000003" class="edge">
<title>Node2&#45;&gt;Node3</title>
<g id="a_edge2_Node000002_Node000003"><a xlink:title=" ">
<path fill="none" stroke="#63b8ff" d="M930.24,-239.36C1007.58,-238.33 1194.04,-231.85 1345,-195 1347.31,-194.44 1349.66,-193.75 1352.01,-192.99"/>
<polygon fill="#63b8ff" stroke="#63b8ff" points="1353.23,-196.27 1361.43,-189.56 1350.84,-189.69 1353.23,-196.27"/>
</a>
</g>
</g>
<!-- Node4 -->
<g id="Node000004" class="node">
<title>Node4</title>
<g id="a_Node000004"><a xlink:title=" ">
<polygon fill="#e0e0e0" stroke="#999999" points="1476.5,-189.5 1423.5,-189.5 1423.5,-170.5 1476.5,-170.5 1476.5,-189.5"/>
<text text-anchor="middle" x="1450" y="-177.5" font-family="Helvetica,sans-Serif" font-size="10.00">stdint.h</text>
</a>
</g>
</g>
<!-- Node2&#45;&gt;Node4 -->
<g id="edge3_Node000002_Node000004" class="edge">
<title>Node2&#45;&gt;Node4</title>
<g id="a_edge3_Node000002_Node000004"><a xlink:title=" ">
<path fill="none" stroke="#63b8ff" d="M930.17,-239.92C1015.57,-240.16 1235.94,-236.34 1414,-195 1416.37,-194.45 1418.79,-193.77 1421.2,-193.02"/>
<polygon fill="#63b8ff" stroke="#63b8ff" points="1422.63,-196.23 1430.89,-189.6 1420.3,-189.63 1422.63,-196.23"/>
</a>
</g>
</g>
<!-- Node5 -->
<g id="Node000005" class="node">
<title>Node5</title>
<g id="a_Node000005"><a xlink:title=" ">
<polygon fill="#e0e0e0" stroke="#999999" points="62,-189.5 0,-189.5 0,-170.5 62,-170.5 62,-189.5"/>
<text text-anchor="middle" x="31" y="-177.5" font-family="Helvetica,sans-Serif" font-size="10.00">stdbool.h</text>
</a>
</g>
</g>
<!-- Node2&#45;&gt;Node5 -->
<g id="edge4_Node000002_Node000005" class="edge">
<title>Node2&#45;&gt;Node5</title>
<g id="a_edge4_Node000002_Node000005"><a xlink:title=" ">
<path fill="none" stroke="#63b8ff" d="M857.97,-238.9C719.98,-236.41 225.06,-225.48 71,-195 67.92,-194.39 64.76,-193.6 61.63,-192.7"/>
<polygon fill="#63b8ff" stroke="#63b8ff" points="62.46,-189.28 51.86,-189.55 60.31,-195.95 62.46,-189.28"/>
</a>
</g>
</g>
<!-- Node6 -->
<g id="Node000006" class="node">
<title>Node6</title>
<g id="a_Node000006"><a xlink:title=" ">
<polygon fill="#e0e0e0" stroke="#999999" points="136,-189.5 80,-189.5 80,-170.5 136,-170.5 136,-189.5"/>
<text text-anchor="middle" x="108" y="-177.5" font-family="Helvetica,sans-Serif" font-size="10.00">stdarg.h</text>
</a>
</g>
</g>
<!-- Node2&#45;&gt;Node6 -->
<g id="edge5_Node000002_Node000006" class="edge">
<title>Node2&#45;&gt;Node6</title>
<g id="a_edge5_Node000002_Node000006"><a xlink:title=" ">
<path fill="none" stroke="#63b8ff" d="M857.67,-238.79C727.32,-236.03 283.53,-224.61 145,-195 142.32,-194.43 139.58,-193.69 136.86,-192.86"/>
<polygon fill="#63b8ff" stroke="#63b8ff" points="137.85,-189.5 127.25,-189.54 135.56,-196.12 137.85,-189.5"/>
</a>
</g>
</g>
<!-- Node7 -->
<g id="Node000007" class="node">
<title>Node7</title>
<g id="a_Node000007"><a xlink:title=" ">
<polygon fill="#e0e0e0" stroke="#999999" points="207.5,-189.5 154.5,-189.5 154.5,-170.5 207.5,-170.5 207.5,-189.5"/>
<text text-anchor="middle" x="181" y="-177.5" font-family="Helvetica,sans-Serif" font-size="10.00">limits.h</text>
</a>
</g>
</g>
<!-- Node2&#45;&gt;Node7 -->
<g id="edge6_Node000002_Node000007" class="edge">
<title>Node2&#45;&gt;Node7</title>
<g id="a_edge6_Node000002_Node000007"><a xlink:title=" ">
<path fill="none" stroke="#63b8ff" d="M857.83,-238.57C735.94,-235.23 340.91,-222.48 217,-195 214.48,-194.44 211.9,-193.73 209.34,-192.93"/>
<polygon fill="#63b8ff" stroke="#63b8ff" points="210.31,-189.57 199.72,-189.52 207.98,-196.16 210.31,-189.57"/>
</a>
</g>
</g>
<!-- Node8 -->
<g id="Node000008" class="node">
<title>Node8</title>
<g id="a_Node000008"><a xlink:title=" ">
<polygon fill="#e0e0e0" stroke="#999999" points="298,-189.5 226,-189.5 226,-170.5 298,-170.5 298,-189.5"/>
<text text-anchor="middle" x="262" y="-177.5" font-family="Helvetica,sans-Serif" font-size="10.00">SDL2/SDL.h</text>
</a>
</g>
</g>
<!-- Node2&#45;&gt;Node8 -->
<g id="edge7_Node000002_Node000008" class="edge">
<title>Node2&#45;&gt;Node8</title>
<g id="a_edge7_Node000002_Node000008"><a xlink:title=" ">
<path fill="none" stroke="#63b8ff" d="M857.89,-239.58C765.41,-239.19 512.8,-234.29 307,-195 303.33,-194.3 299.53,-193.4 295.78,-192.4"/>
<polygon fill="#63b8ff" stroke="#63b8ff" points="296.61,-189 286.03,-189.58 294.66,-195.72 296.61,-189"/>
</a>
</g>
</g>
<!-- Node9 -->
<g id="Node000009" class="node">
<title>Node9</title>
<g id="a_Node000009"><a xlink:title=" ">
<polygon fill="#e0e0e0" stroke="#999999" points="424,-189.5 316,-189.5 316,-170.5 424,-170.5 424,-189.5"/>
<text text-anchor="middle" x="370" y="-177.5" font-family="Helvetica,sans-Serif" font-size="10.00">SDL2/SDL_image.h</text>
</a>
</g>
</g>
<!-- Node2&#45;&gt;Node9 -->
<g id="edge8_Node000002_Node000009" class="edge">
<title>Node2&#45;&gt;Node9</title>
<g id="a_edge8_Node000002_Node000009"><a xlink:title=" ">
<path fill="none" stroke="#63b8ff" d="M857.95,-237.53C780.02,-232.93 590.24,-219.96 433,-195 427.12,-194.07 420.96,-192.92 414.89,-191.68"/>
<polygon fill="#63b8ff" stroke="#63b8ff" points="415.35,-188.2 404.84,-189.54 413.9,-195.05 415.35,-188.2"/>
</a>
</g>
</g>
<!-- Node10 -->
<g id="Node000010" class="node">
<title>Node10</title>
<g id="a_Node000010"><a xlink:title=" ">
<polygon fill="#e0e0e0" stroke="#999999" points="552,-189.5 442,-189.5 442,-170.5 552,-170.5 552,-189.5"/>
<text text-anchor="middle" x="497" y="-177.5" font-family="Helvetica,sans-Serif" font-size="10.00">SDL2/SDL_opengl.h</text>
</a>
</g>
</g>
<!-- Node2&#45;&gt;Node10 -->
<g id="edge9_Node000002_Node000010" class="edge">
<title>Node2&#45;&gt;Node10</title>
<g id="a_edge9_Node000002_Node000010"><a xlink:title=" ">
<path fill="none" stroke="#63b8ff" d="M857.88,-235.66C796.59,-228.93 668.42,-213.89 561,-195 555.26,-193.99 549.25,-192.82 543.31,-191.6"/>
<polygon fill="#63b8ff" stroke="#63b8ff" points="543.96,-188.16 533.45,-189.52 542.51,-195.01 543.96,-188.16"/>
</a>
</g>
</g>
<!-- Node11 -->
<g id="Node000011" class="node">
<title>Node11</title>
<g id="a_Node000011"><a xlink:title=" ">
<polygon fill="#e0e0e0" stroke="#999999" points="674,-189.5 570,-189.5 570,-170.5 674,-170.5 674,-189.5"/>
<text text-anchor="middle" x="622" y="-177.5" font-family="Helvetica,sans-Serif" font-size="10.00">SDL2/SDL_mixer.h</text>
</a>
</g>
</g>
<!-- Node2&#45;&gt;Node11 -->
<g id="edge10_Node000002_Node000011" class="edge">
<title>Node2&#45;&gt;Node11</title>
<g id="a_edge10_Node000002_Node000011"><a xlink:title=" ">
<path fill="none" stroke="#63b8ff" d="M857.74,-232.06C815.67,-223.37 744.24,-208.48 683,-195 678.34,-193.97 673.48,-192.89 668.63,-191.79"/>
<polygon fill="#63b8ff" stroke="#63b8ff" points="669.28,-188.35 658.75,-189.55 667.72,-195.17 669.28,-188.35"/>
</a>
</g>
</g>
<!-- Node12 -->
<g id="Node000012" class="node">
<title>Node12</title>
<g id="a_Node000012"><a xlink:title=" ">
<polygon fill="#e0e0e0" stroke="#999999" points="780,-189.5 692,-189.5 692,-170.5 780,-170.5 780,-189.5"/>
<text text-anchor="middle" x="736" y="-177.5" font-family="Helvetica,sans-Serif" font-size="10.00">SDL2/SDL_ttf.h</text>
</a>
</g>
</g>
<!-- Node2&#45;&gt;Node12 -->
<g id="edge11_Node000002_Node000012" class="edge">
<title>Node2&#45;&gt;Node12</title>
<g id="a_edge11_Node000002_Node000012"><a xlink:title=" ">
<path fill="none" stroke="#63b8ff" d="M871.03,-230.99C844.11,-221.03 799.33,-204.45 768.77,-193.13"/>
<polygon fill="#63b8ff" stroke="#63b8ff" points="769.6,-189.71 759,-189.52 767.16,-196.27 769.6,-189.71"/>
</a>
</g>
</g>
<!-- Node13 -->
<g id="Node000013" class="node">
<title>Node13</title>
<g id="a_Node000013"><a xlink:title=" ">
<polygon fill="#e0e0e0" stroke="#999999" points="848,-189.5 798,-189.5 798,-170.5 848,-170.5 848,-189.5"/>
<text text-anchor="middle" x="823" y="-177.5" font-family="Helvetica,sans-Serif" font-size="10.00">GL/gl.h</text>
</a>
</g>
</g>
<!-- Node2&#45;&gt;Node13 -->
<g id="edge12_Node000002_Node000013" class="edge">
<title>Node2&#45;&gt;Node13</title>
<g id="a_edge12_Node000002_Node000013"><a xlink:title=" ">
<path fill="none" stroke="#63b8ff" d="M883.52,-230.87C872.51,-221.8 854.96,-207.34 841.59,-196.32"/>
<polygon fill="#63b8ff" stroke="#63b8ff" points="843.46,-193.33 833.52,-189.67 839.01,-198.73 843.46,-193.33"/>
</a>
</g>
</g>
<!-- Node14 -->
<g id="Node000014" class="node">
<title>Node14</title>
<g id="a_Node000014"><a xlink:title=" ">
<polygon fill="#e0e0e0" stroke="#999999" points="922,-189.5 866,-189.5 866,-170.5 922,-170.5 922,-189.5"/>
<text text-anchor="middle" x="894" y="-177.5" font-family="Helvetica,sans-Serif" font-size="10.00">GL/glu.h</text>
</a>
</g>
</g>
<!-- Node2&#45;&gt;Node14 -->
<g id="edge13_Node000002_Node000014" class="edge">
<title>Node2&#45;&gt;Node14</title>
<g id="a_edge13_Node000002_Node000014"><a xlink:title=" ">
<path fill="none" stroke="#63b8ff" d="M894,-230.87C894,-222.75 894,-210.31 894,-199.89"/>
<polygon fill="#63b8ff" stroke="#63b8ff" points="897.5,-199.67 894,-189.67 890.5,-199.67 897.5,-199.67"/>
</a>
</g>
</g>
<!-- Node15 -->
<g id="Node000015" class="node">
<title>Node15</title>
<g id="a_Node000015"><a xlink:title=" ">
<polygon fill="#e0e0e0" stroke="#999999" points="1006,-189.5 940,-189.5 940,-170.5 1006,-170.5 1006,-189.5"/>
<text text-anchor="middle" x="973" y="-177.5" font-family="Helvetica,sans-Serif" font-size="10.00">GL/glext.h</text>
</a>
</g>
</g>
<!-- Node2&#45;&gt;Node15 -->
<g id="edge14_Node000002_Node000015" class="edge">
<title>Node2&#45;&gt;Node15</title>
<g id="a_edge14_Node000002_Node000015"><a xlink:title=" ">
<path fill="none" stroke="#63b8ff" d="M905.66,-230.87C918.14,-221.62 938.18,-206.78 953.16,-195.69"/>
<polygon fill="#63b8ff" stroke="#63b8ff" points="955.34,-198.43 961.3,-189.67 951.18,-192.81 955.34,-198.43"/>
</a>
</g>
</g>
<!-- Node16 -->
<g id="Node000016" class="node">
<title>Node16</title>
<g id="a_Node000016"><a xlink:title=" ">
<polygon fill="#e0e0e0" stroke="#999999" points="1101.5,-189.5 1024.5,-189.5 1024.5,-170.5 1101.5,-170.5 1101.5,-189.5"/>
<text text-anchor="middle" x="1063" y="-177.5" font-family="Helvetica,sans-Serif" font-size="10.00">cglm/cglm.h</text>
</a>
</g>
</g>
<!-- Node2&#45;&gt;Node16 -->
<g id="edge15_Node000002_Node000016" class="edge">
<title>Node2&#45;&gt;Node16</title>
<g id="a_edge15_Node000002_Node000016"><a xlink:title=" ">
<path fill="none" stroke="#63b8ff" d="M918.57,-230.99C947.61,-220.94 996.1,-204.16 1028.8,-192.84"/>
<polygon fill="#63b8ff" stroke="#63b8ff" points="1030.09,-196.1 1038.4,-189.52 1027.8,-189.48 1030.09,-196.1"/>
</a>
</g>
</g>
<!-- Node17 -->
<g id="Node000017" class="node">
<title>Node17</title>
<g id="a_Node000017"><a xlink:title=" ">
<polygon fill="#e0e0e0" stroke="#999999" points="1170.5,-189.5 1119.5,-189.5 1119.5,-170.5 1170.5,-170.5 1170.5,-189.5"/>
<text text-anchor="middle" x="1145" y="-177.5" font-family="Helvetica,sans-Serif" font-size="10.00">math.h</text>
</a>
</g>
</g>
<!-- Node2&#45;&gt;Node17 -->
<g id="edge16_Node000002_Node000017" class="edge">
<title>Node2&#45;&gt;Node17</title>
<g id="a_edge16_Node000002_Node000017"><a xlink:title=" ">
<path fill="none" stroke="#63b8ff" d="M930.03,-234.09C973.31,-227.13 1047.85,-213.67 1110,-195 1111.88,-194.44 1113.8,-193.81 1115.73,-193.15"/>
<polygon fill="#63b8ff" stroke="#63b8ff" points="1117.07,-196.38 1125.23,-189.62 1114.63,-189.82 1117.07,-196.38"/>
</a>
</g>
</g>
<!-- Node18 -->
<g id="Node000018" class="node">
<title>Node18</title>
<g id="a_Node000018"><a xlink:href="stringio_8h.html" target="_top" xlink:title="Provides utility functions for string and file operations.">
<polygon fill="white" stroke="#666666" points="1263,-189.5 1189,-189.5 1189,-170.5 1263,-170.5 1263,-189.5"/>
<text text-anchor="middle" x="1226" y="-177.5" font-family="Helvetica,sans-Serif" font-size="10.00">io/stringio.h</text>
</a>
</g>
</g>
<!-- Node2&#45;&gt;Node18 -->
<g id="edge17_Node000002_Node000018" class="edge">
<title>Node2&#45;&gt;Node18</title>
<g id="a_edge17_Node000002_Node000018"><a xlink:title=" ">
<path fill="none" stroke="#63b8ff" d="M930.29,-235.42C984.73,-228.95 1090.59,-214.98 1179,-195 1182.43,-194.23 1185.97,-193.34 1189.5,-192.39"/>
<polygon fill="#63b8ff" stroke="#63b8ff" points="1190.65,-195.71 1199.32,-189.62 1188.75,-188.97 1190.65,-195.71"/>
</a>
</g>
</g>
<!-- Node20 -->
<g id="Node000020" class="node">
<title>Node20</title>
<g id="a_Node000020"><a xlink:href="config_8h.html" target="_top" xlink:title=" ">
<polygon fill="white" stroke="#666666" points="1336.5,-189.5 1281.5,-189.5 1281.5,-170.5 1336.5,-170.5 1336.5,-189.5"/>
<text text-anchor="middle" x="1309" y="-177.5" font-family="Helvetica,sans-Serif" font-size="10.00">config.h</text>
</a>
</g>
</g>
<!-- Node2&#45;&gt;Node20 -->
<g id="edge19_Node000002_Node000020" class="edge">
<title>Node2&#45;&gt;Node20</title>
<g id="a_edge19_Node000002_Node000020"><a xlink:title=" ">
<path fill="none" stroke="#63b8ff" d="M930.22,-238.18C998.14,-235.05 1148.91,-225.05 1272,-195 1274.45,-194.4 1276.96,-193.69 1279.46,-192.9"/>
<polygon fill="#63b8ff" stroke="#63b8ff" points="1280.63,-196.2 1288.93,-189.61 1278.33,-189.59 1280.63,-196.2"/>
</a>
</g>
</g>
<!-- Node19 -->
<g id="Node000019" class="node">
<title>Node19</title>
<g id="a_Node000019"><a xlink:title=" ">
<polygon fill="#e0e0e0" stroke="#999999" points="1252.5,-129 1199.5,-129 1199.5,-110 1252.5,-110 1252.5,-129"/>
<text text-anchor="middle" x="1226" y="-117" font-family="Helvetica,sans-Serif" font-size="10.00">string.h</text>
</a>
</g>
</g>
<!-- Node18&#45;&gt;Node19 -->
<g id="edge18_Node000018_Node000019" class="edge">
<title>Node18&#45;&gt;Node19</title>
<g id="a_edge18_Node000018_Node000019"><a xlink:title=" ">
<path fill="none" stroke="#63b8ff" d="M1226,-170.37C1226,-162.25 1226,-149.81 1226,-139.39"/>
<polygon fill="#63b8ff" stroke="#63b8ff" points="1229.5,-139.17 1226,-129.17 1222.5,-139.17 1229.5,-139.17"/>
</a>
</g>
</g>
<!-- Node21 -->
<g id="Node000021" class="node">
<title>Node21</title>
<g id="a_Node000021"><a xlink:href="term_8h.html" target="_top" xlink:title=" ">
<polygon fill="white" stroke="#666666" points="1346.5,-129 1271.5,-129 1271.5,-110 1346.5,-110 1346.5,-129"/>
<text text-anchor="middle" x="1309" y="-117" font-family="Helvetica,sans-Serif" font-size="10.00">term/term.h</text>
</a>
</g>
</g>
<!-- Node20&#45;&gt;Node21 -->
<g id="edge20_Node000020_Node000021" class="edge">
<title>Node20&#45;&gt;Node21</title>
<g id="a_edge20_Node000020_Node000021"><a xlink:title=" ">
<path fill="none" stroke="#63b8ff" d="M1309,-170.37C1309,-162.25 1309,-149.81 1309,-139.39"/>
<polygon fill="#63b8ff" stroke="#63b8ff" points="1312.5,-139.17 1309,-129.17 1305.5,-139.17 1312.5,-139.17"/>
</a>
</g>
</g>
<!-- Node22 -->
<g id="Node000022" class="node">
<title>Node22</title>
<g id="a_Node000022"><a xlink:href="enhanced__print_8h.html" target="_top" xlink:title=" ">
<polygon fill="white" stroke="#666666" points="1359.5,-74 1258.5,-74 1258.5,-55 1359.5,-55 1359.5,-74"/>
<text text-anchor="middle" x="1309" y="-62" font-family="Helvetica,sans-Serif" font-size="10.00">enhanced_print.h</text>
</a>
</g>
</g>
<!-- Node21&#45;&gt;Node22 -->
<g id="edge21_Node000021_Node000022" class="edge">
<title>Node21&#45;&gt;Node22</title>
<g id="a_edge21_Node000021_Node000022"><a xlink:title=" ">
<path fill="none" stroke="#63b8ff" d="M1309,-109.75C1309,-102.8 1309,-92.85 1309,-84.13"/>
<polygon fill="#63b8ff" stroke="#63b8ff" points="1312.5,-84.09 1309,-74.09 1305.5,-84.09 1312.5,-84.09"/>
</a>
</g>
</g>
<!-- Node23 -->
<g id="Node000023" class="node">
<title>Node23</title>
<g id="a_Node000023"><a xlink:href="color_8h.html" target="_top" xlink:title=" ">
<polygon fill="white" stroke="#666666" points="1333.5,-19 1284.5,-19 1284.5,0 1333.5,0 1333.5,-19"/>
<text text-anchor="middle" x="1309" y="-7" font-family="Helvetica,sans-Serif" font-size="10.00">color.h</text>
</a>
</g>
</g>
<!-- Node22&#45;&gt;Node23 -->
<g id="edge22_Node000022_Node000023" class="edge">
<title>Node22&#45;&gt;Node23</title>
<g id="a_edge22_Node000022_Node000023"><a xlink:title=" ">
<path fill="none" stroke="#63b8ff" d="M1309,-54.75C1309,-47.8 1309,-37.85 1309,-29.13"/>
<polygon fill="#63b8ff" stroke="#63b8ff" points="1312.5,-29.09 1309,-19.09 1305.5,-29.09 1312.5,-29.09"/>
</a>
</g>
</g>
<!-- Node24&#45;&gt;Node2 -->
<g id="edge26_Node000024_Node000002" class="edge">
<title>Node24&#45;&gt;Node2</title>
<g id="a_edge26_Node000024_Node000002"><a xlink:title=" ">
<path fill="none" stroke="#63b8ff" d="M979.3,-340.98C956.36,-334.64 930.29,-323.71 913,-305 901.77,-292.85 897.16,-274.33 895.28,-260.41"/>
<polygon fill="#63b8ff" stroke="#63b8ff" points="898.72,-259.66 894.25,-250.05 891.76,-260.35 898.72,-259.66"/>
</a>
</g>
</g>
<!-- Node25 -->
<g id="Node000025" class="node">
<title>Node25</title>
<g id="a_Node000025"><a xlink:href="classes__types_8h.html" target="_top" xlink:title=" ">
<polygon fill="white" stroke="#666666" points="1134,-305 1040,-305 1040,-286 1134,-286 1134,-305"/>
<text text-anchor="middle" x="1087" y="-293" font-family="Helvetica,sans-Serif" font-size="10.00">classes_types.h</text>
</a>
</g>
</g>
<!-- Node24&#45;&gt;Node25 -->
<g id="edge24_Node000024_Node000025" class="edge">
<title>Node24&#45;&gt;Node25</title>
<g id="a_edge24_Node000024_Node000025"><a xlink:title=" ">
<path fill="none" stroke="#63b8ff" d="M1037.48,-340.98C1046.2,-333.15 1059.34,-321.34 1069.9,-311.86"/>
<polygon fill="#63b8ff" stroke="#63b8ff" points="1072.25,-314.46 1077.35,-305.17 1067.57,-309.25 1072.25,-314.46"/>
</a>
</g>
</g>
<!-- Node26 -->
<g id="Node000026" class="node">
<title>Node26</title>
<g id="a_Node000026"><a xlink:title=" ">
<polygon fill="#e0e0e0" stroke="#999999" points="1021.5,-305 922.5,-305 922.5,-286 1021.5,-286 1021.5,-305"/>
<text text-anchor="middle" x="972" y="-293" font-family="Helvetica,sans-Serif" font-size="10.00">import_classes.h</text>
</a>
</g>
</g>
<!-- Node24&#45;&gt;Node26 -->
<g id="edge25_Node000024_Node000026" class="edge">
<title>Node24&#45;&gt;Node26</title>
<g id="a_edge25_Node000024_Node000026"><a xlink:title=" ">
<path fill="none" stroke="#63b8ff" d="M1019,-340.98C1010.81,-333.23 998.49,-321.58 988.53,-312.14"/>
<polygon fill="#63b8ff" stroke="#63b8ff" points="990.83,-309.5 981.16,-305.17 986.02,-314.59 990.83,-309.5"/>
</a>
</g>
</g>
<!-- Node29 -->
<g id="Node000029" class="node">
<title>Node29</title>
<g id="a_Node000029"><a xlink:href="shader_8h.html" target="_top" xlink:title=" ">
<polygon fill="white" stroke="#666666" points="1553,-189.5 1495,-189.5 1495,-170.5 1553,-170.5 1553,-189.5"/>
<text text-anchor="middle" x="1524" y="-177.5" font-family="Helvetica,sans-Serif" font-size="10.00">shader.h</text>
</a>
</g>
</g>
<!-- Node28&#45;&gt;Node29 -->
<g id="edge29_Node000028_Node000029" class="edge">
<title>Node28&#45;&gt;Node29</title>
<g id="a_edge29_Node000028_Node000029"><a xlink:title=" ">
<path fill="none" stroke="#63b8ff" d="M1546.16,-230.87C1542.44,-222.49 1536.67,-209.51 1531.95,-198.89"/>
<polygon fill="#63b8ff" stroke="#63b8ff" points="1535.11,-197.38 1527.85,-189.67 1528.72,-200.23 1535.11,-197.38"/>
</a>
</g>
</g>
<!-- Node30 -->
<g id="Node000030" class="node">
<title>Node30</title>
<g id="a_Node000030"><a xlink:href="model__loader_8h.html" target="_top" xlink:title=" ">
<polygon fill="white" stroke="#666666" points="1693,-195 1571,-195 1571,-165 1693,-165 1693,-195"/>
<text text-anchor="start" x="1579" y="-183" font-family="Helvetica,sans-Serif" font-size="10.00">model_loaders/model</text>
<text text-anchor="middle" x="1632" y="-172" font-family="Helvetica,sans-Serif" font-size="10.00">_loader.h</text>
</a>
</g>
</g>
<!-- Node28&#45;&gt;Node30 -->
<g id="edge30_Node000028_Node000030" class="edge">
<title>Node28&#45;&gt;Node30</title>
<g id="a_edge30_Node000028_Node000030"><a xlink:title=" ">
<path fill="none" stroke="#63b8ff" d="M1562.1,-230.87C1573.02,-223.08 1589.51,-211.32 1603.72,-201.17"/>
<polygon fill="#63b8ff" stroke="#63b8ff" points="1606.11,-203.77 1612.22,-195.11 1602.04,-198.07 1606.11,-203.77"/>
</a>
</g>
</g>
<!-- Node31 -->
<g id="Node000031" class="node">
<title>Node31</title>
<g id="a_Node000031"><a xlink:href="obj__loader_8h.html" target="_top" xlink:title=" ">
<polygon fill="white" stroke="#666666" points="1670,-129 1594,-129 1594,-110 1670,-110 1670,-129"/>
<text text-anchor="middle" x="1632" y="-117" font-family="Helvetica,sans-Serif" font-size="10.00">obj_loader.h</text>
</a>
</g>
</g>
<!-- Node30&#45;&gt;Node31 -->
<g id="edge31_Node000030_Node000031" class="edge">
<title>Node30&#45;&gt;Node31</title>
<g id="a_edge31_Node000030_Node000031"><a xlink:title=" ">
<path fill="none" stroke="#63b8ff" d="M1632,-164.84C1632,-157.21 1632,-147.7 1632,-139.45"/>
<polygon fill="#63b8ff" stroke="#63b8ff" points="1635.5,-139.27 1632,-129.27 1628.5,-139.27 1635.5,-139.27"/>
</a>
</g>
</g>
<!-- Node32 -->
<g id="Node000032" class="node">
<title>Node32</title>
<g id="a_Node000032"><a xlink:href="mtl__loader_8h.html" target="_top" xlink:title=" ">
<polygon fill="white" stroke="#666666" points="1765.5,-129 1688.5,-129 1688.5,-110 1765.5,-110 1765.5,-129"/>
<text text-anchor="middle" x="1727" y="-117" font-family="Helvetica,sans-Serif" font-size="10.00">mtl_loader.h</text>
</a>
</g>
</g>
<!-- Node30&#45;&gt;Node32 -->
<g id="edge32_Node000030_Node000032" class="edge">
<title>Node30&#45;&gt;Node32</title>
<g id="a_edge32_Node000030_Node000032"><a xlink:title=" ">
<path fill="none" stroke="#63b8ff" d="M1655,-164.84C1670,-155.6 1689.5,-143.59 1704.43,-134.4"/>
<polygon fill="#63b8ff" stroke="#63b8ff" points="1706.36,-137.32 1713.04,-129.09 1702.69,-131.36 1706.36,-137.32"/>
</a>
</g>
</g>
<!-- Node33 -->
<g id="Node000033" class="node">
<title>Node33</title>
<g id="a_Node000033"><a xlink:href="fbx__loader_8h.html" target="_top" xlink:title=" ">
<polygon fill="white" stroke="#666666" points="1575.5,-129 1498.5,-129 1498.5,-110 1575.5,-110 1575.5,-129"/>
<text text-anchor="middle" x="1537" y="-117" font-family="Helvetica,sans-Serif" font-size="10.00">fbx_loader.h</text>
</a>
</g>
</g>
<!-- Node30&#45;&gt;Node33 -->
<g id="edge33_Node000030_Node000033" class="edge">
<title>Node30&#45;&gt;Node33</title>
<g id="a_edge33_Node000030_Node000033"><a xlink:title=" ">
<path fill="none" stroke="#63b8ff" d="M1609,-164.84C1594,-155.6 1574.5,-143.59 1559.57,-134.4"/>
<polygon fill="#63b8ff" stroke="#63b8ff" points="1561.31,-131.36 1550.96,-129.09 1557.64,-137.32 1561.31,-131.36"/>
</a>
</g>
</g>
<!-- Node35 -->
<g id="Node000035" class="node">
<title>Node35</title>
<g id="a_Node000035"><a xlink:href="input_8h.html" target="_top" xlink:title=" ">
<polygon fill="white" stroke="#666666" points="1759.5,-250 1688.5,-250 1688.5,-231 1759.5,-231 1759.5,-250"/>
<text text-anchor="middle" x="1724" y="-238" font-family="Helvetica,sans-Serif" font-size="10.00">../io/input.h</text>
</a>
</g>
</g>
<!-- Node34&#45;&gt;Node35 -->
<g id="edge35_Node000034_Node000035" class="edge">
<title>Node34&#45;&gt;Node35</title>
<g id="a_edge35_Node000034_Node000035"><a xlink:title=" ">
<path fill="none" stroke="#63b8ff" d="M1731.51,-285.75C1730.33,-278.8 1728.64,-268.85 1727.16,-260.13"/>
<polygon fill="#63b8ff" stroke="#63b8ff" points="1730.58,-259.36 1725.46,-250.09 1723.68,-260.53 1730.58,-259.36"/>
</a>
</g>
</g>
<!-- Node36&#45;&gt;Node29 -->
<g id="edge37_Node000036_Node000029" class="edge">
<title>Node36&#45;&gt;Node29</title>
<g id="a_edge37_Node000036_Node000029"><a xlink:title=" ">
<path fill="none" stroke="#63b8ff" d="M1437.91,-340.93C1446.42,-332.4 1459.22,-318.65 1468,-305 1490.61,-269.88 1508.7,-224.11 1517.73,-199.16"/>
<polygon fill="#63b8ff" stroke="#63b8ff" points="1521.09,-200.15 1521.13,-189.56 1514.5,-197.82 1521.09,-200.15"/>
</a>
</g>
</g>
<!-- Node36&#45;&gt;Node34 -->
<g id="edge48_Node000036_Node000034" class="edge">
<title>Node36&#45;&gt;Node34</title>
<g id="a_edge48_Node000036_Node000034"><a xlink:title=" ">
<path fill="none" stroke="#63b8ff" d="M1473.53,-341.74C1526.61,-332.48 1615.5,-316.98 1674.2,-306.75"/>
<polygon fill="#63b8ff" stroke="#63b8ff" points="1674.82,-310.2 1684.07,-305.03 1673.62,-303.3 1674.82,-310.2"/>
</a>
</g>
</g>
<!-- Node37 -->
<g id="Node000037" class="node">
<title>Node37</title>
<g id="a_Node000037"><a xlink:href="camera_8h.html" target="_top" xlink:title=" ">
<polygon fill="white" stroke="#666666" points="1296,-305 1190,-305 1190,-286 1296,-286 1296,-305"/>
<text text-anchor="middle" x="1243" y="-293" font-family="Helvetica,sans-Serif" font-size="10.00">../render/camera.h</text>
</a>
</g>
</g>
<!-- Node36&#45;&gt;Node37 -->
<g id="edge38_Node000036_Node000037" class="edge">
<title>Node36&#45;&gt;Node37</title>
<g id="a_edge38_Node000036_Node000037"><a xlink:title=" ">
<path fill="none" stroke="#63b8ff" d="M1399.12,-340.98C1367.62,-332.01 1317.83,-317.82 1282.97,-307.89"/>
<polygon fill="#63b8ff" stroke="#63b8ff" points="1283.69,-304.46 1273.12,-305.08 1281.78,-311.19 1283.69,-304.46"/>
</a>
</g>
</g>
<!-- Node38 -->
<g id="Node000038" class="node">
<title>Node38</title>
<g id="a_Node000038"><a xlink:href="bodies_8h.html" target="_top" xlink:title=" ">
<polygon fill="white" stroke="#666666" points="1459.5,-305 1352.5,-305 1352.5,-286 1459.5,-286 1459.5,-305"/>
<text text-anchor="middle" x="1406" y="-293" font-family="Helvetica,sans-Serif" font-size="10.00">../physics/bodies.h</text>
</a>
</g>
</g>
<!-- Node36&#45;&gt;Node38 -->
<g id="edge42_Node000036_Node000038" class="edge">
<title>Node36&#45;&gt;Node38</title>
<g id="a_edge42_Node000036_Node000038"><a xlink:title=" ">
<path fill="none" stroke="#63b8ff" d="M1425.2,-340.75C1422.09,-333.57 1417.58,-323.18 1413.71,-314.27"/>
<polygon fill="#63b8ff" stroke="#63b8ff" points="1416.92,-312.87 1409.73,-305.09 1410.5,-315.66 1416.92,-312.87"/>
</a>
</g>
</g>
<!-- Node39 -->
<g id="Node000039" class="node">
<title>Node39</title>
<g id="a_Node000039"><a xlink:href="scripts_8h.html" target="_top" xlink:title=" ">
<polygon fill="white" stroke="#666666" points="1656,-305 1554,-305 1554,-286 1656,-286 1656,-305"/>
<text text-anchor="middle" x="1605" y="-293" font-family="Helvetica,sans-Serif" font-size="10.00">../scripts/scripts.h</text>
</a>
</g>
</g>
<!-- Node36&#45;&gt;Node39 -->
<g id="edge45_Node000036_Node000039" class="edge">
<title>Node36&#45;&gt;Node39</title>
<g id="a_edge45_Node000036_Node000039"><a xlink:title=" ">
<path fill="none" stroke="#63b8ff" d="M1457.28,-340.98C1486.95,-332.05 1533.79,-317.94 1566.75,-308.02"/>
<polygon fill="#63b8ff" stroke="#63b8ff" points="1567.93,-311.32 1576.5,-305.08 1565.92,-304.61 1567.93,-311.32"/>
</a>
</g>
</g>
<!-- Node37&#45;&gt;Node2 -->
<g id="edge39_Node000037_Node000002" class="edge">
<title>Node37&#45;&gt;Node2</title>
<g id="a_edge39_Node000037_Node000002"><a xlink:title=" ">
<path fill="none" stroke="#63b8ff" d="M1189.99,-286.45C1121.94,-276.12 1004.93,-258.35 940.29,-248.53"/>
<polygon fill="#63b8ff" stroke="#63b8ff" points="940.79,-245.07 930.38,-247.03 939.74,-251.99 940.79,-245.07"/>
</a>
</g>
</g>
<!-- Node37&#45;&gt;Node27 -->
<g id="edge40_Node000037_Node000027" class="edge">
<title>Node37&#45;&gt;Node27</title>
<g id="a_edge40_Node000037_Node000027"><a xlink:title=" ">
<path fill="none" stroke="#63b8ff" d="M1256.01,-285.98C1268.46,-277.84 1287.46,-265.41 1302.21,-255.76"/>
<polygon fill="#63b8ff" stroke="#63b8ff" points="1304.3,-258.57 1310.75,-250.17 1300.46,-252.72 1304.3,-258.57"/>
</a>
</g>
</g>
<!-- Node37&#45;&gt;Node29 -->
<g id="edge41_Node000037_Node000029" class="edge">
<title>Node37&#45;&gt;Node29</title>
<g id="a_edge41_Node000037_Node000029"><a xlink:title=" ">
<path fill="none" stroke="#63b8ff" d="M1243.17,-286C1243.93,-272.19 1247.57,-245.02 1264,-231 1339.7,-166.4 1388.65,-219.92 1485,-195 1487.5,-194.35 1490.06,-193.61 1492.63,-192.82"/>
<polygon fill="#63b8ff" stroke="#63b8ff" points="1493.98,-196.06 1502.36,-189.56 1491.76,-189.42 1493.98,-196.06"/>
</a>
</g>
</g>
<!-- Node38&#45;&gt;Node27 -->
<g id="edge43_Node000038_Node000027" class="edge">
<title>Node38&#45;&gt;Node27</title>
<g id="a_edge43_Node000038_Node000027"><a xlink:title=" ">
<path fill="none" stroke="#63b8ff" d="M1392.83,-285.98C1380.23,-277.84 1361,-265.41 1346.06,-255.76"/>
<polygon fill="#63b8ff" stroke="#63b8ff" points="1347.71,-252.66 1337.41,-250.17 1343.91,-258.54 1347.71,-252.66"/>
</a>
</g>
</g>
<!-- Node38&#45;&gt;Node28 -->
<g id="edge44_Node000038_Node000028" class="edge">
<title>Node38&#45;&gt;Node28</title>
<g id="a_edge44_Node000038_Node000028"><a xlink:title=" ">
<path fill="none" stroke="#63b8ff" d="M1429.14,-285.98C1452.82,-277.27 1489.87,-263.63 1516.71,-253.75"/>
<polygon fill="#63b8ff" stroke="#63b8ff" points="1518.27,-256.91 1526.44,-250.17 1515.85,-250.34 1518.27,-256.91"/>
</a>
</g>
</g>
<!-- Node39&#45;&gt;Node35 -->
<g id="edge46_Node000039_Node000035" class="edge">
<title>Node39&#45;&gt;Node35</title>
<g id="a_edge46_Node000039_Node000035"><a xlink:title=" ">
<path fill="none" stroke="#63b8ff" d="M1624.12,-285.98C1643.35,-277.42 1673.23,-264.11 1695.31,-254.28"/>
<polygon fill="#63b8ff" stroke="#63b8ff" points="1696.82,-257.44 1704.53,-250.17 1693.97,-251.04 1696.82,-257.44"/>
</a>
</g>
</g>
<!-- Node40 -->
<g id="Node000040" class="node">
<title>Node40</title>
<g id="a_Node000040"><a xlink:href="signals_8h.html" target="_top" xlink:title="Signal and slot system for C projects.">
<polygon fill="white" stroke="#666666" points="1662,-250 1602,-250 1602,-231 1662,-231 1662,-250"/>
<text text-anchor="middle" x="1632" y="-238" font-family="Helvetica,sans-Serif" font-size="10.00">signals.h</text>
</a>
</g>
</g>
<!-- Node39&#45;&gt;Node40 -->
<g id="edge47_Node000039_Node000040" class="edge">
<title>Node39&#45;&gt;Node40</title>
<g id="a_edge47_Node000039_Node000040"><a xlink:title=" ">
<path fill="none" stroke="#63b8ff" d="M1609.46,-285.75C1613.12,-278.57 1618.41,-268.18 1622.95,-259.27"/>
<polygon fill="#63b8ff" stroke="#63b8ff" points="1626.2,-260.59 1627.62,-250.09 1619.97,-257.41 1626.2,-260.59"/>
</a>
</g>
</g>
</g>
</svg>
