<?xml version="1.0" encoding="UTF-8" standalone="no"?>
<!DOCTYPE svg PUBLIC "-//W3C//DTD SVG 1.1//EN"
 "http://www.w3.org/Graphics/SVG/1.1/DTD/svg11.dtd">
<!-- Generated by graphviz version 2.43.0 (0)
 -->
<!-- Title: src/classes/nodes/lights/spot_light.class.c Pages: 1 -->
<svg width="1981pt" height="434pt"
 viewBox="0.00 0.00 1980.50 434.00" xmlns="http://www.w3.org/2000/svg" xmlns:xlink="http://www.w3.org/1999/xlink">
<g id="graph0" class="graph" transform="scale(1 1) rotate(0) translate(4 430)">
<title>src/classes/nodes/lights/spot_light.class.c</title>
<!-- Node1 -->
<g id="Node000001" class="node">
<title>Node1</title>
<g id="a_Node000001"><a xlink:title="This file contains the implementation of the SpotLight class.">
<polygon fill="#999999" stroke="#666666" points="1650,-426 1518,-426 1518,-396 1650,-396 1650,-426"/>
<text text-anchor="start" x="1526" y="-414" font-family="Helvetica,sans-Serif" font-size="10.00">src/classes/nodes/lights</text>
<text text-anchor="middle" x="1584" y="-403" font-family="Helvetica,sans-Serif" font-size="10.00">/spot_light.class.c</text>
</a>
</g>
</g>
<!-- Node2 -->
<g id="Node000002" class="node">
<title>Node2</title>
<g id="a_Node000002"><a xlink:href="raptiquax_8h.html" target="_top" xlink:title="This file contains type definitions for fixed&#45;width integer types and floating&#45;point types.">
<polygon fill="white" stroke="#666666" points="905,-250 833,-250 833,-231 905,-231 905,-250"/>
<text text-anchor="middle" x="869" y="-238" font-family="Helvetica,sans-Serif" font-size="10.00">raptiquax.h</text>
</a>
</g>
</g>
<!-- Node1&#45;&gt;Node2 -->
<g id="edge1_Node000001_Node000002" class="edge">
<title>Node1&#45;&gt;Node2</title>
<g id="a_edge1_Node000001_Node000002"><a xlink:title=" ">
<path fill="none" stroke="#63b8ff" d="M1517.76,-409.33C1378.79,-407.18 1061.36,-398.11 961,-360 923.02,-345.58 911.2,-338.34 888,-305 878.65,-291.57 873.83,-273.47 871.39,-260.03"/>
<polygon fill="#63b8ff" stroke="#63b8ff" points="874.83,-259.39 869.85,-250.04 867.91,-260.46 874.83,-259.39"/>
</a>
</g>
</g>
<!-- Node24 -->
<g id="Node000024" class="node">
<title>Node24</title>
<g id="a_Node000024"><a xlink:href="classes_8h.html" target="_top" xlink:title=" ">
<polygon fill="white" stroke="#666666" points="1071.5,-360 970.5,-360 970.5,-341 1071.5,-341 1071.5,-360"/>
<text text-anchor="middle" x="1021" y="-348" font-family="Helvetica,sans-Serif" font-size="10.00">classes/classes.h</text>
</a>
</g>
</g>
<!-- Node1&#45;&gt;Node24 -->
<g id="edge23_Node000001_Node000024" class="edge">
<title>Node1&#45;&gt;Node24</title>
<g id="a_edge23_Node000001_Node000024"><a xlink:title=" ">
<path fill="none" stroke="#63b8ff" d="M1517.76,-403.12C1407.63,-391.67 1188.46,-368.9 1081.94,-357.83"/>
<polygon fill="#63b8ff" stroke="#63b8ff" points="1081.99,-354.32 1071.69,-356.77 1081.27,-361.28 1081.99,-354.32"/>
</a>
</g>
</g>
<!-- Node27 -->
<g id="Node000027" class="node">
<title>Node27</title>
<g id="a_Node000027"><a xlink:href="math__util_8h.html" target="_top" xlink:title=" ">
<polygon fill="white" stroke="#666666" points="1330.5,-250 1229.5,-250 1229.5,-231 1330.5,-231 1330.5,-250"/>
<text text-anchor="middle" x="1280" y="-238" font-family="Helvetica,sans-Serif" font-size="10.00">math/math_util.h</text>
</a>
</g>
</g>
<!-- Node1&#45;&gt;Node27 -->
<g id="edge27_Node000001_Node000027" class="edge">
<title>Node1&#45;&gt;Node27</title>
<g id="a_edge27_Node000001_Node000027"><a xlink:title=" ">
<path fill="none" stroke="#63b8ff" d="M1517.72,-403.16C1452.81,-392.91 1355.64,-367.53 1299,-305 1287.89,-292.74 1283.27,-274.23 1281.35,-260.35"/>
<polygon fill="#63b8ff" stroke="#63b8ff" points="1284.79,-259.61 1280.29,-250.02 1277.83,-260.32 1284.79,-259.61"/>
</a>
</g>
</g>
<!-- Node28 -->
<g id="Node000028" class="node">
<title>Node28</title>
<g id="a_Node000028"><a xlink:href="model_8h.html" target="_top" xlink:title="Defines structures and functions for handling 3D models and their properties.">
<polygon fill="white" stroke="#666666" points="1761,-250 1693,-250 1693,-231 1761,-231 1761,-250"/>
<text text-anchor="middle" x="1727" y="-238" font-family="Helvetica,sans-Serif" font-size="10.00">io/model.h</text>
</a>
</g>
</g>
<!-- Node1&#45;&gt;Node28 -->
<g id="edge28_Node000001_Node000028" class="edge">
<title>Node1&#45;&gt;Node28</title>
<g id="a_edge28_Node000001_Node000028"><a xlink:title=" ">
<path fill="none" stroke="#63b8ff" d="M1650.18,-405.6C1681.55,-399.78 1716.37,-387.12 1736,-360 1757.49,-330.31 1744.82,-284.77 1735.06,-259.67"/>
<polygon fill="#63b8ff" stroke="#63b8ff" points="1738.22,-258.17 1731.16,-250.27 1731.76,-260.85 1738.22,-258.17"/>
</a>
</g>
</g>
<!-- Node34 -->
<g id="Node000034" class="node">
<title>Node34</title>
<g id="a_Node000034"><a xlink:href="framebuffer_8h.html" target="_top" xlink:title=" ">
<polygon fill="white" stroke="#666666" points="1709.5,-305 1592.5,-305 1592.5,-286 1709.5,-286 1709.5,-305"/>
<text text-anchor="middle" x="1651" y="-293" font-family="Helvetica,sans-Serif" font-size="10.00">render/framebuffer.h</text>
</a>
</g>
</g>
<!-- Node1&#45;&gt;Node34 -->
<g id="edge34_Node000001_Node000034" class="edge">
<title>Node1&#45;&gt;Node34</title>
<g id="a_edge34_Node000001_Node000034"><a xlink:title=" ">
<path fill="none" stroke="#63b8ff" d="M1585.58,-395.88C1587.72,-381.26 1592.55,-358.2 1603,-341 1609.94,-329.58 1620.63,-319.27 1630.16,-311.45"/>
<polygon fill="#63b8ff" stroke="#63b8ff" points="1632.37,-314.16 1638.11,-305.26 1628.07,-308.64 1632.37,-314.16"/>
</a>
</g>
</g>
<!-- Node36 -->
<g id="Node000036" class="node">
<title>Node36</title>
<g id="a_Node000036"><a xlink:href="node_8h.html" target="_top" xlink:title=" ">
<polygon fill="white" stroke="#666666" points="1531.5,-360 1442.5,-360 1442.5,-341 1531.5,-341 1531.5,-360"/>
<text text-anchor="middle" x="1487" y="-348" font-family="Helvetica,sans-Serif" font-size="10.00">storage/node.h</text>
</a>
</g>
</g>
<!-- Node1&#45;&gt;Node36 -->
<g id="edge36_Node000001_Node000036" class="edge">
<title>Node1&#45;&gt;Node36</title>
<g id="a_edge36_Node000001_Node000036"><a xlink:title=" ">
<path fill="none" stroke="#63b8ff" d="M1560.52,-395.84C1545.2,-386.6 1525.29,-374.59 1510.05,-365.4"/>
<polygon fill="#63b8ff" stroke="#63b8ff" points="1511.62,-362.26 1501.25,-360.09 1508.01,-368.26 1511.62,-362.26"/>
</a>
</g>
</g>
<!-- Node41 -->
<g id="Node000041" class="node">
<title>Node41</title>
<g id="a_Node000041"><a xlink:href="lighting_8h.html" target="_top" xlink:title=" ">
<polygon fill="white" stroke="#666666" points="1901.5,-360 1804.5,-360 1804.5,-341 1901.5,-341 1901.5,-360"/>
<text text-anchor="middle" x="1853" y="-348" font-family="Helvetica,sans-Serif" font-size="10.00">render/lighting.h</text>
</a>
</g>
</g>
<!-- Node1&#45;&gt;Node41 -->
<g id="edge49_Node000001_Node000041" class="edge">
<title>Node1&#45;&gt;Node41</title>
<g id="a_edge49_Node000001_Node000041"><a xlink:title=" ">
<path fill="none" stroke="#63b8ff" d="M1648.43,-395.99C1696.16,-385.61 1760.23,-371.68 1803.86,-362.19"/>
<polygon fill="#63b8ff" stroke="#63b8ff" points="1804.64,-365.6 1813.67,-360.05 1803.15,-358.76 1804.64,-365.6"/>
</a>
</g>
</g>
<!-- Node42 -->
<g id="Node000042" class="node">
<title>Node42</title>
<g id="a_Node000042"><a xlink:href="depth__map_8h.html" target="_top" xlink:title=" ">
<polygon fill="white" stroke="#666666" points="1727.5,-360 1612.5,-360 1612.5,-341 1727.5,-341 1727.5,-360"/>
<text text-anchor="middle" x="1670" y="-348" font-family="Helvetica,sans-Serif" font-size="10.00">render/depth_map.h</text>
</a>
</g>
</g>
<!-- Node1&#45;&gt;Node42 -->
<g id="edge50_Node000001_Node000042" class="edge">
<title>Node1&#45;&gt;Node42</title>
<g id="a_edge50_Node000001_Node000042"><a xlink:title=" ">
<path fill="none" stroke="#63b8ff" d="M1604.82,-395.84C1618.15,-386.77 1635.39,-375.04 1648.79,-365.92"/>
<polygon fill="#63b8ff" stroke="#63b8ff" points="1651.07,-368.61 1657.37,-360.09 1647.13,-362.83 1651.07,-368.61"/>
</a>
</g>
</g>
<!-- Node43 -->
<g id="Node000043" class="node">
<title>Node43</title>
<g id="a_Node000043"><a xlink:href="buffer_8h.html" target="_top" xlink:title="Functions for initializing and freeing Game.buffers&#45;&gt;">
<polygon fill="white" stroke="#666666" points="1972.5,-360 1919.5,-360 1919.5,-341 1972.5,-341 1972.5,-360"/>
<text text-anchor="middle" x="1946" y="-348" font-family="Helvetica,sans-Serif" font-size="10.00">buffer.h</text>
</a>
</g>
</g>
<!-- Node1&#45;&gt;Node43 -->
<g id="edge53_Node000001_Node000043" class="edge">
<title>Node1&#45;&gt;Node43</title>
<g id="a_edge53_Node000001_Node000043"><a xlink:title=" ">
<path fill="none" stroke="#63b8ff" d="M1650.06,-401.61C1714.05,-393.09 1814.01,-378.77 1909.21,-360.22"/>
<polygon fill="#63b8ff" stroke="#63b8ff" points="1910.16,-363.6 1919.3,-358.24 1908.81,-356.73 1910.16,-363.6"/>
</a>
</g>
</g>
<!-- Node3 -->
<g id="Node000003" class="node">
<title>Node3</title>
<g id="a_Node000003"><a xlink:title=" ">
<polygon fill="#e0e0e0" stroke="#999999" points="1089,-189.5 1039,-189.5 1039,-170.5 1089,-170.5 1089,-189.5"/>
<text text-anchor="middle" x="1064" y="-177.5" font-family="Helvetica,sans-Serif" font-size="10.00">stdio.h</text>
</a>
</g>
</g>
<!-- Node2&#45;&gt;Node3 -->
<g id="edge2_Node000002_Node000003" class="edge">
<title>Node2&#45;&gt;Node3</title>
<g id="a_edge2_Node000002_Node000003"><a xlink:title=" ">
<path fill="none" stroke="#63b8ff" d="M903.98,-230.95C936.62,-222.69 986.53,-209.35 1029,-195 1030.66,-194.44 1032.36,-193.84 1034.07,-193.22"/>
<polygon fill="#63b8ff" stroke="#63b8ff" points="1035.68,-196.35 1043.78,-189.52 1033.19,-189.81 1035.68,-196.35"/>
</a>
</g>
</g>
<!-- Node4 -->
<g id="Node000004" class="node">
<title>Node4</title>
<g id="a_Node000004"><a xlink:title=" ">
<polygon fill="#e0e0e0" stroke="#999999" points="1160.5,-189.5 1107.5,-189.5 1107.5,-170.5 1160.5,-170.5 1160.5,-189.5"/>
<text text-anchor="middle" x="1134" y="-177.5" font-family="Helvetica,sans-Serif" font-size="10.00">stdint.h</text>
</a>
</g>
</g>
<!-- Node2&#45;&gt;Node4 -->
<g id="edge3_Node000002_Node000004" class="edge">
<title>Node2&#45;&gt;Node4</title>
<g id="a_edge3_Node000002_Node000004"><a xlink:title=" ">
<path fill="none" stroke="#63b8ff" d="M905.17,-234.52C950.71,-227.78 1031.08,-214.35 1098,-195 1099.93,-194.44 1101.91,-193.82 1103.89,-193.16"/>
<polygon fill="#63b8ff" stroke="#63b8ff" points="1105.44,-196.32 1113.66,-189.64 1103.06,-189.74 1105.44,-196.32"/>
</a>
</g>
</g>
<!-- Node5 -->
<g id="Node000005" class="node">
<title>Node5</title>
<g id="a_Node000005"><a xlink:title=" ">
<polygon fill="#e0e0e0" stroke="#999999" points="1241,-189.5 1179,-189.5 1179,-170.5 1241,-170.5 1241,-189.5"/>
<text text-anchor="middle" x="1210" y="-177.5" font-family="Helvetica,sans-Serif" font-size="10.00">stdbool.h</text>
</a>
</g>
</g>
<!-- Node2&#45;&gt;Node5 -->
<g id="edge4_Node000002_Node000005" class="edge">
<title>Node2&#45;&gt;Node5</title>
<g id="a_edge4_Node000002_Node000005"><a xlink:title=" ">
<path fill="none" stroke="#63b8ff" d="M905.43,-236.25C962.3,-230.7 1075.36,-217.73 1169,-195 1171.81,-194.32 1174.7,-193.53 1177.58,-192.67"/>
<polygon fill="#63b8ff" stroke="#63b8ff" points="1178.77,-195.97 1187.23,-189.59 1176.64,-189.3 1178.77,-195.97"/>
</a>
</g>
</g>
<!-- Node6 -->
<g id="Node000006" class="node">
<title>Node6</title>
<g id="a_Node000006"><a xlink:title=" ">
<polygon fill="#e0e0e0" stroke="#999999" points="1315,-189.5 1259,-189.5 1259,-170.5 1315,-170.5 1315,-189.5"/>
<text text-anchor="middle" x="1287" y="-177.5" font-family="Helvetica,sans-Serif" font-size="10.00">stdarg.h</text>
</a>
</g>
</g>
<!-- Node2&#45;&gt;Node6 -->
<g id="edge5_Node000002_Node000006" class="edge">
<title>Node2&#45;&gt;Node6</title>
<g id="a_edge5_Node000002_Node000006"><a xlink:title=" ">
<path fill="none" stroke="#63b8ff" d="M905.24,-238.22C973.57,-235.17 1125.77,-225.27 1250,-195 1252.45,-194.4 1254.96,-193.69 1257.46,-192.9"/>
<polygon fill="#63b8ff" stroke="#63b8ff" points="1258.63,-196.2 1266.93,-189.62 1256.33,-189.59 1258.63,-196.2"/>
</a>
</g>
</g>
<!-- Node7 -->
<g id="Node000007" class="node">
<title>Node7</title>
<g id="a_Node000007"><a xlink:title=" ">
<polygon fill="#e0e0e0" stroke="#999999" points="1386.5,-189.5 1333.5,-189.5 1333.5,-170.5 1386.5,-170.5 1386.5,-189.5"/>
<text text-anchor="middle" x="1360" y="-177.5" font-family="Helvetica,sans-Serif" font-size="10.00">limits.h</text>
</a>
</g>
</g>
<!-- Node2&#45;&gt;Node7 -->
<g id="edge6_Node000002_Node000007" class="edge">
<title>Node2&#45;&gt;Node7</title>
<g id="a_edge6_Node000002_Node000007"><a xlink:title=" ">
<path fill="none" stroke="#63b8ff" d="M905.24,-239.29C983.03,-238.13 1171.33,-231.42 1324,-195 1326.37,-194.44 1328.79,-193.75 1331.19,-192.99"/>
<polygon fill="#63b8ff" stroke="#63b8ff" points="1332.63,-196.19 1340.88,-189.55 1330.29,-189.6 1332.63,-196.19"/>
</a>
</g>
</g>
<!-- Node8 -->
<g id="Node000008" class="node">
<title>Node8</title>
<g id="a_Node000008"><a xlink:title=" ">
<polygon fill="#e0e0e0" stroke="#999999" points="1477,-189.5 1405,-189.5 1405,-170.5 1477,-170.5 1477,-189.5"/>
<text text-anchor="middle" x="1441" y="-177.5" font-family="Helvetica,sans-Serif" font-size="10.00">SDL2/SDL.h</text>
</a>
</g>
</g>
<!-- Node2&#45;&gt;Node8 -->
<g id="edge7_Node000002_Node000008" class="edge">
<title>Node2&#45;&gt;Node8</title>
<g id="a_edge7_Node000002_Node000008"><a xlink:title=" ">
<path fill="none" stroke="#63b8ff" d="M905.07,-239.06C990.81,-237.45 1213.2,-229.95 1395,-195 1398.86,-194.26 1402.85,-193.32 1406.79,-192.27"/>
<polygon fill="#63b8ff" stroke="#63b8ff" points="1407.76,-195.64 1416.41,-189.53 1405.84,-188.91 1407.76,-195.64"/>
</a>
</g>
</g>
<!-- Node9 -->
<g id="Node000009" class="node">
<title>Node9</title>
<g id="a_Node000009"><a xlink:title=" ">
<polygon fill="#e0e0e0" stroke="#999999" points="108,-189.5 0,-189.5 0,-170.5 108,-170.5 108,-189.5"/>
<text text-anchor="middle" x="54" y="-177.5" font-family="Helvetica,sans-Serif" font-size="10.00">SDL2/SDL_image.h</text>
</a>
</g>
</g>
<!-- Node2&#45;&gt;Node9 -->
<g id="edge8_Node000002_Node000009" class="edge">
<title>Node2&#45;&gt;Node9</title>
<g id="a_edge8_Node000002_Node000009"><a xlink:title=" ">
<path fill="none" stroke="#63b8ff" d="M832.79,-239.4C723.94,-238.66 390.3,-233.2 117,-195 110.74,-194.12 104.17,-192.95 97.75,-191.66"/>
<polygon fill="#63b8ff" stroke="#63b8ff" points="98.33,-188.21 87.82,-189.56 96.88,-195.06 98.33,-188.21"/>
</a>
</g>
</g>
<!-- Node10 -->
<g id="Node000010" class="node">
<title>Node10</title>
<g id="a_Node000010"><a xlink:title=" ">
<polygon fill="#e0e0e0" stroke="#999999" points="236,-189.5 126,-189.5 126,-170.5 236,-170.5 236,-189.5"/>
<text text-anchor="middle" x="181" y="-177.5" font-family="Helvetica,sans-Serif" font-size="10.00">SDL2/SDL_opengl.h</text>
</a>
</g>
</g>
<!-- Node2&#45;&gt;Node10 -->
<g id="edge9_Node000002_Node000010" class="edge">
<title>Node2&#45;&gt;Node10</title>
<g id="a_edge9_Node000002_Node000010"><a xlink:title=" ">
<path fill="none" stroke="#63b8ff" d="M832.93,-238.74C736.86,-236.34 466.98,-227.02 245,-195 238.72,-194.09 232.14,-192.92 225.69,-191.63"/>
<polygon fill="#63b8ff" stroke="#63b8ff" points="226.22,-188.17 215.71,-189.55 224.78,-195.02 226.22,-188.17"/>
</a>
</g>
</g>
<!-- Node11 -->
<g id="Node000011" class="node">
<title>Node11</title>
<g id="a_Node000011"><a xlink:title=" ">
<polygon fill="#e0e0e0" stroke="#999999" points="358,-189.5 254,-189.5 254,-170.5 358,-170.5 358,-189.5"/>
<text text-anchor="middle" x="306" y="-177.5" font-family="Helvetica,sans-Serif" font-size="10.00">SDL2/SDL_mixer.h</text>
</a>
</g>
</g>
<!-- Node2&#45;&gt;Node11 -->
<g id="edge10_Node000002_Node000011" class="edge">
<title>Node2&#45;&gt;Node11</title>
<g id="a_edge10_Node000002_Node000011"><a xlink:title=" ">
<path fill="none" stroke="#63b8ff" d="M832.88,-238C750.06,-234.19 540.27,-222.43 367,-195 361.22,-194.09 355.18,-192.94 349.24,-191.69"/>
<polygon fill="#63b8ff" stroke="#63b8ff" points="349.92,-188.26 339.4,-189.53 348.42,-195.1 349.92,-188.26"/>
</a>
</g>
</g>
<!-- Node12 -->
<g id="Node000012" class="node">
<title>Node12</title>
<g id="a_Node000012"><a xlink:title=" ">
<polygon fill="#e0e0e0" stroke="#999999" points="464,-189.5 376,-189.5 376,-170.5 464,-170.5 464,-189.5"/>
<text text-anchor="middle" x="420" y="-177.5" font-family="Helvetica,sans-Serif" font-size="10.00">SDL2/SDL_ttf.h</text>
</a>
</g>
</g>
<!-- Node2&#45;&gt;Node12 -->
<g id="edge11_Node000002_Node000012" class="edge">
<title>Node2&#45;&gt;Node12</title>
<g id="a_edge11_Node000002_Node000012"><a xlink:title=" ">
<path fill="none" stroke="#63b8ff" d="M832.97,-237.22C763.08,-232.42 604.41,-219.6 473,-195 468.51,-194.16 463.84,-193.14 459.22,-192.04"/>
<polygon fill="#63b8ff" stroke="#63b8ff" points="459.81,-188.58 449.26,-189.55 458.11,-195.37 459.81,-188.58"/>
</a>
</g>
</g>
<!-- Node13 -->
<g id="Node000013" class="node">
<title>Node13</title>
<g id="a_Node000013"><a xlink:title=" ">
<polygon fill="#e0e0e0" stroke="#999999" points="532,-189.5 482,-189.5 482,-170.5 532,-170.5 532,-189.5"/>
<text text-anchor="middle" x="507" y="-177.5" font-family="Helvetica,sans-Serif" font-size="10.00">GL/gl.h</text>
</a>
</g>
</g>
<!-- Node2&#45;&gt;Node13 -->
<g id="edge12_Node000002_Node000013" class="edge">
<title>Node2&#45;&gt;Node13</title>
<g id="a_edge12_Node000002_Node000013"><a xlink:title=" ">
<path fill="none" stroke="#63b8ff" d="M832.98,-237.63C771.96,-233.79 644.77,-222.91 541,-195 539.06,-194.48 537.08,-193.87 535.1,-193.21"/>
<polygon fill="#63b8ff" stroke="#63b8ff" points="536,-189.81 525.41,-189.58 533.55,-196.37 536,-189.81"/>
</a>
</g>
</g>
<!-- Node14 -->
<g id="Node000014" class="node">
<title>Node14</title>
<g id="a_Node000014"><a xlink:title=" ">
<polygon fill="#e0e0e0" stroke="#999999" points="606,-189.5 550,-189.5 550,-170.5 606,-170.5 606,-189.5"/>
<text text-anchor="middle" x="578" y="-177.5" font-family="Helvetica,sans-Serif" font-size="10.00">GL/glu.h</text>
</a>
</g>
</g>
<!-- Node2&#45;&gt;Node14 -->
<g id="edge13_Node000002_Node000014" class="edge">
<title>Node2&#45;&gt;Node14</title>
<g id="a_edge13_Node000002_Node000014"><a xlink:title=" ">
<path fill="none" stroke="#63b8ff" d="M832.77,-235.34C783.07,-229.13 691.21,-215.89 615,-195 612.71,-194.37 610.36,-193.66 608.01,-192.89"/>
<polygon fill="#63b8ff" stroke="#63b8ff" points="609.11,-189.57 598.52,-189.55 606.79,-196.17 609.11,-189.57"/>
</a>
</g>
</g>
<!-- Node15 -->
<g id="Node000015" class="node">
<title>Node15</title>
<g id="a_Node000015"><a xlink:title=" ">
<polygon fill="#e0e0e0" stroke="#999999" points="690,-189.5 624,-189.5 624,-170.5 690,-170.5 690,-189.5"/>
<text text-anchor="middle" x="657" y="-177.5" font-family="Helvetica,sans-Serif" font-size="10.00">GL/glext.h</text>
</a>
</g>
</g>
<!-- Node2&#45;&gt;Node15 -->
<g id="edge14_Node000002_Node000015" class="edge">
<title>Node2&#45;&gt;Node15</title>
<g id="a_edge14_Node000002_Node000015"><a xlink:title=" ">
<path fill="none" stroke="#63b8ff" d="M833.65,-230.97C799.13,-222.46 745.21,-208.73 699,-195 696.55,-194.27 694.03,-193.5 691.49,-192.7"/>
<polygon fill="#63b8ff" stroke="#63b8ff" points="692.38,-189.31 681.79,-189.56 690.23,-195.97 692.38,-189.31"/>
</a>
</g>
</g>
<!-- Node16 -->
<g id="Node000016" class="node">
<title>Node16</title>
<g id="a_Node000016"><a xlink:title=" ">
<polygon fill="#e0e0e0" stroke="#999999" points="785.5,-189.5 708.5,-189.5 708.5,-170.5 785.5,-170.5 785.5,-189.5"/>
<text text-anchor="middle" x="747" y="-177.5" font-family="Helvetica,sans-Serif" font-size="10.00">cglm/cglm.h</text>
</a>
</g>
</g>
<!-- Node2&#45;&gt;Node16 -->
<g id="edge15_Node000002_Node000016" class="edge">
<title>Node2&#45;&gt;Node16</title>
<g id="a_edge15_Node000002_Node000016"><a xlink:title=" ">
<path fill="none" stroke="#63b8ff" d="M851.26,-230.99C830.93,-221.25 797.39,-205.16 773.86,-193.88"/>
<polygon fill="#63b8ff" stroke="#63b8ff" points="775.29,-190.68 764.76,-189.52 772.26,-197 775.29,-190.68"/>
</a>
</g>
</g>
<!-- Node17 -->
<g id="Node000017" class="node">
<title>Node17</title>
<g id="a_Node000017"><a xlink:title=" ">
<polygon fill="#e0e0e0" stroke="#999999" points="854.5,-189.5 803.5,-189.5 803.5,-170.5 854.5,-170.5 854.5,-189.5"/>
<text text-anchor="middle" x="829" y="-177.5" font-family="Helvetica,sans-Serif" font-size="10.00">math.h</text>
</a>
</g>
</g>
<!-- Node2&#45;&gt;Node17 -->
<g id="edge16_Node000002_Node000017" class="edge">
<title>Node2&#45;&gt;Node17</title>
<g id="a_edge16_Node000002_Node000017"><a xlink:title=" ">
<path fill="none" stroke="#63b8ff" d="M863.1,-230.87C857.25,-222.31 848.13,-208.97 840.79,-198.24"/>
<polygon fill="#63b8ff" stroke="#63b8ff" points="843.46,-195.95 834.93,-189.67 837.68,-199.9 843.46,-195.95"/>
</a>
</g>
</g>
<!-- Node18 -->
<g id="Node000018" class="node">
<title>Node18</title>
<g id="a_Node000018"><a xlink:href="stringio_8h.html" target="_top" xlink:title="Provides utility functions for string and file operations.">
<polygon fill="white" stroke="#666666" points="947,-189.5 873,-189.5 873,-170.5 947,-170.5 947,-189.5"/>
<text text-anchor="middle" x="910" y="-177.5" font-family="Helvetica,sans-Serif" font-size="10.00">io/stringio.h</text>
</a>
</g>
</g>
<!-- Node2&#45;&gt;Node18 -->
<g id="edge17_Node000002_Node000018" class="edge">
<title>Node2&#45;&gt;Node18</title>
<g id="a_edge17_Node000002_Node000018"><a xlink:title=" ">
<path fill="none" stroke="#63b8ff" d="M875.05,-230.87C881.11,-222.23 890.59,-208.7 898.14,-197.92"/>
<polygon fill="#63b8ff" stroke="#63b8ff" points="901.05,-199.87 903.93,-189.67 895.32,-195.85 901.05,-199.87"/>
</a>
</g>
</g>
<!-- Node20 -->
<g id="Node000020" class="node">
<title>Node20</title>
<g id="a_Node000020"><a xlink:href="config_8h.html" target="_top" xlink:title=" ">
<polygon fill="white" stroke="#666666" points="1020.5,-189.5 965.5,-189.5 965.5,-170.5 1020.5,-170.5 1020.5,-189.5"/>
<text text-anchor="middle" x="993" y="-177.5" font-family="Helvetica,sans-Serif" font-size="10.00">config.h</text>
</a>
</g>
</g>
<!-- Node2&#45;&gt;Node20 -->
<g id="edge19_Node000002_Node000020" class="edge">
<title>Node2&#45;&gt;Node20</title>
<g id="a_edge19_Node000002_Node000020"><a xlink:title=" ">
<path fill="none" stroke="#63b8ff" d="M887.03,-230.99C907.69,-221.25 941.78,-205.16 965.7,-193.88"/>
<polygon fill="#63b8ff" stroke="#63b8ff" points="967.4,-196.95 974.95,-189.52 964.41,-190.62 967.4,-196.95"/>
</a>
</g>
</g>
<!-- Node19 -->
<g id="Node000019" class="node">
<title>Node19</title>
<g id="a_Node000019"><a xlink:title=" ">
<polygon fill="#e0e0e0" stroke="#999999" points="936.5,-129 883.5,-129 883.5,-110 936.5,-110 936.5,-129"/>
<text text-anchor="middle" x="910" y="-117" font-family="Helvetica,sans-Serif" font-size="10.00">string.h</text>
</a>
</g>
</g>
<!-- Node18&#45;&gt;Node19 -->
<g id="edge18_Node000018_Node000019" class="edge">
<title>Node18&#45;&gt;Node19</title>
<g id="a_edge18_Node000018_Node000019"><a xlink:title=" ">
<path fill="none" stroke="#63b8ff" d="M910,-170.37C910,-162.25 910,-149.81 910,-139.39"/>
<polygon fill="#63b8ff" stroke="#63b8ff" points="913.5,-139.17 910,-129.17 906.5,-139.17 913.5,-139.17"/>
</a>
</g>
</g>
<!-- Node21 -->
<g id="Node000021" class="node">
<title>Node21</title>
<g id="a_Node000021"><a xlink:href="term_8h.html" target="_top" xlink:title=" ">
<polygon fill="white" stroke="#666666" points="1030.5,-129 955.5,-129 955.5,-110 1030.5,-110 1030.5,-129"/>
<text text-anchor="middle" x="993" y="-117" font-family="Helvetica,sans-Serif" font-size="10.00">term/term.h</text>
</a>
</g>
</g>
<!-- Node20&#45;&gt;Node21 -->
<g id="edge20_Node000020_Node000021" class="edge">
<title>Node20&#45;&gt;Node21</title>
<g id="a_edge20_Node000020_Node000021"><a xlink:title=" ">
<path fill="none" stroke="#63b8ff" d="M993,-170.37C993,-162.25 993,-149.81 993,-139.39"/>
<polygon fill="#63b8ff" stroke="#63b8ff" points="996.5,-139.17 993,-129.17 989.5,-139.17 996.5,-139.17"/>
</a>
</g>
</g>
<!-- Node22 -->
<g id="Node000022" class="node">
<title>Node22</title>
<g id="a_Node000022"><a xlink:href="enhanced__print_8h.html" target="_top" xlink:title=" ">
<polygon fill="white" stroke="#666666" points="1043.5,-74 942.5,-74 942.5,-55 1043.5,-55 1043.5,-74"/>
<text text-anchor="middle" x="993" y="-62" font-family="Helvetica,sans-Serif" font-size="10.00">enhanced_print.h</text>
</a>
</g>
</g>
<!-- Node21&#45;&gt;Node22 -->
<g id="edge21_Node000021_Node000022" class="edge">
<title>Node21&#45;&gt;Node22</title>
<g id="a_edge21_Node000021_Node000022"><a xlink:title=" ">
<path fill="none" stroke="#63b8ff" d="M993,-109.75C993,-102.8 993,-92.85 993,-84.13"/>
<polygon fill="#63b8ff" stroke="#63b8ff" points="996.5,-84.09 993,-74.09 989.5,-84.09 996.5,-84.09"/>
</a>
</g>
</g>
<!-- Node23 -->
<g id="Node000023" class="node">
<title>Node23</title>
<g id="a_Node000023"><a xlink:href="color_8h.html" target="_top" xlink:title=" ">
<polygon fill="white" stroke="#666666" points="1017.5,-19 968.5,-19 968.5,0 1017.5,0 1017.5,-19"/>
<text text-anchor="middle" x="993" y="-7" font-family="Helvetica,sans-Serif" font-size="10.00">color.h</text>
</a>
</g>
</g>
<!-- Node22&#45;&gt;Node23 -->
<g id="edge22_Node000022_Node000023" class="edge">
<title>Node22&#45;&gt;Node23</title>
<g id="a_edge22_Node000022_Node000023"><a xlink:title=" ">
<path fill="none" stroke="#63b8ff" d="M993,-54.75C993,-47.8 993,-37.85 993,-29.13"/>
<polygon fill="#63b8ff" stroke="#63b8ff" points="996.5,-29.09 993,-19.09 989.5,-29.09 996.5,-29.09"/>
</a>
</g>
</g>
<!-- Node24&#45;&gt;Node2 -->
<g id="edge26_Node000024_Node000002" class="edge">
<title>Node24&#45;&gt;Node2</title>
<g id="a_edge26_Node000024_Node000002"><a xlink:title=" ">
<path fill="none" stroke="#63b8ff" d="M981.48,-340.96C957.83,-334.29 928.34,-323.04 907,-305 892.61,-292.84 882.24,-273.78 876,-259.71"/>
<polygon fill="#63b8ff" stroke="#63b8ff" points="879.1,-258.03 872.04,-250.12 872.63,-260.7 879.1,-258.03"/>
</a>
</g>
</g>
<!-- Node25 -->
<g id="Node000025" class="node">
<title>Node25</title>
<g id="a_Node000025"><a xlink:href="classes__types_8h.html" target="_top" xlink:title=" ">
<polygon fill="white" stroke="#666666" points="1010,-305 916,-305 916,-286 1010,-286 1010,-305"/>
<text text-anchor="middle" x="963" y="-293" font-family="Helvetica,sans-Serif" font-size="10.00">classes_types.h</text>
</a>
</g>
</g>
<!-- Node24&#45;&gt;Node25 -->
<g id="edge24_Node000024_Node000025" class="edge">
<title>Node24&#45;&gt;Node25</title>
<g id="a_edge24_Node000024_Node000025"><a xlink:title=" ">
<path fill="none" stroke="#63b8ff" d="M1011.68,-340.98C1003.19,-333.23 990.44,-321.58 980.12,-312.14"/>
<polygon fill="#63b8ff" stroke="#63b8ff" points="982.23,-309.33 972.49,-305.17 977.51,-314.5 982.23,-309.33"/>
</a>
</g>
</g>
<!-- Node26 -->
<g id="Node000026" class="node">
<title>Node26</title>
<g id="a_Node000026"><a xlink:title=" ">
<polygon fill="#e0e0e0" stroke="#999999" points="1127.5,-305 1028.5,-305 1028.5,-286 1127.5,-286 1127.5,-305"/>
<text text-anchor="middle" x="1078" y="-293" font-family="Helvetica,sans-Serif" font-size="10.00">import_classes.h</text>
</a>
</g>
</g>
<!-- Node24&#45;&gt;Node26 -->
<g id="edge25_Node000024_Node000026" class="edge">
<title>Node24&#45;&gt;Node26</title>
<g id="a_edge25_Node000024_Node000026"><a xlink:title=" ">
<path fill="none" stroke="#63b8ff" d="M1030.16,-340.98C1038.5,-333.23 1051.03,-321.58 1061.18,-312.14"/>
<polygon fill="#63b8ff" stroke="#63b8ff" points="1063.74,-314.54 1068.68,-305.17 1058.97,-309.42 1063.74,-314.54"/>
</a>
</g>
</g>
<!-- Node29 -->
<g id="Node000029" class="node">
<title>Node29</title>
<g id="a_Node000029"><a xlink:href="shader_8h.html" target="_top" xlink:title=" ">
<polygon fill="white" stroke="#666666" points="1553,-189.5 1495,-189.5 1495,-170.5 1553,-170.5 1553,-189.5"/>
<text text-anchor="middle" x="1524" y="-177.5" font-family="Helvetica,sans-Serif" font-size="10.00">shader.h</text>
</a>
</g>
</g>
<!-- Node28&#45;&gt;Node29 -->
<g id="edge29_Node000028_Node000029" class="edge">
<title>Node28&#45;&gt;Node29</title>
<g id="a_edge29_Node000028_Node000029"><a xlink:title=" ">
<path fill="none" stroke="#63b8ff" d="M1697.48,-230.99C1661.98,-220.76 1602.26,-203.55 1562.99,-192.23"/>
<polygon fill="#63b8ff" stroke="#63b8ff" points="1563.8,-188.83 1553.22,-189.42 1561.86,-195.55 1563.8,-188.83"/>
</a>
</g>
</g>
<!-- Node30 -->
<g id="Node000030" class="node">
<title>Node30</title>
<g id="a_Node000030"><a xlink:href="model__loader_8h.html" target="_top" xlink:title=" ">
<polygon fill="white" stroke="#666666" points="1788,-195 1666,-195 1666,-165 1788,-165 1788,-195"/>
<text text-anchor="start" x="1674" y="-183" font-family="Helvetica,sans-Serif" font-size="10.00">model_loaders/model</text>
<text text-anchor="middle" x="1727" y="-172" font-family="Helvetica,sans-Serif" font-size="10.00">_loader.h</text>
</a>
</g>
</g>
<!-- Node28&#45;&gt;Node30 -->
<g id="edge30_Node000028_Node000030" class="edge">
<title>Node28&#45;&gt;Node30</title>
<g id="a_edge30_Node000028_Node000030"><a xlink:title=" ">
<path fill="none" stroke="#63b8ff" d="M1727,-230.87C1727,-224.11 1727,-214.35 1727,-205.26"/>
<polygon fill="#63b8ff" stroke="#63b8ff" points="1730.5,-205.11 1727,-195.11 1723.5,-205.11 1730.5,-205.11"/>
</a>
</g>
</g>
<!-- Node31 -->
<g id="Node000031" class="node">
<title>Node31</title>
<g id="a_Node000031"><a xlink:href="obj__loader_8h.html" target="_top" xlink:title=" ">
<polygon fill="white" stroke="#666666" points="1670,-129 1594,-129 1594,-110 1670,-110 1670,-129"/>
<text text-anchor="middle" x="1632" y="-117" font-family="Helvetica,sans-Serif" font-size="10.00">obj_loader.h</text>
</a>
</g>
</g>
<!-- Node30&#45;&gt;Node31 -->
<g id="edge31_Node000030_Node000031" class="edge">
<title>Node30&#45;&gt;Node31</title>
<g id="a_edge31_Node000030_Node000031"><a xlink:title=" ">
<path fill="none" stroke="#63b8ff" d="M1704,-164.84C1689,-155.6 1669.5,-143.59 1654.57,-134.4"/>
<polygon fill="#63b8ff" stroke="#63b8ff" points="1656.31,-131.36 1645.96,-129.09 1652.64,-137.32 1656.31,-131.36"/>
</a>
</g>
</g>
<!-- Node32 -->
<g id="Node000032" class="node">
<title>Node32</title>
<g id="a_Node000032"><a xlink:href="mtl__loader_8h.html" target="_top" xlink:title=" ">
<polygon fill="white" stroke="#666666" points="1765.5,-129 1688.5,-129 1688.5,-110 1765.5,-110 1765.5,-129"/>
<text text-anchor="middle" x="1727" y="-117" font-family="Helvetica,sans-Serif" font-size="10.00">mtl_loader.h</text>
</a>
</g>
</g>
<!-- Node30&#45;&gt;Node32 -->
<g id="edge32_Node000030_Node000032" class="edge">
<title>Node30&#45;&gt;Node32</title>
<g id="a_edge32_Node000030_Node000032"><a xlink:title=" ">
<path fill="none" stroke="#63b8ff" d="M1727,-164.84C1727,-157.21 1727,-147.7 1727,-139.45"/>
<polygon fill="#63b8ff" stroke="#63b8ff" points="1730.5,-139.27 1727,-129.27 1723.5,-139.27 1730.5,-139.27"/>
</a>
</g>
</g>
<!-- Node33 -->
<g id="Node000033" class="node">
<title>Node33</title>
<g id="a_Node000033"><a xlink:href="fbx__loader_8h.html" target="_top" xlink:title=" ">
<polygon fill="white" stroke="#666666" points="1860.5,-129 1783.5,-129 1783.5,-110 1860.5,-110 1860.5,-129"/>
<text text-anchor="middle" x="1822" y="-117" font-family="Helvetica,sans-Serif" font-size="10.00">fbx_loader.h</text>
</a>
</g>
</g>
<!-- Node30&#45;&gt;Node33 -->
<g id="edge33_Node000030_Node000033" class="edge">
<title>Node30&#45;&gt;Node33</title>
<g id="a_edge33_Node000030_Node000033"><a xlink:title=" ">
<path fill="none" stroke="#63b8ff" d="M1750,-164.84C1765,-155.6 1784.5,-143.59 1799.43,-134.4"/>
<polygon fill="#63b8ff" stroke="#63b8ff" points="1801.36,-137.32 1808.04,-129.09 1797.69,-131.36 1801.36,-137.32"/>
</a>
</g>
</g>
<!-- Node35 -->
<g id="Node000035" class="node">
<title>Node35</title>
<g id="a_Node000035"><a xlink:href="input_8h.html" target="_top" xlink:title=" ">
<polygon fill="white" stroke="#666666" points="1663.5,-250 1592.5,-250 1592.5,-231 1663.5,-231 1663.5,-250"/>
<text text-anchor="middle" x="1628" y="-238" font-family="Helvetica,sans-Serif" font-size="10.00">../io/input.h</text>
</a>
</g>
</g>
<!-- Node34&#45;&gt;Node35 -->
<g id="edge35_Node000034_Node000035" class="edge">
<title>Node34&#45;&gt;Node35</title>
<g id="a_edge35_Node000034_Node000035"><a xlink:title=" ">
<path fill="none" stroke="#63b8ff" d="M1647.2,-285.75C1644.09,-278.57 1639.58,-268.18 1635.71,-259.27"/>
<polygon fill="#63b8ff" stroke="#63b8ff" points="1638.92,-257.87 1631.73,-250.09 1632.5,-260.66 1638.92,-257.87"/>
</a>
</g>
</g>
<!-- Node36&#45;&gt;Node29 -->
<g id="edge37_Node000036_Node000029" class="edge">
<title>Node36&#45;&gt;Node29</title>
<g id="a_edge37_Node000036_Node000029"><a xlink:title=" ">
<path fill="none" stroke="#63b8ff" d="M1480.63,-340.84C1474.74,-332.25 1466.39,-318.45 1463,-305 1460.93,-296.81 1461.47,-294.3 1463,-286 1467.75,-260.27 1471,-253.71 1484,-231 1490.93,-218.88 1500.69,-206.63 1508.83,-197.28"/>
<polygon fill="#63b8ff" stroke="#63b8ff" points="1511.65,-199.38 1515.72,-189.6 1506.44,-194.7 1511.65,-199.38"/>
</a>
</g>
</g>
<!-- Node36&#45;&gt;Node34 -->
<g id="edge48_Node000036_Node000034" class="edge">
<title>Node36&#45;&gt;Node34</title>
<g id="a_edge48_Node000036_Node000034"><a xlink:title=" ">
<path fill="none" stroke="#63b8ff" d="M1513.35,-340.98C1540.76,-332.13 1583.89,-318.19 1614.56,-308.28"/>
<polygon fill="#63b8ff" stroke="#63b8ff" points="1616,-311.49 1624.44,-305.08 1613.85,-304.83 1616,-311.49"/>
</a>
</g>
</g>
<!-- Node37 -->
<g id="Node000037" class="node">
<title>Node37</title>
<g id="a_Node000037"><a xlink:href="camera_8h.html" target="_top" xlink:title=" ">
<polygon fill="white" stroke="#666666" points="1252,-305 1146,-305 1146,-286 1252,-286 1252,-305"/>
<text text-anchor="middle" x="1199" y="-293" font-family="Helvetica,sans-Serif" font-size="10.00">../render/camera.h</text>
</a>
</g>
</g>
<!-- Node36&#45;&gt;Node37 -->
<g id="edge38_Node000036_Node000037" class="edge">
<title>Node36&#45;&gt;Node37</title>
<g id="a_edge38_Node000036_Node000037"><a xlink:title=" ">
<path fill="none" stroke="#63b8ff" d="M1442.32,-341.28C1391.89,-332 1309.8,-316.89 1255.1,-306.82"/>
<polygon fill="#63b8ff" stroke="#63b8ff" points="1255.69,-303.37 1245.22,-305.01 1254.42,-310.26 1255.69,-303.37"/>
</a>
</g>
</g>
<!-- Node38 -->
<g id="Node000038" class="node">
<title>Node38</title>
<g id="a_Node000038"><a xlink:href="bodies_8h.html" target="_top" xlink:title=" ">
<polygon fill="white" stroke="#666666" points="1415.5,-305 1308.5,-305 1308.5,-286 1415.5,-286 1415.5,-305"/>
<text text-anchor="middle" x="1362" y="-293" font-family="Helvetica,sans-Serif" font-size="10.00">../physics/bodies.h</text>
</a>
</g>
</g>
<!-- Node36&#45;&gt;Node38 -->
<g id="edge42_Node000036_Node000038" class="edge">
<title>Node36&#45;&gt;Node38</title>
<g id="a_edge42_Node000036_Node000038"><a xlink:title=" ">
<path fill="none" stroke="#63b8ff" d="M1466.92,-340.98C1446.63,-332.38 1415.04,-318.99 1391.83,-309.15"/>
<polygon fill="#63b8ff" stroke="#63b8ff" points="1393.02,-305.85 1382.45,-305.17 1390.29,-312.3 1393.02,-305.85"/>
</a>
</g>
</g>
<!-- Node39 -->
<g id="Node000039" class="node">
<title>Node39</title>
<g id="a_Node000039"><a xlink:href="scripts_8h.html" target="_top" xlink:title=" ">
<polygon fill="white" stroke="#666666" points="1574,-305 1472,-305 1472,-286 1574,-286 1574,-305"/>
<text text-anchor="middle" x="1523" y="-293" font-family="Helvetica,sans-Serif" font-size="10.00">../scripts/scripts.h</text>
</a>
</g>
</g>
<!-- Node36&#45;&gt;Node39 -->
<g id="edge45_Node000036_Node000039" class="edge">
<title>Node36&#45;&gt;Node39</title>
<g id="a_edge45_Node000036_Node000039"><a xlink:title=" ">
<path fill="none" stroke="#63b8ff" d="M1492.94,-340.75C1497.98,-333.34 1505.34,-322.5 1511.51,-313.41"/>
<polygon fill="#63b8ff" stroke="#63b8ff" points="1514.44,-315.33 1517.17,-305.09 1508.65,-311.39 1514.44,-315.33"/>
</a>
</g>
</g>
<!-- Node37&#45;&gt;Node2 -->
<g id="edge39_Node000037_Node000002" class="edge">
<title>Node37&#45;&gt;Node2</title>
<g id="a_edge39_Node000037_Node000002"><a xlink:title=" ">
<path fill="none" stroke="#63b8ff" d="M1145.98,-285.98C1082.08,-275.72 975.76,-258.65 915.12,-248.91"/>
<polygon fill="#63b8ff" stroke="#63b8ff" points="915.5,-245.42 905.07,-247.29 914.39,-252.33 915.5,-245.42"/>
</a>
</g>
</g>
<!-- Node37&#45;&gt;Node27 -->
<g id="edge40_Node000037_Node000027" class="edge">
<title>Node37&#45;&gt;Node27</title>
<g id="a_edge40_Node000037_Node000027"><a xlink:title=" ">
<path fill="none" stroke="#63b8ff" d="M1212.01,-285.98C1224.46,-277.84 1243.46,-265.41 1258.21,-255.76"/>
<polygon fill="#63b8ff" stroke="#63b8ff" points="1260.3,-258.57 1266.75,-250.17 1256.46,-252.72 1260.3,-258.57"/>
</a>
</g>
</g>
<!-- Node37&#45;&gt;Node29 -->
<g id="edge41_Node000037_Node000029" class="edge">
<title>Node37&#45;&gt;Node29</title>
<g id="a_edge41_Node000037_Node000029"><a xlink:title=" ">
<path fill="none" stroke="#63b8ff" d="M1199.12,-285.95C1199.83,-272.07 1203.38,-244.8 1220,-231 1265.89,-192.89 1428.11,-209.4 1486,-195 1488.51,-194.38 1491.08,-193.64 1493.64,-192.85"/>
<polygon fill="#63b8ff" stroke="#63b8ff" points="1495.01,-196.08 1503.35,-189.54 1492.76,-189.45 1495.01,-196.08"/>
</a>
</g>
</g>
<!-- Node38&#45;&gt;Node27 -->
<g id="edge43_Node000038_Node000027" class="edge">
<title>Node38&#45;&gt;Node27</title>
<g id="a_edge43_Node000038_Node000027"><a xlink:title=" ">
<path fill="none" stroke="#63b8ff" d="M1348.83,-285.98C1336.23,-277.84 1317,-265.41 1302.06,-255.76"/>
<polygon fill="#63b8ff" stroke="#63b8ff" points="1303.71,-252.66 1293.41,-250.17 1299.91,-258.54 1303.71,-252.66"/>
</a>
</g>
</g>
<!-- Node38&#45;&gt;Node28 -->
<g id="edge44_Node000038_Node000028" class="edge">
<title>Node38&#45;&gt;Node28</title>
<g id="a_edge44_Node000038_Node000028"><a xlink:title=" ">
<path fill="none" stroke="#63b8ff" d="M1415.51,-287C1477.32,-278.29 1582.06,-263.41 1672,-250 1675.5,-249.48 1679.12,-248.93 1682.76,-248.38"/>
<polygon fill="#63b8ff" stroke="#63b8ff" points="1683.62,-251.79 1692.98,-246.82 1682.56,-244.87 1683.62,-251.79"/>
</a>
</g>
</g>
<!-- Node39&#45;&gt;Node35 -->
<g id="edge46_Node000039_Node000035" class="edge">
<title>Node39&#45;&gt;Node35</title>
<g id="a_edge46_Node000039_Node000035"><a xlink:title=" ">
<path fill="none" stroke="#63b8ff" d="M1539.87,-285.98C1556.61,-277.54 1582.5,-264.47 1601.89,-254.68"/>
<polygon fill="#63b8ff" stroke="#63b8ff" points="1603.47,-257.8 1610.82,-250.17 1600.32,-251.55 1603.47,-257.8"/>
</a>
</g>
</g>
<!-- Node40 -->
<g id="Node000040" class="node">
<title>Node40</title>
<g id="a_Node000040"><a xlink:href="signals_8h.html" target="_top" xlink:title="Signal and slot system for C projects.">
<polygon fill="white" stroke="#666666" points="1553,-250 1493,-250 1493,-231 1553,-231 1553,-250"/>
<text text-anchor="middle" x="1523" y="-238" font-family="Helvetica,sans-Serif" font-size="10.00">signals.h</text>
</a>
</g>
</g>
<!-- Node39&#45;&gt;Node40 -->
<g id="edge47_Node000039_Node000040" class="edge">
<title>Node39&#45;&gt;Node40</title>
<g id="a_edge47_Node000039_Node000040"><a xlink:title=" ">
<path fill="none" stroke="#63b8ff" d="M1523,-285.75C1523,-278.8 1523,-268.85 1523,-260.13"/>
<polygon fill="#63b8ff" stroke="#63b8ff" points="1526.5,-260.09 1523,-250.09 1519.5,-260.09 1526.5,-260.09"/>
</a>
</g>
</g>
<!-- Node42&#45;&gt;Node28 -->
<g id="edge51_Node000042_Node000028" class="edge">
<title>Node42&#45;&gt;Node28</title>
<g id="a_edge51_Node000042_Node000028"><a xlink:title=" ">
<path fill="none" stroke="#63b8ff" d="M1683.81,-340.7C1694.98,-332.79 1710.1,-320.1 1718,-305 1725.19,-291.26 1727.22,-273.69 1727.58,-260.51"/>
<polygon fill="#63b8ff" stroke="#63b8ff" points="1731.08,-260.26 1727.55,-250.27 1724.08,-260.28 1731.08,-260.26"/>
</a>
</g>
</g>
<!-- Node42&#45;&gt;Node34 -->
<g id="edge52_Node000042_Node000034" class="edge">
<title>Node42&#45;&gt;Node34</title>
<g id="a_edge52_Node000042_Node000034"><a xlink:title=" ">
<path fill="none" stroke="#63b8ff" d="M1666.86,-340.75C1664.32,-333.65 1660.64,-323.4 1657.47,-314.56"/>
<polygon fill="#63b8ff" stroke="#63b8ff" points="1660.75,-313.32 1654.08,-305.09 1654.16,-315.68 1660.75,-313.32"/>
</a>
</g>
</g>
</g>
</svg>
