<?xml version="1.0" encoding="UTF-8" standalone="no"?>
<!DOCTYPE svg PUBLIC "-//W3C//DTD SVG 1.1//EN"
 "http://www.w3.org/Graphics/SVG/1.1/DTD/svg11.dtd">
<!-- Generated by graphviz version 2.43.0 (0)
 -->
<!-- Title: src/io/stringio.c Pages: 1 -->
<svg width="1508pt" height="302pt"
 viewBox="0.00 0.00 1507.50 302.00" xmlns="http://www.w3.org/2000/svg" xmlns:xlink="http://www.w3.org/1999/xlink">
<g id="graph0" class="graph" transform="scale(1 1) rotate(0) translate(4 298)">
<title>src/io/stringio.c</title>
<!-- Node1 -->
<g id="Node000001" class="node">
<title>Node1</title>
<g id="a_Node000001"><a xlink:title=" ">
<polygon fill="#999999" stroke="#666666" points="807.5,-294 716.5,-294 716.5,-275 807.5,-275 807.5,-294"/>
<text text-anchor="middle" x="762" y="-282" font-family="Helvetica,sans-Serif" font-size="10.00">src/io/stringio.c</text>
</a>
</g>
</g>
<!-- Node2 -->
<g id="Node000002" class="node">
<title>Node2</title>
<g id="a_Node000002"><a xlink:href="raptiquax_8h.html" target="_top" xlink:title="This file contains type definitions for fixed&#45;width integer types and floating&#45;point types.">
<polygon fill="white" stroke="#666666" points="802.5,-239 721.5,-239 721.5,-220 802.5,-220 802.5,-239"/>
<text text-anchor="middle" x="762" y="-227" font-family="Helvetica,sans-Serif" font-size="10.00">../raptiquax.h</text>
</a>
</g>
</g>
<!-- Node1&#45;&gt;Node2 -->
<g id="edge1_Node000001_Node000002" class="edge">
<title>Node1&#45;&gt;Node2</title>
<g id="a_edge1_Node000001_Node000002"><a xlink:title=" ">
<path fill="none" stroke="#63b8ff" d="M762,-274.75C762,-267.8 762,-257.85 762,-249.13"/>
<polygon fill="#63b8ff" stroke="#63b8ff" points="765.5,-249.09 762,-239.09 758.5,-249.09 765.5,-249.09"/>
</a>
</g>
</g>
<!-- Node3 -->
<g id="Node000003" class="node">
<title>Node3</title>
<g id="a_Node000003"><a xlink:title=" ">
<polygon fill="#e0e0e0" stroke="#999999" points="50,-184 0,-184 0,-165 50,-165 50,-184"/>
<text text-anchor="middle" x="25" y="-172" font-family="Helvetica,sans-Serif" font-size="10.00">stdio.h</text>
</a>
</g>
</g>
<!-- Node2&#45;&gt;Node3 -->
<g id="edge2_Node000002_Node000003" class="edge">
<title>Node2&#45;&gt;Node3</title>
<g id="a_edge2_Node000002_Node000003"><a xlink:title=" ">
<path fill="none" stroke="#63b8ff" d="M721.3,-228.5C614.35,-227.95 316.53,-222.9 60.39,-183.91"/>
<polygon fill="#63b8ff" stroke="#63b8ff" points="60.56,-180.39 50.15,-182.33 59.5,-187.31 60.56,-180.39"/>
</a>
</g>
</g>
<!-- Node4 -->
<g id="Node000004" class="node">
<title>Node4</title>
<g id="a_Node000004"><a xlink:title=" ">
<polygon fill="#e0e0e0" stroke="#999999" points="121.5,-184 68.5,-184 68.5,-165 121.5,-165 121.5,-184"/>
<text text-anchor="middle" x="95" y="-172" font-family="Helvetica,sans-Serif" font-size="10.00">stdint.h</text>
</a>
</g>
</g>
<!-- Node2&#45;&gt;Node4 -->
<g id="edge3_Node000002_Node000004" class="edge">
<title>Node2&#45;&gt;Node4</title>
<g id="a_edge3_Node000002_Node000004"><a xlink:title=" ">
<path fill="none" stroke="#63b8ff" d="M721.15,-227.9C621.82,-225.95 359.77,-217.89 131.79,-183.83"/>
<polygon fill="#63b8ff" stroke="#63b8ff" points="132.05,-180.33 121.64,-182.3 131.01,-187.25 132.05,-180.33"/>
</a>
</g>
</g>
<!-- Node5 -->
<g id="Node000005" class="node">
<title>Node5</title>
<g id="a_Node000005"><a xlink:title=" ">
<polygon fill="#e0e0e0" stroke="#999999" points="202,-184 140,-184 140,-165 202,-165 202,-184"/>
<text text-anchor="middle" x="171" y="-172" font-family="Helvetica,sans-Serif" font-size="10.00">stdbool.h</text>
</a>
</g>
</g>
<!-- Node2&#45;&gt;Node5 -->
<g id="edge4_Node000002_Node000005" class="edge">
<title>Node2&#45;&gt;Node5</title>
<g id="a_edge4_Node000002_Node000005"><a xlink:title=" ">
<path fill="none" stroke="#63b8ff" d="M721.36,-227.01C631.34,-223.33 408.26,-212.08 212.28,-184"/>
<polygon fill="#63b8ff" stroke="#63b8ff" points="212.77,-180.54 202.37,-182.57 211.77,-187.47 212.77,-180.54"/>
</a>
</g>
</g>
<!-- Node6 -->
<g id="Node000006" class="node">
<title>Node6</title>
<g id="a_Node000006"><a xlink:title=" ">
<polygon fill="#e0e0e0" stroke="#999999" points="276,-184 220,-184 220,-165 276,-165 276,-184"/>
<text text-anchor="middle" x="248" y="-172" font-family="Helvetica,sans-Serif" font-size="10.00">stdarg.h</text>
</a>
</g>
</g>
<!-- Node2&#45;&gt;Node6 -->
<g id="edge5_Node000002_Node000006" class="edge">
<title>Node2&#45;&gt;Node6</title>
<g id="a_edge5_Node000002_Node000006"><a xlink:title=" ">
<path fill="none" stroke="#63b8ff" d="M721.25,-226.53C640.18,-222.21 452.84,-210.26 286.14,-183.97"/>
<polygon fill="#63b8ff" stroke="#63b8ff" points="286.63,-180.51 276.21,-182.39 285.53,-187.42 286.63,-180.51"/>
</a>
</g>
</g>
<!-- Node7 -->
<g id="Node000007" class="node">
<title>Node7</title>
<g id="a_Node000007"><a xlink:title=" ">
<polygon fill="#e0e0e0" stroke="#999999" points="347.5,-184 294.5,-184 294.5,-165 347.5,-165 347.5,-184"/>
<text text-anchor="middle" x="321" y="-172" font-family="Helvetica,sans-Serif" font-size="10.00">limits.h</text>
</a>
</g>
</g>
<!-- Node2&#45;&gt;Node7 -->
<g id="edge6_Node000002_Node000007" class="edge">
<title>Node2&#45;&gt;Node7</title>
<g id="a_edge6_Node000002_Node000007"><a xlink:title=" ">
<path fill="none" stroke="#63b8ff" d="M721.24,-225.68C649.68,-220.37 496.66,-207.42 357.65,-183.89"/>
<polygon fill="#63b8ff" stroke="#63b8ff" points="358.11,-180.42 347.66,-182.18 356.93,-187.32 358.11,-180.42"/>
</a>
</g>
</g>
<!-- Node8 -->
<g id="Node000008" class="node">
<title>Node8</title>
<g id="a_Node000008"><a xlink:title=" ">
<polygon fill="#e0e0e0" stroke="#999999" points="438,-184 366,-184 366,-165 438,-165 438,-184"/>
<text text-anchor="middle" x="402" y="-172" font-family="Helvetica,sans-Serif" font-size="10.00">SDL2/SDL.h</text>
</a>
</g>
</g>
<!-- Node2&#45;&gt;Node8 -->
<g id="edge7_Node000002_Node000008" class="edge">
<title>Node2&#45;&gt;Node8</title>
<g id="a_edge7_Node000002_Node000008"><a xlink:title=" ">
<path fill="none" stroke="#63b8ff" d="M721.13,-223.34C662.85,-215.85 552.28,-201.14 448.36,-184.16"/>
<polygon fill="#63b8ff" stroke="#63b8ff" points="448.76,-180.68 438.32,-182.51 447.62,-187.59 448.76,-180.68"/>
</a>
</g>
</g>
<!-- Node9 -->
<g id="Node000009" class="node">
<title>Node9</title>
<g id="a_Node000009"><a xlink:title=" ">
<polygon fill="#e0e0e0" stroke="#999999" points="564,-184 456,-184 456,-165 564,-165 564,-184"/>
<text text-anchor="middle" x="510" y="-172" font-family="Helvetica,sans-Serif" font-size="10.00">SDL2/SDL_image.h</text>
</a>
</g>
</g>
<!-- Node2&#45;&gt;Node9 -->
<g id="edge8_Node000002_Node000009" class="edge">
<title>Node2&#45;&gt;Node9</title>
<g id="a_edge8_Node000002_Node000009"><a xlink:title=" ">
<path fill="none" stroke="#63b8ff" d="M721.51,-219.98C677.83,-210.8 608.19,-196.15 560.85,-186.19"/>
<polygon fill="#63b8ff" stroke="#63b8ff" points="561.31,-182.72 550.81,-184.08 559.87,-189.57 561.31,-182.72"/>
</a>
</g>
</g>
<!-- Node10 -->
<g id="Node000010" class="node">
<title>Node10</title>
<g id="a_Node000010"><a xlink:title=" ">
<polygon fill="#e0e0e0" stroke="#999999" points="692,-184 582,-184 582,-165 692,-165 692,-184"/>
<text text-anchor="middle" x="637" y="-172" font-family="Helvetica,sans-Serif" font-size="10.00">SDL2/SDL_opengl.h</text>
</a>
</g>
</g>
<!-- Node2&#45;&gt;Node10 -->
<g id="edge9_Node000002_Node000010" class="edge">
<title>Node2&#45;&gt;Node10</title>
<g id="a_edge9_Node000002_Node000010"><a xlink:title=" ">
<path fill="none" stroke="#63b8ff" d="M741.92,-219.98C721.63,-211.38 690.04,-197.99 666.83,-188.15"/>
<polygon fill="#63b8ff" stroke="#63b8ff" points="668.02,-184.85 657.45,-184.17 665.29,-191.3 668.02,-184.85"/>
</a>
</g>
</g>
<!-- Node11 -->
<g id="Node000011" class="node">
<title>Node11</title>
<g id="a_Node000011"><a xlink:title=" ">
<polygon fill="#e0e0e0" stroke="#999999" points="814,-184 710,-184 710,-165 814,-165 814,-184"/>
<text text-anchor="middle" x="762" y="-172" font-family="Helvetica,sans-Serif" font-size="10.00">SDL2/SDL_mixer.h</text>
</a>
</g>
</g>
<!-- Node2&#45;&gt;Node11 -->
<g id="edge10_Node000002_Node000011" class="edge">
<title>Node2&#45;&gt;Node11</title>
<g id="a_edge10_Node000002_Node000011"><a xlink:title=" ">
<path fill="none" stroke="#63b8ff" d="M762,-219.75C762,-212.8 762,-202.85 762,-194.13"/>
<polygon fill="#63b8ff" stroke="#63b8ff" points="765.5,-194.09 762,-184.09 758.5,-194.09 765.5,-194.09"/>
</a>
</g>
</g>
<!-- Node12 -->
<g id="Node000012" class="node">
<title>Node12</title>
<g id="a_Node000012"><a xlink:title=" ">
<polygon fill="#e0e0e0" stroke="#999999" points="920,-184 832,-184 832,-165 920,-165 920,-184"/>
<text text-anchor="middle" x="876" y="-172" font-family="Helvetica,sans-Serif" font-size="10.00">SDL2/SDL_ttf.h</text>
</a>
</g>
</g>
<!-- Node2&#45;&gt;Node12 -->
<g id="edge11_Node000002_Node000012" class="edge">
<title>Node2&#45;&gt;Node12</title>
<g id="a_edge11_Node000002_Node000012"><a xlink:title=" ">
<path fill="none" stroke="#63b8ff" d="M780.32,-219.98C798.66,-211.46 827.11,-198.23 848.23,-188.41"/>
<polygon fill="#63b8ff" stroke="#63b8ff" points="849.76,-191.56 857.35,-184.17 846.81,-185.21 849.76,-191.56"/>
</a>
</g>
</g>
<!-- Node13 -->
<g id="Node000013" class="node">
<title>Node13</title>
<g id="a_Node000013"><a xlink:title=" ">
<polygon fill="#e0e0e0" stroke="#999999" points="988,-184 938,-184 938,-165 988,-165 988,-184"/>
<text text-anchor="middle" x="963" y="-172" font-family="Helvetica,sans-Serif" font-size="10.00">GL/gl.h</text>
</a>
</g>
</g>
<!-- Node2&#45;&gt;Node13 -->
<g id="edge12_Node000002_Node000013" class="edge">
<title>Node2&#45;&gt;Node13</title>
<g id="a_edge12_Node000002_Node000013"><a xlink:title=" ">
<path fill="none" stroke="#63b8ff" d="M794.29,-219.98C830.81,-210.36 890.08,-194.73 927.76,-184.79"/>
<polygon fill="#63b8ff" stroke="#63b8ff" points="929.01,-188.08 937.78,-182.15 927.22,-181.31 929.01,-188.08"/>
</a>
</g>
</g>
<!-- Node14 -->
<g id="Node000014" class="node">
<title>Node14</title>
<g id="a_Node000014"><a xlink:title=" ">
<polygon fill="#e0e0e0" stroke="#999999" points="1062,-184 1006,-184 1006,-165 1062,-165 1062,-184"/>
<text text-anchor="middle" x="1034" y="-172" font-family="Helvetica,sans-Serif" font-size="10.00">GL/glu.h</text>
</a>
</g>
</g>
<!-- Node2&#45;&gt;Node14 -->
<g id="edge13_Node000002_Node000014" class="edge">
<title>Node2&#45;&gt;Node14</title>
<g id="a_edge13_Node000002_Node000014"><a xlink:title=" ">
<path fill="none" stroke="#63b8ff" d="M802.85,-221.26C847.79,-213.18 922.37,-199.46 995.85,-184.18"/>
<polygon fill="#63b8ff" stroke="#63b8ff" points="996.67,-187.58 1005.74,-182.11 995.24,-180.73 996.67,-187.58"/>
</a>
</g>
</g>
<!-- Node15 -->
<g id="Node000015" class="node">
<title>Node15</title>
<g id="a_Node000015"><a xlink:title=" ">
<polygon fill="#e0e0e0" stroke="#999999" points="1146,-184 1080,-184 1080,-165 1146,-165 1146,-184"/>
<text text-anchor="middle" x="1113" y="-172" font-family="Helvetica,sans-Serif" font-size="10.00">GL/glext.h</text>
</a>
</g>
</g>
<!-- Node2&#45;&gt;Node15 -->
<g id="edge14_Node000002_Node000015" class="edge">
<title>Node2&#45;&gt;Node15</title>
<g id="a_edge14_Node000002_Node000015"><a xlink:title=" ">
<path fill="none" stroke="#63b8ff" d="M802.61,-223.4C859.88,-216.04 967.89,-201.56 1069.44,-184.19"/>
<polygon fill="#63b8ff" stroke="#63b8ff" points="1070.3,-187.59 1079.56,-182.45 1069.11,-180.69 1070.3,-187.59"/>
</a>
</g>
</g>
<!-- Node16 -->
<g id="Node000016" class="node">
<title>Node16</title>
<g id="a_Node000016"><a xlink:title=" ">
<polygon fill="#e0e0e0" stroke="#999999" points="1241.5,-184 1164.5,-184 1164.5,-165 1241.5,-165 1241.5,-184"/>
<text text-anchor="middle" x="1203" y="-172" font-family="Helvetica,sans-Serif" font-size="10.00">cglm/cglm.h</text>
</a>
</g>
</g>
<!-- Node2&#45;&gt;Node16 -->
<g id="edge15_Node000002_Node000016" class="edge">
<title>Node2&#45;&gt;Node16</title>
<g id="a_edge15_Node000002_Node000016"><a xlink:title=" ">
<path fill="none" stroke="#63b8ff" d="M802.56,-224.75C872.23,-218.13 1019.33,-203.34 1154.16,-184.03"/>
<polygon fill="#63b8ff" stroke="#63b8ff" points="1154.86,-187.47 1164.26,-182.57 1153.86,-180.54 1154.86,-187.47"/>
</a>
</g>
</g>
<!-- Node17 -->
<g id="Node000017" class="node">
<title>Node17</title>
<g id="a_Node000017"><a xlink:title=" ">
<polygon fill="#e0e0e0" stroke="#999999" points="1310.5,-184 1259.5,-184 1259.5,-165 1310.5,-165 1310.5,-184"/>
<text text-anchor="middle" x="1285" y="-172" font-family="Helvetica,sans-Serif" font-size="10.00">math.h</text>
</a>
</g>
</g>
<!-- Node2&#45;&gt;Node17 -->
<g id="edge16_Node000002_Node000017" class="edge">
<title>Node2&#45;&gt;Node17</title>
<g id="a_edge16_Node000002_Node000017"><a xlink:title=" ">
<path fill="none" stroke="#63b8ff" d="M802.75,-226.81C885.24,-222.97 1077.98,-211.76 1249.51,-183.81"/>
<polygon fill="#63b8ff" stroke="#63b8ff" points="1250.18,-187.24 1259.48,-182.16 1249.04,-180.34 1250.18,-187.24"/>
</a>
</g>
</g>
<!-- Node18 -->
<g id="Node000018" class="node">
<title>Node18</title>
<g id="a_Node000018"><a xlink:href="stringio_8h.html" target="_top" xlink:title="Provides utility functions for string and file operations.">
<polygon fill="white" stroke="#666666" points="1403,-184 1329,-184 1329,-165 1403,-165 1403,-184"/>
<text text-anchor="middle" x="1366" y="-172" font-family="Helvetica,sans-Serif" font-size="10.00">io/stringio.h</text>
</a>
</g>
</g>
<!-- Node2&#45;&gt;Node18 -->
<g id="edge17_Node000002_Node000018" class="edge">
<title>Node2&#45;&gt;Node18</title>
<g id="a_edge17_Node000002_Node000018"><a xlink:title=" ">
<path fill="none" stroke="#63b8ff" d="M802.68,-226.64C893.33,-222.18 1118.95,-209.45 1318.76,-183.88"/>
<polygon fill="#63b8ff" stroke="#63b8ff" points="1319.38,-187.32 1328.85,-182.57 1318.49,-180.38 1319.38,-187.32"/>
</a>
</g>
</g>
<!-- Node20 -->
<g id="Node000020" class="node">
<title>Node20</title>
<g id="a_Node000020"><a xlink:href="config_8h.html" target="_top" xlink:title=" ">
<polygon fill="white" stroke="#666666" points="1476.5,-184 1421.5,-184 1421.5,-165 1476.5,-165 1476.5,-184"/>
<text text-anchor="middle" x="1449" y="-172" font-family="Helvetica,sans-Serif" font-size="10.00">config.h</text>
</a>
</g>
</g>
<!-- Node2&#45;&gt;Node20 -->
<g id="edge19_Node000002_Node000020" class="edge">
<title>Node2&#45;&gt;Node20</title>
<g id="a_edge19_Node000002_Node000020"><a xlink:title=" ">
<path fill="none" stroke="#63b8ff" d="M802.55,-227.94C903.7,-226.06 1175.35,-218.13 1411.07,-183.87"/>
<polygon fill="#63b8ff" stroke="#63b8ff" points="1411.83,-187.3 1421.21,-182.38 1410.81,-180.37 1411.83,-187.3"/>
</a>
</g>
</g>
<!-- Node19 -->
<g id="Node000019" class="node">
<title>Node19</title>
<g id="a_Node000019"><a xlink:title=" ">
<polygon fill="#e0e0e0" stroke="#999999" points="1392.5,-129 1339.5,-129 1339.5,-110 1392.5,-110 1392.5,-129"/>
<text text-anchor="middle" x="1366" y="-117" font-family="Helvetica,sans-Serif" font-size="10.00">string.h</text>
</a>
</g>
</g>
<!-- Node18&#45;&gt;Node19 -->
<g id="edge18_Node000018_Node000019" class="edge">
<title>Node18&#45;&gt;Node19</title>
<g id="a_edge18_Node000018_Node000019"><a xlink:title=" ">
<path fill="none" stroke="#63b8ff" d="M1366,-164.75C1366,-157.8 1366,-147.85 1366,-139.13"/>
<polygon fill="#63b8ff" stroke="#63b8ff" points="1369.5,-139.09 1366,-129.09 1362.5,-139.09 1369.5,-139.09"/>
</a>
</g>
</g>
<!-- Node21 -->
<g id="Node000021" class="node">
<title>Node21</title>
<g id="a_Node000021"><a xlink:href="term_8h.html" target="_top" xlink:title=" ">
<polygon fill="white" stroke="#666666" points="1486.5,-129 1411.5,-129 1411.5,-110 1486.5,-110 1486.5,-129"/>
<text text-anchor="middle" x="1449" y="-117" font-family="Helvetica,sans-Serif" font-size="10.00">term/term.h</text>
</a>
</g>
</g>
<!-- Node20&#45;&gt;Node21 -->
<g id="edge20_Node000020_Node000021" class="edge">
<title>Node20&#45;&gt;Node21</title>
<g id="a_edge20_Node000020_Node000021"><a xlink:title=" ">
<path fill="none" stroke="#63b8ff" d="M1449,-164.75C1449,-157.8 1449,-147.85 1449,-139.13"/>
<polygon fill="#63b8ff" stroke="#63b8ff" points="1452.5,-139.09 1449,-129.09 1445.5,-139.09 1452.5,-139.09"/>
</a>
</g>
</g>
<!-- Node22 -->
<g id="Node000022" class="node">
<title>Node22</title>
<g id="a_Node000022"><a xlink:href="enhanced__print_8h.html" target="_top" xlink:title=" ">
<polygon fill="white" stroke="#666666" points="1499.5,-74 1398.5,-74 1398.5,-55 1499.5,-55 1499.5,-74"/>
<text text-anchor="middle" x="1449" y="-62" font-family="Helvetica,sans-Serif" font-size="10.00">enhanced_print.h</text>
</a>
</g>
</g>
<!-- Node21&#45;&gt;Node22 -->
<g id="edge21_Node000021_Node000022" class="edge">
<title>Node21&#45;&gt;Node22</title>
<g id="a_edge21_Node000021_Node000022"><a xlink:title=" ">
<path fill="none" stroke="#63b8ff" d="M1449,-109.75C1449,-102.8 1449,-92.85 1449,-84.13"/>
<polygon fill="#63b8ff" stroke="#63b8ff" points="1452.5,-84.09 1449,-74.09 1445.5,-84.09 1452.5,-84.09"/>
</a>
</g>
</g>
<!-- Node23 -->
<g id="Node000023" class="node">
<title>Node23</title>
<g id="a_Node000023"><a xlink:href="color_8h.html" target="_top" xlink:title=" ">
<polygon fill="white" stroke="#666666" points="1473.5,-19 1424.5,-19 1424.5,0 1473.5,0 1473.5,-19"/>
<text text-anchor="middle" x="1449" y="-7" font-family="Helvetica,sans-Serif" font-size="10.00">color.h</text>
</a>
</g>
</g>
<!-- Node22&#45;&gt;Node23 -->
<g id="edge22_Node000022_Node000023" class="edge">
<title>Node22&#45;&gt;Node23</title>
<g id="a_edge22_Node000022_Node000023"><a xlink:title=" ">
<path fill="none" stroke="#63b8ff" d="M1449,-54.75C1449,-47.8 1449,-37.85 1449,-29.13"/>
<polygon fill="#63b8ff" stroke="#63b8ff" points="1452.5,-29.09 1449,-19.09 1445.5,-29.09 1452.5,-29.09"/>
</a>
</g>
</g>
</g>
</svg>
