<?xml version="1.0" encoding="UTF-8" standalone="no"?>
<!DOCTYPE svg PUBLIC "-//W3C//DTD SVG 1.1//EN"
 "http://www.w3.org/Graphics/SVG/1.1/DTD/svg11.dtd">
<!-- Generated by graphviz version 2.43.0 (0)
 -->
<!-- Title: peer Pages: 1 -->
<svg width="262pt" height="93pt"
 viewBox="0.00 0.00 261.50 93.00" xmlns="http://www.w3.org/2000/svg" xmlns:xlink="http://www.w3.org/1999/xlink">
<g id="graph0" class="graph" transform="scale(1 1) rotate(0) translate(4 89)">
<title>peer</title>
<!-- Node1 -->
<g id="Node000001" class="node">
<title>Node1</title>
<g id="a_Node000001"><a xlink:title=" ">
<polygon fill="#999999" stroke="#666666" points="153,-19 115,-19 115,0 153,0 153,-19"/>
<text text-anchor="middle" x="134" y="-7" font-family="Helvetica,sans-Serif" font-size="10.00">peer</text>
</a>
</g>
</g>
<!-- Node2 -->
<g id="Node000002" class="node">
<title>Node2</title>
<g id="a_Node000002"><a xlink:href="structsocket__request__listener.html" target="_top" xlink:title=" ">
<polygon fill="white" stroke="#666666" points="132,-85 0,-85 0,-66 132,-66 132,-85"/>
<text text-anchor="middle" x="66" y="-73" font-family="Helvetica,sans-Serif" font-size="10.00">socket_request_listener</text>
</a>
</g>
</g>
<!-- Node2&#45;&gt;Node1 -->
<g id="edge1_Node000001_Node000002" class="edge">
<title>Node2&#45;&gt;Node1</title>
<g id="a_edge1_Node000001_Node000002"><a xlink:title=" ">
<path fill="none" stroke="#9a32cd" stroke-dasharray="5,2" d="M82.65,-58.83C95.81,-46.44 113.72,-29.59 124.54,-19.41"/>
<polygon fill="#9a32cd" stroke="#9a32cd" points="80.05,-56.47 75.17,-65.87 84.85,-61.56 80.05,-56.47"/>
</a>
</g>
<text text-anchor="middle" x="125" y="-40" font-family="Helvetica,sans-Serif" font-size="10.00" fill="grey"> listener</text>
</g>
<!-- Node3 -->
<g id="Node000003" class="node">
<title>Node3</title>
<g id="a_Node000003"><a xlink:href="structmessage__handler.html" target="_top" xlink:title="Structure to handle messages.">
<polygon fill="white" stroke="#666666" points="253.5,-85 150.5,-85 150.5,-66 253.5,-66 253.5,-85"/>
<text text-anchor="middle" x="202" y="-73" font-family="Helvetica,sans-Serif" font-size="10.00">message_handler</text>
</a>
</g>
</g>
<!-- Node3&#45;&gt;Node1 -->
<g id="edge2_Node000001_Node000003" class="edge">
<title>Node3&#45;&gt;Node1</title>
<g id="a_edge2_Node000001_Node000003"><a xlink:title=" ">
<path fill="none" stroke="#9a32cd" stroke-dasharray="5,2" d="M185.35,-58.83C172.19,-46.44 154.28,-29.59 143.46,-19.41"/>
<polygon fill="#9a32cd" stroke="#9a32cd" points="183.15,-61.56 192.83,-65.87 187.95,-56.47 183.15,-61.56"/>
</a>
</g>
<text text-anchor="middle" x="195" y="-40" font-family="Helvetica,sans-Serif" font-size="10.00" fill="grey"> handlers</text>
</g>
</g>
</svg>
