<?xml version="1.0" encoding="UTF-8" standalone="no"?>
<!DOCTYPE svg PUBLIC "-//W3C//DTD SVG 1.1//EN"
 "http://www.w3.org/Graphics/SVG/1.1/DTD/svg11.dtd">
<!-- Generated by graphviz version 2.43.0 (0)
 -->
<!-- Title: BufferCollection Pages: 1 -->
<svg width="329pt" height="162pt"
 viewBox="0.00 0.00 328.50 162.00" xmlns="http://www.w3.org/2000/svg" xmlns:xlink="http://www.w3.org/1999/xlink">
<g id="graph0" class="graph" transform="scale(1 1) rotate(0) translate(4 158)">
<title>BufferCollection</title>
<!-- Node1 -->
<g id="Node000001" class="node">
<title>Node1</title>
<g id="a_Node000001"><a xlink:title="Structure to hold various buffer collections.">
<polygon fill="#999999" stroke="#666666" points="202,-19 107,-19 107,0 202,0 202,-19"/>
<text text-anchor="middle" x="154.5" y="-7" font-family="Helvetica,sans-Serif" font-size="10.00">BufferCollection</text>
</a>
</g>
</g>
<!-- Node2 -->
<g id="Node000002" class="node">
<title>Node2</title>
<g id="a_Node000002"><a xlink:href="structLightingBuffer.html" target="_top" xlink:title="Buffer structure to manage an array of lighting nodes.">
<polygon fill="white" stroke="#666666" points="85,-85 0,-85 0,-66 85,-66 85,-85"/>
<text text-anchor="middle" x="42.5" y="-73" font-family="Helvetica,sans-Serif" font-size="10.00">LightingBuffer</text>
</a>
</g>
</g>
<!-- Node2&#45;&gt;Node1 -->
<g id="edge1_Node000001_Node000002" class="edge">
<title>Node2&#45;&gt;Node1</title>
<g id="a_edge1_Node000001_Node000002"><a xlink:title=" ">
<path fill="none" stroke="#9a32cd" stroke-dasharray="5,2" d="M66.37,-60.86C88.42,-48.26 120.52,-29.92 139.28,-19.2"/>
<polygon fill="#9a32cd" stroke="#9a32cd" points="64.55,-57.87 57.6,-65.87 68.02,-63.95 64.55,-57.87"/>
</a>
</g>
<text text-anchor="middle" x="140.5" y="-40" font-family="Helvetica,sans-Serif" font-size="10.00" fill="grey"> lightingBuffer</text>
</g>
<!-- Node3 -->
<g id="Node000003" class="node">
<title>Node3</title>
<g id="a_Node000003"><a xlink:href="classNode.html" target="_top" xlink:title="Represents a node in the tree structure.">
<polygon fill="white" stroke="#666666" points="184.5,-152.5 142.5,-152.5 142.5,-133.5 184.5,-133.5 184.5,-152.5"/>
<text text-anchor="middle" x="163.5" y="-140.5" font-family="Helvetica,sans-Serif" font-size="10.00">Node</text>
</a>
</g>
</g>
<!-- Node3&#45;&gt;Node2 -->
<g id="edge2_Node000002_Node000003" class="edge">
<title>Node3&#45;&gt;Node2</title>
<g id="a_edge2_Node000002_Node000003"><a xlink:title=" ">
<path fill="none" stroke="#9a32cd" stroke-dasharray="5,2" d="M132.5,-134.06C117.4,-129.45 99.35,-122.8 84.5,-114 71.04,-106.03 58,-93.37 50.11,-85"/>
<polygon fill="#9a32cd" stroke="#9a32cd" points="131.82,-137.51 142.4,-136.93 133.77,-130.79 131.82,-137.51"/>
</a>
</g>
<text text-anchor="middle" x="107.5" y="-106" font-family="Helvetica,sans-Serif" font-size="10.00" fill="grey"> lightings</text>
</g>
<!-- Node3&#45;&gt;Node3 -->
<g id="edge3_Node000003_Node000003" class="edge">
<title>Node3&#45;&gt;Node3</title>
<g id="a_edge3_Node000003_Node000003"><a xlink:title=" ">
<path fill="none" stroke="#9a32cd" stroke-dasharray="5,2" d="M194.91,-148.74C199.45,-147.83 202.5,-145.91 202.5,-143 202.5,-138.22 194.27,-136.13 184.76,-136.72"/>
<polygon fill="#9a32cd" stroke="#9a32cd" points="194.56,-145.26 184.76,-149.28 194.93,-152.25 194.56,-145.26"/>
</a>
</g>
<text text-anchor="middle" x="224" y="-146" font-family="Helvetica,sans-Serif" font-size="10.00" fill="grey"> children</text>
<text text-anchor="middle" x="224" y="-135" font-family="Helvetica,sans-Serif" font-size="10.00" fill="grey">parent</text>
</g>
<!-- Node4 -->
<g id="Node000004" class="node">
<title>Node4</title>
<g id="a_Node000004"><a xlink:href="unionBehaviorAttribute.html" target="_top" xlink:title=" ">
<polygon fill="white" stroke="#666666" points="206,-85 103,-85 103,-66 206,-66 206,-85"/>
<text text-anchor="middle" x="154.5" y="-73" font-family="Helvetica,sans-Serif" font-size="10.00">BehaviorAttribute</text>
</a>
</g>
</g>
<!-- Node3&#45;&gt;Node4 -->
<g id="edge5_Node000004_Node000003" class="edge">
<title>Node3&#45;&gt;Node4</title>
<g id="a_edge5_Node000004_Node000003"><a xlink:title=" ">
<path fill="none" stroke="#9a32cd" stroke-dasharray="5,2" d="M143.63,-126.26C140.31,-122.62 137.36,-118.48 135.5,-114 131.31,-103.89 138.55,-92.75 145.27,-85.26"/>
<polygon fill="#9a32cd" stroke="#9a32cd" points="141.49,-129.05 151.15,-133.39 146.3,-123.97 141.49,-129.05"/>
</a>
</g>
<text text-anchor="middle" x="149.5" y="-106" font-family="Helvetica,sans-Serif" font-size="10.00" fill="grey"> node</text>
</g>
<!-- Node5 -->
<g id="Node000005" class="node">
<title>Node5</title>
<g id="a_Node000005"><a xlink:href="structCollisionBuffer.html" target="_top" xlink:title="Represents a buffer for collision shapes.">
<polygon fill="white" stroke="#666666" points="312.5,-85 224.5,-85 224.5,-66 312.5,-66 312.5,-85"/>
<text text-anchor="middle" x="268.5" y="-73" font-family="Helvetica,sans-Serif" font-size="10.00">CollisionBuffer</text>
</a>
</g>
</g>
<!-- Node3&#45;&gt;Node5 -->
<g id="edge7_Node000005_Node000003" class="edge">
<title>Node3&#45;&gt;Node5</title>
<g id="a_edge7_Node000005_Node000003"><a xlink:title=" ">
<path fill="none" stroke="#9a32cd" stroke-dasharray="5,2" d="M192.19,-128.95C201.14,-124.55 210.9,-119.37 219.5,-114 233.67,-105.15 248.77,-93.16 258.4,-85.14"/>
<polygon fill="#9a32cd" stroke="#9a32cd" points="190.41,-125.93 182.91,-133.41 193.44,-132.24 190.41,-125.93"/>
</a>
</g>
<text text-anchor="middle" x="278" y="-106" font-family="Helvetica,sans-Serif" font-size="10.00" fill="grey"> collisionsShapes</text>
</g>
<!-- Node4&#45;&gt;Node3 -->
<g id="edge4_Node000003_Node000004" class="edge">
<title>Node4&#45;&gt;Node3</title>
<g id="a_edge4_Node000003_Node000004"><a xlink:title=" ">
<path fill="none" stroke="#9a32cd" stroke-dasharray="5,2" d="M164.71,-94.6C165.86,-97.35 166.85,-100.2 167.5,-103 169.87,-113.21 167.94,-125.25 166.03,-133.22"/>
<polygon fill="#9a32cd" stroke="#9a32cd" points="167.74,-92.84 160.16,-85.43 161.47,-95.95 167.74,-92.84"/>
</a>
</g>
<text text-anchor="middle" x="192.5" y="-106" font-family="Helvetica,sans-Serif" font-size="10.00" fill="grey"> attribute</text>
</g>
<!-- Node5&#45;&gt;Node1 -->
<g id="edge6_Node000001_Node000005" class="edge">
<title>Node5&#45;&gt;Node1</title>
<g id="a_edge6_Node000001_Node000005"><a xlink:title=" ">
<path fill="none" stroke="#9a32cd" stroke-dasharray="5,2" d="M244.2,-60.86C221.76,-48.26 189.09,-29.92 170,-19.2"/>
<polygon fill="#9a32cd" stroke="#9a32cd" points="242.69,-64.03 253.13,-65.87 246.12,-57.92 242.69,-64.03"/>
</a>
</g>
<text text-anchor="middle" x="255" y="-40" font-family="Helvetica,sans-Serif" font-size="10.00" fill="grey"> collisionBuffer</text>
</g>
</g>
</svg>
