<?xml version="1.0" encoding="UTF-8" standalone="no"?>
<!DOCTYPE svg PUBLIC "-//W3C//DTD SVG 1.1//EN"
 "http://www.w3.org/Graphics/SVG/1.1/DTD/svg11.dtd">
<!-- Generated by graphviz version 2.43.0 (0)
 -->
<!-- Title: Tree Pages: 1 -->
<svg width="170pt" height="96pt"
 viewBox="0.00 0.00 170.00 96.00" xmlns="http://www.w3.org/2000/svg" xmlns:xlink="http://www.w3.org/1999/xlink">
<g id="graph0" class="graph" transform="scale(1 1) rotate(0) translate(4 92)">
<title>Tree</title>
<!-- Node1 -->
<g id="Node000001" class="node">
<title>Node1</title>
<g id="a_Node000001"><a xlink:title="Represents a tree structure containing nodes, a camera, MSAA settings, and scripts.">
<polygon fill="#999999" stroke="#666666" points="37,-19 0,-19 0,0 37,0 37,-19"/>
<text text-anchor="middle" x="18.5" y="-7" font-family="Helvetica,sans-Serif" font-size="10.00">Tree</text>
</a>
</g>
</g>
<!-- Node2 -->
<g id="Node000002" class="node">
<title>Node2</title>
<g id="a_Node000002"><a xlink:href="classNode.html" target="_top" xlink:title="Represents a node in the tree structure.">
<polygon fill="white" stroke="#666666" points="85.5,-86.5 43.5,-86.5 43.5,-67.5 85.5,-67.5 85.5,-86.5"/>
<text text-anchor="middle" x="64.5" y="-74.5" font-family="Helvetica,sans-Serif" font-size="10.00">Node</text>
</a>
</g>
</g>
<!-- Node2&#45;&gt;Node1 -->
<g id="edge1_Node000001_Node000002" class="edge">
<title>Node2&#45;&gt;Node1</title>
<g id="a_edge1_Node000001_Node000002"><a xlink:title=" ">
<path fill="none" stroke="#9a32cd" stroke-dasharray="5,2" d="M34.34,-63.03C28.44,-59.08 23,-54.11 19.5,-48 14.45,-39.19 15.18,-27.19 16.53,-19.16"/>
<polygon fill="#9a32cd" stroke="#9a32cd" points="32.73,-66.14 43.14,-68.11 36.23,-60.08 32.73,-66.14"/>
</a>
</g>
<text text-anchor="middle" x="31" y="-40" font-family="Helvetica,sans-Serif" font-size="10.00" fill="grey"> root</text>
</g>
<!-- Node2&#45;&gt;Node2 -->
<g id="edge2_Node000002_Node000002" class="edge">
<title>Node2&#45;&gt;Node2</title>
<g id="a_edge2_Node000002_Node000002"><a xlink:title=" ">
<path fill="none" stroke="#9a32cd" stroke-dasharray="5,2" d="M95.91,-82.74C100.45,-81.83 103.5,-79.91 103.5,-77 103.5,-72.22 95.27,-70.13 85.76,-70.72"/>
<polygon fill="#9a32cd" stroke="#9a32cd" points="95.56,-79.26 85.76,-83.28 95.93,-86.25 95.56,-79.26"/>
</a>
</g>
<text text-anchor="middle" x="125" y="-80" font-family="Helvetica,sans-Serif" font-size="10.00" fill="grey"> children</text>
<text text-anchor="middle" x="125" y="-69" font-family="Helvetica,sans-Serif" font-size="10.00" fill="grey">parent</text>
</g>
<!-- Node3 -->
<g id="Node000003" class="node">
<title>Node3</title>
<g id="a_Node000003"><a xlink:href="unionBehaviorAttribute.html" target="_top" xlink:title=" ">
<polygon fill="white" stroke="#666666" points="162,-19 59,-19 59,0 162,0 162,-19"/>
<text text-anchor="middle" x="110.5" y="-7" font-family="Helvetica,sans-Serif" font-size="10.00">BehaviorAttribute</text>
</a>
</g>
</g>
<!-- Node2&#45;&gt;Node3 -->
<g id="edge4_Node000003_Node000002" class="edge">
<title>Node2&#45;&gt;Node3</title>
<g id="a_edge4_Node000003_Node000002"><a xlink:title=" ">
<path fill="none" stroke="#9a32cd" stroke-dasharray="5,2" d="M58.75,-57.43C57.7,-50.6 57.89,-43.05 61.5,-37 66.35,-28.86 74.67,-23.07 83.09,-19.02"/>
<polygon fill="#9a32cd" stroke="#9a32cd" points="55.37,-58.37 61.1,-67.28 62.18,-56.74 55.37,-58.37"/>
</a>
</g>
<text text-anchor="middle" x="75.5" y="-40" font-family="Helvetica,sans-Serif" font-size="10.00" fill="grey"> node</text>
</g>
<!-- Node3&#45;&gt;Node2 -->
<g id="edge3_Node000002_Node000003" class="edge">
<title>Node3&#45;&gt;Node2</title>
<g id="a_edge3_Node000002_Node000003"><a xlink:title=" ">
<path fill="none" stroke="#9a32cd" stroke-dasharray="5,2" d="M104.04,-28.34C101.28,-34.83 97.72,-42.02 93.5,-48 88.34,-55.32 81.09,-62.32 75.13,-67.49"/>
<polygon fill="#9a32cd" stroke="#9a32cd" points="107.3,-29.61 107.69,-19.02 100.78,-27.06 107.3,-29.61"/>
</a>
</g>
<text text-anchor="middle" x="122.5" y="-40" font-family="Helvetica,sans-Serif" font-size="10.00" fill="grey"> attribute</text>
</g>
</g>
</svg>
