<?xml version="1.0" encoding="UTF-8" standalone="no"?>
<!DOCTYPE svg PUBLIC "-//W3C//DTD SVG 1.1//EN"
 "http://www.w3.org/Graphics/SVG/1.1/DTD/svg11.dtd">
<!-- Generated by graphviz version 2.43.0 (0)
 -->
<!-- Title: MemoryCaches Pages: 1 -->
<svg width="620pt" height="379pt"
 viewBox="0.00 0.00 619.50 379.00" xmlns="http://www.w3.org/2000/svg" xmlns:xlink="http://www.w3.org/1999/xlink">
<g id="graph0" class="graph" transform="scale(1 1) rotate(0) translate(4 375)">
<title>MemoryCaches</title>
<!-- Node1 -->
<g id="Node000001" class="node">
<title>Node1</title>
<g id="a_Node000001"><a xlink:title="Structure to manage all types of caches.">
<polygon fill="#999999" stroke="#666666" points="349,-19 257,-19 257,0 349,0 349,-19"/>
<text text-anchor="middle" x="303" y="-7" font-family="Helvetica,sans-Serif" font-size="10.00">MemoryCaches</text>
</a>
</g>
</g>
<!-- Node2 -->
<g id="Node000002" class="node">
<title>Node2</title>
<g id="a_Node000002"><a xlink:href="structCubeMapCache.html" target="_top" xlink:title="Structure to cache cube map textures.">
<polygon fill="white" stroke="#666666" points="92,-85 0,-85 0,-66 92,-66 92,-85"/>
<text text-anchor="middle" x="46" y="-73" font-family="Helvetica,sans-Serif" font-size="10.00">CubeMapCache</text>
</a>
</g>
</g>
<!-- Node2&#45;&gt;Node1 -->
<g id="edge1_Node000001_Node000002" class="edge">
<title>Node2&#45;&gt;Node1</title>
<g id="a_edge1_Node000001_Node000002"><a xlink:title=" ">
<path fill="none" stroke="#9a32cd" stroke-dasharray="5,2" d="M58.47,-57.89C65.16,-50.23 74.07,-41.79 84,-37 113.58,-22.73 201.81,-15.68 256.84,-12.59"/>
<polygon fill="#9a32cd" stroke="#9a32cd" points="55.73,-55.72 52.14,-65.68 61.16,-60.13 55.73,-55.72"/>
</a>
</g>
<text text-anchor="middle" x="123" y="-40" font-family="Helvetica,sans-Serif" font-size="10.00" fill="grey"> cubeMapCache</text>
</g>
<!-- Node3 -->
<g id="Node000003" class="node">
<title>Node3</title>
<g id="a_Node000003"><a xlink:href="structTextureCache.html" target="_top" xlink:title="Structure to cache textures.">
<polygon fill="white" stroke="#666666" points="193.5,-85 110.5,-85 110.5,-66 193.5,-66 193.5,-85"/>
<text text-anchor="middle" x="152" y="-73" font-family="Helvetica,sans-Serif" font-size="10.00">TextureCache</text>
</a>
</g>
</g>
<!-- Node3&#45;&gt;Node1 -->
<g id="edge2_Node000001_Node000003" class="edge">
<title>Node3&#45;&gt;Node1</title>
<g id="a_edge2_Node000001_Node000003"><a xlink:title=" ">
<path fill="none" stroke="#9a32cd" stroke-dasharray="5,2" d="M160.01,-56.79C164.11,-49.62 169.78,-41.88 177,-37 200.42,-21.15 231.46,-14.49 256.87,-11.81"/>
<polygon fill="#9a32cd" stroke="#9a32cd" points="156.79,-55.42 155.39,-65.92 163.03,-58.58 156.79,-55.42"/>
</a>
</g>
<text text-anchor="middle" x="211.5" y="-40" font-family="Helvetica,sans-Serif" font-size="10.00" fill="grey"> textureCache</text>
</g>
<!-- Node4 -->
<g id="Node000004" class="node">
<title>Node4</title>
<g id="a_Node000004"><a xlink:href="structModelCache.html" target="_top" xlink:title="Structure to cache models.">
<polygon fill="white" stroke="#666666" points="288.5,-85 211.5,-85 211.5,-66 288.5,-66 288.5,-85"/>
<text text-anchor="middle" x="250" y="-73" font-family="Helvetica,sans-Serif" font-size="10.00">ModelCache</text>
</a>
</g>
</g>
<!-- Node4&#45;&gt;Node1 -->
<g id="edge3_Node000001_Node000004" class="edge">
<title>Node4&#45;&gt;Node1</title>
<g id="a_edge3_Node000001_Node000004"><a xlink:title=" ">
<path fill="none" stroke="#9a32cd" stroke-dasharray="5,2" d="M249.16,-55.97C249.68,-49.5 251.25,-42.49 255,-37 260.48,-28.98 269.21,-23.15 277.74,-19.03"/>
<polygon fill="#9a32cd" stroke="#9a32cd" points="245.66,-55.95 249.06,-65.99 252.66,-56.02 245.66,-55.95"/>
</a>
</g>
<text text-anchor="middle" x="287" y="-40" font-family="Helvetica,sans-Serif" font-size="10.00" fill="grey"> modelCache</text>
</g>
<!-- Node5 -->
<g id="Node000005" class="node">
<title>Node5</title>
<g id="a_Node000005"><a xlink:href="structModelData.html" target="_top" xlink:title="Structure representing the data of a 3D model.">
<polygon fill="white" stroke="#666666" points="285,-151 215,-151 215,-132 285,-132 285,-151"/>
<text text-anchor="middle" x="250" y="-139" font-family="Helvetica,sans-Serif" font-size="10.00">ModelData</text>
</a>
</g>
</g>
<!-- Node5&#45;&gt;Node4 -->
<g id="edge4_Node000004_Node000005" class="edge">
<title>Node5&#45;&gt;Node4</title>
<g id="a_edge4_Node000004_Node000005"><a xlink:title=" ">
<path fill="none" stroke="#9a32cd" stroke-dasharray="5,2" d="M250,-121.58C250,-109.63 250,-94.72 250,-85.41"/>
<polygon fill="#9a32cd" stroke="#9a32cd" points="246.5,-121.87 250,-131.87 253.5,-121.87 246.5,-121.87"/>
</a>
</g>
<text text-anchor="middle" x="267" y="-106" font-family="Helvetica,sans-Serif" font-size="10.00" fill="grey"> model</text>
</g>
<!-- Node6 -->
<g id="Node000006" class="node">
<title>Node6</title>
<g id="a_Node000006"><a xlink:href="structMaterial.html" target="_top" xlink:title="Structure representing a material with various properties.">
<polygon fill="white" stroke="#666666" points="189.5,-283 132.5,-283 132.5,-264 189.5,-264 189.5,-283"/>
<text text-anchor="middle" x="161" y="-271" font-family="Helvetica,sans-Serif" font-size="10.00">Material</text>
</a>
</g>
</g>
<!-- Node6&#45;&gt;Node5 -->
<g id="edge5_Node000005_Node000006" class="edge">
<title>Node6&#45;&gt;Node5</title>
<g id="a_edge5_Node000005_Node000006"><a xlink:title=" ">
<path fill="none" stroke="#9a32cd" stroke-dasharray="5,2" d="M148.88,-254.83C139.65,-238.98 130.22,-215.59 141,-198 156.98,-171.93 189.47,-157.63 214.84,-150.1"/>
<polygon fill="#9a32cd" stroke="#9a32cd" points="146.12,-257.01 154.41,-263.6 152.04,-253.27 146.12,-257.01"/>
</a>
</g>
<text text-anchor="middle" x="166" y="-205" font-family="Helvetica,sans-Serif" font-size="10.00" fill="grey"> materials</text>
</g>
<!-- Node7 -->
<g id="Node000007" class="node">
<title>Node7</title>
<g id="a_Node000007"><a xlink:href="structModelObjectData.html" target="_top" xlink:title="Structure representing the data of a 3D model object.">
<polygon fill="white" stroke="#666666" points="300.5,-217 199.5,-217 199.5,-198 300.5,-198 300.5,-217"/>
<text text-anchor="middle" x="250" y="-205" font-family="Helvetica,sans-Serif" font-size="10.00">ModelObjectData</text>
</a>
</g>
</g>
<!-- Node6&#45;&gt;Node7 -->
<g id="edge7_Node000007_Node000006" class="edge">
<title>Node6&#45;&gt;Node7</title>
<g id="a_edge7_Node000007_Node000006"><a xlink:title=" ">
<path fill="none" stroke="#9a32cd" stroke-dasharray="5,2" d="M181.39,-257.83C198.85,-245.28 223.39,-227.63 237.9,-217.2"/>
<polygon fill="#9a32cd" stroke="#9a32cd" points="179.08,-255.19 173,-263.87 183.17,-260.87 179.08,-255.19"/>
</a>
</g>
<text text-anchor="middle" x="235" y="-238" font-family="Helvetica,sans-Serif" font-size="10.00" fill="grey"> materials</text>
</g>
<!-- Node7&#45;&gt;Node5 -->
<g id="edge6_Node000005_Node000007" class="edge">
<title>Node7&#45;&gt;Node5</title>
<g id="a_edge6_Node000005_Node000007"><a xlink:title=" ">
<path fill="none" stroke="#9a32cd" stroke-dasharray="5,2" d="M250,-187.58C250,-175.63 250,-160.72 250,-151.41"/>
<polygon fill="#9a32cd" stroke="#9a32cd" points="246.5,-187.87 250,-197.87 253.5,-187.87 246.5,-187.87"/>
</a>
</g>
<text text-anchor="middle" x="269.5" y="-172" font-family="Helvetica,sans-Serif" font-size="10.00" fill="grey"> objects</text>
</g>
<!-- Node8 -->
<g id="Node000008" class="node">
<title>Node8</title>
<g id="a_Node000008"><a xlink:href="structModelAnimation.html" target="_top" xlink:title="Structure representing the data of a 3D model animation.">
<polygon fill="white" stroke="#666666" points="415.5,-217 318.5,-217 318.5,-198 415.5,-198 415.5,-217"/>
<text text-anchor="middle" x="367" y="-205" font-family="Helvetica,sans-Serif" font-size="10.00">ModelAnimation</text>
</a>
</g>
</g>
<!-- Node8&#45;&gt;Node5 -->
<g id="edge8_Node000005_Node000008" class="edge">
<title>Node8&#45;&gt;Node5</title>
<g id="a_edge8_Node000005_Node000008"><a xlink:title=" ">
<path fill="none" stroke="#9a32cd" stroke-dasharray="5,2" d="M342.37,-193.03C319.33,-180.42 285.59,-161.97 265.9,-151.2"/>
<polygon fill="#9a32cd" stroke="#9a32cd" points="340.77,-196.14 351.22,-197.87 344.13,-190 340.77,-196.14"/>
</a>
</g>
<text text-anchor="middle" x="344" y="-172" font-family="Helvetica,sans-Serif" font-size="10.00" fill="grey"> animations</text>
</g>
<!-- Node9 -->
<g id="Node000009" class="node">
<title>Node9</title>
<g id="a_Node000009"><a xlink:href="structBone.html" target="_top" xlink:title="Structure representing a bone in a 3D model.">
<polygon fill="white" stroke="#666666" points="387.5,-283 346.5,-283 346.5,-264 387.5,-264 387.5,-283"/>
<text text-anchor="middle" x="367" y="-271" font-family="Helvetica,sans-Serif" font-size="10.00">Bone</text>
</a>
</g>
</g>
<!-- Node9&#45;&gt;Node8 -->
<g id="edge9_Node000008_Node000009" class="edge">
<title>Node9&#45;&gt;Node8</title>
<g id="a_edge9_Node000008_Node000009"><a xlink:title=" ">
<path fill="none" stroke="#9a32cd" stroke-dasharray="5,2" d="M367,-253.58C367,-241.63 367,-226.72 367,-217.41"/>
<polygon fill="#9a32cd" stroke="#9a32cd" points="363.5,-253.87 367,-263.87 370.5,-253.87 363.5,-253.87"/>
</a>
</g>
<text text-anchor="middle" x="386" y="-238" font-family="Helvetica,sans-Serif" font-size="10.00" fill="grey"> targets</text>
</g>
<!-- Node10 -->
<g id="Node000010" class="node">
<title>Node10</title>
<g id="a_Node000010"><a xlink:href="structModelKeyframe.html" target="_top" xlink:title="Structure representing the data of a 3D model keyframe.">
<polygon fill="white" stroke="#666666" points="414,-371 320,-371 320,-352 414,-352 414,-371"/>
<text text-anchor="middle" x="367" y="-359" font-family="Helvetica,sans-Serif" font-size="10.00">ModelKeyframe</text>
</a>
</g>
</g>
<!-- Node10&#45;&gt;Node9 -->
<g id="edge10_Node000009_Node000010" class="edge">
<title>Node10&#45;&gt;Node9</title>
<g id="a_edge10_Node000009_Node000010"><a xlink:title=" ">
<path fill="none" stroke="#9a32cd" stroke-dasharray="5,2" d="M367,-341.91C367,-323.67 367,-296.65 367,-283.03"/>
<polygon fill="#9a32cd" stroke="#9a32cd" points="363.5,-341.94 367,-351.94 370.5,-341.94 363.5,-341.94"/>
</a>
</g>
<text text-anchor="middle" x="420" y="-326" font-family="Helvetica,sans-Serif" font-size="10.00" fill="grey"> rotationKeyframes</text>
<text text-anchor="middle" x="420" y="-315" font-family="Helvetica,sans-Serif" font-size="10.00" fill="grey">scaleKeyframes</text>
<text text-anchor="middle" x="420" y="-304" font-family="Helvetica,sans-Serif" font-size="10.00" fill="grey">translationKeyframes</text>
</g>
<!-- Node11 -->
<g id="Node000011" class="node">
<title>Node11</title>
<g id="a_Node000011"><a xlink:href="structShaderCache.html" target="_top" xlink:title="Structure to cache shaders.">
<polygon fill="white" stroke="#666666" points="387,-85 307,-85 307,-66 387,-66 387,-85"/>
<text text-anchor="middle" x="347" y="-73" font-family="Helvetica,sans-Serif" font-size="10.00">ShaderCache</text>
</a>
</g>
</g>
<!-- Node11&#45;&gt;Node1 -->
<g id="edge11_Node000001_Node000011" class="edge">
<title>Node11&#45;&gt;Node1</title>
<g id="a_edge11_Node000001_Node000011"><a xlink:title=" ">
<path fill="none" stroke="#9a32cd" stroke-dasharray="5,2" d="M336.3,-57.17C332.24,-50.76 327.51,-43.48 323,-37 318.79,-30.94 313.79,-24.32 309.84,-19.21"/>
<polygon fill="#9a32cd" stroke="#9a32cd" points="333.39,-59.11 341.66,-65.74 339.32,-55.4 333.39,-59.11"/>
</a>
</g>
<text text-anchor="middle" x="362.5" y="-40" font-family="Helvetica,sans-Serif" font-size="10.00" fill="grey"> shaderCache</text>
</g>
<!-- Node12 -->
<g id="Node000012" class="node">
<title>Node12</title>
<g id="a_Node000012"><a xlink:href="structMixMusicCache.html" target="_top" xlink:title="Structure to cache music.">
<polygon fill="white" stroke="#666666" points="498.5,-85 405.5,-85 405.5,-66 498.5,-66 498.5,-85"/>
<text text-anchor="middle" x="452" y="-73" font-family="Helvetica,sans-Serif" font-size="10.00">MixMusicCache</text>
</a>
</g>
</g>
<!-- Node12&#45;&gt;Node1 -->
<g id="edge12_Node000001_Node000012" class="edge">
<title>Node12&#45;&gt;Node1</title>
<g id="a_edge12_Node000001_Node000012"><a xlink:title=" ">
<path fill="none" stroke="#9a32cd" stroke-dasharray="5,2" d="M434.36,-59.34C424.74,-51.72 412.3,-42.88 400,-37 383.46,-29.1 364.17,-23.22 347.17,-19.03"/>
<polygon fill="#9a32cd" stroke="#9a32cd" points="432.38,-62.24 442.33,-65.87 436.82,-56.82 432.38,-62.24"/>
</a>
</g>
<text text-anchor="middle" x="449.5" y="-40" font-family="Helvetica,sans-Serif" font-size="10.00" fill="grey"> musicCache</text>
</g>
<!-- Node13 -->
<g id="Node000013" class="node">
<title>Node13</title>
<g id="a_Node000013"><a xlink:href="structMixChunkCache.html" target="_top" xlink:title="Structure to cache sound effects.">
<polygon fill="white" stroke="#666666" points="611.5,-85 516.5,-85 516.5,-66 611.5,-66 611.5,-85"/>
<text text-anchor="middle" x="564" y="-73" font-family="Helvetica,sans-Serif" font-size="10.00">MixChunkCache</text>
</a>
</g>
</g>
<!-- Node13&#45;&gt;Node1 -->
<g id="edge13_Node000001_Node000013" class="edge">
<title>Node13&#45;&gt;Node1</title>
<g id="a_edge13_Node000001_Node000013"><a xlink:title=" ">
<path fill="none" stroke="#9a32cd" stroke-dasharray="5,2" d="M540.6,-61.11C525.25,-52.91 504.49,-42.9 485,-37 439.92,-23.36 386.37,-16.64 349.07,-13.39"/>
<polygon fill="#9a32cd" stroke="#9a32cd" points="538.94,-64.19 549.39,-65.93 542.3,-58.05 538.94,-64.19"/>
</a>
</g>
<text text-anchor="middle" x="542.5" y="-40" font-family="Helvetica,sans-Serif" font-size="10.00" fill="grey"> chunkCache</text>
</g>
</g>
</svg>
