<?xml version="1.0" encoding="UTF-8" standalone="no"?>
<!DOCTYPE svg PUBLIC "-//W3C//DTD SVG 1.1//EN"
 "http://www.w3.org/Graphics/SVG/1.1/DTD/svg11.dtd">
<!-- Generated by graphviz version 2.43.0 (0)
 -->
<!-- Title: LightingBuffer Pages: 1 -->
<svg width="218pt" height="96pt"
 viewBox="0.00 0.00 218.00 96.00" xmlns="http://www.w3.org/2000/svg" xmlns:xlink="http://www.w3.org/1999/xlink">
<g id="graph0" class="graph" transform="scale(1 1) rotate(0) translate(4 92)">
<title>LightingBuffer</title>
<!-- Node1 -->
<g id="Node000001" class="node">
<title>Node1</title>
<g id="a_Node000001"><a xlink:title="Buffer structure to manage an array of lighting nodes.">
<polygon fill="#999999" stroke="#666666" points="85,-19 0,-19 0,0 85,0 85,-19"/>
<text text-anchor="middle" x="42.5" y="-7" font-family="Helvetica,sans-Serif" font-size="10.00">LightingBuffer</text>
</a>
</g>
</g>
<!-- Node2 -->
<g id="Node000002" class="node">
<title>Node2</title>
<g id="a_Node000002"><a xlink:href="classNode.html" target="_top" xlink:title="Represents a node in the tree structure.">
<polygon fill="white" stroke="#666666" points="132.5,-86.5 90.5,-86.5 90.5,-67.5 132.5,-67.5 132.5,-86.5"/>
<text text-anchor="middle" x="111.5" y="-74.5" font-family="Helvetica,sans-Serif" font-size="10.00">Node</text>
</a>
</g>
</g>
<!-- Node2&#45;&gt;Node1 -->
<g id="edge1_Node000001_Node000002" class="edge">
<title>Node2&#45;&gt;Node1</title>
<g id="a_edge1_Node000001_Node000002"><a xlink:title=" ">
<path fill="none" stroke="#9a32cd" stroke-dasharray="5,2" d="M81.08,-66.45C71.46,-62.14 61.52,-56.14 54.5,-48 47.44,-39.82 44.53,-27.46 43.33,-19.18"/>
<polygon fill="#9a32cd" stroke="#9a32cd" points="79.89,-69.74 90.47,-70.21 82.49,-63.24 79.89,-69.74"/>
</a>
</g>
<text text-anchor="middle" x="77.5" y="-40" font-family="Helvetica,sans-Serif" font-size="10.00" fill="grey"> lightings</text>
</g>
<!-- Node2&#45;&gt;Node2 -->
<g id="edge2_Node000002_Node000002" class="edge">
<title>Node2&#45;&gt;Node2</title>
<g id="a_edge2_Node000002_Node000002"><a xlink:title=" ">
<path fill="none" stroke="#9a32cd" stroke-dasharray="5,2" d="M142.91,-82.74C147.45,-81.83 150.5,-79.91 150.5,-77 150.5,-72.22 142.27,-70.13 132.76,-70.72"/>
<polygon fill="#9a32cd" stroke="#9a32cd" points="142.56,-79.26 132.76,-83.28 142.93,-86.25 142.56,-79.26"/>
</a>
</g>
<text text-anchor="middle" x="172" y="-80" font-family="Helvetica,sans-Serif" font-size="10.00" fill="grey"> children</text>
<text text-anchor="middle" x="172" y="-69" font-family="Helvetica,sans-Serif" font-size="10.00" fill="grey">parent</text>
</g>
<!-- Node3 -->
<g id="Node000003" class="node">
<title>Node3</title>
<g id="a_Node000003"><a xlink:href="unionBehaviorAttribute.html" target="_top" xlink:title=" ">
<polygon fill="white" stroke="#666666" points="210,-19 107,-19 107,0 210,0 210,-19"/>
<text text-anchor="middle" x="158.5" y="-7" font-family="Helvetica,sans-Serif" font-size="10.00">BehaviorAttribute</text>
</a>
</g>
</g>
<!-- Node2&#45;&gt;Node3 -->
<g id="edge4_Node000003_Node000002" class="edge">
<title>Node2&#45;&gt;Node3</title>
<g id="a_edge4_Node000003_Node000002"><a xlink:title=" ">
<path fill="none" stroke="#9a32cd" stroke-dasharray="5,2" d="M105.72,-57.42C104.67,-50.58 104.87,-43.03 108.5,-37 113.41,-28.83 121.78,-23.05 130.28,-19.02"/>
<polygon fill="#9a32cd" stroke="#9a32cd" points="102.35,-58.36 108.09,-67.27 109.16,-56.73 102.35,-58.36"/>
</a>
</g>
<text text-anchor="middle" x="122.5" y="-40" font-family="Helvetica,sans-Serif" font-size="10.00" fill="grey"> node</text>
</g>
<!-- Node3&#45;&gt;Node2 -->
<g id="edge3_Node000002_Node000003" class="edge">
<title>Node3&#45;&gt;Node2</title>
<g id="a_edge3_Node000002_Node000003"><a xlink:title=" ">
<path fill="none" stroke="#9a32cd" stroke-dasharray="5,2" d="M151.51,-28.33C148.57,-34.81 144.83,-42.01 140.5,-48 135.26,-55.26 128.01,-62.26 122.07,-67.45"/>
<polygon fill="#9a32cd" stroke="#9a32cd" points="154.78,-29.59 155.42,-19.01 148.32,-26.88 154.78,-29.59"/>
</a>
</g>
<text text-anchor="middle" x="169.5" y="-40" font-family="Helvetica,sans-Serif" font-size="10.00" fill="grey"> attribute</text>
</g>
</g>
</svg>
