<?xml version="1.0" encoding="UTF-8" standalone="no"?>
<!DOCTYPE svg PUBLIC "-//W3C//DTD SVG 1.1//EN"
 "http://www.w3.org/Graphics/SVG/1.1/DTD/svg11.dtd">
<!-- Generated by graphviz version 2.43.0 (0)
 -->
<!-- Title: RaptiquaX_t Pages: 1 -->
<svg width="1277pt" height="736pt"
 viewBox="0.00 0.00 1277.00 736.00" xmlns="http://www.w3.org/2000/svg" xmlns:xlink="http://www.w3.org/1999/xlink">
<g id="graph0" class="graph" transform="scale(1 1) rotate(0) translate(4 732)">
<title>RaptiquaX_t</title>
<!-- Node1 -->
<g id="Node000001" class="node">
<title>Node1</title>
<g id="a_Node000001"><a xlink:title="The main structure that holds all the data and state of the engine.">
<polygon fill="#999999" stroke="#666666" points="1269,-245 1193,-245 1193,-226 1269,-226 1269,-245"/>
<text text-anchor="middle" x="1231" y="-233" font-family="Helvetica,sans-Serif" font-size="10.00">RaptiquaX_t</text>
</a>
</g>
</g>
<!-- Node2 -->
<g id="Node000002" class="node">
<title>Node2</title>
<g id="a_Node000002"><a xlink:href="structMemoryCaches.html" target="_top" xlink:title="Structure to manage all types of caches.">
<polygon fill="white" stroke="#666666" points="1075.5,-617 983.5,-617 983.5,-598 1075.5,-598 1075.5,-617"/>
<text text-anchor="middle" x="1029.5" y="-605" font-family="Helvetica,sans-Serif" font-size="10.00">MemoryCaches</text>
</a>
</g>
</g>
<!-- Node2&#45;&gt;Node1 -->
<g id="edge1_Node000001_Node000002" class="edge">
<title>Node2&#45;&gt;Node1</title>
<g id="a_edge1_Node000001_Node000002"><a xlink:title=" ">
<path fill="none" stroke="#9a32cd" stroke-dasharray="5,2" d="M1050.27,-591.18C1081.53,-564.31 1142.17,-507.58 1175,-446.5 1213.18,-375.48 1225.9,-276.57 1229.1,-245.35"/>
<polygon fill="#9a32cd" stroke="#9a32cd" points="1047.65,-588.82 1042.28,-597.95 1052.17,-594.16 1047.65,-588.82"/>
</a>
</g>
<text text-anchor="middle" x="1135" y="-550.5" font-family="Helvetica,sans-Serif" font-size="10.00" fill="grey"> memoryCaches</text>
</g>
<!-- Node3 -->
<g id="Node000003" class="node">
<title>Node3</title>
<g id="a_Node000003"><a xlink:href="structCubeMapCache.html" target="_top" xlink:title="Structure to cache cube map textures.">
<polygon fill="white" stroke="#666666" points="862.5,-728 770.5,-728 770.5,-709 862.5,-709 862.5,-728"/>
<text text-anchor="middle" x="816.5" y="-716" font-family="Helvetica,sans-Serif" font-size="10.00">CubeMapCache</text>
</a>
</g>
</g>
<!-- Node3&#45;&gt;Node2 -->
<g id="edge2_Node000002_Node000003" class="edge">
<title>Node3&#45;&gt;Node2</title>
<g id="a_edge2_Node000002_Node000003"><a xlink:title=" ">
<path fill="none" stroke="#9a32cd" stroke-dasharray="5,2" d="M872.57,-714.16C901.49,-709.87 936.53,-701.37 964,-684.5 992.08,-667.25 1013.86,-633.5 1023.33,-617.02"/>
<polygon fill="#9a32cd" stroke="#9a32cd" points="872.05,-710.7 862.61,-715.51 872.99,-717.63 872.05,-710.7"/>
</a>
</g>
<text text-anchor="middle" x="925" y="-714.5" font-family="Helvetica,sans-Serif" font-size="10.00" fill="grey"> cubeMapCache</text>
</g>
<!-- Node4 -->
<g id="Node000004" class="node">
<title>Node4</title>
<g id="a_Node000004"><a xlink:href="structTextureCache.html" target="_top" xlink:title="Structure to cache textures.">
<polygon fill="white" stroke="#666666" points="858,-691 775,-691 775,-672 858,-672 858,-691"/>
<text text-anchor="middle" x="816.5" y="-679" font-family="Helvetica,sans-Serif" font-size="10.00">TextureCache</text>
</a>
</g>
</g>
<!-- Node4&#45;&gt;Node2 -->
<g id="edge3_Node000002_Node000004" class="edge">
<title>Node4&#45;&gt;Node2</title>
<g id="a_edge3_Node000002_Node000004"><a xlink:title=" ">
<path fill="none" stroke="#9a32cd" stroke-dasharray="5,2" d="M868,-674.54C896.86,-669.49 933.31,-661.25 964,-648.5 983.6,-640.35 1003.9,-626.37 1016.36,-617.04"/>
<polygon fill="#9a32cd" stroke="#9a32cd" points="867.41,-671.09 858.13,-676.2 868.57,-678 867.41,-671.09"/>
</a>
</g>
<text text-anchor="middle" x="925" y="-672.5" font-family="Helvetica,sans-Serif" font-size="10.00" fill="grey"> textureCache</text>
</g>
<!-- Node5 -->
<g id="Node000005" class="node">
<title>Node5</title>
<g id="a_Node000005"><a xlink:href="structModelCache.html" target="_top" xlink:title="Structure to cache models.">
<polygon fill="white" stroke="#666666" points="855,-654 778,-654 778,-635 855,-635 855,-654"/>
<text text-anchor="middle" x="816.5" y="-642" font-family="Helvetica,sans-Serif" font-size="10.00">ModelCache</text>
</a>
</g>
</g>
<!-- Node5&#45;&gt;Node2 -->
<g id="edge4_Node000002_Node000005" class="edge">
<title>Node5&#45;&gt;Node2</title>
<g id="a_edge4_Node000002_Node000005"><a xlink:title=" ">
<path fill="none" stroke="#9a32cd" stroke-dasharray="5,2" d="M865.4,-637.7C894.07,-633.45 931.21,-627.63 964,-621.5 971.21,-620.15 978.84,-618.6 986.24,-617.04"/>
<polygon fill="#9a32cd" stroke="#9a32cd" points="864.62,-634.27 855.24,-639.19 865.64,-641.2 864.62,-634.27"/>
</a>
</g>
<text text-anchor="middle" x="925" y="-636.5" font-family="Helvetica,sans-Serif" font-size="10.00" fill="grey"> modelCache</text>
</g>
<!-- Node6 -->
<g id="Node000006" class="node">
<title>Node6</title>
<g id="a_Node000006"><a xlink:href="structModelData.html" target="_top" xlink:title="Structure representing the data of a 3D model.">
<polygon fill="white" stroke="#666666" points="644,-654 574,-654 574,-635 644,-635 644,-654"/>
<text text-anchor="middle" x="609" y="-642" font-family="Helvetica,sans-Serif" font-size="10.00">ModelData</text>
</a>
</g>
</g>
<!-- Node6&#45;&gt;Node5 -->
<g id="edge5_Node000005_Node000006" class="edge">
<title>Node6&#45;&gt;Node5</title>
<g id="a_edge5_Node000005_Node000006"><a xlink:title=" ">
<path fill="none" stroke="#9a32cd" stroke-dasharray="5,2" d="M654.83,-644.5C691.64,-644.5 743.16,-644.5 777.85,-644.5"/>
<polygon fill="#9a32cd" stroke="#9a32cd" points="654.4,-641 644.4,-644.5 654.4,-648 654.4,-641"/>
</a>
</g>
<text text-anchor="middle" x="704.5" y="-647.5" font-family="Helvetica,sans-Serif" font-size="10.00" fill="grey"> model</text>
</g>
<!-- Node7 -->
<g id="Node000007" class="node">
<title>Node7</title>
<g id="a_Node000007"><a xlink:href="structMaterial.html" target="_top" xlink:title="Structure representing a material with various properties.">
<polygon fill="white" stroke="#666666" points="293,-687 236,-687 236,-668 293,-668 293,-687"/>
<text text-anchor="middle" x="264.5" y="-675" font-family="Helvetica,sans-Serif" font-size="10.00">Material</text>
</a>
</g>
</g>
<!-- Node7&#45;&gt;Node6 -->
<g id="edge6_Node000006_Node000007" class="edge">
<title>Node7&#45;&gt;Node6</title>
<g id="a_edge6_Node000006_Node000007"><a xlink:title=" ">
<path fill="none" stroke="#9a32cd" stroke-dasharray="5,2" d="M303.12,-678.08C358.84,-678.28 466.39,-676.17 556,-659.5 563.39,-658.13 571.24,-656.15 578.54,-654.07"/>
<polygon fill="#9a32cd" stroke="#9a32cd" points="303.03,-674.58 293.01,-678.01 302.98,-681.58 303.03,-674.58"/>
</a>
</g>
<text text-anchor="middle" x="429.5" y="-679.5" font-family="Helvetica,sans-Serif" font-size="10.00" fill="grey"> materials</text>
</g>
<!-- Node8 -->
<g id="Node000008" class="node">
<title>Node8</title>
<g id="a_Node000008"><a xlink:href="structModelObjectData.html" target="_top" xlink:title="Structure representing the data of a 3D model object.">
<polygon fill="white" stroke="#666666" points="480,-654 379,-654 379,-635 480,-635 480,-654"/>
<text text-anchor="middle" x="429.5" y="-642" font-family="Helvetica,sans-Serif" font-size="10.00">ModelObjectData</text>
</a>
</g>
</g>
<!-- Node7&#45;&gt;Node8 -->
<g id="edge8_Node000008_Node000007" class="edge">
<title>Node7&#45;&gt;Node8</title>
<g id="a_edge8_Node000008_Node000007"><a xlink:title=" ">
<path fill="none" stroke="#9a32cd" stroke-dasharray="5,2" d="M303.03,-667.35C305.72,-666.7 308.4,-666.07 311,-665.5 333.16,-660.61 357.86,-656.06 378.87,-652.45"/>
<polygon fill="#9a32cd" stroke="#9a32cd" points="302.17,-663.95 293.33,-669.78 303.88,-670.74 302.17,-663.95"/>
</a>
</g>
<text text-anchor="middle" x="336" y="-668.5" font-family="Helvetica,sans-Serif" font-size="10.00" fill="grey"> materials</text>
</g>
<!-- Node8&#45;&gt;Node6 -->
<g id="edge7_Node000006_Node000008" class="edge">
<title>Node8&#45;&gt;Node6</title>
<g id="a_edge7_Node000006_Node000008"><a xlink:title=" ">
<path fill="none" stroke="#9a32cd" stroke-dasharray="5,2" d="M490.45,-644.5C518.25,-644.5 550.29,-644.5 573.89,-644.5"/>
<polygon fill="#9a32cd" stroke="#9a32cd" points="490.42,-641 480.42,-644.5 490.42,-648 490.42,-641"/>
</a>
</g>
<text text-anchor="middle" x="527" y="-647.5" font-family="Helvetica,sans-Serif" font-size="10.00" fill="grey"> objects</text>
</g>
<!-- Node9 -->
<g id="Node000009" class="node">
<title>Node9</title>
<g id="a_Node000009"><a xlink:href="structModelAnimation.html" target="_top" xlink:title="Structure representing the data of a 3D model animation.">
<polygon fill="white" stroke="#666666" points="478,-617 381,-617 381,-598 478,-598 478,-617"/>
<text text-anchor="middle" x="429.5" y="-605" font-family="Helvetica,sans-Serif" font-size="10.00">ModelAnimation</text>
</a>
</g>
</g>
<!-- Node9&#45;&gt;Node6 -->
<g id="edge9_Node000006_Node000009" class="edge">
<title>Node9&#45;&gt;Node6</title>
<g id="a_edge9_Node000006_Node000009"><a xlink:title=" ">
<path fill="none" stroke="#9a32cd" stroke-dasharray="5,2" d="M488.05,-616.26C509.49,-619.87 533.95,-624.4 556,-629.5 562.87,-631.09 570.17,-633.03 577.07,-634.99"/>
<polygon fill="#9a32cd" stroke="#9a32cd" points="488.56,-612.79 478.12,-614.61 487.41,-619.7 488.56,-612.79"/>
</a>
</g>
<text text-anchor="middle" x="527" y="-632.5" font-family="Helvetica,sans-Serif" font-size="10.00" fill="grey"> animations</text>
</g>
<!-- Node10 -->
<g id="Node000010" class="node">
<title>Node10</title>
<g id="a_Node000010"><a xlink:href="structBone.html" target="_top" xlink:title="Structure representing a bone in a 3D model.">
<polygon fill="white" stroke="#666666" points="285,-617 244,-617 244,-598 285,-598 285,-617"/>
<text text-anchor="middle" x="264.5" y="-605" font-family="Helvetica,sans-Serif" font-size="10.00">Bone</text>
</a>
</g>
</g>
<!-- Node10&#45;&gt;Node9 -->
<g id="edge10_Node000009_Node000010" class="edge">
<title>Node10&#45;&gt;Node9</title>
<g id="a_edge10_Node000009_Node000010"><a xlink:title=" ">
<path fill="none" stroke="#9a32cd" stroke-dasharray="5,2" d="M295.37,-607.5C319.24,-607.5 353.17,-607.5 380.8,-607.5"/>
<polygon fill="#9a32cd" stroke="#9a32cd" points="295.16,-604 285.16,-607.5 295.16,-611 295.16,-604"/>
</a>
</g>
<text text-anchor="middle" x="336" y="-610.5" font-family="Helvetica,sans-Serif" font-size="10.00" fill="grey"> targets</text>
</g>
<!-- Node11 -->
<g id="Node000011" class="node">
<title>Node11</title>
<g id="a_Node000011"><a xlink:href="structModelKeyframe.html" target="_top" xlink:title="Structure representing the data of a 3D model keyframe.">
<polygon fill="white" stroke="#666666" points="94,-617 0,-617 0,-598 94,-598 94,-617"/>
<text text-anchor="middle" x="47" y="-605" font-family="Helvetica,sans-Serif" font-size="10.00">ModelKeyframe</text>
</a>
</g>
</g>
<!-- Node11&#45;&gt;Node10 -->
<g id="edge11_Node000010_Node000011" class="edge">
<title>Node11&#45;&gt;Node10</title>
<g id="a_edge11_Node000010_Node000011"><a xlink:title=" ">
<path fill="none" stroke="#9a32cd" stroke-dasharray="5,2" d="M104.36,-607.5C150.33,-607.5 212.59,-607.5 243.86,-607.5"/>
<polygon fill="#9a32cd" stroke="#9a32cd" points="104.23,-604 94.23,-607.5 104.23,-611 104.23,-604"/>
</a>
</g>
<text text-anchor="middle" x="165" y="-632.5" font-family="Helvetica,sans-Serif" font-size="10.00" fill="grey"> rotationKeyframes</text>
<text text-anchor="middle" x="165" y="-621.5" font-family="Helvetica,sans-Serif" font-size="10.00" fill="grey">scaleKeyframes</text>
<text text-anchor="middle" x="165" y="-610.5" font-family="Helvetica,sans-Serif" font-size="10.00" fill="grey">translationKeyframes</text>
</g>
<!-- Node12 -->
<g id="Node000012" class="node">
<title>Node12</title>
<g id="a_Node000012"><a xlink:href="structShaderCache.html" target="_top" xlink:title="Structure to cache shaders.">
<polygon fill="white" stroke="#666666" points="856.5,-617 776.5,-617 776.5,-598 856.5,-598 856.5,-617"/>
<text text-anchor="middle" x="816.5" y="-605" font-family="Helvetica,sans-Serif" font-size="10.00">ShaderCache</text>
</a>
</g>
</g>
<!-- Node12&#45;&gt;Node2 -->
<g id="edge12_Node000002_Node000012" class="edge">
<title>Node12&#45;&gt;Node2</title>
<g id="a_edge12_Node000002_Node000012"><a xlink:title=" ">
<path fill="none" stroke="#9a32cd" stroke-dasharray="5,2" d="M866.75,-607.5C901.98,-607.5 949.02,-607.5 983.29,-607.5"/>
<polygon fill="#9a32cd" stroke="#9a32cd" points="866.69,-604 856.69,-607.5 866.69,-611 866.69,-604"/>
</a>
</g>
<text text-anchor="middle" x="925" y="-610.5" font-family="Helvetica,sans-Serif" font-size="10.00" fill="grey"> shaderCache</text>
</g>
<!-- Node13 -->
<g id="Node000013" class="node">
<title>Node13</title>
<g id="a_Node000013"><a xlink:href="structMixMusicCache.html" target="_top" xlink:title="Structure to cache music.">
<polygon fill="white" stroke="#666666" points="863,-580 770,-580 770,-561 863,-561 863,-580"/>
<text text-anchor="middle" x="816.5" y="-568" font-family="Helvetica,sans-Serif" font-size="10.00">MixMusicCache</text>
</a>
</g>
</g>
<!-- Node13&#45;&gt;Node2 -->
<g id="edge13_Node000002_Node000013" class="edge">
<title>Node13&#45;&gt;Node2</title>
<g id="a_edge13_Node000002_Node000013"><a xlink:title=" ">
<path fill="none" stroke="#9a32cd" stroke-dasharray="5,2" d="M873.38,-577.83C900.77,-581.69 934.21,-586.81 964,-592.5 972.36,-594.1 981.27,-596.02 989.72,-597.96"/>
<polygon fill="#9a32cd" stroke="#9a32cd" points="873.58,-574.32 863.19,-576.41 872.61,-581.26 873.58,-574.32"/>
</a>
</g>
<text text-anchor="middle" x="925" y="-595.5" font-family="Helvetica,sans-Serif" font-size="10.00" fill="grey"> musicCache</text>
</g>
<!-- Node14 -->
<g id="Node000014" class="node">
<title>Node14</title>
<g id="a_Node000014"><a xlink:href="structMixChunkCache.html" target="_top" xlink:title="Structure to cache sound effects.">
<polygon fill="white" stroke="#666666" points="864,-543 769,-543 769,-524 864,-524 864,-543"/>
<text text-anchor="middle" x="816.5" y="-531" font-family="Helvetica,sans-Serif" font-size="10.00">MixChunkCache</text>
</a>
</g>
</g>
<!-- Node14&#45;&gt;Node2 -->
<g id="edge14_Node000002_Node000014" class="edge">
<title>Node14&#45;&gt;Node2</title>
<g id="a_edge14_Node000002_Node000014"><a xlink:title=" ">
<path fill="none" stroke="#9a32cd" stroke-dasharray="5,2" d="M874.03,-540.34C901.88,-544.97 935.51,-552.51 964,-564.5 984.1,-572.96 1004.59,-587.93 1016.93,-597.78"/>
<polygon fill="#9a32cd" stroke="#9a32cd" points="874.48,-536.86 864.06,-538.76 873.39,-543.78 874.48,-536.86"/>
</a>
</g>
<text text-anchor="middle" x="925" y="-567.5" font-family="Helvetica,sans-Serif" font-size="10.00" fill="grey"> chunkCache</text>
</g>
<!-- Node15 -->
<g id="Node000015" class="node">
<title>Node15</title>
<g id="a_Node000015"><a xlink:href="structBufferCollection.html" target="_top" xlink:title="Structure to hold various buffer collections.">
<polygon fill="white" stroke="#666666" points="1077,-439 982,-439 982,-420 1077,-420 1077,-439"/>
<text text-anchor="middle" x="1029.5" y="-427" font-family="Helvetica,sans-Serif" font-size="10.00">BufferCollection</text>
</a>
</g>
</g>
<!-- Node15&#45;&gt;Node1 -->
<g id="edge15_Node000001_Node000015" class="edge">
<title>Node15&#45;&gt;Node1</title>
<g id="a_edge15_Node000001_Node000015"><a xlink:title=" ">
<path fill="none" stroke="#9a32cd" stroke-dasharray="5,2" d="M1087.18,-432.9C1116.55,-431.67 1151.16,-425.15 1175,-404.5 1224.21,-361.88 1229.67,-274.71 1230.06,-245.38"/>
<polygon fill="#9a32cd" stroke="#9a32cd" points="1086.95,-429.4 1077.03,-433.12 1087.11,-436.4 1086.95,-429.4"/>
</a>
</g>
<text text-anchor="middle" x="1135" y="-434.5" font-family="Helvetica,sans-Serif" font-size="10.00" fill="grey"> buffers</text>
</g>
<!-- Node16 -->
<g id="Node000016" class="node">
<title>Node16</title>
<g id="a_Node000016"><a xlink:href="structLightingBuffer.html" target="_top" xlink:title="Buffer structure to manage an array of lighting nodes.">
<polygon fill="white" stroke="#666666" points="859,-506 774,-506 774,-487 859,-487 859,-506"/>
<text text-anchor="middle" x="816.5" y="-494" font-family="Helvetica,sans-Serif" font-size="10.00">LightingBuffer</text>
</a>
</g>
</g>
<!-- Node16&#45;&gt;Node15 -->
<g id="edge16_Node000015_Node000016" class="edge">
<title>Node16&#45;&gt;Node15</title>
<g id="a_edge16_Node000015_Node000016"><a xlink:title=" ">
<path fill="none" stroke="#9a32cd" stroke-dasharray="5,2" d="M857.4,-483.83C898.39,-470.81 961.3,-450.84 998.32,-439.08"/>
<polygon fill="#9a32cd" stroke="#9a32cd" points="856.2,-480.54 847.73,-486.9 858.32,-487.21 856.2,-480.54"/>
</a>
</g>
<text text-anchor="middle" x="925" y="-475.5" font-family="Helvetica,sans-Serif" font-size="10.00" fill="grey"> lightingBuffer</text>
</g>
<!-- Node17 -->
<g id="Node000017" class="node">
<title>Node17</title>
<g id="a_Node000017"><a xlink:href="classNode.html" target="_top" xlink:title="Represents a node in the tree structure.">
<polygon fill="white" stroke="#666666" points="630,-428 588,-428 588,-409 630,-409 630,-428"/>
<text text-anchor="middle" x="609" y="-416" font-family="Helvetica,sans-Serif" font-size="10.00">Node</text>
</a>
</g>
</g>
<!-- Node17&#45;&gt;Node16 -->
<g id="edge17_Node000016_Node000017" class="edge">
<title>Node17&#45;&gt;Node16</title>
<g id="a_edge17_Node000016_Node000017"><a xlink:title=" ">
<path fill="none" stroke="#9a32cd" stroke-dasharray="5,2" d="M618.94,-437.34C627.56,-453.2 642.22,-474.92 662,-485.5 696.4,-503.9 741.49,-504.89 773.88,-502.34"/>
<polygon fill="#9a32cd" stroke="#9a32cd" points="622.03,-435.7 614.36,-428.39 615.79,-438.88 622.03,-435.7"/>
</a>
</g>
<text text-anchor="middle" x="704.5" y="-505.5" font-family="Helvetica,sans-Serif" font-size="10.00" fill="grey"> lightings</text>
</g>
<!-- Node17&#45;&gt;Node17 -->
<g id="edge18_Node000017_Node000017" class="edge">
<title>Node17&#45;&gt;Node17</title>
<g id="a_edge18_Node000017_Node000017"><a xlink:title=" ">
<path fill="none" stroke="#9a32cd" stroke-dasharray="5,2" d="M593.9,-437.91C595.09,-442.56 600.12,-446 609,-446 623.57,-446 627.79,-436.73 621.64,-428.08"/>
<polygon fill="#9a32cd" stroke="#9a32cd" points="597.33,-438.63 596.36,-428.08 590.54,-436.93 597.33,-438.63"/>
</a>
</g>
<text text-anchor="middle" x="609" y="-460" font-family="Helvetica,sans-Serif" font-size="10.00" fill="grey"> children</text>
<text text-anchor="middle" x="609" y="-449" font-family="Helvetica,sans-Serif" font-size="10.00" fill="grey">parent</text>
</g>
<!-- Node18 -->
<g id="Node000018" class="node">
<title>Node18</title>
<g id="a_Node000018"><a xlink:href="unionBehaviorAttribute.html" target="_top" xlink:title=" ">
<polygon fill="white" stroke="#666666" points="868,-469 765,-469 765,-450 868,-450 868,-469"/>
<text text-anchor="middle" x="816.5" y="-457" font-family="Helvetica,sans-Serif" font-size="10.00">BehaviorAttribute</text>
</a>
</g>
</g>
<!-- Node17&#45;&gt;Node18 -->
<g id="edge20_Node000018_Node000017" class="edge">
<title>Node17&#45;&gt;Node18</title>
<g id="a_edge20_Node000018_Node000017"><a xlink:title=" ">
<path fill="none" stroke="#9a32cd" stroke-dasharray="5,2" d="M625.05,-435.82C634.55,-445.39 647.71,-456.36 662,-461.5 694.85,-473.32 734.28,-472.52 764.94,-468.92"/>
<polygon fill="#9a32cd" stroke="#9a32cd" points="627.37,-433.17 617.98,-428.27 622.26,-437.96 627.37,-433.17"/>
</a>
</g>
<text text-anchor="middle" x="704.5" y="-473.5" font-family="Helvetica,sans-Serif" font-size="10.00" fill="grey"> node</text>
</g>
<!-- Node19 -->
<g id="Node000019" class="node">
<title>Node19</title>
<g id="a_Node000019"><a xlink:href="structCollisionBuffer.html" target="_top" xlink:title="Represents a buffer for collision shapes.">
<polygon fill="white" stroke="#666666" points="860.5,-432 772.5,-432 772.5,-413 860.5,-413 860.5,-432"/>
<text text-anchor="middle" x="816.5" y="-420" font-family="Helvetica,sans-Serif" font-size="10.00">CollisionBuffer</text>
</a>
</g>
</g>
<!-- Node17&#45;&gt;Node19 -->
<g id="edge22_Node000019_Node000017" class="edge">
<title>Node17&#45;&gt;Node19</title>
<g id="a_edge22_Node000019_Node000017"><a xlink:title=" ">
<path fill="none" stroke="#9a32cd" stroke-dasharray="5,2" d="M640.69,-418.4C668.46,-418.39 710.48,-418.57 747,-419.5 755.21,-419.71 763.97,-420.02 772.39,-420.37"/>
<polygon fill="#9a32cd" stroke="#9a32cd" points="640.42,-414.9 630.43,-418.42 640.43,-421.9 640.42,-414.9"/>
</a>
</g>
<text text-anchor="middle" x="704.5" y="-422.5" font-family="Helvetica,sans-Serif" font-size="10.00" fill="grey"> collisionsShapes</text>
</g>
<!-- Node21 -->
<g id="Node000021" class="node">
<title>Node21</title>
<g id="a_Node000021"><a xlink:href="structTree.html" target="_top" xlink:title="Represents a tree structure containing nodes, a camera, MSAA settings, and scripts.">
<polygon fill="white" stroke="#666666" points="943.5,-399 906.5,-399 906.5,-380 943.5,-380 943.5,-399"/>
<text text-anchor="middle" x="925" y="-387" font-family="Helvetica,sans-Serif" font-size="10.00">Tree</text>
</a>
</g>
</g>
<!-- Node17&#45;&gt;Node21 -->
<g id="edge26_Node000021_Node000017" class="edge">
<title>Node17&#45;&gt;Node21</title>
<g id="a_edge26_Node000021_Node000017"><a xlink:title=" ">
<path fill="none" stroke="#9a32cd" stroke-dasharray="5,2" d="M640.32,-407.79C647.36,-405.69 654.87,-403.75 662,-402.5 752.83,-386.53 863.9,-387.69 906.36,-388.87"/>
<polygon fill="#9a32cd" stroke="#9a32cd" points="638.93,-404.55 630.46,-410.91 641.05,-411.23 638.93,-404.55"/>
</a>
</g>
<text text-anchor="middle" x="704.5" y="-405.5" font-family="Helvetica,sans-Serif" font-size="10.00" fill="grey"> root</text>
</g>
<!-- Node26 -->
<g id="Node000026" class="node">
<title>Node26</title>
<g id="a_Node000026"><a xlink:href="classCamera.html" target="_top" xlink:title="A structure to represent a camera with position and rotation in 3D space.">
<polygon fill="white" stroke="#666666" points="952.5,-354 897.5,-354 897.5,-335 952.5,-335 952.5,-354"/>
<text text-anchor="middle" x="925" y="-342" font-family="Helvetica,sans-Serif" font-size="10.00">Camera</text>
</a>
</g>
</g>
<!-- Node17&#45;&gt;Node26 -->
<g id="edge32_Node000026_Node000017" class="edge">
<title>Node17&#45;&gt;Node26</title>
<g id="a_edge32_Node000026_Node000017"><a xlink:title=" ">
<path fill="none" stroke="#63b8ff" d="M632.08,-403.42C641.02,-397.95 651.66,-392.21 662,-388.5 744.48,-358.88 848.85,-348.99 897.18,-345.86"/>
<polygon fill="#63b8ff" stroke="#63b8ff" points="630.01,-400.59 623.47,-408.93 633.78,-406.49 630.01,-400.59"/>
</a>
</g>
</g>
<!-- Node28 -->
<g id="Node000028" class="node">
<title>Node28</title>
<g id="a_Node000028"><a xlink:href="classRenderTarget.html" target="_top" xlink:title="A structure to handle render targets.">
<polygon fill="white" stroke="#666666" points="1070,-307 989,-307 989,-288 1070,-288 1070,-307"/>
<text text-anchor="middle" x="1029.5" y="-295" font-family="Helvetica,sans-Serif" font-size="10.00">RenderTarget</text>
</a>
</g>
</g>
<!-- Node17&#45;&gt;Node28 -->
<g id="edge35_Node000028_Node000017" class="edge">
<title>Node17&#45;&gt;Node28</title>
<g id="a_edge35_Node000028_Node000017"><a xlink:title=" ">
<path fill="none" stroke="#63b8ff" d="M621.91,-400C631.23,-387.1 645.37,-370.63 662,-361.5 769.29,-302.59 918.56,-295.83 988.88,-296.29"/>
<polygon fill="#63b8ff" stroke="#63b8ff" points="618.78,-398.38 616.01,-408.6 624.55,-402.34 618.78,-398.38"/>
</a>
</g>
</g>
<!-- Node18&#45;&gt;Node17 -->
<g id="edge19_Node000017_Node000018" class="edge">
<title>Node18&#45;&gt;Node17</title>
<g id="a_edge19_Node000017_Node000018"><a xlink:title=" ">
<path fill="none" stroke="#9a32cd" stroke-dasharray="5,2" d="M754.8,-448.61C726.54,-443.39 692.5,-436.9 662,-430.5 651.48,-428.29 639.82,-425.62 630.21,-423.36"/>
<polygon fill="#9a32cd" stroke="#9a32cd" points="754.46,-452.11 764.93,-450.47 755.73,-445.22 754.46,-452.11"/>
</a>
</g>
<text text-anchor="middle" x="704.5" y="-449.5" font-family="Helvetica,sans-Serif" font-size="10.00" fill="grey"> attribute</text>
</g>
<!-- Node19&#45;&gt;Node15 -->
<g id="edge21_Node000015_Node000019" class="edge">
<title>Node19&#45;&gt;Node15</title>
<g id="a_edge21_Node000015_Node000019"><a xlink:title=" ">
<path fill="none" stroke="#9a32cd" stroke-dasharray="5,2" d="M870.97,-424.27C905.1,-425.41 948.93,-426.86 981.68,-427.95"/>
<polygon fill="#9a32cd" stroke="#9a32cd" points="870.82,-420.77 860.71,-423.93 870.59,-427.76 870.82,-420.77"/>
</a>
</g>
<text text-anchor="middle" x="925" y="-429.5" font-family="Helvetica,sans-Serif" font-size="10.00" fill="grey"> collisionBuffer</text>
</g>
<!-- Node20 -->
<g id="Node000020" class="node">
<title>Node20</title>
<g id="a_Node000020"><a xlink:href="structQueue.html" target="_top" xlink:title="A node in the queue.">
<polygon fill="white" stroke="#666666" points="1053.5,-204 1005.5,-204 1005.5,-185 1053.5,-185 1053.5,-204"/>
<text text-anchor="middle" x="1029.5" y="-192" font-family="Helvetica,sans-Serif" font-size="10.00">Queue</text>
</a>
</g>
</g>
<!-- Node20&#45;&gt;Node1 -->
<g id="edge23_Node000001_Node000020" class="edge">
<title>Node20&#45;&gt;Node1</title>
<g id="a_edge23_Node000001_Node000020"><a xlink:title=" ">
<path fill="none" stroke="#9a32cd" stroke-dasharray="5,2" d="M1063.69,-201.32C1099.36,-208.65 1155.91,-220.27 1192.99,-227.89"/>
<polygon fill="#9a32cd" stroke="#9a32cd" points="1064.28,-197.87 1053.78,-199.28 1062.87,-204.72 1064.28,-197.87"/>
</a>
</g>
<text text-anchor="middle" x="1135" y="-225.5" font-family="Helvetica,sans-Serif" font-size="10.00" fill="grey"> callQueue</text>
</g>
<!-- Node20&#45;&gt;Node20 -->
<g id="edge24_Node000020_Node000020" class="edge">
<title>Node20&#45;&gt;Node20</title>
<g id="a_edge24_Node000020_Node000020"><a xlink:title=" ">
<path fill="none" stroke="#9a32cd" stroke-dasharray="5,2" d="M1010.24,-213.55C1011.53,-218.38 1017.95,-222 1029.5,-222 1047.98,-222 1053.33,-212.73 1045.53,-204.08"/>
<polygon fill="#9a32cd" stroke="#9a32cd" points="1013.56,-214.68 1013.47,-204.08 1006.93,-212.42 1013.56,-214.68"/>
</a>
</g>
<text text-anchor="middle" x="1029.5" y="-225" font-family="Helvetica,sans-Serif" font-size="10.00" fill="grey"> next</text>
</g>
<!-- Node21&#45;&gt;Node1 -->
<g id="edge25_Node000001_Node000021" class="edge">
<title>Node21&#45;&gt;Node1</title>
<g id="a_edge25_Node000001_Node000021"><a xlink:title=" ">
<path fill="none" stroke="#9a32cd" stroke-dasharray="5,2" d="M953.86,-390.11C1003.67,-389.74 1108.94,-382.26 1175,-329.5 1203.81,-306.49 1220.64,-264 1227.03,-245.05"/>
<polygon fill="#9a32cd" stroke="#9a32cd" points="953.56,-386.61 943.55,-390.08 953.54,-393.61 953.56,-386.61"/>
</a>
</g>
<text text-anchor="middle" x="1029.5" y="-391.5" font-family="Helvetica,sans-Serif" font-size="10.00" fill="grey"> mainTree</text>
</g>
<!-- Node22 -->
<g id="Node000022" class="node">
<title>Node22</title>
<g id="a_Node000022"><a xlink:href="structInput.html" target="_top" xlink:title="Structure to store input state.">
<polygon fill="white" stroke="#666666" points="1050,-270 1009,-270 1009,-251 1050,-251 1050,-270"/>
<text text-anchor="middle" x="1029.5" y="-258" font-family="Helvetica,sans-Serif" font-size="10.00">Input</text>
</a>
</g>
</g>
<!-- Node22&#45;&gt;Node1 -->
<g id="edge27_Node000001_Node000022" class="edge">
<title>Node22&#45;&gt;Node1</title>
<g id="a_edge27_Node000001_Node000022"><a xlink:title=" ">
<path fill="none" stroke="#9a32cd" stroke-dasharray="5,2" d="M1060.52,-256.74C1095.82,-252.31 1154.44,-244.97 1192.65,-240.18"/>
<polygon fill="#9a32cd" stroke="#9a32cd" points="1059.85,-253.3 1050.36,-258.01 1060.72,-260.24 1059.85,-253.3"/>
</a>
</g>
<text text-anchor="middle" x="1135" y="-254.5" font-family="Helvetica,sans-Serif" font-size="10.00" fill="grey"> input</text>
</g>
<!-- Node23 -->
<g id="Node000023" class="node">
<title>Node23</title>
<g id="a_Node000023"><a xlink:href="structMouse.html" target="_top" xlink:title="Structure to store mouse state.">
<polygon fill="white" stroke="#666666" points="841,-269 792,-269 792,-250 841,-250 841,-269"/>
<text text-anchor="middle" x="816.5" y="-257" font-family="Helvetica,sans-Serif" font-size="10.00">Mouse</text>
</a>
</g>
</g>
<!-- Node23&#45;&gt;Node22 -->
<g id="edge28_Node000022_Node000023" class="edge">
<title>Node23&#45;&gt;Node22</title>
<g id="a_edge28_Node000022_Node000023"><a xlink:title=" ">
<path fill="none" stroke="#9a32cd" stroke-dasharray="5,2" d="M851.29,-253.58C862.31,-251.91 874.65,-250.32 886,-249.5 920.58,-246.99 929.46,-246.58 964,-249.5 979.17,-250.78 996.13,-253.74 1008.85,-256.26"/>
<polygon fill="#9a32cd" stroke="#9a32cd" points="850.51,-250.15 841.18,-255.18 851.61,-257.07 850.51,-250.15"/>
</a>
</g>
<text text-anchor="middle" x="925" y="-252.5" font-family="Helvetica,sans-Serif" font-size="10.00" fill="grey"> mouse</text>
</g>
<!-- Node23&#45;&gt;Node28 -->
<g id="edge36_Node000028_Node000023" class="edge">
<title>Node23&#45;&gt;Node28</title>
<g id="a_edge36_Node000028_Node000023"><a xlink:title=" ">
<path fill="none" stroke="#9a32cd" stroke-dasharray="5,2" d="M851.42,-264.55C881.17,-269.1 925.55,-276.18 964,-283.5 972.1,-285.04 980.75,-286.82 989,-288.59"/>
<polygon fill="#9a32cd" stroke="#9a32cd" points="851.58,-261.03 841.16,-262.99 850.52,-267.96 851.58,-261.03"/>
</a>
</g>
<text text-anchor="middle" x="925" y="-286.5" font-family="Helvetica,sans-Serif" font-size="10.00" fill="grey"> mouse</text>
</g>
<!-- Node24 -->
<g id="Node000024" class="node">
<title>Node24</title>
<g id="a_Node000024"><a xlink:href="structSettings.html" target="_top" xlink:title=" ">
<polygon fill="white" stroke="#666666" points="1057.5,-167 1001.5,-167 1001.5,-148 1057.5,-148 1057.5,-167"/>
<text text-anchor="middle" x="1029.5" y="-155" font-family="Helvetica,sans-Serif" font-size="10.00">Settings</text>
</a>
</g>
</g>
<!-- Node24&#45;&gt;Node1 -->
<g id="edge29_Node000001_Node000024" class="edge">
<title>Node24&#45;&gt;Node1</title>
<g id="a_edge29_Node000001_Node000024"><a xlink:title=" ">
<path fill="none" stroke="#9a32cd" stroke-dasharray="5,2" d="M1067.84,-162.09C1097.92,-166.81 1140.7,-175.91 1175,-192.5 1192.68,-201.05 1210.01,-216 1220.35,-225.82"/>
<polygon fill="#9a32cd" stroke="#9a32cd" points="1068.17,-158.6 1057.76,-160.59 1067.14,-165.52 1068.17,-158.6"/>
</a>
</g>
<text text-anchor="middle" x="1135" y="-195.5" font-family="Helvetica,sans-Serif" font-size="10.00" fill="grey"> settings</text>
</g>
<!-- Node25 -->
<g id="Node000025" class="node">
<title>Node25</title>
<g id="a_Node000025"><a xlink:href="structWindow.html" target="_top" xlink:title="Structure representing the SDL window and its associated OpenGL context.">
<polygon fill="white" stroke="#666666" points="1057.5,-130 1001.5,-130 1001.5,-111 1057.5,-111 1057.5,-130"/>
<text text-anchor="middle" x="1029.5" y="-118" font-family="Helvetica,sans-Serif" font-size="10.00">Window</text>
</a>
</g>
</g>
<!-- Node25&#45;&gt;Node1 -->
<g id="edge30_Node000001_Node000025" class="edge">
<title>Node25&#45;&gt;Node1</title>
<g id="a_edge30_Node000001_Node000025"><a xlink:title=" ">
<path fill="none" stroke="#9a32cd" stroke-dasharray="5,2" d="M1067.66,-121.17C1098.79,-123.4 1143.12,-130.61 1175,-152.5 1202.22,-171.19 1219.44,-208.19 1226.43,-225.78"/>
<polygon fill="#9a32cd" stroke="#9a32cd" points="1067.83,-117.68 1057.65,-120.59 1067.43,-124.66 1067.83,-117.68"/>
</a>
</g>
<text text-anchor="middle" x="1135" y="-155.5" font-family="Helvetica,sans-Serif" font-size="10.00" fill="grey"> window</text>
</g>
<!-- Node26&#45;&gt;Node1 -->
<g id="edge31_Node000001_Node000026" class="edge">
<title>Node26&#45;&gt;Node1</title>
<g id="a_edge31_Node000001_Node000026"><a xlink:title=" ">
<path fill="none" stroke="#9a32cd" stroke-dasharray="5,2" d="M962.96,-345.83C1014.06,-346.04 1107.61,-340.4 1175,-301.5 1198.51,-287.93 1216.39,-260.3 1224.76,-245.45"/>
<polygon fill="#9a32cd" stroke="#9a32cd" points="962.76,-342.33 952.72,-345.71 962.68,-349.33 962.76,-342.33"/>
</a>
</g>
<text text-anchor="middle" x="1029.5" y="-348.5" font-family="Helvetica,sans-Serif" font-size="10.00" fill="grey"> camera</text>
</g>
<!-- Node27 -->
<g id="Node000027" class="node">
<title>Node27</title>
<g id="a_Node000027"><a xlink:href="structMSAA.html" target="_top" xlink:title="A structure to handle Multi&#45;Sample Anti&#45;Aliasing (MSAA) framebuffers.">
<polygon fill="white" stroke="#666666" points="1052.5,-93 1006.5,-93 1006.5,-74 1052.5,-74 1052.5,-93"/>
<text text-anchor="middle" x="1029.5" y="-81" font-family="Helvetica,sans-Serif" font-size="10.00">MSAA</text>
</a>
</g>
</g>
<!-- Node27&#45;&gt;Node1 -->
<g id="edge33_Node000001_Node000027" class="edge">
<title>Node27&#45;&gt;Node1</title>
<g id="a_edge33_Node000001_Node000027"><a xlink:title=" ">
<path fill="none" stroke="#9a32cd" stroke-dasharray="5,2" d="M1062.77,-81.06C1094.6,-80.39 1143.01,-84.23 1175,-109.5 1213.21,-139.68 1225.45,-201.77 1228.84,-225.75"/>
<polygon fill="#9a32cd" stroke="#9a32cd" points="1062.52,-77.57 1052.65,-81.44 1062.78,-84.56 1062.52,-77.57"/>
</a>
</g>
<text text-anchor="middle" x="1135" y="-112.5" font-family="Helvetica,sans-Serif" font-size="10.00" fill="grey"> msaa</text>
</g>
<!-- Node28&#45;&gt;Node1 -->
<g id="edge34_Node000001_Node000028" class="edge">
<title>Node28&#45;&gt;Node1</title>
<g id="a_edge34_Node000001_Node000028"><a xlink:title=" ">
<path fill="none" stroke="#9a32cd" stroke-dasharray="5,2" d="M1080.15,-290.66C1108.53,-285.81 1144.44,-278.08 1175,-266.5 1189.55,-260.98 1204.88,-252.05 1215.65,-245.19"/>
<polygon fill="#9a32cd" stroke="#9a32cd" points="1079.35,-287.24 1070.05,-292.31 1080.49,-294.15 1079.35,-287.24"/>
</a>
</g>
<text text-anchor="middle" x="1135" y="-289.5" font-family="Helvetica,sans-Serif" font-size="10.00" fill="grey"> renderTarget</text>
</g>
<!-- Node29 -->
<g id="Node000029" class="node">
<title>Node29</title>
<g id="a_Node000029"><a xlink:href="structHashTable.html" target="_top" xlink:title=" ">
<polygon fill="white" stroke="#666666" points="1063,-56 996,-56 996,-37 1063,-37 1063,-56"/>
<text text-anchor="middle" x="1029.5" y="-44" font-family="Helvetica,sans-Serif" font-size="10.00">HashTable</text>
</a>
</g>
</g>
<!-- Node29&#45;&gt;Node1 -->
<g id="edge37_Node000001_Node000029" class="edge">
<title>Node29&#45;&gt;Node1</title>
<g id="a_edge37_Node000001_Node000029"><a xlink:title=" ">
<path fill="none" stroke="#9a32cd" stroke-dasharray="5,2" d="M1073.38,-41.19C1104.95,-39.7 1147.08,-43.13 1175,-66.5 1225.16,-108.48 1229.96,-196.83 1230.13,-225.96"/>
<polygon fill="#9a32cd" stroke="#9a32cd" points="1072.86,-37.71 1063.11,-41.86 1073.32,-44.7 1072.86,-37.71"/>
</a>
</g>
<text text-anchor="middle" x="1135" y="-69.5" font-family="Helvetica,sans-Serif" font-size="10.00" fill="grey"> storage</text>
</g>
<!-- Node30 -->
<g id="Node000030" class="node">
<title>Node30</title>
<g id="a_Node000030"><a xlink:href="structEntry.html" target="_top" xlink:title=" ">
<polygon fill="white" stroke="#666666" points="837.5,-56 795.5,-56 795.5,-37 837.5,-37 837.5,-56"/>
<text text-anchor="middle" x="816.5" y="-44" font-family="Helvetica,sans-Serif" font-size="10.00">Entry</text>
</a>
</g>
</g>
<!-- Node30&#45;&gt;Node29 -->
<g id="edge38_Node000029_Node000030" class="edge">
<title>Node30&#45;&gt;Node29</title>
<g id="a_edge38_Node000029_Node000030"><a xlink:title=" ">
<path fill="none" stroke="#9a32cd" stroke-dasharray="5,2" d="M847.75,-46.5C886.98,-46.5 955.17,-46.5 995.64,-46.5"/>
<polygon fill="#9a32cd" stroke="#9a32cd" points="847.73,-43 837.73,-46.5 847.73,-50 847.73,-43"/>
</a>
</g>
<text text-anchor="middle" x="925" y="-49.5" font-family="Helvetica,sans-Serif" font-size="10.00" fill="grey"> table</text>
</g>
<!-- Node30&#45;&gt;Node30 -->
<g id="edge39_Node000030_Node000030" class="edge">
<title>Node30&#45;&gt;Node30</title>
<g id="a_edge39_Node000030_Node000030"><a xlink:title=" ">
<path fill="none" stroke="#9a32cd" stroke-dasharray="5,2" d="M796.5,-65.55C797.84,-70.38 804.5,-74 816.5,-74 835.7,-74 841.24,-64.73 833.15,-56.08"/>
<polygon fill="#9a32cd" stroke="#9a32cd" points="799.82,-66.68 799.85,-56.08 793.22,-64.34 799.82,-66.68"/>
</a>
</g>
<text text-anchor="middle" x="816.5" y="-77" font-family="Helvetica,sans-Serif" font-size="10.00" fill="grey"> next</text>
</g>
<!-- Node31 -->
<g id="Node000031" class="node">
<title>Node31</title>
<g id="a_Node000031"><a xlink:href="structScript.html" target="_top" xlink:title=" ">
<polygon fill="white" stroke="#666666" points="1051.5,-19 1007.5,-19 1007.5,0 1051.5,0 1051.5,-19"/>
<text text-anchor="middle" x="1029.5" y="-7" font-family="Helvetica,sans-Serif" font-size="10.00">Script</text>
</a>
</g>
</g>
<!-- Node31&#45;&gt;Node1 -->
<g id="edge40_Node000001_Node000031" class="edge">
<title>Node31&#45;&gt;Node1</title>
<g id="a_edge40_Node000001_Node000031"><a xlink:title=" ">
<path fill="none" stroke="#9a32cd" stroke-dasharray="5,2" d="M1061.78,-3.88C1094.07,0.01 1143.99,0.44 1175,-26.5 1206.16,-53.57 1224.38,-188.46 1228.89,-225.87"/>
<polygon fill="#9a32cd" stroke="#9a32cd" points="1060.98,-0.46 1051.55,-5.3 1061.94,-7.39 1060.98,-0.46"/>
</a>
</g>
<text text-anchor="middle" x="1135" y="-29.5" font-family="Helvetica,sans-Serif" font-size="10.00" fill="grey"> scripts</text>
</g>
</g>
</svg>
