<?xml version="1.0" encoding="UTF-8" standalone="no"?>
<!DOCTYPE svg PUBLIC "-//W3C//DTD SVG 1.1//EN"
 "http://www.w3.org/Graphics/SVG/1.1/DTD/svg11.dtd">
<!-- Generated by graphviz version 2.43.0 (0)
 -->
<!-- Title: ModelCache Pages: 1 -->
<svg width="349pt" height="313pt"
 viewBox="0.00 0.00 348.50 313.00" xmlns="http://www.w3.org/2000/svg" xmlns:xlink="http://www.w3.org/1999/xlink">
<g id="graph0" class="graph" transform="scale(1 1) rotate(0) translate(4 309)">
<title>ModelCache</title>
<!-- Node1 -->
<g id="Node000001" class="node">
<title>Node1</title>
<g id="a_Node000001"><a xlink:title="Structure to cache models.">
<polygon fill="#999999" stroke="#666666" points="156,-19 79,-19 79,0 156,0 156,-19"/>
<text text-anchor="middle" x="117.5" y="-7" font-family="Helvetica,sans-Serif" font-size="10.00">ModelCache</text>
</a>
</g>
</g>
<!-- Node2 -->
<g id="Node000002" class="node">
<title>Node2</title>
<g id="a_Node000002"><a xlink:href="structModelData.html" target="_top" xlink:title="Structure representing the data of a 3D model.">
<polygon fill="white" stroke="#666666" points="152.5,-85 82.5,-85 82.5,-66 152.5,-66 152.5,-85"/>
<text text-anchor="middle" x="117.5" y="-73" font-family="Helvetica,sans-Serif" font-size="10.00">ModelData</text>
</a>
</g>
</g>
<!-- Node2&#45;&gt;Node1 -->
<g id="edge1_Node000001_Node000002" class="edge">
<title>Node2&#45;&gt;Node1</title>
<g id="a_edge1_Node000001_Node000002"><a xlink:title=" ">
<path fill="none" stroke="#9a32cd" stroke-dasharray="5,2" d="M117.5,-55.58C117.5,-43.63 117.5,-28.72 117.5,-19.41"/>
<polygon fill="#9a32cd" stroke="#9a32cd" points="114,-55.87 117.5,-65.87 121,-55.87 114,-55.87"/>
</a>
</g>
<text text-anchor="middle" x="134.5" y="-40" font-family="Helvetica,sans-Serif" font-size="10.00" fill="grey"> model</text>
</g>
<!-- Node3 -->
<g id="Node000003" class="node">
<title>Node3</title>
<g id="a_Node000003"><a xlink:href="structMaterial.html" target="_top" xlink:title="Structure representing a material with various properties.">
<polygon fill="white" stroke="#666666" points="57,-217 0,-217 0,-198 57,-198 57,-217"/>
<text text-anchor="middle" x="28.5" y="-205" font-family="Helvetica,sans-Serif" font-size="10.00">Material</text>
</a>
</g>
</g>
<!-- Node3&#45;&gt;Node2 -->
<g id="edge2_Node000002_Node000003" class="edge">
<title>Node3&#45;&gt;Node2</title>
<g id="a_edge2_Node000002_Node000003"><a xlink:title=" ">
<path fill="none" stroke="#9a32cd" stroke-dasharray="5,2" d="M15.99,-188.85C6.46,-173.01 -3.35,-149.63 7.5,-132 23.7,-105.68 56.66,-91.39 82.3,-83.93"/>
<polygon fill="#9a32cd" stroke="#9a32cd" points="13.32,-191.15 21.71,-197.61 19.18,-187.32 13.32,-191.15"/>
</a>
</g>
<text text-anchor="middle" x="32.5" y="-139" font-family="Helvetica,sans-Serif" font-size="10.00" fill="grey"> materials</text>
</g>
<!-- Node4 -->
<g id="Node000004" class="node">
<title>Node4</title>
<g id="a_Node000004"><a xlink:href="structModelObjectData.html" target="_top" xlink:title="Structure representing the data of a 3D model object.">
<polygon fill="white" stroke="#666666" points="168,-151 67,-151 67,-132 168,-132 168,-151"/>
<text text-anchor="middle" x="117.5" y="-139" font-family="Helvetica,sans-Serif" font-size="10.00">ModelObjectData</text>
</a>
</g>
</g>
<!-- Node3&#45;&gt;Node4 -->
<g id="edge4_Node000004_Node000003" class="edge">
<title>Node3&#45;&gt;Node4</title>
<g id="a_edge4_Node000004_Node000003"><a xlink:title=" ">
<path fill="none" stroke="#9a32cd" stroke-dasharray="5,2" d="M48.89,-191.83C66.35,-179.28 90.89,-161.63 105.4,-151.2"/>
<polygon fill="#9a32cd" stroke="#9a32cd" points="46.58,-189.19 40.5,-197.87 50.67,-194.87 46.58,-189.19"/>
</a>
</g>
<text text-anchor="middle" x="103.5" y="-172" font-family="Helvetica,sans-Serif" font-size="10.00" fill="grey"> materials</text>
</g>
<!-- Node4&#45;&gt;Node2 -->
<g id="edge3_Node000002_Node000004" class="edge">
<title>Node4&#45;&gt;Node2</title>
<g id="a_edge3_Node000002_Node000004"><a xlink:title=" ">
<path fill="none" stroke="#9a32cd" stroke-dasharray="5,2" d="M117.5,-121.58C117.5,-109.63 117.5,-94.72 117.5,-85.41"/>
<polygon fill="#9a32cd" stroke="#9a32cd" points="114,-121.87 117.5,-131.87 121,-121.87 114,-121.87"/>
</a>
</g>
<text text-anchor="middle" x="137" y="-106" font-family="Helvetica,sans-Serif" font-size="10.00" fill="grey"> objects</text>
</g>
<!-- Node5 -->
<g id="Node000005" class="node">
<title>Node5</title>
<g id="a_Node000005"><a xlink:href="structModelAnimation.html" target="_top" xlink:title="Structure representing the data of a 3D model animation.">
<polygon fill="white" stroke="#666666" points="283,-151 186,-151 186,-132 283,-132 283,-151"/>
<text text-anchor="middle" x="234.5" y="-139" font-family="Helvetica,sans-Serif" font-size="10.00">ModelAnimation</text>
</a>
</g>
</g>
<!-- Node5&#45;&gt;Node2 -->
<g id="edge5_Node000002_Node000005" class="edge">
<title>Node5&#45;&gt;Node2</title>
<g id="a_edge5_Node000002_Node000005"><a xlink:title=" ">
<path fill="none" stroke="#9a32cd" stroke-dasharray="5,2" d="M209.87,-127.03C186.83,-114.42 153.09,-95.97 133.4,-85.2"/>
<polygon fill="#9a32cd" stroke="#9a32cd" points="208.27,-130.14 218.72,-131.87 211.63,-124 208.27,-130.14"/>
</a>
</g>
<text text-anchor="middle" x="212.5" y="-106" font-family="Helvetica,sans-Serif" font-size="10.00" fill="grey"> animations</text>
</g>
<!-- Node6 -->
<g id="Node000006" class="node">
<title>Node6</title>
<g id="a_Node000006"><a xlink:href="structBone.html" target="_top" xlink:title="Structure representing a bone in a 3D model.">
<polygon fill="white" stroke="#666666" points="255,-217 214,-217 214,-198 255,-198 255,-217"/>
<text text-anchor="middle" x="234.5" y="-205" font-family="Helvetica,sans-Serif" font-size="10.00">Bone</text>
</a>
</g>
</g>
<!-- Node6&#45;&gt;Node5 -->
<g id="edge6_Node000005_Node000006" class="edge">
<title>Node6&#45;&gt;Node5</title>
<g id="a_edge6_Node000005_Node000006"><a xlink:title=" ">
<path fill="none" stroke="#9a32cd" stroke-dasharray="5,2" d="M234.5,-187.58C234.5,-175.63 234.5,-160.72 234.5,-151.41"/>
<polygon fill="#9a32cd" stroke="#9a32cd" points="231,-187.87 234.5,-197.87 238,-187.87 231,-187.87"/>
</a>
</g>
<text text-anchor="middle" x="253.5" y="-172" font-family="Helvetica,sans-Serif" font-size="10.00" fill="grey"> targets</text>
</g>
<!-- Node7 -->
<g id="Node000007" class="node">
<title>Node7</title>
<g id="a_Node000007"><a xlink:href="structModelKeyframe.html" target="_top" xlink:title="Structure representing the data of a 3D model keyframe.">
<polygon fill="white" stroke="#666666" points="281.5,-305 187.5,-305 187.5,-286 281.5,-286 281.5,-305"/>
<text text-anchor="middle" x="234.5" y="-293" font-family="Helvetica,sans-Serif" font-size="10.00">ModelKeyframe</text>
</a>
</g>
</g>
<!-- Node7&#45;&gt;Node6 -->
<g id="edge7_Node000006_Node000007" class="edge">
<title>Node7&#45;&gt;Node6</title>
<g id="a_edge7_Node000006_Node000007"><a xlink:title=" ">
<path fill="none" stroke="#9a32cd" stroke-dasharray="5,2" d="M234.5,-275.91C234.5,-257.67 234.5,-230.65 234.5,-217.03"/>
<polygon fill="#9a32cd" stroke="#9a32cd" points="231,-275.94 234.5,-285.94 238,-275.94 231,-275.94"/>
</a>
</g>
<text text-anchor="middle" x="287.5" y="-260" font-family="Helvetica,sans-Serif" font-size="10.00" fill="grey"> rotationKeyframes</text>
<text text-anchor="middle" x="287.5" y="-249" font-family="Helvetica,sans-Serif" font-size="10.00" fill="grey">scaleKeyframes</text>
<text text-anchor="middle" x="287.5" y="-238" font-family="Helvetica,sans-Serif" font-size="10.00" fill="grey">translationKeyframes</text>
</g>
</g>
</svg>
