<?xml version="1.0" encoding="UTF-8" standalone="no"?>
<!DOCTYPE svg PUBLIC "-//W3C//DTD SVG 1.1//EN"
 "http://www.w3.org/Graphics/SVG/1.1/DTD/svg11.dtd">
<!-- Generated by graphviz version 2.43.0 (0)
 -->
<!-- Title: Theme Pages: 1 -->
<svg width="563pt" height="284pt"
 viewBox="0.00 0.00 562.50 284.00" xmlns="http://www.w3.org/2000/svg" xmlns:xlink="http://www.w3.org/1999/xlink">
<g id="graph0" class="graph" transform="scale(1 1) rotate(0) translate(4 280)">
<title>Theme</title>
<!-- Node1 -->
<g id="Node000001" class="node">
<title>Node1</title>
<g id="a_Node000001"><a xlink:title="Represents a theme.">
<polygon fill="#999999" stroke="#666666" points="338.5,-208.5 288.5,-208.5 288.5,-189.5 338.5,-189.5 338.5,-208.5"/>
<text text-anchor="middle" x="313.5" y="-196.5" font-family="Helvetica,sans-Serif" font-size="10.00">Theme</text>
</a>
</g>
</g>
<!-- Node3 -->
<g id="Node000003" class="node">
<title>Node3</title>
<g id="a_Node000003"><a xlink:href="classFrame.html" target="_top" xlink:title="Represents a frame.">
<polygon fill="white" stroke="#666666" points="284,-141 237,-141 237,-122 284,-122 284,-141"/>
<text text-anchor="middle" x="260.5" y="-129" font-family="Helvetica,sans-Serif" font-size="10.00">Frame</text>
</a>
</g>
</g>
<!-- Node1&#45;&gt;Node3 -->
<g id="edge7_Node000003_Node000001" class="edge">
<title>Node1&#45;&gt;Node3</title>
<g id="a_edge7_Node000003_Node000001"><a xlink:title=" ">
<path fill="none" stroke="#9a32cd" stroke-dasharray="5,2" d="M279.12,-188.08C270.6,-183.91 262.49,-178.08 257.5,-170 252.14,-161.33 254.43,-149.3 257.03,-141.23"/>
<polygon fill="#9a32cd" stroke="#9a32cd" points="277.82,-191.33 288.39,-191.98 280.54,-184.87 277.82,-191.33"/>
</a>
</g>
<text text-anchor="middle" x="275" y="-162" font-family="Helvetica,sans-Serif" font-size="10.00" fill="grey"> theme</text>
</g>
<!-- Node2 -->
<g id="Node000002" class="node">
<title>Node2</title>
<g id="a_Node000002"><a xlink:href="structFont.html" target="_top" xlink:title="Represents a font.">
<polygon fill="white" stroke="#666666" points="332.5,-276 294.5,-276 294.5,-257 332.5,-257 332.5,-276"/>
<text text-anchor="middle" x="313.5" y="-264" font-family="Helvetica,sans-Serif" font-size="10.00">Font</text>
</a>
</g>
</g>
<!-- Node2&#45;&gt;Node1 -->
<g id="edge1_Node000001_Node000002" class="edge">
<title>Node2&#45;&gt;Node1</title>
<g id="a_edge1_Node000001_Node000002"><a xlink:title=" ">
<path fill="none" stroke="#9a32cd" stroke-dasharray="5,2" d="M313.5,-246.68C313.5,-234.21 313.5,-218.42 313.5,-208.77"/>
<polygon fill="#9a32cd" stroke="#9a32cd" points="310,-246.94 313.5,-256.94 317,-246.94 310,-246.94"/>
</a>
</g>
<text text-anchor="middle" x="325" y="-231" font-family="Helvetica,sans-Serif" font-size="10.00" fill="grey"> font</text>
</g>
<!-- Node3&#45;&gt;Node1 -->
<g id="edge2_Node000001_Node000003" class="edge">
<title>Node3&#45;&gt;Node1</title>
<g id="a_edge2_Node000001_Node000003"><a xlink:title=" ">
<path fill="none" stroke="#9a32cd" stroke-dasharray="5,2" d="M283.83,-146.87C288.43,-150.43 292.93,-154.53 296.5,-159 303.78,-168.12 308.55,-180.84 311.13,-189.24"/>
<polygon fill="#9a32cd" stroke="#9a32cd" points="285.81,-143.98 275.62,-141.06 281.76,-149.69 285.81,-143.98"/>
</a>
</g>
<text text-anchor="middle" x="320" y="-162" font-family="Helvetica,sans-Serif" font-size="10.00" fill="grey"> parent</text>
</g>
<!-- Node6 -->
<g id="Node000006" class="node">
<title>Node6</title>
<g id="a_Node000006"><a xlink:href="classLabel.html" target="_top" xlink:title="Represents a label.">
<polygon fill="white" stroke="#666666" points="43,-75 0,-75 0,-56 43,-56 43,-75"/>
<text text-anchor="middle" x="21.5" y="-63" font-family="Helvetica,sans-Serif" font-size="10.00">Label</text>
</a>
</g>
</g>
<!-- Node3&#45;&gt;Node6 -->
<g id="edge9_Node000006_Node000003" class="edge">
<title>Node3&#45;&gt;Node6</title>
<g id="a_edge9_Node000006_Node000003"><a xlink:title=" ">
<path fill="none" stroke="#63b8ff" d="M226.76,-125.32C218.81,-124.16 210.36,-122.99 202.5,-122 164.59,-117.23 60.54,-128.84 31.5,-104 23.2,-96.91 21.4,-83.77 21.2,-75.09"/>
<polygon fill="#63b8ff" stroke="#63b8ff" points="226.42,-128.81 236.83,-126.81 227.45,-121.88 226.42,-128.81"/>
</a>
</g>
</g>
<!-- Node7 -->
<g id="Node000007" class="node">
<title>Node7</title>
<g id="a_Node000007"><a xlink:href="classButton.html" target="_top" xlink:title="Represents a button.">
<polygon fill="white" stroke="#666666" points="492,-75 443,-75 443,-56 492,-56 492,-75"/>
<text text-anchor="middle" x="467.5" y="-63" font-family="Helvetica,sans-Serif" font-size="10.00">Button</text>
</a>
</g>
</g>
<!-- Node3&#45;&gt;Node7 -->
<g id="edge11_Node000007_Node000003" class="edge">
<title>Node3&#45;&gt;Node7</title>
<g id="a_edge11_Node000007_Node000003"><a xlink:title=" ">
<path fill="none" stroke="#63b8ff" d="M294.24,-127.84C337.08,-124.03 408.22,-116.11 431.5,-104 444.47,-97.25 455.44,-84.03 461.75,-75.23"/>
<polygon fill="#63b8ff" stroke="#63b8ff" points="293.67,-124.38 284.01,-128.72 294.27,-131.35 293.67,-124.38"/>
</a>
</g>
</g>
<!-- Node8 -->
<g id="Node000008" class="node">
<title>Node8</title>
<g id="a_Node000008"><a xlink:href="classInputArea.html" target="_top" xlink:title="Represents an input area.">
<polygon fill="white" stroke="#666666" points="230.5,-75 166.5,-75 166.5,-56 230.5,-56 230.5,-75"/>
<text text-anchor="middle" x="198.5" y="-63" font-family="Helvetica,sans-Serif" font-size="10.00">InputArea</text>
</a>
</g>
</g>
<!-- Node3&#45;&gt;Node8 -->
<g id="edge13_Node000008_Node000003" class="edge">
<title>Node3&#45;&gt;Node8</title>
<g id="a_edge13_Node000008_Node000003"><a xlink:title=" ">
<path fill="none" stroke="#63b8ff" d="M227.19,-124.64C215.47,-120.81 203.5,-114.47 196.5,-104 190.78,-95.44 192.88,-83.16 195.33,-75.01"/>
<polygon fill="#63b8ff" stroke="#63b8ff" points="226.28,-128.02 236.85,-127.31 228.14,-121.27 226.28,-128.02"/>
</a>
</g>
</g>
<!-- Node9 -->
<g id="Node000009" class="node">
<title>Node9</title>
<g id="a_Node000009"><a xlink:href="classSelectList.html" target="_top" xlink:title="Represents a selectable list.">
<polygon fill="white" stroke="#666666" points="312.5,-75 248.5,-75 248.5,-56 312.5,-56 312.5,-75"/>
<text text-anchor="middle" x="280.5" y="-63" font-family="Helvetica,sans-Serif" font-size="10.00">SelectList</text>
</a>
</g>
</g>
<!-- Node3&#45;&gt;Node9 -->
<g id="edge15_Node000009_Node000003" class="edge">
<title>Node3&#45;&gt;Node9</title>
<g id="a_edge15_Node000009_Node000003"><a xlink:title=" ">
<path fill="none" stroke="#63b8ff" d="M260.88,-111.89C261.43,-105.75 262.49,-98.97 264.5,-93 266.63,-86.68 270.45,-80.27 273.82,-75.33"/>
<polygon fill="#63b8ff" stroke="#63b8ff" points="257.38,-111.77 260.37,-121.94 264.37,-112.13 257.38,-111.77"/>
</a>
</g>
</g>
<!-- Node10 -->
<g id="Node000010" class="node">
<title>Node10</title>
<g id="a_Node000010"><a xlink:href="classImageFrame.html" target="_top" xlink:title="Represents an image frame.">
<polygon fill="white" stroke="#666666" points="412.5,-75 334.5,-75 334.5,-56 412.5,-56 412.5,-75"/>
<text text-anchor="middle" x="373.5" y="-63" font-family="Helvetica,sans-Serif" font-size="10.00">ImageFrame</text>
</a>
</g>
</g>
<!-- Node3&#45;&gt;Node10 -->
<g id="edge17_Node000010_Node000003" class="edge">
<title>Node3&#45;&gt;Node10</title>
<g id="a_edge17_Node000010_Node000003"><a xlink:title=" ">
<path fill="none" stroke="#63b8ff" d="M293.75,-118.99C304.2,-114.84 315.59,-109.74 325.5,-104 339.96,-95.62 354.85,-83.3 364.14,-75.1"/>
<polygon fill="#63b8ff" stroke="#63b8ff" points="292.19,-115.84 284.09,-122.67 294.69,-122.38 292.19,-115.84"/>
</a>
</g>
</g>
<!-- Node4 -->
<g id="Node000004" class="node">
<title>Node4</title>
<g id="a_Node000004"><a xlink:href="classNode.html" target="_top" xlink:title="Represents a node in the tree structure.">
<polygon fill="white" stroke="#666666" points="205.5,-208.5 163.5,-208.5 163.5,-189.5 205.5,-189.5 205.5,-208.5"/>
<text text-anchor="middle" x="184.5" y="-196.5" font-family="Helvetica,sans-Serif" font-size="10.00">Node</text>
</a>
</g>
</g>
<!-- Node4&#45;&gt;Node3 -->
<g id="edge3_Node000003_Node000004" class="edge">
<title>Node4&#45;&gt;Node3</title>
<g id="a_edge3_Node000003_Node000004"><a xlink:title=" ">
<path fill="none" stroke="#63b8ff" d="M202.03,-182.89C216.99,-170 237.98,-151.91 250.32,-141.27"/>
<polygon fill="#63b8ff" stroke="#63b8ff" points="199.73,-180.26 194.44,-189.44 204.3,-185.56 199.73,-180.26"/>
</a>
</g>
</g>
<!-- Node4&#45;&gt;Node4 -->
<g id="edge4_Node000004_Node000004" class="edge">
<title>Node4&#45;&gt;Node4</title>
<g id="a_edge4_Node000004_Node000004"><a xlink:title=" ">
<path fill="none" stroke="#9a32cd" stroke-dasharray="5,2" d="M215.91,-204.74C220.45,-203.83 223.5,-201.91 223.5,-199 223.5,-194.22 215.27,-192.13 205.76,-192.72"/>
<polygon fill="#9a32cd" stroke="#9a32cd" points="215.56,-201.26 205.76,-205.28 215.93,-208.25 215.56,-201.26"/>
</a>
</g>
<text text-anchor="middle" x="245" y="-202" font-family="Helvetica,sans-Serif" font-size="10.00" fill="grey"> children</text>
<text text-anchor="middle" x="245" y="-191" font-family="Helvetica,sans-Serif" font-size="10.00" fill="grey">parent</text>
</g>
<!-- Node5 -->
<g id="Node000005" class="node">
<title>Node5</title>
<g id="a_Node000005"><a xlink:href="unionBehaviorAttribute.html" target="_top" xlink:title=" ">
<polygon fill="white" stroke="#666666" points="193,-141 90,-141 90,-122 193,-122 193,-141"/>
<text text-anchor="middle" x="141.5" y="-129" font-family="Helvetica,sans-Serif" font-size="10.00">BehaviorAttribute</text>
</a>
</g>
</g>
<!-- Node4&#45;&gt;Node5 -->
<g id="edge6_Node000005_Node000004" class="edge">
<title>Node4&#45;&gt;Node5</title>
<g id="a_edge6_Node000005_Node000004"><a xlink:title=" ">
<path fill="none" stroke="#9a32cd" stroke-dasharray="5,2" d="M175.3,-180.33C171.56,-173.52 167.05,-165.76 162.5,-159 158.31,-152.76 153.06,-146.14 148.86,-141.07"/>
<polygon fill="#9a32cd" stroke="#9a32cd" points="172.35,-182.24 180.15,-189.4 178.52,-178.93 172.35,-182.24"/>
</a>
</g>
<text text-anchor="middle" x="183.5" y="-162" font-family="Helvetica,sans-Serif" font-size="10.00" fill="grey"> node</text>
</g>
<!-- Node5&#45;&gt;Node4 -->
<g id="edge5_Node000004_Node000005" class="edge">
<title>Node5&#45;&gt;Node4</title>
<g id="a_edge5_Node000004_Node000005"><a xlink:title=" ">
<path fill="none" stroke="#9a32cd" stroke-dasharray="5,2" d="M121.58,-148.34C115.6,-155.03 111.74,-162.9 116.5,-170 126.87,-185.49 147.53,-192.42 163.37,-195.51"/>
<polygon fill="#9a32cd" stroke="#9a32cd" points="124.33,-150.56 129.2,-141.15 119.53,-145.47 124.33,-150.56"/>
</a>
</g>
<text text-anchor="middle" x="139.5" y="-162" font-family="Helvetica,sans-Serif" font-size="10.00" fill="grey"> attribute</text>
</g>
<!-- Node6&#45;&gt;Node3 -->
<g id="edge8_Node000003_Node000006" class="edge">
<title>Node6&#45;&gt;Node3</title>
<g id="a_edge8_Node000003_Node000006"><a xlink:title=" ">
<path fill="none" stroke="#9a32cd" stroke-dasharray="5,2" d="M29.3,-84.53C33.37,-91.77 39.07,-99.45 46.5,-104 76.27,-122.21 167.9,-117.47 202.5,-122 213.8,-123.48 226.32,-125.29 236.82,-126.86"/>
<polygon fill="#9a32cd" stroke="#9a32cd" points="32.31,-82.71 24.76,-75.28 26.03,-85.8 32.31,-82.71"/>
</a>
</g>
<text text-anchor="middle" x="60.5" y="-96" font-family="Helvetica,sans-Serif" font-size="10.00" fill="grey"> label</text>
</g>
<!-- Node7&#45;&gt;Node3 -->
<g id="edge10_Node000003_Node000007" class="edge">
<title>Node7&#45;&gt;Node3</title>
<g id="a_edge10_Node000003_Node000007"><a xlink:title=" ">
<path fill="none" stroke="#9a32cd" stroke-dasharray="5,2" d="M471.68,-85.44C472.03,-92.05 470.98,-99.05 466.5,-104 442.63,-130.42 332.98,-131.85 284.12,-131.12"/>
<polygon fill="#9a32cd" stroke="#9a32cd" points="475.07,-84.47 470.13,-75.1 468.15,-85.51 475.07,-84.47"/>
</a>
</g>
<text text-anchor="middle" x="488" y="-96" font-family="Helvetica,sans-Serif" font-size="10.00" fill="grey"> button</text>
</g>
<!-- Node11 -->
<g id="Node000011" class="node">
<title>Node11</title>
<g id="a_Node000011"><a xlink:href="classRadioButton.html" target="_top" xlink:title="Represents a radio button.">
<polygon fill="white" stroke="#666666" points="242,-19 165,-19 165,0 242,0 242,-19"/>
<text text-anchor="middle" x="203.5" y="-7" font-family="Helvetica,sans-Serif" font-size="10.00">RadioButton</text>
</a>
</g>
</g>
<!-- Node7&#45;&gt;Node11 -->
<g id="edge19_Node000011_Node000007" class="edge">
<title>Node7&#45;&gt;Node11</title>
<g id="a_edge19_Node000011_Node000007"><a xlink:title=" ">
<path fill="none" stroke="#63b8ff" d="M432.78,-57.4C383.44,-47.31 293.34,-28.88 242,-18.38"/>
<polygon fill="#63b8ff" stroke="#63b8ff" points="432.16,-60.84 442.66,-59.42 433.57,-53.99 432.16,-60.84"/>
</a>
</g>
</g>
<!-- Node12 -->
<g id="Node000012" class="node">
<title>Node12</title>
<g id="a_Node000012"><a xlink:href="classSlider.html" target="_top" xlink:title=" ">
<polygon fill="white" stroke="#666666" points="536.5,-19 492.5,-19 492.5,0 536.5,0 536.5,-19"/>
<text text-anchor="middle" x="514.5" y="-7" font-family="Helvetica,sans-Serif" font-size="10.00">Slider</text>
</a>
</g>
</g>
<!-- Node7&#45;&gt;Node12 -->
<g id="edge21_Node000012_Node000007" class="edge">
<title>Node7&#45;&gt;Node12</title>
<g id="a_edge21_Node000012_Node000007"><a xlink:title=" ">
<path fill="none" stroke="#63b8ff" d="M481.92,-47.93C490.16,-38.47 500.15,-26.98 506.88,-19.25"/>
<polygon fill="#63b8ff" stroke="#63b8ff" points="479.19,-45.74 475.26,-55.58 484.47,-50.34 479.19,-45.74"/>
</a>
</g>
</g>
<!-- Node8&#45;&gt;Node3 -->
<g id="edge12_Node000003_Node000008" class="edge">
<title>Node8&#45;&gt;Node3</title>
<g id="a_edge12_Node000003_Node000008"><a xlink:title=" ">
<path fill="none" stroke="#9a32cd" stroke-dasharray="5,2" d="M199.19,-85.22C200.24,-91.71 202.36,-98.69 206.5,-104 214.08,-113.72 226.14,-120.11 236.95,-124.17"/>
<polygon fill="#9a32cd" stroke="#9a32cd" points="202.67,-84.77 198.28,-75.13 195.7,-85.41 202.67,-84.77"/>
</a>
</g>
<text text-anchor="middle" x="232" y="-96" font-family="Helvetica,sans-Serif" font-size="10.00" fill="grey"> inputArea</text>
</g>
<!-- Node9&#45;&gt;Node3 -->
<g id="edge14_Node000003_Node000009" class="edge">
<title>Node9&#45;&gt;Node3</title>
<g id="a_edge14_Node000003_Node000009"><a xlink:title=" ">
<path fill="none" stroke="#9a32cd" stroke-dasharray="5,2" d="M274.71,-85.03C270.92,-97.17 266.13,-112.47 263.2,-121.87"/>
<polygon fill="#9a32cd" stroke="#9a32cd" points="278.07,-85.99 277.72,-75.41 271.39,-83.91 278.07,-85.99"/>
</a>
</g>
<text text-anchor="middle" x="296.5" y="-96" font-family="Helvetica,sans-Serif" font-size="10.00" fill="grey"> selectList</text>
</g>
<!-- Node10&#45;&gt;Node3 -->
<g id="edge16_Node000003_Node000010" class="edge">
<title>Node10&#45;&gt;Node3</title>
<g id="a_edge16_Node000003_Node000010"><a xlink:title=" ">
<path fill="none" stroke="#9a32cd" stroke-dasharray="5,2" d="M367.35,-84.69C364.19,-91.61 359.67,-99.02 353.5,-104 333.64,-120.03 304.58,-126.37 284.24,-128.87"/>
<polygon fill="#9a32cd" stroke="#9a32cd" points="370.66,-85.82 371.05,-75.24 364.14,-83.27 370.66,-85.82"/>
</a>
</g>
<text text-anchor="middle" x="395" y="-96" font-family="Helvetica,sans-Serif" font-size="10.00" fill="grey"> imageFrame</text>
</g>
<!-- Node11&#45;&gt;Node3 -->
<g id="edge18_Node000003_Node000011" class="edge">
<title>Node11&#45;&gt;Node3</title>
<g id="a_edge18_Node000003_Node000011"><a xlink:title=" ">
<path fill="none" stroke="#9a32cd" stroke-dasharray="5,2" d="M154.95,-20.84C118.75,-30.9 78.59,-48.58 97.5,-75 114.03,-98.09 195.81,-117.48 236.88,-125.94"/>
<polygon fill="#9a32cd" stroke="#9a32cd" points="156.21,-24.12 165,-18.2 154.44,-17.35 156.21,-24.12"/>
</a>
</g>
<text text-anchor="middle" x="127.5" y="-63" font-family="Helvetica,sans-Serif" font-size="10.00" fill="grey"> radiobutton</text>
</g>
<!-- Node12&#45;&gt;Node3 -->
<g id="edge20_Node000003_Node000012" class="edge">
<title>Node12&#45;&gt;Node3</title>
<g id="a_edge20_Node000003_Node000012"><a xlink:title=" ">
<path fill="none" stroke="#9a32cd" stroke-dasharray="5,2" d="M519.81,-29.09C524.58,-50.18 528.28,-84.21 509.5,-104 494.17,-120.16 343.72,-127.43 284.38,-129.69"/>
<polygon fill="#9a32cd" stroke="#9a32cd" points="523.13,-27.95 517.26,-19.13 516.35,-29.68 523.13,-27.95"/>
</a>
</g>
<text text-anchor="middle" x="539" y="-63" font-family="Helvetica,sans-Serif" font-size="10.00" fill="grey"> slider</text>
</g>
</g>
</svg>
