<?xml version="1.0" encoding="UTF-8" standalone="no"?>
<!DOCTYPE svg PUBLIC "-//W3C//DTD SVG 1.1//EN"
 "http://www.w3.org/Graphics/SVG/1.1/DTD/svg11.dtd">
<!-- Generated by graphviz version 2.43.0 (0)
 -->
<!-- Title: ModelData Pages: 1 -->
<svg width="349pt" height="247pt"
 viewBox="0.00 0.00 348.50 247.00" xmlns="http://www.w3.org/2000/svg" xmlns:xlink="http://www.w3.org/1999/xlink">
<g id="graph0" class="graph" transform="scale(1 1) rotate(0) translate(4 243)">
<title>ModelData</title>
<!-- Node1 -->
<g id="Node000001" class="node">
<title>Node1</title>
<g id="a_Node000001"><a xlink:title="Structure representing the data of a 3D model.">
<polygon fill="#999999" stroke="#666666" points="152.5,-19 82.5,-19 82.5,0 152.5,0 152.5,-19"/>
<text text-anchor="middle" x="117.5" y="-7" font-family="Helvetica,sans-Serif" font-size="10.00">ModelData</text>
</a>
</g>
</g>
<!-- Node2 -->
<g id="Node000002" class="node">
<title>Node2</title>
<g id="a_Node000002"><a xlink:href="structMaterial.html" target="_top" xlink:title="Structure representing a material with various properties.">
<polygon fill="white" stroke="#666666" points="57,-151 0,-151 0,-132 57,-132 57,-151"/>
<text text-anchor="middle" x="28.5" y="-139" font-family="Helvetica,sans-Serif" font-size="10.00">Material</text>
</a>
</g>
</g>
<!-- Node2&#45;&gt;Node1 -->
<g id="edge1_Node000001_Node000002" class="edge">
<title>Node2&#45;&gt;Node1</title>
<g id="a_edge1_Node000001_Node000002"><a xlink:title=" ">
<path fill="none" stroke="#9a32cd" stroke-dasharray="5,2" d="M15.99,-122.85C6.46,-107.01 -3.35,-83.63 7.5,-66 23.7,-39.68 56.66,-25.39 82.3,-17.93"/>
<polygon fill="#9a32cd" stroke="#9a32cd" points="13.32,-125.15 21.71,-131.61 19.18,-121.32 13.32,-125.15"/>
</a>
</g>
<text text-anchor="middle" x="32.5" y="-73" font-family="Helvetica,sans-Serif" font-size="10.00" fill="grey"> materials</text>
</g>
<!-- Node3 -->
<g id="Node000003" class="node">
<title>Node3</title>
<g id="a_Node000003"><a xlink:href="structModelObjectData.html" target="_top" xlink:title="Structure representing the data of a 3D model object.">
<polygon fill="white" stroke="#666666" points="168,-85 67,-85 67,-66 168,-66 168,-85"/>
<text text-anchor="middle" x="117.5" y="-73" font-family="Helvetica,sans-Serif" font-size="10.00">ModelObjectData</text>
</a>
</g>
</g>
<!-- Node2&#45;&gt;Node3 -->
<g id="edge3_Node000003_Node000002" class="edge">
<title>Node2&#45;&gt;Node3</title>
<g id="a_edge3_Node000003_Node000002"><a xlink:title=" ">
<path fill="none" stroke="#9a32cd" stroke-dasharray="5,2" d="M48.89,-125.83C66.35,-113.28 90.89,-95.63 105.4,-85.2"/>
<polygon fill="#9a32cd" stroke="#9a32cd" points="46.58,-123.19 40.5,-131.87 50.67,-128.87 46.58,-123.19"/>
</a>
</g>
<text text-anchor="middle" x="103.5" y="-106" font-family="Helvetica,sans-Serif" font-size="10.00" fill="grey"> materials</text>
</g>
<!-- Node3&#45;&gt;Node1 -->
<g id="edge2_Node000001_Node000003" class="edge">
<title>Node3&#45;&gt;Node1</title>
<g id="a_edge2_Node000001_Node000003"><a xlink:title=" ">
<path fill="none" stroke="#9a32cd" stroke-dasharray="5,2" d="M117.5,-55.58C117.5,-43.63 117.5,-28.72 117.5,-19.41"/>
<polygon fill="#9a32cd" stroke="#9a32cd" points="114,-55.87 117.5,-65.87 121,-55.87 114,-55.87"/>
</a>
</g>
<text text-anchor="middle" x="137" y="-40" font-family="Helvetica,sans-Serif" font-size="10.00" fill="grey"> objects</text>
</g>
<!-- Node4 -->
<g id="Node000004" class="node">
<title>Node4</title>
<g id="a_Node000004"><a xlink:href="structModelAnimation.html" target="_top" xlink:title="Structure representing the data of a 3D model animation.">
<polygon fill="white" stroke="#666666" points="283,-85 186,-85 186,-66 283,-66 283,-85"/>
<text text-anchor="middle" x="234.5" y="-73" font-family="Helvetica,sans-Serif" font-size="10.00">ModelAnimation</text>
</a>
</g>
</g>
<!-- Node4&#45;&gt;Node1 -->
<g id="edge4_Node000001_Node000004" class="edge">
<title>Node4&#45;&gt;Node1</title>
<g id="a_edge4_Node000001_Node000004"><a xlink:title=" ">
<path fill="none" stroke="#9a32cd" stroke-dasharray="5,2" d="M209.87,-61.03C186.83,-48.42 153.09,-29.97 133.4,-19.2"/>
<polygon fill="#9a32cd" stroke="#9a32cd" points="208.27,-64.14 218.72,-65.87 211.63,-58 208.27,-64.14"/>
</a>
</g>
<text text-anchor="middle" x="212.5" y="-40" font-family="Helvetica,sans-Serif" font-size="10.00" fill="grey"> animations</text>
</g>
<!-- Node5 -->
<g id="Node000005" class="node">
<title>Node5</title>
<g id="a_Node000005"><a xlink:href="structBone.html" target="_top" xlink:title="Structure representing a bone in a 3D model.">
<polygon fill="white" stroke="#666666" points="255,-151 214,-151 214,-132 255,-132 255,-151"/>
<text text-anchor="middle" x="234.5" y="-139" font-family="Helvetica,sans-Serif" font-size="10.00">Bone</text>
</a>
</g>
</g>
<!-- Node5&#45;&gt;Node4 -->
<g id="edge5_Node000004_Node000005" class="edge">
<title>Node5&#45;&gt;Node4</title>
<g id="a_edge5_Node000004_Node000005"><a xlink:title=" ">
<path fill="none" stroke="#9a32cd" stroke-dasharray="5,2" d="M234.5,-121.58C234.5,-109.63 234.5,-94.72 234.5,-85.41"/>
<polygon fill="#9a32cd" stroke="#9a32cd" points="231,-121.87 234.5,-131.87 238,-121.87 231,-121.87"/>
</a>
</g>
<text text-anchor="middle" x="253.5" y="-106" font-family="Helvetica,sans-Serif" font-size="10.00" fill="grey"> targets</text>
</g>
<!-- Node6 -->
<g id="Node000006" class="node">
<title>Node6</title>
<g id="a_Node000006"><a xlink:href="structModelKeyframe.html" target="_top" xlink:title="Structure representing the data of a 3D model keyframe.">
<polygon fill="white" stroke="#666666" points="281.5,-239 187.5,-239 187.5,-220 281.5,-220 281.5,-239"/>
<text text-anchor="middle" x="234.5" y="-227" font-family="Helvetica,sans-Serif" font-size="10.00">ModelKeyframe</text>
</a>
</g>
</g>
<!-- Node6&#45;&gt;Node5 -->
<g id="edge6_Node000005_Node000006" class="edge">
<title>Node6&#45;&gt;Node5</title>
<g id="a_edge6_Node000005_Node000006"><a xlink:title=" ">
<path fill="none" stroke="#9a32cd" stroke-dasharray="5,2" d="M234.5,-209.91C234.5,-191.67 234.5,-164.65 234.5,-151.03"/>
<polygon fill="#9a32cd" stroke="#9a32cd" points="231,-209.94 234.5,-219.94 238,-209.94 231,-209.94"/>
</a>
</g>
<text text-anchor="middle" x="287.5" y="-194" font-family="Helvetica,sans-Serif" font-size="10.00" fill="grey"> rotationKeyframes</text>
<text text-anchor="middle" x="287.5" y="-183" font-family="Helvetica,sans-Serif" font-size="10.00" fill="grey">scaleKeyframes</text>
<text text-anchor="middle" x="287.5" y="-172" font-family="Helvetica,sans-Serif" font-size="10.00" fill="grey">translationKeyframes</text>
</g>
</g>
</svg>
