<?xml version="1.0" encoding="UTF-8" standalone="no"?>
<!DOCTYPE svg PUBLIC "-//W3C//DTD SVG 1.1//EN"
 "http://www.w3.org/Graphics/SVG/1.1/DTD/svg11.dtd">
<!-- Generated by graphviz version 2.43.0 (0)
 -->
<!-- Title: src/utils/time.h Pages: 1 -->
<svg width="329pt" height="93pt"
 viewBox="0.00 0.00 329.00 93.00" xmlns="http://www.w3.org/2000/svg" xmlns:xlink="http://www.w3.org/1999/xlink">
<g id="graph0" class="graph" transform="scale(1 1) rotate(0) translate(4 89)">
<title>src/utils/time.h</title>
<!-- Node1 -->
<g id="Node000001" class="node">
<title>Node1</title>
<g id="a_Node000001"><a xlink:title=" ">
<polygon fill="#999999" stroke="#666666" points="224,-85 135,-85 135,-66 224,-66 224,-85"/>
<text text-anchor="middle" x="179.5" y="-73" font-family="Helvetica,sans-Serif" font-size="10.00">src/utils/time.h</text>
</a>
</g>
</g>
<!-- Node2 -->
<g id="Node000002" class="node">
<title>Node2</title>
<g id="a_Node000002"><a xlink:href="chessboard_8h.html" target="_top" xlink:title=" ">
<polygon fill="white" stroke="#666666" points="117,-30 0,-30 0,0 117,0 117,-30"/>
<text text-anchor="start" x="8" y="-18" font-family="Helvetica,sans-Serif" font-size="10.00">src/scripts/fps_chess</text>
<text text-anchor="middle" x="58.5" y="-7" font-family="Helvetica,sans-Serif" font-size="10.00">/chessboard.h</text>
</a>
</g>
</g>
<!-- Node1&#45;&gt;Node2 -->
<g id="edge1_Node000001_Node000002" class="edge">
<title>Node1&#45;&gt;Node2</title>
<g id="a_edge1_Node000001_Node000002"><a xlink:title=" ">
<path fill="none" stroke="#63b8ff" d="M152.8,-61.59C133.57,-52.29 107.63,-39.75 87.82,-30.18"/>
<polygon fill="#63b8ff" stroke="#63b8ff" points="151.38,-64.79 161.91,-65.99 154.43,-58.49 151.38,-64.79"/>
</a>
</g>
</g>
<!-- Node3 -->
<g id="Node000003" class="node">
<title>Node3</title>
<g id="a_Node000003"><a xlink:href="time_8c.html" target="_top" xlink:title=" ">
<polygon fill="white" stroke="#666666" points="224,-24.5 135,-24.5 135,-5.5 224,-5.5 224,-24.5"/>
<text text-anchor="middle" x="179.5" y="-12.5" font-family="Helvetica,sans-Serif" font-size="10.00">src/utils/time.c</text>
</a>
</g>
</g>
<!-- Node1&#45;&gt;Node3 -->
<g id="edge2_Node000001_Node000003" class="edge">
<title>Node1&#45;&gt;Node3</title>
<g id="a_edge2_Node000001_Node000003"><a xlink:title=" ">
<path fill="none" stroke="#63b8ff" d="M179.5,-55.66C179.5,-45.24 179.5,-32.8 179.5,-24.67"/>
<polygon fill="#63b8ff" stroke="#63b8ff" points="176,-55.87 179.5,-65.87 183,-55.87 176,-55.87"/>
</a>
</g>
</g>
<!-- Node4 -->
<g id="Node000004" class="node">
<title>Node4</title>
<g id="a_Node000004"><a xlink:href="window_8c.html" target="_top" xlink:title=" ">
<polygon fill="white" stroke="#666666" points="321,-24.5 242,-24.5 242,-5.5 321,-5.5 321,-24.5"/>
<text text-anchor="middle" x="281.5" y="-12.5" font-family="Helvetica,sans-Serif" font-size="10.00">src/window.c</text>
</a>
</g>
</g>
<!-- Node1&#45;&gt;Node4 -->
<g id="edge3_Node000001_Node000004" class="edge">
<title>Node1&#45;&gt;Node4</title>
<g id="a_edge3_Node000001_Node000004"><a xlink:title=" ">
<path fill="none" stroke="#63b8ff" d="M203.44,-60.77C222.91,-49.6 249.79,-34.19 266.39,-24.67"/>
<polygon fill="#63b8ff" stroke="#63b8ff" points="201.48,-57.86 194.55,-65.87 204.97,-63.93 201.48,-57.86"/>
</a>
</g>
</g>
</g>
</svg>
