<?xml version="1.0" encoding="UTF-8" standalone="no"?>
<!DOCTYPE svg PUBLIC "-//W3C//DTD SVG 1.1//EN"
 "http://www.w3.org/Graphics/SVG/1.1/DTD/svg11.dtd">
<!-- Generated by graphviz version 2.43.0 (0)
 -->
<!-- Title: BehaviorAttribute Pages: 1 -->
<svg width="142pt" height="96pt"
 viewBox="0.00 0.00 141.50 96.00" xmlns="http://www.w3.org/2000/svg" xmlns:xlink="http://www.w3.org/1999/xlink">
<g id="graph0" class="graph" transform="scale(1 1) rotate(0) translate(4 92)">
<title>BehaviorAttribute</title>
<!-- Node1 -->
<g id="Node000001" class="node">
<title>Node1</title>
<g id="a_Node000001"><a xlink:title=" ">
<polygon fill="#999999" stroke="#666666" points="103,-88 0,-88 0,-69 103,-69 103,-88"/>
<text text-anchor="middle" x="51.5" y="-76" font-family="Helvetica,sans-Serif" font-size="10.00">BehaviorAttribute</text>
</a>
</g>
</g>
<!-- Node2 -->
<g id="Node000002" class="node">
<title>Node2</title>
<g id="a_Node000002"><a xlink:href="classNode.html" target="_top" xlink:title="Represents a node in the tree structure.">
<polygon fill="white" stroke="#666666" points="72.5,-20.5 30.5,-20.5 30.5,-1.5 72.5,-1.5 72.5,-20.5"/>
<text text-anchor="middle" x="51.5" y="-8.5" font-family="Helvetica,sans-Serif" font-size="10.00">Node</text>
</a>
</g>
</g>
<!-- Node1&#45;&gt;Node2 -->
<g id="edge3_Node000002_Node000001" class="edge">
<title>Node1&#45;&gt;Node2</title>
<g id="a_edge3_Node000002_Node000001"><a xlink:title=" ">
<path fill="none" stroke="#9a32cd" stroke-dasharray="5,2" d="M24.2,-62.75C20.29,-59.42 16.82,-55.51 14.5,-51 8.23,-38.8 21.36,-27.75 33.68,-20.55"/>
<polygon fill="#9a32cd" stroke="#9a32cd" points="22.44,-65.8 32.61,-68.78 26.52,-60.11 22.44,-65.8"/>
</a>
</g>
<text text-anchor="middle" x="37.5" y="-43" font-family="Helvetica,sans-Serif" font-size="10.00" fill="grey"> attribute</text>
</g>
<!-- Node2&#45;&gt;Node1 -->
<g id="edge1_Node000001_Node000002" class="edge">
<title>Node2&#45;&gt;Node1</title>
<g id="a_edge1_Node000001_Node000002"><a xlink:title=" ">
<path fill="none" stroke="#9a32cd" stroke-dasharray="5,2" d="M61.81,-29.84C64.45,-36.42 66.13,-43.97 64.5,-51 63.06,-57.19 59.97,-63.6 57.16,-68.57"/>
<polygon fill="#9a32cd" stroke="#9a32cd" points="64.79,-27.96 57.23,-20.54 58.51,-31.06 64.79,-27.96"/>
</a>
</g>
<text text-anchor="middle" x="78.5" y="-43" font-family="Helvetica,sans-Serif" font-size="10.00" fill="grey"> node</text>
</g>
<!-- Node2&#45;&gt;Node2 -->
<g id="edge2_Node000002_Node000002" class="edge">
<title>Node2&#45;&gt;Node2</title>
<g id="a_edge2_Node000002_Node000002"><a xlink:title=" ">
<path fill="none" stroke="#9a32cd" stroke-dasharray="5,2" d="M82.91,-16.74C87.45,-15.83 90.5,-13.91 90.5,-11 90.5,-6.22 82.27,-4.13 72.76,-4.72"/>
<polygon fill="#9a32cd" stroke="#9a32cd" points="82.56,-13.26 72.76,-17.28 82.93,-20.25 82.56,-13.26"/>
</a>
</g>
<text text-anchor="middle" x="112" y="-14" font-family="Helvetica,sans-Serif" font-size="10.00" fill="grey"> children</text>
<text text-anchor="middle" x="112" y="-3" font-family="Helvetica,sans-Serif" font-size="10.00" fill="grey">parent</text>
</g>
</g>
</svg>
