<?xml version="1.0" encoding="UTF-8" standalone="no"?>
<!DOCTYPE svg PUBLIC "-//W3C//DTD SVG 1.1//EN"
 "http://www.w3.org/Graphics/SVG/1.1/DTD/svg11.dtd">
<!-- Generated by graphviz version 2.43.0 (0)
 -->
<!-- Title: src/window.h Pages: 1 -->
<svg width="3274pt" height="93pt"
 viewBox="0.00 0.00 3273.50 93.00" xmlns="http://www.w3.org/2000/svg" xmlns:xlink="http://www.w3.org/1999/xlink">
<g id="graph0" class="graph" transform="scale(1 1) rotate(0) translate(4 89)">
<title>src/window.h</title>
<!-- Node1 -->
<g id="Node000001" class="node">
<title>Node1</title>
<g id="a_Node000001"><a xlink:title=" ">
<polygon fill="#999999" stroke="#666666" points="1841,-85 1761,-85 1761,-66 1841,-66 1841,-85"/>
<text text-anchor="middle" x="1801" y="-73" font-family="Helvetica,sans-Serif" font-size="10.00">src/window.h</text>
</a>
</g>
</g>
<!-- Node2 -->
<g id="Node000002" class="node">
<title>Node2</title>
<g id="a_Node000002"><a xlink:href="button_8class_8c.html" target="_top" xlink:title="This file defines the Button class and its associated methods.">
<polygon fill="white" stroke="#666666" points="140,-30 0,-30 0,0 140,0 140,-30"/>
<text text-anchor="start" x="8" y="-18" font-family="Helvetica,sans-Serif" font-size="10.00">src/classes/nodes/frames</text>
<text text-anchor="middle" x="70" y="-7" font-family="Helvetica,sans-Serif" font-size="10.00">/button.class.c</text>
</a>
</g>
</g>
<!-- Node1&#45;&gt;Node2 -->
<g id="edge1_Node000001_Node000002" class="edge">
<title>Node1&#45;&gt;Node2</title>
<g id="a_edge1_Node000001_Node000002"><a xlink:title=" ">
<path fill="none" stroke="#63b8ff" d="M1750.41,-74.15C1508.83,-72.33 471.04,-62.69 149,-30 146.09,-29.7 143.13,-29.36 140.14,-28.99"/>
<polygon fill="#63b8ff" stroke="#63b8ff" points="1750.63,-77.65 1760.65,-74.23 1750.68,-70.65 1750.63,-77.65"/>
</a>
</g>
</g>
<!-- Node3 -->
<g id="Node000003" class="node">
<title>Node3</title>
<g id="a_Node000003"><a xlink:href="checkbox_8class_8c.html" target="_top" xlink:title="Implementation of the Checkbox class for the GUI framework.">
<polygon fill="white" stroke="#666666" points="298,-30 158,-30 158,0 298,0 298,-30"/>
<text text-anchor="start" x="166" y="-18" font-family="Helvetica,sans-Serif" font-size="10.00">src/classes/nodes/frames</text>
<text text-anchor="middle" x="228" y="-7" font-family="Helvetica,sans-Serif" font-size="10.00">/checkbox.class.c</text>
</a>
</g>
</g>
<!-- Node1&#45;&gt;Node3 -->
<g id="edge2_Node000001_Node000003" class="edge">
<title>Node1&#45;&gt;Node3</title>
<g id="a_edge2_Node000001_Node000003"><a xlink:title=" ">
<path fill="none" stroke="#63b8ff" d="M1750.56,-73.99C1523.68,-71.52 596.19,-59.77 307,-30 304.09,-29.7 301.13,-29.36 298.14,-28.98"/>
<polygon fill="#63b8ff" stroke="#63b8ff" points="1750.8,-77.49 1760.83,-74.1 1750.87,-70.49 1750.8,-77.49"/>
</a>
</g>
</g>
<!-- Node4 -->
<g id="Node000004" class="node">
<title>Node4</title>
<g id="a_Node000004"><a xlink:href="control__frame_8class_8c.html" target="_top" xlink:title="This file defines the implementation of the control frame class.">
<polygon fill="white" stroke="#666666" points="456,-30 316,-30 316,0 456,0 456,-30"/>
<text text-anchor="start" x="324" y="-18" font-family="Helvetica,sans-Serif" font-size="10.00">src/classes/nodes/frames</text>
<text text-anchor="middle" x="386" y="-7" font-family="Helvetica,sans-Serif" font-size="10.00">/control_frame.class.c</text>
</a>
</g>
</g>
<!-- Node1&#45;&gt;Node4 -->
<g id="edge3_Node000001_Node000004" class="edge">
<title>Node1&#45;&gt;Node4</title>
<g id="a_edge3_Node000001_Node000004"><a xlink:title=" ">
<path fill="none" stroke="#63b8ff" d="M1750.48,-73.78C1538.66,-70.61 721.34,-56.85 465,-30 462.09,-29.7 459.13,-29.35 456.14,-28.96"/>
<polygon fill="#63b8ff" stroke="#63b8ff" points="1750.63,-77.28 1760.68,-73.93 1750.74,-70.28 1750.63,-77.28"/>
</a>
</g>
</g>
<!-- Node5 -->
<g id="Node000005" class="node">
<title>Node5</title>
<g id="a_Node000005"><a xlink:href="frame_8class_8c.html" target="_top" xlink:title="This file defines the implementation of frame&#45;related functionalities.">
<polygon fill="white" stroke="#666666" points="614,-30 474,-30 474,0 614,0 614,-30"/>
<text text-anchor="start" x="482" y="-18" font-family="Helvetica,sans-Serif" font-size="10.00">src/classes/nodes/frames</text>
<text text-anchor="middle" x="544" y="-7" font-family="Helvetica,sans-Serif" font-size="10.00">/frame.class.c</text>
</a>
</g>
</g>
<!-- Node1&#45;&gt;Node5 -->
<g id="edge4_Node000001_Node000005" class="edge">
<title>Node1&#45;&gt;Node5</title>
<g id="a_edge4_Node000001_Node000005"><a xlink:title=" ">
<path fill="none" stroke="#63b8ff" d="M1750.72,-75.07C1587.5,-76.38 1057.84,-76.52 623,-30 620.09,-29.69 617.13,-29.33 614.14,-28.95"/>
<polygon fill="#63b8ff" stroke="#63b8ff" points="1750.97,-78.57 1760.94,-74.98 1750.91,-71.57 1750.97,-78.57"/>
</a>
</g>
</g>
<!-- Node6 -->
<g id="Node000006" class="node">
<title>Node6</title>
<g id="a_Node000006"><a xlink:href="image__frame_8class_8c.html" target="_top" xlink:title="This file contains the implementation of the ImageFrame class.">
<polygon fill="white" stroke="#666666" points="772,-30 632,-30 632,0 772,0 772,-30"/>
<text text-anchor="start" x="640" y="-18" font-family="Helvetica,sans-Serif" font-size="10.00">src/classes/nodes/frames</text>
<text text-anchor="middle" x="702" y="-7" font-family="Helvetica,sans-Serif" font-size="10.00">/image_frame.class.c</text>
</a>
</g>
</g>
<!-- Node1&#45;&gt;Node6 -->
<g id="edge5_Node000001_Node000006" class="edge">
<title>Node1&#45;&gt;Node6</title>
<g id="a_edge5_Node000001_Node000006"><a xlink:title=" ">
<path fill="none" stroke="#63b8ff" d="M1750.83,-74.65C1602.26,-74.58 1151.79,-70.76 781,-30 778.09,-29.68 775.13,-29.32 772.14,-28.92"/>
<polygon fill="#63b8ff" stroke="#63b8ff" points="1751,-78.15 1761,-74.65 1751,-71.15 1751,-78.15"/>
</a>
</g>
</g>
<!-- Node7 -->
<g id="Node000007" class="node">
<title>Node7</title>
<g id="a_Node000007"><a xlink:href="input__area_8class_8c.html" target="_top" xlink:title="This file defines the InputArea class and its associated methods.">
<polygon fill="white" stroke="#666666" points="930,-30 790,-30 790,0 930,0 930,-30"/>
<text text-anchor="start" x="798" y="-18" font-family="Helvetica,sans-Serif" font-size="10.00">src/classes/nodes/frames</text>
<text text-anchor="middle" x="860" y="-7" font-family="Helvetica,sans-Serif" font-size="10.00">/input_area.class.c</text>
</a>
</g>
</g>
<!-- Node1&#45;&gt;Node7 -->
<g id="edge6_Node000001_Node000007" class="edge">
<title>Node1&#45;&gt;Node7</title>
<g id="a_edge6_Node000001_Node000007"><a xlink:title=" ">
<path fill="none" stroke="#63b8ff" d="M1750.62,-74.07C1617.57,-72.48 1245.96,-64.99 939,-30 936.09,-29.67 933.13,-29.3 930.15,-28.9"/>
<polygon fill="#63b8ff" stroke="#63b8ff" points="1750.86,-77.58 1760.9,-74.19 1750.94,-70.58 1750.86,-77.58"/>
</a>
</g>
</g>
<!-- Node8 -->
<g id="Node000008" class="node">
<title>Node8</title>
<g id="a_Node000008"><a xlink:href="label_8class_8c.html" target="_top" xlink:title="This file defines the Label class and its associated functions.">
<polygon fill="white" stroke="#666666" points="1088,-30 948,-30 948,0 1088,0 1088,-30"/>
<text text-anchor="start" x="956" y="-18" font-family="Helvetica,sans-Serif" font-size="10.00">src/classes/nodes/frames</text>
<text text-anchor="middle" x="1018" y="-7" font-family="Helvetica,sans-Serif" font-size="10.00">/label.class.c</text>
</a>
</g>
</g>
<!-- Node1&#45;&gt;Node8 -->
<g id="edge7_Node000001_Node000008" class="edge">
<title>Node1&#45;&gt;Node8</title>
<g id="a_edge7_Node000001_Node000008"><a xlink:title=" ">
<path fill="none" stroke="#63b8ff" d="M1750.44,-73.25C1634.52,-69.96 1340.79,-59.21 1097,-30 1094.1,-29.65 1091.14,-29.27 1088.15,-28.85"/>
<polygon fill="#63b8ff" stroke="#63b8ff" points="1750.68,-76.76 1760.77,-73.54 1750.87,-69.76 1750.68,-76.76"/>
</a>
</g>
</g>
<!-- Node9 -->
<g id="Node000009" class="node">
<title>Node9</title>
<g id="a_Node000009"><a xlink:href="radiobutton_8class_8c.html" target="_top" xlink:title="Implementation of the RadioButton class.">
<polygon fill="white" stroke="#666666" points="1246,-30 1106,-30 1106,0 1246,0 1246,-30"/>
<text text-anchor="start" x="1114" y="-18" font-family="Helvetica,sans-Serif" font-size="10.00">src/classes/nodes/frames</text>
<text text-anchor="middle" x="1176" y="-7" font-family="Helvetica,sans-Serif" font-size="10.00">/radiobutton.class.c</text>
</a>
</g>
</g>
<!-- Node1&#45;&gt;Node9 -->
<g id="edge8_Node000001_Node000009" class="edge">
<title>Node1&#45;&gt;Node9</title>
<g id="a_edge8_Node000001_Node000009"><a xlink:title=" ">
<path fill="none" stroke="#63b8ff" d="M1750.74,-71.99C1654.32,-66.82 1436.79,-53.46 1255,-30 1252.1,-29.63 1249.14,-29.22 1246.16,-28.79"/>
<polygon fill="#63b8ff" stroke="#63b8ff" points="1750.62,-75.49 1760.79,-72.52 1750.99,-68.5 1750.62,-75.49"/>
</a>
</g>
</g>
<!-- Node10 -->
<g id="Node000010" class="node">
<title>Node10</title>
<g id="a_Node000010"><a xlink:href="selectlist_8class_8c.html" target="_top" xlink:title="This file implements the functionality for a selectable list frame in the application.">
<polygon fill="white" stroke="#666666" points="1404,-30 1264,-30 1264,0 1404,0 1404,-30"/>
<text text-anchor="start" x="1272" y="-18" font-family="Helvetica,sans-Serif" font-size="10.00">src/classes/nodes/frames</text>
<text text-anchor="middle" x="1334" y="-7" font-family="Helvetica,sans-Serif" font-size="10.00">/selectlist.class.c</text>
</a>
</g>
</g>
<!-- Node1&#45;&gt;Node10 -->
<g id="edge9_Node000001_Node000010" class="edge">
<title>Node1&#45;&gt;Node10</title>
<g id="a_edge9_Node000001_Node000010"><a xlink:title=" ">
<path fill="none" stroke="#63b8ff" d="M1750.98,-69.75C1676.96,-62.5 1533.95,-47.64 1413,-30 1410.11,-29.58 1407.15,-29.13 1404.18,-28.67"/>
<polygon fill="#63b8ff" stroke="#63b8ff" points="1750.67,-73.24 1760.96,-70.72 1751.35,-66.27 1750.67,-73.24"/>
</a>
</g>
</g>
<!-- Node11 -->
<g id="Node000011" class="node">
<title>Node11</title>
<g id="a_Node000011"><a xlink:href="slider_8class_8c.html" target="_top" xlink:title=" ">
<polygon fill="white" stroke="#666666" points="1562,-30 1422,-30 1422,0 1562,0 1562,-30"/>
<text text-anchor="start" x="1430" y="-18" font-family="Helvetica,sans-Serif" font-size="10.00">src/classes/nodes/frames</text>
<text text-anchor="middle" x="1492" y="-7" font-family="Helvetica,sans-Serif" font-size="10.00">/slider.class.c</text>
</a>
</g>
</g>
<!-- Node1&#45;&gt;Node11 -->
<g id="edge10_Node000001_Node000011" class="edge">
<title>Node1&#45;&gt;Node11</title>
<g id="a_edge10_Node000001_Node000011"><a xlink:title=" ">
<path fill="none" stroke="#63b8ff" d="M1751.07,-65.05C1699.84,-55.35 1619.69,-40.17 1562.1,-29.27"/>
<polygon fill="#63b8ff" stroke="#63b8ff" points="1750.44,-68.49 1760.92,-66.91 1751.75,-61.61 1750.44,-68.49"/>
</a>
</g>
</g>
<!-- Node12 -->
<g id="Node000012" class="node">
<title>Node12</title>
<g id="a_Node000012"><a xlink:href="input_8c.html" target="_top" xlink:title=" ">
<polygon fill="white" stroke="#666666" points="1659.5,-24.5 1580.5,-24.5 1580.5,-5.5 1659.5,-5.5 1659.5,-24.5"/>
<text text-anchor="middle" x="1620" y="-12.5" font-family="Helvetica,sans-Serif" font-size="10.00">src/io/input.c</text>
</a>
</g>
</g>
<!-- Node1&#45;&gt;Node12 -->
<g id="edge11_Node000001_Node000012" class="edge">
<title>Node1&#45;&gt;Node12</title>
<g id="a_edge11_Node000001_Node000012"><a xlink:title=" ">
<path fill="none" stroke="#63b8ff" d="M1764.85,-62.82C1729.85,-51.5 1677.6,-34.62 1646.35,-24.52"/>
<polygon fill="#63b8ff" stroke="#63b8ff" points="1764.09,-66.25 1774.68,-65.99 1766.24,-59.59 1764.09,-66.25"/>
</a>
</g>
</g>
<!-- Node13 -->
<g id="Node000013" class="node">
<title>Node13</title>
<g id="a_Node000013"><a xlink:href="node__loader_8c.html" target="_top" xlink:title=" ">
<polygon fill="white" stroke="#666666" points="1790.5,-24.5 1677.5,-24.5 1677.5,-5.5 1790.5,-5.5 1790.5,-24.5"/>
<text text-anchor="middle" x="1734" y="-12.5" font-family="Helvetica,sans-Serif" font-size="10.00">src/io/node_loader.c</text>
</a>
</g>
</g>
<!-- Node1&#45;&gt;Node13 -->
<g id="edge12_Node000001_Node000013" class="edge">
<title>Node1&#45;&gt;Node13</title>
<g id="a_edge12_Node000001_Node000013"><a xlink:title=" ">
<path fill="none" stroke="#63b8ff" d="M1783.5,-59.22C1770.9,-48.21 1754.33,-33.75 1743.93,-24.67"/>
<polygon fill="#63b8ff" stroke="#63b8ff" points="1781.28,-61.93 1791.11,-65.87 1785.88,-56.65 1781.28,-61.93"/>
</a>
</g>
</g>
<!-- Node14 -->
<g id="Node000014" class="node">
<title>Node14</title>
<g id="a_Node000014"><a xlink:href="scene__loader_8c.html" target="_top" xlink:title=" ">
<polygon fill="white" stroke="#666666" points="1927,-24.5 1809,-24.5 1809,-5.5 1927,-5.5 1927,-24.5"/>
<text text-anchor="middle" x="1868" y="-12.5" font-family="Helvetica,sans-Serif" font-size="10.00">src/io/scene_loader.c</text>
</a>
</g>
</g>
<!-- Node1&#45;&gt;Node14 -->
<g id="edge13_Node000001_Node000014" class="edge">
<title>Node1&#45;&gt;Node14</title>
<g id="a_edge13_Node000001_Node000014"><a xlink:title=" ">
<path fill="none" stroke="#63b8ff" d="M1818.5,-59.22C1831.1,-48.21 1847.67,-33.75 1858.07,-24.67"/>
<polygon fill="#63b8ff" stroke="#63b8ff" points="1816.12,-56.65 1810.89,-65.87 1820.72,-61.93 1816.12,-56.65"/>
</a>
</g>
</g>
<!-- Node15 -->
<g id="Node000015" class="node">
<title>Node15</title>
<g id="a_Node000015"><a xlink:href="main_8c.html" target="_top" xlink:title=" ">
<polygon fill="white" stroke="#666666" points="2012.5,-24.5 1945.5,-24.5 1945.5,-5.5 2012.5,-5.5 2012.5,-24.5"/>
<text text-anchor="middle" x="1979" y="-12.5" font-family="Helvetica,sans-Serif" font-size="10.00">src/main.c</text>
</a>
</g>
</g>
<!-- Node1&#45;&gt;Node15 -->
<g id="edge14_Node000001_Node000015" class="edge">
<title>Node1&#45;&gt;Node15</title>
<g id="a_edge14_Node000001_Node000015"><a xlink:title=" ">
<path fill="none" stroke="#63b8ff" d="M1836.55,-62.82C1870.98,-51.5 1922.36,-34.62 1953.09,-24.52"/>
<polygon fill="#63b8ff" stroke="#63b8ff" points="1835.29,-59.55 1826.88,-65.99 1837.48,-66.2 1835.29,-59.55"/>
</a>
</g>
</g>
<!-- Node16 -->
<g id="Node000016" class="node">
<title>Node16</title>
<g id="a_Node000016"><a xlink:href="collision_8c.html" target="_top" xlink:title=" ">
<polygon fill="white" stroke="#666666" points="2153,-24.5 2031,-24.5 2031,-5.5 2153,-5.5 2153,-24.5"/>
<text text-anchor="middle" x="2092" y="-12.5" font-family="Helvetica,sans-Serif" font-size="10.00">src/physics/collision.c</text>
</a>
</g>
</g>
<!-- Node1&#45;&gt;Node16 -->
<g id="edge15_Node000001_Node000016" class="edge">
<title>Node1&#45;&gt;Node16</title>
<g id="a_edge15_Node000001_Node000016"><a xlink:title=" ">
<path fill="none" stroke="#63b8ff" d="M1851.2,-64.41C1907.18,-53.16 1996.74,-35.15 2049.42,-24.56"/>
<polygon fill="#63b8ff" stroke="#63b8ff" points="1850.27,-61.02 1841.16,-66.43 1851.65,-67.89 1850.27,-61.02"/>
</a>
</g>
</g>
<!-- Node17 -->
<g id="Node000017" class="node">
<title>Node17</title>
<g id="a_Node000017"><a xlink:href="collision__util_8c.html" target="_top" xlink:title=" ">
<polygon fill="white" stroke="#666666" points="2285,-30 2171,-30 2171,0 2285,0 2285,-30"/>
<text text-anchor="start" x="2179" y="-18" font-family="Helvetica,sans-Serif" font-size="10.00">src/physics/collision</text>
<text text-anchor="middle" x="2228" y="-7" font-family="Helvetica,sans-Serif" font-size="10.00">_util.c</text>
</a>
</g>
</g>
<!-- Node1&#45;&gt;Node17 -->
<g id="edge16_Node000001_Node000017" class="edge">
<title>Node1&#45;&gt;Node17</title>
<g id="a_edge16_Node000001_Node000017"><a xlink:title=" ">
<path fill="none" stroke="#63b8ff" d="M1851.52,-69.66C1921.51,-62.65 2051.81,-48.44 2162,-30 2164.89,-29.52 2167.84,-28.99 2170.82,-28.44"/>
<polygon fill="#63b8ff" stroke="#63b8ff" points="1850.83,-66.21 1841.23,-70.69 1851.53,-73.18 1850.83,-66.21"/>
</a>
</g>
</g>
<!-- Node18 -->
<g id="Node000018" class="node">
<title>Node18</title>
<g id="a_Node000018"><a xlink:href="physics_8c.html" target="_top" xlink:title=" ">
<polygon fill="white" stroke="#666666" points="2422.5,-24.5 2303.5,-24.5 2303.5,-5.5 2422.5,-5.5 2422.5,-24.5"/>
<text text-anchor="middle" x="2363" y="-12.5" font-family="Helvetica,sans-Serif" font-size="10.00">src/physics/physics.c</text>
</a>
</g>
</g>
<!-- Node1&#45;&gt;Node18 -->
<g id="edge17_Node000001_Node000018" class="edge">
<title>Node1&#45;&gt;Node18</title>
<g id="a_edge17_Node000001_Node000018"><a xlink:title=" ">
<path fill="none" stroke="#63b8ff" d="M1851.24,-71.8C1940.64,-66.58 2133.07,-53.52 2294,-30 2304.04,-28.53 2314.82,-26.55 2324.81,-24.53"/>
<polygon fill="#63b8ff" stroke="#63b8ff" points="1850.9,-68.31 1841.11,-72.38 1851.3,-75.3 1850.9,-68.31"/>
</a>
</g>
</g>
<!-- Node19 -->
<g id="Node000019" class="node">
<title>Node19</title>
<g id="a_Node000019"><a xlink:href="raptiquax_8c.html" target="_top" xlink:title=" ">
<polygon fill="white" stroke="#666666" points="2529.5,-24.5 2440.5,-24.5 2440.5,-5.5 2529.5,-5.5 2529.5,-24.5"/>
<text text-anchor="middle" x="2485" y="-12.5" font-family="Helvetica,sans-Serif" font-size="10.00">src/raptiquax.c</text>
</a>
</g>
</g>
<!-- Node1&#45;&gt;Node19 -->
<g id="edge18_Node000001_Node000019" class="edge">
<title>Node1&#45;&gt;Node19</title>
<g id="a_edge18_Node000001_Node000019"><a xlink:title=" ">
<path fill="none" stroke="#63b8ff" d="M1851.39,-74.15C1958.84,-72.7 2218.11,-65.47 2432,-30 2440.07,-28.66 2448.71,-26.64 2456.61,-24.55"/>
<polygon fill="#63b8ff" stroke="#63b8ff" points="1851.13,-70.65 1841.17,-74.27 1851.21,-77.65 1851.13,-70.65"/>
</a>
</g>
</g>
<!-- Node20 -->
<g id="Node000020" class="node">
<title>Node20</title>
<g id="a_Node000020"><a xlink:href="camera_8c.html" target="_top" xlink:title=" ">
<polygon fill="white" stroke="#666666" points="2660.5,-24.5 2547.5,-24.5 2547.5,-5.5 2660.5,-5.5 2660.5,-24.5"/>
<text text-anchor="middle" x="2604" y="-12.5" font-family="Helvetica,sans-Serif" font-size="10.00">src/render/camera.c</text>
</a>
</g>
</g>
<!-- Node1&#45;&gt;Node20 -->
<g id="edge19_Node000001_Node000020" class="edge">
<title>Node1&#45;&gt;Node20</title>
<g id="a_edge19_Node000001_Node000020"><a xlink:title=" ">
<path fill="none" stroke="#63b8ff" d="M1851.54,-74.09C1971.42,-72.55 2282.24,-65.18 2539,-30 2548.84,-28.65 2559.4,-26.63 2569.09,-24.54"/>
<polygon fill="#63b8ff" stroke="#63b8ff" points="1851.17,-70.6 1841.21,-74.22 1851.25,-77.6 1851.17,-70.6"/>
</a>
</g>
</g>
<!-- Node21 -->
<g id="Node000021" class="node">
<title>Node21</title>
<g id="a_Node000021"><a xlink:href="framebuffer_8c.html" target="_top" xlink:title=" ">
<polygon fill="white" stroke="#666666" points="2813,-24.5 2679,-24.5 2679,-5.5 2813,-5.5 2813,-24.5"/>
<text text-anchor="middle" x="2746" y="-12.5" font-family="Helvetica,sans-Serif" font-size="10.00">src/render/framebuffer.c</text>
</a>
</g>
</g>
<!-- Node1&#45;&gt;Node21 -->
<g id="edge20_Node000001_Node000021" class="edge">
<title>Node1&#45;&gt;Node21</title>
<g id="a_edge20_Node000001_Node000021"><a xlink:title=" ">
<path fill="none" stroke="#63b8ff" d="M1851.8,-74.22C1985.96,-72.98 2360.67,-66.25 2670,-30 2681.46,-28.66 2693.8,-26.64 2705.13,-24.54"/>
<polygon fill="#63b8ff" stroke="#63b8ff" points="1851.41,-70.72 1841.44,-74.31 1851.47,-77.72 1851.41,-70.72"/>
</a>
</g>
</g>
<!-- Node22 -->
<g id="Node000022" class="node">
<title>Node22</title>
<g id="a_Node000022"><a xlink:href="lighting_8c.html" target="_top" xlink:title=" ">
<polygon fill="white" stroke="#666666" points="2944.5,-24.5 2831.5,-24.5 2831.5,-5.5 2944.5,-5.5 2944.5,-24.5"/>
<text text-anchor="middle" x="2888" y="-12.5" font-family="Helvetica,sans-Serif" font-size="10.00">src/render/lighting.c</text>
</a>
</g>
</g>
<!-- Node1&#45;&gt;Node22 -->
<g id="edge21_Node000001_Node000022" class="edge">
<title>Node1&#45;&gt;Node22</title>
<g id="a_edge21_Node000001_Node000022"><a xlink:title=" ">
<path fill="none" stroke="#63b8ff" d="M1851.14,-73.41C2029.24,-69.39 2630.87,-54.27 2822,-30 2832.11,-28.72 2842.97,-26.69 2852.9,-24.57"/>
<polygon fill="#63b8ff" stroke="#63b8ff" points="1850.93,-69.92 1841.01,-73.64 1851.09,-76.92 1850.93,-69.92"/>
</a>
</g>
</g>
<!-- Node23 -->
<g id="Node000023" class="node">
<title>Node23</title>
<g id="a_Node000023"><a xlink:href="render_8c.html" target="_top" xlink:title=" ">
<polygon fill="white" stroke="#666666" points="3069.5,-24.5 2962.5,-24.5 2962.5,-5.5 3069.5,-5.5 3069.5,-24.5"/>
<text text-anchor="middle" x="3016" y="-12.5" font-family="Helvetica,sans-Serif" font-size="10.00">src/render/render.c</text>
</a>
</g>
</g>
<!-- Node1&#45;&gt;Node23 -->
<g id="edge22_Node000001_Node000023" class="edge">
<title>Node1&#45;&gt;Node23</title>
<g id="a_edge22_Node000001_Node000023"><a xlink:title=" ">
<path fill="none" stroke="#63b8ff" d="M1851.11,-73.79C2043.65,-70.87 2735.93,-58.58 2954,-30 2963.63,-28.74 2973.96,-26.69 2983.38,-24.54"/>
<polygon fill="#63b8ff" stroke="#63b8ff" points="1850.95,-70.29 1841,-73.94 1851.05,-77.29 1850.95,-70.29"/>
</a>
</g>
</g>
<!-- Node24 -->
<g id="Node000024" class="node">
<title>Node24</title>
<g id="a_Node000024"><a xlink:href="settings_8c.html" target="_top" xlink:title=" ">
<polygon fill="white" stroke="#666666" points="3168.5,-24.5 3087.5,-24.5 3087.5,-5.5 3168.5,-5.5 3168.5,-24.5"/>
<text text-anchor="middle" x="3128" y="-12.5" font-family="Helvetica,sans-Serif" font-size="10.00">src/settings.c</text>
</a>
</g>
</g>
<!-- Node1&#45;&gt;Node24 -->
<g id="edge23_Node000001_Node000024" class="edge">
<title>Node1&#45;&gt;Node24</title>
<g id="a_edge23_Node000001_Node000024"><a xlink:title=" ">
<path fill="none" stroke="#63b8ff" d="M1851.42,-74.38C2057.49,-73.64 2836.24,-68.32 3079,-30 3086.78,-28.77 3095.07,-26.71 3102.58,-24.53"/>
<polygon fill="#63b8ff" stroke="#63b8ff" points="1851.19,-70.88 1841.2,-74.42 1851.21,-77.88 1851.19,-70.88"/>
</a>
</g>
</g>
<!-- Node25 -->
<g id="Node000025" class="node">
<title>Node25</title>
<g id="a_Node000025"><a xlink:href="window_8c.html" target="_top" xlink:title=" ">
<polygon fill="white" stroke="#666666" points="3265.5,-24.5 3186.5,-24.5 3186.5,-5.5 3265.5,-5.5 3265.5,-24.5"/>
<text text-anchor="middle" x="3226" y="-12.5" font-family="Helvetica,sans-Serif" font-size="10.00">src/window.c</text>
</a>
</g>
</g>
<!-- Node1&#45;&gt;Node25 -->
<g id="edge24_Node000001_Node000025" class="edge">
<title>Node1&#45;&gt;Node25</title>
<g id="a_edge24_Node000001_Node000025"><a xlink:title=" ">
<path fill="none" stroke="#63b8ff" d="M1851.41,-74.56C2067.3,-74.58 2914.95,-71.92 3178,-30 3185.54,-28.8 3193.57,-26.77 3200.86,-24.62"/>
<polygon fill="#63b8ff" stroke="#63b8ff" points="1851.31,-71.06 1841.31,-74.56 1851.31,-78.06 1851.31,-71.06"/>
</a>
</g>
</g>
</g>
</svg>
