<?xml version="1.0" encoding="UTF-8" standalone="no"?>
<!DOCTYPE svg PUBLIC "-//W3C//DTD SVG 1.1//EN"
 "http://www.w3.org/Graphics/SVG/1.1/DTD/svg11.dtd">
<!-- Generated by graphviz version 2.43.0 (0)
 -->
<!-- Title: src/window.c Pages: 1 -->
<svg width="1942pt" height="423pt"
 viewBox="0.00 0.00 1942.00 423.00" xmlns="http://www.w3.org/2000/svg" xmlns:xlink="http://www.w3.org/1999/xlink">
<g id="graph0" class="graph" transform="scale(1 1) rotate(0) translate(4 419)">
<title>src/window.c</title>
<!-- Node1 -->
<g id="Node000001" class="node">
<title>Node1</title>
<g id="a_Node000001"><a xlink:title=" ">
<polygon fill="#999999" stroke="#666666" points="1554.5,-415 1475.5,-415 1475.5,-396 1554.5,-396 1554.5,-415"/>
<text text-anchor="middle" x="1515" y="-403" font-family="Helvetica,sans-Serif" font-size="10.00">src/window.c</text>
</a>
</g>
</g>
<!-- Node2 -->
<g id="Node000002" class="node">
<title>Node2</title>
<g id="a_Node000002"><a xlink:href="raptiquax_8h.html" target="_top" xlink:title="This file contains type definitions for fixed&#45;width integer types and floating&#45;point types.">
<polygon fill="white" stroke="#666666" points="946,-250 874,-250 874,-231 946,-231 946,-250"/>
<text text-anchor="middle" x="910" y="-238" font-family="Helvetica,sans-Serif" font-size="10.00">raptiquax.h</text>
</a>
</g>
</g>
<!-- Node1&#45;&gt;Node2 -->
<g id="edge1_Node000001_Node000002" class="edge">
<title>Node1&#45;&gt;Node2</title>
<g id="a_edge1_Node000001_Node000002"><a xlink:title=" ">
<path fill="none" stroke="#63b8ff" d="M1475.29,-405.44C1400.53,-406.07 1234.57,-402.07 1103,-360 1032.14,-337.34 960.59,-283.44 928.09,-256.86"/>
<polygon fill="#63b8ff" stroke="#63b8ff" points="929.92,-253.83 919.99,-250.14 925.44,-259.22 929.92,-253.83"/>
</a>
</g>
</g>
<!-- Node24 -->
<g id="Node000024" class="node">
<title>Node24</title>
<g id="a_Node000024"><a xlink:href="time_8h.html" target="_top" xlink:title=" ">
<polygon fill="white" stroke="#666666" points="1744,-360 1672,-360 1672,-341 1744,-341 1744,-360"/>
<text text-anchor="middle" x="1708" y="-348" font-family="Helvetica,sans-Serif" font-size="10.00">utils/time.h</text>
</a>
</g>
</g>
<!-- Node1&#45;&gt;Node24 -->
<g id="edge23_Node000001_Node000024" class="edge">
<title>Node1&#45;&gt;Node24</title>
<g id="a_edge23_Node000001_Node000024"><a xlink:title=" ">
<path fill="none" stroke="#63b8ff" d="M1546.01,-395.98C1578.83,-386.97 1630.8,-372.7 1666.99,-362.76"/>
<polygon fill="#63b8ff" stroke="#63b8ff" points="1668.03,-366.11 1676.75,-360.08 1666.18,-359.36 1668.03,-366.11"/>
</a>
</g>
</g>
<!-- Node25 -->
<g id="Node000025" class="node">
<title>Node25</title>
<g id="a_Node000025"><a xlink:href="math__util_8h.html" target="_top" xlink:title=" ">
<polygon fill="white" stroke="#666666" points="1198.5,-250 1097.5,-250 1097.5,-231 1198.5,-231 1198.5,-250"/>
<text text-anchor="middle" x="1148" y="-238" font-family="Helvetica,sans-Serif" font-size="10.00">math/math_util.h</text>
</a>
</g>
</g>
<!-- Node1&#45;&gt;Node25 -->
<g id="edge24_Node000001_Node000025" class="edge">
<title>Node1&#45;&gt;Node25</title>
<g id="a_edge24_Node000001_Node000025"><a xlink:title=" ">
<path fill="none" stroke="#63b8ff" d="M1475.29,-398.52C1393.08,-385.32 1208.47,-351.16 1167,-305 1155.94,-292.7 1151.31,-274.19 1149.38,-260.32"/>
<polygon fill="#63b8ff" stroke="#63b8ff" points="1152.82,-259.59 1148.31,-250.01 1145.86,-260.31 1152.82,-259.59"/>
</a>
</g>
</g>
<!-- Node26 -->
<g id="Node000026" class="node">
<title>Node26</title>
<g id="a_Node000026"><a xlink:href="model_8h.html" target="_top" xlink:title="Defines structures and functions for handling 3D models and their properties.">
<polygon fill="white" stroke="#666666" points="1640,-250 1572,-250 1572,-231 1640,-231 1640,-250"/>
<text text-anchor="middle" x="1606" y="-238" font-family="Helvetica,sans-Serif" font-size="10.00">io/model.h</text>
</a>
</g>
</g>
<!-- Node1&#45;&gt;Node26 -->
<g id="edge25_Node000001_Node000026" class="edge">
<title>Node1&#45;&gt;Node26</title>
<g id="a_edge25_Node000001_Node000026"><a xlink:title=" ">
<path fill="none" stroke="#63b8ff" d="M1554.53,-399.65C1579.27,-394.34 1609.34,-383.23 1625,-360 1645.78,-329.18 1628.37,-283.76 1615.9,-259.06"/>
<polygon fill="#63b8ff" stroke="#63b8ff" points="1618.93,-257.31 1611.15,-250.12 1612.76,-260.6 1618.93,-257.31"/>
</a>
</g>
</g>
<!-- Node32 -->
<g id="Node000032" class="node">
<title>Node32</title>
<g id="a_Node000032"><a xlink:href="framebuffer_8h.html" target="_top" xlink:title=" ">
<polygon fill="white" stroke="#666666" points="1577.5,-305 1460.5,-305 1460.5,-286 1577.5,-286 1577.5,-305"/>
<text text-anchor="middle" x="1519" y="-293" font-family="Helvetica,sans-Serif" font-size="10.00">render/framebuffer.h</text>
</a>
</g>
</g>
<!-- Node1&#45;&gt;Node32 -->
<g id="edge31_Node000001_Node000032" class="edge">
<title>Node1&#45;&gt;Node32</title>
<g id="a_edge31_Node000001_Node000032"><a xlink:title=" ">
<path fill="none" stroke="#63b8ff" d="M1508.04,-395.59C1499.4,-383.43 1486.44,-360.87 1492,-341 1494.76,-331.12 1500.39,-321.25 1505.79,-313.32"/>
<polygon fill="#63b8ff" stroke="#63b8ff" points="1508.78,-315.17 1511.85,-305.03 1503.13,-311.04 1508.78,-315.17"/>
</a>
</g>
</g>
<!-- Node34 -->
<g id="Node000034" class="node">
<title>Node34</title>
<g id="a_Node000034"><a xlink:href="node_8h.html" target="_top" xlink:title=" ">
<polygon fill="white" stroke="#666666" points="1396.5,-360 1307.5,-360 1307.5,-341 1396.5,-341 1396.5,-360"/>
<text text-anchor="middle" x="1352" y="-348" font-family="Helvetica,sans-Serif" font-size="10.00">storage/node.h</text>
</a>
</g>
</g>
<!-- Node1&#45;&gt;Node34 -->
<g id="edge33_Node000001_Node000034" class="edge">
<title>Node1&#45;&gt;Node34</title>
<g id="a_edge33_Node000001_Node000034"><a xlink:title=" ">
<path fill="none" stroke="#63b8ff" d="M1488.81,-395.98C1461.56,-387.13 1418.7,-373.19 1388.22,-363.28"/>
<polygon fill="#63b8ff" stroke="#63b8ff" points="1388.99,-359.85 1378.39,-360.08 1386.82,-366.5 1388.99,-359.85"/>
</a>
</g>
</g>
<!-- Node35 -->
<g id="Node000035" class="node">
<title>Node35</title>
<g id="a_Node000035"><a xlink:href="camera_8h.html" target="_top" xlink:title=" ">
<polygon fill="white" stroke="#666666" points="1120,-305 1014,-305 1014,-286 1120,-286 1120,-305"/>
<text text-anchor="middle" x="1067" y="-293" font-family="Helvetica,sans-Serif" font-size="10.00">../render/camera.h</text>
</a>
</g>
</g>
<!-- Node1&#45;&gt;Node35 -->
<g id="edge46_Node000001_Node000035" class="edge">
<title>Node1&#45;&gt;Node35</title>
<g id="a_edge46_Node000001_Node000035"><a xlink:title=" ">
<path fill="none" stroke="#63b8ff" d="M1475.35,-403.02C1390.46,-399.36 1193.95,-388.03 1134,-360 1111.43,-349.44 1091.56,-328.29 1079.44,-313.3"/>
<polygon fill="#63b8ff" stroke="#63b8ff" points="1082.13,-311.06 1073.23,-305.31 1076.6,-315.36 1082.13,-311.06"/>
</a>
</g>
</g>
<!-- Node39 -->
<g id="Node000039" class="node">
<title>Node39</title>
<g id="a_Node000039"><a xlink:href="depth__map_8h.html" target="_top" xlink:title=" ">
<polygon fill="white" stroke="#666666" points="1615.5,-360 1500.5,-360 1500.5,-341 1615.5,-341 1615.5,-360"/>
<text text-anchor="middle" x="1558" y="-348" font-family="Helvetica,sans-Serif" font-size="10.00">render/depth_map.h</text>
</a>
</g>
</g>
<!-- Node1&#45;&gt;Node39 -->
<g id="edge47_Node000001_Node000039" class="edge">
<title>Node1&#45;&gt;Node39</title>
<g id="a_edge47_Node000001_Node000039"><a xlink:title=" ">
<path fill="none" stroke="#63b8ff" d="M1522.1,-395.75C1528.17,-388.26 1537.09,-377.28 1544.51,-368.13"/>
<polygon fill="#63b8ff" stroke="#63b8ff" points="1547.45,-370.06 1551.03,-360.09 1542.01,-365.65 1547.45,-370.06"/>
</a>
</g>
</g>
<!-- Node40 -->
<g id="Node000040" class="node">
<title>Node40</title>
<g id="a_Node000040"><a xlink:href="render_8h.html" target="_top" xlink:title=" ">
<polygon fill="white" stroke="#666666" points="1853.5,-360 1762.5,-360 1762.5,-341 1853.5,-341 1853.5,-360"/>
<text text-anchor="middle" x="1808" y="-348" font-family="Helvetica,sans-Serif" font-size="10.00">render/render.h</text>
</a>
</g>
</g>
<!-- Node1&#45;&gt;Node40 -->
<g id="edge50_Node000001_Node000040" class="edge">
<title>Node1&#45;&gt;Node40</title>
<g id="a_edge50_Node000001_Node000040"><a xlink:title=" ">
<path fill="none" stroke="#63b8ff" d="M1554.52,-397.35C1605.5,-388.13 1694.5,-372.03 1752.32,-361.57"/>
<polygon fill="#63b8ff" stroke="#63b8ff" points="1753.17,-364.98 1762.38,-359.75 1751.92,-358.09 1753.17,-364.98"/>
</a>
</g>
</g>
<!-- Node41 -->
<g id="Node000041" class="node">
<title>Node41</title>
<g id="a_Node000041"><a xlink:href="window_8h.html" target="_top" xlink:title=" ">
<polygon fill="white" stroke="#666666" points="1934,-360 1872,-360 1872,-341 1934,-341 1934,-360"/>
<text text-anchor="middle" x="1903" y="-348" font-family="Helvetica,sans-Serif" font-size="10.00">window.h</text>
</a>
</g>
</g>
<!-- Node1&#45;&gt;Node41 -->
<g id="edge51_Node000001_Node000041" class="edge">
<title>Node1&#45;&gt;Node41</title>
<g id="a_edge51_Node000001_Node000041"><a xlink:title=" ">
<path fill="none" stroke="#63b8ff" d="M1554.56,-400.51C1617.45,-393.94 1744.31,-379.73 1861.39,-360.15"/>
<polygon fill="#63b8ff" stroke="#63b8ff" points="1862.33,-363.54 1871.6,-358.43 1861.16,-356.64 1862.33,-363.54"/>
</a>
</g>
</g>
<!-- Node3 -->
<g id="Node000003" class="node">
<title>Node3</title>
<g id="a_Node000003"><a xlink:title=" ">
<polygon fill="#e0e0e0" stroke="#999999" points="1089,-189.5 1039,-189.5 1039,-170.5 1089,-170.5 1089,-189.5"/>
<text text-anchor="middle" x="1064" y="-177.5" font-family="Helvetica,sans-Serif" font-size="10.00">stdio.h</text>
</a>
</g>
</g>
<!-- Node2&#45;&gt;Node3 -->
<g id="edge2_Node000002_Node000003" class="edge">
<title>Node2&#45;&gt;Node3</title>
<g id="a_edge2_Node000002_Node000003"><a xlink:title=" ">
<path fill="none" stroke="#63b8ff" d="M933.32,-230.96C957.35,-222.11 995.88,-207.81 1029,-195 1030.41,-194.45 1031.85,-193.89 1033.31,-193.32"/>
<polygon fill="#63b8ff" stroke="#63b8ff" points="1034.92,-196.45 1042.93,-189.52 1032.34,-189.94 1034.92,-196.45"/>
</a>
</g>
</g>
<!-- Node4 -->
<g id="Node000004" class="node">
<title>Node4</title>
<g id="a_Node000004"><a xlink:title=" ">
<polygon fill="#e0e0e0" stroke="#999999" points="1160.5,-189.5 1107.5,-189.5 1107.5,-170.5 1160.5,-170.5 1160.5,-189.5"/>
<text text-anchor="middle" x="1134" y="-177.5" font-family="Helvetica,sans-Serif" font-size="10.00">stdint.h</text>
</a>
</g>
</g>
<!-- Node2&#45;&gt;Node4 -->
<g id="edge3_Node000002_Node000004" class="edge">
<title>Node2&#45;&gt;Node4</title>
<g id="a_edge3_Node000002_Node000004"><a xlink:title=" ">
<path fill="none" stroke="#63b8ff" d="M946.09,-232.51C984.23,-224.76 1045.96,-211.19 1098,-195 1099.87,-194.42 1101.79,-193.78 1103.71,-193.12"/>
<polygon fill="#63b8ff" stroke="#63b8ff" points="1105.04,-196.36 1113.23,-189.64 1102.64,-189.79 1105.04,-196.36"/>
</a>
</g>
</g>
<!-- Node5 -->
<g id="Node000005" class="node">
<title>Node5</title>
<g id="a_Node000005"><a xlink:title=" ">
<polygon fill="#e0e0e0" stroke="#999999" points="1241,-189.5 1179,-189.5 1179,-170.5 1241,-170.5 1241,-189.5"/>
<text text-anchor="middle" x="1210" y="-177.5" font-family="Helvetica,sans-Serif" font-size="10.00">stdbool.h</text>
</a>
</g>
</g>
<!-- Node2&#45;&gt;Node5 -->
<g id="edge4_Node000002_Node000005" class="edge">
<title>Node2&#45;&gt;Node5</title>
<g id="a_edge4_Node000002_Node000005"><a xlink:title=" ">
<path fill="none" stroke="#63b8ff" d="M946.42,-235.1C996.89,-228.58 1090.75,-214.95 1169,-195 1171.64,-194.33 1174.36,-193.56 1177.07,-192.75"/>
<polygon fill="#63b8ff" stroke="#63b8ff" points="1178.32,-196.03 1186.78,-189.65 1176.19,-189.36 1178.32,-196.03"/>
</a>
</g>
</g>
<!-- Node6 -->
<g id="Node000006" class="node">
<title>Node6</title>
<g id="a_Node000006"><a xlink:title=" ">
<polygon fill="#e0e0e0" stroke="#999999" points="1315,-189.5 1259,-189.5 1259,-170.5 1315,-170.5 1315,-189.5"/>
<text text-anchor="middle" x="1287" y="-177.5" font-family="Helvetica,sans-Serif" font-size="10.00">stdarg.h</text>
</a>
</g>
</g>
<!-- Node2&#45;&gt;Node6 -->
<g id="edge5_Node000002_Node000006" class="edge">
<title>Node2&#45;&gt;Node6</title>
<g id="a_edge5_Node000002_Node000006"><a xlink:title=" ">
<path fill="none" stroke="#63b8ff" d="M946.25,-237.52C1008.97,-233.47 1141.45,-222.25 1250,-195 1252.45,-194.39 1254.96,-193.66 1257.46,-192.87"/>
<polygon fill="#63b8ff" stroke="#63b8ff" points="1258.63,-196.16 1266.91,-189.57 1256.32,-189.55 1258.63,-196.16"/>
</a>
</g>
</g>
<!-- Node7 -->
<g id="Node000007" class="node">
<title>Node7</title>
<g id="a_Node000007"><a xlink:title=" ">
<polygon fill="#e0e0e0" stroke="#999999" points="1386.5,-189.5 1333.5,-189.5 1333.5,-170.5 1386.5,-170.5 1386.5,-189.5"/>
<text text-anchor="middle" x="1360" y="-177.5" font-family="Helvetica,sans-Serif" font-size="10.00">limits.h</text>
</a>
</g>
</g>
<!-- Node2&#45;&gt;Node7 -->
<g id="edge6_Node000002_Node000007" class="edge">
<title>Node2&#45;&gt;Node7</title>
<g id="a_edge6_Node000002_Node000007"><a xlink:title=" ">
<path fill="none" stroke="#63b8ff" d="M946.08,-236.85C1033.08,-230.26 1252.54,-212.41 1324,-195 1326.36,-194.42 1328.78,-193.73 1331.19,-192.96"/>
<polygon fill="#63b8ff" stroke="#63b8ff" points="1332.62,-196.17 1340.87,-189.52 1330.28,-189.57 1332.62,-196.17"/>
</a>
</g>
</g>
<!-- Node8 -->
<g id="Node000008" class="node">
<title>Node8</title>
<g id="a_Node000008"><a xlink:title=" ">
<polygon fill="#e0e0e0" stroke="#999999" points="1477,-189.5 1405,-189.5 1405,-170.5 1477,-170.5 1477,-189.5"/>
<text text-anchor="middle" x="1441" y="-177.5" font-family="Helvetica,sans-Serif" font-size="10.00">SDL2/SDL.h</text>
</a>
</g>
</g>
<!-- Node2&#45;&gt;Node8 -->
<g id="edge7_Node000002_Node000008" class="edge">
<title>Node2&#45;&gt;Node8</title>
<g id="a_edge7_Node000002_Node000008"><a xlink:title=" ">
<path fill="none" stroke="#63b8ff" d="M946.01,-237.15C1043.1,-230.67 1308.81,-211.89 1395,-195 1398.66,-194.28 1402.43,-193.39 1406.18,-192.41"/>
<polygon fill="#63b8ff" stroke="#63b8ff" points="1407.26,-195.74 1415.93,-189.64 1405.35,-189.01 1407.26,-195.74"/>
</a>
</g>
</g>
<!-- Node9 -->
<g id="Node000009" class="node">
<title>Node9</title>
<g id="a_Node000009"><a xlink:title=" ">
<polygon fill="#e0e0e0" stroke="#999999" points="108,-189.5 0,-189.5 0,-170.5 108,-170.5 108,-189.5"/>
<text text-anchor="middle" x="54" y="-177.5" font-family="Helvetica,sans-Serif" font-size="10.00">SDL2/SDL_image.h</text>
</a>
</g>
</g>
<!-- Node2&#45;&gt;Node9 -->
<g id="edge8_Node000002_Node000009" class="edge">
<title>Node2&#45;&gt;Node9</title>
<g id="a_edge8_Node000002_Node000009"><a xlink:title=" ">
<path fill="none" stroke="#63b8ff" d="M873.84,-239.56C761.21,-239.29 406.92,-235.08 117,-195 110.66,-194.12 104.02,-192.94 97.52,-191.64"/>
<polygon fill="#63b8ff" stroke="#63b8ff" points="98,-188.16 87.49,-189.5 96.55,-195.01 98,-188.16"/>
</a>
</g>
</g>
<!-- Node10 -->
<g id="Node000010" class="node">
<title>Node10</title>
<g id="a_Node000010"><a xlink:title=" ">
<polygon fill="#e0e0e0" stroke="#999999" points="236,-189.5 126,-189.5 126,-170.5 236,-170.5 236,-189.5"/>
<text text-anchor="middle" x="181" y="-177.5" font-family="Helvetica,sans-Serif" font-size="10.00">SDL2/SDL_opengl.h</text>
</a>
</g>
</g>
<!-- Node2&#45;&gt;Node10 -->
<g id="edge9_Node000002_Node000010" class="edge">
<title>Node2&#45;&gt;Node10</title>
<g id="a_edge9_Node000002_Node000010"><a xlink:title=" ">
<path fill="none" stroke="#63b8ff" d="M873.76,-238.96C773.36,-237.07 483.28,-228.84 245,-195 238.64,-194.1 231.98,-192.91 225.45,-191.61"/>
<polygon fill="#63b8ff" stroke="#63b8ff" points="225.88,-188.13 215.37,-189.5 224.44,-194.98 225.88,-188.13"/>
</a>
</g>
</g>
<!-- Node11 -->
<g id="Node000011" class="node">
<title>Node11</title>
<g id="a_Node000011"><a xlink:title=" ">
<polygon fill="#e0e0e0" stroke="#999999" points="358,-189.5 254,-189.5 254,-170.5 358,-170.5 358,-189.5"/>
<text text-anchor="middle" x="306" y="-177.5" font-family="Helvetica,sans-Serif" font-size="10.00">SDL2/SDL_mixer.h</text>
</a>
</g>
</g>
<!-- Node2&#45;&gt;Node11 -->
<g id="edge10_Node000002_Node000011" class="edge">
<title>Node2&#45;&gt;Node11</title>
<g id="a_edge10_Node000002_Node000011"><a xlink:title=" ">
<path fill="none" stroke="#63b8ff" d="M873.89,-238.34C786.44,-235.13 556.51,-224.36 367,-195 361.15,-194.09 355.03,-192.94 349.02,-191.69"/>
<polygon fill="#63b8ff" stroke="#63b8ff" points="349.59,-188.23 339.07,-189.5 348.09,-195.06 349.59,-188.23"/>
</a>
</g>
</g>
<!-- Node12 -->
<g id="Node000012" class="node">
<title>Node12</title>
<g id="a_Node000012"><a xlink:title=" ">
<polygon fill="#e0e0e0" stroke="#999999" points="464,-189.5 376,-189.5 376,-170.5 464,-170.5 464,-189.5"/>
<text text-anchor="middle" x="420" y="-177.5" font-family="Helvetica,sans-Serif" font-size="10.00">SDL2/SDL_ttf.h</text>
</a>
</g>
</g>
<!-- Node2&#45;&gt;Node12 -->
<g id="edge11_Node000002_Node000012" class="edge">
<title>Node2&#45;&gt;Node12</title>
<g id="a_edge11_Node000002_Node000012"><a xlink:title=" ">
<path fill="none" stroke="#63b8ff" d="M873.76,-237.73C798.55,-233.65 620.25,-221.77 473,-195 468.45,-194.17 463.72,-193.16 459.05,-192.05"/>
<polygon fill="#63b8ff" stroke="#63b8ff" points="459.52,-188.56 448.97,-189.53 457.83,-195.35 459.52,-188.56"/>
</a>
</g>
</g>
<!-- Node13 -->
<g id="Node000013" class="node">
<title>Node13</title>
<g id="a_Node000013"><a xlink:title=" ">
<polygon fill="#e0e0e0" stroke="#999999" points="532,-189.5 482,-189.5 482,-170.5 532,-170.5 532,-189.5"/>
<text text-anchor="middle" x="507" y="-177.5" font-family="Helvetica,sans-Serif" font-size="10.00">GL/gl.h</text>
</a>
</g>
</g>
<!-- Node2&#45;&gt;Node13 -->
<g id="edge12_Node000002_Node000013" class="edge">
<title>Node2&#45;&gt;Node13</title>
<g id="a_edge12_Node000002_Node000013"><a xlink:title=" ">
<path fill="none" stroke="#63b8ff" d="M873.78,-238.37C806.96,-235.58 660.25,-226.13 541,-195 539.05,-194.49 537.07,-193.9 535.09,-193.24"/>
<polygon fill="#63b8ff" stroke="#63b8ff" points="535.99,-189.84 525.39,-189.63 533.54,-196.4 535.99,-189.84"/>
</a>
</g>
</g>
<!-- Node14 -->
<g id="Node000014" class="node">
<title>Node14</title>
<g id="a_Node000014"><a xlink:title=" ">
<polygon fill="#e0e0e0" stroke="#999999" points="606,-189.5 550,-189.5 550,-170.5 606,-170.5 606,-189.5"/>
<text text-anchor="middle" x="578" y="-177.5" font-family="Helvetica,sans-Serif" font-size="10.00">GL/glu.h</text>
</a>
</g>
</g>
<!-- Node2&#45;&gt;Node14 -->
<g id="edge13_Node000002_Node000014" class="edge">
<title>Node2&#45;&gt;Node14</title>
<g id="a_edge13_Node000002_Node000014"><a xlink:title=" ">
<path fill="none" stroke="#63b8ff" d="M873.63,-236.51C817.44,-231.34 706.45,-218.91 615,-195 612.7,-194.4 610.35,-193.7 608,-192.95"/>
<polygon fill="#63b8ff" stroke="#63b8ff" points="609.09,-189.63 598.49,-189.64 606.78,-196.24 609.09,-189.63"/>
</a>
</g>
</g>
<!-- Node15 -->
<g id="Node000015" class="node">
<title>Node15</title>
<g id="a_Node000015"><a xlink:title=" ">
<polygon fill="#e0e0e0" stroke="#999999" points="690,-189.5 624,-189.5 624,-170.5 690,-170.5 690,-189.5"/>
<text text-anchor="middle" x="657" y="-177.5" font-family="Helvetica,sans-Serif" font-size="10.00">GL/glext.h</text>
</a>
</g>
</g>
<!-- Node2&#45;&gt;Node15 -->
<g id="edge14_Node000002_Node000015" class="edge">
<title>Node2&#45;&gt;Node15</title>
<g id="a_edge14_Node000002_Node000015"><a xlink:title=" ">
<path fill="none" stroke="#63b8ff" d="M873.86,-233.18C831.6,-225.48 759.7,-211.46 699,-195 696.38,-194.29 693.68,-193.51 690.98,-192.69"/>
<polygon fill="#63b8ff" stroke="#63b8ff" points="691.88,-189.3 681.29,-189.62 689.76,-195.98 691.88,-189.3"/>
</a>
</g>
</g>
<!-- Node16 -->
<g id="Node000016" class="node">
<title>Node16</title>
<g id="a_Node000016"><a xlink:title=" ">
<polygon fill="#e0e0e0" stroke="#999999" points="785.5,-189.5 708.5,-189.5 708.5,-170.5 785.5,-170.5 785.5,-189.5"/>
<text text-anchor="middle" x="747" y="-177.5" font-family="Helvetica,sans-Serif" font-size="10.00">cglm/cglm.h</text>
</a>
</g>
</g>
<!-- Node2&#45;&gt;Node16 -->
<g id="edge15_Node000002_Node000016" class="edge">
<title>Node2&#45;&gt;Node16</title>
<g id="a_edge15_Node000002_Node000016"><a xlink:title=" ">
<path fill="none" stroke="#63b8ff" d="M886.3,-230.99C858.41,-220.99 811.93,-204.3 780.4,-192.99"/>
<polygon fill="#63b8ff" stroke="#63b8ff" points="781.32,-189.6 770.73,-189.52 778.96,-196.19 781.32,-189.6"/>
</a>
</g>
</g>
<!-- Node17 -->
<g id="Node000017" class="node">
<title>Node17</title>
<g id="a_Node000017"><a xlink:title=" ">
<polygon fill="#e0e0e0" stroke="#999999" points="854.5,-189.5 803.5,-189.5 803.5,-170.5 854.5,-170.5 854.5,-189.5"/>
<text text-anchor="middle" x="829" y="-177.5" font-family="Helvetica,sans-Serif" font-size="10.00">math.h</text>
</a>
</g>
</g>
<!-- Node2&#45;&gt;Node17 -->
<g id="edge16_Node000002_Node000017" class="edge">
<title>Node2&#45;&gt;Node17</title>
<g id="a_edge16_Node000002_Node000017"><a xlink:title=" ">
<path fill="none" stroke="#63b8ff" d="M898.05,-230.87C885.25,-221.62 864.7,-206.78 849.35,-195.69"/>
<polygon fill="#63b8ff" stroke="#63b8ff" points="851.16,-192.68 841,-189.67 847.06,-198.36 851.16,-192.68"/>
</a>
</g>
</g>
<!-- Node18 -->
<g id="Node000018" class="node">
<title>Node18</title>
<g id="a_Node000018"><a xlink:href="stringio_8h.html" target="_top" xlink:title="Provides utility functions for string and file operations.">
<polygon fill="white" stroke="#666666" points="947,-189.5 873,-189.5 873,-170.5 947,-170.5 947,-189.5"/>
<text text-anchor="middle" x="910" y="-177.5" font-family="Helvetica,sans-Serif" font-size="10.00">io/stringio.h</text>
</a>
</g>
</g>
<!-- Node2&#45;&gt;Node18 -->
<g id="edge17_Node000002_Node000018" class="edge">
<title>Node2&#45;&gt;Node18</title>
<g id="a_edge17_Node000002_Node000018"><a xlink:title=" ">
<path fill="none" stroke="#63b8ff" d="M910,-230.87C910,-222.75 910,-210.31 910,-199.89"/>
<polygon fill="#63b8ff" stroke="#63b8ff" points="913.5,-199.67 910,-189.67 906.5,-199.67 913.5,-199.67"/>
</a>
</g>
</g>
<!-- Node20 -->
<g id="Node000020" class="node">
<title>Node20</title>
<g id="a_Node000020"><a xlink:href="config_8h.html" target="_top" xlink:title=" ">
<polygon fill="white" stroke="#666666" points="1020.5,-189.5 965.5,-189.5 965.5,-170.5 1020.5,-170.5 1020.5,-189.5"/>
<text text-anchor="middle" x="993" y="-177.5" font-family="Helvetica,sans-Serif" font-size="10.00">config.h</text>
</a>
</g>
</g>
<!-- Node2&#45;&gt;Node20 -->
<g id="edge19_Node000002_Node000020" class="edge">
<title>Node2&#45;&gt;Node20</title>
<g id="a_edge19_Node000002_Node000020"><a xlink:title=" ">
<path fill="none" stroke="#63b8ff" d="M922.25,-230.87C935.36,-221.62 956.42,-206.78 972.15,-195.69"/>
<polygon fill="#63b8ff" stroke="#63b8ff" points="974.55,-198.29 980.7,-189.67 970.51,-192.57 974.55,-198.29"/>
</a>
</g>
</g>
<!-- Node19 -->
<g id="Node000019" class="node">
<title>Node19</title>
<g id="a_Node000019"><a xlink:title=" ">
<polygon fill="#e0e0e0" stroke="#999999" points="936.5,-129 883.5,-129 883.5,-110 936.5,-110 936.5,-129"/>
<text text-anchor="middle" x="910" y="-117" font-family="Helvetica,sans-Serif" font-size="10.00">string.h</text>
</a>
</g>
</g>
<!-- Node18&#45;&gt;Node19 -->
<g id="edge18_Node000018_Node000019" class="edge">
<title>Node18&#45;&gt;Node19</title>
<g id="a_edge18_Node000018_Node000019"><a xlink:title=" ">
<path fill="none" stroke="#63b8ff" d="M910,-170.37C910,-162.25 910,-149.81 910,-139.39"/>
<polygon fill="#63b8ff" stroke="#63b8ff" points="913.5,-139.17 910,-129.17 906.5,-139.17 913.5,-139.17"/>
</a>
</g>
</g>
<!-- Node21 -->
<g id="Node000021" class="node">
<title>Node21</title>
<g id="a_Node000021"><a xlink:href="term_8h.html" target="_top" xlink:title=" ">
<polygon fill="white" stroke="#666666" points="1030.5,-129 955.5,-129 955.5,-110 1030.5,-110 1030.5,-129"/>
<text text-anchor="middle" x="993" y="-117" font-family="Helvetica,sans-Serif" font-size="10.00">term/term.h</text>
</a>
</g>
</g>
<!-- Node20&#45;&gt;Node21 -->
<g id="edge20_Node000020_Node000021" class="edge">
<title>Node20&#45;&gt;Node21</title>
<g id="a_edge20_Node000020_Node000021"><a xlink:title=" ">
<path fill="none" stroke="#63b8ff" d="M993,-170.37C993,-162.25 993,-149.81 993,-139.39"/>
<polygon fill="#63b8ff" stroke="#63b8ff" points="996.5,-139.17 993,-129.17 989.5,-139.17 996.5,-139.17"/>
</a>
</g>
</g>
<!-- Node22 -->
<g id="Node000022" class="node">
<title>Node22</title>
<g id="a_Node000022"><a xlink:href="enhanced__print_8h.html" target="_top" xlink:title=" ">
<polygon fill="white" stroke="#666666" points="1043.5,-74 942.5,-74 942.5,-55 1043.5,-55 1043.5,-74"/>
<text text-anchor="middle" x="993" y="-62" font-family="Helvetica,sans-Serif" font-size="10.00">enhanced_print.h</text>
</a>
</g>
</g>
<!-- Node21&#45;&gt;Node22 -->
<g id="edge21_Node000021_Node000022" class="edge">
<title>Node21&#45;&gt;Node22</title>
<g id="a_edge21_Node000021_Node000022"><a xlink:title=" ">
<path fill="none" stroke="#63b8ff" d="M993,-109.75C993,-102.8 993,-92.85 993,-84.13"/>
<polygon fill="#63b8ff" stroke="#63b8ff" points="996.5,-84.09 993,-74.09 989.5,-84.09 996.5,-84.09"/>
</a>
</g>
</g>
<!-- Node23 -->
<g id="Node000023" class="node">
<title>Node23</title>
<g id="a_Node000023"><a xlink:href="color_8h.html" target="_top" xlink:title=" ">
<polygon fill="white" stroke="#666666" points="1017.5,-19 968.5,-19 968.5,0 1017.5,0 1017.5,-19"/>
<text text-anchor="middle" x="993" y="-7" font-family="Helvetica,sans-Serif" font-size="10.00">color.h</text>
</a>
</g>
</g>
<!-- Node22&#45;&gt;Node23 -->
<g id="edge22_Node000022_Node000023" class="edge">
<title>Node22&#45;&gt;Node23</title>
<g id="a_edge22_Node000022_Node000023"><a xlink:title=" ">
<path fill="none" stroke="#63b8ff" d="M993,-54.75C993,-47.8 993,-37.85 993,-29.13"/>
<polygon fill="#63b8ff" stroke="#63b8ff" points="996.5,-29.09 993,-19.09 989.5,-29.09 996.5,-29.09"/>
</a>
</g>
</g>
<!-- Node27 -->
<g id="Node000027" class="node">
<title>Node27</title>
<g id="a_Node000027"><a xlink:href="shader_8h.html" target="_top" xlink:title=" ">
<polygon fill="white" stroke="#666666" points="1553,-189.5 1495,-189.5 1495,-170.5 1553,-170.5 1553,-189.5"/>
<text text-anchor="middle" x="1524" y="-177.5" font-family="Helvetica,sans-Serif" font-size="10.00">shader.h</text>
</a>
</g>
</g>
<!-- Node26&#45;&gt;Node27 -->
<g id="edge26_Node000026_Node000027" class="edge">
<title>Node26&#45;&gt;Node27</title>
<g id="a_edge26_Node000026_Node000027"><a xlink:title=" ">
<path fill="none" stroke="#63b8ff" d="M1593.9,-230.87C1580.94,-221.62 1560.14,-206.78 1544.6,-195.69"/>
<polygon fill="#63b8ff" stroke="#63b8ff" points="1546.32,-192.63 1536.15,-189.67 1542.26,-198.32 1546.32,-192.63"/>
</a>
</g>
</g>
<!-- Node28 -->
<g id="Node000028" class="node">
<title>Node28</title>
<g id="a_Node000028"><a xlink:href="model__loader_8h.html" target="_top" xlink:title=" ">
<polygon fill="white" stroke="#666666" points="1693,-195 1571,-195 1571,-165 1693,-165 1693,-195"/>
<text text-anchor="start" x="1579" y="-183" font-family="Helvetica,sans-Serif" font-size="10.00">model_loaders/model</text>
<text text-anchor="middle" x="1632" y="-172" font-family="Helvetica,sans-Serif" font-size="10.00">_loader.h</text>
</a>
</g>
</g>
<!-- Node26&#45;&gt;Node28 -->
<g id="edge27_Node000026_Node000028" class="edge">
<title>Node26&#45;&gt;Node28</title>
<g id="a_edge27_Node000026_Node000028"><a xlink:title=" ">
<path fill="none" stroke="#63b8ff" d="M1609.84,-230.87C1612.94,-223.89 1617.46,-213.71 1621.61,-204.38"/>
<polygon fill="#63b8ff" stroke="#63b8ff" points="1624.86,-205.67 1625.73,-195.11 1618.47,-202.83 1624.86,-205.67"/>
</a>
</g>
</g>
<!-- Node29 -->
<g id="Node000029" class="node">
<title>Node29</title>
<g id="a_Node000029"><a xlink:href="obj__loader_8h.html" target="_top" xlink:title=" ">
<polygon fill="white" stroke="#666666" points="1575,-129 1499,-129 1499,-110 1575,-110 1575,-129"/>
<text text-anchor="middle" x="1537" y="-117" font-family="Helvetica,sans-Serif" font-size="10.00">obj_loader.h</text>
</a>
</g>
</g>
<!-- Node28&#45;&gt;Node29 -->
<g id="edge28_Node000028_Node000029" class="edge">
<title>Node28&#45;&gt;Node29</title>
<g id="a_edge28_Node000028_Node000029"><a xlink:title=" ">
<path fill="none" stroke="#63b8ff" d="M1609,-164.84C1594,-155.6 1574.5,-143.59 1559.57,-134.4"/>
<polygon fill="#63b8ff" stroke="#63b8ff" points="1561.31,-131.36 1550.96,-129.09 1557.64,-137.32 1561.31,-131.36"/>
</a>
</g>
</g>
<!-- Node30 -->
<g id="Node000030" class="node">
<title>Node30</title>
<g id="a_Node000030"><a xlink:href="mtl__loader_8h.html" target="_top" xlink:title=" ">
<polygon fill="white" stroke="#666666" points="1670.5,-129 1593.5,-129 1593.5,-110 1670.5,-110 1670.5,-129"/>
<text text-anchor="middle" x="1632" y="-117" font-family="Helvetica,sans-Serif" font-size="10.00">mtl_loader.h</text>
</a>
</g>
</g>
<!-- Node28&#45;&gt;Node30 -->
<g id="edge29_Node000028_Node000030" class="edge">
<title>Node28&#45;&gt;Node30</title>
<g id="a_edge29_Node000028_Node000030"><a xlink:title=" ">
<path fill="none" stroke="#63b8ff" d="M1632,-164.84C1632,-157.21 1632,-147.7 1632,-139.45"/>
<polygon fill="#63b8ff" stroke="#63b8ff" points="1635.5,-139.27 1632,-129.27 1628.5,-139.27 1635.5,-139.27"/>
</a>
</g>
</g>
<!-- Node31 -->
<g id="Node000031" class="node">
<title>Node31</title>
<g id="a_Node000031"><a xlink:href="fbx__loader_8h.html" target="_top" xlink:title=" ">
<polygon fill="white" stroke="#666666" points="1765.5,-129 1688.5,-129 1688.5,-110 1765.5,-110 1765.5,-129"/>
<text text-anchor="middle" x="1727" y="-117" font-family="Helvetica,sans-Serif" font-size="10.00">fbx_loader.h</text>
</a>
</g>
</g>
<!-- Node28&#45;&gt;Node31 -->
<g id="edge30_Node000028_Node000031" class="edge">
<title>Node28&#45;&gt;Node31</title>
<g id="a_edge30_Node000028_Node000031"><a xlink:title=" ">
<path fill="none" stroke="#63b8ff" d="M1655,-164.84C1670,-155.6 1689.5,-143.59 1704.43,-134.4"/>
<polygon fill="#63b8ff" stroke="#63b8ff" points="1706.36,-137.32 1713.04,-129.09 1702.69,-131.36 1706.36,-137.32"/>
</a>
</g>
</g>
<!-- Node33 -->
<g id="Node000033" class="node">
<title>Node33</title>
<g id="a_Node000033"><a xlink:href="input_8h.html" target="_top" xlink:title=" ">
<polygon fill="white" stroke="#666666" points="1532.5,-250 1461.5,-250 1461.5,-231 1532.5,-231 1532.5,-250"/>
<text text-anchor="middle" x="1497" y="-238" font-family="Helvetica,sans-Serif" font-size="10.00">../io/input.h</text>
</a>
</g>
</g>
<!-- Node32&#45;&gt;Node33 -->
<g id="edge32_Node000032_Node000033" class="edge">
<title>Node32&#45;&gt;Node33</title>
<g id="a_edge32_Node000032_Node000033"><a xlink:title=" ">
<path fill="none" stroke="#63b8ff" d="M1515.37,-285.75C1512.42,-278.65 1508.17,-268.4 1504.49,-259.56"/>
<polygon fill="#63b8ff" stroke="#63b8ff" points="1507.63,-257.98 1500.57,-250.09 1501.17,-260.67 1507.63,-257.98"/>
</a>
</g>
</g>
<!-- Node34&#45;&gt;Node27 -->
<g id="edge34_Node000034_Node000027" class="edge">
<title>Node34&#45;&gt;Node27</title>
<g id="a_edge34_Node000034_Node000027"><a xlink:title=" ">
<path fill="none" stroke="#63b8ff" d="M1346.42,-340.72C1341.26,-332.03 1333.95,-318.17 1331,-305 1323.52,-271.64 1326.62,-253.91 1352,-231 1397.78,-189.68 1427.23,-213.68 1486,-195 1487.91,-194.39 1489.87,-193.75 1491.83,-193.08"/>
<polygon fill="#63b8ff" stroke="#63b8ff" points="1493.35,-196.26 1501.61,-189.63 1491.02,-189.66 1493.35,-196.26"/>
</a>
</g>
</g>
<!-- Node34&#45;&gt;Node32 -->
<g id="edge45_Node000034_Node000032" class="edge">
<title>Node34&#45;&gt;Node32</title>
<g id="a_edge45_Node000034_Node000032"><a xlink:title=" ">
<path fill="none" stroke="#63b8ff" d="M1378.83,-340.98C1406.87,-332.09 1451.05,-318.07 1482.3,-308.15"/>
<polygon fill="#63b8ff" stroke="#63b8ff" points="1483.49,-311.44 1491.96,-305.08 1481.37,-304.77 1483.49,-311.44"/>
</a>
</g>
</g>
<!-- Node34&#45;&gt;Node35 -->
<g id="edge35_Node000034_Node000035" class="edge">
<title>Node34&#45;&gt;Node35</title>
<g id="a_edge35_Node000034_Node000035"><a xlink:title=" ">
<path fill="none" stroke="#63b8ff" d="M1307.47,-341.22C1257.76,-331.97 1177.21,-317 1123.2,-306.95"/>
<polygon fill="#63b8ff" stroke="#63b8ff" points="1123.58,-303.46 1113.11,-305.07 1122.3,-310.34 1123.58,-303.46"/>
</a>
</g>
</g>
<!-- Node36 -->
<g id="Node000036" class="node">
<title>Node36</title>
<g id="a_Node000036"><a xlink:href="bodies_8h.html" target="_top" xlink:title=" ">
<polygon fill="white" stroke="#666666" points="1283.5,-305 1176.5,-305 1176.5,-286 1283.5,-286 1283.5,-305"/>
<text text-anchor="middle" x="1230" y="-293" font-family="Helvetica,sans-Serif" font-size="10.00">../physics/bodies.h</text>
</a>
</g>
</g>
<!-- Node34&#45;&gt;Node36 -->
<g id="edge39_Node000034_Node000036" class="edge">
<title>Node34&#45;&gt;Node36</title>
<g id="a_edge39_Node000034_Node000036"><a xlink:title=" ">
<path fill="none" stroke="#63b8ff" d="M1332.4,-340.98C1312.68,-332.42 1282.05,-319.11 1259.42,-309.28"/>
<polygon fill="#63b8ff" stroke="#63b8ff" points="1260.52,-305.94 1249.96,-305.17 1257.74,-312.37 1260.52,-305.94"/>
</a>
</g>
</g>
<!-- Node37 -->
<g id="Node000037" class="node">
<title>Node37</title>
<g id="a_Node000037"><a xlink:href="scripts_8h.html" target="_top" xlink:title=" ">
<polygon fill="white" stroke="#666666" points="1442,-305 1340,-305 1340,-286 1442,-286 1442,-305"/>
<text text-anchor="middle" x="1391" y="-293" font-family="Helvetica,sans-Serif" font-size="10.00">../scripts/scripts.h</text>
</a>
</g>
</g>
<!-- Node34&#45;&gt;Node37 -->
<g id="edge42_Node000034_Node000037" class="edge">
<title>Node34&#45;&gt;Node37</title>
<g id="a_edge42_Node000034_Node000037"><a xlink:title=" ">
<path fill="none" stroke="#63b8ff" d="M1358.44,-340.75C1363.89,-333.34 1371.86,-322.5 1378.56,-313.41"/>
<polygon fill="#63b8ff" stroke="#63b8ff" points="1381.57,-315.22 1384.68,-305.09 1375.93,-311.07 1381.57,-315.22"/>
</a>
</g>
</g>
<!-- Node35&#45;&gt;Node2 -->
<g id="edge36_Node000035_Node000002" class="edge">
<title>Node35&#45;&gt;Node2</title>
<g id="a_edge36_Node000035_Node000002"><a xlink:title=" ">
<path fill="none" stroke="#63b8ff" d="M1041.78,-285.98C1015.64,-277.16 974.6,-263.31 945.27,-253.41"/>
<polygon fill="#63b8ff" stroke="#63b8ff" points="946.02,-249.96 935.42,-250.08 943.78,-256.6 946.02,-249.96"/>
</a>
</g>
</g>
<!-- Node35&#45;&gt;Node25 -->
<g id="edge37_Node000035_Node000025" class="edge">
<title>Node35&#45;&gt;Node25</title>
<g id="a_edge37_Node000035_Node000025"><a xlink:title=" ">
<path fill="none" stroke="#63b8ff" d="M1080.01,-285.98C1092.46,-277.84 1111.46,-265.41 1126.21,-255.76"/>
<polygon fill="#63b8ff" stroke="#63b8ff" points="1128.3,-258.57 1134.75,-250.17 1124.46,-252.72 1128.3,-258.57"/>
</a>
</g>
</g>
<!-- Node35&#45;&gt;Node27 -->
<g id="edge38_Node000035_Node000027" class="edge">
<title>Node35&#45;&gt;Node27</title>
<g id="a_edge38_Node000035_Node000027"><a xlink:title=" ">
<path fill="none" stroke="#63b8ff" d="M1067.06,-285.86C1067.66,-271.86 1071.08,-244.43 1088,-231 1157.56,-175.8 1399.37,-214.52 1486,-195 1488.67,-194.4 1491.41,-193.65 1494.14,-192.83"/>
<polygon fill="#63b8ff" stroke="#63b8ff" points="1495.44,-196.08 1503.79,-189.56 1493.19,-189.45 1495.44,-196.08"/>
</a>
</g>
</g>
<!-- Node36&#45;&gt;Node25 -->
<g id="edge40_Node000036_Node000025" class="edge">
<title>Node36&#45;&gt;Node25</title>
<g id="a_edge40_Node000036_Node000025"><a xlink:title=" ">
<path fill="none" stroke="#63b8ff" d="M1216.83,-285.98C1204.23,-277.84 1185,-265.41 1170.06,-255.76"/>
<polygon fill="#63b8ff" stroke="#63b8ff" points="1171.71,-252.66 1161.41,-250.17 1167.91,-258.54 1171.71,-252.66"/>
</a>
</g>
</g>
<!-- Node36&#45;&gt;Node26 -->
<g id="edge41_Node000036_Node000026" class="edge">
<title>Node36&#45;&gt;Node26</title>
<g id="a_edge41_Node000036_Node000026"><a xlink:title=" ">
<path fill="none" stroke="#63b8ff" d="M1283.87,-286.91C1358.62,-276.37 1492.39,-257.51 1561.68,-247.75"/>
<polygon fill="#63b8ff" stroke="#63b8ff" points="1562.41,-251.18 1571.83,-246.32 1561.44,-244.25 1562.41,-251.18"/>
</a>
</g>
</g>
<!-- Node37&#45;&gt;Node33 -->
<g id="edge43_Node000037_Node000033" class="edge">
<title>Node37&#45;&gt;Node33</title>
<g id="a_edge43_Node000037_Node000033"><a xlink:title=" ">
<path fill="none" stroke="#63b8ff" d="M1408.03,-285.98C1424.93,-277.54 1451.06,-264.47 1470.64,-254.68"/>
<polygon fill="#63b8ff" stroke="#63b8ff" points="1472.28,-257.77 1479.66,-250.17 1469.15,-251.51 1472.28,-257.77"/>
</a>
</g>
</g>
<!-- Node38 -->
<g id="Node000038" class="node">
<title>Node38</title>
<g id="a_Node000038"><a xlink:href="signals_8h.html" target="_top" xlink:title="Signal and slot system for C projects.">
<polygon fill="white" stroke="#666666" points="1421,-250 1361,-250 1361,-231 1421,-231 1421,-250"/>
<text text-anchor="middle" x="1391" y="-238" font-family="Helvetica,sans-Serif" font-size="10.00">signals.h</text>
</a>
</g>
</g>
<!-- Node37&#45;&gt;Node38 -->
<g id="edge44_Node000037_Node000038" class="edge">
<title>Node37&#45;&gt;Node38</title>
<g id="a_edge44_Node000037_Node000038"><a xlink:title=" ">
<path fill="none" stroke="#63b8ff" d="M1391,-285.75C1391,-278.8 1391,-268.85 1391,-260.13"/>
<polygon fill="#63b8ff" stroke="#63b8ff" points="1394.5,-260.09 1391,-250.09 1387.5,-260.09 1394.5,-260.09"/>
</a>
</g>
</g>
<!-- Node39&#45;&gt;Node26 -->
<g id="edge48_Node000039_Node000026" class="edge">
<title>Node39&#45;&gt;Node26</title>
<g id="a_edge48_Node000039_Node000026"><a xlink:title=" ">
<path fill="none" stroke="#63b8ff" d="M1564.8,-340.74C1571.26,-332.07 1580.87,-318.22 1587,-305 1593.66,-290.63 1598.66,-273.35 1601.85,-260.45"/>
<polygon fill="#63b8ff" stroke="#63b8ff" points="1605.32,-260.95 1604.18,-250.42 1598.5,-259.36 1605.32,-260.95"/>
</a>
</g>
</g>
<!-- Node39&#45;&gt;Node32 -->
<g id="edge49_Node000039_Node000032" class="edge">
<title>Node39&#45;&gt;Node32</title>
<g id="a_edge49_Node000039_Node000032"><a xlink:title=" ">
<path fill="none" stroke="#63b8ff" d="M1551.56,-340.75C1546.11,-333.34 1538.14,-322.5 1531.44,-313.41"/>
<polygon fill="#63b8ff" stroke="#63b8ff" points="1534.07,-311.07 1525.32,-305.09 1528.43,-315.22 1534.07,-311.07"/>
</a>
</g>
</g>
</g>
</svg>
