# Blender 4.1.1
# www.blender.org
mtllib ascenseur.mtl
o ascenseur
v -29.699121 0.017904 -4.572978
v -29.699121 0.100305 -4.572978
v -29.699121 0.017904 -9.905420
v -29.699121 0.100305 -9.905420
v -24.643644 0.017904 -4.572978
v -24.643644 0.100305 -4.572978
v -24.643644 0.017904 -9.905420
v -24.643644 0.100305 -9.905420
v -29.799120 0.017904 -9.905420
v -29.799120 0.017904 -4.572978
v -29.799120 0.100305 -4.572978
v -29.799120 0.100305 -9.905420
v -29.699121 0.100305 -10.005421
v -29.699121 0.017904 -10.005421
v -24.643644 0.017904 -10.005421
v -24.643644 0.100305 -10.005421
v -29.699121 0.017904 -4.472978
v -29.699121 0.100305 -4.472978
v -24.643644 0.100305 -4.472978
v -24.643644 0.017904 -4.472978
v -24.543646 0.100305 -9.905420
v -24.543646 0.017904 -9.905420
v -24.543646 0.017904 -4.572978
v -24.543646 0.100305 -4.572978
v -29.699121 6.046486 -4.572978
v -29.699121 6.046486 -9.905420
v -29.799120 6.046486 -4.572978
v -29.799120 6.046486 -9.905420
v -29.699121 6.046486 -9.905420
v -24.643644 6.046486 -9.905420
v -29.699121 6.046486 -10.005421
v -24.643644 6.046486 -10.005421
v -24.643644 6.046486 -4.572978
v -29.699121 6.046486 -4.572978
v -24.643644 6.046486 -4.472978
v -29.699121 6.046486 -4.472978
v -24.643644 6.046486 -9.905420
v -24.643644 6.046486 -4.572978
v -24.543646 6.046486 -9.905420
v -24.543646 6.046486 -4.572978
v -29.699121 0.017904 -8.127939
v -29.699121 0.017904 -6.350459
v -29.699121 0.100305 -6.050459
v -29.699121 0.100305 -8.427939
v -24.643644 0.017904 -6.350459
v -24.643644 0.017904 -8.127939
v -24.643644 0.100305 -8.342698
v -24.643644 0.100305 -5.900557
v -29.799120 0.017904 -8.127939
v -29.799120 0.017904 -6.350459
v -29.799120 0.100305 -6.050459
v -29.799120 0.100305 -8.427939
v -24.543646 0.017904 -6.350459
v -24.543646 0.017904 -8.127939
v -24.543646 0.100305 -8.350561
v -24.543646 0.100305 -5.868310
v -29.699121 6.046486 -6.050459
v -29.699121 6.046486 -8.427939
v -29.799120 6.046486 -6.050459
v -29.799120 6.046486 -8.427939
v -24.643644 6.046486 -8.332582
v -24.643644 6.046486 -5.872491
v -24.543646 6.046486 -8.350561
v -24.543646 6.046486 -5.868310
v -29.699121 5.467778 -6.050459
v -29.799120 5.467778 -6.050459
v -29.699121 5.467778 -8.427939
v -29.799120 5.467778 -8.427939
v -29.699121 6.046486 -4.576462
v -24.643644 6.046486 -4.576462
v -27.164309 11.914577 -7.249840
v -27.164309 11.914577 -7.232042
v -27.178457 11.914577 -7.232042
v -27.178457 11.914577 -7.249840
v -28.279066 7.152050 -6.074010
v -26.063700 7.152050 -6.074010
v -28.279066 7.152050 -8.407873
v -26.063700 7.152050 -8.407873
v -27.787905 7.902754 -6.592079
v -26.554861 7.902754 -6.592079
v -27.787907 7.902754 -7.889803
v -26.554859 7.902754 -7.889803
v -27.362619 8.903707 -7.040664
v -26.980146 8.903707 -7.040664
v -27.362619 8.903707 -7.441218
v -26.980146 8.903707 -7.441218
v -27.231419 9.490160 -7.179054
v -27.111347 9.490160 -7.179054
v -27.231419 9.490160 -7.302828
v -27.111347 9.490160 -7.302828
v -27.202936 9.951067 -7.209096
v -27.139830 9.951067 -7.209096
v -27.202936 9.951067 -7.272787
v -27.139830 9.951067 -7.272787
v -27.182331 10.727242 -7.230830
v -27.160435 10.727242 -7.230830
v -27.182331 10.727242 -7.251052
v -27.160435 10.727242 -7.251052
vn -0.0000 -0.0000 1.0000
vn 1.0000 -0.0000 -0.0000
vn -1.0000 -0.0000 -0.0000
vn -0.0000 -1.0000 -0.0000
vn -0.0000 1.0000 -0.0000
vn -0.0000 -0.0000 -1.0000
vn -0.0000 -0.8045 0.5939
vn -0.0000 -0.8045 -0.5939
vn 0.6143 -0.7891 -0.0000
vn -0.6143 -0.7891 -0.0000
vn -0.0000 -0.5680 -0.8230
vn 0.8368 -0.5475 -0.0000
vn -0.8368 -0.5475 -0.0000
vn -0.0000 -0.5680 0.8230
vn -0.0000 -0.4090 -0.9125
vn 0.9204 -0.3910 -0.0000
vn -0.9204 -0.3910 -0.0000
vn -0.0000 -0.4090 0.9125
vn -0.0000 -0.2297 -0.9733
vn 0.9759 -0.2183 -0.0000
vn -0.9759 -0.2183 -0.0000
vn -0.0000 -0.2297 0.9733
vn -0.0000 -0.0650 -0.9979
vn 0.9981 -0.0617 -0.0000
vn -0.9981 -0.0617 -0.0000
vn -0.0000 -0.0650 0.9979
vn -0.0000 -0.0280 -0.9996
vn 0.9996 -0.0265 -0.0000
vn -0.9996 -0.0265 -0.0000
vn -0.0000 -0.0280 0.9996
vn -0.0000 -0.0160 -0.9999
vn 0.9999 -0.0152 -0.0000
vn -0.9999 -0.0152 -0.0000
vn -0.0000 -0.0160 0.9999
vn 0.3069 -0.0000 -0.9517
vn 0.0784 -0.0017 0.9969
vn -0.0000 0.0160 0.9999
vn -0.9999 0.0152 -0.0000
vn 0.9999 0.0152 -0.0000
vn -0.0000 0.0160 -0.9999
vn 0.0418 0.0047 -0.9991
vn 0.1769 -0.0000 0.9842
vt 0.019031 0.007055
vt 0.000000 0.506809
vt 0.000000 0.007055
vt 0.980977 0.000130
vt 0.999015 0.007055
vt 0.980977 0.007055
vt 0.339678 0.506809
vt 0.339678 0.007055
vt 0.019031 0.000000
vt 0.019031 0.000130
vt 0.980977 0.002438
vt 0.019031 0.002438
vt 0.714443 0.007055
vt 0.660330 0.000130
vt 0.000000 0.002438
vt 0.000000 0.000130
vt 0.980977 0.007185
vt 0.980977 0.506809
vt 0.999015 0.000130
vt 0.000989 0.506809
vt 0.000989 0.007055
vt 0.000989 0.000130
vt 0.339678 0.000130
vt 1.000000 0.000130
vt 1.000000 0.007055
vt 1.000000 0.004747
vt 0.980977 0.004747
vt 0.000000 0.005136
vt 0.019031 0.005136
vt 0.714443 0.506809
vt 0.019031 0.506809
vt 0.285561 0.506809
vt 0.285561 0.007055
vt 0.019031 0.007185
vt 0.999015 0.506809
vt 0.980977 0.000000
vt 1.000000 0.002438
vt 1.000000 0.506809
vt 0.660330 0.506809
vt 0.660330 0.007055
vt 0.000000 0.000000
vt 0.019031 0.002049
vt 0.019031 0.004747
vt 0.000000 0.004747
vt 0.285561 0.458171
vt 0.019031 0.458171
vt 0.714443 0.458171
vt 0.000000 0.458171
vt 0.498657 0.003583
vt 0.501351 0.003606
vt 0.501351 0.003583
vt 0.289232 0.599728
vt 0.710768 0.599728
vt 0.289808 0.599728
vt 0.710826 0.599728
vt 0.019656 0.506809
vt 0.617309 0.662821
vt 0.382691 0.662821
vt 0.383266 0.662821
vt 0.617367 0.662821
vt 0.536392 0.746948
vt 0.463612 0.746948
vt 0.464187 0.746948
vt 0.536442 0.746948
vt 0.511426 0.796237
vt 0.488578 0.796237
vt 0.511484 0.796237
vt 0.489154 0.796237
vt 0.506004 0.834974
vt 0.493996 0.834974
vt 0.494572 0.834974
vt 0.506062 0.834974
vt 0.502088 0.900209
vt 0.497920 0.900209
vt 0.498491 0.900209
vt 0.502138 0.900209
vt 0.501351 1.000000
vt 0.498711 1.000000
vt 0.501923 1.000000
vt 0.498657 1.000000
vt 0.000000 0.002049
vt 0.498657 0.003606
s 0
usemtl Dark_metal
f 2/1/1 27/2/1 11/3/1
f 7/4/2 16/5/2 8/6/2
f 6/1/3 62/7/3 48/8/3
f 5/4/4 17/9/4 1/10/4
f 45/11/4 1/10/4 42/12/4
f 48/11/5 2/10/5 6/4/5
f 52/13/3 9/4/3 49/14/3
f 1/10/4 50/15/4 42/12/4
f 3/10/6 12/3/6 4/1/6
f 2/1/1 10/16/1 1/10/1
f 13/1/6 15/4/6 14/10/6
f 3/1/4 15/17/4 7/6/4
f 13/1/6 32/18/6 16/6/6
f 4/6/3 14/19/3 3/4/3
f 19/6/1 17/10/1 20/4/1
f 6/1/2 35/20/2 19/21/2
f 6/1/2 20/22/2 5/10/2
f 1/10/3 18/21/3 2/1/3
f 56/8/2 23/10/2 53/23/2
f 8/6/6 22/24/6 7/4/6
f 5/4/1 24/25/1 6/6/1
f 7/6/4 54/26/4 46/27/4
f 26/1/5 60/28/5 58/29/5
f 4/6/2 58/30/2 44/13/2
f 12/3/6 26/31/6 4/1/6
f 11/1/3 59/32/3 51/33/3
f 30/6/5 31/34/5 29/1/5
f 8/6/1 29/31/1 4/1/1
f 4/6/3 31/35/3 13/5/3
f 16/5/2 30/18/2 8/6/2
f 34/10/5 35/36/5 33/4/5
f 2/1/6 33/18/6 6/6/6
f 19/6/1 36/31/1 18/1/1
f 18/21/3 34/31/3 2/1/3
f 38/4/5 64/37/5 62/11/5
f 8/6/6 39/38/6 21/25/6
f 24/25/1 38/18/1 6/6/1
f 21/6/2 63/39/2 55/40/2
f 56/8/2 40/31/2 24/1/2
f 37/6/5 63/26/5 39/25/5
f 61/41/5 64/41/5 63/41/5
f 52/13/3 28/18/3 12/6/3
f 52/28/5 43/42/5 44/29/5
f 43/33/2 25/31/2 2/1/2
f 59/2/6 43/1/6 51/3/6
f 57/42/5 27/16/5 25/10/5
f 44/1/1 60/2/1 52/3/1
f 45/11/4 23/24/4 5/4/4
f 46/27/4 53/37/4 45/11/4
f 22/4/2 55/40/2 54/14/2
f 41/43/4 9/3/4 3/1/4
f 42/12/4 49/44/4 41/43/4
f 10/10/3 51/33/3 50/23/3
f 51/33/3 49/14/3 50/23/3
f 8/6/5 44/29/5 47/27/5
f 47/27/5 43/42/5 48/11/5
f 7/6/4 41/43/4 3/1/4
f 46/27/4 42/12/4 41/43/4
f 47/40/3 37/18/3 8/6/3
f 60/30/3 66/45/3 59/32/3
f 65/42/4 68/28/4 67/29/4
f 59/2/1 65/46/1 57/31/1
f 57/32/2 67/47/2 58/30/2
f 58/31/6 68/48/6 60/2/6
f 58/29/5 60/28/5 57/42/5
f 73/49/4 71/50/4 72/51/4
f 77/52/7 30/18/7 78/53/7
f 76/53/8 69/31/8 75/52/8
f 75/54/9 29/18/9 77/55/9
f 78/55/10 70/56/10 76/54/10
f 80/57/11 75/52/11 79/58/11
f 79/59/12 77/55/12 81/60/12
f 80/59/13 78/55/13 76/54/13
f 81/58/14 78/53/14 82/57/14
f 84/61/15 79/58/15 83/62/15
f 83/63/16 81/60/16 85/64/16
f 86/64/17 80/59/17 84/63/17
f 85/62/18 82/57/18 86/61/18
f 88/65/19 83/62/19 87/66/19
f 89/67/20 83/63/20 85/64/20
f 90/67/21 84/63/21 88/68/21
f 89/66/22 86/61/22 90/65/22
f 92/69/23 87/66/23 91/70/23
f 91/71/24 89/67/24 93/72/24
f 94/72/25 88/68/25 92/71/25
f 93/70/26 90/65/26 94/69/26
f 96/73/27 91/70/27 95/74/27
f 95/75/28 93/72/28 97/76/28
f 98/76/29 92/71/29 96/75/29
f 97/74/30 94/69/30 98/73/30
f 71/77/31 96/73/31 95/74/31
f 72/78/32 95/75/32 97/76/32
f 74/79/33 98/76/33 96/75/33
f 73/80/34 97/74/34 98/73/34
f 48/41/35 64/41/35 56/41/35
f 55/41/36 61/41/36 47/41/36
f 48/41/5 55/40/5 47/41/5
f 2/1/1 25/31/1 27/2/1
f 7/4/2 15/19/2 16/5/2
f 6/1/3 38/31/3 62/7/3
f 5/4/4 20/36/4 17/9/4
f 45/11/4 5/4/4 1/10/4
f 48/11/5 43/42/5 2/10/5
f 52/13/3 12/6/3 9/4/3
f 1/10/4 10/16/4 50/15/4
f 3/10/6 9/16/6 12/3/6
f 2/1/1 11/3/1 10/16/1
f 13/1/6 16/6/6 15/4/6
f 3/1/4 14/34/4 15/17/4
f 13/1/6 31/31/6 32/18/6
f 4/6/3 13/5/3 14/19/3
f 19/6/1 18/1/1 17/10/1
f 6/1/2 33/31/2 35/20/2
f 6/1/2 19/21/2 20/22/2
f 1/10/3 17/22/3 18/21/3
f 56/8/2 24/1/2 23/10/2
f 8/6/6 21/25/6 22/24/6
f 5/4/1 23/24/1 24/25/1
f 7/6/4 22/25/4 54/26/4
f 26/1/5 28/3/5 60/28/5
f 4/6/2 26/18/2 58/30/2
f 12/3/6 28/2/6 26/31/6
f 11/1/3 27/31/3 59/32/3
f 30/6/5 32/17/5 31/34/5
f 8/6/1 30/18/1 29/31/1
f 4/6/3 29/18/3 31/35/3
f 16/5/2 32/35/2 30/18/2
f 34/10/5 36/9/5 35/36/5
f 2/1/6 34/31/6 33/18/6
f 19/6/1 35/18/1 36/31/1
f 18/21/3 36/20/3 34/31/3
f 38/4/5 40/24/5 64/37/5
f 8/6/6 37/18/6 39/38/6
f 24/25/1 40/38/1 38/18/1
f 21/6/2 39/18/2 63/39/2
f 56/8/2 64/7/2 40/31/2
f 37/6/5 61/27/5 63/26/5
f 61/41/5 62/41/5 64/41/5
f 52/13/3 60/30/3 28/18/3
f 52/28/5 51/81/5 43/42/5
f 43/33/2 57/32/2 25/31/2
f 59/2/6 57/31/6 43/1/6
f 57/42/5 59/81/5 27/16/5
f 44/1/1 58/31/1 60/2/1
f 45/11/4 53/37/4 23/24/4
f 46/27/4 54/26/4 53/37/4
f 22/4/2 21/6/2 55/40/2
f 41/43/4 49/44/4 9/3/4
f 42/12/4 50/15/4 49/44/4
f 10/10/3 11/1/3 51/33/3
f 51/33/3 52/13/3 49/14/3
f 8/6/5 4/1/5 44/29/5
f 47/27/5 44/29/5 43/42/5
f 7/6/4 46/27/4 41/43/4
f 46/27/4 45/11/4 42/12/4
f 47/40/3 61/39/3 37/18/3
f 60/30/3 68/47/3 66/45/3
f 65/42/4 66/81/4 68/28/4
f 59/2/1 66/48/1 65/46/1
f 57/32/2 65/45/2 67/47/2
f 58/31/6 67/46/6 68/48/6
f 60/28/5 59/81/5 57/42/5
f 73/49/4 74/82/4 71/50/4
f 77/52/7 29/31/7 30/18/7
f 76/53/8 70/18/8 69/31/8
f 75/54/9 69/56/9 29/18/9
f 78/55/10 30/18/10 70/56/10
f 80/57/11 76/53/11 75/52/11
f 79/59/12 75/54/12 77/55/12
f 80/59/13 82/60/13 78/55/13
f 81/58/14 77/52/14 78/53/14
f 84/61/15 80/57/15 79/58/15
f 83/63/16 79/59/16 81/60/16
f 86/64/17 82/60/17 80/59/17
f 85/62/18 81/58/18 82/57/18
f 88/65/19 84/61/19 83/62/19
f 89/67/20 87/68/20 83/63/20
f 90/67/21 86/64/21 84/63/21
f 89/66/22 85/62/22 86/61/22
f 92/69/23 88/65/23 87/66/23
f 91/71/24 87/68/24 89/67/24
f 94/72/25 90/67/25 88/68/25
f 93/70/26 89/66/26 90/65/26
f 96/73/27 92/69/27 91/70/27
f 95/75/28 91/71/28 93/72/28
f 98/76/29 94/72/29 92/71/29
f 97/74/30 93/70/30 94/69/30
f 71/77/37 74/80/37 96/73/37
f 72/78/38 71/79/38 95/75/38
f 74/79/39 73/78/39 98/76/39
f 73/80/40 72/77/40 97/74/40
f 48/41/41 62/41/41 64/41/41
f 55/41/42 63/41/42 61/41/42
f 48/41/5 56/41/5 55/40/5
