# Blender 4.1.1
# www.blender.org
mtllib ascenseur.mtl
o ascenseur
v -29.699121 -0.015383 -3.922908
v -29.699121 0.067018 -3.922908
v -29.699121 -0.015383 -9.255350
v -29.699121 0.067018 -9.255350
v -24.643644 -0.015383 -3.922908
v -24.643644 0.067018 -3.922908
v -24.643644 -0.015383 -9.255350
v -24.643644 0.067018 -9.255350
v -29.799120 -0.015383 -9.255350
v -29.799120 -0.015383 -3.922908
v -29.799120 0.067018 -3.922908
v -29.799120 0.067018 -9.255350
v -29.699121 0.067018 -9.355350
v -29.699121 -0.015383 -9.355350
v -24.643644 -0.015383 -9.355350
v -24.643644 0.067018 -9.355350
v -29.699121 -0.015383 -3.822908
v -29.699121 0.067018 -3.822908
v -24.643644 0.067018 -3.822908
v -24.643644 -0.015383 -3.822908
v -24.543646 0.067018 -9.255350
v -24.543646 -0.015383 -9.255350
v -24.543646 -0.015383 -3.922908
v -24.543646 0.067018 -3.922908
v -29.699121 6.013199 -3.922908
v -29.699121 6.013199 -9.255350
v -29.799120 6.013199 -3.922908
v -29.799120 6.013199 -9.255350
v -29.699121 6.013199 -9.255350
v -24.625301 6.013199 -9.255350
v -29.699121 6.013199 -9.355350
v -24.643644 6.013199 -9.355350
v -24.643644 6.013199 -3.922908
v -29.699121 6.013199 -3.922908
v -24.643644 6.013199 -3.822908
v -29.699121 6.013199 -3.822908
v -24.643644 6.013199 -9.255350
v -24.643644 6.013199 -3.922908
v -24.543646 6.013199 -9.255350
v -24.543646 6.013199 -3.922908
v -29.699121 -0.015383 -7.477869
v -29.699121 -0.015383 -5.700389
v -29.699121 0.067018 -5.400389
v -29.699121 0.067018 -7.777869
v -24.643644 -0.015383 -5.700389
v -24.643644 -0.015383 -7.477869
v -24.643644 0.067018 -7.692628
v -24.643644 0.067018 -5.250487
v -29.799120 -0.015383 -7.477869
v -29.799120 -0.015383 -5.700389
v -29.799120 0.067018 -5.400389
v -29.799120 0.067018 -7.777869
v -24.543646 -0.015383 -5.700389
v -24.543646 -0.015383 -7.477869
v -24.543646 0.067018 -7.700490
v -24.543646 0.067018 -5.218240
v -29.699121 6.013199 -5.400389
v -29.699121 6.013199 -7.777869
v -29.799120 6.013199 -5.400389
v -29.799120 6.013199 -7.777869
v -24.643644 6.013199 -7.682513
v -24.643644 6.013199 -5.222421
v -24.543646 6.013199 -7.700490
v -24.543646 6.013199 -5.218240
v -29.699121 5.434491 -5.400389
v -29.799120 5.434491 -5.400389
v -29.699121 5.434491 -7.777869
v -29.799120 5.434491 -7.777869
v -29.699121 6.013199 -3.926392
v -24.625301 6.013199 -3.926392
v -27.164309 11.881290 -6.599770
v -27.164309 11.881290 -6.581972
v -27.178457 11.881290 -6.581972
v -27.178457 11.881290 -6.599770
v -28.279066 7.118763 -5.423940
v -26.063700 7.118763 -5.423940
v -28.279066 7.118763 -7.757802
v -26.063700 7.118763 -7.757802
v -27.787905 7.869467 -5.942009
v -26.554861 7.869467 -5.942009
v -27.787907 7.869467 -7.239733
v -26.554859 7.869467 -7.239733
v -27.362619 8.870420 -6.390594
v -26.980146 8.870420 -6.390594
v -27.362619 8.870420 -6.791148
v -26.980146 8.870420 -6.791148
v -27.231419 9.456873 -6.528984
v -27.111347 9.456873 -6.528984
v -27.231419 9.456873 -6.652758
v -27.111347 9.456873 -6.652758
v -27.202936 9.917780 -6.559026
v -27.139830 9.917780 -6.559026
v -27.202936 9.917780 -6.622716
v -27.139830 9.917780 -6.622716
v -27.182331 10.693955 -6.580760
v -27.160435 10.693955 -6.580760
v -27.182331 10.693955 -6.600982
v -27.160435 10.693955 -6.600982
v -29.701622 6.013199 -9.255350
v -29.701622 6.013199 -3.926392
v -24.643644 5.940455 -7.682513
v -24.643644 5.940455 -5.222421
v -24.543646 5.940455 -7.700490
v -24.543646 5.940455 -5.218240
vn -0.0000 -0.0000 1.0000
vn 1.0000 -0.0000 -0.0000
vn -1.0000 -0.0000 -0.0000
vn -0.0000 -1.0000 -0.0000
vn -0.0000 1.0000 -0.0000
vn -0.0000 -0.0000 -1.0000
vn 1.0000 -0.0031 -0.0000
vn -0.0418 -0.0000 0.9991
vn -0.0000 0.8045 -0.5939
vn -0.0000 0.8045 0.5939
vn -0.6143 0.7891 -0.0000
vn 0.6094 0.7929 -0.0000
vn -0.0000 0.5680 0.8230
vn -0.8368 0.5475 -0.0000
vn 0.8368 0.5475 -0.0000
vn -0.0000 0.5680 -0.8230
vn -0.0000 0.4090 0.9125
vn -0.9204 0.3910 -0.0000
vn 0.9204 0.3910 -0.0000
vn -0.0000 0.4090 -0.9125
vn -0.0000 0.2297 0.9733
vn -0.9759 0.2183 -0.0000
vn 0.9759 0.2183 -0.0000
vn -0.0000 0.2297 -0.9733
vn -0.0000 0.0650 0.9979
vn -0.9981 0.0617 -0.0000
vn 0.9981 0.0617 -0.0000
vn -0.0000 0.0650 -0.9979
vn -0.0000 0.0280 0.9996
vn -0.9996 0.0265 -0.0000
vn 0.9996 0.0265 -0.0000
vn -0.0000 0.0280 -0.9996
vn -0.0000 -0.0160 -0.9999
vn 0.9999 -0.0152 -0.0000
vn -0.9999 -0.0152 -0.0000
vn -0.0000 -0.0160 0.9999
vn 0.3069 -0.0000 -0.9517
vn 0.0784 -0.0017 0.9969
vn -0.1769 -0.0000 -0.9842
vn 0.9836 -0.0000 -0.1804
vn -0.0000 0.0160 0.9999
vn -0.9999 0.0152 -0.0000
vn 0.9999 0.0152 -0.0000
vn -0.0000 0.0160 -0.9999
vn 0.0418 0.0047 -0.9991
vn 0.1769 -0.0000 0.9842
vt 0.496537 0.006926
vt 0.496400 0.506745
vt 0.496400 0.006926
vt 0.503463 0.000000
vt 0.503593 0.006926
vt 0.503463 0.006926
vt 0.498225 0.506745
vt 0.498261 0.006926
vt 0.503463 0.496537
vt 0.496537 0.496407
vt 0.496537 0.496537
vt 0.503463 0.498846
vt 0.496537 0.498846
vt 0.503463 0.498261
vt 0.501544 0.006926
vt 0.501154 0.000000
vt 0.496400 0.498846
vt 0.496537 0.000000
vt 0.496400 0.000000
vt 0.496537 0.503463
vt 0.503463 0.503593
vt 0.503463 0.503463
vt 0.503463 0.506745
vt 0.503593 0.000000
vt 0.496407 0.506745
vt 0.496407 0.006926
vt 0.496407 0.000000
vt 0.498219 0.006926
vt 0.498846 0.000000
vt 0.503600 0.000000
vt 0.503600 0.006926
vt 0.503600 0.501154
vt 0.503463 0.501154
vt 0.496400 0.501544
vt 0.496537 0.501544
vt 0.501544 0.506745
vt 0.496537 0.506745
vt 0.498456 0.506745
vt 0.498456 0.006926
vt 0.496537 0.503593
vt 0.503593 0.506745
vt 0.503463 0.496407
vt 0.503600 0.498219
vt 0.503463 0.498225
vt 0.503600 0.506745
vt 0.501444 0.506745
vt 0.501444 0.006926
vt 0.503600 0.501444
vt 0.503600 0.503463
vt 0.496537 0.498456
vt 0.496400 0.496537
vt 0.503600 0.496537
vt 0.503600 0.498846
vt 0.496537 0.501154
vt 0.496400 0.503463
vt 0.496400 0.501154
vt 0.503463 0.501433
vt 0.501433 0.006926
vt 0.498456 0.458101
vt 0.496537 0.458101
vt 0.501544 0.458101
vt 0.496400 0.458101
vt 0.000000 0.000000
vt 0.500010 0.500014
vt 0.499990 0.499991
vt 0.500010 0.499991
vt 0.501518 0.599676
vt 0.498482 0.599676
vt 0.498487 0.599676
vt 0.501518 0.599676
vt 0.496541 0.506745
vt 0.500845 0.662778
vt 0.499155 0.662778
vt 0.499159 0.662778
vt 0.500845 0.662778
vt 0.499738 0.746915
vt 0.500262 0.746915
vt 0.499742 0.746915
vt 0.500262 0.746915
vt 0.500082 0.796210
vt 0.499918 0.796210
vt 0.499922 0.796210
vt 0.500083 0.796210
vt 0.500043 0.834953
vt 0.499957 0.834953
vt 0.499961 0.834953
vt 0.500044 0.834953
vt 0.499985 0.900196
vt 0.500015 0.900196
vt 0.499989 0.900196
vt 0.500015 0.900196
vt 0.500010 1.000000
vt 0.499990 1.000000
vt 0.499991 1.000000
vt 0.500014 1.000000
vt 0.503463 0.501420
vt 0.498219 0.506745
vt 0.496400 0.498456
vt 0.501420 0.506745
vt 0.499990 0.500014
s 0
usemtl Dark_metal
f 2/1/1 27/2/1 11/3/1
f 7/4/2 16/5/2 8/6/2
f 6/1/3 62/7/3 48/8/3
f 5/9/4 17/10/4 1/11/4
f 45/12/4 1/11/4 42/13/4
f 48/14/5 2/11/5 6/9/5
f 52/15/3 9/4/3 49/16/3
f 1/11/4 50/17/4 42/13/4
f 3/18/6 12/3/6 4/1/6
f 2/1/1 10/19/1 1/18/1
f 13/1/6 15/4/6 14/18/6
f 3/20/4 15/21/4 7/22/4
f 13/1/6 32/23/6 16/6/6
f 4/6/3 14/24/3 3/4/3
f 19/6/1 17/18/1 20/4/1
f 6/1/2 35/25/2 19/26/2
f 6/1/2 20/27/2 5/18/2
f 1/18/3 18/26/3 2/1/3
f 56/28/2 23/18/2 53/29/2
f 8/6/6 22/30/6 7/4/6
f 5/4/1 24/31/1 6/6/1
f 7/22/4 54/32/4 46/33/4
f 26/20/5 60/34/5 58/35/5
f 4/6/2 58/36/2 44/15/2
f 12/3/6 26/37/6 4/1/6
f 11/1/3 59/38/3 51/39/3
f 29/20/5 32/21/5 31/40/5
f 8/6/1 29/37/1 4/1/1
f 4/6/3 31/41/3 13/5/3
f 16/5/7 30/23/7 8/6/7
f 34/11/5 35/42/5 33/9/5
f 2/1/6 33/23/6 6/6/6
f 19/6/1 36/37/1 18/1/1
f 18/26/3 34/37/3 2/1/3
f 38/9/5 64/43/5 62/44/5
f 8/6/6 39/45/6 21/31/6
f 24/31/1 38/23/1 6/6/1
f 21/6/2 63/46/2 55/47/2
f 56/28/2 40/37/2 24/1/2
f 37/22/5 63/48/5 39/49/5
f 102/44/8 64/43/8 62/44/8
f 52/15/3 28/23/3 12/6/3
f 52/34/5 43/50/5 44/35/5
f 43/39/2 25/37/2 2/1/2
f 59/2/6 43/1/6 51/3/6
f 57/50/5 27/51/5 25/11/5
f 44/1/1 60/2/1 52/3/1
f 45/12/4 23/52/4 5/9/4
f 46/33/4 53/53/4 45/12/4
f 22/4/2 55/47/2 54/16/2
f 41/54/4 9/55/4 3/20/4
f 42/13/4 49/56/4 41/54/4
f 10/18/3 51/39/3 50/29/3
f 51/39/3 49/16/3 50/29/3
f 8/22/5 44/35/5 47/57/5
f 47/57/5 43/50/5 48/14/5
f 7/22/4 41/54/4 3/20/4
f 46/33/4 42/13/4 41/54/4
f 47/58/3 37/23/3 8/6/3
f 60/36/3 66/59/3 59/38/3
f 65/50/4 68/34/4 67/35/4
f 59/2/1 65/60/1 57/37/1
f 57/38/2 67/61/2 58/36/2
f 58/37/6 68/62/6 60/2/6
f 58/63/5 59/63/5 57/63/5
f 71/64/5 73/65/5 72/66/5
f 78/67/9 29/37/9 77/68/9
f 69/37/10 76/67/10 75/68/10
f 29/23/11 75/69/11 77/70/11
f 70/71/12 78/70/12 76/69/12
f 75/68/13 80/72/13 79/73/13
f 77/70/14 79/74/14 81/75/14
f 76/69/15 82/75/15 80/74/15
f 78/67/16 81/73/16 82/72/16
f 83/76/17 80/72/17 84/77/17
f 81/75/18 83/78/18 85/79/18
f 80/74/19 86/79/19 84/78/19
f 82/72/20 85/76/20 86/77/20
f 83/76/21 88/80/21 87/81/21
f 85/79/22 87/82/22 89/83/22
f 84/78/23 90/83/23 88/82/23
f 86/77/24 89/81/24 90/80/24
f 87/81/25 92/84/25 91/85/25
f 89/83/26 91/86/26 93/87/26
f 88/82/27 94/87/27 92/86/27
f 94/84/28 89/81/28 93/85/28
f 95/88/29 92/84/29 96/89/29
f 93/87/30 95/90/30 97/91/30
f 92/86/31 98/91/31 96/90/31
f 94/84/32 97/88/32 98/89/32
f 71/92/33 96/89/33 74/93/33
f 72/94/34 95/90/34 71/95/34
f 74/95/35 98/91/35 73/94/35
f 73/93/36 97/88/36 72/92/36
f 48/6/37 64/45/37 56/31/37
f 55/31/38 61/23/38 47/6/38
f 48/14/5 55/48/5 47/57/5
f 70/71/4 99/23/4 30/23/4
f 101/96/4 104/43/4 102/44/4
f 104/63/2 63/63/2 64/63/2
f 101/63/3 62/63/3 61/63/3
f 103/48/39 61/96/39 63/48/39
f 61/63/5 64/63/5 63/63/5
f 2/1/1 25/37/1 27/2/1
f 7/4/2 15/24/2 16/5/2
f 6/1/3 38/37/3 62/7/3
f 5/9/4 20/42/4 17/10/4
f 45/12/4 5/9/4 1/11/4
f 48/14/5 43/50/5 2/11/5
f 52/15/3 12/6/3 9/4/3
f 1/11/4 10/51/4 50/17/4
f 3/18/6 9/19/6 12/3/6
f 2/1/1 11/3/1 10/19/1
f 13/1/6 16/6/6 15/4/6
f 3/20/4 14/40/4 15/21/4
f 13/1/6 31/37/6 32/23/6
f 4/6/3 13/5/3 14/24/3
f 19/6/1 18/1/1 17/18/1
f 6/1/2 33/37/2 35/25/2
f 6/1/2 19/26/2 20/27/2
f 1/18/3 17/27/3 18/26/3
f 56/28/2 24/1/2 23/18/2
f 8/6/6 21/31/6 22/30/6
f 5/4/1 23/30/1 24/31/1
f 7/22/4 22/49/4 54/32/4
f 26/20/5 28/55/5 60/34/5
f 4/6/2 26/23/2 58/36/2
f 12/3/6 28/2/6 26/37/6
f 11/1/3 27/37/3 59/38/3
f 29/20/5 30/22/5 32/21/5
f 8/6/1 30/23/1 29/37/1
f 4/6/3 29/23/3 31/41/3
f 16/5/40 32/41/40 30/23/40
f 34/11/5 36/10/5 35/42/5
f 2/1/6 34/37/6 33/23/6
f 19/6/1 35/23/1 36/37/1
f 18/26/3 36/25/3 34/37/3
f 38/9/5 40/52/5 64/43/5
f 8/6/6 37/23/6 39/45/6
f 24/31/1 40/45/1 38/23/1
f 21/6/2 39/23/2 63/46/2
f 56/28/2 64/97/2 40/37/2
f 37/22/5 61/96/5 63/48/5
f 102/44/8 104/43/8 64/43/8
f 52/15/3 60/36/3 28/23/3
f 52/34/5 51/98/5 43/50/5
f 43/39/2 57/38/2 25/37/2
f 59/2/6 57/37/6 43/1/6
f 57/50/5 59/98/5 27/51/5
f 44/1/1 58/37/1 60/2/1
f 45/12/4 53/53/4 23/52/4
f 46/33/4 54/32/4 53/53/4
f 22/4/2 21/6/2 55/47/2
f 41/54/4 49/56/4 9/55/4
f 42/13/4 50/17/4 49/56/4
f 10/18/3 11/1/3 51/39/3
f 51/39/3 52/15/3 49/16/3
f 8/22/5 4/20/5 44/35/5
f 47/57/5 44/35/5 43/50/5
f 7/22/4 46/33/4 41/54/4
f 46/33/4 45/12/4 42/13/4
f 47/58/3 61/99/3 37/23/3
f 60/36/3 68/61/3 66/59/3
f 65/50/4 66/98/4 68/34/4
f 59/2/1 66/62/1 65/60/1
f 57/38/2 65/59/2 67/61/2
f 58/37/6 67/60/6 68/62/6
f 58/63/5 60/63/5 59/63/5
f 71/64/5 74/100/5 73/65/5
f 78/67/9 30/23/9 29/37/9
f 69/37/10 70/23/10 76/67/10
f 29/23/11 69/71/11 75/69/11
f 70/71/12 30/23/12 78/70/12
f 75/68/13 76/67/13 80/72/13
f 77/70/14 75/69/14 79/74/14
f 76/69/15 78/70/15 82/75/15
f 78/67/16 77/68/16 81/73/16
f 83/76/17 79/73/17 80/72/17
f 81/75/18 79/74/18 83/78/18
f 80/74/19 82/75/19 86/79/19
f 82/72/20 81/73/20 85/76/20
f 83/76/21 84/77/21 88/80/21
f 85/79/22 83/78/22 87/82/22
f 84/78/23 86/79/23 90/83/23
f 86/77/24 85/76/24 89/81/24
f 87/81/25 88/80/25 92/84/25
f 89/83/26 87/82/26 91/86/26
f 88/82/27 90/83/27 94/87/27
f 94/84/28 90/80/28 89/81/28
f 95/88/29 91/85/29 92/84/29
f 93/87/30 91/86/30 95/90/30
f 92/86/31 94/87/31 98/91/31
f 94/84/32 93/85/32 97/88/32
f 71/92/41 95/88/41 96/89/41
f 72/94/42 97/91/42 95/90/42
f 74/95/43 96/90/43 98/91/43
f 73/93/44 98/89/44 97/88/44
f 48/6/45 62/23/45 64/45/45
f 55/31/46 63/45/46 61/23/46
f 48/14/5 56/43/5 55/48/5
f 70/71/4 100/71/4 99/23/4
f 101/96/4 103/48/4 104/43/4
f 104/63/2 103/63/2 63/63/2
f 101/63/3 102/63/3 62/63/3
f 103/48/39 101/96/39 61/96/39
f 61/63/5 62/63/5 64/63/5
