# Blender 4.1.1
# www.blender.org
mtllib plateforme_parcours.mtl
o plateforme_parcours
v -22.312767 0.074859 -49.939602
v -18.330254 0.074859 -49.167267
v -22.459240 0.074859 -53.036648
v -18.359232 0.074859 -54.005344
v -22.312767 0.027394 -49.939602
v -18.330254 0.027394 -49.167267
v -22.459240 0.027394 -53.036648
v -18.359232 0.027394 -54.005344
v -16.408409 0.076980 -51.474079
v -18.359232 0.051126 -54.005344
v -16.408409 0.029515 -51.474079
v -18.330254 0.051126 -49.167267
v -16.408409 0.053247 -51.474079
v -16.566977 0.074859 -52.377468
v -18.359232 0.039261 -54.005344
v -16.820309 0.027395 -50.540462
v -18.330254 0.062993 -49.167267
v -16.820309 0.074859 -50.540462
v -18.359232 0.062993 -54.005344
v -16.566977 0.027395 -52.377468
v -18.330254 0.039261 -49.167267
v -16.820309 0.051126 -50.540462
v -16.566977 0.051126 -52.377468
v -16.408409 0.041381 -51.474079
v -16.408409 0.065113 -51.474079
v -16.566977 0.062993 -52.377468
v -16.566977 0.039261 -52.377468
v -16.820309 0.039261 -50.540462
v -16.820309 0.062993 -50.540462
v -20.958029 0.074859 -54.168331
v -22.459240 0.051126 -53.036648
v -18.359232 0.033328 -54.005344
v -20.958029 0.027394 -54.168331
v -18.359232 0.057059 -54.005344
v -18.359232 0.045194 -54.005344
v -18.359232 0.068926 -54.005344
v -20.591633 0.074859 -49.029888
v -20.591633 0.027394 -49.029888
v -22.312767 0.051126 -49.939602
v -18.330254 0.068926 -49.167267
v -18.330254 0.045194 -49.167267
v -18.330254 0.057059 -49.167267
v -18.330254 0.033328 -49.167267
v -23.207382 0.074859 -51.645531
v -22.459240 0.062992 -53.036648
v -23.207382 0.027394 -51.645531
v -22.312767 0.039260 -49.939602
v -22.459240 0.039260 -53.036648
v -22.312767 0.062992 -49.939602
vn -0.0075 1.0000 -0.0010
vn 0.0626 -0.0000 -0.9980
vn 0.0075 -1.0000 0.0010
vn 0.0606 -0.0000 0.9982
vn -0.8856 -0.0000 0.4644
vn 0.6728 -0.0000 0.7398
vn 0.9849 -0.0000 -0.1729
vn 0.6723 -0.0000 -0.7402
vn 0.9149 -0.0000 0.4036
vn -0.0000 -1.0000 -0.0000
vn -0.0000 1.0000 -0.0000
vn -0.6020 -0.0000 -0.7985
vn -0.4673 -0.0000 0.8841
vn -0.8807 -0.0000 -0.4736
vt 0.976678 0.651478
vt 0.939418 0.293976
vt 1.000000 0.475668
vt 0.713071 0.486954
vt 0.713071 0.485800
vt 0.330837 0.482336
vt 0.717333 0.486954
vt 0.717333 0.488109
vt 0.384727 0.491573
vt 0.630805 0.482336
vt 0.379895 0.484645
vt 0.630805 0.491573
vt 0.939418 0.491573
vt 0.717333 0.490418
vt 0.717333 0.489264
vt 0.939418 0.486954
vt 0.717333 0.485800
vt 0.717333 0.484645
vt 0.738459 0.486954
vt 0.605588 0.485058
vt 0.738459 0.484645
vt 0.738459 0.491573
vt 0.605588 0.489676
vt 0.738459 0.489264
vt 0.605588 0.487367
vt 0.713071 0.488109
vt 0.976678 0.489264
vt 0.976678 0.486954
vt 0.713071 0.490418
vt 0.976678 0.491573
vt 0.605588 0.482749
vt 0.738459 0.482336
vt 0.713071 0.483491
vt 0.976678 0.484645
vt 0.976678 0.482336
vt 0.939418 0.484645
vt 0.717333 0.483491
vt 0.717333 0.482336
vt 0.468271 0.484645
vt 0.468271 0.482336
vt 0.468271 0.486954
vt 0.939418 0.489264
vt 0.468271 0.489264
vt 0.468271 0.491573
vt 0.330837 1.000000
vt 0.717333 0.026735
vt 0.131581 0.177041
vt 0.384727 0.000000
vt 0.713071 0.968281
vt 0.110037 0.779762
vt 0.110037 0.489264
vt 0.110037 0.491573
vt 0.330837 0.491573
vt 0.713071 0.491573
vt 0.713071 0.489264
vt 0.110037 0.486954
vt 0.110037 0.482336
vt 0.110037 0.484645
vt 0.713071 0.482336
vt 0.713071 0.484645
vt 0.131581 0.484645
vt 0.131581 0.482336
vt 0.384727 0.482336
vt 0.131581 0.486954
vt 0.131581 0.491573
vt 0.131581 0.489264
vt 0.717333 0.491573
vt 0.835412 0.491573
vt 0.835412 0.489264
vt 0.835412 0.486954
vt 0.379895 0.489264
vt 0.379895 0.491573
vt 0.379895 0.486954
vt 0.835412 0.484645
vt 0.835412 0.482336
vt 0.379895 0.482336
vt 0.605588 0.491986
vt 0.939418 0.482336
vt 0.000000 0.509034
s 0
usemtl Dark_metal
f 14/1/1 18/2/1 9/3/1
f 10/4/2 35/5/2 33/6/2
f 16/2/3 20/1/3 11/3/3
f 12/7/4 42/8/4 37/9/4
f 46/10/5 47/11/5 44/12/5
f 18/13/6 40/14/6 17/15/6
f 22/16/6 41/17/6 21/18/6
f 23/19/7 24/20/7 27/21/7
f 14/22/7 25/23/7 26/24/7
f 26/24/7 13/25/7 23/19/7
f 34/26/8 26/27/8 23/28/8
f 36/29/8 14/30/8 26/27/8
f 27/21/7 11/31/7 20/32/7
f 32/33/8 27/34/8 20/35/8
f 35/5/8 23/28/8 27/34/8
f 28/36/6 43/37/6 6/38/6
f 11/31/9 28/39/9 16/40/9
f 24/20/9 22/41/9 28/39/9
f 29/42/6 42/8/6 12/7/6
f 13/25/9 29/43/9 22/41/9
f 25/23/9 18/44/9 29/43/9
f 33/45/10 6/46/10 5/47/10
f 37/48/11 4/49/11 3/50/11
f 45/51/12 3/52/12 30/53/12
f 30/53/2 4/54/2 36/29/2
f 30/53/2 36/29/2 19/55/2
f 31/56/12 45/51/12 30/53/12
f 33/6/12 7/57/12 48/58/12
f 48/58/12 31/56/12 30/53/12
f 30/53/2 19/55/2 34/26/2
f 30/53/2 34/26/2 10/4/2
f 33/6/12 48/58/12 30/53/12
f 32/33/2 8/59/2 33/6/2
f 15/60/2 32/33/2 33/6/2
f 33/6/2 30/53/2 10/4/2
f 35/5/2 15/60/2 33/6/2
f 47/61/13 5/62/13 38/63/13
f 38/63/4 6/38/4 43/37/4
f 38/63/4 43/37/4 21/18/4
f 39/64/13 47/61/13 38/63/13
f 37/9/13 1/65/13 49/66/13
f 49/66/13 39/64/13 38/63/13
f 38/63/4 21/18/4 41/17/4
f 38/63/4 41/17/4 12/7/4
f 37/9/13 49/66/13 38/63/13
f 40/14/4 2/67/4 37/9/4
f 17/15/4 40/14/4 37/9/4
f 37/9/4 38/63/4 12/7/4
f 42/8/4 17/15/4 37/9/4
f 44/12/14 3/68/14 45/69/14
f 44/12/14 45/69/14 31/70/14
f 49/71/5 1/72/5 44/12/5
f 39/73/5 49/71/5 44/12/5
f 44/12/14 31/70/14 48/74/14
f 48/74/14 7/75/14 46/10/14
f 46/10/5 5/76/5 47/11/5
f 47/11/5 39/73/5 44/12/5
f 44/12/14 48/74/14 46/10/14
f 17/15/6 29/42/6 18/13/6
f 18/13/6 2/67/6 40/14/6
f 21/18/6 28/36/6 22/16/6
f 22/16/6 12/7/6 41/17/6
f 23/19/7 13/25/7 24/20/7
f 14/22/7 9/77/7 25/23/7
f 26/24/7 25/23/7 13/25/7
f 23/28/8 10/4/8 34/26/8
f 34/26/8 19/55/8 26/27/8
f 26/27/8 19/55/8 36/29/8
f 36/29/8 4/54/8 14/30/8
f 27/21/7 24/20/7 11/31/7
f 20/35/8 8/59/8 32/33/8
f 32/33/8 15/60/8 27/34/8
f 27/34/8 15/60/8 35/5/8
f 35/5/8 10/4/8 23/28/8
f 6/38/6 16/78/6 28/36/6
f 28/36/6 21/18/6 43/37/6
f 11/31/9 24/20/9 28/39/9
f 24/20/9 13/25/9 22/41/9
f 12/7/6 22/16/6 29/42/6
f 29/42/6 17/15/6 42/8/6
f 13/25/9 25/23/9 29/43/9
f 25/23/9 9/77/9 18/44/9
f 46/79/10 7/50/10 33/45/10
f 33/45/10 8/49/10 20/1/10
f 20/1/10 16/2/10 6/46/10
f 6/46/10 38/48/10 5/47/10
f 5/47/10 46/79/10 33/45/10
f 33/45/10 20/1/10 6/46/10
f 44/79/11 1/47/11 37/48/11
f 37/48/11 2/46/11 18/2/11
f 18/2/11 14/1/11 4/49/11
f 4/49/11 30/45/11 3/50/11
f 3/50/11 44/79/11 37/48/11
f 37/48/11 18/2/11 4/49/11
