# Blender 4.1.1
# www.blender.org
mtllib porte_classe_basique.mtl
o Cube.010
v -12.361601 -0.001504 -43.179813
v -12.361601 4.887979 -43.179813
v -12.361601 -0.001504 -46.135120
v -12.361601 4.887979 -46.135120
v -12.199390 -0.001504 -43.179813
v -12.199390 4.887979 -43.179813
v -12.199390 -0.001504 -46.135120
v -12.199390 4.887979 -46.135120
v -12.390972 2.150002 -45.965565
v -12.390972 2.835954 -45.965565
v -12.390972 2.150002 -46.104431
v -12.390972 2.835954 -46.104431
v -12.355808 2.150002 -45.965565
v -12.355808 2.835954 -45.965565
v -12.355808 2.150002 -46.104431
v -12.355808 2.835954 -46.104431
v -12.391646 2.615128 -46.064125
v -12.391646 2.549800 -46.064125
v -12.651958 2.615128 -46.064125
v -12.651958 2.549800 -46.064125
v -12.391646 2.615128 -46.005871
v -12.391646 2.549800 -46.005871
v -12.651958 2.615128 -46.005871
v -12.651958 2.549800 -46.005871
v -12.591857 2.615128 -46.064125
v -12.591857 2.549800 -46.064125
v -12.591857 2.615128 -46.005871
v -12.591857 2.549800 -46.005871
v -12.651958 2.549800 -45.656311
v -12.651958 2.615128 -45.656311
v -12.591857 2.615128 -45.656311
v -12.591857 2.549800 -45.656311
vn -1.0000 -0.0000 -0.0000
vn -0.0000 -0.0000 -1.0000
vn 1.0000 -0.0000 -0.0000
vn -0.0000 -0.0000 1.0000
vn -0.0000 -1.0000 -0.0000
vn -0.0000 1.0000 -0.0000
vt 0.625000 0.000000
vt 0.375000 0.250000
vt 0.375000 0.000000
vt 0.625000 0.250000
vt 0.375000 0.500000
vt 0.625000 0.500000
vt 0.375000 0.750000
vt 0.625000 0.750000
vt 0.375000 1.000000
vt 0.125000 0.750000
vt 0.125000 0.500000
vt 0.875000 0.500000
vt 1.236050 0.533068
vt 1.466932 0.466932
vt 1.236050 0.466932
vt 0.466932 0.533068
vt 0.533068 0.466932
vt 0.466932 0.466932
vt 0.466932 0.466932
vt 0.533068 0.533068
vt 0.533068 1.236050
vt 0.466932 1.236050
vt 0.466932 1.466932
vt 0.533068 1.466932
vt 0.929911 1.466932
vt 0.929911 1.236050
vt 0.466932 0.533068
vt 1.466932 0.533068
vt 0.929911 0.533068
vt 0.929911 0.466932
vt 0.625000 1.000000
vt 0.875000 0.750000
s 0
usemtl Procedural_pearl_red_painted_plastic
f 2/1/1 3/2/1 1/3/1
f 4/4/2 7/5/2 3/2/2
f 8/6/3 5/7/3 7/5/3
f 6/8/4 1/9/4 5/7/4
f 7/5/5 1/10/5 3/11/5
f 4/12/6 6/8/6 8/6/6
f 2/1/1 4/4/1 3/2/1
f 4/4/2 8/6/2 7/5/2
f 8/6/3 6/8/3 5/7/3
f 6/8/4 2/31/4 1/9/4
f 7/5/5 5/7/5 1/10/5
f 4/12/6 2/32/6 6/8/6
usemtl plastic_gris
f 10/1/1 11/2/1 9/3/1
f 12/4/2 15/5/2 11/2/2
f 16/6/3 13/7/3 15/5/3
f 14/8/4 9/9/4 13/7/4
f 15/5/5 9/10/5 11/11/5
f 12/12/6 14/8/6 16/6/6
f 26/13/2 19/14/2 25/15/2
f 20/16/1 23/17/1 19/18/1
f 28/13/4 21/19/4 27/15/4
f 22/20/3 17/19/3 21/17/3
f 27/21/6 17/19/6 25/22/6
f 26/22/5 22/17/5 28/21/5
f 20/23/5 28/21/5 24/24/5
f 23/24/6 25/22/6 19/23/6
f 27/21/6 30/25/6 31/26/6
f 18/27/2 25/15/2 17/19/2
f 29/28/4 31/15/4 30/14/4
f 27/17/3 32/29/3 28/20/3
f 24/20/1 30/30/1 23/17/1
f 28/21/5 29/25/5 24/24/5
f 10/1/1 12/4/1 11/2/1
f 12/4/2 16/6/2 15/5/2
f 16/6/3 14/8/3 13/7/3
f 14/8/4 10/31/4 9/9/4
f 15/5/5 13/7/5 9/10/5
f 12/12/6 10/32/6 14/8/6
f 26/13/2 20/28/2 19/14/2
f 20/16/1 24/20/1 23/17/1
f 28/13/4 22/27/4 21/19/4
f 22/20/3 18/27/3 17/19/3
f 27/21/6 21/17/6 17/19/6
f 26/22/5 18/19/5 22/17/5
f 20/23/5 26/22/5 28/21/5
f 23/24/6 27/21/6 25/22/6
f 27/21/6 23/24/6 30/25/6
f 18/27/2 26/13/2 25/15/2
f 29/28/4 32/13/4 31/15/4
f 27/17/3 31/30/3 32/29/3
f 24/20/1 29/29/1 30/30/1
f 28/21/5 32/26/5 29/25/5
