# Blender 4.1.1
# www.blender.org
mtllib salle_secrete1.mtl
o salle_secret1
v -88.873589 1.338801 -55.115898
v -88.873589 1.338801 -54.493225
v -88.250916 1.338801 -55.115898
v -88.250916 1.338801 -54.493225
v -88.250916 1.344467 -55.115898
v -88.873589 1.344467 -55.115898
v -88.873589 1.344467 -54.493225
v -88.250916 1.344467 -54.493225
v -88.580704 1.343443 -54.861984
v -88.567520 1.739950 -54.861984
v -88.543793 1.343443 -54.861984
v -88.541267 1.709230 -54.861984
v -88.580704 1.343443 -54.747139
v -88.567520 1.739950 -54.747139
v -88.543793 1.343443 -54.747139
v -88.541267 1.709230 -54.747139
v -88.544052 1.604885 -54.270439
v -88.544052 2.299496 -54.270439
v -88.519394 1.634165 -54.299721
v -88.519394 2.270216 -54.299721
v -88.544052 1.604885 -55.338684
v -88.544052 2.299496 -55.338684
v -88.519394 1.634165 -55.309402
v -88.519394 2.270216 -55.309402
v -88.540688 1.747266 -54.861984
v -88.539787 1.710367 -54.861984
v -88.539787 1.710367 -54.747139
v -88.540688 1.747266 -54.747139
v -88.519394 2.299496 -54.270439
v -88.519394 1.604885 -54.270439
v -88.519394 1.604885 -55.338684
v -88.519394 2.299496 -55.338684
v -88.536911 2.270216 -54.299721
v -88.536911 1.634165 -54.299721
v -88.536911 1.634165 -55.309402
v -88.536911 2.270216 -55.309402
v -82.936867 -0.014914 -48.144001
v -82.829933 -0.014914 -53.247490
v -95.148796 -0.014914 -48.144001
v -82.936867 21.067432 -48.144047
v -95.148796 21.067432 -48.144047
v -82.936867 21.067432 -61.458839
v -82.936867 -0.014914 -61.458794
v -82.829933 -0.014914 -56.355339
v -95.148796 -0.014914 -61.458794
v -95.148796 21.067432 -61.458836
v -95.648796 -0.014914 -48.144001
v -95.648796 21.067432 -48.144047
v -95.648796 -0.014914 -61.458794
v -95.648796 21.067432 -61.458836
v -82.936867 21.067429 -61.958839
v -82.936867 -0.014915 -61.958794
v -95.148796 -0.014915 -61.958794
v -95.148796 21.067429 -61.958836
v -82.936867 21.067432 -47.644047
v -82.936867 -0.014913 -47.644001
v -95.148796 -0.014913 -47.644001
v -95.148796 21.067432 -47.644047
v -82.436867 21.067432 -48.144047
v -82.436867 -0.014914 -48.144001
v -82.436867 21.067432 -61.458836
v -82.436867 -0.014914 -61.458794
v -82.436867 -0.014914 -53.247490
v -82.436867 5.440737 -53.247501
v -82.436867 5.440737 -56.355350
v -82.436867 -0.014914 -56.355339
v -80.424606 -0.014914 -53.247490
v -80.424606 -0.014914 -56.355339
v -79.961205 -0.014914 -53.247490
v -79.961205 5.440737 -53.247501
v -79.961212 5.440737 -56.355350
v -79.961212 -0.014914 -56.355339
v -88.578270 -0.021163 -54.544197
v -88.974907 1.328342 -54.122761
v -88.578270 -0.021163 -55.058601
v -88.974907 1.328342 -55.480038
v -88.094139 -0.021163 -54.544197
v -87.697502 1.328342 -54.122761
v -88.094139 -0.021163 -55.058601
v -87.697502 1.328342 -55.480038
v -88.668251 0.248738 -54.448589
v -88.492500 0.518639 -54.635334
v -88.668251 0.788540 -54.448589
v -88.524841 1.058441 -54.600971
v -88.524841 1.058441 -55.001827
v -88.668251 0.788540 -55.154209
v -88.492500 0.518639 -54.967464
v -88.668251 0.248738 -55.154209
v -88.147568 1.058441 -55.001827
v -88.004158 0.788540 -55.154209
v -88.179909 0.518639 -54.967464
v -88.004158 0.248738 -55.154209
v -88.147568 1.058441 -54.600971
v -88.004158 0.788540 -54.448589
v -88.179909 0.518639 -54.635334
v -88.004158 0.248738 -54.448589
v -87.884102 1.330742 -54.408794
v -87.884102 1.349825 -54.408794
v -88.134392 1.330742 -54.408794
v -88.134392 1.349825 -54.408794
v -87.884102 1.330742 -55.196911
v -87.884102 1.349825 -55.196911
v -88.134392 1.330742 -55.196911
v -88.134392 1.349825 -55.196911
vn 0.5773 -0.5774 -0.5773
vn -0.5773 -0.5774 0.5773
vn -0.5773 -0.5773 -0.5774
vn -0.5773 0.5774 0.5773
vn 0.5773 0.5774 -0.5773
vn -0.5774 0.5773 -0.5773
vn 0.5774 0.5773 0.5773
vn 0.5773 -0.5773 0.5774
vn -0.5877 -0.5685 -0.5756
vn 0.5120 -0.2545 -0.8204
vn 0.5752 -0.5792 -0.5777
vn 0.5752 -0.5791 0.5777
vn 0.5120 -0.2545 0.8204
vn -0.5877 -0.5685 0.5756
vn -0.6307 0.4985 0.5948
vn 0.7094 -0.3389 0.6180
vn 0.4925 0.6614 0.5657
vn 0.5774 -0.5773 0.5773
vn -0.5773 0.5773 0.5774
vn -0.5774 -0.5774 0.5773
vn 0.5774 0.5774 0.5773
vn 0.9045 0.3015 -0.3015
vn 0.9045 0.3015 0.3015
vn 0.5774 0.5773 -0.5773
vn 0.5774 -0.5773 -0.5773
vn -0.5774 0.5774 -0.5773
vn 0.7094 -0.3390 -0.6180
vn -0.6307 0.4985 -0.5948
vn 0.4925 0.6614 -0.5657
vn 0.9045 -0.3015 -0.3015
vn 0.9045 -0.3015 0.3015
vn 0.5774 -0.5774 -0.5773
vn 0.5773 0.5773 -0.5774
vn -0.0000 -1.0000 -0.0000
vn -0.0000 1.0000 -0.0000
vn 1.0000 -0.0000 -0.0000
vn -0.0000 -0.0000 1.0000
vn -0.0000 -0.0000 -1.0000
vn -1.0000 -0.0000 -0.0000
vn -0.6498 -0.4372 0.6218
vn -0.6944 0.1421 -0.7054
vn -0.6498 -0.4372 -0.6218
vn 0.6498 -0.4372 -0.6218
vn 0.6944 0.1419 -0.7055
vn 0.6498 -0.4372 0.6218
vn 0.6944 0.1420 0.7054
vn 0.4775 -0.7427 -0.4695
vn -0.4775 -0.7427 0.4695
vn -0.4775 -0.7427 -0.4695
vn 0.4775 -0.7427 0.4695
vn -0.6978 0.1245 0.7054
vn 0.7194 -0.0000 0.6946
vn 0.6978 0.1245 0.7054
vn 0.7021 -0.0398 0.7109
vn -0.7194 -0.0000 0.6946
vn -0.7021 -0.0398 0.7109
vn 0.7194 -0.0000 -0.6946
vn 0.6978 0.1245 -0.7054
vn 0.7021 -0.0398 -0.7109
vn -0.6978 0.1245 -0.7054
vn -0.7194 -0.0000 -0.6946
vn -0.7021 -0.0398 -0.7109
vn -0.6944 0.1418 0.7055
vt 0.526534 0.258001
vt 0.566084 0.281478
vt 0.566084 0.258001
vt 0.525411 0.256167
vt 0.564961 0.256381
vt 0.564961 0.256167
vt 0.525411 0.256381
vt 0.526534 0.256167
vt 0.566084 0.256381
vt 0.566084 0.256167
vt 0.526534 0.256381
vt 0.547481 0.256342
vt 0.544976 0.270134
vt 0.545136 0.256342
vt 0.541538 0.270134
vt 0.548833 0.256342
vt 0.541538 0.256342
vt 0.548833 0.271292
vt 0.545136 0.271904
vt 0.547481 0.267574
vt 0.545136 0.267574
vt 0.546643 0.271292
vt 0.544882 0.270177
vt 0.544939 0.271568
vt 0.543587 0.266200
vt 0.545153 0.292389
vt 0.545153 0.266200
vt 0.544699 0.250705
vt 0.543587 0.288773
vt 0.543587 0.250705
vt 0.543587 0.292389
vt 0.579111 0.266200
vt 0.511260 0.292389
vt 0.511260 0.266200
vt 0.545153 0.289877
vt 0.543587 0.249601
vt 0.543587 0.289877
vt 0.545153 0.249601
vt 0.541538 0.270177
vt 0.548833 0.271568
vt 0.548833 0.270177
vt 0.546643 0.271904
vt 0.544939 0.267574
vt 0.546643 0.267574
vt 0.544976 0.267574
vt 0.544882 0.271904
vt 0.544976 0.271904
vt 0.579111 0.292389
vt 0.577251 0.267304
vt 0.577251 0.291285
vt 0.513120 0.267304
vt 0.513120 0.291285
vt 0.544699 0.288773
vt 0.544699 0.267304
vt 0.543587 0.291285
vt 0.543587 0.267304
vt 0.544699 0.291285
vt 0.189004 0.539714
vt 0.964664 0.520862
vt 0.189004 0.520862
vt 0.189004 0.000002
vt 0.964663 0.018853
vt 0.189004 0.018853
vt 0.964663 0.018852
vt 0.964664 0.520864
vt 0.189004 0.520864
vt 0.996422 0.018853
vt 0.157245 0.018852
vt 0.189004 0.018852
vt 0.122532 0.205128
vt 0.968239 1.000000
vt 0.968241 0.205128
vt 0.996422 1.000000
vt 0.964663 0.205128
vt 0.964663 1.000000
vt 0.996422 0.205128
vt 0.964664 1.000000
vt 0.964664 0.205128
vt 0.996422 0.520862
vt 0.189004 1.000000
vt 0.964663 0.205128
vt 0.189004 0.205128
vt 0.090771 1.000000
vt 0.122529 1.000000
vt 0.090771 1.000000
vt 0.122532 0.205128
vt 0.122529 1.000000
vt 0.964663 0.000000
vt 0.189004 1.000000
vt 0.189004 0.205128
vt 0.189004 0.539715
vt 0.999997 1.000000
vt 0.968242 0.205128
vt 0.999997 1.000000
vt 0.968239 1.000000
vt 0.644085 0.410824
vt 0.968242 0.205128
vt 0.122529 1.000000
vt 0.157245 0.205128
vt 0.189004 1.000000
vt 0.189004 0.205128
vt 0.157246 1.000000
vt 0.189004 0.205128
vt 0.189004 1.000000
vt 0.182211 0.211270
vt 0.157245 0.328446
vt 0.157245 0.211270
vt 0.029433 0.211270
vt 0.000000 0.205128
vt 0.157245 0.410824
vt 0.157245 0.205128
vt 0.157245 0.211270
vt 0.000000 0.328446
vt 0.157245 0.328445
vt 0.000000 0.410824
vt 0.157245 0.205128
vt 0.157245 0.410824
vt 0.543932 0.277415
vt 0.572519 0.244272
vt 0.543932 0.262302
vt 0.519970 0.262302
vt 0.491383 0.244272
vt 0.519970 0.277415
vt 0.491383 0.295445
vt 0.516576 0.260161
vt 0.547326 0.279556
vt 0.547326 0.260161
vt 0.516576 0.204892
vt 0.553041 0.215069
vt 0.547326 0.204892
vt 0.522024 0.225245
vt 0.510861 0.215069
vt 0.510861 0.235421
vt 0.541878 0.225245
vt 0.519970 0.245597
vt 0.553041 0.235421
vt 0.529050 0.204892
vt 0.567796 0.215069
vt 0.561723 0.204892
vt 0.534839 0.225245
vt 0.522977 0.215069
vt 0.522977 0.235421
vt 0.555935 0.225245
vt 0.532656 0.245597
vt 0.567796 0.235421
vt 0.558117 0.245597
vt 0.503235 0.256583
vt 0.519133 0.255864
vt 0.503235 0.255864
vt 0.570324 0.256583
vt 0.520265 0.255864
vt 0.570324 0.255864
vt 0.519133 0.256583
vt 0.520265 0.256583
vt 0.519133 0.254946
vt 0.503235 0.284661
vt 0.519133 0.284661
vt 0.503235 0.254946
vt 0.526534 0.281478
vt 0.548833 0.270134
vt 0.541538 0.271292
vt 0.547481 0.271904
vt 0.541538 0.271568
vt 0.544939 0.271904
vt 0.544882 0.267574
vt 0.964664 0.539714
vt 0.964663 0.000002
vt 0.996422 0.520864
vt 0.157246 0.520862
vt 0.996422 0.205128
vt 0.996422 1.000000
vt 0.996422 0.018852
vt 0.964663 1.000000
vt 0.090774 0.205128
vt 0.090774 0.205128
vt 0.189004 0.000000
vt 0.964664 0.539715
vt 1.000000 0.205128
vt 1.000000 0.205128
vt 0.446686 0.205128
vt 0.446685 0.410824
vt 0.644086 0.205128
vt 0.157245 1.000000
vt 0.157246 0.205128
vt 0.157246 0.520864
vt 0.182211 0.328446
vt 0.157245 0.018853
vt 0.029434 0.328446
vt 0.000000 0.410824
vt 0.000000 0.211270
vt 0.000000 0.205128
vt 0.572519 0.295445
vt 0.516576 0.279556
vt 0.543932 0.245597
vt 0.558117 0.245597
vt 0.532656 0.245597
s 1
usemtl plastic_noir
f 3/1/1 2/2/2 1/3/3
f 7/2/4 5/1/5 6/3/6
f 3/4/1 8/5/7 4/6/8
f 2/6/2 6/7/6 1/4/3
f 4/8/8 7/9/4 2/10/2
f 1/10/3 5/11/5 3/8/1
f 9/12/9 12/13/10 11/14/11
f 12/15/10 15/16/12 11/17/11
f 16/13/13 13/12/14 15/14/12
f 14/18/15 9/17/9 13/16/14
f 15/19/12 9/20/9 11/21/11
f 14/22/15 27/23/16 28/24/17
f 30/25/18 18/26/19 17/27/20
f 35/28/21 19/29/22 23/30/23
f 21/27/3 32/31/24 31/25/25
f 17/32/20 22/33/26 21/34/3
f 17/35/20 31/36/25 30/37/18
f 22/38/26 29/37/7 32/36/24
f 26/39/27 28/40/17 27/41/16
f 10/22/28 26/23/27 12/13/10
f 14/42/15 25/43/29 10/44/28
f 12/45/10 27/46/16 16/47/13
f 29/48/7 19/49/22 20/50/30
f 30/32/18 23/51/23 19/49/22
f 32/33/24 20/50/30 24/52/31
f 31/34/25 24/52/31 23/51/23
f 35/51/21 33/50/32 34/49/33
f 33/53/32 24/30/31 20/29/30
f 34/54/33 20/55/30 19/56/22
f 36/57/8 23/56/23 24/55/31
s 0
f 98/147/37 99/148/37 97/149/37
f 100/150/39 103/151/39 99/152/39
f 104/153/38 101/149/38 103/148/38
f 102/154/36 97/152/36 101/151/36
f 103/155/34 97/156/34 99/157/34
f 100/157/35 102/158/35 104/155/35
s 1
f 3/1/1 4/159/8 2/2/2
f 7/2/4 8/159/7 5/1/5
f 3/4/1 5/7/5 8/5/7
f 2/6/2 7/5/4 6/7/6
f 4/8/8 8/11/7 7/9/4
f 1/10/3 6/9/6 5/11/5
f 9/12/9 10/22/28 12/13/10
f 12/15/10 16/160/13 15/16/12
f 16/13/13 14/22/15 13/12/14
f 14/18/15 10/161/28 9/17/9
f 15/19/12 13/162/14 9/20/9
f 14/22/15 16/13/13 27/23/16
f 30/25/18 29/31/7 18/26/19
f 35/28/21 34/53/33 19/29/22
f 21/27/3 22/26/26 32/31/24
f 17/32/20 18/48/19 22/33/26
f 17/35/20 21/38/3 31/36/25
f 22/38/26 18/35/19 29/37/7
f 26/39/27 25/163/29 28/40/17
f 10/22/28 25/24/29 26/23/27
f 14/42/15 28/164/17 25/43/29
f 12/45/10 26/165/27 27/46/16
f 29/48/7 30/32/18 19/49/22
f 30/32/18 31/34/25 23/51/23
f 32/33/24 29/48/7 20/50/30
f 31/34/25 32/33/24 24/52/31
f 35/51/21 36/52/8 33/50/32
f 33/53/32 36/28/8 24/30/31
f 34/54/33 33/57/32 20/55/30
f 36/57/8 35/54/21 23/56/23
s 0
f 98/147/37 100/153/37 99/148/37
f 100/150/39 104/154/39 103/151/39
f 104/153/38 102/147/38 101/149/38
f 102/154/36 98/150/36 97/152/36
f 103/155/34 101/158/34 97/156/34
f 100/157/35 98/156/35 102/158/35
usemtl texture_porte
f 55/58/34 41/59/34 40/60/34
f 52/61/35 45/62/35 43/63/35
f 46/64/34 40/60/34 41/59/34
f 43/63/35 39/65/35 37/66/35
f 49/67/35 39/65/35 45/62/35
f 61/68/34 40/60/34 42/69/34
f 49/70/36 48/71/36 47/72/36
f 50/73/37 45/74/37 46/75/37
f 47/76/38 41/77/38 39/78/38
f 48/79/34 46/64/34 41/59/34
f 51/80/37 53/81/37 52/82/37
f 45/70/36 54/83/36 46/84/36
f 51/85/39 43/86/39 42/87/39
f 54/88/34 42/69/34 46/64/34
f 57/78/38 55/89/38 56/90/38
f 39/65/35 56/91/35 37/66/35
f 58/92/36 39/72/36 41/71/36
f 37/93/39 55/94/39 40/95/39
f 64/96/39 60/97/39 61/98/39
f 62/99/37 42/100/37 43/101/37
f 59/102/38 37/103/38 40/104/38
f 44/105/35 43/63/35 37/66/35
f 44/105/35 63/106/35 66/107/35
f 63/106/35 68/108/35 66/107/35
f 72/109/37 65/110/37 66/111/37
f 65/112/34 70/113/34 64/114/34
f 70/115/38 63/116/38 64/117/38
f 55/58/34 58/166/34 41/59/34
f 52/61/35 53/167/35 45/62/35
f 46/64/34 42/69/34 40/60/34
f 43/63/35 45/62/35 39/65/35
f 49/67/35 47/168/35 39/65/35
f 61/68/34 59/169/34 40/60/34
f 49/70/36 50/84/36 48/71/36
f 50/73/37 49/170/37 45/74/37
f 47/76/38 48/171/38 41/77/38
f 48/79/34 50/172/34 46/64/34
f 51/80/37 54/173/37 53/81/37
f 45/70/36 53/174/36 54/83/36
f 51/85/39 52/175/39 43/86/39
f 54/88/34 51/176/34 42/69/34
f 57/78/38 58/77/38 55/89/38
f 39/65/35 57/177/35 56/91/35
f 58/92/36 57/178/36 39/72/36
f 37/93/39 56/179/39 55/94/39
f 61/98/39 62/86/39 66/180/39
f 61/98/39 66/180/39 65/181/39
f 60/97/39 59/95/39 61/98/39
f 64/96/39 63/182/39 60/97/39
f 61/98/39 65/181/39 64/96/39
f 62/99/37 61/183/37 42/100/37
f 59/102/38 60/184/38 37/103/38
f 37/66/35 60/185/35 63/106/35
f 37/66/35 63/106/35 38/186/35
f 66/107/35 62/187/35 43/63/35
f 37/66/35 38/186/35 44/105/35
f 44/105/35 66/107/35 43/63/35
f 44/105/35 38/186/35 63/106/35
f 63/106/35 67/188/35 68/108/35
f 72/109/37 71/189/37 65/110/37
f 65/112/34 71/190/34 70/113/34
f 70/115/38 69/191/38 63/116/38
s 1
usemtl Dark_metal
f 84/118/40 76/119/41 85/120/42
f 76/119/41 89/121/43 85/120/42
f 80/122/44 93/123/45 89/121/43
f 78/124/46 84/118/40 93/123/45
f 79/125/47 73/126/48 75/127/49
f 76/119/41 78/124/46 80/122/44
f 77/128/50 81/129/51 73/130/48
f 95/131/52 81/129/51 96/132/53
f 94/133/54 82/134/55 95/131/52
f 93/135/45 83/136/56 94/133/54
f 79/137/47 96/138/53 77/139/50
f 91/140/57 96/138/53 92/141/58
f 90/142/59 95/143/52 91/140/57
f 89/144/43 94/145/54 90/142/59
f 88/129/60 79/128/47 75/130/49
f 87/134/61 92/132/58 88/129/60
f 86/136/62 91/131/57 87/134/61
f 86/136/62 89/135/43 90/133/59
f 73/139/48 88/141/60 75/137/49
f 81/138/51 87/140/61 88/141/60
f 83/145/56 87/140/61 82/143/55
f 84/146/40 86/142/62 83/145/56
f 84/118/40 74/192/63 76/119/41
f 76/119/41 80/122/44 89/121/43
f 80/122/44 78/124/46 93/123/45
f 78/124/46 74/192/63 84/118/40
f 79/125/47 77/193/50 73/126/48
f 76/119/41 74/192/63 78/124/46
f 77/128/50 96/132/53 81/129/51
f 95/131/52 82/134/55 81/129/51
f 94/133/54 83/136/56 82/134/55
f 93/135/45 84/194/40 83/136/56
f 79/137/47 92/141/58 96/138/53
f 91/140/57 95/143/52 96/138/53
f 90/142/59 94/145/54 95/143/52
f 89/144/43 93/195/45 94/145/54
f 88/129/60 92/132/58 79/128/47
f 87/134/61 91/131/57 92/132/58
f 86/136/62 90/133/59 91/131/57
f 86/136/62 85/194/42 89/135/43
f 73/139/48 81/138/51 88/141/60
f 81/138/51 82/143/55 87/140/61
f 83/145/56 86/142/62 87/140/61
f 84/146/40 85/196/42 86/142/62
