# Blender 4.1.1
# www.blender.org
mtllib salle_secrete2.mtl
o salle_secret2
v -52.986019 -3.944182 61.823944
v -33.191158 -3.944182 61.823944
v -52.986019 -3.944182 42.196861
v -33.191158 -3.944182 42.196861
v -52.986019 19.471970 42.196861
v -52.986019 19.471970 61.823944
v -33.191158 19.471970 61.823944
v -33.191158 19.471970 42.196861
v -52.820213 -3.943657 53.055283
v -52.820213 -3.943657 50.965538
v -52.994087 -3.944182 53.055515
v -52.994087 -3.944182 50.965305
v -52.986019 -3.944182 53.061508
v -52.986019 -3.944182 50.959312
v -52.986019 -1.022266 53.061508
v -52.986019 -1.022266 50.959312
v -79.844101 -5.936268 53.912975
v -79.844101 -1.025533 53.912975
v -79.844101 -5.936268 23.729742
v -79.844101 -1.025533 23.729742
v -76.700165 -5.936268 53.912975
v -76.700165 -1.025533 53.912975
v -76.700165 -5.936268 23.729742
v -76.700165 -1.025533 23.729742
v -79.844101 -5.936268 50.053276
v -79.844101 -1.025533 50.053276
v -76.700165 -5.936268 50.053276
v -76.700165 -1.025533 50.053276
v -53.136318 -1.022243 50.938259
v -53.136318 -1.022243 53.028004
v -53.136318 -3.943657 53.028004
v -53.136318 -3.943657 50.938259
vn -0.0000 -1.0000 -0.0000
vn -0.0000 1.0000 -0.0000
vn 1.0000 -0.0000 -0.0000
vn -1.0000 -0.0000 -0.0000
vn -0.0000 -0.0000 -1.0000
vn -0.0000 -0.0000 1.0000
vn -0.0030 1.0000 -0.0000
vn -0.0375 -0.0000 0.9993
vn -0.0843 0.9964 -0.0000
vn 0.0001 -1.0000 -0.0000
vn -0.0375 -0.0000 -0.9993
vt 1.302645 0.919093
vt 0.457294 0.455112
vt 0.456950 0.544631
vt 1.302645 0.080907
vt 0.457294 0.919093
vt 0.457294 0.080907
vt 0.919093 0.500000
vt 0.080907 1.500000
vt 0.080907 0.500000
vt 0.919093 1.500000
vt 0.544887 0.624782
vt 0.455112 0.624782
vt 0.457294 0.500000
vt 1.302645 1.500000
vt 1.302645 0.500000
vt 0.457294 1.500000
vt 0.464375 0.544622
vt 0.456950 0.455368
vt 0.464375 0.455378
vt 1.436062 0.458269
vt 0.563938 0.541731
vt 0.563938 0.458269
vt 0.003366 0.563938
vt -0.062896 1.436062
vt 0.003366 1.436062
vt 0.500000 0.491738
vt 0.003366 0.541731
vt 0.003366 0.458269
vt -0.062896 0.458269
vt -0.062896 0.436062
vt -0.062896 0.563938
vt 0.003366 0.436062
vt 1.436062 0.541731
vt 0.436062 0.541731
vt 0.436062 0.458269
vt 0.500000 0.511521
vt 0.457294 0.544887
vt 0.455112 0.500000
vt 0.544887 0.500000
vt 0.500000 0.508262
vt -0.062896 0.541731
vt 0.500000 0.488479
s 0
usemtl Dark_metal
f 4/1/1 13/2/1 12/3/1
f 7/4/2 5/5/2 6/6/2
f 4/7/3 7/8/3 2/9/3
f 5/10/4 16/11/4 15/12/4
f 3/13/5 8/14/5 4/15/5
f 2/15/6 6/16/6 1/13/6
f 10/17/7 11/18/7 9/19/7
f 19/20/3 26/21/3 25/22/3
f 28/23/1 20/24/1 24/25/1
f 32/26/8 28/27/8 27/28/8
f 17/29/5 22/27/5 21/28/5
f 17/30/2 27/23/2 25/31/2
f 22/32/1 26/31/1 28/23/1
f 25/31/2 23/25/2 19/24/2
f 27/22/4 24/33/4 23/20/4
f 25/22/3 18/34/3 17/35/3
f 21/32/9 32/36/9 27/23/9
f 29/36/10 22/32/10 28/23/10
f 22/27/11 31/26/11 21/28/11
f 14/37/1 3/5/1 4/1/1
f 4/1/1 2/4/1 1/6/1
f 13/2/1 11/18/1 12/3/1
f 4/1/1 1/6/1 13/2/1
f 12/3/1 14/37/1 4/1/1
f 7/4/2 8/1/2 5/5/2
f 4/7/3 8/10/3 7/8/3
f 15/12/4 13/38/4 1/9/4
f 1/9/4 6/8/4 5/10/4
f 5/10/4 3/7/4 14/39/4
f 5/10/4 14/39/4 16/11/4
f 15/12/4 1/9/4 5/10/4
f 3/13/5 5/16/5 8/14/5
f 2/15/6 7/14/6 6/16/6
f 10/17/7 12/3/7 11/18/7
f 19/20/3 20/33/3 26/21/3
f 28/23/1 26/31/1 20/24/1
f 32/26/8 29/40/8 28/27/8
f 17/29/5 18/41/5 22/27/5
f 17/30/2 21/32/2 27/23/2
f 22/32/1 18/30/1 26/31/1
f 25/31/2 27/23/2 23/25/2
f 27/22/4 28/21/4 24/33/4
f 25/22/3 26/21/3 18/34/3
f 21/32/9 31/42/9 32/36/9
f 29/36/10 30/42/10 22/32/10
f 22/27/11 30/40/11 31/26/11
