# Blender 4.1.1
# www.blender.org
mtllib salle_secrete1.mtl
o salle_secret1
v -88.873589 1.338801 -55.115898
v -88.873589 1.338801 -54.493225
v -88.250916 1.338801 -55.115898
v -88.250916 1.338801 -54.493225
v -88.250916 1.344467 -55.115898
v -88.873589 1.344467 -55.115898
v -88.873589 1.344467 -54.493225
v -88.250916 1.344467 -54.493225
v -88.580704 1.343443 -54.861984
v -88.567520 1.739950 -54.861984
v -88.543793 1.343443 -54.861984
v -88.541267 1.709230 -54.861984
v -88.580704 1.343443 -54.747139
v -88.567520 1.739950 -54.747139
v -88.543793 1.343443 -54.747139
v -88.541267 1.709230 -54.747139
v -88.544052 1.604885 -54.270439
v -88.544052 2.299496 -54.270439
v -88.519394 1.634165 -54.299721
v -88.519394 2.270216 -54.299721
v -88.544052 1.604885 -55.338684
v -88.544052 2.299496 -55.338684
v -88.519394 1.634165 -55.309402
v -88.519394 2.270216 -55.309402
v -88.540688 1.747266 -54.861984
v -88.539787 1.710367 -54.861984
v -88.539787 1.710367 -54.747139
v -88.540688 1.747266 -54.747139
v -88.519394 2.299496 -54.270439
v -88.519394 1.604885 -54.270439
v -88.519394 1.604885 -55.338684
v -88.519394 2.299496 -55.338684
v -88.536911 2.270216 -54.299721
v -88.536911 1.634165 -54.299721
v -88.536911 1.634165 -55.309402
v -88.536911 2.270216 -55.309402
v -82.936867 -0.014914 -48.144001
v -82.829933 -0.014914 -53.247490
v -95.148796 -0.014914 -48.144001
v -82.936867 21.067432 -48.144047
v -95.148796 21.067432 -48.144047
v -82.936867 21.067432 -61.458839
v -82.936867 -0.014914 -61.458794
v -82.829933 -0.014914 -56.355339
v -95.148796 -0.014914 -61.458794
v -95.148796 21.067432 -61.458836
v -95.648796 -0.014914 -48.144001
v -95.648796 21.067432 -48.144047
v -95.648796 -0.014914 -61.458794
v -95.648796 21.067432 -61.458836
v -82.936867 21.067429 -61.958839
v -82.936867 -0.014915 -61.958794
v -95.148796 -0.014915 -61.958794
v -95.148796 21.067429 -61.958836
v -82.936867 21.067432 -47.644047
v -82.936867 -0.014913 -47.644001
v -95.148796 -0.014913 -47.644001
v -95.148796 21.067432 -47.644047
v -82.436867 21.067432 -48.144047
v -82.436867 -0.014914 -48.144001
v -82.436867 21.067432 -61.458836
v -82.436867 -0.014914 -61.458794
v -82.436867 -0.014914 -53.247490
v -82.436867 5.440737 -53.247501
v -82.436867 5.440737 -56.355350
v -82.436867 -0.014914 -56.355339
v -80.424606 -0.014914 -53.247490
v -80.424606 -0.014914 -56.355339
v -79.961205 -0.014914 -53.247490
v -79.961205 5.440737 -53.247501
v -79.961212 5.440737 -56.355350
v -79.961212 -0.014914 -56.355339
v -88.578270 -0.021163 -54.544197
v -88.974907 1.328342 -54.122761
v -88.578270 -0.021163 -55.058601
v -88.974907 1.328342 -55.480038
v -88.094139 -0.021163 -54.544197
v -87.697502 1.328342 -54.122761
v -88.094139 -0.021163 -55.058601
v -87.697502 1.328342 -55.480038
v -88.668251 0.248738 -54.448589
v -88.492500 0.518639 -54.635334
v -88.668251 0.788540 -54.448589
v -88.524841 1.058441 -54.600971
v -88.524841 1.058441 -55.001827
v -88.668251 0.788540 -55.154209
v -88.492500 0.518639 -54.967464
v -88.668251 0.248738 -55.154209
v -88.147568 1.058441 -55.001827
v -88.004158 0.788540 -55.154209
v -88.179909 0.518639 -54.967464
v -88.004158 0.248738 -55.154209
v -88.147568 1.058441 -54.600971
v -88.004158 0.788540 -54.448589
v -88.179909 0.518639 -54.635334
v -88.004158 0.248738 -54.448589
v -87.884102 1.330742 -54.408794
v -87.884102 1.349825 -54.408794
v -88.134392 1.330742 -54.408794
v -88.134392 1.349825 -54.408794
v -87.884102 1.330742 -55.196911
v -87.884102 1.349825 -55.196911
v -88.134392 1.330742 -55.196911
v -88.134392 1.349825 -55.196911
vn 0.5773 -0.5774 -0.5773
vn -0.5773 -0.5774 0.5773
vn -0.5773 -0.5773 -0.5774
vn -0.5773 0.5774 0.5773
vn 0.5773 0.5774 -0.5773
vn -0.5774 0.5773 -0.5773
vn 0.5774 0.5773 0.5773
vn 0.5773 -0.5773 0.5774
vn -0.5877 -0.5685 -0.5756
vn 0.5120 -0.2545 -0.8204
vn 0.5752 -0.5792 -0.5777
vn 0.5752 -0.5791 0.5777
vn 0.5120 -0.2545 0.8204
vn -0.5877 -0.5685 0.5756
vn -0.6307 0.4985 0.5948
vn 0.7094 -0.3389 0.6180
vn 0.4925 0.6614 0.5657
vn 0.5774 -0.5773 0.5773
vn -0.5773 0.5773 0.5774
vn -0.5774 -0.5774 0.5773
vn 0.5774 0.5774 0.5773
vn 0.9045 0.3015 -0.3015
vn 0.9045 0.3015 0.3015
vn 0.5774 0.5773 -0.5773
vn 0.5774 -0.5773 -0.5773
vn -0.5774 0.5774 -0.5773
vn 0.7094 -0.3390 -0.6180
vn -0.6307 0.4985 -0.5948
vn 0.4925 0.6614 -0.5657
vn 0.9045 -0.3015 -0.3015
vn 0.9045 -0.3015 0.3015
vn 0.5774 -0.5774 -0.5773
vn 0.5773 0.5773 -0.5774
vn -0.0000 -1.0000 -0.0000
vn -0.0000 1.0000 -0.0000
vn 1.0000 -0.0000 -0.0000
vn -0.0000 -0.0000 1.0000
vn -0.0000 -0.0000 -1.0000
vn -1.0000 -0.0000 -0.0000
vn -0.6498 -0.4372 0.6218
vn -0.6944 0.1421 -0.7054
vn -0.6498 -0.4372 -0.6218
vn 0.6498 -0.4372 -0.6218
vn 0.6944 0.1419 -0.7055
vn 0.6498 -0.4372 0.6218
vn 0.6944 0.1420 0.7054
vn 0.4775 -0.7427 -0.4695
vn -0.4775 -0.7427 0.4695
vn -0.4775 -0.7427 -0.4695
vn 0.4775 -0.7427 0.4695
vn -0.6978 0.1245 0.7054
vn 0.7194 -0.0000 0.6946
vn 0.6978 0.1245 0.7054
vn 0.7021 -0.0398 0.7109
vn -0.7194 -0.0000 0.6946
vn -0.7021 -0.0398 0.7109
vn 0.7194 -0.0000 -0.6946
vn 0.6978 0.1245 -0.7054
vn 0.7021 -0.0398 -0.7109
vn -0.6978 0.1245 -0.7054
vn -0.7194 -0.0000 -0.6946
vn -0.7021 -0.0398 -0.7109
vn -0.6944 0.1418 0.7055
vt 0.424660 0.424660
vt 0.575340 0.575340
vt 0.575340 0.424660
vt 0.424660 0.383762
vt 0.575340 0.385133
vt 0.575340 0.383762
vt 0.424660 0.385133
vt 0.504465 0.384885
vt 0.494922 0.473401
vt 0.495533 0.384885
vt 0.486104 0.473401
vt 0.513896 0.384885
vt 0.486104 0.384885
vt 0.513896 0.480835
vt 0.495533 0.513896
vt 0.504465 0.486104
vt 0.495533 0.486104
vt 0.501275 0.480835
vt 0.494564 0.473676
vt 0.494782 0.482605
vt 0.489629 0.448151
vt 0.495596 0.616238
vt 0.495596 0.448151
vt 0.493868 0.377835
vt 0.489629 0.622165
vt 0.489629 0.377835
vt 0.489629 0.616238
vt 0.629251 0.448151
vt 0.370749 0.616238
vt 0.370749 0.448151
vt 0.495596 0.629251
vt 0.489629 0.370749
vt 0.489629 0.629251
vt 0.495596 0.370749
vt 0.486104 0.473676
vt 0.513896 0.482605
vt 0.513896 0.473676
vt 0.501275 0.513896
vt 0.494782 0.486104
vt 0.501275 0.486104
vt 0.494922 0.486104
vt 0.494564 0.513896
vt 0.494922 0.513896
vt 0.629251 0.616238
vt 0.622165 0.455236
vt 0.622165 0.609153
vt 0.377835 0.455236
vt 0.377835 0.609153
vt 0.493868 0.622165
vt 0.493868 0.455236
vt 0.489629 0.609153
vt 0.489629 0.455236
vt 0.493868 0.609153
vt 0.000000 1.000000
vt 1.000000 1.000000
vt 0.000000 0.000000
vt 1.000000 0.000000
vt 1.977568 1.308983
vt -0.977568 -0.308983
vt 1.977568 -0.308983
vt 0.000000 0.258778
vt 0.352330 0.352330
vt 0.000000 1.000000
vt 0.352330 0.647670
vt 0.647670 0.647670
vt 0.647670 0.352330
vt 0.689499 0.689499
vt 0.310501 0.310501
vt 0.310501 0.689499
vt 0.689499 0.240061
vt 0.240061 0.344037
vt 0.310501 0.240061
vt 0.622352 0.377648
vt 0.240061 0.240061
vt 0.759939 0.240061
vt 0.377648 0.377648
vt 0.310501 0.240061
vt 0.622352 0.622352
vt 0.759939 0.759939
vt 0.377648 0.622352
vt 0.240061 0.759939
vt 0.759939 0.344037
vt 0.530284 0.502309
vt 0.469716 0.497691
vt 0.530284 0.497691
vt 0.404643 0.502309
vt 0.595357 0.497691
vt 0.404643 0.497691
vt 0.469716 0.502309
vt 0.595357 0.502309
vt 0.469716 0.595357
vt 0.530284 0.404643
vt 0.469716 0.404643
vt 0.530284 0.595357
vt 0.424660 0.575340
vt 0.513896 0.473401
vt 0.486104 0.480835
vt 0.504465 0.513896
vt 0.486104 0.482605
vt 0.494782 0.513896
vt 0.494564 0.486104
vt -0.977568 1.308983
vt 0.000000 0.000000
vt 0.689499 0.310501
s 1
usemtl plastic_noir
f 3/1/1 2/2/2 1/3/3
f 7/2/4 5/1/5 6/3/6
f 3/4/1 8/5/7 4/6/8
f 2/6/2 6/7/6 1/4/3
f 4/4/8 7/5/4 2/6/2
f 1/6/3 5/7/5 3/4/1
f 9/8/9 12/9/10 11/10/11
f 12/11/10 15/12/12 11/13/11
f 16/9/13 13/8/14 15/10/12
f 14/14/15 9/13/9 13/12/14
f 15/15/12 9/16/9 11/17/11
f 14/18/15 27/19/16 28/20/17
f 30/21/18 18/22/19 17/23/20
f 35/24/21 19/25/22 23/26/23
f 21/23/3 32/27/24 31/21/25
f 17/28/20 22/29/26 21/30/3
f 17/31/20 31/32/25 30/33/18
f 22/34/26 29/33/7 32/32/24
f 26/35/27 28/36/17 27/37/16
f 10/18/28 26/19/27 12/9/10
f 14/38/15 25/39/29 10/40/28
f 12/41/10 27/42/16 16/43/13
f 29/44/7 19/45/22 20/46/30
f 30/28/18 23/47/23 19/45/22
f 32/29/24 20/46/30 24/48/31
f 31/30/25 24/48/31 23/47/23
f 35/47/21 33/46/32 34/45/33
f 33/49/32 24/26/31 20/25/30
f 34/50/33 20/51/30 19/52/22
f 36/53/8 23/52/23 24/51/31
s 0
f 98/83/37 99/84/37 97/85/37
f 100/86/39 103/87/39 99/88/39
f 104/89/38 101/85/38 103/84/38
f 102/90/36 97/88/36 101/87/36
f 103/91/34 97/92/34 99/93/34
f 100/93/35 102/94/35 104/91/35
s 1
f 3/1/1 4/95/8 2/2/2
f 7/2/4 8/95/7 5/1/5
f 3/4/1 5/7/5 8/5/7
f 2/6/2 7/5/4 6/7/6
f 4/4/8 8/7/7 7/5/4
f 1/6/3 6/5/6 5/7/5
f 9/8/9 10/18/28 12/9/10
f 12/11/10 16/96/13 15/12/12
f 16/9/13 14/18/15 13/8/14
f 14/14/15 10/97/28 9/13/9
f 15/15/12 13/98/14 9/16/9
f 14/18/15 16/9/13 27/19/16
f 30/21/18 29/27/7 18/22/19
f 35/24/21 34/49/33 19/25/22
f 21/23/3 22/22/26 32/27/24
f 17/28/20 18/44/19 22/29/26
f 17/31/20 21/34/3 31/32/25
f 22/34/26 18/31/19 29/33/7
f 26/35/27 25/99/29 28/36/17
f 10/18/28 25/20/29 26/19/27
f 14/38/15 28/100/17 25/39/29
f 12/41/10 26/101/27 27/42/16
f 29/44/7 30/28/18 19/45/22
f 30/28/18 31/30/25 23/47/23
f 32/29/24 29/44/7 20/46/30
f 31/30/25 32/29/24 24/48/31
f 35/47/21 36/48/8 33/46/32
f 33/49/32 36/24/8 24/26/31
f 34/50/33 33/53/32 20/51/30
f 36/53/8 35/50/21 23/52/23
s 0
f 98/83/37 100/89/37 99/84/37
f 100/86/39 104/90/39 103/87/39
f 104/89/38 102/83/38 101/85/38
f 102/90/36 98/86/36 97/88/36
f 103/91/34 101/94/34 97/92/34
f 100/93/35 98/92/35 102/94/35
usemtl texture_porte
f 55/54/34 41/55/34 40/54/34
f 52/56/35 45/57/35 43/56/35
f 46/55/34 40/54/34 41/55/34
f 43/58/35 39/59/35 37/60/35
f 49/57/35 39/57/35 45/57/35
f 61/54/34 40/54/34 42/54/34
f 49/57/36 48/55/36 47/57/36
f 50/55/37 45/57/37 46/55/37
f 47/57/38 41/55/38 39/57/38
f 48/55/34 46/55/34 41/55/34
f 51/54/37 53/57/37 52/56/37
f 45/57/36 54/55/36 46/55/36
f 51/54/39 43/56/39 42/54/39
f 54/55/34 42/54/34 46/55/34
f 57/57/38 55/54/38 56/56/38
f 39/57/35 56/56/35 37/56/35
f 58/55/36 39/57/36 41/55/36
f 37/56/39 55/54/39 40/54/39
f 64/61/39 60/56/39 61/54/39
f 62/56/37 42/54/37 43/56/37
f 59/54/38 37/56/38 40/54/38
f 44/56/35 43/56/35 37/56/35
f 44/56/35 63/56/35 66/56/35
f 63/56/35 68/56/35 66/56/35
f 72/56/37 65/61/37 66/56/37
f 65/61/34 70/61/34 64/61/34
f 70/61/38 63/56/38 64/61/38
f 55/54/34 58/55/34 41/55/34
f 52/56/35 53/57/35 45/57/35
f 46/55/34 42/54/34 40/54/34
f 43/58/35 45/102/35 39/59/35
f 49/57/35 47/57/35 39/57/35
f 61/54/34 59/54/34 40/54/34
f 49/57/36 50/55/36 48/55/36
f 50/55/37 49/57/37 45/57/37
f 47/57/38 48/55/38 41/55/38
f 48/55/34 50/55/34 46/55/34
f 51/54/37 54/55/37 53/57/37
f 45/57/36 53/57/36 54/55/36
f 51/54/39 52/56/39 43/56/39
f 54/55/34 51/54/34 42/54/34
f 57/57/38 58/55/38 55/54/38
f 39/57/35 57/57/35 56/56/35
f 58/55/36 57/57/36 39/57/36
f 37/56/39 56/56/39 55/54/39
f 61/54/39 62/56/39 66/56/39
f 61/54/39 66/56/39 65/61/39
f 60/56/39 59/54/39 61/54/39
f 64/61/39 63/56/39 60/56/39
f 61/54/39 65/61/39 64/61/39
f 62/56/37 61/54/37 42/54/37
f 59/54/38 60/56/38 37/56/38
f 37/56/35 60/56/35 63/56/35
f 37/56/35 63/56/35 38/56/35
f 66/56/35 62/56/35 43/56/35
f 37/56/35 38/56/35 44/56/35
f 44/56/35 66/56/35 43/56/35
f 44/56/35 38/56/35 63/56/35
f 63/56/35 67/56/35 68/56/35
f 72/56/37 71/61/37 65/61/37
f 65/61/34 71/61/34 70/61/34
f 70/61/38 69/56/38 63/56/38
s 1
usemtl Dark_metal
f 84/62/40 76/63/41 85/64/42
f 76/63/41 89/65/43 85/64/42
f 80/55/44 93/66/45 89/65/43
f 78/57/46 84/62/40 93/66/45
f 79/67/47 73/68/48 75/69/49
f 76/63/41 78/57/46 80/55/44
f 77/70/50 81/71/51 73/72/48
f 95/73/52 81/74/51 96/75/53
f 94/75/54 82/76/55 95/73/52
f 93/66/45 83/74/56 94/75/54
f 79/70/47 96/71/53 77/77/50
f 91/78/57 96/75/53 92/79/58
f 90/79/59 95/73/52 91/78/57
f 89/65/43 94/75/54 90/79/59
f 88/71/60 79/70/47 75/72/49
f 87/80/61 92/79/58 88/81/60
f 86/81/62 91/78/57 87/80/61
f 86/81/62 89/65/43 90/79/59
f 73/77/48 88/82/60 75/70/49
f 81/74/51 87/80/61 88/81/60
f 83/74/56 87/80/61 82/76/55
f 84/62/40 86/81/62 83/74/56
f 84/62/40 74/103/63 76/63/41
f 76/63/41 80/55/44 89/65/43
f 80/55/44 78/57/46 93/66/45
f 78/57/46 74/103/63 84/62/40
f 79/67/47 77/104/50 73/68/48
f 76/63/41 74/103/63 78/57/46
f 77/70/50 96/82/53 81/71/51
f 95/73/52 82/76/55 81/74/51
f 94/75/54 83/74/56 82/76/55
f 93/66/45 84/62/40 83/74/56
f 79/70/47 92/82/58 96/71/53
f 91/78/57 95/73/52 96/75/53
f 90/79/59 94/75/54 95/73/52
f 89/65/43 93/66/45 94/75/54
f 88/71/60 92/82/58 79/70/47
f 87/80/61 91/78/57 92/79/58
f 86/81/62 90/79/59 91/78/57
f 86/81/62 85/64/42 89/65/43
f 73/77/48 81/71/51 88/82/60
f 81/74/51 82/76/55 87/80/61
f 83/74/56 86/81/62 87/80/61
f 84/62/40 85/64/42 86/81/62
