# Blender 4.1.1
# www.blender.org
mtllib bobomb.mtl
o Icosphere
v 0.000000 0.997428 0.000000
v 0.723607 1.550208 0.525725
v -0.276388 1.550208 0.850649
v -0.894426 1.550212 0.000000
v -0.276388 1.550208 -0.850649
v 0.723607 1.550208 -0.525725
v 0.276388 2.444647 0.850649
v -0.711880 2.427519 0.525725
v -0.723607 2.444647 -0.525725
v 0.276388 2.444647 -0.850649
v 0.877555 2.426435 0.000000
v 0.000000 2.997427 0.000000
v -0.162456 1.146773 0.499995
v 0.425323 1.146773 0.309011
v 0.262869 1.471690 0.809012
v 0.850648 1.471692 0.000000
v 0.425323 1.146773 -0.309011
v -0.525730 1.146776 0.000000
v -0.688189 1.471691 0.499997
v -0.162456 1.146773 -0.499995
v -0.688189 1.471691 -0.499997
v 0.262869 1.471690 -0.809012
v 0.951058 1.997428 0.309013
v 0.951058 1.997428 -0.309013
v 0.000000 1.997428 1.000000
v 0.587786 1.997428 0.809017
v -0.951058 1.997428 0.309013
v -0.587786 1.997428 0.809017
v -0.587786 1.997428 -0.809017
v -0.951058 1.997428 -0.309013
v 0.587786 1.997428 -0.809017
v 0.000000 1.997428 -1.000000
v 0.688189 2.523164 0.499997
v -0.257682 2.537742 0.809012
v -0.850648 2.523164 0.000000
v -0.262869 2.523165 -0.809012
v 0.680119 2.525015 -0.499997
v 0.162456 2.848082 0.499995
v 0.550672 2.864436 0.000000
v -0.442237 2.850634 0.309011
v -0.425323 2.848082 -0.309011
v 0.162456 2.848082 -0.499995
v -1.790369 3.357620 0.836316
v -2.235848 3.216222 0.553030
v -1.996140 3.656986 0.336316
v 2.142783 3.412784 -0.499997
v 2.329473 3.295115 0.000000
v 2.047624 3.763367 0.000000
v 1.637328 0.441910 0.000000
v 1.212003 0.116992 -0.309011
v 1.212003 0.116992 0.309011
v -1.158660 0.122661 0.459853
v -1.321119 0.447577 0.959850
v -0.795386 0.122659 0.959848
v 2.236128 3.353950 -0.249998
v 2.188549 3.529241 0.000000
v 2.095203 3.588076 -0.249998
v 2.282800 3.324533 -0.124999
v 2.118086 3.646304 0.000000
v 2.118993 3.500430 -0.374998
v 2.189455 3.383367 -0.374998
v 2.259011 3.412179 0.000000
v 2.071414 3.675721 -0.124999
v 2.141876 3.558658 -0.124999
v 2.212338 3.441596 -0.124999
v 2.165666 3.471013 -0.249998
v 2.270705 3.636203 -0.154852
v 2.224032 3.665620 -0.279852
v 2.341167 3.519140 -0.154852
v 2.364957 3.431494 -0.279852
v 2.294494 3.548557 -0.279852
v 2.317377 3.606786 -0.029853
v -2.013109 3.286921 0.694673
v -2.115994 3.436604 0.444673
v -1.893255 3.507303 0.586316
v -2.214305 3.540568 0.547378
v -1.991566 3.611267 0.689022
v -2.111420 3.390885 0.797379
v -1.421559 0.351517 0.607677
v -0.836390 -0.010134 0.607676
v -1.017216 0.351514 1.164198
v 1.484130 0.324878 -0.284115
v 1.484130 0.324878 0.284115
v 1.093072 0.026138 0.000000
v 1.576126 0.004903 -0.297363
v 1.608204 0.003085 0.264582
v 1.131069 0.004602 0.032782
v -1.539848 0.002177 0.686905
v -0.863777 -0.007311 0.642059
v -1.146941 0.001749 1.250679
v 0.276388 2.447220 0.850649
v 0.000000 2.000000 1.000000
v 0.587786 2.000000 0.809017
v 0.688189 2.525736 0.499997
v -0.257682 2.540314 0.809012
v 0.638644 2.054147 0.924750
v 0.327246 2.501367 0.966383
v 0.739047 2.579883 0.615730
v 0.050858 2.054147 1.115733
v -0.206824 2.594461 0.924745
v 0.520014 2.321488 0.897824
v 0.548417 2.470209 0.810408
v 0.636506 2.343699 0.798631
v 0.126593 2.327724 1.022707
v 0.058735 2.470010 0.972412
v -0.014048 2.352240 1.011742
vn 0.1024 -0.9435 0.3151
vn 0.7002 -0.6617 0.2680
vn -0.2680 -0.9435 0.1947
vn -0.2680 -0.9435 -0.1947
vn 0.1024 -0.9435 -0.3151
vn 0.9050 -0.3304 0.2680
vn 0.0247 -0.3304 0.9435
vn -0.8897 -0.3304 0.3151
vn -0.5746 -0.3304 -0.7488
vn 0.5346 -0.3304 -0.7779
vn 0.8026 -0.1256 0.5831
vn -0.3066 -0.1256 0.9435
vn -0.9921 -0.1256 -0.0000
vn -0.3066 -0.1256 -0.9435
vn 0.8026 -0.1256 -0.5831
vn 0.4089 0.6617 0.6284
vn 0.4437 0.8310 0.3356
vn -0.7002 0.6617 -0.2680
vn 0.0385 0.6617 -0.7488
vn -0.4220 0.6991 -0.5772
vn 0.2296 0.9505 -0.2093
vn 0.4848 0.7768 -0.4018
vn 0.4126 0.6612 -0.6266
vn -0.1024 0.9435 -0.3151
vn -0.1876 0.7947 -0.5773
vn -0.4713 0.6617 -0.5831
vn -0.3230 0.9463 -0.0127
vn -0.6161 0.7874 -0.0201
vn -0.7253 0.6178 0.3038
vn -0.0949 0.9450 0.3131
vn -0.1760 0.8039 0.5681
vn 0.0577 0.6641 0.7454
vn 0.2296 0.9505 0.2093
vn 0.4819 0.7798 0.3997
vn 0.7876 0.5878 0.1846
vn 0.8911 0.3556 -0.2818
vn 0.7929 0.1987 -0.5761
vn 0.5793 0.3341 -0.7435
vn -0.0247 0.3304 -0.9435
vn -0.3035 0.1876 -0.9342
vn -0.5346 0.3304 -0.7779
vn -0.9050 0.3304 -0.2680
vn -0.9822 0.1876 -0.0000
vn -0.8901 0.3450 0.2977
vn -0.5557 0.3395 0.7589
vn -0.3037 0.1855 0.9345
vn 0.7947 0.1876 0.5773
vn 0.8966 0.3495 0.2720
vn 0.3066 0.1256 -0.9435
vn 0.3035 -0.1876 -0.9342
vn 0.0247 -0.3304 -0.9435
vn -0.8026 0.1256 -0.5831
vn -0.7947 -0.1876 -0.5773
vn -0.8897 -0.3304 -0.3151
vn -0.7996 0.1519 0.5810
vn -0.7947 -0.1876 0.5773
vn -0.5746 -0.3304 0.7488
vn 0.3066 0.1256 0.9435
vn 0.3035 -0.1876 0.9342
vn 0.5346 -0.3304 0.7779
vn 0.9856 0.1689 -0.0000
vn 0.9822 -0.1876 -0.0000
vn 0.9050 -0.3304 -0.2680
vn 0.4713 -0.6617 -0.5831
vn 0.1876 -0.7947 -0.5773
vn -0.0385 -0.6617 -0.7488
vn -0.4089 -0.6617 -0.6284
vn -0.4911 -0.7947 -0.3568
vn -0.7240 -0.6617 -0.1947
vn -0.7240 -0.6617 0.1947
vn 0.2285 0.3696 0.9007
vn -0.4089 -0.6617 0.6284
vn 0.7002 -0.6617 -0.2680
vn -0.8283 -0.5602 -0.0000
vn 0.3313 -0.9435 -0.0000
vn -0.0385 -0.6617 0.7488
vn 0.1876 -0.7947 0.5773
vn 0.4713 -0.6617 0.5831
vn -0.5582 0.5903 0.5831
vn -0.1953 -0.3454 -0.9179
vn -0.3011 -0.5973 0.7433
vn 0.8404 0.5058 -0.1947
vn -0.0000 -0.0000 1.0000
vn 0.4819 -0.7997 -0.3581
vn 0.6071 -0.7947 -0.0000
vn 0.3617 0.3488 0.8646
vn 0.3617 0.3488 -0.8646
vn -0.4911 -0.7947 0.3568
vn 0.6821 -0.5377 -0.4956
vn -0.7860 0.3696 -0.4956
vn -0.1668 -0.1004 -0.9809
vn 0.5197 -0.6499 0.5546
vn -0.4208 0.8353 0.3537
vn 0.7043 -0.0344 0.7090
vn -0.7600 -0.6457 -0.0738
vn 0.1551 0.7646 -0.6255
vn 0.8710 -0.2463 0.4252
vn -0.4557 -0.1815 0.8714
vn -0.0017 -1.0000 -0.0031
vn 0.9470 0.3202 -0.0264
vn -0.5162 -0.2434 -0.8211
vn -0.0135 -0.9999 0.0086
vn -0.1125 -0.2666 -0.9572
vn -0.7494 0.3923 0.5334
vn -0.2226 0.9740 -0.0433
vn -0.7549 -0.1331 0.6422
vn 0.8623 -0.4695 0.1898
vn 0.1827 0.9657 -0.1845
vn 0.9719 -0.2254 -0.0676
vn -0.5149 -0.4277 0.7429
vn 0.5746 0.3304 0.7488
vn -0.0169 0.3261 0.9452
vt 0.181819 0.000000
vt 0.227273 0.078731
vt 0.136365 0.078731
vt 0.272728 0.157461
vt 0.318182 0.078731
vt 0.363637 0.157461
vt 0.909091 0.000000
vt 0.954545 0.078731
vt 0.863636 0.078731
vt 0.727273 0.000000
vt 0.772727 0.078731
vt 0.681818 0.078731
vt 0.545455 0.000000
vt 0.590909 0.078731
vt 0.500000 0.078731
vt 0.318182 0.236191
vt 0.090910 0.157461
vt 0.181819 0.157461
vt 0.136365 0.236191
vt 0.818182 0.157461
vt 0.909091 0.157461
vt 0.863636 0.236191
vt 0.636364 0.157461
vt 0.727273 0.157461
vt 0.681818 0.236191
vt 0.454546 0.157461
vt 0.545455 0.157461
vt 0.500000 0.236191
vt 0.227273 0.236191
vt 0.045455 0.236191
vt 0.772727 0.236191
vt 0.590909 0.236191
vt 0.409092 0.236191
vt 0.181819 0.314921
vt 0.272728 0.314921
vt 0.227273 0.393651
vt 0.090910 0.314921
vt 0.045455 0.393651
vt 0.068182 0.354286
vt 0.727273 0.314921
vt 0.818182 0.314921
vt 0.772727 0.393651
vt 0.545455 0.314921
vt 0.636364 0.314921
vt 0.590909 0.393651
vt 0.454546 0.314921
vt 0.409092 0.393651
vt 0.420455 0.373969
vt 0.431819 0.354286
vt 0.443182 0.334604
vt 0.500000 0.393651
vt 0.454546 0.472382
vt 0.681818 0.393651
vt 0.636364 0.472382
vt 0.863636 0.393651
vt 0.818182 0.472382
vt 0.909091 0.314921
vt 0.136365 0.393651
vt 0.090910 0.472382
vt 0.318182 0.393651
vt 0.272728 0.472382
vt 0.363637 0.314921
vt 0.000000 0.314921
vt 0.954545 0.236191
vt 1.000000 0.157461
vt 0.931818 0.118096
vt 0.409092 0.078731
vt 0.363637 0.078731
vt 0.363637 0.000000
vt 0.045455 0.314921
vt 0.022728 0.354286
vt 0.886364 0.354286
vt 0.386364 0.314921
vt 0.375001 0.334604
vt 0.352273 0.334604
vt 0.340910 0.354286
vt 0.329546 0.373969
vt 0.431819 0.314921
vt 0.409091 0.314921
vt 0.340910 0.118096
vt 0.386364 0.118096
vt 0.909091 0.078731
vt 0.886364 0.118096
vt 0.386364 0.354286
vt 0.409091 0.354286
vt 0.397728 0.373969
vt 0.420455 0.334604
vt 0.397728 0.334604
vt 0.227273 0.314921
vt 0.113637 0.275556
vt 0.159092 0.275556
vt 0.136364 0.314921
vt 0.250001 0.275556
vt 0.204546 0.275556
s 0
usemtl Material.001
f 1/1/1 14/2/1 13/3/1
f 2/4/2 14/5/2 16/6/2
f 1/7/3 13/8/3 18/9/3
f 1/10/4 18/11/4 20/12/4
f 1/13/5 20/14/5 17/15/5
f 2/4/6 16/6/6 23/16/6
f 3/17/7 15/18/7 25/19/7
f 4/20/8 19/21/8 27/22/8
f 5/23/9 21/24/9 29/25/9
f 6/26/10 22/27/10 31/28/10
f 2/4/11 23/16/11 26/29/11
f 3/17/12 25/19/12 28/30/12
f 4/20/13 27/22/13 30/31/13
f 5/23/14 29/25/14 32/32/14
f 6/26/15 31/28/15 24/33/15
f 7/34/16 33/35/16 38/36/16
f 34/37/17 40/38/17 45/38/17 75/39/17 43/37/17
f 9/40/18 35/41/18 41/42/18
f 10/43/19 36/44/19 42/45/19
f 37/46/20 39/47/20 48/47/20 63/48/20 57/49/20 60/50/20 46/46/20
f 39/47/21 42/51/21 12/52/21
f 39/47/22 37/46/22 42/51/22
f 37/46/23 10/43/23 42/51/23
f 42/45/24 41/53/24 12/54/24
f 42/45/25 36/44/25 41/53/25
f 36/44/26 9/40/26 41/53/26
f 41/42/27 40/55/27 12/56/27
f 41/42/28 35/41/28 40/55/28
f 35/41/29 8/57/29 40/55/29
f 40/38/30 38/58/30 12/59/30
f 40/38/31 34/37/31 38/58/31
f 34/37/32 7/34/32 38/58/32
f 38/36/33 39/60/33 12/61/33
f 38/36/34 33/35/34 39/60/34
f 33/35/35 11/62/35 39/60/35
f 24/33/36 37/46/36 11/62/36
f 24/33/37 31/28/37 37/46/37
f 31/28/38 10/43/38 37/46/38
f 32/32/39 36/44/39 10/43/39
f 32/32/40 29/25/40 36/44/40
f 29/25/41 9/40/41 36/44/41
f 30/31/42 35/41/42 9/40/42
f 30/31/43 27/22/43 35/41/43
f 27/22/44 8/57/44 35/41/44
f 28/30/45 34/37/45 8/63/45
f 28/30/46 25/19/46 34/37/46
f 26/29/47 23/16/47 33/35/47
f 23/16/48 11/62/48 33/35/48
f 31/28/49 32/32/49 10/43/49
f 31/28/50 22/27/50 32/32/50
f 22/27/51 5/23/51 32/32/51
f 29/25/52 30/31/52 9/40/52
f 29/25/53 21/24/53 30/31/53
f 21/24/54 4/20/54 30/31/54
f 27/22/55 28/64/55 8/57/55
f 27/22/56 19/21/56 28/64/56
f 19/21/57 3/65/57 28/64/57
f 25/19/58 26/29/58 7/34/58
f 25/19/59 15/18/59 26/29/59
f 15/18/60 2/4/60 26/29/60
f 23/16/61 24/33/61 11/62/61
f 23/16/62 16/6/62 24/33/62
f 16/6/63 6/26/63 24/33/63
f 17/15/64 22/27/64 6/26/64
f 17/15/65 20/14/65 22/27/65
f 20/14/66 5/23/66 22/27/66
f 20/12/67 21/24/67 5/23/67
f 20/12/68 18/11/68 21/24/68
f 18/11/69 4/20/69 21/24/69
f 18/9/70 19/21/70 4/20/70
f 13/8/71 19/21/71 53/21/71 81/66/71 54/8/71
f 13/8/72 3/65/72 19/21/72
f 16/6/73 17/67/73 6/26/73
f 14/5/74 17/67/74 50/67/74 84/68/74 51/5/74
f 14/5/75 1/69/75 17/67/75
f 13/3/76 15/18/76 3/17/76
f 13/3/77 14/2/77 15/18/77
f 14/2/78 2/4/78 15/18/78
f 44/63/79 73/70/79 74/71/79
f 40/55/80 8/57/80 44/57/80 74/72/80 45/55/80
f 8/63/81 34/37/81 43/37/81 73/70/81 44/63/81
f 47/62/82 58/73/82 62/74/82
f 39/60/83 11/62/83 47/62/83 62/75/83 56/76/83 59/77/83 48/60/83
f 11/62/84 37/46/84 46/46/84 61/78/84 55/79/84 58/73/84 47/62/84
f 49/6/85 83/80/85 82/81/85
f 16/6/86 14/5/86 51/5/86 83/80/86 49/6/86
f 17/67/87 16/6/87 49/6/87 82/81/87 50/67/87
f 52/9/88 80/82/88 79/83/88
f 18/9/89 13/8/89 54/8/89 80/82/89 52/9/89
f 19/21/90 18/9/90 52/9/90 79/83/90 53/21/90
f 56/84/82 64/85/82 59/86/82
f 66/87/91 57/49/91 68/49/91 71/87/91
f 55/79/82 61/78/82 66/87/82
f 66/87/82 60/50/82 57/49/82
f 66/87/82 61/78/82 60/50/82
f 61/78/82 46/46/82 60/50/82
f 55/79/91 66/87/91 71/87/91 70/79/91
f 56/84/92 65/88/92 69/88/92 72/84/92
f 65/88/92 55/79/92 70/79/92 69/88/92
f 59/86/82 63/48/82 48/47/82
f 59/86/82 64/85/82 63/48/82
f 64/85/82 57/49/82 63/48/82
f 62/74/82 65/88/82 56/84/82
f 62/74/82 58/73/82 65/88/82
f 58/73/82 55/79/82 65/88/82
f 72/84/82 69/88/82 67/85/82
f 67/85/82 71/87/82 68/49/82
f 67/85/82 69/88/82 71/87/82
f 69/88/82 70/79/82 71/87/82
f 57/49/93 64/85/93 67/85/93 68/49/93
f 64/85/93 56/84/93 72/84/93 67/85/93
f 74/71/79 75/39/79 45/38/79
f 73/70/94 75/39/94 77/39/94 78/70/94
f 73/70/79 43/37/79 75/39/79
f 76/71/79 78/70/79 77/39/79
f 74/71/95 73/70/95 78/70/95 76/71/95
f 75/39/96 74/71/96 76/71/96 77/39/96
f 79/83/88 81/66/88 53/21/88
f 80/82/97 81/66/97 90/66/97 89/82/97
f 80/82/88 54/8/88 81/66/88
f 82/81/85 84/68/85 50/67/85
f 83/80/98 84/68/98 87/68/98 86/80/98
f 83/80/85 51/5/85 84/68/85
f 85/81/99 86/80/99 87/68/99
f 82/81/100 83/80/100 86/80/100 85/81/100
f 84/68/101 82/81/101 85/81/101 87/68/101
f 88/83/102 89/82/102 90/66/102
f 79/83/103 80/82/103 89/82/103 88/83/103
f 81/66/104 79/83/104 88/83/104 90/66/104
usemtl Material
f 94/35/105 91/34/105 97/34/105 102/89/105 98/35/105
f 95/37/106 92/19/106 99/19/106 106/90/106 100/37/106
f 92/19/107 91/34/107 97/34/107 104/91/107 99/19/107
f 91/34/108 95/37/108 100/37/108 105/92/108 97/34/108
f 93/29/109 94/35/109 98/35/109 103/93/109 96/29/109
f 91/34/110 93/29/110 96/29/110 101/94/110 97/34/110
f 96/29/111 103/93/111 98/35/111 102/89/111 97/34/111 101/94/111
f 99/19/112 104/91/112 97/34/112 105/92/112 100/37/112 106/90/112
